<?xml version="1.0" encoding="UTF-8" standalone="no"?>
<!DOCTYPE svg PUBLIC "-//W3C//DTD SVG 1.1//EN"
 "http://www.w3.org/Graphics/SVG/1.1/DTD/svg11.dtd">
<!-- Generated by graphviz version 2.26.3 (20100126.1600)
 -->
<!-- Title: G Pages: 1 -->
<svg width="156pt" height="412pt"
 viewBox="0.00 0.00 156.00 412.00" xmlns="http://www.w3.org/2000/svg" xmlns:xlink="http://www.w3.org/1999/xlink">
<g id="graph1" class="graph" transform="scale(1 1) rotate(0) translate(4 408)">
<title>G</title>
<polygon fill="white" stroke="white" points="-4,5 -4,-408 153,-408 153,5 -4,5"/>
<!-- q2 -->
<g id="node1" class="node"><title>q2</title>
<ellipse fill="none" stroke="black" cx="94" cy="-386" rx="27" ry="18"/>
<text text-anchor="middle" x="94" y="-381.9" font-family="Times Roman,serif" font-size="14.00">q2</text>
</g>
<!-- q2&#45;&gt;q2 -->
<g id="edge2" class="edge"><title>q2&#45;&gt;q2</title>
<path fill="none" stroke="black" d="M118.532,-394.121C129.508,-394.895 139,-392.188 139,-386 139,-381.843 134.715,-379.257 128.574,-378.242"/>
<polygon fill="black" stroke="black" points="128.652,-374.742 118.532,-377.879 128.4,-381.738 128.652,-374.742"/>
<text text-anchor="middle" x="143.5" y="-381.9" font-family="Times Roman,serif" font-size="14.00">b</text>
</g>
<!-- q1 -->
<g id="node4" class="node"><title>q1</title>
<ellipse fill="none" stroke="black" cx="94" cy="-296" rx="27" ry="18"/>
<text text-anchor="middle" x="94" y="-291.9" font-family="Times Roman,serif" font-size="14.00">q1</text>
</g>
<!-- q2&#45;&gt;q1 -->
<g id="edge4" class="edge"><title>q2&#45;&gt;q1</title>
<path fill="none" stroke="black" d="M94,-367.787C94,-355.344 94,-338.605 94,-324.421"/>
<polygon fill="black" stroke="black" points="97.5001,-324.186 94,-314.186 90.5001,-324.186 97.5001,-324.186"/>
<text text-anchor="middle" x="98.5" y="-336.9" font-family="Times Roman,serif" font-size="14.00">a</text>
</g>
<!-- q1&#45;&gt;q1 -->
<g id="edge8" class="edge"><title>q1&#45;&gt;q1</title>
<path fill="none" stroke="black" d="M118.532,-304.121C129.508,-304.895 139,-302.188 139,-296 139,-291.843 134.715,-289.257 128.574,-288.242"/>
<polygon fill="black" stroke="black" points="128.652,-284.742 118.532,-287.879 128.4,-291.738 128.652,-284.742"/>
<text text-anchor="middle" x="143.5" y="-291.9" font-family="Times Roman,serif" font-size="14.00">a</text>
</g>
<!-- q3 -->
<g id="node6" class="node"><title>q3</title>
<ellipse fill="none" stroke="black" cx="27" cy="-206" rx="27" ry="18"/>
<text text-anchor="middle" x="27" y="-201.9" font-family="Times Roman,serif" font-size="14.00">q3</text>
</g>
<!-- q1&#45;&gt;q3 -->
<g id="edge6" class="edge"><title>q1&#45;&gt;q3</title>
<path fill="none" stroke="black" d="M81.7112,-279.493C71.5111,-265.791 56.8542,-246.103 45.2776,-230.552"/>
<polygon fill="black" stroke="black" points="47.9899,-228.334 39.2109,-222.403 42.3749,-232.514 47.9899,-228.334"/>
<text text-anchor="middle" x="71.5" y="-246.9" font-family="Times Roman,serif" font-size="14.00">b</text>
</g>
<!-- q3&#45;&gt;q3 -->
<g id="edge14" class="edge"><title>q3&#45;&gt;q3</title>
<path fill="none" stroke="black" d="M51.5325,-214.121C62.5078,-214.895 72,-212.188 72,-206 72,-201.843 67.7151,-199.257 61.5743,-198.242"/>
<polygon fill="black" stroke="black" points="61.6524,-194.742 51.5325,-197.879 61.3995,-201.738 61.6524,-194.742"/>
<text text-anchor="middle" x="76.5" y="-201.9" font-family="Times Roman,serif" font-size="14.00">b</text>
</g>
<!-- q4 -->
<g id="node8" class="node"><title>q4</title>
<ellipse fill="none" stroke="black" cx="88" cy="-116" rx="27" ry="18"/>
<text text-anchor="middle" x="88" y="-111.9" font-family="Times Roman,serif" font-size="14.00">q4</text>
</g>
<!-- q3&#45;&gt;q4 -->
<g id="edge16" class="edge"><title>q3&#45;&gt;q4</title>
<path fill="none" stroke="black" d="M38.1883,-189.493C47.3315,-176.003 60.4079,-156.71 70.8686,-141.276"/>
<polygon fill="black" stroke="black" points="73.9627,-142.949 76.676,-132.708 68.1682,-139.022 73.9627,-142.949"/>
<text text-anchor="middle" x="67.5" y="-156.9" font-family="Times Roman,serif" font-size="14.00">a</text>
</g>
<!-- q4&#45;&gt;q1 -->
<g id="edge12" class="edge"><title>q4&#45;&gt;q1</title>
<path fill="none" stroke="black" d="M88.601,-134.031C89.6452,-165.357 91.802,-230.061 93.0505,-267.514"/>
<polygon fill="black" stroke="black" points="89.5604,-267.872 93.3917,-277.75 96.5565,-267.639 89.5604,-267.872"/>
<text text-anchor="middle" x="96.5" y="-201.9" font-family="Times Roman,serif" font-size="14.00">a</text>
</g>
<!-- q0 -->
<g id="node10" class="node"><title>q0</title>
<ellipse fill="none" stroke="black" cx="88" cy="-22" rx="27" ry="18"/>
<ellipse fill="none" stroke="black" cx="88" cy="-22" rx="31" ry="22"/>
<text text-anchor="middle" x="88" y="-17.9" font-family="Times Roman,serif" font-size="14.00">q0</text>
</g>
<!-- q4&#45;&gt;q0 -->
<g id="edge10" class="edge"><title>q4&#45;&gt;q0</title>
<path fill="none" stroke="black" d="M71.3489,-101.502C65.6612,-95.4908 59.9852,-88.0416 57,-80 54.2159,-72.5001 54.4103,-69.5692 57,-62 58.6211,-57.2617 61.0572,-52.6505 63.865,-48.3445"/>
<polygon fill="black" stroke="black" points="66.9028,-50.1214 70.0082,-39.9919 61.2637,-45.9739 66.9028,-50.1214"/>
<text text-anchor="middle" x="61.5" y="-66.9" font-family="Times Roman,serif" font-size="14.00">b</text>
</g>
<!-- q0&#45;&gt;q4 -->
<g id="edge18" class="edge"><title>q0&#45;&gt;q4</title>
<path fill="none" stroke="black" d="M88,-44.0388C88,-57.0958 88,-73.7734 88,-87.785"/>
<polygon fill="black" stroke="black" points="84.5001,-87.8758 88,-97.8759 91.5001,-87.8759 84.5001,-87.8758"/>
<text text-anchor="middle" x="92.5" y="-66.9" font-family="Times Roman,serif" font-size="14.00">b</text>
</g>
<!-- q0&#45;&gt;q4 -->
<g id="edge20" class="edge"><title>q0&#45;&gt;q4</title>
<path fill="none" stroke="black" d="M94.9375,-43.7022C97.5969,-54.5722 99.6422,-67.952 98,-80 97.6268,-82.7376 97.101,-85.5608 96.4837,-88.3653"/>
<polygon fill="black" stroke="black" points="93.0414,-87.6996 93.956,-98.2549 99.8234,-89.4331 93.0414,-87.6996"/>
<text text-anchor="middle" x="102.5" y="-66.9" font-family="Times Roman,serif" font-size="14.00">a</text>
</g>
</g>
</svg>
