<?xml version="1.0" encoding="UTF-8" standalone="no"?>
<!DOCTYPE svg PUBLIC "-//W3C//DTD SVG 1.1//EN"
 "http://www.w3.org/Graphics/SVG/1.1/DTD/svg11.dtd">
<!-- Generated by graphviz version 2.26.3 (20100126.1600)
 -->
<!-- Title: G Pages: 1 -->
<svg width="196pt" height="232pt"
 viewBox="0.00 0.00 196.00 232.00" xmlns="http://www.w3.org/2000/svg" xmlns:xlink="http://www.w3.org/1999/xlink">
<g id="graph1" class="graph" transform="scale(1 1) rotate(0) translate(4 228)">
<title>G</title>
<polygon fill="white" stroke="white" points="-4,5 -4,-228 193,-228 193,5 -4,5"/>
<!-- q6 -->
<g id="node1" class="node"><title>q6</title>
<ellipse fill="none" stroke="black" cx="27" cy="-202" rx="27" ry="18"/>
<text text-anchor="middle" x="27" y="-197.9" font-family="Times Roman,serif" font-size="14.00">q6</text>
</g>
<!-- q6&#45;&gt;q6 -->
<g id="edge2" class="edge"><title>q6&#45;&gt;q6</title>
<path fill="none" stroke="black" d="M50.6146,-210.78C61.9731,-211.864 72,-208.938 72,-202 72,-197.339 67.4737,-194.488 61.0584,-193.448"/>
<polygon fill="black" stroke="black" points="60.6888,-189.939 50.6146,-193.22 60.5356,-196.938 60.6888,-189.939"/>
<text text-anchor="middle" x="76.5" y="-197.9" font-family="Times Roman,serif" font-size="14.00">b</text>
</g>
<!-- q5 -->
<g id="node4" class="node"><title>q5</title>
<ellipse fill="none" stroke="black" cx="78" cy="-108" rx="27" ry="18"/>
<text text-anchor="middle" x="78" y="-103.9" font-family="Times Roman,serif" font-size="14.00">q5</text>
</g>
<!-- q6&#45;&gt;q5 -->
<g id="edge4" class="edge"><title>q6&#45;&gt;q5</title>
<path fill="none" stroke="black" d="M36.3542,-184.759C44.0465,-170.581 55.0688,-150.265 63.8418,-134.095"/>
<polygon fill="black" stroke="black" points="67.0126,-135.591 68.7051,-125.132 60.8598,-132.252 67.0126,-135.591"/>
<text text-anchor="middle" x="62.5" y="-148.9" font-family="Times Roman,serif" font-size="14.00">a</text>
</g>
<!-- q2 -->
<g id="node6" class="node"><title>q2</title>
<ellipse fill="none" stroke="black" cx="78" cy="-18" rx="27" ry="18"/>
<text text-anchor="middle" x="78" y="-13.9" font-family="Times Roman,serif" font-size="14.00">q2</text>
</g>
<!-- q5&#45;&gt;q2 -->
<g id="edge6" class="edge"><title>q5&#45;&gt;q2</title>
<path fill="none" stroke="black" d="M61.3489,-93.5018C55.6612,-87.4908 49.9852,-80.0416 47,-72 44.2159,-64.5001 44.2159,-61.4999 47,-54 48.8191,-49.0996 51.6374,-44.4193 54.8487,-40.1503"/>
<polygon fill="black" stroke="black" points="57.5422,-42.3856 61.3489,-32.4982 52.2072,-37.8536 57.5422,-42.3856"/>
<text text-anchor="middle" x="51.5" y="-58.9" font-family="Times Roman,serif" font-size="14.00">b</text>
</g>
<!-- q5&#45;&gt;q2 -->
<g id="edge8" class="edge"><title>q5&#45;&gt;q2</title>
<path fill="none" stroke="black" d="M78,-89.7872C78,-77.3443 78,-60.6053 78,-46.4211"/>
<polygon fill="black" stroke="black" points="81.5001,-46.1857 78,-36.1858 74.5001,-46.1858 81.5001,-46.1857"/>
<text text-anchor="middle" x="82.5" y="-58.9" font-family="Times Roman,serif" font-size="14.00">a</text>
</g>
<!-- q2&#45;&gt;q5 -->
<g id="edge12" class="edge"><title>q2&#45;&gt;q5</title>
<path fill="none" stroke="black" d="M83.956,-35.7451C85.6095,-41.4999 87.1765,-47.9584 88,-54 89.0805,-61.9267 89.0805,-64.0733 88,-72 87.6268,-74.7376 87.101,-77.5608 86.4837,-80.3653"/>
<polygon fill="black" stroke="black" points="83.0414,-79.6996 83.956,-90.2549 89.8234,-81.4331 83.0414,-79.6996"/>
<text text-anchor="middle" x="92.5" y="-58.9" font-family="Times Roman,serif" font-size="14.00">a</text>
</g>
<!-- q2&#45;&gt;q2 -->
<g id="edge10" class="edge"><title>q2&#45;&gt;q2</title>
<path fill="none" stroke="black" d="M102.532,-26.1211C113.508,-26.8945 123,-24.1875 123,-18 123,-13.8428 118.715,-11.2567 112.574,-10.2417"/>
<polygon fill="black" stroke="black" points="112.652,-6.74237 102.532,-9.87891 112.4,-13.7378 112.652,-6.74237"/>
<text text-anchor="middle" x="127.5" y="-13.9" font-family="Times Roman,serif" font-size="14.00">b</text>
</g>
<!-- q0 -->
<g id="node10" class="node"><title>q0</title>
<ellipse fill="none" stroke="black" cx="130" cy="-202" rx="27" ry="18"/>
<ellipse fill="none" stroke="black" cx="130" cy="-202" rx="31" ry="22"/>
<text text-anchor="middle" x="130" y="-197.9" font-family="Times Roman,serif" font-size="14.00">q0</text>
</g>
<!-- q0&#45;&gt;q5 -->
<g id="edge16" class="edge"><title>q0&#45;&gt;q5</title>
<path fill="none" stroke="black" d="M118.46,-181.138C110.802,-167.295 100.69,-149.016 92.4909,-134.195"/>
<polygon fill="black" stroke="black" points="95.3276,-132.092 87.4243,-125.036 89.2024,-135.481 95.3276,-132.092"/>
<text text-anchor="middle" x="111.5" y="-148.9" font-family="Times Roman,serif" font-size="14.00">a</text>
</g>
<!-- q0&#45;&gt;q0 -->
<g id="edge14" class="edge"><title>q0&#45;&gt;q0</title>
<path fill="none" stroke="black" d="M158.689,-210.965C169.781,-211.363 179,-208.375 179,-202 179,-197.717 174.838,-194.962 168.743,-193.737"/>
<polygon fill="black" stroke="black" points="168.908,-190.24 158.689,-193.035 168.421,-197.223 168.908,-190.24"/>
<text text-anchor="middle" x="183.5" y="-197.9" font-family="Times Roman,serif" font-size="14.00">b</text>
</g>
</g>
</svg>
