<?xml version="1.0" encoding="UTF-8" standalone="no"?>
<!DOCTYPE svg PUBLIC "-//W3C//DTD SVG 1.1//EN"
 "http://www.w3.org/Graphics/SVG/1.1/DTD/svg11.dtd">
<!-- Generated by graphviz version 2.26.3 (20100126.1600)
 -->
<!-- Title: G Pages: 1 -->
<svg width="219pt" height="322pt"
 viewBox="0.00 0.00 219.00 322.00" xmlns="http://www.w3.org/2000/svg" xmlns:xlink="http://www.w3.org/1999/xlink">
<g id="graph1" class="graph" transform="scale(1 1) rotate(0) translate(4 318)">
<title>G</title>
<polygon fill="white" stroke="white" points="-4,5 -4,-318 216,-318 216,5 -4,5"/>
<!-- q5 -->
<g id="node1" class="node"><title>q5</title>
<ellipse fill="none" stroke="black" cx="27" cy="-295" rx="27" ry="18.3848"/>
<text text-anchor="middle" x="27" y="-291.4" font-family="Times Roman,serif" font-size="14.00">q5</text>
</g>
<!-- q5&#45;&gt;q5 -->
<g id="edge4" class="edge"><title>q5&#45;&gt;q5</title>
<path fill="none" stroke="black" d="M51.0743,-303.454C62.2423,-304.377 72,-301.559 72,-295 72,-290.593 67.5952,-287.875 61.3174,-286.846"/>
<polygon fill="black" stroke="black" points="61.1726,-283.34 51.0743,-286.546 60.9674,-290.337 61.1726,-283.34"/>
<text text-anchor="middle" x="76.5" y="-291.4" font-family="Times Roman,serif" font-size="14.00">a</text>
</g>
<!-- q0 -->
<g id="node3" class="node"><title>q0</title>
<ellipse fill="none" stroke="black" cx="92" cy="-203" rx="27" ry="18.3848"/>
<text text-anchor="middle" x="92" y="-199.4" font-family="Times Roman,serif" font-size="14.00">q0</text>
</g>
<!-- q5&#45;&gt;q0 -->
<g id="edge2" class="edge"><title>q5&#45;&gt;q0</title>
<path fill="none" stroke="black" d="M38.922,-278.126C48.8176,-264.12 63.037,-243.994 74.268,-228.098"/>
<polygon fill="black" stroke="black" points="77.2418,-229.954 80.1536,-219.767 71.5247,-225.915 77.2418,-229.954"/>
<text text-anchor="middle" x="69.5" y="-245.4" font-family="Times Roman,serif" font-size="14.00">b</text>
</g>
<!-- q0&#45;&gt;q0 -->
<g id="edge24" class="edge"><title>q0&#45;&gt;q0</title>
<path fill="none" stroke="black" d="M116.074,-211.454C127.242,-212.377 137,-209.559 137,-203 137,-198.593 132.595,-195.875 126.317,-194.846"/>
<polygon fill="black" stroke="black" points="126.173,-191.34 116.074,-194.546 125.967,-198.337 126.173,-191.34"/>
<text text-anchor="middle" x="141.5" y="-199.4" font-family="Times Roman,serif" font-size="14.00">a</text>
</g>
<!-- q2 -->
<g id="node5" class="node"><title>q2</title>
<ellipse fill="none" stroke="black" cx="92" cy="-111" rx="27" ry="18.3848"/>
<text text-anchor="middle" x="92" y="-107.4" font-family="Times Roman,serif" font-size="14.00">q2</text>
</g>
<!-- q0&#45;&gt;q2 -->
<g id="edge22" class="edge"><title>q0&#45;&gt;q2</title>
<path fill="none" stroke="black" d="M92,-184.382C92,-171.538 92,-154.216 92,-139.627"/>
<polygon fill="black" stroke="black" points="95.5001,-139.59 92,-129.59 88.5001,-139.59 95.5001,-139.59"/>
<text text-anchor="middle" x="96.5" y="-153.4" font-family="Times Roman,serif" font-size="14.00">b</text>
</g>
<!-- q1 -->
<g id="node7" class="node"><title>q1</title>
<ellipse fill="none" stroke="black" cx="130" cy="-19" rx="27" ry="18.3848"/>
<text text-anchor="middle" x="130" y="-15.4" font-family="Times Roman,serif" font-size="14.00">q1</text>
</g>
<!-- q2&#45;&gt;q1 -->
<g id="edge6" class="edge"><title>q2&#45;&gt;q1</title>
<path fill="none" stroke="black" d="M99.5076,-92.8238C105.008,-79.5071 112.567,-61.2074 118.782,-46.1594"/>
<polygon fill="black" stroke="black" points="122.055,-47.4042 122.637,-36.8254 115.585,-44.7319 122.055,-47.4042"/>
<text text-anchor="middle" x="118.5" y="-61.4" font-family="Times Roman,serif" font-size="14.00">b</text>
</g>
<!-- q3 -->
<g id="node9" class="node"><title>q3</title>
<ellipse fill="none" stroke="black" cx="58" cy="-19" rx="27" ry="18.3848"/>
<text text-anchor="middle" x="58" y="-15.4" font-family="Times Roman,serif" font-size="14.00">q3</text>
</g>
<!-- q2&#45;&gt;q3 -->
<g id="edge8" class="edge"><title>q2&#45;&gt;q3</title>
<path fill="none" stroke="black" d="M75.5759,-95.9317C69.916,-89.7332 64.1999,-82.1068 61,-74 57.7801,-65.8423 56.4822,-56.4709 56.1424,-47.8022"/>
<polygon fill="black" stroke="black" points="59.6425,-47.7044 56.1384,-37.7058 52.6425,-47.7072 59.6425,-47.7044"/>
<text text-anchor="middle" x="65.5" y="-61.4" font-family="Times Roman,serif" font-size="14.00">a</text>
</g>
<!-- q1&#45;&gt;q1 -->
<g id="edge10" class="edge"><title>q1&#45;&gt;q1</title>
<path fill="none" stroke="black" d="M156.347,-23.2957C166.533,-23.4866 175,-22.0547 175,-19 175,-17.0431 171.525,-15.7522 166.35,-15.1273"/>
<polygon fill="black" stroke="black" points="166.486,-11.63 156.347,-14.7043 166.19,-18.6237 166.486,-11.63"/>
<text text-anchor="middle" x="179.5" y="-15.4" font-family="Times Roman,serif" font-size="14.00">b</text>
</g>
<!-- q1&#45;&gt;q1 -->
<g id="edge12" class="edge"><title>q1&#45;&gt;q1</title>
<path fill="none" stroke="black" d="M148.703,-32.3594C169.375,-41.2656 193,-36.8125 193,-19 193,-3.9707 176.181,1.54787 158.508,-2.44429"/>
<polygon fill="black" stroke="black" points="157.126,0.786507 148.703,-5.64062 159.296,-5.86879 157.126,0.786507"/>
<text text-anchor="middle" x="197.5" y="-15.4" font-family="Times Roman,serif" font-size="14.00">a</text>
</g>
<!-- q3&#45;&gt;q5 -->
<g id="edge20" class="edge"><title>q3&#45;&gt;q5</title>
<path fill="none" stroke="black" d="M54.8036,-37.4134C53.8317,-43.3373 52.8081,-49.9365 52,-56 41.9187,-131.644 33.4805,-221.209 29.4842,-266.182"/>
<polygon fill="black" stroke="black" points="25.9784,-266.095 28.5879,-276.364 32.9514,-266.709 25.9784,-266.095"/>
<text text-anchor="middle" x="45.5" y="-153.4" font-family="Times Roman,serif" font-size="14.00">a</text>
</g>
<!-- q3&#45;&gt;q2 -->
<g id="edge18" class="edge"><title>q3&#45;&gt;q2</title>
<path fill="none" stroke="black" d="M64.7034,-37.1385C69.543,-50.2339 76.1688,-68.1627 81.6805,-83.0767"/>
<polygon fill="black" stroke="black" points="78.5331,-84.6571 85.2827,-92.8238 85.0991,-82.2305 78.5331,-84.6571"/>
<text text-anchor="middle" x="82.5" y="-61.4" font-family="Times Roman,serif" font-size="14.00">b</text>
</g>
<!-- q4 -->
<g id="node12" class="node"><title>q4</title>
<ellipse fill="none" stroke="black" cx="126" cy="-295" rx="27" ry="18.3848"/>
<text text-anchor="middle" x="126" y="-291.4" font-family="Times Roman,serif" font-size="14.00">q4</text>
</g>
<!-- q4&#45;&gt;q0 -->
<g id="edge16" class="edge"><title>q4&#45;&gt;q0</title>
<path fill="none" stroke="black" d="M119.283,-276.824C114.44,-263.719 107.813,-245.789 102.304,-230.88"/>
<polygon fill="black" stroke="black" points="105.453,-229.305 98.7034,-221.138 98.8869,-231.732 105.453,-229.305"/>
<text text-anchor="middle" x="116.5" y="-245.4" font-family="Times Roman,serif" font-size="14.00">a</text>
</g>
<!-- q4&#45;&gt;q4 -->
<g id="edge14" class="edge"><title>q4&#45;&gt;q4</title>
<path fill="none" stroke="black" d="M150.074,-303.454C161.242,-304.377 171,-301.559 171,-295 171,-290.593 166.595,-287.875 160.317,-286.846"/>
<polygon fill="black" stroke="black" points="160.173,-283.34 150.074,-286.546 159.967,-290.337 160.173,-283.34"/>
<text text-anchor="middle" x="175.5" y="-291.4" font-family="Times Roman,serif" font-size="14.00">b</text>
</g>
</g>
</svg>
