<?xml version="1.0" encoding="UTF-8" standalone="no"?>
<!DOCTYPE svg PUBLIC "-//W3C//DTD SVG 1.1//EN"
 "http://www.w3.org/Graphics/SVG/1.1/DTD/svg11.dtd">
<!-- Generated by graphviz version 2.26.3 (20100126.1600)
 -->
<!-- Title: G Pages: 1 -->
<svg width="367pt" height="790pt"
 viewBox="0.00 0.00 367.00 790.00" xmlns="http://www.w3.org/2000/svg" xmlns:xlink="http://www.w3.org/1999/xlink">
<g id="graph1" class="graph" transform="scale(1 1) rotate(0) translate(4 786)">
<title>G</title>
<polygon fill="white" stroke="white" points="-4,5 -4,-786 364,-786 364,5 -4,5"/>
<!-- q0 -->
<g id="node1" class="node"><title>q0</title>
<ellipse fill="none" stroke="black" cx="233" cy="-671" rx="27" ry="18.3848"/>
<text text-anchor="middle" x="233" y="-667.4" font-family="Times Roman,serif" font-size="14.00">q0</text>
</g>
<!-- q0&#45;&gt;q0 -->
<g id="edge4" class="edge"><title>q0&#45;&gt;q0</title>
<path fill="none" stroke="black" d="M257.074,-679.454C268.242,-680.377 278,-677.559 278,-671 278,-666.593 273.595,-663.875 267.317,-662.846"/>
<polygon fill="black" stroke="black" points="267.173,-659.34 257.074,-662.546 266.967,-666.337 267.173,-659.34"/>
<text text-anchor="middle" x="282.5" y="-667.4" font-family="Times Roman,serif" font-size="14.00">a</text>
</g>
<!-- q3 -->
<g id="node3" class="node"><title>q3</title>
<ellipse fill="none" stroke="black" cx="128" cy="-579" rx="27" ry="18.3848"/>
<text text-anchor="middle" x="128" y="-575.4" font-family="Times Roman,serif" font-size="14.00">q3</text>
</g>
<!-- q0&#45;&gt;q3 -->
<g id="edge2" class="edge"><title>q0&#45;&gt;q3</title>
<path fill="none" stroke="black" d="M216.13,-656.219C198.909,-641.129 172.002,-617.555 152.448,-600.421"/>
<polygon fill="black" stroke="black" points="154.656,-597.702 144.828,-593.745 150.043,-602.967 154.656,-597.702"/>
<text text-anchor="middle" x="193.5" y="-621.4" font-family="Times Roman,serif" font-size="14.00">b</text>
</g>
<!-- q2 -->
<g id="node5" class="node"><title>q2</title>
<ellipse fill="none" stroke="black" cx="237" cy="-487" rx="27" ry="18.3848"/>
<text text-anchor="middle" x="237" y="-483.4" font-family="Times Roman,serif" font-size="14.00">q2</text>
</g>
<!-- q3&#45;&gt;q2 -->
<g id="edge12" class="edge"><title>q3&#45;&gt;q2</title>
<path fill="none" stroke="black" d="M149.562,-567.731C161.465,-561.026 176.184,-551.908 188,-542 198.825,-532.923 209.432,-521.438 217.993,-511.314"/>
<polygon fill="black" stroke="black" points="220.726,-513.501 224.386,-503.558 215.324,-509.049 220.726,-513.501"/>
<text text-anchor="middle" x="209.5" y="-529.4" font-family="Times Roman,serif" font-size="14.00">a</text>
</g>
<!-- q10 -->
<g id="node11" class="node"><title>q10</title>
<ellipse fill="none" stroke="black" cx="112" cy="-19" rx="29.9071" ry="18.3848"/>
<text text-anchor="middle" x="112" y="-15.4" font-family="Times Roman,serif" font-size="14.00">q10</text>
</g>
<!-- q3&#45;&gt;q10 -->
<g id="edge10" class="edge"><title>q3&#45;&gt;q10</title>
<path fill="none" stroke="black" d="M101.567,-574.095C80.4745,-569.054 51.2125,-559.408 31,-542 9.7383,-523.689 0,-515.06 0,-487 0,-487 0,-487 0,-111 0,-82.9401 10.3358,-74.9828 31,-56 43.4216,-44.5891 59.9674,-36.1841 74.8661,-30.2955"/>
<polygon fill="black" stroke="black" points="76.1949,-33.5358 84.3588,-26.7829 73.7656,-26.9708 76.1949,-33.5358"/>
<text text-anchor="middle" x="4.5" y="-291.4" font-family="Times Roman,serif" font-size="14.00">b</text>
</g>
<!-- q4 -->
<g id="node7" class="node"><title>q4</title>
<ellipse fill="none" stroke="black" cx="270" cy="-391" rx="27" ry="18.3848"/>
<ellipse fill="none" stroke="black" cx="270" cy="-391" rx="31" ry="22.3848"/>
<text text-anchor="middle" x="270" y="-387.4" font-family="Times Roman,serif" font-size="14.00">q4</text>
</g>
<!-- q2&#45;&gt;q4 -->
<g id="edge6" class="edge"><title>q2&#45;&gt;q4</title>
<path fill="none" stroke="black" d="M245.911,-469.184C248.718,-463.178 251.687,-456.38 254,-450 257.093,-441.466 259.906,-432.048 262.28,-423.29"/>
<polygon fill="black" stroke="black" points="265.721,-423.964 264.856,-413.405 258.947,-422.199 265.721,-423.964"/>
<text text-anchor="middle" x="263.5" y="-437.4" font-family="Times Roman,serif" font-size="14.00">b</text>
</g>
<!-- q9 -->
<g id="node9" class="node"><title>q9</title>
<ellipse fill="none" stroke="black" cx="205" cy="-203" rx="27" ry="18.3848"/>
<text text-anchor="middle" x="205" y="-199.4" font-family="Times Roman,serif" font-size="14.00">q9</text>
</g>
<!-- q2&#45;&gt;q9 -->
<g id="edge8" class="edge"><title>q2&#45;&gt;q9</title>
<path fill="none" stroke="black" d="M234.9,-468.366C229.442,-419.922 214.776,-289.763 208.231,-231.674"/>
<polygon fill="black" stroke="black" points="211.705,-231.248 207.107,-221.703 204.749,-232.032 211.705,-231.248"/>
<text text-anchor="middle" x="225.5" y="-337.4" font-family="Times Roman,serif" font-size="14.00">a</text>
</g>
<!-- q4&#45;&gt;q2 -->
<g id="edge16" class="edge"><title>q4&#45;&gt;q2</title>
<path fill="none" stroke="black" d="M255.568,-411.037C251.562,-417.46 247.601,-424.785 245,-432 241.999,-440.325 240.121,-449.744 238.947,-458.404"/>
<polygon fill="black" stroke="black" points="235.455,-458.144 237.836,-468.468 242.413,-458.912 235.455,-458.144"/>
<text text-anchor="middle" x="249.5" y="-437.4" font-family="Times Roman,serif" font-size="14.00">a</text>
</g>
<!-- q8 -->
<g id="node14" class="node"><title>q8</title>
<ellipse fill="none" stroke="black" cx="268" cy="-295" rx="27" ry="18.3848"/>
<text text-anchor="middle" x="268" y="-291.4" font-family="Times Roman,serif" font-size="14.00">q8</text>
</g>
<!-- q4&#45;&gt;q8 -->
<g id="edge14" class="edge"><title>q4&#45;&gt;q8</title>
<path fill="none" stroke="black" d="M269.526,-368.249C269.25,-354.994 268.899,-338.148 268.603,-323.954"/>
<polygon fill="black" stroke="black" points="272.098,-323.645 268.39,-313.72 265.099,-323.791 272.098,-323.645"/>
<text text-anchor="middle" x="273.5" y="-337.4" font-family="Times Roman,serif" font-size="14.00">b</text>
</g>
<!-- q9&#45;&gt;q3 -->
<g id="edge30" class="edge"><title>q9&#45;&gt;q3</title>
<path fill="none" stroke="black" d="M202.723,-221.638C196.167,-273.241 175.54,-422.09 142,-542 141.112,-545.175 140.065,-548.46 138.949,-551.702"/>
<polygon fill="black" stroke="black" points="135.642,-550.554 135.489,-561.148 142.215,-552.962 135.642,-550.554"/>
<text text-anchor="middle" x="184.5" y="-387.4" font-family="Times Roman,serif" font-size="14.00">b</text>
</g>
<!-- q5 -->
<g id="node16" class="node"><title>q5</title>
<ellipse fill="none" stroke="black" cx="247" cy="-111" rx="27" ry="18.3848"/>
<text text-anchor="middle" x="247" y="-107.4" font-family="Times Roman,serif" font-size="14.00">q5</text>
</g>
<!-- q9&#45;&gt;q5 -->
<g id="edge32" class="edge"><title>q9&#45;&gt;q5</title>
<path fill="none" stroke="black" d="M213.098,-185.261C219.199,-171.898 227.672,-153.338 234.621,-138.117"/>
<polygon fill="black" stroke="black" points="237.958,-139.235 238.927,-128.684 231.59,-136.327 237.958,-139.235"/>
<text text-anchor="middle" x="233.5" y="-153.4" font-family="Times Roman,serif" font-size="14.00">a</text>
</g>
<!-- q10&#45;&gt;q3 -->
<g id="edge34" class="edge"><title>q10&#45;&gt;q3</title>
<path fill="none" stroke="black" d="M92.6208,-33.2516C72.8332,-49.6032 45,-78.3978 45,-111 45,-487 45,-487 45,-487 45,-519.762 74.3752,-546.103 98.1743,-562.069"/>
<polygon fill="black" stroke="black" points="96.3153,-565.034 106.625,-567.474 100.087,-559.137 96.3153,-565.034"/>
<text text-anchor="middle" x="49.5" y="-291.4" font-family="Times Roman,serif" font-size="14.00">b</text>
</g>
<!-- q10&#45;&gt;q3 -->
<g id="edge36" class="edge"><title>q10&#45;&gt;q3</title>
<path fill="none" stroke="black" d="M105.039,-37.0242C98.5938,-55.3554 90,-84.7239 90,-111 90,-487 90,-487 90,-487 90,-510.84 101.035,-535.702 111.212,-553.562"/>
<polygon fill="black" stroke="black" points="108.254,-555.436 116.392,-562.221 114.261,-551.842 108.254,-555.436"/>
<text text-anchor="middle" x="94.5" y="-291.4" font-family="Times Roman,serif" font-size="14.00">a</text>
</g>
<!-- q10&#45;&gt;q3 -->
<g id="edge38" class="edge"><title>q10&#45;&gt;q3</title>
<path fill="none" stroke="black" d="M119.277,-36.9963C126.016,-55.306 135,-84.6579 135,-111 135,-249 135,-249 135,-249 135,-360.438 130.961,-492.997 129.019,-550.283"/>
<polygon fill="black" stroke="black" points="125.517,-550.281 128.671,-560.396 132.513,-550.522 125.517,-550.281"/>
<text text-anchor="middle" x="138.5" y="-291.4" font-family="Times Roman,serif" font-size="14.00">b</text>
</g>
<!-- q10&#45;&gt;q10 -->
<g id="edge40" class="edge"><title>q10&#45;&gt;q10</title>
<path fill="none" stroke="black" d="M138.655,-27.5218C150.154,-28.2195 160,-25.3789 160,-19 160,-14.6145 155.346,-11.9014 148.701,-10.8607"/>
<polygon fill="black" stroke="black" points="148.781,-7.3613 138.655,-10.4782 148.514,-14.3562 148.781,-7.3613"/>
<text text-anchor="middle" x="164.5" y="-15.4" font-family="Times Roman,serif" font-size="14.00">a</text>
</g>
<!-- q8&#45;&gt;q9 -->
<g id="edge28" class="edge"><title>q8&#45;&gt;q9</title>
<path fill="none" stroke="black" d="M256.445,-278.126C246.854,-264.12 233.072,-243.994 222.186,-228.098"/>
<polygon fill="black" stroke="black" points="225.02,-226.041 216.482,-219.767 219.244,-229.996 225.02,-226.041"/>
<text text-anchor="middle" x="246.5" y="-245.4" font-family="Times Roman,serif" font-size="14.00">a</text>
</g>
<!-- q8&#45;&gt;q5 -->
<g id="edge26" class="edge"><title>q8&#45;&gt;q5</title>
<path fill="none" stroke="black" d="M265.871,-276.345C262.192,-244.109 254.622,-177.782 250.271,-139.658"/>
<polygon fill="black" stroke="black" points="253.746,-139.243 249.135,-129.705 246.791,-140.037 253.746,-139.243"/>
<text text-anchor="middle" x="263.5" y="-199.4" font-family="Times Roman,serif" font-size="14.00">b</text>
</g>
<!-- q5&#45;&gt;q10 -->
<g id="edge20" class="edge"><title>q5&#45;&gt;q10</title>
<path fill="none" stroke="black" d="M227.658,-97.8186C204.863,-82.2843 166.779,-56.3306 140.578,-38.4757"/>
<polygon fill="black" stroke="black" points="142.423,-35.497 132.188,-32.7578 138.481,-41.2816 142.423,-35.497"/>
<text text-anchor="middle" x="195.5" y="-61.4" font-family="Times Roman,serif" font-size="14.00">a</text>
</g>
<!-- q5&#45;&gt;q8 -->
<g id="edge18" class="edge"><title>q5&#45;&gt;q8</title>
<path fill="none" stroke="black" d="M265.027,-124.904C271.687,-131.156 278.468,-139.127 282,-148 300.08,-193.423 290.794,-209.909 282,-258 281.407,-261.243 280.544,-264.57 279.534,-267.837"/>
<polygon fill="black" stroke="black" points="276.219,-266.713 276.18,-277.308 282.817,-269.049 276.219,-266.713"/>
<text text-anchor="middle" x="296.5" y="-199.4" font-family="Times Roman,serif" font-size="14.00">b</text>
</g>
<!-- q6 -->
<g id="node19" class="node"><title>q6</title>
<ellipse fill="none" stroke="black" cx="315" cy="-763" rx="27" ry="18.3848"/>
<text text-anchor="middle" x="315" y="-759.4" font-family="Times Roman,serif" font-size="14.00">q6</text>
</g>
<!-- q6&#45;&gt;q0 -->
<g id="edge22" class="edge"><title>q6&#45;&gt;q0</title>
<path fill="none" stroke="black" d="M300.717,-746.975C287.783,-732.463 268.566,-710.903 253.904,-694.453"/>
<polygon fill="black" stroke="black" points="256.386,-691.978 247.12,-686.842 251.161,-696.636 256.386,-691.978"/>
<text text-anchor="middle" x="285.5" y="-713.4" font-family="Times Roman,serif" font-size="14.00">b</text>
</g>
<!-- q6&#45;&gt;q10 -->
<g id="edge24" class="edge"><title>q6&#45;&gt;q10</title>
<path fill="none" stroke="black" d="M325.882,-745.762C336.157,-727.808 350,-698.513 350,-671 350,-671 350,-671 350,-111 350,-68.864 218.576,-38.5482 151.051,-25.7529"/>
<polygon fill="black" stroke="black" points="151.654,-22.3052 141.183,-23.9217 150.377,-29.1877 151.654,-22.3052"/>
<text text-anchor="middle" x="354.5" y="-387.4" font-family="Times Roman,serif" font-size="14.00">a</text>
</g>
</g>
</svg>
