<?xml version="1.0" encoding="UTF-8" standalone="no"?>
<!DOCTYPE svg PUBLIC "-//W3C//DTD SVG 1.1//EN"
 "http://www.w3.org/Graphics/SVG/1.1/DTD/svg11.dtd">
<!-- Generated by graphviz version 2.26.3 (20100126.1600)
 -->
<!-- Title: G Pages: 1 -->
<svg width="279pt" height="698pt"
 viewBox="0.00 0.00 279.00 698.00" xmlns="http://www.w3.org/2000/svg" xmlns:xlink="http://www.w3.org/1999/xlink">
<g id="graph1" class="graph" transform="scale(1 1) rotate(0) translate(4 694)">
<title>G</title>
<polygon fill="white" stroke="white" points="-4,5 -4,-694 276,-694 276,5 -4,5"/>
<!-- q0 -->
<g id="node1" class="node"><title>q0</title>
<ellipse fill="none" stroke="black" cx="161" cy="-579" rx="27" ry="18.3848"/>
<text text-anchor="middle" x="161" y="-575.4" font-family="Times Roman,serif" font-size="14.00">q0</text>
</g>
<!-- q0&#45;&gt;q0 -->
<g id="edge4" class="edge"><title>q0&#45;&gt;q0</title>
<path fill="none" stroke="black" d="M185.074,-587.454C196.242,-588.377 206,-585.559 206,-579 206,-574.593 201.595,-571.875 195.317,-570.846"/>
<polygon fill="black" stroke="black" points="195.173,-567.34 185.074,-570.546 194.967,-574.337 195.173,-567.34"/>
<text text-anchor="middle" x="210.5" y="-575.4" font-family="Times Roman,serif" font-size="14.00">a</text>
</g>
<!-- q4 -->
<g id="node3" class="node"><title>q4</title>
<ellipse fill="none" stroke="black" cx="94" cy="-483" rx="27" ry="18.3848"/>
<ellipse fill="none" stroke="black" cx="94" cy="-483" rx="31" ry="22.3848"/>
<text text-anchor="middle" x="94" y="-479.4" font-family="Times Roman,serif" font-size="14.00">q4</text>
</g>
<!-- q0&#45;&gt;q4 -->
<g id="edge2" class="edge"><title>q0&#45;&gt;q4</title>
<path fill="none" stroke="black" d="M149.329,-562.278C139.56,-548.28 125.403,-527.995 113.855,-511.449"/>
<polygon fill="black" stroke="black" points="116.685,-509.388 108.091,-503.191 110.944,-513.394 116.685,-509.388"/>
<text text-anchor="middle" x="137.5" y="-529.4" font-family="Times Roman,serif" font-size="14.00">b</text>
</g>
<!-- q2 -->
<g id="node5" class="node"><title>q2</title>
<ellipse fill="none" stroke="black" cx="106" cy="-387" rx="27" ry="18.3848"/>
<text text-anchor="middle" x="106" y="-383.4" font-family="Times Roman,serif" font-size="14.00">q2</text>
</g>
<!-- q4&#45;&gt;q2 -->
<g id="edge12" class="edge"><title>q4&#45;&gt;q2</title>
<path fill="none" stroke="black" d="M87.7097,-460.925C85.4477,-449.747 84.0914,-436.031 87,-424 87.8834,-420.346 89.1933,-416.648 90.7197,-413.074"/>
<polygon fill="black" stroke="black" points="93.8951,-414.548 95.1216,-404.024 87.6002,-411.486 93.8951,-414.548"/>
<text text-anchor="middle" x="91.5" y="-429.4" font-family="Times Roman,serif" font-size="14.00">a</text>
</g>
<!-- q8 -->
<g id="node10" class="node"><title>q8</title>
<ellipse fill="none" stroke="black" cx="84" cy="-19" rx="27" ry="18.3848"/>
<text text-anchor="middle" x="84" y="-15.4" font-family="Times Roman,serif" font-size="14.00">q8</text>
</g>
<!-- q4&#45;&gt;q8 -->
<g id="edge10" class="edge"><title>q4&#45;&gt;q8</title>
<path fill="none" stroke="black" d="M68.0653,-470.522C40.2418,-455.112 0,-426.071 0,-387 0,-387 0,-387 0,-111 0,-78.0607 29.7291,-51.7528 53.815,-35.8439"/>
<polygon fill="black" stroke="black" points="55.7694,-38.7494 62.3679,-30.4603 52.0404,-32.8253 55.7694,-38.7494"/>
<text text-anchor="middle" x="4.5" y="-245.4" font-family="Times Roman,serif" font-size="14.00">b</text>
</g>
<!-- q2&#45;&gt;q4 -->
<g id="edge6" class="edge"><title>q2&#45;&gt;q4</title>
<path fill="none" stroke="black" d="M103.66,-405.72C102.09,-418.278 99.9795,-435.164 98.1315,-449.948"/>
<polygon fill="black" stroke="black" points="94.6113,-449.892 96.8438,-460.249 101.557,-450.761 94.6113,-449.892"/>
<text text-anchor="middle" x="105.5" y="-429.4" font-family="Times Roman,serif" font-size="14.00">b</text>
</g>
<!-- q9 -->
<g id="node8" class="node"><title>q9</title>
<ellipse fill="none" stroke="black" cx="111" cy="-295" rx="27" ry="18.3848"/>
<text text-anchor="middle" x="111" y="-291.4" font-family="Times Roman,serif" font-size="14.00">q9</text>
</g>
<!-- q2&#45;&gt;q9 -->
<g id="edge8" class="edge"><title>q2&#45;&gt;q9</title>
<path fill="none" stroke="black" d="M107.012,-368.382C107.71,-355.538 108.651,-338.216 109.444,-323.627"/>
<polygon fill="black" stroke="black" points="112.942,-323.765 109.99,-313.59 105.952,-323.385 112.942,-323.765"/>
<text text-anchor="middle" x="112.5" y="-337.4" font-family="Times Roman,serif" font-size="14.00">a</text>
</g>
<!-- q9&#45;&gt;q0 -->
<g id="edge26" class="edge"><title>q9&#45;&gt;q0</title>
<path fill="none" stroke="black" d="M120.25,-312.461C127.457,-326.924 137.043,-348.234 142,-368 157.973,-431.697 160.907,-509.18 161.221,-550.235"/>
<polygon fill="black" stroke="black" points="157.721,-550.343 161.25,-560.333 164.721,-550.323 157.721,-550.343"/>
<text text-anchor="middle" x="158.5" y="-429.4" font-family="Times Roman,serif" font-size="14.00">b</text>
</g>
<!-- q5 -->
<g id="node12" class="node"><title>q5</title>
<ellipse fill="none" stroke="black" cx="128" cy="-203" rx="27" ry="18.3848"/>
<text text-anchor="middle" x="128" y="-199.4" font-family="Times Roman,serif" font-size="14.00">q5</text>
</g>
<!-- q9&#45;&gt;q5 -->
<g id="edge28" class="edge"><title>q9&#45;&gt;q5</title>
<path fill="none" stroke="black" d="M114.44,-276.382C116.814,-263.538 120.014,-246.216 122.71,-231.627"/>
<polygon fill="black" stroke="black" points="126.19,-232.059 124.565,-221.59 119.306,-230.787 126.19,-232.059"/>
<text text-anchor="middle" x="125.5" y="-245.4" font-family="Times Roman,serif" font-size="14.00">a</text>
</g>
<!-- q8&#45;&gt;q9 -->
<g id="edge24" class="edge"><title>q8&#45;&gt;q9</title>
<path fill="none" stroke="black" d="M82.6765,-37.5837C82.0798,-48.2414 81.5907,-61.8722 82,-74 84.2235,-139.89 81.4285,-156.925 92,-222 94.4599,-237.142 98.6468,-253.711 102.465,-267.231"/>
<polygon fill="black" stroke="black" points="99.1243,-268.278 105.279,-276.902 105.846,-266.322 99.1243,-268.278"/>
<text text-anchor="middle" x="88.5" y="-153.4" font-family="Times Roman,serif" font-size="14.00">a</text>
</g>
<!-- q8&#45;&gt;q5 -->
<g id="edge22" class="edge"><title>q8&#45;&gt;q5</title>
<path fill="none" stroke="black" d="M93.224,-36.71C96.0525,-42.7083 98.9545,-49.5292 101,-56 113.677,-96.1037 121.125,-144.356 124.884,-174.36"/>
<polygon fill="black" stroke="black" points="121.438,-175.028 126.104,-184.54 128.389,-174.194 121.438,-175.028"/>
<text text-anchor="middle" x="122.5" y="-107.4" font-family="Times Roman,serif" font-size="14.00">b</text>
</g>
<!-- q5&#45;&gt;q8 -->
<g id="edge14" class="edge"><title>q5&#45;&gt;q8</title>
<path fill="none" stroke="black" d="M119.246,-185.455C112.387,-170.944 103.168,-149.609 98,-130 90.7782,-102.598 87.2408,-70.3774 85.5338,-47.7304"/>
<polygon fill="black" stroke="black" points="89.0254,-47.4867 84.8532,-37.748 82.0417,-47.963 89.0254,-47.4867"/>
<text text-anchor="middle" x="102.5" y="-107.4" font-family="Times Roman,serif" font-size="14.00">b</text>
</g>
<!-- q10 -->
<g id="node15" class="node"><title>q10</title>
<ellipse fill="none" stroke="black" cx="186" cy="-111" rx="29.9071" ry="18.3848"/>
<text text-anchor="middle" x="186" y="-107.4" font-family="Times Roman,serif" font-size="14.00">q10</text>
</g>
<!-- q5&#45;&gt;q10 -->
<g id="edge16" class="edge"><title>q5&#45;&gt;q10</title>
<path fill="none" stroke="black" d="M138.909,-185.696C147.523,-172.033 159.681,-152.747 169.486,-137.195"/>
<polygon fill="black" stroke="black" points="172.57,-138.866 174.942,-128.54 166.649,-135.132 172.57,-138.866"/>
<text text-anchor="middle" x="166.5" y="-153.4" font-family="Times Roman,serif" font-size="14.00">a</text>
</g>
<!-- q10&#45;&gt;q2 -->
<g id="edge30" class="edge"><title>q10&#45;&gt;q2</title>
<path fill="none" stroke="black" d="M184.428,-129.73C180.933,-166.179 170.862,-248.786 147,-314 140.953,-330.526 131.456,-347.747 123.125,-361.31"/>
<polygon fill="black" stroke="black" points="119.979,-359.737 117.6,-370.062 125.898,-363.474 119.979,-359.737"/>
<text text-anchor="middle" x="171.5" y="-245.4" font-family="Times Roman,serif" font-size="14.00">b</text>
</g>
<!-- q10&#45;&gt;q2 -->
<g id="edge32" class="edge"><title>q10&#45;&gt;q2</title>
<path fill="none" stroke="black" d="M191.362,-129.285C192.85,-135.202 194.26,-141.83 195,-148 195.952,-155.943 195.497,-158.015 195,-166 190.835,-232.899 189.255,-251.135 166,-314 159.794,-330.777 158.913,-335.826 148,-350 143.539,-355.794 138.072,-361.379 132.575,-366.377"/>
<polygon fill="black" stroke="black" points="129.906,-364.056 124.615,-373.235 134.475,-369.36 129.906,-364.056"/>
<text text-anchor="middle" x="191.5" y="-245.4" font-family="Times Roman,serif" font-size="14.00">a</text>
</g>
<!-- q10&#45;&gt;q8 -->
<g id="edge34" class="edge"><title>q10&#45;&gt;q8</title>
<path fill="none" stroke="black" d="M174.583,-93.3506C166.613,-81.8703 155.243,-67.0377 143,-56 134.494,-48.331 124.204,-41.2714 114.616,-35.4203"/>
<polygon fill="black" stroke="black" points="116.115,-32.2421 105.719,-30.2003 112.573,-38.2796 116.115,-32.2421"/>
<text text-anchor="middle" x="162.5" y="-61.4" font-family="Times Roman,serif" font-size="14.00">b</text>
</g>
<!-- q10&#45;&gt;q10 -->
<g id="edge36" class="edge"><title>q10&#45;&gt;q10</title>
<path fill="none" stroke="black" d="M212.655,-119.522C224.154,-120.22 234,-117.379 234,-111 234,-106.615 229.346,-103.901 222.701,-102.861"/>
<polygon fill="black" stroke="black" points="222.781,-99.3613 212.655,-102.478 222.514,-106.356 222.781,-99.3613"/>
<text text-anchor="middle" x="238.5" y="-107.4" font-family="Times Roman,serif" font-size="14.00">a</text>
</g>
<!-- q6 -->
<g id="node16" class="node"><title>q6</title>
<ellipse fill="none" stroke="black" cx="231" cy="-671" rx="27" ry="18.3848"/>
<text text-anchor="middle" x="231" y="-667.4" font-family="Times Roman,serif" font-size="14.00">q6</text>
</g>
<!-- q6&#45;&gt;q0 -->
<g id="edge18" class="edge"><title>q6&#45;&gt;q0</title>
<path fill="none" stroke="black" d="M218.485,-654.552C207.702,-640.38 191.981,-619.718 179.704,-603.583"/>
<polygon fill="black" stroke="black" points="182.483,-601.455 173.642,-595.616 176.912,-605.693 182.483,-601.455"/>
<text text-anchor="middle" x="206.5" y="-621.4" font-family="Times Roman,serif" font-size="14.00">b</text>
</g>
<!-- q6&#45;&gt;q10 -->
<g id="edge20" class="edge"><title>q6&#45;&gt;q10</title>
<path fill="none" stroke="black" d="M240.639,-653.606C249.739,-635.528 262,-606.136 262,-579 262,-579 262,-579 262,-203 262,-172.639 237.095,-146.89 215.799,-130.422"/>
<polygon fill="black" stroke="black" points="217.703,-127.478 207.575,-124.366 213.552,-133.114 217.703,-127.478"/>
<text text-anchor="middle" x="266.5" y="-383.4" font-family="Times Roman,serif" font-size="14.00">a</text>
</g>
</g>
</svg>
