<?xml version="1.0" encoding="UTF-8" standalone="no"?>
<!DOCTYPE svg PUBLIC "-//W3C//DTD SVG 1.1//EN"
 "http://www.w3.org/Graphics/SVG/1.1/DTD/svg11.dtd">
<!-- Generated by graphviz version 2.26.3 (20100126.1600)
 -->
<!-- Title: G Pages: 1 -->
<svg width="274pt" height="414pt"
 viewBox="0.00 0.00 273.52 414.00" xmlns="http://www.w3.org/2000/svg" xmlns:xlink="http://www.w3.org/1999/xlink">
<g id="graph1" class="graph" transform="scale(1 1) rotate(0) translate(4 410)">
<title>G</title>
<polygon fill="white" stroke="white" points="-4,5 -4,-410 270.521,-410 270.521,5 -4,5"/>
<!-- q6 -->
<g id="node1" class="node"><title>q6</title>
<ellipse fill="none" stroke="black" cx="60.5208" cy="-295" rx="27" ry="18.3848"/>
<text text-anchor="middle" x="60.5208" y="-291.4" font-family="Times Roman,serif" font-size="14.00">q6</text>
</g>
<!-- q7 -->
<g id="node3" class="node"><title>q7</title>
<ellipse fill="none" stroke="black" cx="148.521" cy="-203" rx="27" ry="18.3848"/>
<text text-anchor="middle" x="148.521" y="-199.4" font-family="Times Roman,serif" font-size="14.00">q7</text>
</g>
<!-- q6&#45;&gt;q7 -->
<g id="edge2" class="edge"><title>q6&#45;&gt;q7</title>
<path fill="none" stroke="black" d="M76.134,-279.647C82.7833,-273.042 90.5894,-265.198 97.5208,-258 107.357,-247.786 118.052,-236.31 127.097,-226.494"/>
<polygon fill="black" stroke="black" points="129.762,-228.766 133.948,-219.033 124.606,-224.031 129.762,-228.766"/>
<text text-anchor="middle" x="119.021" y="-245.4" font-family="Times Roman,serif" font-size="14.00">b</text>
</g>
<!-- q1 -->
<g id="node5" class="node"><title>q1</title>
<ellipse fill="none" stroke="black" cx="110.521" cy="-111" rx="27" ry="18.3848"/>
<text text-anchor="middle" x="110.521" y="-107.4" font-family="Times Roman,serif" font-size="14.00">q1</text>
</g>
<!-- q6&#45;&gt;q1 -->
<g id="edge4" class="edge"><title>q6&#45;&gt;q1</title>
<path fill="none" stroke="black" d="M65.0533,-276.595C74.0907,-239.957 93.8059,-160.349 97.5208,-148 98.4329,-144.968 99.4426,-141.817 100.484,-138.69"/>
<polygon fill="black" stroke="black" points="103.889,-139.553 103.841,-128.958 97.2715,-137.27 103.889,-139.553"/>
<text text-anchor="middle" x="93.0208" y="-199.4" font-family="Times Roman,serif" font-size="14.00">a</text>
</g>
<!-- q7&#45;&gt;q1 -->
<g id="edge12" class="edge"><title>q7&#45;&gt;q1</title>
<path fill="none" stroke="black" d="M141.511,-185.115C137.25,-174.334 131.657,-160.343 126.521,-148 125.23,-144.899 123.861,-141.659 122.488,-138.443"/>
<polygon fill="black" stroke="black" points="125.602,-136.825 118.434,-129.024 119.173,-139.593 125.602,-136.825"/>
<text text-anchor="middle" x="137.021" y="-153.4" font-family="Times Roman,serif" font-size="14.00">a</text>
</g>
<!-- q2 -->
<g id="node11" class="node"><title>q2</title>
<ellipse fill="none" stroke="black" cx="38.5208" cy="-111" rx="27" ry="18.3848"/>
<text text-anchor="middle" x="38.5208" y="-107.4" font-family="Times Roman,serif" font-size="14.00">q2</text>
</g>
<!-- q7&#45;&gt;q2 -->
<g id="edge10" class="edge"><title>q7&#45;&gt;q2</title>
<path fill="none" stroke="black" d="M131.333,-188.625C113.196,-173.456 84.427,-149.394 63.7247,-132.08"/>
<polygon fill="black" stroke="black" points="65.8669,-129.308 55.9507,-125.578 61.376,-134.678 65.8669,-129.308"/>
<text text-anchor="middle" x="108.021" y="-153.4" font-family="Times Roman,serif" font-size="14.00">b</text>
</g>
<!-- q0 -->
<g id="node9" class="node"><title>q0</title>
<ellipse fill="none" stroke="black" cx="173.521" cy="-19" rx="27" ry="18.3848"/>
<text text-anchor="middle" x="173.521" y="-15.4" font-family="Times Roman,serif" font-size="14.00">q0</text>
</g>
<!-- q1&#45;&gt;q0 -->
<g id="edge18" class="edge"><title>q1&#45;&gt;q0</title>
<path fill="none" stroke="black" d="M122.076,-94.1258C131.667,-80.1197 145.449,-59.9939 156.334,-44.0976"/>
<polygon fill="black" stroke="black" points="159.277,-45.9957 162.039,-35.7672 153.501,-42.0406 159.277,-45.9957"/>
<text text-anchor="middle" x="152.021" y="-61.4" font-family="Times Roman,serif" font-size="14.00">b</text>
</g>
<!-- q3 -->
<g id="node17" class="node"><title>q3</title>
<ellipse fill="none" stroke="black" cx="29.5208" cy="-19" rx="27" ry="18.3848"/>
<text text-anchor="middle" x="29.5208" y="-15.4" font-family="Times Roman,serif" font-size="14.00">q3</text>
</g>
<!-- q1&#45;&gt;q3 -->
<g id="edge20" class="edge"><title>q1&#45;&gt;q3</title>
<path fill="none" stroke="black" d="M96.7028,-95.0754C87.1359,-84.0727 74.0917,-69.1149 62.5208,-56 58.6771,-51.6433 54.566,-47.0117 50.5959,-42.5531"/>
<polygon fill="black" stroke="black" points="52.9586,-39.9439 43.69,-34.8112 47.7348,-44.6036 52.9586,-39.9439"/>
<text text-anchor="middle" x="82.0208" y="-61.4" font-family="Times Roman,serif" font-size="14.00">a</text>
</g>
<!-- q5 -->
<g id="node6" class="node"><title>q5</title>
<ellipse fill="none" stroke="black" cx="201.521" cy="-295" rx="27" ry="18.3848"/>
<text text-anchor="middle" x="201.521" y="-291.4" font-family="Times Roman,serif" font-size="14.00">q5</text>
</g>
<!-- q5&#45;&gt;q7 -->
<g id="edge6" class="edge"><title>q5&#45;&gt;q7</title>
<path fill="none" stroke="black" d="M191.552,-277.696C183.631,-263.946 172.429,-244.501 163.44,-228.898"/>
<polygon fill="black" stroke="black" points="166.47,-227.145 158.445,-220.227 160.404,-230.639 166.47,-227.145"/>
<text text-anchor="middle" x="184.021" y="-245.4" font-family="Times Roman,serif" font-size="14.00">b</text>
</g>
<!-- q5&#45;&gt;q0 -->
<g id="edge8" class="edge"><title>q5&#45;&gt;q0</title>
<path fill="none" stroke="black" d="M200.514,-276.336C198.198,-235.99 191.81,-137.697 180.521,-56 180.14,-53.2416 179.692,-50.3769 179.209,-47.5175"/>
<polygon fill="black" stroke="black" points="182.6,-46.5996 177.372,-37.3845 175.712,-47.8486 182.6,-46.5996"/>
<text text-anchor="middle" x="196.021" y="-153.4" font-family="Times Roman,serif" font-size="14.00">a</text>
</g>
<!-- q0&#45;&gt;q7 -->
<g id="edge30" class="edge"><title>q0&#45;&gt;q7</title>
<path fill="none" stroke="black" d="M171.017,-37.4313C166.647,-69.5912 157.602,-136.165 152.41,-174.372"/>
<polygon fill="black" stroke="black" points="148.934,-173.964 151.056,-184.345 155.87,-174.907 148.934,-173.964"/>
<text text-anchor="middle" x="167.021" y="-107.4" font-family="Times Roman,serif" font-size="14.00">b</text>
</g>
<!-- q0&#45;&gt;q0 -->
<g id="edge32" class="edge"><title>q0&#45;&gt;q0</title>
<path fill="none" stroke="black" d="M197.595,-27.4544C208.763,-28.3767 218.521,-25.5586 218.521,-19 218.521,-14.5934 214.116,-11.8754 207.838,-10.8458"/>
<polygon fill="black" stroke="black" points="207.693,-7.34018 197.595,-10.5456 207.488,-14.3372 207.693,-7.34018"/>
<text text-anchor="middle" x="223.021" y="-15.4" font-family="Times Roman,serif" font-size="14.00">a</text>
</g>
<!-- q2&#45;&gt;q6 -->
<g id="edge14" class="edge"><title>q2&#45;&gt;q6</title>
<path fill="none" stroke="black" d="M40.7573,-129.705C44.6157,-161.975 52.5464,-228.305 57.1013,-266.4"/>
<polygon fill="black" stroke="black" points="53.6278,-266.831 58.2903,-276.345 60.5783,-266 53.6278,-266.831"/>
<text text-anchor="middle" x="57.0208" y="-199.4" font-family="Times Roman,serif" font-size="14.00">b</text>
</g>
<!-- q2&#45;&gt;q0 -->
<g id="edge16" class="edge"><title>q2&#45;&gt;q0</title>
<path fill="none" stroke="black" d="M38.023,-92.2435C38.7122,-80.4489 41.5593,-65.6834 50.5208,-56 56.6119,-49.4183 103.613,-36.4991 137.706,-27.8055"/>
<polygon fill="black" stroke="black" points="138.974,-31.0955 147.813,-25.2549 137.261,-24.3083 138.974,-31.0955"/>
<text text-anchor="middle" x="55.0208" y="-61.4" font-family="Times Roman,serif" font-size="14.00">a</text>
</g>
<!-- q3&#45;&gt;q6 -->
<g id="edge28" class="edge"><title>q3&#45;&gt;q6</title>
<path fill="none" stroke="black" d="M20.9082,-36.7985C14.404,-51.2794 6.02092,-72.4471 2.52085,-92 -9.08931,-156.859 24.2057,-230.728 45.0652,-268.971"/>
<polygon fill="black" stroke="black" points="42.1254,-270.885 50.0657,-277.899 48.2327,-267.464 42.1254,-270.885"/>
<text text-anchor="middle" x="10.0208" y="-153.4" font-family="Times Roman,serif" font-size="14.00">a</text>
</g>
<!-- q3&#45;&gt;q3 -->
<g id="edge26" class="edge"><title>q3&#45;&gt;q3</title>
<path fill="none" stroke="black" d="M53.5952,-27.4544C64.7632,-28.3767 74.5208,-25.5586 74.5208,-19 74.5208,-14.5934 70.1161,-11.8754 63.8382,-10.8458"/>
<polygon fill="black" stroke="black" points="63.6935,-7.34018 53.5952,-10.5456 63.4883,-14.3372 63.6935,-7.34018"/>
<text text-anchor="middle" x="79.0208" y="-15.4" font-family="Times Roman,serif" font-size="14.00">b</text>
</g>
<!-- q4 -->
<g id="node18" class="node"><title>q4</title>
<ellipse fill="none" stroke="black" cx="236.521" cy="-387" rx="27" ry="18.3848"/>
<text text-anchor="middle" x="236.521" y="-383.4" font-family="Times Roman,serif" font-size="14.00">q4</text>
</g>
<!-- q4&#45;&gt;q5 -->
<g id="edge24" class="edge"><title>q4&#45;&gt;q5</title>
<path fill="none" stroke="black" d="M229.606,-368.824C224.62,-355.719 217.799,-337.789 212.127,-322.88"/>
<polygon fill="black" stroke="black" points="215.248,-321.24 208.421,-313.138 208.706,-323.729 215.248,-321.24"/>
<text text-anchor="middle" x="226.021" y="-337.4" font-family="Times Roman,serif" font-size="14.00">a</text>
</g>
<!-- q4&#45;&gt;q0 -->
<g id="edge22" class="edge"><title>q4&#45;&gt;q0</title>
<path fill="none" stroke="black" d="M242.849,-368.924C248.708,-350.552 256.521,-321.152 256.521,-295 256.521,-295 256.521,-295 256.521,-111 256.521,-78.2384 227.146,-51.8968 203.347,-35.9314"/>
<polygon fill="black" stroke="black" points="205.206,-32.9658 194.895,-30.5262 201.434,-38.8628 205.206,-32.9658"/>
<text text-anchor="middle" x="261.021" y="-199.4" font-family="Times Roman,serif" font-size="14.00">b</text>
</g>
</g>
</svg>
