<?xml version="1.0" encoding="UTF-8" standalone="no"?>
<!DOCTYPE svg PUBLIC "-//W3C//DTD SVG 1.1//EN"
 "http://www.w3.org/Graphics/SVG/1.1/DTD/svg11.dtd">
<!-- Generated by graphviz version 2.26.3 (20100126.1600)
 -->
<!-- Title: G Pages: 1 -->
<svg width="152pt" height="502pt"
 viewBox="0.00 0.00 152.00 502.00" xmlns="http://www.w3.org/2000/svg" xmlns:xlink="http://www.w3.org/1999/xlink">
<g id="graph1" class="graph" transform="scale(1 1) rotate(0) translate(4 498)">
<title>G</title>
<polygon fill="white" stroke="white" points="-4,5 -4,-498 149,-498 149,5 -4,5"/>
<!-- q6 -->
<g id="node1" class="node"><title>q6</title>
<ellipse fill="none" stroke="black" cx="94" cy="-476" rx="27" ry="18"/>
<text text-anchor="middle" x="94" y="-471.9" font-family="Times Roman,serif" font-size="14.00">q6</text>
</g>
<!-- q7 -->
<g id="node3" class="node"><title>q7</title>
<ellipse fill="none" stroke="black" cx="27" cy="-386" rx="27" ry="18"/>
<text text-anchor="middle" x="27" y="-381.9" font-family="Times Roman,serif" font-size="14.00">q7</text>
</g>
<!-- q6&#45;&gt;q7 -->
<g id="edge2" class="edge"><title>q6&#45;&gt;q7</title>
<path fill="none" stroke="black" d="M81.7112,-459.493C71.5111,-445.791 56.8542,-426.103 45.2776,-410.552"/>
<polygon fill="black" stroke="black" points="47.9899,-408.334 39.2109,-402.403 42.3749,-412.514 47.9899,-408.334"/>
<text text-anchor="middle" x="71.5" y="-426.9" font-family="Times Roman,serif" font-size="14.00">b</text>
</g>
<!-- q4 -->
<g id="node5" class="node"><title>q4</title>
<ellipse fill="none" stroke="black" cx="90" cy="-296" rx="27" ry="18"/>
<text text-anchor="middle" x="90" y="-291.9" font-family="Times Roman,serif" font-size="14.00">q4</text>
</g>
<!-- q6&#45;&gt;q4 -->
<g id="edge4" class="edge"><title>q6&#45;&gt;q4</title>
<path fill="none" stroke="black" d="M93.5944,-457.75C92.8949,-426.269 91.4567,-361.55 90.6272,-324.225"/>
<polygon fill="black" stroke="black" points="94.1221,-323.95 90.4007,-314.031 87.1238,-324.106 94.1221,-323.95"/>
<text text-anchor="middle" x="97.5" y="-381.9" font-family="Times Roman,serif" font-size="14.00">a</text>
</g>
<!-- q7&#45;&gt;q7 -->
<g id="edge8" class="edge"><title>q7&#45;&gt;q7</title>
<path fill="none" stroke="black" d="M51.5325,-394.121C62.5078,-394.895 72,-392.188 72,-386 72,-381.843 67.7151,-379.257 61.5743,-378.242"/>
<polygon fill="black" stroke="black" points="61.6524,-374.742 51.5325,-377.879 61.3995,-381.738 61.6524,-374.742"/>
<text text-anchor="middle" x="76.5" y="-381.9" font-family="Times Roman,serif" font-size="14.00">a</text>
</g>
<!-- q7&#45;&gt;q4 -->
<g id="edge6" class="edge"><title>q7&#45;&gt;q4</title>
<path fill="none" stroke="black" d="M38.5552,-369.493C48.0575,-355.918 61.6733,-336.467 72.5105,-320.985"/>
<polygon fill="black" stroke="black" points="75.6507,-322.602 78.5181,-312.403 69.9161,-318.588 75.6507,-322.602"/>
<text text-anchor="middle" x="69.5" y="-336.9" font-family="Times Roman,serif" font-size="14.00">b</text>
</g>
<!-- q4&#45;&gt;q4 -->
<g id="edge16" class="edge"><title>q4&#45;&gt;q4</title>
<path fill="none" stroke="black" d="M114.532,-304.121C125.508,-304.895 135,-302.188 135,-296 135,-291.843 130.715,-289.257 124.574,-288.242"/>
<polygon fill="black" stroke="black" points="124.652,-284.742 114.532,-287.879 124.4,-291.738 124.652,-284.742"/>
<text text-anchor="middle" x="139.5" y="-291.9" font-family="Times Roman,serif" font-size="14.00">a</text>
</g>
<!-- q2 -->
<g id="node8" class="node"><title>q2</title>
<ellipse fill="none" stroke="black" cx="27" cy="-206" rx="27" ry="18"/>
<text text-anchor="middle" x="27" y="-201.9" font-family="Times Roman,serif" font-size="14.00">q2</text>
</g>
<!-- q4&#45;&gt;q2 -->
<g id="edge14" class="edge"><title>q4&#45;&gt;q2</title>
<path fill="none" stroke="black" d="M78.4448,-279.493C68.9425,-265.918 55.3267,-246.467 44.4895,-230.985"/>
<polygon fill="black" stroke="black" points="47.0839,-228.588 38.4819,-222.403 41.3493,-232.602 47.0839,-228.588"/>
<text text-anchor="middle" x="69.5" y="-246.9" font-family="Times Roman,serif" font-size="14.00">b</text>
</g>
<!-- q2&#45;&gt;q7 -->
<g id="edge10" class="edge"><title>q2&#45;&gt;q7</title>
<path fill="none" stroke="black" d="M27,-224.031C27,-255.357 27,-320.061 27,-357.514"/>
<polygon fill="black" stroke="black" points="23.5001,-357.75 27,-367.75 30.5001,-357.75 23.5001,-357.75"/>
<text text-anchor="middle" x="31.5" y="-291.9" font-family="Times Roman,serif" font-size="14.00">b</text>
</g>
<!-- q0 -->
<g id="node11" class="node"><title>q0</title>
<ellipse fill="none" stroke="black" cx="71" cy="-116" rx="27" ry="18"/>
<text text-anchor="middle" x="71" y="-111.9" font-family="Times Roman,serif" font-size="14.00">q0</text>
</g>
<!-- q2&#45;&gt;q0 -->
<g id="edge12" class="edge"><title>q2&#45;&gt;q0</title>
<path fill="none" stroke="black" d="M35.4836,-188.647C41.875,-175.574 50.7513,-157.418 58.0312,-142.527"/>
<polygon fill="black" stroke="black" points="61.2946,-143.821 62.5424,-133.3 55.0059,-140.746 61.2946,-143.821"/>
<text text-anchor="middle" x="57.5" y="-156.9" font-family="Times Roman,serif" font-size="14.00">a</text>
</g>
<!-- q0&#45;&gt;q4 -->
<g id="edge24" class="edge"><title>q0&#45;&gt;q4</title>
<path fill="none" stroke="black" d="M72.9032,-134.031C76.2099,-165.357 83.0398,-230.061 86.9931,-267.514"/>
<polygon fill="black" stroke="black" points="83.5431,-268.173 88.0736,-277.75 90.5045,-267.438 83.5431,-268.173"/>
<text text-anchor="middle" x="87.5" y="-201.9" font-family="Times Roman,serif" font-size="14.00">a</text>
</g>
<!-- q3 -->
<g id="node14" class="node"><title>q3</title>
<ellipse fill="none" stroke="black" cx="103" cy="-22" rx="27" ry="18"/>
<ellipse fill="none" stroke="black" cx="103" cy="-22" rx="31" ry="22"/>
<text text-anchor="middle" x="103" y="-17.9" font-family="Times Roman,serif" font-size="14.00">q3</text>
</g>
<!-- q0&#45;&gt;q3 -->
<g id="edge22" class="edge"><title>q0&#45;&gt;q3</title>
<path fill="none" stroke="black" d="M77.019,-98.3193C81.3143,-85.7017 87.2076,-68.3903 92.2955,-53.4444"/>
<polygon fill="black" stroke="black" points="95.7504,-54.1563 95.6598,-43.5618 89.1238,-51.9004 95.7504,-54.1563"/>
<text text-anchor="middle" x="93.5" y="-66.9" font-family="Times Roman,serif" font-size="14.00">b</text>
</g>
<!-- q3&#45;&gt;q4 -->
<g id="edge18" class="edge"><title>q3&#45;&gt;q4</title>
<path fill="none" stroke="black" d="M104.481,-44.2688C105.412,-59.4114 106.524,-79.9048 107,-98 108.895,-170.042 111.711,-188.891 100,-260 99.551,-262.726 98.9746,-265.542 98.3256,-268.342"/>
<polygon fill="black" stroke="black" points="94.8851,-267.666 95.755,-278.225 101.66,-269.428 94.8851,-267.666"/>
<text text-anchor="middle" x="112.5" y="-156.9" font-family="Times Roman,serif" font-size="14.00">b</text>
</g>
<!-- q3&#45;&gt;q0 -->
<g id="edge20" class="edge"><title>q3&#45;&gt;q0</title>
<path fill="none" stroke="black" d="M85.0947,-40.0219C79.8645,-46.4317 74.8041,-54.0454 72,-62 69.1505,-70.0833 68.2084,-79.2786 68.1749,-87.7613"/>
<polygon fill="black" stroke="black" points="64.6854,-88.12 68.5431,-97.9876 71.6809,-87.8681 64.6854,-88.12"/>
<text text-anchor="middle" x="76.5" y="-66.9" font-family="Times Roman,serif" font-size="14.00">a</text>
</g>
</g>
</svg>
