<?xml version="1.0" encoding="UTF-8" standalone="no"?>
<!DOCTYPE svg PUBLIC "-//W3C//DTD SVG 1.1//EN"
 "http://www.w3.org/Graphics/SVG/1.1/DTD/svg11.dtd">
<!-- Generated by graphviz version 2.26.3 (20100126.1600)
 -->
<!-- Title: G Pages: 1 -->
<svg width="196pt" height="330pt"
 viewBox="0.00 0.00 196.00 330.00" xmlns="http://www.w3.org/2000/svg" xmlns:xlink="http://www.w3.org/1999/xlink">
<g id="graph1" class="graph" transform="scale(1 1) rotate(0) translate(4 326)">
<title>G</title>
<polygon fill="white" stroke="white" points="-4,5 -4,-326 193,-326 193,5 -4,5"/>
<!-- q6 -->
<g id="node1" class="node"><title>q6</title>
<ellipse fill="none" stroke="black" cx="27" cy="-206" rx="27" ry="18"/>
<text text-anchor="middle" x="27" y="-201.9" font-family="Times Roman,serif" font-size="14.00">q6</text>
</g>
<!-- q6&#45;&gt;q6 -->
<g id="edge2" class="edge"><title>q6&#45;&gt;q6</title>
<path fill="none" stroke="black" d="M51.5325,-214.121C62.5078,-214.895 72,-212.188 72,-206 72,-201.843 67.7151,-199.257 61.5743,-198.242"/>
<polygon fill="black" stroke="black" points="61.6524,-194.742 51.5325,-197.879 61.3995,-201.738 61.6524,-194.742"/>
<text text-anchor="middle" x="76.5" y="-201.9" font-family="Times Roman,serif" font-size="14.00">b</text>
</g>
<!-- q4 -->
<g id="node4" class="node"><title>q4</title>
<ellipse fill="none" stroke="black" cx="27" cy="-116" rx="27" ry="18"/>
<text text-anchor="middle" x="27" y="-111.9" font-family="Times Roman,serif" font-size="14.00">q4</text>
</g>
<!-- q6&#45;&gt;q4 -->
<g id="edge4" class="edge"><title>q6&#45;&gt;q4</title>
<path fill="none" stroke="black" d="M27,-187.787C27,-175.344 27,-158.605 27,-144.421"/>
<polygon fill="black" stroke="black" points="30.5001,-144.186 27,-134.186 23.5001,-144.186 30.5001,-144.186"/>
<text text-anchor="middle" x="31.5" y="-156.9" font-family="Times Roman,serif" font-size="14.00">a</text>
</g>
<!-- q4&#45;&gt;q4 -->
<g id="edge20" class="edge"><title>q4&#45;&gt;q4</title>
<path fill="none" stroke="black" d="M51.5325,-124.121C62.5078,-124.895 72,-122.188 72,-116 72,-111.843 67.7151,-109.257 61.5743,-108.242"/>
<polygon fill="black" stroke="black" points="61.6524,-104.742 51.5325,-107.879 61.3995,-111.738 61.6524,-104.742"/>
<text text-anchor="middle" x="76.5" y="-111.9" font-family="Times Roman,serif" font-size="14.00">a</text>
</g>
<!-- q0 -->
<g id="node11" class="node"><title>q0</title>
<ellipse fill="none" stroke="black" cx="94" cy="-22" rx="27" ry="18"/>
<ellipse fill="none" stroke="black" cx="94" cy="-22" rx="31" ry="22"/>
<text text-anchor="middle" x="94" y="-17.9" font-family="Times Roman,serif" font-size="14.00">q0</text>
</g>
<!-- q4&#45;&gt;q0 -->
<g id="edge18" class="edge"><title>q4&#45;&gt;q0</title>
<path fill="none" stroke="black" d="M24.0113,-98.0264C23.084,-86.9057 23.6455,-72.7503 30,-62 36.3548,-51.2492 46.8492,-42.959 57.5198,-36.7874"/>
<polygon fill="black" stroke="black" points="59.2183,-39.8487 66.4376,-32.0942 55.9582,-33.6542 59.2183,-39.8487"/>
<text text-anchor="middle" x="34.5" y="-66.9" font-family="Times Roman,serif" font-size="14.00">b</text>
</g>
<!-- q5 -->
<g id="node5" class="node"><title>q5</title>
<ellipse fill="none" stroke="black" cx="126" cy="-206" rx="27" ry="18"/>
<text text-anchor="middle" x="126" y="-201.9" font-family="Times Roman,serif" font-size="14.00">q5</text>
</g>
<!-- q1 -->
<g id="node7" class="node"><title>q1</title>
<ellipse fill="none" stroke="black" cx="157" cy="-300" rx="27" ry="18"/>
<ellipse fill="none" stroke="black" cx="157" cy="-300" rx="31" ry="22"/>
<text text-anchor="middle" x="157" y="-295.9" font-family="Times Roman,serif" font-size="14.00">q1</text>
</g>
<!-- q5&#45;&gt;q1 -->
<g id="edge6" class="edge"><title>q5&#45;&gt;q1</title>
<path fill="none" stroke="black" d="M131.804,-223.598C135.945,-236.157 141.631,-253.396 146.553,-268.321"/>
<polygon fill="black" stroke="black" points="143.354,-269.798 149.81,-278.198 150.002,-267.605 143.354,-269.798"/>
<text text-anchor="middle" x="147.5" y="-246.9" font-family="Times Roman,serif" font-size="14.00">b</text>
</g>
<!-- q2 -->
<g id="node9" class="node"><title>q2</title>
<ellipse fill="none" stroke="black" cx="126" cy="-116" rx="27" ry="18"/>
<text text-anchor="middle" x="126" y="-111.9" font-family="Times Roman,serif" font-size="14.00">q2</text>
</g>
<!-- q5&#45;&gt;q2 -->
<g id="edge8" class="edge"><title>q5&#45;&gt;q2</title>
<path fill="none" stroke="black" d="M126,-187.787C126,-175.344 126,-158.605 126,-144.421"/>
<polygon fill="black" stroke="black" points="129.5,-144.186 126,-134.186 122.5,-144.186 129.5,-144.186"/>
<text text-anchor="middle" x="130.5" y="-156.9" font-family="Times Roman,serif" font-size="14.00">a</text>
</g>
<!-- q1&#45;&gt;q5 -->
<g id="edge16" class="edge"><title>q1&#45;&gt;q5</title>
<path fill="none" stroke="black" d="M139.008,-282.008C133.772,-275.6 128.73,-267.98 126,-260 123.226,-251.892 122.433,-242.69 122.56,-234.208"/>
<polygon fill="black" stroke="black" points="126.068,-234.167 123.133,-223.987 119.078,-233.775 126.068,-234.167"/>
<text text-anchor="middle" x="130.5" y="-246.9" font-family="Times Roman,serif" font-size="14.00">a</text>
</g>
<!-- q1&#45;&gt;q0 -->
<g id="edge14" class="edge"><title>q1&#45;&gt;q0</title>
<path fill="none" stroke="black" d="M162.782,-278.158C171.735,-240.095 185.601,-159.771 162,-98 154.09,-77.2966 137.657,-58.6685 122.927,-45.0364"/>
<polygon fill="black" stroke="black" points="125.234,-42.4042 115.433,-38.3786 120.584,-47.6371 125.234,-42.4042"/>
<text text-anchor="middle" x="178.5" y="-156.9" font-family="Times Roman,serif" font-size="14.00">b</text>
</g>
<!-- q2&#45;&gt;q0 -->
<g id="edge10" class="edge"><title>q2&#45;&gt;q0</title>
<path fill="none" stroke="black" d="M109.422,-101.474C103.743,-95.4599 98.0544,-88.0156 95,-80 91.9406,-71.9714 90.8092,-62.8526 90.6607,-54.2618"/>
<polygon fill="black" stroke="black" points="94.1622,-54.2348 90.9033,-44.1537 87.1642,-54.0668 94.1622,-54.2348"/>
<text text-anchor="middle" x="99.5" y="-66.9" font-family="Times Roman,serif" font-size="14.00">b</text>
</g>
<!-- q2&#45;&gt;q0 -->
<g id="edge12" class="edge"><title>q2&#45;&gt;q0</title>
<path fill="none" stroke="black" d="M119.981,-98.3193C115.686,-85.7017 109.792,-68.3903 104.704,-53.4444"/>
<polygon fill="black" stroke="black" points="107.876,-51.9004 101.34,-43.5618 101.25,-54.1563 107.876,-51.9004"/>
<text text-anchor="middle" x="117.5" y="-66.9" font-family="Times Roman,serif" font-size="14.00">a</text>
</g>
<!-- q0&#45;&gt;q4 -->
<g id="edge24" class="edge"><title>q0&#45;&gt;q4</title>
<path fill="none" stroke="black" d="M79.9087,-41.7699C69.6743,-56.1286 55.7506,-75.6634 44.7557,-91.0891"/>
<polygon fill="black" stroke="black" points="41.6246,-89.4518 38.6705,-99.6264 47.3249,-93.5147 41.6246,-89.4518"/>
<text text-anchor="middle" x="69.5" y="-66.9" font-family="Times Roman,serif" font-size="14.00">a</text>
</g>
<!-- q0&#45;&gt;q0 -->
<g id="edge22" class="edge"><title>q0&#45;&gt;q0</title>
<path fill="none" stroke="black" d="M122.689,-30.9648C133.781,-31.3633 143,-28.375 143,-22 143,-17.7168 138.838,-14.9624 132.743,-13.7368"/>
<polygon fill="black" stroke="black" points="132.908,-10.2399 122.689,-13.0352 132.421,-17.223 132.908,-10.2399"/>
<text text-anchor="middle" x="147.5" y="-17.9" font-family="Times Roman,serif" font-size="14.00">b</text>
</g>
</g>
</svg>
