<?xml version="1.0" encoding="UTF-8" standalone="no"?>
<!DOCTYPE svg PUBLIC "-//W3C//DTD SVG 1.1//EN"
 "http://www.w3.org/Graphics/SVG/1.1/DTD/svg11.dtd">
<!-- Generated by graphviz version 2.26.3 (20100126.1600)
 -->
<!-- Title: G Pages: 1 -->
<svg width="331pt" height="706pt"
 viewBox="0.00 0.00 331.00 706.00" xmlns="http://www.w3.org/2000/svg" xmlns:xlink="http://www.w3.org/1999/xlink">
<g id="graph1" class="graph" transform="scale(1 1) rotate(0) translate(4 702)">
<title>G</title>
<polygon fill="white" stroke="white" points="-4,5 -4,-702 328,-702 328,5 -4,5"/>
<!-- q0 -->
<g id="node1" class="node"><title>q0</title>
<ellipse fill="none" stroke="black" cx="58" cy="-579" rx="27" ry="18.3848"/>
<text text-anchor="middle" x="58" y="-575.4" font-family="Times Roman,serif" font-size="14.00">q0</text>
</g>
<!-- q0&#45;&gt;q0 -->
<g id="edge2" class="edge"><title>q0&#45;&gt;q0</title>
<path fill="none" stroke="black" d="M82.0743,-587.454C93.2423,-588.377 103,-585.559 103,-579 103,-574.593 98.5952,-571.875 92.3174,-570.846"/>
<polygon fill="black" stroke="black" points="92.1726,-567.34 82.0743,-570.546 91.9674,-574.337 92.1726,-567.34"/>
<text text-anchor="middle" x="107.5" y="-575.4" font-family="Times Roman,serif" font-size="14.00">b</text>
</g>
<!-- q6 -->
<g id="node4" class="node"><title>q6</title>
<ellipse fill="none" stroke="black" cx="109" cy="-487" rx="27" ry="18.3848"/>
<text text-anchor="middle" x="109" y="-483.4" font-family="Times Roman,serif" font-size="14.00">q6</text>
</g>
<!-- q0&#45;&gt;q6 -->
<g id="edge4" class="edge"><title>q0&#45;&gt;q6</title>
<path fill="none" stroke="black" d="M67.5927,-561.696C75.0958,-548.161 85.658,-529.107 94.2368,-513.632"/>
<polygon fill="black" stroke="black" points="97.4896,-514.983 99.2769,-504.54 91.3674,-511.589 97.4896,-514.983"/>
<text text-anchor="middle" x="92.5" y="-529.4" font-family="Times Roman,serif" font-size="14.00">a</text>
</g>
<!-- q6&#45;&gt;q6 -->
<g id="edge26" class="edge"><title>q6&#45;&gt;q6</title>
<path fill="none" stroke="black" d="M133.074,-495.454C144.242,-496.377 154,-493.559 154,-487 154,-482.593 149.595,-479.875 143.317,-478.846"/>
<polygon fill="black" stroke="black" points="143.173,-475.34 133.074,-478.546 142.967,-482.337 143.173,-475.34"/>
<text text-anchor="middle" x="158.5" y="-483.4" font-family="Times Roman,serif" font-size="14.00">b</text>
</g>
<!-- q7 -->
<g id="node12" class="node"><title>q7</title>
<ellipse fill="none" stroke="black" cx="109" cy="-395" rx="27" ry="18.3848"/>
<text text-anchor="middle" x="109" y="-391.4" font-family="Times Roman,serif" font-size="14.00">q7</text>
</g>
<!-- q6&#45;&gt;q7 -->
<g id="edge28" class="edge"><title>q6&#45;&gt;q7</title>
<path fill="none" stroke="black" d="M109,-468.382C109,-455.538 109,-438.216 109,-423.627"/>
<polygon fill="black" stroke="black" points="112.5,-423.59 109,-413.59 105.5,-423.59 112.5,-423.59"/>
<text text-anchor="middle" x="113.5" y="-437.4" font-family="Times Roman,serif" font-size="14.00">a</text>
</g>
<!-- q1 -->
<g id="node5" class="node"><title>q1</title>
<ellipse fill="none" stroke="black" cx="48" cy="-675" rx="27" ry="18.3848"/>
<ellipse fill="none" stroke="black" cx="48" cy="-675" rx="31" ry="22.3848"/>
<text text-anchor="middle" x="48" y="-671.4" font-family="Times Roman,serif" font-size="14.00">q1</text>
</g>
<!-- q3 -->
<g id="node7" class="node"><title>q3</title>
<ellipse fill="none" stroke="black" cx="162" cy="-579" rx="27" ry="18.3848"/>
<text text-anchor="middle" x="162" y="-575.4" font-family="Times Roman,serif" font-size="14.00">q3</text>
</g>
<!-- q1&#45;&gt;q3 -->
<g id="edge6" class="edge"><title>q1&#45;&gt;q3</title>
<path fill="none" stroke="black" d="M68.3809,-657.837C87.6041,-641.649 116.463,-617.347 137.054,-600.007"/>
<polygon fill="black" stroke="black" points="139.38,-602.624 144.775,-593.505 134.871,-597.27 139.38,-602.624"/>
<text text-anchor="middle" x="119.5" y="-621.4" font-family="Times Roman,serif" font-size="14.00">b</text>
</g>
<!-- q10 -->
<g id="node9" class="node"><title>q10</title>
<ellipse fill="none" stroke="black" cx="190" cy="-19" rx="29.9071" ry="18.3848"/>
<text text-anchor="middle" x="190" y="-15.4" font-family="Times Roman,serif" font-size="14.00">q10</text>
</g>
<!-- q1&#45;&gt;q10 -->
<g id="edge8" class="edge"><title>q1&#45;&gt;q10</title>
<path fill="none" stroke="black" d="M31.7494,-655.805C17.8242,-637.359 0,-608.069 0,-579 0,-579 0,-579 0,-115 0,-48.5114 93.8343,-28.0622 149.618,-21.7799"/>
<polygon fill="black" stroke="black" points="150.3,-25.2286 159.894,-20.7333 149.591,-18.2646 150.3,-25.2286"/>
<text text-anchor="middle" x="4.5" y="-345.4" font-family="Times Roman,serif" font-size="14.00">a</text>
</g>
<!-- q3&#45;&gt;q6 -->
<g id="edge16" class="edge"><title>q3&#45;&gt;q6</title>
<path fill="none" stroke="black" d="M152.031,-561.696C144.11,-547.946 132.908,-528.501 123.919,-512.898"/>
<polygon fill="black" stroke="black" points="126.949,-511.145 118.924,-504.227 120.883,-514.639 126.949,-511.145"/>
<text text-anchor="middle" x="144.5" y="-529.4" font-family="Times Roman,serif" font-size="14.00">a</text>
</g>
<!-- q5 -->
<g id="node16" class="node"><title>q5</title>
<ellipse fill="none" stroke="black" cx="208" cy="-487" rx="27" ry="18.3848"/>
<text text-anchor="middle" x="208" y="-483.4" font-family="Times Roman,serif" font-size="14.00">q5</text>
</g>
<!-- q3&#45;&gt;q5 -->
<g id="edge14" class="edge"><title>q3&#45;&gt;q5</title>
<path fill="none" stroke="black" d="M164.065,-560.366C165.847,-549.319 169.108,-535.313 175,-524 177.634,-518.943 181.115,-514.025 184.828,-509.513"/>
<polygon fill="black" stroke="black" points="187.585,-511.681 191.629,-501.888 182.361,-507.021 187.585,-511.681"/>
<text text-anchor="middle" x="179.5" y="-529.4" font-family="Times Roman,serif" font-size="14.00">b</text>
</g>
<!-- q10&#45;&gt;q6 -->
<g id="edge44" class="edge"><title>q10&#45;&gt;q6</title>
<path fill="none" stroke="black" d="M212.595,-31.3441C238.076,-47.1081 276,-76.9603 276,-115 276,-395 276,-395 276,-395 276,-425.039 192.06,-458.727 143.201,-475.791"/>
<polygon fill="black" stroke="black" points="141.962,-472.516 133.641,-479.075 144.236,-479.137 141.962,-472.516"/>
<text text-anchor="middle" x="280.5" y="-253.4" font-family="Times Roman,serif" font-size="14.00">a</text>
</g>
<!-- q4 -->
<g id="node14" class="node"><title>q4</title>
<ellipse fill="none" stroke="black" cx="132" cy="-211" rx="27" ry="18.3848"/>
<text text-anchor="middle" x="132" y="-207.4" font-family="Times Roman,serif" font-size="14.00">q4</text>
</g>
<!-- q10&#45;&gt;q4 -->
<g id="edge42" class="edge"><title>q10&#45;&gt;q4</title>
<path fill="none" stroke="black" d="M175.375,-35.3346C163.82,-49.3049 148.441,-70.5085 141,-92 130.784,-121.504 129.477,-157.509 130.13,-182.137"/>
<polygon fill="black" stroke="black" points="126.638,-182.41 130.526,-192.265 133.633,-182.136 126.638,-182.41"/>
<text text-anchor="middle" x="145.5" y="-111.4" font-family="Times Roman,serif" font-size="14.00">b</text>
</g>
<!-- q2 -->
<g id="node10" class="node"><title>q2</title>
<ellipse fill="none" stroke="black" cx="132" cy="-303" rx="27" ry="18.3848"/>
<text text-anchor="middle" x="132" y="-299.4" font-family="Times Roman,serif" font-size="14.00">q2</text>
</g>
<!-- q2&#45;&gt;q7 -->
<g id="edge10" class="edge"><title>q2&#45;&gt;q7</title>
<path fill="none" stroke="black" d="M119.495,-319.835C115.699,-325.883 112.005,-332.956 110,-340 107.647,-348.267 106.825,-357.519 106.748,-366.042"/>
<polygon fill="black" stroke="black" points="103.255,-366.403 106.99,-376.318 110.253,-366.238 103.255,-366.403"/>
<text text-anchor="middle" x="114.5" y="-345.4" font-family="Times Roman,serif" font-size="14.00">b</text>
</g>
<!-- q2&#45;&gt;q4 -->
<g id="edge12" class="edge"><title>q2&#45;&gt;q4</title>
<path fill="none" stroke="black" d="M132,-284.382C132,-271.538 132,-254.216 132,-239.627"/>
<polygon fill="black" stroke="black" points="135.5,-239.59 132,-229.59 128.5,-239.59 135.5,-239.59"/>
<text text-anchor="middle" x="136.5" y="-253.4" font-family="Times Roman,serif" font-size="14.00">a</text>
</g>
<!-- q7&#45;&gt;q2 -->
<g id="edge30" class="edge"><title>q7&#45;&gt;q2</title>
<path fill="none" stroke="black" d="M114.101,-376.587C115.708,-370.663 117.464,-364.063 119,-358 121.192,-349.345 123.468,-339.893 125.492,-331.305"/>
<polygon fill="black" stroke="black" points="128.946,-331.903 127.812,-321.369 122.13,-330.311 128.946,-331.903"/>
<text text-anchor="middle" x="127.5" y="-345.4" font-family="Times Roman,serif" font-size="14.00">b</text>
</g>
<!-- q7&#45;&gt;q7 -->
<g id="edge32" class="edge"><title>q7&#45;&gt;q7</title>
<path fill="none" stroke="black" d="M133.074,-403.454C144.242,-404.377 154,-401.559 154,-395 154,-390.593 149.595,-387.875 143.317,-386.846"/>
<polygon fill="black" stroke="black" points="143.173,-383.34 133.074,-386.546 142.967,-390.337 143.173,-383.34"/>
<text text-anchor="middle" x="158.5" y="-391.4" font-family="Times Roman,serif" font-size="14.00">a</text>
</g>
<!-- q8 -->
<g id="node19" class="node"><title>q8</title>
<ellipse fill="none" stroke="black" cx="190" cy="-115" rx="27" ry="18.3848"/>
<ellipse fill="none" stroke="black" cx="190" cy="-115" rx="31" ry="22.3848"/>
<text text-anchor="middle" x="190" y="-111.4" font-family="Times Roman,serif" font-size="14.00">q8</text>
</g>
<!-- q4&#45;&gt;q8 -->
<g id="edge18" class="edge"><title>q4&#45;&gt;q8</title>
<path fill="none" stroke="black" d="M142.369,-193.837C150.672,-180.095 162.508,-160.504 172.304,-144.29"/>
<polygon fill="black" stroke="black" points="175.325,-146.057 177.501,-135.688 169.334,-142.438 175.325,-146.057"/>
<text text-anchor="middle" x="168.5" y="-161.4" font-family="Times Roman,serif" font-size="14.00">b</text>
</g>
<!-- q9 -->
<g id="node21" class="node"><title>q9</title>
<ellipse fill="none" stroke="black" cx="69" cy="-115" rx="27" ry="18.3848"/>
<text text-anchor="middle" x="69" y="-111.4" font-family="Times Roman,serif" font-size="14.00">q9</text>
</g>
<!-- q4&#45;&gt;q9 -->
<g id="edge20" class="edge"><title>q4&#45;&gt;q9</title>
<path fill="none" stroke="black" d="M120.737,-193.837C111.061,-179.094 96.9686,-157.619 85.9339,-140.804"/>
<polygon fill="black" stroke="black" points="88.5784,-138.454 80.1656,-132.014 82.7261,-142.295 88.5784,-138.454"/>
<text text-anchor="middle" x="110.5" y="-161.4" font-family="Times Roman,serif" font-size="14.00">a</text>
</g>
<!-- q5&#45;&gt;q3 -->
<g id="edge24" class="edge"><title>q5&#45;&gt;q3</title>
<path fill="none" stroke="black" d="M200.773,-505.098C196.274,-515.955 190.181,-529.949 184,-542 182.135,-545.636 180.062,-549.408 177.957,-553.09"/>
<polygon fill="black" stroke="black" points="174.808,-551.541 172.752,-561.934 180.84,-555.091 174.808,-551.541"/>
<text text-anchor="middle" x="196.5" y="-529.4" font-family="Times Roman,serif" font-size="14.00">a</text>
</g>
<!-- q5&#45;&gt;q10 -->
<g id="edge22" class="edge"><title>q5&#45;&gt;q10</title>
<path fill="none" stroke="black" d="M233.787,-480.676C251.552,-475.164 274.635,-465.557 290,-450 308.741,-431.025 314,-421.67 314,-395 314,-395 314,-395 314,-115 314,-86.6913 310.335,-75.6949 290,-56 273.506,-40.0249 249.518,-30.8441 229.171,-25.624"/>
<polygon fill="black" stroke="black" points="229.757,-22.1668 219.223,-23.3037 228.167,-28.9839 229.757,-22.1668"/>
<text text-anchor="middle" x="318.5" y="-253.4" font-family="Times Roman,serif" font-size="14.00">b</text>
</g>
<!-- q8&#45;&gt;q10 -->
<g id="edge36" class="edge"><title>q8&#45;&gt;q10</title>
<path fill="none" stroke="black" d="M190,-92.2493C190,-78.9942 190,-62.1479 190,-47.9538"/>
<polygon fill="black" stroke="black" points="193.5,-47.7198 190,-37.7198 186.5,-47.7199 193.5,-47.7198"/>
<text text-anchor="middle" x="194.5" y="-61.4" font-family="Times Roman,serif" font-size="14.00">a</text>
</g>
<!-- q8&#45;&gt;q8 -->
<g id="edge34" class="edge"><title>q8&#45;&gt;q8</title>
<path fill="none" stroke="black" d="M218.689,-124.338C229.781,-124.753 239,-121.641 239,-115 239,-110.538 234.838,-107.669 228.743,-106.393"/>
<polygon fill="black" stroke="black" points="228.916,-102.896 218.689,-105.662 228.408,-109.878 228.916,-102.896"/>
<text text-anchor="middle" x="243.5" y="-111.4" font-family="Times Roman,serif" font-size="14.00">b</text>
</g>
<!-- q9&#45;&gt;q0 -->
<g id="edge38" class="edge"><title>q9&#45;&gt;q0</title>
<path fill="none" stroke="black" d="M59.699,-132.5C50.5677,-151.339 38,-182.452 38,-211 38,-487 38,-487 38,-487 38,-508.964 43.5104,-533.218 48.7465,-551.307"/>
<polygon fill="black" stroke="black" points="45.413,-552.375 51.6719,-560.924 52.1101,-550.338 45.413,-552.375"/>
<text text-anchor="middle" x="42.5" y="-345.4" font-family="Times Roman,serif" font-size="14.00">b</text>
</g>
<!-- q9&#45;&gt;q7 -->
<g id="edge40" class="edge"><title>q9&#45;&gt;q7</title>
<path fill="none" stroke="black" d="M71.1314,-133.597C75.3567,-169.894 85.3144,-252.691 96,-322 98.2597,-336.657 101.118,-352.906 103.579,-366.345"/>
<polygon fill="black" stroke="black" points="100.186,-367.242 105.448,-376.437 107.068,-365.967 100.186,-367.242"/>
<text text-anchor="middle" x="91.5" y="-253.4" font-family="Times Roman,serif" font-size="14.00">a</text>
</g>
</g>
</svg>
