<?xml version="1.0" encoding="UTF-8" standalone="no"?>
<!DOCTYPE svg PUBLIC "-//W3C//DTD SVG 1.1//EN"
 "http://www.w3.org/Graphics/SVG/1.1/DTD/svg11.dtd">
<!-- Generated by graphviz version 2.26.3 (20100126.1600)
 -->
<!-- Title: G Pages: 1 -->
<svg width="281pt" height="510pt"
 viewBox="0.00 0.00 281.00 510.00" xmlns="http://www.w3.org/2000/svg" xmlns:xlink="http://www.w3.org/1999/xlink">
<g id="graph1" class="graph" transform="scale(1 1) rotate(0) translate(4 506)">
<title>G</title>
<polygon fill="white" stroke="white" points="-4,5 -4,-506 278,-506 278,5 -4,5"/>
<!-- q6 -->
<g id="node1" class="node"><title>q6</title>
<ellipse fill="none" stroke="black" cx="27" cy="-480" rx="27" ry="18"/>
<text text-anchor="middle" x="27" y="-475.9" font-family="Times Roman,serif" font-size="14.00">q6</text>
</g>
<!-- q6&#45;&gt;q6 -->
<g id="edge2" class="edge"><title>q6&#45;&gt;q6</title>
<path fill="none" stroke="black" d="M50.6146,-488.78C61.9731,-489.864 72,-486.938 72,-480 72,-475.339 67.4737,-472.488 61.0584,-471.448"/>
<polygon fill="black" stroke="black" points="60.6888,-467.939 50.6146,-471.22 60.5356,-474.938 60.6888,-467.939"/>
<text text-anchor="middle" x="76.5" y="-475.9" font-family="Times Roman,serif" font-size="14.00">b</text>
</g>
<!-- q4 -->
<g id="node4" class="node"><title>q4</title>
<ellipse fill="none" stroke="black" cx="114" cy="-386" rx="27" ry="18"/>
<text text-anchor="middle" x="114" y="-381.9" font-family="Times Roman,serif" font-size="14.00">q4</text>
</g>
<!-- q6&#45;&gt;q4 -->
<g id="edge4" class="edge"><title>q6&#45;&gt;q4</title>
<path fill="none" stroke="black" d="M41.3663,-464.478C55.3451,-449.374 76.7525,-426.244 92.7102,-409.003"/>
<polygon fill="black" stroke="black" points="95.3885,-411.262 99.6124,-401.545 90.2511,-406.507 95.3885,-411.262"/>
<text text-anchor="middle" x="82.5" y="-426.9" font-family="Times Roman,serif" font-size="14.00">a</text>
</g>
<!-- q3 -->
<g id="node9" class="node"><title>q3</title>
<ellipse fill="none" stroke="black" cx="126" cy="-296" rx="27" ry="18"/>
<text text-anchor="middle" x="126" y="-291.9" font-family="Times Roman,serif" font-size="14.00">q3</text>
</g>
<!-- q4&#45;&gt;q3 -->
<g id="edge20" class="edge"><title>q4&#45;&gt;q3</title>
<path fill="none" stroke="black" d="M116.428,-367.787C118.087,-355.344 120.319,-338.605 122.211,-324.421"/>
<polygon fill="black" stroke="black" points="125.723,-324.561 123.575,-314.186 118.784,-323.635 125.723,-324.561"/>
<text text-anchor="middle" x="125.5" y="-336.9" font-family="Times Roman,serif" font-size="14.00">a</text>
</g>
<!-- q2 -->
<g id="node10" class="node"><title>q2</title>
<ellipse fill="none" stroke="black" cx="137" cy="-206" rx="27" ry="18"/>
<text text-anchor="middle" x="137" y="-201.9" font-family="Times Roman,serif" font-size="14.00">q2</text>
</g>
<!-- q4&#45;&gt;q2 -->
<g id="edge18" class="edge"><title>q4&#45;&gt;q2</title>
<path fill="none" stroke="black" d="M102.371,-369.421C88.9327,-348.125 69.9924,-310.082 81,-278 87.5301,-258.968 101.374,-241.091 113.662,-227.911"/>
<polygon fill="black" stroke="black" points="116.191,-230.332 120.65,-220.721 111.171,-225.453 116.191,-230.332"/>
<text text-anchor="middle" x="85.5" y="-291.9" font-family="Times Roman,serif" font-size="14.00">b</text>
</g>
<!-- q5 -->
<g id="node5" class="node"><title>q5</title>
<ellipse fill="none" stroke="black" cx="137" cy="-116" rx="27" ry="18"/>
<text text-anchor="middle" x="137" y="-111.9" font-family="Times Roman,serif" font-size="14.00">q5</text>
</g>
<!-- q1 -->
<g id="node7" class="node"><title>q1</title>
<ellipse fill="none" stroke="black" cx="104" cy="-22" rx="27" ry="18"/>
<ellipse fill="none" stroke="black" cx="104" cy="-22" rx="31" ry="22"/>
<text text-anchor="middle" x="104" y="-17.9" font-family="Times Roman,serif" font-size="14.00">q1</text>
</g>
<!-- q5&#45;&gt;q1 -->
<g id="edge6" class="edge"><title>q5&#45;&gt;q1</title>
<path fill="none" stroke="black" d="M130.793,-98.3193C126.321,-85.5804 120.169,-68.057 114.888,-53.0139"/>
<polygon fill="black" stroke="black" points="118.184,-51.8379 111.57,-43.5618 111.58,-54.1566 118.184,-51.8379"/>
<text text-anchor="middle" x="127.5" y="-66.9" font-family="Times Roman,serif" font-size="14.00">b</text>
</g>
<!-- q5&#45;&gt;q3 -->
<g id="edge8" class="edge"><title>q5&#45;&gt;q3</title>
<path fill="none" stroke="black" d="M154.772,-129.719C178.291,-149.665 215.115,-188.205 200,-224 190.678,-246.077 170.91,-264.732 154.149,-277.518"/>
<polygon fill="black" stroke="black" points="151.748,-274.937 145.729,-283.657 155.872,-280.594 151.748,-274.937"/>
<text text-anchor="middle" x="207.5" y="-201.9" font-family="Times Roman,serif" font-size="14.00">a</text>
</g>
<!-- q1&#45;&gt;q6 -->
<g id="edge14" class="edge"><title>q1&#45;&gt;q6</title>
<path fill="none" stroke="black" d="M79.8408,-35.9339C55.6528,-51.8951 22,-80.4838 22,-116 22,-386 22,-386 22,-386 22,-408.131 23.3992,-433.152 24.7172,-451.813"/>
<polygon fill="black" stroke="black" points="21.2422,-452.281 25.4727,-461.995 28.223,-451.763 21.2422,-452.281"/>
<text text-anchor="middle" x="26.5" y="-246.9" font-family="Times Roman,serif" font-size="14.00">b</text>
</g>
<!-- q1&#45;&gt;q3 -->
<g id="edge16" class="edge"><title>q1&#45;&gt;q3</title>
<path fill="none" stroke="black" d="M101.086,-44.0185C96.7203,-81.3528 90.0914,-159.326 101,-224 103.596,-239.388 109.106,-255.879 114.294,-269.191"/>
<polygon fill="black" stroke="black" points="111.141,-270.73 118.145,-278.68 117.627,-268.097 111.141,-270.73"/>
<text text-anchor="middle" x="99.5" y="-156.9" font-family="Times Roman,serif" font-size="14.00">a</text>
</g>
<!-- q3&#45;&gt;q2 -->
<g id="edge22" class="edge"><title>q3&#45;&gt;q2</title>
<path fill="none" stroke="black" d="M125.202,-277.907C125.019,-267.377 125.269,-253.877 127,-242 127.398,-239.266 127.941,-236.445 128.569,-233.642"/>
<polygon fill="black" stroke="black" points="132.011,-234.311 131.111,-223.755 125.231,-232.568 132.011,-234.311"/>
<text text-anchor="middle" x="131.5" y="-246.9" font-family="Times Roman,serif" font-size="14.00">b</text>
</g>
<!-- q3&#45;&gt;q2 -->
<g id="edge24" class="edge"><title>q3&#45;&gt;q2</title>
<path fill="none" stroke="black" d="M131.889,-278.245C133.539,-272.49 135.121,-266.034 136,-260 137.217,-251.649 137.702,-242.496 137.819,-234.137"/>
<polygon fill="black" stroke="black" points="141.319,-234.085 137.798,-224.093 134.319,-234.1 141.319,-234.085"/>
<text text-anchor="middle" x="141.5" y="-246.9" font-family="Times Roman,serif" font-size="14.00">a</text>
</g>
<!-- q2&#45;&gt;q5 -->
<g id="edge12" class="edge"><title>q2&#45;&gt;q5</title>
<path fill="none" stroke="black" d="M137,-187.787C137,-175.344 137,-158.605 137,-144.421"/>
<polygon fill="black" stroke="black" points="140.5,-144.186 137,-134.186 133.5,-144.186 140.5,-144.186"/>
<text text-anchor="middle" x="141.5" y="-156.9" font-family="Times Roman,serif" font-size="14.00">a</text>
</g>
<!-- q2&#45;&gt;q2 -->
<g id="edge10" class="edge"><title>q2&#45;&gt;q2</title>
<path fill="none" stroke="black" d="M161.532,-214.121C172.508,-214.895 182,-212.188 182,-206 182,-201.843 177.715,-199.257 171.574,-198.242"/>
<polygon fill="black" stroke="black" points="171.652,-194.742 161.532,-197.879 171.4,-201.738 171.652,-194.742"/>
<text text-anchor="middle" x="186.5" y="-201.9" font-family="Times Roman,serif" font-size="14.00">b</text>
</g>
<!-- q0 -->
<g id="node19" class="node"><title>q0</title>
<ellipse fill="none" stroke="black" cx="132" cy="-480" rx="27" ry="18"/>
<ellipse fill="none" stroke="black" cx="132" cy="-480" rx="31" ry="22"/>
<text text-anchor="middle" x="132" y="-475.9" font-family="Times Roman,serif" font-size="14.00">q0</text>
</g>
<!-- q0&#45;&gt;q4 -->
<g id="edge28" class="edge"><title>q0&#45;&gt;q4</title>
<path fill="none" stroke="black" d="M127.825,-458.198C125.309,-445.06 122.079,-428.191 119.374,-414.064"/>
<polygon fill="black" stroke="black" points="122.746,-413.065 117.428,-403.902 115.871,-414.382 122.746,-413.065"/>
<text text-anchor="middle" x="128.5" y="-426.9" font-family="Times Roman,serif" font-size="14.00">a</text>
</g>
<!-- q0&#45;&gt;q1 -->
<g id="edge26" class="edge"><title>q0&#45;&gt;q1</title>
<path fill="none" stroke="black" d="M161.623,-472.991C200.541,-461.816 264,-435.937 264,-386 264,-386 264,-386 264,-116 264,-60.7732 192.258,-37.3596 144.854,-27.9169"/>
<polygon fill="black" stroke="black" points="145.321,-24.4439 134.85,-26.0569 144.041,-31.326 145.321,-24.4439"/>
<text text-anchor="middle" x="268.5" y="-246.9" font-family="Times Roman,serif" font-size="14.00">b</text>
</g>
</g>
</svg>
