<?xml version="1.0" encoding="UTF-8" standalone="no"?>
<!DOCTYPE svg PUBLIC "-//W3C//DTD SVG 1.1//EN"
 "http://www.w3.org/Graphics/SVG/1.1/DTD/svg11.dtd">
<!-- Generated by graphviz version 2.26.3 (20100126.1600)
 -->
<!-- Title: G Pages: 1 -->
<svg width="321pt" height="698pt"
 viewBox="0.00 0.00 321.00 698.00" xmlns="http://www.w3.org/2000/svg" xmlns:xlink="http://www.w3.org/1999/xlink">
<g id="graph1" class="graph" transform="scale(1 1) rotate(0) translate(4 694)">
<title>G</title>
<polygon fill="white" stroke="white" points="-4,5 -4,-694 318,-694 318,5 -4,5"/>
<!-- q0 -->
<g id="node1" class="node"><title>q0</title>
<ellipse fill="none" stroke="black" cx="195" cy="-579" rx="27" ry="18.3848"/>
<text text-anchor="middle" x="195" y="-575.4" font-family="Times Roman,serif" font-size="14.00">q0</text>
</g>
<!-- q0&#45;&gt;q0 -->
<g id="edge4" class="edge"><title>q0&#45;&gt;q0</title>
<path fill="none" stroke="black" d="M219.074,-587.454C230.242,-588.377 240,-585.559 240,-579 240,-574.593 235.595,-571.875 229.317,-570.846"/>
<polygon fill="black" stroke="black" points="229.173,-567.34 219.074,-570.546 228.967,-574.337 229.173,-567.34"/>
<text text-anchor="middle" x="244.5" y="-575.4" font-family="Times Roman,serif" font-size="14.00">a</text>
</g>
<!-- q3 -->
<g id="node3" class="node"><title>q3</title>
<ellipse fill="none" stroke="black" cx="114" cy="-487" rx="27" ry="18.3848"/>
<text text-anchor="middle" x="114" y="-483.4" font-family="Times Roman,serif" font-size="14.00">q3</text>
</g>
<!-- q0&#45;&gt;q3 -->
<g id="edge2" class="edge"><title>q0&#45;&gt;q3</title>
<path fill="none" stroke="black" d="M180.891,-562.975C168.115,-548.463 149.132,-526.903 134.649,-510.453"/>
<polygon fill="black" stroke="black" points="137.183,-508.034 127.947,-502.842 131.929,-512.66 137.183,-508.034"/>
<text text-anchor="middle" x="165.5" y="-529.4" font-family="Times Roman,serif" font-size="14.00">b</text>
</g>
<!-- q2 -->
<g id="node5" class="node"><title>q2</title>
<ellipse fill="none" stroke="black" cx="175" cy="-395" rx="27" ry="18.3848"/>
<text text-anchor="middle" x="175" y="-391.4" font-family="Times Roman,serif" font-size="14.00">q2</text>
</g>
<!-- q3&#45;&gt;q2 -->
<g id="edge12" class="edge"><title>q3&#45;&gt;q2</title>
<path fill="none" stroke="black" d="M125.188,-470.126C134.331,-456.336 147.408,-436.614 157.869,-420.837"/>
<polygon fill="black" stroke="black" points="161.067,-422.347 163.676,-412.079 155.233,-418.479 161.067,-422.347"/>
<text text-anchor="middle" x="153.5" y="-437.4" font-family="Times Roman,serif" font-size="14.00">a</text>
</g>
<!-- q10 -->
<g id="node11" class="node"><title>q10</title>
<ellipse fill="none" stroke="black" cx="114" cy="-19" rx="29.9071" ry="18.3848"/>
<text text-anchor="middle" x="114" y="-15.4" font-family="Times Roman,serif" font-size="14.00">q10</text>
</g>
<!-- q3&#45;&gt;q10 -->
<g id="edge10" class="edge"><title>q3&#45;&gt;q10</title>
<path fill="none" stroke="black" d="M87.7856,-481.828C68.0543,-476.729 41.5058,-467.135 24,-450 4.94042,-431.344 0,-421.67 0,-395 0,-395 0,-395 0,-111 0,-84.3296 4.94042,-74.6559 24,-56 38.0282,-42.2689 57.8632,-33.3801 75.3438,-27.7666"/>
<polygon fill="black" stroke="black" points="76.7017,-31.0152 85.3023,-24.8281 74.7206,-24.3013 76.7017,-31.0152"/>
<text text-anchor="middle" x="4.5" y="-245.4" font-family="Times Roman,serif" font-size="14.00">b</text>
</g>
<!-- q4 -->
<g id="node7" class="node"><title>q4</title>
<ellipse fill="none" stroke="black" cx="173" cy="-299" rx="27" ry="18.3848"/>
<ellipse fill="none" stroke="black" cx="173" cy="-299" rx="31" ry="22.3848"/>
<text text-anchor="middle" x="173" y="-295.4" font-family="Times Roman,serif" font-size="14.00">q4</text>
</g>
<!-- q2&#45;&gt;q4 -->
<g id="edge6" class="edge"><title>q2&#45;&gt;q4</title>
<path fill="none" stroke="black" d="M162.1,-378.629C158.04,-372.51 154.076,-365.273 152,-358 149.231,-348.301 151.227,-337.883 154.898,-328.541"/>
<polygon fill="black" stroke="black" points="158.165,-329.815 159.2,-319.271 151.816,-326.868 158.165,-329.815"/>
<text text-anchor="middle" x="156.5" y="-345.4" font-family="Times Roman,serif" font-size="14.00">b</text>
</g>
<!-- q9 -->
<g id="node9" class="node"><title>q9</title>
<ellipse fill="none" stroke="black" cx="249" cy="-299" rx="27" ry="18.3848"/>
<text text-anchor="middle" x="249" y="-295.4" font-family="Times Roman,serif" font-size="14.00">q9</text>
</g>
<!-- q2&#45;&gt;q9 -->
<g id="edge8" class="edge"><title>q2&#45;&gt;q9</title>
<path fill="none" stroke="black" d="M187.89,-378.278C199.562,-363.136 216.904,-340.638 230.136,-323.473"/>
<polygon fill="black" stroke="black" points="232.925,-325.587 236.258,-315.53 227.381,-321.314 232.925,-325.587"/>
<text text-anchor="middle" x="220.5" y="-345.4" font-family="Times Roman,serif" font-size="14.00">a</text>
</g>
<!-- q4&#45;&gt;q2 -->
<g id="edge16" class="edge"><title>q4&#45;&gt;q2</title>
<path fill="none" stroke="black" d="M173.469,-321.508C173.747,-334.842 174.102,-351.875 174.4,-366.185"/>
<polygon fill="black" stroke="black" points="170.907,-366.565 174.614,-376.49 177.905,-366.419 170.907,-366.565"/>
<text text-anchor="middle" x="178.5" y="-345.4" font-family="Times Roman,serif" font-size="14.00">a</text>
</g>
<!-- q8 -->
<g id="node14" class="node"><title>q8</title>
<ellipse fill="none" stroke="black" cx="183" cy="-203" rx="27" ry="18.3848"/>
<text text-anchor="middle" x="183" y="-199.4" font-family="Times Roman,serif" font-size="14.00">q8</text>
</g>
<!-- q4&#45;&gt;q8 -->
<g id="edge14" class="edge"><title>q4&#45;&gt;q8</title>
<path fill="none" stroke="black" d="M175.37,-276.249C176.751,-262.994 178.505,-246.148 179.984,-231.954"/>
<polygon fill="black" stroke="black" points="183.495,-232.029 181.05,-221.72 176.533,-231.303 183.495,-232.029"/>
<text text-anchor="middle" x="182.5" y="-245.4" font-family="Times Roman,serif" font-size="14.00">b</text>
</g>
<!-- q9&#45;&gt;q3 -->
<g id="edge30" class="edge"><title>q9&#45;&gt;q3</title>
<path fill="none" stroke="black" d="M246.367,-317.688C242.219,-341.829 232.33,-384.274 211,-414 193.69,-438.124 166.058,-457.803 144.705,-470.625"/>
<polygon fill="black" stroke="black" points="142.873,-467.641 135.987,-475.693 146.391,-473.693 142.873,-467.641"/>
<text text-anchor="middle" x="234.5" y="-391.4" font-family="Times Roman,serif" font-size="14.00">b</text>
</g>
<!-- q5 -->
<g id="node16" class="node"><title>q5</title>
<ellipse fill="none" stroke="black" cx="220" cy="-111" rx="27" ry="18.3848"/>
<text text-anchor="middle" x="220" y="-107.4" font-family="Times Roman,serif" font-size="14.00">q5</text>
</g>
<!-- q9&#45;&gt;q5 -->
<g id="edge32" class="edge"><title>q9&#45;&gt;q5</title>
<path fill="none" stroke="black" d="M246.113,-280.287C241.032,-247.348 230.461,-178.815 224.443,-139.804"/>
<polygon fill="black" stroke="black" points="227.859,-138.987 222.875,-129.638 220.94,-140.055 227.859,-138.987"/>
<text text-anchor="middle" x="240.5" y="-199.4" font-family="Times Roman,serif" font-size="14.00">a</text>
</g>
<!-- q10&#45;&gt;q3 -->
<g id="edge34" class="edge"><title>q10&#45;&gt;q3</title>
<path fill="none" stroke="black" d="M91.3615,-31.3058C81.34,-37.6364 70.0309,-46.1076 62,-56 45.1902,-76.706 38,-84.3296 38,-111 38,-395 38,-395 38,-395 38,-421.67 45.1902,-429.294 62,-450 68.1541,-457.581 76.2333,-464.327 84.1829,-469.914"/>
<polygon fill="black" stroke="black" points="82.3864,-472.922 92.6609,-475.508 86.2413,-467.079 82.3864,-472.922"/>
<text text-anchor="middle" x="42.5" y="-245.4" font-family="Times Roman,serif" font-size="14.00">b</text>
</g>
<!-- q10&#45;&gt;q3 -->
<g id="edge36" class="edge"><title>q10&#45;&gt;q3</title>
<path fill="none" stroke="black" d="M102.185,-36.1107C91.0299,-53.9624 76,-83.1775 76,-111 76,-395 76,-395 76,-395 76,-418.84 87.0349,-443.702 97.2117,-461.562"/>
<polygon fill="black" stroke="black" points="94.2545,-463.436 102.392,-470.221 100.261,-459.842 94.2545,-463.436"/>
<text text-anchor="middle" x="80.5" y="-245.4" font-family="Times Roman,serif" font-size="14.00">a</text>
</g>
<!-- q10&#45;&gt;q3 -->
<g id="edge38" class="edge"><title>q10&#45;&gt;q3</title>
<path fill="none" stroke="black" d="M114,-37.6776C114,-56.265 114,-85.6042 114,-111 114,-395 114,-395 114,-395 114,-416.13 114,-439.99 114,-458.116"/>
<polygon fill="black" stroke="black" points="110.5,-458.322 114,-468.322 117.5,-458.322 110.5,-458.322"/>
<text text-anchor="middle" x="118.5" y="-245.4" font-family="Times Roman,serif" font-size="14.00">b</text>
</g>
<!-- q10&#45;&gt;q10 -->
<g id="edge40" class="edge"><title>q10&#45;&gt;q10</title>
<path fill="none" stroke="black" d="M140.655,-27.5218C152.154,-28.2195 162,-25.3789 162,-19 162,-14.6145 157.346,-11.9014 150.701,-10.8607"/>
<polygon fill="black" stroke="black" points="150.781,-7.3613 140.655,-10.4782 150.514,-14.3562 150.781,-7.3613"/>
<text text-anchor="middle" x="166.5" y="-15.4" font-family="Times Roman,serif" font-size="14.00">a</text>
</g>
<!-- q8&#45;&gt;q10 -->
<g id="edge28" class="edge"><title>q8&#45;&gt;q10</title>
<path fill="none" stroke="black" d="M176.248,-184.887C165.895,-157.133 145.464,-102.416 128,-56 126.839,-52.9145 125.621,-49.6853 124.409,-46.4747"/>
<polygon fill="black" stroke="black" points="127.66,-45.1771 120.849,-37.0614 121.112,-47.6529 127.66,-45.1771"/>
<text text-anchor="middle" x="159.5" y="-107.4" font-family="Times Roman,serif" font-size="14.00">a</text>
</g>
<!-- q8&#45;&gt;q5 -->
<g id="edge26" class="edge"><title>q8&#45;&gt;q5</title>
<path fill="none" stroke="black" d="M184.781,-184.347C186.296,-173.421 189.051,-159.546 194,-148 195.824,-143.745 198.187,-139.487 200.745,-135.453"/>
<polygon fill="black" stroke="black" points="203.729,-137.29 206.519,-127.069 197.964,-133.319 203.729,-137.29"/>
<text text-anchor="middle" x="198.5" y="-153.4" font-family="Times Roman,serif" font-size="14.00">b</text>
</g>
<!-- q5&#45;&gt;q10 -->
<g id="edge20" class="edge"><title>q5&#45;&gt;q10</title>
<path fill="none" stroke="black" d="M207.969,-93.8816C199.341,-82.3461 186.989,-67.242 174,-56 165.515,-48.6562 155.411,-41.8263 145.936,-36.0843"/>
<polygon fill="black" stroke="black" points="147.517,-32.9548 137.117,-30.9313 143.985,-38.9986 147.517,-32.9548"/>
<text text-anchor="middle" x="194.5" y="-61.4" font-family="Times Roman,serif" font-size="14.00">a</text>
</g>
<!-- q5&#45;&gt;q8 -->
<g id="edge18" class="edge"><title>q5&#45;&gt;q8</title>
<path fill="none" stroke="black" d="M215.216,-129.654C212.204,-140.455 207.954,-154.205 203,-166 201.528,-169.505 199.827,-173.115 198.052,-176.641"/>
<polygon fill="black" stroke="black" points="194.866,-175.179 193.284,-185.655 201.054,-178.452 194.866,-175.179"/>
<text text-anchor="middle" x="213.5" y="-153.4" font-family="Times Roman,serif" font-size="14.00">b</text>
</g>
<!-- q6 -->
<g id="node19" class="node"><title>q6</title>
<ellipse fill="none" stroke="black" cx="271" cy="-671" rx="27" ry="18.3848"/>
<text text-anchor="middle" x="271" y="-667.4" font-family="Times Roman,serif" font-size="14.00">q6</text>
</g>
<!-- q6&#45;&gt;q0 -->
<g id="edge22" class="edge"><title>q6&#45;&gt;q0</title>
<path fill="none" stroke="black" d="M257.413,-654.552C245.633,-640.292 228.425,-619.461 215.059,-603.282"/>
<polygon fill="black" stroke="black" points="217.537,-600.786 208.47,-595.305 212.14,-605.244 217.537,-600.786"/>
<text text-anchor="middle" x="243.5" y="-621.4" font-family="Times Roman,serif" font-size="14.00">b</text>
</g>
<!-- q6&#45;&gt;q10 -->
<g id="edge24" class="edge"><title>q6&#45;&gt;q10</title>
<path fill="none" stroke="black" d="M281.261,-653.681C290.948,-635.664 304,-606.32 304,-579 304,-579 304,-579 304,-111 304,-77.5329 207.299,-44.9936 151.872,-29.0915"/>
<polygon fill="black" stroke="black" points="152.61,-25.6632 142.035,-26.3194 150.711,-32.4007 152.61,-25.6632"/>
<text text-anchor="middle" x="308.5" y="-345.4" font-family="Times Roman,serif" font-size="14.00">a</text>
</g>
</g>
</svg>
