<?xml version="1.0" encoding="UTF-8" standalone="no"?>
<!DOCTYPE svg PUBLIC "-//W3C//DTD SVG 1.1//EN"
 "http://www.w3.org/Graphics/SVG/1.1/DTD/svg11.dtd">
<!-- Generated by graphviz version 2.26.3 (20100126.1600)
 -->
<!-- Title: G Pages: 1 -->
<svg width="177pt" height="414pt"
 viewBox="0.00 0.00 177.00 414.00" xmlns="http://www.w3.org/2000/svg" xmlns:xlink="http://www.w3.org/1999/xlink">
<g id="graph1" class="graph" transform="scale(1 1) rotate(0) translate(4 410)">
<title>G</title>
<polygon fill="white" stroke="white" points="-4,5 -4,-410 174,-410 174,5 -4,5"/>
<!-- q2 -->
<g id="node1" class="node"><title>q2</title>
<ellipse fill="none" stroke="black" cx="27" cy="-111" rx="27" ry="18.3848"/>
<text text-anchor="middle" x="27" y="-107.4" font-family="Times Roman,serif" font-size="14.00">q2</text>
</g>
<!-- q2&#45;&gt;q2 -->
<g id="edge2" class="edge"><title>q2&#45;&gt;q2</title>
<path fill="none" stroke="black" d="M51.0743,-119.454C62.2423,-120.377 72,-117.559 72,-111 72,-106.593 67.5952,-103.875 61.3174,-102.846"/>
<polygon fill="black" stroke="black" points="61.1726,-99.3402 51.0743,-102.546 60.9674,-106.337 61.1726,-99.3402"/>
<text text-anchor="middle" x="76.5" y="-107.4" font-family="Times Roman,serif" font-size="14.00">b</text>
</g>
<!-- q3 -->
<g id="node4" class="node"><title>q3</title>
<ellipse fill="none" stroke="black" cx="88" cy="-19" rx="27" ry="18.3848"/>
<text text-anchor="middle" x="88" y="-15.4" font-family="Times Roman,serif" font-size="14.00">q3</text>
</g>
<!-- q2&#45;&gt;q3 -->
<g id="edge4" class="edge"><title>q2&#45;&gt;q3</title>
<path fill="none" stroke="black" d="M38.1883,-94.1258C47.3315,-80.3361 60.4079,-60.6143 70.8686,-44.8375"/>
<polygon fill="black" stroke="black" points="74.0669,-46.3474 76.676,-36.0788 68.2328,-42.4791 74.0669,-46.3474"/>
<text text-anchor="middle" x="66.5" y="-61.4" font-family="Times Roman,serif" font-size="14.00">a</text>
</g>
<!-- q3&#45;&gt;q3 -->
<g id="edge14" class="edge"><title>q3&#45;&gt;q3</title>
<path fill="none" stroke="black" d="M114.347,-23.2957C124.533,-23.4866 133,-22.0547 133,-19 133,-17.0431 129.525,-15.7522 124.35,-15.1273"/>
<polygon fill="black" stroke="black" points="124.486,-11.63 114.347,-14.7043 124.19,-18.6237 124.486,-11.63"/>
<text text-anchor="middle" x="137.5" y="-15.4" font-family="Times Roman,serif" font-size="14.00">b</text>
</g>
<!-- q3&#45;&gt;q3 -->
<g id="edge16" class="edge"><title>q3&#45;&gt;q3</title>
<path fill="none" stroke="black" d="M106.703,-32.3594C127.375,-41.2656 151,-36.8125 151,-19 151,-3.9707 134.181,1.54787 116.508,-2.44429"/>
<polygon fill="black" stroke="black" points="115.126,0.786507 106.703,-5.64062 117.296,-5.86879 115.126,0.786507"/>
<text text-anchor="middle" x="155.5" y="-15.4" font-family="Times Roman,serif" font-size="14.00">a</text>
</g>
<!-- q1 -->
<g id="node5" class="node"><title>q1</title>
<ellipse fill="none" stroke="black" cx="82" cy="-295" rx="27" ry="18.3848"/>
<text text-anchor="middle" x="82" y="-291.4" font-family="Times Roman,serif" font-size="14.00">q1</text>
</g>
<!-- q0 -->
<g id="node7" class="node"><title>q0</title>
<ellipse fill="none" stroke="black" cx="86" cy="-203" rx="27" ry="18.3848"/>
<text text-anchor="middle" x="86" y="-199.4" font-family="Times Roman,serif" font-size="14.00">q0</text>
</g>
<!-- q1&#45;&gt;q0 -->
<g id="edge6" class="edge"><title>q1&#45;&gt;q0</title>
<path fill="none" stroke="black" d="M74.7108,-276.675C71.3645,-265.984 68.6145,-252.234 71,-240 71.6368,-236.734 72.5621,-233.393 73.6454,-230.118"/>
<polygon fill="black" stroke="black" points="76.9666,-231.231 77.2385,-220.639 70.4211,-228.749 76.9666,-231.231"/>
<text text-anchor="middle" x="75.5" y="-245.4" font-family="Times Roman,serif" font-size="14.00">b</text>
</g>
<!-- q1&#45;&gt;q0 -->
<g id="edge8" class="edge"><title>q1&#45;&gt;q0</title>
<path fill="none" stroke="black" d="M82.8095,-276.382C83.3679,-263.538 84.121,-246.216 84.7554,-231.627"/>
<polygon fill="black" stroke="black" points="88.254,-231.733 85.1917,-221.59 81.2606,-231.428 88.254,-231.733"/>
<text text-anchor="middle" x="88.5" y="-245.4" font-family="Times Roman,serif" font-size="14.00">a</text>
</g>
<!-- q0&#45;&gt;q2 -->
<g id="edge20" class="edge"><title>q0&#45;&gt;q2</title>
<path fill="none" stroke="black" d="M74.9026,-185.696C66.0849,-171.946 53.6149,-152.501 43.6084,-136.898"/>
<polygon fill="black" stroke="black" points="46.3923,-134.755 38.0477,-128.227 40.4998,-138.534 46.3923,-134.755"/>
<text text-anchor="middle" x="65.5" y="-153.4" font-family="Times Roman,serif" font-size="14.00">a</text>
</g>
<!-- q0&#45;&gt;q3 -->
<g id="edge18" class="edge"><title>q0&#45;&gt;q3</title>
<path fill="none" stroke="black" d="M87.3,-184.409C88.2632,-169.663 89.4929,-148.524 90,-130 90.7615,-102.184 90.028,-70.4379 89.2435,-48.0421"/>
<polygon fill="black" stroke="black" points="92.7339,-47.7184 88.8606,-37.857 85.7389,-47.9814 92.7339,-47.7184"/>
<text text-anchor="middle" x="94.5" y="-107.4" font-family="Times Roman,serif" font-size="14.00">b</text>
</g>
<!-- q4 -->
<g id="node9" class="node"><title>q4</title>
<ellipse fill="none" stroke="black" cx="49" cy="-387" rx="27" ry="18.3848"/>
<text text-anchor="middle" x="49" y="-383.4" font-family="Times Roman,serif" font-size="14.00">q4</text>
</g>
<!-- q4&#45;&gt;q2 -->
<g id="edge12" class="edge"><title>q4&#45;&gt;q2</title>
<path fill="none" stroke="black" d="M47.5224,-368.462C43.7663,-321.34 33.8308,-196.696 29.3048,-139.914"/>
<polygon fill="black" stroke="black" points="32.7838,-139.511 28.5002,-129.82 25.8059,-140.067 32.7838,-139.511"/>
<text text-anchor="middle" x="42.5" y="-245.4" font-family="Times Roman,serif" font-size="14.00">a</text>
</g>
<!-- q4&#45;&gt;q1 -->
<g id="edge10" class="edge"><title>q4&#45;&gt;q1</title>
<path fill="none" stroke="black" d="M55.5197,-368.824C60.2203,-355.719 66.6519,-337.789 71.9995,-322.88"/>
<polygon fill="black" stroke="black" points="75.4119,-323.733 75.4938,-313.138 68.8229,-321.37 75.4119,-323.733"/>
<text text-anchor="middle" x="72.5" y="-337.4" font-family="Times Roman,serif" font-size="14.00">b</text>
</g>
</g>
</svg>
