<?xml version="1.0" encoding="UTF-8" standalone="no"?>
<!DOCTYPE svg PUBLIC "-//W3C//DTD SVG 1.1//EN"
 "http://www.w3.org/Graphics/SVG/1.1/DTD/svg11.dtd">
<!-- Generated by graphviz version 2.26.3 (20100126.1600)
 -->
<!-- Title: G Pages: 1 -->
<svg width="321pt" height="706pt"
 viewBox="0.00 0.00 321.00 706.00" xmlns="http://www.w3.org/2000/svg" xmlns:xlink="http://www.w3.org/1999/xlink">
<g id="graph1" class="graph" transform="scale(1 1) rotate(0) translate(4 702)">
<title>G</title>
<polygon fill="white" stroke="white" points="-4,5 -4,-702 318,-702 318,5 -4,5"/>
<!-- q0 -->
<g id="node1" class="node"><title>q0</title>
<ellipse fill="none" stroke="black" cx="195" cy="-587" rx="27" ry="18.3848"/>
<text text-anchor="middle" x="195" y="-583.4" font-family="Times Roman,serif" font-size="14.00">q0</text>
</g>
<!-- q0&#45;&gt;q0 -->
<g id="edge4" class="edge"><title>q0&#45;&gt;q0</title>
<path fill="none" stroke="black" d="M219.074,-595.454C230.242,-596.377 240,-593.559 240,-587 240,-582.593 235.595,-579.875 229.317,-578.846"/>
<polygon fill="black" stroke="black" points="229.173,-575.34 219.074,-578.546 228.967,-582.337 229.173,-575.34"/>
<text text-anchor="middle" x="244.5" y="-583.4" font-family="Times Roman,serif" font-size="14.00">a</text>
</g>
<!-- q3 -->
<g id="node3" class="node"><title>q3</title>
<ellipse fill="none" stroke="black" cx="114" cy="-495" rx="27" ry="18.3848"/>
<text text-anchor="middle" x="114" y="-491.4" font-family="Times Roman,serif" font-size="14.00">q3</text>
</g>
<!-- q0&#45;&gt;q3 -->
<g id="edge2" class="edge"><title>q0&#45;&gt;q3</title>
<path fill="none" stroke="black" d="M180.891,-570.975C168.115,-556.463 149.132,-534.903 134.649,-518.453"/>
<polygon fill="black" stroke="black" points="137.183,-516.034 127.947,-510.842 131.929,-520.66 137.183,-516.034"/>
<text text-anchor="middle" x="165.5" y="-537.4" font-family="Times Roman,serif" font-size="14.00">b</text>
</g>
<!-- q2 -->
<g id="node5" class="node"><title>q2</title>
<ellipse fill="none" stroke="black" cx="175" cy="-403" rx="27" ry="18.3848"/>
<text text-anchor="middle" x="175" y="-399.4" font-family="Times Roman,serif" font-size="14.00">q2</text>
</g>
<!-- q3&#45;&gt;q2 -->
<g id="edge12" class="edge"><title>q3&#45;&gt;q2</title>
<path fill="none" stroke="black" d="M125.188,-478.126C134.331,-464.336 147.408,-444.614 157.869,-428.837"/>
<polygon fill="black" stroke="black" points="161.067,-430.347 163.676,-420.079 155.233,-426.479 161.067,-430.347"/>
<text text-anchor="middle" x="153.5" y="-445.4" font-family="Times Roman,serif" font-size="14.00">a</text>
</g>
<!-- q10 -->
<g id="node11" class="node"><title>q10</title>
<ellipse fill="none" stroke="black" cx="114" cy="-19" rx="29.9071" ry="18.3848"/>
<text text-anchor="middle" x="114" y="-15.4" font-family="Times Roman,serif" font-size="14.00">q10</text>
</g>
<!-- q3&#45;&gt;q10 -->
<g id="edge10" class="edge"><title>q3&#45;&gt;q10</title>
<path fill="none" stroke="black" d="M87.7856,-489.828C68.0543,-484.729 41.5058,-475.135 24,-458 4.94042,-439.344 0,-429.67 0,-403 0,-403 0,-403 0,-115 0,-86.6913 4.0199,-76.0544 24,-56 37.8547,-42.0938 57.6737,-33.1888 75.1885,-27.6099"/>
<polygon fill="black" stroke="black" points="76.5529,-30.8578 85.1722,-24.6968 74.5921,-24.138 76.5529,-30.8578"/>
<text text-anchor="middle" x="4.5" y="-253.4" font-family="Times Roman,serif" font-size="14.00">b</text>
</g>
<!-- q4 -->
<g id="node7" class="node"><title>q4</title>
<ellipse fill="none" stroke="black" cx="173" cy="-307" rx="27" ry="18.3848"/>
<ellipse fill="none" stroke="black" cx="173" cy="-307" rx="31" ry="22.3848"/>
<text text-anchor="middle" x="173" y="-303.4" font-family="Times Roman,serif" font-size="14.00">q4</text>
</g>
<!-- q2&#45;&gt;q4 -->
<g id="edge6" class="edge"><title>q2&#45;&gt;q4</title>
<path fill="none" stroke="black" d="M162.1,-386.629C158.04,-380.51 154.076,-373.273 152,-366 149.231,-356.301 151.227,-345.883 154.898,-336.541"/>
<polygon fill="black" stroke="black" points="158.165,-337.815 159.2,-327.271 151.816,-334.868 158.165,-337.815"/>
<text text-anchor="middle" x="156.5" y="-353.4" font-family="Times Roman,serif" font-size="14.00">b</text>
</g>
<!-- q9 -->
<g id="node9" class="node"><title>q9</title>
<ellipse fill="none" stroke="black" cx="249" cy="-307" rx="27" ry="18.3848"/>
<text text-anchor="middle" x="249" y="-303.4" font-family="Times Roman,serif" font-size="14.00">q9</text>
</g>
<!-- q2&#45;&gt;q9 -->
<g id="edge8" class="edge"><title>q2&#45;&gt;q9</title>
<path fill="none" stroke="black" d="M187.89,-386.278C199.562,-371.136 216.904,-348.638 230.136,-331.473"/>
<polygon fill="black" stroke="black" points="232.925,-333.587 236.258,-323.53 227.381,-329.314 232.925,-333.587"/>
<text text-anchor="middle" x="220.5" y="-353.4" font-family="Times Roman,serif" font-size="14.00">a</text>
</g>
<!-- q4&#45;&gt;q2 -->
<g id="edge16" class="edge"><title>q4&#45;&gt;q2</title>
<path fill="none" stroke="black" d="M173.469,-329.508C173.747,-342.842 174.102,-359.875 174.4,-374.185"/>
<polygon fill="black" stroke="black" points="170.907,-374.565 174.614,-384.49 177.905,-374.419 170.907,-374.565"/>
<text text-anchor="middle" x="178.5" y="-353.4" font-family="Times Roman,serif" font-size="14.00">a</text>
</g>
<!-- q8 -->
<g id="node14" class="node"><title>q8</title>
<ellipse fill="none" stroke="black" cx="183" cy="-211" rx="27" ry="18.3848"/>
<text text-anchor="middle" x="183" y="-207.4" font-family="Times Roman,serif" font-size="14.00">q8</text>
</g>
<!-- q4&#45;&gt;q8 -->
<g id="edge14" class="edge"><title>q4&#45;&gt;q8</title>
<path fill="none" stroke="black" d="M175.37,-284.249C176.751,-270.994 178.505,-254.148 179.984,-239.954"/>
<polygon fill="black" stroke="black" points="183.495,-240.029 181.05,-229.72 176.533,-239.303 183.495,-240.029"/>
<text text-anchor="middle" x="182.5" y="-253.4" font-family="Times Roman,serif" font-size="14.00">b</text>
</g>
<!-- q9&#45;&gt;q3 -->
<g id="edge30" class="edge"><title>q9&#45;&gt;q3</title>
<path fill="none" stroke="black" d="M246.367,-325.688C242.219,-349.829 232.33,-392.274 211,-422 193.69,-446.124 166.058,-465.803 144.705,-478.625"/>
<polygon fill="black" stroke="black" points="142.873,-475.641 135.987,-483.693 146.391,-481.693 142.873,-475.641"/>
<text text-anchor="middle" x="234.5" y="-399.4" font-family="Times Roman,serif" font-size="14.00">b</text>
</g>
<!-- q5 -->
<g id="node16" class="node"><title>q5</title>
<ellipse fill="none" stroke="black" cx="222" cy="-115" rx="27" ry="18.3848"/>
<ellipse fill="none" stroke="black" cx="222" cy="-115" rx="31" ry="22.3848"/>
<text text-anchor="middle" x="222" y="-111.4" font-family="Times Roman,serif" font-size="14.00">q5</text>
</g>
<!-- q9&#45;&gt;q5 -->
<g id="edge32" class="edge"><title>q9&#45;&gt;q5</title>
<path fill="none" stroke="black" d="M246.362,-288.241C241.782,-255.672 232.306,-188.284 226.616,-147.824"/>
<polygon fill="black" stroke="black" points="230.046,-147.081 225.187,-137.666 223.114,-148.056 230.046,-147.081"/>
<text text-anchor="middle" x="241.5" y="-207.4" font-family="Times Roman,serif" font-size="14.00">a</text>
</g>
<!-- q10&#45;&gt;q3 -->
<g id="edge34" class="edge"><title>q10&#45;&gt;q3</title>
<path fill="none" stroke="black" d="M91.2478,-31.2147C81.2025,-37.5262 69.906,-46.0075 62,-56 44.4351,-78.2003 38,-86.6913 38,-115 38,-403 38,-403 38,-403 38,-429.67 45.1902,-437.294 62,-458 68.1541,-465.581 76.2333,-472.327 84.1829,-477.914"/>
<polygon fill="black" stroke="black" points="82.3864,-480.922 92.6609,-483.508 86.2413,-475.079 82.3864,-480.922"/>
<text text-anchor="middle" x="42.5" y="-253.4" font-family="Times Roman,serif" font-size="14.00">b</text>
</g>
<!-- q10&#45;&gt;q3 -->
<g id="edge36" class="edge"><title>q10&#45;&gt;q3</title>
<path fill="none" stroke="black" d="M102.599,-36.2354C91.4056,-54.8522 76,-85.7825 76,-115 76,-403 76,-403 76,-403 76,-426.84 87.0349,-451.702 97.2117,-469.562"/>
<polygon fill="black" stroke="black" points="94.2545,-471.436 102.392,-478.221 100.261,-467.842 94.2545,-471.436"/>
<text text-anchor="middle" x="80.5" y="-253.4" font-family="Times Roman,serif" font-size="14.00">a</text>
</g>
<!-- q10&#45;&gt;q3 -->
<g id="edge38" class="edge"><title>q10&#45;&gt;q3</title>
<path fill="none" stroke="black" d="M114,-37.7631C114,-57.1144 114,-88.1667 114,-115 114,-403 114,-403 114,-403 114,-424.13 114,-447.99 114,-466.116"/>
<polygon fill="black" stroke="black" points="110.5,-466.322 114,-476.322 117.5,-466.322 110.5,-466.322"/>
<text text-anchor="middle" x="118.5" y="-253.4" font-family="Times Roman,serif" font-size="14.00">b</text>
</g>
<!-- q10&#45;&gt;q10 -->
<g id="edge40" class="edge"><title>q10&#45;&gt;q10</title>
<path fill="none" stroke="black" d="M140.655,-27.5218C152.154,-28.2195 162,-25.3789 162,-19 162,-14.6145 157.346,-11.9014 150.701,-10.8607"/>
<polygon fill="black" stroke="black" points="150.781,-7.3613 140.655,-10.4782 150.514,-14.3562 150.781,-7.3613"/>
<text text-anchor="middle" x="166.5" y="-15.4" font-family="Times Roman,serif" font-size="14.00">a</text>
</g>
<!-- q8&#45;&gt;q10 -->
<g id="edge28" class="edge"><title>q8&#45;&gt;q10</title>
<path fill="none" stroke="black" d="M176.686,-192.82C166.584,-163.821 146.082,-105.329 128,-56 126.865,-52.9047 125.664,-49.6694 124.461,-46.4554"/>
<polygon fill="black" stroke="black" points="127.714,-45.1611 120.911,-37.0384 121.163,-47.6303 127.714,-45.1611"/>
<text text-anchor="middle" x="161.5" y="-111.4" font-family="Times Roman,serif" font-size="14.00">a</text>
</g>
<!-- q8&#45;&gt;q5 -->
<g id="edge26" class="edge"><title>q8&#45;&gt;q5</title>
<path fill="none" stroke="black" d="M184.838,-192.371C186.373,-181.454 189.128,-167.578 194,-156 195.866,-151.566 198.249,-147.116 200.835,-142.869"/>
<polygon fill="black" stroke="black" points="203.765,-144.784 206.328,-134.504 197.914,-140.942 203.765,-144.784"/>
<text text-anchor="middle" x="198.5" y="-161.4" font-family="Times Roman,serif" font-size="14.00">b</text>
</g>
<!-- q5&#45;&gt;q10 -->
<g id="edge20" class="edge"><title>q5&#45;&gt;q10</title>
<path fill="none" stroke="black" d="M208.144,-94.6972C199.267,-82.591 187.002,-67.4089 174,-56 165.565,-48.5988 155.475,-41.7526 145.997,-36.0134"/>
<polygon fill="black" stroke="black" points="147.574,-32.8814 137.172,-30.8681 144.048,-38.9286 147.574,-32.8814"/>
<text text-anchor="middle" x="195.5" y="-61.4" font-family="Times Roman,serif" font-size="14.00">a</text>
</g>
<!-- q5&#45;&gt;q8 -->
<g id="edge18" class="edge"><title>q5&#45;&gt;q8</title>
<path fill="none" stroke="black" d="M215.904,-137.207C212.563,-148.418 208.071,-162.124 203,-174 201.507,-177.496 199.794,-181.101 198.013,-184.625"/>
<polygon fill="black" stroke="black" points="194.828,-183.161 193.24,-193.636 201.014,-186.437 194.828,-183.161"/>
<text text-anchor="middle" x="213.5" y="-161.4" font-family="Times Roman,serif" font-size="14.00">b</text>
</g>
<!-- q6 -->
<g id="node19" class="node"><title>q6</title>
<ellipse fill="none" stroke="black" cx="271" cy="-679" rx="27" ry="18.3848"/>
<text text-anchor="middle" x="271" y="-675.4" font-family="Times Roman,serif" font-size="14.00">q6</text>
</g>
<!-- q6&#45;&gt;q0 -->
<g id="edge22" class="edge"><title>q6&#45;&gt;q0</title>
<path fill="none" stroke="black" d="M257.413,-662.552C245.633,-648.292 228.425,-627.461 215.059,-611.282"/>
<polygon fill="black" stroke="black" points="217.537,-608.786 208.47,-603.305 212.14,-613.244 217.537,-608.786"/>
<text text-anchor="middle" x="243.5" y="-629.4" font-family="Times Roman,serif" font-size="14.00">b</text>
</g>
<!-- q6&#45;&gt;q10 -->
<g id="edge24" class="edge"><title>q6&#45;&gt;q10</title>
<path fill="none" stroke="black" d="M281.261,-661.681C290.948,-643.664 304,-614.32 304,-587 304,-587 304,-587 304,-115 304,-48.5114 210.166,-28.0622 154.382,-21.7799"/>
<polygon fill="black" stroke="black" points="154.409,-18.2646 144.106,-20.7333 153.7,-25.2286 154.409,-18.2646"/>
<text text-anchor="middle" x="308.5" y="-353.4" font-family="Times Roman,serif" font-size="14.00">a</text>
</g>
</g>
</svg>
