<?xml version="1.0" encoding="UTF-8" standalone="no"?>
<!DOCTYPE svg PUBLIC "-//W3C//DTD SVG 1.1//EN"
 "http://www.w3.org/Graphics/SVG/1.1/DTD/svg11.dtd">
<!-- Generated by graphviz version 2.26.3 (20100126.1600)
 -->
<!-- Title: G Pages: 1 -->
<svg width="257pt" height="430pt"
 viewBox="0.00 0.00 257.00 430.00" xmlns="http://www.w3.org/2000/svg" xmlns:xlink="http://www.w3.org/1999/xlink">
<g id="graph1" class="graph" transform="scale(1 1) rotate(0) translate(4 426)">
<title>G</title>
<polygon fill="white" stroke="white" points="-4,5 -4,-426 254,-426 254,5 -4,5"/>
<!-- q6 -->
<g id="node1" class="node"><title>q6</title>
<ellipse fill="none" stroke="black" cx="163" cy="-404" rx="27" ry="18"/>
<text text-anchor="middle" x="163" y="-399.9" font-family="Times Roman,serif" font-size="14.00">q6</text>
</g>
<!-- q2 -->
<g id="node3" class="node"><title>q2</title>
<ellipse fill="none" stroke="black" cx="116" cy="-314" rx="27" ry="18"/>
<text text-anchor="middle" x="116" y="-309.9" font-family="Times Roman,serif" font-size="14.00">q2</text>
</g>
<!-- q6&#45;&gt;q2 -->
<g id="edge2" class="edge"><title>q6&#45;&gt;q2</title>
<path fill="none" stroke="black" d="M153.938,-386.647C147.111,-373.574 137.629,-355.418 129.853,-340.527"/>
<polygon fill="black" stroke="black" points="132.766,-338.544 125.034,-331.3 126.561,-341.784 132.766,-338.544"/>
<text text-anchor="middle" x="147.5" y="-354.9" font-family="Times Roman,serif" font-size="14.00">b</text>
</g>
<!-- q4 -->
<g id="node5" class="node"><title>q4</title>
<ellipse fill="none" stroke="black" cx="90" cy="-18" rx="27" ry="18"/>
<text text-anchor="middle" x="90" y="-13.9" font-family="Times Roman,serif" font-size="14.00">q4</text>
</g>
<!-- q6&#45;&gt;q4 -->
<g id="edge4" class="edge"><title>q6&#45;&gt;q4</title>
<path fill="none" stroke="black" d="M136.084,-401.385C89.7873,-395.245 0,-375.419 0,-314 0,-314 0,-314 0,-112 0,-76.8336 33.2699,-49.6811 59.3535,-33.7973"/>
<polygon fill="black" stroke="black" points="61.322,-36.7016 68.2135,-28.6543 57.8079,-30.6476 61.322,-36.7016"/>
<text text-anchor="middle" x="4.5" y="-219.9" font-family="Times Roman,serif" font-size="14.00">a</text>
</g>
<!-- q5 -->
<g id="node6" class="node"><title>q5</title>
<ellipse fill="none" stroke="black" cx="177" cy="-224" rx="27" ry="18"/>
<text text-anchor="middle" x="177" y="-219.9" font-family="Times Roman,serif" font-size="14.00">q5</text>
</g>
<!-- q2&#45;&gt;q5 -->
<g id="edge16" class="edge"><title>q2&#45;&gt;q5</title>
<path fill="none" stroke="black" d="M127.188,-297.493C136.331,-284.003 149.408,-264.71 159.869,-249.276"/>
<polygon fill="black" stroke="black" points="162.963,-250.949 165.676,-240.708 157.168,-247.022 162.963,-250.949"/>
<text text-anchor="middle" x="155.5" y="-264.9" font-family="Times Roman,serif" font-size="14.00">a</text>
</g>
<!-- q7 -->
<g id="node10" class="node"><title>q7</title>
<ellipse fill="none" stroke="black" cx="42" cy="-170" rx="27" ry="18"/>
<text text-anchor="middle" x="42" y="-165.9" font-family="Times Roman,serif" font-size="14.00">q7</text>
</g>
<!-- q2&#45;&gt;q7 -->
<g id="edge14" class="edge"><title>q2&#45;&gt;q7</title>
<path fill="none" stroke="black" d="M106.284,-296.87C102.966,-290.926 99.2689,-284.197 96,-278 81.4318,-250.381 65.5345,-218.338 54.7871,-196.37"/>
<polygon fill="black" stroke="black" points="57.9054,-194.779 50.3751,-187.326 51.6142,-197.848 57.9054,-194.779"/>
<text text-anchor="middle" x="100.5" y="-264.9" font-family="Times Roman,serif" font-size="14.00">b</text>
</g>
<!-- q4&#45;&gt;q2 -->
<g id="edge18" class="edge"><title>q4&#45;&gt;q2</title>
<path fill="none" stroke="black" d="M91.5995,-36.2102C95.9839,-86.1246 108.218,-225.402 113.509,-285.641"/>
<polygon fill="black" stroke="black" points="110.051,-286.274 114.413,-295.929 117.024,-285.662 110.051,-286.274"/>
<text text-anchor="middle" x="109.5" y="-165.9" font-family="Times Roman,serif" font-size="14.00">b</text>
</g>
<!-- q4&#45;&gt;q4 -->
<g id="edge20" class="edge"><title>q4&#45;&gt;q4</title>
<path fill="none" stroke="black" d="M114.532,-26.1211C125.508,-26.8945 135,-24.1875 135,-18 135,-13.8428 130.715,-11.2567 124.574,-10.2417"/>
<polygon fill="black" stroke="black" points="124.652,-6.74237 114.532,-9.87891 124.4,-13.7378 124.652,-6.74237"/>
<text text-anchor="middle" x="139.5" y="-13.9" font-family="Times Roman,serif" font-size="14.00">a</text>
</g>
<!-- q5&#45;&gt;q6 -->
<g id="edge8" class="edge"><title>q5&#45;&gt;q6</title>
<path fill="none" stroke="black" d="M175.598,-242.031C173.161,-273.357 168.129,-338.061 165.216,-375.514"/>
<polygon fill="black" stroke="black" points="161.706,-375.509 164.419,-385.75 168.684,-376.052 161.706,-375.509"/>
<text text-anchor="middle" x="175.5" y="-309.9" font-family="Times Roman,serif" font-size="14.00">a</text>
</g>
<!-- q3 -->
<g id="node8" class="node"><title>q3</title>
<ellipse fill="none" stroke="black" cx="180" cy="-112" rx="27" ry="18"/>
<ellipse fill="none" stroke="black" cx="180" cy="-112" rx="31" ry="22"/>
<text text-anchor="middle" x="180" y="-107.9" font-family="Times Roman,serif" font-size="14.00">q3</text>
</g>
<!-- q5&#45;&gt;q3 -->
<g id="edge6" class="edge"><title>q5&#45;&gt;q3</title>
<path fill="none" stroke="black" d="M177.495,-205.505C177.938,-188.968 178.598,-164.356 179.129,-144.532"/>
<polygon fill="black" stroke="black" points="182.631,-144.473 179.4,-134.383 175.634,-144.286 182.631,-144.473"/>
<text text-anchor="middle" x="182.5" y="-165.9" font-family="Times Roman,serif" font-size="14.00">b</text>
</g>
<!-- q3&#45;&gt;q4 -->
<g id="edge22" class="edge"><title>q3&#45;&gt;q4</title>
<path fill="none" stroke="black" d="M164.372,-92.6554C154.794,-81.1144 142.09,-66.3507 130,-54 125.082,-48.9759 119.599,-43.7949 114.308,-38.9833"/>
<polygon fill="black" stroke="black" points="116.572,-36.3119 106.782,-32.2594 111.908,-41.5321 116.572,-36.3119"/>
<text text-anchor="middle" x="149.5" y="-58.9" font-family="Times Roman,serif" font-size="14.00">b</text>
</g>
<!-- q0 -->
<g id="node19" class="node"><title>q0</title>
<ellipse fill="none" stroke="black" cx="216" cy="-18" rx="27" ry="18"/>
<text text-anchor="middle" x="216" y="-13.9" font-family="Times Roman,serif" font-size="14.00">q0</text>
</g>
<!-- q3&#45;&gt;q0 -->
<g id="edge24" class="edge"><title>q3&#45;&gt;q0</title>
<path fill="none" stroke="black" d="M188.169,-90.6699C193.36,-77.1144 200.126,-59.4494 205.686,-44.9305"/>
<polygon fill="black" stroke="black" points="209.001,-46.061 209.309,-35.4707 202.464,-43.5575 209.001,-46.061"/>
<text text-anchor="middle" x="205.5" y="-58.9" font-family="Times Roman,serif" font-size="14.00">a</text>
</g>
<!-- q7&#45;&gt;q4 -->
<g id="edge10" class="edge"><title>q7&#45;&gt;q4</title>
<path fill="none" stroke="black" d="M47.6002,-152.266C55.9099,-125.952 71.5744,-76.3478 81.361,-45.3568"/>
<polygon fill="black" stroke="black" points="84.7617,-46.2107 84.4355,-35.6209 78.0866,-44.1027 84.7617,-46.2107"/>
<text text-anchor="middle" x="72.5" y="-107.9" font-family="Times Roman,serif" font-size="14.00">b</text>
</g>
<!-- q7&#45;&gt;q7 -->
<g id="edge12" class="edge"><title>q7&#45;&gt;q7</title>
<path fill="none" stroke="black" d="M64.6909,-179.769C76.4238,-181.272 87,-178.016 87,-170 87,-164.489 82.0011,-161.228 75.0642,-160.216"/>
<polygon fill="black" stroke="black" points="74.6859,-156.717 64.6909,-160.231 74.6959,-163.717 74.6859,-156.717"/>
<text text-anchor="middle" x="91.5" y="-165.9" font-family="Times Roman,serif" font-size="14.00">a</text>
</g>
<!-- q0&#45;&gt;q6 -->
<g id="edge28" class="edge"><title>q0&#45;&gt;q6</title>
<path fill="none" stroke="black" d="M223.331,-35.6774C230.389,-54.3197 240,-84.7144 240,-112 240,-314 240,-314 240,-314 240,-344.679 213.847,-370.168 192.025,-386.095"/>
<polygon fill="black" stroke="black" points="189.851,-383.343 183.635,-391.923 193.845,-389.093 189.851,-383.343"/>
<text text-anchor="middle" x="244.5" y="-219.9" font-family="Times Roman,serif" font-size="14.00">a</text>
</g>
<!-- q0&#45;&gt;q3 -->
<g id="edge26" class="edge"><title>q0&#45;&gt;q3</title>
<path fill="none" stroke="black" d="M199.712,-32.6418C194.068,-38.6704 188.328,-46.0941 185,-54 181.655,-61.9469 179.984,-71.0385 179.243,-79.6292"/>
<polygon fill="black" stroke="black" points="175.74,-79.5906 178.75,-89.749 182.732,-79.9311 175.74,-79.5906"/>
<text text-anchor="middle" x="189.5" y="-58.9" font-family="Times Roman,serif" font-size="14.00">b</text>
</g>
</g>
</svg>
