<?xml version="1.0" encoding="UTF-8" standalone="no"?>
<!DOCTYPE svg PUBLIC "-//W3C//DTD SVG 1.1//EN"
 "http://www.w3.org/Graphics/SVG/1.1/DTD/svg11.dtd">
<!-- Generated by graphviz version 2.26.3 (20100126.1600)
 -->
<!-- Title: G Pages: 1 -->
<svg width="324pt" height="606pt"
 viewBox="0.00 0.00 324.00 606.00" xmlns="http://www.w3.org/2000/svg" xmlns:xlink="http://www.w3.org/1999/xlink">
<g id="graph1" class="graph" transform="scale(1 1) rotate(0) translate(4 602)">
<title>G</title>
<polygon fill="white" stroke="white" points="-4,5 -4,-602 321,-602 321,5 -4,5"/>
<!-- q6 -->
<g id="node1" class="node"><title>q6</title>
<ellipse fill="none" stroke="black" cx="123" cy="-487" rx="27" ry="18.3848"/>
<text text-anchor="middle" x="123" y="-483.4" font-family="Times Roman,serif" font-size="14.00">q6</text>
</g>
<!-- q4 -->
<g id="node3" class="node"><title>q4</title>
<ellipse fill="none" stroke="black" cx="123" cy="-395" rx="27" ry="18.3848"/>
<text text-anchor="middle" x="123" y="-391.4" font-family="Times Roman,serif" font-size="14.00">q4</text>
</g>
<!-- q6&#45;&gt;q4 -->
<g id="edge2" class="edge"><title>q6&#45;&gt;q4</title>
<path fill="none" stroke="black" d="M123,-468.382C123,-455.538 123,-438.216 123,-423.627"/>
<polygon fill="black" stroke="black" points="126.5,-423.59 123,-413.59 119.5,-423.59 126.5,-423.59"/>
<text text-anchor="middle" x="127.5" y="-437.4" font-family="Times Roman,serif" font-size="14.00">b</text>
</g>
<!-- q2 -->
<g id="node5" class="node"><title>q2</title>
<ellipse fill="none" stroke="black" cx="95" cy="-19" rx="27" ry="18.3848"/>
<text text-anchor="middle" x="95" y="-15.4" font-family="Times Roman,serif" font-size="14.00">q2</text>
</g>
<!-- q6&#45;&gt;q2 -->
<g id="edge4" class="edge"><title>q6&#45;&gt;q2</title>
<path fill="none" stroke="black" d="M101.11,-475.606C75.9255,-460.742 38,-432.185 38,-395 38,-395 38,-395 38,-115 38,-86.9293 56.2412,-59.896 72.0854,-41.7096"/>
<polygon fill="black" stroke="black" points="74.9632,-43.7486 79.1223,-34.0042 69.7943,-39.0281 74.9632,-43.7486"/>
<text text-anchor="middle" x="42.5" y="-253.4" font-family="Times Roman,serif" font-size="14.00">a</text>
</g>
<!-- q1 -->
<g id="node13" class="node"><title>q1</title>
<ellipse fill="none" stroke="black" cx="147" cy="-303" rx="27" ry="18.3848"/>
<text text-anchor="middle" x="147" y="-299.4" font-family="Times Roman,serif" font-size="14.00">q1</text>
</g>
<!-- q4&#45;&gt;q1 -->
<g id="edge22" class="edge"><title>q4&#45;&gt;q1</title>
<path fill="none" stroke="black" d="M127.857,-376.382C131.229,-363.454 135.786,-345.988 139.607,-331.339"/>
<polygon fill="black" stroke="black" points="143.095,-331.836 142.232,-321.276 136.321,-330.069 143.095,-331.836"/>
<text text-anchor="middle" x="141.5" y="-345.4" font-family="Times Roman,serif" font-size="14.00">b</text>
</g>
<!-- q4&#45;&gt;q1 -->
<g id="edge24" class="edge"><title>q4&#45;&gt;q1</title>
<path fill="none" stroke="black" d="M118.168,-376.719C116.132,-365.797 115.039,-351.799 119,-340 120.553,-335.375 122.938,-330.868 125.675,-326.681"/>
<polygon fill="black" stroke="black" points="128.514,-328.728 131.632,-318.603 122.88,-324.573 128.514,-328.728"/>
<text text-anchor="middle" x="123.5" y="-345.4" font-family="Times Roman,serif" font-size="14.00">a</text>
</g>
<!-- q2&#45;&gt;q6 -->
<g id="edge16" class="edge"><title>q2&#45;&gt;q6</title>
<path fill="none" stroke="black" d="M72.4863,-29.4267C44.3935,-44.1726 0,-73.9664 0,-115 0,-395 0,-395 0,-395 0,-439.119 51.3729,-464.637 87.7171,-477.171"/>
<polygon fill="black" stroke="black" points="86.9219,-480.593 97.5143,-480.366 89.0924,-473.938 86.9219,-480.593"/>
<text text-anchor="middle" x="4.5" y="-253.4" font-family="Times Roman,serif" font-size="14.00">a</text>
</g>
<!-- q2&#45;&gt;q1 -->
<g id="edge14" class="edge"><title>q2&#45;&gt;q1</title>
<path fill="none" stroke="black" d="M89.5949,-37.4344C77.9912,-80.9252 55.2103,-191.836 100,-266 104.379,-273.25 110.738,-279.637 117.372,-284.973"/>
<polygon fill="black" stroke="black" points="115.661,-288.059 125.792,-291.158 119.805,-282.417 115.661,-288.059"/>
<text text-anchor="middle" x="78.5" y="-161.4" font-family="Times Roman,serif" font-size="14.00">b</text>
</g>
<!-- q5 -->
<g id="node6" class="node"><title>q5</title>
<ellipse fill="none" stroke="black" cx="255" cy="-579" rx="27" ry="18.3848"/>
<text text-anchor="middle" x="255" y="-575.4" font-family="Times Roman,serif" font-size="14.00">q5</text>
</g>
<!-- q5&#45;&gt;q6 -->
<g id="edge6" class="edge"><title>q5&#45;&gt;q6</title>
<path fill="none" stroke="black" d="M235.806,-565.622C213.419,-550.019 176.23,-524.1 150.713,-506.315"/>
<polygon fill="black" stroke="black" points="152.422,-503.24 142.217,-500.394 148.42,-508.983 152.422,-503.24"/>
<text text-anchor="middle" x="204.5" y="-529.4" font-family="Times Roman,serif" font-size="14.00">b</text>
</g>
<!-- q5&#45;&gt;q2 -->
<g id="edge8" class="edge"><title>q5&#45;&gt;q2</title>
<path fill="none" stroke="black" d="M270.32,-563.553C285.659,-546.383 307,-517.089 307,-487 307,-487 307,-487 307,-115 307,-76.8063 191.371,-42.6663 130.903,-27.4241"/>
<polygon fill="black" stroke="black" points="131.543,-23.9771 120.995,-24.9714 129.861,-30.772 131.543,-23.9771"/>
<text text-anchor="middle" x="311.5" y="-299.4" font-family="Times Roman,serif" font-size="14.00">a</text>
</g>
<!-- q7 -->
<g id="node9" class="node"><title>q7</title>
<ellipse fill="none" stroke="black" cx="169" cy="-211" rx="27" ry="18.3848"/>
<text text-anchor="middle" x="169" y="-207.4" font-family="Times Roman,serif" font-size="14.00">q7</text>
</g>
<!-- q3 -->
<g id="node11" class="node"><title>q3</title>
<ellipse fill="none" stroke="black" cx="204" cy="-115" rx="27" ry="18.3848"/>
<ellipse fill="none" stroke="black" cx="204" cy="-115" rx="31" ry="22.3848"/>
<text text-anchor="middle" x="204" y="-111.4" font-family="Times Roman,serif" font-size="14.00">q3</text>
</g>
<!-- q7&#45;&gt;q3 -->
<g id="edge10" class="edge"><title>q7&#45;&gt;q3</title>
<path fill="none" stroke="black" d="M175.583,-192.943C180.326,-179.933 186.851,-162.037 192.452,-146.674"/>
<polygon fill="black" stroke="black" points="195.835,-147.615 195.972,-137.021 189.258,-145.217 195.835,-147.615"/>
<text text-anchor="middle" x="192.5" y="-161.4" font-family="Times Roman,serif" font-size="14.00">b</text>
</g>
<!-- q7&#45;&gt;q1 -->
<g id="edge12" class="edge"><title>q7&#45;&gt;q1</title>
<path fill="none" stroke="black" d="M165.225,-229.385C162.966,-240.097 159.966,-253.847 157,-266 156.305,-268.848 155.553,-271.812 154.784,-274.768"/>
<polygon fill="black" stroke="black" points="151.356,-274.038 152.164,-284.602 158.12,-275.84 151.356,-274.038"/>
<text text-anchor="middle" x="164.5" y="-253.4" font-family="Times Roman,serif" font-size="14.00">a</text>
</g>
<!-- q3&#45;&gt;q6 -->
<g id="edge28" class="edge"><title>q3&#45;&gt;q6</title>
<path fill="none" stroke="black" d="M222.991,-132.908C239.907,-150.876 262,-180.234 262,-211 262,-395 262,-395 262,-395 262,-444.459 200.047,-468.884 158.862,-479.657"/>
<polygon fill="black" stroke="black" points="158.018,-476.26 149.145,-482.05 159.692,-483.057 158.018,-476.26"/>
<text text-anchor="middle" x="266.5" y="-299.4" font-family="Times Roman,serif" font-size="14.00">a</text>
</g>
<!-- q3&#45;&gt;q2 -->
<g id="edge26" class="edge"><title>q3&#45;&gt;q2</title>
<path fill="none" stroke="black" d="M184.261,-97.6151C166.036,-81.5637 138.91,-57.6731 119.348,-40.4438"/>
<polygon fill="black" stroke="black" points="121.553,-37.7225 111.736,-33.7396 116.927,-42.9756 121.553,-37.7225"/>
<text text-anchor="middle" x="160.5" y="-61.4" font-family="Times Roman,serif" font-size="14.00">b</text>
</g>
<!-- q1&#45;&gt;q2 -->
<g id="edge18" class="edge"><title>q1&#45;&gt;q2</title>
<path fill="none" stroke="black" d="M143.374,-284.408C140.513,-269.662 136.444,-248.523 133,-230 120.883,-164.831 107.235,-88.223 100.05,-47.6279"/>
<polygon fill="black" stroke="black" points="103.472,-46.8795 98.2843,-37.6416 96.579,-48.0983 103.472,-46.8795"/>
<text text-anchor="middle" x="126.5" y="-161.4" font-family="Times Roman,serif" font-size="14.00">b</text>
</g>
<!-- q1&#45;&gt;q7 -->
<g id="edge20" class="edge"><title>q1&#45;&gt;q7</title>
<path fill="none" stroke="black" d="M145.079,-284.343C144.522,-273.54 144.772,-259.79 148,-248 149.015,-244.291 150.486,-240.56 152.185,-236.97"/>
<polygon fill="black" stroke="black" points="155.406,-238.371 157.06,-227.907 149.241,-235.056 155.406,-238.371"/>
<text text-anchor="middle" x="152.5" y="-253.4" font-family="Times Roman,serif" font-size="14.00">a</text>
</g>
<!-- q0 -->
<g id="node22" class="node"><title>q0</title>
<ellipse fill="none" stroke="black" cx="203" cy="-395" rx="27" ry="18.3848"/>
<text text-anchor="middle" x="203" y="-391.4" font-family="Times Roman,serif" font-size="14.00">q0</text>
</g>
<!-- q0&#45;&gt;q3 -->
<g id="edge30" class="edge"><title>q0&#45;&gt;q3</title>
<path fill="none" stroke="black" d="M203.389,-376.249C204.088,-340.44 205.441,-259.845 205,-192 204.906,-177.548 204.713,-161.571 204.522,-147.934"/>
<polygon fill="black" stroke="black" points="208.016,-147.521 204.37,-137.573 201.017,-147.624 208.016,-147.521"/>
<text text-anchor="middle" x="209.5" y="-253.4" font-family="Times Roman,serif" font-size="14.00">b</text>
</g>
<!-- q0&#45;&gt;q1 -->
<g id="edge32" class="edge"><title>q0&#45;&gt;q1</title>
<path fill="none" stroke="black" d="M192.467,-377.696C184.097,-363.946 172.262,-344.501 162.764,-328.898"/>
<polygon fill="black" stroke="black" points="165.675,-326.949 157.486,-320.227 159.696,-330.589 165.675,-326.949"/>
<text text-anchor="middle" x="184.5" y="-345.4" font-family="Times Roman,serif" font-size="14.00">a</text>
</g>
</g>
</svg>
