<?xml version="1.0" encoding="UTF-8" standalone="no"?>
<!DOCTYPE svg PUBLIC "-//W3C//DTD SVG 1.1//EN"
 "http://www.w3.org/Graphics/SVG/1.1/DTD/svg11.dtd">
<!-- Generated by graphviz version 2.26.3 (20100126.1600)
 -->
<!-- Title: G Pages: 1 -->
<svg width="189pt" height="600pt"
 viewBox="0.00 0.00 189.00 600.00" xmlns="http://www.w3.org/2000/svg" xmlns:xlink="http://www.w3.org/1999/xlink">
<g id="graph1" class="graph" transform="scale(1 1) rotate(0) translate(4 596)">
<title>G</title>
<polygon fill="white" stroke="white" points="-4,5 -4,-596 186,-596 186,5 -4,5"/>
<!-- q6 -->
<g id="node1" class="node"><title>q6</title>
<ellipse fill="none" stroke="black" cx="127" cy="-574" rx="27" ry="18"/>
<text text-anchor="middle" x="127" y="-569.9" font-family="Times Roman,serif" font-size="14.00">q6</text>
</g>
<!-- q6&#45;&gt;q6 -->
<g id="edge2" class="edge"><title>q6&#45;&gt;q6</title>
<path fill="none" stroke="black" d="M151.532,-582.121C162.508,-582.895 172,-580.188 172,-574 172,-569.843 167.715,-567.257 161.574,-566.242"/>
<polygon fill="black" stroke="black" points="161.652,-562.742 151.532,-565.879 161.4,-569.738 161.652,-562.742"/>
<text text-anchor="middle" x="176.5" y="-569.9" font-family="Times Roman,serif" font-size="14.00">b</text>
</g>
<!-- q4 -->
<g id="node4" class="node"><title>q4</title>
<ellipse fill="none" stroke="black" cx="127" cy="-484" rx="27" ry="18"/>
<text text-anchor="middle" x="127" y="-479.9" font-family="Times Roman,serif" font-size="14.00">q4</text>
</g>
<!-- q6&#45;&gt;q4 -->
<g id="edge4" class="edge"><title>q6&#45;&gt;q4</title>
<path fill="none" stroke="black" d="M127,-555.787C127,-543.344 127,-526.605 127,-512.421"/>
<polygon fill="black" stroke="black" points="130.5,-512.186 127,-502.186 123.5,-512.186 130.5,-512.186"/>
<text text-anchor="middle" x="131.5" y="-524.9" font-family="Times Roman,serif" font-size="14.00">a</text>
</g>
<!-- q2 -->
<g id="node10" class="node"><title>q2</title>
<ellipse fill="none" stroke="black" cx="45" cy="-394" rx="27" ry="18"/>
<text text-anchor="middle" x="45" y="-389.9" font-family="Times Roman,serif" font-size="14.00">q2</text>
</g>
<!-- q4&#45;&gt;q2 -->
<g id="edge18" class="edge"><title>q4&#45;&gt;q2</title>
<path fill="none" stroke="black" d="M112.717,-468.323C99.7826,-454.127 80.5656,-433.035 65.9038,-416.943"/>
<polygon fill="black" stroke="black" points="68.4418,-414.532 59.1196,-409.497 63.2674,-419.246 68.4418,-414.532"/>
<text text-anchor="middle" x="97.5" y="-434.9" font-family="Times Roman,serif" font-size="14.00">b</text>
</g>
<!-- q0 -->
<g id="node17" class="node"><title>q0</title>
<ellipse fill="none" stroke="black" cx="90" cy="-22" rx="27" ry="18"/>
<ellipse fill="none" stroke="black" cx="90" cy="-22" rx="31" ry="22"/>
<text text-anchor="middle" x="90" y="-17.9" font-family="Times Roman,serif" font-size="14.00">q0</text>
</g>
<!-- q4&#45;&gt;q0 -->
<g id="edge20" class="edge"><title>q4&#45;&gt;q0</title>
<path fill="none" stroke="black" d="M127,-465.728C127,-447.545 127,-418.844 127,-394 127,-394 127,-394 127,-116 127,-93.0003 117.291,-68.8973 107.819,-50.8569"/>
<polygon fill="black" stroke="black" points="110.836,-49.079 102.941,-42.0135 104.707,-52.4602 110.836,-49.079"/>
<text text-anchor="middle" x="131.5" y="-254.9" font-family="Times Roman,serif" font-size="14.00">a</text>
</g>
<!-- q5 -->
<g id="node5" class="node"><title>q5</title>
<ellipse fill="none" stroke="black" cx="44" cy="-304" rx="27" ry="18"/>
<text text-anchor="middle" x="44" y="-299.9" font-family="Times Roman,serif" font-size="14.00">q5</text>
</g>
<!-- q1 -->
<g id="node7" class="node"><title>q1</title>
<ellipse fill="none" stroke="black" cx="68" cy="-210" rx="27" ry="18"/>
<ellipse fill="none" stroke="black" cx="68" cy="-210" rx="31" ry="22"/>
<text text-anchor="middle" x="68" y="-205.9" font-family="Times Roman,serif" font-size="14.00">q1</text>
</g>
<!-- q5&#45;&gt;q1 -->
<g id="edge6" class="edge"><title>q5&#45;&gt;q1</title>
<path fill="none" stroke="black" d="M42.0975,-285.675C41.5466,-275.067 41.7966,-261.567 45,-250 46.0222,-246.309 47.4649,-242.601 49.1354,-239.012"/>
<polygon fill="black" stroke="black" points="52.3828,-240.358 53.9566,-229.88 46.1925,-237.089 52.3828,-240.358"/>
<text text-anchor="middle" x="49.5" y="-254.9" font-family="Times Roman,serif" font-size="14.00">b</text>
</g>
<!-- q3 -->
<g id="node9" class="node"><title>q3</title>
<ellipse fill="none" stroke="black" cx="27" cy="-116" rx="27" ry="18"/>
<text text-anchor="middle" x="27" y="-111.9" font-family="Times Roman,serif" font-size="14.00">q3</text>
</g>
<!-- q5&#45;&gt;q3 -->
<g id="edge8" class="edge"><title>q5&#45;&gt;q3</title>
<path fill="none" stroke="black" d="M36.145,-286.68C30.104,-272.358 22.2572,-251.311 19,-232 13.9921,-202.31 17.5356,-167.838 21.3657,-144.236"/>
<polygon fill="black" stroke="black" points="24.8435,-144.666 23.116,-134.213 17.9479,-143.462 24.8435,-144.666"/>
<text text-anchor="middle" x="23.5" y="-205.9" font-family="Times Roman,serif" font-size="14.00">a</text>
</g>
<!-- q1&#45;&gt;q5 -->
<g id="edge14" class="edge"><title>q1&#45;&gt;q5</title>
<path fill="none" stroke="black" d="M62.9231,-231.802C60.339,-242.697 57.0962,-256.068 54,-268 53.306,-270.674 52.5661,-273.455 51.8148,-276.233"/>
<polygon fill="black" stroke="black" points="48.382,-275.517 49.1054,-286.087 55.1315,-277.373 48.382,-275.517"/>
<text text-anchor="middle" x="62.5" y="-254.9" font-family="Times Roman,serif" font-size="14.00">b</text>
</g>
<!-- q1&#45;&gt;q3 -->
<g id="edge16" class="edge"><title>q1&#45;&gt;q3</title>
<path fill="none" stroke="black" d="M58.6965,-188.67C52.784,-175.114 45.079,-157.449 38.7463,-142.93"/>
<polygon fill="black" stroke="black" points="41.8263,-141.237 34.6202,-133.471 35.4101,-144.036 41.8263,-141.237"/>
<text text-anchor="middle" x="53.5" y="-156.9" font-family="Times Roman,serif" font-size="14.00">a</text>
</g>
<!-- q3&#45;&gt;q0 -->
<g id="edge22" class="edge"><title>q3&#45;&gt;q0</title>
<path fill="none" stroke="black" d="M38.2631,-99.1947C47.3414,-85.6494 60.3084,-66.3017 70.9894,-50.365"/>
<polygon fill="black" stroke="black" points="73.9889,-52.1761 76.649,-41.9206 68.1741,-48.2789 73.9889,-52.1761"/>
<text text-anchor="middle" x="66.5" y="-66.9" font-family="Times Roman,serif" font-size="14.00">b</text>
</g>
<!-- q3&#45;&gt;q0 -->
<g id="edge24" class="edge"><title>q3&#45;&gt;q0</title>
<path fill="none" stroke="black" d="M27.9627,-97.8147C29.2635,-86.7476 32.2428,-72.7258 39,-62 43.7422,-54.4726 50.4197,-47.7795 57.3847,-42.1233"/>
<polygon fill="black" stroke="black" points="59.6905,-44.7692 65.5945,-35.9718 55.493,-39.1672 59.6905,-44.7692"/>
<text text-anchor="middle" x="43.5" y="-66.9" font-family="Times Roman,serif" font-size="14.00">a</text>
</g>
<!-- q2&#45;&gt;q5 -->
<g id="edge12" class="edge"><title>q2&#45;&gt;q5</title>
<path fill="none" stroke="black" d="M44.7976,-375.787C44.6594,-363.344 44.4734,-346.605 44.3158,-332.421"/>
<polygon fill="black" stroke="black" points="47.813,-332.146 44.2021,-322.186 40.8135,-332.224 47.813,-332.146"/>
<text text-anchor="middle" x="48.5" y="-344.9" font-family="Times Roman,serif" font-size="14.00">a</text>
</g>
<!-- q2&#45;&gt;q2 -->
<g id="edge10" class="edge"><title>q2&#45;&gt;q2</title>
<path fill="none" stroke="black" d="M69.5325,-402.121C80.5078,-402.895 90,-400.188 90,-394 90,-389.843 85.7151,-387.257 79.5743,-386.242"/>
<polygon fill="black" stroke="black" points="79.6524,-382.742 69.5325,-385.879 79.3995,-389.738 79.6524,-382.742"/>
<text text-anchor="middle" x="94.5" y="-389.9" font-family="Times Roman,serif" font-size="14.00">b</text>
</g>
<!-- q0&#45;&gt;q4 -->
<g id="edge28" class="edge"><title>q0&#45;&gt;q4</title>
<path fill="none" stroke="black" d="M112.91,-37.0338C134.966,-53.5199 165,-82.1786 165,-116 165,-394 165,-394 165,-394 165,-417.183 154.167,-441.267 144.069,-458.681"/>
<polygon fill="black" stroke="black" points="140.834,-457.263 138.608,-467.622 146.807,-460.912 140.834,-457.263"/>
<text text-anchor="middle" x="169.5" y="-254.9" font-family="Times Roman,serif" font-size="14.00">a</text>
</g>
<!-- q0&#45;&gt;q1 -->
<g id="edge26" class="edge"><title>q0&#45;&gt;q1</title>
<path fill="none" stroke="black" d="M87.4156,-44.0848C83.5406,-77.1989 76.2046,-139.888 71.7435,-178.01"/>
<polygon fill="black" stroke="black" points="68.2528,-177.727 70.5667,-188.066 75.2054,-178.541 68.2528,-177.727"/>
<text text-anchor="middle" x="84.5" y="-111.9" font-family="Times Roman,serif" font-size="14.00">b</text>
</g>
</g>
</svg>
