<?xml version="1.0" encoding="UTF-8" standalone="no"?>
<!DOCTYPE svg PUBLIC "-//W3C//DTD SVG 1.1//EN"
 "http://www.w3.org/Graphics/SVG/1.1/DTD/svg11.dtd">
<!-- Generated by graphviz version 2.26.3 (20100126.1600)
 -->
<!-- Title: G Pages: 1 -->
<svg width="253pt" height="414pt"
 viewBox="0.00 0.00 253.00 414.00" xmlns="http://www.w3.org/2000/svg" xmlns:xlink="http://www.w3.org/1999/xlink">
<g id="graph1" class="graph" transform="scale(1 1) rotate(0) translate(4 410)">
<title>G</title>
<polygon fill="white" stroke="white" points="-4,5 -4,-410 250,-410 250,5 -4,5"/>
<!-- q6 -->
<g id="node1" class="node"><title>q6</title>
<ellipse fill="none" stroke="black" cx="126" cy="-387" rx="27" ry="18.3848"/>
<text text-anchor="middle" x="126" y="-383.4" font-family="Times Roman,serif" font-size="14.00">q6</text>
</g>
<!-- q1 -->
<g id="node3" class="node"><title>q1</title>
<ellipse fill="none" stroke="black" cx="54" cy="-295" rx="27" ry="18.3848"/>
<text text-anchor="middle" x="54" y="-291.4" font-family="Times Roman,serif" font-size="14.00">q1</text>
</g>
<!-- q6&#45;&gt;q1 -->
<g id="edge2" class="edge"><title>q6&#45;&gt;q1</title>
<path fill="none" stroke="black" d="M111.68,-371.04C106.045,-364.606 99.5969,-357.051 94,-350 86.4691,-340.513 78.5501,-329.796 71.7636,-320.359"/>
<polygon fill="black" stroke="black" points="74.548,-318.236 65.893,-312.125 68.8481,-322.299 74.548,-318.236"/>
<text text-anchor="middle" x="98.5" y="-337.4" font-family="Times Roman,serif" font-size="14.00">b</text>
</g>
<!-- q2 -->
<g id="node5" class="node"><title>q2</title>
<ellipse fill="none" stroke="black" cx="117" cy="-203" rx="27" ry="18.3848"/>
<text text-anchor="middle" x="117" y="-199.4" font-family="Times Roman,serif" font-size="14.00">q2</text>
</g>
<!-- q6&#45;&gt;q2 -->
<g id="edge4" class="edge"><title>q6&#45;&gt;q2</title>
<path fill="none" stroke="black" d="M125.088,-368.345C123.517,-336.247 120.294,-270.349 118.426,-232.148"/>
<polygon fill="black" stroke="black" points="121.899,-231.522 117.915,-221.705 114.908,-231.864 121.899,-231.522"/>
<text text-anchor="middle" x="126.5" y="-291.4" font-family="Times Roman,serif" font-size="14.00">a</text>
</g>
<!-- q1&#45;&gt;q2 -->
<g id="edge16" class="edge"><title>q1&#45;&gt;q2</title>
<path fill="none" stroke="black" d="M65.5552,-278.126C75.1463,-264.12 88.9281,-243.994 99.8136,-228.098"/>
<polygon fill="black" stroke="black" points="102.756,-229.996 105.518,-219.767 96.9802,-226.041 102.756,-229.996"/>
<text text-anchor="middle" x="95.5" y="-245.4" font-family="Times Roman,serif" font-size="14.00">a</text>
</g>
<!-- q5 -->
<g id="node6" class="node"><title>q5</title>
<ellipse fill="none" stroke="black" cx="87" cy="-111" rx="27" ry="18.3848"/>
<text text-anchor="middle" x="87" y="-107.4" font-family="Times Roman,serif" font-size="14.00">q5</text>
</g>
<!-- q1&#45;&gt;q5 -->
<g id="edge14" class="edge"><title>q1&#45;&gt;q5</title>
<path fill="none" stroke="black" d="M56.7579,-276.497C60.103,-254.43 66.0377,-216.45 72,-184 74.6936,-169.34 78.0006,-153.091 80.8234,-139.652"/>
<polygon fill="black" stroke="black" points="84.3126,-140.069 82.9624,-129.561 77.4648,-138.618 84.3126,-140.069"/>
<text text-anchor="middle" x="76.5" y="-199.4" font-family="Times Roman,serif" font-size="14.00">b</text>
</g>
<!-- q2&#45;&gt;q6 -->
<g id="edge10" class="edge"><title>q2&#45;&gt;q6</title>
<path fill="none" stroke="black" d="M126.129,-220.63C128.82,-226.623 131.456,-233.461 133,-240 144.24,-287.613 144.044,-301.589 137,-350 136.575,-352.922 135.97,-355.934 135.26,-358.919"/>
<polygon fill="black" stroke="black" points="131.823,-358.221 132.55,-368.791 138.573,-360.075 131.823,-358.221"/>
<text text-anchor="middle" x="145.5" y="-291.4" font-family="Times Roman,serif" font-size="14.00">b</text>
</g>
<!-- q2&#45;&gt;q5 -->
<g id="edge12" class="edge"><title>q2&#45;&gt;q5</title>
<path fill="none" stroke="black" d="M111.073,-184.824C106.8,-171.719 100.953,-153.789 96.0914,-138.88"/>
<polygon fill="black" stroke="black" points="99.3426,-137.561 92.9147,-129.138 92.6874,-139.731 99.3426,-137.561"/>
<text text-anchor="middle" x="108.5" y="-153.4" font-family="Times Roman,serif" font-size="14.00">a</text>
</g>
<!-- q5&#45;&gt;q5 -->
<g id="edge8" class="edge"><title>q5&#45;&gt;q5</title>
<path fill="none" stroke="black" d="M111.074,-119.454C122.242,-120.377 132,-117.559 132,-111 132,-106.593 127.595,-103.875 121.317,-102.846"/>
<polygon fill="black" stroke="black" points="121.173,-99.3402 111.074,-102.546 120.967,-106.337 121.173,-99.3402"/>
<text text-anchor="middle" x="136.5" y="-107.4" font-family="Times Roman,serif" font-size="14.00">a</text>
</g>
<!-- q3 -->
<g id="node8" class="node"><title>q3</title>
<ellipse fill="none" stroke="black" cx="87" cy="-19" rx="27" ry="18.3848"/>
<text text-anchor="middle" x="87" y="-15.4" font-family="Times Roman,serif" font-size="14.00">q3</text>
</g>
<!-- q5&#45;&gt;q3 -->
<g id="edge6" class="edge"><title>q5&#45;&gt;q3</title>
<path fill="none" stroke="black" d="M87,-92.3824C87,-79.5383 87,-62.2161 87,-47.6269"/>
<polygon fill="black" stroke="black" points="90.5001,-47.5898 87,-37.5899 83.5001,-47.5899 90.5001,-47.5898"/>
<text text-anchor="middle" x="91.5" y="-61.4" font-family="Times Roman,serif" font-size="14.00">b</text>
</g>
<!-- q3&#45;&gt;q1 -->
<g id="edge24" class="edge"><title>q3&#45;&gt;q1</title>
<path fill="none" stroke="black" d="M75.7201,-36.14C67.0392,-50.4163 55.7491,-71.6326 51,-92 36.8133,-152.843 43.7099,-226.749 49.2955,-266.461"/>
<polygon fill="black" stroke="black" points="45.8529,-267.107 50.7815,-276.486 52.7772,-266.081 45.8529,-267.107"/>
<text text-anchor="middle" x="47.5" y="-153.4" font-family="Times Roman,serif" font-size="14.00">a</text>
</g>
<!-- q3&#45;&gt;q3 -->
<g id="edge22" class="edge"><title>q3&#45;&gt;q3</title>
<path fill="none" stroke="black" d="M111.074,-27.4544C122.242,-28.3767 132,-25.5586 132,-19 132,-14.5934 127.595,-11.8754 121.317,-10.8458"/>
<polygon fill="black" stroke="black" points="121.173,-7.34018 111.074,-10.5456 120.967,-14.3372 121.173,-7.34018"/>
<text text-anchor="middle" x="136.5" y="-15.4" font-family="Times Roman,serif" font-size="14.00">b</text>
</g>
<!-- q4 -->
<g id="node14" class="node"><title>q4</title>
<ellipse fill="none" stroke="black" cx="218" cy="-295" rx="27" ry="18.3848"/>
<text text-anchor="middle" x="218" y="-291.4" font-family="Times Roman,serif" font-size="14.00">q4</text>
</g>
<!-- q4&#45;&gt;q2 -->
<g id="edge18" class="edge"><title>q4&#45;&gt;q2</title>
<path fill="none" stroke="black" d="M206.186,-277.989C197.725,-266.501 185.636,-251.41 173,-240 165.022,-232.796 155.522,-225.979 146.633,-220.206"/>
<polygon fill="black" stroke="black" points="148.357,-217.156 138.026,-214.805 144.636,-223.085 148.357,-217.156"/>
<text text-anchor="middle" x="193.5" y="-245.4" font-family="Times Roman,serif" font-size="14.00">b</text>
</g>
<!-- q4&#45;&gt;q3 -->
<g id="edge20" class="edge"><title>q4&#45;&gt;q3</title>
<path fill="none" stroke="black" d="M214.444,-276.598C206.765,-239.673 186.323,-154.718 150,-92 139.27,-73.4719 123.536,-55.2361 110.477,-41.6253"/>
<polygon fill="black" stroke="black" points="112.662,-38.8553 103.155,-34.1786 107.67,-43.7631 112.662,-38.8553"/>
<text text-anchor="middle" x="187.5" y="-153.4" font-family="Times Roman,serif" font-size="14.00">a</text>
</g>
<!-- q0 -->
<g id="node19" class="node"><title>q0</title>
<ellipse fill="none" stroke="black" cx="27" cy="-387" rx="27" ry="18.3848"/>
<text text-anchor="middle" x="27" y="-383.4" font-family="Times Roman,serif" font-size="14.00">q0</text>
</g>
<!-- q0&#45;&gt;q1 -->
<g id="edge26" class="edge"><title>q0&#45;&gt;q1</title>
<path fill="none" stroke="black" d="M32.3343,-368.824C36.1803,-355.719 41.4425,-337.789 45.8177,-322.88"/>
<polygon fill="black" stroke="black" points="49.219,-323.719 48.6768,-313.138 42.5023,-321.748 49.219,-323.719"/>
<text text-anchor="middle" x="46.5" y="-337.4" font-family="Times Roman,serif" font-size="14.00">b</text>
</g>
<!-- q0&#45;&gt;q0 -->
<g id="edge28" class="edge"><title>q0&#45;&gt;q0</title>
<path fill="none" stroke="black" d="M51.0743,-395.454C62.2423,-396.377 72,-393.559 72,-387 72,-382.593 67.5952,-379.875 61.3174,-378.846"/>
<polygon fill="black" stroke="black" points="61.1726,-375.34 51.0743,-378.546 60.9674,-382.337 61.1726,-375.34"/>
<text text-anchor="middle" x="76.5" y="-383.4" font-family="Times Roman,serif" font-size="14.00">a</text>
</g>
</g>
</svg>
