<?xml version="1.0" encoding="UTF-8" standalone="no"?>
<!DOCTYPE svg PUBLIC "-//W3C//DTD SVG 1.1//EN"
 "http://www.w3.org/Graphics/SVG/1.1/DTD/svg11.dtd">
<!-- Generated by graphviz version 2.26.3 (20100126.1600)
 -->
<!-- Title: G Pages: 1 -->
<svg width="321pt" height="698pt"
 viewBox="0.00 0.00 321.00 698.39" xmlns="http://www.w3.org/2000/svg" xmlns:xlink="http://www.w3.org/1999/xlink">
<g id="graph1" class="graph" transform="scale(1 1) rotate(0) translate(4 694.394)">
<title>G</title>
<polygon fill="white" stroke="white" points="-4,5 -4,-694.394 318,-694.394 318,5 -4,5"/>
<!-- q0 -->
<g id="node1" class="node"><title>q0</title>
<ellipse fill="none" stroke="black" cx="195" cy="-579.394" rx="27" ry="18.3848"/>
<text text-anchor="middle" x="195" y="-575.794" font-family="Times Roman,serif" font-size="14.00">q0</text>
</g>
<!-- q0&#45;&gt;q0 -->
<g id="edge4" class="edge"><title>q0&#45;&gt;q0</title>
<path fill="none" stroke="black" d="M219.074,-587.849C230.242,-588.771 240,-585.953 240,-579.394 240,-574.988 235.595,-572.27 229.317,-571.24"/>
<polygon fill="black" stroke="black" points="229.173,-567.735 219.074,-570.94 228.967,-574.732 229.173,-567.735"/>
<text text-anchor="middle" x="244.5" y="-575.794" font-family="Times Roman,serif" font-size="14.00">a</text>
</g>
<!-- q3 -->
<g id="node3" class="node"><title>q3</title>
<ellipse fill="none" stroke="black" cx="114" cy="-487.394" rx="27" ry="18.3848"/>
<text text-anchor="middle" x="114" y="-483.794" font-family="Times Roman,serif" font-size="14.00">q3</text>
</g>
<!-- q0&#45;&gt;q3 -->
<g id="edge2" class="edge"><title>q0&#45;&gt;q3</title>
<path fill="none" stroke="black" d="M180.891,-563.369C168.115,-548.858 149.132,-527.297 134.649,-510.848"/>
<polygon fill="black" stroke="black" points="137.183,-508.429 127.947,-503.236 131.929,-513.054 137.183,-508.429"/>
<text text-anchor="middle" x="165.5" y="-529.794" font-family="Times Roman,serif" font-size="14.00">b</text>
</g>
<!-- q2 -->
<g id="node5" class="node"><title>q2</title>
<ellipse fill="none" stroke="black" cx="175" cy="-395.394" rx="27" ry="18.3848"/>
<text text-anchor="middle" x="175" y="-391.794" font-family="Times Roman,serif" font-size="14.00">q2</text>
</g>
<!-- q3&#45;&gt;q2 -->
<g id="edge12" class="edge"><title>q3&#45;&gt;q2</title>
<path fill="none" stroke="black" d="M125.188,-470.52C134.331,-456.731 147.408,-437.009 157.869,-421.232"/>
<polygon fill="black" stroke="black" points="161.067,-422.742 163.676,-412.473 155.233,-418.874 161.067,-422.742"/>
<text text-anchor="middle" x="153.5" y="-437.794" font-family="Times Roman,serif" font-size="14.00">a</text>
</g>
<!-- q10 -->
<g id="node11" class="node"><title>q10</title>
<ellipse fill="none" stroke="black" cx="114" cy="-19.3944" rx="29.9071" ry="18.3848"/>
<text text-anchor="middle" x="114" y="-15.7944" font-family="Times Roman,serif" font-size="14.00">q10</text>
</g>
<!-- q3&#45;&gt;q10 -->
<g id="edge10" class="edge"><title>q3&#45;&gt;q10</title>
<path fill="none" stroke="black" d="M87.7856,-482.223C68.0543,-477.124 41.5058,-467.529 24,-450.394 4.94042,-431.739 0,-422.065 0,-395.394 0,-395.394 0,-395.394 0,-111.394 0,-84.7241 4.94042,-75.0503 24,-56.3944 38.0282,-42.6634 57.8632,-33.7745 75.3438,-28.161"/>
<polygon fill="black" stroke="black" points="76.7017,-31.4096 85.3023,-25.2225 74.7206,-24.6958 76.7017,-31.4096"/>
<text text-anchor="middle" x="4.5" y="-245.794" font-family="Times Roman,serif" font-size="14.00">b</text>
</g>
<!-- q4 -->
<g id="node7" class="node"><title>q4</title>
<ellipse fill="none" stroke="black" cx="173" cy="-299.394" rx="27" ry="18.3848"/>
<ellipse fill="none" stroke="black" cx="173" cy="-299.394" rx="31" ry="22.3848"/>
<text text-anchor="middle" x="173" y="-295.794" font-family="Times Roman,serif" font-size="14.00">q4</text>
</g>
<!-- q2&#45;&gt;q4 -->
<g id="edge6" class="edge"><title>q2&#45;&gt;q4</title>
<path fill="none" stroke="black" d="M162.1,-379.023C158.04,-372.904 154.076,-365.667 152,-358.394 149.231,-348.695 151.227,-338.277 154.898,-328.935"/>
<polygon fill="black" stroke="black" points="158.165,-330.209 159.2,-319.665 151.816,-327.262 158.165,-330.209"/>
<text text-anchor="middle" x="156.5" y="-345.794" font-family="Times Roman,serif" font-size="14.00">b</text>
</g>
<!-- q9 -->
<g id="node9" class="node"><title>q9</title>
<ellipse fill="none" stroke="black" cx="249" cy="-299.394" rx="27" ry="18.3848"/>
<text text-anchor="middle" x="249" y="-295.794" font-family="Times Roman,serif" font-size="14.00">q9</text>
</g>
<!-- q2&#45;&gt;q9 -->
<g id="edge8" class="edge"><title>q2&#45;&gt;q9</title>
<path fill="none" stroke="black" d="M187.89,-378.673C199.562,-363.53 216.904,-341.032 230.136,-323.867"/>
<polygon fill="black" stroke="black" points="232.925,-325.982 236.258,-315.925 227.381,-321.708 232.925,-325.982"/>
<text text-anchor="middle" x="220.5" y="-345.794" font-family="Times Roman,serif" font-size="14.00">a</text>
</g>
<!-- q4&#45;&gt;q2 -->
<g id="edge16" class="edge"><title>q4&#45;&gt;q2</title>
<path fill="none" stroke="black" d="M173.469,-321.902C173.747,-335.237 174.102,-352.269 174.4,-366.579"/>
<polygon fill="black" stroke="black" points="170.907,-366.96 174.614,-376.885 177.905,-366.814 170.907,-366.96"/>
<text text-anchor="middle" x="178.5" y="-345.794" font-family="Times Roman,serif" font-size="14.00">a</text>
</g>
<!-- q8 -->
<g id="node14" class="node"><title>q8</title>
<ellipse fill="none" stroke="black" cx="183" cy="-203.394" rx="27" ry="18.3848"/>
<text text-anchor="middle" x="183" y="-199.794" font-family="Times Roman,serif" font-size="14.00">q8</text>
</g>
<!-- q4&#45;&gt;q8 -->
<g id="edge14" class="edge"><title>q4&#45;&gt;q8</title>
<path fill="none" stroke="black" d="M175.37,-276.644C176.751,-263.389 178.505,-246.542 179.984,-232.348"/>
<polygon fill="black" stroke="black" points="183.495,-232.423 181.05,-222.114 176.533,-231.698 183.495,-232.423"/>
<text text-anchor="middle" x="182.5" y="-245.794" font-family="Times Roman,serif" font-size="14.00">b</text>
</g>
<!-- q9&#45;&gt;q3 -->
<g id="edge30" class="edge"><title>q9&#45;&gt;q3</title>
<path fill="none" stroke="black" d="M246.367,-318.083C242.219,-342.224 232.33,-384.668 211,-414.394 193.69,-438.518 166.058,-458.198 144.705,-471.019"/>
<polygon fill="black" stroke="black" points="142.873,-468.035 135.987,-476.087 146.391,-474.087 142.873,-468.035"/>
<text text-anchor="middle" x="234.5" y="-391.794" font-family="Times Roman,serif" font-size="14.00">b</text>
</g>
<!-- q5 -->
<g id="node16" class="node"><title>q5</title>
<ellipse fill="none" stroke="black" cx="220" cy="-111.394" rx="27" ry="18.3848"/>
<text text-anchor="middle" x="220" y="-107.794" font-family="Times Roman,serif" font-size="14.00">q5</text>
</g>
<!-- q9&#45;&gt;q5 -->
<g id="edge32" class="edge"><title>q9&#45;&gt;q5</title>
<path fill="none" stroke="black" d="M246.113,-280.681C241.032,-247.742 230.461,-179.209 224.443,-140.198"/>
<polygon fill="black" stroke="black" points="227.859,-139.382 222.875,-130.032 220.94,-140.449 227.859,-139.382"/>
<text text-anchor="middle" x="240.5" y="-199.794" font-family="Times Roman,serif" font-size="14.00">a</text>
</g>
<!-- q10&#45;&gt;q3 -->
<g id="edge34" class="edge"><title>q10&#45;&gt;q3</title>
<path fill="none" stroke="black" d="M91.3615,-31.7003C81.34,-38.0309 70.0309,-46.5021 62,-56.3944 45.1902,-77.1005 38,-84.7241 38,-111.394 38,-395.394 38,-395.394 38,-395.394 38,-422.065 45.1902,-429.688 62,-450.394 68.1541,-457.975 76.2333,-464.721 84.1829,-470.309"/>
<polygon fill="black" stroke="black" points="82.3864,-473.317 92.6609,-475.902 86.2413,-467.474 82.3864,-473.317"/>
<text text-anchor="middle" x="42.5" y="-245.794" font-family="Times Roman,serif" font-size="14.00">b</text>
</g>
<!-- q10&#45;&gt;q3 -->
<g id="edge38" class="edge"><title>q10&#45;&gt;q3</title>
<path fill="none" stroke="black" d="M102.185,-36.5051C91.0299,-54.3568 76,-83.5719 76,-111.394 76,-395.394 76,-395.394 76,-395.394 76,-419.234 87.0349,-444.096 97.2117,-461.956"/>
<polygon fill="black" stroke="black" points="94.2545,-463.831 102.392,-470.615 100.261,-460.237 94.2545,-463.831"/>
<text text-anchor="middle" x="80.5" y="-245.794" font-family="Times Roman,serif" font-size="14.00">b</text>
</g>
<!-- q10&#45;&gt;q3 -->
<g id="edge42" class="edge"><title>q10&#45;&gt;q3</title>
<path fill="none" stroke="black" d="M114,-38.072C114,-56.6595 114,-85.9986 114,-111.394 114,-395.394 114,-395.394 114,-395.394 114,-416.525 114,-440.385 114,-458.51"/>
<polygon fill="black" stroke="black" points="110.5,-458.717 114,-468.717 117.5,-458.717 110.5,-458.717"/>
<text text-anchor="middle" x="118.5" y="-245.794" font-family="Times Roman,serif" font-size="14.00">b</text>
</g>
<!-- q10&#45;&gt;q10 -->
<g id="edge36" class="edge"><title>q10&#45;&gt;q10</title>
<path fill="none" stroke="black" d="M144,-22.2694C154,-22.2694 162,-21.3111 162,-19.3944 162,-18.1965 158.875,-17.373 154.09,-16.9237"/>
<polygon fill="black" stroke="black" points="154.132,-13.4227 144,-16.5194 153.852,-20.4171 154.132,-13.4227"/>
<text text-anchor="middle" x="166.5" y="-15.7944" font-family="Times Roman,serif" font-size="14.00">a</text>
</g>
<!-- q10&#45;&gt;q10 -->
<g id="edge40" class="edge"><title>q10&#45;&gt;q10</title>
<path fill="none" stroke="black" d="M135.632,-32.4073C156.773,-39.5953 180,-35.2577 180,-19.3944 180,-6.0098 163.464,-0.830441 145.598,-3.85636"/>
<polygon fill="black" stroke="black" points="144.466,-0.532491 135.632,-6.3816 146.186,-7.31805 144.466,-0.532491"/>
<text text-anchor="middle" x="184.5" y="-15.7944" font-family="Times Roman,serif" font-size="14.00">a</text>
</g>
<!-- q10&#45;&gt;q10 -->
<g id="edge44" class="edge"><title>q10&#45;&gt;q10</title>
<path fill="none" stroke="black" d="M135.515,-32.5536C163.82,-43.8329 198,-39.4465 198,-19.3944 198,-1.61389 171.126,3.84921 145.302,-3.00516"/>
<polygon fill="black" stroke="black" points="143.915,0.222523 135.515,-6.23526 146.108,-6.42482 143.915,0.222523"/>
<text text-anchor="middle" x="202.5" y="-15.7944" font-family="Times Roman,serif" font-size="14.00">a</text>
</g>
<!-- q8&#45;&gt;q10 -->
<g id="edge28" class="edge"><title>q8&#45;&gt;q10</title>
<path fill="none" stroke="black" d="M176.248,-185.282C165.895,-157.527 145.464,-102.81 128,-56.3944 126.839,-53.309 125.621,-50.0797 124.409,-46.8692"/>
<polygon fill="black" stroke="black" points="127.66,-45.5715 120.849,-37.4558 121.112,-48.0474 127.66,-45.5715"/>
<text text-anchor="middle" x="159.5" y="-107.794" font-family="Times Roman,serif" font-size="14.00">a</text>
</g>
<!-- q8&#45;&gt;q5 -->
<g id="edge26" class="edge"><title>q8&#45;&gt;q5</title>
<path fill="none" stroke="black" d="M184.781,-184.741C186.296,-173.816 189.051,-159.94 194,-148.394 195.824,-144.139 198.187,-139.881 200.745,-135.847"/>
<polygon fill="black" stroke="black" points="203.729,-137.684 206.519,-127.463 197.964,-133.714 203.729,-137.684"/>
<text text-anchor="middle" x="198.5" y="-153.794" font-family="Times Roman,serif" font-size="14.00">b</text>
</g>
<!-- q5&#45;&gt;q10 -->
<g id="edge20" class="edge"><title>q5&#45;&gt;q10</title>
<path fill="none" stroke="black" d="M207.969,-94.2761C199.341,-82.7405 186.989,-67.6364 174,-56.3944 165.515,-49.0506 155.411,-42.2207 145.936,-36.4788"/>
<polygon fill="black" stroke="black" points="147.517,-33.3493 137.117,-31.3257 143.985,-39.393 147.517,-33.3493"/>
<text text-anchor="middle" x="194.5" y="-61.7944" font-family="Times Roman,serif" font-size="14.00">a</text>
</g>
<!-- q5&#45;&gt;q8 -->
<g id="edge18" class="edge"><title>q5&#45;&gt;q8</title>
<path fill="none" stroke="black" d="M215.216,-130.049C212.204,-140.85 207.954,-154.6 203,-166.394 201.528,-169.899 199.827,-173.509 198.052,-177.036"/>
<polygon fill="black" stroke="black" points="194.866,-175.573 193.284,-186.049 201.054,-178.846 194.866,-175.573"/>
<text text-anchor="middle" x="213.5" y="-153.794" font-family="Times Roman,serif" font-size="14.00">b</text>
</g>
<!-- q6 -->
<g id="node19" class="node"><title>q6</title>
<ellipse fill="none" stroke="black" cx="271" cy="-671.394" rx="27" ry="18.3848"/>
<text text-anchor="middle" x="271" y="-667.794" font-family="Times Roman,serif" font-size="14.00">q6</text>
</g>
<!-- q6&#45;&gt;q0 -->
<g id="edge22" class="edge"><title>q6&#45;&gt;q0</title>
<path fill="none" stroke="black" d="M257.413,-654.947C245.633,-640.687 228.425,-619.856 215.059,-603.677"/>
<polygon fill="black" stroke="black" points="217.537,-601.18 208.47,-595.7 212.14,-605.639 217.537,-601.18"/>
<text text-anchor="middle" x="243.5" y="-621.794" font-family="Times Roman,serif" font-size="14.00">b</text>
</g>
<!-- q6&#45;&gt;q10 -->
<g id="edge24" class="edge"><title>q6&#45;&gt;q10</title>
<path fill="none" stroke="black" d="M281.261,-654.076C290.948,-636.059 304,-606.714 304,-579.394 304,-579.394 304,-579.394 304,-111.394 304,-77.9273 207.299,-45.388 151.872,-29.4859"/>
<polygon fill="black" stroke="black" points="152.61,-26.0576 142.035,-26.7138 150.711,-32.7952 152.61,-26.0576"/>
<text text-anchor="middle" x="308.5" y="-345.794" font-family="Times Roman,serif" font-size="14.00">a</text>
</g>
</g>
</svg>
