<?xml version="1.0" encoding="UTF-8" standalone="no"?>
<!DOCTYPE svg PUBLIC "-//W3C//DTD SVG 1.1//EN"
 "http://www.w3.org/Graphics/SVG/1.1/DTD/svg11.dtd">
<!-- Generated by graphviz version 2.26.3 (20100126.1600)
 -->
<!-- Title: G Pages: 1 -->
<svg width="262pt" height="698pt"
 viewBox="0.00 0.00 262.00 698.00" xmlns="http://www.w3.org/2000/svg" xmlns:xlink="http://www.w3.org/1999/xlink">
<g id="graph1" class="graph" transform="scale(1 1) rotate(0) translate(4 694)">
<title>G</title>
<polygon fill="white" stroke="white" points="-4,5 -4,-694 259,-694 259,5 -4,5"/>
<!-- q0 -->
<g id="node1" class="node"><title>q0</title>
<ellipse fill="none" stroke="black" cx="194" cy="-671" rx="27" ry="18.3848"/>
<text text-anchor="middle" x="194" y="-667.4" font-family="Times Roman,serif" font-size="14.00">q0</text>
</g>
<!-- q0&#45;&gt;q0 -->
<g id="edge2" class="edge"><title>q0&#45;&gt;q0</title>
<path fill="none" stroke="black" d="M218.074,-679.454C229.242,-680.377 239,-677.559 239,-671 239,-666.593 234.595,-663.875 228.317,-662.846"/>
<polygon fill="black" stroke="black" points="228.173,-659.34 218.074,-662.546 227.967,-666.337 228.173,-659.34"/>
<text text-anchor="middle" x="243.5" y="-667.4" font-family="Times Roman,serif" font-size="14.00">b</text>
</g>
<!-- q6 -->
<g id="node4" class="node"><title>q6</title>
<ellipse fill="none" stroke="black" cx="96" cy="-579" rx="27" ry="18.3848"/>
<text text-anchor="middle" x="96" y="-575.4" font-family="Times Roman,serif" font-size="14.00">q6</text>
</g>
<!-- q0&#45;&gt;q6 -->
<g id="edge4" class="edge"><title>q0&#45;&gt;q6</title>
<path fill="none" stroke="black" d="M177.817,-655.808C162.071,-641.026 137.957,-618.388 119.982,-601.513"/>
<polygon fill="black" stroke="black" points="121.893,-598.507 112.207,-594.214 117.102,-603.611 121.893,-598.507"/>
<text text-anchor="middle" x="157.5" y="-621.4" font-family="Times Roman,serif" font-size="14.00">a</text>
</g>
<!-- q6&#45;&gt;q6 -->
<g id="edge22" class="edge"><title>q6&#45;&gt;q6</title>
<path fill="none" stroke="black" d="M120.074,-587.454C131.242,-588.377 141,-585.559 141,-579 141,-574.593 136.595,-571.875 130.317,-570.846"/>
<polygon fill="black" stroke="black" points="130.173,-567.34 120.074,-570.546 129.967,-574.337 130.173,-567.34"/>
<text text-anchor="middle" x="145.5" y="-575.4" font-family="Times Roman,serif" font-size="14.00">b</text>
</g>
<!-- q7 -->
<g id="node7" class="node"><title>q7</title>
<ellipse fill="none" stroke="black" cx="153" cy="-487" rx="27" ry="18.3848"/>
<text text-anchor="middle" x="153" y="-483.4" font-family="Times Roman,serif" font-size="14.00">q7</text>
</g>
<!-- q6&#45;&gt;q7 -->
<g id="edge24" class="edge"><title>q6&#45;&gt;q7</title>
<path fill="none" stroke="black" d="M106.721,-561.696C115.24,-547.946 127.287,-528.501 136.955,-512.898"/>
<polygon fill="black" stroke="black" points="140.035,-514.571 142.327,-504.227 134.085,-510.884 140.035,-514.571"/>
<text text-anchor="middle" x="133.5" y="-529.4" font-family="Times Roman,serif" font-size="14.00">a</text>
</g>
<!-- q2 -->
<g id="node5" class="node"><title>q2</title>
<ellipse fill="none" stroke="black" cx="132" cy="-395" rx="27" ry="18.3848"/>
<text text-anchor="middle" x="132" y="-391.4" font-family="Times Roman,serif" font-size="14.00">q2</text>
</g>
<!-- q2&#45;&gt;q7 -->
<g id="edge6" class="edge"><title>q2&#45;&gt;q7</title>
<path fill="none" stroke="black" d="M136.243,-413.59C139.174,-426.428 143.127,-443.748 146.458,-458.342"/>
<polygon fill="black" stroke="black" points="143.113,-459.412 148.75,-468.382 149.937,-457.854 143.113,-459.412"/>
<text text-anchor="middle" x="148.5" y="-437.4" font-family="Times Roman,serif" font-size="14.00">b</text>
</g>
<!-- q4 -->
<g id="node9" class="node"><title>q4</title>
<ellipse fill="none" stroke="black" cx="97" cy="-303" rx="27" ry="18.3848"/>
<text text-anchor="middle" x="97" y="-299.4" font-family="Times Roman,serif" font-size="14.00">q4</text>
</g>
<!-- q2&#45;&gt;q4 -->
<g id="edge8" class="edge"><title>q2&#45;&gt;q4</title>
<path fill="none" stroke="black" d="M125.085,-376.824C120.1,-363.719 113.278,-345.789 107.607,-330.88"/>
<polygon fill="black" stroke="black" points="110.728,-329.24 103.901,-321.138 104.185,-331.729 110.728,-329.24"/>
<text text-anchor="middle" x="121.5" y="-345.4" font-family="Times Roman,serif" font-size="14.00">a</text>
</g>
<!-- q7&#45;&gt;q2 -->
<g id="edge26" class="edge"><title>q7&#45;&gt;q2</title>
<path fill="none" stroke="black" d="M138.715,-471.23C134.032,-465.06 129.414,-457.635 127,-450 124.328,-441.551 124.237,-432.034 125.212,-423.321"/>
<polygon fill="black" stroke="black" points="128.704,-423.646 126.827,-413.219 121.792,-422.54 128.704,-423.646"/>
<text text-anchor="middle" x="131.5" y="-437.4" font-family="Times Roman,serif" font-size="14.00">b</text>
</g>
<!-- q7&#45;&gt;q7 -->
<g id="edge28" class="edge"><title>q7&#45;&gt;q7</title>
<path fill="none" stroke="black" d="M177.074,-495.454C188.242,-496.377 198,-493.559 198,-487 198,-482.593 193.595,-479.875 187.317,-478.846"/>
<polygon fill="black" stroke="black" points="187.173,-475.34 177.074,-478.546 186.967,-482.337 187.173,-475.34"/>
<text text-anchor="middle" x="202.5" y="-483.4" font-family="Times Roman,serif" font-size="14.00">a</text>
</g>
<!-- q8 -->
<g id="node15" class="node"><title>q8</title>
<ellipse fill="none" stroke="black" cx="97" cy="-207" rx="27" ry="18.3848"/>
<ellipse fill="none" stroke="black" cx="97" cy="-207" rx="31" ry="22.3848"/>
<text text-anchor="middle" x="97" y="-203.4" font-family="Times Roman,serif" font-size="14.00">q8</text>
</g>
<!-- q4&#45;&gt;q8 -->
<g id="edge14" class="edge"><title>q4&#45;&gt;q8</title>
<path fill="none" stroke="black" d="M97,-284.49C97,-271.863 97,-254.791 97,-239.885"/>
<polygon fill="black" stroke="black" points="100.5,-239.508 97,-229.508 93.5001,-239.508 100.5,-239.508"/>
<text text-anchor="middle" x="101.5" y="-253.4" font-family="Times Roman,serif" font-size="14.00">b</text>
</g>
<!-- q9 -->
<g id="node17" class="node"><title>q9</title>
<ellipse fill="none" stroke="black" cx="227" cy="-207" rx="27" ry="18.3848"/>
<text text-anchor="middle" x="227" y="-203.4" font-family="Times Roman,serif" font-size="14.00">q9</text>
</g>
<!-- q4&#45;&gt;q9 -->
<g id="edge16" class="edge"><title>q4&#45;&gt;q9</title>
<path fill="none" stroke="black" d="M105.98,-285.37C112.949,-273.297 123.662,-257.763 137,-248 157.414,-233.057 168.167,-240.893 191,-230 193.788,-228.67 196.623,-227.163 199.414,-225.573"/>
<polygon fill="black" stroke="black" points="201.337,-228.5 208.074,-220.324 197.709,-222.514 201.337,-228.5"/>
<text text-anchor="middle" x="141.5" y="-253.4" font-family="Times Roman,serif" font-size="14.00">a</text>
</g>
<!-- q3 -->
<g id="node10" class="node"><title>q3</title>
<ellipse fill="none" stroke="black" cx="109" cy="-111" rx="27" ry="18.3848"/>
<text text-anchor="middle" x="109" y="-107.4" font-family="Times Roman,serif" font-size="14.00">q3</text>
</g>
<!-- q3&#45;&gt;q6 -->
<g id="edge12" class="edge"><title>q3&#45;&gt;q6</title>
<path fill="none" stroke="black" d="M89.9733,-124.588C68.9422,-141.351 38,-171.967 38,-207 38,-487 38,-487 38,-487 38,-514.017 56.1193,-539.573 72.1031,-556.862"/>
<polygon fill="black" stroke="black" points="69.7479,-559.461 79.224,-564.2 74.7712,-554.586 69.7479,-559.461"/>
<text text-anchor="middle" x="42.5" y="-345.4" font-family="Times Roman,serif" font-size="14.00">a</text>
</g>
<!-- q5 -->
<g id="node12" class="node"><title>q5</title>
<ellipse fill="none" stroke="black" cx="109" cy="-19" rx="27" ry="18.3848"/>
<text text-anchor="middle" x="109" y="-15.4" font-family="Times Roman,serif" font-size="14.00">q5</text>
</g>
<!-- q3&#45;&gt;q5 -->
<g id="edge10" class="edge"><title>q3&#45;&gt;q5</title>
<path fill="none" stroke="black" d="M109,-92.3824C109,-79.5383 109,-62.2161 109,-47.6269"/>
<polygon fill="black" stroke="black" points="112.5,-47.5898 109,-37.5899 105.5,-47.5899 112.5,-47.5898"/>
<text text-anchor="middle" x="113.5" y="-61.4" font-family="Times Roman,serif" font-size="14.00">b</text>
</g>
<!-- q5&#45;&gt;q6 -->
<g id="edge18" class="edge"><title>q5&#45;&gt;q6</title>
<path fill="none" stroke="black" d="M84.5383,-27.2476C52.4014,-39.8147 0,-67.0454 0,-111 0,-487 0,-487 0,-487 0,-523.087 35.7986,-549.408 63.6744,-564.433"/>
<polygon fill="black" stroke="black" points="62.2658,-567.644 72.7611,-569.093 65.4602,-561.415 62.2658,-567.644"/>
<text text-anchor="middle" x="4.5" y="-299.4" font-family="Times Roman,serif" font-size="14.00">b</text>
</g>
<!-- q5&#45;&gt;q9 -->
<g id="edge20" class="edge"><title>q5&#45;&gt;q9</title>
<path fill="none" stroke="black" d="M119.741,-36.1123C140.536,-69.2433 186.397,-142.31 210.87,-181.302"/>
<polygon fill="black" stroke="black" points="208.039,-183.375 216.32,-189.985 213.968,-179.654 208.039,-183.375"/>
<text text-anchor="middle" x="181.5" y="-107.4" font-family="Times Roman,serif" font-size="14.00">a</text>
</g>
<!-- q8&#45;&gt;q8 -->
<g id="edge30" class="edge"><title>q8&#45;&gt;q8</title>
<path fill="none" stroke="black" d="M127.625,-211.688C137.833,-211.688 146,-210.125 146,-207 146,-205.047 142.81,-203.704 137.925,-202.972"/>
<polygon fill="black" stroke="black" points="137.828,-199.458 127.625,-202.312 137.381,-206.444 137.828,-199.458"/>
<text text-anchor="middle" x="150.5" y="-203.4" font-family="Times Roman,serif" font-size="14.00">b</text>
</g>
<!-- q8&#45;&gt;q8 -->
<g id="edge32" class="edge"><title>q8&#45;&gt;q8</title>
<path fill="none" stroke="black" d="M120.347,-221.951C141.424,-229.224 164,-224.24 164,-207 164,-192.454 147.928,-186.633 130.245,-189.538"/>
<polygon fill="black" stroke="black" points="129.179,-186.197 120.347,-192.049 130.901,-192.982 129.179,-186.197"/>
<text text-anchor="middle" x="168.5" y="-203.4" font-family="Times Roman,serif" font-size="14.00">a</text>
</g>
<!-- q9&#45;&gt;q0 -->
<g id="edge34" class="edge"><title>q9&#45;&gt;q0</title>
<path fill="none" stroke="black" d="M229.487,-225.725C231.836,-245.045 235,-276.074 235,-303 235,-579 235,-579 235,-579 235,-603.123 223.094,-627.963 212.114,-645.743"/>
<polygon fill="black" stroke="black" points="209.032,-644.062 206.524,-654.355 214.904,-647.872 209.032,-644.062"/>
<text text-anchor="middle" x="239.5" y="-437.4" font-family="Times Roman,serif" font-size="14.00">b</text>
</g>
<!-- q9&#45;&gt;q2 -->
<g id="edge38" class="edge"><title>q9&#45;&gt;q2</title>
<path fill="none" stroke="black" d="M208.289,-220.897C199.598,-228.159 189.724,-237.676 183,-248 158.734,-285.256 144.589,-335.371 137.582,-366.41"/>
<polygon fill="black" stroke="black" points="134.084,-366.027 135.396,-376.54 140.926,-367.504 134.084,-366.027"/>
<text text-anchor="middle" x="167.5" y="-299.4" font-family="Times Roman,serif" font-size="14.00">b</text>
</g>
<!-- q9&#45;&gt;q7 -->
<g id="edge36" class="edge"><title>q9&#45;&gt;q7</title>
<path fill="none" stroke="black" d="M222.127,-225.439C209.484,-273.277 175.568,-401.608 160.45,-458.811"/>
<polygon fill="black" stroke="black" points="157.027,-458.066 157.855,-468.628 163.794,-459.855 157.027,-458.066"/>
<text text-anchor="middle" x="195.5" y="-345.4" font-family="Times Roman,serif" font-size="14.00">a</text>
</g>
<!-- q9&#45;&gt;q3 -->
<g id="edge40" class="edge"><title>q9&#45;&gt;q3</title>
<path fill="none" stroke="black" d="M209.026,-192.624C199.241,-184.779 186.934,-174.882 176,-166 162.106,-154.713 146.66,-142.041 134.102,-131.708"/>
<polygon fill="black" stroke="black" points="136.257,-128.949 126.313,-125.293 131.807,-134.352 136.257,-128.949"/>
<text text-anchor="middle" x="180.5" y="-153.4" font-family="Times Roman,serif" font-size="14.00">a</text>
</g>
</g>
</svg>
