<?xml version="1.0" encoding="UTF-8" standalone="no"?>
<!DOCTYPE svg PUBLIC "-//W3C//DTD SVG 1.1//EN"
 "http://www.w3.org/Graphics/SVG/1.1/DTD/svg11.dtd">
<!-- Generated by graphviz version 2.26.3 (20100126.1600)
 -->
<!-- Title: G Pages: 1 -->
<svg width="160pt" height="330pt"
 viewBox="0.00 0.00 160.00 330.00" xmlns="http://www.w3.org/2000/svg" xmlns:xlink="http://www.w3.org/1999/xlink">
<g id="graph1" class="graph" transform="scale(1 1) rotate(0) translate(4 326)">
<title>G</title>
<polygon fill="white" stroke="white" points="-4,5 -4,-326 157,-326 157,5 -4,5"/>
<!-- q1 -->
<g id="node1" class="node"><title>q1</title>
<ellipse fill="none" stroke="black" cx="94" cy="-300" rx="27" ry="18"/>
<ellipse fill="none" stroke="black" cx="94" cy="-300" rx="31" ry="22"/>
<text text-anchor="middle" x="94" y="-295.9" font-family="Times Roman,serif" font-size="14.00">q1</text>
</g>
<!-- q1&#45;&gt;q1 -->
<g id="edge2" class="edge"><title>q1&#45;&gt;q1</title>
<path fill="none" stroke="black" d="M122.689,-308.965C133.781,-309.363 143,-306.375 143,-300 143,-295.717 138.838,-292.962 132.743,-291.737"/>
<polygon fill="black" stroke="black" points="132.908,-288.24 122.689,-291.035 132.421,-295.223 132.908,-288.24"/>
<text text-anchor="middle" x="147.5" y="-295.9" font-family="Times Roman,serif" font-size="14.00">b</text>
</g>
<!-- q4 -->
<g id="node4" class="node"><title>q4</title>
<ellipse fill="none" stroke="black" cx="94" cy="-206" rx="27" ry="18"/>
<text text-anchor="middle" x="94" y="-201.9" font-family="Times Roman,serif" font-size="14.00">q4</text>
</g>
<!-- q1&#45;&gt;q4 -->
<g id="edge4" class="edge"><title>q1&#45;&gt;q4</title>
<path fill="none" stroke="black" d="M83.9276,-279.19C79.8015,-268.198 76.5115,-254.442 79,-242 79.6175,-238.913 80.5055,-235.759 81.5455,-232.665"/>
<polygon fill="black" stroke="black" points="84.8869,-233.729 85.2399,-223.14 78.3606,-231.198 84.8869,-233.729"/>
<text text-anchor="middle" x="83.5" y="-246.9" font-family="Times Roman,serif" font-size="14.00">a</text>
</g>
<!-- q4&#45;&gt;q1 -->
<g id="edge6" class="edge"><title>q4&#45;&gt;q1</title>
<path fill="none" stroke="black" d="M94,-224.025C94,-236.333 94,-252.987 94,-267.566"/>
<polygon fill="black" stroke="black" points="90.5001,-267.723 94,-277.723 97.5001,-267.723 90.5001,-267.723"/>
<text text-anchor="middle" x="98.5" y="-246.9" font-family="Times Roman,serif" font-size="14.00">b</text>
</g>
<!-- q0 -->
<g id="node7" class="node"><title>q0</title>
<ellipse fill="none" stroke="darkred" cx="27" cy="-116" rx="27" ry="18"/>
<text text-anchor="middle" x="27" y="-111.9" font-family="Times Roman,serif" font-size="14.00">q0</text>
</g>
<!-- q4&#45;&gt;q0 -->
<g id="edge8" class="edge"><title>q4&#45;&gt;q0</title>
<path fill="none" stroke="black" d="M81.7112,-189.493C71.5111,-175.791 56.8542,-156.103 45.2776,-140.552"/>
<polygon fill="black" stroke="black" points="47.9899,-138.334 39.2109,-132.403 42.3749,-142.514 47.9899,-138.334"/>
<text text-anchor="middle" x="71.5" y="-156.9" font-family="Times Roman,serif" font-size="14.00">a</text>
</g>
<!-- q0&#45;&gt;q0 -->
<g id="edge16" class="edge"><title>q0&#45;&gt;q0</title>
<path fill="none" stroke="black" d="M51.5325,-124.121C62.5078,-124.895 72,-122.188 72,-116 72,-111.843 67.7151,-109.257 61.5743,-108.242"/>
<polygon fill="black" stroke="black" points="61.6524,-104.742 51.5325,-107.879 61.3995,-111.738 61.6524,-104.742"/>
<text text-anchor="middle" x="76.5" y="-111.9" font-family="Times Roman,serif" font-size="14.00">a</text>
</g>
<!-- q3 -->
<g id="node8" class="node"><title>q3</title>
<ellipse fill="none" stroke="black" cx="59" cy="-22" rx="27" ry="18"/>
<ellipse fill="none" stroke="black" cx="59" cy="-22" rx="31" ry="22"/>
<text text-anchor="middle" x="59" y="-17.9" font-family="Times Roman,serif" font-size="14.00">q3</text>
</g>
<!-- q0&#45;&gt;q3 -->
<g id="edge14" class="edge"><title>q0&#45;&gt;q3</title>
<path fill="none" stroke="black" d="M24.5431,-97.9876C23.7529,-87.2417 23.9474,-73.4962 28,-62 29.6649,-57.277 32.1253,-52.6741 34.9444,-48.3721"/>
<polygon fill="black" stroke="black" points="37.9822,-50.1493 41.0947,-40.0219 32.3461,-45.998 37.9822,-50.1493"/>
<text text-anchor="middle" x="32.5" y="-66.9" font-family="Times Roman,serif" font-size="14.00">b</text>
</g>
<!-- q3&#45;&gt;q4 -->
<g id="edge12" class="edge"><title>q3&#45;&gt;q4</title>
<path fill="none" stroke="black" d="M69.7391,-42.659C76.9218,-57.5964 85.7992,-78.4975 90,-98 95.738,-124.639 96.2529,-155.813 95.6241,-177.802"/>
<polygon fill="black" stroke="black" points="92.1266,-177.672 95.2415,-187.798 99.1215,-177.94 92.1266,-177.672"/>
<text text-anchor="middle" x="98.5" y="-111.9" font-family="Times Roman,serif" font-size="14.00">a</text>
</g>
<!-- q3&#45;&gt;q0 -->
<g id="edge10" class="edge"><title>q3&#45;&gt;q0</title>
<path fill="none" stroke="black" d="M51.6598,-43.5618C47.1156,-56.9105 41.2375,-74.1772 36.3602,-88.5045"/>
<polygon fill="black" stroke="black" points="32.9284,-87.7249 33.019,-98.3193 39.5549,-89.9808 32.9284,-87.7249"/>
<text text-anchor="middle" x="49.5" y="-66.9" font-family="Times Roman,serif" font-size="14.00">b</text>
</g>
</g>
</svg>
