<?xml version="1.0" encoding="UTF-8" standalone="no"?>
<!DOCTYPE svg PUBLIC "-//W3C//DTD SVG 1.1//EN"
 "http://www.w3.org/Graphics/SVG/1.1/DTD/svg11.dtd">
<!-- Generated by graphviz version 2.26.3 (20100126.1600)
 -->
<!-- Title: G Pages: 1 -->
<svg width="307pt" height="598pt"
 viewBox="0.00 0.00 306.93 598.00" xmlns="http://www.w3.org/2000/svg" xmlns:xlink="http://www.w3.org/1999/xlink">
<g id="graph1" class="graph" transform="scale(1 1) rotate(0) translate(4 594)">
<title>G</title>
<polygon fill="white" stroke="white" points="-4,5 -4,-594 303.929,-594 303.929,5 -4,5"/>
<!-- q6 -->
<g id="node1" class="node"><title>q6</title>
<ellipse fill="none" stroke="black" cx="213.929" cy="-479" rx="27" ry="18.3848"/>
<text text-anchor="middle" x="213.929" y="-475.4" font-family="Times Roman,serif" font-size="14.00">q6</text>
</g>
<!-- q4 -->
<g id="node3" class="node"><title>q4</title>
<ellipse fill="none" stroke="black" cx="86.9289" cy="-387" rx="27" ry="18.3848"/>
<text text-anchor="middle" x="86.9289" y="-383.4" font-family="Times Roman,serif" font-size="14.00">q4</text>
</g>
<!-- q6&#45;&gt;q4 -->
<g id="edge2" class="edge"><title>q6&#45;&gt;q4</title>
<path fill="none" stroke="black" d="M195.19,-465.425C173.711,-449.866 138.33,-424.235 113.892,-406.532"/>
<polygon fill="black" stroke="black" points="115.897,-403.663 105.745,-400.631 111.79,-409.332 115.897,-403.663"/>
<text text-anchor="middle" x="165.429" y="-429.4" font-family="Times Roman,serif" font-size="14.00">b</text>
</g>
<!-- q2 -->
<g id="node5" class="node"><title>q2</title>
<ellipse fill="none" stroke="black" cx="135.929" cy="-19" rx="27" ry="18.3848"/>
<text text-anchor="middle" x="135.929" y="-15.4" font-family="Times Roman,serif" font-size="14.00">q2</text>
</g>
<!-- q6&#45;&gt;q2 -->
<g id="edge4" class="edge"><title>q6&#45;&gt;q2</title>
<path fill="none" stroke="black" d="M235.268,-467.508C245.599,-461.098 257.549,-452.322 265.929,-442 282.739,-421.294 289.929,-413.67 289.929,-387 289.929,-387 289.929,-387 289.929,-111 289.929,-84.3296 286.009,-73.5522 265.929,-56 251.919,-43.7541 205.375,-32.4808 171.984,-25.6749"/>
<polygon fill="black" stroke="black" points="172.584,-22.2259 162.094,-23.7101 171.22,-29.0917 172.584,-22.2259"/>
<text text-anchor="middle" x="294.429" y="-245.4" font-family="Times Roman,serif" font-size="14.00">a</text>
</g>
<!-- q1 -->
<g id="node13" class="node"><title>q1</title>
<ellipse fill="none" stroke="black" cx="98.9289" cy="-295" rx="27" ry="18.3848"/>
<text text-anchor="middle" x="98.9289" y="-291.4" font-family="Times Roman,serif" font-size="14.00">q1</text>
</g>
<!-- q4&#45;&gt;q1 -->
<g id="edge22" class="edge"><title>q4&#45;&gt;q1</title>
<path fill="none" stroke="black" d="M89.3573,-368.382C91.0326,-355.538 93.292,-338.216 95.1949,-323.627"/>
<polygon fill="black" stroke="black" points="98.6813,-323.959 96.5041,-313.59 91.74,-323.053 98.6813,-323.959"/>
<text text-anchor="middle" x="98.4289" y="-337.4" font-family="Times Roman,serif" font-size="14.00">b</text>
</g>
<!-- q4&#45;&gt;q1 -->
<g id="edge24" class="edge"><title>q4&#45;&gt;q1</title>
<path fill="none" stroke="black" d="M80.201,-368.983C77.0892,-358.155 74.7182,-344.162 77.9289,-332 78.9105,-328.282 80.3613,-324.546 82.05,-320.953"/>
<polygon fill="black" stroke="black" points="85.2707,-322.353 86.9165,-311.887 79.1031,-319.043 85.2707,-322.353"/>
<text text-anchor="middle" x="82.4289" y="-337.4" font-family="Times Roman,serif" font-size="14.00">a</text>
</g>
<!-- q2&#45;&gt;q6 -->
<g id="edge16" class="edge"><title>q2&#45;&gt;q6</title>
<path fill="none" stroke="black" d="M160.814,-26.3761C194.898,-38.1941 251.929,-64.8616 251.929,-111 251.929,-387 251.929,-387 251.929,-387 251.929,-410.84 240.894,-435.702 230.717,-453.562"/>
<polygon fill="black" stroke="black" points="227.667,-451.842 225.537,-462.221 233.674,-455.436 227.667,-451.842"/>
<text text-anchor="middle" x="256.429" y="-245.4" font-family="Times Roman,serif" font-size="14.00">a</text>
</g>
<!-- q2&#45;&gt;q1 -->
<g id="edge14" class="edge"><title>q2&#45;&gt;q1</title>
<path fill="none" stroke="black" d="M125.519,-36.3802C117.342,-50.7958 106.307,-72.0824 99.9289,-92 82.1926,-147.391 79.4269,-164.1 84.9289,-222 86.3352,-236.8 89.311,-253.063 92.1589,-266.475"/>
<polygon fill="black" stroke="black" points="88.8072,-267.528 94.3829,-276.537 95.6422,-266.018 88.8072,-267.528"/>
<text text-anchor="middle" x="88.4289" y="-153.4" font-family="Times Roman,serif" font-size="14.00">b</text>
</g>
<!-- q5 -->
<g id="node6" class="node"><title>q5</title>
<ellipse fill="none" stroke="black" cx="81.9289" cy="-571" rx="27" ry="18.3848"/>
<text text-anchor="middle" x="81.9289" y="-567.4" font-family="Times Roman,serif" font-size="14.00">q5</text>
</g>
<!-- q5&#45;&gt;q6 -->
<g id="edge6" class="edge"><title>q5&#45;&gt;q6</title>
<path fill="none" stroke="black" d="M101.123,-557.622C123.51,-542.019 160.699,-516.1 186.216,-498.315"/>
<polygon fill="black" stroke="black" points="188.509,-500.983 194.712,-492.394 184.507,-495.24 188.509,-500.983"/>
<text text-anchor="middle" x="163.429" y="-521.4" font-family="Times Roman,serif" font-size="14.00">b</text>
</g>
<!-- q3 -->
<g id="node9" class="node"><title>q3</title>
<ellipse fill="none" stroke="black" cx="135.929" cy="-111" rx="27" ry="18.3848"/>
<text text-anchor="middle" x="135.929" y="-107.4" font-family="Times Roman,serif" font-size="14.00">q3</text>
</g>
<!-- q5&#45;&gt;q3 -->
<g id="edge8" class="edge"><title>q5&#45;&gt;q3</title>
<path fill="none" stroke="black" d="M66.0192,-555.663C50.0905,-538.588 27.9289,-509.373 27.9289,-479 27.9289,-479 27.9289,-479 27.9289,-203 27.9289,-163.379 70.5708,-137.226 102.266,-123.259"/>
<polygon fill="black" stroke="black" points="103.818,-126.403 111.692,-119.314 101.116,-119.946 103.818,-126.403"/>
<text text-anchor="middle" x="32.4289" y="-337.4" font-family="Times Roman,serif" font-size="14.00">a</text>
</g>
<!-- q3&#45;&gt;q6 -->
<g id="edge28" class="edge"><title>q3&#45;&gt;q6</title>
<path fill="none" stroke="black" d="M156.422,-123.12C179.533,-138.512 213.929,-167.402 213.929,-203 213.929,-387 213.929,-387 213.929,-387 213.929,-408.13 213.929,-431.99 213.929,-450.116"/>
<polygon fill="black" stroke="black" points="210.429,-450.322 213.929,-460.322 217.429,-450.322 210.429,-450.322"/>
<text text-anchor="middle" x="218.429" y="-291.4" font-family="Times Roman,serif" font-size="14.00">a</text>
</g>
<!-- q3&#45;&gt;q2 -->
<g id="edge26" class="edge"><title>q3&#45;&gt;q2</title>
<path fill="none" stroke="black" d="M135.929,-92.3824C135.929,-79.5383 135.929,-62.2161 135.929,-47.6269"/>
<polygon fill="black" stroke="black" points="139.429,-47.5898 135.929,-37.5899 132.429,-47.5899 139.429,-47.5898"/>
<text text-anchor="middle" x="140.429" y="-61.4" font-family="Times Roman,serif" font-size="14.00">b</text>
</g>
<!-- q7 -->
<g id="node10" class="node"><title>q7</title>
<ellipse fill="none" stroke="black" cx="120.929" cy="-203" rx="27" ry="18.3848"/>
<text text-anchor="middle" x="120.929" y="-199.4" font-family="Times Roman,serif" font-size="14.00">q7</text>
</g>
<!-- q7&#45;&gt;q3 -->
<g id="edge10" class="edge"><title>q7&#45;&gt;q3</title>
<path fill="none" stroke="black" d="M123.964,-184.382C126.059,-171.538 128.883,-154.216 131.261,-139.627"/>
<polygon fill="black" stroke="black" points="134.743,-140.023 132.898,-129.59 127.834,-138.896 134.743,-140.023"/>
<text text-anchor="middle" x="133.429" y="-153.4" font-family="Times Roman,serif" font-size="14.00">b</text>
</g>
<!-- q7&#45;&gt;q1 -->
<g id="edge12" class="edge"><title>q7&#45;&gt;q1</title>
<path fill="none" stroke="black" d="M108.989,-219.907C105.365,-225.96 101.84,-233.018 99.9289,-240 97.6595,-248.29 96.8621,-257.549 96.7823,-266.071"/>
<polygon fill="black" stroke="black" points="93.2891,-266.422 97.0082,-276.343 100.287,-266.268 93.2891,-266.422"/>
<text text-anchor="middle" x="104.429" y="-245.4" font-family="Times Roman,serif" font-size="14.00">a</text>
</g>
<!-- q1&#45;&gt;q2 -->
<g id="edge18" class="edge"><title>q1&#45;&gt;q2</title>
<path fill="none" stroke="black" d="M79.7674,-281.898C46.2386,-257.221 -17.4766,-201.509 4.9289,-148 25.5507,-98.7512 75.1535,-58.7857 107.06,-36.9986"/>
<polygon fill="black" stroke="black" points="109.168,-39.7995 115.551,-31.3429 105.288,-33.9735 109.168,-39.7995"/>
<text text-anchor="middle" x="10.4289" y="-153.4" font-family="Times Roman,serif" font-size="14.00">b</text>
</g>
<!-- q1&#45;&gt;q7 -->
<g id="edge20" class="edge"><title>q1&#45;&gt;q7</title>
<path fill="none" stroke="black" d="M104.093,-276.602C105.704,-270.679 107.446,-264.076 108.929,-258 111.038,-249.36 113.164,-239.913 115.028,-231.324"/>
<polygon fill="black" stroke="black" points="118.485,-231.896 117.154,-221.385 111.639,-230.432 118.485,-231.896"/>
<text text-anchor="middle" x="116.429" y="-245.4" font-family="Times Roman,serif" font-size="14.00">a</text>
</g>
<!-- q0 -->
<g id="node22" class="node"><title>q0</title>
<ellipse fill="none" stroke="black" cx="158.929" cy="-387" rx="27" ry="18.3848"/>
<text text-anchor="middle" x="158.929" y="-383.4" font-family="Times Roman,serif" font-size="14.00">q0</text>
</g>
<!-- q0&#45;&gt;q3 -->
<g id="edge30" class="edge"><title>q0&#45;&gt;q3</title>
<path fill="none" stroke="black" d="M160.411,-368.398C162.903,-332.509 166.756,-251.309 156.929,-184 154.697,-168.714 150.111,-152.132 145.792,-138.642"/>
<polygon fill="black" stroke="black" points="149.062,-137.384 142.585,-129 142.42,-139.594 149.062,-137.384"/>
<text text-anchor="middle" x="166.429" y="-245.4" font-family="Times Roman,serif" font-size="14.00">b</text>
</g>
<!-- q0&#45;&gt;q1 -->
<g id="edge32" class="edge"><title>q0&#45;&gt;q1</title>
<path fill="none" stroke="black" d="M147.643,-369.696C138.619,-355.859 125.834,-336.255 115.626,-320.602"/>
<polygon fill="black" stroke="black" points="118.355,-318.38 109.961,-311.916 112.492,-322.204 118.355,-318.38"/>
<text text-anchor="middle" x="138.429" y="-337.4" font-family="Times Roman,serif" font-size="14.00">a</text>
</g>
</g>
</svg>
