<?xml version="1.0" encoding="UTF-8" standalone="no"?>
<!DOCTYPE svg PUBLIC "-//W3C//DTD SVG 1.1//EN"
 "http://www.w3.org/Graphics/SVG/1.1/DTD/svg11.dtd">
<!-- Generated by graphviz version 2.26.3 (20100126.1600)
 -->
<!-- Title: G Pages: 1 -->
<svg width="359pt" height="698pt"
 viewBox="0.00 0.00 359.00 698.00" xmlns="http://www.w3.org/2000/svg" xmlns:xlink="http://www.w3.org/1999/xlink">
<g id="graph1" class="graph" transform="scale(1 1) rotate(0) translate(4 694)">
<title>G</title>
<polygon fill="white" stroke="white" points="-4,5 -4,-694 356,-694 356,5 -4,5"/>
<!-- q0 -->
<g id="node1" class="node"><title>q0</title>
<ellipse fill="none" stroke="black" cx="143" cy="-579" rx="27" ry="18.3848"/>
<text text-anchor="middle" x="143" y="-575.4" font-family="Times Roman,serif" font-size="14.00">q0</text>
</g>
<!-- q0&#45;&gt;q0 -->
<g id="edge4" class="edge"><title>q0&#45;&gt;q0</title>
<path fill="none" stroke="black" d="M167.074,-587.454C178.242,-588.377 188,-585.559 188,-579 188,-574.593 183.595,-571.875 177.317,-570.846"/>
<polygon fill="black" stroke="black" points="177.173,-567.34 167.074,-570.546 176.967,-574.337 177.173,-567.34"/>
<text text-anchor="middle" x="192.5" y="-575.4" font-family="Times Roman,serif" font-size="14.00">a</text>
</g>
<!-- q3 -->
<g id="node3" class="node"><title>q3</title>
<ellipse fill="none" stroke="black" cx="114" cy="-487" rx="27" ry="18.3848"/>
<text text-anchor="middle" x="114" y="-483.4" font-family="Times Roman,serif" font-size="14.00">q3</text>
</g>
<!-- q0&#45;&gt;q3 -->
<g id="edge2" class="edge"><title>q0&#45;&gt;q3</title>
<path fill="none" stroke="black" d="M137.271,-560.824C133.14,-547.719 127.488,-529.789 122.788,-514.88"/>
<polygon fill="black" stroke="black" points="126.062,-513.624 119.718,-505.138 119.386,-515.728 126.062,-513.624"/>
<text text-anchor="middle" x="135.5" y="-529.4" font-family="Times Roman,serif" font-size="14.00">b</text>
</g>
<!-- q2 -->
<g id="node5" class="node"><title>q2</title>
<ellipse fill="none" stroke="black" cx="177" cy="-395" rx="27" ry="18.3848"/>
<text text-anchor="middle" x="177" y="-391.4" font-family="Times Roman,serif" font-size="14.00">q2</text>
</g>
<!-- q3&#45;&gt;q2 -->
<g id="edge12" class="edge"><title>q3&#45;&gt;q2</title>
<path fill="none" stroke="black" d="M125.555,-470.126C135.146,-456.12 148.928,-435.994 159.814,-420.098"/>
<polygon fill="black" stroke="black" points="162.756,-421.996 165.518,-411.767 156.98,-418.041 162.756,-421.996"/>
<text text-anchor="middle" x="155.5" y="-437.4" font-family="Times Roman,serif" font-size="14.00">a</text>
</g>
<!-- q10 -->
<g id="node11" class="node"><title>q10</title>
<ellipse fill="none" stroke="black" cx="147" cy="-19" rx="29.9071" ry="18.3848"/>
<text text-anchor="middle" x="147" y="-15.4" font-family="Times Roman,serif" font-size="14.00">q10</text>
</g>
<!-- q3&#45;&gt;q10 -->
<g id="edge10" class="edge"><title>q3&#45;&gt;q10</title>
<path fill="none" stroke="black" d="M87.7856,-481.828C68.0543,-476.729 41.5058,-467.135 24,-450 4.94042,-431.344 0,-421.67 0,-395 0,-395 0,-395 0,-111 0,-84.3296 4.05089,-73.7015 24,-56 36.5879,-44.8303 77.0904,-33.9697 108.215,-26.9366"/>
<polygon fill="black" stroke="black" points="109.343,-30.272 118.356,-24.7032 107.838,-23.4358 109.343,-30.272"/>
<text text-anchor="middle" x="4.5" y="-245.4" font-family="Times Roman,serif" font-size="14.00">b</text>
</g>
<!-- q4 -->
<g id="node7" class="node"><title>q4</title>
<ellipse fill="none" stroke="black" cx="211" cy="-299" rx="27" ry="18.3848"/>
<ellipse fill="none" stroke="black" cx="211" cy="-299" rx="31" ry="22.3848"/>
<text text-anchor="middle" x="211" y="-295.4" font-family="Times Roman,serif" font-size="14.00">q4</text>
</g>
<!-- q2&#45;&gt;q4 -->
<g id="edge6" class="edge"><title>q2&#45;&gt;q4</title>
<path fill="none" stroke="black" d="M178.245,-376.463C179.412,-365.578 181.663,-351.704 186,-340 187.499,-335.954 189.414,-331.869 191.515,-327.925"/>
<polygon fill="black" stroke="black" points="194.663,-329.473 196.647,-319.066 188.606,-325.964 194.663,-329.473"/>
<text text-anchor="middle" x="190.5" y="-345.4" font-family="Times Roman,serif" font-size="14.00">b</text>
</g>
<!-- q11 -->
<g id="node9" class="node"><title>q11</title>
<ellipse fill="none" stroke="black" cx="175" cy="-111" rx="29.9071" ry="18.3848"/>
<text text-anchor="middle" x="175" y="-107.4" font-family="Times Roman,serif" font-size="14.00">q11</text>
</g>
<!-- q2&#45;&gt;q11 -->
<g id="edge8" class="edge"><title>q2&#45;&gt;q11</title>
<path fill="none" stroke="black" d="M175.05,-376.423C173.606,-361.685 171.761,-340.55 171,-322 168.331,-256.945 171.295,-180.534 173.358,-139.881"/>
<polygon fill="black" stroke="black" points="176.866,-139.807 173.897,-129.637 169.876,-139.439 176.866,-139.807"/>
<text text-anchor="middle" x="174.5" y="-245.4" font-family="Times Roman,serif" font-size="14.00">a</text>
</g>
<!-- q4&#45;&gt;q2 -->
<g id="edge16" class="edge"><title>q4&#45;&gt;q2</title>
<path fill="none" stroke="black" d="M205.968,-321.446C203.204,-332.595 199.435,-346.175 195,-358 193.732,-361.38 192.264,-364.867 190.723,-368.287"/>
<polygon fill="black" stroke="black" points="187.426,-367.071 186.297,-377.606 193.749,-370.075 187.426,-367.071"/>
<text text-anchor="middle" x="204.5" y="-345.4" font-family="Times Roman,serif" font-size="14.00">a</text>
</g>
<!-- q8 -->
<g id="node14" class="node"><title>q8</title>
<ellipse fill="none" stroke="black" cx="217" cy="-203" rx="27" ry="18.3848"/>
<text text-anchor="middle" x="217" y="-199.4" font-family="Times Roman,serif" font-size="14.00">q8</text>
</g>
<!-- q4&#45;&gt;q8 -->
<g id="edge14" class="edge"><title>q4&#45;&gt;q8</title>
<path fill="none" stroke="black" d="M212.422,-276.249C213.25,-262.994 214.303,-246.148 215.19,-231.954"/>
<polygon fill="black" stroke="black" points="218.699,-231.919 215.83,-221.72 211.713,-231.482 218.699,-231.919"/>
<text text-anchor="middle" x="218.5" y="-245.4" font-family="Times Roman,serif" font-size="14.00">b</text>
</g>
<!-- q11&#45;&gt;q10 -->
<g id="edge46" class="edge"><title>q11&#45;&gt;q10</title>
<path fill="none" stroke="black" d="M169.334,-92.3824C165.361,-79.3283 159.98,-61.6484 155.495,-46.9135"/>
<polygon fill="black" stroke="black" points="158.822,-45.8236 152.562,-37.2759 152.126,-47.8617 158.822,-45.8236"/>
<text text-anchor="middle" x="167.5" y="-61.4" font-family="Times Roman,serif" font-size="14.00">b</text>
</g>
<!-- q11&#45;&gt;q8 -->
<g id="edge48" class="edge"><title>q11&#45;&gt;q8</title>
<path fill="none" stroke="black" d="M176.391,-129.561C177.772,-140.582 180.523,-154.587 186,-166 188.298,-170.788 191.357,-175.473 194.661,-179.813"/>
<polygon fill="black" stroke="black" points="192.1,-182.207 201.179,-187.668 197.487,-177.737 192.1,-182.207"/>
<text text-anchor="middle" x="190.5" y="-153.4" font-family="Times Roman,serif" font-size="14.00">a</text>
</g>
<!-- q10&#45;&gt;q3 -->
<g id="edge34" class="edge"><title>q10&#45;&gt;q3</title>
<path fill="none" stroke="black" d="M118.686,-25.5701C100.506,-31.054 77.4844,-40.5295 62,-56 43.1327,-74.8503 38,-84.3296 38,-111 38,-395 38,-395 38,-395 38,-421.67 45.1902,-429.294 62,-450 68.1541,-457.581 76.2333,-464.327 84.1829,-469.914"/>
<polygon fill="black" stroke="black" points="82.3864,-472.922 92.6609,-475.508 86.2413,-467.079 82.3864,-472.922"/>
<text text-anchor="middle" x="42.5" y="-245.4" font-family="Times Roman,serif" font-size="14.00">b</text>
</g>
<!-- q10&#45;&gt;q3 -->
<g id="edge38" class="edge"><title>q10&#45;&gt;q3</title>
<path fill="none" stroke="black" d="M125.865,-32.2132C116.995,-38.5624 107.11,-46.7951 100,-56 83.697,-77.1074 76,-84.3296 76,-111 76,-395 76,-395 76,-395 76,-418.84 87.0349,-443.702 97.2117,-461.562"/>
<polygon fill="black" stroke="black" points="94.2545,-463.436 102.392,-470.221 100.261,-459.842 94.2545,-463.436"/>
<text text-anchor="middle" x="80.5" y="-245.4" font-family="Times Roman,serif" font-size="14.00">b</text>
</g>
<!-- q10&#45;&gt;q3 -->
<g id="edge42" class="edge"><title>q10&#45;&gt;q3</title>
<path fill="none" stroke="black" d="M136.559,-36.6555C126.891,-54.7001 114,-83.8502 114,-111 114,-395 114,-395 114,-395 114,-416.13 114,-439.99 114,-458.116"/>
<polygon fill="black" stroke="black" points="110.5,-458.322 114,-468.322 117.5,-458.322 110.5,-458.322"/>
<text text-anchor="middle" x="118.5" y="-245.4" font-family="Times Roman,serif" font-size="14.00">b</text>
</g>
<!-- q10&#45;&gt;q11 -->
<g id="edge36" class="edge"><title>q10&#45;&gt;q11</title>
<path fill="none" stroke="black" d="M144.596,-37.5559C143.851,-48.4479 144.074,-62.3224 148,-74 149.465,-78.3577 151.645,-82.6341 154.143,-86.6438"/>
<polygon fill="black" stroke="black" points="151.349,-88.7557 159.964,-94.9235 157.076,-84.7298 151.349,-88.7557"/>
<text text-anchor="middle" x="152.5" y="-61.4" font-family="Times Roman,serif" font-size="14.00">a</text>
</g>
<!-- q10&#45;&gt;q10 -->
<g id="edge40" class="edge"><title>q10&#45;&gt;q10</title>
<path fill="none" stroke="black" d="M176.53,-23.3114C186.748,-23.3571 195,-21.9199 195,-19 195,-17.175 191.777,-15.9293 186.864,-15.2628"/>
<polygon fill="black" stroke="black" points="186.709,-11.7488 176.53,-14.6886 186.32,-18.738 186.709,-11.7488"/>
<text text-anchor="middle" x="199.5" y="-15.4" font-family="Times Roman,serif" font-size="14.00">a</text>
</g>
<!-- q10&#45;&gt;q10 -->
<g id="edge44" class="edge"><title>q10&#45;&gt;q10</title>
<path fill="none" stroke="black" d="M167.611,-32.7671C189.017,-41.1232 213,-36.5342 213,-19 213,-4.06855 195.609,1.47561 177.227,-2.36753"/>
<polygon fill="black" stroke="black" points="176.195,0.977143 167.611,-5.23293 178.194,-5.73135 176.195,0.977143"/>
<text text-anchor="middle" x="217.5" y="-15.4" font-family="Times Roman,serif" font-size="14.00">a</text>
</g>
<!-- q8&#45;&gt;q11 -->
<g id="edge26" class="edge"><title>q8&#45;&gt;q11</title>
<path fill="none" stroke="black" d="M210.379,-184.943C206.255,-174.101 200.671,-160.107 195,-148 193.388,-144.557 191.604,-140.985 189.785,-137.477"/>
<polygon fill="black" stroke="black" points="192.779,-135.653 184.983,-128.479 186.604,-138.949 192.779,-135.653"/>
<text text-anchor="middle" x="206.5" y="-153.4" font-family="Times Roman,serif" font-size="14.00">b</text>
</g>
<!-- q8&#45;&gt;q10 -->
<g id="edge28" class="edge"><title>q8&#45;&gt;q10</title>
<path fill="none" stroke="black" d="M220.32,-184.52C223.556,-161.816 226.374,-122.555 214,-92 205.719,-71.5512 188.919,-53.2698 174.215,-40.1163"/>
<polygon fill="black" stroke="black" points="176.199,-37.2069 166.329,-33.3552 171.643,-42.5212 176.199,-37.2069"/>
<text text-anchor="middle" x="226.5" y="-107.4" font-family="Times Roman,serif" font-size="14.00">a</text>
</g>
<!-- q5 -->
<g id="node16" class="node"><title>q5</title>
<ellipse fill="none" stroke="black" cx="287" cy="-299" rx="27" ry="18.3848"/>
<text text-anchor="middle" x="287" y="-295.4" font-family="Times Roman,serif" font-size="14.00">q5</text>
</g>
<!-- q5&#45;&gt;q10 -->
<g id="edge20" class="edge"><title>q5&#45;&gt;q10</title>
<path fill="none" stroke="black" d="M284.493,-280.309C279.043,-243.149 264.194,-157.893 235,-92 227.211,-74.4187 225.024,-69.1566 211,-56 202.095,-47.6463 190.971,-40.3918 180.506,-34.573"/>
<polygon fill="black" stroke="black" points="182.028,-31.4186 171.552,-29.8377 178.755,-37.6066 182.028,-31.4186"/>
<text text-anchor="middle" x="264.5" y="-153.4" font-family="Times Roman,serif" font-size="14.00">a</text>
</g>
<!-- q5&#45;&gt;q8 -->
<g id="edge18" class="edge"><title>q5&#45;&gt;q8</title>
<path fill="none" stroke="black" d="M274.807,-282.278C263.933,-267.365 247.856,-245.317 235.416,-228.256"/>
<polygon fill="black" stroke="black" points="238.008,-225.87 229.288,-219.852 232.352,-229.995 238.008,-225.87"/>
<text text-anchor="middle" x="260.5" y="-245.4" font-family="Times Roman,serif" font-size="14.00">b</text>
</g>
<!-- q6 -->
<g id="node19" class="node"><title>q6</title>
<ellipse fill="none" stroke="black" cx="286" cy="-671" rx="27" ry="18.3848"/>
<text text-anchor="middle" x="286" y="-667.4" font-family="Times Roman,serif" font-size="14.00">q6</text>
</g>
<!-- q6&#45;&gt;q0 -->
<g id="edge22" class="edge"><title>q6&#45;&gt;q0</title>
<path fill="none" stroke="black" d="M266.116,-658.208C241.464,-642.347 199.282,-615.209 171.271,-597.188"/>
<polygon fill="black" stroke="black" points="173.018,-594.151 162.715,-591.684 169.231,-600.038 173.018,-594.151"/>
<text text-anchor="middle" x="231.5" y="-621.4" font-family="Times Roman,serif" font-size="14.00">b</text>
</g>
<!-- q6&#45;&gt;q10 -->
<g id="edge24" class="edge"><title>q6&#45;&gt;q10</title>
<path fill="none" stroke="black" d="M302.198,-656.085C318.736,-639.153 342,-609.853 342,-579 342,-579 342,-579 342,-111 342,-76.5702 241.312,-44.117 184.639,-28.5776"/>
<polygon fill="black" stroke="black" points="185.505,-25.186 174.939,-25.9647 183.684,-31.9451 185.505,-25.186"/>
<text text-anchor="middle" x="346.5" y="-345.4" font-family="Times Roman,serif" font-size="14.00">a</text>
</g>
<!-- q9 -->
<g id="node24" class="node"><title>q9</title>
<ellipse fill="none" stroke="black" cx="252" cy="-579" rx="27" ry="18.3848"/>
<text text-anchor="middle" x="252" y="-575.4" font-family="Times Roman,serif" font-size="14.00">q9</text>
</g>
<!-- q9&#45;&gt;q3 -->
<g id="edge30" class="edge"><title>q9&#45;&gt;q3</title>
<path fill="none" stroke="black" d="M232.521,-566.014C208.891,-550.261 168.884,-523.59 141.965,-505.643"/>
<polygon fill="black" stroke="black" points="143.642,-502.555 133.38,-499.92 139.759,-508.379 143.642,-502.555"/>
<text text-anchor="middle" x="199.5" y="-529.4" font-family="Times Roman,serif" font-size="14.00">b</text>
</g>
<!-- q9&#45;&gt;q5 -->
<g id="edge32" class="edge"><title>q9&#45;&gt;q5</title>
<path fill="none" stroke="black" d="M254.351,-560.194C260.341,-512.274 276.209,-385.328 283.385,-327.918"/>
<polygon fill="black" stroke="black" points="286.892,-328.081 284.659,-317.725 279.946,-327.213 286.892,-328.081"/>
<text text-anchor="middle" x="274.5" y="-437.4" font-family="Times Roman,serif" font-size="14.00">a</text>
</g>
</g>
</svg>
