<?xml version="1.0" encoding="UTF-8" standalone="no"?>
<!DOCTYPE svg PUBLIC "-//W3C//DTD SVG 1.1//EN"
 "http://www.w3.org/Graphics/SVG/1.1/DTD/svg11.dtd">
<!-- Generated by graphviz version 2.26.3 (20100126.1600)
 -->
<!-- Title: G Pages: 1 -->
<svg width="189pt" height="502pt"
 viewBox="0.00 0.00 189.00 502.00" xmlns="http://www.w3.org/2000/svg" xmlns:xlink="http://www.w3.org/1999/xlink">
<g id="graph1" class="graph" transform="scale(1 1) rotate(0) translate(4 498)">
<title>G</title>
<polygon fill="white" stroke="white" points="-4,5 -4,-498 186,-498 186,5 -4,5"/>
<!-- q6 -->
<g id="node1" class="node"><title>q6</title>
<ellipse fill="none" stroke="black" cx="112" cy="-476" rx="27" ry="18"/>
<text text-anchor="middle" x="112" y="-471.9" font-family="Times Roman,serif" font-size="14.00">q6</text>
</g>
<!-- q6&#45;&gt;q6 -->
<g id="edge2" class="edge"><title>q6&#45;&gt;q6</title>
<path fill="none" stroke="black" d="M136.532,-484.121C147.508,-484.895 157,-482.188 157,-476 157,-471.843 152.715,-469.257 146.574,-468.242"/>
<polygon fill="black" stroke="black" points="146.652,-464.742 136.532,-467.879 146.4,-471.738 146.652,-464.742"/>
<text text-anchor="middle" x="161.5" y="-471.9" font-family="Times Roman,serif" font-size="14.00">b</text>
</g>
<!-- q4 -->
<g id="node4" class="node"><title>q4</title>
<ellipse fill="none" stroke="black" cx="112" cy="-386" rx="27" ry="18"/>
<text text-anchor="middle" x="112" y="-381.9" font-family="Times Roman,serif" font-size="14.00">q4</text>
</g>
<!-- q6&#45;&gt;q4 -->
<g id="edge4" class="edge"><title>q6&#45;&gt;q4</title>
<path fill="none" stroke="black" d="M112,-457.787C112,-445.344 112,-428.605 112,-414.421"/>
<polygon fill="black" stroke="black" points="115.5,-414.186 112,-404.186 108.5,-414.186 115.5,-414.186"/>
<text text-anchor="middle" x="116.5" y="-426.9" font-family="Times Roman,serif" font-size="14.00">a</text>
</g>
<!-- q3 -->
<g id="node9" class="node"><title>q3</title>
<ellipse fill="none" stroke="black" cx="27" cy="-296" rx="27" ry="18"/>
<text text-anchor="middle" x="27" y="-291.9" font-family="Times Roman,serif" font-size="14.00">q3</text>
</g>
<!-- q4&#45;&gt;q3 -->
<g id="edge16" class="edge"><title>q4&#45;&gt;q3</title>
<path fill="none" stroke="black" d="M93.1278,-372.64C84.7028,-366.251 74.9136,-358.214 67,-350 58.5712,-341.252 50.3816,-330.686 43.631,-321.229"/>
<polygon fill="black" stroke="black" points="46.4513,-319.155 37.8705,-312.94 40.703,-323.149 46.4513,-319.155"/>
<text text-anchor="middle" x="71.5" y="-336.9" font-family="Times Roman,serif" font-size="14.00">a</text>
</g>
<!-- q2 -->
<g id="node10" class="node"><title>q2</title>
<ellipse fill="none" stroke="black" cx="78" cy="-206" rx="27" ry="18"/>
<text text-anchor="middle" x="78" y="-201.9" font-family="Times Roman,serif" font-size="14.00">q2</text>
</g>
<!-- q4&#45;&gt;q2 -->
<g id="edge14" class="edge"><title>q4&#45;&gt;q2</title>
<path fill="none" stroke="black" d="M108.616,-368.083C102.699,-336.761 90.4337,-271.825 83.3547,-234.349"/>
<polygon fill="black" stroke="black" points="86.7165,-233.288 81.4211,-224.112 79.8381,-234.588 86.7165,-233.288"/>
<text text-anchor="middle" x="102.5" y="-291.9" font-family="Times Roman,serif" font-size="14.00">b</text>
</g>
<!-- q5 -->
<g id="node5" class="node"><title>q5</title>
<ellipse fill="none" stroke="black" cx="78" cy="-116" rx="27" ry="18"/>
<text text-anchor="middle" x="78" y="-111.9" font-family="Times Roman,serif" font-size="14.00">q5</text>
</g>
<!-- q0 -->
<g id="node7" class="node"><title>q0</title>
<ellipse fill="none" stroke="black" cx="110" cy="-22" rx="27" ry="18"/>
<ellipse fill="none" stroke="black" cx="110" cy="-22" rx="31" ry="22"/>
<text text-anchor="middle" x="110" y="-17.9" font-family="Times Roman,serif" font-size="14.00">q0</text>
</g>
<!-- q5&#45;&gt;q0 -->
<g id="edge6" class="edge"><title>q5&#45;&gt;q0</title>
<path fill="none" stroke="black" d="M75.5431,-97.9876C74.7529,-87.2417 74.9474,-73.4962 79,-62 80.6649,-57.277 83.1253,-52.6741 85.9444,-48.3721"/>
<polygon fill="black" stroke="black" points="88.9822,-50.1493 92.0947,-40.0219 83.3461,-45.998 88.9822,-50.1493"/>
<text text-anchor="middle" x="83.5" y="-66.9" font-family="Times Roman,serif" font-size="14.00">b</text>
</g>
<!-- q5&#45;&gt;q3 -->
<g id="edge8" class="edge"><title>q5&#45;&gt;q3</title>
<path fill="none" stroke="black" d="M65.1736,-132.138C54.777,-146.098 40.6407,-167.251 33,-188 23.5195,-213.745 22.9056,-245.278 24.1259,-267.609"/>
<polygon fill="black" stroke="black" points="20.6473,-268.037 24.8415,-277.767 27.63,-267.545 20.6473,-268.037"/>
<text text-anchor="middle" x="37.5" y="-201.9" font-family="Times Roman,serif" font-size="14.00">a</text>
</g>
<!-- q0&#45;&gt;q4 -->
<g id="edge24" class="edge"><title>q0&#45;&gt;q4</title>
<path fill="none" stroke="black" d="M129.958,-38.8715C148.083,-56.1831 172,-84.9162 172,-116 172,-296 172,-296 172,-296 172,-323.033 153.028,-348.122 136.421,-364.905"/>
<polygon fill="black" stroke="black" points="133.815,-362.555 129.033,-372.009 138.667,-367.6 133.815,-362.555"/>
<text text-anchor="middle" x="176.5" y="-201.9" font-family="Times Roman,serif" font-size="14.00">a</text>
</g>
<!-- q0&#45;&gt;q5 -->
<g id="edge22" class="edge"><title>q0&#45;&gt;q5</title>
<path fill="none" stroke="black" d="M102.66,-43.5618C98.1156,-56.9105 92.2375,-74.1772 87.3602,-88.5045"/>
<polygon fill="black" stroke="black" points="83.9284,-87.7249 84.019,-98.3193 90.5549,-89.9808 83.9284,-87.7249"/>
<text text-anchor="middle" x="99.5" y="-66.9" font-family="Times Roman,serif" font-size="14.00">b</text>
</g>
<!-- q3&#45;&gt;q2 -->
<g id="edge18" class="edge"><title>q3&#45;&gt;q2</title>
<path fill="none" stroke="black" d="M26.5107,-277.948C26.9523,-266.931 28.8882,-252.915 35,-242 38.6626,-235.459 44.0121,-229.596 49.7023,-224.594"/>
<polygon fill="black" stroke="black" points="51.9194,-227.303 57.5466,-218.326 47.5495,-221.834 51.9194,-227.303"/>
<text text-anchor="middle" x="39.5" y="-246.9" font-family="Times Roman,serif" font-size="14.00">b</text>
</g>
<!-- q3&#45;&gt;q2 -->
<g id="edge20" class="edge"><title>q3&#45;&gt;q2</title>
<path fill="none" stroke="black" d="M36.5927,-279.072C44.1435,-265.747 54.7927,-246.954 63.4005,-231.764"/>
<polygon fill="black" stroke="black" points="66.5652,-233.278 68.4503,-222.852 60.475,-229.827 66.5652,-233.278"/>
<text text-anchor="middle" x="62.5" y="-246.9" font-family="Times Roman,serif" font-size="14.00">a</text>
</g>
<!-- q2&#45;&gt;q4 -->
<g id="edge10" class="edge"><title>q2&#45;&gt;q4</title>
<path fill="none" stroke="black" d="M92.3294,-221.717C96.8949,-227.65 101.425,-234.733 104,-242 117.554,-280.256 117.151,-327.798 115.032,-357.529"/>
<polygon fill="black" stroke="black" points="111.533,-357.372 114.196,-367.627 118.509,-357.95 111.533,-357.372"/>
<text text-anchor="middle" x="119.5" y="-291.9" font-family="Times Roman,serif" font-size="14.00">b</text>
</g>
<!-- q2&#45;&gt;q5 -->
<g id="edge12" class="edge"><title>q2&#45;&gt;q5</title>
<path fill="none" stroke="black" d="M78,-187.787C78,-175.344 78,-158.605 78,-144.421"/>
<polygon fill="black" stroke="black" points="81.5001,-144.186 78,-134.186 74.5001,-144.186 81.5001,-144.186"/>
<text text-anchor="middle" x="82.5" y="-156.9" font-family="Times Roman,serif" font-size="14.00">a</text>
</g>
</g>
</svg>
