<?xml version="1.0" encoding="UTF-8" standalone="no"?>
<!DOCTYPE svg PUBLIC "-//W3C//DTD SVG 1.1//EN"
 "http://www.w3.org/Graphics/SVG/1.1/DTD/svg11.dtd">
<!-- Generated by graphviz version 2.26.3 (20100126.1600)
 -->
<!-- Title: G Pages: 1 -->
<svg width="259pt" height="422pt"
 viewBox="0.00 0.00 259.00 422.00" xmlns="http://www.w3.org/2000/svg" xmlns:xlink="http://www.w3.org/1999/xlink">
<g id="graph1" class="graph" transform="scale(1 1) rotate(0) translate(4 418)">
<title>G</title>
<polygon fill="white" stroke="white" points="-4,5 -4,-418 256,-418 256,5 -4,5"/>
<!-- q6 -->
<g id="node1" class="node"><title>q6</title>
<ellipse fill="none" stroke="black" cx="126" cy="-395" rx="27" ry="18.3848"/>
<text text-anchor="middle" x="126" y="-391.4" font-family="Times Roman,serif" font-size="14.00">q6</text>
</g>
<!-- q1 -->
<g id="node3" class="node"><title>q1</title>
<ellipse fill="none" stroke="black" cx="54" cy="-299" rx="27" ry="18.3848"/>
<text text-anchor="middle" x="54" y="-295.4" font-family="Times Roman,serif" font-size="14.00">q1</text>
</g>
<!-- q6&#45;&gt;q1 -->
<g id="edge2" class="edge"><title>q6&#45;&gt;q1</title>
<path fill="none" stroke="black" d="M111.56,-379.134C105.908,-372.714 99.4797,-365.142 94,-358 85.8199,-347.338 77.382,-335.105 70.3771,-324.552"/>
<polygon fill="black" stroke="black" points="73.2793,-322.595 64.867,-316.155 67.4267,-326.436 73.2793,-322.595"/>
<text text-anchor="middle" x="98.5" y="-345.4" font-family="Times Roman,serif" font-size="14.00">b</text>
</g>
<!-- q2 -->
<g id="node5" class="node"><title>q2</title>
<ellipse fill="none" stroke="black" cx="117" cy="-203" rx="27" ry="18.3848"/>
<text text-anchor="middle" x="117" y="-199.4" font-family="Times Roman,serif" font-size="14.00">q2</text>
</g>
<!-- q6&#45;&gt;q2 -->
<g id="edge4" class="edge"><title>q6&#45;&gt;q2</title>
<path fill="none" stroke="black" d="M125.121,-376.241C123.541,-342.531 120.212,-271.521 118.344,-231.674"/>
<polygon fill="black" stroke="black" points="121.834,-231.378 117.87,-221.553 114.842,-231.706 121.834,-231.378"/>
<text text-anchor="middle" x="126.5" y="-295.4" font-family="Times Roman,serif" font-size="14.00">a</text>
</g>
<!-- q1&#45;&gt;q2 -->
<g id="edge16" class="edge"><title>q1&#45;&gt;q2</title>
<path fill="none" stroke="black" d="M65.2631,-281.837C74.9386,-267.094 89.0314,-245.619 100.066,-228.804"/>
<polygon fill="black" stroke="black" points="103.274,-230.295 105.834,-220.014 97.4216,-226.454 103.274,-230.295"/>
<text text-anchor="middle" x="95.5" y="-245.4" font-family="Times Roman,serif" font-size="14.00">a</text>
</g>
<!-- q5 -->
<g id="node6" class="node"><title>q5</title>
<ellipse fill="none" stroke="black" cx="87" cy="-111" rx="27" ry="18.3848"/>
<text text-anchor="middle" x="87" y="-107.4" font-family="Times Roman,serif" font-size="14.00">q5</text>
</g>
<!-- q1&#45;&gt;q5 -->
<g id="edge14" class="edge"><title>q1&#45;&gt;q5</title>
<path fill="none" stroke="black" d="M56.6589,-280.23C59.9537,-257.426 65.8847,-217.806 72,-184 74.6533,-169.333 77.9562,-153.083 80.7868,-139.645"/>
<polygon fill="black" stroke="black" points="84.2757,-140.065 82.9341,-129.556 77.4291,-138.608 84.2757,-140.065"/>
<text text-anchor="middle" x="76.5" y="-199.4" font-family="Times Roman,serif" font-size="14.00">b</text>
</g>
<!-- q2&#45;&gt;q6 -->
<g id="edge10" class="edge"><title>q2&#45;&gt;q6</title>
<path fill="none" stroke="black" d="M126.129,-220.63C128.82,-226.623 131.456,-233.461 133,-240 145.056,-291.071 144.556,-306.072 137,-358 136.575,-360.922 135.97,-363.934 135.26,-366.919"/>
<polygon fill="black" stroke="black" points="131.823,-366.221 132.55,-376.791 138.573,-368.075 131.823,-366.221"/>
<text text-anchor="middle" x="146.5" y="-295.4" font-family="Times Roman,serif" font-size="14.00">b</text>
</g>
<!-- q2&#45;&gt;q5 -->
<g id="edge12" class="edge"><title>q2&#45;&gt;q5</title>
<path fill="none" stroke="black" d="M111.073,-184.824C106.8,-171.719 100.953,-153.789 96.0914,-138.88"/>
<polygon fill="black" stroke="black" points="99.3426,-137.561 92.9147,-129.138 92.6874,-139.731 99.3426,-137.561"/>
<text text-anchor="middle" x="108.5" y="-153.4" font-family="Times Roman,serif" font-size="14.00">a</text>
</g>
<!-- q5&#45;&gt;q5 -->
<g id="edge8" class="edge"><title>q5&#45;&gt;q5</title>
<path fill="none" stroke="black" d="M111.074,-119.454C122.242,-120.377 132,-117.559 132,-111 132,-106.593 127.595,-103.875 121.317,-102.846"/>
<polygon fill="black" stroke="black" points="121.173,-99.3402 111.074,-102.546 120.967,-106.337 121.173,-99.3402"/>
<text text-anchor="middle" x="136.5" y="-107.4" font-family="Times Roman,serif" font-size="14.00">a</text>
</g>
<!-- q3 -->
<g id="node8" class="node"><title>q3</title>
<ellipse fill="none" stroke="black" cx="87" cy="-19" rx="27" ry="18.3848"/>
<text text-anchor="middle" x="87" y="-15.4" font-family="Times Roman,serif" font-size="14.00">q3</text>
</g>
<!-- q5&#45;&gt;q3 -->
<g id="edge6" class="edge"><title>q5&#45;&gt;q3</title>
<path fill="none" stroke="black" d="M87,-92.3824C87,-79.5383 87,-62.2161 87,-47.6269"/>
<polygon fill="black" stroke="black" points="90.5001,-47.5898 87,-37.5899 83.5001,-47.5899 90.5001,-47.5898"/>
<text text-anchor="middle" x="91.5" y="-61.4" font-family="Times Roman,serif" font-size="14.00">b</text>
</g>
<!-- q3&#45;&gt;q1 -->
<g id="edge24" class="edge"><title>q3&#45;&gt;q1</title>
<path fill="none" stroke="black" d="M75.7201,-36.14C67.0392,-50.4163 55.7491,-71.6326 51,-92 36.4655,-154.334 43.6046,-230.116 49.2965,-270.47"/>
<polygon fill="black" stroke="black" points="45.8408,-271.028 50.7712,-280.405 52.7649,-270 45.8408,-271.028"/>
<text text-anchor="middle" x="47.5" y="-153.4" font-family="Times Roman,serif" font-size="14.00">a</text>
</g>
<!-- q3&#45;&gt;q3 -->
<g id="edge22" class="edge"><title>q3&#45;&gt;q3</title>
<path fill="none" stroke="black" d="M111.074,-27.4544C122.242,-28.3767 132,-25.5586 132,-19 132,-14.5934 127.595,-11.8754 121.317,-10.8458"/>
<polygon fill="black" stroke="black" points="121.173,-7.34018 111.074,-10.5456 120.967,-14.3372 121.173,-7.34018"/>
<text text-anchor="middle" x="136.5" y="-15.4" font-family="Times Roman,serif" font-size="14.00">b</text>
</g>
<!-- q4 -->
<g id="node14" class="node"><title>q4</title>
<ellipse fill="none" stroke="black" cx="220" cy="-299" rx="27" ry="18.3848"/>
<ellipse fill="none" stroke="black" cx="220" cy="-299" rx="31" ry="22.3848"/>
<text text-anchor="middle" x="220" y="-295.4" font-family="Times Roman,serif" font-size="14.00">q4</text>
</g>
<!-- q4&#45;&gt;q2 -->
<g id="edge18" class="edge"><title>q4&#45;&gt;q2</title>
<path fill="none" stroke="black" d="M206.179,-278.543C197.484,-266.527 185.561,-251.492 173,-240 165.069,-232.744 155.582,-225.913 146.691,-220.142"/>
<polygon fill="black" stroke="black" points="148.41,-217.09 138.077,-214.749 144.695,-223.023 148.41,-217.09"/>
<text text-anchor="middle" x="194.5" y="-245.4" font-family="Times Roman,serif" font-size="14.00">b</text>
</g>
<!-- q4&#45;&gt;q3 -->
<g id="edge20" class="edge"><title>q4&#45;&gt;q3</title>
<path fill="none" stroke="black" d="M215.548,-276.613C207.06,-237.248 186.119,-153.938 150,-92 139.214,-73.5042 123.481,-55.2684 110.435,-41.6495"/>
<polygon fill="black" stroke="black" points="112.625,-38.8837 103.123,-34.1974 107.628,-43.7864 112.625,-38.8837"/>
<text text-anchor="middle" x="187.5" y="-153.4" font-family="Times Roman,serif" font-size="14.00">a</text>
</g>
<!-- q0 -->
<g id="node19" class="node"><title>q0</title>
<ellipse fill="none" stroke="black" cx="27" cy="-395" rx="27" ry="18.3848"/>
<text text-anchor="middle" x="27" y="-391.4" font-family="Times Roman,serif" font-size="14.00">q0</text>
</g>
<!-- q0&#45;&gt;q1 -->
<g id="edge26" class="edge"><title>q0&#45;&gt;q1</title>
<path fill="none" stroke="black" d="M32.2059,-376.49C36.1279,-362.545 41.5747,-343.179 46.0419,-327.296"/>
<polygon fill="black" stroke="black" points="49.4719,-328.027 48.8101,-317.453 42.7333,-326.132 49.4719,-328.027"/>
<text text-anchor="middle" x="46.5" y="-345.4" font-family="Times Roman,serif" font-size="14.00">b</text>
</g>
<!-- q0&#45;&gt;q0 -->
<g id="edge28" class="edge"><title>q0&#45;&gt;q0</title>
<path fill="none" stroke="black" d="M51.0743,-403.454C62.2423,-404.377 72,-401.559 72,-395 72,-390.593 67.5952,-387.875 61.3174,-386.846"/>
<polygon fill="black" stroke="black" points="61.1726,-383.34 51.0743,-386.546 60.9674,-390.337 61.1726,-383.34"/>
<text text-anchor="middle" x="76.5" y="-391.4" font-family="Times Roman,serif" font-size="14.00">a</text>
</g>
</g>
</svg>
