<?xml version="1.0" encoding="UTF-8" standalone="no"?>
<!DOCTYPE svg PUBLIC "-//W3C//DTD SVG 1.1//EN"
 "http://www.w3.org/Graphics/SVG/1.1/DTD/svg11.dtd">
<!-- Generated by graphviz version 2.26.3 (20100126.1600)
 -->
<!-- Title: G Pages: 1 -->
<svg width="232pt" height="430pt"
 viewBox="0.00 0.00 232.00 430.00" xmlns="http://www.w3.org/2000/svg" xmlns:xlink="http://www.w3.org/1999/xlink">
<g id="graph1" class="graph" transform="scale(1 1) rotate(0) translate(4 426)">
<title>G</title>
<polygon fill="white" stroke="white" points="-4,5 -4,-426 229,-426 229,5 -4,5"/>
<!-- q6 -->
<g id="node1" class="node"><title>q6</title>
<ellipse fill="none" stroke="black" cx="75" cy="-404" rx="27" ry="18"/>
<text text-anchor="middle" x="75" y="-399.9" font-family="Times Roman,serif" font-size="14.00">q6</text>
</g>
<!-- q2 -->
<g id="node3" class="node"><title>q2</title>
<ellipse fill="none" stroke="black" cx="75" cy="-314" rx="27" ry="18"/>
<text text-anchor="middle" x="75" y="-309.9" font-family="Times Roman,serif" font-size="14.00">q2</text>
</g>
<!-- q6&#45;&gt;q2 -->
<g id="edge2" class="edge"><title>q6&#45;&gt;q2</title>
<path fill="none" stroke="black" d="M75,-385.787C75,-373.344 75,-356.605 75,-342.421"/>
<polygon fill="black" stroke="black" points="78.5001,-342.186 75,-332.186 71.5001,-342.186 78.5001,-342.186"/>
<text text-anchor="middle" x="79.5" y="-354.9" font-family="Times Roman,serif" font-size="14.00">b</text>
</g>
<!-- q4 -->
<g id="node5" class="node"><title>q4</title>
<ellipse fill="none" stroke="black" cx="54" cy="-18" rx="27" ry="18"/>
<text text-anchor="middle" x="54" y="-13.9" font-family="Times Roman,serif" font-size="14.00">q4</text>
</g>
<!-- q6&#45;&gt;q4 -->
<g id="edge4" class="edge"><title>q6&#45;&gt;q4</title>
<path fill="none" stroke="black" d="M54.9014,-391.791C32.6855,-376.586 0,-348.373 0,-314 0,-314 0,-314 0,-112 0,-84.9072 17.0748,-58.561 32.0215,-40.6886"/>
<polygon fill="black" stroke="black" points="34.7122,-42.9287 38.6702,-33.1009 29.4474,-38.3154 34.7122,-42.9287"/>
<text text-anchor="middle" x="4.5" y="-219.9" font-family="Times Roman,serif" font-size="14.00">a</text>
</g>
<!-- q5 -->
<g id="node6" class="node"><title>q5</title>
<ellipse fill="none" stroke="black" cx="138" cy="-224" rx="27" ry="18"/>
<text text-anchor="middle" x="138" y="-219.9" font-family="Times Roman,serif" font-size="14.00">q5</text>
</g>
<!-- q2&#45;&gt;q5 -->
<g id="edge16" class="edge"><title>q2&#45;&gt;q5</title>
<path fill="none" stroke="black" d="M86.5552,-297.493C96.0575,-283.918 109.673,-264.467 120.51,-248.985"/>
<polygon fill="black" stroke="black" points="123.651,-250.602 126.518,-240.403 117.916,-246.588 123.651,-250.602"/>
<text text-anchor="middle" x="116.5" y="-264.9" font-family="Times Roman,serif" font-size="14.00">a</text>
</g>
<!-- q7 -->
<g id="node10" class="node"><title>q7</title>
<ellipse fill="none" stroke="black" cx="79" cy="-170" rx="27" ry="18"/>
<text text-anchor="middle" x="79" y="-165.9" font-family="Times Roman,serif" font-size="14.00">q7</text>
</g>
<!-- q2&#45;&gt;q7 -->
<g id="edge14" class="edge"><title>q2&#45;&gt;q7</title>
<path fill="none" stroke="black" d="M75.5066,-295.762C76.1889,-271.201 77.4098,-227.247 78.2124,-198.354"/>
<polygon fill="black" stroke="black" points="81.7184,-198.183 78.4975,-188.09 74.7211,-197.989 81.7184,-198.183"/>
<text text-anchor="middle" x="81.5" y="-264.9" font-family="Times Roman,serif" font-size="14.00">b</text>
</g>
<!-- q4&#45;&gt;q2 -->
<g id="edge18" class="edge"><title>q4&#45;&gt;q2</title>
<path fill="none" stroke="black" d="M49.7519,-35.9353C42.9852,-67.0124 31.2741,-132.837 39,-188 43.8812,-222.852 56.0076,-261.59 64.8413,-286.793"/>
<polygon fill="black" stroke="black" points="61.6124,-288.158 68.2774,-296.394 68.203,-285.799 61.6124,-288.158"/>
<text text-anchor="middle" x="43.5" y="-165.9" font-family="Times Roman,serif" font-size="14.00">b</text>
</g>
<!-- q4&#45;&gt;q4 -->
<g id="edge20" class="edge"><title>q4&#45;&gt;q4</title>
<path fill="none" stroke="black" d="M78.5325,-26.1211C89.5078,-26.8945 99,-24.1875 99,-18 99,-13.8428 94.7151,-11.2567 88.5743,-10.2417"/>
<polygon fill="black" stroke="black" points="88.6524,-6.74237 78.5325,-9.87891 88.3995,-13.7378 88.6524,-6.74237"/>
<text text-anchor="middle" x="103.5" y="-13.9" font-family="Times Roman,serif" font-size="14.00">a</text>
</g>
<!-- q5&#45;&gt;q6 -->
<g id="edge8" class="edge"><title>q5&#45;&gt;q6</title>
<path fill="none" stroke="black" d="M134.765,-241.943C130.565,-263.67 122.399,-301.185 111,-332 105.186,-347.715 96.9217,-364.504 89.7771,-377.913"/>
<polygon fill="black" stroke="black" points="86.5292,-376.559 84.8237,-387.015 92.6778,-379.905 86.5292,-376.559"/>
<text text-anchor="middle" x="126.5" y="-309.9" font-family="Times Roman,serif" font-size="14.00">a</text>
</g>
<!-- q3 -->
<g id="node8" class="node"><title>q3</title>
<ellipse fill="none" stroke="black" cx="155" cy="-112" rx="27" ry="18"/>
<ellipse fill="none" stroke="black" cx="155" cy="-112" rx="31" ry="22"/>
<text text-anchor="middle" x="155" y="-107.9" font-family="Times Roman,serif" font-size="14.00">q3</text>
</g>
<!-- q5&#45;&gt;q3 -->
<g id="edge6" class="edge"><title>q5&#45;&gt;q3</title>
<path fill="none" stroke="black" d="M140.731,-206.005C143.257,-189.366 147.069,-164.25 150.118,-144.164"/>
<polygon fill="black" stroke="black" points="153.591,-144.602 151.632,-134.19 146.671,-143.552 153.591,-144.602"/>
<text text-anchor="middle" x="152.5" y="-165.9" font-family="Times Roman,serif" font-size="14.00">b</text>
</g>
<!-- q3&#45;&gt;q4 -->
<g id="edge22" class="edge"><title>q3&#45;&gt;q4</title>
<path fill="none" stroke="black" d="M137.773,-93.466C126.711,-81.8204 111.867,-66.6599 98,-54 92.2871,-48.7845 85.9481,-43.3883 79.9019,-38.4107"/>
<polygon fill="black" stroke="black" points="81.8957,-35.5213 71.9248,-31.9391 77.4855,-40.9574 81.8957,-35.5213"/>
<text text-anchor="middle" x="119.5" y="-58.9" font-family="Times Roman,serif" font-size="14.00">b</text>
</g>
<!-- q0 -->
<g id="node19" class="node"><title>q0</title>
<ellipse fill="none" stroke="black" cx="170" cy="-18" rx="27" ry="18"/>
<text text-anchor="middle" x="170" y="-13.9" font-family="Times Roman,serif" font-size="14.00">q0</text>
</g>
<!-- q3&#45;&gt;q0 -->
<g id="edge24" class="edge"><title>q3&#45;&gt;q0</title>
<path fill="none" stroke="black" d="M152.981,-90.0417C152.485,-79.1087 152.65,-65.7499 155,-54 155.617,-50.9127 156.506,-47.7592 157.545,-44.6654"/>
<polygon fill="black" stroke="black" points="160.887,-45.7291 161.24,-35.1401 154.361,-43.1977 160.887,-45.7291"/>
<text text-anchor="middle" x="159.5" y="-58.9" font-family="Times Roman,serif" font-size="14.00">a</text>
</g>
<!-- q7&#45;&gt;q4 -->
<g id="edge10" class="edge"><title>q7&#45;&gt;q4</title>
<path fill="none" stroke="black" d="M76.034,-151.967C71.73,-125.798 63.7132,-77.0561 58.6278,-46.1368"/>
<polygon fill="black" stroke="black" points="62.0388,-45.3092 56.9621,-36.0098 55.1316,-46.4453 62.0388,-45.3092"/>
<text text-anchor="middle" x="77.5" y="-107.9" font-family="Times Roman,serif" font-size="14.00">b</text>
</g>
<!-- q7&#45;&gt;q7 -->
<g id="edge12" class="edge"><title>q7&#45;&gt;q7</title>
<path fill="none" stroke="black" d="M101.691,-179.769C113.424,-181.272 124,-178.016 124,-170 124,-164.489 119.001,-161.228 112.064,-160.216"/>
<polygon fill="black" stroke="black" points="111.686,-156.717 101.691,-160.231 111.696,-163.717 111.686,-156.717"/>
<text text-anchor="middle" x="128.5" y="-165.9" font-family="Times Roman,serif" font-size="14.00">a</text>
</g>
<!-- q0&#45;&gt;q3 -->
<g id="edge26" class="edge"><title>q0&#45;&gt;q3</title>
<path fill="none" stroke="black" d="M168.496,-36.0691C167.495,-46.5921 165.995,-60.0921 164,-72 163.552,-74.6721 163.039,-77.4338 162.489,-80.1995"/>
<polygon fill="black" stroke="black" points="159.045,-79.5708 160.391,-90.0797 165.892,-81.0248 159.045,-79.5708"/>
<text text-anchor="middle" x="170.5" y="-58.9" font-family="Times Roman,serif" font-size="14.00">b</text>
</g>
<!-- q0&#45;&gt;q0 -->
<g id="edge28" class="edge"><title>q0&#45;&gt;q0</title>
<path fill="none" stroke="black" d="M194.532,-26.1211C205.508,-26.8945 215,-24.1875 215,-18 215,-13.8428 210.715,-11.2567 204.574,-10.2417"/>
<polygon fill="black" stroke="black" points="204.652,-6.74237 194.532,-9.87891 204.4,-13.7378 204.652,-6.74237"/>
<text text-anchor="middle" x="219.5" y="-13.9" font-family="Times Roman,serif" font-size="14.00">a</text>
</g>
</g>
</svg>
