<?xml version="1.0" encoding="UTF-8" standalone="no"?>
<!DOCTYPE svg PUBLIC "-//W3C//DTD SVG 1.1//EN"
 "http://www.w3.org/Graphics/SVG/1.1/DTD/svg11.dtd">
<!-- Generated by graphviz version 2.26.3 (20100126.1600)
 -->
<!-- Title: G Pages: 1 -->
<svg width="237pt" height="606pt"
 viewBox="0.00 0.00 237.00 606.00" xmlns="http://www.w3.org/2000/svg" xmlns:xlink="http://www.w3.org/1999/xlink">
<g id="graph1" class="graph" transform="scale(1 1) rotate(0) translate(4 602)">
<title>G</title>
<polygon fill="white" stroke="white" points="-4,5 -4,-602 234,-602 234,5 -4,5"/>
<!-- q0 -->
<g id="node1" class="node"><title>q0</title>
<ellipse fill="none" stroke="black" cx="27" cy="-487" rx="27" ry="18.3848"/>
<text text-anchor="middle" x="27" y="-483.4" font-family="Times Roman,serif" font-size="14.00">q0</text>
</g>
<!-- q0&#45;&gt;q0 -->
<g id="edge2" class="edge"><title>q0&#45;&gt;q0</title>
<path fill="none" stroke="black" d="M51.0743,-495.454C62.2423,-496.377 72,-493.559 72,-487 72,-482.593 67.5952,-479.875 61.3174,-478.846"/>
<polygon fill="black" stroke="black" points="61.1726,-475.34 51.0743,-478.546 60.9674,-482.337 61.1726,-475.34"/>
<text text-anchor="middle" x="76.5" y="-483.4" font-family="Times Roman,serif" font-size="14.00">b</text>
</g>
<!-- q6 -->
<g id="node4" class="node"><title>q6</title>
<ellipse fill="none" stroke="black" cx="115" cy="-395" rx="27" ry="18.3848"/>
<text text-anchor="middle" x="115" y="-391.4" font-family="Times Roman,serif" font-size="14.00">q6</text>
</g>
<!-- q0&#45;&gt;q6 -->
<g id="edge4" class="edge"><title>q0&#45;&gt;q6</title>
<path fill="none" stroke="black" d="M41.928,-471.393C55.9609,-456.723 77.1349,-434.586 93.0833,-417.913"/>
<polygon fill="black" stroke="black" points="95.6158,-420.329 99.9988,-410.683 90.5573,-415.49 95.6158,-420.329"/>
<text text-anchor="middle" x="82.5" y="-437.4" font-family="Times Roman,serif" font-size="14.00">a</text>
</g>
<!-- q6&#45;&gt;q6 -->
<g id="edge22" class="edge"><title>q6&#45;&gt;q6</title>
<path fill="none" stroke="black" d="M139.074,-403.454C150.242,-404.377 160,-401.559 160,-395 160,-390.593 155.595,-387.875 149.317,-386.846"/>
<polygon fill="black" stroke="black" points="149.173,-383.34 139.074,-386.546 148.967,-390.337 149.173,-383.34"/>
<text text-anchor="middle" x="164.5" y="-391.4" font-family="Times Roman,serif" font-size="14.00">b</text>
</g>
<!-- q7 -->
<g id="node7" class="node"><title>q7</title>
<ellipse fill="none" stroke="black" cx="101" cy="-303" rx="27" ry="18.3848"/>
<text text-anchor="middle" x="101" y="-299.4" font-family="Times Roman,serif" font-size="14.00">q7</text>
</g>
<!-- q6&#45;&gt;q7 -->
<g id="edge24" class="edge"><title>q6&#45;&gt;q7</title>
<path fill="none" stroke="black" d="M112.167,-376.382C110.212,-363.538 107.576,-346.216 105.356,-331.627"/>
<polygon fill="black" stroke="black" points="108.794,-330.949 103.829,-321.59 101.873,-332.003 108.794,-330.949"/>
<text text-anchor="middle" x="113.5" y="-345.4" font-family="Times Roman,serif" font-size="14.00">a</text>
</g>
<!-- q2 -->
<g id="node5" class="node"><title>q2</title>
<ellipse fill="none" stroke="black" cx="126" cy="-211" rx="27" ry="18.3848"/>
<text text-anchor="middle" x="126" y="-207.4" font-family="Times Roman,serif" font-size="14.00">q2</text>
</g>
<!-- q2&#45;&gt;q7 -->
<g id="edge6" class="edge"><title>q2&#45;&gt;q7</title>
<path fill="none" stroke="black" d="M111.992,-227.216C107.581,-233.32 103.27,-240.587 101,-248 98.4363,-256.373 97.7095,-265.806 97.8324,-274.464"/>
<polygon fill="black" stroke="black" points="94.3401,-274.707 98.3375,-284.518 101.331,-274.355 94.3401,-274.707"/>
<text text-anchor="middle" x="105.5" y="-253.4" font-family="Times Roman,serif" font-size="14.00">b</text>
</g>
<!-- q4 -->
<g id="node9" class="node"><title>q4</title>
<ellipse fill="none" stroke="black" cx="126" cy="-119" rx="27" ry="18.3848"/>
<text text-anchor="middle" x="126" y="-115.4" font-family="Times Roman,serif" font-size="14.00">q4</text>
</g>
<!-- q2&#45;&gt;q4 -->
<g id="edge8" class="edge"><title>q2&#45;&gt;q4</title>
<path fill="none" stroke="black" d="M126,-192.382C126,-179.538 126,-162.216 126,-147.627"/>
<polygon fill="black" stroke="black" points="129.5,-147.59 126,-137.59 122.5,-147.59 129.5,-147.59"/>
<text text-anchor="middle" x="130.5" y="-161.4" font-family="Times Roman,serif" font-size="14.00">a</text>
</g>
<!-- q7&#45;&gt;q2 -->
<g id="edge26" class="edge"><title>q7&#45;&gt;q2</title>
<path fill="none" stroke="black" d="M106.059,-284.382C109.572,-271.454 114.318,-253.988 118.299,-239.339"/>
<polygon fill="black" stroke="black" points="121.789,-239.844 121.034,-229.276 115.034,-238.008 121.789,-239.844"/>
<text text-anchor="middle" x="119.5" y="-253.4" font-family="Times Roman,serif" font-size="14.00">b</text>
</g>
<!-- q7&#45;&gt;q7 -->
<g id="edge28" class="edge"><title>q7&#45;&gt;q7</title>
<path fill="none" stroke="black" d="M125.074,-311.454C136.242,-312.377 146,-309.559 146,-303 146,-298.593 141.595,-295.875 135.317,-294.846"/>
<polygon fill="black" stroke="black" points="135.173,-291.34 125.074,-294.546 134.967,-298.337 135.173,-291.34"/>
<text text-anchor="middle" x="150.5" y="-299.4" font-family="Times Roman,serif" font-size="14.00">a</text>
</g>
<!-- q8 -->
<g id="node15" class="node"><title>q8</title>
<ellipse fill="none" stroke="black" cx="144" cy="-23" rx="27" ry="18.3848"/>
<ellipse fill="none" stroke="black" cx="144" cy="-23" rx="31" ry="22.3848"/>
<text text-anchor="middle" x="144" y="-19.4" font-family="Times Roman,serif" font-size="14.00">q8</text>
</g>
<!-- q4&#45;&gt;q8 -->
<g id="edge14" class="edge"><title>q4&#45;&gt;q8</title>
<path fill="none" stroke="black" d="M129.471,-100.49C131.861,-87.7407 135.101,-70.459 137.915,-55.451"/>
<polygon fill="black" stroke="black" points="141.377,-55.9815 139.78,-45.5077 134.497,-54.6914 141.377,-55.9815"/>
<text text-anchor="middle" x="140.5" y="-69.4" font-family="Times Roman,serif" font-size="14.00">b</text>
</g>
<!-- q9 -->
<g id="node17" class="node"><title>q9</title>
<ellipse fill="none" stroke="black" cx="64" cy="-23" rx="27" ry="18.3848"/>
<ellipse fill="none" stroke="black" cx="64" cy="-23" rx="31" ry="22.3848"/>
<text text-anchor="middle" x="64" y="-19.4" font-family="Times Roman,serif" font-size="14.00">q9</text>
</g>
<!-- q4&#45;&gt;q9 -->
<g id="edge16" class="edge"><title>q4&#45;&gt;q9</title>
<path fill="none" stroke="black" d="M114.916,-101.837C106.04,-88.0947 93.388,-68.5041 82.9166,-52.2901"/>
<polygon fill="black" stroke="black" points="85.7267,-50.19 77.3613,-43.6884 79.8464,-53.9877 85.7267,-50.19"/>
<text text-anchor="middle" x="104.5" y="-69.4" font-family="Times Roman,serif" font-size="14.00">a</text>
</g>
<!-- q3 -->
<g id="node10" class="node"><title>q3</title>
<ellipse fill="none" stroke="black" cx="150" cy="-579" rx="27" ry="18.3848"/>
<text text-anchor="middle" x="150" y="-575.4" font-family="Times Roman,serif" font-size="14.00">q3</text>
</g>
<!-- q3&#45;&gt;q6 -->
<g id="edge12" class="edge"><title>q3&#45;&gt;q6</title>
<path fill="none" stroke="black" d="M142.857,-561.003C137.365,-546.41 130.054,-525.188 126,-506 120.186,-478.482 117.429,-446.462 116.131,-423.904"/>
<polygon fill="black" stroke="black" points="119.613,-423.459 115.604,-413.651 112.622,-423.818 119.613,-423.459"/>
<text text-anchor="middle" x="130.5" y="-483.4" font-family="Times Roman,serif" font-size="14.00">a</text>
</g>
<!-- q5 -->
<g id="node12" class="node"><title>q5</title>
<ellipse fill="none" stroke="black" cx="171" cy="-487" rx="27" ry="18.3848"/>
<text text-anchor="middle" x="171" y="-483.4" font-family="Times Roman,serif" font-size="14.00">q5</text>
</g>
<!-- q3&#45;&gt;q5 -->
<g id="edge10" class="edge"><title>q3&#45;&gt;q5</title>
<path fill="none" stroke="black" d="M148.171,-560.367C147.644,-549.573 147.894,-535.823 151,-524 151.966,-520.323 153.366,-516.611 154.984,-513.031"/>
<polygon fill="black" stroke="black" points="158.179,-514.471 159.626,-503.976 151.95,-511.278 158.179,-514.471"/>
<text text-anchor="middle" x="155.5" y="-529.4" font-family="Times Roman,serif" font-size="14.00">b</text>
</g>
<!-- q5&#45;&gt;q6 -->
<g id="edge18" class="edge"><title>q5&#45;&gt;q6</title>
<path fill="none" stroke="black" d="M160.467,-469.696C152.097,-455.946 140.262,-436.501 130.764,-420.898"/>
<polygon fill="black" stroke="black" points="133.675,-418.949 125.486,-412.227 127.696,-422.589 133.675,-418.949"/>
<text text-anchor="middle" x="152.5" y="-437.4" font-family="Times Roman,serif" font-size="14.00">b</text>
</g>
<!-- q5&#45;&gt;q3 -->
<g id="edge20" class="edge"><title>q5&#45;&gt;q3</title>
<path fill="none" stroke="black" d="M167.637,-505.399C165.6,-516.116 162.85,-529.866 160,-542 159.33,-544.854 158.594,-547.822 157.835,-550.78"/>
<polygon fill="black" stroke="black" points="154.406,-550.055 155.227,-560.618 161.173,-551.848 154.406,-550.055"/>
<text text-anchor="middle" x="167.5" y="-529.4" font-family="Times Roman,serif" font-size="14.00">a</text>
</g>
<!-- q8&#45;&gt;q8 -->
<g id="edge30" class="edge"><title>q8&#45;&gt;q8</title>
<path fill="none" stroke="black" d="M174.625,-27.6875C184.833,-27.6875 193,-26.125 193,-23 193,-21.0469 189.81,-19.7041 184.925,-18.9717"/>
<polygon fill="black" stroke="black" points="184.828,-15.4584 174.625,-18.3125 184.381,-22.4441 184.828,-15.4584"/>
<text text-anchor="middle" x="197.5" y="-19.4" font-family="Times Roman,serif" font-size="14.00">b</text>
</g>
<!-- q8&#45;&gt;q8 -->
<g id="edge32" class="edge"><title>q8&#45;&gt;q8</title>
<path fill="none" stroke="black" d="M167.347,-37.9505C188.424,-45.2237 211,-40.2402 211,-23 211,-8.45355 194.928,-2.63284 177.245,-5.53787"/>
<polygon fill="black" stroke="black" points="176.179,-2.19731 167.347,-8.04948 177.901,-8.98227 176.179,-2.19731"/>
<text text-anchor="middle" x="215.5" y="-19.4" font-family="Times Roman,serif" font-size="14.00">a</text>
</g>
<!-- q9&#45;&gt;q0 -->
<g id="edge34" class="edge"><title>q9&#45;&gt;q0</title>
<path fill="none" stroke="black" d="M51.2064,-43.8903C40.8589,-62.7946 28,-91.766 28,-119 28,-395 28,-395 28,-395 28,-416.131 27.7329,-439.991 27.4749,-458.117"/>
<polygon fill="black" stroke="black" points="23.9722,-458.272 27.3219,-468.323 30.9714,-458.377 23.9722,-458.272"/>
<text text-anchor="middle" x="32.5" y="-253.4" font-family="Times Roman,serif" font-size="14.00">b</text>
</g>
<!-- q9&#45;&gt;q7 -->
<g id="edge36" class="edge"><title>q9&#45;&gt;q7</title>
<path fill="none" stroke="black" d="M66.2914,-45.5132C70.7738,-88.4916 81.375,-185.152 94,-266 94.4296,-268.751 94.9101,-271.611 95.4125,-274.468"/>
<polygon fill="black" stroke="black" points="92.0245,-275.396 97.2773,-284.597 98.9088,-274.128 92.0245,-275.396"/>
<text text-anchor="middle" x="85.5" y="-161.4" font-family="Times Roman,serif" font-size="14.00">a</text>
</g>
</g>
</svg>
