<?xml version="1.0" encoding="UTF-8" standalone="no"?>
<!DOCTYPE svg PUBLIC "-//W3C//DTD SVG 1.1//EN"
 "http://www.w3.org/Graphics/SVG/1.1/DTD/svg11.dtd">
<!-- Generated by graphviz version 2.26.3 (20100126.1600)
 -->
<!-- Title: G Pages: 1 -->
<svg width="309pt" height="430pt"
 viewBox="0.00 0.00 309.00 430.00" xmlns="http://www.w3.org/2000/svg" xmlns:xlink="http://www.w3.org/1999/xlink">
<g id="graph1" class="graph" transform="scale(1 1) rotate(0) translate(4 426)">
<title>G</title>
<polygon fill="white" stroke="white" points="-4,5 -4,-426 306,-426 306,5 -4,5"/>
<!-- q6 -->
<g id="node1" class="node"><title>q6</title>
<ellipse fill="none" stroke="black" cx="27" cy="-404" rx="27" ry="18"/>
<text text-anchor="middle" x="27" y="-399.9" font-family="Times Roman,serif" font-size="14.00">q6</text>
</g>
<!-- q2 -->
<g id="node3" class="node"><title>q2</title>
<ellipse fill="none" stroke="black" cx="72" cy="-314" rx="27" ry="18"/>
<text text-anchor="middle" x="72" y="-309.9" font-family="Times Roman,serif" font-size="14.00">q2</text>
</g>
<!-- q6&#45;&gt;q2 -->
<g id="edge2" class="edge"><title>q6&#45;&gt;q2</title>
<path fill="none" stroke="black" d="M35.6765,-386.647C42.2131,-373.574 51.2911,-355.418 58.7365,-340.527"/>
<polygon fill="black" stroke="black" points="62.0085,-341.809 63.3502,-331.3 55.7475,-338.679 62.0085,-341.809"/>
<text text-anchor="middle" x="57.5" y="-354.9" font-family="Times Roman,serif" font-size="14.00">b</text>
</g>
<!-- q4 -->
<g id="node5" class="node"><title>q4</title>
<ellipse fill="none" stroke="black" cx="120" cy="-18" rx="27" ry="18"/>
<text text-anchor="middle" x="120" y="-13.9" font-family="Times Roman,serif" font-size="14.00">q4</text>
</g>
<!-- q6&#45;&gt;q4 -->
<g id="edge4" class="edge"><title>q6&#45;&gt;q4</title>
<path fill="none" stroke="black" d="M18.7734,-386.502C11.1563,-368.673 1,-340.022 1,-314 1,-314 1,-314 1,-112 1,-68.5624 50.428,-42.0706 85.5728,-28.7243"/>
<polygon fill="black" stroke="black" points="86.834,-31.9902 95.0537,-25.3054 84.4593,-25.4052 86.834,-31.9902"/>
<text text-anchor="middle" x="5.5" y="-219.9" font-family="Times Roman,serif" font-size="14.00">a</text>
</g>
<!-- q5 -->
<g id="node6" class="node"><title>q5</title>
<ellipse fill="none" stroke="black" cx="175" cy="-224" rx="27" ry="18"/>
<text text-anchor="middle" x="175" y="-219.9" font-family="Times Roman,serif" font-size="14.00">q5</text>
</g>
<!-- q2&#45;&gt;q5 -->
<g id="edge16" class="edge"><title>q2&#45;&gt;q5</title>
<path fill="none" stroke="black" d="M94.34,-303.763C106.804,-297.409 122.155,-288.467 134,-278 143.319,-269.765 151.93,-259.129 158.83,-249.477"/>
<polygon fill="black" stroke="black" points="161.884,-251.212 164.656,-240.986 156.112,-247.251 161.884,-251.212"/>
<text text-anchor="middle" x="154.5" y="-264.9" font-family="Times Roman,serif" font-size="14.00">a</text>
</g>
<!-- q7 -->
<g id="node10" class="node"><title>q7</title>
<ellipse fill="none" stroke="black" cx="43" cy="-170" rx="27" ry="18"/>
<text text-anchor="middle" x="43" y="-165.9" font-family="Times Roman,serif" font-size="14.00">q7</text>
</g>
<!-- q2&#45;&gt;q7 -->
<g id="edge14" class="edge"><title>q2&#45;&gt;q7</title>
<path fill="none" stroke="black" d="M68.3858,-296.053C63.4364,-271.477 54.4995,-227.101 48.6585,-198.097"/>
<polygon fill="black" stroke="black" points="52.0652,-197.285 46.6598,-188.173 45.203,-198.667 52.0652,-197.285"/>
<text text-anchor="middle" x="68.5" y="-264.9" font-family="Times Roman,serif" font-size="14.00">b</text>
</g>
<!-- q4&#45;&gt;q2 -->
<g id="edge18" class="edge"><title>q4&#45;&gt;q2</title>
<path fill="none" stroke="black" d="M118.099,-36.1807C114.739,-67.3541 107.226,-132.968 98,-188 92.313,-221.924 84.0594,-260.63 78.3851,-286.088"/>
<polygon fill="black" stroke="black" points="74.9051,-285.611 76.1262,-296.135 81.7346,-287.146 74.9051,-285.611"/>
<text text-anchor="middle" x="107.5" y="-165.9" font-family="Times Roman,serif" font-size="14.00">b</text>
</g>
<!-- q4&#45;&gt;q4 -->
<g id="edge20" class="edge"><title>q4&#45;&gt;q4</title>
<path fill="none" stroke="black" d="M144.532,-26.1211C155.508,-26.8945 165,-24.1875 165,-18 165,-13.8428 160.715,-11.2567 154.574,-10.2417"/>
<polygon fill="black" stroke="black" points="154.652,-6.74237 144.532,-9.87891 154.4,-13.7378 154.652,-6.74237"/>
<text text-anchor="middle" x="169.5" y="-13.9" font-family="Times Roman,serif" font-size="14.00">a</text>
</g>
<!-- q5&#45;&gt;q4 -->
<g id="edge8" class="edge"><title>q5&#45;&gt;q4</title>
<path fill="none" stroke="black" d="M171.472,-205.917C165.182,-174.616 151.073,-108.464 134,-54 133.067,-51.0245 132.011,-47.9422 130.908,-44.89"/>
<polygon fill="black" stroke="black" points="134.132,-43.52 127.314,-35.4106 127.587,-46.0019 134.132,-43.52"/>
<text text-anchor="middle" x="159.5" y="-107.9" font-family="Times Roman,serif" font-size="14.00">a</text>
</g>
<!-- q3 -->
<g id="node8" class="node"><title>q3</title>
<ellipse fill="none" stroke="black" cx="228" cy="-112" rx="27" ry="18"/>
<ellipse fill="none" stroke="black" cx="228" cy="-112" rx="31" ry="22"/>
<text text-anchor="middle" x="228" y="-107.9" font-family="Times Roman,serif" font-size="14.00">q3</text>
</g>
<!-- q5&#45;&gt;q3 -->
<g id="edge6" class="edge"><title>q5&#45;&gt;q3</title>
<path fill="none" stroke="black" d="M183.281,-206.5C191.374,-189.398 203.861,-163.011 213.585,-142.462"/>
<polygon fill="black" stroke="black" points="216.855,-143.734 217.969,-133.198 210.528,-140.74 216.855,-143.734"/>
<text text-anchor="middle" x="211.5" y="-165.9" font-family="Times Roman,serif" font-size="14.00">b</text>
</g>
<!-- q3&#45;&gt;q4 -->
<g id="edge22" class="edge"><title>q3&#45;&gt;q4</title>
<path fill="none" stroke="black" d="M213.171,-92.4455C203.602,-80.5503 190.464,-65.4889 177,-54 168.72,-46.9344 158.933,-40.2513 149.828,-34.6054"/>
<polygon fill="black" stroke="black" points="151.406,-31.4708 141.03,-29.3294 147.806,-37.4741 151.406,-31.4708"/>
<text text-anchor="middle" x="199.5" y="-58.9" font-family="Times Roman,serif" font-size="14.00">b</text>
</g>
<!-- q0 -->
<g id="node19" class="node"><title>q0</title>
<ellipse fill="none" stroke="black" cx="247" cy="-18" rx="27" ry="18"/>
<text text-anchor="middle" x="247" y="-13.9" font-family="Times Roman,serif" font-size="14.00">q0</text>
</g>
<!-- q3&#45;&gt;q0 -->
<g id="edge24" class="edge"><title>q3&#45;&gt;q0</title>
<path fill="none" stroke="black" d="M227.84,-89.99C228.182,-79.0444 229.24,-65.6898 232,-54 232.723,-50.9358 233.679,-47.797 234.758,-44.7118"/>
<polygon fill="black" stroke="black" points="238.098,-45.7833 238.496,-35.196 231.582,-43.224 238.098,-45.7833"/>
<text text-anchor="middle" x="236.5" y="-58.9" font-family="Times Roman,serif" font-size="14.00">a</text>
</g>
<!-- q7&#45;&gt;q4 -->
<g id="edge10" class="edge"><title>q7&#45;&gt;q4</title>
<path fill="none" stroke="black" d="M51.6832,-152.859C65.0852,-126.403 90.9078,-75.4288 106.682,-44.2895"/>
<polygon fill="black" stroke="black" points="109.834,-45.8138 111.23,-35.3114 103.589,-42.6504 109.834,-45.8138"/>
<text text-anchor="middle" x="87.5" y="-107.9" font-family="Times Roman,serif" font-size="14.00">b</text>
</g>
<!-- q7&#45;&gt;q7 -->
<g id="edge12" class="edge"><title>q7&#45;&gt;q7</title>
<path fill="none" stroke="black" d="M65.6909,-179.769C77.4238,-181.272 88,-178.016 88,-170 88,-164.489 83.0011,-161.228 76.0642,-160.216"/>
<polygon fill="black" stroke="black" points="75.6859,-156.717 65.6909,-160.231 75.6959,-163.717 75.6859,-156.717"/>
<text text-anchor="middle" x="92.5" y="-165.9" font-family="Times Roman,serif" font-size="14.00">a</text>
</g>
<!-- q0&#45;&gt;q3 -->
<g id="edge26" class="edge"><title>q0&#45;&gt;q3</title>
<path fill="none" stroke="black" d="M245.909,-36.1482C245.046,-46.6976 243.546,-60.1976 241,-72 240.379,-74.8774 239.632,-77.8405 238.813,-80.791"/>
<polygon fill="black" stroke="black" points="235.382,-80.0452 235.833,-90.6304 242.081,-82.0742 235.382,-80.0452"/>
<text text-anchor="middle" x="247.5" y="-58.9" font-family="Times Roman,serif" font-size="14.00">b</text>
</g>
<!-- q0&#45;&gt;q0 -->
<g id="edge28" class="edge"><title>q0&#45;&gt;q0</title>
<path fill="none" stroke="black" d="M271.532,-26.1211C282.508,-26.8945 292,-24.1875 292,-18 292,-13.8428 287.715,-11.2567 281.574,-10.2417"/>
<polygon fill="black" stroke="black" points="281.652,-6.74237 271.532,-9.87891 281.4,-13.7378 281.652,-6.74237"/>
<text text-anchor="middle" x="296.5" y="-13.9" font-family="Times Roman,serif" font-size="14.00">a</text>
</g>
</g>
</svg>
