<?xml version="1.0" encoding="UTF-8" standalone="no"?>
<!DOCTYPE svg PUBLIC "-//W3C//DTD SVG 1.1//EN"
 "http://www.w3.org/Graphics/SVG/1.1/DTD/svg11.dtd">
<!-- Generated by graphviz version 2.26.3 (20100126.1600)
 -->
<!-- Title: G Pages: 1 -->
<svg width="283pt" height="698pt"
 viewBox="0.00 0.00 283.00 698.00" xmlns="http://www.w3.org/2000/svg" xmlns:xlink="http://www.w3.org/1999/xlink">
<g id="graph1" class="graph" transform="scale(1 1) rotate(0) translate(4 694)">
<title>G</title>
<polygon fill="white" stroke="white" points="-4,5 -4,-694 280,-694 280,5 -4,5"/>
<!-- q0 -->
<g id="node1" class="node"><title>q0</title>
<ellipse fill="none" stroke="black" cx="157" cy="-579" rx="27" ry="18.3848"/>
<text text-anchor="middle" x="157" y="-575.4" font-family="Times Roman,serif" font-size="14.00">q0</text>
</g>
<!-- q0&#45;&gt;q0 -->
<g id="edge4" class="edge"><title>q0&#45;&gt;q0</title>
<path fill="none" stroke="black" d="M181.074,-587.454C192.242,-588.377 202,-585.559 202,-579 202,-574.593 197.595,-571.875 191.317,-570.846"/>
<polygon fill="black" stroke="black" points="191.173,-567.34 181.074,-570.546 190.967,-574.337 191.173,-567.34"/>
<text text-anchor="middle" x="206.5" y="-575.4" font-family="Times Roman,serif" font-size="14.00">a</text>
</g>
<!-- q3 -->
<g id="node3" class="node"><title>q3</title>
<ellipse fill="none" stroke="black" cx="89" cy="-487" rx="27" ry="18.3848"/>
<text text-anchor="middle" x="89" y="-483.4" font-family="Times Roman,serif" font-size="14.00">q3</text>
</g>
<!-- q0&#45;&gt;q3 -->
<g id="edge2" class="edge"><title>q0&#45;&gt;q3</title>
<path fill="none" stroke="black" d="M144.528,-562.126C134.175,-548.12 119.3,-527.994 107.55,-512.098"/>
<polygon fill="black" stroke="black" points="110.152,-509.729 101.393,-503.767 104.523,-513.889 110.152,-509.729"/>
<text text-anchor="middle" x="133.5" y="-529.4" font-family="Times Roman,serif" font-size="14.00">b</text>
</g>
<!-- q2 -->
<g id="node5" class="node"><title>q2</title>
<ellipse fill="none" stroke="black" cx="182" cy="-395" rx="27" ry="18.3848"/>
<text text-anchor="middle" x="182" y="-391.4" font-family="Times Roman,serif" font-size="14.00">q2</text>
</g>
<!-- q3&#45;&gt;q2 -->
<g id="edge12" class="edge"><title>q3&#45;&gt;q2</title>
<path fill="none" stroke="black" d="M108.04,-473.435C116.896,-466.775 127.357,-458.391 136,-450 145.629,-440.652 155.307,-429.423 163.284,-419.555"/>
<polygon fill="black" stroke="black" points="166.075,-421.667 169.546,-411.657 160.59,-417.318 166.075,-421.667"/>
<text text-anchor="middle" x="156.5" y="-437.4" font-family="Times Roman,serif" font-size="14.00">a</text>
</g>
<!-- q10 -->
<g id="node11" class="node"><title>q10</title>
<ellipse fill="none" stroke="black" cx="101" cy="-19" rx="29.9071" ry="18.3848"/>
<text text-anchor="middle" x="101" y="-15.4" font-family="Times Roman,serif" font-size="14.00">q10</text>
</g>
<!-- q3&#45;&gt;q10 -->
<g id="edge10" class="edge"><title>q3&#45;&gt;q10</title>
<path fill="none" stroke="black" d="M65.1502,-477.913C51.6175,-471.753 35.2001,-462.455 24,-450 6.16704,-430.168 0,-421.67 0,-395 0,-395 0,-395 0,-111 0,-84.3296 5.48836,-75.1997 24,-56 34.957,-44.6358 50.1134,-36.3254 64.0832,-30.4939"/>
<polygon fill="black" stroke="black" points="65.4389,-33.7222 73.4988,-26.8457 62.9098,-27.195 65.4389,-33.7222"/>
<text text-anchor="middle" x="4.5" y="-245.4" font-family="Times Roman,serif" font-size="14.00">b</text>
</g>
<!-- q4 -->
<g id="node7" class="node"><title>q4</title>
<ellipse fill="none" stroke="black" cx="207" cy="-299" rx="27" ry="18.3848"/>
<ellipse fill="none" stroke="black" cx="207" cy="-299" rx="31" ry="22.3848"/>
<text text-anchor="middle" x="207" y="-295.4" font-family="Times Roman,serif" font-size="14.00">q4</text>
</g>
<!-- q2&#45;&gt;q4 -->
<g id="edge6" class="edge"><title>q2&#45;&gt;q4</title>
<path fill="none" stroke="black" d="M182.529,-376.384C183.205,-365.595 184.705,-351.845 188,-340 188.954,-336.57 190.167,-333.069 191.516,-329.628"/>
<polygon fill="black" stroke="black" points="194.835,-330.772 195.582,-320.203 188.407,-327.999 194.835,-330.772"/>
<text text-anchor="middle" x="192.5" y="-345.4" font-family="Times Roman,serif" font-size="14.00">b</text>
</g>
<!-- q9 -->
<g id="node9" class="node"><title>q9</title>
<ellipse fill="none" stroke="black" cx="131" cy="-299" rx="27" ry="18.3848"/>
<text text-anchor="middle" x="131" y="-295.4" font-family="Times Roman,serif" font-size="14.00">q9</text>
</g>
<!-- q2&#45;&gt;q9 -->
<g id="edge8" class="edge"><title>q2&#45;&gt;q9</title>
<path fill="none" stroke="black" d="M172.646,-377.392C164.953,-362.912 153.931,-342.165 145.158,-325.651"/>
<polygon fill="black" stroke="black" points="148.077,-323.685 140.295,-316.496 141.896,-326.969 148.077,-323.685"/>
<text text-anchor="middle" x="165.5" y="-345.4" font-family="Times Roman,serif" font-size="14.00">a</text>
</g>
<!-- q4&#45;&gt;q2 -->
<g id="edge16" class="edge"><title>q4&#45;&gt;q2</title>
<path fill="none" stroke="black" d="M204.333,-321.669C202.733,-332.75 200.347,-346.207 197,-358 196.092,-361.201 194.997,-364.502 193.817,-367.753"/>
<polygon fill="black" stroke="black" points="190.502,-366.62 190.125,-377.209 197.022,-369.167 190.502,-366.62"/>
<text text-anchor="middle" x="205.5" y="-345.4" font-family="Times Roman,serif" font-size="14.00">a</text>
</g>
<!-- q8 -->
<g id="node14" class="node"><title>q8</title>
<ellipse fill="none" stroke="black" cx="197" cy="-203" rx="27" ry="18.3848"/>
<text text-anchor="middle" x="197" y="-199.4" font-family="Times Roman,serif" font-size="14.00">q8</text>
</g>
<!-- q4&#45;&gt;q8 -->
<g id="edge14" class="edge"><title>q4&#45;&gt;q8</title>
<path fill="none" stroke="black" d="M204.63,-276.249C203.249,-262.994 201.495,-246.148 200.016,-231.954"/>
<polygon fill="black" stroke="black" points="203.467,-231.303 198.95,-221.72 196.505,-232.029 203.467,-231.303"/>
<text text-anchor="middle" x="206.5" y="-245.4" font-family="Times Roman,serif" font-size="14.00">b</text>
</g>
<!-- q9&#45;&gt;q3 -->
<g id="edge30" class="edge"><title>q9&#45;&gt;q3</title>
<path fill="none" stroke="black" d="M126.88,-317.443C119.528,-350.35 104.105,-419.389 95.3758,-458.461"/>
<polygon fill="black" stroke="black" points="91.8682,-458.109 93.1036,-468.631 98.6998,-459.635 91.8682,-458.109"/>
<text text-anchor="middle" x="117.5" y="-391.4" font-family="Times Roman,serif" font-size="14.00">b</text>
</g>
<!-- q5 -->
<g id="node16" class="node"><title>q5</title>
<ellipse fill="none" stroke="black" cx="142" cy="-111" rx="27" ry="18.3848"/>
<text text-anchor="middle" x="142" y="-107.4" font-family="Times Roman,serif" font-size="14.00">q5</text>
</g>
<!-- q9&#45;&gt;q5 -->
<g id="edge32" class="edge"><title>q9&#45;&gt;q5</title>
<path fill="none" stroke="black" d="M132.095,-280.287C134.022,-247.348 138.032,-178.815 140.315,-139.804"/>
<polygon fill="black" stroke="black" points="143.819,-139.825 140.909,-129.638 136.831,-139.416 143.819,-139.825"/>
<text text-anchor="middle" x="141.5" y="-199.4" font-family="Times Roman,serif" font-size="14.00">a</text>
</g>
<!-- q10&#45;&gt;q3 -->
<g id="edge34" class="edge"><title>q10&#45;&gt;q3</title>
<path fill="none" stroke="black" d="M82.4387,-33.8048C63.8552,-50.4247 38,-79.2525 38,-111 38,-395 38,-395 38,-395 38,-420.738 53.4576,-446.021 67.3529,-463.549"/>
<polygon fill="black" stroke="black" points="64.8849,-466.055 73.9742,-471.499 70.2636,-461.575 64.8849,-466.055"/>
<text text-anchor="middle" x="42.5" y="-245.4" font-family="Times Roman,serif" font-size="14.00">b</text>
</g>
<!-- q10&#45;&gt;q3 -->
<g id="edge38" class="edge"><title>q10&#45;&gt;q3</title>
<path fill="none" stroke="black" d="M93.0898,-36.9372C85.7656,-55.2008 76,-84.5177 76,-111 76,-395 76,-395 76,-395 76,-416.44 79.5043,-440.417 82.8741,-458.517"/>
<polygon fill="black" stroke="black" points="79.4589,-459.29 84.8152,-468.431 86.3285,-457.945 79.4589,-459.29"/>
<text text-anchor="middle" x="80.5" y="-245.4" font-family="Times Roman,serif" font-size="14.00">b</text>
</g>
<!-- q10&#45;&gt;q10 -->
<g id="edge36" class="edge"><title>q10&#45;&gt;q10</title>
<path fill="none" stroke="black" d="M130.53,-23.3114C140.748,-23.3571 149,-21.9199 149,-19 149,-17.175 145.777,-15.9293 140.864,-15.2628"/>
<polygon fill="black" stroke="black" points="140.709,-11.7488 130.53,-14.6886 140.32,-18.738 140.709,-11.7488"/>
<text text-anchor="middle" x="153.5" y="-15.4" font-family="Times Roman,serif" font-size="14.00">a</text>
</g>
<!-- q10&#45;&gt;q10 -->
<g id="edge40" class="edge"><title>q10&#45;&gt;q10</title>
<path fill="none" stroke="black" d="M121.611,-32.7671C143.017,-41.1232 167,-36.5342 167,-19 167,-4.06855 149.609,1.47561 131.227,-2.36753"/>
<polygon fill="black" stroke="black" points="130.195,0.977143 121.611,-5.23293 132.194,-5.73135 130.195,0.977143"/>
<text text-anchor="middle" x="171.5" y="-15.4" font-family="Times Roman,serif" font-size="14.00">a</text>
</g>
<!-- q8&#45;&gt;q10 -->
<g id="edge28" class="edge"><title>q8&#45;&gt;q10</title>
<path fill="none" stroke="black" d="M197.683,-184.37C197.705,-161.164 194.957,-121.04 178,-92 165.819,-71.139 145.911,-52.4943 129.39,-39.2695"/>
<polygon fill="black" stroke="black" points="131.168,-36.2195 121.118,-32.8648 126.882,-41.7544 131.168,-36.2195"/>
<text text-anchor="middle" x="195.5" y="-107.4" font-family="Times Roman,serif" font-size="14.00">a</text>
</g>
<!-- q8&#45;&gt;q5 -->
<g id="edge26" class="edge"><title>q8&#45;&gt;q5</title>
<path fill="none" stroke="black" d="M179.906,-188.462C173.278,-182.114 166.077,-174.241 161,-166 155.956,-157.814 152.037,-148.112 149.103,-139.153"/>
<polygon fill="black" stroke="black" points="152.425,-138.048 146.201,-129.474 145.72,-140.058 152.425,-138.048"/>
<text text-anchor="middle" x="165.5" y="-153.4" font-family="Times Roman,serif" font-size="14.00">b</text>
</g>
<!-- q5&#45;&gt;q10 -->
<g id="edge20" class="edge"><title>q5&#45;&gt;q10</title>
<path fill="none" stroke="black" d="M134.095,-93.2615C128.177,-79.9833 119.974,-61.5758 113.215,-46.4097"/>
<polygon fill="black" stroke="black" points="116.288,-44.7073 109.021,-36.998 109.895,-47.5567 116.288,-44.7073"/>
<text text-anchor="middle" x="129.5" y="-61.4" font-family="Times Roman,serif" font-size="14.00">a</text>
</g>
<!-- q5&#45;&gt;q8 -->
<g id="edge18" class="edge"><title>q5&#45;&gt;q8</title>
<path fill="none" stroke="black" d="M155.529,-127.464C160.37,-133.709 165.691,-141.004 170,-148 175.408,-156.779 180.592,-166.796 184.946,-175.854"/>
<polygon fill="black" stroke="black" points="181.91,-177.626 189.316,-185.203 188.252,-174.662 181.91,-177.626"/>
<text text-anchor="middle" x="183.5" y="-153.4" font-family="Times Roman,serif" font-size="14.00">b</text>
</g>
<!-- q6 -->
<g id="node19" class="node"><title>q6</title>
<ellipse fill="none" stroke="black" cx="233" cy="-671" rx="27" ry="18.3848"/>
<text text-anchor="middle" x="233" y="-667.4" font-family="Times Roman,serif" font-size="14.00">q6</text>
</g>
<!-- q6&#45;&gt;q0 -->
<g id="edge22" class="edge"><title>q6&#45;&gt;q0</title>
<path fill="none" stroke="black" d="M219.413,-654.552C207.633,-640.292 190.425,-619.461 177.059,-603.282"/>
<polygon fill="black" stroke="black" points="179.537,-600.786 170.47,-595.305 174.14,-605.244 179.537,-600.786"/>
<text text-anchor="middle" x="205.5" y="-621.4" font-family="Times Roman,serif" font-size="14.00">b</text>
</g>
<!-- q6&#45;&gt;q10 -->
<g id="edge24" class="edge"><title>q6&#45;&gt;q10</title>
<path fill="none" stroke="black" d="M243.261,-653.681C252.948,-635.664 266,-606.32 266,-579 266,-579 266,-579 266,-111 266,-53.894 189.673,-31.9099 140.845,-23.6887"/>
<polygon fill="black" stroke="black" points="141.3,-20.2174 130.88,-22.1356 140.222,-27.1339 141.3,-20.2174"/>
<text text-anchor="middle" x="270.5" y="-345.4" font-family="Times Roman,serif" font-size="14.00">a</text>
</g>
</g>
</svg>
