<?xml version="1.0" encoding="UTF-8" standalone="no"?>
<!DOCTYPE svg PUBLIC "-//W3C//DTD SVG 1.1//EN"
 "http://www.w3.org/Graphics/SVG/1.1/DTD/svg11.dtd">
<!-- Generated by graphviz version 2.26.3 (20100126.1600)
 -->
<!-- Title: G Pages: 1 -->
<svg width="323pt" height="514pt"
 viewBox="0.00 0.00 322.91 514.00" xmlns="http://www.w3.org/2000/svg" xmlns:xlink="http://www.w3.org/1999/xlink">
<g id="graph1" class="graph" transform="scale(1 1) rotate(0) translate(4 510)">
<title>G</title>
<polygon fill="white" stroke="white" points="-4,5 -4,-510 319.91,-510 319.91,5 -4,5"/>
<!-- q6 -->
<g id="node1" class="node"><title>q6</title>
<ellipse fill="none" stroke="black" cx="95.9098" cy="-295" rx="27" ry="18.3848"/>
<text text-anchor="middle" x="95.9098" y="-291.4" font-family="Times Roman,serif" font-size="14.00">q6</text>
</g>
<!-- q4 -->
<g id="node3" class="node"><title>q4</title>
<ellipse fill="none" stroke="black" cx="172.91" cy="-203" rx="27" ry="18.3848"/>
<text text-anchor="middle" x="172.91" y="-199.4" font-family="Times Roman,serif" font-size="14.00">q4</text>
</g>
<!-- q6&#45;&gt;q4 -->
<g id="edge2" class="edge"><title>q6&#45;&gt;q4</title>
<path fill="none" stroke="black" d="M111.952,-280.036C118.674,-273.497 126.418,-265.597 132.91,-258 140.896,-248.654 149.003,-237.811 155.812,-228.236"/>
<polygon fill="black" stroke="black" points="158.794,-230.079 161.658,-219.878 153.058,-226.066 158.794,-230.079"/>
<text text-anchor="middle" x="150.41" y="-245.4" font-family="Times Roman,serif" font-size="14.00">b</text>
</g>
<!-- q2 -->
<g id="node5" class="node"><title>q2</title>
<ellipse fill="none" stroke="black" cx="72.9098" cy="-19" rx="27" ry="18.3848"/>
<text text-anchor="middle" x="72.9098" y="-15.4" font-family="Times Roman,serif" font-size="14.00">q2</text>
</g>
<!-- q6&#45;&gt;q2 -->
<g id="edge4" class="edge"><title>q6&#45;&gt;q2</title>
<path fill="none" stroke="black" d="M70.1372,-288.731C53.5455,-283.345 32.9098,-273.864 20.9098,-258 -4.17526,-224.838 7.70343,-207.408 3.90983,-166 -0.603438,-116.737 -5.68305,-97.7136 20.9098,-56 26.1587,-47.7667 33.9558,-40.8173 41.9248,-35.2435"/>
<polygon fill="black" stroke="black" points="43.9899,-38.0774 50.527,-29.7397 40.2173,-32.181 43.9899,-38.0774"/>
<text text-anchor="middle" x="8.40983" y="-153.4" font-family="Times Roman,serif" font-size="14.00">a</text>
</g>
<!-- q5 -->
<g id="node6" class="node"><title>q5</title>
<ellipse fill="none" stroke="black" cx="139.91" cy="-111" rx="27" ry="18.3848"/>
<text text-anchor="middle" x="139.91" y="-107.4" font-family="Times Roman,serif" font-size="14.00">q5</text>
</g>
<!-- q4&#45;&gt;q5 -->
<g id="edge18" class="edge"><title>q4&#45;&gt;q5</title>
<path fill="none" stroke="black" d="M170.801,-184.48C169.174,-173.6 166.416,-159.726 161.91,-148 160.473,-144.261 158.674,-140.466 156.726,-136.803"/>
<polygon fill="black" stroke="black" points="159.724,-134.995 151.704,-128.072 153.657,-138.486 159.724,-134.995"/>
<text text-anchor="middle" x="171.41" y="-153.4" font-family="Times Roman,serif" font-size="14.00">b</text>
</g>
<!-- q4&#45;&gt;q5 -->
<g id="edge20" class="edge"><title>q4&#45;&gt;q5</title>
<path fill="none" stroke="black" d="M162.369,-185.757C158.984,-179.677 155.456,-172.688 152.91,-166 149.708,-157.591 147.131,-148.148 145.144,-139.491"/>
<polygon fill="black" stroke="black" points="148.511,-138.498 143.008,-129.444 141.664,-139.954 148.511,-138.498"/>
<text text-anchor="middle" x="157.41" y="-153.4" font-family="Times Roman,serif" font-size="14.00">a</text>
</g>
<!-- q2&#45;&gt;q6 -->
<g id="edge14" class="edge"><title>q2&#45;&gt;q6</title>
<path fill="none" stroke="black" d="M65.5509,-36.898C55.0745,-64.3726 37.579,-118.728 41.9098,-166 45.7034,-207.408 39.559,-221.196 58.9098,-258 61.9062,-263.699 66.0794,-269.078 70.5482,-273.878"/>
<polygon fill="black" stroke="black" points="68.1057,-276.385 77.6873,-280.907 73.0167,-271.397 68.1057,-276.385"/>
<text text-anchor="middle" x="46.4098" y="-153.4" font-family="Times Roman,serif" font-size="14.00">b</text>
</g>
<!-- q2&#45;&gt;q6 -->
<g id="edge16" class="edge"><title>q2&#45;&gt;q6</title>
<path fill="none" stroke="black" d="M74.4782,-37.8205C78.4307,-85.2508 88.8193,-209.914 93.5285,-266.424"/>
<polygon fill="black" stroke="black" points="90.0466,-266.788 94.365,-276.462 97.0224,-266.206 90.0466,-266.788"/>
<text text-anchor="middle" x="89.4098" y="-153.4" font-family="Times Roman,serif" font-size="14.00">a</text>
</g>
<!-- q5&#45;&gt;q6 -->
<g id="edge6" class="edge"><title>q5&#45;&gt;q6</title>
<path fill="none" stroke="black" d="M135.482,-129.514C127.759,-161.812 111.779,-228.636 102.666,-266.749"/>
<polygon fill="black" stroke="black" points="99.2114,-266.145 100.29,-276.685 106.019,-267.773 99.2114,-266.145"/>
<text text-anchor="middle" x="126.41" y="-199.4" font-family="Times Roman,serif" font-size="14.00">b</text>
</g>
<!-- q5&#45;&gt;q2 -->
<g id="edge8" class="edge"><title>q5&#45;&gt;q2</title>
<path fill="none" stroke="black" d="M127.621,-94.1258C117.421,-80.1197 102.764,-59.9939 91.1874,-44.0976"/>
<polygon fill="black" stroke="black" points="93.837,-41.7904 85.1208,-35.7672 88.1785,-45.9113 93.837,-41.7904"/>
<text text-anchor="middle" x="116.41" y="-61.4" font-family="Times Roman,serif" font-size="14.00">a</text>
</g>
<!-- q7 -->
<g id="node9" class="node"><title>q7</title>
<ellipse fill="none" stroke="black" cx="161.91" cy="-487" rx="27" ry="18.3848"/>
<text text-anchor="middle" x="161.91" y="-483.4" font-family="Times Roman,serif" font-size="14.00">q7</text>
</g>
<!-- q7&#45;&gt;q7 -->
<g id="edge12" class="edge"><title>q7&#45;&gt;q7</title>
<path fill="none" stroke="black" d="M185.984,-495.454C197.152,-496.377 206.91,-493.559 206.91,-487 206.91,-482.593 202.505,-479.875 196.227,-478.846"/>
<polygon fill="black" stroke="black" points="196.082,-475.34 185.984,-478.546 195.877,-482.337 196.082,-475.34"/>
<text text-anchor="middle" x="211.41" y="-483.4" font-family="Times Roman,serif" font-size="14.00">a</text>
</g>
<!-- q3 -->
<g id="node11" class="node"><title>q3</title>
<ellipse fill="none" stroke="black" cx="194.91" cy="-391" rx="27" ry="18.3848"/>
<ellipse fill="none" stroke="black" cx="194.91" cy="-391" rx="31" ry="22.3848"/>
<text text-anchor="middle" x="194.91" y="-387.4" font-family="Times Roman,serif" font-size="14.00">q3</text>
</g>
<!-- q7&#45;&gt;q3 -->
<g id="edge10" class="edge"><title>q7&#45;&gt;q3</title>
<path fill="none" stroke="black" d="M168.117,-468.943C172.589,-455.933 178.741,-438.037 184.022,-422.674"/>
<polygon fill="black" stroke="black" points="187.399,-423.615 187.34,-413.021 180.779,-421.34 187.399,-423.615"/>
<text text-anchor="middle" x="184.41" y="-437.4" font-family="Times Roman,serif" font-size="14.00">b</text>
</g>
<!-- q3&#45;&gt;q6 -->
<g id="edge24" class="edge"><title>q3&#45;&gt;q6</title>
<path fill="none" stroke="black" d="M176.289,-372.943C160.065,-357.212 136.474,-334.335 119.043,-317.432"/>
<polygon fill="black" stroke="black" points="121.132,-314.583 111.516,-310.134 116.259,-319.608 121.132,-314.583"/>
<text text-anchor="middle" x="155.41" y="-337.4" font-family="Times Roman,serif" font-size="14.00">a</text>
</g>
<!-- q3&#45;&gt;q2 -->
<g id="edge22" class="edge"><title>q3&#45;&gt;q2</title>
<path fill="none" stroke="black" d="M209.25,-370.716C221.073,-351.981 235.91,-322.909 235.91,-295 235.91,-295 235.91,-295 235.91,-111 235.91,-53.4801 157.979,-31.519 109.888,-23.4428"/>
<polygon fill="black" stroke="black" points="110.245,-19.9564 99.826,-21.8808 109.171,-26.8735 110.245,-19.9564"/>
<text text-anchor="middle" x="240.41" y="-199.4" font-family="Times Roman,serif" font-size="14.00">b</text>
</g>
<!-- q0 -->
<g id="node19" class="node"><title>q0</title>
<ellipse fill="none" stroke="black" cx="260.91" cy="-487" rx="27" ry="18.3848"/>
<text text-anchor="middle" x="260.91" y="-483.4" font-family="Times Roman,serif" font-size="14.00">q0</text>
</g>
<!-- q0&#45;&gt;q3 -->
<g id="edge26" class="edge"><title>q0&#45;&gt;q3</title>
<path fill="none" stroke="black" d="M249.11,-469.837C239.6,-456.004 226.015,-436.244 214.826,-419.968"/>
<polygon fill="black" stroke="black" points="217.446,-417.602 208.897,-411.344 211.678,-421.568 217.446,-417.602"/>
<text text-anchor="middle" x="237.41" y="-437.4" font-family="Times Roman,serif" font-size="14.00">b</text>
</g>
<!-- q0&#45;&gt;q0 -->
<g id="edge28" class="edge"><title>q0&#45;&gt;q0</title>
<path fill="none" stroke="black" d="M284.984,-495.454C296.152,-496.377 305.91,-493.559 305.91,-487 305.91,-482.593 301.505,-479.875 295.227,-478.846"/>
<polygon fill="black" stroke="black" points="295.082,-475.34 284.984,-478.546 294.877,-482.337 295.082,-475.34"/>
<text text-anchor="middle" x="310.41" y="-483.4" font-family="Times Roman,serif" font-size="14.00">a</text>
</g>
</g>
</svg>
