<?xml version="1.0" encoding="UTF-8" standalone="no"?>
<!DOCTYPE svg PUBLIC "-//W3C//DTD SVG 1.1//EN"
 "http://www.w3.org/Graphics/SVG/1.1/DTD/svg11.dtd">
<!-- Generated by graphviz version 2.26.3 (20100126.1600)
 -->
<!-- Title: G Pages: 1 -->
<svg width="371pt" height="790pt"
 viewBox="0.00 0.00 371.00 790.00" xmlns="http://www.w3.org/2000/svg" xmlns:xlink="http://www.w3.org/1999/xlink">
<g id="graph1" class="graph" transform="scale(1 1) rotate(0) translate(4 786)">
<title>G</title>
<polygon fill="white" stroke="white" points="-4,5 -4,-786 368,-786 368,5 -4,5"/>
<!-- q0 -->
<g id="node1" class="node"><title>q0</title>
<ellipse fill="none" stroke="black" cx="259" cy="-671" rx="27" ry="18.3848"/>
<text text-anchor="middle" x="259" y="-667.4" font-family="Times Roman,serif" font-size="14.00">q0</text>
</g>
<!-- q0&#45;&gt;q0 -->
<g id="edge4" class="edge"><title>q0&#45;&gt;q0</title>
<path fill="none" stroke="black" d="M283.074,-679.454C294.242,-680.377 304,-677.559 304,-671 304,-666.593 299.595,-663.875 293.317,-662.846"/>
<polygon fill="black" stroke="black" points="293.173,-659.34 283.074,-662.546 292.967,-666.337 293.173,-659.34"/>
<text text-anchor="middle" x="308.5" y="-667.4" font-family="Times Roman,serif" font-size="14.00">a</text>
</g>
<!-- q3 -->
<g id="node3" class="node"><title>q3</title>
<ellipse fill="none" stroke="black" cx="218" cy="-579" rx="27" ry="18.3848"/>
<text text-anchor="middle" x="218" y="-575.4" font-family="Times Roman,serif" font-size="14.00">q3</text>
</g>
<!-- q0&#45;&gt;q3 -->
<g id="edge2" class="edge"><title>q0&#45;&gt;q3</title>
<path fill="none" stroke="black" d="M251.095,-653.261C245.177,-639.983 236.974,-621.576 230.215,-606.41"/>
<polygon fill="black" stroke="black" points="233.288,-604.707 226.021,-596.998 226.895,-607.557 233.288,-604.707"/>
<text text-anchor="middle" x="246.5" y="-621.4" font-family="Times Roman,serif" font-size="14.00">b</text>
</g>
<!-- q2 -->
<g id="node5" class="node"><title>q2</title>
<ellipse fill="none" stroke="black" cx="152" cy="-487" rx="27" ry="18.3848"/>
<text text-anchor="middle" x="152" y="-483.4" font-family="Times Roman,serif" font-size="14.00">q2</text>
</g>
<!-- q3&#45;&gt;q2 -->
<g id="edge12" class="edge"><title>q3&#45;&gt;q2</title>
<path fill="none" stroke="black" d="M205.895,-562.126C195.847,-548.12 181.409,-527.994 170.005,-512.098"/>
<polygon fill="black" stroke="black" points="172.702,-509.852 164.029,-503.767 167.014,-513.933 172.702,-509.852"/>
<text text-anchor="middle" x="194.5" y="-529.4" font-family="Times Roman,serif" font-size="14.00">a</text>
</g>
<!-- q10 -->
<g id="node11" class="node"><title>q10</title>
<ellipse fill="none" stroke="black" cx="178" cy="-203" rx="29.9071" ry="18.3848"/>
<text text-anchor="middle" x="178" y="-199.4" font-family="Times Roman,serif" font-size="14.00">q10</text>
</g>
<!-- q3&#45;&gt;q10 -->
<g id="edge10" class="edge"><title>q3&#45;&gt;q10</title>
<path fill="none" stroke="black" d="M218,-560.322C218,-541.735 218,-512.396 218,-487 218,-487 218,-487 218,-295 218,-271.122 206.527,-246.432 195.87,-228.649"/>
<polygon fill="black" stroke="black" points="198.727,-226.618 190.437,-220.021 192.804,-230.348 198.727,-226.618"/>
<text text-anchor="middle" x="222.5" y="-387.4" font-family="Times Roman,serif" font-size="14.00">b</text>
</g>
<!-- q4 -->
<g id="node7" class="node"><title>q4</title>
<ellipse fill="none" stroke="black" cx="151" cy="-391" rx="27" ry="18.3848"/>
<ellipse fill="none" stroke="black" cx="151" cy="-391" rx="31" ry="22.3848"/>
<text text-anchor="middle" x="151" y="-387.4" font-family="Times Roman,serif" font-size="14.00">q4</text>
</g>
<!-- q2&#45;&gt;q4 -->
<g id="edge6" class="edge"><title>q2&#45;&gt;q4</title>
<path fill="none" stroke="black" d="M143.239,-469.361C140.701,-463.367 138.274,-456.531 137,-450 135.229,-440.916 136.325,-431.113 138.528,-422.156"/>
<polygon fill="black" stroke="black" points="141.908,-423.069 141.392,-412.487 135.196,-421.081 141.908,-423.069"/>
<text text-anchor="middle" x="141.5" y="-437.4" font-family="Times Roman,serif" font-size="14.00">b</text>
</g>
<!-- q9 -->
<g id="node9" class="node"><title>q9</title>
<ellipse fill="none" stroke="black" cx="42" cy="-111" rx="27" ry="18.3848"/>
<text text-anchor="middle" x="42" y="-107.4" font-family="Times Roman,serif" font-size="14.00">q9</text>
</g>
<!-- q2&#45;&gt;q9 -->
<g id="edge8" class="edge"><title>q2&#45;&gt;q9</title>
<path fill="none" stroke="black" d="M140.581,-469.994C131.399,-455.623 118.788,-434.21 111,-414 73.625,-317.012 53.4258,-194.399 45.7181,-139.659"/>
<polygon fill="black" stroke="black" points="49.1707,-139.074 44.3417,-129.643 42.2359,-140.027 49.1707,-139.074"/>
<text text-anchor="middle" x="83.5" y="-291.4" font-family="Times Roman,serif" font-size="14.00">a</text>
</g>
<!-- q4&#45;&gt;q2 -->
<g id="edge16" class="edge"><title>q4&#45;&gt;q2</title>
<path fill="none" stroke="black" d="M151.234,-413.508C151.373,-426.842 151.551,-443.875 151.7,-458.185"/>
<polygon fill="black" stroke="black" points="148.203,-458.527 151.807,-468.49 155.203,-458.454 148.203,-458.527"/>
<text text-anchor="middle" x="155.5" y="-437.4" font-family="Times Roman,serif" font-size="14.00">a</text>
</g>
<!-- q8 -->
<g id="node14" class="node"><title>q8</title>
<ellipse fill="none" stroke="black" cx="151" cy="-295" rx="27" ry="18.3848"/>
<text text-anchor="middle" x="151" y="-291.4" font-family="Times Roman,serif" font-size="14.00">q8</text>
</g>
<!-- q4&#45;&gt;q8 -->
<g id="edge14" class="edge"><title>q4&#45;&gt;q8</title>
<path fill="none" stroke="black" d="M151,-368.249C151,-354.994 151,-338.148 151,-323.954"/>
<polygon fill="black" stroke="black" points="154.5,-323.72 151,-313.72 147.5,-323.72 154.5,-323.72"/>
<text text-anchor="middle" x="155.5" y="-337.4" font-family="Times Roman,serif" font-size="14.00">b</text>
</g>
<!-- q9&#45;&gt;q3 -->
<g id="edge30" class="edge"><title>q9&#45;&gt;q3</title>
<path fill="none" stroke="black" d="M29.1704,-127.598C16.819,-145.27 0,-174.556 0,-203 0,-487 0,-487 0,-487 0,-521.885 25.393,-525.261 56,-542 95.339,-563.515 146.623,-572.544 180.848,-576.317"/>
<polygon fill="black" stroke="black" points="180.59,-579.809 190.89,-577.327 181.29,-572.844 180.59,-579.809"/>
<text text-anchor="middle" x="4.5" y="-337.4" font-family="Times Roman,serif" font-size="14.00">b</text>
</g>
<!-- q5 -->
<g id="node16" class="node"><title>q5</title>
<ellipse fill="none" stroke="black" cx="97" cy="-19" rx="27" ry="18.3848"/>
<text text-anchor="middle" x="97" y="-15.4" font-family="Times Roman,serif" font-size="14.00">q5</text>
</g>
<!-- q9&#45;&gt;q5 -->
<g id="edge32" class="edge"><title>q9&#45;&gt;q5</title>
<path fill="none" stroke="black" d="M51.9596,-93.5838C58.2104,-82.728 66.4833,-68.4957 74,-56 76.1931,-52.3543 78.5328,-48.5243 80.8489,-44.7671"/>
<polygon fill="black" stroke="black" points="83.833,-46.5961 86.13,-36.2533 77.8845,-42.9062 83.833,-46.5961"/>
<text text-anchor="middle" x="78.5" y="-61.4" font-family="Times Roman,serif" font-size="14.00">a</text>
</g>
<!-- q10&#45;&gt;q3 -->
<g id="edge34" class="edge"><title>q10&#45;&gt;q3</title>
<path fill="none" stroke="black" d="M201.227,-215.189C226.394,-230.263 263,-258.467 263,-295 263,-487 263,-487 263,-487 263,-511.68 249.771,-536.644 237.658,-554.328"/>
<polygon fill="black" stroke="black" points="234.508,-552.712 231.501,-562.872 240.187,-556.805 234.508,-552.712"/>
<text text-anchor="middle" x="267.5" y="-387.4" font-family="Times Roman,serif" font-size="14.00">b</text>
</g>
<!-- q10&#45;&gt;q3 -->
<g id="edge36" class="edge"><title>q10&#45;&gt;q3</title>
<path fill="none" stroke="black" d="M206.208,-209.53C244.442,-220.248 308,-245.507 308,-295 308,-487 308,-487 308,-487 308,-521.578 275.111,-547.97 249.097,-563.438"/>
<polygon fill="black" stroke="black" points="247.225,-560.476 240.247,-568.448 250.674,-566.567 247.225,-560.476"/>
<text text-anchor="middle" x="312.5" y="-387.4" font-family="Times Roman,serif" font-size="14.00">a</text>
</g>
<!-- q10&#45;&gt;q3 -->
<g id="edge38" class="edge"><title>q10&#45;&gt;q3</title>
<path fill="none" stroke="black" d="M153.255,-214.077C128.947,-226.114 92.3455,-247.507 70,-276 50.9961,-300.232 46,-310.205 46,-341 46,-487 46,-487 46,-487 46,-547.702 130.327,-568.503 180.89,-575.519"/>
<polygon fill="black" stroke="black" points="180.764,-579.031 191.125,-576.816 181.645,-572.086 180.764,-579.031"/>
<text text-anchor="middle" x="50.5" y="-387.4" font-family="Times Roman,serif" font-size="14.00">b</text>
</g>
<!-- q10&#45;&gt;q9 -->
<g id="edge42" class="edge"><title>q10&#45;&gt;q9</title>
<path fill="none" stroke="black" d="M160.78,-187.606C147.421,-176.034 128.178,-160.15 110,-148 98.45,-140.28 85.1407,-132.762 73.3761,-126.541"/>
<polygon fill="black" stroke="black" points="74.8237,-123.349 64.3352,-121.852 71.6005,-129.563 74.8237,-123.349"/>
<text text-anchor="middle" x="137.5" y="-153.4" font-family="Times Roman,serif" font-size="14.00">b</text>
</g>
<!-- q10&#45;&gt;q10 -->
<g id="edge40" class="edge"><title>q10&#45;&gt;q10</title>
<path fill="none" stroke="black" d="M204.655,-211.522C216.154,-212.22 226,-209.379 226,-203 226,-198.615 221.346,-195.901 214.701,-194.861"/>
<polygon fill="black" stroke="black" points="214.781,-191.361 204.655,-194.478 214.514,-198.356 214.781,-191.361"/>
<text text-anchor="middle" x="230.5" y="-199.4" font-family="Times Roman,serif" font-size="14.00">a</text>
</g>
<!-- q10&#45;&gt;q8 -->
<g id="edge44" class="edge"><title>q10&#45;&gt;q8</title>
<path fill="none" stroke="black" d="M170.05,-220.843C167.567,-226.851 164.966,-233.643 163,-240 160.372,-248.496 158.096,-257.902 156.254,-266.497"/>
<polygon fill="black" stroke="black" points="152.79,-265.966 154.227,-276.463 159.65,-267.361 152.79,-265.966"/>
<text text-anchor="middle" x="167.5" y="-245.4" font-family="Times Roman,serif" font-size="14.00">a</text>
</g>
<!-- q8&#45;&gt;q10 -->
<g id="edge26" class="edge"><title>q8&#45;&gt;q10</title>
<path fill="none" stroke="black" d="M137.958,-278.269C130.987,-267.176 124.965,-252.431 131,-240 134.571,-232.643 140.393,-226.311 146.743,-221.07"/>
<polygon fill="black" stroke="black" points="148.972,-223.774 154.938,-215.019 144.814,-218.143 148.972,-223.774"/>
<text text-anchor="middle" x="135.5" y="-245.4" font-family="Times Roman,serif" font-size="14.00">b</text>
</g>
<!-- q8&#45;&gt;q10 -->
<g id="edge28" class="edge"><title>q8&#45;&gt;q10</title>
<path fill="none" stroke="black" d="M162.581,-277.986C166.176,-271.924 169.775,-264.888 172,-258 174.687,-249.682 176.222,-240.328 177.084,-231.726"/>
<polygon fill="black" stroke="black" points="180.576,-231.959 177.834,-221.725 173.596,-231.435 180.576,-231.959"/>
<text text-anchor="middle" x="180.5" y="-245.4" font-family="Times Roman,serif" font-size="14.00">a</text>
</g>
<!-- q5&#45;&gt;q10 -->
<g id="edge20" class="edge"><title>q5&#45;&gt;q10</title>
<path fill="none" stroke="black" d="M104.827,-36.7798C119.014,-69.0068 149.064,-137.268 165.907,-175.53"/>
<polygon fill="black" stroke="black" points="162.853,-177.28 170.086,-185.022 169.26,-174.46 162.853,-177.28"/>
<text text-anchor="middle" x="149.5" y="-107.4" font-family="Times Roman,serif" font-size="14.00">a</text>
</g>
<!-- q5&#45;&gt;q8 -->
<g id="edge18" class="edge"><title>q5&#45;&gt;q8</title>
<path fill="none" stroke="black" d="M95.0646,-37.526C91.5322,-79.2725 87.4553,-182.906 124,-258 126.052,-262.216 128.591,-266.454 131.284,-270.478"/>
<polygon fill="black" stroke="black" points="128.623,-272.774 137.297,-278.859 134.311,-268.693 128.623,-272.774"/>
<text text-anchor="middle" x="101.5" y="-153.4" font-family="Times Roman,serif" font-size="14.00">b</text>
</g>
<!-- q6 -->
<g id="node19" class="node"><title>q6</title>
<ellipse fill="none" stroke="black" cx="324" cy="-763" rx="27" ry="18.3848"/>
<text text-anchor="middle" x="324" y="-759.4" font-family="Times Roman,serif" font-size="14.00">q6</text>
</g>
<!-- q6&#45;&gt;q0 -->
<g id="edge22" class="edge"><title>q6&#45;&gt;q0</title>
<path fill="none" stroke="black" d="M312.078,-746.126C302.182,-732.12 287.963,-711.994 276.732,-696.098"/>
<polygon fill="black" stroke="black" points="279.475,-693.915 270.846,-687.767 273.758,-697.954 279.475,-693.915"/>
<text text-anchor="middle" x="301.5" y="-713.4" font-family="Times Roman,serif" font-size="14.00">b</text>
</g>
<!-- q6&#45;&gt;q10 -->
<g id="edge24" class="edge"><title>q6&#45;&gt;q10</title>
<path fill="none" stroke="black" d="M333.328,-745.569C342.134,-727.463 354,-698.048 354,-671 354,-671 354,-671 354,-295 354,-234.036 270.037,-213.398 218.097,-206.463"/>
<polygon fill="black" stroke="black" points="218.206,-202.95 207.856,-205.216 217.36,-209.899 218.206,-202.95"/>
<text text-anchor="middle" x="358.5" y="-483.4" font-family="Times Roman,serif" font-size="14.00">a</text>
</g>
</g>
</svg>
