<?xml version="1.0" encoding="UTF-8" standalone="no"?>
<!DOCTYPE svg PUBLIC "-//W3C//DTD SVG 1.1//EN"
 "http://www.w3.org/Graphics/SVG/1.1/DTD/svg11.dtd">
<!-- Generated by graphviz version 2.26.3 (20100126.1600)
 -->
<!-- Title: G Pages: 1 -->
<svg width="324pt" height="598pt"
 viewBox="0.00 0.00 324.00 598.00" xmlns="http://www.w3.org/2000/svg" xmlns:xlink="http://www.w3.org/1999/xlink">
<g id="graph1" class="graph" transform="scale(1 1) rotate(0) translate(4 594)">
<title>G</title>
<polygon fill="white" stroke="white" points="-4,5 -4,-594 321,-594 321,5 -4,5"/>
<!-- q6 -->
<g id="node1" class="node"><title>q6</title>
<ellipse fill="none" stroke="black" cx="123" cy="-479" rx="27" ry="18.3848"/>
<text text-anchor="middle" x="123" y="-475.4" font-family="Times Roman,serif" font-size="14.00">q6</text>
</g>
<!-- q4 -->
<g id="node3" class="node"><title>q4</title>
<ellipse fill="none" stroke="black" cx="123" cy="-387" rx="27" ry="18.3848"/>
<text text-anchor="middle" x="123" y="-383.4" font-family="Times Roman,serif" font-size="14.00">q4</text>
</g>
<!-- q6&#45;&gt;q4 -->
<g id="edge2" class="edge"><title>q6&#45;&gt;q4</title>
<path fill="none" stroke="black" d="M123,-460.382C123,-447.538 123,-430.216 123,-415.627"/>
<polygon fill="black" stroke="black" points="126.5,-415.59 123,-405.59 119.5,-415.59 126.5,-415.59"/>
<text text-anchor="middle" x="127.5" y="-429.4" font-family="Times Roman,serif" font-size="14.00">b</text>
</g>
<!-- q2 -->
<g id="node5" class="node"><title>q2</title>
<ellipse fill="none" stroke="black" cx="95" cy="-19" rx="27" ry="18.3848"/>
<text text-anchor="middle" x="95" y="-15.4" font-family="Times Roman,serif" font-size="14.00">q2</text>
</g>
<!-- q6&#45;&gt;q2 -->
<g id="edge4" class="edge"><title>q6&#45;&gt;q2</title>
<path fill="none" stroke="black" d="M101.11,-467.606C75.9255,-452.742 38,-424.185 38,-387 38,-387 38,-387 38,-111 38,-84.1151 55.8069,-58.5427 71.5151,-41.2146"/>
<polygon fill="black" stroke="black" points="74.1568,-43.5157 78.5132,-33.858 69.085,-38.6911 74.1568,-43.5157"/>
<text text-anchor="middle" x="42.5" y="-245.4" font-family="Times Roman,serif" font-size="14.00">a</text>
</g>
<!-- q1 -->
<g id="node13" class="node"><title>q1</title>
<ellipse fill="none" stroke="black" cx="147" cy="-295" rx="27" ry="18.3848"/>
<text text-anchor="middle" x="147" y="-291.4" font-family="Times Roman,serif" font-size="14.00">q1</text>
</g>
<!-- q4&#45;&gt;q1 -->
<g id="edge22" class="edge"><title>q4&#45;&gt;q1</title>
<path fill="none" stroke="black" d="M127.857,-368.382C131.229,-355.454 135.786,-337.988 139.607,-323.339"/>
<polygon fill="black" stroke="black" points="143.095,-323.836 142.232,-313.276 136.321,-322.069 143.095,-323.836"/>
<text text-anchor="middle" x="141.5" y="-337.4" font-family="Times Roman,serif" font-size="14.00">b</text>
</g>
<!-- q4&#45;&gt;q1 -->
<g id="edge24" class="edge"><title>q4&#45;&gt;q1</title>
<path fill="none" stroke="black" d="M118.694,-368.482C116.967,-357.602 116.176,-343.728 120,-332 121.454,-327.542 123.67,-323.174 126.221,-319.092"/>
<polygon fill="black" stroke="black" points="129.25,-320.871 132.173,-310.687 123.538,-316.826 129.25,-320.871"/>
<text text-anchor="middle" x="124.5" y="-337.4" font-family="Times Roman,serif" font-size="14.00">a</text>
</g>
<!-- q2&#45;&gt;q6 -->
<g id="edge16" class="edge"><title>q2&#45;&gt;q6</title>
<path fill="none" stroke="black" d="M72.0031,-28.9742C43.8876,-42.9058 0,-71.0507 0,-111 0,-387 0,-387 0,-387 0,-431.119 51.3729,-456.637 87.7171,-469.171"/>
<polygon fill="black" stroke="black" points="86.9219,-472.593 97.5143,-472.366 89.0924,-465.938 86.9219,-472.593"/>
<text text-anchor="middle" x="4.5" y="-245.4" font-family="Times Roman,serif" font-size="14.00">a</text>
</g>
<!-- q2&#45;&gt;q1 -->
<g id="edge14" class="edge"><title>q2&#45;&gt;q1</title>
<path fill="none" stroke="black" d="M89.7052,-37.1509C78.4948,-79.4501 56.7676,-186.415 100,-258 104.379,-265.25 110.738,-271.637 117.372,-276.973"/>
<polygon fill="black" stroke="black" points="115.661,-280.059 125.792,-283.158 119.805,-274.417 115.661,-280.059"/>
<text text-anchor="middle" x="78.5" y="-153.4" font-family="Times Roman,serif" font-size="14.00">b</text>
</g>
<!-- q5 -->
<g id="node6" class="node"><title>q5</title>
<ellipse fill="none" stroke="black" cx="255" cy="-571" rx="27" ry="18.3848"/>
<text text-anchor="middle" x="255" y="-567.4" font-family="Times Roman,serif" font-size="14.00">q5</text>
</g>
<!-- q5&#45;&gt;q6 -->
<g id="edge6" class="edge"><title>q5&#45;&gt;q6</title>
<path fill="none" stroke="black" d="M235.806,-557.622C213.419,-542.019 176.23,-516.1 150.713,-498.315"/>
<polygon fill="black" stroke="black" points="152.422,-495.24 142.217,-492.394 148.42,-500.983 152.422,-495.24"/>
<text text-anchor="middle" x="204.5" y="-521.4" font-family="Times Roman,serif" font-size="14.00">b</text>
</g>
<!-- q5&#45;&gt;q2 -->
<g id="edge8" class="edge"><title>q5&#45;&gt;q2</title>
<path fill="none" stroke="black" d="M270.32,-555.553C285.659,-538.383 307,-509.089 307,-479 307,-479 307,-479 307,-111 307,-73.0723 191.371,-40.9871 130.903,-26.8013"/>
<polygon fill="black" stroke="black" points="131.526,-23.3532 120.995,-24.5213 129.956,-30.1749 131.526,-23.3532"/>
<text text-anchor="middle" x="311.5" y="-291.4" font-family="Times Roman,serif" font-size="14.00">a</text>
</g>
<!-- q7 -->
<g id="node9" class="node"><title>q7</title>
<ellipse fill="none" stroke="black" cx="169" cy="-203" rx="27" ry="18.3848"/>
<text text-anchor="middle" x="169" y="-199.4" font-family="Times Roman,serif" font-size="14.00">q7</text>
</g>
<!-- q3 -->
<g id="node11" class="node"><title>q3</title>
<ellipse fill="none" stroke="black" cx="204" cy="-111" rx="27" ry="18.3848"/>
<text text-anchor="middle" x="204" y="-107.4" font-family="Times Roman,serif" font-size="14.00">q3</text>
</g>
<!-- q7&#45;&gt;q3 -->
<g id="edge10" class="edge"><title>q7&#45;&gt;q3</title>
<path fill="none" stroke="black" d="M175.915,-184.824C180.9,-171.719 187.722,-153.789 193.393,-138.88"/>
<polygon fill="black" stroke="black" points="196.815,-139.729 197.099,-129.138 190.272,-137.24 196.815,-139.729"/>
<text text-anchor="middle" x="193.5" y="-153.4" font-family="Times Roman,serif" font-size="14.00">b</text>
</g>
<!-- q7&#45;&gt;q1 -->
<g id="edge12" class="edge"><title>q7&#45;&gt;q1</title>
<path fill="none" stroke="black" d="M165.225,-221.385C162.966,-232.097 159.966,-245.847 157,-258 156.305,-260.848 155.553,-263.812 154.784,-266.768"/>
<polygon fill="black" stroke="black" points="151.356,-266.038 152.164,-276.602 158.12,-267.84 151.356,-266.038"/>
<text text-anchor="middle" x="164.5" y="-245.4" font-family="Times Roman,serif" font-size="14.00">a</text>
</g>
<!-- q3&#45;&gt;q6 -->
<g id="edge28" class="edge"><title>q3&#45;&gt;q6</title>
<path fill="none" stroke="black" d="M220.776,-125.8C237.906,-142.633 262,-171.846 262,-203 262,-387 262,-387 262,-387 262,-436.459 200.047,-460.884 158.862,-471.657"/>
<polygon fill="black" stroke="black" points="158.018,-468.26 149.145,-474.05 159.692,-475.057 158.018,-468.26"/>
<text text-anchor="middle" x="266.5" y="-291.4" font-family="Times Roman,serif" font-size="14.00">a</text>
</g>
<!-- q3&#45;&gt;q2 -->
<g id="edge26" class="edge"><title>q3&#45;&gt;q2</title>
<path fill="none" stroke="black" d="M186.969,-96.625C168.997,-81.456 140.489,-57.3942 119.975,-40.0796"/>
<polygon fill="black" stroke="black" points="122.171,-37.353 112.271,-33.5777 117.656,-42.7023 122.171,-37.353"/>
<text text-anchor="middle" x="163.5" y="-61.4" font-family="Times Roman,serif" font-size="14.00">b</text>
</g>
<!-- q1&#45;&gt;q2 -->
<g id="edge18" class="edge"><title>q1&#45;&gt;q2</title>
<path fill="none" stroke="black" d="M143.41,-276.402C140.568,-261.652 136.508,-240.511 133,-222 121.199,-159.719 107.574,-86.6459 100.273,-47.3889"/>
<polygon fill="black" stroke="black" points="103.7,-46.6701 98.4307,-37.4783 96.8175,-47.9496 103.7,-46.6701"/>
<text text-anchor="middle" x="126.5" y="-153.4" font-family="Times Roman,serif" font-size="14.00">b</text>
</g>
<!-- q1&#45;&gt;q7 -->
<g id="edge20" class="edge"><title>q1&#45;&gt;q7</title>
<path fill="none" stroke="black" d="M145.079,-276.343C144.522,-265.54 144.772,-251.79 148,-240 149.015,-236.291 150.486,-232.56 152.185,-228.97"/>
<polygon fill="black" stroke="black" points="155.406,-230.371 157.06,-219.907 149.241,-227.056 155.406,-230.371"/>
<text text-anchor="middle" x="152.5" y="-245.4" font-family="Times Roman,serif" font-size="14.00">a</text>
</g>
<!-- q0 -->
<g id="node22" class="node"><title>q0</title>
<ellipse fill="none" stroke="black" cx="203" cy="-387" rx="27" ry="18.3848"/>
<text text-anchor="middle" x="203" y="-383.4" font-family="Times Roman,serif" font-size="14.00">q0</text>
</g>
<!-- q0&#45;&gt;q3 -->
<g id="edge30" class="edge"><title>q0&#45;&gt;q3</title>
<path fill="none" stroke="black" d="M203.394,-368.249C204.1,-332.44 205.465,-251.845 205,-184 204.9,-169.399 204.687,-153.155 204.484,-139.705"/>
<polygon fill="black" stroke="black" points="207.982,-139.546 204.325,-129.602 200.983,-139.656 207.982,-139.546"/>
<text text-anchor="middle" x="209.5" y="-245.4" font-family="Times Roman,serif" font-size="14.00">b</text>
</g>
<!-- q0&#45;&gt;q1 -->
<g id="edge32" class="edge"><title>q0&#45;&gt;q1</title>
<path fill="none" stroke="black" d="M192.467,-369.696C184.097,-355.946 172.262,-336.501 162.764,-320.898"/>
<polygon fill="black" stroke="black" points="165.675,-318.949 157.486,-312.227 159.696,-322.589 165.675,-318.949"/>
<text text-anchor="middle" x="184.5" y="-337.4" font-family="Times Roman,serif" font-size="14.00">a</text>
</g>
</g>
</svg>
