<?xml version="1.0" encoding="UTF-8" standalone="no"?>
<!DOCTYPE svg PUBLIC "-//W3C//DTD SVG 1.1//EN"
 "http://www.w3.org/Graphics/SVG/1.1/DTD/svg11.dtd">
<!-- Generated by graphviz version 2.26.3 (20100126.1600)
 -->
<!-- Title: G Pages: 1 -->
<svg width="418pt" height="790pt"
 viewBox="0.00 0.00 418.00 790.00" xmlns="http://www.w3.org/2000/svg" xmlns:xlink="http://www.w3.org/1999/xlink">
<g id="graph1" class="graph" transform="scale(1 1) rotate(0) translate(4 786)">
<title>G</title>
<polygon fill="white" stroke="white" points="-4,5 -4,-786 415,-786 415,5 -4,5"/>
<!-- q0 -->
<g id="node1" class="node"><title>q0</title>
<ellipse fill="none" stroke="black" cx="306" cy="-671" rx="27" ry="18.3848"/>
<text text-anchor="middle" x="306" y="-667.4" font-family="Times Roman,serif" font-size="14.00">q0</text>
</g>
<!-- q0&#45;&gt;q0 -->
<g id="edge4" class="edge"><title>q0&#45;&gt;q0</title>
<path fill="none" stroke="black" d="M330.074,-679.454C341.242,-680.377 351,-677.559 351,-671 351,-666.593 346.595,-663.875 340.317,-662.846"/>
<polygon fill="black" stroke="black" points="340.173,-659.34 330.074,-662.546 339.967,-666.337 340.173,-659.34"/>
<text text-anchor="middle" x="355.5" y="-667.4" font-family="Times Roman,serif" font-size="14.00">a</text>
</g>
<!-- q3 -->
<g id="node3" class="node"><title>q3</title>
<ellipse fill="none" stroke="black" cx="265" cy="-579" rx="27" ry="18.3848"/>
<text text-anchor="middle" x="265" y="-575.4" font-family="Times Roman,serif" font-size="14.00">q3</text>
</g>
<!-- q0&#45;&gt;q3 -->
<g id="edge2" class="edge"><title>q0&#45;&gt;q3</title>
<path fill="none" stroke="black" d="M298.095,-653.261C292.177,-639.983 283.974,-621.576 277.215,-606.41"/>
<polygon fill="black" stroke="black" points="280.288,-604.707 273.021,-596.998 273.895,-607.557 280.288,-604.707"/>
<text text-anchor="middle" x="293.5" y="-621.4" font-family="Times Roman,serif" font-size="14.00">b</text>
</g>
<!-- q2 -->
<g id="node5" class="node"><title>q2</title>
<ellipse fill="none" stroke="black" cx="147" cy="-487" rx="27" ry="18.3848"/>
<text text-anchor="middle" x="147" y="-483.4" font-family="Times Roman,serif" font-size="14.00">q2</text>
</g>
<!-- q3&#45;&gt;q2 -->
<g id="edge12" class="edge"><title>q3&#45;&gt;q2</title>
<path fill="none" stroke="black" d="M242.1,-568.927C228.329,-562.307 210.848,-552.873 197,-542 185.788,-533.196 174.942,-521.749 166.234,-511.579"/>
<polygon fill="black" stroke="black" points="168.827,-509.223 159.742,-503.772 163.444,-513.699 168.827,-509.223"/>
<text text-anchor="middle" x="201.5" y="-529.4" font-family="Times Roman,serif" font-size="14.00">a</text>
</g>
<!-- q10 -->
<g id="node11" class="node"><title>q10</title>
<ellipse fill="none" stroke="black" cx="232" cy="-203" rx="29.9071" ry="18.3848"/>
<text text-anchor="middle" x="232" y="-199.4" font-family="Times Roman,serif" font-size="14.00">q10</text>
</g>
<!-- q3&#45;&gt;q10 -->
<g id="edge10" class="edge"><title>q3&#45;&gt;q10</title>
<path fill="none" stroke="black" d="M265,-560.322C265,-541.735 265,-512.396 265,-487 265,-487 265,-487 265,-295 265,-272.092 255.823,-247.761 247.148,-229.877"/>
<polygon fill="black" stroke="black" points="250.105,-227.972 242.441,-220.656 243.87,-231.154 250.105,-227.972"/>
<text text-anchor="middle" x="269.5" y="-387.4" font-family="Times Roman,serif" font-size="14.00">b</text>
</g>
<!-- q4 -->
<g id="node7" class="node"><title>q4</title>
<ellipse fill="none" stroke="black" cx="115" cy="-391" rx="27" ry="18.3848"/>
<ellipse fill="none" stroke="black" cx="115" cy="-391" rx="31" ry="22.3848"/>
<text text-anchor="middle" x="115" y="-387.4" font-family="Times Roman,serif" font-size="14.00">q4</text>
</g>
<!-- q2&#45;&gt;q4 -->
<g id="edge6" class="edge"><title>q2&#45;&gt;q4</title>
<path fill="none" stroke="black" d="M130.414,-471.994C124.735,-465.803 119.047,-458.165 116,-450 112.944,-441.812 111.814,-432.529 111.666,-423.79"/>
<polygon fill="black" stroke="black" points="115.171,-423.59 111.908,-413.51 108.173,-423.425 115.171,-423.59"/>
<text text-anchor="middle" x="120.5" y="-437.4" font-family="Times Roman,serif" font-size="14.00">b</text>
</g>
<!-- q9 -->
<g id="node9" class="node"><title>q9</title>
<ellipse fill="none" stroke="black" cx="29" cy="-111" rx="27" ry="18.3848"/>
<text text-anchor="middle" x="29" y="-107.4" font-family="Times Roman,serif" font-size="14.00">q9</text>
</g>
<!-- q2&#45;&gt;q9 -->
<g id="edge8" class="edge"><title>q2&#45;&gt;q9</title>
<path fill="none" stroke="black" d="M123.829,-477.329C94.0099,-463.153 46,-433.699 46,-391 46,-391 46,-391 46,-203 46,-181.276 41.3596,-157.139 36.9276,-139.04"/>
<polygon fill="black" stroke="black" points="40.2628,-137.956 34.3789,-129.146 33.4841,-139.703 40.2628,-137.956"/>
<text text-anchor="middle" x="50.5" y="-291.4" font-family="Times Roman,serif" font-size="14.00">a</text>
</g>
<!-- q4&#45;&gt;q2 -->
<g id="edge16" class="edge"><title>q4&#45;&gt;q2</title>
<path fill="none" stroke="black" d="M122.34,-413.021C126.929,-426.786 132.877,-444.63 137.782,-459.345"/>
<polygon fill="black" stroke="black" points="134.498,-460.563 140.981,-468.943 141.139,-458.349 134.498,-460.563"/>
<text text-anchor="middle" x="137.5" y="-437.4" font-family="Times Roman,serif" font-size="14.00">a</text>
</g>
<!-- q8 -->
<g id="node14" class="node"><title>q8</title>
<ellipse fill="none" stroke="black" cx="115" cy="-295" rx="27" ry="18.3848"/>
<text text-anchor="middle" x="115" y="-291.4" font-family="Times Roman,serif" font-size="14.00">q8</text>
</g>
<!-- q4&#45;&gt;q8 -->
<g id="edge14" class="edge"><title>q4&#45;&gt;q8</title>
<path fill="none" stroke="black" d="M115,-368.249C115,-354.994 115,-338.148 115,-323.954"/>
<polygon fill="black" stroke="black" points="118.5,-323.72 115,-313.72 111.5,-323.72 118.5,-323.72"/>
<text text-anchor="middle" x="119.5" y="-337.4" font-family="Times Roman,serif" font-size="14.00">b</text>
</g>
<!-- q9&#45;&gt;q3 -->
<g id="edge30" class="edge"><title>q9&#45;&gt;q3</title>
<path fill="none" stroke="black" d="M19.9832,-128.466C11.4702,-146.601 3.55271e-15,-176.037 0,-203 0,-487 0,-487 0,-487 0,-534.694 155.128,-563.262 228.005,-574.051"/>
<polygon fill="black" stroke="black" points="227.734,-577.548 238.132,-575.514 228.735,-570.62 227.734,-577.548"/>
<text text-anchor="middle" x="4.5" y="-337.4" font-family="Times Roman,serif" font-size="14.00">b</text>
</g>
<!-- q5 -->
<g id="node16" class="node"><title>q5</title>
<ellipse fill="none" stroke="black" cx="84" cy="-19" rx="27" ry="18.3848"/>
<text text-anchor="middle" x="84" y="-15.4" font-family="Times Roman,serif" font-size="14.00">q5</text>
</g>
<!-- q9&#45;&gt;q5 -->
<g id="edge32" class="edge"><title>q9&#45;&gt;q5</title>
<path fill="none" stroke="black" d="M38.9596,-93.5838C45.2104,-82.728 53.4833,-68.4957 61,-56 63.1931,-52.3543 65.5328,-48.5243 67.8489,-44.7671"/>
<polygon fill="black" stroke="black" points="70.833,-46.5961 73.13,-36.2533 64.8845,-42.9062 70.833,-46.5961"/>
<text text-anchor="middle" x="65.5" y="-61.4" font-family="Times Roman,serif" font-size="14.00">a</text>
</g>
<!-- q10&#45;&gt;q3 -->
<g id="edge34" class="edge"><title>q10&#45;&gt;q3</title>
<path fill="none" stroke="black" d="M231.077,-221.688C229.497,-258.567 227.075,-343.269 234,-414 238.741,-462.425 250.481,-517.856 258.075,-550.565"/>
<polygon fill="black" stroke="black" points="254.681,-551.418 260.382,-560.349 261.494,-549.812 254.681,-551.418"/>
<text text-anchor="middle" x="238.5" y="-387.4" font-family="Times Roman,serif" font-size="14.00">b</text>
</g>
<!-- q10&#45;&gt;q3 -->
<g id="edge36" class="edge"><title>q10&#45;&gt;q3</title>
<path fill="none" stroke="black" d="M253.727,-215.947C276.807,-231.534 310,-260.03 310,-295 310,-487 310,-487 310,-487 310,-511.68 296.771,-536.644 284.658,-554.328"/>
<polygon fill="black" stroke="black" points="281.508,-552.712 278.501,-562.872 287.187,-556.805 281.508,-552.712"/>
<text text-anchor="middle" x="314.5" y="-387.4" font-family="Times Roman,serif" font-size="14.00">a</text>
</g>
<!-- q10&#45;&gt;q3 -->
<g id="edge38" class="edge"><title>q10&#45;&gt;q3</title>
<path fill="none" stroke="black" d="M259.604,-210.295C295.868,-221.743 355,-247.667 355,-295 355,-487 355,-487 355,-487 355,-521.578 322.111,-547.97 296.097,-563.438"/>
<polygon fill="black" stroke="black" points="294.225,-560.476 287.247,-568.448 297.674,-566.567 294.225,-560.476"/>
<text text-anchor="middle" x="359.5" y="-387.4" font-family="Times Roman,serif" font-size="14.00">b</text>
</g>
<!-- q10&#45;&gt;q9 -->
<g id="edge42" class="edge"><title>q10&#45;&gt;q9</title>
<path fill="none" stroke="black" d="M207.513,-191.903C170.806,-175.267 101.498,-143.856 60.8848,-125.45"/>
<polygon fill="black" stroke="black" points="62.255,-122.229 51.7019,-121.289 59.3654,-128.604 62.255,-122.229"/>
<text text-anchor="middle" x="152.5" y="-153.4" font-family="Times Roman,serif" font-size="14.00">b</text>
</g>
<!-- q10&#45;&gt;q10 -->
<g id="edge40" class="edge"><title>q10&#45;&gt;q10</title>
<path fill="none" stroke="black" d="M258.655,-211.522C270.154,-212.22 280,-209.379 280,-203 280,-198.615 275.346,-195.901 268.701,-194.861"/>
<polygon fill="black" stroke="black" points="268.781,-191.361 258.655,-194.478 268.514,-198.356 268.781,-191.361"/>
<text text-anchor="middle" x="284.5" y="-199.4" font-family="Times Roman,serif" font-size="14.00">a</text>
</g>
<!-- q10&#45;&gt;q8 -->
<g id="edge44" class="edge"><title>q10&#45;&gt;q8</title>
<path fill="none" stroke="black" d="M203.504,-209.337C184.483,-214.785 159.944,-224.311 143,-240 134.922,-247.48 128.817,-257.816 124.404,-267.51"/>
<polygon fill="black" stroke="black" points="121.124,-266.282 120.544,-276.861 127.595,-268.953 121.124,-266.282"/>
<text text-anchor="middle" x="147.5" y="-245.4" font-family="Times Roman,serif" font-size="14.00">a</text>
</g>
<!-- q8&#45;&gt;q10 -->
<g id="edge26" class="edge"><title>q8&#45;&gt;q10</title>
<path fill="none" stroke="black" d="M108.082,-276.974C104.868,-265.335 103.255,-250.467 111,-240 120.904,-226.615 161.508,-216.108 192.98,-209.764"/>
<polygon fill="black" stroke="black" points="193.677,-213.194 202.827,-207.852 192.343,-206.322 193.677,-213.194"/>
<text text-anchor="middle" x="115.5" y="-245.4" font-family="Times Roman,serif" font-size="14.00">b</text>
</g>
<!-- q8&#45;&gt;q10 -->
<g id="edge28" class="edge"><title>q8&#45;&gt;q10</title>
<path fill="none" stroke="black" d="M138.006,-285.236C152.06,-278.668 169.967,-269.18 184,-258 194.764,-249.424 205.033,-238.227 213.29,-228.176"/>
<polygon fill="black" stroke="black" points="216.239,-230.092 219.72,-220.085 210.758,-225.737 216.239,-230.092"/>
<text text-anchor="middle" x="206.5" y="-245.4" font-family="Times Roman,serif" font-size="14.00">a</text>
</g>
<!-- q5&#45;&gt;q2 -->
<g id="edge20" class="edge"><title>q5&#45;&gt;q2</title>
<path fill="none" stroke="black" d="M106.247,-29.5516C132.899,-43.92 174,-72.345 174,-111 174,-391 174,-391 174,-391 174,-414.775 166.231,-440.666 159.028,-459.562"/>
<polygon fill="black" stroke="black" points="155.709,-458.435 155.248,-469.02 162.209,-461.033 155.709,-458.435"/>
<text text-anchor="middle" x="178.5" y="-245.4" font-family="Times Roman,serif" font-size="14.00">a</text>
</g>
<!-- q5&#45;&gt;q8 -->
<g id="edge18" class="edge"><title>q5&#45;&gt;q8</title>
<path fill="none" stroke="black" d="M83.5047,-37.5501C82.8158,-78.078 83.273,-177.353 101,-258 101.708,-261.22 102.642,-264.533 103.694,-267.791"/>
<polygon fill="black" stroke="black" points="100.417,-269.023 107.088,-277.253 107.006,-266.659 100.417,-269.023"/>
<text text-anchor="middle" x="91.5" y="-153.4" font-family="Times Roman,serif" font-size="14.00">b</text>
</g>
<!-- q6 -->
<g id="node19" class="node"><title>q6</title>
<ellipse fill="none" stroke="black" cx="371" cy="-763" rx="27" ry="18.3848"/>
<text text-anchor="middle" x="371" y="-759.4" font-family="Times Roman,serif" font-size="14.00">q6</text>
</g>
<!-- q6&#45;&gt;q0 -->
<g id="edge22" class="edge"><title>q6&#45;&gt;q0</title>
<path fill="none" stroke="black" d="M359.078,-746.126C349.182,-732.12 334.963,-711.994 323.732,-696.098"/>
<polygon fill="black" stroke="black" points="326.475,-693.915 317.846,-687.767 320.758,-697.954 326.475,-693.915"/>
<text text-anchor="middle" x="348.5" y="-713.4" font-family="Times Roman,serif" font-size="14.00">b</text>
</g>
<!-- q6&#45;&gt;q10 -->
<g id="edge24" class="edge"><title>q6&#45;&gt;q10</title>
<path fill="none" stroke="black" d="M380.328,-745.569C389.134,-727.463 401,-698.048 401,-671 401,-671 401,-671 401,-295 401,-236.523 321.982,-215.002 272.009,-207.238"/>
<polygon fill="black" stroke="black" points="272.22,-203.733 261.825,-205.782 271.229,-210.662 272.22,-203.733"/>
<text text-anchor="middle" x="405.5" y="-483.4" font-family="Times Roman,serif" font-size="14.00">a</text>
</g>
</g>
</svg>
