<?xml version="1.0" encoding="UTF-8" standalone="no"?>
<!DOCTYPE svg PUBLIC "-//W3C//DTD SVG 1.1//EN"
 "http://www.w3.org/Graphics/SVG/1.1/DTD/svg11.dtd">
<!-- Generated by graphviz version 2.26.3 (20100126.1600)
 -->
<!-- Title: G Pages: 1 -->
<svg width="283pt" height="422pt"
 viewBox="0.00 0.00 283.00 422.00" xmlns="http://www.w3.org/2000/svg" xmlns:xlink="http://www.w3.org/1999/xlink">
<g id="graph1" class="graph" transform="scale(1 1) rotate(0) translate(4 418)">
<title>G</title>
<polygon fill="white" stroke="white" points="-4,5 -4,-418 280,-418 280,5 -4,5"/>
<!-- q0 -->
<g id="node1" class="node"><title>q0</title>
<ellipse fill="none" stroke="black" cx="82" cy="-395" rx="27" ry="18.3848"/>
<text text-anchor="middle" x="82" y="-391.4" font-family="Times Roman,serif" font-size="14.00">q0</text>
</g>
<!-- q0&#45;&gt;q0 -->
<g id="edge2" class="edge"><title>q0&#45;&gt;q0</title>
<path fill="none" stroke="black" d="M106.074,-403.454C117.242,-404.377 127,-401.559 127,-395 127,-390.593 122.595,-387.875 116.317,-386.846"/>
<polygon fill="black" stroke="black" points="116.173,-383.34 106.074,-386.546 115.967,-390.337 116.173,-383.34"/>
<text text-anchor="middle" x="131.5" y="-391.4" font-family="Times Roman,serif" font-size="14.00">b</text>
</g>
<!-- q6 -->
<g id="node4" class="node"><title>q6</title>
<ellipse fill="none" stroke="black" cx="27" cy="-303" rx="27" ry="18.3848"/>
<text text-anchor="middle" x="27" y="-299.4" font-family="Times Roman,serif" font-size="14.00">q6</text>
</g>
<!-- q0&#45;&gt;q6 -->
<g id="edge4" class="edge"><title>q0&#45;&gt;q6</title>
<path fill="none" stroke="black" d="M71.6549,-377.696C63.435,-363.946 51.8105,-344.501 42.4824,-328.898"/>
<polygon fill="black" stroke="black" points="45.4341,-327.014 37.2987,-320.227 39.4259,-330.606 45.4341,-327.014"/>
<text text-anchor="middle" x="63.5" y="-345.4" font-family="Times Roman,serif" font-size="14.00">a</text>
</g>
<!-- q6&#45;&gt;q6 -->
<g id="edge18" class="edge"><title>q6&#45;&gt;q6</title>
<path fill="none" stroke="black" d="M51.0743,-311.454C62.2423,-312.377 72,-309.559 72,-303 72,-298.593 67.5952,-295.875 61.3174,-294.846"/>
<polygon fill="black" stroke="black" points="61.1726,-291.34 51.0743,-294.546 60.9674,-298.337 61.1726,-291.34"/>
<text text-anchor="middle" x="76.5" y="-299.4" font-family="Times Roman,serif" font-size="14.00">b</text>
</g>
<!-- q3 -->
<g id="node10" class="node"><title>q3</title>
<ellipse fill="none" stroke="black" cx="54" cy="-211" rx="27" ry="18.3848"/>
<text text-anchor="middle" x="54" y="-207.4" font-family="Times Roman,serif" font-size="14.00">q3</text>
</g>
<!-- q6&#45;&gt;q3 -->
<g id="edge20" class="edge"><title>q6&#45;&gt;q3</title>
<path fill="none" stroke="black" d="M23.6109,-284.445C22.3635,-273.554 22.079,-259.679 26,-248 27.5527,-243.375 29.9379,-238.868 32.6747,-234.681"/>
<polygon fill="black" stroke="black" points="35.5136,-236.728 38.6321,-226.603 29.8799,-232.573 35.5136,-236.728"/>
<text text-anchor="middle" x="30.5" y="-253.4" font-family="Times Roman,serif" font-size="14.00">a</text>
</g>
<!-- q2 -->
<g id="node5" class="node"><title>q2</title>
<ellipse fill="none" stroke="black" cx="181" cy="-303" rx="27" ry="18.3848"/>
<text text-anchor="middle" x="181" y="-299.4" font-family="Times Roman,serif" font-size="14.00">q2</text>
</g>
<!-- q9 -->
<g id="node7" class="node"><title>q9</title>
<ellipse fill="none" stroke="black" cx="149" cy="-119" rx="27" ry="18.3848"/>
<text text-anchor="middle" x="149" y="-115.4" font-family="Times Roman,serif" font-size="14.00">q9</text>
</g>
<!-- q2&#45;&gt;q9 -->
<g id="edge6" class="edge"><title>q2&#45;&gt;q9</title>
<path fill="none" stroke="black" d="M176.181,-284.499C172.477,-269.802 167.43,-248.686 164,-230 158.9,-202.222 154.759,-170.236 152.13,-147.758"/>
<polygon fill="black" stroke="black" points="155.576,-147.084 150.964,-137.546 148.622,-147.879 155.576,-147.084"/>
<text text-anchor="middle" x="168.5" y="-207.4" font-family="Times Roman,serif" font-size="14.00">b</text>
</g>
<!-- q4 -->
<g id="node9" class="node"><title>q4</title>
<ellipse fill="none" stroke="black" cx="209" cy="-211" rx="27" ry="18.3848"/>
<text text-anchor="middle" x="209" y="-207.4" font-family="Times Roman,serif" font-size="14.00">q4</text>
</g>
<!-- q2&#45;&gt;q4 -->
<g id="edge8" class="edge"><title>q2&#45;&gt;q4</title>
<path fill="none" stroke="black" d="M186.532,-284.824C190.52,-271.719 195.977,-253.789 200.515,-238.88"/>
<polygon fill="black" stroke="black" points="203.916,-239.724 203.48,-229.138 197.22,-237.686 203.916,-239.724"/>
<text text-anchor="middle" x="201.5" y="-253.4" font-family="Times Roman,serif" font-size="14.00">a</text>
</g>
<!-- q9&#45;&gt;q0 -->
<g id="edge26" class="edge"><title>q9&#45;&gt;q0</title>
<path fill="none" stroke="black" d="M144.519,-137.457C133.075,-184.604 102.7,-309.73 88.9432,-366.398"/>
<polygon fill="black" stroke="black" points="85.458,-365.919 86.5001,-376.462 92.2604,-367.57 85.458,-365.919"/>
<text text-anchor="middle" x="121.5" y="-253.4" font-family="Times Roman,serif" font-size="14.00">b</text>
</g>
<!-- q8 -->
<g id="node14" class="node"><title>q8</title>
<ellipse fill="none" stroke="black" cx="190" cy="-23" rx="27" ry="18.3848"/>
<ellipse fill="none" stroke="black" cx="190" cy="-23" rx="31" ry="22.3848"/>
<text text-anchor="middle" x="190" y="-19.4" font-family="Times Roman,serif" font-size="14.00">q8</text>
</g>
<!-- q9&#45;&gt;q8 -->
<g id="edge28" class="edge"><title>q9&#45;&gt;q8</title>
<path fill="none" stroke="black" d="M156.712,-100.943C162.359,-87.7193 170.163,-69.4472 176.795,-53.9182"/>
<polygon fill="black" stroke="black" points="180.035,-55.2444 180.744,-44.6733 173.597,-52.495 180.035,-55.2444"/>
<text text-anchor="middle" x="175.5" y="-69.4" font-family="Times Roman,serif" font-size="14.00">a</text>
</g>
<!-- q4&#45;&gt;q9 -->
<g id="edge16" class="edge"><title>q4&#45;&gt;q9</title>
<path fill="none" stroke="black" d="M197.714,-193.696C188.691,-179.859 175.905,-160.255 165.697,-144.602"/>
<polygon fill="black" stroke="black" points="168.427,-142.38 160.032,-135.916 162.563,-146.204 168.427,-142.38"/>
<text text-anchor="middle" x="188.5" y="-161.4" font-family="Times Roman,serif" font-size="14.00">a</text>
</g>
<!-- q4&#45;&gt;q8 -->
<g id="edge14" class="edge"><title>q4&#45;&gt;q8</title>
<path fill="none" stroke="black" d="M207.109,-192.287C203.893,-160.468 197.321,-95.4371 193.324,-55.8857"/>
<polygon fill="black" stroke="black" points="196.781,-55.2921 192.294,-45.6947 189.817,-55.996 196.781,-55.2921"/>
<text text-anchor="middle" x="205.5" y="-115.4" font-family="Times Roman,serif" font-size="14.00">b</text>
</g>
<!-- q3&#45;&gt;q6 -->
<g id="edge12" class="edge"><title>q3&#45;&gt;q6</title>
<path fill="none" stroke="black" d="M48.6768,-229.138C44.8335,-242.234 39.5718,-260.163 35.1949,-275.077"/>
<polygon fill="black" stroke="black" points="31.7921,-274.243 32.3343,-284.824 38.5088,-276.214 31.7921,-274.243"/>
<text text-anchor="middle" x="47.5" y="-253.4" font-family="Times Roman,serif" font-size="14.00">a</text>
</g>
<!-- q3&#45;&gt;q9 -->
<g id="edge10" class="edge"><title>q3&#45;&gt;q9</title>
<path fill="none" stroke="black" d="M61.5134,-193.092C67.0294,-181.502 75.398,-166.645 86,-156 94.8613,-147.102 106.291,-139.553 116.977,-133.64"/>
<polygon fill="black" stroke="black" points="118.854,-136.608 126.093,-128.872 115.609,-130.405 118.854,-136.608"/>
<text text-anchor="middle" x="90.5" y="-161.4" font-family="Times Roman,serif" font-size="14.00">b</text>
</g>
<!-- q8&#45;&gt;q8 -->
<g id="edge22" class="edge"><title>q8&#45;&gt;q8</title>
<path fill="none" stroke="black" d="M220.625,-27.6875C230.833,-27.6875 239,-26.125 239,-23 239,-21.0469 235.81,-19.7041 230.925,-18.9717"/>
<polygon fill="black" stroke="black" points="230.828,-15.4584 220.625,-18.3125 230.381,-22.4441 230.828,-15.4584"/>
<text text-anchor="middle" x="243.5" y="-19.4" font-family="Times Roman,serif" font-size="14.00">b</text>
</g>
<!-- q8&#45;&gt;q8 -->
<g id="edge24" class="edge"><title>q8&#45;&gt;q8</title>
<path fill="none" stroke="black" d="M213.347,-37.9505C234.424,-45.2237 257,-40.2402 257,-23 257,-8.45355 240.928,-2.63284 223.245,-5.53787"/>
<polygon fill="black" stroke="black" points="222.179,-2.19731 213.347,-8.04948 223.901,-8.98227 222.179,-2.19731"/>
<text text-anchor="middle" x="261.5" y="-19.4" font-family="Times Roman,serif" font-size="14.00">a</text>
</g>
</g>
</svg>
