<?xml version="1.0" encoding="UTF-8" standalone="no"?>
<!DOCTYPE svg PUBLIC "-//W3C//DTD SVG 1.1//EN"
 "http://www.w3.org/Graphics/SVG/1.1/DTD/svg11.dtd">
<!-- Generated by graphviz version 2.26.3 (20100126.1600)
 -->
<!-- Title: G Pages: 1 -->
<svg width="323pt" height="506pt"
 viewBox="0.00 0.00 322.91 506.00" xmlns="http://www.w3.org/2000/svg" xmlns:xlink="http://www.w3.org/1999/xlink">
<g id="graph1" class="graph" transform="scale(1 1) rotate(0) translate(4 502)">
<title>G</title>
<polygon fill="white" stroke="white" points="-4,5 -4,-502 319.91,-502 319.91,5 -4,5"/>
<!-- q6 -->
<g id="node1" class="node"><title>q6</title>
<ellipse fill="none" stroke="black" cx="95.9098" cy="-295" rx="27" ry="18.3848"/>
<text text-anchor="middle" x="95.9098" y="-291.4" font-family="Times Roman,serif" font-size="14.00">q6</text>
</g>
<!-- q4 -->
<g id="node3" class="node"><title>q4</title>
<ellipse fill="none" stroke="black" cx="172.91" cy="-203" rx="27" ry="18.3848"/>
<text text-anchor="middle" x="172.91" y="-199.4" font-family="Times Roman,serif" font-size="14.00">q4</text>
</g>
<!-- q6&#45;&gt;q4 -->
<g id="edge2" class="edge"><title>q6&#45;&gt;q4</title>
<path fill="none" stroke="black" d="M111.952,-280.036C118.674,-273.497 126.418,-265.597 132.91,-258 140.896,-248.654 149.003,-237.811 155.812,-228.236"/>
<polygon fill="black" stroke="black" points="158.794,-230.079 161.658,-219.878 153.058,-226.066 158.794,-230.079"/>
<text text-anchor="middle" x="150.41" y="-245.4" font-family="Times Roman,serif" font-size="14.00">b</text>
</g>
<!-- q2 -->
<g id="node5" class="node"><title>q2</title>
<ellipse fill="none" stroke="black" cx="72.9098" cy="-19" rx="27" ry="18.3848"/>
<text text-anchor="middle" x="72.9098" y="-15.4" font-family="Times Roman,serif" font-size="14.00">q2</text>
</g>
<!-- q6&#45;&gt;q2 -->
<g id="edge4" class="edge"><title>q6&#45;&gt;q2</title>
<path fill="none" stroke="black" d="M70.1372,-288.731C53.5455,-283.345 32.9098,-273.864 20.9098,-258 -4.17526,-224.838 7.70343,-207.408 3.90983,-166 -0.603438,-116.737 -5.68305,-97.7136 20.9098,-56 26.1587,-47.7667 33.9558,-40.8173 41.9248,-35.2435"/>
<polygon fill="black" stroke="black" points="43.9899,-38.0774 50.527,-29.7397 40.2173,-32.181 43.9899,-38.0774"/>
<text text-anchor="middle" x="8.40983" y="-153.4" font-family="Times Roman,serif" font-size="14.00">a</text>
</g>
<!-- q5 -->
<g id="node6" class="node"><title>q5</title>
<ellipse fill="none" stroke="black" cx="139.91" cy="-111" rx="27" ry="18.3848"/>
<text text-anchor="middle" x="139.91" y="-107.4" font-family="Times Roman,serif" font-size="14.00">q5</text>
</g>
<!-- q4&#45;&gt;q5 -->
<g id="edge18" class="edge"><title>q4&#45;&gt;q5</title>
<path fill="none" stroke="black" d="M170.801,-184.48C169.174,-173.6 166.416,-159.726 161.91,-148 160.473,-144.261 158.674,-140.466 156.726,-136.803"/>
<polygon fill="black" stroke="black" points="159.724,-134.995 151.704,-128.072 153.657,-138.486 159.724,-134.995"/>
<text text-anchor="middle" x="171.41" y="-153.4" font-family="Times Roman,serif" font-size="14.00">b</text>
</g>
<!-- q4&#45;&gt;q5 -->
<g id="edge20" class="edge"><title>q4&#45;&gt;q5</title>
<path fill="none" stroke="black" d="M162.369,-185.757C158.984,-179.677 155.456,-172.688 152.91,-166 149.708,-157.591 147.131,-148.148 145.144,-139.491"/>
<polygon fill="black" stroke="black" points="148.511,-138.498 143.008,-129.444 141.664,-139.954 148.511,-138.498"/>
<text text-anchor="middle" x="157.41" y="-153.4" font-family="Times Roman,serif" font-size="14.00">a</text>
</g>
<!-- q2&#45;&gt;q6 -->
<g id="edge14" class="edge"><title>q2&#45;&gt;q6</title>
<path fill="none" stroke="black" d="M65.5509,-36.898C55.0745,-64.3726 37.579,-118.728 41.9098,-166 45.7034,-207.408 39.559,-221.196 58.9098,-258 61.9062,-263.699 66.0794,-269.078 70.5482,-273.878"/>
<polygon fill="black" stroke="black" points="68.1057,-276.385 77.6873,-280.907 73.0167,-271.397 68.1057,-276.385"/>
<text text-anchor="middle" x="46.4098" y="-153.4" font-family="Times Roman,serif" font-size="14.00">b</text>
</g>
<!-- q2&#45;&gt;q6 -->
<g id="edge16" class="edge"><title>q2&#45;&gt;q6</title>
<path fill="none" stroke="black" d="M74.4782,-37.8205C78.4307,-85.2508 88.8193,-209.914 93.5285,-266.424"/>
<polygon fill="black" stroke="black" points="90.0466,-266.788 94.365,-276.462 97.0224,-266.206 90.0466,-266.788"/>
<text text-anchor="middle" x="89.4098" y="-153.4" font-family="Times Roman,serif" font-size="14.00">a</text>
</g>
<!-- q5&#45;&gt;q6 -->
<g id="edge6" class="edge"><title>q5&#45;&gt;q6</title>
<path fill="none" stroke="black" d="M135.482,-129.514C127.759,-161.812 111.779,-228.636 102.666,-266.749"/>
<polygon fill="black" stroke="black" points="99.2114,-266.145 100.29,-276.685 106.019,-267.773 99.2114,-266.145"/>
<text text-anchor="middle" x="126.41" y="-199.4" font-family="Times Roman,serif" font-size="14.00">b</text>
</g>
<!-- q5&#45;&gt;q2 -->
<g id="edge8" class="edge"><title>q5&#45;&gt;q2</title>
<path fill="none" stroke="black" d="M127.621,-94.1258C117.421,-80.1197 102.764,-59.9939 91.1874,-44.0976"/>
<polygon fill="black" stroke="black" points="93.837,-41.7904 85.1208,-35.7672 88.1785,-45.9113 93.837,-41.7904"/>
<text text-anchor="middle" x="116.41" y="-61.4" font-family="Times Roman,serif" font-size="14.00">a</text>
</g>
<!-- q7 -->
<g id="node9" class="node"><title>q7</title>
<ellipse fill="none" stroke="black" cx="161.91" cy="-479" rx="27" ry="18.3848"/>
<text text-anchor="middle" x="161.91" y="-475.4" font-family="Times Roman,serif" font-size="14.00">q7</text>
</g>
<!-- q7&#45;&gt;q7 -->
<g id="edge12" class="edge"><title>q7&#45;&gt;q7</title>
<path fill="none" stroke="black" d="M185.984,-487.454C197.152,-488.377 206.91,-485.559 206.91,-479 206.91,-474.593 202.505,-471.875 196.227,-470.846"/>
<polygon fill="black" stroke="black" points="196.082,-467.34 185.984,-470.546 195.877,-474.337 196.082,-467.34"/>
<text text-anchor="middle" x="211.41" y="-475.4" font-family="Times Roman,serif" font-size="14.00">a</text>
</g>
<!-- q3 -->
<g id="node11" class="node"><title>q3</title>
<ellipse fill="none" stroke="black" cx="194.91" cy="-387" rx="27" ry="18.3848"/>
<text text-anchor="middle" x="194.91" y="-383.4" font-family="Times Roman,serif" font-size="14.00">q3</text>
</g>
<!-- q7&#45;&gt;q3 -->
<g id="edge10" class="edge"><title>q7&#45;&gt;q3</title>
<path fill="none" stroke="black" d="M168.43,-460.824C173.13,-447.719 179.562,-429.789 184.909,-414.88"/>
<polygon fill="black" stroke="black" points="188.322,-415.733 188.404,-405.138 181.733,-413.37 188.322,-415.733"/>
<text text-anchor="middle" x="185.41" y="-429.4" font-family="Times Roman,serif" font-size="14.00">b</text>
</g>
<!-- q3&#45;&gt;q6 -->
<g id="edge24" class="edge"><title>q3&#45;&gt;q6</title>
<path fill="none" stroke="black" d="M178.562,-371.808C162.416,-356.803 137.56,-333.705 119.32,-316.755"/>
<polygon fill="black" stroke="black" points="121.661,-314.153 111.953,-309.909 116.896,-319.28 121.661,-314.153"/>
<text text-anchor="middle" x="158.41" y="-337.4" font-family="Times Roman,serif" font-size="14.00">a</text>
</g>
<!-- q3&#45;&gt;q2 -->
<g id="edge22" class="edge"><title>q3&#45;&gt;q2</title>
<path fill="none" stroke="black" d="M207.434,-370.355C219.491,-352.645 235.91,-323.328 235.91,-295 235.91,-295 235.91,-295 235.91,-111 235.91,-53.4801 157.979,-31.519 109.888,-23.4428"/>
<polygon fill="black" stroke="black" points="110.245,-19.9564 99.826,-21.8808 109.171,-26.8735 110.245,-19.9564"/>
<text text-anchor="middle" x="240.41" y="-199.4" font-family="Times Roman,serif" font-size="14.00">b</text>
</g>
<!-- q0 -->
<g id="node19" class="node"><title>q0</title>
<ellipse fill="none" stroke="black" cx="260.91" cy="-479" rx="27" ry="18.3848"/>
<text text-anchor="middle" x="260.91" y="-475.4" font-family="Times Roman,serif" font-size="14.00">q0</text>
</g>
<!-- q0&#45;&gt;q3 -->
<g id="edge26" class="edge"><title>q0&#45;&gt;q3</title>
<path fill="none" stroke="black" d="M248.804,-462.126C238.757,-448.12 224.318,-427.994 212.915,-412.098"/>
<polygon fill="black" stroke="black" points="215.612,-409.852 206.939,-403.767 209.924,-413.933 215.612,-409.852"/>
<text text-anchor="middle" x="237.41" y="-429.4" font-family="Times Roman,serif" font-size="14.00">b</text>
</g>
<!-- q0&#45;&gt;q0 -->
<g id="edge28" class="edge"><title>q0&#45;&gt;q0</title>
<path fill="none" stroke="black" d="M284.984,-487.454C296.152,-488.377 305.91,-485.559 305.91,-479 305.91,-474.593 301.505,-471.875 295.227,-470.846"/>
<polygon fill="black" stroke="black" points="295.082,-467.34 284.984,-470.546 294.877,-474.337 295.082,-467.34"/>
<text text-anchor="middle" x="310.41" y="-475.4" font-family="Times Roman,serif" font-size="14.00">a</text>
</g>
</g>
</svg>
