<?xml version="1.0" encoding="UTF-8" standalone="no"?>
<!DOCTYPE svg PUBLIC "-//W3C//DTD SVG 1.1//EN"
 "http://www.w3.org/Graphics/SVG/1.1/DTD/svg11.dtd">
<!-- Generated by graphviz version 2.26.3 (20100126.1600)
 -->
<!-- Title: G Pages: 1 -->
<svg width="257pt" height="606pt"
 viewBox="0.00 0.00 257.00 606.00" xmlns="http://www.w3.org/2000/svg" xmlns:xlink="http://www.w3.org/1999/xlink">
<g id="graph1" class="graph" transform="scale(1 1) rotate(0) translate(4 602)">
<title>G</title>
<polygon fill="white" stroke="white" points="-4,5 -4,-602 254,-602 254,5 -4,5"/>
<!-- q0 -->
<g id="node1" class="node"><title>q0</title>
<ellipse fill="none" stroke="black" cx="55" cy="-487" rx="27" ry="18.3848"/>
<text text-anchor="middle" x="55" y="-483.4" font-family="Times Roman,serif" font-size="14.00">q0</text>
</g>
<!-- q0&#45;&gt;q0 -->
<g id="edge2" class="edge"><title>q0&#45;&gt;q0</title>
<path fill="none" stroke="black" d="M79.0743,-495.454C90.2423,-496.377 100,-493.559 100,-487 100,-482.593 95.5952,-479.875 89.3174,-478.846"/>
<polygon fill="black" stroke="black" points="89.1726,-475.34 79.0743,-478.546 88.9674,-482.337 89.1726,-475.34"/>
<text text-anchor="middle" x="104.5" y="-483.4" font-family="Times Roman,serif" font-size="14.00">b</text>
</g>
<!-- q8 -->
<g id="node4" class="node"><title>q8</title>
<ellipse fill="none" stroke="black" cx="154" cy="-391" rx="27" ry="18.3848"/>
<ellipse fill="none" stroke="black" cx="154" cy="-391" rx="31" ry="22.3848"/>
<text text-anchor="middle" x="154" y="-387.4" font-family="Times Roman,serif" font-size="14.00">q8</text>
</g>
<!-- q0&#45;&gt;q8 -->
<g id="edge4" class="edge"><title>q0&#45;&gt;q8</title>
<path fill="none" stroke="black" d="M70.9061,-471.576C86.2104,-456.735 109.627,-434.029 127.705,-416.498"/>
<polygon fill="black" stroke="black" points="130.345,-418.814 135.087,-409.339 125.472,-413.788 130.345,-418.814"/>
<text text-anchor="middle" x="114.5" y="-437.4" font-family="Times Roman,serif" font-size="14.00">a</text>
</g>
<!-- q8&#45;&gt;q8 -->
<g id="edge26" class="edge"><title>q8&#45;&gt;q8</title>
<path fill="none" stroke="black" d="M184.625,-395.688C194.833,-395.688 203,-394.125 203,-391 203,-389.047 199.81,-387.704 194.925,-386.972"/>
<polygon fill="black" stroke="black" points="194.828,-383.458 184.625,-386.312 194.381,-390.444 194.828,-383.458"/>
<text text-anchor="middle" x="207.5" y="-387.4" font-family="Times Roman,serif" font-size="14.00">b</text>
</g>
<!-- q8&#45;&gt;q8 -->
<g id="edge28" class="edge"><title>q8&#45;&gt;q8</title>
<path fill="none" stroke="black" d="M177.347,-405.951C198.424,-413.224 221,-408.24 221,-391 221,-376.454 204.928,-370.633 187.245,-373.538"/>
<polygon fill="black" stroke="black" points="186.179,-370.197 177.347,-376.049 187.901,-376.982 186.179,-370.197"/>
<text text-anchor="middle" x="225.5" y="-387.4" font-family="Times Roman,serif" font-size="14.00">a</text>
</g>
<!-- q2 -->
<g id="node5" class="node"><title>q2</title>
<ellipse fill="none" stroke="black" cx="156" cy="-295" rx="27" ry="18.3848"/>
<text text-anchor="middle" x="156" y="-291.4" font-family="Times Roman,serif" font-size="14.00">q2</text>
</g>
<!-- q8&#45;&gt;q2 -->
<g id="edge34" class="edge"><title>q8&#45;&gt;q2</title>
<path fill="none" stroke="black" d="M154.474,-368.249C154.75,-354.994 155.101,-338.148 155.397,-323.954"/>
<polygon fill="black" stroke="black" points="158.901,-323.791 155.61,-313.72 151.902,-323.645 158.901,-323.791"/>
<text text-anchor="middle" x="159.5" y="-337.4" font-family="Times Roman,serif" font-size="14.00">b</text>
</g>
<!-- q7 -->
<g id="node7" class="node"><title>q7</title>
<ellipse fill="none" stroke="black" cx="175" cy="-19" rx="27" ry="18.3848"/>
<text text-anchor="middle" x="175" y="-15.4" font-family="Times Roman,serif" font-size="14.00">q7</text>
</g>
<!-- q8&#45;&gt;q7 -->
<g id="edge36" class="edge"><title>q8&#45;&gt;q7</title>
<path fill="none" stroke="black" d="M178.875,-377.229C204.274,-361.129 240,-331.921 240,-295 240,-295 240,-295 240,-111 240,-82.4231 218.822,-56.4948 200.643,-39.5022"/>
<polygon fill="black" stroke="black" points="202.9,-36.8255 193.106,-32.785 198.243,-42.0513 202.9,-36.8255"/>
<text text-anchor="middle" x="244.5" y="-199.4" font-family="Times Roman,serif" font-size="14.00">a</text>
</g>
<!-- q2&#45;&gt;q7 -->
<g id="edge6" class="edge"><title>q2&#45;&gt;q7</title>
<path fill="none" stroke="black" d="M164.101,-277.293C166.464,-271.294 168.746,-264.473 170,-258 184.472,-183.282 180.776,-92.9723 177.515,-47.748"/>
<polygon fill="black" stroke="black" points="180.985,-47.2169 176.728,-37.515 174.005,-47.7541 180.985,-47.2169"/>
<text text-anchor="middle" x="184.5" y="-153.4" font-family="Times Roman,serif" font-size="14.00">b</text>
</g>
<!-- q4 -->
<g id="node9" class="node"><title>q4</title>
<ellipse fill="none" stroke="black" cx="101" cy="-203" rx="27" ry="18.3848"/>
<text text-anchor="middle" x="101" y="-199.4" font-family="Times Roman,serif" font-size="14.00">q4</text>
</g>
<!-- q2&#45;&gt;q4 -->
<g id="edge8" class="edge"><title>q2&#45;&gt;q4</title>
<path fill="none" stroke="black" d="M145.13,-277.747C141.261,-271.545 136.899,-264.481 133,-258 127.362,-248.628 121.3,-238.28 115.983,-229.111"/>
<polygon fill="black" stroke="black" points="118.993,-227.324 110.96,-220.416 112.932,-230.826 118.993,-227.324"/>
<text text-anchor="middle" x="137.5" y="-245.4" font-family="Times Roman,serif" font-size="14.00">a</text>
</g>
<!-- q7&#45;&gt;q2 -->
<g id="edge22" class="edge"><title>q7&#45;&gt;q2</title>
<path fill="none" stroke="black" d="M173.678,-37.7994C171.915,-62.9151 168.7,-108.805 166,-148 163.166,-189.138 159.936,-236.755 157.932,-266.38"/>
<polygon fill="black" stroke="black" points="154.435,-266.222 157.253,-276.435 161.419,-266.694 154.435,-266.222"/>
<text text-anchor="middle" x="170.5" y="-153.4" font-family="Times Roman,serif" font-size="14.00">b</text>
</g>
<!-- q7&#45;&gt;q7 -->
<g id="edge24" class="edge"><title>q7&#45;&gt;q7</title>
<path fill="none" stroke="black" d="M199.074,-27.4544C210.242,-28.3767 220,-25.5586 220,-19 220,-14.5934 215.595,-11.8754 209.317,-10.8458"/>
<polygon fill="black" stroke="black" points="209.173,-7.34018 199.074,-10.5456 208.967,-14.3372 209.173,-7.34018"/>
<text text-anchor="middle" x="224.5" y="-15.4" font-family="Times Roman,serif" font-size="14.00">a</text>
</g>
<!-- q4&#45;&gt;q8 -->
<g id="edge14" class="edge"><title>q4&#45;&gt;q8</title>
<path fill="none" stroke="black" d="M100.341,-221.524C100.068,-243.936 101.293,-282.572 111,-314 116.226,-330.921 125.508,-348.27 134.113,-362.206"/>
<polygon fill="black" stroke="black" points="131.29,-364.288 139.621,-370.833 137.19,-360.521 131.29,-364.288"/>
<text text-anchor="middle" x="115.5" y="-291.4" font-family="Times Roman,serif" font-size="14.00">b</text>
</g>
<!-- q9 -->
<g id="node12" class="node"><title>q9</title>
<ellipse fill="none" stroke="black" cx="67" cy="-111" rx="27" ry="18.3848"/>
<text text-anchor="middle" x="67" y="-107.4" font-family="Times Roman,serif" font-size="14.00">q9</text>
</g>
<!-- q4&#45;&gt;q9 -->
<g id="edge16" class="edge"><title>q4&#45;&gt;q9</title>
<path fill="none" stroke="black" d="M94.2827,-184.824C89.4397,-171.719 82.8132,-153.789 77.3036,-138.88"/>
<polygon fill="black" stroke="black" points="80.4529,-137.305 73.7034,-129.138 73.8869,-139.732 80.4529,-137.305"/>
<text text-anchor="middle" x="91.5" y="-153.4" font-family="Times Roman,serif" font-size="14.00">a</text>
</g>
<!-- q3 -->
<g id="node10" class="node"><title>q3</title>
<ellipse fill="none" stroke="black" cx="46" cy="-579" rx="27" ry="18.3848"/>
<text text-anchor="middle" x="46" y="-575.4" font-family="Times Roman,serif" font-size="14.00">q3</text>
</g>
<!-- q3&#45;&gt;q9 -->
<g id="edge10" class="edge"><title>q3&#45;&gt;q9</title>
<path fill="none" stroke="black" d="M32.1985,-562.921C18.6489,-545.446 0,-516.108 0,-487 0,-487 0,-487 0,-203 0,-174.127 21.8295,-148.241 40.5679,-131.339"/>
<polygon fill="black" stroke="black" points="43.0337,-133.835 48.3368,-124.662 38.4713,-128.526 43.0337,-133.835"/>
<text text-anchor="middle" x="4.5" y="-337.4" font-family="Times Roman,serif" font-size="14.00">b</text>
</g>
<!-- q6 -->
<g id="node14" class="node"><title>q6</title>
<ellipse fill="none" stroke="black" cx="154" cy="-487" rx="27" ry="18.3848"/>
<text text-anchor="middle" x="154" y="-483.4" font-family="Times Roman,serif" font-size="14.00">q6</text>
</g>
<!-- q3&#45;&gt;q6 -->
<g id="edge12" class="edge"><title>q3&#45;&gt;q6</title>
<path fill="none" stroke="black" d="M63.3521,-564.219C81.1703,-549.04 109.068,-525.275 129.21,-508.117"/>
<polygon fill="black" stroke="black" points="131.704,-510.59 137.047,-501.441 127.165,-505.262 131.704,-510.59"/>
<text text-anchor="middle" x="113.5" y="-529.4" font-family="Times Roman,serif" font-size="14.00">a</text>
</g>
<!-- q9&#45;&gt;q0 -->
<g id="edge30" class="edge"><title>q9&#45;&gt;q0</title>
<path fill="none" stroke="black" d="M60.3555,-129.051C54.2031,-147.403 46,-176.787 46,-203 46,-391 46,-391 46,-391 46,-413.635 48.5108,-439.141 50.8801,-458.17"/>
<polygon fill="black" stroke="black" points="47.4356,-458.823 52.2017,-468.286 54.3766,-457.916 47.4356,-458.823"/>
<text text-anchor="middle" x="50.5" y="-291.4" font-family="Times Roman,serif" font-size="14.00">b</text>
</g>
<!-- q9&#45;&gt;q7 -->
<g id="edge32" class="edge"><title>q9&#45;&gt;q7</title>
<path fill="none" stroke="black" d="M84.3521,-96.2186C102.17,-81.0401 130.068,-57.2752 150.21,-40.1173"/>
<polygon fill="black" stroke="black" points="152.704,-42.5904 158.047,-33.4414 148.165,-37.2617 152.704,-42.5904"/>
<text text-anchor="middle" x="134.5" y="-61.4" font-family="Times Roman,serif" font-size="14.00">a</text>
</g>
<!-- q6&#45;&gt;q8 -->
<g id="edge20" class="edge"><title>q6&#45;&gt;q8</title>
<path fill="none" stroke="black" d="M154,-468.49C154,-455.863 154,-438.791 154,-423.885"/>
<polygon fill="black" stroke="black" points="157.5,-423.508 154,-413.508 150.5,-423.508 157.5,-423.508"/>
<text text-anchor="middle" x="158.5" y="-437.4" font-family="Times Roman,serif" font-size="14.00">a</text>
</g>
<!-- q6&#45;&gt;q6 -->
<g id="edge18" class="edge"><title>q6&#45;&gt;q6</title>
<path fill="none" stroke="black" d="M178.074,-495.454C189.242,-496.377 199,-493.559 199,-487 199,-482.593 194.595,-479.875 188.317,-478.846"/>
<polygon fill="black" stroke="black" points="188.173,-475.34 178.074,-478.546 187.967,-482.337 188.173,-475.34"/>
<text text-anchor="middle" x="203.5" y="-483.4" font-family="Times Roman,serif" font-size="14.00">b</text>
</g>
</g>
</svg>
