<?xml version="1.0" encoding="UTF-8" standalone="no"?>
<!DOCTYPE svg PUBLIC "-//W3C//DTD SVG 1.1//EN"
 "http://www.w3.org/Graphics/SVG/1.1/DTD/svg11.dtd">
<!-- Generated by graphviz version 2.26.3 (20100126.1600)
 -->
<!-- Title: G Pages: 1 -->
<svg width="296pt" height="412pt"
 viewBox="0.00 0.00 296.00 412.00" xmlns="http://www.w3.org/2000/svg" xmlns:xlink="http://www.w3.org/1999/xlink">
<g id="graph1" class="graph" transform="scale(1 1) rotate(0) translate(4 408)">
<title>G</title>
<polygon fill="white" stroke="white" points="-4,5 -4,-408 293,-408 293,5 -4,5"/>
<!-- q6 -->
<g id="node1" class="node"><title>q6</title>
<ellipse fill="none" stroke="black" cx="74" cy="-386" rx="27" ry="18"/>
<text text-anchor="middle" x="74" y="-381.9" font-family="Times Roman,serif" font-size="14.00">q6</text>
</g>
<!-- q2 -->
<g id="node3" class="node"><title>q2</title>
<ellipse fill="none" stroke="black" cx="74" cy="-296" rx="27" ry="18"/>
<text text-anchor="middle" x="74" y="-291.9" font-family="Times Roman,serif" font-size="14.00">q2</text>
</g>
<!-- q6&#45;&gt;q2 -->
<g id="edge2" class="edge"><title>q6&#45;&gt;q2</title>
<path fill="none" stroke="black" d="M74,-367.787C74,-355.344 74,-338.605 74,-324.421"/>
<polygon fill="black" stroke="black" points="77.5001,-324.186 74,-314.186 70.5001,-324.186 77.5001,-324.186"/>
<text text-anchor="middle" x="78.5" y="-336.9" font-family="Times Roman,serif" font-size="14.00">b</text>
</g>
<!-- q4 -->
<g id="node5" class="node"><title>q4</title>
<ellipse fill="none" stroke="black" cx="76" cy="-18" rx="27" ry="18"/>
<text text-anchor="middle" x="76" y="-13.9" font-family="Times Roman,serif" font-size="14.00">q4</text>
</g>
<!-- q6&#45;&gt;q4 -->
<g id="edge4" class="edge"><title>q6&#45;&gt;q4</title>
<path fill="none" stroke="black" d="M54.1694,-373.727C32.2497,-358.458 0,-330.186 0,-296 0,-296 0,-296 0,-112 0,-80.5044 26.1197,-53.631 47.7342,-36.7847"/>
<polygon fill="black" stroke="black" points="50.0929,-39.3925 56.0319,-30.6187 45.9178,-33.7739 50.0929,-39.3925"/>
<text text-anchor="middle" x="4.5" y="-201.9" font-family="Times Roman,serif" font-size="14.00">a</text>
</g>
<!-- q2&#45;&gt;q4 -->
<g id="edge14" class="edge"><title>q2&#45;&gt;q4</title>
<path fill="none" stroke="black" d="M67.5366,-278.197C65.589,-272.44 63.5574,-265.994 62,-260 51.7625,-220.601 48.7943,-210.53 45,-170 40.1432,-118.121 48.0351,-104.2 62,-54 62.8357,-50.9958 63.8298,-47.8952 64.897,-44.8324"/>
<polygon fill="black" stroke="black" points="68.222,-45.9335 68.4516,-35.3411 61.6666,-43.4784 68.222,-45.9335"/>
<text text-anchor="middle" x="49.5" y="-156.9" font-family="Times Roman,serif" font-size="14.00">b</text>
</g>
<!-- q5 -->
<g id="node6" class="node"><title>q5</title>
<ellipse fill="none" stroke="black" cx="137" cy="-206" rx="27" ry="18"/>
<text text-anchor="middle" x="137" y="-201.9" font-family="Times Roman,serif" font-size="14.00">q5</text>
</g>
<!-- q2&#45;&gt;q5 -->
<g id="edge16" class="edge"><title>q2&#45;&gt;q5</title>
<path fill="none" stroke="black" d="M85.5552,-279.493C95.0575,-265.918 108.673,-246.467 119.51,-230.985"/>
<polygon fill="black" stroke="black" points="122.651,-232.602 125.518,-222.403 116.916,-228.588 122.651,-232.602"/>
<text text-anchor="middle" x="115.5" y="-246.9" font-family="Times Roman,serif" font-size="14.00">a</text>
</g>
<!-- q4&#45;&gt;q2 -->
<g id="edge18" class="edge"><title>q4&#45;&gt;q2</title>
<path fill="none" stroke="black" d="M75.8683,-36.3075C75.5273,-83.7049 74.6137,-210.689 74.2039,-267.657"/>
<polygon fill="black" stroke="black" points="70.7034,-267.735 74.1312,-277.76 77.7032,-267.785 70.7034,-267.735"/>
<text text-anchor="middle" x="79.5" y="-156.9" font-family="Times Roman,serif" font-size="14.00">b</text>
</g>
<!-- q4&#45;&gt;q4 -->
<g id="edge20" class="edge"><title>q4&#45;&gt;q4</title>
<path fill="none" stroke="black" d="M100.532,-26.1211C111.508,-26.8945 121,-24.1875 121,-18 121,-13.8428 116.715,-11.2567 110.574,-10.2417"/>
<polygon fill="black" stroke="black" points="110.652,-6.74237 100.532,-9.87891 110.4,-13.7378 110.652,-6.74237"/>
<text text-anchor="middle" x="125.5" y="-13.9" font-family="Times Roman,serif" font-size="14.00">a</text>
</g>
<!-- q5&#45;&gt;q6 -->
<g id="edge8" class="edge"><title>q5&#45;&gt;q6</title>
<path fill="none" stroke="black" d="M133.765,-223.943C129.565,-245.67 121.399,-283.185 110,-314 104.186,-329.715 95.9217,-346.504 88.7771,-359.913"/>
<polygon fill="black" stroke="black" points="85.5292,-358.559 83.8237,-369.015 91.6778,-361.905 85.5292,-358.559"/>
<text text-anchor="middle" x="125.5" y="-291.9" font-family="Times Roman,serif" font-size="14.00">a</text>
</g>
<!-- q3 -->
<g id="node8" class="node"><title>q3</title>
<ellipse fill="none" stroke="black" cx="234" cy="-112" rx="27" ry="18"/>
<ellipse fill="none" stroke="black" cx="234" cy="-112" rx="31" ry="22"/>
<text text-anchor="middle" x="234" y="-107.9" font-family="Times Roman,serif" font-size="14.00">q3</text>
</g>
<!-- q5&#45;&gt;q3 -->
<g id="edge6" class="edge"><title>q5&#45;&gt;q3</title>
<path fill="none" stroke="black" d="M152.585,-190.897C167.58,-176.366 190.523,-154.132 208.237,-136.967"/>
<polygon fill="black" stroke="black" points="210.724,-139.43 215.469,-129.957 205.853,-134.403 210.724,-139.43"/>
<text text-anchor="middle" x="195.5" y="-156.9" font-family="Times Roman,serif" font-size="14.00">b</text>
</g>
<!-- q3&#45;&gt;q4 -->
<g id="edge22" class="edge"><title>q3&#45;&gt;q4</title>
<path fill="none" stroke="black" d="M210.003,-97.7234C181.839,-80.9673 135.158,-53.1951 104.994,-35.2494"/>
<polygon fill="black" stroke="black" points="106.585,-32.1236 96.2014,-30.0186 103.006,-38.1395 106.585,-32.1236"/>
<text text-anchor="middle" x="168.5" y="-58.9" font-family="Times Roman,serif" font-size="14.00">b</text>
</g>
<!-- q0 -->
<g id="node19" class="node"><title>q0</title>
<ellipse fill="none" stroke="black" cx="234" cy="-18" rx="27" ry="18"/>
<text text-anchor="middle" x="234" y="-13.9" font-family="Times Roman,serif" font-size="14.00">q0</text>
</g>
<!-- q3&#45;&gt;q0 -->
<g id="edge24" class="edge"><title>q3&#45;&gt;q0</title>
<path fill="none" stroke="black" d="M223.928,-91.1897C219.802,-80.1982 216.512,-66.4425 219,-54 219.617,-50.9127 220.506,-47.7592 221.545,-44.6654"/>
<polygon fill="black" stroke="black" points="224.887,-45.7291 225.24,-35.1401 218.361,-43.1977 224.887,-45.7291"/>
<text text-anchor="middle" x="223.5" y="-58.9" font-family="Times Roman,serif" font-size="14.00">a</text>
</g>
<!-- q7 -->
<g id="node10" class="node"><title>q7</title>
<ellipse fill="none" stroke="black" cx="131" cy="-112" rx="27" ry="18"/>
<text text-anchor="middle" x="131" y="-107.9" font-family="Times Roman,serif" font-size="14.00">q7</text>
</g>
<!-- q7&#45;&gt;q4 -->
<g id="edge10" class="edge"><title>q7&#45;&gt;q4</title>
<path fill="none" stroke="black" d="M121.167,-95.1947C112.85,-80.9802 100.794,-60.3759 91.2298,-44.0291"/>
<polygon fill="black" stroke="black" points="94.0043,-41.8403 85.9332,-34.9768 87.9625,-45.3755 94.0043,-41.8403"/>
<text text-anchor="middle" x="110.5" y="-58.9" font-family="Times Roman,serif" font-size="14.00">b</text>
</g>
<!-- q7&#45;&gt;q7 -->
<g id="edge12" class="edge"><title>q7&#45;&gt;q7</title>
<path fill="none" stroke="black" d="M154.615,-120.78C165.973,-121.864 176,-118.938 176,-112 176,-107.339 171.474,-104.488 165.058,-103.448"/>
<polygon fill="black" stroke="black" points="164.689,-99.9393 154.615,-103.22 164.536,-106.938 164.689,-99.9393"/>
<text text-anchor="middle" x="180.5" y="-107.9" font-family="Times Roman,serif" font-size="14.00">a</text>
</g>
<!-- q0&#45;&gt;q3 -->
<g id="edge26" class="edge"><title>q0&#45;&gt;q3</title>
<path fill="none" stroke="black" d="M234,-36.0251C234,-48.3326 234,-64.9868 234,-79.5659"/>
<polygon fill="black" stroke="black" points="230.5,-79.7233 234,-89.7233 237.5,-79.7233 230.5,-79.7233"/>
<text text-anchor="middle" x="238.5" y="-58.9" font-family="Times Roman,serif" font-size="14.00">b</text>
</g>
<!-- q0&#45;&gt;q0 -->
<g id="edge28" class="edge"><title>q0&#45;&gt;q0</title>
<path fill="none" stroke="black" d="M258.532,-26.1211C269.508,-26.8945 279,-24.1875 279,-18 279,-13.8428 274.715,-11.2567 268.574,-10.2417"/>
<polygon fill="black" stroke="black" points="268.652,-6.74237 258.532,-9.87891 268.4,-13.7378 268.652,-6.74237"/>
<text text-anchor="middle" x="283.5" y="-13.9" font-family="Times Roman,serif" font-size="14.00">a</text>
</g>
</g>
</svg>
