<?xml version="1.0" encoding="UTF-8" standalone="no"?>
<!DOCTYPE svg PUBLIC "-//W3C//DTD SVG 1.1//EN"
 "http://www.w3.org/Graphics/SVG/1.1/DTD/svg11.dtd">
<!-- Generated by graphviz version 2.26.3 (20100126.1600)
 -->
<!-- Title: G Pages: 1 -->
<svg width="120pt" height="238pt"
 viewBox="0.00 0.00 120.00 238.00" xmlns="http://www.w3.org/2000/svg" xmlns:xlink="http://www.w3.org/1999/xlink">
<g id="graph1" class="graph" transform="scale(1 1) rotate(0) translate(4 234)">
<title>G</title>
<polygon fill="white" stroke="white" points="-4,5 -4,-234 117,-234 117,5 -4,5"/>
<!-- q2 -->
<g id="node1" class="node"><title>q2</title>
<ellipse fill="none" stroke="black" cx="31" cy="-19" rx="27" ry="18.3848"/>
<text text-anchor="middle" x="31" y="-15.4" font-family="Times Roman,serif" font-size="14.00">q2</text>
</g>
<!-- q2&#45;&gt;q2 -->
<g id="edge2" class="edge"><title>q2&#45;&gt;q2</title>
<path fill="none" stroke="black" d="M57.3466,-23.2957C67.5332,-23.4866 76,-22.0547 76,-19 76,-17.0431 72.5252,-15.7522 67.3495,-15.1273"/>
<polygon fill="black" stroke="black" points="67.4855,-11.63 57.3466,-14.7043 67.1898,-18.6237 67.4855,-11.63"/>
<text text-anchor="middle" x="80.5" y="-15.4" font-family="Times Roman,serif" font-size="14.00">b</text>
</g>
<!-- q2&#45;&gt;q2 -->
<g id="edge4" class="edge"><title>q2&#45;&gt;q2</title>
<path fill="none" stroke="black" d="M49.7031,-32.3594C70.375,-41.2656 94,-36.8125 94,-19 94,-3.9707 77.181,1.54787 59.508,-2.44429"/>
<polygon fill="black" stroke="black" points="58.1259,0.786507 49.7031,-5.64062 60.2955,-5.86879 58.1259,0.786507"/>
<text text-anchor="middle" x="98.5" y="-15.4" font-family="Times Roman,serif" font-size="14.00">a</text>
</g>
<!-- q1 -->
<g id="node4" class="node"><title>q1</title>
<ellipse fill="none" stroke="black" cx="31" cy="-211" rx="27" ry="18.3848"/>
<text text-anchor="middle" x="31" y="-207.4" font-family="Times Roman,serif" font-size="14.00">q1</text>
</g>
<!-- q0 -->
<g id="node6" class="node"><title>q0</title>
<ellipse fill="none" stroke="black" cx="31" cy="-115" rx="27" ry="18.3848"/>
<ellipse fill="none" stroke="black" cx="31" cy="-115" rx="31" ry="22.3848"/>
<text text-anchor="middle" x="31" y="-111.4" font-family="Times Roman,serif" font-size="14.00">q0</text>
</g>
<!-- q1&#45;&gt;q0 -->
<g id="edge6" class="edge"><title>q1&#45;&gt;q0</title>
<path fill="none" stroke="black" d="M22.2385,-193.361C19.7013,-187.367 17.2735,-180.531 16,-174 14.2217,-164.88 15.4338,-155.066 17.7921,-146.11"/>
<polygon fill="black" stroke="black" points="21.1701,-147.036 20.8434,-136.446 14.4949,-144.928 21.1701,-147.036"/>
<text text-anchor="middle" x="20.5" y="-161.4" font-family="Times Roman,serif" font-size="14.00">b</text>
</g>
<!-- q1&#45;&gt;q0 -->
<g id="edge8" class="edge"><title>q1&#45;&gt;q0</title>
<path fill="none" stroke="black" d="M31,-192.49C31,-179.863 31,-162.791 31,-147.885"/>
<polygon fill="black" stroke="black" points="34.5001,-147.508 31,-137.508 27.5001,-147.508 34.5001,-147.508"/>
<text text-anchor="middle" x="35.5" y="-161.4" font-family="Times Roman,serif" font-size="14.00">a</text>
</g>
<!-- q0&#45;&gt;q2 -->
<g id="edge10" class="edge"><title>q0&#45;&gt;q2</title>
<path fill="none" stroke="black" d="M31,-92.2493C31,-78.9942 31,-62.1479 31,-47.9538"/>
<polygon fill="black" stroke="black" points="34.5001,-47.7198 31,-37.7198 27.5001,-47.7199 34.5001,-47.7198"/>
<text text-anchor="middle" x="35.5" y="-61.4" font-family="Times Roman,serif" font-size="14.00">b</text>
</g>
<!-- q0&#45;&gt;q0 -->
<g id="edge12" class="edge"><title>q0&#45;&gt;q0</title>
<path fill="none" stroke="black" d="M59.6885,-124.338C70.7806,-124.753 80,-121.641 80,-115 80,-110.538 75.8382,-107.669 69.7429,-106.393"/>
<polygon fill="black" stroke="black" points="69.916,-102.896 59.6885,-105.662 69.4084,-109.878 69.916,-102.896"/>
<text text-anchor="middle" x="84.5" y="-111.4" font-family="Times Roman,serif" font-size="14.00">a</text>
</g>
</g>
</svg>
