<?xml version="1.0" encoding="UTF-8" standalone="no"?>
<!DOCTYPE svg PUBLIC "-//W3C//DTD SVG 1.1//EN"
 "http://www.w3.org/Graphics/SVG/1.1/DTD/svg11.dtd">
<!-- Generated by graphviz version 2.26.3 (20100126.1600)
 -->
<!-- Title: G Pages: 1 -->
<svg width="240pt" height="514pt"
 viewBox="0.00 0.00 240.00 514.00" xmlns="http://www.w3.org/2000/svg" xmlns:xlink="http://www.w3.org/1999/xlink">
<g id="graph1" class="graph" transform="scale(1 1) rotate(0) translate(4 510)">
<title>G</title>
<polygon fill="white" stroke="white" points="-4,5 -4,-510 237,-510 237,5 -4,5"/>
<!-- q0 -->
<g id="node1" class="node"><title>q0</title>
<ellipse fill="none" stroke="black" cx="178" cy="-487" rx="27" ry="18.3848"/>
<text text-anchor="middle" x="178" y="-483.4" font-family="Times Roman,serif" font-size="14.00">q0</text>
</g>
<!-- q0&#45;&gt;q0 -->
<g id="edge2" class="edge"><title>q0&#45;&gt;q0</title>
<path fill="none" stroke="black" d="M202.074,-495.454C213.242,-496.377 223,-493.559 223,-487 223,-482.593 218.595,-479.875 212.317,-478.846"/>
<polygon fill="black" stroke="black" points="212.173,-475.34 202.074,-478.546 211.967,-482.337 212.173,-475.34"/>
<text text-anchor="middle" x="227.5" y="-483.4" font-family="Times Roman,serif" font-size="14.00">b</text>
</g>
<!-- q8 -->
<g id="node4" class="node"><title>q8</title>
<ellipse fill="none" stroke="black" cx="72" cy="-391" rx="27" ry="18.3848"/>
<ellipse fill="none" stroke="black" cx="72" cy="-391" rx="31" ry="22.3848"/>
<text text-anchor="middle" x="72" y="-387.4" font-family="Times Roman,serif" font-size="14.00">q8</text>
</g>
<!-- q0&#45;&gt;q8 -->
<g id="edge4" class="edge"><title>q0&#45;&gt;q8</title>
<path fill="none" stroke="black" d="M161.438,-472C144.783,-456.916 118.823,-433.406 99.1535,-415.592"/>
<polygon fill="black" stroke="black" points="101.451,-412.95 91.6894,-408.832 96.7519,-418.139 101.451,-412.95"/>
<text text-anchor="middle" x="138.5" y="-437.4" font-family="Times Roman,serif" font-size="14.00">a</text>
</g>
<!-- q8&#45;&gt;q8 -->
<g id="edge22" class="edge"><title>q8&#45;&gt;q8</title>
<path fill="none" stroke="black" d="M102.625,-395.688C112.833,-395.688 121,-394.125 121,-391 121,-389.047 117.81,-387.704 112.925,-386.972"/>
<polygon fill="black" stroke="black" points="112.828,-383.458 102.625,-386.312 112.381,-390.444 112.828,-383.458"/>
<text text-anchor="middle" x="125.5" y="-387.4" font-family="Times Roman,serif" font-size="14.00">b</text>
</g>
<!-- q8&#45;&gt;q8 -->
<g id="edge24" class="edge"><title>q8&#45;&gt;q8</title>
<path fill="none" stroke="black" d="M95.3472,-405.951C116.424,-413.224 139,-408.24 139,-391 139,-376.454 122.928,-370.633 105.245,-373.538"/>
<polygon fill="black" stroke="black" points="104.179,-370.197 95.3472,-376.049 105.901,-376.982 104.179,-370.197"/>
<text text-anchor="middle" x="143.5" y="-387.4" font-family="Times Roman,serif" font-size="14.00">a</text>
</g>
<!-- q2 -->
<g id="node5" class="node"><title>q2</title>
<ellipse fill="none" stroke="black" cx="70" cy="-295" rx="27" ry="18.3848"/>
<text text-anchor="middle" x="70" y="-291.4" font-family="Times Roman,serif" font-size="14.00">q2</text>
</g>
<!-- q8&#45;&gt;q2 -->
<g id="edge30" class="edge"><title>q8&#45;&gt;q2</title>
<path fill="none" stroke="black" d="M71.526,-368.249C71.2499,-354.994 70.8989,-338.148 70.6032,-323.954"/>
<polygon fill="black" stroke="black" points="74.0976,-323.645 70.39,-313.72 67.0991,-323.791 74.0976,-323.645"/>
<text text-anchor="middle" x="76.5" y="-337.4" font-family="Times Roman,serif" font-size="14.00">b</text>
</g>
<!-- q7 -->
<g id="node7" class="node"><title>q7</title>
<ellipse fill="none" stroke="black" cx="57" cy="-19" rx="27" ry="18.3848"/>
<text text-anchor="middle" x="57" y="-15.4" font-family="Times Roman,serif" font-size="14.00">q7</text>
</g>
<!-- q8&#45;&gt;q7 -->
<g id="edge32" class="edge"><title>q8&#45;&gt;q7</title>
<path fill="none" stroke="black" d="M49.6134,-375.008C28.4777,-357.864 0,-328.542 0,-295 0,-295 0,-295 0,-111 0,-84.1151 17.8069,-58.5427 33.5151,-41.2146"/>
<polygon fill="black" stroke="black" points="36.1568,-43.5157 40.5132,-33.858 31.085,-38.6911 36.1568,-43.5157"/>
<text text-anchor="middle" x="4.5" y="-199.4" font-family="Times Roman,serif" font-size="14.00">a</text>
</g>
<!-- q2&#45;&gt;q7 -->
<g id="edge6" class="edge"><title>q2&#45;&gt;q7</title>
<path fill="none" stroke="black" d="M65.9024,-276.579C64.6153,-270.655 63.2142,-264.057 62,-258 52.2772,-209.496 42.7065,-197.416 45,-148 46.6039,-113.442 50.6122,-73.8435 53.5568,-47.7362"/>
<polygon fill="black" stroke="black" points="57.0384,-48.0965 54.7042,-37.762 50.0842,-47.2964 57.0384,-48.0965"/>
<text text-anchor="middle" x="49.5" y="-153.4" font-family="Times Roman,serif" font-size="14.00">b</text>
</g>
<!-- q4 -->
<g id="node9" class="node"><title>q4</title>
<ellipse fill="none" stroke="black" cx="131" cy="-203" rx="27" ry="18.3848"/>
<text text-anchor="middle" x="131" y="-199.4" font-family="Times Roman,serif" font-size="14.00">q4</text>
</g>
<!-- q2&#45;&gt;q4 -->
<g id="edge8" class="edge"><title>q2&#45;&gt;q4</title>
<path fill="none" stroke="black" d="M81.1883,-278.126C90.3315,-264.336 103.408,-244.614 113.869,-228.837"/>
<polygon fill="black" stroke="black" points="117.067,-230.347 119.676,-220.079 111.233,-226.479 117.067,-230.347"/>
<text text-anchor="middle" x="109.5" y="-245.4" font-family="Times Roman,serif" font-size="14.00">a</text>
</g>
<!-- q7&#45;&gt;q2 -->
<g id="edge18" class="edge"><title>q7&#45;&gt;q2</title>
<path fill="none" stroke="black" d="M59.8593,-37.4035C60.6797,-43.327 61.4894,-49.9283 62,-56 68.3633,-131.674 69.7175,-221.226 69.9721,-266.189"/>
<polygon fill="black" stroke="black" points="66.4728,-266.384 70.0148,-276.369 73.4727,-266.354 66.4728,-266.384"/>
<text text-anchor="middle" x="73.5" y="-153.4" font-family="Times Roman,serif" font-size="14.00">b</text>
</g>
<!-- q7&#45;&gt;q7 -->
<g id="edge20" class="edge"><title>q7&#45;&gt;q7</title>
<path fill="none" stroke="black" d="M81.0743,-27.4544C92.2423,-28.3767 102,-25.5586 102,-19 102,-14.5934 97.5952,-11.8754 91.3174,-10.8458"/>
<polygon fill="black" stroke="black" points="91.1726,-7.34018 81.0743,-10.5456 90.9674,-14.3372 91.1726,-7.34018"/>
<text text-anchor="middle" x="106.5" y="-15.4" font-family="Times Roman,serif" font-size="14.00">a</text>
</g>
<!-- q4&#45;&gt;q8 -->
<g id="edge10" class="edge"><title>q4&#45;&gt;q8</title>
<path fill="none" stroke="black" d="M127.924,-221.762C124.004,-244.078 116.459,-282.297 106,-314 100.792,-329.786 93.4995,-346.746 87.0031,-360.719"/>
<polygon fill="black" stroke="black" points="83.7884,-359.33 82.6682,-369.866 90.1139,-362.328 83.7884,-359.33"/>
<text text-anchor="middle" x="120.5" y="-291.4" font-family="Times Roman,serif" font-size="14.00">b</text>
</g>
<!-- q9 -->
<g id="node12" class="node"><title>q9</title>
<ellipse fill="none" stroke="black" cx="131" cy="-111" rx="27" ry="18.3848"/>
<text text-anchor="middle" x="131" y="-107.4" font-family="Times Roman,serif" font-size="14.00">q9</text>
</g>
<!-- q4&#45;&gt;q9 -->
<g id="edge12" class="edge"><title>q4&#45;&gt;q9</title>
<path fill="none" stroke="black" d="M131,-184.382C131,-171.538 131,-154.216 131,-139.627"/>
<polygon fill="black" stroke="black" points="134.5,-139.59 131,-129.59 127.5,-139.59 134.5,-139.59"/>
<text text-anchor="middle" x="135.5" y="-153.4" font-family="Times Roman,serif" font-size="14.00">a</text>
</g>
<!-- q9&#45;&gt;q0 -->
<g id="edge26" class="edge"><title>q9&#45;&gt;q0</title>
<path fill="none" stroke="black" d="M146.908,-125.971C163.152,-142.952 186,-172.295 186,-203 186,-391 186,-391 186,-391 186,-413.614 183.768,-439.121 181.662,-458.156"/>
<polygon fill="black" stroke="black" points="178.164,-457.938 180.487,-468.275 185.117,-458.746 178.164,-457.938"/>
<text text-anchor="middle" x="190.5" y="-291.4" font-family="Times Roman,serif" font-size="14.00">b</text>
</g>
<!-- q9&#45;&gt;q7 -->
<g id="edge28" class="edge"><title>q9&#45;&gt;q7</title>
<path fill="none" stroke="black" d="M119.17,-94.3469C111.172,-83.2873 100.241,-68.5491 90,-56 86.3947,-51.582 82.4453,-46.9727 78.5715,-42.567"/>
<polygon fill="black" stroke="black" points="81.0389,-40.0752 71.7707,-34.9419 75.8149,-44.7346 81.0389,-40.0752"/>
<text text-anchor="middle" x="107.5" y="-61.4" font-family="Times Roman,serif" font-size="14.00">a</text>
</g>
<!-- q6 -->
<g id="node13" class="node"><title>q6</title>
<ellipse fill="none" stroke="black" cx="72" cy="-487" rx="27" ry="18.3848"/>
<text text-anchor="middle" x="72" y="-483.4" font-family="Times Roman,serif" font-size="14.00">q6</text>
</g>
<!-- q6&#45;&gt;q8 -->
<g id="edge16" class="edge"><title>q6&#45;&gt;q8</title>
<path fill="none" stroke="black" d="M72,-468.49C72,-455.863 72,-438.791 72,-423.885"/>
<polygon fill="black" stroke="black" points="75.5001,-423.508 72,-413.508 68.5001,-423.508 75.5001,-423.508"/>
<text text-anchor="middle" x="76.5" y="-437.4" font-family="Times Roman,serif" font-size="14.00">a</text>
</g>
<!-- q6&#45;&gt;q6 -->
<g id="edge14" class="edge"><title>q6&#45;&gt;q6</title>
<path fill="none" stroke="black" d="M96.0743,-495.454C107.242,-496.377 117,-493.559 117,-487 117,-482.593 112.595,-479.875 106.317,-478.846"/>
<polygon fill="black" stroke="black" points="106.173,-475.34 96.0743,-478.546 105.967,-482.337 106.173,-475.34"/>
<text text-anchor="middle" x="121.5" y="-483.4" font-family="Times Roman,serif" font-size="14.00">b</text>
</g>
</g>
</svg>
