<?xml version="1.0" encoding="UTF-8" standalone="no"?>
<!DOCTYPE svg PUBLIC "-//W3C//DTD SVG 1.1//EN"
 "http://www.w3.org/Graphics/SVG/1.1/DTD/svg11.dtd">
<!-- Generated by graphviz version 2.26.3 (20100126.1600)
 -->
<!-- Title: G Pages: 1 -->
<svg width="413pt" height="798pt"
 viewBox="0.00 0.00 413.00 798.00" xmlns="http://www.w3.org/2000/svg" xmlns:xlink="http://www.w3.org/1999/xlink">
<g id="graph1" class="graph" transform="scale(1 1) rotate(0) translate(4 794)">
<title>G</title>
<polygon fill="white" stroke="white" points="-4,5 -4,-794 410,-794 410,5 -4,5"/>
<!-- q0 -->
<g id="node1" class="node"><title>q0</title>
<ellipse fill="none" stroke="black" cx="155" cy="-679" rx="27" ry="18.3848"/>
<text text-anchor="middle" x="155" y="-675.4" font-family="Times Roman,serif" font-size="14.00">q0</text>
</g>
<!-- q3 -->
<g id="node3" class="node"><title>q3</title>
<ellipse fill="none" stroke="black" cx="155" cy="-587" rx="27" ry="18.3848"/>
<text text-anchor="middle" x="155" y="-583.4" font-family="Times Roman,serif" font-size="14.00">q3</text>
</g>
<!-- q0&#45;&gt;q3 -->
<g id="edge2" class="edge"><title>q0&#45;&gt;q3</title>
<path fill="none" stroke="black" d="M155,-660.382C155,-647.538 155,-630.216 155,-615.627"/>
<polygon fill="black" stroke="black" points="158.5,-615.59 155,-605.59 151.5,-615.59 158.5,-615.59"/>
<text text-anchor="middle" x="159.5" y="-629.4" font-family="Times Roman,serif" font-size="14.00">b</text>
</g>
<!-- q10 -->
<g id="node5" class="node"><title>q10</title>
<ellipse fill="none" stroke="black" cx="136" cy="-23" rx="29.9649" ry="18.3848"/>
<ellipse fill="none" stroke="black" cx="136" cy="-23" rx="33.907" ry="22.3848"/>
<text text-anchor="middle" x="136" y="-19.4" font-family="Times Roman,serif" font-size="14.00">q10</text>
</g>
<!-- q0&#45;&gt;q10 -->
<g id="edge4" class="edge"><title>q0&#45;&gt;q10</title>
<path fill="none" stroke="black" d="M128.355,-675.487C84.0378,-667.987 0,-645.987 0,-587 0,-587 0,-587 0,-119 0,-72.3747 54.0106,-46.3897 93.9582,-33.547"/>
<polygon fill="black" stroke="black" points="95.2224,-36.8208 103.77,-30.5606 93.1841,-30.1242 95.2224,-36.8208"/>
<text text-anchor="middle" x="4.5" y="-345.4" font-family="Times Roman,serif" font-size="14.00">a</text>
</g>
<!-- q3&#45;&gt;q10 -->
<g id="edge10" class="edge"><title>q3&#45;&gt;q10</title>
<path fill="none" stroke="black" d="M157.493,-568.433C164.001,-518.302 181,-375.961 181,-257 181,-257 181,-257 181,-119 181,-94.6397 168.973,-69.8098 157.355,-51.5063"/>
<polygon fill="black" stroke="black" points="160.196,-49.4577 151.739,-43.0759 154.37,-53.3387 160.196,-49.4577"/>
<text text-anchor="middle" x="184.5" y="-299.4" font-family="Times Roman,serif" font-size="14.00">b</text>
</g>
<!-- q2 -->
<g id="node6" class="node"><title>q2</title>
<ellipse fill="none" stroke="black" cx="283" cy="-495" rx="27" ry="18.3848"/>
<text text-anchor="middle" x="283" y="-491.4" font-family="Times Roman,serif" font-size="14.00">q2</text>
</g>
<!-- q3&#45;&gt;q2 -->
<g id="edge12" class="edge"><title>q3&#45;&gt;q2</title>
<path fill="none" stroke="black" d="M179.199,-578.625C195.595,-572.266 217.243,-562.49 234,-550 245.408,-541.497 256.155,-529.997 264.661,-519.71"/>
<polygon fill="black" stroke="black" points="267.471,-521.801 270.972,-511.801 261.999,-517.435 267.471,-521.801"/>
<text text-anchor="middle" x="257.5" y="-537.4" font-family="Times Roman,serif" font-size="14.00">a</text>
</g>
<!-- q10&#45;&gt;q3 -->
<g id="edge34" class="edge"><title>q10&#45;&gt;q3</title>
<path fill="none" stroke="black" d="M108.997,-37.0598C82.487,-53.0247 46,-81.7618 46,-119 46,-495 46,-495 46,-495 46,-523.06 56.4734,-530.868 77,-550 89.4117,-561.568 106.099,-570.14 120.853,-576.104"/>
<polygon fill="black" stroke="black" points="119.614,-579.378 130.205,-579.652 122.097,-572.833 119.614,-579.378"/>
<text text-anchor="middle" x="50.5" y="-299.4" font-family="Times Roman,serif" font-size="14.00">b</text>
</g>
<!-- q10&#45;&gt;q3 -->
<g id="edge36" class="edge"><title>q10&#45;&gt;q3</title>
<path fill="none" stroke="black" d="M120.261,-43.0759C107.284,-61.6711 91,-90.6534 91,-119 91,-495 91,-495 91,-495 91,-523.261 111.603,-549.069 129.43,-566.11"/>
<polygon fill="black" stroke="black" points="127.083,-568.708 136.831,-572.858 131.8,-563.535 127.083,-568.708"/>
<text text-anchor="middle" x="95.5" y="-299.4" font-family="Times Roman,serif" font-size="14.00">a</text>
</g>
<!-- q10&#45;&gt;q3 -->
<g id="edge38" class="edge"><title>q10&#45;&gt;q3</title>
<path fill="none" stroke="black" d="M136,-45.5005C136,-64.9556 136,-93.8333 136,-119 136,-495 136,-495 136,-495 136,-516.916 141.235,-541.172 146.209,-559.274"/>
<polygon fill="black" stroke="black" points="142.852,-560.263 148.988,-568.899 149.577,-558.321 142.852,-560.263"/>
<text text-anchor="middle" x="140.5" y="-299.4" font-family="Times Roman,serif" font-size="14.00">b</text>
</g>
<!-- q10&#45;&gt;q10 -->
<g id="edge40" class="edge"><title>q10&#45;&gt;q10</title>
<path fill="none" stroke="black" d="M166.963,-32.3544C178.502,-32.6611 188,-29.543 188,-23 188,-18.5017 183.511,-15.6222 176.955,-14.3614"/>
<polygon fill="black" stroke="black" points="177.188,-10.8692 166.963,-13.6456 176.687,-17.8513 177.188,-10.8692"/>
<text text-anchor="middle" x="192.5" y="-19.4" font-family="Times Roman,serif" font-size="14.00">a</text>
</g>
<!-- q4 -->
<g id="node8" class="node"><title>q4</title>
<ellipse fill="none" stroke="black" cx="316" cy="-399" rx="27" ry="18.3848"/>
<ellipse fill="none" stroke="black" cx="316" cy="-399" rx="31" ry="22.3848"/>
<text text-anchor="middle" x="316" y="-395.4" font-family="Times Roman,serif" font-size="14.00">q4</text>
</g>
<!-- q2&#45;&gt;q4 -->
<g id="edge6" class="edge"><title>q2&#45;&gt;q4</title>
<path fill="none" stroke="black" d="M291.911,-477.184C294.718,-471.178 297.687,-464.38 300,-458 303.093,-449.466 305.906,-440.048 308.28,-431.29"/>
<polygon fill="black" stroke="black" points="311.721,-431.964 310.856,-421.405 304.947,-430.199 311.721,-431.964"/>
<text text-anchor="middle" x="309.5" y="-445.4" font-family="Times Roman,serif" font-size="14.00">b</text>
</g>
<!-- q9 -->
<g id="node10" class="node"><title>q9</title>
<ellipse fill="none" stroke="black" cx="251" cy="-211" rx="27" ry="18.3848"/>
<text text-anchor="middle" x="251" y="-207.4" font-family="Times Roman,serif" font-size="14.00">q9</text>
</g>
<!-- q2&#45;&gt;q9 -->
<g id="edge8" class="edge"><title>q2&#45;&gt;q9</title>
<path fill="none" stroke="black" d="M280.9,-476.366C275.442,-427.922 260.776,-297.763 254.231,-239.674"/>
<polygon fill="black" stroke="black" points="257.705,-239.248 253.107,-229.703 250.749,-240.032 257.705,-239.248"/>
<text text-anchor="middle" x="271.5" y="-345.4" font-family="Times Roman,serif" font-size="14.00">a</text>
</g>
<!-- q4&#45;&gt;q2 -->
<g id="edge16" class="edge"><title>q4&#45;&gt;q2</title>
<path fill="none" stroke="black" d="M301.568,-419.037C297.562,-425.46 293.601,-432.785 291,-440 287.999,-448.325 286.121,-457.744 284.947,-466.404"/>
<polygon fill="black" stroke="black" points="281.455,-466.144 283.836,-476.468 288.413,-466.912 281.455,-466.144"/>
<text text-anchor="middle" x="295.5" y="-445.4" font-family="Times Roman,serif" font-size="14.00">a</text>
</g>
<!-- q8 -->
<g id="node14" class="node"><title>q8</title>
<ellipse fill="none" stroke="black" cx="314" cy="-303" rx="27" ry="18.3848"/>
<text text-anchor="middle" x="314" y="-299.4" font-family="Times Roman,serif" font-size="14.00">q8</text>
</g>
<!-- q4&#45;&gt;q8 -->
<g id="edge14" class="edge"><title>q4&#45;&gt;q8</title>
<path fill="none" stroke="black" d="M315.526,-376.249C315.25,-362.994 314.899,-346.148 314.603,-331.954"/>
<polygon fill="black" stroke="black" points="318.098,-331.645 314.39,-321.72 311.099,-331.791 318.098,-331.645"/>
<text text-anchor="middle" x="319.5" y="-345.4" font-family="Times Roman,serif" font-size="14.00">b</text>
</g>
<!-- q9&#45;&gt;q3 -->
<g id="edge30" class="edge"><title>q9&#45;&gt;q3</title>
<path fill="none" stroke="black" d="M250.981,-229.726C250.222,-282.805 243.098,-437.674 188,-550 185.489,-555.12 182.067,-560.067 178.375,-564.589"/>
<polygon fill="black" stroke="black" points="175.618,-562.422 171.574,-572.214 180.842,-567.081 175.618,-562.422"/>
<text text-anchor="middle" x="242.5" y="-395.4" font-family="Times Roman,serif" font-size="14.00">b</text>
</g>
<!-- q5 -->
<g id="node16" class="node"><title>q5</title>
<ellipse fill="none" stroke="black" cx="283" cy="-119" rx="27" ry="18.3848"/>
<text text-anchor="middle" x="283" y="-115.4" font-family="Times Roman,serif" font-size="14.00">q5</text>
</g>
<!-- q9&#45;&gt;q5 -->
<g id="edge32" class="edge"><title>q9&#45;&gt;q5</title>
<path fill="none" stroke="black" d="M257.322,-192.824C261.88,-179.719 268.117,-161.789 273.303,-146.88"/>
<polygon fill="black" stroke="black" points="276.711,-147.733 276.691,-137.138 270.1,-145.434 276.711,-147.733"/>
<text text-anchor="middle" x="273.5" y="-161.4" font-family="Times Roman,serif" font-size="14.00">a</text>
</g>
<!-- q8&#45;&gt;q9 -->
<g id="edge28" class="edge"><title>q8&#45;&gt;q9</title>
<path fill="none" stroke="black" d="M302.445,-286.126C292.854,-272.12 279.072,-251.994 268.186,-236.098"/>
<polygon fill="black" stroke="black" points="271.02,-234.041 262.482,-227.767 265.244,-237.996 271.02,-234.041"/>
<text text-anchor="middle" x="292.5" y="-253.4" font-family="Times Roman,serif" font-size="14.00">a</text>
</g>
<!-- q8&#45;&gt;q5 -->
<g id="edge26" class="edge"><title>q8&#45;&gt;q5</title>
<path fill="none" stroke="black" d="M317.577,-284.627C318.569,-278.706 319.509,-272.097 320,-266 323.967,-216.756 322.946,-201.626 304,-156 302.525,-152.449 300.782,-148.811 298.94,-145.27"/>
<polygon fill="black" stroke="black" points="301.852,-143.304 293.952,-136.246 295.726,-146.691 301.852,-143.304"/>
<text text-anchor="middle" x="325.5" y="-207.4" font-family="Times Roman,serif" font-size="14.00">b</text>
</g>
<!-- q5&#45;&gt;q10 -->
<g id="edge20" class="edge"><title>q5&#45;&gt;q10</title>
<path fill="none" stroke="black" d="M263.175,-106.053C239.028,-90.2833 197.885,-63.4148 168.949,-44.5175"/>
<polygon fill="black" stroke="black" points="170.679,-41.4674 160.393,-38.9299 166.852,-47.3283 170.679,-41.4674"/>
<text text-anchor="middle" x="226.5" y="-69.4" font-family="Times Roman,serif" font-size="14.00">a</text>
</g>
<!-- q5&#45;&gt;q8 -->
<g id="edge18" class="edge"><title>q5&#45;&gt;q8</title>
<path fill="none" stroke="black" d="M286.105,-137.431C291.524,-169.591 302.74,-236.165 309.177,-274.372"/>
<polygon fill="black" stroke="black" points="305.744,-275.065 310.857,-284.345 312.647,-273.902 305.744,-275.065"/>
<text text-anchor="middle" x="305.5" y="-207.4" font-family="Times Roman,serif" font-size="14.00">b</text>
</g>
<!-- q6 -->
<g id="node19" class="node"><title>q6</title>
<ellipse fill="none" stroke="black" cx="325" cy="-771" rx="27" ry="18.3848"/>
<text text-anchor="middle" x="325" y="-767.4" font-family="Times Roman,serif" font-size="14.00">q6</text>
</g>
<!-- q6&#45;&gt;q0 -->
<g id="edge22" class="edge"><title>q6&#45;&gt;q0</title>
<path fill="none" stroke="black" d="M303.469,-759.348C273.579,-743.172 219.362,-713.831 185.37,-695.435"/>
<polygon fill="black" stroke="black" points="186.816,-692.239 176.356,-690.557 183.485,-698.395 186.816,-692.239"/>
<text text-anchor="middle" x="259.5" y="-721.4" font-family="Times Roman,serif" font-size="14.00">b</text>
</g>
<!-- q6&#45;&gt;q10 -->
<g id="edge24" class="edge"><title>q6&#45;&gt;q10</title>
<path fill="none" stroke="black" d="M344.401,-757.876C365.423,-741.924 396,-712.895 396,-679 396,-679 396,-679 396,-119 396,-73.3312 253.05,-42.6067 179.142,-29.7736"/>
<polygon fill="black" stroke="black" points="179.639,-26.3079 169.193,-28.0818 178.465,-33.2088 179.639,-26.3079"/>
<text text-anchor="middle" x="400.5" y="-395.4" font-family="Times Roman,serif" font-size="14.00">a</text>
</g>
</g>
</svg>
