<?xml version="1.0" encoding="UTF-8" standalone="no"?>
<!DOCTYPE svg PUBLIC "-//W3C//DTD SVG 1.1//EN"
 "http://www.w3.org/Graphics/SVG/1.1/DTD/svg11.dtd">
<!-- Generated by graphviz version 2.26.3 (20100126.1600)
 -->
<!-- Title: G Pages: 1 -->
<svg width="166pt" height="330pt"
 viewBox="0.00 0.00 166.00 330.00" xmlns="http://www.w3.org/2000/svg" xmlns:xlink="http://www.w3.org/1999/xlink">
<g id="graph1" class="graph" transform="scale(1 1) rotate(0) translate(4 326)">
<title>G</title>
<polygon fill="white" stroke="white" points="-4,5 -4,-326 163,-326 163,5 -4,5"/>
<!-- q1 -->
<g id="node1" class="node"><title>q1</title>
<ellipse fill="none" stroke="black" cx="127" cy="-300" rx="27" ry="18"/>
<ellipse fill="none" stroke="black" cx="127" cy="-300" rx="31" ry="22"/>
<text text-anchor="middle" x="127" y="-295.9" font-family="Times Roman,serif" font-size="14.00">q1</text>
</g>
<!-- q0 -->
<g id="node3" class="node"><title>q0</title>
<ellipse fill="none" stroke="darkred" cx="45" cy="-206" rx="27" ry="18"/>
<text text-anchor="middle" x="45" y="-201.9" font-family="Times Roman,serif" font-size="14.00">q0</text>
</g>
<!-- q1&#45;&gt;q0 -->
<g id="edge2" class="edge"><title>q1&#45;&gt;q0</title>
<path fill="none" stroke="black" d="M110.406,-280.978C97.4145,-266.085 79.2826,-245.3 65.4039,-229.39"/>
<polygon fill="black" stroke="black" points="67.795,-226.807 58.5838,-221.572 62.52,-231.408 67.795,-226.807"/>
<text text-anchor="middle" x="94.5" y="-246.9" font-family="Times Roman,serif" font-size="14.00">b</text>
</g>
<!-- q4 -->
<g id="node5" class="node"><title>q4</title>
<ellipse fill="none" stroke="black" cx="108" cy="-22" rx="27" ry="18"/>
<ellipse fill="none" stroke="black" cx="108" cy="-22" rx="31" ry="22"/>
<text text-anchor="middle" x="108" y="-17.9" font-family="Times Roman,serif" font-size="14.00">q4</text>
</g>
<!-- q1&#45;&gt;q4 -->
<g id="edge4" class="edge"><title>q1&#45;&gt;q4</title>
<path fill="none" stroke="black" d="M125.477,-277.72C122.127,-228.697 114.104,-111.318 110.204,-54.2485"/>
<polygon fill="black" stroke="black" points="113.677,-53.7382 109.504,-44.0002 106.694,-54.2156 113.677,-53.7382"/>
<text text-anchor="middle" x="121.5" y="-156.9" font-family="Times Roman,serif" font-size="14.00">a</text>
</g>
<!-- q0&#45;&gt;q0 -->
<g id="edge16" class="edge"><title>q0&#45;&gt;q0</title>
<path fill="none" stroke="black" d="M69.5325,-214.121C80.5078,-214.895 90,-212.188 90,-206 90,-201.843 85.7151,-199.257 79.5743,-198.242"/>
<polygon fill="black" stroke="black" points="79.6524,-194.742 69.5325,-197.879 79.3995,-201.738 79.6524,-194.742"/>
<text text-anchor="middle" x="94.5" y="-201.9" font-family="Times Roman,serif" font-size="14.00">a</text>
</g>
<!-- q3 -->
<g id="node8" class="node"><title>q3</title>
<ellipse fill="none" stroke="black" cx="27" cy="-116" rx="27" ry="18"/>
<text text-anchor="middle" x="27" y="-111.9" font-family="Times Roman,serif" font-size="14.00">q3</text>
</g>
<!-- q0&#45;&gt;q3 -->
<g id="edge14" class="edge"><title>q0&#45;&gt;q3</title>
<path fill="none" stroke="black" d="M31.5502,-190.197C27.315,-184.255 23.1767,-177.189 21,-170 18.4737,-161.656 18.5535,-152.299 19.687,-143.747"/>
<polygon fill="black" stroke="black" points="23.1433,-144.303 21.4878,-133.838 16.2561,-143.051 23.1433,-144.303"/>
<text text-anchor="middle" x="25.5" y="-156.9" font-family="Times Roman,serif" font-size="14.00">b</text>
</g>
<!-- q4&#45;&gt;q1 -->
<g id="edge6" class="edge"><title>q4&#45;&gt;q1</title>
<path fill="none" stroke="black" d="M118.472,-43.1569C121.012,-49.1195 123.442,-55.7007 125,-62 144.254,-139.832 134.775,-161.853 137,-242 137.222,-249.997 137.977,-252.06 137,-260 136.667,-262.704 136.212,-265.488 135.679,-268.269"/>
<polygon fill="black" stroke="black" points="132.23,-267.655 133.482,-278.176 139.064,-269.171 132.23,-267.655"/>
<text text-anchor="middle" x="141.5" y="-156.9" font-family="Times Roman,serif" font-size="14.00">b</text>
</g>
<!-- q4&#45;&gt;q0 -->
<g id="edge8" class="edge"><title>q4&#45;&gt;q0</title>
<path fill="none" stroke="black" d="M100.63,-43.5251C89.1271,-77.1207 66.9215,-141.975 54.3226,-178.772"/>
<polygon fill="black" stroke="black" points="50.9688,-177.763 51.0407,-188.357 57.5914,-180.03 50.9688,-177.763"/>
<text text-anchor="middle" x="85.5" y="-111.9" font-family="Times Roman,serif" font-size="14.00">a</text>
</g>
<!-- q3&#45;&gt;q0 -->
<g id="edge10" class="edge"><title>q3&#45;&gt;q0</title>
<path fill="none" stroke="black" d="M30.5757,-133.879C33.0894,-146.447 36.5036,-163.518 39.3792,-177.896"/>
<polygon fill="black" stroke="black" points="35.9642,-178.668 41.3574,-187.787 42.8282,-177.295 35.9642,-178.668"/>
<text text-anchor="middle" x="41.5" y="-156.9" font-family="Times Roman,serif" font-size="14.00">b</text>
</g>
<!-- q3&#45;&gt;q4 -->
<g id="edge12" class="edge"><title>q3&#45;&gt;q4</title>
<path fill="none" stroke="black" d="M38.2494,-99.4074C45.9288,-88.4466 56.5657,-73.9535 67,-62 71.3774,-56.9852 76.2688,-51.8582 81.1061,-47.0204"/>
<polygon fill="black" stroke="black" points="83.8764,-49.2069 88.5814,-39.714 78.9835,-44.2009 83.8764,-49.2069"/>
<text text-anchor="middle" x="71.5" y="-66.9" font-family="Times Roman,serif" font-size="14.00">a</text>
</g>
</g>
</svg>
