<?xml version="1.0" encoding="UTF-8" standalone="no"?>
<!DOCTYPE svg PUBLIC "-//W3C//DTD SVG 1.1//EN"
 "http://www.w3.org/Graphics/SVG/1.1/DTD/svg11.dtd">
<!-- Generated by graphviz version 2.26.3 (20100126.1600)
 -->
<!-- Title: G Pages: 1 -->
<svg width="259pt" height="506pt"
 viewBox="0.00 0.00 259.36 506.00" xmlns="http://www.w3.org/2000/svg" xmlns:xlink="http://www.w3.org/1999/xlink">
<g id="graph1" class="graph" transform="scale(1 1) rotate(0) translate(4 502)">
<title>G</title>
<polygon fill="white" stroke="white" points="-4,5 -4,-502 256.355,-502 256.355,5 -4,5"/>
<!-- q6 -->
<g id="node1" class="node"><title>q6</title>
<ellipse fill="none" stroke="black" cx="85.3553" cy="-479" rx="27" ry="18.3848"/>
<text text-anchor="middle" x="85.3553" y="-475.4" font-family="Times Roman,serif" font-size="14.00">q6</text>
</g>
<!-- q1 -->
<g id="node3" class="node"><title>q1</title>
<ellipse fill="none" stroke="black" cx="38.3553" cy="-387" rx="27" ry="18.3848"/>
<text text-anchor="middle" x="38.3553" y="-383.4" font-family="Times Roman,serif" font-size="14.00">q1</text>
</g>
<!-- q6&#45;&gt;q1 -->
<g id="edge2" class="edge"><title>q6&#45;&gt;q1</title>
<path fill="none" stroke="black" d="M76.2933,-461.261C69.4011,-447.77 59.8037,-428.984 51.9867,-413.683"/>
<polygon fill="black" stroke="black" points="55.0559,-411.997 47.3896,-404.684 48.8222,-415.182 55.0559,-411.997"/>
<text text-anchor="middle" x="70.8553" y="-429.4" font-family="Times Roman,serif" font-size="14.00">b</text>
</g>
<!-- q0 -->
<g id="node5" class="node"><title>q0</title>
<ellipse fill="none" stroke="black" cx="101.355" cy="-295" rx="27" ry="18.3848"/>
<text text-anchor="middle" x="101.355" y="-291.4" font-family="Times Roman,serif" font-size="14.00">q0</text>
</g>
<!-- q6&#45;&gt;q0 -->
<g id="edge4" class="edge"><title>q6&#45;&gt;q0</title>
<path fill="none" stroke="black" d="M86.9775,-460.345C89.7687,-428.247 95.4989,-362.349 98.8207,-324.148"/>
<polygon fill="black" stroke="black" points="102.349,-323.971 99.7288,-313.705 95.3756,-323.364 102.349,-323.971"/>
<text text-anchor="middle" x="98.8553" y="-383.4" font-family="Times Roman,serif" font-size="14.00">a</text>
</g>
<!-- q1&#45;&gt;q0 -->
<g id="edge16" class="edge"><title>q1&#45;&gt;q0</title>
<path fill="none" stroke="black" d="M49.9105,-370.126C59.5016,-356.12 73.2834,-335.994 84.1689,-320.098"/>
<polygon fill="black" stroke="black" points="87.1111,-321.996 89.8734,-311.767 81.3355,-318.041 87.1111,-321.996"/>
<text text-anchor="middle" x="80.8553" y="-337.4" font-family="Times Roman,serif" font-size="14.00">a</text>
</g>
<!-- q4 -->
<g id="node12" class="node"><title>q4</title>
<ellipse fill="none" stroke="black" cx="135.355" cy="-111" rx="27" ry="18.3848"/>
<text text-anchor="middle" x="135.355" y="-107.4" font-family="Times Roman,serif" font-size="14.00">q4</text>
</g>
<!-- q1&#45;&gt;q4 -->
<g id="edge14" class="edge"><title>q1&#45;&gt;q4</title>
<path fill="none" stroke="black" d="M29.7973,-369.328C13.1927,-332.287 -18.8853,-244.908 15.3553,-184 33.4206,-151.865 71.9968,-132.226 100.559,-121.531"/>
<polygon fill="black" stroke="black" points="101.939,-124.756 110.195,-118.116 99.6,-118.158 101.939,-124.756"/>
<text text-anchor="middle" x="4.85533" y="-245.4" font-family="Times Roman,serif" font-size="14.00">b</text>
</g>
<!-- q2 -->
<g id="node8" class="node"><title>q2</title>
<ellipse fill="none" stroke="black" cx="197.355" cy="-203" rx="27" ry="18.3848"/>
<text text-anchor="middle" x="197.355" y="-199.4" font-family="Times Roman,serif" font-size="14.00">q2</text>
</g>
<!-- q0&#45;&gt;q2 -->
<g id="edge26" class="edge"><title>q0&#45;&gt;q2</title>
<path fill="none" stroke="black" d="M121.989,-283.049C132.567,-276.399 145.302,-267.548 155.355,-258 164.653,-249.169 173.499,-238.141 180.653,-228.283"/>
<polygon fill="black" stroke="black" points="183.584,-230.199 186.474,-220.006 177.858,-226.173 183.584,-230.199"/>
<text text-anchor="middle" x="174.855" y="-245.4" font-family="Times Roman,serif" font-size="14.00">b</text>
</g>
<!-- q3 -->
<g id="node17" class="node"><title>q3</title>
<ellipse fill="none" stroke="black" cx="51.3553" cy="-203" rx="27" ry="18.3848"/>
<text text-anchor="middle" x="51.3553" y="-199.4" font-family="Times Roman,serif" font-size="14.00">q3</text>
</g>
<!-- q0&#45;&gt;q3 -->
<g id="edge28" class="edge"><title>q0&#45;&gt;q3</title>
<path fill="none" stroke="black" d="M91.7148,-277.261C84.3357,-263.684 74.0418,-244.743 65.6971,-229.389"/>
<polygon fill="black" stroke="black" points="68.647,-227.487 60.7967,-220.372 62.4967,-230.83 68.647,-227.487"/>
<text text-anchor="middle" x="84.8553" y="-245.4" font-family="Times Roman,serif" font-size="14.00">a</text>
</g>
<!-- q5 -->
<g id="node6" class="node"><title>q5</title>
<ellipse fill="none" stroke="black" cx="198.355" cy="-19" rx="27" ry="18.3848"/>
<text text-anchor="middle" x="198.355" y="-15.4" font-family="Times Roman,serif" font-size="14.00">q5</text>
</g>
<!-- q5&#45;&gt;q2 -->
<g id="edge6" class="edge"><title>q5&#45;&gt;q2</title>
<path fill="none" stroke="black" d="M198.254,-37.7049C198.079,-69.8374 197.721,-135.739 197.513,-173.91"/>
<polygon fill="black" stroke="black" points="194.011,-174.326 197.457,-184.345 201.011,-174.364 194.011,-174.326"/>
<text text-anchor="middle" x="201.855" y="-107.4" font-family="Times Roman,serif" font-size="14.00">b</text>
</g>
<!-- q5&#45;&gt;q2 -->
<g id="edge8" class="edge"><title>q5&#45;&gt;q2</title>
<path fill="none" stroke="black" d="M206.092,-37.1185C208.241,-43.0267 210.279,-49.6911 211.355,-56 219.575,-104.193 220.149,-117.909 211.355,-166 210.762,-169.243 209.9,-172.57 208.889,-175.837"/>
<polygon fill="black" stroke="black" points="205.574,-174.713 205.536,-185.308 212.173,-177.049 205.574,-174.713"/>
<text text-anchor="middle" x="221.855" y="-107.4" font-family="Times Roman,serif" font-size="14.00">a</text>
</g>
<!-- q2&#45;&gt;q2 -->
<g id="edge10" class="edge"><title>q2&#45;&gt;q2</title>
<path fill="none" stroke="black" d="M221.43,-211.454C232.598,-212.377 242.355,-209.559 242.355,-203 242.355,-198.593 237.951,-195.875 231.673,-194.846"/>
<polygon fill="black" stroke="black" points="231.528,-191.34 221.43,-194.546 231.323,-198.337 231.528,-191.34"/>
<text text-anchor="middle" x="246.855" y="-199.4" font-family="Times Roman,serif" font-size="14.00">b</text>
</g>
<!-- q2&#45;&gt;q4 -->
<g id="edge12" class="edge"><title>q2&#45;&gt;q4</title>
<path fill="none" stroke="black" d="M185.984,-186.126C176.604,-172.207 163.151,-152.245 152.47,-136.396"/>
<polygon fill="black" stroke="black" points="155.356,-134.415 146.865,-128.079 149.551,-138.327 155.356,-134.415"/>
<text text-anchor="middle" x="175.855" y="-153.4" font-family="Times Roman,serif" font-size="14.00">a</text>
</g>
<!-- q4&#45;&gt;q0 -->
<g id="edge20" class="edge"><title>q4&#45;&gt;q0</title>
<path fill="none" stroke="black" d="M131.95,-129.431C126.007,-161.591 113.705,-228.165 106.645,-266.372"/>
<polygon fill="black" stroke="black" points="103.178,-265.875 104.803,-276.345 110.061,-267.147 103.178,-265.875"/>
<text text-anchor="middle" x="125.855" y="-199.4" font-family="Times Roman,serif" font-size="14.00">a</text>
</g>
<!-- q4&#45;&gt;q5 -->
<g id="edge18" class="edge"><title>q4&#45;&gt;q5</title>
<path fill="none" stroke="black" d="M146.91,-94.1258C156.502,-80.1197 170.283,-59.9939 181.169,-44.0976"/>
<polygon fill="black" stroke="black" points="184.111,-45.9957 186.873,-35.7672 178.336,-42.0406 184.111,-45.9957"/>
<text text-anchor="middle" x="176.855" y="-61.4" font-family="Times Roman,serif" font-size="14.00">b</text>
</g>
<!-- q3&#45;&gt;q4 -->
<g id="edge24" class="edge"><title>q3&#45;&gt;q4</title>
<path fill="none" stroke="black" d="M65.987,-186.975C79.2365,-172.463 98.9223,-150.903 113.942,-134.453"/>
<polygon fill="black" stroke="black" points="116.733,-136.586 120.891,-126.842 111.564,-131.866 116.733,-136.586"/>
<text text-anchor="middle" x="104.855" y="-153.4" font-family="Times Roman,serif" font-size="14.00">a</text>
</g>
<!-- q3&#45;&gt;q3 -->
<g id="edge22" class="edge"><title>q3&#45;&gt;q3</title>
<path fill="none" stroke="black" d="M75.4297,-211.454C86.5976,-212.377 96.3553,-209.559 96.3553,-203 96.3553,-198.593 91.9505,-195.875 85.6727,-194.846"/>
<polygon fill="black" stroke="black" points="85.5279,-191.34 75.4297,-194.546 85.3228,-198.337 85.5279,-191.34"/>
<text text-anchor="middle" x="100.855" y="-199.4" font-family="Times Roman,serif" font-size="14.00">b</text>
</g>
</g>
</svg>
