<?xml version="1.0" encoding="UTF-8" standalone="no"?>
<!DOCTYPE svg PUBLIC "-//W3C//DTD SVG 1.1//EN"
 "http://www.w3.org/Graphics/SVG/1.1/DTD/svg11.dtd">
<!-- Generated by graphviz version 2.26.3 (20100126.1600)
 -->
<!-- Title: G Pages: 1 -->
<svg width="284pt" height="790pt"
 viewBox="0.00 0.00 284.00 790.00" xmlns="http://www.w3.org/2000/svg" xmlns:xlink="http://www.w3.org/1999/xlink">
<g id="graph1" class="graph" transform="scale(1 1) rotate(0) translate(4 786)">
<title>G</title>
<polygon fill="white" stroke="white" points="-4,5 -4,-786 281,-786 281,5 -4,5"/>
<!-- q0 -->
<g id="node1" class="node"><title>q0</title>
<ellipse fill="none" stroke="black" cx="162" cy="-671" rx="27" ry="18.3848"/>
<text text-anchor="middle" x="162" y="-667.4" font-family="Times Roman,serif" font-size="14.00">q0</text>
</g>
<!-- q0&#45;&gt;q0 -->
<g id="edge4" class="edge"><title>q0&#45;&gt;q0</title>
<path fill="none" stroke="black" d="M186.074,-679.454C197.242,-680.377 207,-677.559 207,-671 207,-666.593 202.595,-663.875 196.317,-662.846"/>
<polygon fill="black" stroke="black" points="196.173,-659.34 186.074,-662.546 195.967,-666.337 196.173,-659.34"/>
<text text-anchor="middle" x="211.5" y="-667.4" font-family="Times Roman,serif" font-size="14.00">a</text>
</g>
<!-- q3 -->
<g id="node3" class="node"><title>q3</title>
<ellipse fill="none" stroke="black" cx="91" cy="-579" rx="27" ry="18.3848"/>
<text text-anchor="middle" x="91" y="-575.4" font-family="Times Roman,serif" font-size="14.00">q3</text>
</g>
<!-- q0&#45;&gt;q3 -->
<g id="edge2" class="edge"><title>q0&#45;&gt;q3</title>
<path fill="none" stroke="black" d="M149.307,-654.552C138.369,-640.38 122.424,-619.718 109.971,-603.583"/>
<polygon fill="black" stroke="black" points="112.703,-601.394 103.823,-595.616 107.162,-605.671 112.703,-601.394"/>
<text text-anchor="middle" x="136.5" y="-621.4" font-family="Times Roman,serif" font-size="14.00">b</text>
</g>
<!-- q2 -->
<g id="node5" class="node"><title>q2</title>
<ellipse fill="none" stroke="black" cx="154" cy="-487" rx="27" ry="18.3848"/>
<text text-anchor="middle" x="154" y="-483.4" font-family="Times Roman,serif" font-size="14.00">q2</text>
</g>
<!-- q3&#45;&gt;q2 -->
<g id="edge12" class="edge"><title>q3&#45;&gt;q2</title>
<path fill="none" stroke="black" d="M102.555,-562.126C112.146,-548.12 125.928,-527.994 136.814,-512.098"/>
<polygon fill="black" stroke="black" points="139.756,-513.996 142.518,-503.767 133.98,-510.041 139.756,-513.996"/>
<text text-anchor="middle" x="132.5" y="-529.4" font-family="Times Roman,serif" font-size="14.00">a</text>
</g>
<!-- q10 -->
<g id="node11" class="node"><title>q10</title>
<ellipse fill="none" stroke="black" cx="122" cy="-19" rx="29.9071" ry="18.3848"/>
<text text-anchor="middle" x="122" y="-15.4" font-family="Times Roman,serif" font-size="14.00">q10</text>
</g>
<!-- q3&#45;&gt;q10 -->
<g id="edge10" class="edge"><title>q3&#45;&gt;q10</title>
<path fill="none" stroke="black" d="M68.5056,-568.515C41.5579,-554.217 0,-525.866 0,-487 0,-487 0,-487 0,-111 0,-82.9401 9.93887,-74.5415 31,-56 45.8739,-42.9055 65.9929,-34.0754 83.5315,-28.3361"/>
<polygon fill="black" stroke="black" points="84.951,-31.5628 93.5005,-25.3053 82.9148,-24.8655 84.951,-31.5628"/>
<text text-anchor="middle" x="4.5" y="-291.4" font-family="Times Roman,serif" font-size="14.00">b</text>
</g>
<!-- q4 -->
<g id="node7" class="node"><title>q4</title>
<ellipse fill="none" stroke="black" cx="187" cy="-391" rx="27" ry="18.3848"/>
<ellipse fill="none" stroke="black" cx="187" cy="-391" rx="31" ry="22.3848"/>
<text text-anchor="middle" x="187" y="-387.4" font-family="Times Roman,serif" font-size="14.00">q4</text>
</g>
<!-- q2&#45;&gt;q4 -->
<g id="edge6" class="edge"><title>q2&#45;&gt;q4</title>
<path fill="none" stroke="black" d="M154.836,-468.468C155.78,-457.584 157.779,-443.71 162,-432 163.463,-427.941 165.356,-423.848 167.446,-419.9"/>
<polygon fill="black" stroke="black" points="170.595,-421.446 172.568,-411.037 164.534,-417.944 170.595,-421.446"/>
<text text-anchor="middle" x="166.5" y="-437.4" font-family="Times Roman,serif" font-size="14.00">b</text>
</g>
<!-- q9 -->
<g id="node9" class="node"><title>q9</title>
<ellipse fill="none" stroke="black" cx="122" cy="-203" rx="27" ry="18.3848"/>
<text text-anchor="middle" x="122" y="-199.4" font-family="Times Roman,serif" font-size="14.00">q9</text>
</g>
<!-- q2&#45;&gt;q9 -->
<g id="edge8" class="edge"><title>q2&#45;&gt;q9</title>
<path fill="none" stroke="black" d="M151.9,-468.366C146.442,-419.922 131.776,-289.763 125.231,-231.674"/>
<polygon fill="black" stroke="black" points="128.705,-231.248 124.107,-221.703 121.749,-232.032 128.705,-231.248"/>
<text text-anchor="middle" x="142.5" y="-337.4" font-family="Times Roman,serif" font-size="14.00">a</text>
</g>
<!-- q4&#45;&gt;q2 -->
<g id="edge16" class="edge"><title>q4&#45;&gt;q2</title>
<path fill="none" stroke="black" d="M181.856,-413.405C179.064,-424.543 175.304,-438.127 171,-450 169.807,-453.29 168.441,-456.691 167.011,-460.037"/>
<polygon fill="black" stroke="black" points="163.808,-458.627 162.911,-469.184 170.195,-461.49 163.808,-458.627"/>
<text text-anchor="middle" x="180.5" y="-437.4" font-family="Times Roman,serif" font-size="14.00">a</text>
</g>
<!-- q8 -->
<g id="node14" class="node"><title>q8</title>
<ellipse fill="none" stroke="black" cx="186" cy="-295" rx="27" ry="18.3848"/>
<text text-anchor="middle" x="186" y="-291.4" font-family="Times Roman,serif" font-size="14.00">q8</text>
</g>
<!-- q4&#45;&gt;q8 -->
<g id="edge14" class="edge"><title>q4&#45;&gt;q8</title>
<path fill="none" stroke="black" d="M186.763,-368.249C186.625,-354.994 186.449,-338.148 186.302,-323.954"/>
<polygon fill="black" stroke="black" points="189.799,-323.683 186.195,-313.72 182.799,-323.756 189.799,-323.683"/>
<text text-anchor="middle" x="190.5" y="-337.4" font-family="Times Roman,serif" font-size="14.00">b</text>
</g>
<!-- q9&#45;&gt;q3 -->
<g id="edge30" class="edge"><title>q9&#45;&gt;q3</title>
<path fill="none" stroke="black" d="M120.453,-221.758C115.42,-282.81 99.4803,-476.142 93.3939,-549.964"/>
<polygon fill="black" stroke="black" points="89.8709,-550.1 92.5373,-560.354 96.8472,-550.676 89.8709,-550.1"/>
<text text-anchor="middle" x="112.5" y="-387.4" font-family="Times Roman,serif" font-size="14.00">b</text>
</g>
<!-- q5 -->
<g id="node16" class="node"><title>q5</title>
<ellipse fill="none" stroke="black" cx="181" cy="-111" rx="27" ry="18.3848"/>
<text text-anchor="middle" x="181" y="-107.4" font-family="Times Roman,serif" font-size="14.00">q5</text>
</g>
<!-- q9&#45;&gt;q5 -->
<g id="edge32" class="edge"><title>q9&#45;&gt;q5</title>
<path fill="none" stroke="black" d="M133.097,-185.696C141.915,-171.946 154.385,-152.501 164.392,-136.898"/>
<polygon fill="black" stroke="black" points="167.5,-138.534 169.952,-128.227 161.608,-134.755 167.5,-138.534"/>
<text text-anchor="middle" x="160.5" y="-153.4" font-family="Times Roman,serif" font-size="14.00">a</text>
</g>
<!-- q10&#45;&gt;q3 -->
<g id="edge34" class="edge"><title>q10&#45;&gt;q3</title>
<path fill="none" stroke="black" d="M100.551,-32.0149C77.7675,-47.664 45,-76.2168 45,-111 45,-487 45,-487 45,-487 45,-512.014 58.7727,-537.199 71.2458,-554.879"/>
<polygon fill="black" stroke="black" points="68.4359,-556.966 77.1985,-562.921 74.0624,-552.801 68.4359,-556.966"/>
<text text-anchor="middle" x="49.5" y="-291.4" font-family="Times Roman,serif" font-size="14.00">b</text>
</g>
<!-- q10&#45;&gt;q9 -->
<g id="edge36" class="edge"><title>q10&#45;&gt;q9</title>
<path fill="none" stroke="black" d="M122,-37.7049C122,-69.8374 122,-135.739 122,-173.91"/>
<polygon fill="black" stroke="black" points="118.5,-174.344 122,-184.345 125.5,-174.345 118.5,-174.344"/>
<text text-anchor="middle" x="126.5" y="-107.4" font-family="Times Roman,serif" font-size="14.00">a</text>
</g>
<!-- q8&#45;&gt;q9 -->
<g id="edge28" class="edge"><title>q8&#45;&gt;q9</title>
<path fill="none" stroke="black" d="M174.261,-278.126C164.518,-264.12 150.517,-243.994 139.459,-228.098"/>
<polygon fill="black" stroke="black" points="142.248,-225.978 133.664,-219.767 136.502,-229.975 142.248,-225.978"/>
<text text-anchor="middle" x="163.5" y="-245.4" font-family="Times Roman,serif" font-size="14.00">a</text>
</g>
<!-- q8&#45;&gt;q5 -->
<g id="edge26" class="edge"><title>q8&#45;&gt;q5</title>
<path fill="none" stroke="black" d="M185.493,-276.345C184.621,-244.247 182.83,-178.349 181.792,-140.148"/>
<polygon fill="black" stroke="black" points="185.279,-139.606 181.508,-129.705 178.281,-139.796 185.279,-139.606"/>
<text text-anchor="middle" x="187.5" y="-199.4" font-family="Times Roman,serif" font-size="14.00">b</text>
</g>
<!-- q5&#45;&gt;q10 -->
<g id="edge20" class="edge"><title>q5&#45;&gt;q10</title>
<path fill="none" stroke="black" d="M169.903,-93.6955C161.085,-79.9459 148.615,-60.5012 138.608,-44.8979"/>
<polygon fill="black" stroke="black" points="141.392,-42.7552 133.048,-36.2269 135.5,-46.5341 141.392,-42.7552"/>
<text text-anchor="middle" x="160.5" y="-61.4" font-family="Times Roman,serif" font-size="14.00">a</text>
</g>
<!-- q5&#45;&gt;q8 -->
<g id="edge18" class="edge"><title>q5&#45;&gt;q8</title>
<path fill="none" stroke="black" d="M191.501,-128.462C194.545,-134.444 197.461,-141.317 199,-148 209.974,-195.641 207.22,-209.807 199,-258 198.479,-261.056 197.732,-264.195 196.856,-267.292"/>
<polygon fill="black" stroke="black" points="193.501,-266.289 193.736,-276.882 200.158,-268.455 193.501,-266.289"/>
<text text-anchor="middle" x="210.5" y="-199.4" font-family="Times Roman,serif" font-size="14.00">b</text>
</g>
<!-- q6 -->
<g id="node19" class="node"><title>q6</title>
<ellipse fill="none" stroke="black" cx="235" cy="-763" rx="27" ry="18.3848"/>
<text text-anchor="middle" x="235" y="-759.4" font-family="Times Roman,serif" font-size="14.00">q6</text>
</g>
<!-- q6&#45;&gt;q0 -->
<g id="edge22" class="edge"><title>q6&#45;&gt;q0</title>
<path fill="none" stroke="black" d="M221.949,-746.552C210.634,-732.292 194.105,-711.461 181.268,-695.282"/>
<polygon fill="black" stroke="black" points="183.895,-692.963 174.938,-687.305 178.412,-697.314 183.895,-692.963"/>
<text text-anchor="middle" x="209.5" y="-713.4" font-family="Times Roman,serif" font-size="14.00">b</text>
</g>
<!-- q6&#45;&gt;q10 -->
<g id="edge24" class="edge"><title>q6&#45;&gt;q10</title>
<path fill="none" stroke="black" d="M244.95,-745.643C254.343,-727.595 267,-698.226 267,-671 267,-671 267,-671 267,-111 267,-60.6292 203.842,-36.6731 160.892,-26.2055"/>
<polygon fill="black" stroke="black" points="161.523,-22.7596 150.994,-23.9414 159.962,-29.5833 161.523,-22.7596"/>
<text text-anchor="middle" x="271.5" y="-387.4" font-family="Times Roman,serif" font-size="14.00">a</text>
</g>
</g>
</svg>
