<?xml version="1.0" encoding="UTF-8" standalone="no"?>
<!DOCTYPE svg PUBLIC "-//W3C//DTD SVG 1.1//EN"
 "http://www.w3.org/Graphics/SVG/1.1/DTD/svg11.dtd">
<!-- Generated by graphviz version 2.26.3 (20100126.1600)
 -->
<!-- Title: G Pages: 1 -->
<svg width="204pt" height="510pt"
 viewBox="0.00 0.00 203.67 510.00" xmlns="http://www.w3.org/2000/svg" xmlns:xlink="http://www.w3.org/1999/xlink">
<g id="graph1" class="graph" transform="scale(1 1) rotate(0) translate(4 506)">
<title>G</title>
<polygon fill="white" stroke="white" points="-4,5 -4,-506 200.667,-506 200.667,5 -4,5"/>
<!-- q6 -->
<g id="node1" class="node"><title>q6</title>
<ellipse fill="none" stroke="black" cx="42.6665" cy="-484" rx="27" ry="18"/>
<text text-anchor="middle" x="42.6665" y="-479.9" font-family="Times Roman,serif" font-size="14.00">q6</text>
</g>
<!-- q6&#45;&gt;q6 -->
<g id="edge2" class="edge"><title>q6&#45;&gt;q6</title>
<path fill="none" stroke="black" d="M67.199,-492.121C78.1744,-492.895 87.6665,-490.188 87.6665,-484 87.6665,-479.843 83.3816,-477.257 77.2409,-476.242"/>
<polygon fill="black" stroke="black" points="77.3189,-472.742 67.199,-475.879 77.0661,-479.738 77.3189,-472.742"/>
<text text-anchor="middle" x="92.1665" y="-479.9" font-family="Times Roman,serif" font-size="14.00">b</text>
</g>
<!-- q4 -->
<g id="node4" class="node"><title>q4</title>
<ellipse fill="none" stroke="black" cx="42.6665" cy="-394" rx="27" ry="18"/>
<text text-anchor="middle" x="42.6665" y="-389.9" font-family="Times Roman,serif" font-size="14.00">q4</text>
</g>
<!-- q6&#45;&gt;q4 -->
<g id="edge4" class="edge"><title>q6&#45;&gt;q4</title>
<path fill="none" stroke="black" d="M42.6665,-465.787C42.6665,-453.344 42.6665,-436.605 42.6665,-422.421"/>
<polygon fill="black" stroke="black" points="46.1666,-422.186 42.6665,-412.186 39.1666,-422.186 46.1666,-422.186"/>
<text text-anchor="middle" x="47.1665" y="-434.9" font-family="Times Roman,serif" font-size="14.00">a</text>
</g>
<!-- q3 -->
<g id="node9" class="node"><title>q3</title>
<ellipse fill="none" stroke="black" cx="155.667" cy="-300" rx="27" ry="18"/>
<text text-anchor="middle" x="155.667" y="-295.9" font-family="Times Roman,serif" font-size="14.00">q3</text>
</g>
<!-- q4&#45;&gt;q3 -->
<g id="edge20" class="edge"><title>q4&#45;&gt;q3</title>
<path fill="none" stroke="black" d="M59.8288,-379.723C78.7712,-363.966 109.425,-338.467 130.953,-320.559"/>
<polygon fill="black" stroke="black" points="133.264,-323.189 138.713,-314.103 128.787,-317.807 133.264,-323.189"/>
<text text-anchor="middle" x="110.167" y="-344.9" font-family="Times Roman,serif" font-size="14.00">a</text>
</g>
<!-- q2 -->
<g id="node10" class="node"><title>q2</title>
<ellipse fill="none" stroke="black" cx="61.6665" cy="-206" rx="27" ry="18"/>
<text text-anchor="middle" x="61.6665" y="-201.9" font-family="Times Roman,serif" font-size="14.00">q2</text>
</g>
<!-- q4&#45;&gt;q2 -->
<g id="edge18" class="edge"><title>q4&#45;&gt;q2</title>
<path fill="none" stroke="black" d="M30.2434,-377.81C14.5905,-355.342 -8.8414,-313.466 3.66654,-278 10.4946,-258.639 24.977,-240.653 37.7612,-227.499"/>
<polygon fill="black" stroke="black" points="40.3588,-229.853 45.0214,-220.34 35.4436,-224.869 40.3588,-229.853"/>
<text text-anchor="middle" x="8.16654" y="-295.9" font-family="Times Roman,serif" font-size="14.00">b</text>
</g>
<!-- q5 -->
<g id="node5" class="node"><title>q5</title>
<ellipse fill="none" stroke="black" cx="132.667" cy="-116" rx="27" ry="18"/>
<text text-anchor="middle" x="132.667" y="-111.9" font-family="Times Roman,serif" font-size="14.00">q5</text>
</g>
<!-- q1 -->
<g id="node7" class="node"><title>q1</title>
<ellipse fill="none" stroke="black" cx="164.667" cy="-22" rx="27" ry="18"/>
<ellipse fill="none" stroke="black" cx="164.667" cy="-22" rx="31" ry="22"/>
<text text-anchor="middle" x="164.667" y="-17.9" font-family="Times Roman,serif" font-size="14.00">q1</text>
</g>
<!-- q5&#45;&gt;q1 -->
<g id="edge6" class="edge"><title>q5&#45;&gt;q1</title>
<path fill="none" stroke="black" d="M138.685,-98.3193C142.981,-85.7017 148.874,-68.3903 153.962,-53.4444"/>
<polygon fill="black" stroke="black" points="157.417,-54.1563 157.326,-43.5618 150.79,-51.9004 157.417,-54.1563"/>
<text text-anchor="middle" x="154.167" y="-66.9" font-family="Times Roman,serif" font-size="14.00">b</text>
</g>
<!-- q5&#45;&gt;q3 -->
<g id="edge8" class="edge"><title>q5&#45;&gt;q3</title>
<path fill="none" stroke="black" d="M134.923,-134.051C138.949,-166.258 147.395,-233.828 152.175,-272.068"/>
<polygon fill="black" stroke="black" points="148.706,-272.534 153.419,-282.022 155.652,-271.665 148.706,-272.534"/>
<text text-anchor="middle" x="150.167" y="-201.9" font-family="Times Roman,serif" font-size="14.00">a</text>
</g>
<!-- q1&#45;&gt;q5 -->
<g id="edge14" class="edge"><title>q1&#45;&gt;q5</title>
<path fill="none" stroke="black" d="M146.761,-40.0219C141.531,-46.4317 136.471,-54.0454 133.667,-62 130.817,-70.0833 129.875,-79.2786 129.841,-87.7613"/>
<polygon fill="black" stroke="black" points="126.352,-88.12 130.21,-97.9876 133.347,-87.8681 126.352,-88.12"/>
<text text-anchor="middle" x="138.167" y="-66.9" font-family="Times Roman,serif" font-size="14.00">b</text>
</g>
<!-- q1&#45;&gt;q3 -->
<g id="edge16" class="edge"><title>q1&#45;&gt;q3</title>
<path fill="none" stroke="black" d="M166.147,-44.2688C167.079,-59.4114 168.191,-79.9048 168.667,-98 170.561,-170.024 170.606,-188.389 162.667,-260 162.225,-263.985 161.634,-268.174 160.982,-272.279"/>
<polygon fill="black" stroke="black" points="157.53,-271.7 159.285,-282.148 164.429,-272.886 157.53,-271.7"/>
<text text-anchor="middle" x="174.167" y="-156.9" font-family="Times Roman,serif" font-size="14.00">a</text>
</g>
<!-- q3&#45;&gt;q2 -->
<g id="edge22" class="edge"><title>q3&#45;&gt;q2</title>
<path fill="none" stroke="black" d="M142.999,-283.83C133.287,-271.812 119.281,-255.269 105.667,-242 100.127,-236.601 93.8549,-231.134 87.8185,-226.146"/>
<polygon fill="black" stroke="black" points="89.8036,-223.25 79.8239,-219.693 85.407,-228.697 89.8036,-223.25"/>
<text text-anchor="middle" x="125.167" y="-246.9" font-family="Times Roman,serif" font-size="14.00">b</text>
</g>
<!-- q3&#45;&gt;q2 -->
<g id="edge24" class="edge"><title>q3&#45;&gt;q2</title>
<path fill="none" stroke="black" d="M135.485,-287.817C120.663,-278.636 102.044,-266.546 95.6665,-260 87.7811,-251.906 80.7817,-241.689 75.2143,-232.326"/>
<polygon fill="black" stroke="black" points="78.1125,-230.341 70.1443,-223.358 72.0188,-233.786 78.1125,-230.341"/>
<text text-anchor="middle" x="100.167" y="-246.9" font-family="Times Roman,serif" font-size="14.00">a</text>
</g>
<!-- q2&#45;&gt;q5 -->
<g id="edge12" class="edge"><title>q2&#45;&gt;q5</title>
<path fill="none" stroke="black" d="M74.3599,-189.91C85.264,-176.088 101.146,-155.955 113.582,-140.191"/>
<polygon fill="black" stroke="black" points="116.637,-141.97 120.083,-131.951 111.142,-137.634 116.637,-141.97"/>
<text text-anchor="middle" x="107.167" y="-156.9" font-family="Times Roman,serif" font-size="14.00">a</text>
</g>
<!-- q2&#45;&gt;q2 -->
<g id="edge10" class="edge"><title>q2&#45;&gt;q2</title>
<path fill="none" stroke="black" d="M86.199,-214.121C97.1744,-214.895 106.667,-212.188 106.667,-206 106.667,-201.843 102.382,-199.257 96.2409,-198.242"/>
<polygon fill="black" stroke="black" points="96.3189,-194.742 86.199,-197.879 96.0661,-201.738 96.3189,-194.742"/>
<text text-anchor="middle" x="111.167" y="-201.9" font-family="Times Roman,serif" font-size="14.00">b</text>
</g>
<!-- q0 -->
<g id="node19" class="node"><title>q0</title>
<ellipse fill="none" stroke="black" cx="52.6665" cy="-300" rx="27" ry="18"/>
<ellipse fill="none" stroke="black" cx="52.6665" cy="-300" rx="31" ry="22"/>
<text text-anchor="middle" x="52.6665" y="-295.9" font-family="Times Roman,serif" font-size="14.00">q0</text>
</g>
<!-- q0&#45;&gt;q2 -->
<g id="edge26" class="edge"><title>q0&#45;&gt;q2</title>
<path fill="none" stroke="black" d="M54.7994,-277.723C56.0504,-264.658 57.6425,-248.029 58.9787,-234.073"/>
<polygon fill="black" stroke="black" points="62.4716,-234.313 59.9407,-224.025 55.5035,-233.646 62.4716,-234.313"/>
<text text-anchor="middle" x="62.1665" y="-246.9" font-family="Times Roman,serif" font-size="14.00">b</text>
</g>
<!-- q0&#45;&gt;q0 -->
<g id="edge28" class="edge"><title>q0&#45;&gt;q0</title>
<path fill="none" stroke="black" d="M81.355,-308.965C92.4471,-309.363 101.667,-306.375 101.667,-300 101.667,-295.717 97.5048,-292.962 91.4094,-291.737"/>
<polygon fill="black" stroke="black" points="91.5745,-288.24 81.355,-291.035 91.0871,-295.223 91.5745,-288.24"/>
<text text-anchor="middle" x="106.167" y="-295.9" font-family="Times Roman,serif" font-size="14.00">a</text>
</g>
</g>
</svg>
