<?xml version="1.0" encoding="UTF-8" standalone="no"?>
<!DOCTYPE svg PUBLIC "-//W3C//DTD SVG 1.1//EN"
 "http://www.w3.org/Graphics/SVG/1.1/DTD/svg11.dtd">
<!-- Generated by graphviz version 2.26.3 (20100126.1600)
 -->
<!-- Title: G Pages: 1 -->
<svg width="188pt" height="146pt"
 viewBox="0.00 0.00 188.00 146.00" xmlns="http://www.w3.org/2000/svg" xmlns:xlink="http://www.w3.org/1999/xlink">
<g id="graph1" class="graph" transform="scale(1 1) rotate(0) translate(4 142)">
<title>G</title>
<polygon fill="white" stroke="white" points="-4,5 -4,-142 185,-142 185,5 -4,5"/>
<!-- q2 -->
<g id="node1" class="node"><title>q2</title>
<ellipse fill="none" stroke="black" cx="99" cy="-19" rx="27" ry="18.3848"/>
<text text-anchor="middle" x="99" y="-15.4" font-family="Times Roman,serif" font-size="14.00">q2</text>
</g>
<!-- q2&#45;&gt;q2 -->
<g id="edge2" class="edge"><title>q2&#45;&gt;q2</title>
<path fill="none" stroke="black" d="M125.347,-23.2957C135.533,-23.4866 144,-22.0547 144,-19 144,-17.0431 140.525,-15.7522 135.35,-15.1273"/>
<polygon fill="black" stroke="black" points="135.486,-11.63 125.347,-14.7043 135.19,-18.6237 135.486,-11.63"/>
<text text-anchor="middle" x="148.5" y="-15.4" font-family="Times Roman,serif" font-size="14.00">b</text>
</g>
<!-- q2&#45;&gt;q2 -->
<g id="edge4" class="edge"><title>q2&#45;&gt;q2</title>
<path fill="none" stroke="black" d="M117.703,-32.3594C138.375,-41.2656 162,-36.8125 162,-19 162,-3.9707 145.181,1.54787 127.508,-2.44429"/>
<polygon fill="black" stroke="black" points="126.126,0.786507 117.703,-5.64062 128.296,-5.86879 126.126,0.786507"/>
<text text-anchor="middle" x="166.5" y="-15.4" font-family="Times Roman,serif" font-size="14.00">a</text>
</g>
<!-- q1 -->
<g id="node4" class="node"><title>q1</title>
<ellipse fill="none" stroke="black" cx="27" cy="-19" rx="27" ry="18.3848"/>
<text text-anchor="middle" x="27" y="-15.4" font-family="Times Roman,serif" font-size="14.00">q1</text>
</g>
<!-- q0 -->
<g id="node6" class="node"><title>q0</title>
<ellipse fill="none" stroke="black" cx="45" cy="-115" rx="27" ry="18.3848"/>
<ellipse fill="none" stroke="black" cx="45" cy="-115" rx="31" ry="22.3848"/>
<text text-anchor="middle" x="45" y="-111.4" font-family="Times Roman,serif" font-size="14.00">q0</text>
</g>
<!-- q1&#45;&gt;q0 -->
<g id="edge6" class="edge"><title>q1&#45;&gt;q0</title>
<path fill="none" stroke="black" d="M26.6527,-37.5075C26.7869,-48.26 27.5369,-62.01 30,-74 30.6558,-77.1925 31.5145,-80.4693 32.4895,-83.7119"/>
<polygon fill="black" stroke="black" points="29.1795,-84.8501 35.6763,-93.2192 35.8166,-82.6253 29.1795,-84.8501"/>
<text text-anchor="middle" x="34.5" y="-61.4" font-family="Times Roman,serif" font-size="14.00">b</text>
</g>
<!-- q1&#45;&gt;q0 -->
<g id="edge8" class="edge"><title>q1&#45;&gt;q0</title>
<path fill="none" stroke="black" d="M33.7635,-37.2353C35.7271,-43.1498 37.6924,-49.7883 39,-56 40.7793,-64.452 42.0367,-73.7004 42.9233,-82.3156"/>
<polygon fill="black" stroke="black" points="39.4497,-82.7675 43.8309,-92.414 46.4216,-82.1409 39.4497,-82.7675"/>
<text text-anchor="middle" x="45.5" y="-61.4" font-family="Times Roman,serif" font-size="14.00">a</text>
</g>
<!-- q0&#45;&gt;q2 -->
<g id="edge10" class="edge"><title>q0&#45;&gt;q2</title>
<path fill="none" stroke="black" d="M56.9844,-93.6945C65.0126,-79.4221 75.6378,-60.5328 84.1945,-45.3209"/>
<polygon fill="black" stroke="black" points="87.361,-46.8305 89.2132,-36.3988 81.26,-43.3986 87.361,-46.8305"/>
<text text-anchor="middle" x="80.5" y="-61.4" font-family="Times Roman,serif" font-size="14.00">b</text>
</g>
<!-- q0&#45;&gt;q1 -->
<g id="edge12" class="edge"><title>q0&#45;&gt;q1</title>
<path fill="none" stroke="black" d="M27.0018,-96.4904C21.7654,-89.9179 16.7248,-82.1218 14,-74 11.0069,-65.0786 12.081,-55.1225 14.595,-46.159"/>
<polygon fill="black" stroke="black" points="17.9508,-47.1635 17.905,-36.5688 11.3339,-44.8796 17.9508,-47.1635"/>
<text text-anchor="middle" x="18.5" y="-61.4" font-family="Times Roman,serif" font-size="14.00">a</text>
</g>
</g>
</svg>
