<?xml version="1.0" encoding="UTF-8" standalone="no"?>
<!DOCTYPE svg PUBLIC "-//W3C//DTD SVG 1.1//EN"
 "http://www.w3.org/Graphics/SVG/1.1/DTD/svg11.dtd">
<!-- Generated by graphviz version 2.26.3 (20100126.1600)
 -->
<!-- Title: G Pages: 1 -->
<svg width="255pt" height="514pt"
 viewBox="0.00 0.00 255.00 514.00" xmlns="http://www.w3.org/2000/svg" xmlns:xlink="http://www.w3.org/1999/xlink">
<g id="graph1" class="graph" transform="scale(1 1) rotate(0) translate(4 510)">
<title>G</title>
<polygon fill="white" stroke="white" points="-4,5 -4,-510 252,-510 252,5 -4,5"/>
<!-- q0 -->
<g id="node1" class="node"><title>q0</title>
<ellipse fill="none" stroke="black" cx="193" cy="-487" rx="27" ry="18.3848"/>
<text text-anchor="middle" x="193" y="-483.4" font-family="Times Roman,serif" font-size="14.00">q0</text>
</g>
<!-- q0&#45;&gt;q0 -->
<g id="edge2" class="edge"><title>q0&#45;&gt;q0</title>
<path fill="none" stroke="black" d="M217.074,-495.454C228.242,-496.377 238,-493.559 238,-487 238,-482.593 233.595,-479.875 227.317,-478.846"/>
<polygon fill="black" stroke="black" points="227.173,-475.34 217.074,-478.546 226.967,-482.337 227.173,-475.34"/>
<text text-anchor="middle" x="242.5" y="-483.4" font-family="Times Roman,serif" font-size="14.00">b</text>
</g>
<!-- q8 -->
<g id="node4" class="node"><title>q8</title>
<ellipse fill="none" stroke="black" cx="114" cy="-391" rx="27" ry="18.3848"/>
<ellipse fill="none" stroke="black" cx="114" cy="-391" rx="31" ry="22.3848"/>
<text text-anchor="middle" x="114" y="-387.4" font-family="Times Roman,serif" font-size="14.00">q8</text>
</g>
<!-- q0&#45;&gt;q8 -->
<g id="edge4" class="edge"><title>q0&#45;&gt;q8</title>
<path fill="none" stroke="black" d="M179.599,-470.715C167.795,-456.372 150.365,-435.19 136.437,-418.265"/>
<polygon fill="black" stroke="black" points="138.978,-415.845 129.921,-410.348 133.573,-420.293 138.978,-415.845"/>
<text text-anchor="middle" x="164.5" y="-437.4" font-family="Times Roman,serif" font-size="14.00">a</text>
</g>
<!-- q8&#45;&gt;q8 -->
<g id="edge26" class="edge"><title>q8&#45;&gt;q8</title>
<path fill="none" stroke="black" d="M144.625,-395.688C154.833,-395.688 163,-394.125 163,-391 163,-389.047 159.81,-387.704 154.925,-386.972"/>
<polygon fill="black" stroke="black" points="154.828,-383.458 144.625,-386.312 154.381,-390.444 154.828,-383.458"/>
<text text-anchor="middle" x="167.5" y="-387.4" font-family="Times Roman,serif" font-size="14.00">b</text>
</g>
<!-- q8&#45;&gt;q8 -->
<g id="edge28" class="edge"><title>q8&#45;&gt;q8</title>
<path fill="none" stroke="black" d="M137.347,-405.951C158.424,-413.224 181,-408.24 181,-391 181,-376.454 164.928,-370.633 147.245,-373.538"/>
<polygon fill="black" stroke="black" points="146.179,-370.197 137.347,-376.049 147.901,-376.982 146.179,-370.197"/>
<text text-anchor="middle" x="185.5" y="-387.4" font-family="Times Roman,serif" font-size="14.00">a</text>
</g>
<!-- q2 -->
<g id="node5" class="node"><title>q2</title>
<ellipse fill="none" stroke="black" cx="116" cy="-295" rx="27" ry="18.3848"/>
<text text-anchor="middle" x="116" y="-291.4" font-family="Times Roman,serif" font-size="14.00">q2</text>
</g>
<!-- q8&#45;&gt;q2 -->
<g id="edge34" class="edge"><title>q8&#45;&gt;q2</title>
<path fill="none" stroke="black" d="M114.474,-368.249C114.75,-354.994 115.101,-338.148 115.397,-323.954"/>
<polygon fill="black" stroke="black" points="118.901,-323.791 115.61,-313.72 111.902,-323.645 118.901,-323.791"/>
<text text-anchor="middle" x="119.5" y="-337.4" font-family="Times Roman,serif" font-size="14.00">b</text>
</g>
<!-- q7 -->
<g id="node7" class="node"><title>q7</title>
<ellipse fill="none" stroke="black" cx="92" cy="-203" rx="27" ry="18.3848"/>
<text text-anchor="middle" x="92" y="-199.4" font-family="Times Roman,serif" font-size="14.00">q7</text>
</g>
<!-- q8&#45;&gt;q7 -->
<g id="edge36" class="edge"><title>q8&#45;&gt;q7</title>
<path fill="none" stroke="black" d="M99.0565,-370.993C88.9305,-356.129 76.4384,-334.893 71,-314 63.6737,-285.854 71.8812,-253.071 80.0847,-230.467"/>
<polygon fill="black" stroke="black" points="83.4607,-231.44 83.7978,-220.851 76.9306,-228.919 83.4607,-231.44"/>
<text text-anchor="middle" x="75.5" y="-291.4" font-family="Times Roman,serif" font-size="14.00">a</text>
</g>
<!-- q2&#45;&gt;q7 -->
<g id="edge6" class="edge"><title>q2&#45;&gt;q7</title>
<path fill="none" stroke="black" d="M111.401,-276.649C108.701,-265.949 105.201,-252.199 102,-240 101.256,-237.164 100.472,-234.208 99.6832,-231.258"/>
<polygon fill="black" stroke="black" points="103.017,-230.176 97.0382,-221.429 96.2572,-231.996 103.017,-230.176"/>
<text text-anchor="middle" x="110.5" y="-245.4" font-family="Times Roman,serif" font-size="14.00">b</text>
</g>
<!-- q4 -->
<g id="node9" class="node"><title>q4</title>
<ellipse fill="none" stroke="black" cx="172" cy="-203" rx="27" ry="18.3848"/>
<text text-anchor="middle" x="172" y="-199.4" font-family="Times Roman,serif" font-size="14.00">q4</text>
</g>
<!-- q2&#45;&gt;q4 -->
<g id="edge8" class="edge"><title>q2&#45;&gt;q4</title>
<path fill="none" stroke="black" d="M126.533,-277.696C134.903,-263.946 146.738,-244.501 156.236,-228.898"/>
<polygon fill="black" stroke="black" points="159.304,-230.589 161.514,-220.227 153.325,-226.949 159.304,-230.589"/>
<text text-anchor="middle" x="153.5" y="-245.4" font-family="Times Roman,serif" font-size="14.00">a</text>
</g>
<!-- q7&#45;&gt;q2 -->
<g id="edge22" class="edge"><title>q7&#45;&gt;q2</title>
<path fill="none" stroke="black" d="M89.9178,-221.454C89.2839,-232.311 89.5105,-246.185 93,-258 94.1716,-261.967 95.8922,-265.927 97.8738,-269.703"/>
<polygon fill="black" stroke="black" points="95.0512,-271.804 103.173,-278.607 101.066,-268.224 95.0512,-271.804"/>
<text text-anchor="middle" x="97.5" y="-245.4" font-family="Times Roman,serif" font-size="14.00">b</text>
</g>
<!-- q3 -->
<g id="node10" class="node"><title>q3</title>
<ellipse fill="none" stroke="black" cx="124" cy="-111" rx="27" ry="18.3848"/>
<text text-anchor="middle" x="124" y="-107.4" font-family="Times Roman,serif" font-size="14.00">q3</text>
</g>
<!-- q7&#45;&gt;q3 -->
<g id="edge24" class="edge"><title>q7&#45;&gt;q3</title>
<path fill="none" stroke="black" d="M98.3222,-184.824C102.88,-171.719 109.117,-153.789 114.303,-138.88"/>
<polygon fill="black" stroke="black" points="117.711,-139.733 117.691,-129.138 111.1,-137.434 117.711,-139.733"/>
<text text-anchor="middle" x="114.5" y="-153.4" font-family="Times Roman,serif" font-size="14.00">a</text>
</g>
<!-- q4&#45;&gt;q8 -->
<g id="edge14" class="edge"><title>q4&#45;&gt;q8</title>
<path fill="none" stroke="black" d="M170.229,-221.856C167.756,-244.263 162.358,-282.571 152,-314 146.692,-330.105 138.599,-347.1 131.243,-361.015"/>
<polygon fill="black" stroke="black" points="128.003,-359.649 126.312,-370.108 134.156,-362.986 128.003,-359.649"/>
<text text-anchor="middle" x="165.5" y="-291.4" font-family="Times Roman,serif" font-size="14.00">b</text>
</g>
<!-- q9 -->
<g id="node12" class="node"><title>q9</title>
<ellipse fill="none" stroke="black" cx="139" cy="-19" rx="27" ry="18.3848"/>
<text text-anchor="middle" x="139" y="-15.4" font-family="Times Roman,serif" font-size="14.00">q9</text>
</g>
<!-- q4&#45;&gt;q9 -->
<g id="edge16" class="edge"><title>q4&#45;&gt;q9</title>
<path fill="none" stroke="black" d="M170.971,-184.391C169.52,-162.222 166.312,-124.144 160,-92 157.023,-76.8415 152.374,-60.2707 148.206,-46.754"/>
<polygon fill="black" stroke="black" points="151.501,-45.5657 145.148,-37.087 144.827,-47.677 151.501,-45.5657"/>
<text text-anchor="middle" x="169.5" y="-107.4" font-family="Times Roman,serif" font-size="14.00">a</text>
</g>
<!-- q3&#45;&gt;q9 -->
<g id="edge10" class="edge"><title>q3&#45;&gt;q9</title>
<path fill="none" stroke="black" d="M127.035,-92.3824C129.13,-79.5383 131.954,-62.2161 134.333,-47.6269"/>
<polygon fill="black" stroke="black" points="137.814,-48.0228 135.969,-37.5899 130.905,-46.8963 137.814,-48.0228"/>
<text text-anchor="middle" x="136.5" y="-61.4" font-family="Times Roman,serif" font-size="14.00">b</text>
</g>
<!-- q6 -->
<g id="node14" class="node"><title>q6</title>
<ellipse fill="none" stroke="black" cx="27" cy="-19" rx="27" ry="18.3848"/>
<text text-anchor="middle" x="27" y="-15.4" font-family="Times Roman,serif" font-size="14.00">q6</text>
</g>
<!-- q3&#45;&gt;q6 -->
<g id="edge12" class="edge"><title>q3&#45;&gt;q6</title>
<path fill="none" stroke="black" d="M107.982,-95.8081C92.3969,-81.0259 68.5288,-58.3882 50.7369,-41.5133"/>
<polygon fill="black" stroke="black" points="52.7056,-38.5567 43.0414,-34.2145 47.8884,-43.6356 52.7056,-38.5567"/>
<text text-anchor="middle" x="88.5" y="-61.4" font-family="Times Roman,serif" font-size="14.00">a</text>
</g>
<!-- q9&#45;&gt;q0 -->
<g id="edge30" class="edge"><title>q9&#45;&gt;q0</title>
<path fill="none" stroke="black" d="M161.206,-29.9363C187.275,-44.5215 227,-72.9836 227,-111 227,-391 227,-391 227,-391 227,-415.542 217.004,-441.693 207.853,-460.494"/>
<polygon fill="black" stroke="black" points="204.63,-459.109 203.201,-469.607 210.865,-462.291 204.63,-459.109"/>
<text text-anchor="middle" x="231.5" y="-245.4" font-family="Times Roman,serif" font-size="14.00">b</text>
</g>
<!-- q9&#45;&gt;q7 -->
<g id="edge32" class="edge"><title>q9&#45;&gt;q7</title>
<path fill="none" stroke="black" d="M121.788,-33.4672C107.243,-46.9106 87.4646,-68.3706 79,-92 69.297,-119.086 75.197,-152.037 81.8794,-174.97"/>
<polygon fill="black" stroke="black" points="78.6142,-176.255 84.9516,-184.745 85.2922,-174.156 78.6142,-176.255"/>
<text text-anchor="middle" x="83.5" y="-107.4" font-family="Times Roman,serif" font-size="14.00">a</text>
</g>
<!-- q6&#45;&gt;q8 -->
<g id="edge20" class="edge"><title>q6&#45;&gt;q8</title>
<path fill="none" stroke="black" d="M22.4932,-37.5516C18.4006,-56.0435 13,-85.3118 13,-111 13,-295 13,-295 13,-295 13,-332.001 49.0516,-359.056 78.0768,-374.843"/>
<polygon fill="black" stroke="black" points="76.71,-378.076 87.199,-379.57 79.9311,-371.862 76.71,-378.076"/>
<text text-anchor="middle" x="17.5" y="-199.4" font-family="Times Roman,serif" font-size="14.00">a</text>
</g>
<!-- q6&#45;&gt;q6 -->
<g id="edge18" class="edge"><title>q6&#45;&gt;q6</title>
<path fill="none" stroke="black" d="M51.0743,-27.4544C62.2423,-28.3767 72,-25.5586 72,-19 72,-14.5934 67.5952,-11.8754 61.3174,-10.8458"/>
<polygon fill="black" stroke="black" points="61.1726,-7.34018 51.0743,-10.5456 60.9674,-14.3372 61.1726,-7.34018"/>
<text text-anchor="middle" x="76.5" y="-15.4" font-family="Times Roman,serif" font-size="14.00">b</text>
</g>
</g>
</svg>
