<?xml version="1.0" encoding="UTF-8" standalone="no"?>
<!DOCTYPE svg PUBLIC "-//W3C//DTD SVG 1.1//EN"
 "http://www.w3.org/Graphics/SVG/1.1/DTD/svg11.dtd">
<!-- Generated by graphviz version 2.26.3 (20100126.1600)
 -->
<!-- Title: G Pages: 1 -->
<svg width="412pt" height="790pt"
 viewBox="0.00 0.00 412.00 790.00" xmlns="http://www.w3.org/2000/svg" xmlns:xlink="http://www.w3.org/1999/xlink">
<g id="graph1" class="graph" transform="scale(1 1) rotate(0) translate(4 786)">
<title>G</title>
<polygon fill="white" stroke="white" points="-4,5 -4,-786 409,-786 409,5 -4,5"/>
<!-- q0 -->
<g id="node1" class="node"><title>q0</title>
<ellipse fill="none" stroke="black" cx="155" cy="-663" rx="27" ry="18.3848"/>
<text text-anchor="middle" x="155" y="-659.4" font-family="Times Roman,serif" font-size="14.00">q0</text>
</g>
<!-- q3 -->
<g id="node3" class="node"><title>q3</title>
<ellipse fill="none" stroke="black" cx="155" cy="-571" rx="27" ry="18.3848"/>
<text text-anchor="middle" x="155" y="-567.4" font-family="Times Roman,serif" font-size="14.00">q3</text>
</g>
<!-- q0&#45;&gt;q3 -->
<g id="edge2" class="edge"><title>q0&#45;&gt;q3</title>
<path fill="none" stroke="black" d="M155,-644.382C155,-631.538 155,-614.216 155,-599.627"/>
<polygon fill="black" stroke="black" points="158.5,-599.59 155,-589.59 151.5,-599.59 158.5,-599.59"/>
<text text-anchor="middle" x="159.5" y="-613.4" font-family="Times Roman,serif" font-size="14.00">b</text>
</g>
<!-- q10 -->
<g id="node5" class="node"><title>q10</title>
<ellipse fill="none" stroke="black" cx="136" cy="-19" rx="29.9071" ry="18.3848"/>
<text text-anchor="middle" x="136" y="-15.4" font-family="Times Roman,serif" font-size="14.00">q10</text>
</g>
<!-- q0&#45;&gt;q10 -->
<g id="edge4" class="edge"><title>q0&#45;&gt;q10</title>
<path fill="none" stroke="black" d="M128.355,-659.487C84.0378,-651.987 0,-629.987 0,-571 0,-571 0,-571 0,-111 0,-63.5663 57.4589,-38.9266 97.6809,-27.4893"/>
<polygon fill="black" stroke="black" points="98.737,-30.8298 107.49,-24.8601 96.9247,-24.0685 98.737,-30.8298"/>
<text text-anchor="middle" x="4.5" y="-337.4" font-family="Times Roman,serif" font-size="14.00">a</text>
</g>
<!-- q3&#45;&gt;q10 -->
<g id="edge10" class="edge"><title>q3&#45;&gt;q10</title>
<path fill="none" stroke="black" d="M157.54,-552.529C164.083,-503.303 181,-364.815 181,-249 181,-249 181,-249 181,-111 181,-86.4712 167.932,-61.6626 155.881,-43.9986"/>
<polygon fill="black" stroke="black" points="158.421,-41.5348 149.746,-35.4521 152.734,-45.6168 158.421,-41.5348"/>
<text text-anchor="middle" x="184.5" y="-291.4" font-family="Times Roman,serif" font-size="14.00">b</text>
</g>
<!-- q2 -->
<g id="node6" class="node"><title>q2</title>
<ellipse fill="none" stroke="black" cx="283" cy="-479" rx="27" ry="18.3848"/>
<text text-anchor="middle" x="283" y="-475.4" font-family="Times Roman,serif" font-size="14.00">q2</text>
</g>
<!-- q3&#45;&gt;q2 -->
<g id="edge12" class="edge"><title>q3&#45;&gt;q2</title>
<path fill="none" stroke="black" d="M179.199,-562.625C195.595,-556.266 217.243,-546.49 234,-534 245.408,-525.497 256.155,-513.997 264.661,-503.71"/>
<polygon fill="black" stroke="black" points="267.471,-505.801 270.972,-495.801 261.999,-501.435 267.471,-505.801"/>
<text text-anchor="middle" x="257.5" y="-521.4" font-family="Times Roman,serif" font-size="14.00">a</text>
</g>
<!-- q10&#45;&gt;q3 -->
<g id="edge34" class="edge"><title>q10&#45;&gt;q3</title>
<path fill="none" stroke="black" d="M111.882,-30.5707C85.2226,-45.2399 46,-73.2387 46,-111 46,-479 46,-479 46,-479 46,-507.06 56.4734,-514.868 77,-534 89.4117,-545.568 106.099,-554.14 120.853,-560.104"/>
<polygon fill="black" stroke="black" points="119.614,-563.378 130.205,-563.652 122.097,-556.833 119.614,-563.378"/>
<text text-anchor="middle" x="50.5" y="-291.4" font-family="Times Roman,serif" font-size="14.00">b</text>
</g>
<!-- q10&#45;&gt;q3 -->
<g id="edge36" class="edge"><title>q10&#45;&gt;q3</title>
<path fill="none" stroke="black" d="M122.254,-35.4521C109.02,-53.0052 91,-82.1956 91,-111 91,-479 91,-479 91,-479 91,-507.261 111.603,-533.069 129.43,-550.11"/>
<polygon fill="black" stroke="black" points="127.083,-552.708 136.831,-556.858 131.8,-547.535 127.083,-552.708"/>
<text text-anchor="middle" x="95.5" y="-291.4" font-family="Times Roman,serif" font-size="14.00">a</text>
</g>
<!-- q10&#45;&gt;q3 -->
<g id="edge38" class="edge"><title>q10&#45;&gt;q3</title>
<path fill="none" stroke="black" d="M136,-37.6776C136,-56.265 136,-85.6042 136,-111 136,-479 136,-479 136,-479 136,-500.916 141.235,-525.172 146.209,-543.274"/>
<polygon fill="black" stroke="black" points="142.852,-544.263 148.988,-552.899 149.577,-542.321 142.852,-544.263"/>
<text text-anchor="middle" x="140.5" y="-291.4" font-family="Times Roman,serif" font-size="14.00">b</text>
</g>
<!-- q10&#45;&gt;q10 -->
<g id="edge40" class="edge"><title>q10&#45;&gt;q10</title>
<path fill="none" stroke="black" d="M162.655,-27.5218C174.154,-28.2195 184,-25.3789 184,-19 184,-14.6145 179.346,-11.9014 172.701,-10.8607"/>
<polygon fill="black" stroke="black" points="172.781,-7.3613 162.655,-10.4782 172.514,-14.3562 172.781,-7.3613"/>
<text text-anchor="middle" x="188.5" y="-15.4" font-family="Times Roman,serif" font-size="14.00">a</text>
</g>
<!-- q4 -->
<g id="node8" class="node"><title>q4</title>
<ellipse fill="none" stroke="black" cx="313" cy="-387" rx="27" ry="18.3848"/>
<text text-anchor="middle" x="313" y="-383.4" font-family="Times Roman,serif" font-size="14.00">q4</text>
</g>
<!-- q2&#45;&gt;q4 -->
<g id="edge6" class="edge"><title>q2&#45;&gt;q4</title>
<path fill="none" stroke="black" d="M292.034,-461.227C294.849,-455.225 297.792,-448.417 300,-442 302.905,-433.557 305.387,-424.167 307.381,-415.57"/>
<polygon fill="black" stroke="black" points="310.845,-416.11 309.565,-405.593 304.007,-414.613 310.845,-416.11"/>
<text text-anchor="middle" x="309.5" y="-429.4" font-family="Times Roman,serif" font-size="14.00">b</text>
</g>
<!-- q9 -->
<g id="node10" class="node"><title>q9</title>
<ellipse fill="none" stroke="black" cx="250" cy="-203" rx="27" ry="18.3848"/>
<text text-anchor="middle" x="250" y="-199.4" font-family="Times Roman,serif" font-size="14.00">q9</text>
</g>
<!-- q2&#45;&gt;q9 -->
<g id="edge8" class="edge"><title>q2&#45;&gt;q9</title>
<path fill="none" stroke="black" d="M280.784,-460.462C275.136,-413.227 260.174,-288.095 253.408,-231.505"/>
<polygon fill="black" stroke="black" points="256.869,-230.971 252.207,-221.457 249.919,-231.802 256.869,-230.971"/>
<text text-anchor="middle" x="271.5" y="-337.4" font-family="Times Roman,serif" font-size="14.00">a</text>
</g>
<!-- q4&#45;&gt;q2 -->
<g id="edge16" class="edge"><title>q4&#45;&gt;q2</title>
<path fill="none" stroke="black" d="M300.998,-403.996C297.243,-410.056 293.445,-417.096 291,-424 288.045,-432.341 286.181,-441.765 285.005,-450.425"/>
<polygon fill="black" stroke="black" points="281.513,-450.159 283.885,-460.485 288.47,-450.934 281.513,-450.159"/>
<text text-anchor="middle" x="295.5" y="-429.4" font-family="Times Roman,serif" font-size="14.00">a</text>
</g>
<!-- q8 -->
<g id="node14" class="node"><title>q8</title>
<ellipse fill="none" stroke="black" cx="313" cy="-295" rx="27" ry="18.3848"/>
<text text-anchor="middle" x="313" y="-291.4" font-family="Times Roman,serif" font-size="14.00">q8</text>
</g>
<!-- q4&#45;&gt;q8 -->
<g id="edge14" class="edge"><title>q4&#45;&gt;q8</title>
<path fill="none" stroke="black" d="M313,-368.382C313,-355.538 313,-338.216 313,-323.627"/>
<polygon fill="black" stroke="black" points="316.5,-323.59 313,-313.59 309.5,-323.59 316.5,-323.59"/>
<text text-anchor="middle" x="317.5" y="-337.4" font-family="Times Roman,serif" font-size="14.00">b</text>
</g>
<!-- q9&#45;&gt;q3 -->
<g id="edge30" class="edge"><title>q9&#45;&gt;q3</title>
<path fill="none" stroke="black" d="M249.941,-221.658C249.077,-273.838 241.761,-424.596 188,-534 185.485,-539.118 182.062,-544.065 178.369,-548.586"/>
<polygon fill="black" stroke="black" points="175.612,-546.419 171.568,-556.211 180.836,-551.078 175.612,-546.419"/>
<text text-anchor="middle" x="240.5" y="-383.4" font-family="Times Roman,serif" font-size="14.00">b</text>
</g>
<!-- q5 -->
<g id="node16" class="node"><title>q5</title>
<ellipse fill="none" stroke="black" cx="282" cy="-111" rx="27" ry="18.3848"/>
<text text-anchor="middle" x="282" y="-107.4" font-family="Times Roman,serif" font-size="14.00">q5</text>
</g>
<!-- q9&#45;&gt;q5 -->
<g id="edge32" class="edge"><title>q9&#45;&gt;q5</title>
<path fill="none" stroke="black" d="M256.322,-184.824C260.88,-171.719 267.117,-153.789 272.303,-138.88"/>
<polygon fill="black" stroke="black" points="275.711,-139.733 275.691,-129.138 269.1,-137.434 275.711,-139.733"/>
<text text-anchor="middle" x="272.5" y="-153.4" font-family="Times Roman,serif" font-size="14.00">a</text>
</g>
<!-- q8&#45;&gt;q9 -->
<g id="edge28" class="edge"><title>q8&#45;&gt;q9</title>
<path fill="none" stroke="black" d="M301.445,-278.126C291.854,-264.12 278.072,-243.994 267.186,-228.098"/>
<polygon fill="black" stroke="black" points="270.02,-226.041 261.482,-219.767 264.244,-229.996 270.02,-226.041"/>
<text text-anchor="middle" x="291.5" y="-245.4" font-family="Times Roman,serif" font-size="14.00">a</text>
</g>
<!-- q8&#45;&gt;q5 -->
<g id="edge26" class="edge"><title>q8&#45;&gt;q5</title>
<path fill="none" stroke="black" d="M316.577,-276.627C317.569,-270.706 318.509,-264.097 319,-258 322.967,-208.756 321.946,-193.626 303,-148 301.525,-144.449 299.782,-140.811 297.94,-137.27"/>
<polygon fill="black" stroke="black" points="300.852,-135.304 292.952,-128.246 294.726,-138.691 300.852,-135.304"/>
<text text-anchor="middle" x="324.5" y="-199.4" font-family="Times Roman,serif" font-size="14.00">b</text>
</g>
<!-- q5&#45;&gt;q10 -->
<g id="edge20" class="edge"><title>q5&#45;&gt;q10</title>
<path fill="none" stroke="black" d="M261.971,-98.3092C244.346,-87.1483 217.985,-70.4722 195,-56 185.541,-50.044 175.219,-43.5642 165.891,-37.7158"/>
<polygon fill="black" stroke="black" points="167.645,-34.6845 157.313,-32.3397 163.927,-40.6159 167.645,-34.6845"/>
<text text-anchor="middle" x="225.5" y="-61.4" font-family="Times Roman,serif" font-size="14.00">a</text>
</g>
<!-- q5&#45;&gt;q8 -->
<g id="edge18" class="edge"><title>q5&#45;&gt;q8</title>
<path fill="none" stroke="black" d="M285.105,-129.431C290.524,-161.591 301.74,-228.165 308.177,-266.372"/>
<polygon fill="black" stroke="black" points="304.744,-267.065 309.857,-276.345 311.647,-265.902 304.744,-267.065"/>
<text text-anchor="middle" x="304.5" y="-199.4" font-family="Times Roman,serif" font-size="14.00">b</text>
</g>
<!-- q6 -->
<g id="node19" class="node"><title>q6</title>
<ellipse fill="none" stroke="black" cx="324" cy="-759" rx="27" ry="18.3848"/>
<ellipse fill="none" stroke="black" cx="324" cy="-759" rx="31" ry="22.3848"/>
<text text-anchor="middle" x="324" y="-755.4" font-family="Times Roman,serif" font-size="14.00">q6</text>
</g>
<!-- q6&#45;&gt;q0 -->
<g id="edge22" class="edge"><title>q6&#45;&gt;q0</title>
<path fill="none" stroke="black" d="M299.426,-745.041C269.097,-727.812 217.548,-698.53 184.938,-680.006"/>
<polygon fill="black" stroke="black" points="186.297,-676.753 175.874,-674.857 182.84,-682.84 186.297,-676.753"/>
<text text-anchor="middle" x="253.5" y="-705.4" font-family="Times Roman,serif" font-size="14.00">b</text>
</g>
<!-- q6&#45;&gt;q10 -->
<g id="edge24" class="edge"><title>q6&#45;&gt;q10</title>
<path fill="none" stroke="black" d="M346.076,-742.939C366.918,-725.741 395,-696.375 395,-663 395,-663 395,-663 395,-111 395,-65.0073 248.142,-36.1145 175.596,-24.6476"/>
<polygon fill="black" stroke="black" points="175.875,-21.1493 165.458,-23.0823 174.807,-28.0673 175.875,-21.1493"/>
<text text-anchor="middle" x="399.5" y="-383.4" font-family="Times Roman,serif" font-size="14.00">a</text>
</g>
</g>
</svg>
