<?xml version="1.0" encoding="UTF-8" standalone="no"?>
<!DOCTYPE svg PUBLIC "-//W3C//DTD SVG 1.1//EN"
 "http://www.w3.org/Graphics/SVG/1.1/DTD/svg11.dtd">
<!-- Generated by graphviz version 2.26.3 (20100126.1600)
 -->
<!-- Title: G Pages: 1 -->
<svg width="232pt" height="414pt"
 viewBox="0.00 0.00 232.00 414.00" xmlns="http://www.w3.org/2000/svg" xmlns:xlink="http://www.w3.org/1999/xlink">
<g id="graph1" class="graph" transform="scale(1 1) rotate(0) translate(4 410)">
<title>G</title>
<polygon fill="white" stroke="white" points="-4,5 -4,-410 229,-410 229,5 -4,5"/>
<!-- q2 -->
<g id="node1" class="node"><title>q2</title>
<ellipse fill="none" stroke="black" cx="170" cy="-387" rx="27" ry="18.3848"/>
<text text-anchor="middle" x="170" y="-383.4" font-family="Times Roman,serif" font-size="14.00">q2</text>
</g>
<!-- q2&#45;&gt;q2 -->
<g id="edge4" class="edge"><title>q2&#45;&gt;q2</title>
<path fill="none" stroke="black" d="M194.074,-395.454C205.242,-396.377 215,-393.559 215,-387 215,-382.593 210.595,-379.875 204.317,-378.846"/>
<polygon fill="black" stroke="black" points="204.173,-375.34 194.074,-378.546 203.967,-382.337 204.173,-375.34"/>
<text text-anchor="middle" x="219.5" y="-383.4" font-family="Times Roman,serif" font-size="14.00">a</text>
</g>
<!-- q0 -->
<g id="node3" class="node"><title>q0</title>
<ellipse fill="none" stroke="black" cx="124" cy="-295" rx="27" ry="18.3848"/>
<text text-anchor="middle" x="124" y="-291.4" font-family="Times Roman,serif" font-size="14.00">q0</text>
</g>
<!-- q2&#45;&gt;q0 -->
<g id="edge2" class="edge"><title>q2&#45;&gt;q0</title>
<path fill="none" stroke="black" d="M161.131,-369.261C154.385,-355.77 144.992,-336.984 137.341,-321.683"/>
<polygon fill="black" stroke="black" points="140.445,-320.063 132.842,-312.684 134.184,-323.194 140.445,-320.063"/>
<text text-anchor="middle" x="155.5" y="-337.4" font-family="Times Roman,serif" font-size="14.00">b</text>
</g>
<!-- q1 -->
<g id="node5" class="node"><title>q1</title>
<ellipse fill="none" stroke="black" cx="27" cy="-203" rx="27" ry="18.3848"/>
<text text-anchor="middle" x="27" y="-199.4" font-family="Times Roman,serif" font-size="14.00">q1</text>
</g>
<!-- q0&#45;&gt;q1 -->
<g id="edge18" class="edge"><title>q0&#45;&gt;q1</title>
<path fill="none" stroke="black" d="M107.982,-279.808C92.3969,-265.026 68.5288,-242.388 50.7369,-225.513"/>
<polygon fill="black" stroke="black" points="52.7056,-222.557 43.0414,-218.214 47.8884,-227.636 52.7056,-222.557"/>
<text text-anchor="middle" x="89.5" y="-245.4" font-family="Times Roman,serif" font-size="14.00">b</text>
</g>
<!-- q3 -->
<g id="node10" class="node"><title>q3</title>
<ellipse fill="none" stroke="black" cx="128" cy="-19" rx="27" ry="18.3848"/>
<text text-anchor="middle" x="128" y="-15.4" font-family="Times Roman,serif" font-size="14.00">q3</text>
</g>
<!-- q0&#45;&gt;q3 -->
<g id="edge20" class="edge"><title>q0&#45;&gt;q3</title>
<path fill="none" stroke="black" d="M121.704,-276.238C118.762,-251.164 113.825,-205.32 112,-166 109.722,-116.92 116.793,-104.739 123,-56 123.349,-53.2612 123.72,-50.4095 124.096,-47.5583"/>
<polygon fill="black" stroke="black" points="127.593,-47.8126 125.452,-37.4364 120.655,-46.8832 127.593,-47.8126"/>
<text text-anchor="middle" x="116.5" y="-153.4" font-family="Times Roman,serif" font-size="14.00">a</text>
</g>
<!-- q1&#45;&gt;q1 -->
<g id="edge8" class="edge"><title>q1&#45;&gt;q1</title>
<path fill="none" stroke="black" d="M51.0743,-211.454C62.2423,-212.377 72,-209.559 72,-203 72,-198.593 67.5952,-195.875 61.3174,-194.846"/>
<polygon fill="black" stroke="black" points="61.1726,-191.34 51.0743,-194.546 60.9674,-198.337 61.1726,-191.34"/>
<text text-anchor="middle" x="76.5" y="-199.4" font-family="Times Roman,serif" font-size="14.00">a</text>
</g>
<!-- q4 -->
<g id="node7" class="node"><title>q4</title>
<ellipse fill="none" stroke="black" cx="27" cy="-111" rx="27" ry="18.3848"/>
<text text-anchor="middle" x="27" y="-107.4" font-family="Times Roman,serif" font-size="14.00">q4</text>
</g>
<!-- q1&#45;&gt;q4 -->
<g id="edge6" class="edge"><title>q1&#45;&gt;q4</title>
<path fill="none" stroke="black" d="M27,-184.382C27,-171.538 27,-154.216 27,-139.627"/>
<polygon fill="black" stroke="black" points="30.5001,-139.59 27,-129.59 23.5001,-139.59 30.5001,-139.59"/>
<text text-anchor="middle" x="31.5" y="-153.4" font-family="Times Roman,serif" font-size="14.00">b</text>
</g>
<!-- q4&#45;&gt;q4 -->
<g id="edge12" class="edge"><title>q4&#45;&gt;q4</title>
<path fill="none" stroke="black" d="M51.0743,-119.454C62.2423,-120.377 72,-117.559 72,-111 72,-106.593 67.5952,-103.875 61.3174,-102.846"/>
<polygon fill="black" stroke="black" points="61.1726,-99.3402 51.0743,-102.546 60.9674,-106.337 61.1726,-99.3402"/>
<text text-anchor="middle" x="76.5" y="-107.4" font-family="Times Roman,serif" font-size="14.00">a</text>
</g>
<!-- q4&#45;&gt;q3 -->
<g id="edge10" class="edge"><title>q4&#45;&gt;q3</title>
<path fill="none" stroke="black" d="M42.9138,-95.9376C54.7241,-84.8149 71.2656,-69.3531 86,-56 91.6435,-50.8856 97.768,-45.4348 103.55,-40.3329"/>
<polygon fill="black" stroke="black" points="105.945,-42.8875 111.145,-33.6565 101.324,-37.63 105.945,-42.8875"/>
<text text-anchor="middle" x="91.5" y="-61.4" font-family="Times Roman,serif" font-size="14.00">b</text>
</g>
<!-- q3&#45;&gt;q2 -->
<g id="edge16" class="edge"><title>q3&#45;&gt;q2</title>
<path fill="none" stroke="black" d="M146.106,-32.785C165.339,-49.1407 193,-78.3406 193,-111 193,-295 193,-295 193,-295 193,-317.123 186.663,-341.369 180.642,-359.414"/>
<polygon fill="black" stroke="black" points="177.285,-358.409 177.277,-369.004 183.891,-360.726 177.285,-358.409"/>
<text text-anchor="middle" x="197.5" y="-199.4" font-family="Times Roman,serif" font-size="14.00">a</text>
</g>
<!-- q3&#45;&gt;q0 -->
<g id="edge14" class="edge"><title>q3&#45;&gt;q0</title>
<path fill="none" stroke="black" d="M127.727,-37.8205C127.04,-85.2508 125.233,-209.914 124.414,-266.424"/>
<polygon fill="black" stroke="black" points="120.914,-266.413 124.269,-276.462 127.913,-266.514 120.914,-266.413"/>
<text text-anchor="middle" x="130.5" y="-153.4" font-family="Times Roman,serif" font-size="14.00">b</text>
</g>
</g>
</svg>
