<?xml version="1.0" encoding="UTF-8" standalone="no"?>
<!DOCTYPE svg PUBLIC "-//W3C//DTD SVG 1.1//EN"
 "http://www.w3.org/Graphics/SVG/1.1/DTD/svg11.dtd">
<!-- Generated by graphviz version 2.26.3 (20100126.1600)
 -->
<!-- Title: G Pages: 1 -->
<svg width="377pt" height="514pt"
 viewBox="0.00 0.00 377.00 514.00" xmlns="http://www.w3.org/2000/svg" xmlns:xlink="http://www.w3.org/1999/xlink">
<g id="graph1" class="graph" transform="scale(1 1) rotate(0) translate(4 510)">
<title>G</title>
<polygon fill="white" stroke="white" points="-4,5 -4,-510 374,-510 374,5 -4,5"/>
<!-- q0 -->
<g id="node1" class="node"><title>q0</title>
<ellipse fill="none" stroke="black" cx="170" cy="-487" rx="27" ry="18.3848"/>
<text text-anchor="middle" x="170" y="-483.4" font-family="Times Roman,serif" font-size="14.00">q0</text>
</g>
<!-- q0&#45;&gt;q0 -->
<g id="edge2" class="edge"><title>q0&#45;&gt;q0</title>
<path fill="none" stroke="black" d="M194.074,-495.454C205.242,-496.377 215,-493.559 215,-487 215,-482.593 210.595,-479.875 204.317,-478.846"/>
<polygon fill="black" stroke="black" points="204.173,-475.34 194.074,-478.546 203.967,-482.337 204.173,-475.34"/>
<text text-anchor="middle" x="219.5" y="-483.4" font-family="Times Roman,serif" font-size="14.00">b</text>
</g>
<!-- q8 -->
<g id="node4" class="node"><title>q8</title>
<ellipse fill="none" stroke="black" cx="57" cy="-391" rx="27" ry="18.3848"/>
<ellipse fill="none" stroke="black" cx="57" cy="-391" rx="31" ry="22.3848"/>
<text text-anchor="middle" x="57" y="-387.4" font-family="Times Roman,serif" font-size="14.00">q8</text>
</g>
<!-- q0&#45;&gt;q8 -->
<g id="edge4" class="edge"><title>q0&#45;&gt;q8</title>
<path fill="none" stroke="black" d="M152.838,-472.42C134.881,-457.164 106.399,-432.968 85.1449,-414.911"/>
<polygon fill="black" stroke="black" points="87.277,-412.13 77.3898,-408.322 82.7448,-417.464 87.277,-412.13"/>
<text text-anchor="middle" x="127.5" y="-437.4" font-family="Times Roman,serif" font-size="14.00">a</text>
</g>
<!-- q8&#45;&gt;q8 -->
<g id="edge26" class="edge"><title>q8&#45;&gt;q8</title>
<path fill="none" stroke="black" d="M87.625,-395.688C97.8333,-395.688 106,-394.125 106,-391 106,-389.047 102.81,-387.704 97.925,-386.972"/>
<polygon fill="black" stroke="black" points="97.8282,-383.458 87.625,-386.312 97.381,-390.444 97.8282,-383.458"/>
<text text-anchor="middle" x="110.5" y="-387.4" font-family="Times Roman,serif" font-size="14.00">b</text>
</g>
<!-- q8&#45;&gt;q8 -->
<g id="edge28" class="edge"><title>q8&#45;&gt;q8</title>
<path fill="none" stroke="black" d="M80.3472,-405.951C101.424,-413.224 124,-408.24 124,-391 124,-376.454 107.928,-370.633 90.245,-373.538"/>
<polygon fill="black" stroke="black" points="89.1792,-370.197 80.3472,-376.049 90.9009,-376.982 89.1792,-370.197"/>
<text text-anchor="middle" x="128.5" y="-387.4" font-family="Times Roman,serif" font-size="14.00">a</text>
</g>
<!-- q2 -->
<g id="node5" class="node"><title>q2</title>
<ellipse fill="none" stroke="black" cx="55" cy="-295" rx="27" ry="18.3848"/>
<text text-anchor="middle" x="55" y="-291.4" font-family="Times Roman,serif" font-size="14.00">q2</text>
</g>
<!-- q8&#45;&gt;q2 -->
<g id="edge34" class="edge"><title>q8&#45;&gt;q2</title>
<path fill="none" stroke="black" d="M56.526,-368.249C56.2499,-354.994 55.8989,-338.148 55.6032,-323.954"/>
<polygon fill="black" stroke="black" points="59.0976,-323.645 55.39,-313.72 52.0991,-323.791 59.0976,-323.645"/>
<text text-anchor="middle" x="61.5" y="-337.4" font-family="Times Roman,serif" font-size="14.00">b</text>
</g>
<!-- q7 -->
<g id="node7" class="node"><title>q7</title>
<ellipse fill="none" stroke="black" cx="93" cy="-203" rx="27" ry="18.3848"/>
<text text-anchor="middle" x="93" y="-199.4" font-family="Times Roman,serif" font-size="14.00">q7</text>
</g>
<!-- q8&#45;&gt;q7 -->
<g id="edge36" class="edge"><title>q8&#45;&gt;q7</title>
<path fill="none" stroke="black" d="M68.9043,-370.205C76.8413,-355.135 86.597,-333.979 91,-314 97.0244,-286.664 96.857,-254.618 95.5843,-232.006"/>
<polygon fill="black" stroke="black" points="99.056,-231.467 94.893,-221.725 92.0718,-231.937 99.056,-231.467"/>
<text text-anchor="middle" x="99.5" y="-291.4" font-family="Times Roman,serif" font-size="14.00">a</text>
</g>
<!-- q2&#45;&gt;q7 -->
<g id="edge6" class="edge"><title>q2&#45;&gt;q7</title>
<path fill="none" stroke="black" d="M62.5076,-276.824C68.0079,-263.507 75.5665,-245.207 81.782,-230.159"/>
<polygon fill="black" stroke="black" points="85.0546,-231.404 85.6373,-220.825 78.5847,-228.732 85.0546,-231.404"/>
<text text-anchor="middle" x="81.5" y="-245.4" font-family="Times Roman,serif" font-size="14.00">b</text>
</g>
<!-- q4 -->
<g id="node9" class="node"><title>q4</title>
<ellipse fill="none" stroke="black" cx="68" cy="-19" rx="27" ry="18.3848"/>
<text text-anchor="middle" x="68" y="-15.4" font-family="Times Roman,serif" font-size="14.00">q4</text>
</g>
<!-- q2&#45;&gt;q4 -->
<g id="edge8" class="edge"><title>q2&#45;&gt;q4</title>
<path fill="none" stroke="black" d="M55.0612,-276.137C55.1975,-254.045 55.631,-216.351 57,-184 59.0175,-136.324 63.0522,-81.0025 65.6342,-48.0604"/>
<polygon fill="black" stroke="black" points="69.1471,-48.0356 66.4492,-37.79 62.169,-47.4818 69.1471,-48.0356"/>
<text text-anchor="middle" x="63.5" y="-153.4" font-family="Times Roman,serif" font-size="14.00">a</text>
</g>
<!-- q7&#45;&gt;q7 -->
<g id="edge24" class="edge"><title>q7&#45;&gt;q7</title>
<path fill="none" stroke="black" d="M117.074,-211.454C128.242,-212.377 138,-209.559 138,-203 138,-198.593 133.595,-195.875 127.317,-194.846"/>
<polygon fill="black" stroke="black" points="127.173,-191.34 117.074,-194.546 126.967,-198.337 127.173,-191.34"/>
<text text-anchor="middle" x="142.5" y="-199.4" font-family="Times Roman,serif" font-size="14.00">a</text>
</g>
<!-- q9 -->
<g id="node12" class="node"><title>q9</title>
<ellipse fill="none" stroke="black" cx="159" cy="-111" rx="27" ry="18.3848"/>
<text text-anchor="middle" x="159" y="-107.4" font-family="Times Roman,serif" font-size="14.00">q9</text>
</g>
<!-- q7&#45;&gt;q9 -->
<g id="edge22" class="edge"><title>q7&#45;&gt;q9</title>
<path fill="none" stroke="black" d="M97.0381,-184.466C100.122,-173.189 105.195,-158.907 113,-148 117.864,-141.202 124.299,-134.98 130.808,-129.657"/>
<polygon fill="black" stroke="black" points="133.156,-132.268 138.982,-123.419 128.909,-126.703 133.156,-132.268"/>
<text text-anchor="middle" x="117.5" y="-153.4" font-family="Times Roman,serif" font-size="14.00">b</text>
</g>
<!-- q4&#45;&gt;q8 -->
<g id="edge14" class="edge"><title>q4&#45;&gt;q8</title>
<path fill="none" stroke="black" d="M49.0582,-32.6003C28.9376,-48.7865 0,-77.8311 0,-111 0,-295 0,-295 0,-295 0,-321.558 16.3281,-347.187 31.5061,-365.274"/>
<polygon fill="black" stroke="black" points="29.1004,-367.838 38.3361,-373.03 34.3538,-363.212 29.1004,-367.838"/>
<text text-anchor="middle" x="4.5" y="-199.4" font-family="Times Roman,serif" font-size="14.00">b</text>
</g>
<!-- q4&#45;&gt;q9 -->
<g id="edge16" class="edge"><title>q4&#45;&gt;q9</title>
<path fill="none" stroke="black" d="M86.1393,-33.1263C94.3138,-39.7728 103.923,-47.9865 112,-56 121.613,-65.5372 131.465,-76.7962 139.65,-86.6352"/>
<polygon fill="black" stroke="black" points="137.046,-88.9799 146.091,-94.4971 142.461,-84.5436 137.046,-88.9799"/>
<text text-anchor="middle" x="132.5" y="-61.4" font-family="Times Roman,serif" font-size="14.00">a</text>
</g>
<!-- q3 -->
<g id="node10" class="node"><title>q3</title>
<ellipse fill="none" stroke="black" cx="287" cy="-295" rx="27" ry="18.3848"/>
<text text-anchor="middle" x="287" y="-291.4" font-family="Times Roman,serif" font-size="14.00">q3</text>
</g>
<!-- q3&#45;&gt;q9 -->
<g id="edge10" class="edge"><title>q3&#45;&gt;q9</title>
<path fill="none" stroke="black" d="M283.997,-276.566C278.232,-246.393 263.037,-186.02 229,-148 219.283,-137.146 205.614,-128.937 192.93,-123.044"/>
<polygon fill="black" stroke="black" points="194.074,-119.726 183.505,-118.983 191.304,-126.154 194.074,-119.726"/>
<text text-anchor="middle" x="272.5" y="-199.4" font-family="Times Roman,serif" font-size="14.00">b</text>
</g>
<!-- q6 -->
<g id="node14" class="node"><title>q6</title>
<ellipse fill="none" stroke="black" cx="315" cy="-203" rx="27" ry="18.3848"/>
<text text-anchor="middle" x="315" y="-199.4" font-family="Times Roman,serif" font-size="14.00">q6</text>
</g>
<!-- q3&#45;&gt;q6 -->
<g id="edge12" class="edge"><title>q3&#45;&gt;q6</title>
<path fill="none" stroke="black" d="M292.532,-276.824C296.52,-263.719 301.977,-245.789 306.515,-230.88"/>
<polygon fill="black" stroke="black" points="309.916,-231.724 309.48,-221.138 303.22,-229.686 309.916,-231.724"/>
<text text-anchor="middle" x="307.5" y="-245.4" font-family="Times Roman,serif" font-size="14.00">a</text>
</g>
<!-- q9&#45;&gt;q0 -->
<g id="edge30" class="edge"><title>q9&#45;&gt;q0</title>
<path fill="none" stroke="black" d="M159.549,-129.758C161.335,-190.81 166.991,-384.142 169.151,-457.964"/>
<polygon fill="black" stroke="black" points="165.663,-458.461 169.455,-468.354 172.66,-458.256 165.663,-458.461"/>
<text text-anchor="middle" x="168.5" y="-291.4" font-family="Times Roman,serif" font-size="14.00">b</text>
</g>
<!-- q9&#45;&gt;q0 -->
<g id="edge38" class="edge"><title>q9&#45;&gt;q0</title>
<path fill="none" stroke="black" d="M175.198,-125.915C191.736,-142.847 215,-172.147 215,-203 215,-391 215,-391 215,-391 215,-417.1 201.194,-443.74 188.876,-462.313"/>
<polygon fill="black" stroke="black" points="185.849,-460.537 183.016,-470.746 191.597,-464.532 185.849,-460.537"/>
<text text-anchor="middle" x="219.5" y="-291.4" font-family="Times Roman,serif" font-size="14.00">b</text>
</g>
<!-- q9&#45;&gt;q7 -->
<g id="edge32" class="edge"><title>q9&#45;&gt;q7</title>
<path fill="none" stroke="black" d="M147.977,-128.069C140.779,-139.041 131.066,-153.526 122,-166 119.037,-170.077 115.816,-174.34 112.634,-178.461"/>
<polygon fill="black" stroke="black" points="109.657,-176.587 106.253,-186.62 115.171,-180.9 109.657,-176.587"/>
<text text-anchor="middle" x="138.5" y="-153.4" font-family="Times Roman,serif" font-size="14.00">a</text>
</g>
<!-- q9&#45;&gt;q4 -->
<g id="edge40" class="edge"><title>q9&#45;&gt;q4</title>
<path fill="none" stroke="black" d="M136.718,-100.383C124.821,-93.9386 110.508,-84.8625 100,-74 92.1655,-65.9012 85.494,-55.5247 80.3026,-45.9713"/>
<polygon fill="black" stroke="black" points="83.2854,-44.1169 75.6162,-36.8071 77.0531,-47.3041 83.2854,-44.1169"/>
<text text-anchor="middle" x="104.5" y="-61.4" font-family="Times Roman,serif" font-size="14.00">a</text>
</g>
<!-- q6&#45;&gt;q9 -->
<g id="edge20" class="edge"><title>q6&#45;&gt;q9</title>
<path fill="none" stroke="black" d="M306.059,-185.316C299.108,-173.218 288.401,-157.677 275,-148 251.457,-131 219.778,-121.591 195.474,-116.521"/>
<polygon fill="black" stroke="black" points="196.037,-113.065 185.555,-114.604 194.709,-119.938 196.037,-113.065"/>
<text text-anchor="middle" x="296.5" y="-153.4" font-family="Times Roman,serif" font-size="14.00">a</text>
</g>
<!-- q6&#45;&gt;q6 -->
<g id="edge18" class="edge"><title>q6&#45;&gt;q6</title>
<path fill="none" stroke="black" d="M339.074,-211.454C350.242,-212.377 360,-209.559 360,-203 360,-198.593 355.595,-195.875 349.317,-194.846"/>
<polygon fill="black" stroke="black" points="349.173,-191.34 339.074,-194.546 348.967,-198.337 349.173,-191.34"/>
<text text-anchor="middle" x="364.5" y="-199.4" font-family="Times Roman,serif" font-size="14.00">b</text>
</g>
</g>
</svg>
