<?xml version="1.0" encoding="UTF-8" standalone="no"?>
<!DOCTYPE svg PUBLIC "-//W3C//DTD SVG 1.1//EN"
 "http://www.w3.org/Graphics/SVG/1.1/DTD/svg11.dtd">
<!-- Generated by graphviz version 2.26.3 (20100126.1600)
 -->
<!-- Title: G Pages: 1 -->
<svg width="217pt" height="698pt"
 viewBox="0.00 0.00 217.00 698.00" xmlns="http://www.w3.org/2000/svg" xmlns:xlink="http://www.w3.org/1999/xlink">
<g id="graph1" class="graph" transform="scale(1 1) rotate(0) translate(4 694)">
<title>G</title>
<polygon fill="white" stroke="white" points="-4,5 -4,-694 214,-694 214,5 -4,5"/>
<!-- q0 -->
<g id="node1" class="node"><title>q0</title>
<ellipse fill="none" stroke="black" cx="131" cy="-579" rx="27" ry="18.3848"/>
<text text-anchor="middle" x="131" y="-575.4" font-family="Times Roman,serif" font-size="14.00">q0</text>
</g>
<!-- q3 -->
<g id="node3" class="node"><title>q3</title>
<ellipse fill="none" stroke="black" cx="86" cy="-487" rx="27" ry="18.3848"/>
<text text-anchor="middle" x="86" y="-483.4" font-family="Times Roman,serif" font-size="14.00">q3</text>
</g>
<!-- q0&#45;&gt;q3 -->
<g id="edge2" class="edge"><title>q0&#45;&gt;q3</title>
<path fill="none" stroke="black" d="M122.324,-561.261C115.725,-547.77 106.536,-528.984 99.0513,-513.683"/>
<polygon fill="black" stroke="black" points="102.188,-512.129 94.6498,-504.684 95.8997,-515.205 102.188,-512.129"/>
<text text-anchor="middle" x="117.5" y="-529.4" font-family="Times Roman,serif" font-size="14.00">b</text>
</g>
<!-- q10 -->
<g id="node5" class="node"><title>q10</title>
<ellipse fill="none" stroke="black" cx="125" cy="-395" rx="29.9071" ry="18.3848"/>
<text text-anchor="middle" x="125" y="-391.4" font-family="Times Roman,serif" font-size="14.00">q10</text>
</g>
<!-- q0&#45;&gt;q10 -->
<g id="edge4" class="edge"><title>q0&#45;&gt;q10</title>
<path fill="none" stroke="black" d="M130.392,-560.345C129.345,-528.247 127.196,-462.349 125.95,-424.148"/>
<polygon fill="black" stroke="black" points="129.434,-423.585 125.61,-413.705 122.438,-423.814 129.434,-423.585"/>
<text text-anchor="middle" x="133.5" y="-483.4" font-family="Times Roman,serif" font-size="14.00">a</text>
</g>
<!-- q3&#45;&gt;q10 -->
<g id="edge10" class="edge"><title>q3&#45;&gt;q10</title>
<path fill="none" stroke="black" d="M86.1814,-468.465C86.8917,-457.453 88.8746,-443.449 94,-432 96.1283,-427.246 99.0506,-422.619 102.256,-418.338"/>
<polygon fill="black" stroke="black" points="104.981,-420.535 108.634,-410.589 99.5765,-416.086 104.981,-420.535"/>
<text text-anchor="middle" x="98.5" y="-437.4" font-family="Times Roman,serif" font-size="14.00">b</text>
</g>
<!-- q2 -->
<g id="node6" class="node"><title>q2</title>
<ellipse fill="none" stroke="black" cx="28" cy="-303" rx="27" ry="18.3848"/>
<text text-anchor="middle" x="28" y="-299.4" font-family="Times Roman,serif" font-size="14.00">q2</text>
</g>
<!-- q3&#45;&gt;q2 -->
<g id="edge12" class="edge"><title>q3&#45;&gt;q2</title>
<path fill="none" stroke="black" d="M77.116,-469.174C74.3102,-463.168 71.3356,-456.372 69,-450 54.1546,-409.5 41.6092,-361.06 34.4425,-331.158"/>
<polygon fill="black" stroke="black" points="37.8422,-330.326 32.1369,-321.399 31.0297,-331.935 37.8422,-330.326"/>
<text text-anchor="middle" x="61.5" y="-391.4" font-family="Times Roman,serif" font-size="14.00">a</text>
</g>
<!-- q10&#45;&gt;q3 -->
<g id="edge34" class="edge"><title>q10&#45;&gt;q3</title>
<path fill="none" stroke="black" d="M117.896,-413.428C113.694,-424.154 108.194,-437.904 103,-450 101.591,-453.282 100.075,-456.71 98.5506,-460.099"/>
<polygon fill="black" stroke="black" points="95.2782,-458.839 94.3098,-469.39 101.646,-461.746 95.2782,-458.839"/>
<text text-anchor="middle" x="114.5" y="-437.4" font-family="Times Roman,serif" font-size="14.00">b</text>
</g>
<!-- q10&#45;&gt;q3 -->
<g id="edge38" class="edge"><title>q10&#45;&gt;q3</title>
<path fill="none" stroke="black" d="M101.239,-406.644C91.5457,-412.745 81.3694,-421.217 76,-432 71.7881,-440.458 72.2262,-450.438 74.3866,-459.558"/>
<polygon fill="black" stroke="black" points="71.1171,-460.834 77.4016,-469.364 77.808,-458.777 71.1171,-460.834"/>
<text text-anchor="middle" x="80.5" y="-437.4" font-family="Times Roman,serif" font-size="14.00">b</text>
</g>
<!-- q10&#45;&gt;q10 -->
<g id="edge36" class="edge"><title>q10&#45;&gt;q10</title>
<path fill="none" stroke="black" d="M154.53,-399.311C164.748,-399.357 173,-397.92 173,-395 173,-393.175 169.777,-391.929 164.864,-391.263"/>
<polygon fill="black" stroke="black" points="164.709,-387.749 154.53,-390.689 164.32,-394.738 164.709,-387.749"/>
<text text-anchor="middle" x="177.5" y="-391.4" font-family="Times Roman,serif" font-size="14.00">a</text>
</g>
<!-- q10&#45;&gt;q10 -->
<g id="edge40" class="edge"><title>q10&#45;&gt;q10</title>
<path fill="none" stroke="black" d="M145.611,-408.767C167.017,-417.123 191,-412.534 191,-395 191,-380.069 173.609,-374.524 155.227,-378.368"/>
<polygon fill="black" stroke="black" points="154.195,-375.023 145.611,-381.233 156.194,-381.731 154.195,-375.023"/>
<text text-anchor="middle" x="195.5" y="-391.4" font-family="Times Roman,serif" font-size="14.00">a</text>
</g>
<!-- q10&#45;&gt;q2 -->
<g id="edge44" class="edge"><title>q10&#45;&gt;q2</title>
<path fill="none" stroke="black" d="M102.252,-382.852C91.22,-376.335 78.1872,-367.661 68,-358 59.0795,-349.54 50.7981,-338.864 44.1118,-329.173"/>
<polygon fill="black" stroke="black" points="46.8947,-327.036 38.4471,-320.642 41.0632,-330.909 46.8947,-327.036"/>
<text text-anchor="middle" x="72.5" y="-345.4" font-family="Times Roman,serif" font-size="14.00">a</text>
</g>
<!-- q9 -->
<g id="node10" class="node"><title>q9</title>
<ellipse fill="none" stroke="black" cx="107" cy="-207" rx="27" ry="18.3848"/>
<text text-anchor="middle" x="107" y="-203.4" font-family="Times Roman,serif" font-size="14.00">q9</text>
</g>
<!-- q10&#45;&gt;q9 -->
<g id="edge42" class="edge"><title>q10&#45;&gt;q9</title>
<path fill="none" stroke="black" d="M117.543,-376.769C112.015,-362.222 104.949,-341.175 102,-322 97.495,-292.71 99.8868,-258.766 102.697,-235.388"/>
<polygon fill="black" stroke="black" points="106.171,-235.813 103.994,-225.445 99.2298,-234.908 106.171,-235.813"/>
<text text-anchor="middle" x="106.5" y="-299.4" font-family="Times Roman,serif" font-size="14.00">b</text>
</g>
<!-- q4 -->
<g id="node8" class="node"><title>q4</title>
<ellipse fill="none" stroke="black" cx="31" cy="-207" rx="27" ry="18.3848"/>
<ellipse fill="none" stroke="black" cx="31" cy="-207" rx="31" ry="22.3848"/>
<text text-anchor="middle" x="31" y="-203.4" font-family="Times Roman,serif" font-size="14.00">q4</text>
</g>
<!-- q2&#45;&gt;q4 -->
<g id="edge6" class="edge"><title>q2&#45;&gt;q4</title>
<path fill="none" stroke="black" d="M28.5784,-284.49C28.973,-271.863 29.5065,-254.791 29.9724,-239.885"/>
<polygon fill="black" stroke="black" points="33.4825,-239.612 30.2966,-229.508 26.4859,-239.394 33.4825,-239.612"/>
<text text-anchor="middle" x="34.5" y="-253.4" font-family="Times Roman,serif" font-size="14.00">b</text>
</g>
<!-- q2&#45;&gt;q9 -->
<g id="edge8" class="edge"><title>q2&#45;&gt;q9</title>
<path fill="none" stroke="black" d="M39.3524,-286.207C47.0754,-275.088 57.7221,-260.337 68,-248 73.0148,-241.981 78.6899,-235.733 84.1274,-229.983"/>
<polygon fill="black" stroke="black" points="86.898,-232.151 91.3103,-222.519 81.8543,-227.297 86.898,-232.151"/>
<text text-anchor="middle" x="72.5" y="-253.4" font-family="Times Roman,serif" font-size="14.00">a</text>
</g>
<!-- q4&#45;&gt;q2 -->
<g id="edge16" class="edge"><title>q4&#45;&gt;q2</title>
<path fill="none" stroke="black" d="M22.0799,-228.786C19.987,-234.898 18.0594,-241.619 17,-248 15.5487,-256.742 16.5191,-266.218 18.3729,-274.803"/>
<polygon fill="black" stroke="black" points="15.051,-275.934 20.9689,-284.722 21.8229,-274.162 15.051,-275.934"/>
<text text-anchor="middle" x="21.5" y="-253.4" font-family="Times Roman,serif" font-size="14.00">a</text>
</g>
<!-- q8 -->
<g id="node14" class="node"><title>q8</title>
<ellipse fill="none" stroke="black" cx="123" cy="-19" rx="27" ry="18.3848"/>
<text text-anchor="middle" x="123" y="-15.4" font-family="Times Roman,serif" font-size="14.00">q8</text>
</g>
<!-- q4&#45;&gt;q8 -->
<g id="edge14" class="edge"><title>q4&#45;&gt;q8</title>
<path fill="none" stroke="black" d="M41.5536,-185.434C58.4075,-150.993 91.3697,-83.6358 109.773,-46.0294"/>
<polygon fill="black" stroke="black" points="113.084,-47.2257 114.336,-36.7051 106.796,-44.1488 113.084,-47.2257"/>
<text text-anchor="middle" x="91.5" y="-107.4" font-family="Times Roman,serif" font-size="14.00">b</text>
</g>
<!-- q9&#45;&gt;q10 -->
<g id="edge30" class="edge"><title>q9&#45;&gt;q10</title>
<path fill="none" stroke="black" d="M108.784,-225.638C111.933,-258.522 118.494,-327.05 122.234,-366.106"/>
<polygon fill="black" stroke="black" points="118.771,-366.666 123.208,-376.287 125.739,-365.998 118.771,-366.666"/>
<text text-anchor="middle" x="122.5" y="-299.4" font-family="Times Roman,serif" font-size="14.00">b</text>
</g>
<!-- q5 -->
<g id="node16" class="node"><title>q5</title>
<ellipse fill="none" stroke="black" cx="171" cy="-111" rx="27" ry="18.3848"/>
<text text-anchor="middle" x="171" y="-107.4" font-family="Times Roman,serif" font-size="14.00">q5</text>
</g>
<!-- q9&#45;&gt;q5 -->
<g id="edge32" class="edge"><title>q9&#45;&gt;q5</title>
<path fill="none" stroke="black" d="M118.442,-189.837C128.362,-174.957 142.853,-153.221 154.108,-136.338"/>
<polygon fill="black" stroke="black" points="157.022,-138.276 159.657,-128.014 151.198,-134.393 157.022,-138.276"/>
<text text-anchor="middle" x="148.5" y="-153.4" font-family="Times Roman,serif" font-size="14.00">a</text>
</g>
<!-- q8&#45;&gt;q9 -->
<g id="edge28" class="edge"><title>q8&#45;&gt;q9</title>
<path fill="none" stroke="black" d="M121.414,-37.6378C118.615,-70.5222 112.783,-139.05 109.459,-178.106"/>
<polygon fill="black" stroke="black" points="105.953,-178.026 108.593,-188.287 112.928,-178.619 105.953,-178.026"/>
<text text-anchor="middle" x="121.5" y="-107.4" font-family="Times Roman,serif" font-size="14.00">a</text>
</g>
<!-- q8&#45;&gt;q5 -->
<g id="edge26" class="edge"><title>q8&#45;&gt;q5</title>
<path fill="none" stroke="black" d="M136.354,-35.3212C141.056,-41.5508 146.129,-48.8724 150,-56 154.643,-64.5487 158.737,-74.3434 162.047,-83.2759"/>
<polygon fill="black" stroke="black" points="158.81,-84.6187 165.44,-92.8823 165.41,-82.2875 158.81,-84.6187"/>
<text text-anchor="middle" x="162.5" y="-61.4" font-family="Times Roman,serif" font-size="14.00">b</text>
</g>
<!-- q5&#45;&gt;q10 -->
<g id="edge20" class="edge"><title>q5&#45;&gt;q10</title>
<path fill="none" stroke="black" d="M169.043,-129.724C164.546,-171.144 152.5,-273.558 135,-358 134.405,-360.871 133.719,-363.85 132.99,-366.814"/>
<polygon fill="black" stroke="black" points="129.559,-366.1 130.42,-376.66 136.332,-367.868 129.559,-366.1"/>
<text text-anchor="middle" x="157.5" y="-253.4" font-family="Times Roman,serif" font-size="14.00">a</text>
</g>
<!-- q5&#45;&gt;q8 -->
<g id="edge18" class="edge"><title>q5&#45;&gt;q8</title>
<path fill="none" stroke="black" d="M156.182,-95.3457C150.837,-89.0753 145.114,-81.5527 141,-74 136.509,-65.7561 132.899,-56.2032 130.124,-47.3949"/>
<polygon fill="black" stroke="black" points="133.405,-46.1425 127.248,-37.52 126.684,-48.0998 133.405,-46.1425"/>
<text text-anchor="middle" x="145.5" y="-61.4" font-family="Times Roman,serif" font-size="14.00">b</text>
</g>
<!-- q6 -->
<g id="node19" class="node"><title>q6</title>
<ellipse fill="none" stroke="black" cx="166" cy="-671" rx="27" ry="18.3848"/>
<text text-anchor="middle" x="166" y="-667.4" font-family="Times Roman,serif" font-size="14.00">q6</text>
</g>
<!-- q6&#45;&gt;q0 -->
<g id="edge22" class="edge"><title>q6&#45;&gt;q0</title>
<path fill="none" stroke="black" d="M159.085,-652.824C154.1,-639.719 147.278,-621.789 141.607,-606.88"/>
<polygon fill="black" stroke="black" points="144.728,-605.24 137.901,-597.138 138.185,-607.729 144.728,-605.24"/>
<text text-anchor="middle" x="155.5" y="-621.4" font-family="Times Roman,serif" font-size="14.00">b</text>
</g>
<!-- q6&#45;&gt;q10 -->
<g id="edge24" class="edge"><title>q6&#45;&gt;q10</title>
<path fill="none" stroke="black" d="M166.325,-652.398C166.566,-637.646 166.873,-616.505 167,-598 167.116,-581.112 168.689,-576.804 167,-560 161.193,-502.241 158.392,-487.384 141,-432 139.994,-428.795 138.802,-425.491 137.53,-422.238"/>
<polygon fill="black" stroke="black" points="140.664,-420.659 133.579,-412.781 134.205,-423.358 140.664,-420.659"/>
<text text-anchor="middle" x="169.5" y="-529.4" font-family="Times Roman,serif" font-size="14.00">a</text>
</g>
</g>
</svg>
