<?xml version="1.0" encoding="UTF-8" standalone="no"?>
<!DOCTYPE svg PUBLIC "-//W3C//DTD SVG 1.1//EN"
 "http://www.w3.org/Graphics/SVG/1.1/DTD/svg11.dtd">
<!-- Generated by graphviz version 2.26.3 (20100126.1600)
 -->
<!-- Title: G Pages: 1 -->
<svg width="183pt" height="518pt"
 viewBox="0.00 0.00 182.55 518.00" xmlns="http://www.w3.org/2000/svg" xmlns:xlink="http://www.w3.org/1999/xlink">
<g id="graph1" class="graph" transform="scale(1 1) rotate(0) translate(4 514)">
<title>G</title>
<polygon fill="white" stroke="white" points="-4,5 -4,-514 179.548,-514 179.548,5 -4,5"/>
<!-- q6 -->
<g id="node1" class="node"><title>q6</title>
<ellipse fill="none" stroke="black" cx="98.5482" cy="-492" rx="27" ry="18"/>
<text text-anchor="middle" x="98.5482" y="-487.9" font-family="Times Roman,serif" font-size="14.00">q6</text>
</g>
<!-- q6&#45;&gt;q6 -->
<g id="edge2" class="edge"><title>q6&#45;&gt;q6</title>
<path fill="none" stroke="black" d="M123.081,-500.121C134.056,-500.895 143.548,-498.188 143.548,-492 143.548,-487.843 139.263,-485.257 133.123,-484.242"/>
<polygon fill="black" stroke="black" points="133.201,-480.742 123.081,-483.879 132.948,-487.738 133.201,-480.742"/>
<text text-anchor="middle" x="148.048" y="-487.9" font-family="Times Roman,serif" font-size="14.00">b</text>
</g>
<!-- q4 -->
<g id="node4" class="node"><title>q4</title>
<ellipse fill="none" stroke="black" cx="98.5482" cy="-398" rx="27" ry="18"/>
<ellipse fill="none" stroke="black" cx="98.5482" cy="-398" rx="31" ry="22"/>
<text text-anchor="middle" x="98.5482" y="-393.9" font-family="Times Roman,serif" font-size="14.00">q4</text>
</g>
<!-- q6&#45;&gt;q4 -->
<g id="edge4" class="edge"><title>q6&#45;&gt;q4</title>
<path fill="none" stroke="black" d="M98.5482,-473.876C98.5482,-461.512 98.5482,-444.795 98.5482,-430.199"/>
<polygon fill="black" stroke="black" points="102.048,-430.039 98.5482,-420.039 95.0483,-430.039 102.048,-430.039"/>
<text text-anchor="middle" x="103.048" y="-442.9" font-family="Times Roman,serif" font-size="14.00">a</text>
</g>
<!-- q3 -->
<g id="node9" class="node"><title>q3</title>
<ellipse fill="none" stroke="black" cx="57.5482" cy="-304" rx="27" ry="18"/>
<text text-anchor="middle" x="57.5482" y="-299.9" font-family="Times Roman,serif" font-size="14.00">q3</text>
</g>
<!-- q4&#45;&gt;q3 -->
<g id="edge20" class="edge"><title>q4&#45;&gt;q3</title>
<path fill="none" stroke="black" d="M89.2447,-376.67C83.3322,-363.114 75.6272,-345.449 69.2945,-330.93"/>
<polygon fill="black" stroke="black" points="72.3745,-329.237 65.1684,-321.471 65.9583,-332.036 72.3745,-329.237"/>
<text text-anchor="middle" x="84.0482" y="-344.9" font-family="Times Roman,serif" font-size="14.00">a</text>
</g>
<!-- q2 -->
<g id="node10" class="node"><title>q2</title>
<ellipse fill="none" stroke="black" cx="90.5482" cy="-214" rx="27" ry="18"/>
<text text-anchor="middle" x="90.5482" y="-209.9" font-family="Times Roman,serif" font-size="14.00">q2</text>
</g>
<!-- q4&#45;&gt;q2 -->
<g id="edge18" class="edge"><title>q4&#45;&gt;q2</title>
<path fill="none" stroke="black" d="M98.1423,-375.919C97.5323,-346.981 96.1617,-294.657 93.5482,-250 93.406,-247.57 93.238,-245.049 93.0552,-242.521"/>
<polygon fill="black" stroke="black" points="96.5247,-241.996 92.2493,-232.302 89.5463,-242.546 96.5247,-241.996"/>
<text text-anchor="middle" x="101.048" y="-299.9" font-family="Times Roman,serif" font-size="14.00">b</text>
</g>
<!-- q5 -->
<g id="node5" class="node"><title>q5</title>
<ellipse fill="none" stroke="black" cx="40.5482" cy="-120" rx="27" ry="18"/>
<text text-anchor="middle" x="40.5482" y="-115.9" font-family="Times Roman,serif" font-size="14.00">q5</text>
</g>
<!-- q1 -->
<g id="node7" class="node"><title>q1</title>
<ellipse fill="none" stroke="black" cx="45.5482" cy="-22" rx="27" ry="18"/>
<ellipse fill="none" stroke="black" cx="45.5482" cy="-22" rx="31" ry="22"/>
<text text-anchor="middle" x="45.5482" y="-17.9" font-family="Times Roman,serif" font-size="14.00">q1</text>
</g>
<!-- q5&#45;&gt;q1 -->
<g id="edge6" class="edge"><title>q5&#45;&gt;q1</title>
<path fill="none" stroke="black" d="M34.3084,-102.473C31.0025,-90.96 28.087,-75.573 30.5482,-62 31.0995,-58.9601 31.8685,-55.8503 32.7698,-52.774"/>
<polygon fill="black" stroke="black" points="36.1235,-53.7818 35.9949,-43.1877 29.4888,-51.5497 36.1235,-53.7818"/>
<text text-anchor="middle" x="35.0482" y="-66.9" font-family="Times Roman,serif" font-size="14.00">b</text>
</g>
<!-- q5&#45;&gt;q3 -->
<g id="edge8" class="edge"><title>q5&#45;&gt;q3</title>
<path fill="none" stroke="black" d="M40.6891,-138.286C41.0159,-160.501 42.0842,-199.093 45.5482,-232 47.087,-246.618 49.6949,-262.771 52.0872,-276.066"/>
<polygon fill="black" stroke="black" points="48.6706,-276.838 53.935,-286.033 55.5533,-275.562 48.6706,-276.838"/>
<text text-anchor="middle" x="50.0482" y="-209.9" font-family="Times Roman,serif" font-size="14.00">a</text>
</g>
<!-- q1&#45;&gt;q5 -->
<g id="edge14" class="edge"><title>q1&#45;&gt;q5</title>
<path fill="none" stroke="black" d="M44.4194,-44.1249C43.7081,-58.0664 42.7824,-76.2105 42.0145,-91.2599"/>
<polygon fill="black" stroke="black" points="38.5029,-91.4016 41.4887,-101.567 45.4938,-91.7583 38.5029,-91.4016"/>
<text text-anchor="middle" x="47.0482" y="-66.9" font-family="Times Roman,serif" font-size="14.00">b</text>
</g>
<!-- q1&#45;&gt;q3 -->
<g id="edge16" class="edge"><title>q1&#45;&gt;q3</title>
<path fill="none" stroke="black" d="M31.2939,-41.8231C21.6361,-56.5309 9.72398,-77.5047 4.54821,-98 -11.831,-162.859 21.5078,-239.075 42.4039,-278.1"/>
<polygon fill="black" stroke="black" points="39.5205,-280.119 47.4106,-287.19 45.6521,-276.742 39.5205,-280.119"/>
<text text-anchor="middle" x="8.04821" y="-164.9" font-family="Times Roman,serif" font-size="14.00">a</text>
</g>
<!-- q3&#45;&gt;q2 -->
<g id="edge22" class="edge"><title>q3&#45;&gt;q2</title>
<path fill="none" stroke="black" d="M58.158,-285.958C59.0201,-275.201 61.0122,-261.455 65.5482,-250 67.124,-246.02 69.2143,-242.052 71.517,-238.281"/>
<polygon fill="black" stroke="black" points="74.4565,-240.182 77.1329,-229.931 68.6479,-236.275 74.4565,-240.182"/>
<text text-anchor="middle" x="70.0482" y="-254.9" font-family="Times Roman,serif" font-size="14.00">b</text>
</g>
<!-- q3&#45;&gt;q2 -->
<g id="edge24" class="edge"><title>q3&#45;&gt;q2</title>
<path fill="none" stroke="black" d="M66.3965,-286.655C69.2,-280.811 72.1821,-274.199 74.5482,-268 77.7211,-259.687 80.66,-250.461 83.1303,-242.021"/>
<polygon fill="black" stroke="black" points="86.5457,-242.805 85.8955,-232.23 79.8092,-240.903 86.5457,-242.805"/>
<text text-anchor="middle" x="85.0482" y="-254.9" font-family="Times Roman,serif" font-size="14.00">a</text>
</g>
<!-- q2&#45;&gt;q5 -->
<g id="edge12" class="edge"><title>q2&#45;&gt;q5</title>
<path fill="none" stroke="black" d="M81.3774,-196.759C73.8359,-182.581 63.0297,-162.265 54.4288,-146.095"/>
<polygon fill="black" stroke="black" points="57.4471,-144.317 49.6608,-137.132 51.267,-147.604 57.4471,-144.317"/>
<text text-anchor="middle" x="74.0482" y="-164.9" font-family="Times Roman,serif" font-size="14.00">a</text>
</g>
<!-- q2&#45;&gt;q2 -->
<g id="edge10" class="edge"><title>q2&#45;&gt;q2</title>
<path fill="none" stroke="black" d="M115.081,-222.121C126.056,-222.895 135.548,-220.188 135.548,-214 135.548,-209.843 131.263,-207.257 125.123,-206.242"/>
<polygon fill="black" stroke="black" points="125.201,-202.742 115.081,-205.879 124.948,-209.738 125.201,-202.742"/>
<text text-anchor="middle" x="140.048" y="-209.9" font-family="Times Roman,serif" font-size="14.00">b</text>
</g>
<!-- q0 -->
<g id="node19" class="node"><title>q0</title>
<ellipse fill="none" stroke="black" cx="116.548" cy="-120" rx="27" ry="18"/>
<ellipse fill="none" stroke="black" cx="116.548" cy="-120" rx="31" ry="22"/>
<text text-anchor="middle" x="116.548" y="-115.9" font-family="Times Roman,serif" font-size="14.00">q0</text>
</g>
<!-- q0&#45;&gt;q1 -->
<g id="edge26" class="edge"><title>q0&#45;&gt;q1</title>
<path fill="none" stroke="black" d="M102.18,-100.168C91.7868,-85.8223 77.5938,-66.2319 66.0166,-50.2522"/>
<polygon fill="black" stroke="black" points="68.5961,-47.8469 59.8948,-41.8023 62.9274,-51.9538 68.5961,-47.8469"/>
<text text-anchor="middle" x="91.0482" y="-66.9" font-family="Times Roman,serif" font-size="14.00">b</text>
</g>
<!-- q0&#45;&gt;q0 -->
<g id="edge28" class="edge"><title>q0&#45;&gt;q0</title>
<path fill="none" stroke="black" d="M145.237,-128.965C156.329,-129.363 165.548,-126.375 165.548,-120 165.548,-115.717 161.386,-112.962 155.291,-111.737"/>
<polygon fill="black" stroke="black" points="155.456,-108.24 145.237,-111.035 154.969,-115.223 155.456,-108.24"/>
<text text-anchor="middle" x="170.048" y="-115.9" font-family="Times Roman,serif" font-size="14.00">a</text>
</g>
</g>
</svg>
