<?xml version="1.0" encoding="UTF-8" standalone="no"?>
<!DOCTYPE svg PUBLIC "-//W3C//DTD SVG 1.1//EN"
 "http://www.w3.org/Graphics/SVG/1.1/DTD/svg11.dtd">
<!-- Generated by graphviz version 2.26.3 (20100126.1600)
 -->
<!-- Title: G Pages: 1 -->
<svg width="161pt" height="506pt"
 viewBox="0.00 0.00 161.00 506.00" xmlns="http://www.w3.org/2000/svg" xmlns:xlink="http://www.w3.org/1999/xlink">
<g id="graph1" class="graph" transform="scale(1 1) rotate(0) translate(4 502)">
<title>G</title>
<polygon fill="white" stroke="white" points="-4,5 -4,-502 158,-502 158,5 -4,5"/>
<!-- q6 -->
<g id="node1" class="node"><title>q6</title>
<ellipse fill="none" stroke="black" cx="27" cy="-479" rx="27" ry="18.3848"/>
<text text-anchor="middle" x="27" y="-475.4" font-family="Times Roman,serif" font-size="14.00">q6</text>
</g>
<!-- q3 -->
<g id="node3" class="node"><title>q3</title>
<ellipse fill="none" stroke="black" cx="27" cy="-203" rx="27" ry="18.3848"/>
<text text-anchor="middle" x="27" y="-199.4" font-family="Times Roman,serif" font-size="14.00">q3</text>
</g>
<!-- q6&#45;&gt;q3 -->
<g id="edge2" class="edge"><title>q6&#45;&gt;q3</title>
<path fill="none" stroke="black" d="M23.0311,-460.631C21.8844,-454.709 20.7432,-448.1 20,-442 18.0619,-426.093 18.4446,-422.019 18,-406 15.9528,-332.245 11.0765,-313.242 20,-240 20.3368,-237.236 20.7553,-234.367 21.219,-231.505"/>
<polygon fill="black" stroke="black" points="24.7165,-231.829 23.0311,-221.369 17.8258,-230.597 24.7165,-231.829"/>
<text text-anchor="middle" x="19.5" y="-337.4" font-family="Times Roman,serif" font-size="14.00">b</text>
</g>
<!-- q4 -->
<g id="node5" class="node"><title>q4</title>
<ellipse fill="none" stroke="black" cx="54" cy="-387" rx="27" ry="18.3848"/>
<text text-anchor="middle" x="54" y="-383.4" font-family="Times Roman,serif" font-size="14.00">q4</text>
</g>
<!-- q6&#45;&gt;q4 -->
<g id="edge4" class="edge"><title>q6&#45;&gt;q4</title>
<path fill="none" stroke="black" d="M24.6729,-460.47C23.9549,-449.586 24.1789,-435.712 28,-424 29.4359,-419.599 31.5899,-415.262 34.0549,-411.193"/>
<polygon fill="black" stroke="black" points="37.0413,-413.026 39.79,-402.794 31.2604,-409.079 37.0413,-413.026"/>
<text text-anchor="middle" x="32.5" y="-429.4" font-family="Times Roman,serif" font-size="14.00">a</text>
</g>
<!-- q3&#45;&gt;q3 -->
<g id="edge28" class="edge"><title>q3&#45;&gt;q3</title>
<path fill="none" stroke="black" d="M51.0743,-211.454C62.2423,-212.377 72,-209.559 72,-203 72,-198.593 67.5952,-195.875 61.3174,-194.846"/>
<polygon fill="black" stroke="black" points="61.1726,-191.34 51.0743,-194.546 60.9674,-198.337 61.1726,-191.34"/>
<text text-anchor="middle" x="76.5" y="-199.4" font-family="Times Roman,serif" font-size="14.00">a</text>
</g>
<!-- q1 -->
<g id="node8" class="node"><title>q1</title>
<ellipse fill="none" stroke="black" cx="41" cy="-111" rx="27" ry="18.3848"/>
<text text-anchor="middle" x="41" y="-107.4" font-family="Times Roman,serif" font-size="14.00">q1</text>
</g>
<!-- q3&#45;&gt;q1 -->
<g id="edge26" class="edge"><title>q3&#45;&gt;q1</title>
<path fill="none" stroke="black" d="M26.9366,-184.293C27.17,-173.596 27.9246,-159.966 30,-148 30.5046,-145.091 31.1614,-142.087 31.903,-139.107"/>
<polygon fill="black" stroke="black" points="35.3393,-139.814 34.6534,-129.241 28.5964,-137.934 35.3393,-139.814"/>
<text text-anchor="middle" x="34.5" y="-153.4" font-family="Times Roman,serif" font-size="14.00">b</text>
</g>
<!-- q4&#45;&gt;q6 -->
<g id="edge24" class="edge"><title>q4&#45;&gt;q6</title>
<path fill="none" stroke="black" d="M48.6768,-405.138C44.8335,-418.234 39.5718,-436.163 35.1949,-451.077"/>
<polygon fill="black" stroke="black" points="31.7921,-450.243 32.3343,-460.824 38.5088,-452.214 31.7921,-450.243"/>
<text text-anchor="middle" x="46.5" y="-429.4" font-family="Times Roman,serif" font-size="14.00">a</text>
</g>
<!-- q2 -->
<g id="node13" class="node"><title>q2</title>
<ellipse fill="none" stroke="black" cx="54" cy="-295" rx="27" ry="18.3848"/>
<text text-anchor="middle" x="54" y="-291.4" font-family="Times Roman,serif" font-size="14.00">q2</text>
</g>
<!-- q4&#45;&gt;q2 -->
<g id="edge22" class="edge"><title>q4&#45;&gt;q2</title>
<path fill="none" stroke="black" d="M54,-368.382C54,-355.538 54,-338.216 54,-323.627"/>
<polygon fill="black" stroke="black" points="57.5001,-323.59 54,-313.59 50.5001,-323.59 57.5001,-323.59"/>
<text text-anchor="middle" x="58.5" y="-337.4" font-family="Times Roman,serif" font-size="14.00">b</text>
</g>
<!-- q5 -->
<g id="node6" class="node"><title>q5</title>
<ellipse fill="none" stroke="black" cx="126" cy="-203" rx="27" ry="18.3848"/>
<text text-anchor="middle" x="126" y="-199.4" font-family="Times Roman,serif" font-size="14.00">q5</text>
</g>
<!-- q5&#45;&gt;q1 -->
<g id="edge6" class="edge"><title>q5&#45;&gt;q1</title>
<path fill="none" stroke="black" d="M106.606,-189.783C97.672,-183.199 87.2486,-174.779 79,-166 70.7251,-157.193 62.8951,-146.451 56.517,-136.805"/>
<polygon fill="black" stroke="black" points="59.4374,-134.876 51.0966,-128.342 53.5427,-138.651 59.4374,-134.876"/>
<text text-anchor="middle" x="83.5" y="-153.4" font-family="Times Roman,serif" font-size="14.00">b</text>
</g>
<!-- q7 -->
<g id="node10" class="node"><title>q7</title>
<ellipse fill="none" stroke="black" cx="126" cy="-111" rx="27" ry="18.3848"/>
<text text-anchor="middle" x="126" y="-107.4" font-family="Times Roman,serif" font-size="14.00">q7</text>
</g>
<!-- q5&#45;&gt;q7 -->
<g id="edge8" class="edge"><title>q5&#45;&gt;q7</title>
<path fill="none" stroke="black" d="M109.341,-188.021C103.652,-181.833 97.9778,-174.191 95,-166 92.2666,-158.481 92.2666,-155.519 95,-148 96.8146,-143.009 99.6306,-138.221 102.841,-133.842"/>
<polygon fill="black" stroke="black" points="105.667,-135.917 109.341,-125.979 100.272,-131.457 105.667,-135.917"/>
<text text-anchor="middle" x="99.5" y="-153.4" font-family="Times Roman,serif" font-size="14.00">a</text>
</g>
<!-- q0 -->
<g id="node17" class="node"><title>q0</title>
<ellipse fill="none" stroke="black" cx="41" cy="-19" rx="27" ry="18.3848"/>
<text text-anchor="middle" x="41" y="-15.4" font-family="Times Roman,serif" font-size="14.00">q0</text>
</g>
<!-- q1&#45;&gt;q0 -->
<g id="edge18" class="edge"><title>q1&#45;&gt;q0</title>
<path fill="none" stroke="black" d="M24.3411,-96.0207C18.6524,-89.8332 12.9778,-82.1909 10,-74 7.26662,-66.4814 7.26662,-63.5186 10,-56 11.8146,-51.0087 14.6306,-46.2211 17.841,-41.8422"/>
<polygon fill="black" stroke="black" points="20.6671,-43.9167 24.3411,-33.9793 15.272,-39.4567 20.6671,-43.9167"/>
<text text-anchor="middle" x="14.5" y="-61.4" font-family="Times Roman,serif" font-size="14.00">b</text>
</g>
<!-- q1&#45;&gt;q0 -->
<g id="edge20" class="edge"><title>q1&#45;&gt;q0</title>
<path fill="none" stroke="black" d="M41,-92.3824C41,-79.5383 41,-62.2161 41,-47.6269"/>
<polygon fill="black" stroke="black" points="44.5001,-47.5898 41,-37.5899 37.5001,-47.5899 44.5001,-47.5898"/>
<text text-anchor="middle" x="45.5" y="-61.4" font-family="Times Roman,serif" font-size="14.00">a</text>
</g>
<!-- q7&#45;&gt;q5 -->
<g id="edge10" class="edge"><title>q7&#45;&gt;q5</title>
<path fill="none" stroke="black" d="M126,-129.59C126,-142.428 126,-159.748 126,-174.342"/>
<polygon fill="black" stroke="black" points="122.5,-174.382 126,-184.382 129.5,-174.382 122.5,-174.382"/>
<text text-anchor="middle" x="130.5" y="-153.4" font-family="Times Roman,serif" font-size="14.00">b</text>
</g>
<!-- q7&#45;&gt;q5 -->
<g id="edge12" class="edge"><title>q7&#45;&gt;q5</title>
<path fill="none" stroke="black" d="M131.956,-129.249C133.61,-135.164 135.177,-141.8 136,-148 137.053,-155.93 137.053,-158.07 136,-166 135.614,-168.906 135.065,-171.909 134.42,-174.887"/>
<polygon fill="black" stroke="black" points="130.984,-174.201 131.956,-184.751 137.775,-175.897 130.984,-174.201"/>
<text text-anchor="middle" x="140.5" y="-153.4" font-family="Times Roman,serif" font-size="14.00">a</text>
</g>
<!-- q2&#45;&gt;q3 -->
<g id="edge14" class="edge"><title>q2&#45;&gt;q3</title>
<path fill="none" stroke="black" d="M39.79,-279.206C35.1158,-273.033 30.4837,-265.613 28,-258 25.2835,-249.673 24.385,-240.254 24.3505,-231.593"/>
<polygon fill="black" stroke="black" points="27.8508,-231.637 24.6729,-221.53 20.8544,-231.413 27.8508,-231.637"/>
<text text-anchor="middle" x="32.5" y="-245.4" font-family="Times Roman,serif" font-size="14.00">b</text>
</g>
<!-- q2&#45;&gt;q3 -->
<g id="edge16" class="edge"><title>q2&#45;&gt;q3</title>
<path fill="none" stroke="black" d="M48.6657,-276.824C44.8197,-263.719 39.5575,-245.789 35.1823,-230.88"/>
<polygon fill="black" stroke="black" points="38.4977,-229.748 32.3232,-221.138 31.781,-231.719 38.4977,-229.748"/>
<text text-anchor="middle" x="46.5" y="-245.4" font-family="Times Roman,serif" font-size="14.00">a</text>
</g>
<!-- q0&#45;&gt;q1 -->
<g id="edge30" class="edge"><title>q0&#45;&gt;q1</title>
<path fill="none" stroke="black" d="M46.9565,-37.2488C48.61,-43.164 50.1769,-49.7996 51,-56 52.0528,-63.9304 52.0528,-66.0696 51,-74 50.6142,-76.9065 50.0649,-79.9085 49.4199,-82.8872"/>
<polygon fill="black" stroke="black" points="45.9838,-82.2011 46.9565,-92.7512 52.7752,-83.8972 45.9838,-82.2011"/>
<text text-anchor="middle" x="55.5" y="-61.4" font-family="Times Roman,serif" font-size="14.00">b</text>
</g>
<!-- q0&#45;&gt;q0 -->
<g id="edge32" class="edge"><title>q0&#45;&gt;q0</title>
<path fill="none" stroke="black" d="M65.0743,-27.4544C76.2423,-28.3767 86,-25.5586 86,-19 86,-14.5934 81.5952,-11.8754 75.3174,-10.8458"/>
<polygon fill="black" stroke="black" points="75.1726,-7.34018 65.0743,-10.5456 74.9674,-14.3372 75.1726,-7.34018"/>
<text text-anchor="middle" x="90.5" y="-15.4" font-family="Times Roman,serif" font-size="14.00">a</text>
</g>
</g>
</svg>
