<?xml version="1.0" encoding="UTF-8" standalone="no"?>
<!DOCTYPE svg PUBLIC "-//W3C//DTD SVG 1.1//EN"
 "http://www.w3.org/Graphics/SVG/1.1/DTD/svg11.dtd">
<!-- Generated by graphviz version 2.26.3 (20100126.1600)
 -->
<!-- Title: G Pages: 1 -->
<svg width="206pt" height="506pt"
 viewBox="0.00 0.00 206.00 506.00" xmlns="http://www.w3.org/2000/svg" xmlns:xlink="http://www.w3.org/1999/xlink">
<g id="graph1" class="graph" transform="scale(1 1) rotate(0) translate(4 502)">
<title>G</title>
<polygon fill="white" stroke="white" points="-4,5 -4,-502 203,-502 203,5 -4,5"/>
<!-- q6 -->
<g id="node1" class="node"><title>q6</title>
<ellipse fill="none" stroke="black" cx="83" cy="-479" rx="27" ry="18.3848"/>
<text text-anchor="middle" x="83" y="-475.4" font-family="Times Roman,serif" font-size="14.00">q6</text>
</g>
<!-- q4 -->
<g id="node3" class="node"><title>q4</title>
<ellipse fill="none" stroke="black" cx="104" cy="-387" rx="27" ry="18.3848"/>
<text text-anchor="middle" x="104" y="-383.4" font-family="Times Roman,serif" font-size="14.00">q4</text>
</g>
<!-- q6&#45;&gt;q4 -->
<g id="edge2" class="edge"><title>q6&#45;&gt;q4</title>
<path fill="none" stroke="black" d="M88.2273,-460.618C89.8418,-454.695 91.5699,-448.089 93,-442 95.026,-433.373 97.0016,-423.93 98.7066,-415.341"/>
<polygon fill="black" stroke="black" points="102.167,-415.883 100.637,-405.399 95.295,-414.549 102.167,-415.883"/>
<text text-anchor="middle" x="100.5" y="-429.4" font-family="Times Roman,serif" font-size="14.00">b</text>
</g>
<!-- q3 -->
<g id="node5" class="node"><title>q3</title>
<ellipse fill="none" stroke="black" cx="27" cy="-295" rx="27" ry="18.3848"/>
<text text-anchor="middle" x="27" y="-291.4" font-family="Times Roman,serif" font-size="14.00">q3</text>
</g>
<!-- q6&#45;&gt;q3 -->
<g id="edge4" class="edge"><title>q6&#45;&gt;q3</title>
<path fill="none" stroke="black" d="M62.9382,-466.361C53.8582,-459.904 43.5045,-451.423 36,-442 24.977,-428.159 22.8716,-423.265 19,-406 12.7958,-378.332 16.3341,-345.908 20.4837,-323.273"/>
<polygon fill="black" stroke="black" points="23.9466,-323.804 22.4649,-313.313 17.0811,-322.438 23.9466,-323.804"/>
<text text-anchor="middle" x="23.5" y="-383.4" font-family="Times Roman,serif" font-size="14.00">a</text>
</g>
<!-- q4&#45;&gt;q6 -->
<g id="edge18" class="edge"><title>q4&#45;&gt;q6</title>
<path fill="none" stroke="black" d="M92.6263,-403.976C89.175,-410.034 85.818,-417.079 84,-424 81.8164,-432.313 81.0445,-441.579 80.9617,-450.1"/>
<polygon fill="black" stroke="black" points="77.4678,-450.441 81.1708,-460.367 84.4664,-450.298 77.4678,-450.441"/>
<text text-anchor="middle" x="88.5" y="-429.4" font-family="Times Roman,serif" font-size="14.00">b</text>
</g>
<!-- q4&#45;&gt;q3 -->
<g id="edge20" class="edge"><title>q4&#45;&gt;q3</title>
<path fill="none" stroke="black" d="M92.7487,-370.122C85.0684,-358.967 74.4313,-344.208 64,-332 59.7399,-327.014 54.9403,-321.899 50.2442,-317.122"/>
<polygon fill="black" stroke="black" points="52.6021,-314.531 43.0423,-309.964 47.6673,-319.496 52.6021,-314.531"/>
<text text-anchor="middle" x="81.5" y="-337.4" font-family="Times Roman,serif" font-size="14.00">a</text>
</g>
<!-- q3&#45;&gt;q6 -->
<g id="edge24" class="edge"><title>q3&#45;&gt;q6</title>
<path fill="none" stroke="black" d="M32.1144,-313.524C38.2648,-335.611 49.0109,-373.611 59,-406 63.6057,-420.934 69.0216,-437.485 73.5418,-451.047"/>
<polygon fill="black" stroke="black" points="70.3001,-452.389 76.7957,-460.759 76.9375,-450.166 70.3001,-452.389"/>
<text text-anchor="middle" x="63.5" y="-383.4" font-family="Times Roman,serif" font-size="14.00">a</text>
</g>
<!-- q2 -->
<g id="node8" class="node"><title>q2</title>
<ellipse fill="none" stroke="black" cx="90" cy="-203" rx="27" ry="18.3848"/>
<text text-anchor="middle" x="90" y="-199.4" font-family="Times Roman,serif" font-size="14.00">q2</text>
</g>
<!-- q3&#45;&gt;q2 -->
<g id="edge22" class="edge"><title>q3&#45;&gt;q2</title>
<path fill="none" stroke="black" d="M38.5552,-278.126C48.1463,-264.12 61.9281,-243.994 72.8136,-228.098"/>
<polygon fill="black" stroke="black" points="75.7558,-229.996 78.5181,-219.767 69.9802,-226.041 75.7558,-229.996"/>
<text text-anchor="middle" x="68.5" y="-245.4" font-family="Times Roman,serif" font-size="14.00">b</text>
</g>
<!-- q5 -->
<g id="node6" class="node"><title>q5</title>
<ellipse fill="none" stroke="black" cx="82" cy="-19" rx="27" ry="18.3848"/>
<text text-anchor="middle" x="82" y="-15.4" font-family="Times Roman,serif" font-size="14.00">q5</text>
</g>
<!-- q5&#45;&gt;q3 -->
<g id="edge8" class="edge"><title>q5&#45;&gt;q3</title>
<path fill="none" stroke="black" d="M78.322,-37.457C68.9268,-84.6035 43.9922,-209.73 32.6997,-266.398"/>
<polygon fill="black" stroke="black" points="29.216,-265.971 30.6941,-276.462 36.081,-267.339 29.216,-265.971"/>
<text text-anchor="middle" x="59.5" y="-153.4" font-family="Times Roman,serif" font-size="14.00">a</text>
</g>
<!-- q5&#45;&gt;q2 -->
<g id="edge6" class="edge"><title>q5&#45;&gt;q2</title>
<path fill="none" stroke="black" d="M82.8133,-37.7049C84.2103,-69.8374 87.0756,-135.739 88.7352,-173.91"/>
<polygon fill="black" stroke="black" points="85.2577,-174.506 89.1889,-184.345 92.2511,-174.202 85.2577,-174.506"/>
<text text-anchor="middle" x="90.5" y="-107.4" font-family="Times Roman,serif" font-size="14.00">b</text>
</g>
<!-- q2&#45;&gt;q2 -->
<g id="edge10" class="edge"><title>q2&#45;&gt;q2</title>
<path fill="none" stroke="black" d="M114.074,-211.454C125.242,-212.377 135,-209.559 135,-203 135,-198.593 130.595,-195.875 124.317,-194.846"/>
<polygon fill="black" stroke="black" points="124.173,-191.34 114.074,-194.546 123.967,-198.337 124.173,-191.34"/>
<text text-anchor="middle" x="139.5" y="-199.4" font-family="Times Roman,serif" font-size="14.00">b</text>
</g>
<!-- q1 -->
<g id="node12" class="node"><title>q1</title>
<ellipse fill="none" stroke="black" cx="136" cy="-111" rx="27" ry="18.3848"/>
<text text-anchor="middle" x="136" y="-107.4" font-family="Times Roman,serif" font-size="14.00">q1</text>
</g>
<!-- q2&#45;&gt;q1 -->
<g id="edge12" class="edge"><title>q2&#45;&gt;q1</title>
<path fill="none" stroke="black" d="M98.8693,-185.261C105.615,-171.77 115.008,-152.984 122.659,-137.683"/>
<polygon fill="black" stroke="black" points="125.816,-139.194 127.158,-128.684 119.555,-136.063 125.816,-139.194"/>
<text text-anchor="middle" x="121.5" y="-153.4" font-family="Times Roman,serif" font-size="14.00">a</text>
</g>
<!-- q1&#45;&gt;q6 -->
<g id="edge16" class="edge"><title>q1&#45;&gt;q6</title>
<path fill="none" stroke="black" d="M151.615,-126.393C167.249,-143.515 189,-172.77 189,-203 189,-387 189,-387 189,-387 189,-426.087 147.383,-452.311 116.303,-466.446"/>
<polygon fill="black" stroke="black" points="114.843,-463.264 107.053,-470.446 117.621,-469.689 114.843,-463.264"/>
<text text-anchor="middle" x="193.5" y="-291.4" font-family="Times Roman,serif" font-size="14.00">a</text>
</g>
<!-- q1&#45;&gt;q5 -->
<g id="edge14" class="edge"><title>q1&#45;&gt;q5</title>
<path fill="none" stroke="black" d="M125.843,-93.6955C117.773,-79.9459 106.359,-60.5012 97.2009,-44.8979"/>
<polygon fill="black" stroke="black" points="100.192,-43.0794 92.1114,-36.2269 94.155,-46.6228 100.192,-43.0794"/>
<text text-anchor="middle" x="117.5" y="-61.4" font-family="Times Roman,serif" font-size="14.00">b</text>
</g>
<!-- q0 -->
<g id="node19" class="node"><title>q0</title>
<ellipse fill="none" stroke="black" cx="99" cy="-295" rx="27" ry="18.3848"/>
<text text-anchor="middle" x="99" y="-291.4" font-family="Times Roman,serif" font-size="14.00">q0</text>
</g>
<!-- q0&#45;&gt;q2 -->
<g id="edge28" class="edge"><title>q0&#45;&gt;q2</title>
<path fill="none" stroke="black" d="M97.1787,-276.382C95.9222,-263.538 94.2277,-246.216 92.8005,-231.627"/>
<polygon fill="black" stroke="black" points="96.2757,-231.202 91.8186,-221.59 89.3089,-231.883 96.2757,-231.202"/>
<text text-anchor="middle" x="99.5" y="-245.4" font-family="Times Roman,serif" font-size="14.00">a</text>
</g>
<!-- q0&#45;&gt;q0 -->
<g id="edge26" class="edge"><title>q0&#45;&gt;q0</title>
<path fill="none" stroke="black" d="M123.074,-303.454C134.242,-304.377 144,-301.559 144,-295 144,-290.593 139.595,-287.875 133.317,-286.846"/>
<polygon fill="black" stroke="black" points="133.173,-283.34 123.074,-286.546 132.967,-290.337 133.173,-283.34"/>
<text text-anchor="middle" x="148.5" y="-291.4" font-family="Times Roman,serif" font-size="14.00">b</text>
</g>
</g>
</svg>
