<?xml version="1.0" encoding="UTF-8" standalone="no"?>
<!DOCTYPE svg PUBLIC "-//W3C//DTD SVG 1.1//EN"
 "http://www.w3.org/Graphics/SVG/1.1/DTD/svg11.dtd">
<!-- Generated by graphviz version 2.26.3 (20100126.1600)
 -->
<!-- Title: G Pages: 1 -->
<svg width="301pt" height="698pt"
 viewBox="0.00 0.00 301.00 698.00" xmlns="http://www.w3.org/2000/svg" xmlns:xlink="http://www.w3.org/1999/xlink">
<g id="graph1" class="graph" transform="scale(1 1) rotate(0) translate(4 694)">
<title>G</title>
<polygon fill="white" stroke="white" points="-4,5 -4,-694 298,-694 298,5 -4,5"/>
<!-- q0 -->
<g id="node1" class="node"><title>q0</title>
<ellipse fill="none" stroke="black" cx="140" cy="-671" rx="27" ry="18.3848"/>
<text text-anchor="middle" x="140" y="-667.4" font-family="Times Roman,serif" font-size="14.00">q0</text>
</g>
<!-- q3 -->
<g id="node3" class="node"><title>q3</title>
<ellipse fill="none" stroke="black" cx="140" cy="-579" rx="27" ry="18.3848"/>
<text text-anchor="middle" x="140" y="-575.4" font-family="Times Roman,serif" font-size="14.00">q3</text>
</g>
<!-- q0&#45;&gt;q3 -->
<g id="edge2" class="edge"><title>q0&#45;&gt;q3</title>
<path fill="none" stroke="black" d="M140,-652.382C140,-639.538 140,-622.216 140,-607.627"/>
<polygon fill="black" stroke="black" points="143.5,-607.59 140,-597.59 136.5,-607.59 143.5,-607.59"/>
<text text-anchor="middle" x="144.5" y="-621.4" font-family="Times Roman,serif" font-size="14.00">b</text>
</g>
<!-- q10 -->
<g id="node5" class="node"><title>q10</title>
<ellipse fill="none" stroke="black" cx="162" cy="-487" rx="29.9071" ry="18.3848"/>
<text text-anchor="middle" x="162" y="-483.4" font-family="Times Roman,serif" font-size="14.00">q10</text>
</g>
<!-- q0&#45;&gt;q10 -->
<g id="edge4" class="edge"><title>q0&#45;&gt;q10</title>
<path fill="none" stroke="black" d="M126.376,-654.869C115.493,-640.855 101.09,-619.486 95,-598 90.3942,-581.751 90.2635,-576.211 95,-560 101.286,-538.487 118.528,-519.963 133.946,-506.958"/>
<polygon fill="black" stroke="black" points="136.167,-509.663 141.774,-500.674 131.785,-504.204 136.167,-509.663"/>
<text text-anchor="middle" x="99.5" y="-575.4" font-family="Times Roman,serif" font-size="14.00">a</text>
</g>
<!-- q3&#45;&gt;q10 -->
<g id="edge10" class="edge"><title>q3&#45;&gt;q10</title>
<path fill="none" stroke="black" d="M129.569,-561.781C124.272,-550.748 119.925,-536.253 125,-524 127.316,-518.408 130.933,-513.221 135.016,-508.606"/>
<polygon fill="black" stroke="black" points="137.606,-510.966 142.182,-501.411 132.645,-506.027 137.606,-510.966"/>
<text text-anchor="middle" x="129.5" y="-529.4" font-family="Times Roman,serif" font-size="14.00">b</text>
</g>
<!-- q2 -->
<g id="node6" class="node"><title>q2</title>
<ellipse fill="none" stroke="black" cx="79" cy="-395" rx="27" ry="18.3848"/>
<text text-anchor="middle" x="79" y="-391.4" font-family="Times Roman,serif" font-size="14.00">q2</text>
</g>
<!-- q3&#45;&gt;q2 -->
<g id="edge12" class="edge"><title>q3&#45;&gt;q2</title>
<path fill="none" stroke="black" d="M128.674,-562.202C124.886,-556.042 120.896,-548.89 118,-542 101.344,-502.371 90.0999,-453.694 84.1205,-423.505"/>
<polygon fill="black" stroke="black" points="87.5496,-422.802 82.2248,-413.643 80.6754,-424.124 87.5496,-422.802"/>
<text text-anchor="middle" x="108.5" y="-483.4" font-family="Times Roman,serif" font-size="14.00">a</text>
</g>
<!-- q10&#45;&gt;q3 -->
<g id="edge34" class="edge"><title>q10&#45;&gt;q3</title>
<path fill="none" stroke="black" d="M157.555,-505.59C154.485,-518.428 150.343,-535.748 146.853,-550.342"/>
<polygon fill="black" stroke="black" points="143.374,-549.843 144.452,-560.382 150.182,-551.471 143.374,-549.843"/>
<text text-anchor="middle" x="156.5" y="-529.4" font-family="Times Roman,serif" font-size="14.00">b</text>
</g>
<!-- q10&#45;&gt;q3 -->
<g id="edge38" class="edge"><title>q10&#45;&gt;q3</title>
<path fill="none" stroke="black" d="M166.149,-505.469C167.821,-516.331 168.611,-530.204 165,-542 163.723,-546.17 161.801,-550.293 159.578,-554.19"/>
<polygon fill="black" stroke="black" points="156.509,-552.489 154.008,-562.784 162.383,-556.296 156.509,-552.489"/>
<text text-anchor="middle" x="171.5" y="-529.4" font-family="Times Roman,serif" font-size="14.00">b</text>
</g>
<!-- q10&#45;&gt;q10 -->
<g id="edge40" class="edge"><title>q10&#45;&gt;q10</title>
<path fill="none" stroke="black" d="M188.655,-495.522C200.154,-496.22 210,-493.379 210,-487 210,-482.615 205.346,-479.901 198.701,-478.861"/>
<polygon fill="black" stroke="black" points="198.781,-475.361 188.655,-478.478 198.514,-482.356 198.781,-475.361"/>
<text text-anchor="middle" x="214.5" y="-483.4" font-family="Times Roman,serif" font-size="14.00">a</text>
</g>
<!-- q10&#45;&gt;q2 -->
<g id="edge44" class="edge"><title>q10&#45;&gt;q2</title>
<path fill="none" stroke="black" d="M140.562,-473.427C131.424,-467.011 121.04,-458.826 113,-450 105.266,-441.51 98.2833,-431.022 92.6869,-421.489"/>
<polygon fill="black" stroke="black" points="95.7185,-419.739 87.7667,-412.738 89.6168,-423.17 95.7185,-419.739"/>
<text text-anchor="middle" x="117.5" y="-437.4" font-family="Times Roman,serif" font-size="14.00">a</text>
</g>
<!-- q9 -->
<g id="node10" class="node"><title>q9</title>
<ellipse fill="none" stroke="black" cx="90" cy="-111" rx="27" ry="18.3848"/>
<text text-anchor="middle" x="90" y="-107.4" font-family="Times Roman,serif" font-size="14.00">q9</text>
</g>
<!-- q10&#45;&gt;q9 -->
<g id="edge42" class="edge"><title>q10&#45;&gt;q9</title>
<path fill="none" stroke="black" d="M153.773,-469.094C146.156,-450.855 136,-421.556 136,-395 136,-395 136,-395 136,-203 136,-177.986 122.227,-152.801 109.754,-135.121"/>
<polygon fill="black" stroke="black" points="112.564,-133.034 103.802,-127.079 106.938,-137.199 112.564,-133.034"/>
<text text-anchor="middle" x="140.5" y="-295.4" font-family="Times Roman,serif" font-size="14.00">b</text>
</g>
<!-- q6 -->
<g id="node19" class="node"><title>q6</title>
<ellipse fill="none" stroke="black" cx="191" cy="-395" rx="27" ry="18.3848"/>
<text text-anchor="middle" x="191" y="-391.4" font-family="Times Roman,serif" font-size="14.00">q6</text>
</g>
<!-- q10&#45;&gt;q6 -->
<g id="edge36" class="edge"><title>q10&#45;&gt;q6</title>
<path fill="none" stroke="black" d="M162.995,-468.262C163.994,-457.433 165.994,-443.683 170,-432 171.247,-428.363 172.856,-424.674 174.627,-421.106"/>
<polygon fill="black" stroke="black" points="177.845,-422.516 179.559,-412.06 171.699,-419.165 177.845,-422.516"/>
<text text-anchor="middle" x="174.5" y="-437.4" font-family="Times Roman,serif" font-size="14.00">a</text>
</g>
<!-- q4 -->
<g id="node8" class="node"><title>q4</title>
<ellipse fill="none" stroke="black" cx="31" cy="-299" rx="27" ry="18.3848"/>
<ellipse fill="none" stroke="black" cx="31" cy="-299" rx="31" ry="22.3848"/>
<text text-anchor="middle" x="31" y="-295.4" font-family="Times Roman,serif" font-size="14.00">q4</text>
</g>
<!-- q2&#45;&gt;q4 -->
<g id="edge6" class="edge"><title>q2&#45;&gt;q4</title>
<path fill="none" stroke="black" d="M57.6122,-382.981C48.6793,-376.76 39.1882,-368.297 34,-358 29.9864,-350.034 28.3536,-340.672 27.9472,-331.78"/>
<polygon fill="black" stroke="black" points="31.4472,-331.677 27.9642,-321.671 24.4472,-331.665 31.4472,-331.677"/>
<text text-anchor="middle" x="38.5" y="-345.4" font-family="Times Roman,serif" font-size="14.00">b</text>
</g>
<!-- q2&#45;&gt;q9 -->
<g id="edge8" class="edge"><title>q2&#45;&gt;q9</title>
<path fill="none" stroke="black" d="M79.7217,-376.366C81.5942,-328.023 86.6186,-198.302 88.8753,-140.037"/>
<polygon fill="black" stroke="black" points="92.3859,-139.831 89.2756,-129.703 85.3911,-139.56 92.3859,-139.831"/>
<text text-anchor="middle" x="89.5" y="-245.4" font-family="Times Roman,serif" font-size="14.00">a</text>
</g>
<!-- q4&#45;&gt;q2 -->
<g id="edge16" class="edge"><title>q4&#45;&gt;q2</title>
<path fill="none" stroke="black" d="M41.5914,-320.183C48.6334,-334.267 57.9433,-352.887 65.5137,-368.027"/>
<polygon fill="black" stroke="black" points="62.5934,-370.013 70.1961,-377.392 68.8544,-366.883 62.5934,-370.013"/>
<text text-anchor="middle" x="64.5" y="-345.4" font-family="Times Roman,serif" font-size="14.00">a</text>
</g>
<!-- q8 -->
<g id="node14" class="node"><title>q8</title>
<ellipse fill="none" stroke="black" cx="32" cy="-203" rx="27" ry="18.3848"/>
<text text-anchor="middle" x="32" y="-199.4" font-family="Times Roman,serif" font-size="14.00">q8</text>
</g>
<!-- q4&#45;&gt;q8 -->
<g id="edge14" class="edge"><title>q4&#45;&gt;q8</title>
<path fill="none" stroke="black" d="M31.237,-276.249C31.3751,-262.994 31.5505,-246.148 31.6984,-231.954"/>
<polygon fill="black" stroke="black" points="35.2006,-231.756 31.805,-221.72 28.2009,-231.683 35.2006,-231.756"/>
<text text-anchor="middle" x="36.5" y="-245.4" font-family="Times Roman,serif" font-size="14.00">b</text>
</g>
<!-- q9&#45;&gt;q10 -->
<g id="edge30" class="edge"><title>q9&#45;&gt;q10</title>
<path fill="none" stroke="black" d="M116.817,-114.454C161.42,-121.865 246,-143.731 246,-203 246,-395 246,-395 246,-395 246,-427.361 217.305,-453.322 193.458,-469.309"/>
<polygon fill="black" stroke="black" points="191.497,-466.409 184.953,-474.741 195.265,-472.308 191.497,-466.409"/>
<text text-anchor="middle" x="250.5" y="-295.4" font-family="Times Roman,serif" font-size="14.00">b</text>
</g>
<!-- q5 -->
<g id="node16" class="node"><title>q5</title>
<ellipse fill="none" stroke="black" cx="55" cy="-19" rx="27" ry="18.3848"/>
<text text-anchor="middle" x="55" y="-15.4" font-family="Times Roman,serif" font-size="14.00">q5</text>
</g>
<!-- q9&#45;&gt;q5 -->
<g id="edge32" class="edge"><title>q9&#45;&gt;q5</title>
<path fill="none" stroke="black" d="M83.0851,-92.8238C78.0996,-79.7191 71.2782,-61.7885 65.6066,-46.8803"/>
<polygon fill="black" stroke="black" points="68.7276,-45.2404 61.9005,-37.1385 62.185,-47.7295 68.7276,-45.2404"/>
<text text-anchor="middle" x="80.5" y="-61.4" font-family="Times Roman,serif" font-size="14.00">a</text>
</g>
<!-- q8&#45;&gt;q9 -->
<g id="edge28" class="edge"><title>q8&#45;&gt;q9</title>
<path fill="none" stroke="black" d="M42.9094,-185.696C51.5776,-171.946 63.8362,-152.501 73.6731,-136.898"/>
<polygon fill="black" stroke="black" points="76.7673,-138.553 79.1396,-128.227 70.8458,-134.82 76.7673,-138.553"/>
<text text-anchor="middle" x="71.5" y="-153.4" font-family="Times Roman,serif" font-size="14.00">a</text>
</g>
<!-- q8&#45;&gt;q5 -->
<g id="edge26" class="edge"><title>q8&#45;&gt;q5</title>
<path fill="none" stroke="black" d="M28.9385,-184.369C25.8402,-162.178 22.2577,-124.079 28,-92 30.8165,-76.266 36.7948,-59.4865 42.4117,-45.9868"/>
<polygon fill="black" stroke="black" points="45.6284,-47.3662 46.3874,-36.7985 39.204,-44.5863 45.6284,-47.3662"/>
<text text-anchor="middle" x="32.5" y="-107.4" font-family="Times Roman,serif" font-size="14.00">b</text>
</g>
<!-- q5&#45;&gt;q10 -->
<g id="edge20" class="edge"><title>q5&#45;&gt;q10</title>
<path fill="none" stroke="black" d="M81.2692,-23.7772C141.42,-35.4628 284,-67.7262 284,-111 284,-395 284,-395 284,-395 284,-437.919 235.272,-463.335 199.407,-476.229"/>
<polygon fill="black" stroke="black" points="198.023,-473.003 189.684,-479.538 200.278,-479.63 198.023,-473.003"/>
<text text-anchor="middle" x="288.5" y="-245.4" font-family="Times Roman,serif" font-size="14.00">a</text>
</g>
<!-- q5&#45;&gt;q8 -->
<g id="edge18" class="edge"><title>q5&#45;&gt;q8</title>
<path fill="none" stroke="black" d="M52.3514,-37.5893C50.2753,-52.3343 47.3537,-73.4726 45,-92 41.4487,-119.954 37.7427,-151.916 35.2006,-174.341"/>
<polygon fill="black" stroke="black" points="31.695,-174.195 34.0519,-184.525 38.6509,-174.98 31.695,-174.195"/>
<text text-anchor="middle" x="49.5" y="-107.4" font-family="Times Roman,serif" font-size="14.00">b</text>
</g>
<!-- q6&#45;&gt;q0 -->
<g id="edge22" class="edge"><title>q6&#45;&gt;q0</title>
<path fill="none" stroke="black" d="M202.409,-411.807C211.353,-426.058 223.08,-447.409 228,-468 231.925,-484.426 232.096,-489.615 228,-506 214.599,-559.606 180.12,-614.865 158.513,-645.885"/>
<polygon fill="black" stroke="black" points="155.45,-644.155 152.524,-654.337 161.161,-648.202 155.45,-644.155"/>
<text text-anchor="middle" x="226.5" y="-529.4" font-family="Times Roman,serif" font-size="14.00">b</text>
</g>
<!-- q6&#45;&gt;q10 -->
<g id="edge24" class="edge"><title>q6&#45;&gt;q10</title>
<path fill="none" stroke="black" d="M187.976,-413.602C185.968,-424.386 182.968,-438.136 179,-450 177.89,-453.319 176.574,-456.737 175.173,-460.093"/>
<polygon fill="black" stroke="black" points="171.966,-458.69 171.099,-469.249 178.362,-461.536 171.966,-458.69"/>
<text text-anchor="middle" x="188.5" y="-437.4" font-family="Times Roman,serif" font-size="14.00">a</text>
</g>
</g>
</svg>
