<?xml version="1.0" encoding="UTF-8" standalone="no"?>
<!DOCTYPE svg PUBLIC "-//W3C//DTD SVG 1.1//EN"
 "http://www.w3.org/Graphics/SVG/1.1/DTD/svg11.dtd">
<!-- Generated by graphviz version 2.26.3 (20100126.1600)
 -->
<!-- Title: G Pages: 1 -->
<svg width="172pt" height="510pt"
 viewBox="0.00 0.00 172.00 510.00" xmlns="http://www.w3.org/2000/svg" xmlns:xlink="http://www.w3.org/1999/xlink">
<g id="graph1" class="graph" transform="scale(1 1) rotate(0) translate(4 506)">
<title>G</title>
<polygon fill="white" stroke="white" points="-4,5 -4,-506 169,-506 169,5 -4,5"/>
<!-- q6 -->
<g id="node1" class="node"><title>q6</title>
<ellipse fill="none" stroke="black" cx="110" cy="-484" rx="27" ry="18"/>
<text text-anchor="middle" x="110" y="-479.9" font-family="Times Roman,serif" font-size="14.00">q6</text>
</g>
<!-- q6&#45;&gt;q6 -->
<g id="edge2" class="edge"><title>q6&#45;&gt;q6</title>
<path fill="none" stroke="black" d="M134.532,-492.121C145.508,-492.895 155,-490.188 155,-484 155,-479.843 150.715,-477.257 144.574,-476.242"/>
<polygon fill="black" stroke="black" points="144.652,-472.742 134.532,-475.879 144.4,-479.738 144.652,-472.742"/>
<text text-anchor="middle" x="159.5" y="-479.9" font-family="Times Roman,serif" font-size="14.00">b</text>
</g>
<!-- q4 -->
<g id="node4" class="node"><title>q4</title>
<ellipse fill="none" stroke="black" cx="110" cy="-394" rx="27" ry="18"/>
<text text-anchor="middle" x="110" y="-389.9" font-family="Times Roman,serif" font-size="14.00">q4</text>
</g>
<!-- q6&#45;&gt;q4 -->
<g id="edge4" class="edge"><title>q6&#45;&gt;q4</title>
<path fill="none" stroke="black" d="M110,-465.787C110,-453.344 110,-436.605 110,-422.421"/>
<polygon fill="black" stroke="black" points="113.5,-422.186 110,-412.186 106.5,-422.186 113.5,-422.186"/>
<text text-anchor="middle" x="114.5" y="-434.9" font-family="Times Roman,serif" font-size="14.00">a</text>
</g>
<!-- q3 -->
<g id="node9" class="node"><title>q3</title>
<ellipse fill="none" stroke="black" cx="66" cy="-300" rx="27" ry="18"/>
<ellipse fill="none" stroke="black" cx="66" cy="-300" rx="31" ry="22"/>
<text text-anchor="middle" x="66" y="-295.9" font-family="Times Roman,serif" font-size="14.00">q3</text>
</g>
<!-- q4&#45;&gt;q3 -->
<g id="edge20" class="edge"><title>q4&#45;&gt;q3</title>
<path fill="none" stroke="black" d="M101.93,-376.759C95.8483,-363.767 87.3545,-345.621 80.1521,-330.234"/>
<polygon fill="black" stroke="black" points="83.277,-328.654 75.8676,-321.081 76.9371,-331.622 83.277,-328.654"/>
<text text-anchor="middle" x="95.5" y="-344.9" font-family="Times Roman,serif" font-size="14.00">a</text>
</g>
<!-- q2 -->
<g id="node10" class="node"><title>q2</title>
<ellipse fill="none" stroke="black" cx="103" cy="-206" rx="27" ry="18"/>
<text text-anchor="middle" x="103" y="-201.9" font-family="Times Roman,serif" font-size="14.00">q2</text>
</g>
<!-- q4&#45;&gt;q2 -->
<g id="edge18" class="edge"><title>q4&#45;&gt;q2</title>
<path fill="none" stroke="black" d="M109.854,-375.737C109.551,-347.182 108.642,-290.236 106,-242 105.867,-239.569 105.705,-237.048 105.527,-234.52"/>
<polygon fill="black" stroke="black" points="108.996,-233.997 104.728,-224.3 102.018,-234.543 108.996,-233.997"/>
<text text-anchor="middle" x="112.5" y="-295.9" font-family="Times Roman,serif" font-size="14.00">b</text>
</g>
<!-- q5 -->
<g id="node5" class="node"><title>q5</title>
<ellipse fill="none" stroke="black" cx="58" cy="-116" rx="27" ry="18"/>
<text text-anchor="middle" x="58" y="-111.9" font-family="Times Roman,serif" font-size="14.00">q5</text>
</g>
<!-- q1 -->
<g id="node7" class="node"><title>q1</title>
<ellipse fill="none" stroke="black" cx="31" cy="-22" rx="27" ry="18"/>
<ellipse fill="none" stroke="black" cx="31" cy="-22" rx="31" ry="22"/>
<text text-anchor="middle" x="31" y="-17.9" font-family="Times Roman,serif" font-size="14.00">q1</text>
</g>
<!-- q5&#45;&gt;q1 -->
<g id="edge6" class="edge"><title>q5&#45;&gt;q1</title>
<path fill="none" stroke="black" d="M52.9215,-98.3193C49.2973,-85.7017 44.3249,-68.3903 40.0319,-53.4444"/>
<polygon fill="black" stroke="black" points="43.3181,-52.2069 37.1933,-43.5618 36.5901,-54.1395 43.3181,-52.2069"/>
<text text-anchor="middle" x="50.5" y="-66.9" font-family="Times Roman,serif" font-size="14.00">b</text>
</g>
<!-- q5&#45;&gt;q3 -->
<g id="edge8" class="edge"><title>q5&#45;&gt;q3</title>
<path fill="none" stroke="black" d="M57.4147,-134.36C56.8649,-155.862 56.3489,-192.543 58,-224 58.7517,-238.322 60.2951,-254.101 61.8275,-267.552"/>
<polygon fill="black" stroke="black" points="58.3856,-268.249 63.0388,-277.768 65.3369,-267.425 58.3856,-268.249"/>
<text text-anchor="middle" x="62.5" y="-201.9" font-family="Times Roman,serif" font-size="14.00">a</text>
</g>
<!-- q1&#45;&gt;q5 -->
<g id="edge14" class="edge"><title>q1&#45;&gt;q5</title>
<path fill="none" stroke="black" d="M28.3149,-44.0068C27.7245,-55.0728 28.1828,-68.5336 32,-80 33.3972,-84.1969 35.474,-88.3209 37.8558,-92.1938"/>
<polygon fill="black" stroke="black" points="35.1949,-94.4965 43.7901,-100.691 40.9339,-90.4886 35.1949,-94.4965"/>
<text text-anchor="middle" x="36.5" y="-66.9" font-family="Times Roman,serif" font-size="14.00">b</text>
</g>
<!-- q1&#45;&gt;q3 -->
<g id="edge16" class="edge"><title>q1&#45;&gt;q3</title>
<path fill="none" stroke="black" d="M26.6816,-43.9389C25.6618,-49.7877 24.6758,-56.1167 24,-62 22.1712,-77.92 22.4446,-81.9815 22,-98 21.5561,-113.994 19.9564,-118.131 22,-134 29.3939,-191.415 39.9916,-204.091 55,-260 55.7107,-262.648 56.4533,-265.392 57.2025,-268.146"/>
<polygon fill="black" stroke="black" points="53.8852,-269.285 59.8999,-278.007 60.6371,-267.437 53.8852,-269.285"/>
<text text-anchor="middle" x="32.5" y="-156.9" font-family="Times Roman,serif" font-size="14.00">a</text>
</g>
<!-- q3&#45;&gt;q2 -->
<g id="edge22" class="edge"><title>q3&#45;&gt;q2</title>
<path fill="none" stroke="black" d="M68.4405,-277.885C70.1915,-266.791 73.1324,-253.339 78,-242 79.6885,-238.067 81.8419,-234.124 84.1745,-230.366"/>
<polygon fill="black" stroke="black" points="87.1126,-232.269 89.8078,-222.023 81.3112,-228.352 87.1126,-232.269"/>
<text text-anchor="middle" x="82.5" y="-246.9" font-family="Times Roman,serif" font-size="14.00">b</text>
</g>
<!-- q3&#45;&gt;q2 -->
<g id="edge24" class="edge"><title>q3&#45;&gt;q2</title>
<path fill="none" stroke="black" d="M77.6881,-279.605C80.96,-273.426 84.344,-266.54 87,-260 90.4002,-251.627 93.4307,-242.262 95.9152,-233.712"/>
<polygon fill="black" stroke="black" points="99.3619,-234.38 98.6633,-223.808 92.6168,-232.508 99.3619,-234.38"/>
<text text-anchor="middle" x="97.5" y="-246.9" font-family="Times Roman,serif" font-size="14.00">a</text>
</g>
<!-- q2&#45;&gt;q5 -->
<g id="edge12" class="edge"><title>q2&#45;&gt;q5</title>
<path fill="none" stroke="black" d="M94.3235,-188.647C87.7869,-175.574 78.7089,-157.418 71.2635,-142.527"/>
<polygon fill="black" stroke="black" points="74.2525,-140.679 66.6498,-133.3 67.9915,-143.809 74.2525,-140.679"/>
<text text-anchor="middle" x="88.5" y="-156.9" font-family="Times Roman,serif" font-size="14.00">a</text>
</g>
<!-- q2&#45;&gt;q2 -->
<g id="edge10" class="edge"><title>q2&#45;&gt;q2</title>
<path fill="none" stroke="black" d="M127.532,-214.121C138.508,-214.895 148,-212.188 148,-206 148,-201.843 143.715,-199.257 137.574,-198.242"/>
<polygon fill="black" stroke="black" points="137.652,-194.742 127.532,-197.879 137.4,-201.738 137.652,-194.742"/>
<text text-anchor="middle" x="152.5" y="-201.9" font-family="Times Roman,serif" font-size="14.00">b</text>
</g>
</g>
</svg>
