<?xml version="1.0" encoding="UTF-8" standalone="no"?>
<!DOCTYPE svg PUBLIC "-//W3C//DTD SVG 1.1//EN"
 "http://www.w3.org/Graphics/SVG/1.1/DTD/svg11.dtd">
<!-- Generated by graphviz version 2.26.3 (20100126.1600)
 -->
<!-- Title: G Pages: 1 -->
<svg width="347pt" height="422pt"
 viewBox="0.00 0.00 347.00 422.00" xmlns="http://www.w3.org/2000/svg" xmlns:xlink="http://www.w3.org/1999/xlink">
<g id="graph1" class="graph" transform="scale(1 1) rotate(0) translate(4 418)">
<title>G</title>
<polygon fill="white" stroke="white" points="-4,5 -4,-418 344,-418 344,5 -4,5"/>
<!-- q0 -->
<g id="node1" class="node"><title>q0</title>
<ellipse fill="none" stroke="black" cx="208" cy="-395" rx="27" ry="18.3848"/>
<text text-anchor="middle" x="208" y="-391.4" font-family="Times Roman,serif" font-size="14.00">q0</text>
</g>
<!-- q0&#45;&gt;q0 -->
<g id="edge2" class="edge"><title>q0&#45;&gt;q0</title>
<path fill="none" stroke="black" d="M232.074,-403.454C243.242,-404.377 253,-401.559 253,-395 253,-390.593 248.595,-387.875 242.317,-386.846"/>
<polygon fill="black" stroke="black" points="242.173,-383.34 232.074,-386.546 241.967,-390.337 242.173,-383.34"/>
<text text-anchor="middle" x="257.5" y="-391.4" font-family="Times Roman,serif" font-size="14.00">b</text>
</g>
<!-- q8 -->
<g id="node4" class="node"><title>q8</title>
<ellipse fill="none" stroke="black" cx="254" cy="-299" rx="27" ry="18.3848"/>
<ellipse fill="none" stroke="black" cx="254" cy="-299" rx="31" ry="22.3848"/>
<text text-anchor="middle" x="254" y="-295.4" font-family="Times Roman,serif" font-size="14.00">q8</text>
</g>
<!-- q0&#45;&gt;q8 -->
<g id="edge4" class="edge"><title>q0&#45;&gt;q8</title>
<path fill="none" stroke="black" d="M212.594,-376.659C215.677,-365.716 220.228,-351.717 226,-340 228.126,-335.684 230.656,-331.302 233.312,-327.086"/>
<polygon fill="black" stroke="black" points="236.236,-329.01 238.855,-318.744 230.406,-325.137 236.236,-329.01"/>
<text text-anchor="middle" x="230.5" y="-345.4" font-family="Times Roman,serif" font-size="14.00">a</text>
</g>
<!-- q8&#45;&gt;q0 -->
<g id="edge30" class="edge"><title>q8&#45;&gt;q0</title>
<path fill="none" stroke="black" d="M248.651,-321.237C245.476,-332.581 240.908,-346.397 235,-358 232.872,-362.179 230.292,-366.396 227.581,-370.411"/>
<polygon fill="black" stroke="black" points="224.555,-368.625 221.561,-378.788 230.239,-372.71 224.555,-368.625"/>
<text text-anchor="middle" x="246.5" y="-345.4" font-family="Times Roman,serif" font-size="14.00">b</text>
</g>
<!-- q8&#45;&gt;q8 -->
<g id="edge22" class="edge"><title>q8&#45;&gt;q8</title>
<path fill="none" stroke="black" d="M284.625,-303.688C294.833,-303.688 303,-302.125 303,-299 303,-297.047 299.81,-295.704 294.925,-294.972"/>
<polygon fill="black" stroke="black" points="294.828,-291.458 284.625,-294.312 294.381,-298.444 294.828,-291.458"/>
<text text-anchor="middle" x="307.5" y="-295.4" font-family="Times Roman,serif" font-size="14.00">b</text>
</g>
<!-- q8&#45;&gt;q8 -->
<g id="edge24" class="edge"><title>q8&#45;&gt;q8</title>
<path fill="none" stroke="black" d="M277.347,-313.951C298.424,-321.224 321,-316.24 321,-299 321,-284.454 304.928,-278.633 287.245,-281.538"/>
<polygon fill="black" stroke="black" points="286.179,-278.197 277.347,-284.049 287.901,-284.982 286.179,-278.197"/>
<text text-anchor="middle" x="325.5" y="-295.4" font-family="Times Roman,serif" font-size="14.00">a</text>
</g>
<!-- q7 -->
<g id="node15" class="node"><title>q7</title>
<ellipse fill="none" stroke="black" cx="247" cy="-203" rx="27" ry="18.3848"/>
<text text-anchor="middle" x="247" y="-199.4" font-family="Times Roman,serif" font-size="14.00">q7</text>
</g>
<!-- q8&#45;&gt;q7 -->
<g id="edge32" class="edge"><title>q8&#45;&gt;q7</title>
<path fill="none" stroke="black" d="M252.341,-276.249C251.375,-262.994 250.146,-246.148 249.111,-231.954"/>
<polygon fill="black" stroke="black" points="252.583,-231.439 248.365,-221.72 245.602,-231.948 252.583,-231.439"/>
<text text-anchor="middle" x="254.5" y="-245.4" font-family="Times Roman,serif" font-size="14.00">a</text>
</g>
<!-- q3 -->
<g id="node5" class="node"><title>q3</title>
<ellipse fill="none" stroke="black" cx="81" cy="-299" rx="27" ry="18.3848"/>
<text text-anchor="middle" x="81" y="-295.4" font-family="Times Roman,serif" font-size="14.00">q3</text>
</g>
<!-- q9 -->
<g id="node7" class="node"><title>q9</title>
<ellipse fill="none" stroke="black" cx="192" cy="-111" rx="27" ry="18.3848"/>
<text text-anchor="middle" x="192" y="-107.4" font-family="Times Roman,serif" font-size="14.00">q9</text>
</g>
<!-- q3&#45;&gt;q9 -->
<g id="edge6" class="edge"><title>q3&#45;&gt;q9</title>
<path fill="none" stroke="black" d="M84.5995,-280.563C91.2465,-250.286 107.803,-189.278 140,-148 146.005,-140.301 154.038,-133.518 161.991,-127.933"/>
<polygon fill="black" stroke="black" points="164.049,-130.768 170.489,-122.356 160.208,-124.916 164.049,-130.768"/>
<text text-anchor="middle" x="120.5" y="-199.4" font-family="Times Roman,serif" font-size="14.00">b</text>
</g>
<!-- q6 -->
<g id="node9" class="node"><title>q6</title>
<ellipse fill="none" stroke="black" cx="27" cy="-203" rx="27" ry="18.3848"/>
<text text-anchor="middle" x="27" y="-199.4" font-family="Times Roman,serif" font-size="14.00">q6</text>
</g>
<!-- q3&#45;&gt;q6 -->
<g id="edge8" class="edge"><title>q3&#45;&gt;q6</title>
<path fill="none" stroke="black" d="M71.0956,-281.392C62.9507,-266.912 51.2801,-246.165 41.991,-229.651"/>
<polygon fill="black" stroke="black" points="44.7948,-227.496 36.8416,-220.496 38.6938,-230.928 44.7948,-227.496"/>
<text text-anchor="middle" x="62.5" y="-245.4" font-family="Times Roman,serif" font-size="14.00">a</text>
</g>
<!-- q9&#45;&gt;q0 -->
<g id="edge26" class="edge"><title>q9&#45;&gt;q0</title>
<path fill="none" stroke="black" d="M184.726,-128.891C174.361,-156.355 157.008,-210.699 161,-258 164.791,-302.922 159.418,-316.926 178,-358 180.16,-362.775 183.089,-367.453 186.275,-371.79"/>
<polygon fill="black" stroke="black" points="183.591,-374.038 192.58,-379.645 189.049,-369.656 183.591,-374.038"/>
<text text-anchor="middle" x="165.5" y="-245.4" font-family="Times Roman,serif" font-size="14.00">b</text>
</g>
<!-- q9&#45;&gt;q0 -->
<g id="edge34" class="edge"><title>q9&#45;&gt;q0</title>
<path fill="none" stroke="black" d="M193.054,-129.703C195.782,-178.123 203.09,-307.848 206.369,-366.046"/>
<polygon fill="black" stroke="black" points="202.893,-366.579 206.95,-376.366 209.882,-366.185 202.893,-366.579"/>
<text text-anchor="middle" x="204.5" y="-245.4" font-family="Times Roman,serif" font-size="14.00">b</text>
</g>
<!-- q4 -->
<g id="node10" class="node"><title>q4</title>
<ellipse fill="none" stroke="black" cx="224" cy="-19" rx="27" ry="18.3848"/>
<text text-anchor="middle" x="224" y="-15.4" font-family="Times Roman,serif" font-size="14.00">q4</text>
</g>
<!-- q9&#45;&gt;q4 -->
<g id="edge36" class="edge"><title>q9&#45;&gt;q4</title>
<path fill="none" stroke="black" d="M198.322,-92.8238C202.88,-79.7191 209.117,-61.7885 214.303,-46.8803"/>
<polygon fill="black" stroke="black" points="217.711,-47.7333 217.691,-37.1385 211.1,-45.4336 217.711,-47.7333"/>
<text text-anchor="middle" x="214.5" y="-61.4" font-family="Times Roman,serif" font-size="14.00">a</text>
</g>
<!-- q9&#45;&gt;q7 -->
<g id="edge28" class="edge"><title>q9&#45;&gt;q7</title>
<path fill="none" stroke="black" d="M202.299,-128.227C210.506,-141.955 222.128,-161.396 231.465,-177.014"/>
<polygon fill="black" stroke="black" points="228.52,-178.908 236.655,-185.696 234.528,-175.316 228.52,-178.908"/>
<text text-anchor="middle" x="228.5" y="-153.4" font-family="Times Roman,serif" font-size="14.00">a</text>
</g>
<!-- q6&#45;&gt;q9 -->
<g id="edge16" class="edge"><title>q6&#45;&gt;q9</title>
<path fill="none" stroke="black" d="M42.6796,-187.6C55.5991,-175.564 74.8479,-159.072 94,-148 113.843,-136.528 137.9,-127.384 157.213,-121.056"/>
<polygon fill="black" stroke="black" points="158.358,-124.365 166.833,-118.007 156.242,-117.692 158.358,-124.365"/>
<text text-anchor="middle" x="99.5" y="-153.4" font-family="Times Roman,serif" font-size="14.00">a</text>
</g>
<!-- q6&#45;&gt;q6 -->
<g id="edge14" class="edge"><title>q6&#45;&gt;q6</title>
<path fill="none" stroke="black" d="M51.0743,-211.454C62.2423,-212.377 72,-209.559 72,-203 72,-198.593 67.5952,-195.875 61.3174,-194.846"/>
<polygon fill="black" stroke="black" points="61.1726,-191.34 51.0743,-194.546 60.9674,-198.337 61.1726,-191.34"/>
<text text-anchor="middle" x="76.5" y="-199.4" font-family="Times Roman,serif" font-size="14.00">b</text>
</g>
<!-- q4&#45;&gt;q8 -->
<g id="edge10" class="edge"><title>q4&#45;&gt;q8</title>
<path fill="none" stroke="black" d="M236.243,-35.7115C256.364,-64.3304 295.627,-125.328 310,-184 314.018,-200.404 315.223,-205.939 310,-222 303.847,-240.922 291.099,-259.074 279.318,-272.997"/>
<polygon fill="black" stroke="black" points="276.534,-270.862 272.551,-280.679 281.787,-275.489 276.534,-270.862"/>
<text text-anchor="middle" x="308.5" y="-153.4" font-family="Times Roman,serif" font-size="14.00">b</text>
</g>
<!-- q4&#45;&gt;q9 -->
<g id="edge12" class="edge"><title>q4&#45;&gt;q9</title>
<path fill="none" stroke="black" d="M207.42,-34.0083C201.741,-40.1994 196.052,-47.8365 193,-56 189.933,-64.2039 188.935,-73.5885 188.917,-82.2549"/>
<polygon fill="black" stroke="black" points="185.423,-82.4856 189.309,-92.3423 192.418,-82.214 185.423,-82.4856"/>
<text text-anchor="middle" x="197.5" y="-61.4" font-family="Times Roman,serif" font-size="14.00">a</text>
</g>
<!-- q7&#45;&gt;q9 -->
<g id="edge18" class="edge"><title>q7&#45;&gt;q9</title>
<path fill="none" stroke="black" d="M245.9,-184.333C244.544,-173.142 241.555,-158.997 235,-148 231.117,-141.486 225.68,-135.543 219.975,-130.417"/>
<polygon fill="black" stroke="black" points="222.089,-127.625 212.149,-123.957 217.633,-133.023 222.089,-127.625"/>
<text text-anchor="middle" x="246.5" y="-153.4" font-family="Times Roman,serif" font-size="14.00">b</text>
</g>
<!-- q7&#45;&gt;q7 -->
<g id="edge20" class="edge"><title>q7&#45;&gt;q7</title>
<path fill="none" stroke="black" d="M271.074,-211.454C282.242,-212.377 292,-209.559 292,-203 292,-198.593 287.595,-195.875 281.317,-194.846"/>
<polygon fill="black" stroke="black" points="281.173,-191.34 271.074,-194.546 280.967,-198.337 281.173,-191.34"/>
<text text-anchor="middle" x="296.5" y="-199.4" font-family="Times Roman,serif" font-size="14.00">a</text>
</g>
</g>
</svg>
