<?xml version="1.0" encoding="UTF-8" standalone="no"?>
<!DOCTYPE svg PUBLIC "-//W3C//DTD SVG 1.1//EN"
 "http://www.w3.org/Graphics/SVG/1.1/DTD/svg11.dtd">
<!-- Generated by graphviz version 2.26.3 (20100126.1600)
 -->
<!-- Title: G Pages: 1 -->
<svg width="150pt" height="502pt"
 viewBox="0.00 0.00 150.00 502.00" xmlns="http://www.w3.org/2000/svg" xmlns:xlink="http://www.w3.org/1999/xlink">
<g id="graph1" class="graph" transform="scale(1 1) rotate(0) translate(4 498)">
<title>G</title>
<polygon fill="white" stroke="white" points="-4,5 -4,-498 147,-498 147,5 -4,5"/>
<!-- q6 -->
<g id="node1" class="node"><title>q6</title>
<ellipse fill="none" stroke="black" cx="94" cy="-476" rx="27" ry="18"/>
<text text-anchor="middle" x="94" y="-471.9" font-family="Times Roman,serif" font-size="14.00">q6</text>
</g>
<!-- q7 -->
<g id="node3" class="node"><title>q7</title>
<ellipse fill="none" stroke="black" cx="27" cy="-386" rx="27" ry="18"/>
<text text-anchor="middle" x="27" y="-381.9" font-family="Times Roman,serif" font-size="14.00">q7</text>
</g>
<!-- q6&#45;&gt;q7 -->
<g id="edge2" class="edge"><title>q6&#45;&gt;q7</title>
<path fill="none" stroke="black" d="M81.7112,-459.493C71.5111,-445.791 56.8542,-426.103 45.2776,-410.552"/>
<polygon fill="black" stroke="black" points="47.9899,-408.334 39.2109,-402.403 42.3749,-412.514 47.9899,-408.334"/>
<text text-anchor="middle" x="71.5" y="-426.9" font-family="Times Roman,serif" font-size="14.00">b</text>
</g>
<!-- q4 -->
<g id="node5" class="node"><title>q4</title>
<ellipse fill="none" stroke="black" cx="88" cy="-296" rx="27" ry="18"/>
<text text-anchor="middle" x="88" y="-291.9" font-family="Times Roman,serif" font-size="14.00">q4</text>
</g>
<!-- q6&#45;&gt;q4 -->
<g id="edge4" class="edge"><title>q6&#45;&gt;q4</title>
<path fill="none" stroke="black" d="M93.3917,-457.75C92.3423,-426.269 90.185,-361.55 88.9408,-324.225"/>
<polygon fill="black" stroke="black" points="92.4323,-323.908 88.601,-314.031 85.4362,-324.142 92.4323,-323.908"/>
<text text-anchor="middle" x="96.5" y="-381.9" font-family="Times Roman,serif" font-size="14.00">a</text>
</g>
<!-- q7&#45;&gt;q7 -->
<g id="edge8" class="edge"><title>q7&#45;&gt;q7</title>
<path fill="none" stroke="black" d="M51.5325,-394.121C62.5078,-394.895 72,-392.188 72,-386 72,-381.843 67.7151,-379.257 61.5743,-378.242"/>
<polygon fill="black" stroke="black" points="61.6524,-374.742 51.5325,-377.879 61.3995,-381.738 61.6524,-374.742"/>
<text text-anchor="middle" x="76.5" y="-381.9" font-family="Times Roman,serif" font-size="14.00">a</text>
</g>
<!-- q7&#45;&gt;q4 -->
<g id="edge6" class="edge"><title>q7&#45;&gt;q4</title>
<path fill="none" stroke="black" d="M38.1883,-369.493C47.3315,-356.003 60.4079,-336.71 70.8686,-321.276"/>
<polygon fill="black" stroke="black" points="73.9627,-322.949 76.676,-312.708 68.1682,-319.022 73.9627,-322.949"/>
<text text-anchor="middle" x="67.5" y="-336.9" font-family="Times Roman,serif" font-size="14.00">b</text>
</g>
<!-- q4&#45;&gt;q4 -->
<g id="edge16" class="edge"><title>q4&#45;&gt;q4</title>
<path fill="none" stroke="black" d="M112.532,-304.121C123.508,-304.895 133,-302.188 133,-296 133,-291.843 128.715,-289.257 122.574,-288.242"/>
<polygon fill="black" stroke="black" points="122.652,-284.742 112.532,-287.879 122.4,-291.738 122.652,-284.742"/>
<text text-anchor="middle" x="137.5" y="-291.9" font-family="Times Roman,serif" font-size="14.00">a</text>
</g>
<!-- q2 -->
<g id="node8" class="node"><title>q2</title>
<ellipse fill="none" stroke="black" cx="88" cy="-206" rx="27" ry="18"/>
<text text-anchor="middle" x="88" y="-201.9" font-family="Times Roman,serif" font-size="14.00">q2</text>
</g>
<!-- q4&#45;&gt;q2 -->
<g id="edge14" class="edge"><title>q4&#45;&gt;q2</title>
<path fill="none" stroke="black" d="M88,-277.787C88,-265.344 88,-248.605 88,-234.421"/>
<polygon fill="black" stroke="black" points="91.5001,-234.186 88,-224.186 84.5001,-234.186 91.5001,-234.186"/>
<text text-anchor="middle" x="92.5" y="-246.9" font-family="Times Roman,serif" font-size="14.00">b</text>
</g>
<!-- q0 -->
<g id="node10" class="node"><title>q0</title>
<ellipse fill="none" stroke="black" cx="88" cy="-116" rx="27" ry="18"/>
<text text-anchor="middle" x="88" y="-111.9" font-family="Times Roman,serif" font-size="14.00">q0</text>
</g>
<!-- q2&#45;&gt;q0 -->
<g id="edge10" class="edge"><title>q2&#45;&gt;q0</title>
<path fill="none" stroke="black" d="M79.2399,-188.86C76.7028,-183.03 74.2748,-176.374 73,-170 71.4311,-162.155 71.4311,-159.845 73,-152 73.6175,-148.913 74.5055,-145.759 75.5455,-142.665"/>
<polygon fill="black" stroke="black" points="78.8869,-143.729 79.2399,-133.14 72.3606,-141.198 78.8869,-143.729"/>
<text text-anchor="middle" x="77.5" y="-156.9" font-family="Times Roman,serif" font-size="14.00">b</text>
</g>
<!-- q2&#45;&gt;q0 -->
<g id="edge12" class="edge"><title>q2&#45;&gt;q0</title>
<path fill="none" stroke="black" d="M88,-187.787C88,-175.344 88,-158.605 88,-144.421"/>
<polygon fill="black" stroke="black" points="91.5001,-144.186 88,-134.186 84.5001,-144.186 91.5001,-144.186"/>
<text text-anchor="middle" x="92.5" y="-156.9" font-family="Times Roman,serif" font-size="14.00">a</text>
</g>
<!-- q0&#45;&gt;q0 -->
<g id="edge24" class="edge"><title>q0&#45;&gt;q0</title>
<path fill="none" stroke="black" d="M112.532,-124.121C123.508,-124.895 133,-122.188 133,-116 133,-111.843 128.715,-109.257 122.574,-108.242"/>
<polygon fill="black" stroke="black" points="122.652,-104.742 112.532,-107.879 122.4,-111.738 122.652,-104.742"/>
<text text-anchor="middle" x="137.5" y="-111.9" font-family="Times Roman,serif" font-size="14.00">a</text>
</g>
<!-- q3 -->
<g id="node14" class="node"><title>q3</title>
<ellipse fill="none" stroke="black" cx="88" cy="-22" rx="27" ry="18"/>
<ellipse fill="none" stroke="black" cx="88" cy="-22" rx="31" ry="22"/>
<text text-anchor="middle" x="88" y="-17.9" font-family="Times Roman,serif" font-size="14.00">q3</text>
</g>
<!-- q0&#45;&gt;q3 -->
<g id="edge22" class="edge"><title>q0&#45;&gt;q3</title>
<path fill="none" stroke="black" d="M80.2648,-98.3885C78.1157,-92.6409 76.0769,-86.1528 75,-80 73.4528,-71.1598 74.4571,-61.6322 76.458,-52.9045"/>
<polygon fill="black" stroke="black" points="79.873,-53.6871 79.1714,-43.1155 73.1273,-51.8172 79.873,-53.6871"/>
<text text-anchor="middle" x="79.5" y="-66.9" font-family="Times Roman,serif" font-size="14.00">b</text>
</g>
<!-- q3&#45;&gt;q0 -->
<g id="edge18" class="edge"><title>q3&#45;&gt;q0</title>
<path fill="none" stroke="black" d="M88,-44.0388C88,-57.0958 88,-73.7734 88,-87.785"/>
<polygon fill="black" stroke="black" points="84.5001,-87.8758 88,-97.8759 91.5001,-87.8759 84.5001,-87.8758"/>
<text text-anchor="middle" x="92.5" y="-66.9" font-family="Times Roman,serif" font-size="14.00">b</text>
</g>
<!-- q3&#45;&gt;q0 -->
<g id="edge20" class="edge"><title>q3&#45;&gt;q0</title>
<path fill="none" stroke="black" d="M94.9375,-43.7022C97.5969,-54.5722 99.6422,-67.952 98,-80 97.6268,-82.7376 97.101,-85.5608 96.4837,-88.3653"/>
<polygon fill="black" stroke="black" points="93.0414,-87.6996 93.956,-98.2549 99.8234,-89.4331 93.0414,-87.6996"/>
<text text-anchor="middle" x="102.5" y="-66.9" font-family="Times Roman,serif" font-size="14.00">a</text>
</g>
</g>
</svg>
