<?xml version="1.0" encoding="UTF-8" standalone="no"?>
<!DOCTYPE svg PUBLIC "-//W3C//DTD SVG 1.1//EN"
 "http://www.w3.org/Graphics/SVG/1.1/DTD/svg11.dtd">
<!-- Generated by graphviz version 2.26.3 (20100126.1600)
 -->
<!-- Title: G Pages: 1 -->
<svg width="167pt" height="330pt"
 viewBox="0.00 0.00 167.00 330.00" xmlns="http://www.w3.org/2000/svg" xmlns:xlink="http://www.w3.org/1999/xlink">
<g id="graph1" class="graph" transform="scale(1 1) rotate(0) translate(4 326)">
<title>G</title>
<polygon fill="white" stroke="white" points="-4,5 -4,-326 164,-326 164,5 -4,5"/>
<!-- q1 -->
<g id="node1" class="node"><title>q1</title>
<ellipse fill="none" stroke="black" cx="101" cy="-300" rx="27" ry="18"/>
<ellipse fill="none" stroke="black" cx="101" cy="-300" rx="31" ry="22"/>
<text text-anchor="middle" x="101" y="-295.9" font-family="Times Roman,serif" font-size="14.00">q1</text>
</g>
<!-- q1&#45;&gt;q1 -->
<g id="edge2" class="edge"><title>q1&#45;&gt;q1</title>
<path fill="none" stroke="black" d="M129.689,-308.965C140.781,-309.363 150,-306.375 150,-300 150,-295.717 145.838,-292.962 139.743,-291.737"/>
<polygon fill="black" stroke="black" points="139.908,-288.24 129.689,-291.035 139.421,-295.223 139.908,-288.24"/>
<text text-anchor="middle" x="154.5" y="-295.9" font-family="Times Roman,serif" font-size="14.00">b</text>
</g>
<!-- q4 -->
<g id="node4" class="node"><title>q4</title>
<ellipse fill="none" stroke="black" cx="101" cy="-206" rx="27" ry="18"/>
<text text-anchor="middle" x="101" y="-201.9" font-family="Times Roman,serif" font-size="14.00">q4</text>
</g>
<!-- q1&#45;&gt;q4 -->
<g id="edge4" class="edge"><title>q1&#45;&gt;q4</title>
<path fill="none" stroke="black" d="M90.9276,-279.19C86.8015,-268.198 83.5115,-254.442 86,-242 86.6175,-238.913 87.5055,-235.759 88.5455,-232.665"/>
<polygon fill="black" stroke="black" points="91.8869,-233.729 92.2399,-223.14 85.3606,-231.198 91.8869,-233.729"/>
<text text-anchor="middle" x="90.5" y="-246.9" font-family="Times Roman,serif" font-size="14.00">a</text>
</g>
<!-- q4&#45;&gt;q1 -->
<g id="edge6" class="edge"><title>q4&#45;&gt;q1</title>
<path fill="none" stroke="black" d="M101,-224.025C101,-236.333 101,-252.987 101,-267.566"/>
<polygon fill="black" stroke="black" points="97.5001,-267.723 101,-277.723 104.5,-267.723 97.5001,-267.723"/>
<text text-anchor="middle" x="105.5" y="-246.9" font-family="Times Roman,serif" font-size="14.00">b</text>
</g>
<!-- q0 -->
<g id="node7" class="node"><title>q0</title>
<ellipse fill="none" stroke="darkred" cx="31" cy="-112" rx="27" ry="18"/>
<ellipse fill="none" stroke="darkred" cx="31" cy="-112" rx="31" ry="22"/>
<text text-anchor="middle" x="31" y="-107.9" font-family="Times Roman,serif" font-size="14.00">q0</text>
</g>
<!-- q4&#45;&gt;q0 -->
<g id="edge8" class="edge"><title>q4&#45;&gt;q0</title>
<path fill="none" stroke="black" d="M88.8069,-189.626C78.5999,-175.92 63.8092,-156.058 51.7443,-139.857"/>
<polygon fill="black" stroke="black" points="54.5022,-137.7 45.7223,-131.77 48.8878,-141.881 54.5022,-137.7"/>
<text text-anchor="middle" x="77.5" y="-156.9" font-family="Times Roman,serif" font-size="14.00">a</text>
</g>
<!-- q0&#45;&gt;q0 -->
<g id="edge16" class="edge"><title>q0&#45;&gt;q0</title>
<path fill="none" stroke="black" d="M59.6885,-120.965C70.7806,-121.363 80,-118.375 80,-112 80,-107.717 75.8382,-104.962 69.7429,-103.737"/>
<polygon fill="black" stroke="black" points="69.9079,-100.24 59.6885,-103.035 69.4205,-107.223 69.9079,-100.24"/>
<text text-anchor="middle" x="84.5" y="-107.9" font-family="Times Roman,serif" font-size="14.00">a</text>
</g>
<!-- q3 -->
<g id="node8" class="node"><title>q3</title>
<ellipse fill="none" stroke="black" cx="63" cy="-18" rx="27" ry="18"/>
<text text-anchor="middle" x="63" y="-13.9" font-family="Times Roman,serif" font-size="14.00">q3</text>
</g>
<!-- q0&#45;&gt;q3 -->
<g id="edge14" class="edge"><title>q0&#45;&gt;q3</title>
<path fill="none" stroke="black" d="M28.4434,-89.8487C27.9799,-78.7459 28.6888,-65.2957 33,-54 34.7914,-49.3065 37.464,-44.7826 40.4886,-40.6197"/>
<polygon fill="black" stroke="black" points="43.3932,-42.597 47.0216,-32.6428 37.9776,-38.1617 43.3932,-42.597"/>
<text text-anchor="middle" x="37.5" y="-58.9" font-family="Times Roman,serif" font-size="14.00">b</text>
</g>
<!-- q3&#45;&gt;q4 -->
<g id="edge12" class="edge"><title>q3&#45;&gt;q4</title>
<path fill="none" stroke="black" d="M73.6609,-34.6756C82.0424,-48.7906 93.0942,-69.8805 98,-90 105.16,-119.363 104.958,-154.149 103.564,-177.917"/>
<polygon fill="black" stroke="black" points="100.065,-177.785 102.862,-188.004 107.048,-178.271 100.065,-177.785"/>
<text text-anchor="middle" x="107.5" y="-107.9" font-family="Times Roman,serif" font-size="14.00">a</text>
</g>
<!-- q3&#45;&gt;q0 -->
<g id="edge10" class="edge"><title>q3&#45;&gt;q0</title>
<path fill="none" stroke="black" d="M57.0092,-35.598C52.7339,-48.1567 46.8651,-65.3962 41.7843,-80.3213"/>
<polygon fill="black" stroke="black" points="38.3313,-79.6038 38.4219,-90.1982 44.9579,-81.8597 38.3313,-79.6038"/>
<text text-anchor="middle" x="54.5" y="-58.9" font-family="Times Roman,serif" font-size="14.00">b</text>
</g>
</g>
</svg>
