<?xml version="1.0" encoding="UTF-8" standalone="no"?>
<!DOCTYPE svg PUBLIC "-//W3C//DTD SVG 1.1//EN"
 "http://www.w3.org/Graphics/SVG/1.1/DTD/svg11.dtd">
<!-- Generated by graphviz version 2.26.3 (20100126.1600)
 -->
<!-- Title: G Pages: 1 -->
<svg width="413pt" height="798pt"
 viewBox="0.00 0.00 413.00 798.00" xmlns="http://www.w3.org/2000/svg" xmlns:xlink="http://www.w3.org/1999/xlink">
<g id="graph1" class="graph" transform="scale(1 1) rotate(0) translate(4 794)">
<title>G</title>
<polygon fill="white" stroke="white" points="-4,5 -4,-794 410,-794 410,5 -4,5"/>
<!-- q0 -->
<g id="node1" class="node"><title>q0</title>
<ellipse fill="none" stroke="black" cx="155" cy="-671" rx="27" ry="18.3848"/>
<text text-anchor="middle" x="155" y="-667.4" font-family="Times Roman,serif" font-size="14.00">q0</text>
</g>
<!-- q3 -->
<g id="node3" class="node"><title>q3</title>
<ellipse fill="none" stroke="black" cx="155" cy="-579" rx="27" ry="18.3848"/>
<text text-anchor="middle" x="155" y="-575.4" font-family="Times Roman,serif" font-size="14.00">q3</text>
</g>
<!-- q0&#45;&gt;q3 -->
<g id="edge2" class="edge"><title>q0&#45;&gt;q3</title>
<path fill="none" stroke="black" d="M155,-652.382C155,-639.538 155,-622.216 155,-607.627"/>
<polygon fill="black" stroke="black" points="158.5,-607.59 155,-597.59 151.5,-607.59 158.5,-607.59"/>
<text text-anchor="middle" x="159.5" y="-621.4" font-family="Times Roman,serif" font-size="14.00">b</text>
</g>
<!-- q10 -->
<g id="node5" class="node"><title>q10</title>
<ellipse fill="none" stroke="black" cx="136" cy="-19" rx="29.9071" ry="18.3848"/>
<text text-anchor="middle" x="136" y="-15.4" font-family="Times Roman,serif" font-size="14.00">q10</text>
</g>
<!-- q0&#45;&gt;q10 -->
<g id="edge4" class="edge"><title>q0&#45;&gt;q10</title>
<path fill="none" stroke="black" d="M128.355,-667.487C84.0378,-659.987 0,-637.987 0,-579 0,-579 0,-579 0,-111 0,-63.5663 57.4589,-38.9266 97.6809,-27.4893"/>
<polygon fill="black" stroke="black" points="98.737,-30.8298 107.49,-24.8601 96.9247,-24.0685 98.737,-30.8298"/>
<text text-anchor="middle" x="4.5" y="-337.4" font-family="Times Roman,serif" font-size="14.00">a</text>
</g>
<!-- q3&#45;&gt;q10 -->
<g id="edge10" class="edge"><title>q3&#45;&gt;q10</title>
<path fill="none" stroke="black" d="M157.493,-560.433C164.001,-510.302 181,-367.961 181,-249 181,-249 181,-249 181,-111 181,-86.4712 167.932,-61.6626 155.881,-43.9986"/>
<polygon fill="black" stroke="black" points="158.421,-41.5348 149.746,-35.4521 152.734,-45.6168 158.421,-41.5348"/>
<text text-anchor="middle" x="184.5" y="-291.4" font-family="Times Roman,serif" font-size="14.00">b</text>
</g>
<!-- q2 -->
<g id="node6" class="node"><title>q2</title>
<ellipse fill="none" stroke="black" cx="283" cy="-487" rx="27" ry="18.3848"/>
<text text-anchor="middle" x="283" y="-483.4" font-family="Times Roman,serif" font-size="14.00">q2</text>
</g>
<!-- q3&#45;&gt;q2 -->
<g id="edge12" class="edge"><title>q3&#45;&gt;q2</title>
<path fill="none" stroke="black" d="M179.199,-570.625C195.595,-564.266 217.243,-554.49 234,-542 245.408,-533.497 256.155,-521.997 264.661,-511.71"/>
<polygon fill="black" stroke="black" points="267.471,-513.801 270.972,-503.801 261.999,-509.435 267.471,-513.801"/>
<text text-anchor="middle" x="257.5" y="-529.4" font-family="Times Roman,serif" font-size="14.00">a</text>
</g>
<!-- q10&#45;&gt;q3 -->
<g id="edge34" class="edge"><title>q10&#45;&gt;q3</title>
<path fill="none" stroke="black" d="M111.882,-30.5707C85.2226,-45.2399 46,-73.2387 46,-111 46,-487 46,-487 46,-487 46,-515.06 56.4734,-522.868 77,-542 89.4117,-553.568 106.099,-562.14 120.853,-568.104"/>
<polygon fill="black" stroke="black" points="119.614,-571.378 130.205,-571.652 122.097,-564.833 119.614,-571.378"/>
<text text-anchor="middle" x="50.5" y="-291.4" font-family="Times Roman,serif" font-size="14.00">b</text>
</g>
<!-- q10&#45;&gt;q3 -->
<g id="edge36" class="edge"><title>q10&#45;&gt;q3</title>
<path fill="none" stroke="black" d="M122.254,-35.4521C109.02,-53.0052 91,-82.1956 91,-111 91,-487 91,-487 91,-487 91,-515.261 111.603,-541.069 129.43,-558.11"/>
<polygon fill="black" stroke="black" points="127.083,-560.708 136.831,-564.858 131.8,-555.535 127.083,-560.708"/>
<text text-anchor="middle" x="95.5" y="-291.4" font-family="Times Roman,serif" font-size="14.00">a</text>
</g>
<!-- q10&#45;&gt;q3 -->
<g id="edge38" class="edge"><title>q10&#45;&gt;q3</title>
<path fill="none" stroke="black" d="M136,-37.6776C136,-56.265 136,-85.6042 136,-111 136,-487 136,-487 136,-487 136,-508.916 141.235,-533.172 146.209,-551.274"/>
<polygon fill="black" stroke="black" points="142.852,-552.263 148.988,-560.899 149.577,-550.321 142.852,-552.263"/>
<text text-anchor="middle" x="140.5" y="-291.4" font-family="Times Roman,serif" font-size="14.00">b</text>
</g>
<!-- q10&#45;&gt;q10 -->
<g id="edge40" class="edge"><title>q10&#45;&gt;q10</title>
<path fill="none" stroke="black" d="M162.655,-27.5218C174.154,-28.2195 184,-25.3789 184,-19 184,-14.6145 179.346,-11.9014 172.701,-10.8607"/>
<polygon fill="black" stroke="black" points="172.781,-7.3613 162.655,-10.4782 172.514,-14.3562 172.781,-7.3613"/>
<text text-anchor="middle" x="188.5" y="-15.4" font-family="Times Roman,serif" font-size="14.00">a</text>
</g>
<!-- q4 -->
<g id="node8" class="node"><title>q4</title>
<ellipse fill="none" stroke="black" cx="316" cy="-391" rx="27" ry="18.3848"/>
<ellipse fill="none" stroke="black" cx="316" cy="-391" rx="31" ry="22.3848"/>
<text text-anchor="middle" x="316" y="-387.4" font-family="Times Roman,serif" font-size="14.00">q4</text>
</g>
<!-- q2&#45;&gt;q4 -->
<g id="edge6" class="edge"><title>q2&#45;&gt;q4</title>
<path fill="none" stroke="black" d="M291.911,-469.184C294.718,-463.178 297.687,-456.38 300,-450 303.093,-441.466 305.906,-432.048 308.28,-423.29"/>
<polygon fill="black" stroke="black" points="311.721,-423.964 310.856,-413.405 304.947,-422.199 311.721,-423.964"/>
<text text-anchor="middle" x="309.5" y="-437.4" font-family="Times Roman,serif" font-size="14.00">b</text>
</g>
<!-- q9 -->
<g id="node10" class="node"><title>q9</title>
<ellipse fill="none" stroke="black" cx="251" cy="-203" rx="27" ry="18.3848"/>
<text text-anchor="middle" x="251" y="-199.4" font-family="Times Roman,serif" font-size="14.00">q9</text>
</g>
<!-- q2&#45;&gt;q9 -->
<g id="edge8" class="edge"><title>q2&#45;&gt;q9</title>
<path fill="none" stroke="black" d="M280.9,-468.366C275.442,-419.922 260.776,-289.763 254.231,-231.674"/>
<polygon fill="black" stroke="black" points="257.705,-231.248 253.107,-221.703 250.749,-232.032 257.705,-231.248"/>
<text text-anchor="middle" x="271.5" y="-337.4" font-family="Times Roman,serif" font-size="14.00">a</text>
</g>
<!-- q4&#45;&gt;q2 -->
<g id="edge16" class="edge"><title>q4&#45;&gt;q2</title>
<path fill="none" stroke="black" d="M301.568,-411.037C297.562,-417.46 293.601,-424.785 291,-432 287.999,-440.325 286.121,-449.744 284.947,-458.404"/>
<polygon fill="black" stroke="black" points="281.455,-458.144 283.836,-468.468 288.413,-458.912 281.455,-458.144"/>
<text text-anchor="middle" x="295.5" y="-437.4" font-family="Times Roman,serif" font-size="14.00">a</text>
</g>
<!-- q8 -->
<g id="node14" class="node"><title>q8</title>
<ellipse fill="none" stroke="black" cx="314" cy="-295" rx="27" ry="18.3848"/>
<text text-anchor="middle" x="314" y="-291.4" font-family="Times Roman,serif" font-size="14.00">q8</text>
</g>
<!-- q4&#45;&gt;q8 -->
<g id="edge14" class="edge"><title>q4&#45;&gt;q8</title>
<path fill="none" stroke="black" d="M315.526,-368.249C315.25,-354.994 314.899,-338.148 314.603,-323.954"/>
<polygon fill="black" stroke="black" points="318.098,-323.645 314.39,-313.72 311.099,-323.791 318.098,-323.645"/>
<text text-anchor="middle" x="319.5" y="-337.4" font-family="Times Roman,serif" font-size="14.00">b</text>
</g>
<!-- q9&#45;&gt;q3 -->
<g id="edge30" class="edge"><title>q9&#45;&gt;q3</title>
<path fill="none" stroke="black" d="M250.981,-221.726C250.222,-274.805 243.098,-429.674 188,-542 185.489,-547.12 182.067,-552.067 178.375,-556.589"/>
<polygon fill="black" stroke="black" points="175.618,-554.422 171.574,-564.214 180.842,-559.081 175.618,-554.422"/>
<text text-anchor="middle" x="242.5" y="-387.4" font-family="Times Roman,serif" font-size="14.00">b</text>
</g>
<!-- q5 -->
<g id="node16" class="node"><title>q5</title>
<ellipse fill="none" stroke="black" cx="283" cy="-111" rx="27" ry="18.3848"/>
<text text-anchor="middle" x="283" y="-107.4" font-family="Times Roman,serif" font-size="14.00">q5</text>
</g>
<!-- q9&#45;&gt;q5 -->
<g id="edge32" class="edge"><title>q9&#45;&gt;q5</title>
<path fill="none" stroke="black" d="M257.322,-184.824C261.88,-171.719 268.117,-153.789 273.303,-138.88"/>
<polygon fill="black" stroke="black" points="276.711,-139.733 276.691,-129.138 270.1,-137.434 276.711,-139.733"/>
<text text-anchor="middle" x="273.5" y="-153.4" font-family="Times Roman,serif" font-size="14.00">a</text>
</g>
<!-- q8&#45;&gt;q9 -->
<g id="edge28" class="edge"><title>q8&#45;&gt;q9</title>
<path fill="none" stroke="black" d="M302.445,-278.126C292.854,-264.12 279.072,-243.994 268.186,-228.098"/>
<polygon fill="black" stroke="black" points="271.02,-226.041 262.482,-219.767 265.244,-229.996 271.02,-226.041"/>
<text text-anchor="middle" x="292.5" y="-245.4" font-family="Times Roman,serif" font-size="14.00">a</text>
</g>
<!-- q8&#45;&gt;q5 -->
<g id="edge26" class="edge"><title>q8&#45;&gt;q5</title>
<path fill="none" stroke="black" d="M317.577,-276.627C318.569,-270.706 319.509,-264.097 320,-258 323.967,-208.756 322.946,-193.626 304,-148 302.525,-144.449 300.782,-140.811 298.94,-137.27"/>
<polygon fill="black" stroke="black" points="301.852,-135.304 293.952,-128.246 295.726,-138.691 301.852,-135.304"/>
<text text-anchor="middle" x="325.5" y="-199.4" font-family="Times Roman,serif" font-size="14.00">b</text>
</g>
<!-- q5&#45;&gt;q10 -->
<g id="edge20" class="edge"><title>q5&#45;&gt;q10</title>
<path fill="none" stroke="black" d="M262.869,-98.4007C237.785,-82.7021 194.709,-55.7431 165.798,-37.6492"/>
<polygon fill="black" stroke="black" points="167.65,-34.6791 157.316,-32.3407 163.936,-40.6128 167.65,-34.6791"/>
<text text-anchor="middle" x="226.5" y="-61.4" font-family="Times Roman,serif" font-size="14.00">a</text>
</g>
<!-- q5&#45;&gt;q8 -->
<g id="edge18" class="edge"><title>q5&#45;&gt;q8</title>
<path fill="none" stroke="black" d="M286.105,-129.431C291.524,-161.591 302.74,-228.165 309.177,-266.372"/>
<polygon fill="black" stroke="black" points="305.744,-267.065 310.857,-276.345 312.647,-265.902 305.744,-267.065"/>
<text text-anchor="middle" x="305.5" y="-199.4" font-family="Times Roman,serif" font-size="14.00">b</text>
</g>
<!-- q6 -->
<g id="node19" class="node"><title>q6</title>
<ellipse fill="none" stroke="black" cx="325" cy="-767" rx="27" ry="18.3848"/>
<ellipse fill="none" stroke="black" cx="325" cy="-767" rx="31" ry="22.3848"/>
<text text-anchor="middle" x="325" y="-763.4" font-family="Times Roman,serif" font-size="14.00">q6</text>
</g>
<!-- q6&#45;&gt;q0 -->
<g id="edge22" class="edge"><title>q6&#45;&gt;q0</title>
<path fill="none" stroke="black" d="M300.281,-753.041C269.772,-735.812 217.918,-706.53 185.115,-688.006"/>
<polygon fill="black" stroke="black" points="186.426,-684.727 175.997,-682.857 182.984,-690.822 186.426,-684.727"/>
<text text-anchor="middle" x="254.5" y="-713.4" font-family="Times Roman,serif" font-size="14.00">b</text>
</g>
<!-- q6&#45;&gt;q10 -->
<g id="edge24" class="edge"><title>q6&#45;&gt;q10</title>
<path fill="none" stroke="black" d="M347.076,-750.939C367.918,-733.741 396,-704.375 396,-671 396,-671 396,-671 396,-111 396,-64.7926 248.211,-35.9654 175.48,-24.5765"/>
<polygon fill="black" stroke="black" points="175.734,-21.0748 165.32,-23.0227 174.676,-27.9944 175.734,-21.0748"/>
<text text-anchor="middle" x="400.5" y="-387.4" font-family="Times Roman,serif" font-size="14.00">a</text>
</g>
</g>
</svg>
