<?xml version="1.0" encoding="UTF-8" standalone="no"?>
<!DOCTYPE svg PUBLIC "-//W3C//DTD SVG 1.1//EN"
 "http://www.w3.org/Graphics/SVG/1.1/DTD/svg11.dtd">
<!-- Generated by graphviz version 2.26.3 (20100126.1600)
 -->
<!-- Title: G Pages: 1 -->
<svg width="252pt" height="322pt"
 viewBox="0.00 0.00 252.00 322.00" xmlns="http://www.w3.org/2000/svg" xmlns:xlink="http://www.w3.org/1999/xlink">
<g id="graph1" class="graph" transform="scale(1 1) rotate(0) translate(4 318)">
<title>G</title>
<polygon fill="white" stroke="white" points="-4,5 -4,-318 249,-318 249,5 -4,5"/>
<!-- q5 -->
<g id="node1" class="node"><title>q5</title>
<ellipse fill="none" stroke="black" cx="149" cy="-203" rx="27" ry="18.3848"/>
<text text-anchor="middle" x="149" y="-199.4" font-family="Times Roman,serif" font-size="14.00">q5</text>
</g>
<!-- q5&#45;&gt;q5 -->
<g id="edge4" class="edge"><title>q5&#45;&gt;q5</title>
<path fill="none" stroke="black" d="M173.074,-211.454C184.242,-212.377 194,-209.559 194,-203 194,-198.593 189.595,-195.875 183.317,-194.846"/>
<polygon fill="black" stroke="black" points="183.173,-191.34 173.074,-194.546 182.967,-198.337 183.173,-191.34"/>
<text text-anchor="middle" x="198.5" y="-199.4" font-family="Times Roman,serif" font-size="14.00">a</text>
</g>
<!-- q4 -->
<g id="node3" class="node"><title>q4</title>
<ellipse fill="none" stroke="black" cx="149" cy="-111" rx="27" ry="18.3848"/>
<text text-anchor="middle" x="149" y="-107.4" font-family="Times Roman,serif" font-size="14.00">q4</text>
</g>
<!-- q5&#45;&gt;q4 -->
<g id="edge2" class="edge"><title>q5&#45;&gt;q4</title>
<path fill="none" stroke="black" d="M149,-184.382C149,-171.538 149,-154.216 149,-139.627"/>
<polygon fill="black" stroke="black" points="152.5,-139.59 149,-129.59 145.5,-139.59 152.5,-139.59"/>
<text text-anchor="middle" x="153.5" y="-153.4" font-family="Times Roman,serif" font-size="14.00">b</text>
</g>
<!-- q2 -->
<g id="node5" class="node"><title>q2</title>
<ellipse fill="none" stroke="black" cx="84" cy="-19" rx="27" ry="18.3848"/>
<text text-anchor="middle" x="84" y="-15.4" font-family="Times Roman,serif" font-size="14.00">q2</text>
</g>
<!-- q4&#45;&gt;q2 -->
<g id="edge14" class="edge"><title>q4&#45;&gt;q2</title>
<path fill="none" stroke="black" d="M137.47,-94.0715C129.994,-83.1549 120.005,-68.68 111,-56 108.157,-51.9964 105.114,-47.7715 102.134,-43.6649"/>
<polygon fill="black" stroke="black" points="104.908,-41.5285 96.1881,-35.5108 99.2521,-45.6529 104.908,-41.5285"/>
<text text-anchor="middle" x="126.5" y="-61.4" font-family="Times Roman,serif" font-size="14.00">b</text>
</g>
<!-- q1 -->
<g id="node8" class="node"><title>q1</title>
<ellipse fill="none" stroke="black" cx="213" cy="-19" rx="27" ry="18.3848"/>
<text text-anchor="middle" x="213" y="-15.4" font-family="Times Roman,serif" font-size="14.00">q1</text>
</g>
<!-- q4&#45;&gt;q1 -->
<g id="edge16" class="edge"><title>q4&#45;&gt;q1</title>
<path fill="none" stroke="black" d="M151.845,-92.4428C154.245,-81.1576 158.531,-66.8746 166,-56 170.795,-49.0181 177.306,-42.7293 183.952,-37.4007"/>
<polygon fill="black" stroke="black" points="186.382,-39.9562 192.324,-31.1848 182.209,-34.3359 186.382,-39.9562"/>
<text text-anchor="middle" x="170.5" y="-61.4" font-family="Times Roman,serif" font-size="14.00">a</text>
</g>
<!-- q2&#45;&gt;q5 -->
<g id="edge8" class="edge"><title>q2&#45;&gt;q5</title>
<path fill="none" stroke="black" d="M84.9035,-37.69C85.6185,-48.3821 86.8657,-62.0118 89,-74 93.5162,-99.3674 93.7987,-106.339 104,-130 111.253,-146.822 121.93,-164.338 131.063,-177.995"/>
<polygon fill="black" stroke="black" points="128.256,-180.089 136.791,-186.365 134.033,-176.136 128.256,-180.089"/>
<text text-anchor="middle" x="108.5" y="-107.4" font-family="Times Roman,serif" font-size="14.00">a</text>
</g>
<!-- q2&#45;&gt;q4 -->
<g id="edge6" class="edge"><title>q2&#45;&gt;q4</title>
<path fill="none" stroke="black" d="M87.2301,-37.5608C89.8535,-48.8474 94.4017,-63.1305 102,-74 106.853,-80.9421 113.384,-87.2164 120.032,-92.5438"/>
<polygon fill="black" stroke="black" points="118.284,-95.6058 128.397,-98.7644 122.461,-89.9886 118.284,-95.6058"/>
<text text-anchor="middle" x="106.5" y="-61.4" font-family="Times Roman,serif" font-size="14.00">b</text>
</g>
<!-- q1&#45;&gt;q4 -->
<g id="edge10" class="edge"><title>q1&#45;&gt;q4</title>
<path fill="none" stroke="black" d="M201.393,-35.874C193.886,-46.7689 183.891,-61.2401 175,-74 172.353,-77.7985 169.546,-81.8102 166.793,-85.7354"/>
<polygon fill="black" stroke="black" points="163.82,-83.879 160.936,-94.0737 169.548,-87.9026 163.82,-83.879"/>
<text text-anchor="middle" x="190.5" y="-61.4" font-family="Times Roman,serif" font-size="14.00">b</text>
</g>
<!-- q1&#45;&gt;q4 -->
<g id="edge12" class="edge"><title>q1&#45;&gt;q4</title>
<path fill="none" stroke="black" d="M211.433,-37.6122C209.748,-48.9181 206.252,-63.2035 199,-74 193.85,-81.6672 186.56,-88.3413 179.134,-93.83"/>
<polygon fill="black" stroke="black" points="176.778,-91.2001 170.476,-99.7173 180.713,-96.9888 176.778,-91.2001"/>
<text text-anchor="middle" x="210.5" y="-61.4" font-family="Times Roman,serif" font-size="14.00">a</text>
</g>
<!-- q3 -->
<g id="node13" class="node"><title>q3</title>
<ellipse fill="none" stroke="black" cx="27" cy="-203" rx="27" ry="18.3848"/>
<text text-anchor="middle" x="27" y="-199.4" font-family="Times Roman,serif" font-size="14.00">q3</text>
</g>
<!-- q3&#45;&gt;q4 -->
<g id="edge18" class="edge"><title>q3&#45;&gt;q4</title>
<path fill="none" stroke="black" d="M45.2646,-189.227C65.7485,-173.78 99.1528,-148.59 122.505,-130.98"/>
<polygon fill="black" stroke="black" points="124.734,-133.683 130.611,-124.867 120.519,-128.094 124.734,-133.683"/>
<text text-anchor="middle" x="102.5" y="-153.4" font-family="Times Roman,serif" font-size="14.00">b</text>
</g>
<!-- q3&#45;&gt;q2 -->
<g id="edge20" class="edge"><title>q3&#45;&gt;q2</title>
<path fill="none" stroke="black" d="M26.7068,-184.187C26.8099,-161.821 28.4195,-123.554 37,-92 41.6431,-74.9258 44.5825,-70.9799 54,-56 56.7894,-51.563 60.0363,-47.0553 63.3432,-42.7838"/>
<polygon fill="black" stroke="black" points="66.1156,-44.9215 69.672,-34.9414 60.6681,-40.5255 66.1156,-44.9215"/>
<text text-anchor="middle" x="41.5" y="-107.4" font-family="Times Roman,serif" font-size="14.00">a</text>
</g>
<!-- q0 -->
<g id="node16" class="node"><title>q0</title>
<ellipse fill="none" stroke="black" cx="217" cy="-295" rx="27" ry="18.3848"/>
<text text-anchor="middle" x="217" y="-291.4" font-family="Times Roman,serif" font-size="14.00">q0</text>
</g>
<!-- q0&#45;&gt;q5 -->
<g id="edge24" class="edge"><title>q0&#45;&gt;q5</title>
<path fill="none" stroke="black" d="M204.528,-278.126C194.175,-264.12 179.3,-243.994 167.55,-228.098"/>
<polygon fill="black" stroke="black" points="170.152,-225.729 161.393,-219.767 164.523,-229.889 170.152,-225.729"/>
<text text-anchor="middle" x="193.5" y="-245.4" font-family="Times Roman,serif" font-size="14.00">a</text>
</g>
<!-- q0&#45;&gt;q1 -->
<g id="edge22" class="edge"><title>q0&#45;&gt;q1</title>
<path fill="none" stroke="black" d="M217.225,-276.373C217.673,-238.341 218.661,-149.012 219,-74 219.036,-66.0001 219.642,-63.9742 219,-56 218.777,-53.2372 218.463,-50.3694 218.093,-47.5082"/>
<polygon fill="black" stroke="black" points="221.518,-46.745 216.577,-37.3727 214.595,-47.7804 221.518,-46.745"/>
<text text-anchor="middle" x="222.5" y="-153.4" font-family="Times Roman,serif" font-size="14.00">b</text>
</g>
</g>
</svg>
