<?xml version="1.0" encoding="UTF-8" standalone="no"?>
<!DOCTYPE svg PUBLIC "-//W3C//DTD SVG 1.1//EN"
 "http://www.w3.org/Graphics/SVG/1.1/DTD/svg11.dtd">
<!-- Generated by graphviz version 2.26.3 (20100126.1600)
 -->
<!-- Title: G Pages: 1 -->
<svg width="150pt" height="502pt"
 viewBox="0.00 0.00 150.00 502.00" xmlns="http://www.w3.org/2000/svg" xmlns:xlink="http://www.w3.org/1999/xlink">
<g id="graph1" class="graph" transform="scale(1 1) rotate(0) translate(4 498)">
<title>G</title>
<polygon fill="white" stroke="white" points="-4,5 -4,-498 147,-498 147,5 -4,5"/>
<!-- q6 -->
<g id="node1" class="node"><title>q6</title>
<ellipse fill="none" stroke="black" cx="99" cy="-476" rx="27" ry="18"/>
<text text-anchor="middle" x="99" y="-471.9" font-family="Times Roman,serif" font-size="14.00">q6</text>
</g>
<!-- q7 -->
<g id="node3" class="node"><title>q7</title>
<ellipse fill="none" stroke="black" cx="32" cy="-386" rx="27" ry="18"/>
<text text-anchor="middle" x="32" y="-381.9" font-family="Times Roman,serif" font-size="14.00">q7</text>
</g>
<!-- q6&#45;&gt;q7 -->
<g id="edge2" class="edge"><title>q6&#45;&gt;q7</title>
<path fill="none" stroke="black" d="M86.7112,-459.493C76.5111,-445.791 61.8542,-426.103 50.2776,-410.552"/>
<polygon fill="black" stroke="black" points="52.9899,-408.334 44.2109,-402.403 47.3749,-412.514 52.9899,-408.334"/>
<text text-anchor="middle" x="76.5" y="-426.9" font-family="Times Roman,serif" font-size="14.00">b</text>
</g>
<!-- q4 -->
<g id="node5" class="node"><title>q4</title>
<ellipse fill="none" stroke="black" cx="88" cy="-296" rx="27" ry="18"/>
<text text-anchor="middle" x="88" y="-291.9" font-family="Times Roman,serif" font-size="14.00">q4</text>
</g>
<!-- q6&#45;&gt;q4 -->
<g id="edge4" class="edge"><title>q6&#45;&gt;q4</title>
<path fill="none" stroke="black" d="M98.6547,-457.638C98.1729,-436.134 97.1094,-399.451 95,-368 94.0252,-353.465 92.4967,-337.321 91.1163,-324.009"/>
<polygon fill="black" stroke="black" points="94.5926,-323.599 90.0545,-314.025 87.6318,-324.339 94.5926,-323.599"/>
<text text-anchor="middle" x="101.5" y="-381.9" font-family="Times Roman,serif" font-size="14.00">a</text>
</g>
<!-- q7&#45;&gt;q7 -->
<g id="edge8" class="edge"><title>q7&#45;&gt;q7</title>
<path fill="none" stroke="black" d="M56.5325,-394.121C67.5078,-394.895 77,-392.188 77,-386 77,-381.843 72.7151,-379.257 66.5743,-378.242"/>
<polygon fill="black" stroke="black" points="66.6524,-374.742 56.5325,-377.879 66.3995,-381.738 66.6524,-374.742"/>
<text text-anchor="middle" x="81.5" y="-381.9" font-family="Times Roman,serif" font-size="14.00">a</text>
</g>
<!-- q7&#45;&gt;q4 -->
<g id="edge6" class="edge"><title>q7&#45;&gt;q4</title>
<path fill="none" stroke="black" d="M42.5332,-369.072C50.8243,-355.747 62.5175,-336.954 71.9692,-321.764"/>
<polygon fill="black" stroke="black" points="75.2027,-323.192 77.5141,-312.852 69.2593,-319.494 75.2027,-323.192"/>
<text text-anchor="middle" x="70.5" y="-336.9" font-family="Times Roman,serif" font-size="14.00">b</text>
</g>
<!-- q4&#45;&gt;q4 -->
<g id="edge16" class="edge"><title>q4&#45;&gt;q4</title>
<path fill="none" stroke="black" d="M112.532,-304.121C123.508,-304.895 133,-302.188 133,-296 133,-291.843 128.715,-289.257 122.574,-288.242"/>
<polygon fill="black" stroke="black" points="122.652,-284.742 112.532,-287.879 122.4,-291.738 122.652,-284.742"/>
<text text-anchor="middle" x="137.5" y="-291.9" font-family="Times Roman,serif" font-size="14.00">a</text>
</g>
<!-- q2 -->
<g id="node8" class="node"><title>q2</title>
<ellipse fill="none" stroke="black" cx="32" cy="-206" rx="27" ry="18"/>
<text text-anchor="middle" x="32" y="-201.9" font-family="Times Roman,serif" font-size="14.00">q2</text>
</g>
<!-- q4&#45;&gt;q2 -->
<g id="edge14" class="edge"><title>q4&#45;&gt;q2</title>
<path fill="none" stroke="black" d="M77.4668,-279.072C69.1757,-265.747 57.4825,-246.954 48.0308,-231.764"/>
<polygon fill="black" stroke="black" points="50.7407,-229.494 42.4859,-222.852 44.7973,-233.192 50.7407,-229.494"/>
<text text-anchor="middle" x="70.5" y="-246.9" font-family="Times Roman,serif" font-size="14.00">b</text>
</g>
<!-- q2&#45;&gt;q7 -->
<g id="edge10" class="edge"><title>q2&#45;&gt;q7</title>
<path fill="none" stroke="black" d="M32,-224.031C32,-255.357 32,-320.061 32,-357.514"/>
<polygon fill="black" stroke="black" points="28.5001,-357.75 32,-367.75 35.5001,-357.75 28.5001,-357.75"/>
<text text-anchor="middle" x="36.5" y="-291.9" font-family="Times Roman,serif" font-size="14.00">b</text>
</g>
<!-- q0 -->
<g id="node11" class="node"><title>q0</title>
<ellipse fill="none" stroke="black" cx="27" cy="-116" rx="27" ry="18"/>
<text text-anchor="middle" x="27" y="-111.9" font-family="Times Roman,serif" font-size="14.00">q0</text>
</g>
<!-- q2&#45;&gt;q0 -->
<g id="edge12" class="edge"><title>q2&#45;&gt;q0</title>
<path fill="none" stroke="black" d="M30.9882,-187.787C30.2969,-175.344 29.367,-158.605 28.5789,-144.421"/>
<polygon fill="black" stroke="black" points="32.0597,-143.976 28.0103,-134.186 25.0705,-144.365 32.0597,-143.976"/>
<text text-anchor="middle" x="34.5" y="-156.9" font-family="Times Roman,serif" font-size="14.00">a</text>
</g>
<!-- q0&#45;&gt;q0 -->
<g id="edge24" class="edge"><title>q0&#45;&gt;q0</title>
<path fill="none" stroke="black" d="M51.5325,-124.121C62.5078,-124.895 72,-122.188 72,-116 72,-111.843 67.7151,-109.257 61.5743,-108.242"/>
<polygon fill="black" stroke="black" points="61.6524,-104.742 51.5325,-107.879 61.3995,-111.738 61.6524,-104.742"/>
<text text-anchor="middle" x="76.5" y="-111.9" font-family="Times Roman,serif" font-size="14.00">a</text>
</g>
<!-- q3 -->
<g id="node14" class="node"><title>q3</title>
<ellipse fill="none" stroke="black" cx="59" cy="-22" rx="27" ry="18"/>
<ellipse fill="none" stroke="black" cx="59" cy="-22" rx="31" ry="22"/>
<text text-anchor="middle" x="59" y="-17.9" font-family="Times Roman,serif" font-size="14.00">q3</text>
</g>
<!-- q0&#45;&gt;q3 -->
<g id="edge22" class="edge"><title>q0&#45;&gt;q3</title>
<path fill="none" stroke="black" d="M33.019,-98.3193C37.3143,-85.7017 43.2076,-68.3903 48.2955,-53.4444"/>
<polygon fill="black" stroke="black" points="51.7504,-54.1563 51.6598,-43.5618 45.1238,-51.9004 51.7504,-54.1563"/>
<text text-anchor="middle" x="49.5" y="-66.9" font-family="Times Roman,serif" font-size="14.00">b</text>
</g>
<!-- q3&#45;&gt;q4 -->
<g id="edge18" class="edge"><title>q3&#45;&gt;q4</title>
<path fill="none" stroke="black" d="M69.9619,-42.6132C77.2496,-57.5289 86.1609,-78.4231 90,-98 101.701,-157.666 96.2787,-229.4 91.8088,-268.045"/>
<polygon fill="black" stroke="black" points="88.3276,-267.679 90.5884,-278.03 95.2759,-268.528 88.3276,-267.679"/>
<text text-anchor="middle" x="101.5" y="-156.9" font-family="Times Roman,serif" font-size="14.00">b</text>
</g>
<!-- q3&#45;&gt;q0 -->
<g id="edge20" class="edge"><title>q3&#45;&gt;q0</title>
<path fill="none" stroke="black" d="M41.0947,-40.0219C35.8645,-46.4317 30.8041,-54.0454 28,-62 25.1505,-70.0833 24.2084,-79.2786 24.1749,-87.7613"/>
<polygon fill="black" stroke="black" points="20.6854,-88.12 24.5431,-97.9876 27.6809,-87.8681 20.6854,-88.12"/>
<text text-anchor="middle" x="32.5" y="-66.9" font-family="Times Roman,serif" font-size="14.00">a</text>
</g>
</g>
</svg>
