<?xml version="1.0" encoding="UTF-8" standalone="no"?>
<!DOCTYPE svg PUBLIC "-//W3C//DTD SVG 1.1//EN"
 "http://www.w3.org/Graphics/SVG/1.1/DTD/svg11.dtd">
<!-- Generated by graphviz version 2.26.3 (20100126.1600)
 -->
<!-- Title: G Pages: 1 -->
<svg width="350pt" height="422pt"
 viewBox="0.00 0.00 350.00 422.00" xmlns="http://www.w3.org/2000/svg" xmlns:xlink="http://www.w3.org/1999/xlink">
<g id="graph1" class="graph" transform="scale(1 1) rotate(0) translate(4 418)">
<title>G</title>
<polygon fill="white" stroke="white" points="-4,5 -4,-418 347,-418 347,5 -4,5"/>
<!-- q0 -->
<g id="node1" class="node"><title>q0</title>
<ellipse fill="none" stroke="black" cx="238" cy="-395" rx="27" ry="18.3848"/>
<text text-anchor="middle" x="238" y="-391.4" font-family="Times Roman,serif" font-size="14.00">q0</text>
</g>
<!-- q0&#45;&gt;q0 -->
<g id="edge2" class="edge"><title>q0&#45;&gt;q0</title>
<path fill="none" stroke="black" d="M262.074,-403.454C273.242,-404.377 283,-401.559 283,-395 283,-390.593 278.595,-387.875 272.317,-386.846"/>
<polygon fill="black" stroke="black" points="272.173,-383.34 262.074,-386.546 271.967,-390.337 272.173,-383.34"/>
<text text-anchor="middle" x="287.5" y="-391.4" font-family="Times Roman,serif" font-size="14.00">b</text>
</g>
<!-- q2 -->
<g id="node4" class="node"><title>q2</title>
<ellipse fill="none" stroke="black" cx="70" cy="-303" rx="27" ry="18.3848"/>
<text text-anchor="middle" x="70" y="-299.4" font-family="Times Roman,serif" font-size="14.00">q2</text>
</g>
<!-- q0&#45;&gt;q2 -->
<g id="edge4" class="edge"><title>q0&#45;&gt;q2</title>
<path fill="none" stroke="black" d="M216.723,-383.348C187.184,-367.172 133.605,-337.831 100.013,-319.435"/>
<polygon fill="black" stroke="black" points="101.557,-316.291 91.1046,-314.557 98.1944,-322.43 101.557,-316.291"/>
<text text-anchor="middle" x="174.5" y="-345.4" font-family="Times Roman,serif" font-size="14.00">a</text>
</g>
<!-- q7 -->
<g id="node11" class="node"><title>q7</title>
<ellipse fill="none" stroke="black" cx="27" cy="-19" rx="27" ry="18.3848"/>
<text text-anchor="middle" x="27" y="-15.4" font-family="Times Roman,serif" font-size="14.00">q7</text>
</g>
<!-- q2&#45;&gt;q7 -->
<g id="edge10" class="edge"><title>q2&#45;&gt;q7</title>
<path fill="none" stroke="black" d="M64.1736,-284.888C59.6687,-270.23 53.6101,-248.976 50,-230 37.7043,-165.367 31.3719,-88.2541 28.6656,-47.5082"/>
<polygon fill="black" stroke="black" points="32.1562,-47.2472 28.0253,-37.4909 25.1704,-47.6938 32.1562,-47.2472"/>
<text text-anchor="middle" x="45.5" y="-161.4" font-family="Times Roman,serif" font-size="14.00">b</text>
</g>
<!-- q4 -->
<g id="node13" class="node"><title>q4</title>
<ellipse fill="none" stroke="black" cx="86" cy="-211" rx="27" ry="18.3848"/>
<text text-anchor="middle" x="86" y="-207.4" font-family="Times Roman,serif" font-size="14.00">q4</text>
</g>
<!-- q2&#45;&gt;q4 -->
<g id="edge12" class="edge"><title>q2&#45;&gt;q4</title>
<path fill="none" stroke="black" d="M73.2378,-284.382C75.4716,-271.538 78.4842,-254.216 81.0214,-239.627"/>
<polygon fill="black" stroke="black" points="84.5017,-240.042 82.767,-229.59 77.6052,-238.842 84.5017,-240.042"/>
<text text-anchor="middle" x="84.5" y="-253.4" font-family="Times Roman,serif" font-size="14.00">a</text>
</g>
<!-- q1 -->
<g id="node5" class="node"><title>q1</title>
<ellipse fill="none" stroke="black" cx="167" cy="-303" rx="27" ry="18.3848"/>
<text text-anchor="middle" x="167" y="-299.4" font-family="Times Roman,serif" font-size="14.00">q1</text>
</g>
<!-- q3 -->
<g id="node7" class="node"><title>q3</title>
<ellipse fill="none" stroke="black" cx="231" cy="-211" rx="27" ry="18.3848"/>
<text text-anchor="middle" x="231" y="-207.4" font-family="Times Roman,serif" font-size="14.00">q3</text>
</g>
<!-- q1&#45;&gt;q3 -->
<g id="edge6" class="edge"><title>q1&#45;&gt;q3</title>
<path fill="none" stroke="black" d="M178.739,-286.126C188.482,-272.12 202.483,-251.994 213.541,-236.098"/>
<polygon fill="black" stroke="black" points="216.498,-237.975 219.336,-227.767 210.752,-233.978 216.498,-237.975"/>
<text text-anchor="middle" x="209.5" y="-253.4" font-family="Times Roman,serif" font-size="14.00">b</text>
</g>
<!-- q8 -->
<g id="node9" class="node"><title>q8</title>
<ellipse fill="none" stroke="black" cx="86" cy="-115" rx="27" ry="18.3848"/>
<ellipse fill="none" stroke="black" cx="86" cy="-115" rx="31" ry="22.3848"/>
<text text-anchor="middle" x="86" y="-111.4" font-family="Times Roman,serif" font-size="14.00">q8</text>
</g>
<!-- q1&#45;&gt;q8 -->
<g id="edge8" class="edge"><title>q1&#45;&gt;q8</title>
<path fill="none" stroke="black" d="M159.961,-284.806C151.339,-262.719 136.131,-224.403 122,-192 115.29,-176.614 107.435,-159.698 100.778,-145.65"/>
<polygon fill="black" stroke="black" points="103.849,-143.96 96.389,-136.437 97.5298,-146.97 103.849,-143.96"/>
<text text-anchor="middle" x="142.5" y="-207.4" font-family="Times Roman,serif" font-size="14.00">a</text>
</g>
<!-- q5 -->
<g id="node15" class="node"><title>q5</title>
<ellipse fill="none" stroke="black" cx="216" cy="-115" rx="27" ry="18.3848"/>
<text text-anchor="middle" x="216" y="-111.4" font-family="Times Roman,serif" font-size="14.00">q5</text>
</g>
<!-- q3&#45;&gt;q5 -->
<g id="edge14" class="edge"><title>q3&#45;&gt;q5</title>
<path fill="none" stroke="black" d="M229.467,-192.348C228.464,-181.668 226.972,-168.038 225,-156 224.33,-151.91 223.513,-147.613 222.649,-143.404"/>
<polygon fill="black" stroke="black" points="225.995,-142.319 220.455,-133.288 219.154,-143.802 225.995,-142.319"/>
<text text-anchor="middle" x="232.5" y="-161.4" font-family="Times Roman,serif" font-size="14.00">b</text>
</g>
<!-- q9 -->
<g id="node17" class="node"><title>q9</title>
<ellipse fill="none" stroke="black" cx="315" cy="-115" rx="27" ry="18.3848"/>
<text text-anchor="middle" x="315" y="-111.4" font-family="Times Roman,serif" font-size="14.00">q9</text>
</g>
<!-- q3&#45;&gt;q9 -->
<g id="edge16" class="edge"><title>q3&#45;&gt;q9</title>
<path fill="none" stroke="black" d="M245.249,-194.715C258.726,-179.313 279.101,-156.027 294.356,-138.593"/>
<polygon fill="black" stroke="black" points="297.01,-140.875 300.961,-131.045 291.742,-136.266 297.01,-140.875"/>
<text text-anchor="middle" x="283.5" y="-161.4" font-family="Times Roman,serif" font-size="14.00">a</text>
</g>
<!-- q8&#45;&gt;q8 -->
<g id="edge30" class="edge"><title>q8&#45;&gt;q8</title>
<path fill="none" stroke="black" d="M116.625,-119.688C126.833,-119.688 135,-118.125 135,-115 135,-113.047 131.81,-111.704 126.925,-110.972"/>
<polygon fill="black" stroke="black" points="126.828,-107.458 116.625,-110.312 126.381,-114.444 126.828,-107.458"/>
<text text-anchor="middle" x="139.5" y="-111.4" font-family="Times Roman,serif" font-size="14.00">b</text>
</g>
<!-- q8&#45;&gt;q8 -->
<g id="edge32" class="edge"><title>q8&#45;&gt;q8</title>
<path fill="none" stroke="black" d="M109.347,-129.951C130.424,-137.224 153,-132.24 153,-115 153,-100.454 136.928,-94.6328 119.245,-97.5379"/>
<polygon fill="black" stroke="black" points="118.179,-94.1973 109.347,-100.049 119.901,-100.982 118.179,-94.1973"/>
<text text-anchor="middle" x="157.5" y="-111.4" font-family="Times Roman,serif" font-size="14.00">a</text>
</g>
<!-- q7&#45;&gt;q2 -->
<g id="edge26" class="edge"><title>q7&#45;&gt;q2</title>
<path fill="none" stroke="black" d="M26.393,-37.8209C26.2315,-43.6475 26.0799,-50.0887 26,-56 25.2915,-108.44 19.5922,-121.948 26,-174 29.1346,-199.463 33.1382,-205.28 40,-230 44.4748,-246.121 44.7095,-250.497 51,-266 52.4135,-269.484 54.038,-273.081 55.729,-276.601"/>
<polygon fill="black" stroke="black" points="52.6404,-278.249 60.262,-285.609 58.8933,-275.103 52.6404,-278.249"/>
<text text-anchor="middle" x="30.5" y="-161.4" font-family="Times Roman,serif" font-size="14.00">b</text>
</g>
<!-- q7&#45;&gt;q7 -->
<g id="edge28" class="edge"><title>q7&#45;&gt;q7</title>
<path fill="none" stroke="black" d="M51.0743,-27.4544C62.2423,-28.3767 72,-25.5586 72,-19 72,-14.5934 67.5952,-11.8754 61.3174,-10.8458"/>
<polygon fill="black" stroke="black" points="61.1726,-7.34018 51.0743,-10.5456 60.9674,-14.3372 61.1726,-7.34018"/>
<text text-anchor="middle" x="76.5" y="-15.4" font-family="Times Roman,serif" font-size="14.00">a</text>
</g>
<!-- q4&#45;&gt;q8 -->
<g id="edge18" class="edge"><title>q4&#45;&gt;q8</title>
<path fill="none" stroke="black" d="M86,-192.49C86,-179.863 86,-162.791 86,-147.885"/>
<polygon fill="black" stroke="black" points="89.5001,-147.508 86,-137.508 82.5001,-147.508 89.5001,-147.508"/>
<text text-anchor="middle" x="90.5" y="-161.4" font-family="Times Roman,serif" font-size="14.00">b</text>
</g>
<!-- q4&#45;&gt;q9 -->
<g id="edge20" class="edge"><title>q4&#45;&gt;q9</title>
<path fill="none" stroke="black" d="M107.022,-199.213C129.637,-186.951 166.949,-167.909 201,-156 234.583,-144.254 246.198,-151.778 279,-138 281.848,-136.804 284.723,-135.387 287.54,-133.855"/>
<polygon fill="black" stroke="black" points="289.427,-136.805 296.238,-128.689 285.853,-130.786 289.427,-136.805"/>
<text text-anchor="middle" x="205.5" y="-161.4" font-family="Times Roman,serif" font-size="14.00">a</text>
</g>
<!-- q5&#45;&gt;q3 -->
<g id="edge24" class="edge"><title>q5&#45;&gt;q3</title>
<path fill="none" stroke="black" d="M214.194,-133.512C213.494,-145.226 213.393,-160.629 216,-174 216.637,-177.266 217.562,-180.607 218.645,-183.882"/>
<polygon fill="black" stroke="black" points="215.421,-185.251 222.239,-193.361 221.967,-182.769 215.421,-185.251"/>
<text text-anchor="middle" x="220.5" y="-161.4" font-family="Times Roman,serif" font-size="14.00">a</text>
</g>
<!-- q5&#45;&gt;q5 -->
<g id="edge22" class="edge"><title>q5&#45;&gt;q5</title>
<path fill="none" stroke="black" d="M239.615,-124.146C250.973,-125.275 261,-122.227 261,-115 261,-110.145 256.474,-107.175 250.058,-106.092"/>
<polygon fill="black" stroke="black" points="249.692,-102.583 239.615,-105.854 249.532,-109.581 249.692,-102.583"/>
<text text-anchor="middle" x="265.5" y="-111.4" font-family="Times Roman,serif" font-size="14.00">b</text>
</g>
<!-- q9&#45;&gt;q0 -->
<g id="edge34" class="edge"><title>q9&#45;&gt;q0</title>
<path fill="none" stroke="black" d="M309.929,-133.439C296.774,-181.277 261.483,-309.608 245.752,-366.811"/>
<polygon fill="black" stroke="black" points="242.329,-366.058 243.052,-376.628 249.079,-367.914 242.329,-366.058"/>
<text text-anchor="middle" x="283.5" y="-253.4" font-family="Times Roman,serif" font-size="14.00">b</text>
</g>
<!-- q9&#45;&gt;q7 -->
<g id="edge36" class="edge"><title>q9&#45;&gt;q7</title>
<path fill="none" stroke="black" d="M296.145,-101.524C290.78,-98.0904 284.81,-94.6313 279,-92 205.594,-58.756 113.294,-36.5964 63.2726,-26.0778"/>
<polygon fill="black" stroke="black" points="63.7635,-22.6054 53.2622,-24.0101 62.3475,-29.4607 63.7635,-22.6054"/>
<text text-anchor="middle" x="237.5" y="-61.4" font-family="Times Roman,serif" font-size="14.00">a</text>
</g>
</g>
</svg>
