<?xml version="1.0" encoding="UTF-8" standalone="no"?>
<!DOCTYPE svg PUBLIC "-//W3C//DTD SVG 1.1//EN"
 "http://www.w3.org/Graphics/SVG/1.1/DTD/svg11.dtd">
<!-- Generated by graphviz version 2.26.3 (20100126.1600)
 -->
<!-- Title: G Pages: 1 -->
<svg width="238pt" height="514pt"
 viewBox="0.00 0.00 238.00 514.00" xmlns="http://www.w3.org/2000/svg" xmlns:xlink="http://www.w3.org/1999/xlink">
<g id="graph1" class="graph" transform="scale(1 1) rotate(0) translate(4 510)">
<title>G</title>
<polygon fill="white" stroke="white" points="-4,5 -4,-510 235,-510 235,5 -4,5"/>
<!-- q6 -->
<g id="node1" class="node"><title>q6</title>
<ellipse fill="none" stroke="black" cx="94" cy="-487" rx="27" ry="18.3848"/>
<text text-anchor="middle" x="94" y="-483.4" font-family="Times Roman,serif" font-size="14.00">q6</text>
</g>
<!-- q4 -->
<g id="node3" class="node"><title>q4</title>
<ellipse fill="none" stroke="black" cx="126" cy="-395" rx="27" ry="18.3848"/>
<text text-anchor="middle" x="126" y="-391.4" font-family="Times Roman,serif" font-size="14.00">q4</text>
</g>
<!-- q6&#45;&gt;q4 -->
<g id="edge2" class="edge"><title>q6&#45;&gt;q4</title>
<path fill="none" stroke="black" d="M100.322,-468.824C104.88,-455.719 111.117,-437.789 116.303,-422.88"/>
<polygon fill="black" stroke="black" points="119.711,-423.733 119.691,-413.138 113.1,-421.434 119.711,-423.733"/>
<text text-anchor="middle" x="116.5" y="-437.4" font-family="Times Roman,serif" font-size="14.00">b</text>
</g>
<!-- q3 -->
<g id="node5" class="node"><title>q3</title>
<ellipse fill="none" stroke="black" cx="27" cy="-299" rx="27" ry="18.3848"/>
<text text-anchor="middle" x="27" y="-295.4" font-family="Times Roman,serif" font-size="14.00">q3</text>
</g>
<!-- q6&#45;&gt;q3 -->
<g id="edge4" class="edge"><title>q6&#45;&gt;q3</title>
<path fill="none" stroke="black" d="M77.3471,-472.174C70.786,-465.781 63.5168,-457.953 58,-450 32.511,-413.253 27.0895,-360.138 26.3977,-327.683"/>
<polygon fill="black" stroke="black" points="29.8965,-327.495 26.3223,-317.521 22.8967,-327.547 29.8965,-327.495"/>
<text text-anchor="middle" x="44.5" y="-391.4" font-family="Times Roman,serif" font-size="14.00">a</text>
</g>
<!-- q4&#45;&gt;q3 -->
<g id="edge24" class="edge"><title>q4&#45;&gt;q3</title>
<path fill="none" stroke="black" d="M115.437,-377.478C108.047,-366.052 97.4756,-351.232 86,-340 80.7127,-334.825 67.657,-325.643 55.1675,-317.278"/>
<polygon fill="black" stroke="black" points="56.9833,-314.282 46.7139,-311.676 53.1169,-320.118 56.9833,-314.282"/>
<text text-anchor="middle" x="104.5" y="-345.4" font-family="Times Roman,serif" font-size="14.00">a</text>
</g>
<!-- q7 -->
<g id="node10" class="node"><title>q7</title>
<ellipse fill="none" stroke="black" cx="139" cy="-203" rx="27" ry="18.3848"/>
<text text-anchor="middle" x="139" y="-199.4" font-family="Times Roman,serif" font-size="14.00">q7</text>
</g>
<!-- q4&#45;&gt;q7 -->
<g id="edge22" class="edge"><title>q4&#45;&gt;q7</title>
<path fill="none" stroke="black" d="M131.518,-376.603C135.607,-361.964 140.831,-340.874 143,-322 146.52,-291.369 144.58,-256.035 142.348,-231.876"/>
<polygon fill="black" stroke="black" points="145.8,-231.221 141.32,-221.62 138.835,-231.919 145.8,-231.221"/>
<text text-anchor="middle" x="148.5" y="-295.4" font-family="Times Roman,serif" font-size="14.00">b</text>
</g>
<!-- q3&#45;&gt;q6 -->
<g id="edge28" class="edge"><title>q3&#45;&gt;q6</title>
<path fill="none" stroke="black" d="M33.6131,-316.947C36.2409,-324.111 39.2801,-332.44 42,-340 56.9202,-381.47 73.8941,-429.646 84.2752,-459.227"/>
<polygon fill="black" stroke="black" points="81.0459,-460.595 87.6581,-468.873 87.6515,-458.278 81.0459,-460.595"/>
<text text-anchor="middle" x="72.5" y="-391.4" font-family="Times Roman,serif" font-size="14.00">a</text>
</g>
<!-- q2 -->
<g id="node8" class="node"><title>q2</title>
<ellipse fill="none" stroke="black" cx="40" cy="-203" rx="27" ry="18.3848"/>
<text text-anchor="middle" x="40" y="-199.4" font-family="Times Roman,serif" font-size="14.00">q2</text>
</g>
<!-- q3&#45;&gt;q2 -->
<g id="edge26" class="edge"><title>q3&#45;&gt;q2</title>
<path fill="none" stroke="black" d="M29.5065,-280.49C31.3769,-266.678 33.9676,-247.547 36.1067,-231.75"/>
<polygon fill="black" stroke="black" points="39.6275,-231.832 37.5012,-221.453 32.6908,-230.893 39.6275,-231.832"/>
<text text-anchor="middle" x="39.5" y="-245.4" font-family="Times Roman,serif" font-size="14.00">b</text>
</g>
<!-- q5 -->
<g id="node6" class="node"><title>q5</title>
<ellipse fill="none" stroke="black" cx="40" cy="-19" rx="27" ry="18.3848"/>
<text text-anchor="middle" x="40" y="-15.4" font-family="Times Roman,serif" font-size="14.00">q5</text>
</g>
<!-- q5&#45;&gt;q3 -->
<g id="edge8" class="edge"><title>q5&#45;&gt;q3</title>
<path fill="none" stroke="black" d="M32.921,-36.8631C19.8098,-72.1406 -6.04241,-153.292 4,-222 6.43548,-238.663 11.6874,-256.731 16.5585,-271.174"/>
<polygon fill="black" stroke="black" points="13.3836,-272.698 19.9924,-280.979 19.9901,-270.384 13.3836,-272.698"/>
<text text-anchor="middle" x="9.5" y="-153.4" font-family="Times Roman,serif" font-size="14.00">a</text>
</g>
<!-- q5&#45;&gt;q2 -->
<g id="edge6" class="edge"><title>q5&#45;&gt;q2</title>
<path fill="none" stroke="black" d="M40,-37.7049C40,-69.8374 40,-135.739 40,-173.91"/>
<polygon fill="black" stroke="black" points="36.5001,-174.344 40,-184.345 43.5001,-174.345 36.5001,-174.344"/>
<text text-anchor="middle" x="44.5" y="-107.4" font-family="Times Roman,serif" font-size="14.00">b</text>
</g>
<!-- q2&#45;&gt;q2 -->
<g id="edge14" class="edge"><title>q2&#45;&gt;q2</title>
<path fill="none" stroke="black" d="M64.0743,-211.454C75.2423,-212.377 85,-209.559 85,-203 85,-198.593 80.5952,-195.875 74.3174,-194.846"/>
<polygon fill="black" stroke="black" points="74.1726,-191.34 64.0743,-194.546 73.9674,-198.337 74.1726,-191.34"/>
<text text-anchor="middle" x="89.5" y="-199.4" font-family="Times Roman,serif" font-size="14.00">b</text>
</g>
<!-- q1 -->
<g id="node13" class="node"><title>q1</title>
<ellipse fill="none" stroke="black" cx="100" cy="-111" rx="27" ry="18.3848"/>
<text text-anchor="middle" x="100" y="-107.4" font-family="Times Roman,serif" font-size="14.00">q1</text>
</g>
<!-- q2&#45;&gt;q1 -->
<g id="edge16" class="edge"><title>q2&#45;&gt;q1</title>
<path fill="none" stroke="black" d="M51.2855,-185.696C60.3094,-171.859 73.0947,-152.255 83.303,-136.602"/>
<polygon fill="black" stroke="black" points="86.4367,-138.204 88.9678,-127.916 80.5734,-134.38 86.4367,-138.204"/>
<text text-anchor="middle" x="79.5" y="-153.4" font-family="Times Roman,serif" font-size="14.00">a</text>
</g>
<!-- q7&#45;&gt;q7 -->
<g id="edge10" class="edge"><title>q7&#45;&gt;q7</title>
<path fill="none" stroke="black" d="M163.074,-211.454C174.242,-212.377 184,-209.559 184,-203 184,-198.593 179.595,-195.875 173.317,-194.846"/>
<polygon fill="black" stroke="black" points="173.173,-191.34 163.074,-194.546 172.967,-198.337 173.173,-191.34"/>
<text text-anchor="middle" x="188.5" y="-199.4" font-family="Times Roman,serif" font-size="14.00">b</text>
</g>
<!-- q7&#45;&gt;q1 -->
<g id="edge12" class="edge"><title>q7&#45;&gt;q1</title>
<path fill="none" stroke="black" d="M131.295,-184.824C125.65,-171.507 117.892,-153.207 111.513,-138.159"/>
<polygon fill="black" stroke="black" points="114.682,-136.666 107.556,-128.825 108.237,-139.398 114.682,-136.666"/>
<text text-anchor="middle" x="126.5" y="-153.4" font-family="Times Roman,serif" font-size="14.00">a</text>
</g>
<!-- q1&#45;&gt;q6 -->
<g id="edge20" class="edge"><title>q1&#45;&gt;q6</title>
<path fill="none" stroke="black" d="M125.366,-117.857C160.847,-129.168 221,-155.367 221,-203 221,-395 221,-395 221,-395 221,-440.487 166.909,-465.786 129.329,-477.874"/>
<polygon fill="black" stroke="black" points="128.249,-474.545 119.7,-480.804 130.286,-481.242 128.249,-474.545"/>
<text text-anchor="middle" x="225.5" y="-295.4" font-family="Times Roman,serif" font-size="14.00">a</text>
</g>
<!-- q1&#45;&gt;q5 -->
<g id="edge18" class="edge"><title>q1&#45;&gt;q5</title>
<path fill="none" stroke="black" d="M88.7145,-93.6955C79.6906,-79.8589 66.9053,-60.2548 56.697,-44.6021"/>
<polygon fill="black" stroke="black" points="59.4266,-42.3802 51.0322,-35.9161 53.5633,-46.2041 59.4266,-42.3802"/>
<text text-anchor="middle" x="79.5" y="-61.4" font-family="Times Roman,serif" font-size="14.00">b</text>
</g>
<!-- q0 -->
<g id="node22" class="node"><title>q0</title>
<ellipse fill="none" stroke="black" cx="103" cy="-299" rx="27" ry="18.3848"/>
<ellipse fill="none" stroke="black" cx="103" cy="-299" rx="31" ry="22.3848"/>
<text text-anchor="middle" x="103" y="-295.4" font-family="Times Roman,serif" font-size="14.00">q0</text>
</g>
<!-- q0&#45;&gt;q2 -->
<g id="edge32" class="edge"><title>q0&#45;&gt;q2</title>
<path fill="none" stroke="black" d="M89.6393,-278.641C80.0982,-264.102 67.189,-244.431 56.9268,-228.793"/>
<polygon fill="black" stroke="black" points="59.6487,-226.562 51.2359,-220.121 53.7963,-230.402 59.6487,-226.562"/>
<text text-anchor="middle" x="79.5" y="-245.4" font-family="Times Roman,serif" font-size="14.00">a</text>
</g>
<!-- q0&#45;&gt;q7 -->
<g id="edge30" class="edge"><title>q0&#45;&gt;q7</title>
<path fill="none" stroke="black" d="M111.169,-277.216C116.327,-263.462 123.038,-245.565 128.578,-230.793"/>
<polygon fill="black" stroke="black" points="131.958,-231.746 132.192,-221.154 125.404,-229.288 131.958,-231.746"/>
<text text-anchor="middle" x="128.5" y="-245.4" font-family="Times Roman,serif" font-size="14.00">b</text>
</g>
</g>
</svg>
