<?xml version="1.0" encoding="UTF-8" standalone="no"?>
<!DOCTYPE svg PUBLIC "-//W3C//DTD SVG 1.1//EN"
 "http://www.w3.org/Graphics/SVG/1.1/DTD/svg11.dtd">
<!-- Generated by graphviz version 2.26.3 (20100126.1600)
 -->
<!-- Title: G Pages: 1 -->
<svg width="167pt" height="502pt"
 viewBox="0.00 0.00 167.00 502.00" xmlns="http://www.w3.org/2000/svg" xmlns:xlink="http://www.w3.org/1999/xlink">
<g id="graph1" class="graph" transform="scale(1 1) rotate(0) translate(4 498)">
<title>G</title>
<polygon fill="white" stroke="white" points="-4,5 -4,-498 164,-498 164,5 -4,5"/>
<!-- q6 -->
<g id="node1" class="node"><title>q6</title>
<ellipse fill="none" stroke="black" cx="105" cy="-476" rx="27" ry="18"/>
<text text-anchor="middle" x="105" y="-471.9" font-family="Times Roman,serif" font-size="14.00">q6</text>
</g>
<!-- q6&#45;&gt;q6 -->
<g id="edge2" class="edge"><title>q6&#45;&gt;q6</title>
<path fill="none" stroke="black" d="M129.532,-484.121C140.508,-484.895 150,-482.188 150,-476 150,-471.843 145.715,-469.257 139.574,-468.242"/>
<polygon fill="black" stroke="black" points="139.652,-464.742 129.532,-467.879 139.4,-471.738 139.652,-464.742"/>
<text text-anchor="middle" x="154.5" y="-471.9" font-family="Times Roman,serif" font-size="14.00">b</text>
</g>
<!-- q4 -->
<g id="node4" class="node"><title>q4</title>
<ellipse fill="none" stroke="black" cx="105" cy="-386" rx="27" ry="18"/>
<text text-anchor="middle" x="105" y="-381.9" font-family="Times Roman,serif" font-size="14.00">q4</text>
</g>
<!-- q6&#45;&gt;q4 -->
<g id="edge4" class="edge"><title>q6&#45;&gt;q4</title>
<path fill="none" stroke="black" d="M105,-457.787C105,-445.344 105,-428.605 105,-414.421"/>
<polygon fill="black" stroke="black" points="108.5,-414.186 105,-404.186 101.5,-414.186 108.5,-414.186"/>
<text text-anchor="middle" x="109.5" y="-426.9" font-family="Times Roman,serif" font-size="14.00">a</text>
</g>
<!-- q2 -->
<g id="node9" class="node"><title>q2</title>
<ellipse fill="none" stroke="black" cx="73" cy="-296" rx="27" ry="18"/>
<text text-anchor="middle" x="73" y="-291.9" font-family="Times Roman,serif" font-size="14.00">q2</text>
</g>
<!-- q4&#45;&gt;q2 -->
<g id="edge18" class="edge"><title>q4&#45;&gt;q2</title>
<path fill="none" stroke="black" d="M88.4275,-371.472C82.7494,-365.458 77.0595,-358.014 74,-350 70.943,-341.993 69.9415,-332.819 69.9174,-324.333"/>
<polygon fill="black" stroke="black" points="73.4246,-324.224 70.3285,-314.091 66.4302,-323.943 73.4246,-324.224"/>
<text text-anchor="middle" x="78.5" y="-336.9" font-family="Times Roman,serif" font-size="14.00">b</text>
</g>
<!-- q3 -->
<g id="node14" class="node"><title>q3</title>
<ellipse fill="none" stroke="black" cx="77" cy="-18" rx="27" ry="18"/>
<text text-anchor="middle" x="77" y="-13.9" font-family="Times Roman,serif" font-size="14.00">q3</text>
</g>
<!-- q4&#45;&gt;q3 -->
<g id="edge20" class="edge"><title>q4&#45;&gt;q3</title>
<path fill="none" stroke="black" d="M114.639,-369.009C123.739,-351.344 136,-322.607 136,-296 136,-296 136,-296 136,-112 136,-84.0964 117.119,-57.6812 100.719,-40.0001"/>
<polygon fill="black" stroke="black" points="102.918,-37.2416 93.4348,-32.517 97.9018,-42.1241 102.918,-37.2416"/>
<text text-anchor="middle" x="140.5" y="-201.9" font-family="Times Roman,serif" font-size="14.00">a</text>
</g>
<!-- q5 -->
<g id="node5" class="node"><title>q5</title>
<ellipse fill="none" stroke="black" cx="34" cy="-206" rx="27" ry="18"/>
<text text-anchor="middle" x="34" y="-201.9" font-family="Times Roman,serif" font-size="14.00">q5</text>
</g>
<!-- q1 -->
<g id="node7" class="node"><title>q1</title>
<ellipse fill="none" stroke="black" cx="31" cy="-112" rx="27" ry="18"/>
<ellipse fill="none" stroke="black" cx="31" cy="-112" rx="31" ry="22"/>
<text text-anchor="middle" x="31" y="-107.9" font-family="Times Roman,serif" font-size="14.00">q1</text>
</g>
<!-- q5&#45;&gt;q1 -->
<g id="edge6" class="edge"><title>q5&#45;&gt;q1</title>
<path fill="none" stroke="black" d="M23.1242,-189.47C19.8398,-183.574 16.6652,-176.723 15,-170 12.7556,-160.939 14.028,-151.136 16.6354,-142.213"/>
<polygon fill="black" stroke="black" points="20.0006,-143.195 20.0301,-132.6 13.4,-140.864 20.0006,-143.195"/>
<text text-anchor="middle" x="19.5" y="-156.9" font-family="Times Roman,serif" font-size="14.00">b</text>
</g>
<!-- q5&#45;&gt;q2 -->
<g id="edge8" class="edge"><title>q5&#45;&gt;q2</title>
<path fill="none" stroke="black" d="M41.4965,-223.3C47.1556,-236.359 55.0222,-254.513 61.4786,-269.412"/>
<polygon fill="black" stroke="black" points="58.2928,-270.863 65.4804,-278.647 64.7157,-268.08 58.2928,-270.863"/>
<text text-anchor="middle" x="61.5" y="-246.9" font-family="Times Roman,serif" font-size="14.00">a</text>
</g>
<!-- q1&#45;&gt;q5 -->
<g id="edge14" class="edge"><title>q1&#45;&gt;q5</title>
<path fill="none" stroke="black" d="M31.7034,-134.039C32.1201,-147.096 32.6523,-163.773 33.0995,-177.785"/>
<polygon fill="black" stroke="black" points="29.6043,-177.993 33.4216,-187.876 36.6007,-177.769 29.6043,-177.993"/>
<text text-anchor="middle" x="37.5" y="-156.9" font-family="Times Roman,serif" font-size="14.00">b</text>
</g>
<!-- q1&#45;&gt;q3 -->
<g id="edge16" class="edge"><title>q1&#45;&gt;q3</title>
<path fill="none" stroke="black" d="M28.0919,-90.0102C27.5702,-78.696 28.5089,-65.0075 34,-54 37.4063,-47.1717 42.7572,-41.1502 48.5429,-36.0814"/>
<polygon fill="black" stroke="black" points="50.865,-38.7079 56.56,-29.7738 46.5366,-33.2065 50.865,-38.7079"/>
<text text-anchor="middle" x="38.5" y="-58.9" font-family="Times Roman,serif" font-size="14.00">a</text>
</g>
<!-- q2&#45;&gt;q4 -->
<g id="edge10" class="edge"><title>q2&#45;&gt;q4</title>
<path fill="none" stroke="black" d="M79.309,-313.744C83.864,-326.555 90.1001,-344.094 95.2876,-358.684"/>
<polygon fill="black" stroke="black" points="92.0299,-359.969 98.6778,-368.219 98.6254,-357.624 92.0299,-359.969"/>
<text text-anchor="middle" x="95.5" y="-336.9" font-family="Times Roman,serif" font-size="14.00">b</text>
</g>
<!-- q2&#45;&gt;q5 -->
<g id="edge12" class="edge"><title>q2&#45;&gt;q5</title>
<path fill="none" stroke="black" d="M54.9361,-282.085C48.4419,-276.047 41.7898,-268.427 38,-260 34.4756,-252.163 32.958,-243.038 32.4636,-234.544"/>
<polygon fill="black" stroke="black" points="35.9591,-234.214 32.3103,-224.267 28.9599,-234.318 35.9591,-234.214"/>
<text text-anchor="middle" x="42.5" y="-246.9" font-family="Times Roman,serif" font-size="14.00">a</text>
</g>
<!-- q3&#45;&gt;q1 -->
<g id="edge22" class="edge"><title>q3&#45;&gt;q1</title>
<path fill="none" stroke="black" d="M68.5143,-35.3403C62.1293,-48.3879 53.2208,-66.5923 45.6871,-81.9872"/>
<polygon fill="black" stroke="black" points="42.4607,-80.6177 41.2089,-91.1384 48.7482,-83.6946 42.4607,-80.6177"/>
<text text-anchor="middle" x="63.5" y="-58.9" font-family="Times Roman,serif" font-size="14.00">b</text>
</g>
<!-- q3&#45;&gt;q2 -->
<g id="edge24" class="edge"><title>q3&#45;&gt;q2</title>
<path fill="none" stroke="black" d="M76.7366,-36.3075C76.0546,-83.7049 74.2275,-210.689 73.4078,-267.657"/>
<polygon fill="black" stroke="black" points="69.9068,-267.71 73.2625,-277.76 76.9061,-267.811 69.9068,-267.71"/>
<text text-anchor="middle" x="79.5" y="-156.9" font-family="Times Roman,serif" font-size="14.00">a</text>
</g>
</g>
</svg>
