<?xml version="1.0" encoding="UTF-8" standalone="no"?>
<!DOCTYPE svg PUBLIC "-//W3C//DTD SVG 1.1//EN"
 "http://www.w3.org/Graphics/SVG/1.1/DTD/svg11.dtd">
<!-- Generated by graphviz version 2.26.3 (20100126.1600)
 -->
<!-- Title: G Pages: 1 -->
<svg width="251pt" height="698pt"
 viewBox="0.00 0.00 251.00 698.00" xmlns="http://www.w3.org/2000/svg" xmlns:xlink="http://www.w3.org/1999/xlink">
<g id="graph1" class="graph" transform="scale(1 1) rotate(0) translate(4 694)">
<title>G</title>
<polygon fill="white" stroke="white" points="-4,5 -4,-694 248,-694 248,5 -4,5"/>
<!-- q0 -->
<g id="node1" class="node"><title>q0</title>
<ellipse fill="none" stroke="black" cx="55" cy="-487" rx="27" ry="18.3848"/>
<text text-anchor="middle" x="55" y="-483.4" font-family="Times Roman,serif" font-size="14.00">q0</text>
</g>
<!-- q0&#45;&gt;q0 -->
<g id="edge2" class="edge"><title>q0&#45;&gt;q0</title>
<path fill="none" stroke="black" d="M79.0743,-495.454C90.2423,-496.377 100,-493.559 100,-487 100,-482.593 95.5952,-479.875 89.3174,-478.846"/>
<polygon fill="black" stroke="black" points="89.1726,-475.34 79.0743,-478.546 88.9674,-482.337 89.1726,-475.34"/>
<text text-anchor="middle" x="104.5" y="-483.4" font-family="Times Roman,serif" font-size="14.00">b</text>
</g>
<!-- q6 -->
<g id="node4" class="node"><title>q6</title>
<ellipse fill="none" stroke="black" cx="143" cy="-395" rx="27" ry="18.3848"/>
<text text-anchor="middle" x="143" y="-391.4" font-family="Times Roman,serif" font-size="14.00">q6</text>
</g>
<!-- q0&#45;&gt;q6 -->
<g id="edge4" class="edge"><title>q0&#45;&gt;q6</title>
<path fill="none" stroke="black" d="M69.928,-471.393C83.9609,-456.723 105.135,-434.586 121.083,-417.913"/>
<polygon fill="black" stroke="black" points="123.616,-420.329 127.999,-410.683 118.557,-415.49 123.616,-420.329"/>
<text text-anchor="middle" x="110.5" y="-437.4" font-family="Times Roman,serif" font-size="14.00">a</text>
</g>
<!-- q6&#45;&gt;q6 -->
<g id="edge26" class="edge"><title>q6&#45;&gt;q6</title>
<path fill="none" stroke="black" d="M167.074,-403.454C178.242,-404.377 188,-401.559 188,-395 188,-390.593 183.595,-387.875 177.317,-386.846"/>
<polygon fill="black" stroke="black" points="177.173,-383.34 167.074,-386.546 176.967,-390.337 177.173,-383.34"/>
<text text-anchor="middle" x="192.5" y="-391.4" font-family="Times Roman,serif" font-size="14.00">b</text>
</g>
<!-- q7 -->
<g id="node12" class="node"><title>q7</title>
<ellipse fill="none" stroke="black" cx="138" cy="-303" rx="27" ry="18.3848"/>
<text text-anchor="middle" x="138" y="-299.4" font-family="Times Roman,serif" font-size="14.00">q7</text>
</g>
<!-- q6&#45;&gt;q7 -->
<g id="edge28" class="edge"><title>q6&#45;&gt;q7</title>
<path fill="none" stroke="black" d="M141.988,-376.382C141.29,-363.538 140.349,-346.216 139.556,-331.627"/>
<polygon fill="black" stroke="black" points="143.048,-331.385 139.01,-321.59 136.058,-331.765 143.048,-331.385"/>
<text text-anchor="middle" x="144.5" y="-345.4" font-family="Times Roman,serif" font-size="14.00">a</text>
</g>
<!-- q1 -->
<g id="node5" class="node"><title>q1</title>
<ellipse fill="none" stroke="black" cx="48" cy="-671" rx="27" ry="18.3848"/>
<text text-anchor="middle" x="48" y="-667.4" font-family="Times Roman,serif" font-size="14.00">q1</text>
</g>
<!-- q3 -->
<g id="node7" class="node"><title>q3</title>
<ellipse fill="none" stroke="black" cx="161" cy="-579" rx="27" ry="18.3848"/>
<text text-anchor="middle" x="161" y="-575.4" font-family="Times Roman,serif" font-size="14.00">q3</text>
</g>
<!-- q1&#45;&gt;q3 -->
<g id="edge6" class="edge"><title>q1&#45;&gt;q3</title>
<path fill="none" stroke="black" d="M65.6562,-656.625C84.3974,-641.367 114.19,-617.111 135.483,-599.775"/>
<polygon fill="black" stroke="black" points="137.923,-602.302 143.468,-593.274 133.503,-596.874 137.923,-602.302"/>
<text text-anchor="middle" x="118.5" y="-621.4" font-family="Times Roman,serif" font-size="14.00">b</text>
</g>
<!-- q9 -->
<g id="node9" class="node"><title>q9</title>
<ellipse fill="none" stroke="black" cx="68" cy="-23" rx="27" ry="18.3848"/>
<text text-anchor="middle" x="68" y="-19.4" font-family="Times Roman,serif" font-size="14.00">q9</text>
</g>
<!-- q1&#45;&gt;q9 -->
<g id="edge8" class="edge"><title>q1&#45;&gt;q9</title>
<path fill="none" stroke="black" d="M33.5984,-655.023C19.4597,-637.633 0,-608.365 0,-579 0,-579 0,-579 0,-119 0,-88.6628 22.8922,-61.2115 42.1118,-43.5101"/>
<polygon fill="black" stroke="black" points="44.5808,-45.9997 49.7772,-36.7668 39.9572,-40.7439 44.5808,-45.9997"/>
<text text-anchor="middle" x="4.5" y="-345.4" font-family="Times Roman,serif" font-size="14.00">a</text>
</g>
<!-- q3&#45;&gt;q6 -->
<g id="edge16" class="edge"><title>q3&#45;&gt;q6</title>
<path fill="none" stroke="black" d="M159.175,-560.345C156.022,-528.109 149.533,-461.782 145.804,-423.658"/>
<polygon fill="black" stroke="black" points="149.287,-423.317 144.83,-413.705 142.32,-423.998 149.287,-423.317"/>
<text text-anchor="middle" x="157.5" y="-483.4" font-family="Times Roman,serif" font-size="14.00">a</text>
</g>
<!-- q5 -->
<g id="node16" class="node"><title>q5</title>
<ellipse fill="none" stroke="black" cx="199" cy="-487" rx="27" ry="18.3848"/>
<text text-anchor="middle" x="199" y="-483.4" font-family="Times Roman,serif" font-size="14.00">q5</text>
</g>
<!-- q3&#45;&gt;q5 -->
<g id="edge14" class="edge"><title>q3&#45;&gt;q5</title>
<path fill="none" stroke="black" d="M166.192,-560.361C169.422,-549.565 173.922,-535.815 179,-524 180.501,-520.507 182.219,-516.905 184.003,-513.382"/>
<polygon fill="black" stroke="black" points="187.188,-514.847 188.778,-504.372 181.003,-511.569 187.188,-514.847"/>
<text text-anchor="middle" x="183.5" y="-529.4" font-family="Times Roman,serif" font-size="14.00">b</text>
</g>
<!-- q9&#45;&gt;q0 -->
<g id="edge38" class="edge"><title>q9&#45;&gt;q0</title>
<path fill="none" stroke="black" d="M64.0289,-41.3042C60.2059,-60.5475 55,-91.7536 55,-119 55,-395 55,-395 55,-395 55,-416.13 55,-439.99 55,-458.116"/>
<polygon fill="black" stroke="black" points="51.5001,-458.322 55,-468.322 58.5001,-458.322 51.5001,-458.322"/>
<text text-anchor="middle" x="59.5" y="-253.4" font-family="Times Roman,serif" font-size="14.00">b</text>
</g>
<!-- q9&#45;&gt;q7 -->
<g id="edge40" class="edge"><title>q9&#45;&gt;q7</title>
<path fill="none" stroke="black" d="M71.6238,-41.4653C79.7922,-82.3036 100.826,-183.226 125,-266 125.888,-269.039 126.882,-272.195 127.914,-275.325"/>
<polygon fill="black" stroke="black" points="124.7,-276.741 131.261,-285.06 131.32,-274.465 124.7,-276.741"/>
<text text-anchor="middle" x="104.5" y="-161.4" font-family="Times Roman,serif" font-size="14.00">a</text>
</g>
<!-- q2 -->
<g id="node10" class="node"><title>q2</title>
<ellipse fill="none" stroke="black" cx="156" cy="-211" rx="27" ry="18.3848"/>
<text text-anchor="middle" x="156" y="-207.4" font-family="Times Roman,serif" font-size="14.00">q2</text>
</g>
<!-- q2&#45;&gt;q7 -->
<g id="edge10" class="edge"><title>q2&#45;&gt;q7</title>
<path fill="none" stroke="black" d="M152.363,-229.59C149.851,-242.428 146.462,-259.748 143.607,-274.342"/>
<polygon fill="black" stroke="black" points="140.128,-273.896 141.643,-284.382 146.998,-275.241 140.128,-273.896"/>
<text text-anchor="middle" x="152.5" y="-253.4" font-family="Times Roman,serif" font-size="14.00">b</text>
</g>
<!-- q4 -->
<g id="node14" class="node"><title>q4</title>
<ellipse fill="none" stroke="black" cx="156" cy="-119" rx="27" ry="18.3848"/>
<text text-anchor="middle" x="156" y="-115.4" font-family="Times Roman,serif" font-size="14.00">q4</text>
</g>
<!-- q2&#45;&gt;q4 -->
<g id="edge12" class="edge"><title>q2&#45;&gt;q4</title>
<path fill="none" stroke="black" d="M156,-192.382C156,-179.538 156,-162.216 156,-147.627"/>
<polygon fill="black" stroke="black" points="159.5,-147.59 156,-137.59 152.5,-147.59 159.5,-147.59"/>
<text text-anchor="middle" x="160.5" y="-161.4" font-family="Times Roman,serif" font-size="14.00">a</text>
</g>
<!-- q7&#45;&gt;q2 -->
<g id="edge30" class="edge"><title>q7&#45;&gt;q2</title>
<path fill="none" stroke="black" d="M132.495,-284.846C130.059,-273.97 128.457,-259.974 132,-248 133.222,-243.87 135.066,-239.769 137.199,-235.883"/>
<polygon fill="black" stroke="black" points="140.232,-237.634 142.546,-227.295 134.289,-233.934 140.232,-237.634"/>
<text text-anchor="middle" x="136.5" y="-253.4" font-family="Times Roman,serif" font-size="14.00">b</text>
</g>
<!-- q7&#45;&gt;q7 -->
<g id="edge32" class="edge"><title>q7&#45;&gt;q7</title>
<path fill="none" stroke="black" d="M162.074,-311.454C173.242,-312.377 183,-309.559 183,-303 183,-298.593 178.595,-295.875 172.317,-294.846"/>
<polygon fill="black" stroke="black" points="172.173,-291.34 162.074,-294.546 171.967,-298.337 172.173,-291.34"/>
<text text-anchor="middle" x="187.5" y="-299.4" font-family="Times Roman,serif" font-size="14.00">a</text>
</g>
<!-- q4&#45;&gt;q9 -->
<g id="edge20" class="edge"><title>q4&#45;&gt;q9</title>
<path fill="none" stroke="black" d="M141.469,-103.148C127.329,-87.7227 105.676,-64.1007 89.5345,-46.4922"/>
<polygon fill="black" stroke="black" points="91.8903,-43.8825 82.553,-38.876 86.7302,-48.6126 91.8903,-43.8825"/>
<text text-anchor="middle" x="123.5" y="-69.4" font-family="Times Roman,serif" font-size="14.00">a</text>
</g>
<!-- q8 -->
<g id="node19" class="node"><title>q8</title>
<ellipse fill="none" stroke="black" cx="158" cy="-23" rx="27" ry="18.3848"/>
<ellipse fill="none" stroke="black" cx="158" cy="-23" rx="31" ry="22.3848"/>
<text text-anchor="middle" x="158" y="-19.4" font-family="Times Roman,serif" font-size="14.00">q8</text>
</g>
<!-- q4&#45;&gt;q8 -->
<g id="edge18" class="edge"><title>q4&#45;&gt;q8</title>
<path fill="none" stroke="black" d="M156.386,-100.49C156.649,-87.8633 157.004,-70.791 157.315,-55.8846"/>
<polygon fill="black" stroke="black" points="160.822,-55.5785 157.531,-45.5077 153.823,-55.4326 160.822,-55.5785"/>
<text text-anchor="middle" x="161.5" y="-69.4" font-family="Times Roman,serif" font-size="14.00">b</text>
</g>
<!-- q5&#45;&gt;q6 -->
<g id="edge22" class="edge"><title>q5&#45;&gt;q6</title>
<path fill="none" stroke="black" d="M188.467,-469.696C180.097,-455.946 168.262,-436.501 158.764,-420.898"/>
<polygon fill="black" stroke="black" points="161.675,-418.949 153.486,-412.227 155.696,-422.589 161.675,-418.949"/>
<text text-anchor="middle" x="180.5" y="-437.4" font-family="Times Roman,serif" font-size="14.00">b</text>
</g>
<!-- q5&#45;&gt;q3 -->
<g id="edge24" class="edge"><title>q5&#45;&gt;q3</title>
<path fill="none" stroke="black" d="M197.295,-505.686C195.806,-516.623 193.052,-530.499 188,-542 186.114,-546.293 183.664,-550.572 181.011,-554.615"/>
<polygon fill="black" stroke="black" points="177.983,-552.832 175.015,-563.003 183.678,-556.903 177.983,-552.832"/>
<text text-anchor="middle" x="197.5" y="-529.4" font-family="Times Roman,serif" font-size="14.00">a</text>
</g>
<!-- q8&#45;&gt;q8 -->
<g id="edge34" class="edge"><title>q8&#45;&gt;q8</title>
<path fill="none" stroke="black" d="M188.625,-27.6875C198.833,-27.6875 207,-26.125 207,-23 207,-21.0469 203.81,-19.7041 198.925,-18.9717"/>
<polygon fill="black" stroke="black" points="198.828,-15.4584 188.625,-18.3125 198.381,-22.4441 198.828,-15.4584"/>
<text text-anchor="middle" x="211.5" y="-19.4" font-family="Times Roman,serif" font-size="14.00">b</text>
</g>
<!-- q8&#45;&gt;q8 -->
<g id="edge36" class="edge"><title>q8&#45;&gt;q8</title>
<path fill="none" stroke="black" d="M181.347,-37.9505C202.424,-45.2237 225,-40.2402 225,-23 225,-8.45355 208.928,-2.63284 191.245,-5.53787"/>
<polygon fill="black" stroke="black" points="190.179,-2.19731 181.347,-8.04948 191.901,-8.98227 190.179,-2.19731"/>
<text text-anchor="middle" x="229.5" y="-19.4" font-family="Times Roman,serif" font-size="14.00">a</text>
</g>
</g>
</svg>
