<?xml version="1.0" encoding="UTF-8" standalone="no"?>
<!DOCTYPE svg PUBLIC "-//W3C//DTD SVG 1.1//EN"
 "http://www.w3.org/Graphics/SVG/1.1/DTD/svg11.dtd">
<!-- Generated by graphviz version 2.26.3 (20100126.1600)
 -->
<!-- Title: G Pages: 1 -->
<svg width="226pt" height="502pt"
 viewBox="0.00 0.00 226.00 502.00" xmlns="http://www.w3.org/2000/svg" xmlns:xlink="http://www.w3.org/1999/xlink">
<g id="graph1" class="graph" transform="scale(1 1) rotate(0) translate(4 498)">
<title>G</title>
<polygon fill="white" stroke="white" points="-4,5 -4,-498 223,-498 223,5 -4,5"/>
<!-- q6 -->
<g id="node1" class="node"><title>q6</title>
<ellipse fill="none" stroke="black" cx="164" cy="-476" rx="27" ry="18"/>
<text text-anchor="middle" x="164" y="-471.9" font-family="Times Roman,serif" font-size="14.00">q6</text>
</g>
<!-- q6&#45;&gt;q6 -->
<g id="edge2" class="edge"><title>q6&#45;&gt;q6</title>
<path fill="none" stroke="black" d="M188.532,-484.121C199.508,-484.895 209,-482.188 209,-476 209,-471.843 204.715,-469.257 198.574,-468.242"/>
<polygon fill="black" stroke="black" points="198.652,-464.742 188.532,-467.879 198.4,-471.738 198.652,-464.742"/>
<text text-anchor="middle" x="213.5" y="-471.9" font-family="Times Roman,serif" font-size="14.00">b</text>
</g>
<!-- q4 -->
<g id="node4" class="node"><title>q4</title>
<ellipse fill="none" stroke="black" cx="105" cy="-386" rx="27" ry="18"/>
<text text-anchor="middle" x="105" y="-381.9" font-family="Times Roman,serif" font-size="14.00">q4</text>
</g>
<!-- q6&#45;&gt;q4 -->
<g id="edge4" class="edge"><title>q6&#45;&gt;q4</title>
<path fill="none" stroke="black" d="M153.178,-459.493C144.335,-446.003 131.687,-426.71 121.57,-411.276"/>
<polygon fill="black" stroke="black" points="124.362,-409.152 115.953,-402.708 118.508,-412.99 124.362,-409.152"/>
<text text-anchor="middle" x="143.5" y="-426.9" font-family="Times Roman,serif" font-size="14.00">a</text>
</g>
<!-- q3 -->
<g id="node9" class="node"><title>q3</title>
<ellipse fill="none" stroke="black" cx="105" cy="-296" rx="27" ry="18"/>
<text text-anchor="middle" x="105" y="-291.9" font-family="Times Roman,serif" font-size="14.00">q3</text>
</g>
<!-- q4&#45;&gt;q3 -->
<g id="edge20" class="edge"><title>q4&#45;&gt;q3</title>
<path fill="none" stroke="black" d="M105,-367.787C105,-355.344 105,-338.605 105,-324.421"/>
<polygon fill="black" stroke="black" points="108.5,-324.186 105,-314.186 101.5,-324.186 108.5,-324.186"/>
<text text-anchor="middle" x="109.5" y="-336.9" font-family="Times Roman,serif" font-size="14.00">a</text>
</g>
<!-- q2 -->
<g id="node10" class="node"><title>q2</title>
<ellipse fill="none" stroke="black" cx="27" cy="-206" rx="27" ry="18"/>
<text text-anchor="middle" x="27" y="-201.9" font-family="Times Roman,serif" font-size="14.00">q2</text>
</g>
<!-- q4&#45;&gt;q2 -->
<g id="edge18" class="edge"><title>q4&#45;&gt;q2</title>
<path fill="none" stroke="black" d="M93.1573,-369.821C83.2274,-355.665 69.2297,-334.254 60,-314 48.0689,-287.817 38.9722,-256.161 33.3811,-233.911"/>
<polygon fill="black" stroke="black" points="36.7601,-232.994 30.9912,-224.107 29.9592,-234.652 36.7601,-232.994"/>
<text text-anchor="middle" x="64.5" y="-291.9" font-family="Times Roman,serif" font-size="14.00">b</text>
</g>
<!-- q5 -->
<g id="node5" class="node"><title>q5</title>
<ellipse fill="none" stroke="black" cx="99" cy="-116" rx="27" ry="18"/>
<text text-anchor="middle" x="99" y="-111.9" font-family="Times Roman,serif" font-size="14.00">q5</text>
</g>
<!-- q1 -->
<g id="node7" class="node"><title>q1</title>
<ellipse fill="none" stroke="black" cx="154" cy="-22" rx="27" ry="18"/>
<ellipse fill="none" stroke="black" cx="154" cy="-22" rx="31" ry="22"/>
<text text-anchor="middle" x="154" y="-17.9" font-family="Times Roman,serif" font-size="14.00">q1</text>
</g>
<!-- q5&#45;&gt;q1 -->
<g id="edge6" class="edge"><title>q5&#45;&gt;q1</title>
<path fill="none" stroke="black" d="M108.833,-99.1947C116.582,-85.9514 127.576,-67.1616 136.777,-51.4359"/>
<polygon fill="black" stroke="black" points="139.92,-52.9947 141.949,-42.596 133.878,-49.4596 139.92,-52.9947"/>
<text text-anchor="middle" x="133.5" y="-66.9" font-family="Times Roman,serif" font-size="14.00">b</text>
</g>
<!-- q5&#45;&gt;q3 -->
<g id="edge8" class="edge"><title>q5&#45;&gt;q3</title>
<path fill="none" stroke="black" d="M99.601,-134.031C100.645,-165.357 102.802,-230.061 104.05,-267.514"/>
<polygon fill="black" stroke="black" points="100.56,-267.872 104.392,-277.75 107.556,-267.639 100.56,-267.872"/>
<text text-anchor="middle" x="106.5" y="-201.9" font-family="Times Roman,serif" font-size="14.00">a</text>
</g>
<!-- q1&#45;&gt;q6 -->
<g id="edge14" class="edge"><title>q1&#45;&gt;q6</title>
<path fill="none" stroke="black" d="M167.291,-41.9663C178.249,-60.382 192,-88.8922 192,-116 192,-386 192,-386 192,-386 192,-408.023 184.261,-431.765 176.92,-449.331"/>
<polygon fill="black" stroke="black" points="173.533,-448.338 172.706,-458.901 179.94,-451.16 173.533,-448.338"/>
<text text-anchor="middle" x="196.5" y="-246.9" font-family="Times Roman,serif" font-size="14.00">b</text>
</g>
<!-- q1&#45;&gt;q3 -->
<g id="edge16" class="edge"><title>q1&#45;&gt;q3</title>
<path fill="none" stroke="black" d="M151.803,-44.2267C147.335,-86.6191 135.977,-181.773 117,-260 116.316,-262.821 115.511,-265.737 114.649,-268.633"/>
<polygon fill="black" stroke="black" points="111.293,-267.636 111.58,-278.227 117.96,-269.768 111.293,-267.636"/>
<text text-anchor="middle" x="141.5" y="-156.9" font-family="Times Roman,serif" font-size="14.00">a</text>
</g>
<!-- q3&#45;&gt;q2 -->
<g id="edge22" class="edge"><title>q3&#45;&gt;q2</title>
<path fill="none" stroke="black" d="M86.3492,-282.394C78.3602,-276.078 69.2265,-268.166 62,-260 54.3695,-251.377 47.2103,-240.945 41.3795,-231.558"/>
<polygon fill="black" stroke="black" points="44.3724,-229.743 36.2242,-222.972 38.3709,-233.347 44.3724,-229.743"/>
<text text-anchor="middle" x="66.5" y="-246.9" font-family="Times Roman,serif" font-size="14.00">b</text>
</g>
<!-- q3&#45;&gt;q2 -->
<g id="edge24" class="edge"><title>q3&#45;&gt;q2</title>
<path fill="none" stroke="black" d="M96.1665,-278.972C89.9466,-267.827 80.9743,-253.293 71,-242 65.879,-236.202 59.7695,-230.58 53.7568,-225.57"/>
<polygon fill="black" stroke="black" points="55.7193,-222.658 45.7196,-219.157 51.3537,-228.13 55.7193,-222.658"/>
<text text-anchor="middle" x="87.5" y="-246.9" font-family="Times Roman,serif" font-size="14.00">a</text>
</g>
<!-- q2&#45;&gt;q5 -->
<g id="edge12" class="edge"><title>q2&#45;&gt;q5</title>
<path fill="none" stroke="black" d="M39.8722,-189.91C50.9298,-176.088 67.0359,-155.955 79.647,-140.191"/>
<polygon fill="black" stroke="black" points="82.7253,-141.946 86.2393,-131.951 77.2592,-137.573 82.7253,-141.946"/>
<text text-anchor="middle" x="73.5" y="-156.9" font-family="Times Roman,serif" font-size="14.00">a</text>
</g>
<!-- q2&#45;&gt;q2 -->
<g id="edge10" class="edge"><title>q2&#45;&gt;q2</title>
<path fill="none" stroke="black" d="M51.5325,-214.121C62.5078,-214.895 72,-212.188 72,-206 72,-201.843 67.7151,-199.257 61.5743,-198.242"/>
<polygon fill="black" stroke="black" points="61.6524,-194.742 51.5325,-197.879 61.3995,-201.738 61.6524,-194.742"/>
<text text-anchor="middle" x="76.5" y="-201.9" font-family="Times Roman,serif" font-size="14.00">b</text>
</g>
</g>
</svg>
