<?xml version="1.0" encoding="UTF-8" standalone="no"?>
<!DOCTYPE svg PUBLIC "-//W3C//DTD SVG 1.1//EN"
 "http://www.w3.org/Graphics/SVG/1.1/DTD/svg11.dtd">
<!-- Generated by graphviz version 2.26.3 (20100126.1600)
 -->
<!-- Title: G Pages: 1 -->
<svg width="237pt" height="506pt"
 viewBox="0.00 0.00 237.26 506.00" xmlns="http://www.w3.org/2000/svg" xmlns:xlink="http://www.w3.org/1999/xlink">
<g id="graph1" class="graph" transform="scale(1 1) rotate(0) translate(4 502)">
<title>G</title>
<polygon fill="white" stroke="white" points="-4,5 -4,-502 234.258,-502 234.258,5 -4,5"/>
<!-- q6 -->
<g id="node1" class="node"><title>q6</title>
<ellipse fill="none" stroke="black" cx="97.2585" cy="-479" rx="27" ry="18.3848"/>
<text text-anchor="middle" x="97.2585" y="-475.4" font-family="Times Roman,serif" font-size="14.00">q6</text>
</g>
<!-- q4 -->
<g id="node3" class="node"><title>q4</title>
<ellipse fill="none" stroke="black" cx="129.258" cy="-387" rx="27" ry="18.3848"/>
<text text-anchor="middle" x="129.258" y="-383.4" font-family="Times Roman,serif" font-size="14.00">q4</text>
</g>
<!-- q6&#45;&gt;q4 -->
<g id="edge2" class="edge"><title>q6&#45;&gt;q4</title>
<path fill="none" stroke="black" d="M103.581,-460.824C108.139,-447.719 114.376,-429.789 119.561,-414.88"/>
<polygon fill="black" stroke="black" points="122.97,-415.733 122.949,-405.138 116.358,-413.434 122.97,-415.733"/>
<text text-anchor="middle" x="119.758" y="-429.4" font-family="Times Roman,serif" font-size="14.00">b</text>
</g>
<!-- q3 -->
<g id="node5" class="node"><title>q3</title>
<ellipse fill="none" stroke="black" cx="30.2585" cy="-295" rx="27" ry="18.3848"/>
<text text-anchor="middle" x="30.2585" y="-291.4" font-family="Times Roman,serif" font-size="14.00">q3</text>
</g>
<!-- q6&#45;&gt;q3 -->
<g id="edge4" class="edge"><title>q6&#45;&gt;q3</title>
<path fill="none" stroke="black" d="M80.6056,-464.174C74.0445,-457.781 66.7753,-449.953 61.2585,-442 36.658,-406.534 30.9085,-355.492 29.9182,-323.833"/>
<polygon fill="black" stroke="black" points="33.4121,-323.44 29.7433,-313.501 26.4131,-323.558 33.4121,-323.44"/>
<text text-anchor="middle" x="48.7585" y="-383.4" font-family="Times Roman,serif" font-size="14.00">a</text>
</g>
<!-- q4&#45;&gt;q3 -->
<g id="edge24" class="edge"><title>q4&#45;&gt;q3</title>
<path fill="none" stroke="black" d="M119.189,-369.803C111.862,-358.233 101.168,-343.119 89.2585,-332 80.8867,-324.184 70.6323,-317.087 61.0347,-311.246"/>
<polygon fill="black" stroke="black" points="62.5192,-308.06 52.117,-306.048 58.9944,-314.108 62.5192,-308.06"/>
<text text-anchor="middle" x="107.758" y="-337.4" font-family="Times Roman,serif" font-size="14.00">a</text>
</g>
<!-- q7 -->
<g id="node10" class="node"><title>q7</title>
<ellipse fill="none" stroke="black" cx="138.258" cy="-203" rx="27" ry="18.3848"/>
<text text-anchor="middle" x="138.258" y="-199.4" font-family="Times Roman,serif" font-size="14.00">q7</text>
</g>
<!-- q4&#45;&gt;q7 -->
<g id="edge22" class="edge"><title>q4&#45;&gt;q7</title>
<path fill="none" stroke="black" d="M132.183,-368.456C134.349,-353.735 137.116,-332.609 138.258,-314 139.964,-286.23 139.746,-254.478 139.231,-232.069"/>
<polygon fill="black" stroke="black" points="142.725,-231.78 138.962,-221.876 135.727,-231.965 142.725,-231.78"/>
<text text-anchor="middle" x="143.758" y="-291.4" font-family="Times Roman,serif" font-size="14.00">b</text>
</g>
<!-- q3&#45;&gt;q6 -->
<g id="edge28" class="edge"><title>q3&#45;&gt;q6</title>
<path fill="none" stroke="black" d="M37.7466,-313.002C40.1989,-319.02 42.8983,-325.778 45.2585,-332 60.8904,-373.207 77.6707,-421.455 87.8167,-451.123"/>
<polygon fill="black" stroke="black" points="84.5761,-452.464 91.116,-460.8 91.2016,-450.205 84.5761,-452.464"/>
<text text-anchor="middle" x="75.7585" y="-383.4" font-family="Times Roman,serif" font-size="14.00">a</text>
</g>
<!-- q2 -->
<g id="node8" class="node"><title>q2</title>
<ellipse fill="none" stroke="black" cx="39.2585" cy="-203" rx="27" ry="18.3848"/>
<text text-anchor="middle" x="39.2585" y="-199.4" font-family="Times Roman,serif" font-size="14.00">q2</text>
</g>
<!-- q3&#45;&gt;q2 -->
<g id="edge26" class="edge"><title>q3&#45;&gt;q2</title>
<path fill="none" stroke="black" d="M32.0798,-276.382C33.3363,-263.538 35.0308,-246.216 36.458,-231.627"/>
<polygon fill="black" stroke="black" points="39.9496,-231.883 37.4399,-221.59 32.9828,-231.202 39.9496,-231.883"/>
<text text-anchor="middle" x="40.7585" y="-245.4" font-family="Times Roman,serif" font-size="14.00">b</text>
</g>
<!-- q5 -->
<g id="node6" class="node"><title>q5</title>
<ellipse fill="none" stroke="black" cx="39.2585" cy="-19" rx="27" ry="18.3848"/>
<text text-anchor="middle" x="39.2585" y="-15.4" font-family="Times Roman,serif" font-size="14.00">q5</text>
</g>
<!-- q5&#45;&gt;q3 -->
<g id="edge8" class="edge"><title>q5&#45;&gt;q3</title>
<path fill="none" stroke="black" d="M31.7936,-36.9259C18.0061,-72.3133 -8.97688,-153.648 3.2585,-222 6.07497,-237.734 12.0533,-254.514 17.6702,-268.013"/>
<polygon fill="black" stroke="black" points="14.4625,-269.414 21.6459,-277.201 20.8869,-266.634 14.4625,-269.414"/>
<text text-anchor="middle" x="7.7585" y="-153.4" font-family="Times Roman,serif" font-size="14.00">a</text>
</g>
<!-- q5&#45;&gt;q2 -->
<g id="edge6" class="edge"><title>q5&#45;&gt;q2</title>
<path fill="none" stroke="black" d="M39.2585,-37.7049C39.2585,-69.8374 39.2585,-135.739 39.2585,-173.91"/>
<polygon fill="black" stroke="black" points="35.7586,-174.344 39.2585,-184.345 42.7586,-174.345 35.7586,-174.344"/>
<text text-anchor="middle" x="43.7585" y="-107.4" font-family="Times Roman,serif" font-size="14.00">b</text>
</g>
<!-- q2&#45;&gt;q2 -->
<g id="edge14" class="edge"><title>q2&#45;&gt;q2</title>
<path fill="none" stroke="black" d="M63.3328,-211.454C74.5008,-212.377 84.2585,-209.559 84.2585,-203 84.2585,-198.593 79.8537,-195.875 73.5759,-194.846"/>
<polygon fill="black" stroke="black" points="73.4311,-191.34 63.3328,-194.546 73.2259,-198.337 73.4311,-191.34"/>
<text text-anchor="middle" x="88.7585" y="-199.4" font-family="Times Roman,serif" font-size="14.00">b</text>
</g>
<!-- q1 -->
<g id="node13" class="node"><title>q1</title>
<ellipse fill="none" stroke="black" cx="99.2585" cy="-111" rx="27" ry="18.3848"/>
<text text-anchor="middle" x="99.2585" y="-107.4" font-family="Times Roman,serif" font-size="14.00">q1</text>
</g>
<!-- q2&#45;&gt;q1 -->
<g id="edge16" class="edge"><title>q2&#45;&gt;q1</title>
<path fill="none" stroke="black" d="M50.544,-185.696C59.5679,-171.859 72.3532,-152.255 82.5615,-136.602"/>
<polygon fill="black" stroke="black" points="85.6952,-138.204 88.2263,-127.916 79.8319,-134.38 85.6952,-138.204"/>
<text text-anchor="middle" x="78.7585" y="-153.4" font-family="Times Roman,serif" font-size="14.00">a</text>
</g>
<!-- q7&#45;&gt;q7 -->
<g id="edge10" class="edge"><title>q7&#45;&gt;q7</title>
<path fill="none" stroke="black" d="M162.333,-211.454C173.501,-212.377 183.258,-209.559 183.258,-203 183.258,-198.593 178.854,-195.875 172.576,-194.846"/>
<polygon fill="black" stroke="black" points="172.431,-191.34 162.333,-194.546 172.226,-198.337 172.431,-191.34"/>
<text text-anchor="middle" x="187.758" y="-199.4" font-family="Times Roman,serif" font-size="14.00">b</text>
</g>
<!-- q7&#45;&gt;q1 -->
<g id="edge12" class="edge"><title>q7&#45;&gt;q1</title>
<path fill="none" stroke="black" d="M130.553,-184.824C124.908,-171.507 117.151,-153.207 110.772,-138.159"/>
<polygon fill="black" stroke="black" points="113.94,-136.666 106.815,-128.825 107.496,-139.398 113.94,-136.666"/>
<text text-anchor="middle" x="125.758" y="-153.4" font-family="Times Roman,serif" font-size="14.00">a</text>
</g>
<!-- q1&#45;&gt;q6 -->
<g id="edge20" class="edge"><title>q1&#45;&gt;q6</title>
<path fill="none" stroke="black" d="M124.624,-117.857C160.105,-129.168 220.258,-155.367 220.258,-203 220.258,-387 220.258,-387 220.258,-387 220.258,-431.119 168.886,-456.637 132.541,-469.171"/>
<polygon fill="black" stroke="black" points="131.166,-465.938 122.744,-472.366 133.337,-472.593 131.166,-465.938"/>
<text text-anchor="middle" x="224.758" y="-291.4" font-family="Times Roman,serif" font-size="14.00">a</text>
</g>
<!-- q1&#45;&gt;q5 -->
<g id="edge18" class="edge"><title>q1&#45;&gt;q5</title>
<path fill="none" stroke="black" d="M87.973,-93.6955C78.9491,-79.8589 66.1638,-60.2548 55.9555,-44.6021"/>
<polygon fill="black" stroke="black" points="58.6851,-42.3802 50.2907,-35.9161 52.8218,-46.2041 58.6851,-42.3802"/>
<text text-anchor="middle" x="78.7585" y="-61.4" font-family="Times Roman,serif" font-size="14.00">b</text>
</g>
<!-- q0 -->
<g id="node22" class="node"><title>q0</title>
<ellipse fill="none" stroke="black" cx="102.258" cy="-295" rx="27" ry="18.3848"/>
<text text-anchor="middle" x="102.258" y="-291.4" font-family="Times Roman,serif" font-size="14.00">q0</text>
</g>
<!-- q0&#45;&gt;q2 -->
<g id="edge32" class="edge"><title>q0&#45;&gt;q2</title>
<path fill="none" stroke="black" d="M90.7033,-278.126C81.1122,-264.12 67.3304,-243.994 56.4449,-228.098"/>
<polygon fill="black" stroke="black" points="59.2783,-226.041 50.7404,-219.767 53.5027,-229.996 59.2783,-226.041"/>
<text text-anchor="middle" x="80.7585" y="-245.4" font-family="Times Roman,serif" font-size="14.00">a</text>
</g>
<!-- q0&#45;&gt;q7 -->
<g id="edge30" class="edge"><title>q0&#45;&gt;q7</title>
<path fill="none" stroke="black" d="M109.371,-276.824C114.548,-263.593 121.65,-245.443 127.517,-230.451"/>
<polygon fill="black" stroke="black" points="130.776,-231.726 131.161,-221.138 124.257,-229.175 130.776,-231.726"/>
<text text-anchor="middle" x="127.758" y="-245.4" font-family="Times Roman,serif" font-size="14.00">b</text>
</g>
</g>
</svg>
