<?xml version="1.0" encoding="UTF-8" standalone="no"?>
<!DOCTYPE svg PUBLIC "-//W3C//DTD SVG 1.1//EN"
 "http://www.w3.org/Graphics/SVG/1.1/DTD/svg11.dtd">
<!-- Generated by graphviz version 2.26.3 (20100126.1600)
 -->
<!-- Title: G Pages: 1 -->
<svg width="283pt" height="606pt"
 viewBox="0.00 0.00 283.00 606.00" xmlns="http://www.w3.org/2000/svg" xmlns:xlink="http://www.w3.org/1999/xlink">
<g id="graph1" class="graph" transform="scale(1 1) rotate(0) translate(4 602)">
<title>G</title>
<polygon fill="white" stroke="white" points="-4,5 -4,-602 280,-602 280,5 -4,5"/>
<!-- q0 -->
<g id="node1" class="node"><title>q0</title>
<ellipse fill="none" stroke="black" cx="204" cy="-487" rx="27" ry="18.3848"/>
<text text-anchor="middle" x="204" y="-483.4" font-family="Times Roman,serif" font-size="14.00">q0</text>
</g>
<!-- q3 -->
<g id="node3" class="node"><title>q3</title>
<ellipse fill="none" stroke="black" cx="115" cy="-395" rx="27" ry="18.3848"/>
<text text-anchor="middle" x="115" y="-391.4" font-family="Times Roman,serif" font-size="14.00">q3</text>
</g>
<!-- q0&#45;&gt;q3 -->
<g id="edge2" class="edge"><title>q0&#45;&gt;q3</title>
<path fill="none" stroke="black" d="M188.92,-471.534C182.469,-464.91 174.858,-457.083 168,-450 157.956,-439.627 146.867,-428.127 137.44,-418.336"/>
<polygon fill="black" stroke="black" points="139.743,-415.682 130.287,-410.904 134.7,-420.537 139.743,-415.682"/>
<text text-anchor="middle" x="172.5" y="-437.4" font-family="Times Roman,serif" font-size="14.00">b</text>
</g>
<!-- q10 -->
<g id="node5" class="node"><title>q10</title>
<ellipse fill="none" stroke="black" cx="191" cy="-303" rx="29.9071" ry="18.3848"/>
<text text-anchor="middle" x="191" y="-299.4" font-family="Times Roman,serif" font-size="14.00">q10</text>
</g>
<!-- q0&#45;&gt;q10 -->
<g id="edge4" class="edge"><title>q0&#45;&gt;q10</title>
<path fill="none" stroke="black" d="M202.682,-468.345C200.414,-436.247 195.758,-370.349 193.059,-332.148"/>
<polygon fill="black" stroke="black" points="196.518,-331.433 192.322,-321.705 189.535,-331.927 196.518,-331.433"/>
<text text-anchor="middle" x="203.5" y="-391.4" font-family="Times Roman,serif" font-size="14.00">a</text>
</g>
<!-- q3&#45;&gt;q10 -->
<g id="edge10" class="edge"><title>q3&#45;&gt;q10</title>
<path fill="none" stroke="black" d="M128.587,-378.552C140.295,-364.38 157.363,-343.718 170.693,-327.583"/>
<polygon fill="black" stroke="black" points="173.604,-329.554 177.274,-319.616 168.207,-325.096 173.604,-329.554"/>
<text text-anchor="middle" x="164.5" y="-345.4" font-family="Times Roman,serif" font-size="14.00">b</text>
</g>
<!-- q2 -->
<g id="node6" class="node"><title>q2</title>
<ellipse fill="none" stroke="black" cx="71" cy="-303" rx="27" ry="18.3848"/>
<text text-anchor="middle" x="71" y="-299.4" font-family="Times Roman,serif" font-size="14.00">q2</text>
</g>
<!-- q3&#45;&gt;q2 -->
<g id="edge12" class="edge"><title>q3&#45;&gt;q2</title>
<path fill="none" stroke="black" d="M94.3935,-382.857C85.8234,-376.61 76.7742,-368.162 72,-358 68.2178,-349.95 67.0552,-340.478 67.1067,-331.684"/>
<polygon fill="black" stroke="black" points="70.616,-331.613 67.6773,-321.434 63.6268,-331.224 70.616,-331.613"/>
<text text-anchor="middle" x="76.5" y="-345.4" font-family="Times Roman,serif" font-size="14.00">a</text>
</g>
<!-- q10&#45;&gt;q0 -->
<g id="edge44" class="edge"><title>q10&#45;&gt;q0</title>
<path fill="none" stroke="black" d="M201.177,-320.543C204.199,-326.531 207.184,-333.387 209,-340 221.963,-387.214 222.05,-401.549 215,-450 214.575,-452.922 213.97,-455.934 213.26,-458.919"/>
<polygon fill="black" stroke="black" points="209.823,-458.221 210.55,-468.791 216.573,-460.075 209.823,-458.221"/>
<text text-anchor="middle" x="223.5" y="-391.4" font-family="Times Roman,serif" font-size="14.00">a</text>
</g>
<!-- q10&#45;&gt;q3 -->
<g id="edge34" class="edge"><title>q10&#45;&gt;q3</title>
<path fill="none" stroke="black" d="M161.407,-307.1C141.507,-311.565 116.676,-320.834 104,-340 98.5778,-348.198 99.1415,-358.482 101.814,-367.932"/>
<polygon fill="black" stroke="black" points="98.5244,-369.128 105.199,-377.356 105.112,-366.762 98.5244,-369.128"/>
<text text-anchor="middle" x="108.5" y="-345.4" font-family="Times Roman,serif" font-size="14.00">b</text>
</g>
<!-- q10&#45;&gt;q3 -->
<g id="edge38" class="edge"><title>q10&#45;&gt;q3</title>
<path fill="none" stroke="black" d="M167.375,-314.557C156.587,-320.826 144.379,-329.46 136,-340 129.788,-347.815 125.259,-357.672 122.033,-366.876"/>
<polygon fill="black" stroke="black" points="118.674,-365.891 119.027,-376.48 125.354,-367.982 118.674,-365.891"/>
<text text-anchor="middle" x="140.5" y="-345.4" font-family="Times Roman,serif" font-size="14.00">b</text>
</g>
<!-- q10&#45;&gt;q10 -->
<g id="edge36" class="edge"><title>q10&#45;&gt;q10</title>
<path fill="none" stroke="black" d="M220.53,-307.311C230.748,-307.357 239,-305.92 239,-303 239,-301.175 235.777,-299.929 230.864,-299.263"/>
<polygon fill="black" stroke="black" points="230.709,-295.749 220.53,-298.689 230.32,-302.738 230.709,-295.749"/>
<text text-anchor="middle" x="243.5" y="-299.4" font-family="Times Roman,serif" font-size="14.00">a</text>
</g>
<!-- q10&#45;&gt;q10 -->
<g id="edge40" class="edge"><title>q10&#45;&gt;q10</title>
<path fill="none" stroke="black" d="M211.611,-316.767C233.017,-325.123 257,-320.534 257,-303 257,-288.069 239.609,-282.524 221.227,-286.368"/>
<polygon fill="black" stroke="black" points="220.195,-283.023 211.611,-289.233 222.194,-289.731 220.195,-283.023"/>
<text text-anchor="middle" x="261.5" y="-299.4" font-family="Times Roman,serif" font-size="14.00">a</text>
</g>
<!-- q5 -->
<g id="node16" class="node"><title>q5</title>
<ellipse fill="none" stroke="black" cx="173" cy="-207" rx="27" ry="18.3848"/>
<text text-anchor="middle" x="173" y="-203.4" font-family="Times Roman,serif" font-size="14.00">q5</text>
</g>
<!-- q10&#45;&gt;q5 -->
<g id="edge42" class="edge"><title>q10&#45;&gt;q5</title>
<path fill="none" stroke="black" d="M187.529,-284.49C184.915,-270.545 181.284,-251.179 178.305,-235.296"/>
<polygon fill="black" stroke="black" points="181.743,-234.637 176.46,-225.453 174.863,-235.927 181.743,-234.637"/>
<text text-anchor="middle" x="188.5" y="-253.4" font-family="Times Roman,serif" font-size="14.00">b</text>
</g>
<!-- q4 -->
<g id="node8" class="node"><title>q4</title>
<ellipse fill="none" stroke="black" cx="97" cy="-207" rx="27" ry="18.3848"/>
<ellipse fill="none" stroke="black" cx="97" cy="-207" rx="31" ry="22.3848"/>
<text text-anchor="middle" x="97" y="-203.4" font-family="Times Roman,serif" font-size="14.00">q4</text>
</g>
<!-- q2&#45;&gt;q4 -->
<g id="edge6" class="edge"><title>q2&#45;&gt;q4</title>
<path fill="none" stroke="black" d="M76.0131,-284.49C79.49,-271.652 84.2116,-254.219 88.2958,-239.139"/>
<polygon fill="black" stroke="black" points="91.7624,-239.727 90.9983,-229.16 85.0058,-237.897 91.7624,-239.727"/>
<text text-anchor="middle" x="90.5" y="-253.4" font-family="Times Roman,serif" font-size="14.00">b</text>
</g>
<!-- q9 -->
<g id="node10" class="node"><title>q9</title>
<ellipse fill="none" stroke="black" cx="65" cy="-19" rx="27" ry="18.3848"/>
<text text-anchor="middle" x="65" y="-15.4" font-family="Times Roman,serif" font-size="14.00">q9</text>
</g>
<!-- q2&#45;&gt;q9 -->
<g id="edge8" class="edge"><title>q2&#45;&gt;q9</title>
<path fill="none" stroke="black" d="M66.454,-284.537C63.0853,-269.862 58.7823,-248.756 57,-230 50.8243,-165.01 57.1122,-88.3316 61.5118,-47.6775"/>
<polygon fill="black" stroke="black" points="64.997,-48.0042 62.6358,-37.6758 58.0408,-47.2224 64.997,-48.0042"/>
<text text-anchor="middle" x="59.5" y="-153.4" font-family="Times Roman,serif" font-size="14.00">a</text>
</g>
<!-- q4&#45;&gt;q2 -->
<g id="edge16" class="edge"><title>q4&#45;&gt;q2</title>
<path fill="none" stroke="black" d="M82.0014,-226.852C77.9717,-233.268 74.1408,-240.635 72,-248 69.601,-256.254 68.7652,-265.502 68.6899,-274.025"/>
<polygon fill="black" stroke="black" points="65.1978,-274.392 68.941,-284.304 72.1957,-274.221 65.1978,-274.392"/>
<text text-anchor="middle" x="76.5" y="-253.4" font-family="Times Roman,serif" font-size="14.00">a</text>
</g>
<!-- q8 -->
<g id="node14" class="node"><title>q8</title>
<ellipse fill="none" stroke="black" cx="115" cy="-111" rx="27" ry="18.3848"/>
<text text-anchor="middle" x="115" y="-107.4" font-family="Times Roman,serif" font-size="14.00">q8</text>
</g>
<!-- q4&#45;&gt;q8 -->
<g id="edge14" class="edge"><title>q4&#45;&gt;q8</title>
<path fill="none" stroke="black" d="M96.9837,-184.369C97.3673,-173.296 98.4188,-159.836 101,-148 101.702,-144.779 102.634,-141.465 103.683,-138.206"/>
<polygon fill="black" stroke="black" points="106.995,-139.338 107.076,-128.744 100.406,-136.976 106.995,-139.338"/>
<text text-anchor="middle" x="105.5" y="-153.4" font-family="Times Roman,serif" font-size="14.00">b</text>
</g>
<!-- q9&#45;&gt;q3 -->
<g id="edge30" class="edge"><title>q9&#45;&gt;q3</title>
<path fill="none" stroke="black" d="M46.8939,-32.785C27.6609,-49.1407 0,-78.3406 0,-111 0,-303 0,-303 0,-303 0,-344.655 46.5753,-370.552 80.4451,-383.877"/>
<polygon fill="black" stroke="black" points="79.4541,-387.243 90.0467,-387.459 81.9006,-380.684 79.4541,-387.243"/>
<text text-anchor="middle" x="4.5" y="-203.4" font-family="Times Roman,serif" font-size="14.00">b</text>
</g>
<!-- q9&#45;&gt;q10 -->
<g id="edge32" class="edge"><title>q9&#45;&gt;q10</title>
<path fill="none" stroke="black" d="M84.2378,-32.0169C118.606,-56.7235 188.844,-114.233 209,-184 217.83,-214.562 209.79,-250.862 201.824,-275.266"/>
<polygon fill="black" stroke="black" points="198.437,-274.35 198.463,-284.944 205.05,-276.646 198.437,-274.35"/>
<text text-anchor="middle" x="207.5" y="-153.4" font-family="Times Roman,serif" font-size="14.00">a</text>
</g>
<!-- q8&#45;&gt;q9 -->
<g id="edge28" class="edge"><title>q8&#45;&gt;q9</title>
<path fill="none" stroke="black" d="M105.359,-93.2615C97.9804,-79.6839 87.6864,-60.7431 79.3417,-45.3888"/>
<polygon fill="black" stroke="black" points="82.2917,-43.487 74.4413,-36.3721 76.1413,-46.8296 82.2917,-43.487"/>
<text text-anchor="middle" x="99.5" y="-61.4" font-family="Times Roman,serif" font-size="14.00">a</text>
</g>
<!-- q8&#45;&gt;q5 -->
<g id="edge26" class="edge"><title>q8&#45;&gt;q5</title>
<path fill="none" stroke="black" d="M129.321,-126.946C134.605,-133.252 140.415,-140.723 145,-148 151.275,-157.959 157.065,-169.544 161.732,-179.799"/>
<polygon fill="black" stroke="black" points="158.607,-181.386 165.841,-189.126 165.012,-178.563 158.607,-181.386"/>
<text text-anchor="middle" x="159.5" y="-153.4" font-family="Times Roman,serif" font-size="14.00">b</text>
</g>
<!-- q5&#45;&gt;q10 -->
<g id="edge20" class="edge"><title>q5&#45;&gt;q10</title>
<path fill="none" stroke="black" d="M167.602,-225.15C164.94,-236.993 163.056,-252.672 167,-266 168.164,-269.935 169.893,-273.844 171.899,-277.565"/>
<polygon fill="black" stroke="black" points="169.073,-279.651 177.292,-286.337 175.036,-275.985 169.073,-279.651"/>
<text text-anchor="middle" x="171.5" y="-253.4" font-family="Times Roman,serif" font-size="14.00">a</text>
</g>
<!-- q5&#45;&gt;q8 -->
<g id="edge18" class="edge"><title>q5&#45;&gt;q8</title>
<path fill="none" stroke="black" d="M156.746,-191.754C149.67,-184.471 141.708,-175.322 136,-166 130.92,-157.704 126.714,-147.974 123.435,-139.023"/>
<polygon fill="black" stroke="black" points="126.68,-137.694 120.13,-129.366 120.057,-139.961 126.68,-137.694"/>
<text text-anchor="middle" x="140.5" y="-153.4" font-family="Times Roman,serif" font-size="14.00">b</text>
</g>
<!-- q6 -->
<g id="node19" class="node"><title>q6</title>
<ellipse fill="none" stroke="black" cx="246" cy="-579" rx="27" ry="18.3848"/>
<text text-anchor="middle" x="246" y="-575.4" font-family="Times Roman,serif" font-size="14.00">q6</text>
</g>
<!-- q6&#45;&gt;q0 -->
<g id="edge22" class="edge"><title>q6&#45;&gt;q0</title>
<path fill="none" stroke="black" d="M237.902,-561.261C231.801,-547.898 223.328,-529.338 216.379,-514.117"/>
<polygon fill="black" stroke="black" points="219.41,-512.327 212.073,-504.684 213.042,-515.235 219.41,-512.327"/>
<text text-anchor="middle" x="232.5" y="-529.4" font-family="Times Roman,serif" font-size="14.00">b</text>
</g>
<!-- q6&#45;&gt;q10 -->
<g id="edge24" class="edge"><title>q6&#45;&gt;q10</title>
<path fill="none" stroke="black" d="M248.816,-560.369C254.246,-518.408 262.55,-414.363 225,-340 222.444,-334.938 218.994,-330.062 215.269,-325.602"/>
<polygon fill="black" stroke="black" points="217.727,-323.103 208.4,-318.077 212.556,-327.822 217.727,-323.103"/>
<text text-anchor="middle" x="256.5" y="-437.4" font-family="Times Roman,serif" font-size="14.00">a</text>
</g>
</g>
</svg>
