<?xml version="1.0" encoding="UTF-8" standalone="no"?>
<!DOCTYPE svg PUBLIC "-//W3C//DTD SVG 1.1//EN"
 "http://www.w3.org/Graphics/SVG/1.1/DTD/svg11.dtd">
<!-- Generated by graphviz version 2.26.3 (20100126.1600)
 -->
<!-- Title: G Pages: 1 -->
<svg width="222pt" height="230pt"
 viewBox="0.00 0.00 222.00 230.00" xmlns="http://www.w3.org/2000/svg" xmlns:xlink="http://www.w3.org/1999/xlink">
<g id="graph1" class="graph" transform="scale(1 1) rotate(0) translate(4 226)">
<title>G</title>
<polygon fill="white" stroke="white" points="-4,5 -4,-226 219,-226 219,5 -4,5"/>
<!-- q2 -->
<g id="node1" class="node"><title>q2</title>
<ellipse fill="none" stroke="black" cx="140" cy="-203" rx="27" ry="18.3848"/>
<text text-anchor="middle" x="140" y="-199.4" font-family="Times Roman,serif" font-size="14.00">q2</text>
</g>
<!-- q3 -->
<g id="node3" class="node"><title>q3</title>
<ellipse fill="none" stroke="black" cx="71" cy="-111" rx="27" ry="18.3848"/>
<text text-anchor="middle" x="71" y="-107.4" font-family="Times Roman,serif" font-size="14.00">q3</text>
</g>
<!-- q2&#45;&gt;q3 -->
<g id="edge2" class="edge"><title>q2&#45;&gt;q3</title>
<path fill="none" stroke="black" d="M128.33,-185.946C120.722,-174.979 110.481,-160.496 101,-148 97.8322,-143.825 94.3943,-139.449 91.0141,-135.228"/>
<polygon fill="black" stroke="black" points="93.6846,-132.965 84.6713,-127.396 88.2445,-137.37 93.6846,-132.965"/>
<text text-anchor="middle" x="119.5" y="-153.4" font-family="Times Roman,serif" font-size="14.00">b</text>
</g>
<!-- q1 -->
<g id="node5" class="node"><title>q1</title>
<ellipse fill="none" stroke="black" cx="155" cy="-111" rx="27" ry="18.3848"/>
<text text-anchor="middle" x="155" y="-107.4" font-family="Times Roman,serif" font-size="14.00">q1</text>
</g>
<!-- q2&#45;&gt;q1 -->
<g id="edge4" class="edge"><title>q2&#45;&gt;q1</title>
<path fill="none" stroke="black" d="M154.008,-186.784C158.419,-180.68 162.73,-173.413 165,-166 167.655,-157.329 167.039,-147.661 165.187,-138.878"/>
<polygon fill="black" stroke="black" points="168.534,-137.843 162.567,-129.088 161.772,-139.653 168.534,-137.843"/>
<text text-anchor="middle" x="170.5" y="-153.4" font-family="Times Roman,serif" font-size="14.00">a</text>
</g>
<!-- q3&#45;&gt;q2 -->
<g id="edge14" class="edge"><title>q3&#45;&gt;q2</title>
<path fill="none" stroke="black" d="M61.313,-128.57C56.4172,-140.017 52.8669,-154.842 60,-166 62.8769,-170.5 86.4109,-181.097 107.214,-189.802"/>
<polygon fill="black" stroke="black" points="105.918,-193.053 116.497,-193.64 108.593,-186.584 105.918,-193.053"/>
<text text-anchor="middle" x="64.5" y="-153.4" font-family="Times Roman,serif" font-size="14.00">b</text>
</g>
<!-- q3&#45;&gt;q2 -->
<g id="edge16" class="edge"><title>q3&#45;&gt;q2</title>
<path fill="none" stroke="black" d="M75.2672,-129.335C78.5369,-140.673 83.8882,-155.092 92,-166 97.121,-172.886 103.851,-179.141 110.645,-184.466"/>
<polygon fill="black" stroke="black" points="109.03,-187.621 119.169,-190.693 113.159,-181.968 109.03,-187.621"/>
<text text-anchor="middle" x="96.5" y="-153.4" font-family="Times Roman,serif" font-size="14.00">a</text>
</g>
<!-- q1&#45;&gt;q2 -->
<g id="edge8" class="edge"><title>q1&#45;&gt;q2</title>
<path fill="none" stroke="black" d="M151.969,-129.59C149.876,-142.428 147.052,-159.748 144.673,-174.342"/>
<polygon fill="black" stroke="black" points="141.19,-173.95 143.035,-184.382 148.099,-175.076 141.19,-173.95"/>
<text text-anchor="middle" x="152.5" y="-153.4" font-family="Times Roman,serif" font-size="14.00">a</text>
</g>
<!-- q0 -->
<g id="node7" class="node"><title>q0</title>
<ellipse fill="none" stroke="black" cx="187" cy="-19" rx="27" ry="18.3848"/>
<text text-anchor="middle" x="187" y="-15.4" font-family="Times Roman,serif" font-size="14.00">q0</text>
</g>
<!-- q1&#45;&gt;q0 -->
<g id="edge6" class="edge"><title>q1&#45;&gt;q0</title>
<path fill="none" stroke="black" d="M161.322,-92.8238C165.88,-79.7191 172.117,-61.7885 177.303,-46.8803"/>
<polygon fill="black" stroke="black" points="180.711,-47.7333 180.691,-37.1385 174.1,-45.4336 180.711,-47.7333"/>
<text text-anchor="middle" x="177.5" y="-61.4" font-family="Times Roman,serif" font-size="14.00">b</text>
</g>
<!-- q0&#45;&gt;q2 -->
<g id="edge18" class="edge"><title>q0&#45;&gt;q2</title>
<path fill="none" stroke="black" d="M189.881,-37.6003C192.805,-59.7613 196.22,-97.832 191,-130 188.298,-146.648 188.055,-151.771 179,-166 175.383,-171.684 170.705,-177.104 165.851,-181.958"/>
<polygon fill="black" stroke="black" points="163.142,-179.699 158.208,-189.075 167.912,-184.822 163.142,-179.699"/>
<text text-anchor="middle" x="197.5" y="-107.4" font-family="Times Roman,serif" font-size="14.00">b</text>
</g>
<!-- q0&#45;&gt;q1 -->
<g id="edge20" class="edge"><title>q0&#45;&gt;q1</title>
<path fill="none" stroke="black" d="M170.42,-34.0083C164.741,-40.1994 159.052,-47.8365 156,-56 152.933,-64.2039 151.935,-73.5885 151.917,-82.2549"/>
<polygon fill="black" stroke="black" points="148.423,-82.4856 152.309,-92.3423 155.418,-82.214 148.423,-82.4856"/>
<text text-anchor="middle" x="160.5" y="-61.4" font-family="Times Roman,serif" font-size="14.00">a</text>
</g>
<!-- q4 -->
<g id="node9" class="node"><title>q4</title>
<ellipse fill="none" stroke="black" cx="27" cy="-203" rx="27" ry="18.3848"/>
<text text-anchor="middle" x="27" y="-199.4" font-family="Times Roman,serif" font-size="14.00">q4</text>
</g>
<!-- q4&#45;&gt;q3 -->
<g id="edge12" class="edge"><title>q4&#45;&gt;q3</title>
<path fill="none" stroke="black" d="M23.6773,-184.566C22.5429,-173.46 22.68,-159.323 28,-148 31.2823,-141.014 36.5852,-134.837 42.3638,-129.63"/>
<polygon fill="black" stroke="black" points="44.8136,-132.15 50.3935,-123.143 40.415,-126.705 44.8136,-132.15"/>
<text text-anchor="middle" x="32.5" y="-153.4" font-family="Times Roman,serif" font-size="14.00">a</text>
</g>
<!-- q4&#45;&gt;q4 -->
<g id="edge10" class="edge"><title>q4&#45;&gt;q4</title>
<path fill="none" stroke="black" d="M51.0743,-211.454C62.2423,-212.377 72,-209.559 72,-203 72,-198.593 67.5952,-195.875 61.3174,-194.846"/>
<polygon fill="black" stroke="black" points="61.1726,-191.34 51.0743,-194.546 60.9674,-198.337 61.1726,-191.34"/>
<text text-anchor="middle" x="76.5" y="-199.4" font-family="Times Roman,serif" font-size="14.00">b</text>
</g>
</g>
</svg>
