<?xml version="1.0" encoding="UTF-8" standalone="no"?>
<!DOCTYPE svg PUBLIC "-//W3C//DTD SVG 1.1//EN"
 "http://www.w3.org/Graphics/SVG/1.1/DTD/svg11.dtd">
<!-- Generated by graphviz version 2.26.3 (20100126.1600)
 -->
<!-- Title: G Pages: 1 -->
<svg width="196pt" height="322pt"
 viewBox="0.00 0.00 196.00 322.00" xmlns="http://www.w3.org/2000/svg" xmlns:xlink="http://www.w3.org/1999/xlink">
<g id="graph1" class="graph" transform="scale(1 1) rotate(0) translate(4 318)">
<title>G</title>
<polygon fill="white" stroke="white" points="-4,5 -4,-318 193,-318 193,5 -4,5"/>
<!-- q6 -->
<g id="node1" class="node"><title>q6</title>
<ellipse fill="none" stroke="black" cx="27" cy="-292" rx="27" ry="18"/>
<text text-anchor="middle" x="27" y="-287.9" font-family="Times Roman,serif" font-size="14.00">q6</text>
</g>
<!-- q6&#45;&gt;q6 -->
<g id="edge2" class="edge"><title>q6&#45;&gt;q6</title>
<path fill="none" stroke="black" d="M50.6146,-300.78C61.9731,-301.864 72,-298.938 72,-292 72,-287.339 67.4737,-284.488 61.0584,-283.448"/>
<polygon fill="black" stroke="black" points="60.6888,-279.939 50.6146,-283.22 60.5356,-286.938 60.6888,-279.939"/>
<text text-anchor="middle" x="76.5" y="-287.9" font-family="Times Roman,serif" font-size="14.00">b</text>
</g>
<!-- q4 -->
<g id="node4" class="node"><title>q4</title>
<ellipse fill="none" stroke="black" cx="78" cy="-198" rx="27" ry="18"/>
<text text-anchor="middle" x="78" y="-193.9" font-family="Times Roman,serif" font-size="14.00">q4</text>
</g>
<!-- q6&#45;&gt;q4 -->
<g id="edge4" class="edge"><title>q6&#45;&gt;q4</title>
<path fill="none" stroke="black" d="M36.3542,-274.759C44.0465,-260.581 55.0688,-240.265 63.8418,-224.095"/>
<polygon fill="black" stroke="black" points="67.0126,-225.591 68.7051,-215.132 60.8598,-222.252 67.0126,-225.591"/>
<text text-anchor="middle" x="62.5" y="-238.9" font-family="Times Roman,serif" font-size="14.00">a</text>
</g>
<!-- q4&#45;&gt;q4 -->
<g id="edge16" class="edge"><title>q4&#45;&gt;q4</title>
<path fill="none" stroke="black" d="M102.532,-206.121C113.508,-206.895 123,-204.188 123,-198 123,-193.843 118.715,-191.257 112.574,-190.242"/>
<polygon fill="black" stroke="black" points="112.652,-186.742 102.532,-189.879 112.4,-193.738 112.652,-186.742"/>
<text text-anchor="middle" x="127.5" y="-193.9" font-family="Times Roman,serif" font-size="14.00">a</text>
</g>
<!-- q2 -->
<g id="node7" class="node"><title>q2</title>
<ellipse fill="none" stroke="black" cx="78" cy="-108" rx="27" ry="18"/>
<text text-anchor="middle" x="78" y="-103.9" font-family="Times Roman,serif" font-size="14.00">q2</text>
</g>
<!-- q4&#45;&gt;q2 -->
<g id="edge14" class="edge"><title>q4&#45;&gt;q2</title>
<path fill="none" stroke="black" d="M78,-179.787C78,-167.344 78,-150.605 78,-136.421"/>
<polygon fill="black" stroke="black" points="81.5001,-136.186 78,-126.186 74.5001,-136.186 81.5001,-136.186"/>
<text text-anchor="middle" x="82.5" y="-148.9" font-family="Times Roman,serif" font-size="14.00">b</text>
</g>
<!-- q5 -->
<g id="node5" class="node"><title>q5</title>
<ellipse fill="none" stroke="black" cx="78" cy="-18" rx="27" ry="18"/>
<text text-anchor="middle" x="78" y="-13.9" font-family="Times Roman,serif" font-size="14.00">q5</text>
</g>
<!-- q5&#45;&gt;q2 -->
<g id="edge6" class="edge"><title>q5&#45;&gt;q2</title>
<path fill="none" stroke="black" d="M78,-36.1858C78,-48.6224 78,-65.3601 78,-79.5481"/>
<polygon fill="black" stroke="black" points="74.5001,-79.7871 78,-89.7872 81.5001,-79.7872 74.5001,-79.7871"/>
<text text-anchor="middle" x="82.5" y="-58.9" font-family="Times Roman,serif" font-size="14.00">b</text>
</g>
<!-- q5&#45;&gt;q2 -->
<g id="edge8" class="edge"><title>q5&#45;&gt;q2</title>
<path fill="none" stroke="black" d="M83.956,-35.7451C85.6095,-41.4999 87.1765,-47.9584 88,-54 89.0805,-61.9267 89.0805,-64.0733 88,-72 87.6268,-74.7376 87.101,-77.5608 86.4837,-80.3653"/>
<polygon fill="black" stroke="black" points="83.0414,-79.6996 83.956,-90.2549 89.8234,-81.4331 83.0414,-79.6996"/>
<text text-anchor="middle" x="92.5" y="-58.9" font-family="Times Roman,serif" font-size="14.00">a</text>
</g>
<!-- q2&#45;&gt;q5 -->
<g id="edge12" class="edge"><title>q2&#45;&gt;q5</title>
<path fill="none" stroke="black" d="M70.2648,-90.3885C68.1157,-84.6409 66.0769,-78.1528 65,-72 63.6208,-64.1198 63.6208,-61.8802 65,-54 65.5048,-51.1159 66.2209,-48.1581 67.0607,-45.2374"/>
<polygon fill="black" stroke="black" points="70.4274,-46.2051 70.2648,-35.6115 63.7856,-43.9943 70.4274,-46.2051"/>
<text text-anchor="middle" x="69.5" y="-58.9" font-family="Times Roman,serif" font-size="14.00">a</text>
</g>
<!-- q2&#45;&gt;q2 -->
<g id="edge10" class="edge"><title>q2&#45;&gt;q2</title>
<path fill="none" stroke="black" d="M102.532,-116.121C113.508,-116.895 123,-114.188 123,-108 123,-103.843 118.715,-101.257 112.574,-100.242"/>
<polygon fill="black" stroke="black" points="112.652,-96.7424 102.532,-99.8789 112.4,-103.738 112.652,-96.7424"/>
<text text-anchor="middle" x="127.5" y="-103.9" font-family="Times Roman,serif" font-size="14.00">b</text>
</g>
<!-- q0 -->
<g id="node13" class="node"><title>q0</title>
<ellipse fill="none" stroke="black" cx="130" cy="-292" rx="27" ry="18"/>
<ellipse fill="none" stroke="black" cx="130" cy="-292" rx="31" ry="22"/>
<text text-anchor="middle" x="130" y="-287.9" font-family="Times Roman,serif" font-size="14.00">q0</text>
</g>
<!-- q0&#45;&gt;q4 -->
<g id="edge20" class="edge"><title>q0&#45;&gt;q4</title>
<path fill="none" stroke="black" d="M118.46,-271.138C110.802,-257.295 100.69,-239.016 92.4909,-224.195"/>
<polygon fill="black" stroke="black" points="95.3276,-222.092 87.4243,-215.036 89.2024,-225.481 95.3276,-222.092"/>
<text text-anchor="middle" x="111.5" y="-238.9" font-family="Times Roman,serif" font-size="14.00">a</text>
</g>
<!-- q0&#45;&gt;q0 -->
<g id="edge18" class="edge"><title>q0&#45;&gt;q0</title>
<path fill="none" stroke="black" d="M158.689,-300.965C169.781,-301.363 179,-298.375 179,-292 179,-287.717 174.838,-284.962 168.743,-283.737"/>
<polygon fill="black" stroke="black" points="168.908,-280.24 158.689,-283.035 168.421,-287.223 168.908,-280.24"/>
<text text-anchor="middle" x="183.5" y="-287.9" font-family="Times Roman,serif" font-size="14.00">b</text>
</g>
</g>
</svg>
