<?xml version="1.0" encoding="UTF-8" standalone="no"?>
<!DOCTYPE svg PUBLIC "-//W3C//DTD SVG 1.1//EN"
 "http://www.w3.org/Graphics/SVG/1.1/DTD/svg11.dtd">
<!-- Generated by graphviz version 2.26.3 (20100126.1600)
 -->
<!-- Title: G Pages: 1 -->
<svg width="253pt" height="514pt"
 viewBox="0.00 0.00 253.00 514.00" xmlns="http://www.w3.org/2000/svg" xmlns:xlink="http://www.w3.org/1999/xlink">
<g id="graph1" class="graph" transform="scale(1 1) rotate(0) translate(4 510)">
<title>G</title>
<polygon fill="white" stroke="white" points="-4,5 -4,-510 250,-510 250,5 -4,5"/>
<!-- q0 -->
<g id="node1" class="node"><title>q0</title>
<ellipse fill="none" stroke="black" cx="191" cy="-487" rx="27" ry="18.3848"/>
<text text-anchor="middle" x="191" y="-483.4" font-family="Times Roman,serif" font-size="14.00">q0</text>
</g>
<!-- q0&#45;&gt;q0 -->
<g id="edge2" class="edge"><title>q0&#45;&gt;q0</title>
<path fill="none" stroke="black" d="M215.074,-495.454C226.242,-496.377 236,-493.559 236,-487 236,-482.593 231.595,-479.875 225.317,-478.846"/>
<polygon fill="black" stroke="black" points="225.173,-475.34 215.074,-478.546 224.967,-482.337 225.173,-475.34"/>
<text text-anchor="middle" x="240.5" y="-483.4" font-family="Times Roman,serif" font-size="14.00">b</text>
</g>
<!-- q6 -->
<g id="node4" class="node"><title>q6</title>
<ellipse fill="none" stroke="black" cx="75" cy="-395" rx="27" ry="18.3848"/>
<text text-anchor="middle" x="75" y="-391.4" font-family="Times Roman,serif" font-size="14.00">q6</text>
</g>
<!-- q0&#45;&gt;q6 -->
<g id="edge4" class="edge"><title>q0&#45;&gt;q6</title>
<path fill="none" stroke="black" d="M173.129,-472.827C153.744,-457.452 122.627,-432.773 100.638,-415.334"/>
<polygon fill="black" stroke="black" points="102.711,-412.51 92.7007,-409.039 98.3608,-417.995 102.711,-412.51"/>
<text text-anchor="middle" x="147.5" y="-437.4" font-family="Times Roman,serif" font-size="14.00">a</text>
</g>
<!-- q6&#45;&gt;q6 -->
<g id="edge22" class="edge"><title>q6&#45;&gt;q6</title>
<path fill="none" stroke="black" d="M99.0743,-403.454C110.242,-404.377 120,-401.559 120,-395 120,-390.593 115.595,-387.875 109.317,-386.846"/>
<polygon fill="black" stroke="black" points="109.173,-383.34 99.0743,-386.546 108.967,-390.337 109.173,-383.34"/>
<text text-anchor="middle" x="124.5" y="-391.4" font-family="Times Roman,serif" font-size="14.00">b</text>
</g>
<!-- q7 -->
<g id="node12" class="node"><title>q7</title>
<ellipse fill="none" stroke="black" cx="69" cy="-303" rx="27" ry="18.3848"/>
<text text-anchor="middle" x="69" y="-299.4" font-family="Times Roman,serif" font-size="14.00">q7</text>
</g>
<!-- q6&#45;&gt;q7 -->
<g id="edge24" class="edge"><title>q6&#45;&gt;q7</title>
<path fill="none" stroke="black" d="M73.7858,-376.382C72.9482,-363.538 71.8184,-346.216 70.867,-331.627"/>
<polygon fill="black" stroke="black" points="74.3558,-331.341 70.2124,-321.59 67.3707,-331.796 74.3558,-331.341"/>
<text text-anchor="middle" x="77.5" y="-345.4" font-family="Times Roman,serif" font-size="14.00">a</text>
</g>
<!-- q1 -->
<g id="node5" class="node"><title>q1</title>
<ellipse fill="none" stroke="black" cx="106" cy="-211" rx="27" ry="18.3848"/>
<text text-anchor="middle" x="106" y="-207.4" font-family="Times Roman,serif" font-size="14.00">q1</text>
</g>
<!-- q4 -->
<g id="node7" class="node"><title>q4</title>
<ellipse fill="none" stroke="black" cx="54" cy="-119" rx="27" ry="18.3848"/>
<text text-anchor="middle" x="54" y="-115.4" font-family="Times Roman,serif" font-size="14.00">q4</text>
</g>
<!-- q1&#45;&gt;q4 -->
<g id="edge6" class="edge"><title>q1&#45;&gt;q4</title>
<path fill="none" stroke="black" d="M96.2192,-193.696C88.569,-180.161 77.7997,-161.107 69.0527,-145.632"/>
<polygon fill="black" stroke="black" points="71.8813,-143.523 63.9137,-136.54 65.7874,-146.968 71.8813,-143.523"/>
<text text-anchor="middle" x="88.5" y="-161.4" font-family="Times Roman,serif" font-size="14.00">b</text>
</g>
<!-- q9 -->
<g id="node9" class="node"><title>q9</title>
<ellipse fill="none" stroke="black" cx="161" cy="-23" rx="27" ry="18.3848"/>
<text text-anchor="middle" x="161" y="-19.4" font-family="Times Roman,serif" font-size="14.00">q9</text>
</g>
<!-- q1&#45;&gt;q9 -->
<g id="edge8" class="edge"><title>q1&#45;&gt;q9</title>
<path fill="none" stroke="black" d="M110.84,-192.336C118.186,-164.324 132.804,-109.806 147,-64 148.303,-59.7971 149.741,-55.374 151.185,-51.0509"/>
<polygon fill="black" stroke="black" points="154.596,-51.8901 154.503,-41.2957 147.969,-49.6357 154.596,-51.8901"/>
<text text-anchor="middle" x="139.5" y="-115.4" font-family="Times Roman,serif" font-size="14.00">a</text>
</g>
<!-- q4&#45;&gt;q9 -->
<g id="edge16" class="edge"><title>q4&#45;&gt;q9</title>
<path fill="none" stroke="black" d="M65.4589,-101.941C73.6894,-90.4316 85.4986,-75.3348 98,-64 99.611,-62.5393 116.629,-51.4815 132.57,-41.218"/>
<polygon fill="black" stroke="black" points="134.691,-44.0152 141.211,-35.6638 130.906,-38.1268 134.691,-44.0152"/>
<text text-anchor="middle" x="102.5" y="-69.4" font-family="Times Roman,serif" font-size="14.00">a</text>
</g>
<!-- q8 -->
<g id="node15" class="node"><title>q8</title>
<ellipse fill="none" stroke="black" cx="31" cy="-23" rx="27" ry="18.3848"/>
<ellipse fill="none" stroke="black" cx="31" cy="-23" rx="31" ry="22.3848"/>
<text text-anchor="middle" x="31" y="-19.4" font-family="Times Roman,serif" font-size="14.00">q8</text>
</g>
<!-- q4&#45;&gt;q8 -->
<g id="edge14" class="edge"><title>q4&#45;&gt;q8</title>
<path fill="none" stroke="black" d="M49.5654,-100.49C46.5108,-87.7407 42.3704,-70.459 38.7747,-55.451"/>
<polygon fill="black" stroke="black" points="42.1261,-54.417 36.3925,-45.5077 35.3188,-56.048 42.1261,-54.417"/>
<text text-anchor="middle" x="49.5" y="-69.4" font-family="Times Roman,serif" font-size="14.00">b</text>
</g>
<!-- q9&#45;&gt;q0 -->
<g id="edge34" class="edge"><title>q9&#45;&gt;q0</title>
<path fill="none" stroke="black" d="M172.196,-39.8941C183.405,-58.4726 199,-89.6032 199,-119 199,-395 199,-395 199,-395 199,-416.309 196.843,-440.291 194.77,-458.426"/>
<polygon fill="black" stroke="black" points="191.294,-458.017 193.575,-468.364 198.244,-458.853 191.294,-458.017"/>
<text text-anchor="middle" x="203.5" y="-253.4" font-family="Times Roman,serif" font-size="14.00">b</text>
</g>
<!-- q9&#45;&gt;q7 -->
<g id="edge36" class="edge"><title>q9&#45;&gt;q7</title>
<path fill="none" stroke="black" d="M163.337,-41.5159C167.238,-79.0858 171.953,-166.121 142,-230 131.892,-251.558 112.617,-270.399 96.4107,-283.538"/>
<polygon fill="black" stroke="black" points="94.0171,-280.966 88.2806,-289.874 98.3198,-286.488 94.0171,-280.966"/>
<text text-anchor="middle" x="166.5" y="-161.4" font-family="Times Roman,serif" font-size="14.00">a</text>
</g>
<!-- q2 -->
<g id="node10" class="node"><title>q2</title>
<ellipse fill="none" stroke="black" cx="34" cy="-211" rx="27" ry="18.3848"/>
<text text-anchor="middle" x="34" y="-207.4" font-family="Times Roman,serif" font-size="14.00">q2</text>
</g>
<!-- q2&#45;&gt;q4 -->
<g id="edge12" class="edge"><title>q2&#45;&gt;q4</title>
<path fill="none" stroke="black" d="M38.0473,-192.382C40.8395,-179.538 44.6052,-162.216 47.7768,-147.627"/>
<polygon fill="black" stroke="black" points="51.2545,-148.105 49.9587,-137.59 44.4142,-146.618 51.2545,-148.105"/>
<text text-anchor="middle" x="50.5" y="-161.4" font-family="Times Roman,serif" font-size="14.00">a</text>
</g>
<!-- q2&#45;&gt;q7 -->
<g id="edge10" class="edge"><title>q2&#45;&gt;q7</title>
<path fill="none" stroke="black" d="M32.0821,-229.478C31.6444,-240.47 32.3453,-254.473 37,-266 39.1067,-271.217 42.2661,-276.212 45.7923,-280.75"/>
<polygon fill="black" stroke="black" points="43.1983,-283.101 52.3873,-288.375 48.4926,-278.522 43.1983,-283.101"/>
<text text-anchor="middle" x="41.5" y="-253.4" font-family="Times Roman,serif" font-size="14.00">b</text>
</g>
<!-- q7&#45;&gt;q2 -->
<g id="edge26" class="edge"><title>q7&#45;&gt;q2</title>
<path fill="none" stroke="black" d="M62.0851,-284.824C57.0996,-271.719 50.2782,-253.789 44.6066,-238.88"/>
<polygon fill="black" stroke="black" points="47.7276,-237.24 40.9005,-229.138 41.185,-239.729 47.7276,-237.24"/>
<text text-anchor="middle" x="59.5" y="-253.4" font-family="Times Roman,serif" font-size="14.00">b</text>
</g>
<!-- q7&#45;&gt;q7 -->
<g id="edge28" class="edge"><title>q7&#45;&gt;q7</title>
<path fill="none" stroke="black" d="M93.0743,-311.454C104.242,-312.377 114,-309.559 114,-303 114,-298.593 109.595,-295.875 103.317,-294.846"/>
<polygon fill="black" stroke="black" points="103.173,-291.34 93.0743,-294.546 102.967,-298.337 103.173,-291.34"/>
<text text-anchor="middle" x="118.5" y="-299.4" font-family="Times Roman,serif" font-size="14.00">a</text>
</g>
<!-- q8&#45;&gt;q8 -->
<g id="edge30" class="edge"><title>q8&#45;&gt;q8</title>
<path fill="none" stroke="black" d="M61.625,-27.6875C71.8333,-27.6875 80,-26.125 80,-23 80,-21.0469 76.8099,-19.7041 71.925,-18.9717"/>
<polygon fill="black" stroke="black" points="71.8282,-15.4584 61.625,-18.3125 71.381,-22.4441 71.8282,-15.4584"/>
<text text-anchor="middle" x="84.5" y="-19.4" font-family="Times Roman,serif" font-size="14.00">b</text>
</g>
<!-- q8&#45;&gt;q8 -->
<g id="edge32" class="edge"><title>q8&#45;&gt;q8</title>
<path fill="none" stroke="black" d="M54.3472,-37.9505C75.424,-45.2237 98,-40.2402 98,-23 98,-8.45355 81.9279,-2.63284 64.245,-5.53787"/>
<polygon fill="black" stroke="black" points="63.1792,-2.19731 54.3472,-8.04948 64.9009,-8.98227 63.1792,-2.19731"/>
<text text-anchor="middle" x="102.5" y="-19.4" font-family="Times Roman,serif" font-size="14.00">a</text>
</g>
<!-- q5 -->
<g id="node17" class="node"><title>q5</title>
<ellipse fill="none" stroke="black" cx="75" cy="-487" rx="27" ry="18.3848"/>
<text text-anchor="middle" x="75" y="-483.4" font-family="Times Roman,serif" font-size="14.00">q5</text>
</g>
<!-- q5&#45;&gt;q6 -->
<g id="edge18" class="edge"><title>q5&#45;&gt;q6</title>
<path fill="none" stroke="black" d="M75,-468.382C75,-455.538 75,-438.216 75,-423.627"/>
<polygon fill="black" stroke="black" points="78.5001,-423.59 75,-413.59 71.5001,-423.59 78.5001,-423.59"/>
<text text-anchor="middle" x="79.5" y="-437.4" font-family="Times Roman,serif" font-size="14.00">b</text>
</g>
<!-- q5&#45;&gt;q5 -->
<g id="edge20" class="edge"><title>q5&#45;&gt;q5</title>
<path fill="none" stroke="black" d="M99.0743,-495.454C110.242,-496.377 120,-493.559 120,-487 120,-482.593 115.595,-479.875 109.317,-478.846"/>
<polygon fill="black" stroke="black" points="109.173,-475.34 99.0743,-478.546 108.967,-482.337 109.173,-475.34"/>
<text text-anchor="middle" x="124.5" y="-483.4" font-family="Times Roman,serif" font-size="14.00">a</text>
</g>
</g>
</svg>
