<?xml version="1.0" encoding="UTF-8" standalone="no"?>
<!DOCTYPE svg PUBLIC "-//W3C//DTD SVG 1.1//EN"
 "http://www.w3.org/Graphics/SVG/1.1/DTD/svg11.dtd">
<!-- Generated by graphviz version 2.26.3 (20100126.1600)
 -->
<!-- Title: G Pages: 1 -->
<svg width="270pt" height="230pt"
 viewBox="0.00 0.00 270.00 230.00" xmlns="http://www.w3.org/2000/svg" xmlns:xlink="http://www.w3.org/1999/xlink">
<g id="graph1" class="graph" transform="scale(1 1) rotate(0) translate(4 226)">
<title>G</title>
<polygon fill="white" stroke="white" points="-4,5 -4,-226 267,-226 267,5 -4,5"/>
<!-- q2 -->
<g id="node1" class="node"><title>q2</title>
<ellipse fill="none" stroke="black" cx="106" cy="-203" rx="27" ry="18.3848"/>
<text text-anchor="middle" x="106" y="-199.4" font-family="Times Roman,serif" font-size="14.00">q2</text>
</g>
<!-- q3 -->
<g id="node3" class="node"><title>q3</title>
<ellipse fill="none" stroke="black" cx="187" cy="-111" rx="27" ry="18.3848"/>
<text text-anchor="middle" x="187" y="-107.4" font-family="Times Roman,serif" font-size="14.00">q3</text>
</g>
<!-- q2&#45;&gt;q3 -->
<g id="edge2" class="edge"><title>q2&#45;&gt;q3</title>
<path fill="none" stroke="black" d="M120.109,-186.975C132.885,-172.463 151.868,-150.903 166.351,-134.453"/>
<polygon fill="black" stroke="black" points="169.071,-136.66 173.053,-126.842 163.817,-132.034 169.071,-136.66"/>
<text text-anchor="middle" x="157.5" y="-153.4" font-family="Times Roman,serif" font-size="14.00">b</text>
</g>
<!-- q1 -->
<g id="node5" class="node"><title>q1</title>
<ellipse fill="none" stroke="black" cx="27" cy="-111" rx="27" ry="18.3848"/>
<text text-anchor="middle" x="27" y="-107.4" font-family="Times Roman,serif" font-size="14.00">q1</text>
</g>
<!-- q2&#45;&gt;q1 -->
<g id="edge4" class="edge"><title>q2&#45;&gt;q1</title>
<path fill="none" stroke="black" d="M80.522,-196.825C64.2021,-191.48 44.0741,-182.009 33,-166 27.7763,-158.449 25.6172,-148.868 24.9623,-139.826"/>
<polygon fill="black" stroke="black" points="28.4583,-139.553 24.791,-129.613 21.4593,-139.671 28.4583,-139.553"/>
<text text-anchor="middle" x="37.5" y="-153.4" font-family="Times Roman,serif" font-size="14.00">a</text>
</g>
<!-- q3&#45;&gt;q2 -->
<g id="edge14" class="edge"><title>q3&#45;&gt;q2</title>
<path fill="none" stroke="black" d="M182.79,-129.36C179.445,-140.847 173.831,-155.421 165,-166 157.585,-174.883 147.468,-182.295 137.706,-188.095"/>
<polygon fill="black" stroke="black" points="135.976,-185.053 128.929,-192.964 139.371,-191.174 135.976,-185.053"/>
<text text-anchor="middle" x="179.5" y="-153.4" font-family="Times Roman,serif" font-size="14.00">b</text>
</g>
<!-- q3&#45;&gt;q2 -->
<g id="edge16" class="edge"><title>q3&#45;&gt;q2</title>
<path fill="none" stroke="black" d="M163.744,-120.454C151.069,-126.639 135.979,-135.84 126,-148 119.657,-155.729 115.236,-165.643 112.195,-174.92"/>
<polygon fill="black" stroke="black" points="108.811,-174.025 109.413,-184.603 115.539,-175.959 108.811,-174.025"/>
<text text-anchor="middle" x="130.5" y="-153.4" font-family="Times Roman,serif" font-size="14.00">a</text>
</g>
<!-- q1&#45;&gt;q2 -->
<g id="edge8" class="edge"><title>q1&#45;&gt;q2</title>
<path fill="none" stroke="black" d="M38.1461,-127.969C45.7819,-139.163 56.409,-153.931 67,-166 71.4438,-171.064 76.4825,-176.214 81.4272,-180.999"/>
<polygon fill="black" stroke="black" points="79.3424,-183.844 89.0212,-188.153 84.1423,-178.748 79.3424,-183.844"/>
<text text-anchor="middle" x="71.5" y="-153.4" font-family="Times Roman,serif" font-size="14.00">a</text>
</g>
<!-- q0 -->
<g id="node7" class="node"><title>q0</title>
<ellipse fill="none" stroke="black" cx="59" cy="-19" rx="27" ry="18.3848"/>
<text text-anchor="middle" x="59" y="-15.4" font-family="Times Roman,serif" font-size="14.00">q0</text>
</g>
<!-- q1&#45;&gt;q0 -->
<g id="edge6" class="edge"><title>q1&#45;&gt;q0</title>
<path fill="none" stroke="black" d="M33.3222,-92.8238C37.8803,-79.7191 44.117,-61.7885 49.3025,-46.8803"/>
<polygon fill="black" stroke="black" points="52.7114,-47.7333 52.691,-37.1385 46.1,-45.4336 52.7114,-47.7333"/>
<text text-anchor="middle" x="49.5" y="-61.4" font-family="Times Roman,serif" font-size="14.00">b</text>
</g>
<!-- q0&#45;&gt;q2 -->
<g id="edge18" class="edge"><title>q0&#45;&gt;q2</title>
<path fill="none" stroke="black" d="M63.6594,-37.2412C71.8805,-69.4259 89.0125,-136.496 98.7766,-174.721"/>
<polygon fill="black" stroke="black" points="95.4556,-175.862 101.322,-184.685 102.238,-174.13 95.4556,-175.862"/>
<text text-anchor="middle" x="91.5" y="-107.4" font-family="Times Roman,serif" font-size="14.00">b</text>
</g>
<!-- q0&#45;&gt;q1 -->
<g id="edge20" class="edge"><title>q0&#45;&gt;q1</title>
<path fill="none" stroke="black" d="M42.4197,-34.0083C36.7406,-40.1994 31.0521,-47.8365 28,-56 24.9327,-64.2039 23.9348,-73.5885 23.9172,-82.2549"/>
<polygon fill="black" stroke="black" points="20.4234,-82.4856 24.3087,-92.3423 27.4182,-82.214 20.4234,-82.4856"/>
<text text-anchor="middle" x="32.5" y="-61.4" font-family="Times Roman,serif" font-size="14.00">a</text>
</g>
<!-- q4 -->
<g id="node9" class="node"><title>q4</title>
<ellipse fill="none" stroke="black" cx="235" cy="-203" rx="27" ry="18.3848"/>
<text text-anchor="middle" x="235" y="-199.4" font-family="Times Roman,serif" font-size="14.00">q4</text>
</g>
<!-- q4&#45;&gt;q3 -->
<g id="edge10" class="edge"><title>q4&#45;&gt;q3</title>
<path fill="none" stroke="black" d="M225.745,-185.261C218.706,-171.77 208.905,-152.984 200.921,-137.683"/>
<polygon fill="black" stroke="black" points="203.955,-135.931 196.226,-128.684 197.749,-139.169 203.955,-135.931"/>
<text text-anchor="middle" x="219.5" y="-153.4" font-family="Times Roman,serif" font-size="14.00">b</text>
</g>
<!-- q4&#45;&gt;q3 -->
<g id="edge12" class="edge"><title>q4&#45;&gt;q3</title>
<path fill="none" stroke="black" d="M235.801,-184.46C235.537,-173.315 233.841,-159.175 228,-148 224.658,-141.606 219.738,-135.774 214.457,-130.726"/>
<polygon fill="black" stroke="black" points="216.451,-127.822 206.602,-123.917 211.866,-133.112 216.451,-127.822"/>
<text text-anchor="middle" x="237.5" y="-153.4" font-family="Times Roman,serif" font-size="14.00">a</text>
</g>
</g>
</svg>
