<?xml version="1.0" encoding="UTF-8" standalone="no"?>
<!DOCTYPE svg PUBLIC "-//W3C//DTD SVG 1.1//EN"
 "http://www.w3.org/Graphics/SVG/1.1/DTD/svg11.dtd">
<!-- Generated by graphviz version 2.26.3 (20100126.1600)
 -->
<!-- Title: G Pages: 1 -->
<svg width="276pt" height="706pt"
 viewBox="0.00 0.00 276.00 706.00" xmlns="http://www.w3.org/2000/svg" xmlns:xlink="http://www.w3.org/1999/xlink">
<g id="graph1" class="graph" transform="scale(1 1) rotate(0) translate(4 702)">
<title>G</title>
<polygon fill="white" stroke="white" points="-4,5 -4,-702 273,-702 273,5 -4,5"/>
<!-- q0 -->
<g id="node1" class="node"><title>q0</title>
<ellipse fill="none" stroke="black" cx="27" cy="-491" rx="27" ry="18.3848"/>
<text text-anchor="middle" x="27" y="-487.4" font-family="Times Roman,serif" font-size="14.00">q0</text>
</g>
<!-- q0&#45;&gt;q0 -->
<g id="edge2" class="edge"><title>q0&#45;&gt;q0</title>
<path fill="none" stroke="black" d="M50.6146,-500.146C61.9731,-501.275 72,-498.227 72,-491 72,-486.145 67.4737,-483.175 61.0584,-482.092"/>
<polygon fill="black" stroke="black" points="60.6918,-478.583 50.6146,-481.854 60.5323,-485.581 60.6918,-478.583"/>
<text text-anchor="middle" x="76.5" y="-487.4" font-family="Times Roman,serif" font-size="14.00">b</text>
</g>
<!-- q6 -->
<g id="node4" class="node"><title>q6</title>
<ellipse fill="none" stroke="black" cx="130" cy="-395" rx="27" ry="18.3848"/>
<text text-anchor="middle" x="130" y="-391.4" font-family="Times Roman,serif" font-size="14.00">q6</text>
</g>
<!-- q0&#45;&gt;q6 -->
<g id="edge4" class="edge"><title>q0&#45;&gt;q6</title>
<path fill="none" stroke="black" d="M43.0938,-476C60.0013,-460.241 86.777,-435.286 106.142,-417.236"/>
<polygon fill="black" stroke="black" points="108.75,-419.59 113.679,-410.211 103.978,-414.469 108.75,-419.59"/>
<text text-anchor="middle" x="92.5" y="-437.4" font-family="Times Roman,serif" font-size="14.00">a</text>
</g>
<!-- q6&#45;&gt;q6 -->
<g id="edge26" class="edge"><title>q6&#45;&gt;q6</title>
<path fill="none" stroke="black" d="M154.074,-403.454C165.242,-404.377 175,-401.559 175,-395 175,-390.593 170.595,-387.875 164.317,-386.846"/>
<polygon fill="black" stroke="black" points="164.173,-383.34 154.074,-386.546 163.967,-390.337 164.173,-383.34"/>
<text text-anchor="middle" x="179.5" y="-391.4" font-family="Times Roman,serif" font-size="14.00">b</text>
</g>
<!-- q7 -->
<g id="node12" class="node"><title>q7</title>
<ellipse fill="none" stroke="black" cx="130" cy="-303" rx="27" ry="18.3848"/>
<text text-anchor="middle" x="130" y="-299.4" font-family="Times Roman,serif" font-size="14.00">q7</text>
</g>
<!-- q6&#45;&gt;q7 -->
<g id="edge28" class="edge"><title>q6&#45;&gt;q7</title>
<path fill="none" stroke="black" d="M130,-376.382C130,-363.538 130,-346.216 130,-331.627"/>
<polygon fill="black" stroke="black" points="133.5,-331.59 130,-321.59 126.5,-331.59 133.5,-331.59"/>
<text text-anchor="middle" x="134.5" y="-345.4" font-family="Times Roman,serif" font-size="14.00">a</text>
</g>
<!-- q1 -->
<g id="node5" class="node"><title>q1</title>
<ellipse fill="none" stroke="black" cx="211" cy="-679" rx="27" ry="18.3848"/>
<text text-anchor="middle" x="211" y="-675.4" font-family="Times Roman,serif" font-size="14.00">q1</text>
</g>
<!-- q3 -->
<g id="node7" class="node"><title>q3</title>
<ellipse fill="none" stroke="black" cx="173" cy="-587" rx="27" ry="18.3848"/>
<text text-anchor="middle" x="173" y="-583.4" font-family="Times Roman,serif" font-size="14.00">q3</text>
</g>
<!-- q1&#45;&gt;q3 -->
<g id="edge6" class="edge"><title>q1&#45;&gt;q3</title>
<path fill="none" stroke="black" d="M203.492,-660.824C197.992,-647.507 190.433,-629.207 184.218,-614.159"/>
<polygon fill="black" stroke="black" points="187.415,-612.732 180.363,-604.825 180.945,-615.404 187.415,-612.732"/>
<text text-anchor="middle" x="199.5" y="-629.4" font-family="Times Roman,serif" font-size="14.00">b</text>
</g>
<!-- q8 -->
<g id="node9" class="node"><title>q8</title>
<ellipse fill="none" stroke="black" cx="183" cy="-23" rx="27" ry="18.3848"/>
<ellipse fill="none" stroke="black" cx="183" cy="-23" rx="31" ry="22.3848"/>
<text text-anchor="middle" x="183" y="-19.4" font-family="Times Roman,serif" font-size="14.00">q8</text>
</g>
<!-- q1&#45;&gt;q8 -->
<g id="edge8" class="edge"><title>q1&#45;&gt;q8</title>
<path fill="none" stroke="black" d="M218.277,-661.004C225.016,-642.694 234,-613.342 234,-587 234,-587 234,-587 234,-119 234,-93.699 220.014,-68.57 206.69,-50.3716"/>
<polygon fill="black" stroke="black" points="209.139,-47.8148 200.266,-42.0241 203.591,-52.0838 209.139,-47.8148"/>
<text text-anchor="middle" x="238.5" y="-345.4" font-family="Times Roman,serif" font-size="14.00">a</text>
</g>
<!-- q3&#45;&gt;q6 -->
<g id="edge16" class="edge"><title>q3&#45;&gt;q6</title>
<path fill="none" stroke="black" d="M175.192,-568.471C177.402,-544.73 179.303,-502.521 170,-468 165.448,-451.107 156.255,-433.866 147.83,-420.384"/>
<polygon fill="black" stroke="black" points="150.571,-418.178 142.186,-411.702 144.702,-421.994 150.571,-418.178"/>
<text text-anchor="middle" x="180.5" y="-487.4" font-family="Times Roman,serif" font-size="14.00">a</text>
</g>
<!-- q5 -->
<g id="node16" class="node"><title>q5</title>
<ellipse fill="none" stroke="black" cx="130" cy="-491" rx="27" ry="18.3848"/>
<ellipse fill="none" stroke="black" cx="130" cy="-491" rx="31" ry="22.3848"/>
<text text-anchor="middle" x="130" y="-487.4" font-family="Times Roman,serif" font-size="14.00">q5</text>
</g>
<!-- q3&#45;&gt;q5 -->
<g id="edge14" class="edge"><title>q3&#45;&gt;q5</title>
<path fill="none" stroke="black" d="M154.992,-572.96C148.224,-566.688 141.166,-558.737 137,-550 133.139,-541.903 131.094,-532.498 130.076,-523.608"/>
<polygon fill="black" stroke="black" points="133.557,-523.223 129.306,-513.519 126.577,-523.756 133.557,-523.223"/>
<text text-anchor="middle" x="141.5" y="-537.4" font-family="Times Roman,serif" font-size="14.00">b</text>
</g>
<!-- q8&#45;&gt;q8 -->
<g id="edge34" class="edge"><title>q8&#45;&gt;q8</title>
<path fill="none" stroke="black" d="M213.625,-27.6875C223.833,-27.6875 232,-26.125 232,-23 232,-21.0469 228.81,-19.7041 223.925,-18.9717"/>
<polygon fill="black" stroke="black" points="223.828,-15.4584 213.625,-18.3125 223.381,-22.4441 223.828,-15.4584"/>
<text text-anchor="middle" x="236.5" y="-19.4" font-family="Times Roman,serif" font-size="14.00">b</text>
</g>
<!-- q8&#45;&gt;q8 -->
<g id="edge36" class="edge"><title>q8&#45;&gt;q8</title>
<path fill="none" stroke="black" d="M206.347,-37.9505C227.424,-45.2237 250,-40.2402 250,-23 250,-8.45355 233.928,-2.63284 216.245,-5.53787"/>
<polygon fill="black" stroke="black" points="215.179,-2.19731 206.347,-8.04948 216.901,-8.98227 215.179,-2.19731"/>
<text text-anchor="middle" x="254.5" y="-19.4" font-family="Times Roman,serif" font-size="14.00">a</text>
</g>
<!-- q2 -->
<g id="node10" class="node"><title>q2</title>
<ellipse fill="none" stroke="black" cx="157" cy="-211" rx="27" ry="18.3848"/>
<text text-anchor="middle" x="157" y="-207.4" font-family="Times Roman,serif" font-size="14.00">q2</text>
</g>
<!-- q2&#45;&gt;q7 -->
<g id="edge10" class="edge"><title>q2&#45;&gt;q7</title>
<path fill="none" stroke="black" d="M151.677,-229.138C147.834,-242.234 142.572,-260.163 138.195,-275.077"/>
<polygon fill="black" stroke="black" points="134.792,-274.243 135.334,-284.824 141.509,-276.214 134.792,-274.243"/>
<text text-anchor="middle" x="149.5" y="-253.4" font-family="Times Roman,serif" font-size="14.00">b</text>
</g>
<!-- q4 -->
<g id="node14" class="node"><title>q4</title>
<ellipse fill="none" stroke="black" cx="157" cy="-119" rx="27" ry="18.3848"/>
<text text-anchor="middle" x="157" y="-115.4" font-family="Times Roman,serif" font-size="14.00">q4</text>
</g>
<!-- q2&#45;&gt;q4 -->
<g id="edge12" class="edge"><title>q2&#45;&gt;q4</title>
<path fill="none" stroke="black" d="M157,-192.382C157,-179.538 157,-162.216 157,-147.627"/>
<polygon fill="black" stroke="black" points="160.5,-147.59 157,-137.59 153.5,-147.59 160.5,-147.59"/>
<text text-anchor="middle" x="161.5" y="-161.4" font-family="Times Roman,serif" font-size="14.00">a</text>
</g>
<!-- q7&#45;&gt;q2 -->
<g id="edge30" class="edge"><title>q7&#45;&gt;q2</title>
<path fill="none" stroke="black" d="M127.673,-284.47C126.955,-273.586 127.179,-259.712 131,-248 132.436,-243.599 134.59,-239.262 137.055,-235.193"/>
<polygon fill="black" stroke="black" points="140.041,-237.026 142.79,-226.794 134.26,-233.079 140.041,-237.026"/>
<text text-anchor="middle" x="136.5" y="-253.4" font-family="Times Roman,serif" font-size="14.00">b</text>
</g>
<!-- q7&#45;&gt;q7 -->
<g id="edge32" class="edge"><title>q7&#45;&gt;q7</title>
<path fill="none" stroke="black" d="M154.074,-311.454C165.242,-312.377 175,-309.559 175,-303 175,-298.593 170.595,-295.875 164.317,-294.846"/>
<polygon fill="black" stroke="black" points="164.173,-291.34 154.074,-294.546 163.967,-298.337 164.173,-291.34"/>
<text text-anchor="middle" x="179.5" y="-299.4" font-family="Times Roman,serif" font-size="14.00">a</text>
</g>
<!-- q4&#45;&gt;q8 -->
<g id="edge18" class="edge"><title>q4&#45;&gt;q8</title>
<path fill="none" stroke="black" d="M162.013,-100.49C165.49,-87.6521 170.212,-70.2188 174.296,-55.1387"/>
<polygon fill="black" stroke="black" points="177.762,-55.7272 176.998,-45.16 171.006,-53.8972 177.762,-55.7272"/>
<text text-anchor="middle" x="175.5" y="-69.4" font-family="Times Roman,serif" font-size="14.00">b</text>
</g>
<!-- q9 -->
<g id="node20" class="node"><title>q9</title>
<ellipse fill="none" stroke="black" cx="97" cy="-23" rx="27" ry="18.3848"/>
<text text-anchor="middle" x="97" y="-19.4" font-family="Times Roman,serif" font-size="14.00">q9</text>
</g>
<!-- q4&#45;&gt;q9 -->
<g id="edge20" class="edge"><title>q4&#45;&gt;q9</title>
<path fill="none" stroke="black" d="M146.273,-101.837C137.058,-87.0936 123.637,-65.6188 113.128,-48.804"/>
<polygon fill="black" stroke="black" points="115.902,-46.6393 107.634,-40.0143 109.966,-50.3493 115.902,-46.6393"/>
<text text-anchor="middle" x="137.5" y="-69.4" font-family="Times Roman,serif" font-size="14.00">a</text>
</g>
<!-- q5&#45;&gt;q6 -->
<g id="edge22" class="edge"><title>q5&#45;&gt;q6</title>
<path fill="none" stroke="black" d="M130,-468.249C130,-454.994 130,-438.148 130,-423.954"/>
<polygon fill="black" stroke="black" points="133.5,-423.72 130,-413.72 126.5,-423.72 133.5,-423.72"/>
<text text-anchor="middle" x="134.5" y="-437.4" font-family="Times Roman,serif" font-size="14.00">b</text>
</g>
<!-- q5&#45;&gt;q3 -->
<g id="edge24" class="edge"><title>q5&#45;&gt;q3</title>
<path fill="none" stroke="black" d="M139.708,-512.673C145.944,-526.595 154.096,-544.796 160.773,-559.702"/>
<polygon fill="black" stroke="black" points="157.63,-561.248 164.912,-568.943 164.018,-558.386 157.63,-561.248"/>
<text text-anchor="middle" x="159.5" y="-537.4" font-family="Times Roman,serif" font-size="14.00">a</text>
</g>
<!-- q9&#45;&gt;q0 -->
<g id="edge38" class="edge"><title>q9&#45;&gt;q0</title>
<path fill="none" stroke="black" d="M81.6702,-38.4829C65.7054,-56.3153 43,-87.2567 43,-119 43,-395 43,-395 43,-395 43,-418.095 38.4386,-443.896 34.1868,-462.929"/>
<polygon fill="black" stroke="black" points="30.7601,-462.212 31.8875,-472.747 37.5757,-463.808 30.7601,-462.212"/>
<text text-anchor="middle" x="47.5" y="-253.4" font-family="Times Roman,serif" font-size="14.00">b</text>
</g>
<!-- q9&#45;&gt;q7 -->
<g id="edge40" class="edge"><title>q9&#45;&gt;q7</title>
<path fill="none" stroke="black" d="M98.7492,-41.6356C102.646,-82.3989 112.6,-182.517 124,-266 124.375,-268.746 124.791,-271.603 125.225,-274.457"/>
<polygon fill="black" stroke="black" points="121.807,-275.253 126.827,-284.583 128.721,-274.159 121.807,-275.253"/>
<text text-anchor="middle" x="117.5" y="-161.4" font-family="Times Roman,serif" font-size="14.00">a</text>
</g>
</g>
</svg>
