<?xml version="1.0" encoding="UTF-8" standalone="no"?>
<!DOCTYPE svg PUBLIC "-//W3C//DTD SVG 1.1//EN"
 "http://www.w3.org/Graphics/SVG/1.1/DTD/svg11.dtd">
<!-- Generated by graphviz version 2.26.3 (20100126.1600)
 -->
<!-- Title: G Pages: 1 -->
<svg width="254pt" height="790pt"
 viewBox="0.00 0.00 254.00 790.00" xmlns="http://www.w3.org/2000/svg" xmlns:xlink="http://www.w3.org/1999/xlink">
<g id="graph1" class="graph" transform="scale(1 1) rotate(0) translate(4 786)">
<title>G</title>
<polygon fill="white" stroke="white" points="-4,5 -4,-786 251,-786 251,5 -4,5"/>
<!-- q0 -->
<g id="node1" class="node"><title>q0</title>
<ellipse fill="none" stroke="black" cx="141" cy="-671" rx="27" ry="18.3848"/>
<text text-anchor="middle" x="141" y="-667.4" font-family="Times Roman,serif" font-size="14.00">q0</text>
</g>
<!-- q3 -->
<g id="node3" class="node"><title>q3</title>
<ellipse fill="none" stroke="black" cx="83" cy="-579" rx="27" ry="18.3848"/>
<text text-anchor="middle" x="83" y="-575.4" font-family="Times Roman,serif" font-size="14.00">q3</text>
</g>
<!-- q0&#45;&gt;q3 -->
<g id="edge2" class="edge"><title>q0&#45;&gt;q3</title>
<path fill="none" stroke="black" d="M130.091,-653.696C121.422,-639.946 109.164,-620.501 99.3269,-604.898"/>
<polygon fill="black" stroke="black" points="102.154,-602.82 93.8604,-596.227 96.2327,-606.553 102.154,-602.82"/>
<text text-anchor="middle" x="122.5" y="-621.4" font-family="Times Roman,serif" font-size="14.00">b</text>
</g>
<!-- q10 -->
<g id="node5" class="node"><title>q10</title>
<ellipse fill="none" stroke="black" cx="135" cy="-487" rx="29.9071" ry="18.3848"/>
<text text-anchor="middle" x="135" y="-483.4" font-family="Times Roman,serif" font-size="14.00">q10</text>
</g>
<!-- q0&#45;&gt;q10 -->
<g id="edge4" class="edge"><title>q0&#45;&gt;q10</title>
<path fill="none" stroke="black" d="M140.392,-652.345C139.345,-620.247 137.196,-554.349 135.95,-516.148"/>
<polygon fill="black" stroke="black" points="139.434,-515.585 135.61,-505.705 132.438,-515.814 139.434,-515.585"/>
<text text-anchor="middle" x="143.5" y="-575.4" font-family="Times Roman,serif" font-size="14.00">a</text>
</g>
<!-- q3&#45;&gt;q10 -->
<g id="edge10" class="edge"><title>q3&#45;&gt;q10</title>
<path fill="none" stroke="black" d="M73.5738,-561.4C68.8855,-550.08 65.4694,-535.409 72,-524 78.0433,-513.442 88.4007,-505.602 98.9915,-499.925"/>
<polygon fill="black" stroke="black" points="100.755,-502.961 108.256,-495.479 97.7262,-496.65 100.755,-502.961"/>
<text text-anchor="middle" x="76.5" y="-529.4" font-family="Times Roman,serif" font-size="14.00">b</text>
</g>
<!-- q2 -->
<g id="node6" class="node"><title>q2</title>
<ellipse fill="none" stroke="black" cx="63" cy="-295" rx="27" ry="18.3848"/>
<text text-anchor="middle" x="63" y="-291.4" font-family="Times Roman,serif" font-size="14.00">q2</text>
</g>
<!-- q3&#45;&gt;q2 -->
<g id="edge12" class="edge"><title>q3&#45;&gt;q2</title>
<path fill="none" stroke="black" d="M72.5399,-561.529C69.4988,-555.546 66.5741,-548.675 65,-542 45.4122,-458.94 63.4445,-435.337 63,-350 62.9556,-341.474 62.9422,-332.203 62.9435,-323.746"/>
<polygon fill="black" stroke="black" points="66.4435,-323.588 62.9519,-313.585 59.4435,-323.582 66.4435,-323.588"/>
<text text-anchor="middle" x="63.5" y="-437.4" font-family="Times Roman,serif" font-size="14.00">a</text>
</g>
<!-- q10&#45;&gt;q3 -->
<g id="edge34" class="edge"><title>q10&#45;&gt;q3</title>
<path fill="none" stroke="black" d="M119.542,-503.058C114.13,-509.258 108.329,-516.629 104,-524 99.0731,-532.388 94.9069,-542.142 91.6169,-551.086"/>
<polygon fill="black" stroke="black" points="88.2443,-550.13 88.2807,-560.724 94.8592,-552.419 88.2443,-550.13"/>
<text text-anchor="middle" x="108.5" y="-529.4" font-family="Times Roman,serif" font-size="14.00">b</text>
</g>
<!-- q10&#45;&gt;q3 -->
<g id="edge38" class="edge"><title>q10&#45;&gt;q3</title>
<path fill="none" stroke="black" d="M129.266,-505.224C125.422,-516.252 119.821,-530.382 113,-542 110.346,-546.52 107.168,-551.069 103.888,-555.356"/>
<polygon fill="black" stroke="black" points="101.114,-553.22 97.5638,-563.202 106.564,-557.613 101.114,-553.22"/>
<text text-anchor="middle" x="126.5" y="-529.4" font-family="Times Roman,serif" font-size="14.00">b</text>
</g>
<!-- q10&#45;&gt;q10 -->
<g id="edge36" class="edge"><title>q10&#45;&gt;q10</title>
<path fill="none" stroke="black" d="M165,-489.875C175,-489.875 183,-488.917 183,-487 183,-485.802 179.875,-484.979 175.09,-484.529"/>
<polygon fill="black" stroke="black" points="175.132,-481.028 165,-484.125 174.852,-488.023 175.132,-481.028"/>
<text text-anchor="middle" x="187.5" y="-483.4" font-family="Times Roman,serif" font-size="14.00">a</text>
</g>
<!-- q10&#45;&gt;q10 -->
<g id="edge40" class="edge"><title>q10&#45;&gt;q10</title>
<path fill="none" stroke="black" d="M156.632,-500.013C177.773,-507.201 201,-502.863 201,-487 201,-473.615 184.464,-468.436 166.598,-471.462"/>
<polygon fill="black" stroke="black" points="165.466,-468.138 156.632,-473.987 167.186,-474.924 165.466,-468.138"/>
<text text-anchor="middle" x="205.5" y="-483.4" font-family="Times Roman,serif" font-size="14.00">a</text>
</g>
<!-- q10&#45;&gt;q10 -->
<g id="edge44" class="edge"><title>q10&#45;&gt;q10</title>
<path fill="none" stroke="black" d="M156.515,-500.159C184.82,-511.438 219,-507.052 219,-487 219,-469.219 192.126,-463.756 166.302,-470.611"/>
<polygon fill="black" stroke="black" points="164.915,-467.383 156.515,-473.841 167.108,-474.03 164.915,-467.383"/>
<text text-anchor="middle" x="223.5" y="-483.4" font-family="Times Roman,serif" font-size="14.00">a</text>
</g>
<!-- q4 -->
<g id="node8" class="node"><title>q4</title>
<ellipse fill="none" stroke="black" cx="108" cy="-391" rx="27" ry="18.3848"/>
<ellipse fill="none" stroke="black" cx="108" cy="-391" rx="31" ry="22.3848"/>
<text text-anchor="middle" x="108" y="-387.4" font-family="Times Roman,serif" font-size="14.00">q4</text>
</g>
<!-- q10&#45;&gt;q4 -->
<g id="edge42" class="edge"><title>q10&#45;&gt;q4</title>
<path fill="none" stroke="black" d="M129.794,-468.49C126.183,-455.652 121.28,-438.219 117.039,-423.139"/>
<polygon fill="black" stroke="black" points="120.309,-421.839 114.232,-413.16 113.571,-423.734 120.309,-421.839"/>
<text text-anchor="middle" x="128.5" y="-437.4" font-family="Times Roman,serif" font-size="14.00">b</text>
</g>
<!-- q2&#45;&gt;q4 -->
<g id="edge6" class="edge"><title>q2&#45;&gt;q4</title>
<path fill="none" stroke="black" d="M71.6915,-312.65C74.6739,-318.763 78.012,-325.669 81,-332 85.3178,-341.148 89.9289,-351.139 94.0961,-360.255"/>
<polygon fill="black" stroke="black" points="90.9162,-361.717 98.2473,-369.366 97.2862,-358.815 90.9162,-361.717"/>
<text text-anchor="middle" x="94.5" y="-337.4" font-family="Times Roman,serif" font-size="14.00">b</text>
</g>
<!-- q9 -->
<g id="node10" class="node"><title>q9</title>
<ellipse fill="none" stroke="black" cx="40" cy="-203" rx="27" ry="18.3848"/>
<text text-anchor="middle" x="40" y="-199.4" font-family="Times Roman,serif" font-size="14.00">q9</text>
</g>
<!-- q2&#45;&gt;q9 -->
<g id="edge8" class="edge"><title>q2&#45;&gt;q9</title>
<path fill="none" stroke="black" d="M58.3456,-276.382C55.1135,-263.454 50.747,-245.988 47.0848,-231.339"/>
<polygon fill="black" stroke="black" points="50.3899,-230.128 44.569,-221.276 43.5989,-231.826 50.3899,-230.128"/>
<text text-anchor="middle" x="58.5" y="-245.4" font-family="Times Roman,serif" font-size="14.00">a</text>
</g>
<!-- q4&#45;&gt;q2 -->
<g id="edge16" class="edge"><title>q4&#45;&gt;q2</title>
<path fill="none" stroke="black" d="M88.3195,-373.017C82.1707,-366.369 75.9656,-358.393 72,-350 68.18,-341.915 65.9451,-332.499 64.6488,-323.767"/>
<polygon fill="black" stroke="black" points="68.099,-323.13 63.4896,-313.59 61.144,-323.922 68.099,-323.13"/>
<text text-anchor="middle" x="76.5" y="-337.4" font-family="Times Roman,serif" font-size="14.00">a</text>
</g>
<!-- q8 -->
<g id="node14" class="node"><title>q8</title>
<ellipse fill="none" stroke="black" cx="77" cy="-19" rx="27" ry="18.3848"/>
<text text-anchor="middle" x="77" y="-15.4" font-family="Times Roman,serif" font-size="14.00">q8</text>
</g>
<!-- q4&#45;&gt;q8 -->
<g id="edge14" class="edge"><title>q4&#45;&gt;q8</title>
<path fill="none" stroke="black" d="M114.967,-368.746C120.39,-349.445 127,-320.655 127,-295 127,-295 127,-295 127,-111 127,-85.3794 111.845,-60.0846 98.2226,-42.5223"/>
<polygon fill="black" stroke="black" points="100.761,-40.0965 91.7312,-34.5544 95.3339,-44.5179 100.761,-40.0965"/>
<text text-anchor="middle" x="131.5" y="-199.4" font-family="Times Roman,serif" font-size="14.00">b</text>
</g>
<!-- q9&#45;&gt;q3 -->
<g id="edge30" class="edge"><title>q9&#45;&gt;q3</title>
<path fill="none" stroke="black" d="M27.7813,-219.691C16.0181,-237.438 0,-266.785 0,-295 0,-487 0,-487 0,-487 0,-519.762 29.3752,-546.103 53.1743,-562.069"/>
<polygon fill="black" stroke="black" points="51.3153,-565.034 61.6254,-567.474 55.0869,-559.137 51.3153,-565.034"/>
<text text-anchor="middle" x="4.5" y="-387.4" font-family="Times Roman,serif" font-size="14.00">b</text>
</g>
<!-- q5 -->
<g id="node16" class="node"><title>q5</title>
<ellipse fill="none" stroke="black" cx="72" cy="-111" rx="27" ry="18.3848"/>
<text text-anchor="middle" x="72" y="-107.4" font-family="Times Roman,serif" font-size="14.00">q5</text>
</g>
<!-- q9&#45;&gt;q5 -->
<g id="edge32" class="edge"><title>q9&#45;&gt;q5</title>
<path fill="none" stroke="black" d="M46.3222,-184.824C50.8803,-171.719 57.117,-153.789 62.3025,-138.88"/>
<polygon fill="black" stroke="black" points="65.7114,-139.733 65.691,-129.138 59.1,-137.434 65.7114,-139.733"/>
<text text-anchor="middle" x="63.5" y="-153.4" font-family="Times Roman,serif" font-size="14.00">a</text>
</g>
<!-- q8&#45;&gt;q9 -->
<g id="edge28" class="edge"><title>q8&#45;&gt;q9</title>
<path fill="none" stroke="black" d="M62.1283,-34.5853C50.0238,-48.4258 33.8608,-69.8422 27,-92 18.4899,-119.485 24.2008,-152.372 30.513,-175.182"/>
<polygon fill="black" stroke="black" points="27.1976,-176.312 33.4065,-184.897 33.9064,-174.314 27.1976,-176.312"/>
<text text-anchor="middle" x="31.5" y="-107.4" font-family="Times Roman,serif" font-size="14.00">a</text>
</g>
<!-- q8&#45;&gt;q5 -->
<g id="edge26" class="edge"><title>q8&#45;&gt;q5</title>
<path fill="none" stroke="black" d="M75.9897,-37.5899C75.292,-50.4275 74.3506,-67.7485 73.5575,-82.3416"/>
<polygon fill="black" stroke="black" points="70.0598,-82.2072 73.0118,-92.3824 77.0494,-82.5871 70.0598,-82.2072"/>
<text text-anchor="middle" x="79.5" y="-61.4" font-family="Times Roman,serif" font-size="14.00">b</text>
</g>
<!-- q5&#45;&gt;q10 -->
<g id="edge20" class="edge"><title>q5&#45;&gt;q10</title>
<path fill="none" stroke="black" d="M95.68,-120.222C125.533,-133.583 173,-161.374 173,-203 173,-391 173,-391 173,-391 173,-415.995 161.726,-442.243 151.459,-460.963"/>
<polygon fill="black" stroke="black" points="148.349,-459.35 146.401,-469.765 154.419,-462.838 148.349,-459.35"/>
<text text-anchor="middle" x="177.5" y="-291.4" font-family="Times Roman,serif" font-size="14.00">a</text>
</g>
<!-- q5&#45;&gt;q8 -->
<g id="edge18" class="edge"><title>q5&#45;&gt;q8</title>
<path fill="none" stroke="black" d="M65.2168,-92.6447C62.1224,-81.943 59.6224,-68.193 62,-56 62.6368,-52.7344 63.5621,-49.3927 64.6454,-46.1181"/>
<polygon fill="black" stroke="black" points="67.9666,-47.2306 68.2385,-36.6393 61.4211,-44.7494 67.9666,-47.2306"/>
<text text-anchor="middle" x="66.5" y="-61.4" font-family="Times Roman,serif" font-size="14.00">b</text>
</g>
<!-- q6 -->
<g id="node19" class="node"><title>q6</title>
<ellipse fill="none" stroke="black" cx="176" cy="-763" rx="27" ry="18.3848"/>
<text text-anchor="middle" x="176" y="-759.4" font-family="Times Roman,serif" font-size="14.00">q6</text>
</g>
<!-- q6&#45;&gt;q0 -->
<g id="edge22" class="edge"><title>q6&#45;&gt;q0</title>
<path fill="none" stroke="black" d="M169.085,-744.824C164.1,-731.719 157.278,-713.789 151.607,-698.88"/>
<polygon fill="black" stroke="black" points="154.728,-697.24 147.901,-689.138 148.185,-699.729 154.728,-697.24"/>
<text text-anchor="middle" x="165.5" y="-713.4" font-family="Times Roman,serif" font-size="14.00">b</text>
</g>
<!-- q6&#45;&gt;q10 -->
<g id="edge24" class="edge"><title>q6&#45;&gt;q10</title>
<path fill="none" stroke="black" d="M176.325,-744.398C176.566,-729.646 176.873,-708.505 177,-690 177.116,-673.112 178.689,-668.804 177,-652 171.193,-594.241 168.392,-579.384 151,-524 149.994,-520.795 148.802,-517.491 147.53,-514.238"/>
<polygon fill="black" stroke="black" points="150.664,-512.659 143.579,-504.781 144.205,-515.358 150.664,-512.659"/>
<text text-anchor="middle" x="179.5" y="-621.4" font-family="Times Roman,serif" font-size="14.00">a</text>
</g>
</g>
</svg>
