<?xml version="1.0" encoding="UTF-8" standalone="no"?>
<!DOCTYPE svg PUBLIC "-//W3C//DTD SVG 1.1//EN"
 "http://www.w3.org/Graphics/SVG/1.1/DTD/svg11.dtd">
<!-- Generated by graphviz version 2.26.3 (20100126.1600)
 -->
<!-- Title: G Pages: 1 -->
<svg width="303pt" height="698pt"
 viewBox="0.00 0.00 303.00 698.00" xmlns="http://www.w3.org/2000/svg" xmlns:xlink="http://www.w3.org/1999/xlink">
<g id="graph1" class="graph" transform="scale(1 1) rotate(0) translate(4 694)">
<title>G</title>
<polygon fill="white" stroke="white" points="-4,5 -4,-694 300,-694 300,5 -4,5"/>
<!-- q0 -->
<g id="node1" class="node"><title>q0</title>
<ellipse fill="none" stroke="black" cx="233" cy="-579" rx="27" ry="18.3848"/>
<text text-anchor="middle" x="233" y="-575.4" font-family="Times Roman,serif" font-size="14.00">q0</text>
</g>
<!-- q3 -->
<g id="node3" class="node"><title>q3</title>
<ellipse fill="none" stroke="black" cx="163" cy="-487" rx="27" ry="18.3848"/>
<text text-anchor="middle" x="163" y="-483.4" font-family="Times Roman,serif" font-size="14.00">q3</text>
</g>
<!-- q0&#45;&gt;q3 -->
<g id="edge2" class="edge"><title>q0&#45;&gt;q3</title>
<path fill="none" stroke="black" d="M220.485,-562.552C209.702,-548.38 193.981,-527.718 181.704,-511.583"/>
<polygon fill="black" stroke="black" points="184.483,-509.455 175.642,-503.616 178.912,-513.693 184.483,-509.455"/>
<text text-anchor="middle" x="209.5" y="-529.4" font-family="Times Roman,serif" font-size="14.00">b</text>
</g>
<!-- q10 -->
<g id="node5" class="node"><title>q10</title>
<ellipse fill="none" stroke="black" cx="179" cy="-395" rx="29.9071" ry="18.3848"/>
<text text-anchor="middle" x="179" y="-391.4" font-family="Times Roman,serif" font-size="14.00">q10</text>
</g>
<!-- q0&#45;&gt;q10 -->
<g id="edge4" class="edge"><title>q0&#45;&gt;q10</title>
<path fill="none" stroke="black" d="M235.755,-560.174C239.116,-531.003 242.014,-473.883 221,-432 217.838,-425.697 213.094,-419.995 207.919,-415.059"/>
<polygon fill="black" stroke="black" points="210.029,-412.257 200.163,-408.395 205.467,-417.567 210.029,-412.257"/>
<text text-anchor="middle" x="241.5" y="-483.4" font-family="Times Roman,serif" font-size="14.00">a</text>
</g>
<!-- q3&#45;&gt;q10 -->
<g id="edge6" class="edge"><title>q3&#45;&gt;q10</title>
<path fill="none" stroke="black" d="M183.664,-474.464C191.92,-468.24 200.519,-459.919 205,-450 209.527,-439.978 206.071,-429.009 200.376,-419.523"/>
<polygon fill="black" stroke="black" points="203.25,-417.526 194.681,-411.296 197.495,-421.511 203.25,-417.526"/>
<text text-anchor="middle" x="212.5" y="-437.4" font-family="Times Roman,serif" font-size="14.00">b</text>
</g>
<!-- q3&#45;&gt;q10 -->
<g id="edge8" class="edge"><title>q3&#45;&gt;q10</title>
<path fill="none" stroke="black" d="M145.989,-472.324C135.484,-461.393 125.203,-446.002 132,-432 135.571,-424.643 141.393,-418.311 147.743,-413.07"/>
<polygon fill="black" stroke="black" points="149.972,-415.774 155.938,-407.019 145.814,-410.143 149.972,-415.774"/>
<text text-anchor="middle" x="136.5" y="-437.4" font-family="Times Roman,serif" font-size="14.00">a</text>
</g>
<!-- q10&#45;&gt;q3 -->
<g id="edge30" class="edge"><title>q10&#45;&gt;q3</title>
<path fill="none" stroke="black" d="M170.15,-413.029C167.674,-418.932 165.305,-425.617 164,-432 162.278,-440.421 161.644,-449.719 161.544,-458.236"/>
<polygon fill="black" stroke="black" points="158.047,-458.524 161.664,-468.482 165.047,-458.442 158.047,-458.524"/>
<text text-anchor="middle" x="168.5" y="-437.4" font-family="Times Roman,serif" font-size="14.00">b</text>
</g>
<!-- q10&#45;&gt;q3 -->
<g id="edge34" class="edge"><title>q10&#45;&gt;q3</title>
<path fill="none" stroke="black" d="M177.686,-413.691C176.754,-424.383 175.26,-438.012 173,-450 172.457,-452.881 171.804,-455.867 171.097,-458.835"/>
<polygon fill="black" stroke="black" points="167.664,-458.129 168.553,-468.687 174.442,-459.879 167.664,-458.129"/>
<text text-anchor="middle" x="180.5" y="-437.4" font-family="Times Roman,serif" font-size="14.00">b</text>
</g>
<!-- q10&#45;&gt;q10 -->
<g id="edge32" class="edge"><title>q10&#45;&gt;q10</title>
<path fill="none" stroke="black" d="M209,-397.875C219,-397.875 227,-396.917 227,-395 227,-393.802 223.875,-392.979 219.09,-392.529"/>
<polygon fill="black" stroke="black" points="219.132,-389.028 209,-392.125 218.852,-396.023 219.132,-389.028"/>
<text text-anchor="middle" x="231.5" y="-391.4" font-family="Times Roman,serif" font-size="14.00">a</text>
</g>
<!-- q10&#45;&gt;q10 -->
<g id="edge36" class="edge"><title>q10&#45;&gt;q10</title>
<path fill="none" stroke="black" d="M200.632,-408.013C221.773,-415.201 245,-410.863 245,-395 245,-381.615 228.464,-376.436 210.598,-379.462"/>
<polygon fill="black" stroke="black" points="209.466,-376.138 200.632,-381.987 211.186,-382.924 209.466,-376.138"/>
<text text-anchor="middle" x="249.5" y="-391.4" font-family="Times Roman,serif" font-size="14.00">a</text>
</g>
<!-- q10&#45;&gt;q10 -->
<g id="edge40" class="edge"><title>q10&#45;&gt;q10</title>
<path fill="none" stroke="black" d="M200.515,-408.159C228.82,-419.438 263,-415.052 263,-395 263,-377.219 236.126,-371.756 210.302,-378.611"/>
<polygon fill="black" stroke="black" points="208.915,-375.383 200.515,-381.841 211.108,-382.03 208.915,-375.383"/>
<text text-anchor="middle" x="267.5" y="-391.4" font-family="Times Roman,serif" font-size="14.00">a</text>
</g>
<!-- q4 -->
<g id="node8" class="node"><title>q4</title>
<ellipse fill="none" stroke="black" cx="31" cy="-299" rx="27" ry="18.3848"/>
<ellipse fill="none" stroke="black" cx="31" cy="-299" rx="31" ry="22.3848"/>
<text text-anchor="middle" x="31" y="-295.4" font-family="Times Roman,serif" font-size="14.00">q4</text>
</g>
<!-- q10&#45;&gt;q4 -->
<g id="edge38" class="edge"><title>q10&#45;&gt;q4</title>
<path fill="none" stroke="black" d="M158.109,-381.449C133.269,-365.337 91.5535,-338.278 62.7226,-319.577"/>
<polygon fill="black" stroke="black" points="64.5159,-316.568 54.2216,-314.063 60.7066,-322.441 64.5159,-316.568"/>
<text text-anchor="middle" x="123.5" y="-345.4" font-family="Times Roman,serif" font-size="14.00">b</text>
</g>
<!-- q4&#45;&gt;q3 -->
<g id="edge12" class="edge"><title>q4&#45;&gt;q3</title>
<path fill="none" stroke="black" d="M33.409,-321.484C37.9519,-353.655 50.5509,-413.01 84,-450 95.5825,-462.809 112.52,-471.547 127.744,-477.301"/>
<polygon fill="black" stroke="black" points="126.832,-480.689 137.427,-480.663 129.128,-474.077 126.832,-480.689"/>
<text text-anchor="middle" x="64.5" y="-391.4" font-family="Times Roman,serif" font-size="14.00">a</text>
</g>
<!-- q8 -->
<g id="node10" class="node"><title>q8</title>
<ellipse fill="none" stroke="black" cx="38" cy="-203" rx="27" ry="18.3848"/>
<text text-anchor="middle" x="38" y="-199.4" font-family="Times Roman,serif" font-size="14.00">q8</text>
</g>
<!-- q4&#45;&gt;q8 -->
<g id="edge10" class="edge"><title>q4&#45;&gt;q8</title>
<path fill="none" stroke="black" d="M32.6589,-276.249C33.6254,-262.994 34.8538,-246.148 35.8888,-231.954"/>
<polygon fill="black" stroke="black" points="39.3984,-231.948 36.635,-221.72 32.417,-231.439 39.3984,-231.948"/>
<text text-anchor="middle" x="40.5" y="-245.4" font-family="Times Roman,serif" font-size="14.00">b</text>
</g>
<!-- q5 -->
<g id="node12" class="node"><title>q5</title>
<ellipse fill="none" stroke="black" cx="63" cy="-19" rx="27" ry="18.3848"/>
<text text-anchor="middle" x="63" y="-15.4" font-family="Times Roman,serif" font-size="14.00">q5</text>
</g>
<!-- q8&#45;&gt;q5 -->
<g id="edge22" class="edge"><title>q8&#45;&gt;q5</title>
<path fill="none" stroke="black" d="M39.6099,-184.49C41.6202,-162.415 45.3653,-124.428 50,-92 52.0983,-77.3191 54.9407,-61.068 57.4326,-47.6331"/>
<polygon fill="black" stroke="black" points="60.9209,-48.0215 59.335,-37.546 54.0422,-46.7241 60.9209,-48.0215"/>
<text text-anchor="middle" x="54.5" y="-107.4" font-family="Times Roman,serif" font-size="14.00">b</text>
</g>
<!-- q9 -->
<g id="node20" class="node"><title>q9</title>
<ellipse fill="none" stroke="black" cx="95" cy="-111" rx="27" ry="18.3848"/>
<text text-anchor="middle" x="95" y="-107.4" font-family="Times Roman,serif" font-size="14.00">q9</text>
</g>
<!-- q8&#45;&gt;q9 -->
<g id="edge24" class="edge"><title>q8&#45;&gt;q9</title>
<path fill="none" stroke="black" d="M48.7213,-185.696C57.24,-171.946 69.2873,-152.501 78.9546,-136.898"/>
<polygon fill="black" stroke="black" points="82.0353,-138.571 84.3268,-128.227 76.0848,-134.884 82.0353,-138.571"/>
<text text-anchor="middle" x="76.5" y="-153.4" font-family="Times Roman,serif" font-size="14.00">a</text>
</g>
<!-- q5&#45;&gt;q10 -->
<g id="edge16" class="edge"><title>q5&#45;&gt;q10</title>
<path fill="none" stroke="black" d="M87.4126,-27.0759C119.819,-39.5172 173,-66.6849 173,-111 173,-299 173,-299 173,-299 173,-321.58 174.674,-347.089 176.253,-366.134"/>
<polygon fill="black" stroke="black" points="172.781,-366.6 177.134,-376.259 179.754,-365.993 172.781,-366.6"/>
<text text-anchor="middle" x="177.5" y="-199.4" font-family="Times Roman,serif" font-size="14.00">a</text>
</g>
<!-- q5&#45;&gt;q8 -->
<g id="edge14" class="edge"><title>q5&#45;&gt;q8</title>
<path fill="none" stroke="black" d="M46.3471,-33.8259C39.786,-40.2187 32.5168,-48.0466 27,-56 16.9152,-70.539 13.8716,-74.7345 10,-92 3.52239,-120.887 14.0628,-153.738 24.0099,-176.16"/>
<polygon fill="black" stroke="black" points="20.9184,-177.811 28.3299,-185.383 27.2574,-174.842 20.9184,-177.811"/>
<text text-anchor="middle" x="14.5" y="-107.4" font-family="Times Roman,serif" font-size="14.00">b</text>
</g>
<!-- q6 -->
<g id="node15" class="node"><title>q6</title>
<ellipse fill="none" stroke="black" cx="268" cy="-671" rx="27" ry="18.3848"/>
<text text-anchor="middle" x="268" y="-667.4" font-family="Times Roman,serif" font-size="14.00">q6</text>
</g>
<!-- q6&#45;&gt;q0 -->
<g id="edge18" class="edge"><title>q6&#45;&gt;q0</title>
<path fill="none" stroke="black" d="M261.085,-652.824C256.1,-639.719 249.278,-621.789 243.607,-606.88"/>
<polygon fill="black" stroke="black" points="246.728,-605.24 239.901,-597.138 240.185,-607.729 246.728,-605.24"/>
<text text-anchor="middle" x="257.5" y="-621.4" font-family="Times Roman,serif" font-size="14.00">b</text>
</g>
<!-- q6&#45;&gt;q10 -->
<g id="edge20" class="edge"><title>q6&#45;&gt;q10</title>
<path fill="none" stroke="black" d="M271.56,-652.505C278.821,-609.002 290.591,-498.835 239,-432 232.2,-423.19 222.66,-415.971 213.184,-410.323"/>
<polygon fill="black" stroke="black" points="214.66,-407.14 204.211,-405.389 211.288,-413.274 214.66,-407.14"/>
<text text-anchor="middle" x="280.5" y="-529.4" font-family="Times Roman,serif" font-size="14.00">a</text>
</g>
<!-- q9&#45;&gt;q3 -->
<g id="edge26" class="edge"><title>q9&#45;&gt;q3</title>
<path fill="none" stroke="black" d="M95.9657,-129.672C96.8427,-148.255 98,-177.591 98,-203 98,-395 98,-395 98,-395 98,-423.577 119.178,-449.505 137.357,-466.498"/>
<polygon fill="black" stroke="black" points="135.1,-469.174 144.894,-473.215 139.757,-463.949 135.1,-469.174"/>
<text text-anchor="middle" x="102.5" y="-295.4" font-family="Times Roman,serif" font-size="14.00">b</text>
</g>
<!-- q9&#45;&gt;q5 -->
<g id="edge28" class="edge"><title>q9&#45;&gt;q5</title>
<path fill="none" stroke="black" d="M88.6778,-92.8238C84.1197,-79.7191 77.883,-61.7885 72.6975,-46.8803"/>
<polygon fill="black" stroke="black" points="75.9,-45.4336 69.309,-37.1385 69.2886,-47.7333 75.9,-45.4336"/>
<text text-anchor="middle" x="86.5" y="-61.4" font-family="Times Roman,serif" font-size="14.00">a</text>
</g>
</g>
</svg>
