<?xml version="1.0" encoding="UTF-8" standalone="no"?>
<!DOCTYPE svg PUBLIC "-//W3C//DTD SVG 1.1//EN"
 "http://www.w3.org/Graphics/SVG/1.1/DTD/svg11.dtd">
<!-- Generated by graphviz version 2.26.3 (20100126.1600)
 -->
<!-- Title: G Pages: 1 -->
<svg width="161pt" height="238pt"
 viewBox="0.00 0.00 161.00 238.00" xmlns="http://www.w3.org/2000/svg" xmlns:xlink="http://www.w3.org/1999/xlink">
<g id="graph1" class="graph" transform="scale(1 1) rotate(0) translate(4 234)">
<title>G</title>
<polygon fill="white" stroke="white" points="-4,5 -4,-234 158,-234 158,5 -4,5"/>
<!-- q2 -->
<g id="node1" class="node"><title>q2</title>
<ellipse fill="none" stroke="black" cx="27" cy="-111" rx="27" ry="18.3848"/>
<text text-anchor="middle" x="27" y="-107.4" font-family="Times Roman,serif" font-size="14.00">q2</text>
</g>
<!-- q3 -->
<g id="node3" class="node"><title>q3</title>
<ellipse fill="none" stroke="black" cx="59" cy="-19" rx="27" ry="18.3848"/>
<text text-anchor="middle" x="59" y="-15.4" font-family="Times Roman,serif" font-size="14.00">q3</text>
</g>
<!-- q2&#45;&gt;q3 -->
<g id="edge2" class="edge"><title>q2&#45;&gt;q3</title>
<path fill="none" stroke="black" d="M24.3087,-92.3423C23.4654,-81.4151 23.6856,-67.5396 28,-56 29.8599,-51.0254 32.6988,-46.2462 35.9179,-41.8706"/>
<polygon fill="black" stroke="black" points="38.7441,-43.9451 42.4197,-34.0083 33.3497,-39.4841 38.7441,-43.9451"/>
<text text-anchor="middle" x="32.5" y="-61.4" font-family="Times Roman,serif" font-size="14.00">b</text>
</g>
<!-- q2&#45;&gt;q3 -->
<g id="edge4" class="edge"><title>q2&#45;&gt;q3</title>
<path fill="none" stroke="black" d="M33.3222,-92.8238C37.8803,-79.7191 44.117,-61.7885 49.3025,-46.8803"/>
<polygon fill="black" stroke="black" points="52.7114,-47.7333 52.691,-37.1385 46.1,-45.4336 52.7114,-47.7333"/>
<text text-anchor="middle" x="49.5" y="-61.4" font-family="Times Roman,serif" font-size="14.00">a</text>
</g>
<!-- q3&#45;&gt;q3 -->
<g id="edge10" class="edge"><title>q3&#45;&gt;q3</title>
<path fill="none" stroke="black" d="M85.3466,-23.2957C95.5332,-23.4866 104,-22.0547 104,-19 104,-17.0431 100.525,-15.7522 95.3495,-15.1273"/>
<polygon fill="black" stroke="black" points="95.4855,-11.63 85.3466,-14.7043 95.1898,-18.6237 95.4855,-11.63"/>
<text text-anchor="middle" x="108.5" y="-15.4" font-family="Times Roman,serif" font-size="14.00">b</text>
</g>
<!-- q3&#45;&gt;q3 -->
<g id="edge12" class="edge"><title>q3&#45;&gt;q3</title>
<path fill="none" stroke="black" d="M77.7031,-32.3594C98.375,-41.2656 122,-36.8125 122,-19 122,-3.9707 105.181,1.54787 87.508,-2.44429"/>
<polygon fill="black" stroke="black" points="86.1259,0.786507 77.7031,-5.64062 88.2955,-5.86879 86.1259,0.786507"/>
<text text-anchor="middle" x="126.5" y="-15.4" font-family="Times Roman,serif" font-size="14.00">a</text>
</g>
<!-- q1 -->
<g id="node5" class="node"><title>q1</title>
<ellipse fill="none" stroke="black" cx="99" cy="-111" rx="27" ry="18.3848"/>
<text text-anchor="middle" x="99" y="-107.4" font-family="Times Roman,serif" font-size="14.00">q1</text>
</g>
<!-- q1&#45;&gt;q3 -->
<g id="edge6" class="edge"><title>q1&#45;&gt;q3</title>
<path fill="none" stroke="black" d="M91.2876,-93.2615C85.5145,-79.9833 77.5112,-61.5758 70.9173,-46.4097"/>
<polygon fill="black" stroke="black" points="74.0223,-44.7731 66.8252,-36.998 67.6028,-47.5642 74.0223,-44.7731"/>
<text text-anchor="middle" x="86.5" y="-61.4" font-family="Times Roman,serif" font-size="14.00">b</text>
</g>
<!-- q1&#45;&gt;q1 -->
<g id="edge8" class="edge"><title>q1&#45;&gt;q1</title>
<path fill="none" stroke="black" d="M123.074,-119.454C134.242,-120.377 144,-117.559 144,-111 144,-106.593 139.595,-103.875 133.317,-102.846"/>
<polygon fill="black" stroke="black" points="133.173,-99.3402 123.074,-102.546 132.967,-106.337 133.173,-99.3402"/>
<text text-anchor="middle" x="148.5" y="-107.4" font-family="Times Roman,serif" font-size="14.00">a</text>
</g>
<!-- q0 -->
<g id="node10" class="node"><title>q0</title>
<ellipse fill="none" stroke="black" cx="68" cy="-207" rx="27" ry="18.3848"/>
<ellipse fill="none" stroke="black" cx="68" cy="-207" rx="31" ry="22.3848"/>
<text text-anchor="middle" x="68" y="-203.4" font-family="Times Roman,serif" font-size="14.00">q0</text>
</g>
<!-- q0&#45;&gt;q2 -->
<g id="edge14" class="edge"><title>q0&#45;&gt;q2</title>
<path fill="none" stroke="black" d="M58.6965,-185.216C52.7271,-171.239 44.9307,-152.984 38.564,-138.077"/>
<polygon fill="black" stroke="black" points="41.7666,-136.664 34.6202,-128.842 35.3291,-139.414 41.7666,-136.664"/>
<text text-anchor="middle" x="53.5" y="-153.4" font-family="Times Roman,serif" font-size="14.00">b</text>
</g>
<!-- q0&#45;&gt;q1 -->
<g id="edge16" class="edge"><title>q0&#45;&gt;q1</title>
<path fill="none" stroke="black" d="M75.1899,-184.734C79.6078,-171.053 85.3045,-153.412 90.0179,-138.816"/>
<polygon fill="black" stroke="black" points="93.3538,-139.875 93.0962,-129.283 86.6925,-137.723 93.3538,-139.875"/>
<text text-anchor="middle" x="90.5" y="-153.4" font-family="Times Roman,serif" font-size="14.00">a</text>
</g>
</g>
</svg>
