<?xml version="1.0" encoding="UTF-8" standalone="no"?>
<!DOCTYPE svg PUBLIC "-//W3C//DTD SVG 1.1//EN"
 "http://www.w3.org/Graphics/SVG/1.1/DTD/svg11.dtd">
<!-- Generated by graphviz version 2.26.3 (20100126.1600)
 -->
<!-- Title: G Pages: 1 -->
<svg width="339pt" height="514pt"
 viewBox="0.00 0.00 339.00 514.00" xmlns="http://www.w3.org/2000/svg" xmlns:xlink="http://www.w3.org/1999/xlink">
<g id="graph1" class="graph" transform="scale(1 1) rotate(0) translate(4 510)">
<title>G</title>
<polygon fill="white" stroke="white" points="-4,5 -4,-510 336,-510 336,5 -4,5"/>
<!-- q0 -->
<g id="node1" class="node"><title>q0</title>
<ellipse fill="none" stroke="black" cx="258" cy="-487" rx="27" ry="18.3848"/>
<text text-anchor="middle" x="258" y="-483.4" font-family="Times Roman,serif" font-size="14.00">q0</text>
</g>
<!-- q0&#45;&gt;q0 -->
<g id="edge2" class="edge"><title>q0&#45;&gt;q0</title>
<path fill="none" stroke="black" d="M282.074,-495.454C293.242,-496.377 303,-493.559 303,-487 303,-482.593 298.595,-479.875 292.317,-478.846"/>
<polygon fill="black" stroke="black" points="292.173,-475.34 282.074,-478.546 291.967,-482.337 292.173,-475.34"/>
<text text-anchor="middle" x="307.5" y="-483.4" font-family="Times Roman,serif" font-size="14.00">b</text>
</g>
<!-- q6 -->
<g id="node4" class="node"><title>q6</title>
<ellipse fill="none" stroke="black" cx="70" cy="-395" rx="27" ry="18.3848"/>
<text text-anchor="middle" x="70" y="-391.4" font-family="Times Roman,serif" font-size="14.00">q6</text>
</g>
<!-- q0&#45;&gt;q6 -->
<g id="edge4" class="edge"><title>q0&#45;&gt;q6</title>
<path fill="none" stroke="black" d="M235.696,-476.085C202.25,-459.718 138.992,-428.762 101.051,-410.195"/>
<polygon fill="black" stroke="black" points="102.505,-407.01 91.9844,-405.758 99.4281,-413.298 102.505,-407.01"/>
<text text-anchor="middle" x="185.5" y="-437.4" font-family="Times Roman,serif" font-size="14.00">a</text>
</g>
<!-- q6&#45;&gt;q6 -->
<g id="edge26" class="edge"><title>q6&#45;&gt;q6</title>
<path fill="none" stroke="black" d="M94.0743,-403.454C105.242,-404.377 115,-401.559 115,-395 115,-390.593 110.595,-387.875 104.317,-386.846"/>
<polygon fill="black" stroke="black" points="104.173,-383.34 94.0743,-386.546 103.967,-390.337 104.173,-383.34"/>
<text text-anchor="middle" x="119.5" y="-391.4" font-family="Times Roman,serif" font-size="14.00">b</text>
</g>
<!-- q7 -->
<g id="node25" class="node"><title>q7</title>
<ellipse fill="none" stroke="black" cx="240" cy="-303" rx="27" ry="18.3848"/>
<text text-anchor="middle" x="240" y="-299.4" font-family="Times Roman,serif" font-size="14.00">q7</text>
</g>
<!-- q6&#45;&gt;q7 -->
<g id="edge28" class="edge"><title>q6&#45;&gt;q7</title>
<path fill="none" stroke="black" d="M91.5306,-383.348C121.421,-367.172 175.638,-337.831 209.63,-319.435"/>
<polygon fill="black" stroke="black" points="211.515,-322.395 218.644,-314.557 208.184,-316.239 211.515,-322.395"/>
<text text-anchor="middle" x="175.5" y="-345.4" font-family="Times Roman,serif" font-size="14.00">a</text>
</g>
<!-- q1 -->
<g id="node5" class="node"><title>q1</title>
<ellipse fill="none" stroke="black" cx="93" cy="-211" rx="27" ry="18.3848"/>
<text text-anchor="middle" x="93" y="-207.4" font-family="Times Roman,serif" font-size="14.00">q1</text>
</g>
<!-- q3 -->
<g id="node7" class="node"><title>q3</title>
<ellipse fill="none" stroke="black" cx="55" cy="-119" rx="27" ry="18.3848"/>
<text text-anchor="middle" x="55" y="-115.4" font-family="Times Roman,serif" font-size="14.00">q3</text>
</g>
<!-- q1&#45;&gt;q3 -->
<g id="edge6" class="edge"><title>q1&#45;&gt;q3</title>
<path fill="none" stroke="black" d="M85.4924,-192.824C79.9921,-179.507 72.4335,-161.207 66.218,-146.159"/>
<polygon fill="black" stroke="black" points="69.4153,-144.732 62.3627,-136.825 62.9454,-147.404 69.4153,-144.732"/>
<text text-anchor="middle" x="82.5" y="-161.4" font-family="Times Roman,serif" font-size="14.00">b</text>
</g>
<!-- q8 -->
<g id="node9" class="node"><title>q8</title>
<ellipse fill="none" stroke="black" cx="175" cy="-23" rx="27" ry="18.3848"/>
<ellipse fill="none" stroke="black" cx="175" cy="-23" rx="31" ry="22.3848"/>
<text text-anchor="middle" x="175" y="-19.4" font-family="Times Roman,serif" font-size="14.00">q8</text>
</g>
<!-- q1&#45;&gt;q8 -->
<g id="edge8" class="edge"><title>q1&#45;&gt;q8</title>
<path fill="none" stroke="black" d="M100.863,-192.974C114.831,-160.948 144.128,-93.7806 161.417,-54.1415"/>
<polygon fill="black" stroke="black" points="164.747,-55.2604 165.537,-44.6951 158.331,-52.4618 164.747,-55.2604"/>
<text text-anchor="middle" x="145.5" y="-115.4" font-family="Times Roman,serif" font-size="14.00">a</text>
</g>
<!-- q3&#45;&gt;q6 -->
<g id="edge16" class="edge"><title>q3&#45;&gt;q6</title>
<path fill="none" stroke="black" d="M54.9921,-137.866C55.0634,-159.961 55.436,-197.658 57,-230 59.3069,-277.704 64.0983,-333.018 67.1755,-365.95"/>
<polygon fill="black" stroke="black" points="63.7205,-366.592 68.1473,-376.217 70.6893,-365.932 63.7205,-366.592"/>
<text text-anchor="middle" x="64.5" y="-253.4" font-family="Times Roman,serif" font-size="14.00">a</text>
</g>
<!-- q5 -->
<g id="node16" class="node"><title>q5</title>
<ellipse fill="none" stroke="black" cx="33" cy="-23" rx="27" ry="18.3848"/>
<ellipse fill="none" stroke="black" cx="33" cy="-23" rx="31" ry="22.3848"/>
<text text-anchor="middle" x="33" y="-19.4" font-family="Times Roman,serif" font-size="14.00">q5</text>
</g>
<!-- q3&#45;&gt;q5 -->
<g id="edge14" class="edge"><title>q3&#45;&gt;q5</title>
<path fill="none" stroke="black" d="M43.0553,-102.095C39.4313,-96.0415 35.9069,-88.9827 34,-82 31.7167,-73.6391 30.8334,-64.3608 30.674,-55.6845"/>
<polygon fill="black" stroke="black" points="34.1758,-55.5423 30.7933,-45.502 27.1763,-55.4603 34.1758,-55.5423"/>
<text text-anchor="middle" x="38.5" y="-69.4" font-family="Times Roman,serif" font-size="14.00">b</text>
</g>
<!-- q8&#45;&gt;q8 -->
<g id="edge34" class="edge"><title>q8&#45;&gt;q8</title>
<path fill="none" stroke="black" d="M203.689,-32.3384C214.781,-32.7534 224,-29.6406 224,-23 224,-18.5383 219.838,-15.6692 213.743,-14.3925"/>
<polygon fill="black" stroke="black" points="213.916,-10.896 203.689,-13.6616 213.408,-17.8776 213.916,-10.896"/>
<text text-anchor="middle" x="228.5" y="-19.4" font-family="Times Roman,serif" font-size="14.00">b</text>
</g>
<!-- q10 -->
<g id="node12" class="node"><title>q10</title>
<ellipse fill="none" stroke="black" cx="168" cy="-211" rx="29.9071" ry="18.3848"/>
<text text-anchor="middle" x="168" y="-207.4" font-family="Times Roman,serif" font-size="14.00">q10</text>
</g>
<!-- q8&#45;&gt;q10 -->
<g id="edge36" class="edge"><title>q8&#45;&gt;q10</title>
<path fill="none" stroke="black" d="M174.155,-45.6947C172.883,-79.8606 170.476,-144.494 169.079,-182.021"/>
<polygon fill="black" stroke="black" points="165.571,-182.163 168.697,-192.287 172.567,-182.424 165.571,-182.163"/>
<text text-anchor="middle" x="177.5" y="-115.4" font-family="Times Roman,serif" font-size="14.00">a</text>
</g>
<!-- q2 -->
<g id="node10" class="node"><title>q2</title>
<ellipse fill="none" stroke="black" cx="168" cy="-303" rx="27" ry="18.3848"/>
<text text-anchor="middle" x="168" y="-299.4" font-family="Times Roman,serif" font-size="14.00">q2</text>
</g>
<!-- q2&#45;&gt;q10 -->
<g id="edge10" class="edge"><title>q2&#45;&gt;q10</title>
<path fill="none" stroke="black" d="M168,-284.382C168,-271.538 168,-254.216 168,-239.627"/>
<polygon fill="black" stroke="black" points="171.5,-239.59 168,-229.59 164.5,-239.59 171.5,-239.59"/>
<text text-anchor="middle" x="172.5" y="-253.4" font-family="Times Roman,serif" font-size="14.00">b</text>
</g>
<!-- q4 -->
<g id="node14" class="node"><title>q4</title>
<ellipse fill="none" stroke="black" cx="229" cy="-119" rx="27" ry="18.3848"/>
<text text-anchor="middle" x="229" y="-115.4" font-family="Times Roman,serif" font-size="14.00">q4</text>
</g>
<!-- q2&#45;&gt;q4 -->
<g id="edge12" class="edge"><title>q2&#45;&gt;q4</title>
<path fill="none" stroke="black" d="M178.969,-285.968C187.767,-271.583 199.796,-250.161 207,-230 216.701,-202.849 222.509,-170.349 225.7,-147.555"/>
<polygon fill="black" stroke="black" points="229.187,-147.888 227.024,-137.516 222.247,-146.973 229.187,-147.888"/>
<text text-anchor="middle" x="222.5" y="-207.4" font-family="Times Roman,serif" font-size="14.00">a</text>
</g>
<!-- q10&#45;&gt;q3 -->
<g id="edge42" class="edge"><title>q10&#45;&gt;q3</title>
<path fill="none" stroke="black" d="M149.845,-196.219C131.119,-180.973 101.752,-157.064 80.6571,-139.889"/>
<polygon fill="black" stroke="black" points="82.7024,-137.041 72.7378,-133.441 78.2829,-142.469 82.7024,-137.041"/>
<text text-anchor="middle" x="126.5" y="-161.4" font-family="Times Roman,serif" font-size="14.00">b</text>
</g>
<!-- q10&#45;&gt;q4 -->
<g id="edge44" class="edge"><title>q10&#45;&gt;q4</title>
<path fill="none" stroke="black" d="M179.474,-193.696C188.648,-179.859 201.646,-160.255 212.025,-144.602"/>
<polygon fill="black" stroke="black" points="215.175,-146.185 217.784,-135.916 209.341,-142.316 215.175,-146.185"/>
<text text-anchor="middle" x="208.5" y="-161.4" font-family="Times Roman,serif" font-size="14.00">a</text>
</g>
<!-- q4&#45;&gt;q8 -->
<g id="edge18" class="edge"><title>q4&#45;&gt;q8</title>
<path fill="none" stroke="black" d="M219.096,-101.392C211.46,-87.8174 200.725,-68.7336 191.759,-52.7941"/>
<polygon fill="black" stroke="black" points="194.675,-50.8378 186.721,-43.838 188.573,-54.2697 194.675,-50.8378"/>
<text text-anchor="middle" x="211.5" y="-69.4" font-family="Times Roman,serif" font-size="14.00">b</text>
</g>
<!-- q9 -->
<g id="node20" class="node"><title>q9</title>
<ellipse fill="none" stroke="black" cx="284" cy="-23" rx="27" ry="18.3848"/>
<text text-anchor="middle" x="284" y="-19.4" font-family="Times Roman,serif" font-size="14.00">q9</text>
</g>
<!-- q4&#45;&gt;q9 -->
<g id="edge20" class="edge"><title>q4&#45;&gt;q9</title>
<path fill="none" stroke="black" d="M239.088,-101.392C247.461,-86.7771 259.493,-65.7762 268.996,-49.1888"/>
<polygon fill="black" stroke="black" points="272.042,-50.913 273.976,-40.4963 265.968,-47.4332 272.042,-50.913"/>
<text text-anchor="middle" x="264.5" y="-69.4" font-family="Times Roman,serif" font-size="14.00">a</text>
</g>
<!-- q5&#45;&gt;q6 -->
<g id="edge22" class="edge"><title>q5&#45;&gt;q6</title>
<path fill="none" stroke="black" d="M21.2725,-44.0212C11.7874,-63.0114 0,-92.0355 0,-119 0,-303 0,-303 0,-303 0,-332.634 23.2874,-358.69 42.9988,-375.436"/>
<polygon fill="black" stroke="black" points="40.8983,-378.239 50.8722,-381.813 45.304,-372.8 40.8983,-378.239"/>
<text text-anchor="middle" x="4.5" y="-207.4" font-family="Times Roman,serif" font-size="14.00">b</text>
</g>
<!-- q5&#45;&gt;q3 -->
<g id="edge24" class="edge"><title>q5&#45;&gt;q3</title>
<path fill="none" stroke="black" d="M38.6006,-45.5332C40.0619,-51.5279 41.6148,-58.0035 43,-64 45.0018,-72.6654 47.0967,-82.12 48.9656,-90.7077"/>
<polygon fill="black" stroke="black" points="45.5789,-91.6062 51.1118,-100.642 52.4211,-90.128 45.5789,-91.6062"/>
<text text-anchor="middle" x="51.5" y="-69.4" font-family="Times Roman,serif" font-size="14.00">a</text>
</g>
<!-- q9&#45;&gt;q0 -->
<g id="edge38" class="edge"><title>q9&#45;&gt;q0</title>
<path fill="none" stroke="black" d="M295.196,-39.8941C306.405,-58.4726 322,-89.6032 322,-119 322,-395 322,-395 322,-395 322,-423.261 301.397,-449.069 283.57,-466.11"/>
<polygon fill="black" stroke="black" points="281.2,-463.535 276.169,-472.858 285.917,-468.708 281.2,-463.535"/>
<text text-anchor="middle" x="326.5" y="-253.4" font-family="Times Roman,serif" font-size="14.00">b</text>
</g>
<!-- q9&#45;&gt;q7 -->
<g id="edge40" class="edge"><title>q9&#45;&gt;q7</title>
<path fill="none" stroke="black" d="M281.058,-41.7245C273.541,-89.5543 253.594,-216.494 244.56,-273.983"/>
<polygon fill="black" stroke="black" points="241.05,-273.771 242.955,-284.194 247.965,-274.858 241.05,-273.771"/>
<text text-anchor="middle" x="268.5" y="-161.4" font-family="Times Roman,serif" font-size="14.00">a</text>
</g>
<!-- q7&#45;&gt;q10 -->
<g id="edge30" class="edge"><title>q7&#45;&gt;q10</title>
<path fill="none" stroke="black" d="M227.128,-286.552C216.106,-272.468 200.067,-251.975 187.474,-235.884"/>
<polygon fill="black" stroke="black" points="190.167,-233.646 181.248,-227.928 184.655,-237.96 190.167,-233.646"/>
<text text-anchor="middle" x="215.5" y="-253.4" font-family="Times Roman,serif" font-size="14.00">b</text>
</g>
<!-- q7&#45;&gt;q7 -->
<g id="edge32" class="edge"><title>q7&#45;&gt;q7</title>
<path fill="none" stroke="black" d="M264.074,-311.454C275.242,-312.377 285,-309.559 285,-303 285,-298.593 280.595,-295.875 274.317,-294.846"/>
<polygon fill="black" stroke="black" points="274.173,-291.34 264.074,-294.546 273.967,-298.337 274.173,-291.34"/>
<text text-anchor="middle" x="289.5" y="-299.4" font-family="Times Roman,serif" font-size="14.00">a</text>
</g>
</g>
</svg>
