<?xml version="1.0" encoding="UTF-8" standalone="no"?>
<!DOCTYPE svg PUBLIC "-//W3C//DTD SVG 1.1//EN"
 "http://www.w3.org/Graphics/SVG/1.1/DTD/svg11.dtd">
<!-- Generated by graphviz version 2.26.3 (20100126.1600)
 -->
<!-- Title: G Pages: 1 -->
<svg width="89pt" height="134pt"
 viewBox="0.00 0.00 89.00 134.00" xmlns="http://www.w3.org/2000/svg" xmlns:xlink="http://www.w3.org/1999/xlink">
<g id="graph1" class="graph" transform="scale(1 1) rotate(0) translate(4 130)">
<title>G</title>
<polygon fill="white" stroke="white" points="-4,5 -4,-130 86,-130 86,5 -4,5"/>
<!-- q3 -->
<g id="node1" class="node"><title>q3</title>
<ellipse fill="none" stroke="black" cx="27" cy="-108" rx="27" ry="18"/>
<text text-anchor="middle" x="27" y="-103.9" font-family="Times Roman,serif" font-size="14.00">q3</text>
</g>
<!-- q3&#45;&gt;q3 -->
<g id="edge4" class="edge"><title>q3&#45;&gt;q3</title>
<path fill="none" stroke="black" d="M51.5325,-116.121C62.5078,-116.895 72,-114.188 72,-108 72,-103.843 67.7151,-101.257 61.5743,-100.242"/>
<polygon fill="black" stroke="black" points="61.6524,-96.7424 51.5325,-99.8789 61.3995,-103.738 61.6524,-96.7424"/>
<text text-anchor="middle" x="76.5" y="-103.9" font-family="Times Roman,serif" font-size="14.00">a</text>
</g>
<!-- q0 -->
<g id="node3" class="node"><title>q0</title>
<ellipse fill="none" stroke="darkred" cx="27" cy="-18" rx="27" ry="18"/>
<text text-anchor="middle" x="27" y="-13.9" font-family="Times Roman,serif" font-size="14.00">q0</text>
</g>
<!-- q3&#45;&gt;q0 -->
<g id="edge2" class="edge"><title>q3&#45;&gt;q0</title>
<path fill="none" stroke="black" d="M18.2399,-90.8599C15.7028,-85.0297 13.2748,-78.3738 12,-72 10.4311,-64.1554 10.4311,-61.8446 12,-54 12.6175,-50.9127 13.5055,-47.7592 14.5455,-44.6654"/>
<polygon fill="black" stroke="black" points="17.8869,-45.7291 18.2399,-35.1401 11.3606,-43.1977 17.8869,-45.7291"/>
<text text-anchor="middle" x="16.5" y="-58.9" font-family="Times Roman,serif" font-size="14.00">b</text>
</g>
<!-- q0&#45;&gt;q3 -->
<g id="edge6" class="edge"><title>q0&#45;&gt;q3</title>
<path fill="none" stroke="black" d="M27,-36.1858C27,-48.6224 27,-65.3601 27,-79.5481"/>
<polygon fill="black" stroke="black" points="23.5001,-79.7871 27,-89.7872 30.5001,-79.7872 23.5001,-79.7871"/>
<text text-anchor="middle" x="31.5" y="-58.9" font-family="Times Roman,serif" font-size="14.00">b</text>
</g>
<!-- q0&#45;&gt;q0 -->
<g id="edge8" class="edge"><title>q0&#45;&gt;q0</title>
<path fill="none" stroke="black" d="M51.5325,-26.1211C62.5078,-26.8945 72,-24.1875 72,-18 72,-13.8428 67.7151,-11.2567 61.5743,-10.2417"/>
<polygon fill="black" stroke="black" points="61.6524,-6.74237 51.5325,-9.87891 61.3995,-13.7378 61.6524,-6.74237"/>
<text text-anchor="middle" x="76.5" y="-13.9" font-family="Times Roman,serif" font-size="14.00">a</text>
</g>
</g>
</svg>
