<?xml version="1.0" encoding="UTF-8" standalone="no"?>
<!DOCTYPE svg PUBLIC "-//W3C//DTD SVG 1.1//EN"
 "http://www.w3.org/Graphics/SVG/1.1/DTD/svg11.dtd">
<!-- Generated by graphviz version 2.26.3 (20100126.1600)
 -->
<!-- Title: G Pages: 1 -->
<svg width="343pt" height="414pt"
 viewBox="0.00 0.00 343.00 414.00" xmlns="http://www.w3.org/2000/svg" xmlns:xlink="http://www.w3.org/1999/xlink">
<g id="graph1" class="graph" transform="scale(1 1) rotate(0) translate(4 410)">
<title>G</title>
<polygon fill="white" stroke="white" points="-4,5 -4,-410 340,-410 340,5 -4,5"/>
<!-- q6 -->
<g id="node1" class="node"><title>q6</title>
<ellipse fill="none" stroke="black" cx="254" cy="-387" rx="27" ry="18.3848"/>
<text text-anchor="middle" x="254" y="-383.4" font-family="Times Roman,serif" font-size="14.00">q6</text>
</g>
<!-- q7 -->
<g id="node3" class="node"><title>q7</title>
<ellipse fill="none" stroke="black" cx="199" cy="-295" rx="27" ry="18.3848"/>
<text text-anchor="middle" x="199" y="-291.4" font-family="Times Roman,serif" font-size="14.00">q7</text>
</g>
<!-- q6&#45;&gt;q7 -->
<g id="edge2" class="edge"><title>q6&#45;&gt;q7</title>
<path fill="none" stroke="black" d="M243.655,-369.696C235.435,-355.946 223.811,-336.501 214.482,-320.898"/>
<polygon fill="black" stroke="black" points="217.434,-319.014 209.299,-312.227 211.426,-322.606 217.434,-319.014"/>
<text text-anchor="middle" x="235.5" y="-337.4" font-family="Times Roman,serif" font-size="14.00">b</text>
</g>
<!-- q5 -->
<g id="node5" class="node"><title>q5</title>
<ellipse fill="none" stroke="black" cx="93" cy="-19" rx="27" ry="18.3848"/>
<text text-anchor="middle" x="93" y="-15.4" font-family="Times Roman,serif" font-size="14.00">q5</text>
</g>
<!-- q6&#45;&gt;q5 -->
<g id="edge4" class="edge"><title>q6&#45;&gt;q5</title>
<path fill="none" stroke="black" d="M227.298,-383.151C162.084,-373.002 0,-342.956 0,-295 0,-295 0,-295 0,-111 0,-75.8535 33.9849,-49.5801 60.8665,-34.2957"/>
<polygon fill="black" stroke="black" points="62.8794,-37.1863 70.0112,-29.3512 59.55,-31.0287 62.8794,-37.1863"/>
<text text-anchor="middle" x="4.5" y="-199.4" font-family="Times Roman,serif" font-size="14.00">a</text>
</g>
<!-- q7&#45;&gt;q7 -->
<g id="edge12" class="edge"><title>q7&#45;&gt;q7</title>
<path fill="none" stroke="black" d="M223.074,-303.454C234.242,-304.377 244,-301.559 244,-295 244,-290.593 239.595,-287.875 233.317,-286.846"/>
<polygon fill="black" stroke="black" points="233.173,-283.34 223.074,-286.546 232.967,-290.337 233.173,-283.34"/>
<text text-anchor="middle" x="248.5" y="-291.4" font-family="Times Roman,serif" font-size="14.00">a</text>
</g>
<!-- q3 -->
<g id="node10" class="node"><title>q3</title>
<ellipse fill="none" stroke="black" cx="148" cy="-203" rx="27" ry="18.3848"/>
<text text-anchor="middle" x="148" y="-199.4" font-family="Times Roman,serif" font-size="14.00">q3</text>
</g>
<!-- q7&#45;&gt;q3 -->
<g id="edge10" class="edge"><title>q7&#45;&gt;q3</title>
<path fill="none" stroke="black" d="M189.407,-277.696C181.904,-264.161 171.342,-245.107 162.763,-229.632"/>
<polygon fill="black" stroke="black" points="165.633,-227.589 157.723,-220.54 159.51,-230.983 165.633,-227.589"/>
<text text-anchor="middle" x="182.5" y="-245.4" font-family="Times Roman,serif" font-size="14.00">b</text>
</g>
<!-- q5&#45;&gt;q6 -->
<g id="edge6" class="edge"><title>q5&#45;&gt;q6</title>
<path fill="none" stroke="black" d="M116.81,-27.9632C167.398,-47.3575 281,-92.9221 281,-111 281,-295 281,-295 281,-295 281,-317.472 273.492,-341.827 266.394,-359.831"/>
<polygon fill="black" stroke="black" points="263.136,-358.548 262.543,-369.127 269.604,-361.227 263.136,-358.548"/>
<text text-anchor="middle" x="285.5" y="-199.4" font-family="Times Roman,serif" font-size="14.00">b</text>
</g>
<!-- q4 -->
<g id="node8" class="node"><title>q4</title>
<ellipse fill="none" stroke="black" cx="125" cy="-111" rx="27" ry="18.3848"/>
<text text-anchor="middle" x="125" y="-107.4" font-family="Times Roman,serif" font-size="14.00">q4</text>
</g>
<!-- q5&#45;&gt;q4 -->
<g id="edge8" class="edge"><title>q5&#45;&gt;q4</title>
<path fill="none" stroke="black" d="M90.3087,-37.6577C89.4654,-48.5849 89.6856,-62.4604 94,-74 95.8599,-78.9746 98.6988,-83.7538 101.918,-88.1294"/>
<polygon fill="black" stroke="black" points="99.3497,-90.5159 108.42,-95.9917 104.744,-86.0549 99.3497,-90.5159"/>
<text text-anchor="middle" x="98.5" y="-61.4" font-family="Times Roman,serif" font-size="14.00">a</text>
</g>
<!-- q4&#45;&gt;q5 -->
<g id="edge24" class="edge"><title>q4&#45;&gt;q5</title>
<path fill="none" stroke="black" d="M118.678,-92.8238C114.12,-79.7191 107.883,-61.7885 102.697,-46.8803"/>
<polygon fill="black" stroke="black" points="105.9,-45.4336 99.309,-37.1385 99.2886,-47.7333 105.9,-45.4336"/>
<text text-anchor="middle" x="115.5" y="-61.4" font-family="Times Roman,serif" font-size="14.00">a</text>
</g>
<!-- q1 -->
<g id="node15" class="node"><title>q1</title>
<ellipse fill="none" stroke="black" cx="188" cy="-19" rx="27" ry="18.3848"/>
<text text-anchor="middle" x="188" y="-15.4" font-family="Times Roman,serif" font-size="14.00">q1</text>
</g>
<!-- q4&#45;&gt;q1 -->
<g id="edge22" class="edge"><title>q4&#45;&gt;q1</title>
<path fill="none" stroke="black" d="M136.555,-94.1258C146.146,-80.1197 159.928,-59.9939 170.814,-44.0976"/>
<polygon fill="black" stroke="black" points="173.756,-45.9957 176.518,-35.7672 167.98,-42.0406 173.756,-45.9957"/>
<text text-anchor="middle" x="166.5" y="-61.4" font-family="Times Roman,serif" font-size="14.00">b</text>
</g>
<!-- q3&#45;&gt;q4 -->
<g id="edge28" class="edge"><title>q3&#45;&gt;q4</title>
<path fill="none" stroke="black" d="M143.346,-184.382C140.113,-171.454 135.747,-153.988 132.085,-139.339"/>
<polygon fill="black" stroke="black" points="135.39,-138.128 129.569,-129.276 128.599,-139.826 135.39,-138.128"/>
<text text-anchor="middle" x="142.5" y="-153.4" font-family="Times Roman,serif" font-size="14.00">a</text>
</g>
<!-- q3&#45;&gt;q1 -->
<g id="edge26" class="edge"><title>q3&#45;&gt;q1</title>
<path fill="none" stroke="black" d="M151.982,-184.685C158.972,-152.53 173.496,-85.7176 181.807,-47.4869"/>
<polygon fill="black" stroke="black" points="185.271,-48.0296 183.975,-37.5143 178.431,-46.5426 185.271,-48.0296"/>
<text text-anchor="middle" x="175.5" y="-107.4" font-family="Times Roman,serif" font-size="14.00">b</text>
</g>
<!-- q2 -->
<g id="node12" class="node"><title>q2</title>
<ellipse fill="none" stroke="black" cx="127" cy="-295" rx="27" ry="18.3848"/>
<text text-anchor="middle" x="127" y="-291.4" font-family="Times Roman,serif" font-size="14.00">q2</text>
</g>
<!-- q2&#45;&gt;q3 -->
<g id="edge14" class="edge"><title>q2&#45;&gt;q3</title>
<path fill="none" stroke="black" d="M123.514,-276.573C122.151,-265.725 121.616,-251.852 125,-240 126.135,-236.023 127.835,-232.056 129.807,-228.277"/>
<polygon fill="black" stroke="black" points="132.999,-229.756 135.1,-219.371 126.982,-226.18 132.999,-229.756"/>
<text text-anchor="middle" x="129.5" y="-245.4" font-family="Times Roman,serif" font-size="14.00">b</text>
</g>
<!-- q2&#45;&gt;q3 -->
<g id="edge16" class="edge"><title>q2&#45;&gt;q3</title>
<path fill="none" stroke="black" d="M131.25,-276.382C134.181,-263.538 138.135,-246.216 141.466,-231.627"/>
<polygon fill="black" stroke="black" points="144.943,-232.118 143.757,-221.59 138.119,-230.56 144.943,-232.118"/>
<text text-anchor="middle" x="143.5" y="-245.4" font-family="Times Roman,serif" font-size="14.00">a</text>
</g>
<!-- q1&#45;&gt;q6 -->
<g id="edge20" class="edge"><title>q1&#45;&gt;q6</title>
<path fill="none" stroke="black" d="M214.81,-22.7937C238.197,-27.2825 271.907,-36.7362 295,-56 316.547,-73.9742 326,-82.9401 326,-111 326,-295 326,-295 326,-295 326,-324.948 302.047,-350.955 281.773,-367.605"/>
<polygon fill="black" stroke="black" points="279.394,-365.021 273.674,-373.94 283.707,-370.535 279.394,-365.021"/>
<text text-anchor="middle" x="330.5" y="-199.4" font-family="Times Roman,serif" font-size="14.00">a</text>
</g>
<!-- q1&#45;&gt;q1 -->
<g id="edge18" class="edge"><title>q1&#45;&gt;q1</title>
<path fill="none" stroke="black" d="M212.074,-27.4544C223.242,-28.3767 233,-25.5586 233,-19 233,-14.5934 228.595,-11.8754 222.317,-10.8458"/>
<polygon fill="black" stroke="black" points="222.173,-7.34018 212.074,-10.5456 221.967,-14.3372 222.173,-7.34018"/>
<text text-anchor="middle" x="237.5" y="-15.4" font-family="Times Roman,serif" font-size="14.00">b</text>
</g>
<!-- q0 -->
<g id="node22" class="node"><title>q0</title>
<ellipse fill="none" stroke="black" cx="55" cy="-295" rx="27" ry="18.3848"/>
<text text-anchor="middle" x="55" y="-291.4" font-family="Times Roman,serif" font-size="14.00">q0</text>
</g>
<!-- q0&#45;&gt;q5 -->
<g id="edge30" class="edge"><title>q0&#45;&gt;q5</title>
<path fill="none" stroke="black" d="M57.0456,-276.353C61.5498,-236.043 72.9663,-137.813 86,-56 86.4381,-53.2501 86.9242,-50.391 87.4302,-47.5351"/>
<polygon fill="black" stroke="black" points="90.9263,-47.8762 89.2998,-37.407 84.0426,-46.6055 90.9263,-47.8762"/>
<text text-anchor="middle" x="76.5" y="-153.4" font-family="Times Roman,serif" font-size="14.00">b</text>
</g>
<!-- q0&#45;&gt;q3 -->
<g id="edge32" class="edge"><title>q0&#45;&gt;q3</title>
<path fill="none" stroke="black" d="M69.9849,-279.445C80.7425,-268.351 95.6399,-253.133 109,-240 114.008,-235.077 119.442,-229.851 124.619,-224.925"/>
<polygon fill="black" stroke="black" points="127.083,-227.412 131.939,-217.995 122.271,-222.329 127.083,-227.412"/>
<text text-anchor="middle" x="113.5" y="-245.4" font-family="Times Roman,serif" font-size="14.00">a</text>
</g>
</g>
</svg>
