<?xml version="1.0" encoding="UTF-8" standalone="no"?>
<!DOCTYPE svg PUBLIC "-//W3C//DTD SVG 1.1//EN"
 "http://www.w3.org/Graphics/SVG/1.1/DTD/svg11.dtd">
<!-- Generated by graphviz version 2.26.3 (20100126.1600)
 -->
<!-- Title: G Pages: 1 -->
<svg width="172pt" height="502pt"
 viewBox="0.00 0.00 172.00 502.00" xmlns="http://www.w3.org/2000/svg" xmlns:xlink="http://www.w3.org/1999/xlink">
<g id="graph1" class="graph" transform="scale(1 1) rotate(0) translate(4 498)">
<title>G</title>
<polygon fill="white" stroke="white" points="-4,5 -4,-498 169,-498 169,5 -4,5"/>
<!-- q6 -->
<g id="node1" class="node"><title>q6</title>
<ellipse fill="none" stroke="black" cx="55" cy="-476" rx="27" ry="18"/>
<text text-anchor="middle" x="55" y="-471.9" font-family="Times Roman,serif" font-size="14.00">q6</text>
</g>
<!-- q7 -->
<g id="node3" class="node"><title>q7</title>
<ellipse fill="none" stroke="black" cx="55" cy="-386" rx="27" ry="18"/>
<text text-anchor="middle" x="55" y="-381.9" font-family="Times Roman,serif" font-size="14.00">q7</text>
</g>
<!-- q6&#45;&gt;q7 -->
<g id="edge2" class="edge"><title>q6&#45;&gt;q7</title>
<path fill="none" stroke="black" d="M55,-457.787C55,-445.344 55,-428.605 55,-414.421"/>
<polygon fill="black" stroke="black" points="58.5001,-414.186 55,-404.186 51.5001,-414.186 58.5001,-414.186"/>
<text text-anchor="middle" x="59.5" y="-426.9" font-family="Times Roman,serif" font-size="14.00">b</text>
</g>
<!-- q4 -->
<g id="node5" class="node"><title>q4</title>
<ellipse fill="none" stroke="black" cx="110" cy="-296" rx="27" ry="18"/>
<text text-anchor="middle" x="110" y="-291.9" font-family="Times Roman,serif" font-size="14.00">q4</text>
</g>
<!-- q6&#45;&gt;q4 -->
<g id="edge4" class="edge"><title>q6&#45;&gt;q4</title>
<path fill="none" stroke="black" d="M72.7496,-462.222C88.0324,-449.136 109.003,-427.944 118,-404 127.762,-378.019 123.606,-346.089 118.336,-323.711"/>
<polygon fill="black" stroke="black" points="121.683,-322.671 115.8,-313.859 114.904,-324.416 121.683,-322.671"/>
<text text-anchor="middle" x="127.5" y="-381.9" font-family="Times Roman,serif" font-size="14.00">a</text>
</g>
<!-- q7&#45;&gt;q7 -->
<g id="edge8" class="edge"><title>q7&#45;&gt;q7</title>
<path fill="none" stroke="black" d="M79.5325,-394.121C90.5078,-394.895 100,-392.188 100,-386 100,-381.843 95.7151,-379.257 89.5743,-378.242"/>
<polygon fill="black" stroke="black" points="89.6524,-374.742 79.5325,-377.879 89.3995,-381.738 89.6524,-374.742"/>
<text text-anchor="middle" x="104.5" y="-381.9" font-family="Times Roman,serif" font-size="14.00">a</text>
</g>
<!-- q7&#45;&gt;q4 -->
<g id="edge6" class="edge"><title>q7&#45;&gt;q4</title>
<path fill="none" stroke="black" d="M65.3451,-369.072C73.4881,-355.747 84.9725,-336.954 94.2554,-321.764"/>
<polygon fill="black" stroke="black" points="97.4733,-323.21 99.7013,-312.852 91.5003,-319.56 97.4733,-323.21"/>
<text text-anchor="middle" x="92.5" y="-336.9" font-family="Times Roman,serif" font-size="14.00">b</text>
</g>
<!-- q4&#45;&gt;q4 -->
<g id="edge16" class="edge"><title>q4&#45;&gt;q4</title>
<path fill="none" stroke="black" d="M134.532,-304.121C145.508,-304.895 155,-302.188 155,-296 155,-291.843 150.715,-289.257 144.574,-288.242"/>
<polygon fill="black" stroke="black" points="144.652,-284.742 134.532,-287.879 144.4,-291.738 144.652,-284.742"/>
<text text-anchor="middle" x="159.5" y="-291.9" font-family="Times Roman,serif" font-size="14.00">a</text>
</g>
<!-- q2 -->
<g id="node8" class="node"><title>q2</title>
<ellipse fill="none" stroke="black" cx="55" cy="-206" rx="27" ry="18"/>
<text text-anchor="middle" x="55" y="-201.9" font-family="Times Roman,serif" font-size="14.00">q2</text>
</g>
<!-- q4&#45;&gt;q2 -->
<g id="edge14" class="edge"><title>q4&#45;&gt;q2</title>
<path fill="none" stroke="black" d="M99.6549,-279.072C91.5119,-265.747 80.0275,-246.954 70.7446,-231.764"/>
<polygon fill="black" stroke="black" points="73.4997,-229.56 65.2987,-222.852 67.5267,-233.21 73.4997,-229.56"/>
<text text-anchor="middle" x="92.5" y="-246.9" font-family="Times Roman,serif" font-size="14.00">b</text>
</g>
<!-- q2&#45;&gt;q7 -->
<g id="edge10" class="edge"><title>q2&#45;&gt;q7</title>
<path fill="none" stroke="black" d="M55,-224.031C55,-255.357 55,-320.061 55,-357.514"/>
<polygon fill="black" stroke="black" points="51.5001,-357.75 55,-367.75 58.5001,-357.75 51.5001,-357.75"/>
<text text-anchor="middle" x="59.5" y="-291.9" font-family="Times Roman,serif" font-size="14.00">b</text>
</g>
<!-- q0 -->
<g id="node11" class="node"><title>q0</title>
<ellipse fill="none" stroke="black" cx="55" cy="-116" rx="27" ry="18"/>
<text text-anchor="middle" x="55" y="-111.9" font-family="Times Roman,serif" font-size="14.00">q0</text>
</g>
<!-- q2&#45;&gt;q0 -->
<g id="edge12" class="edge"><title>q2&#45;&gt;q0</title>
<path fill="none" stroke="black" d="M55,-187.787C55,-175.344 55,-158.605 55,-144.421"/>
<polygon fill="black" stroke="black" points="58.5001,-144.186 55,-134.186 51.5001,-144.186 58.5001,-144.186"/>
<text text-anchor="middle" x="59.5" y="-156.9" font-family="Times Roman,serif" font-size="14.00">a</text>
</g>
<!-- q0&#45;&gt;q6 -->
<g id="edge24" class="edge"><title>q0&#45;&gt;q6</title>
<path fill="none" stroke="black" d="M39.0917,-130.578C22.8481,-147.132 0,-175.786 0,-206 0,-386 0,-386 0,-386 0,-411.965 16.8739,-436.778 31.929,-453.75"/>
<polygon fill="black" stroke="black" points="29.7091,-456.501 39.0917,-461.422 34.8258,-451.724 29.7091,-456.501"/>
<text text-anchor="middle" x="4.5" y="-291.9" font-family="Times Roman,serif" font-size="14.00">a</text>
</g>
<!-- q3 -->
<g id="node14" class="node"><title>q3</title>
<ellipse fill="none" stroke="black" cx="87" cy="-22" rx="27" ry="18"/>
<ellipse fill="none" stroke="black" cx="87" cy="-22" rx="31" ry="22"/>
<text text-anchor="middle" x="87" y="-17.9" font-family="Times Roman,serif" font-size="14.00">q3</text>
</g>
<!-- q0&#45;&gt;q3 -->
<g id="edge22" class="edge"><title>q0&#45;&gt;q3</title>
<path fill="none" stroke="black" d="M61.019,-98.3193C65.3143,-85.7017 71.2076,-68.3903 76.2955,-53.4444"/>
<polygon fill="black" stroke="black" points="79.7504,-54.1563 79.6598,-43.5618 73.1238,-51.9004 79.7504,-54.1563"/>
<text text-anchor="middle" x="77.5" y="-66.9" font-family="Times Roman,serif" font-size="14.00">b</text>
</g>
<!-- q3&#45;&gt;q4 -->
<g id="edge18" class="edge"><title>q3&#45;&gt;q4</title>
<path fill="none" stroke="black" d="M88.8603,-44.1615C93.02,-93.7171 103.068,-213.413 107.651,-268.011"/>
<polygon fill="black" stroke="black" points="104.167,-268.35 108.491,-278.022 111.142,-267.764 104.167,-268.35"/>
<text text-anchor="middle" x="103.5" y="-156.9" font-family="Times Roman,serif" font-size="14.00">b</text>
</g>
<!-- q3&#45;&gt;q0 -->
<g id="edge20" class="edge"><title>q3&#45;&gt;q0</title>
<path fill="none" stroke="black" d="M69.0947,-40.0219C63.8645,-46.4317 58.8041,-54.0454 56,-62 53.1505,-70.0833 52.2084,-79.2786 52.1749,-87.7613"/>
<polygon fill="black" stroke="black" points="48.6854,-88.12 52.5431,-97.9876 55.6809,-87.8681 48.6854,-88.12"/>
<text text-anchor="middle" x="60.5" y="-66.9" font-family="Times Roman,serif" font-size="14.00">a</text>
</g>
</g>
</svg>
