<?xml version="1.0" encoding="UTF-8" standalone="no"?>
<!DOCTYPE svg PUBLIC "-//W3C//DTD SVG 1.1//EN"
 "http://www.w3.org/Graphics/SVG/1.1/DTD/svg11.dtd">
<!-- Generated by graphviz version 2.26.3 (20100126.1600)
 -->
<!-- Title: G Pages: 1 -->
<svg width="414pt" height="514pt"
 viewBox="0.00 0.00 414.00 514.00" xmlns="http://www.w3.org/2000/svg" xmlns:xlink="http://www.w3.org/1999/xlink">
<g id="graph1" class="graph" transform="scale(1 1) rotate(0) translate(4 510)">
<title>G</title>
<polygon fill="white" stroke="white" points="-4,5 -4,-510 411,-510 411,5 -4,5"/>
<!-- q0 -->
<g id="node1" class="node"><title>q0</title>
<ellipse fill="none" stroke="black" cx="64" cy="-395" rx="27" ry="18.3848"/>
<text text-anchor="middle" x="64" y="-391.4" font-family="Times Roman,serif" font-size="14.00">q0</text>
</g>
<!-- q0&#45;&gt;q0 -->
<g id="edge4" class="edge"><title>q0&#45;&gt;q0</title>
<path fill="none" stroke="black" d="M88.0743,-403.454C99.2423,-404.377 109,-401.559 109,-395 109,-390.593 104.595,-387.875 98.3174,-386.846"/>
<polygon fill="black" stroke="black" points="98.1726,-383.34 88.0743,-386.546 97.9674,-390.337 98.1726,-383.34"/>
<text text-anchor="middle" x="113.5" y="-391.4" font-family="Times Roman,serif" font-size="14.00">a</text>
</g>
<!-- q3 -->
<g id="node3" class="node"><title>q3</title>
<ellipse fill="none" stroke="black" cx="80" cy="-303" rx="27" ry="18.3848"/>
<text text-anchor="middle" x="80" y="-299.4" font-family="Times Roman,serif" font-size="14.00">q3</text>
</g>
<!-- q0&#45;&gt;q3 -->
<g id="edge2" class="edge"><title>q0&#45;&gt;q3</title>
<path fill="none" stroke="black" d="M67.2378,-376.382C69.4716,-363.538 72.4842,-346.216 75.0214,-331.627"/>
<polygon fill="black" stroke="black" points="78.5017,-332.042 76.767,-321.59 71.6052,-330.842 78.5017,-332.042"/>
<text text-anchor="middle" x="77.5" y="-345.4" font-family="Times Roman,serif" font-size="14.00">b</text>
</g>
<!-- q9 -->
<g id="node9" class="node"><title>q9</title>
<ellipse fill="none" stroke="black" cx="193" cy="-211" rx="27" ry="18.3848"/>
<text text-anchor="middle" x="193" y="-207.4" font-family="Times Roman,serif" font-size="14.00">q9</text>
</g>
<!-- q3&#45;&gt;q9 -->
<g id="edge12" class="edge"><title>q3&#45;&gt;q9</title>
<path fill="none" stroke="black" d="M93.88,-286.531C104.049,-275.005 118.544,-259.648 133,-248 142.193,-240.593 152.978,-233.514 162.849,-227.568"/>
<polygon fill="black" stroke="black" points="164.727,-230.524 171.586,-222.449 161.188,-224.484 164.727,-230.524"/>
<text text-anchor="middle" x="137.5" y="-253.4" font-family="Times Roman,serif" font-size="14.00">a</text>
</g>
<!-- q10 -->
<g id="node11" class="node"><title>q10</title>
<ellipse fill="none" stroke="black" cx="103" cy="-19" rx="29.9071" ry="18.3848"/>
<text text-anchor="middle" x="103" y="-15.4" font-family="Times Roman,serif" font-size="14.00">q10</text>
</g>
<!-- q3&#45;&gt;q10 -->
<g id="edge10" class="edge"><title>q3&#45;&gt;q10</title>
<path fill="none" stroke="black" d="M81.5091,-284.366C85.4324,-235.922 95.9735,-105.763 100.678,-47.6743"/>
<polygon fill="black" stroke="black" points="104.167,-47.9526 101.485,-37.7026 97.1895,-47.3875 104.167,-47.9526"/>
<text text-anchor="middle" x="95.5" y="-161.4" font-family="Times Roman,serif" font-size="14.00">b</text>
</g>
<!-- q2 -->
<g id="node5" class="node"><title>q2</title>
<ellipse fill="none" stroke="black" cx="378" cy="-19" rx="27" ry="18.3848"/>
<text text-anchor="middle" x="378" y="-15.4" font-family="Times Roman,serif" font-size="14.00">q2</text>
</g>
<!-- q4 -->
<g id="node7" class="node"><title>q4</title>
<ellipse fill="none" stroke="black" cx="346" cy="-115" rx="27" ry="18.3848"/>
<ellipse fill="none" stroke="black" cx="346" cy="-115" rx="31" ry="22.3848"/>
<text text-anchor="middle" x="346" y="-111.4" font-family="Times Roman,serif" font-size="14.00">q4</text>
</g>
<!-- q2&#45;&gt;q4 -->
<g id="edge6" class="edge"><title>q2&#45;&gt;q4</title>
<path fill="none" stroke="black" d="M371.906,-37.2828C367.592,-50.2242 361.694,-67.9169 356.616,-83.1522"/>
<polygon fill="black" stroke="black" points="353.264,-82.1407 353.422,-92.7344 359.905,-84.3544 353.264,-82.1407"/>
<text text-anchor="middle" x="368.5" y="-61.4" font-family="Times Roman,serif" font-size="14.00">b</text>
</g>
<!-- q2&#45;&gt;q9 -->
<g id="edge8" class="edge"><title>q2&#45;&gt;q9</title>
<path fill="none" stroke="black" d="M385.53,-36.9099C394.724,-61.87 406.663,-107.48 386,-138 367.868,-164.781 279.302,-190.099 228.679,-202.695"/>
<polygon fill="black" stroke="black" points="227.673,-199.338 218.791,-205.114 229.337,-206.137 227.673,-199.338"/>
<text text-anchor="middle" x="401.5" y="-111.4" font-family="Times Roman,serif" font-size="14.00">a</text>
</g>
<!-- q4&#45;&gt;q2 -->
<g id="edge16" class="edge"><title>q4&#45;&gt;q2</title>
<path fill="none" stroke="black" d="M342.908,-92.4897C342.214,-81.2013 342.702,-67.5176 347,-56 348.857,-51.0242 351.694,-46.2445 354.913,-41.8686"/>
<polygon fill="black" stroke="black" points="357.739,-43.9432 361.414,-34.0063 352.344,-39.4822 357.739,-43.9432"/>
<text text-anchor="middle" x="351.5" y="-61.4" font-family="Times Roman,serif" font-size="14.00">a</text>
</g>
<!-- q8 -->
<g id="node14" class="node"><title>q8</title>
<ellipse fill="none" stroke="black" cx="266" cy="-19" rx="27" ry="18.3848"/>
<text text-anchor="middle" x="266" y="-15.4" font-family="Times Roman,serif" font-size="14.00">q8</text>
</g>
<!-- q4&#45;&gt;q8 -->
<g id="edge14" class="edge"><title>q4&#45;&gt;q8</title>
<path fill="none" stroke="black" d="M329.811,-95.573C317.214,-80.4566 299.663,-59.3959 286.156,-43.1871"/>
<polygon fill="black" stroke="black" points="288.599,-40.652 279.509,-35.2104 283.222,-45.1333 288.599,-40.652"/>
<text text-anchor="middle" x="314.5" y="-61.4" font-family="Times Roman,serif" font-size="14.00">b</text>
</g>
<!-- q9&#45;&gt;q3 -->
<g id="edge30" class="edge"><title>q9&#45;&gt;q3</title>
<path fill="none" stroke="black" d="M179.803,-227.578C170.093,-239.155 156.169,-254.528 142,-266 132.431,-273.748 121.077,-280.997 110.717,-286.99"/>
<polygon fill="black" stroke="black" points="108.948,-283.969 101.938,-291.914 112.372,-290.074 108.948,-283.969"/>
<text text-anchor="middle" x="164.5" y="-253.4" font-family="Times Roman,serif" font-size="14.00">b</text>
</g>
<!-- q9&#45;&gt;q4 -->
<g id="edge38" class="edge"><title>q9&#45;&gt;q4</title>
<path fill="none" stroke="black" d="M213.867,-199.09C226.21,-191.959 242.099,-182.631 256,-174 275.734,-161.747 297.528,-147.48 314.726,-136.045"/>
<polygon fill="black" stroke="black" points="316.888,-138.809 323.265,-130.349 313.004,-132.986 316.888,-138.809"/>
<text text-anchor="middle" x="287.5" y="-161.4" font-family="Times Roman,serif" font-size="14.00">b</text>
</g>
<!-- q9&#45;&gt;q10 -->
<g id="edge40" class="edge"><title>q9&#45;&gt;q10</title>
<path fill="none" stroke="black" d="M187.567,-192.773C180.188,-168.995 165.954,-126.373 149,-92 140.901,-75.5793 130.049,-58.1979 120.92,-44.5163"/>
<polygon fill="black" stroke="black" points="123.726,-42.418 115.216,-36.1071 117.933,-46.3476 123.726,-42.418"/>
<text text-anchor="middle" x="172.5" y="-111.4" font-family="Times Roman,serif" font-size="14.00">a</text>
</g>
<!-- q5 -->
<g id="node16" class="node"><title>q5</title>
<ellipse fill="none" stroke="black" cx="270" cy="-115" rx="27" ry="18.3848"/>
<text text-anchor="middle" x="270" y="-111.4" font-family="Times Roman,serif" font-size="14.00">q5</text>
</g>
<!-- q9&#45;&gt;q5 -->
<g id="edge32" class="edge"><title>q9&#45;&gt;q5</title>
<path fill="none" stroke="black" d="M209.166,-196.14C215.908,-189.618 223.635,-181.703 230,-174 238.622,-163.566 247.178,-151.278 254.151,-140.625"/>
<polygon fill="black" stroke="black" points="257.143,-142.443 259.602,-132.137 251.253,-138.66 257.143,-142.443"/>
<text text-anchor="middle" x="247.5" y="-161.4" font-family="Times Roman,serif" font-size="14.00">a</text>
</g>
<!-- q10&#45;&gt;q3 -->
<g id="edge34" class="edge"><title>q10&#45;&gt;q3</title>
<path fill="none" stroke="black" d="M98.258,-37.3863C96.8029,-43.3088 95.2559,-49.914 94,-56 84.889,-100.152 80.7912,-111.078 77,-156 76.3272,-163.972 76.9131,-166 77,-174 77.4445,-214.896 78.0031,-225.114 79,-266 79.063,-268.586 79.131,-271.273 79.2007,-273.966"/>
<polygon fill="black" stroke="black" points="75.7076,-274.274 79.472,-284.178 82.7051,-274.088 75.7076,-274.274"/>
<text text-anchor="middle" x="81.5" y="-161.4" font-family="Times Roman,serif" font-size="14.00">b</text>
</g>
<!-- q10&#45;&gt;q9 -->
<g id="edge36" class="edge"><title>q10&#45;&gt;q9</title>
<path fill="none" stroke="black" d="M106.129,-37.6606C111.973,-68.3595 126.791,-130.449 157,-174 160.534,-179.095 164.788,-184.139 169.113,-188.787"/>
<polygon fill="black" stroke="black" points="166.85,-191.478 176.347,-196.174 171.851,-186.58 166.85,-191.478"/>
<text text-anchor="middle" x="140.5" y="-111.4" font-family="Times Roman,serif" font-size="14.00">a</text>
</g>
<!-- q8&#45;&gt;q9 -->
<g id="edge28" class="edge"><title>q8&#45;&gt;q9</title>
<path fill="none" stroke="black" d="M254.786,-36.0876C245.726,-50.506 233.178,-71.9453 225,-92 212.826,-121.853 203.896,-157.796 198.609,-182.314"/>
<polygon fill="black" stroke="black" points="195.123,-181.887 196.503,-192.392 201.975,-183.319 195.123,-181.887"/>
<text text-anchor="middle" x="229.5" y="-111.4" font-family="Times Roman,serif" font-size="14.00">a</text>
</g>
<!-- q8&#45;&gt;q5 -->
<g id="edge26" class="edge"><title>q8&#45;&gt;q5</title>
<path fill="none" stroke="black" d="M266.783,-37.7805C267.357,-51.5725 268.148,-70.5598 268.802,-86.2548"/>
<polygon fill="black" stroke="black" points="265.315,-86.6446 269.229,-96.4902 272.309,-86.3532 265.315,-86.6446"/>
<text text-anchor="middle" x="272.5" y="-61.4" font-family="Times Roman,serif" font-size="14.00">b</text>
</g>
<!-- q5&#45;&gt;q10 -->
<g id="edge20" class="edge"><title>q5&#45;&gt;q10</title>
<path fill="none" stroke="black" d="M249.416,-102.624C229.268,-90.565 197.658,-71.7919 170,-56 158.551,-49.4629 145.912,-42.4351 134.726,-36.279"/>
<polygon fill="black" stroke="black" points="136.18,-33.0845 125.729,-31.3428 132.813,-39.2215 136.18,-33.0845"/>
<text text-anchor="middle" x="204.5" y="-61.4" font-family="Times Roman,serif" font-size="14.00">a</text>
</g>
<!-- q5&#45;&gt;q8 -->
<g id="edge18" class="edge"><title>q5&#45;&gt;q8</title>
<path fill="none" stroke="black" d="M259.919,-97.6312C256.355,-90.5461 252.79,-82.121 251,-74 248.988,-64.8708 250.502,-54.9911 253.215,-46.1574"/>
<polygon fill="black" stroke="black" points="256.517,-47.3179 256.663,-36.7241 249.942,-44.9148 256.517,-47.3179"/>
<text text-anchor="middle" x="255.5" y="-61.4" font-family="Times Roman,serif" font-size="14.00">b</text>
</g>
<!-- q6 -->
<g id="node19" class="node"><title>q6</title>
<ellipse fill="none" stroke="black" cx="27" cy="-487" rx="27" ry="18.3848"/>
<text text-anchor="middle" x="27" y="-483.4" font-family="Times Roman,serif" font-size="14.00">q6</text>
</g>
<!-- q6&#45;&gt;q0 -->
<g id="edge22" class="edge"><title>q6&#45;&gt;q0</title>
<path fill="none" stroke="black" d="M34.31,-468.824C39.6311,-455.593 46.9304,-437.443 52.9599,-422.451"/>
<polygon fill="black" stroke="black" points="56.2211,-423.722 56.7052,-413.138 49.7266,-421.11 56.2211,-423.722"/>
<text text-anchor="middle" x="53.5" y="-437.4" font-family="Times Roman,serif" font-size="14.00">b</text>
</g>
<!-- q6&#45;&gt;q10 -->
<g id="edge24" class="edge"><title>q6&#45;&gt;q10</title>
<path fill="none" stroke="black" d="M19.7227,-469.004C12.9844,-450.694 4,-421.342 4,-395 4,-395 4,-395 4,-115 4,-77.7343 40.5997,-50.2949 69.2921,-34.5094"/>
<polygon fill="black" stroke="black" points="71.0451,-37.5422 78.2735,-29.7961 67.7923,-31.3438 71.0451,-37.5422"/>
<text text-anchor="middle" x="8.5" y="-253.4" font-family="Times Roman,serif" font-size="14.00">a</text>
</g>
</g>
</svg>
