<?xml version="1.0" encoding="UTF-8" standalone="no"?>
<!DOCTYPE svg PUBLIC "-//W3C//DTD SVG 1.1//EN"
 "http://www.w3.org/Graphics/SVG/1.1/DTD/svg11.dtd">
<!-- Generated by graphviz version 2.26.3 (20100126.1600)
 -->
<!-- Title: G Pages: 1 -->
<svg width="304pt" height="714pt"
 viewBox="0.00 0.00 304.00 714.00" xmlns="http://www.w3.org/2000/svg" xmlns:xlink="http://www.w3.org/1999/xlink">
<g id="graph1" class="graph" transform="scale(1 1) rotate(0) translate(4 710)">
<title>G</title>
<polygon fill="white" stroke="white" points="-4,5 -4,-710 301,-710 301,5 -4,5"/>
<!-- q0 -->
<g id="node1" class="node"><title>q0</title>
<ellipse fill="none" stroke="black" cx="31" cy="-491" rx="27" ry="18.3848"/>
<ellipse fill="none" stroke="black" cx="31" cy="-491" rx="31" ry="22.3848"/>
<text text-anchor="middle" x="31" y="-487.4" font-family="Times Roman,serif" font-size="14.00">q0</text>
</g>
<!-- q0&#45;&gt;q0 -->
<g id="edge2" class="edge"><title>q0&#45;&gt;q0</title>
<path fill="none" stroke="black" d="M59.6885,-500.338C70.7806,-500.753 80,-497.641 80,-491 80,-486.538 75.8382,-483.669 69.7429,-482.393"/>
<polygon fill="black" stroke="black" points="69.916,-478.896 59.6885,-481.662 69.4084,-485.878 69.916,-478.896"/>
<text text-anchor="middle" x="84.5" y="-487.4" font-family="Times Roman,serif" font-size="14.00">b</text>
</g>
<!-- q6 -->
<g id="node4" class="node"><title>q6</title>
<ellipse fill="none" stroke="black" cx="138" cy="-395" rx="27" ry="18.3848"/>
<text text-anchor="middle" x="138" y="-391.4" font-family="Times Roman,serif" font-size="14.00">q6</text>
</g>
<!-- q0&#45;&gt;q6 -->
<g id="edge4" class="edge"><title>q0&#45;&gt;q6</title>
<path fill="none" stroke="black" d="M50.6254,-473.392C68.3631,-457.478 94.5399,-433.992 113.615,-416.878"/>
<polygon fill="black" stroke="black" points="116.205,-419.257 121.311,-409.974 111.53,-414.047 116.205,-419.257"/>
<text text-anchor="middle" x="99.5" y="-437.4" font-family="Times Roman,serif" font-size="14.00">a</text>
</g>
<!-- q6&#45;&gt;q6 -->
<g id="edge26" class="edge"><title>q6&#45;&gt;q6</title>
<path fill="none" stroke="black" d="M162.074,-403.454C173.242,-404.377 183,-401.559 183,-395 183,-390.593 178.595,-387.875 172.317,-386.846"/>
<polygon fill="black" stroke="black" points="172.173,-383.34 162.074,-386.546 171.967,-390.337 172.173,-383.34"/>
<text text-anchor="middle" x="187.5" y="-391.4" font-family="Times Roman,serif" font-size="14.00">b</text>
</g>
<!-- q7 -->
<g id="node12" class="node"><title>q7</title>
<ellipse fill="none" stroke="black" cx="138" cy="-303" rx="27" ry="18.3848"/>
<text text-anchor="middle" x="138" y="-299.4" font-family="Times Roman,serif" font-size="14.00">q7</text>
</g>
<!-- q6&#45;&gt;q7 -->
<g id="edge28" class="edge"><title>q6&#45;&gt;q7</title>
<path fill="none" stroke="black" d="M138,-376.382C138,-363.538 138,-346.216 138,-331.627"/>
<polygon fill="black" stroke="black" points="141.5,-331.59 138,-321.59 134.5,-331.59 141.5,-331.59"/>
<text text-anchor="middle" x="142.5" y="-345.4" font-family="Times Roman,serif" font-size="14.00">a</text>
</g>
<!-- q1 -->
<g id="node5" class="node"><title>q1</title>
<ellipse fill="none" stroke="black" cx="219" cy="-683" rx="27" ry="18.3848"/>
<ellipse fill="none" stroke="black" cx="219" cy="-683" rx="31" ry="22.3848"/>
<text text-anchor="middle" x="219" y="-679.4" font-family="Times Roman,serif" font-size="14.00">q1</text>
</g>
<!-- q3 -->
<g id="node7" class="node"><title>q3</title>
<ellipse fill="none" stroke="black" cx="181" cy="-587" rx="27" ry="18.3848"/>
<text text-anchor="middle" x="181" y="-583.4" font-family="Times Roman,serif" font-size="14.00">q3</text>
</g>
<!-- q1&#45;&gt;q3 -->
<g id="edge6" class="edge"><title>q1&#45;&gt;q3</title>
<path fill="none" stroke="black" d="M210.377,-661.216C204.933,-647.462 197.849,-629.565 192.001,-614.793"/>
<polygon fill="black" stroke="black" points="195.121,-613.164 188.186,-605.154 188.612,-615.74 195.121,-613.164"/>
<text text-anchor="middle" x="206.5" y="-629.4" font-family="Times Roman,serif" font-size="14.00">b</text>
</g>
<!-- q8 -->
<g id="node9" class="node"><title>q8</title>
<ellipse fill="none" stroke="black" cx="211" cy="-23" rx="27" ry="18.3848"/>
<ellipse fill="none" stroke="black" cx="211" cy="-23" rx="31" ry="22.3848"/>
<text text-anchor="middle" x="211" y="-19.4" font-family="Times Roman,serif" font-size="14.00">q8</text>
</g>
<!-- q1&#45;&gt;q8 -->
<g id="edge8" class="edge"><title>q1&#45;&gt;q8</title>
<path fill="none" stroke="black" d="M227.304,-661.24C233.892,-642.01 242,-613.05 242,-587 242,-587 242,-587 242,-119 242,-96.2857 234.044,-71.9474 226.193,-53.4602"/>
<polygon fill="black" stroke="black" points="229.288,-51.8083 222.017,-44.1028 222.896,-54.6611 229.288,-51.8083"/>
<text text-anchor="middle" x="246.5" y="-345.4" font-family="Times Roman,serif" font-size="14.00">a</text>
</g>
<!-- q3&#45;&gt;q6 -->
<g id="edge16" class="edge"><title>q3&#45;&gt;q6</title>
<path fill="none" stroke="black" d="M183.192,-568.471C185.402,-544.73 187.303,-502.521 178,-468 173.448,-451.107 164.255,-433.866 155.83,-420.384"/>
<polygon fill="black" stroke="black" points="158.571,-418.178 150.186,-411.702 152.702,-421.994 158.571,-418.178"/>
<text text-anchor="middle" x="188.5" y="-487.4" font-family="Times Roman,serif" font-size="14.00">a</text>
</g>
<!-- q5 -->
<g id="node16" class="node"><title>q5</title>
<ellipse fill="none" stroke="black" cx="138" cy="-491" rx="27" ry="18.3848"/>
<ellipse fill="none" stroke="black" cx="138" cy="-491" rx="31" ry="22.3848"/>
<text text-anchor="middle" x="138" y="-487.4" font-family="Times Roman,serif" font-size="14.00">q5</text>
</g>
<!-- q3&#45;&gt;q5 -->
<g id="edge14" class="edge"><title>q3&#45;&gt;q5</title>
<path fill="none" stroke="black" d="M162.992,-572.96C156.224,-566.688 149.166,-558.737 145,-550 141.139,-541.903 139.094,-532.498 138.076,-523.608"/>
<polygon fill="black" stroke="black" points="141.557,-523.223 137.306,-513.519 134.577,-523.756 141.557,-523.223"/>
<text text-anchor="middle" x="149.5" y="-537.4" font-family="Times Roman,serif" font-size="14.00">b</text>
</g>
<!-- q8&#45;&gt;q8 -->
<g id="edge34" class="edge"><title>q8&#45;&gt;q8</title>
<path fill="none" stroke="black" d="M241.625,-27.6875C251.833,-27.6875 260,-26.125 260,-23 260,-21.0469 256.81,-19.7041 251.925,-18.9717"/>
<polygon fill="black" stroke="black" points="251.828,-15.4584 241.625,-18.3125 251.381,-22.4441 251.828,-15.4584"/>
<text text-anchor="middle" x="264.5" y="-19.4" font-family="Times Roman,serif" font-size="14.00">b</text>
</g>
<!-- q8&#45;&gt;q8 -->
<g id="edge36" class="edge"><title>q8&#45;&gt;q8</title>
<path fill="none" stroke="black" d="M234.347,-37.9505C255.424,-45.2237 278,-40.2402 278,-23 278,-8.45355 261.928,-2.63284 244.245,-5.53787"/>
<polygon fill="black" stroke="black" points="243.179,-2.19731 234.347,-8.04948 244.901,-8.98227 243.179,-2.19731"/>
<text text-anchor="middle" x="282.5" y="-19.4" font-family="Times Roman,serif" font-size="14.00">a</text>
</g>
<!-- q2 -->
<g id="node10" class="node"><title>q2</title>
<ellipse fill="none" stroke="black" cx="165" cy="-211" rx="27" ry="18.3848"/>
<text text-anchor="middle" x="165" y="-207.4" font-family="Times Roman,serif" font-size="14.00">q2</text>
</g>
<!-- q2&#45;&gt;q7 -->
<g id="edge10" class="edge"><title>q2&#45;&gt;q7</title>
<path fill="none" stroke="black" d="M159.677,-229.138C155.834,-242.234 150.572,-260.163 146.195,-275.077"/>
<polygon fill="black" stroke="black" points="142.792,-274.243 143.334,-284.824 149.509,-276.214 142.792,-274.243"/>
<text text-anchor="middle" x="157.5" y="-253.4" font-family="Times Roman,serif" font-size="14.00">b</text>
</g>
<!-- q4 -->
<g id="node14" class="node"><title>q4</title>
<ellipse fill="none" stroke="black" cx="165" cy="-119" rx="27" ry="18.3848"/>
<text text-anchor="middle" x="165" y="-115.4" font-family="Times Roman,serif" font-size="14.00">q4</text>
</g>
<!-- q2&#45;&gt;q4 -->
<g id="edge12" class="edge"><title>q2&#45;&gt;q4</title>
<path fill="none" stroke="black" d="M165,-192.382C165,-179.538 165,-162.216 165,-147.627"/>
<polygon fill="black" stroke="black" points="168.5,-147.59 165,-137.59 161.5,-147.59 168.5,-147.59"/>
<text text-anchor="middle" x="169.5" y="-161.4" font-family="Times Roman,serif" font-size="14.00">a</text>
</g>
<!-- q7&#45;&gt;q2 -->
<g id="edge30" class="edge"><title>q7&#45;&gt;q2</title>
<path fill="none" stroke="black" d="M135.673,-284.47C134.955,-273.586 135.179,-259.712 139,-248 140.436,-243.599 142.59,-239.262 145.055,-235.193"/>
<polygon fill="black" stroke="black" points="148.041,-237.026 150.79,-226.794 142.26,-233.079 148.041,-237.026"/>
<text text-anchor="middle" x="143.5" y="-253.4" font-family="Times Roman,serif" font-size="14.00">b</text>
</g>
<!-- q7&#45;&gt;q7 -->
<g id="edge32" class="edge"><title>q7&#45;&gt;q7</title>
<path fill="none" stroke="black" d="M162.074,-311.454C173.242,-312.377 183,-309.559 183,-303 183,-298.593 178.595,-295.875 172.317,-294.846"/>
<polygon fill="black" stroke="black" points="172.173,-291.34 162.074,-294.546 171.967,-298.337 172.173,-291.34"/>
<text text-anchor="middle" x="187.5" y="-299.4" font-family="Times Roman,serif" font-size="14.00">a</text>
</g>
<!-- q4&#45;&gt;q8 -->
<g id="edge18" class="edge"><title>q4&#45;&gt;q8</title>
<path fill="none" stroke="black" d="M173.437,-101.392C179.795,-88.1236 188.675,-69.5916 196.205,-53.8773"/>
<polygon fill="black" stroke="black" points="199.519,-55.0599 200.684,-44.5293 193.206,-52.0351 199.519,-55.0599"/>
<text text-anchor="middle" x="194.5" y="-69.4" font-family="Times Roman,serif" font-size="14.00">b</text>
</g>
<!-- q9 -->
<g id="node20" class="node"><title>q9</title>
<ellipse fill="none" stroke="black" cx="105" cy="-23" rx="27" ry="18.3848"/>
<text text-anchor="middle" x="105" y="-19.4" font-family="Times Roman,serif" font-size="14.00">q9</text>
</g>
<!-- q4&#45;&gt;q9 -->
<g id="edge20" class="edge"><title>q4&#45;&gt;q9</title>
<path fill="none" stroke="black" d="M154.273,-101.837C145.058,-87.0936 131.637,-65.6188 121.128,-48.804"/>
<polygon fill="black" stroke="black" points="123.902,-46.6393 115.634,-40.0143 117.966,-50.3493 123.902,-46.6393"/>
<text text-anchor="middle" x="145.5" y="-69.4" font-family="Times Roman,serif" font-size="14.00">a</text>
</g>
<!-- q5&#45;&gt;q6 -->
<g id="edge22" class="edge"><title>q5&#45;&gt;q6</title>
<path fill="none" stroke="black" d="M138,-468.249C138,-454.994 138,-438.148 138,-423.954"/>
<polygon fill="black" stroke="black" points="141.5,-423.72 138,-413.72 134.5,-423.72 141.5,-423.72"/>
<text text-anchor="middle" x="142.5" y="-437.4" font-family="Times Roman,serif" font-size="14.00">b</text>
</g>
<!-- q5&#45;&gt;q3 -->
<g id="edge24" class="edge"><title>q5&#45;&gt;q3</title>
<path fill="none" stroke="black" d="M147.708,-512.673C153.944,-526.595 162.096,-544.796 168.773,-559.702"/>
<polygon fill="black" stroke="black" points="165.63,-561.248 172.912,-568.943 172.018,-558.386 165.63,-561.248"/>
<text text-anchor="middle" x="167.5" y="-537.4" font-family="Times Roman,serif" font-size="14.00">a</text>
</g>
<!-- q9&#45;&gt;q0 -->
<g id="edge38" class="edge"><title>q9&#45;&gt;q0</title>
<path fill="none" stroke="black" d="M89.1024,-38.3767C72.5464,-56.1138 49,-86.9702 49,-119 49,-395 49,-395 49,-395 49,-416.604 44.5417,-440.482 40.0626,-459.02"/>
<polygon fill="black" stroke="black" points="36.6682,-458.167 37.6003,-468.721 43.453,-459.889 36.6682,-458.167"/>
<text text-anchor="middle" x="53.5" y="-253.4" font-family="Times Roman,serif" font-size="14.00">b</text>
</g>
<!-- q9&#45;&gt;q7 -->
<g id="edge40" class="edge"><title>q9&#45;&gt;q7</title>
<path fill="none" stroke="black" d="M106.749,-41.6356C110.646,-82.3989 120.6,-182.517 132,-266 132.375,-268.746 132.791,-271.603 133.225,-274.457"/>
<polygon fill="black" stroke="black" points="129.807,-275.253 134.827,-284.583 136.721,-274.159 129.807,-275.253"/>
<text text-anchor="middle" x="125.5" y="-161.4" font-family="Times Roman,serif" font-size="14.00">a</text>
</g>
</g>
</svg>
