<?xml version="1.0" encoding="UTF-8" standalone="no"?>
<!DOCTYPE svg PUBLIC "-//W3C//DTD SVG 1.1//EN"
 "http://www.w3.org/Graphics/SVG/1.1/DTD/svg11.dtd">
<!-- Generated by graphviz version 2.26.3 (20100126.1600)
 -->
<!-- Title: G Pages: 1 -->
<svg width="324pt" height="706pt"
 viewBox="0.00 0.00 324.00 706.00" xmlns="http://www.w3.org/2000/svg" xmlns:xlink="http://www.w3.org/1999/xlink">
<g id="graph1" class="graph" transform="scale(1 1) rotate(0) translate(4 702)">
<title>G</title>
<polygon fill="white" stroke="white" points="-4,5 -4,-702 321,-702 321,5 -4,5"/>
<!-- q0 -->
<g id="node1" class="node"><title>q0</title>
<ellipse fill="none" stroke="black" cx="90" cy="-679" rx="27" ry="18.3848"/>
<text text-anchor="middle" x="90" y="-675.4" font-family="Times Roman,serif" font-size="14.00">q0</text>
</g>
<!-- q0&#45;&gt;q0 -->
<g id="edge2" class="edge"><title>q0&#45;&gt;q0</title>
<path fill="none" stroke="black" d="M114.074,-687.454C125.242,-688.377 135,-685.559 135,-679 135,-674.593 130.595,-671.875 124.317,-670.846"/>
<polygon fill="black" stroke="black" points="124.173,-667.34 114.074,-670.546 123.967,-674.337 124.173,-667.34"/>
<text text-anchor="middle" x="139.5" y="-675.4" font-family="Times Roman,serif" font-size="14.00">b</text>
</g>
<!-- q6 -->
<g id="node4" class="node"><title>q6</title>
<ellipse fill="none" stroke="black" cx="237" cy="-587" rx="27" ry="18.3848"/>
<text text-anchor="middle" x="237" y="-583.4" font-family="Times Roman,serif" font-size="14.00">q6</text>
</g>
<!-- q0&#45;&gt;q6 -->
<g id="edge4" class="edge"><title>q0&#45;&gt;q6</title>
<path fill="none" stroke="black" d="M110.131,-666.401C135.391,-650.592 178.895,-623.365 207.807,-605.27"/>
<polygon fill="black" stroke="black" points="210.02,-608.014 216.64,-599.742 206.306,-602.081 210.02,-608.014"/>
<text text-anchor="middle" x="180.5" y="-629.4" font-family="Times Roman,serif" font-size="14.00">a</text>
</g>
<!-- q6&#45;&gt;q6 -->
<g id="edge26" class="edge"><title>q6&#45;&gt;q6</title>
<path fill="none" stroke="black" d="M261.074,-595.454C272.242,-596.377 282,-593.559 282,-587 282,-582.593 277.595,-579.875 271.317,-578.846"/>
<polygon fill="black" stroke="black" points="271.173,-575.34 261.074,-578.546 270.967,-582.337 271.173,-575.34"/>
<text text-anchor="middle" x="286.5" y="-583.4" font-family="Times Roman,serif" font-size="14.00">b</text>
</g>
<!-- q7 -->
<g id="node12" class="node"><title>q7</title>
<ellipse fill="none" stroke="black" cx="168" cy="-495" rx="27" ry="18.3848"/>
<text text-anchor="middle" x="168" y="-491.4" font-family="Times Roman,serif" font-size="14.00">q7</text>
</g>
<!-- q6&#45;&gt;q7 -->
<g id="edge28" class="edge"><title>q6&#45;&gt;q7</title>
<path fill="none" stroke="black" d="M224.344,-570.126C213.774,-556.032 198.557,-535.742 186.6,-519.8"/>
<polygon fill="black" stroke="black" points="189.143,-517.358 180.343,-511.458 183.543,-521.558 189.143,-517.358"/>
<text text-anchor="middle" x="212.5" y="-537.4" font-family="Times Roman,serif" font-size="14.00">a</text>
</g>
<!-- q1 -->
<g id="node5" class="node"><title>q1</title>
<ellipse fill="none" stroke="black" cx="189" cy="-311" rx="27" ry="18.3848"/>
<text text-anchor="middle" x="189" y="-307.4" font-family="Times Roman,serif" font-size="14.00">q1</text>
</g>
<!-- q3 -->
<g id="node7" class="node"><title>q3</title>
<ellipse fill="none" stroke="black" cx="238" cy="-119" rx="27" ry="18.3848"/>
<text text-anchor="middle" x="238" y="-115.4" font-family="Times Roman,serif" font-size="14.00">q3</text>
</g>
<!-- q1&#45;&gt;q3 -->
<g id="edge6" class="edge"><title>q1&#45;&gt;q3</title>
<path fill="none" stroke="black" d="M193.698,-292.59C202.296,-258.902 220.611,-187.137 230.794,-147.237"/>
<polygon fill="black" stroke="black" points="234.234,-147.909 233.316,-137.354 227.452,-146.178 234.234,-147.909"/>
<text text-anchor="middle" x="223.5" y="-211.4" font-family="Times Roman,serif" font-size="14.00">b</text>
</g>
<!-- q8 -->
<g id="node9" class="node"><title>q8</title>
<ellipse fill="none" stroke="black" cx="103" cy="-215" rx="27" ry="18.3848"/>
<ellipse fill="none" stroke="black" cx="103" cy="-215" rx="31" ry="22.3848"/>
<text text-anchor="middle" x="103" y="-211.4" font-family="Times Roman,serif" font-size="14.00">q8</text>
</g>
<!-- q1&#45;&gt;q8 -->
<g id="edge8" class="edge"><title>q1&#45;&gt;q8</title>
<path fill="none" stroke="black" d="M174.799,-295.148C161.808,-280.646 142.327,-258.9 126.934,-241.717"/>
<polygon fill="black" stroke="black" points="129.466,-239.299 120.187,-234.186 124.253,-243.969 129.466,-239.299"/>
<text text-anchor="middle" x="157.5" y="-261.4" font-family="Times Roman,serif" font-size="14.00">a</text>
</g>
<!-- q3&#45;&gt;q6 -->
<g id="edge16" class="edge"><title>q3&#45;&gt;q6</title>
<path fill="none" stroke="black" d="M245.026,-137.095C251.79,-156.167 261,-187.236 261,-215 261,-495 261,-495 261,-495 261,-517.181 254.387,-541.424 248.104,-559.454"/>
<polygon fill="black" stroke="black" points="244.749,-558.439 244.594,-569.033 251.321,-560.848 244.749,-558.439"/>
<text text-anchor="middle" x="265.5" y="-353.4" font-family="Times Roman,serif" font-size="14.00">a</text>
</g>
<!-- q5 -->
<g id="node16" class="node"><title>q5</title>
<ellipse fill="none" stroke="black" cx="270" cy="-23" rx="27" ry="18.3848"/>
<ellipse fill="none" stroke="black" cx="270" cy="-23" rx="31" ry="22.3848"/>
<text text-anchor="middle" x="270" y="-19.4" font-family="Times Roman,serif" font-size="14.00">q5</text>
</g>
<!-- q3&#45;&gt;q5 -->
<g id="edge14" class="edge"><title>q3&#45;&gt;q5</title>
<path fill="none" stroke="black" d="M235.523,-100.419C234.753,-89.5185 234.975,-75.6438 239,-64 240.705,-59.0661 243.25,-54.2461 246.162,-49.7456"/>
<polygon fill="black" stroke="black" points="249.071,-51.6952 252.088,-41.539 243.396,-47.5969 249.071,-51.6952"/>
<text text-anchor="middle" x="243.5" y="-69.4" font-family="Times Roman,serif" font-size="14.00">b</text>
</g>
<!-- q8&#45;&gt;q8 -->
<g id="edge34" class="edge"><title>q8&#45;&gt;q8</title>
<path fill="none" stroke="black" d="M133.625,-219.688C143.833,-219.688 152,-218.125 152,-215 152,-213.047 148.81,-211.704 143.925,-210.972"/>
<polygon fill="black" stroke="black" points="143.828,-207.458 133.625,-210.312 143.381,-214.444 143.828,-207.458"/>
<text text-anchor="middle" x="156.5" y="-211.4" font-family="Times Roman,serif" font-size="14.00">b</text>
</g>
<!-- q8&#45;&gt;q8 -->
<g id="edge36" class="edge"><title>q8&#45;&gt;q8</title>
<path fill="none" stroke="black" d="M126.347,-229.951C147.424,-237.224 170,-232.24 170,-215 170,-200.454 153.928,-194.633 136.245,-197.538"/>
<polygon fill="black" stroke="black" points="135.179,-194.197 126.347,-200.049 136.901,-200.982 135.179,-194.197"/>
<text text-anchor="middle" x="174.5" y="-211.4" font-family="Times Roman,serif" font-size="14.00">a</text>
</g>
<!-- q2 -->
<g id="node10" class="node"><title>q2</title>
<ellipse fill="none" stroke="black" cx="136" cy="-403" rx="27" ry="18.3848"/>
<text text-anchor="middle" x="136" y="-399.4" font-family="Times Roman,serif" font-size="14.00">q2</text>
</g>
<!-- q2&#45;&gt;q7 -->
<g id="edge10" class="edge"><title>q2&#45;&gt;q7</title>
<path fill="none" stroke="black" d="M133.309,-421.658C132.465,-432.585 132.686,-446.46 137,-458 138.86,-462.975 141.699,-467.754 144.918,-472.129"/>
<polygon fill="black" stroke="black" points="142.35,-474.516 151.42,-479.992 147.744,-470.055 142.35,-474.516"/>
<text text-anchor="middle" x="141.5" y="-445.4" font-family="Times Roman,serif" font-size="14.00">b</text>
</g>
<!-- q4 -->
<g id="node14" class="node"><title>q4</title>
<ellipse fill="none" stroke="black" cx="103" cy="-311" rx="27" ry="18.3848"/>
<text text-anchor="middle" x="103" y="-307.4" font-family="Times Roman,serif" font-size="14.00">q4</text>
</g>
<!-- q2&#45;&gt;q4 -->
<g id="edge12" class="edge"><title>q2&#45;&gt;q4</title>
<path fill="none" stroke="black" d="M129.48,-384.824C124.78,-371.719 118.348,-353.789 113.001,-338.88"/>
<polygon fill="black" stroke="black" points="116.177,-337.37 109.506,-329.138 109.588,-339.733 116.177,-337.37"/>
<text text-anchor="middle" x="126.5" y="-353.4" font-family="Times Roman,serif" font-size="14.00">a</text>
</g>
<!-- q7&#45;&gt;q2 -->
<g id="edge30" class="edge"><title>q7&#45;&gt;q2</title>
<path fill="none" stroke="black" d="M161.678,-476.824C157.12,-463.719 150.883,-445.789 145.697,-430.88"/>
<polygon fill="black" stroke="black" points="148.9,-429.434 142.309,-421.138 142.289,-431.733 148.9,-429.434"/>
<text text-anchor="middle" x="158.5" y="-445.4" font-family="Times Roman,serif" font-size="14.00">b</text>
</g>
<!-- q7&#45;&gt;q7 -->
<g id="edge32" class="edge"><title>q7&#45;&gt;q7</title>
<path fill="none" stroke="black" d="M192.074,-503.454C203.242,-504.377 213,-501.559 213,-495 213,-490.593 208.595,-487.875 202.317,-486.846"/>
<polygon fill="black" stroke="black" points="202.173,-483.34 192.074,-486.546 201.967,-490.337 202.173,-483.34"/>
<text text-anchor="middle" x="217.5" y="-491.4" font-family="Times Roman,serif" font-size="14.00">a</text>
</g>
<!-- q4&#45;&gt;q8 -->
<g id="edge18" class="edge"><title>q4&#45;&gt;q8</title>
<path fill="none" stroke="black" d="M103,-292.49C103,-279.863 103,-262.791 103,-247.885"/>
<polygon fill="black" stroke="black" points="106.5,-247.508 103,-237.508 99.5001,-247.508 106.5,-247.508"/>
<text text-anchor="middle" x="107.5" y="-261.4" font-family="Times Roman,serif" font-size="14.00">b</text>
</g>
<!-- q9 -->
<g id="node20" class="node"><title>q9</title>
<ellipse fill="none" stroke="black" cx="27" cy="-215" rx="27" ry="18.3848"/>
<text text-anchor="middle" x="27" y="-211.4" font-family="Times Roman,serif" font-size="14.00">q9</text>
</g>
<!-- q4&#45;&gt;q9 -->
<g id="edge20" class="edge"><title>q4&#45;&gt;q9</title>
<path fill="none" stroke="black" d="M90.1076,-294.715C78.0975,-279.544 60.0307,-256.723 46.3014,-239.381"/>
<polygon fill="black" stroke="black" points="48.9068,-237.033 39.9556,-231.365 43.4185,-241.378 48.9068,-237.033"/>
<text text-anchor="middle" x="76.5" y="-261.4" font-family="Times Roman,serif" font-size="14.00">a</text>
</g>
<!-- q5&#45;&gt;q6 -->
<g id="edge22" class="edge"><title>q5&#45;&gt;q6</title>
<path fill="none" stroke="black" d="M282.941,-43.4757C293.611,-62.3401 307,-91.493 307,-119 307,-495 307,-495 307,-495 307,-524.634 283.713,-550.69 264.001,-567.436"/>
<polygon fill="black" stroke="black" points="261.696,-564.8 256.128,-573.813 266.102,-570.239 261.696,-564.8"/>
<text text-anchor="middle" x="311.5" y="-307.4" font-family="Times Roman,serif" font-size="14.00">b</text>
</g>
<!-- q5&#45;&gt;q3 -->
<g id="edge24" class="edge"><title>q5&#45;&gt;q3</title>
<path fill="none" stroke="black" d="M262.66,-45.0206C258.071,-58.7856 252.123,-76.6302 247.218,-91.3448"/>
<polygon fill="black" stroke="black" points="243.861,-90.3495 244.019,-100.943 250.502,-92.5631 243.861,-90.3495"/>
<text text-anchor="middle" x="259.5" y="-69.4" font-family="Times Roman,serif" font-size="14.00">a</text>
</g>
<!-- q9&#45;&gt;q0 -->
<g id="edge38" class="edge"><title>q9&#45;&gt;q0</title>
<path fill="none" stroke="black" d="M27.9328,-233.758C28.8134,-253.105 30,-284.154 30,-311 30,-587 30,-587 30,-587 30,-614.45 48.972,-640.119 65.5795,-657.331"/>
<polygon fill="black" stroke="black" points="63.3903,-660.088 72.9669,-664.62 68.3067,-655.105 63.3903,-660.088"/>
<text text-anchor="middle" x="34.5" y="-445.4" font-family="Times Roman,serif" font-size="14.00">b</text>
</g>
<!-- q9&#45;&gt;q3 -->
<g id="edge40" class="edge"><title>q9&#45;&gt;q3</title>
<path fill="none" stroke="black" d="M46.4394,-201.714C51.7057,-198.356 57.4794,-194.887 63,-192 110.595,-167.109 168.608,-144.293 204.425,-131.018"/>
<polygon fill="black" stroke="black" points="205.732,-134.267 213.912,-127.533 203.318,-127.696 205.732,-134.267"/>
<text text-anchor="middle" x="142.5" y="-161.4" font-family="Times Roman,serif" font-size="14.00">a</text>
</g>
</g>
</svg>
