<?xml version="1.0" encoding="UTF-8" standalone="no"?>
<!DOCTYPE svg PUBLIC "-//W3C//DTD SVG 1.1//EN"
 "http://www.w3.org/Graphics/SVG/1.1/DTD/svg11.dtd">
<!-- Generated by graphviz version 2.26.3 (20100126.1600)
 -->
<!-- Title: G Pages: 1 -->
<svg width="248pt" height="790pt"
 viewBox="0.00 0.00 248.00 790.00" xmlns="http://www.w3.org/2000/svg" xmlns:xlink="http://www.w3.org/1999/xlink">
<g id="graph1" class="graph" transform="scale(1 1) rotate(0) translate(4 786)">
<title>G</title>
<polygon fill="white" stroke="white" points="-4,5 -4,-786 245,-786 245,5 -4,5"/>
<!-- q0 -->
<g id="node1" class="node"><title>q0</title>
<ellipse fill="none" stroke="black" cx="162" cy="-671" rx="27" ry="18.3848"/>
<text text-anchor="middle" x="162" y="-667.4" font-family="Times Roman,serif" font-size="14.00">q0</text>
</g>
<!-- q3 -->
<g id="node3" class="node"><title>q3</title>
<ellipse fill="none" stroke="black" cx="104" cy="-579" rx="27" ry="18.3848"/>
<text text-anchor="middle" x="104" y="-575.4" font-family="Times Roman,serif" font-size="14.00">q3</text>
</g>
<!-- q0&#45;&gt;q3 -->
<g id="edge2" class="edge"><title>q0&#45;&gt;q3</title>
<path fill="none" stroke="black" d="M151.091,-653.696C142.422,-639.946 130.164,-620.501 120.327,-604.898"/>
<polygon fill="black" stroke="black" points="123.154,-602.82 114.86,-596.227 117.233,-606.553 123.154,-602.82"/>
<text text-anchor="middle" x="143.5" y="-621.4" font-family="Times Roman,serif" font-size="14.00">b</text>
</g>
<!-- q10 -->
<g id="node5" class="node"><title>q10</title>
<ellipse fill="none" stroke="black" cx="156" cy="-487" rx="29.9071" ry="18.3848"/>
<text text-anchor="middle" x="156" y="-483.4" font-family="Times Roman,serif" font-size="14.00">q10</text>
</g>
<!-- q0&#45;&gt;q10 -->
<g id="edge4" class="edge"><title>q0&#45;&gt;q10</title>
<path fill="none" stroke="black" d="M161.392,-652.345C160.345,-620.247 158.196,-554.349 156.95,-516.148"/>
<polygon fill="black" stroke="black" points="160.434,-515.585 156.61,-505.705 153.438,-515.814 160.434,-515.585"/>
<text text-anchor="middle" x="164.5" y="-575.4" font-family="Times Roman,serif" font-size="14.00">a</text>
</g>
<!-- q3&#45;&gt;q10 -->
<g id="edge10" class="edge"><title>q3&#45;&gt;q10</title>
<path fill="none" stroke="black" d="M94.5738,-561.4C89.8855,-550.08 86.4694,-535.409 93,-524 99.0433,-513.442 109.401,-505.602 119.991,-499.925"/>
<polygon fill="black" stroke="black" points="121.755,-502.961 129.256,-495.479 118.726,-496.65 121.755,-502.961"/>
<text text-anchor="middle" x="97.5" y="-529.4" font-family="Times Roman,serif" font-size="14.00">b</text>
</g>
<!-- q2 -->
<g id="node6" class="node"><title>q2</title>
<ellipse fill="none" stroke="black" cx="71" cy="-395" rx="27" ry="18.3848"/>
<text text-anchor="middle" x="71" y="-391.4" font-family="Times Roman,serif" font-size="14.00">q2</text>
</g>
<!-- q3&#45;&gt;q2 -->
<g id="edge12" class="edge"><title>q3&#45;&gt;q2</title>
<path fill="none" stroke="black" d="M93.8948,-561.437C90.8774,-555.448 87.8769,-548.596 86,-542 74.6816,-502.225 71.6697,-454.254 70.9912,-424.181"/>
<polygon fill="black" stroke="black" points="74.4875,-423.905 70.8357,-413.959 67.4883,-424.011 74.4875,-423.905"/>
<text text-anchor="middle" x="82.5" y="-483.4" font-family="Times Roman,serif" font-size="14.00">a</text>
</g>
<!-- q10&#45;&gt;q3 -->
<g id="edge34" class="edge"><title>q10&#45;&gt;q3</title>
<path fill="none" stroke="black" d="M140.542,-503.058C135.13,-509.258 129.329,-516.629 125,-524 120.073,-532.388 115.907,-542.142 112.617,-551.086"/>
<polygon fill="black" stroke="black" points="109.244,-550.13 109.281,-560.724 115.859,-552.419 109.244,-550.13"/>
<text text-anchor="middle" x="129.5" y="-529.4" font-family="Times Roman,serif" font-size="14.00">b</text>
</g>
<!-- q10&#45;&gt;q3 -->
<g id="edge38" class="edge"><title>q10&#45;&gt;q3</title>
<path fill="none" stroke="black" d="M150.266,-505.224C146.422,-516.252 140.821,-530.382 134,-542 131.346,-546.52 128.168,-551.069 124.888,-555.356"/>
<polygon fill="black" stroke="black" points="122.114,-553.22 118.564,-563.202 127.564,-557.613 122.114,-553.22"/>
<text text-anchor="middle" x="147.5" y="-529.4" font-family="Times Roman,serif" font-size="14.00">b</text>
</g>
<!-- q10&#45;&gt;q10 -->
<g id="edge36" class="edge"><title>q10&#45;&gt;q10</title>
<path fill="none" stroke="black" d="M185.53,-491.311C195.748,-491.357 204,-489.92 204,-487 204,-485.175 200.777,-483.929 195.864,-483.263"/>
<polygon fill="black" stroke="black" points="195.709,-479.749 185.53,-482.689 195.32,-486.738 195.709,-479.749"/>
<text text-anchor="middle" x="208.5" y="-483.4" font-family="Times Roman,serif" font-size="14.00">a</text>
</g>
<!-- q10&#45;&gt;q10 -->
<g id="edge40" class="edge"><title>q10&#45;&gt;q10</title>
<path fill="none" stroke="black" d="M176.611,-500.767C198.017,-509.123 222,-504.534 222,-487 222,-472.069 204.609,-466.524 186.227,-470.368"/>
<polygon fill="black" stroke="black" points="185.195,-467.023 176.611,-473.233 187.194,-473.731 185.195,-467.023"/>
<text text-anchor="middle" x="226.5" y="-483.4" font-family="Times Roman,serif" font-size="14.00">a</text>
</g>
<!-- q10&#45;&gt;q2 -->
<g id="edge44" class="edge"><title>q10&#45;&gt;q2</title>
<path fill="none" stroke="black" d="M140.804,-470.552C127.344,-455.984 107.547,-434.557 92.4709,-418.239"/>
<polygon fill="black" stroke="black" points="94.8543,-415.661 85.4974,-410.691 89.7128,-420.411 94.8543,-415.661"/>
<text text-anchor="middle" x="126.5" y="-437.4" font-family="Times Roman,serif" font-size="14.00">a</text>
</g>
<!-- q8 -->
<g id="node14" class="node"><title>q8</title>
<ellipse fill="none" stroke="black" cx="101" cy="-203" rx="27" ry="18.3848"/>
<text text-anchor="middle" x="101" y="-199.4" font-family="Times Roman,serif" font-size="14.00">q8</text>
</g>
<!-- q10&#45;&gt;q8 -->
<g id="edge42" class="edge"><title>q10&#45;&gt;q8</title>
<path fill="none" stroke="black" d="M156.588,-468.243C157.267,-430.888 156.355,-344.869 137,-276 132.402,-259.641 124.181,-242.544 116.754,-229.011"/>
<polygon fill="black" stroke="black" points="119.772,-227.237 111.794,-220.265 113.683,-230.69 119.772,-227.237"/>
<text text-anchor="middle" x="156.5" y="-345.4" font-family="Times Roman,serif" font-size="14.00">b</text>
</g>
<!-- q4 -->
<g id="node8" class="node"><title>q4</title>
<ellipse fill="none" stroke="black" cx="97" cy="-299" rx="27" ry="18.3848"/>
<ellipse fill="none" stroke="black" cx="97" cy="-299" rx="31" ry="22.3848"/>
<text text-anchor="middle" x="97" y="-295.4" font-family="Times Roman,serif" font-size="14.00">q4</text>
</g>
<!-- q2&#45;&gt;q4 -->
<g id="edge6" class="edge"><title>q2&#45;&gt;q4</title>
<path fill="none" stroke="black" d="M68.941,-376.304C68.338,-365.488 68.588,-351.738 72,-340 73.2042,-335.857 74.9431,-331.714 76.9514,-327.739"/>
<polygon fill="black" stroke="black" points="80.1039,-329.276 82.0014,-318.852 74.0178,-325.818 80.1039,-329.276"/>
<text text-anchor="middle" x="76.5" y="-345.4" font-family="Times Roman,serif" font-size="14.00">b</text>
</g>
<!-- q9 -->
<g id="node10" class="node"><title>q9</title>
<ellipse fill="none" stroke="black" cx="38" cy="-111" rx="27" ry="18.3848"/>
<text text-anchor="middle" x="38" y="-107.4" font-family="Times Roman,serif" font-size="14.00">q9</text>
</g>
<!-- q2&#45;&gt;q9 -->
<g id="edge8" class="edge"><title>q2&#45;&gt;q9</title>
<path fill="none" stroke="black" d="M66.9194,-376.483C63.8072,-361.777 59.6224,-340.657 57,-322 47.8831,-257.137 42.2559,-180.409 39.6751,-139.713"/>
<polygon fill="black" stroke="black" points="43.1666,-139.465 39.0559,-129.7 36.1799,-139.897 43.1666,-139.465"/>
<text text-anchor="middle" x="54.5" y="-245.4" font-family="Times Roman,serif" font-size="14.00">a</text>
</g>
<!-- q4&#45;&gt;q2 -->
<g id="edge16" class="edge"><title>q4&#45;&gt;q2</title>
<path fill="none" stroke="black" d="M90.9983,-321.16C87.344,-334.653 82.6386,-352.027 78.7101,-366.532"/>
<polygon fill="black" stroke="black" points="75.249,-365.923 76.0131,-376.49 82.0056,-367.753 75.249,-365.923"/>
<text text-anchor="middle" x="90.5" y="-345.4" font-family="Times Roman,serif" font-size="14.00">a</text>
</g>
<!-- q4&#45;&gt;q8 -->
<g id="edge14" class="edge"><title>q4&#45;&gt;q8</title>
<path fill="none" stroke="black" d="M97.9479,-276.249C98.5002,-262.994 99.2022,-246.148 99.7936,-231.954"/>
<polygon fill="black" stroke="black" points="103.301,-231.857 100.22,-221.72 96.3066,-231.565 103.301,-231.857"/>
<text text-anchor="middle" x="104.5" y="-245.4" font-family="Times Roman,serif" font-size="14.00">b</text>
</g>
<!-- q9&#45;&gt;q3 -->
<g id="edge30" class="edge"><title>q9&#45;&gt;q3</title>
<path fill="none" stroke="black" d="M26.3923,-127.779C15.2172,-145.599 0,-175.005 0,-203 0,-487 0,-487 0,-487 0,-525.393 40.2519,-551.623 70.6725,-565.964"/>
<polygon fill="black" stroke="black" points="69.5831,-569.311 80.1403,-570.203 72.4435,-562.922 69.5831,-569.311"/>
<text text-anchor="middle" x="4.5" y="-345.4" font-family="Times Roman,serif" font-size="14.00">b</text>
</g>
<!-- q5 -->
<g id="node16" class="node"><title>q5</title>
<ellipse fill="none" stroke="black" cx="123" cy="-19" rx="27" ry="18.3848"/>
<text text-anchor="middle" x="123" y="-15.4" font-family="Times Roman,serif" font-size="14.00">q5</text>
</g>
<!-- q9&#45;&gt;q5 -->
<g id="edge32" class="edge"><title>q9&#45;&gt;q5</title>
<path fill="none" stroke="black" d="M48.8683,-93.778C56.3869,-82.4782 66.9877,-67.6861 78,-56 83.4365,-50.2309 89.762,-44.5263 95.9226,-39.3874"/>
<polygon fill="black" stroke="black" points="98.5335,-41.7783 104.122,-32.7775 94.1403,-36.3285 98.5335,-41.7783"/>
<text text-anchor="middle" x="82.5" y="-61.4" font-family="Times Roman,serif" font-size="14.00">a</text>
</g>
<!-- q8&#45;&gt;q9 -->
<g id="edge28" class="edge"><title>q8&#45;&gt;q9</title>
<path fill="none" stroke="black" d="M89.4448,-186.126C79.8537,-172.12 66.0719,-151.994 55.1864,-136.098"/>
<polygon fill="black" stroke="black" points="58.0198,-134.041 49.4819,-127.767 52.2442,-137.996 58.0198,-134.041"/>
<text text-anchor="middle" x="80.5" y="-153.4" font-family="Times Roman,serif" font-size="14.00">a</text>
</g>
<!-- q8&#45;&gt;q5 -->
<g id="edge26" class="edge"><title>q8&#45;&gt;q5</title>
<path fill="none" stroke="black" d="M101.379,-184.461C102.012,-162.359 103.679,-124.345 108,-92 109.974,-77.2258 113.209,-60.9655 116.17,-47.5485"/>
<polygon fill="black" stroke="black" points="119.655,-48.0075 118.457,-37.4806 112.829,-46.4569 119.655,-48.0075"/>
<text text-anchor="middle" x="112.5" y="-107.4" font-family="Times Roman,serif" font-size="14.00">b</text>
</g>
<!-- q5&#45;&gt;q10 -->
<g id="edge20" class="edge"><title>q5&#45;&gt;q10</title>
<path fill="none" stroke="black" d="M142.401,-32.1239C163.423,-48.0762 194,-77.1051 194,-111 194,-395 194,-395 194,-395 194,-418.693 183.101,-443.395 172.977,-461.23"/>
<polygon fill="black" stroke="black" points="169.929,-459.508 167.815,-469.889 175.942,-463.092 169.929,-459.508"/>
<text text-anchor="middle" x="198.5" y="-245.4" font-family="Times Roman,serif" font-size="14.00">a</text>
</g>
<!-- q5&#45;&gt;q8 -->
<g id="edge18" class="edge"><title>q5&#45;&gt;q8</title>
<path fill="none" stroke="black" d="M123.803,-37.8035C124.598,-65.9941 124.555,-120.737 115,-166 114.319,-169.226 113.401,-172.542 112.359,-175.803"/>
<polygon fill="black" stroke="black" points="109.047,-174.672 108.974,-185.267 115.638,-177.03 109.047,-174.672"/>
<text text-anchor="middle" x="128.5" y="-107.4" font-family="Times Roman,serif" font-size="14.00">b</text>
</g>
<!-- q6 -->
<g id="node19" class="node"><title>q6</title>
<ellipse fill="none" stroke="black" cx="197" cy="-763" rx="27" ry="18.3848"/>
<text text-anchor="middle" x="197" y="-759.4" font-family="Times Roman,serif" font-size="14.00">q6</text>
</g>
<!-- q6&#45;&gt;q0 -->
<g id="edge22" class="edge"><title>q6&#45;&gt;q0</title>
<path fill="none" stroke="black" d="M190.085,-744.824C185.1,-731.719 178.278,-713.789 172.607,-698.88"/>
<polygon fill="black" stroke="black" points="175.728,-697.24 168.901,-689.138 169.185,-699.729 175.728,-697.24"/>
<text text-anchor="middle" x="186.5" y="-713.4" font-family="Times Roman,serif" font-size="14.00">b</text>
</g>
<!-- q6&#45;&gt;q10 -->
<g id="edge24" class="edge"><title>q6&#45;&gt;q10</title>
<path fill="none" stroke="black" d="M197.325,-744.398C197.566,-729.646 197.873,-708.505 198,-690 198.116,-673.112 199.689,-668.804 198,-652 192.193,-594.241 189.392,-579.384 172,-524 170.994,-520.795 169.802,-517.491 168.53,-514.238"/>
<polygon fill="black" stroke="black" points="171.664,-512.659 164.579,-504.781 165.205,-515.358 171.664,-512.659"/>
<text text-anchor="middle" x="200.5" y="-621.4" font-family="Times Roman,serif" font-size="14.00">a</text>
</g>
</g>
</svg>
