<?xml version="1.0" encoding="UTF-8" standalone="no"?>
<!DOCTYPE svg PUBLIC "-//W3C//DTD SVG 1.1//EN"
 "http://www.w3.org/Graphics/SVG/1.1/DTD/svg11.dtd">
<!-- Generated by graphviz version 2.26.3 (20100126.1600)
 -->
<!-- Title: G Pages: 1 -->
<svg width="251pt" height="322pt"
 viewBox="0.00 0.00 251.00 322.00" xmlns="http://www.w3.org/2000/svg" xmlns:xlink="http://www.w3.org/1999/xlink">
<g id="graph1" class="graph" transform="scale(1 1) rotate(0) translate(4 318)">
<title>G</title>
<polygon fill="white" stroke="white" points="-4,5 -4,-318 248,-318 248,5 -4,5"/>
<!-- q2 -->
<g id="node1" class="node"><title>q2</title>
<ellipse fill="none" stroke="black" cx="90" cy="-295" rx="27" ry="18.3848"/>
<text text-anchor="middle" x="90" y="-291.4" font-family="Times Roman,serif" font-size="14.00">q2</text>
</g>
<!-- q3 -->
<g id="node3" class="node"><title>q3</title>
<ellipse fill="none" stroke="black" cx="27" cy="-203" rx="27" ry="18.3848"/>
<text text-anchor="middle" x="27" y="-199.4" font-family="Times Roman,serif" font-size="14.00">q3</text>
</g>
<!-- q2&#45;&gt;q3 -->
<g id="edge2" class="edge"><title>q2&#45;&gt;q3</title>
<path fill="none" stroke="black" d="M66.5719,-285.715C54.5026,-279.674 40.7315,-270.558 33,-258 28.2224,-250.24 26.1619,-240.677 25.4608,-231.714"/>
<polygon fill="black" stroke="black" points="28.9566,-231.511 25.1808,-221.612 21.9593,-231.705 28.9566,-231.511"/>
<text text-anchor="middle" x="37.5" y="-245.4" font-family="Times Roman,serif" font-size="14.00">b</text>
</g>
<!-- q1 -->
<g id="node5" class="node"><title>q1</title>
<ellipse fill="none" stroke="black" cx="103" cy="-111" rx="27" ry="18.3848"/>
<text text-anchor="middle" x="103" y="-107.4" font-family="Times Roman,serif" font-size="14.00">q1</text>
</g>
<!-- q2&#45;&gt;q1 -->
<g id="edge4" class="edge"><title>q2&#45;&gt;q1</title>
<path fill="none" stroke="black" d="M91.3181,-276.345C93.5858,-244.247 98.2417,-178.349 100.941,-140.148"/>
<polygon fill="black" stroke="black" points="104.465,-139.927 101.678,-129.705 97.4823,-139.433 104.465,-139.927"/>
<text text-anchor="middle" x="101.5" y="-199.4" font-family="Times Roman,serif" font-size="14.00">a</text>
</g>
<!-- q3&#45;&gt;q2 -->
<g id="edge16" class="edge"><title>q3&#45;&gt;q2</title>
<path fill="none" stroke="black" d="M38.4819,-219.767C48.0516,-233.742 61.8301,-253.863 72.7303,-269.781"/>
<polygon fill="black" stroke="black" points="69.9069,-271.852 78.4448,-278.126 75.6825,-267.897 69.9069,-271.852"/>
<text text-anchor="middle" x="68.5" y="-245.4" font-family="Times Roman,serif" font-size="14.00">a</text>
</g>
<!-- q3&#45;&gt;q1 -->
<g id="edge14" class="edge"><title>q3&#45;&gt;q1</title>
<path fill="none" stroke="black" d="M38.3066,-186.169C46.0102,-175.034 56.6526,-160.279 67,-148 70.9959,-143.258 75.4614,-138.377 79.8509,-133.778"/>
<polygon fill="black" stroke="black" points="82.5915,-135.981 87.0698,-126.379 77.5812,-131.092 82.5915,-135.981"/>
<text text-anchor="middle" x="71.5" y="-153.4" font-family="Times Roman,serif" font-size="14.00">b</text>
</g>
<!-- q1&#45;&gt;q2 -->
<g id="edge6" class="edge"><title>q1&#45;&gt;q2</title>
<path fill="none" stroke="black" d="M108.956,-129.249C110.61,-135.164 112.177,-141.8 113,-148 119.443,-196.536 119.441,-210.645 107,-258 106.111,-261.384 104.93,-264.843 103.603,-268.221"/>
<polygon fill="black" stroke="black" points="100.39,-266.834 99.6003,-277.399 106.807,-269.632 100.39,-266.834"/>
<text text-anchor="middle" x="121.5" y="-199.4" font-family="Times Roman,serif" font-size="14.00">b</text>
</g>
<!-- q4 -->
<g id="node8" class="node"><title>q4</title>
<ellipse fill="none" stroke="black" cx="145" cy="-19" rx="27" ry="18.3848"/>
<text text-anchor="middle" x="145" y="-15.4" font-family="Times Roman,serif" font-size="14.00">q4</text>
</g>
<!-- q1&#45;&gt;q4 -->
<g id="edge8" class="edge"><title>q1&#45;&gt;q4</title>
<path fill="none" stroke="black" d="M111.098,-93.2615C117.199,-79.8977 125.672,-61.3381 132.621,-46.1166"/>
<polygon fill="black" stroke="black" points="135.958,-47.2345 136.927,-36.6841 129.59,-44.3274 135.958,-47.2345"/>
<text text-anchor="middle" x="131.5" y="-61.4" font-family="Times Roman,serif" font-size="14.00">a</text>
</g>
<!-- q4&#45;&gt;q2 -->
<g id="edge10" class="edge"><title>q4&#45;&gt;q2</title>
<path fill="none" stroke="black" d="M147.615,-37.5872C152.62,-79.4589 160.011,-183.332 123,-258 120.468,-263.109 117.036,-268.052 113.34,-272.572"/>
<polygon fill="black" stroke="black" points="110.583,-270.405 106.539,-280.197 115.807,-275.064 110.583,-270.405"/>
<text text-anchor="middle" x="154.5" y="-153.4" font-family="Times Roman,serif" font-size="14.00">b</text>
</g>
<!-- q4&#45;&gt;q4 -->
<g id="edge12" class="edge"><title>q4&#45;&gt;q4</title>
<path fill="none" stroke="black" d="M169.074,-27.4544C180.242,-28.3767 190,-25.5586 190,-19 190,-14.5934 185.595,-11.8754 179.317,-10.8458"/>
<polygon fill="black" stroke="black" points="179.173,-7.34018 169.074,-10.5456 178.967,-14.3372 179.173,-7.34018"/>
<text text-anchor="middle" x="194.5" y="-15.4" font-family="Times Roman,serif" font-size="14.00">a</text>
</g>
<!-- q0 -->
<g id="node13" class="node"><title>q0</title>
<ellipse fill="none" stroke="black" cx="162" cy="-295" rx="27" ry="18.3848"/>
<text text-anchor="middle" x="162" y="-291.4" font-family="Times Roman,serif" font-size="14.00">q0</text>
</g>
<!-- q0&#45;&gt;q0 -->
<g id="edge18" class="edge"><title>q0&#45;&gt;q0</title>
<path fill="none" stroke="black" d="M188.347,-299.296C198.533,-299.487 207,-298.055 207,-295 207,-293.043 203.525,-291.752 198.35,-291.127"/>
<polygon fill="black" stroke="black" points="198.486,-287.63 188.347,-290.704 198.19,-294.624 198.486,-287.63"/>
<text text-anchor="middle" x="211.5" y="-291.4" font-family="Times Roman,serif" font-size="14.00">b</text>
</g>
<!-- q0&#45;&gt;q0 -->
<g id="edge20" class="edge"><title>q0&#45;&gt;q0</title>
<path fill="none" stroke="black" d="M180.703,-308.359C201.375,-317.266 225,-312.812 225,-295 225,-279.971 208.181,-274.452 190.508,-278.444"/>
<polygon fill="black" stroke="black" points="189.126,-275.213 180.703,-281.641 191.296,-281.869 189.126,-275.213"/>
<text text-anchor="middle" x="229.5" y="-291.4" font-family="Times Roman,serif" font-size="14.00">a</text>
</g>
</g>
</svg>
