<?xml version="1.0" encoding="UTF-8" standalone="no"?>
<!DOCTYPE svg PUBLIC "-//W3C//DTD SVG 1.1//EN"
 "http://www.w3.org/Graphics/SVG/1.1/DTD/svg11.dtd">
<!-- Generated by graphviz version 2.26.3 (20100126.1600)
 -->
<!-- Title: G Pages: 1 -->
<svg width="338pt" height="698pt"
 viewBox="0.00 0.00 338.00 698.00" xmlns="http://www.w3.org/2000/svg" xmlns:xlink="http://www.w3.org/1999/xlink">
<g id="graph1" class="graph" transform="scale(1 1) rotate(0) translate(4 694)">
<title>G</title>
<polygon fill="white" stroke="white" points="-4,5 -4,-694 335,-694 335,5 -4,5"/>
<!-- q0 -->
<g id="node1" class="node"><title>q0</title>
<ellipse fill="none" stroke="black" cx="117" cy="-671" rx="27" ry="18.3848"/>
<text text-anchor="middle" x="117" y="-667.4" font-family="Times Roman,serif" font-size="14.00">q0</text>
</g>
<!-- q3 -->
<g id="node3" class="node"><title>q3</title>
<ellipse fill="none" stroke="black" cx="198" cy="-579" rx="27" ry="18.3848"/>
<text text-anchor="middle" x="198" y="-575.4" font-family="Times Roman,serif" font-size="14.00">q3</text>
</g>
<!-- q0&#45;&gt;q3 -->
<g id="edge2" class="edge"><title>q0&#45;&gt;q3</title>
<path fill="none" stroke="black" d="M131.109,-654.975C143.885,-640.463 162.868,-618.903 177.351,-602.453"/>
<polygon fill="black" stroke="black" points="180.071,-604.66 184.053,-594.842 174.817,-600.034 180.071,-604.66"/>
<text text-anchor="middle" x="168.5" y="-621.4" font-family="Times Roman,serif" font-size="14.00">b</text>
</g>
<!-- q10 -->
<g id="node5" class="node"><title>q10</title>
<ellipse fill="none" stroke="black" cx="150" cy="-487" rx="29.9071" ry="18.3848"/>
<text text-anchor="middle" x="150" y="-483.4" font-family="Times Roman,serif" font-size="14.00">q10</text>
</g>
<!-- q0&#45;&gt;q10 -->
<g id="edge4" class="edge"><title>q0&#45;&gt;q10</title>
<path fill="none" stroke="black" d="M119.893,-652.388C124.299,-624.441 133.119,-570.007 142,-524 142.549,-521.157 143.146,-518.196 143.758,-515.243"/>
<polygon fill="black" stroke="black" points="147.192,-515.92 145.85,-505.411 140.345,-514.463 147.192,-515.92"/>
<text text-anchor="middle" x="139.5" y="-575.4" font-family="Times Roman,serif" font-size="14.00">a</text>
</g>
<!-- q3&#45;&gt;q10 -->
<g id="edge10" class="edge"><title>q3&#45;&gt;q10</title>
<path fill="none" stroke="black" d="M176.013,-567.586C166.512,-561.397 156.359,-552.789 151,-542 147.043,-534.034 145.833,-524.585 145.895,-515.786"/>
<polygon fill="black" stroke="black" points="149.405,-515.708 146.502,-505.519 142.417,-515.295 149.405,-515.708"/>
<text text-anchor="middle" x="155.5" y="-529.4" font-family="Times Roman,serif" font-size="14.00">b</text>
</g>
<!-- q2 -->
<g id="node6" class="node"><title>q2</title>
<ellipse fill="none" stroke="black" cx="220" cy="-119" rx="27" ry="18.3848"/>
<text text-anchor="middle" x="220" y="-115.4" font-family="Times Roman,serif" font-size="14.00">q2</text>
</g>
<!-- q3&#45;&gt;q2 -->
<g id="edge12" class="edge"><title>q3&#45;&gt;q2</title>
<path fill="none" stroke="black" d="M223.486,-572.366C259.513,-561.271 321,-535.267 321,-487 321,-487 321,-487 321,-211 321,-173.439 282.351,-147.143 252.869,-132.549"/>
<polygon fill="black" stroke="black" points="254.218,-129.315 243.68,-128.222 251.236,-135.648 254.218,-129.315"/>
<text text-anchor="middle" x="325.5" y="-345.4" font-family="Times Roman,serif" font-size="14.00">a</text>
</g>
<!-- q10&#45;&gt;q3 -->
<g id="edge34" class="edge"><title>q10&#45;&gt;q3</title>
<path fill="none" stroke="black" d="M159.226,-504.684C166.258,-518.161 176.058,-536.945 184.046,-552.256"/>
<polygon fill="black" stroke="black" points="181.016,-554.015 188.745,-561.261 187.222,-550.777 181.016,-554.015"/>
<text text-anchor="middle" x="182.5" y="-529.4" font-family="Times Roman,serif" font-size="14.00">b</text>
</g>
<!-- q10&#45;&gt;q3 -->
<g id="edge38" class="edge"><title>q10&#45;&gt;q3</title>
<path fill="none" stroke="black" d="M170.456,-500.599C178.157,-506.804 186.203,-514.823 191,-524 195.198,-532.032 197.255,-541.596 198.178,-550.478"/>
<polygon fill="black" stroke="black" points="194.685,-550.697 198.801,-560.46 201.671,-550.261 194.685,-550.697"/>
<text text-anchor="middle" x="200.5" y="-529.4" font-family="Times Roman,serif" font-size="14.00">b</text>
</g>
<!-- q10&#45;&gt;q10 -->
<g id="edge36" class="edge"><title>q10&#45;&gt;q10</title>
<path fill="none" stroke="black" d="M179.53,-491.311C189.748,-491.357 198,-489.92 198,-487 198,-485.175 194.777,-483.929 189.864,-483.263"/>
<polygon fill="black" stroke="black" points="189.709,-479.749 179.53,-482.689 189.32,-486.738 189.709,-479.749"/>
<text text-anchor="middle" x="202.5" y="-483.4" font-family="Times Roman,serif" font-size="14.00">a</text>
</g>
<!-- q10&#45;&gt;q10 -->
<g id="edge40" class="edge"><title>q10&#45;&gt;q10</title>
<path fill="none" stroke="black" d="M170.611,-500.767C192.017,-509.123 216,-504.534 216,-487 216,-472.069 198.609,-466.524 180.227,-470.368"/>
<polygon fill="black" stroke="black" points="179.195,-467.023 170.611,-473.233 181.194,-473.731 179.195,-467.023"/>
<text text-anchor="middle" x="220.5" y="-483.4" font-family="Times Roman,serif" font-size="14.00">a</text>
</g>
<!-- q10&#45;&gt;q2 -->
<g id="edge44" class="edge"><title>q10&#45;&gt;q2</title>
<path fill="none" stroke="black" d="M165.042,-470.816C189.773,-442.974 238.067,-383.092 256,-322 274.122,-260.261 249.042,-185.131 232.497,-145.859"/>
<polygon fill="black" stroke="black" points="235.703,-144.454 228.506,-136.678 229.283,-147.244 235.703,-144.454"/>
<text text-anchor="middle" x="266.5" y="-299.4" font-family="Times Roman,serif" font-size="14.00">a</text>
</g>
<!-- q8 -->
<g id="node14" class="node"><title>q8</title>
<ellipse fill="none" stroke="black" cx="150" cy="-395" rx="27" ry="18.3848"/>
<text text-anchor="middle" x="150" y="-391.4" font-family="Times Roman,serif" font-size="14.00">q8</text>
</g>
<!-- q10&#45;&gt;q8 -->
<g id="edge42" class="edge"><title>q10&#45;&gt;q8</title>
<path fill="none" stroke="black" d="M150,-468.382C150,-455.538 150,-438.216 150,-423.627"/>
<polygon fill="black" stroke="black" points="153.5,-423.59 150,-413.59 146.5,-423.59 153.5,-423.59"/>
<text text-anchor="middle" x="154.5" y="-437.4" font-family="Times Roman,serif" font-size="14.00">b</text>
</g>
<!-- q4 -->
<g id="node8" class="node"><title>q4</title>
<ellipse fill="none" stroke="black" cx="188" cy="-23" rx="27" ry="18.3848"/>
<ellipse fill="none" stroke="black" cx="188" cy="-23" rx="31" ry="22.3848"/>
<text text-anchor="middle" x="188" y="-19.4" font-family="Times Roman,serif" font-size="14.00">q4</text>
</g>
<!-- q2&#45;&gt;q4 -->
<g id="edge6" class="edge"><title>q2&#45;&gt;q4</title>
<path fill="none" stroke="black" d="M203.414,-103.994C197.735,-97.8029 192.047,-90.1654 189,-82 185.944,-73.8117 184.814,-64.5286 184.666,-55.7897"/>
<polygon fill="black" stroke="black" points="188.171,-55.59 184.908,-45.5103 181.173,-55.4251 188.171,-55.59"/>
<text text-anchor="middle" x="193.5" y="-69.4" font-family="Times Roman,serif" font-size="14.00">b</text>
</g>
<!-- q9 -->
<g id="node10" class="node"><title>q9</title>
<ellipse fill="none" stroke="black" cx="220" cy="-303" rx="27" ry="18.3848"/>
<text text-anchor="middle" x="220" y="-299.4" font-family="Times Roman,serif" font-size="14.00">q9</text>
</g>
<!-- q2&#45;&gt;q9 -->
<g id="edge8" class="edge"><title>q2&#45;&gt;q9</title>
<path fill="none" stroke="black" d="M220,-137.705C220,-169.837 220,-235.739 220,-273.91"/>
<polygon fill="black" stroke="black" points="216.5,-274.344 220,-284.345 223.5,-274.345 216.5,-274.344"/>
<text text-anchor="middle" x="224.5" y="-207.4" font-family="Times Roman,serif" font-size="14.00">a</text>
</g>
<!-- q4&#45;&gt;q2 -->
<g id="edge16" class="edge"><title>q4&#45;&gt;q2</title>
<path fill="none" stroke="black" d="M195.34,-45.0206C199.929,-58.7856 205.877,-76.6302 210.782,-91.3448"/>
<polygon fill="black" stroke="black" points="207.498,-92.5631 213.981,-100.943 214.139,-90.3495 207.498,-92.5631"/>
<text text-anchor="middle" x="210.5" y="-69.4" font-family="Times Roman,serif" font-size="14.00">a</text>
</g>
<!-- q4&#45;&gt;q8 -->
<g id="edge14" class="edge"><title>q4&#45;&gt;q8</title>
<path fill="none" stroke="black" d="M161.789,-35.4052C133.67,-50.747 93,-79.725 93,-119 93,-257 93,-257 93,-257 93,-298.738 115.549,-342.565 132.282,-369.342"/>
<polygon fill="black" stroke="black" points="129.55,-371.564 137.912,-378.071 135.433,-367.77 129.55,-371.564"/>
<text text-anchor="middle" x="97.5" y="-207.4" font-family="Times Roman,serif" font-size="14.00">b</text>
</g>
<!-- q9&#45;&gt;q3 -->
<g id="edge30" class="edge"><title>q9&#45;&gt;q3</title>
<path fill="none" stroke="black" d="M229.34,-320.369C242.893,-347.592 265.702,-402.148 259,-450 255.41,-475.635 253.445,-482.316 243,-506 235.608,-522.762 224.926,-540.275 215.824,-553.945"/>
<polygon fill="black" stroke="black" points="212.853,-552.09 210.121,-562.327 218.64,-556.028 212.853,-552.09"/>
<text text-anchor="middle" x="264.5" y="-437.4" font-family="Times Roman,serif" font-size="14.00">b</text>
</g>
<!-- q11 -->
<g id="node18" class="node"><title>q11</title>
<ellipse fill="none" stroke="black" cx="153" cy="-211" rx="29.9071" ry="18.3848"/>
<text text-anchor="middle" x="153" y="-207.4" font-family="Times Roman,serif" font-size="14.00">q11</text>
</g>
<!-- q9&#45;&gt;q11 -->
<g id="edge32" class="edge"><title>q9&#45;&gt;q11</title>
<path fill="none" stroke="black" d="M207.711,-286.126C197.575,-272.207 183.037,-252.245 171.495,-236.396"/>
<polygon fill="black" stroke="black" points="174.154,-234.102 165.438,-228.079 168.496,-238.223 174.154,-234.102"/>
<text text-anchor="middle" x="196.5" y="-253.4" font-family="Times Roman,serif" font-size="14.00">a</text>
</g>
<!-- q8&#45;&gt;q9 -->
<g id="edge28" class="edge"><title>q8&#45;&gt;q9</title>
<path fill="none" stroke="black" d="M162.515,-378.552C173.298,-364.38 189.019,-343.718 201.296,-327.583"/>
<polygon fill="black" stroke="black" points="204.088,-329.693 207.358,-319.616 198.517,-325.455 204.088,-329.693"/>
<text text-anchor="middle" x="195.5" y="-345.4" font-family="Times Roman,serif" font-size="14.00">a</text>
</g>
<!-- q5 -->
<g id="node16" class="node"><title>q5</title>
<ellipse fill="none" stroke="black" cx="148" cy="-303" rx="27" ry="18.3848"/>
<text text-anchor="middle" x="148" y="-299.4" font-family="Times Roman,serif" font-size="14.00">q5</text>
</g>
<!-- q8&#45;&gt;q5 -->
<g id="edge26" class="edge"><title>q8&#45;&gt;q5</title>
<path fill="none" stroke="black" d="M149.595,-376.382C149.316,-363.538 148.939,-346.216 148.622,-331.627"/>
<polygon fill="black" stroke="black" points="152.121,-331.511 148.404,-321.59 145.122,-331.664 152.121,-331.511"/>
<text text-anchor="middle" x="153.5" y="-345.4" font-family="Times Roman,serif" font-size="14.00">b</text>
</g>
<!-- q5&#45;&gt;q10 -->
<g id="edge20" class="edge"><title>q5&#45;&gt;q10</title>
<path fill="none" stroke="black" d="M134.973,-319.234C124.569,-333.31 110.803,-354.714 105,-376 100.558,-392.294 100.394,-397.751 105,-414 109.929,-431.39 120.304,-448.704 129.851,-462.103"/>
<polygon fill="black" stroke="black" points="127.168,-464.361 135.939,-470.304 132.788,-460.188 127.168,-464.361"/>
<text text-anchor="middle" x="109.5" y="-391.4" font-family="Times Roman,serif" font-size="14.00">a</text>
</g>
<!-- q5&#45;&gt;q11 -->
<g id="edge18" class="edge"><title>q5&#45;&gt;q11</title>
<path fill="none" stroke="black" d="M149.012,-284.382C149.71,-271.538 150.651,-254.216 151.444,-239.627"/>
<polygon fill="black" stroke="black" points="154.942,-239.765 151.99,-229.59 147.952,-239.385 154.942,-239.765"/>
<text text-anchor="middle" x="154.5" y="-253.4" font-family="Times Roman,serif" font-size="14.00">b</text>
</g>
<!-- q11&#45;&gt;q2 -->
<g id="edge46" class="edge"><title>q11&#45;&gt;q2</title>
<path fill="none" stroke="black" d="M165.602,-193.696C175.837,-179.642 190.405,-159.638 201.89,-143.868"/>
<polygon fill="black" stroke="black" points="204.848,-145.751 207.906,-135.607 199.189,-141.63 204.848,-145.751"/>
<text text-anchor="middle" x="196.5" y="-161.4" font-family="Times Roman,serif" font-size="14.00">b</text>
</g>
<!-- q6 -->
<g id="node20" class="node"><title>q6</title>
<ellipse fill="none" stroke="black" cx="38" cy="-119" rx="27" ry="18.3848"/>
<text text-anchor="middle" x="38" y="-115.4" font-family="Times Roman,serif" font-size="14.00">q6</text>
</g>
<!-- q11&#45;&gt;q6 -->
<g id="edge48" class="edge"><title>q11&#45;&gt;q6</title>
<path fill="none" stroke="black" d="M134.523,-196.219C115.354,-180.883 85.2278,-156.782 63.7332,-139.587"/>
<polygon fill="black" stroke="black" points="65.6707,-136.654 55.6755,-133.14 61.2978,-142.12 65.6707,-136.654"/>
<text text-anchor="middle" x="110.5" y="-161.4" font-family="Times Roman,serif" font-size="14.00">a</text>
</g>
<!-- q6&#45;&gt;q0 -->
<g id="edge22" class="edge"><title>q6&#45;&gt;q0</title>
<path fill="none" stroke="black" d="M26.3923,-135.779C15.2172,-153.599 0,-183.005 0,-211 0,-579 0,-579 0,-579 0,-621.216 47.6504,-647.018 82.1326,-660.163"/>
<polygon fill="black" stroke="black" points="81.3062,-663.586 91.9006,-663.689 83.6832,-657.002 81.3062,-663.586"/>
<text text-anchor="middle" x="4.5" y="-391.4" font-family="Times Roman,serif" font-size="14.00">b</text>
</g>
<!-- q6&#45;&gt;q10 -->
<g id="edge24" class="edge"><title>q6&#45;&gt;q10</title>
<path fill="none" stroke="black" d="M40.5753,-137.636C42.9139,-156.192 46,-185.508 46,-211 46,-395 46,-395 46,-395 46,-432.631 84.6714,-458.578 114.852,-473.097"/>
<polygon fill="black" stroke="black" points="113.742,-476.438 124.292,-477.41 116.651,-470.071 113.742,-476.438"/>
<text text-anchor="middle" x="50.5" y="-299.4" font-family="Times Roman,serif" font-size="14.00">a</text>
</g>
</g>
</svg>
