<?xml version="1.0" encoding="UTF-8" standalone="no"?>
<!DOCTYPE svg PUBLIC "-//W3C//DTD SVG 1.1//EN"
 "http://www.w3.org/Graphics/SVG/1.1/DTD/svg11.dtd">
<!-- Generated by graphviz version 2.26.3 (20100126.1600)
 -->
<!-- Title: G Pages: 1 -->
<svg width="348pt" height="506pt"
 viewBox="0.00 0.00 348.00 506.00" xmlns="http://www.w3.org/2000/svg" xmlns:xlink="http://www.w3.org/1999/xlink">
<g id="graph1" class="graph" transform="scale(1 1) rotate(0) translate(4 502)">
<title>G</title>
<polygon fill="white" stroke="white" points="-4,5 -4,-502 345,-502 345,5 -4,5"/>
<!-- q6 -->
<g id="node1" class="node"><title>q6</title>
<ellipse fill="none" stroke="black" cx="248" cy="-479" rx="27" ry="18.3848"/>
<text text-anchor="middle" x="248" y="-475.4" font-family="Times Roman,serif" font-size="14.00">q6</text>
</g>
<!-- q5 -->
<g id="node3" class="node"><title>q5</title>
<ellipse fill="none" stroke="black" cx="248" cy="-387" rx="27" ry="18.3848"/>
<text text-anchor="middle" x="248" y="-383.4" font-family="Times Roman,serif" font-size="14.00">q5</text>
</g>
<!-- q6&#45;&gt;q5 -->
<g id="edge2" class="edge"><title>q6&#45;&gt;q5</title>
<path fill="none" stroke="black" d="M248,-460.382C248,-447.538 248,-430.216 248,-415.627"/>
<polygon fill="black" stroke="black" points="251.5,-415.59 248,-405.59 244.5,-415.59 251.5,-415.59"/>
<text text-anchor="middle" x="252.5" y="-429.4" font-family="Times Roman,serif" font-size="14.00">b</text>
</g>
<!-- q1 -->
<g id="node5" class="node"><title>q1</title>
<ellipse fill="none" stroke="black" cx="161" cy="-295" rx="27" ry="18.3848"/>
<text text-anchor="middle" x="161" y="-291.4" font-family="Times Roman,serif" font-size="14.00">q1</text>
</g>
<!-- q6&#45;&gt;q1 -->
<g id="edge4" class="edge"><title>q6&#45;&gt;q1</title>
<path fill="none" stroke="black" d="M236.313,-462.125C226.611,-447.658 212.856,-426.04 203,-406 189.516,-378.583 177.561,-345.684 169.888,-322.854"/>
<polygon fill="black" stroke="black" points="173.135,-321.525 166.673,-313.129 166.488,-323.722 173.135,-321.525"/>
<text text-anchor="middle" x="207.5" y="-383.4" font-family="Times Roman,serif" font-size="14.00">a</text>
</g>
<!-- q5&#45;&gt;q1 -->
<g id="edge8" class="edge"><title>q5&#45;&gt;q1</title>
<path fill="none" stroke="black" d="M233.242,-371.393C219.493,-356.855 198.811,-334.985 183.095,-318.365"/>
<polygon fill="black" stroke="black" points="185.245,-315.544 175.831,-310.683 180.159,-320.354 185.245,-315.544"/>
<text text-anchor="middle" x="216.5" y="-337.4" font-family="Times Roman,serif" font-size="14.00">a</text>
</g>
<!-- q2 -->
<g id="node7" class="node"><title>q2</title>
<ellipse fill="none" stroke="black" cx="313" cy="-295" rx="27" ry="18.3848"/>
<text text-anchor="middle" x="313" y="-291.4" font-family="Times Roman,serif" font-size="14.00">q2</text>
</g>
<!-- q5&#45;&gt;q2 -->
<g id="edge6" class="edge"><title>q5&#45;&gt;q2</title>
<path fill="none" stroke="black" d="M257.804,-369.741C264.289,-358.692 273.192,-344.194 282,-332 285.17,-327.612 288.713,-323.083 292.24,-318.763"/>
<polygon fill="black" stroke="black" points="295.166,-320.721 298.9,-310.806 289.798,-316.228 295.166,-320.721"/>
<text text-anchor="middle" x="286.5" y="-337.4" font-family="Times Roman,serif" font-size="14.00">b</text>
</g>
<!-- q1&#45;&gt;q1 -->
<g id="edge20" class="edge"><title>q1&#45;&gt;q1</title>
<path fill="none" stroke="black" d="M185.074,-303.454C196.242,-304.377 206,-301.559 206,-295 206,-290.593 201.595,-287.875 195.317,-286.846"/>
<polygon fill="black" stroke="black" points="195.173,-283.34 185.074,-286.546 194.967,-290.337 195.173,-283.34"/>
<text text-anchor="middle" x="210.5" y="-291.4" font-family="Times Roman,serif" font-size="14.00">a</text>
</g>
<!-- q0 -->
<g id="node15" class="node"><title>q0</title>
<ellipse fill="none" stroke="black" cx="147" cy="-203" rx="27" ry="18.3848"/>
<text text-anchor="middle" x="147" y="-199.4" font-family="Times Roman,serif" font-size="14.00">q0</text>
</g>
<!-- q1&#45;&gt;q0 -->
<g id="edge18" class="edge"><title>q1&#45;&gt;q0</title>
<path fill="none" stroke="black" d="M158.167,-276.382C156.212,-263.538 153.576,-246.216 151.356,-231.627"/>
<polygon fill="black" stroke="black" points="154.794,-230.949 149.829,-221.59 147.873,-232.003 154.794,-230.949"/>
<text text-anchor="middle" x="160.5" y="-245.4" font-family="Times Roman,serif" font-size="14.00">b</text>
</g>
<!-- q2&#45;&gt;q6 -->
<g id="edge14" class="edge"><title>q2&#45;&gt;q6</title>
<path fill="none" stroke="black" d="M315.12,-313.582C315.827,-324.359 315.827,-338.109 313,-350 303.858,-388.462 281.327,-428.471 265.364,-453.537"/>
<polygon fill="black" stroke="black" points="262.335,-451.774 259.817,-462.066 268.203,-455.591 262.335,-451.774"/>
<text text-anchor="middle" x="311.5" y="-383.4" font-family="Times Roman,serif" font-size="14.00">b</text>
</g>
<!-- q2&#45;&gt;q5 -->
<g id="edge16" class="edge"><title>q2&#45;&gt;q5</title>
<path fill="none" stroke="black" d="M308.07,-313.437C304.494,-324.677 298.892,-338.955 291,-350 286.591,-356.17 280.945,-361.976 275.204,-367.078"/>
<polygon fill="black" stroke="black" points="272.86,-364.475 267.423,-373.568 277.344,-369.85 272.86,-364.475"/>
<text text-anchor="middle" x="304.5" y="-337.4" font-family="Times Roman,serif" font-size="14.00">a</text>
</g>
<!-- q7 -->
<g id="node9" class="node"><title>q7</title>
<ellipse fill="none" stroke="black" cx="99" cy="-111" rx="27" ry="18.3848"/>
<text text-anchor="middle" x="99" y="-107.4" font-family="Times Roman,serif" font-size="14.00">q7</text>
</g>
<!-- q7&#45;&gt;q7 -->
<g id="edge10" class="edge"><title>q7&#45;&gt;q7</title>
<path fill="none" stroke="black" d="M125.347,-115.296C135.533,-115.487 144,-114.055 144,-111 144,-109.043 140.525,-107.752 135.35,-107.127"/>
<polygon fill="black" stroke="black" points="135.486,-103.63 125.347,-106.704 135.19,-110.624 135.486,-103.63"/>
<text text-anchor="middle" x="148.5" y="-107.4" font-family="Times Roman,serif" font-size="14.00">b</text>
</g>
<!-- q7&#45;&gt;q7 -->
<g id="edge12" class="edge"><title>q7&#45;&gt;q7</title>
<path fill="none" stroke="black" d="M117.703,-124.359C138.375,-133.266 162,-128.812 162,-111 162,-95.9707 145.181,-90.4521 127.508,-94.4443"/>
<polygon fill="black" stroke="black" points="126.126,-91.2135 117.703,-97.6406 128.296,-97.8688 126.126,-91.2135"/>
<text text-anchor="middle" x="166.5" y="-107.4" font-family="Times Roman,serif" font-size="14.00">a</text>
</g>
<!-- q0&#45;&gt;q7 -->
<g id="edge30" class="edge"><title>q0&#45;&gt;q7</title>
<path fill="none" stroke="black" d="M143.214,-184.437C140.5,-173.416 136.213,-159.411 130,-148 127.46,-143.336 124.278,-138.713 120.928,-134.398"/>
<polygon fill="black" stroke="black" points="123.485,-131.999 114.401,-126.547 118.102,-136.474 123.485,-131.999"/>
<text text-anchor="middle" x="142.5" y="-153.4" font-family="Times Roman,serif" font-size="14.00">b</text>
</g>
<!-- q4 -->
<g id="node17" class="node"><title>q4</title>
<ellipse fill="none" stroke="black" cx="27" cy="-111" rx="27" ry="18.3848"/>
<text text-anchor="middle" x="27" y="-107.4" font-family="Times Roman,serif" font-size="14.00">q4</text>
</g>
<!-- q0&#45;&gt;q4 -->
<g id="edge32" class="edge"><title>q0&#45;&gt;q4</title>
<path fill="none" stroke="black" d="M134.85,-186.36C125.673,-174.605 112.256,-159.042 98,-148 84.1708,-137.289 78.5129,-138.082 63,-130 61.2608,-129.094 59.4756,-128.161 57.6749,-127.218"/>
<polygon fill="black" stroke="black" points="59.1626,-124.046 48.6825,-122.491 55.9058,-130.242 59.1626,-124.046"/>
<text text-anchor="middle" x="122.5" y="-153.4" font-family="Times Roman,serif" font-size="14.00">a</text>
</g>
<!-- q4&#45;&gt;q5 -->
<g id="edge22" class="edge"><title>q4&#45;&gt;q5</title>
<path fill="none" stroke="black" d="M31.9104,-129.326C42.9393,-167.605 72.8731,-257.197 125,-314 125.057,-314.062 182.314,-348.034 218.678,-369.606"/>
<polygon fill="black" stroke="black" points="217.039,-372.703 227.425,-374.795 220.61,-366.683 217.039,-372.703"/>
<text text-anchor="middle" x="89.5" y="-245.4" font-family="Times Roman,serif" font-size="14.00">b</text>
</g>
<!-- q3 -->
<g id="node20" class="node"><title>q3</title>
<ellipse fill="none" stroke="black" cx="208" cy="-19" rx="27" ry="18.3848"/>
<text text-anchor="middle" x="208" y="-15.4" font-family="Times Roman,serif" font-size="14.00">q3</text>
</g>
<!-- q4&#45;&gt;q3 -->
<g id="edge24" class="edge"><title>q4&#45;&gt;q3</title>
<path fill="none" stroke="black" d="M48.6667,-99.4786C53.3827,-96.995 58.3518,-94.3964 63,-92 102.105,-71.8391 147.436,-49.1216 176.858,-34.462"/>
<polygon fill="black" stroke="black" points="178.431,-37.5886 185.824,-29.9991 175.312,-31.3221 178.431,-37.5886"/>
<text text-anchor="middle" x="135.5" y="-61.4" font-family="Times Roman,serif" font-size="14.00">a</text>
</g>
<!-- q3&#45;&gt;q5 -->
<g id="edge26" class="edge"><title>q3&#45;&gt;q5</title>
<path fill="none" stroke="black" d="M220.219,-35.6906C231.982,-53.4382 248,-82.7851 248,-111 248,-295 248,-295 248,-295 248,-316.13 248,-339.99 248,-358.116"/>
<polygon fill="black" stroke="black" points="244.5,-358.322 248,-368.322 251.5,-358.322 244.5,-358.322"/>
<text text-anchor="middle" x="252.5" y="-199.4" font-family="Times Roman,serif" font-size="14.00">b</text>
</g>
<!-- q3&#45;&gt;q1 -->
<g id="edge28" class="edge"><title>q3&#45;&gt;q1</title>
<path fill="none" stroke="black" d="M206.77,-37.6472C204.163,-73.6133 197.127,-154.939 183,-222 179.804,-237.172 174.926,-253.744 170.575,-267.258"/>
<polygon fill="black" stroke="black" points="167.196,-266.329 167.387,-276.923 173.844,-268.522 167.196,-266.329"/>
<text text-anchor="middle" x="199.5" y="-153.4" font-family="Times Roman,serif" font-size="14.00">a</text>
</g>
</g>
</svg>
