<?xml version="1.0" encoding="UTF-8" standalone="no"?>
<!DOCTYPE svg PUBLIC "-//W3C//DTD SVG 1.1//EN"
 "http://www.w3.org/Graphics/SVG/1.1/DTD/svg11.dtd">
<!-- Generated by graphviz version 2.26.3 (20100126.1600)
 -->
<!-- Title: G Pages: 1 -->
<svg width="273pt" height="522pt"
 viewBox="0.00 0.00 273.00 522.00" xmlns="http://www.w3.org/2000/svg" xmlns:xlink="http://www.w3.org/1999/xlink">
<g id="graph1" class="graph" transform="scale(1 1) rotate(0) translate(4 518)">
<title>G</title>
<polygon fill="white" stroke="white" points="-4,5 -4,-518 270,-518 270,5 -4,5"/>
<!-- q0 -->
<g id="node1" class="node"><title>q0</title>
<ellipse fill="none" stroke="black" cx="211" cy="-211" rx="27" ry="18.3848"/>
<text text-anchor="middle" x="211" y="-207.4" font-family="Times Roman,serif" font-size="14.00">q0</text>
</g>
<!-- q0&#45;&gt;q0 -->
<g id="edge2" class="edge"><title>q0&#45;&gt;q0</title>
<path fill="none" stroke="black" d="M235.074,-219.454C246.242,-220.377 256,-217.559 256,-211 256,-206.593 251.595,-203.875 245.317,-202.846"/>
<polygon fill="black" stroke="black" points="245.173,-199.34 235.074,-202.546 244.967,-206.337 245.173,-199.34"/>
<text text-anchor="middle" x="260.5" y="-207.4" font-family="Times Roman,serif" font-size="14.00">b</text>
</g>
<!-- q6 -->
<g id="node4" class="node"><title>q6</title>
<ellipse fill="none" stroke="black" cx="166" cy="-19" rx="27" ry="18.3848"/>
<text text-anchor="middle" x="166" y="-15.4" font-family="Times Roman,serif" font-size="14.00">q6</text>
</g>
<!-- q0&#45;&gt;q6 -->
<g id="edge4" class="edge"><title>q0&#45;&gt;q6</title>
<path fill="none" stroke="black" d="M206.685,-192.59C198.789,-158.902 181.97,-87.1373 172.618,-47.2373"/>
<polygon fill="black" stroke="black" points="175.991,-46.2915 170.302,-37.354 169.176,-47.8889 175.991,-46.2915"/>
<text text-anchor="middle" x="197.5" y="-111.4" font-family="Times Roman,serif" font-size="14.00">a</text>
</g>
<!-- q6&#45;&gt;q0 -->
<g id="edge28" class="edge"><title>q6&#45;&gt;q0</title>
<path fill="none" stroke="black" d="M178.098,-35.7257C187.626,-49.9288 200.23,-71.2548 206,-92 215.813,-127.278 215.481,-137.412 214,-174 213.895,-176.592 213.749,-179.283 213.577,-181.979"/>
<polygon fill="black" stroke="black" points="210.069,-181.964 212.821,-192.195 217.05,-182.481 210.069,-181.964"/>
<text text-anchor="middle" x="218.5" y="-111.4" font-family="Times Roman,serif" font-size="14.00">a</text>
</g>
<!-- q6&#45;&gt;q6 -->
<g id="edge26" class="edge"><title>q6&#45;&gt;q6</title>
<path fill="none" stroke="black" d="M190.074,-27.4544C201.242,-28.3767 211,-25.5586 211,-19 211,-14.5934 206.595,-11.8754 200.317,-10.8458"/>
<polygon fill="black" stroke="black" points="200.173,-7.34018 190.074,-10.5456 199.967,-14.3372 200.173,-7.34018"/>
<text text-anchor="middle" x="215.5" y="-15.4" font-family="Times Roman,serif" font-size="14.00">b</text>
</g>
<!-- q1 -->
<g id="node5" class="node"><title>q1</title>
<ellipse fill="none" stroke="black" cx="27" cy="-403" rx="27" ry="18.3848"/>
<text text-anchor="middle" x="27" y="-399.4" font-family="Times Roman,serif" font-size="14.00">q1</text>
</g>
<!-- q3 -->
<g id="node7" class="node"><title>q3</title>
<ellipse fill="none" stroke="black" cx="97" cy="-211" rx="27" ry="18.3848"/>
<text text-anchor="middle" x="97" y="-207.4" font-family="Times Roman,serif" font-size="14.00">q3</text>
</g>
<!-- q1&#45;&gt;q3 -->
<g id="edge6" class="edge"><title>q1&#45;&gt;q3</title>
<path fill="none" stroke="black" d="M24.0539,-384.458C21.0392,-360.339 18.4961,-317.349 32,-284 40.2757,-263.562 56.8961,-245.065 71.2582,-231.803"/>
<polygon fill="black" stroke="black" points="73.7763,-234.248 78.9374,-224.996 69.1327,-229.01 73.7763,-234.248"/>
<text text-anchor="middle" x="37.5" y="-303.4" font-family="Times Roman,serif" font-size="14.00">b</text>
</g>
<!-- q8 -->
<g id="node9" class="node"><title>q8</title>
<ellipse fill="none" stroke="black" cx="81" cy="-307" rx="27" ry="18.3848"/>
<ellipse fill="none" stroke="black" cx="81" cy="-307" rx="31" ry="22.3848"/>
<text text-anchor="middle" x="81" y="-303.4" font-family="Times Roman,serif" font-size="14.00">q8</text>
</g>
<!-- q1&#45;&gt;q8 -->
<g id="edge8" class="edge"><title>q1&#45;&gt;q8</title>
<path fill="none" stroke="black" d="M36.9044,-385.392C44.5402,-371.817 55.2749,-352.734 64.2408,-336.794"/>
<polygon fill="black" stroke="black" points="67.4265,-338.27 69.2786,-327.838 61.3255,-334.838 67.4265,-338.27"/>
<text text-anchor="middle" x="61.5" y="-353.4" font-family="Times Roman,serif" font-size="14.00">a</text>
</g>
<!-- q3&#45;&gt;q6 -->
<g id="edge16" class="edge"><title>q3&#45;&gt;q6</title>
<path fill="none" stroke="black" d="M86.893,-193.581C74.4036,-169.592 56.6851,-125.547 73,-92 85.7249,-65.8348 112.871,-46.2641 134.567,-34.007"/>
<polygon fill="black" stroke="black" points="136.333,-37.0311 143.474,-29.2039 133.011,-30.8699 136.333,-37.0311"/>
<text text-anchor="middle" x="77.5" y="-111.4" font-family="Times Roman,serif" font-size="14.00">a</text>
</g>
<!-- q5 -->
<g id="node16" class="node"><title>q5</title>
<ellipse fill="none" stroke="black" cx="122" cy="-115" rx="27" ry="18.3848"/>
<ellipse fill="none" stroke="black" cx="122" cy="-115" rx="31" ry="22.3848"/>
<text text-anchor="middle" x="122" y="-111.4" font-family="Times Roman,serif" font-size="14.00">q5</text>
</g>
<!-- q3&#45;&gt;q5 -->
<g id="edge14" class="edge"><title>q3&#45;&gt;q5</title>
<path fill="none" stroke="black" d="M95.0203,-192.326C94.4437,-181.519 94.6937,-167.769 98,-156 99.1545,-151.891 100.823,-147.768 102.75,-143.804"/>
<polygon fill="black" stroke="black" points="105.877,-145.38 107.598,-134.926 99.7335,-142.026 105.877,-145.38"/>
<text text-anchor="middle" x="102.5" y="-161.4" font-family="Times Roman,serif" font-size="14.00">b</text>
</g>
<!-- q8&#45;&gt;q8 -->
<g id="edge34" class="edge"><title>q8&#45;&gt;q8</title>
<path fill="none" stroke="black" d="M111.625,-311.688C121.833,-311.688 130,-310.125 130,-307 130,-305.047 126.81,-303.704 121.925,-302.972"/>
<polygon fill="black" stroke="black" points="121.828,-299.458 111.625,-302.312 121.381,-306.444 121.828,-299.458"/>
<text text-anchor="middle" x="134.5" y="-303.4" font-family="Times Roman,serif" font-size="14.00">b</text>
</g>
<!-- q8&#45;&gt;q8 -->
<g id="edge36" class="edge"><title>q8&#45;&gt;q8</title>
<path fill="none" stroke="black" d="M104.347,-321.951C125.424,-329.224 148,-324.24 148,-307 148,-292.454 131.928,-286.633 114.245,-289.538"/>
<polygon fill="black" stroke="black" points="113.179,-286.197 104.347,-292.049 114.901,-292.982 113.179,-286.197"/>
<text text-anchor="middle" x="152.5" y="-303.4" font-family="Times Roman,serif" font-size="14.00">a</text>
</g>
<!-- q2 -->
<g id="node10" class="node"><title>q2</title>
<ellipse fill="none" stroke="black" cx="139" cy="-495" rx="27" ry="18.3848"/>
<text text-anchor="middle" x="139" y="-491.4" font-family="Times Roman,serif" font-size="14.00">q2</text>
</g>
<!-- q7 -->
<g id="node12" class="node"><title>q7</title>
<ellipse fill="none" stroke="black" cx="107" cy="-403" rx="27" ry="18.3848"/>
<text text-anchor="middle" x="107" y="-399.4" font-family="Times Roman,serif" font-size="14.00">q7</text>
</g>
<!-- q2&#45;&gt;q7 -->
<g id="edge10" class="edge"><title>q2&#45;&gt;q7</title>
<path fill="none" stroke="black" d="M122.42,-479.992C116.741,-473.801 111.052,-466.164 108,-458 104.933,-449.796 103.935,-440.411 103.917,-431.745"/>
<polygon fill="black" stroke="black" points="107.418,-431.786 104.309,-421.658 100.423,-431.514 107.418,-431.786"/>
<text text-anchor="middle" x="112.5" y="-445.4" font-family="Times Roman,serif" font-size="14.00">b</text>
</g>
<!-- q4 -->
<g id="node14" class="node"><title>q4</title>
<ellipse fill="none" stroke="black" cx="206" cy="-403" rx="27" ry="18.3848"/>
<text text-anchor="middle" x="206" y="-399.4" font-family="Times Roman,serif" font-size="14.00">q4</text>
</g>
<!-- q2&#45;&gt;q4 -->
<g id="edge12" class="edge"><title>q2&#45;&gt;q4</title>
<path fill="none" stroke="black" d="M151.289,-478.126C161.489,-464.12 176.146,-443.994 187.722,-428.098"/>
<polygon fill="black" stroke="black" points="190.731,-429.911 193.789,-419.767 185.073,-425.79 190.731,-429.911"/>
<text text-anchor="middle" x="182.5" y="-445.4" font-family="Times Roman,serif" font-size="14.00">a</text>
</g>
<!-- q7&#45;&gt;q2 -->
<g id="edge30" class="edge"><title>q7&#45;&gt;q2</title>
<path fill="none" stroke="black" d="M113.309,-421.138C117.864,-434.234 124.1,-452.163 129.288,-467.077"/>
<polygon fill="black" stroke="black" points="126.087,-468.529 132.678,-476.824 132.698,-466.229 126.087,-468.529"/>
<text text-anchor="middle" x="129.5" y="-445.4" font-family="Times Roman,serif" font-size="14.00">b</text>
</g>
<!-- q7&#45;&gt;q7 -->
<g id="edge32" class="edge"><title>q7&#45;&gt;q7</title>
<path fill="none" stroke="black" d="M131.074,-411.454C142.242,-412.377 152,-409.559 152,-403 152,-398.593 147.595,-395.875 141.317,-394.846"/>
<polygon fill="black" stroke="black" points="141.173,-391.34 131.074,-394.546 140.967,-398.337 141.173,-391.34"/>
<text text-anchor="middle" x="156.5" y="-399.4" font-family="Times Roman,serif" font-size="14.00">a</text>
</g>
<!-- q4&#45;&gt;q8 -->
<g id="edge18" class="edge"><title>q4&#45;&gt;q8</title>
<path fill="none" stroke="black" d="M187.824,-389.041C167.593,-373.504 134.598,-348.163 110.624,-329.751"/>
<polygon fill="black" stroke="black" points="112.619,-326.87 102.556,-323.555 108.355,-332.422 112.619,-326.87"/>
<text text-anchor="middle" x="158.5" y="-353.4" font-family="Times Roman,serif" font-size="14.00">b</text>
</g>
<!-- q9 -->
<g id="node20" class="node"><title>q9</title>
<ellipse fill="none" stroke="black" cx="211" cy="-307" rx="27" ry="18.3848"/>
<text text-anchor="middle" x="211" y="-303.4" font-family="Times Roman,serif" font-size="14.00">q9</text>
</g>
<!-- q4&#45;&gt;q9 -->
<g id="edge20" class="edge"><title>q4&#45;&gt;q9</title>
<path fill="none" stroke="black" d="M206.964,-384.49C207.679,-370.767 208.667,-351.792 209.487,-336.055"/>
<polygon fill="black" stroke="black" points="212.997,-335.949 210.022,-325.78 206.006,-335.585 212.997,-335.949"/>
<text text-anchor="middle" x="212.5" y="-353.4" font-family="Times Roman,serif" font-size="14.00">a</text>
</g>
<!-- q5&#45;&gt;q6 -->
<g id="edge22" class="edge"><title>q5&#45;&gt;q6</title>
<path fill="none" stroke="black" d="M131.984,-93.2161C138.39,-79.2391 146.757,-60.984 153.59,-46.0766"/>
<polygon fill="black" stroke="black" points="156.837,-47.3914 157.822,-36.8424 150.474,-44.4747 156.837,-47.3914"/>
<text text-anchor="middle" x="151.5" y="-61.4" font-family="Times Roman,serif" font-size="14.00">b</text>
</g>
<!-- q5&#45;&gt;q3 -->
<g id="edge24" class="edge"><title>q5&#45;&gt;q3</title>
<path fill="none" stroke="black" d="M116.451,-137.154C113.656,-148.23 110.19,-161.834 107,-174 106.256,-176.836 105.472,-179.792 104.684,-182.742"/>
<polygon fill="black" stroke="black" points="101.258,-182.005 102.039,-192.571 108.018,-183.824 101.258,-182.005"/>
<text text-anchor="middle" x="115.5" y="-161.4" font-family="Times Roman,serif" font-size="14.00">a</text>
</g>
<!-- q9&#45;&gt;q0 -->
<g id="edge38" class="edge"><title>q9&#45;&gt;q0</title>
<path fill="none" stroke="black" d="M211,-288.49C211,-274.767 211,-255.792 211,-240.055"/>
<polygon fill="black" stroke="black" points="214.5,-239.78 211,-229.78 207.5,-239.781 214.5,-239.78"/>
<text text-anchor="middle" x="215.5" y="-253.4" font-family="Times Roman,serif" font-size="14.00">b</text>
</g>
<!-- q9&#45;&gt;q3 -->
<g id="edge40" class="edge"><title>q9&#45;&gt;q3</title>
<path fill="none" stroke="black" d="M193.686,-292.42C174.576,-276.327 143.651,-250.285 121.933,-231.996"/>
<polygon fill="black" stroke="black" points="124.007,-229.167 114.104,-225.403 119.498,-234.522 124.007,-229.167"/>
<text text-anchor="middle" x="164.5" y="-253.4" font-family="Times Roman,serif" font-size="14.00">a</text>
</g>
</g>
</svg>
