<?xml version="1.0" encoding="UTF-8" standalone="no"?>
<!DOCTYPE svg PUBLIC "-//W3C//DTD SVG 1.1//EN"
 "http://www.w3.org/Graphics/SVG/1.1/DTD/svg11.dtd">
<!-- Generated by graphviz version 2.26.3 (20100126.1600)
 -->
<!-- Title: G Pages: 1 -->
<svg width="258pt" height="890pt"
 viewBox="0.00 0.00 258.15 890.00" xmlns="http://www.w3.org/2000/svg" xmlns:xlink="http://www.w3.org/1999/xlink">
<g id="graph1" class="graph" transform="scale(1 1) rotate(0) translate(4 886)">
<title>G</title>
<polygon fill="white" stroke="white" points="-4,5 -4,-886 255.155,-886 255.155,5 -4,5"/>
<!-- q0 -->
<g id="node1" class="node"><title>q0</title>
<ellipse fill="none" stroke="black" cx="163.155" cy="-771" rx="27" ry="18.3848"/>
<text text-anchor="middle" x="163.155" y="-767.4" font-family="Times Roman,serif" font-size="14.00">q0</text>
</g>
<!-- q0&#45;&gt;q0 -->
<g id="edge2" class="edge"><title>q0&#45;&gt;q0</title>
<path fill="none" stroke="black" d="M187.229,-779.454C198.397,-780.377 208.155,-777.559 208.155,-771 208.155,-766.593 203.75,-763.875 197.472,-762.846"/>
<polygon fill="black" stroke="black" points="197.328,-759.34 187.229,-762.546 197.122,-766.337 197.328,-759.34"/>
<text text-anchor="middle" x="212.655" y="-767.4" font-family="Times Roman,serif" font-size="14.00">b</text>
</g>
<!-- q6 -->
<g id="node4" class="node"><title>q6</title>
<ellipse fill="none" stroke="black" cx="168.155" cy="-679" rx="27" ry="18.3848"/>
<text text-anchor="middle" x="168.155" y="-675.4" font-family="Times Roman,serif" font-size="14.00">q6</text>
</g>
<!-- q0&#45;&gt;q6 -->
<g id="edge4" class="edge"><title>q0&#45;&gt;q6</title>
<path fill="none" stroke="black" d="M164.167,-752.382C164.865,-739.538 165.806,-722.216 166.599,-707.627"/>
<polygon fill="black" stroke="black" points="170.097,-707.765 167.145,-697.59 163.107,-707.385 170.097,-707.765"/>
<text text-anchor="middle" x="169.655" y="-721.4" font-family="Times Roman,serif" font-size="14.00">a</text>
</g>
<!-- q6&#45;&gt;q6 -->
<g id="edge26" class="edge"><title>q6&#45;&gt;q6</title>
<path fill="none" stroke="black" d="M192.229,-687.454C203.397,-688.377 213.155,-685.559 213.155,-679 213.155,-674.593 208.75,-671.875 202.472,-670.846"/>
<polygon fill="black" stroke="black" points="202.328,-667.34 192.229,-670.546 202.122,-674.337 202.328,-667.34"/>
<text text-anchor="middle" x="217.655" y="-675.4" font-family="Times Roman,serif" font-size="14.00">b</text>
</g>
<!-- q7 -->
<g id="node12" class="node"><title>q7</title>
<ellipse fill="none" stroke="black" cx="104.155" cy="-587" rx="27" ry="18.3848"/>
<text text-anchor="middle" x="104.155" y="-583.4" font-family="Times Roman,serif" font-size="14.00">q7</text>
</g>
<!-- q6&#45;&gt;q7 -->
<g id="edge28" class="edge"><title>q6&#45;&gt;q7</title>
<path fill="none" stroke="black" d="M156.416,-662.126C146.673,-648.12 132.672,-627.994 121.614,-612.098"/>
<polygon fill="black" stroke="black" points="124.403,-609.978 115.819,-603.767 118.657,-613.975 124.403,-609.978"/>
<text text-anchor="middle" x="145.655" y="-629.4" font-family="Times Roman,serif" font-size="14.00">a</text>
</g>
<!-- q1 -->
<g id="node5" class="node"><title>q1</title>
<ellipse fill="none" stroke="black" cx="56.1549" cy="-219" rx="27" ry="18.3848"/>
<text text-anchor="middle" x="56.1549" y="-215.4" font-family="Times Roman,serif" font-size="14.00">q1</text>
</g>
<!-- q3 -->
<g id="node7" class="node"><title>q3</title>
<ellipse fill="none" stroke="black" cx="186.155" cy="-123" rx="27" ry="18.3848"/>
<text text-anchor="middle" x="186.155" y="-119.4" font-family="Times Roman,serif" font-size="14.00">q3</text>
</g>
<!-- q1&#45;&gt;q3 -->
<g id="edge6" class="edge"><title>q1&#45;&gt;q3</title>
<path fill="none" stroke="black" d="M74.7807,-205.246C96.9838,-188.849 134.25,-161.33 159.5,-142.683"/>
<polygon fill="black" stroke="black" points="161.598,-145.485 167.564,-136.729 157.44,-139.854 161.598,-145.485"/>
<text text-anchor="middle" x="132.655" y="-169.4" font-family="Times Roman,serif" font-size="14.00">b</text>
</g>
<!-- q8 -->
<g id="node9" class="node"><title>q8</title>
<ellipse fill="none" stroke="black" cx="56.1549" cy="-123" rx="27" ry="18.3848"/>
<ellipse fill="none" stroke="black" cx="56.1549" cy="-123" rx="31" ry="22.3848"/>
<text text-anchor="middle" x="56.1549" y="-119.4" font-family="Times Roman,serif" font-size="14.00">q8</text>
</g>
<!-- q1&#45;&gt;q8 -->
<g id="edge8" class="edge"><title>q1&#45;&gt;q8</title>
<path fill="none" stroke="black" d="M56.1549,-200.49C56.1549,-187.863 56.1549,-170.791 56.1549,-155.885"/>
<polygon fill="black" stroke="black" points="59.655,-155.508 56.1549,-145.508 52.655,-155.508 59.655,-155.508"/>
<text text-anchor="middle" x="60.6549" y="-169.4" font-family="Times Roman,serif" font-size="14.00">a</text>
</g>
<!-- q3&#45;&gt;q6 -->
<g id="edge16" class="edge"><title>q3&#45;&gt;q6</title>
<path fill="none" stroke="black" d="M186.155,-141.763C186.155,-161.114 186.155,-192.167 186.155,-219 186.155,-587 186.155,-587 186.155,-587 186.155,-608.768 181.242,-632.903 176.549,-650.99"/>
<polygon fill="black" stroke="black" points="173.107,-650.308 173.85,-660.876 179.86,-652.151 173.107,-650.308"/>
<text text-anchor="middle" x="190.655" y="-399.4" font-family="Times Roman,serif" font-size="14.00">a</text>
</g>
<!-- q5 -->
<g id="node16" class="node"><title>q5</title>
<ellipse fill="none" stroke="black" cx="186.155" cy="-23" rx="27" ry="18.3848"/>
<ellipse fill="none" stroke="black" cx="186.155" cy="-23" rx="31" ry="22.3848"/>
<text text-anchor="middle" x="186.155" y="-19.4" font-family="Times Roman,serif" font-size="14.00">q5</text>
</g>
<!-- q3&#45;&gt;q5 -->
<g id="edge14" class="edge"><title>q3&#45;&gt;q5</title>
<path fill="none" stroke="black" d="M186.155,-104.191C186.155,-90.5459 186.155,-71.7412 186.155,-55.665"/>
<polygon fill="black" stroke="black" points="189.655,-55.5764 186.155,-45.5764 182.655,-55.5764 189.655,-55.5764"/>
<text text-anchor="middle" x="190.655" y="-69.4" font-family="Times Roman,serif" font-size="14.00">b</text>
</g>
<!-- q8&#45;&gt;q8 -->
<g id="edge34" class="edge"><title>q8&#45;&gt;q8</title>
<path fill="none" stroke="black" d="M86.7799,-127.688C96.9882,-127.688 105.155,-126.125 105.155,-123 105.155,-121.047 101.965,-119.704 97.08,-118.972"/>
<polygon fill="black" stroke="black" points="96.9831,-115.458 86.7799,-118.312 96.5359,-122.444 96.9831,-115.458"/>
<text text-anchor="middle" x="109.655" y="-119.4" font-family="Times Roman,serif" font-size="14.00">b</text>
</g>
<!-- q8&#45;&gt;q8 -->
<g id="edge36" class="edge"><title>q8&#45;&gt;q8</title>
<path fill="none" stroke="black" d="M79.5022,-137.951C100.579,-145.224 123.155,-140.24 123.155,-123 123.155,-108.454 107.083,-102.633 89.3999,-105.538"/>
<polygon fill="black" stroke="black" points="88.3341,-102.197 79.5022,-108.049 90.0559,-108.982 88.3341,-102.197"/>
<text text-anchor="middle" x="127.655" y="-119.4" font-family="Times Roman,serif" font-size="14.00">a</text>
</g>
<!-- q2 -->
<g id="node10" class="node"><title>q2</title>
<ellipse fill="none" stroke="black" cx="112.155" cy="-495" rx="27" ry="18.3848"/>
<text text-anchor="middle" x="112.155" y="-491.4" font-family="Times Roman,serif" font-size="14.00">q2</text>
</g>
<!-- q2&#45;&gt;q7 -->
<g id="edge10" class="edge"><title>q2&#45;&gt;q7</title>
<path fill="none" stroke="black" d="M110.538,-513.59C109.422,-526.428 107.916,-543.748 106.647,-558.342"/>
<polygon fill="black" stroke="black" points="103.153,-558.117 105.774,-568.382 110.127,-558.723 103.153,-558.117"/>
<text text-anchor="middle" x="113.655" y="-537.4" font-family="Times Roman,serif" font-size="14.00">b</text>
</g>
<!-- q4 -->
<g id="node14" class="node"><title>q4</title>
<ellipse fill="none" stroke="black" cx="112.155" cy="-403" rx="27" ry="18.3848"/>
<text text-anchor="middle" x="112.155" y="-399.4" font-family="Times Roman,serif" font-size="14.00">q4</text>
</g>
<!-- q2&#45;&gt;q4 -->
<g id="edge12" class="edge"><title>q2&#45;&gt;q4</title>
<path fill="none" stroke="black" d="M112.155,-476.382C112.155,-463.538 112.155,-446.216 112.155,-431.627"/>
<polygon fill="black" stroke="black" points="115.655,-431.59 112.155,-421.59 108.655,-431.59 115.655,-431.59"/>
<text text-anchor="middle" x="116.655" y="-445.4" font-family="Times Roman,serif" font-size="14.00">a</text>
</g>
<!-- q7&#45;&gt;q2 -->
<g id="edge30" class="edge"><title>q7&#45;&gt;q2</title>
<path fill="none" stroke="black" d="M98.2776,-568.571C95.6519,-557.845 93.6519,-544.095 96.1549,-532 96.8357,-528.71 97.8237,-525.354 98.9798,-522.071"/>
<polygon fill="black" stroke="black" points="102.312,-523.166 102.813,-512.583 95.8217,-520.544 102.312,-523.166"/>
<text text-anchor="middle" x="100.655" y="-537.4" font-family="Times Roman,serif" font-size="14.00">b</text>
</g>
<!-- q7&#45;&gt;q7 -->
<g id="edge32" class="edge"><title>q7&#45;&gt;q7</title>
<path fill="none" stroke="black" d="M128.229,-595.454C139.397,-596.377 149.155,-593.559 149.155,-587 149.155,-582.593 144.75,-579.875 138.472,-578.846"/>
<polygon fill="black" stroke="black" points="138.328,-575.34 128.229,-578.546 138.122,-582.337 138.328,-575.34"/>
<text text-anchor="middle" x="153.655" y="-583.4" font-family="Times Roman,serif" font-size="14.00">a</text>
</g>
<!-- q4&#45;&gt;q8 -->
<g id="edge18" class="edge"><title>q4&#45;&gt;q8</title>
<path fill="none" stroke="black" d="M115.554,-384.53C122.305,-342.897 133.934,-239.482 99.1549,-164 96.1387,-157.454 91.5655,-151.427 86.5099,-146.123"/>
<polygon fill="black" stroke="black" points="88.5486,-143.233 78.883,-138.894 83.733,-148.313 88.5486,-143.233"/>
<text text-anchor="middle" x="126.655" y="-261.4" font-family="Times Roman,serif" font-size="14.00">b</text>
</g>
<!-- q10 -->
<g id="node20" class="node"><title>q10</title>
<ellipse fill="none" stroke="black" cx="55.1549" cy="-311" rx="29.9071" ry="18.3848"/>
<text text-anchor="middle" x="55.1549" y="-307.4" font-family="Times Roman,serif" font-size="14.00">q10</text>
</g>
<!-- q4&#45;&gt;q10 -->
<g id="edge20" class="edge"><title>q4&#45;&gt;q10</title>
<path fill="none" stroke="black" d="M101.434,-385.696C92.9688,-372.033 81.02,-352.747 71.3842,-337.195"/>
<polygon fill="black" stroke="black" points="74.2639,-335.197 66.0219,-328.54 68.3134,-338.884 74.2639,-335.197"/>
<text text-anchor="middle" x="93.6549" y="-353.4" font-family="Times Roman,serif" font-size="14.00">a</text>
</g>
<!-- q5&#45;&gt;q6 -->
<g id="edge22" class="edge"><title>q5&#45;&gt;q6</title>
<path fill="none" stroke="black" d="M203.86,-41.6221C219.938,-60.5503 241.155,-91.4962 241.155,-123 241.155,-587 241.155,-587 241.155,-587 241.155,-617.24 216.653,-643.32 196.039,-659.911"/>
<polygon fill="black" stroke="black" points="193.904,-657.138 188.102,-666.004 198.166,-662.691 193.904,-657.138"/>
<text text-anchor="middle" x="245.655" y="-353.4" font-family="Times Roman,serif" font-size="14.00">b</text>
</g>
<!-- q5&#45;&gt;q10 -->
<g id="edge24" class="edge"><title>q5&#45;&gt;q10</title>
<path fill="none" stroke="black" d="M155.439,-26.8772C115.431,-33.7578 46.9712,-52.212 16.1549,-100 -21.1959,-157.921 15.8079,-242.325 39.2036,-284.683"/>
<polygon fill="black" stroke="black" points="36.2554,-286.579 44.2403,-293.543 42.3407,-283.12 36.2554,-286.579"/>
<text text-anchor="middle" x="6.65492" y="-169.4" font-family="Times Roman,serif" font-size="14.00">a</text>
</g>
<!-- q10&#45;&gt;q1 -->
<g id="edge42" class="edge"><title>q10&#45;&gt;q1</title>
<path fill="none" stroke="black" d="M55.3573,-292.382C55.4969,-279.538 55.6852,-262.216 55.8438,-247.627"/>
<polygon fill="black" stroke="black" points="59.3439,-247.627 55.9529,-237.59 52.3443,-247.551 59.3439,-247.627"/>
<text text-anchor="middle" x="60.6549" y="-261.4" font-family="Times Roman,serif" font-size="14.00">b</text>
</g>
<!-- q10&#45;&gt;q7 -->
<g id="edge44" class="edge"><title>q10&#45;&gt;q7</title>
<path fill="none" stroke="black" d="M55.4555,-329.748C56.3931,-365.886 60.2547,-447.492 76.1549,-514 79.8884,-529.616 86.1498,-546.387 91.8058,-559.911"/>
<polygon fill="black" stroke="black" points="88.6026,-561.322 95.7726,-569.122 95.0317,-558.553 88.6026,-561.322"/>
<text text-anchor="middle" x="70.6549" y="-445.4" font-family="Times Roman,serif" font-size="14.00">a</text>
</g>
<!-- q9 -->
<g id="node29" class="node"><title>q9</title>
<ellipse fill="none" stroke="black" cx="129.155" cy="-863" rx="27" ry="18.3848"/>
<text text-anchor="middle" x="129.155" y="-859.4" font-family="Times Roman,serif" font-size="14.00">q9</text>
</g>
<!-- q9&#45;&gt;q0 -->
<g id="edge38" class="edge"><title>q9&#45;&gt;q0</title>
<path fill="none" stroke="black" d="M135.872,-844.824C140.715,-831.719 147.342,-813.789 152.851,-798.88"/>
<polygon fill="black" stroke="black" points="156.268,-799.732 156.452,-789.138 149.702,-797.305 156.268,-799.732"/>
<text text-anchor="middle" x="153.655" y="-813.4" font-family="Times Roman,serif" font-size="14.00">b</text>
</g>
<!-- q9&#45;&gt;q7 -->
<g id="edge40" class="edge"><title>q9&#45;&gt;q7</title>
<path fill="none" stroke="black" d="M127.476,-844.462C123.207,-797.34 111.917,-672.696 106.774,-615.914"/>
<polygon fill="black" stroke="black" points="110.248,-615.464 105.86,-605.82 103.276,-616.095 110.248,-615.464"/>
<text text-anchor="middle" x="122.655" y="-721.4" font-family="Times Roman,serif" font-size="14.00">a</text>
</g>
</g>
</svg>
