<?xml version="1.0" encoding="UTF-8" standalone="no"?>
<!DOCTYPE svg PUBLIC "-//W3C//DTD SVG 1.1//EN"
 "http://www.w3.org/Graphics/SVG/1.1/DTD/svg11.dtd">
<!-- Generated by graphviz version 2.26.3 (20100126.1600)
 -->
<!-- Title: G Pages: 1 -->
<svg width="183pt" height="598pt"
 viewBox="0.00 0.00 182.69 598.00" xmlns="http://www.w3.org/2000/svg" xmlns:xlink="http://www.w3.org/1999/xlink">
<g id="graph1" class="graph" transform="scale(1 1) rotate(0) translate(4 594)">
<title>G</title>
<polygon fill="white" stroke="white" points="-4,5 -4,-594 179.69,-594 179.69,5 -4,5"/>
<!-- q6 -->
<g id="node1" class="node"><title>q6</title>
<ellipse fill="none" stroke="black" cx="118.69" cy="-571" rx="27" ry="18.3848"/>
<text text-anchor="middle" x="118.69" y="-567.4" font-family="Times Roman,serif" font-size="14.00">q6</text>
</g>
<!-- q4 -->
<g id="node3" class="node"><title>q4</title>
<ellipse fill="none" stroke="black" cx="34.6898" cy="-479" rx="27" ry="18.3848"/>
<text text-anchor="middle" x="34.6898" y="-475.4" font-family="Times Roman,serif" font-size="14.00">q4</text>
</g>
<!-- q6&#45;&gt;q4 -->
<g id="edge2" class="edge"><title>q6&#45;&gt;q4</title>
<path fill="none" stroke="black" d="M104.058,-554.975C90.8086,-540.463 71.1228,-518.903 56.1034,-502.453"/>
<polygon fill="black" stroke="black" points="58.4812,-499.866 49.1538,-494.842 53.3118,-504.586 58.4812,-499.866"/>
<text text-anchor="middle" x="89.1898" y="-521.4" font-family="Times Roman,serif" font-size="14.00">b</text>
</g>
<!-- q3 -->
<g id="node5" class="node"><title>q3</title>
<ellipse fill="none" stroke="black" cx="98.6898" cy="-111" rx="27" ry="18.3848"/>
<text text-anchor="middle" x="98.6898" y="-107.4" font-family="Times Roman,serif" font-size="14.00">q3</text>
</g>
<!-- q6&#45;&gt;q3 -->
<g id="edge4" class="edge"><title>q6&#45;&gt;q3</title>
<path fill="none" stroke="black" d="M132.791,-554.972C146.635,-537.539 165.69,-508.235 165.69,-479 165.69,-479 165.69,-479 165.69,-203 165.69,-174.127 143.86,-148.241 125.122,-131.339"/>
<polygon fill="black" stroke="black" points="127.218,-128.526 117.353,-124.662 122.656,-133.835 127.218,-128.526"/>
<text text-anchor="middle" x="170.19" y="-337.4" font-family="Times Roman,serif" font-size="14.00">a</text>
</g>
<!-- q4&#45;&gt;q4 -->
<g id="edge22" class="edge"><title>q4&#45;&gt;q4</title>
<path fill="none" stroke="black" d="M58.7641,-487.454C69.9321,-488.377 79.6898,-485.559 79.6898,-479 79.6898,-474.593 75.285,-471.875 69.0072,-470.846"/>
<polygon fill="black" stroke="black" points="68.8624,-467.34 58.7641,-470.546 68.6572,-474.337 68.8624,-467.34"/>
<text text-anchor="middle" x="84.1898" y="-475.4" font-family="Times Roman,serif" font-size="14.00">b</text>
</g>
<!-- q5 -->
<g id="node6" class="node"><title>q5</title>
<ellipse fill="none" stroke="black" cx="28.6898" cy="-387" rx="27" ry="18.3848"/>
<text text-anchor="middle" x="28.6898" y="-383.4" font-family="Times Roman,serif" font-size="14.00">q5</text>
</g>
<!-- q4&#45;&gt;q5 -->
<g id="edge24" class="edge"><title>q4&#45;&gt;q5</title>
<path fill="none" stroke="black" d="M33.4756,-460.382C32.6379,-447.538 31.5082,-430.216 30.5567,-415.627"/>
<polygon fill="black" stroke="black" points="34.0456,-415.341 29.9022,-405.59 27.0605,-415.796 34.0456,-415.341"/>
<text text-anchor="middle" x="37.1898" y="-429.4" font-family="Times Roman,serif" font-size="14.00">a</text>
</g>
<!-- q7 -->
<g id="node10" class="node"><title>q7</title>
<ellipse fill="none" stroke="black" cx="49.6898" cy="-19" rx="27" ry="18.3848"/>
<text text-anchor="middle" x="49.6898" y="-15.4" font-family="Times Roman,serif" font-size="14.00">q7</text>
</g>
<!-- q3&#45;&gt;q7 -->
<g id="edge28" class="edge"><title>q3&#45;&gt;q7</title>
<path fill="none" stroke="black" d="M83.3558,-95.4166C77.8298,-89.1549 71.9204,-81.6198 67.6898,-74 63.0479,-65.6395 59.3695,-55.893 56.5798,-46.9469"/>
<polygon fill="black" stroke="black" points="59.9335,-45.9446 53.8038,-37.303 53.2066,-47.881 59.9335,-45.9446"/>
<text text-anchor="middle" x="72.1898" y="-61.4" font-family="Times Roman,serif" font-size="14.00">a</text>
</g>
<!-- q1 -->
<g id="node15" class="node"><title>q1</title>
<ellipse fill="none" stroke="black" cx="110.69" cy="-203" rx="27" ry="18.3848"/>
<text text-anchor="middle" x="110.69" y="-199.4" font-family="Times Roman,serif" font-size="14.00">q1</text>
</g>
<!-- q3&#45;&gt;q1 -->
<g id="edge26" class="edge"><title>q3&#45;&gt;q1</title>
<path fill="none" stroke="black" d="M104.511,-129.268C106.157,-135.184 107.754,-141.816 108.69,-148 109.966,-156.436 110.595,-165.679 110.874,-174.139"/>
<polygon fill="black" stroke="black" points="107.378,-174.384 111.061,-184.318 114.376,-174.255 107.378,-174.384"/>
<text text-anchor="middle" x="114.19" y="-153.4" font-family="Times Roman,serif" font-size="14.00">b</text>
</g>
<!-- q5&#45;&gt;q5 -->
<g id="edge8" class="edge"><title>q5&#45;&gt;q5</title>
<path fill="none" stroke="black" d="M52.7641,-395.454C63.9321,-396.377 73.6898,-393.559 73.6898,-387 73.6898,-382.593 69.285,-379.875 63.0072,-378.846"/>
<polygon fill="black" stroke="black" points="62.8624,-375.34 52.7641,-378.546 62.6572,-382.337 62.8624,-375.34"/>
<text text-anchor="middle" x="78.1898" y="-383.4" font-family="Times Roman,serif" font-size="14.00">a</text>
</g>
<!-- q2 -->
<g id="node8" class="node"><title>q2</title>
<ellipse fill="none" stroke="black" cx="28.6898" cy="-295" rx="27" ry="18.3848"/>
<text text-anchor="middle" x="28.6898" y="-291.4" font-family="Times Roman,serif" font-size="14.00">q2</text>
</g>
<!-- q5&#45;&gt;q2 -->
<g id="edge6" class="edge"><title>q5&#45;&gt;q2</title>
<path fill="none" stroke="black" d="M28.6898,-368.382C28.6898,-355.538 28.6898,-338.216 28.6898,-323.627"/>
<polygon fill="black" stroke="black" points="32.1899,-323.59 28.6898,-313.59 25.1899,-323.59 32.1899,-323.59"/>
<text text-anchor="middle" x="33.1898" y="-337.4" font-family="Times Roman,serif" font-size="14.00">b</text>
</g>
<!-- q2&#45;&gt;q2 -->
<g id="edge14" class="edge"><title>q2&#45;&gt;q2</title>
<path fill="none" stroke="black" d="M52.7641,-303.454C63.9321,-304.377 73.6898,-301.559 73.6898,-295 73.6898,-290.593 69.285,-287.875 63.0072,-286.846"/>
<polygon fill="black" stroke="black" points="62.8624,-283.34 52.7641,-286.546 62.6572,-290.337 62.8624,-283.34"/>
<text text-anchor="middle" x="78.1898" y="-291.4" font-family="Times Roman,serif" font-size="14.00">b</text>
</g>
<!-- q2&#45;&gt;q1 -->
<g id="edge16" class="edge"><title>q2&#45;&gt;q1</title>
<path fill="none" stroke="black" d="M42.9731,-278.975C55.9072,-264.463 75.1242,-242.903 89.786,-226.453"/>
<polygon fill="black" stroke="black" points="92.5292,-228.636 96.5701,-218.842 87.3036,-223.978 92.5292,-228.636"/>
<text text-anchor="middle" x="82.1898" y="-245.4" font-family="Times Roman,serif" font-size="14.00">a</text>
</g>
<!-- q7&#45;&gt;q3 -->
<g id="edge12" class="edge"><title>q7&#45;&gt;q3</title>
<path fill="none" stroke="black" d="M62.9827,-35.3546C67.6783,-41.5878 72.7623,-48.9031 76.6898,-56 81.4294,-64.5644 85.6858,-74.3632 89.1631,-83.2946"/>
<polygon fill="black" stroke="black" points="85.9702,-84.7498 92.7423,-92.8978 92.5294,-82.3051 85.9702,-84.7498"/>
<text text-anchor="middle" x="90.1898" y="-61.4" font-family="Times Roman,serif" font-size="14.00">a</text>
</g>
<!-- q7&#45;&gt;q2 -->
<g id="edge10" class="edge"><title>q7&#45;&gt;q2</title>
<path fill="none" stroke="black" d="M40.7816,-36.5136C24.0649,-71.5068 -9.28881,-152.666 2.68977,-222 5.37274,-237.529 11.0442,-254.132 16.4075,-267.573"/>
<polygon fill="black" stroke="black" points="13.3244,-269.275 20.3942,-277.166 19.7884,-266.589 13.3244,-269.275"/>
<text text-anchor="middle" x="9.18977" y="-153.4" font-family="Times Roman,serif" font-size="14.00">b</text>
</g>
<!-- q1&#45;&gt;q6 -->
<g id="edge18" class="edge"><title>q1&#45;&gt;q6</title>
<path fill="none" stroke="black" d="M113.265,-221.636C115.604,-240.192 118.69,-269.508 118.69,-295 118.69,-479 118.69,-479 118.69,-479 118.69,-500.13 118.69,-523.99 118.69,-542.116"/>
<polygon fill="black" stroke="black" points="115.19,-542.322 118.69,-552.322 122.19,-542.322 115.19,-542.322"/>
<text text-anchor="middle" x="123.19" y="-383.4" font-family="Times Roman,serif" font-size="14.00">b</text>
</g>
<!-- q1&#45;&gt;q3 -->
<g id="edge20" class="edge"><title>q1&#45;&gt;q3</title>
<path fill="none" stroke="black" d="M104.208,-184.781C102.392,-178.867 100.653,-172.225 99.6898,-166 98.3852,-157.572 97.8691,-148.332 97.7501,-139.872"/>
<polygon fill="black" stroke="black" points="101.251,-139.703 97.7823,-129.692 94.2506,-139.681 101.251,-139.703"/>
<text text-anchor="middle" x="104.19" y="-153.4" font-family="Times Roman,serif" font-size="14.00">a</text>
</g>
<!-- q0 -->
<g id="node22" class="node"><title>q0</title>
<ellipse fill="none" stroke="black" cx="38.6898" cy="-203" rx="27" ry="18.3848"/>
<text text-anchor="middle" x="38.6898" y="-199.4" font-family="Times Roman,serif" font-size="14.00">q0</text>
</g>
<!-- q0&#45;&gt;q3 -->
<g id="edge30" class="edge"><title>q0&#45;&gt;q3</title>
<path fill="none" stroke="black" d="M49.9753,-185.696C58.9992,-171.859 71.7844,-152.255 81.9927,-136.602"/>
<polygon fill="black" stroke="black" points="85.1265,-138.204 87.6576,-127.916 79.2632,-134.38 85.1265,-138.204"/>
<text text-anchor="middle" x="79.1898" y="-153.4" font-family="Times Roman,serif" font-size="14.00">b</text>
</g>
<!-- q0&#45;&gt;q7 -->
<g id="edge32" class="edge"><title>q0&#45;&gt;q7</title>
<path fill="none" stroke="black" d="M39.805,-184.345C41.7239,-152.247 45.6635,-86.3485 47.9472,-48.1485"/>
<polygon fill="black" stroke="black" points="51.4685,-47.8959 48.5715,-37.7049 44.4809,-47.4781 51.4685,-47.8959"/>
<text text-anchor="middle" x="50.1898" y="-107.4" font-family="Times Roman,serif" font-size="14.00">a</text>
</g>
</g>
</svg>
