<?xml version="1.0" encoding="UTF-8" standalone="no"?>
<!DOCTYPE svg PUBLIC "-//W3C//DTD SVG 1.1//EN"
 "http://www.w3.org/Graphics/SVG/1.1/DTD/svg11.dtd">
<!-- Generated by graphviz version 2.26.3 (20100126.1600)
 -->
<!-- Title: G Pages: 1 -->
<svg width="368pt" height="790pt"
 viewBox="0.00 0.00 368.00 790.00" xmlns="http://www.w3.org/2000/svg" xmlns:xlink="http://www.w3.org/1999/xlink">
<g id="graph1" class="graph" transform="scale(1 1) rotate(0) translate(4 786)">
<title>G</title>
<polygon fill="white" stroke="white" points="-4,5 -4,-786 365,-786 365,5 -4,5"/>
<!-- q0 -->
<g id="node1" class="node"><title>q0</title>
<ellipse fill="none" stroke="black" cx="129" cy="-671" rx="27" ry="18.3848"/>
<text text-anchor="middle" x="129" y="-667.4" font-family="Times Roman,serif" font-size="14.00">q0</text>
</g>
<!-- q3 -->
<g id="node3" class="node"><title>q3</title>
<ellipse fill="none" stroke="black" cx="129" cy="-579" rx="27" ry="18.3848"/>
<text text-anchor="middle" x="129" y="-575.4" font-family="Times Roman,serif" font-size="14.00">q3</text>
</g>
<!-- q0&#45;&gt;q3 -->
<g id="edge2" class="edge"><title>q0&#45;&gt;q3</title>
<path fill="none" stroke="black" d="M129,-652.382C129,-639.538 129,-622.216 129,-607.627"/>
<polygon fill="black" stroke="black" points="132.5,-607.59 129,-597.59 125.5,-607.59 132.5,-607.59"/>
<text text-anchor="middle" x="133.5" y="-621.4" font-family="Times Roman,serif" font-size="14.00">b</text>
</g>
<!-- q10 -->
<g id="node5" class="node"><title>q10</title>
<ellipse fill="none" stroke="black" cx="113" cy="-19" rx="29.9071" ry="18.3848"/>
<text text-anchor="middle" x="113" y="-15.4" font-family="Times Roman,serif" font-size="14.00">q10</text>
</g>
<!-- q0&#45;&gt;q10 -->
<g id="edge4" class="edge"><title>q0&#45;&gt;q10</title>
<path fill="none" stroke="black" d="M103.205,-665.018C65.5595,-654.582 0,-629.202 0,-579 0,-579 0,-579 0,-111 0,-70.7063 43.7428,-44.9386 76.7969,-31.2193"/>
<polygon fill="black" stroke="black" points="78.1997,-34.4285 86.2206,-27.5064 75.6337,-27.9158 78.1997,-34.4285"/>
<text text-anchor="middle" x="4.5" y="-337.4" font-family="Times Roman,serif" font-size="14.00">a</text>
</g>
<!-- q3&#45;&gt;q10 -->
<g id="edge10" class="edge"><title>q3&#45;&gt;q10</title>
<path fill="none" stroke="black" d="M129.671,-560.396C131.423,-510.171 136,-367.62 136,-249 136,-249 136,-249 136,-111 136,-88.8768 129.663,-64.6306 123.642,-46.5855"/>
<polygon fill="black" stroke="black" points="126.891,-45.2737 120.277,-36.9963 120.285,-47.5912 126.891,-45.2737"/>
<text text-anchor="middle" x="139.5" y="-291.4" font-family="Times Roman,serif" font-size="14.00">b</text>
</g>
<!-- q2 -->
<g id="node6" class="node"><title>q2</title>
<ellipse fill="none" stroke="black" cx="238" cy="-487" rx="27" ry="18.3848"/>
<text text-anchor="middle" x="238" y="-483.4" font-family="Times Roman,serif" font-size="14.00">q2</text>
</g>
<!-- q3&#45;&gt;q2 -->
<g id="edge12" class="edge"><title>q3&#45;&gt;q2</title>
<path fill="none" stroke="black" d="M150.562,-567.731C162.465,-561.026 177.184,-551.908 189,-542 199.825,-532.923 210.432,-521.438 218.993,-511.314"/>
<polygon fill="black" stroke="black" points="221.726,-513.501 225.386,-503.558 216.324,-509.049 221.726,-513.501"/>
<text text-anchor="middle" x="210.5" y="-529.4" font-family="Times Roman,serif" font-size="14.00">a</text>
</g>
<!-- q10&#45;&gt;q3 -->
<g id="edge34" class="edge"><title>q10&#45;&gt;q3</title>
<path fill="none" stroke="black" d="M93.6208,-33.2516C73.8332,-49.6032 46,-78.3978 46,-111 46,-487 46,-487 46,-487 46,-519.762 75.3752,-546.103 99.1743,-562.069"/>
<polygon fill="black" stroke="black" points="97.3153,-565.034 107.625,-567.474 101.087,-559.137 97.3153,-565.034"/>
<text text-anchor="middle" x="50.5" y="-291.4" font-family="Times Roman,serif" font-size="14.00">b</text>
</g>
<!-- q10&#45;&gt;q3 -->
<g id="edge38" class="edge"><title>q10&#45;&gt;q3</title>
<path fill="none" stroke="black" d="M106.039,-37.0242C99.5938,-55.3554 91,-84.7239 91,-111 91,-487 91,-487 91,-487 91,-510.84 102.035,-535.702 112.212,-553.562"/>
<polygon fill="black" stroke="black" points="109.254,-555.436 117.392,-562.221 115.261,-551.842 109.254,-555.436"/>
<text text-anchor="middle" x="95.5" y="-291.4" font-family="Times Roman,serif" font-size="14.00">b</text>
</g>
<!-- q10&#45;&gt;q10 -->
<g id="edge36" class="edge"><title>q10&#45;&gt;q10</title>
<path fill="none" stroke="black" d="M142.53,-23.3114C152.748,-23.3571 161,-21.9199 161,-19 161,-17.175 157.777,-15.9293 152.864,-15.2628"/>
<polygon fill="black" stroke="black" points="152.709,-11.7488 142.53,-14.6886 152.32,-18.738 152.709,-11.7488"/>
<text text-anchor="middle" x="165.5" y="-15.4" font-family="Times Roman,serif" font-size="14.00">a</text>
</g>
<!-- q10&#45;&gt;q10 -->
<g id="edge40" class="edge"><title>q10&#45;&gt;q10</title>
<path fill="none" stroke="black" d="M133.611,-32.7671C155.017,-41.1232 179,-36.5342 179,-19 179,-4.06855 161.609,1.47561 143.227,-2.36753"/>
<polygon fill="black" stroke="black" points="142.195,0.977143 133.611,-5.23293 144.194,-5.73135 142.195,0.977143"/>
<text text-anchor="middle" x="183.5" y="-15.4" font-family="Times Roman,serif" font-size="14.00">a</text>
</g>
<!-- q4 -->
<g id="node8" class="node"><title>q4</title>
<ellipse fill="none" stroke="black" cx="271" cy="-391" rx="27" ry="18.3848"/>
<ellipse fill="none" stroke="black" cx="271" cy="-391" rx="31" ry="22.3848"/>
<text text-anchor="middle" x="271" y="-387.4" font-family="Times Roman,serif" font-size="14.00">q4</text>
</g>
<!-- q2&#45;&gt;q4 -->
<g id="edge6" class="edge"><title>q2&#45;&gt;q4</title>
<path fill="none" stroke="black" d="M246.911,-469.184C249.718,-463.178 252.687,-456.38 255,-450 258.093,-441.466 260.906,-432.048 263.28,-423.29"/>
<polygon fill="black" stroke="black" points="266.721,-423.964 265.856,-413.405 259.947,-422.199 266.721,-423.964"/>
<text text-anchor="middle" x="264.5" y="-437.4" font-family="Times Roman,serif" font-size="14.00">b</text>
</g>
<!-- q9 -->
<g id="node10" class="node"><title>q9</title>
<ellipse fill="none" stroke="black" cx="206" cy="-203" rx="27" ry="18.3848"/>
<text text-anchor="middle" x="206" y="-199.4" font-family="Times Roman,serif" font-size="14.00">q9</text>
</g>
<!-- q2&#45;&gt;q9 -->
<g id="edge8" class="edge"><title>q2&#45;&gt;q9</title>
<path fill="none" stroke="black" d="M235.9,-468.366C230.442,-419.922 215.776,-289.763 209.231,-231.674"/>
<polygon fill="black" stroke="black" points="212.705,-231.248 208.107,-221.703 205.749,-232.032 212.705,-231.248"/>
<text text-anchor="middle" x="226.5" y="-337.4" font-family="Times Roman,serif" font-size="14.00">a</text>
</g>
<!-- q4&#45;&gt;q2 -->
<g id="edge16" class="edge"><title>q4&#45;&gt;q2</title>
<path fill="none" stroke="black" d="M256.568,-411.037C252.562,-417.46 248.601,-424.785 246,-432 242.999,-440.325 241.121,-449.744 239.947,-458.404"/>
<polygon fill="black" stroke="black" points="236.455,-458.144 238.836,-468.468 243.413,-458.912 236.455,-458.144"/>
<text text-anchor="middle" x="250.5" y="-437.4" font-family="Times Roman,serif" font-size="14.00">a</text>
</g>
<!-- q8 -->
<g id="node14" class="node"><title>q8</title>
<ellipse fill="none" stroke="black" cx="269" cy="-295" rx="27" ry="18.3848"/>
<text text-anchor="middle" x="269" y="-291.4" font-family="Times Roman,serif" font-size="14.00">q8</text>
</g>
<!-- q4&#45;&gt;q8 -->
<g id="edge14" class="edge"><title>q4&#45;&gt;q8</title>
<path fill="none" stroke="black" d="M270.526,-368.249C270.25,-354.994 269.899,-338.148 269.603,-323.954"/>
<polygon fill="black" stroke="black" points="273.098,-323.645 269.39,-313.72 266.099,-323.791 273.098,-323.645"/>
<text text-anchor="middle" x="274.5" y="-337.4" font-family="Times Roman,serif" font-size="14.00">b</text>
</g>
<!-- q9&#45;&gt;q3 -->
<g id="edge30" class="edge"><title>q9&#45;&gt;q3</title>
<path fill="none" stroke="black" d="M203.723,-221.638C197.167,-273.241 176.54,-422.09 143,-542 142.112,-545.175 141.065,-548.46 139.949,-551.702"/>
<polygon fill="black" stroke="black" points="136.642,-550.554 136.489,-561.148 143.215,-552.962 136.642,-550.554"/>
<text text-anchor="middle" x="185.5" y="-387.4" font-family="Times Roman,serif" font-size="14.00">b</text>
</g>
<!-- q5 -->
<g id="node16" class="node"><title>q5</title>
<ellipse fill="none" stroke="black" cx="257" cy="-111" rx="27" ry="18.3848"/>
<text text-anchor="middle" x="257" y="-107.4" font-family="Times Roman,serif" font-size="14.00">q5</text>
</g>
<!-- q9&#45;&gt;q5 -->
<g id="edge32" class="edge"><title>q9&#45;&gt;q5</title>
<path fill="none" stroke="black" d="M215.593,-185.696C223.096,-172.161 233.658,-153.107 242.237,-137.632"/>
<polygon fill="black" stroke="black" points="245.49,-138.983 247.277,-128.54 239.367,-135.589 245.49,-138.983"/>
<text text-anchor="middle" x="240.5" y="-153.4" font-family="Times Roman,serif" font-size="14.00">a</text>
</g>
<!-- q8&#45;&gt;q9 -->
<g id="edge28" class="edge"><title>q8&#45;&gt;q9</title>
<path fill="none" stroke="black" d="M257.445,-278.126C247.854,-264.12 234.072,-243.994 223.186,-228.098"/>
<polygon fill="black" stroke="black" points="226.02,-226.041 217.482,-219.767 220.244,-229.996 226.02,-226.041"/>
<text text-anchor="middle" x="247.5" y="-245.4" font-family="Times Roman,serif" font-size="14.00">a</text>
</g>
<!-- q8&#45;&gt;q5 -->
<g id="edge26" class="edge"><title>q8&#45;&gt;q5</title>
<path fill="none" stroke="black" d="M267.783,-276.345C265.69,-244.247 261.392,-178.349 258.901,-140.148"/>
<polygon fill="black" stroke="black" points="262.363,-139.456 258.22,-129.705 255.378,-139.911 262.363,-139.456"/>
<text text-anchor="middle" x="268.5" y="-199.4" font-family="Times Roman,serif" font-size="14.00">b</text>
</g>
<!-- q5&#45;&gt;q10 -->
<g id="edge20" class="edge"><title>q5&#45;&gt;q10</title>
<path fill="none" stroke="black" d="M236.977,-98.2078C212.571,-82.6147 171.102,-56.1208 142.907,-38.1072"/>
<polygon fill="black" stroke="black" points="144.569,-35.0156 134.257,-32.5811 140.8,-40.9145 144.569,-35.0156"/>
<text text-anchor="middle" x="201.5" y="-61.4" font-family="Times Roman,serif" font-size="14.00">a</text>
</g>
<!-- q5&#45;&gt;q8 -->
<g id="edge18" class="edge"><title>q5&#45;&gt;q8</title>
<path fill="none" stroke="black" d="M271.285,-126.77C275.968,-132.94 280.586,-140.365 283,-148 297.74,-194.614 291.794,-209.909 283,-258 282.407,-261.243 281.544,-264.57 280.534,-267.837"/>
<polygon fill="black" stroke="black" points="277.219,-266.713 277.18,-277.308 283.817,-269.049 277.219,-266.713"/>
<text text-anchor="middle" x="295.5" y="-199.4" font-family="Times Roman,serif" font-size="14.00">b</text>
</g>
<!-- q6 -->
<g id="node19" class="node"><title>q6</title>
<ellipse fill="none" stroke="black" cx="289" cy="-763" rx="27" ry="18.3848"/>
<text text-anchor="middle" x="289" y="-759.4" font-family="Times Roman,serif" font-size="14.00">q6</text>
</g>
<!-- q6&#45;&gt;q0 -->
<g id="edge22" class="edge"><title>q6&#45;&gt;q0</title>
<path fill="none" stroke="black" d="M268.083,-750.973C240.174,-734.925 190.59,-706.414 158.784,-688.126"/>
<polygon fill="black" stroke="black" points="160.336,-684.981 149.922,-683.03 156.847,-691.049 160.336,-684.981"/>
<text text-anchor="middle" x="227.5" y="-713.4" font-family="Times Roman,serif" font-size="14.00">b</text>
</g>
<!-- q6&#45;&gt;q10 -->
<g id="edge24" class="edge"><title>q6&#45;&gt;q10</title>
<path fill="none" stroke="black" d="M306.601,-748.738C324.931,-732.164 351,-702.973 351,-671 351,-671 351,-671 351,-111 351,-68.864 219.576,-38.5482 152.051,-25.7529"/>
<polygon fill="black" stroke="black" points="152.654,-22.3052 142.183,-23.9217 151.377,-29.1877 152.654,-22.3052"/>
<text text-anchor="middle" x="355.5" y="-387.4" font-family="Times Roman,serif" font-size="14.00">a</text>
</g>
</g>
</svg>
