<?xml version="1.0" encoding="UTF-8" standalone="no"?>
<!DOCTYPE svg PUBLIC "-//W3C//DTD SVG 1.1//EN"
 "http://www.w3.org/Graphics/SVG/1.1/DTD/svg11.dtd">
<!-- Generated by graphviz version 2.26.3 (20100126.1600)
 -->
<!-- Title: G Pages: 1 -->
<svg width="137pt" height="330pt"
 viewBox="0.00 0.00 137.00 330.00" xmlns="http://www.w3.org/2000/svg" xmlns:xlink="http://www.w3.org/1999/xlink">
<g id="graph1" class="graph" transform="scale(1 1) rotate(0) translate(4 326)">
<title>G</title>
<polygon fill="white" stroke="white" points="-4,5 -4,-326 134,-326 134,5 -4,5"/>
<!-- q1 -->
<g id="node1" class="node"><title>q1</title>
<ellipse fill="none" stroke="black" cx="98" cy="-300" rx="27" ry="18"/>
<ellipse fill="none" stroke="black" cx="98" cy="-300" rx="31" ry="22"/>
<text text-anchor="middle" x="98" y="-295.9" font-family="Times Roman,serif" font-size="14.00">q1</text>
</g>
<!-- q3 -->
<g id="node3" class="node"><title>q3</title>
<ellipse fill="none" stroke="black" cx="31" cy="-202" rx="27" ry="18"/>
<ellipse fill="none" stroke="black" cx="31" cy="-202" rx="31" ry="22"/>
<text text-anchor="middle" x="31" y="-197.9" font-family="Times Roman,serif" font-size="14.00">q3</text>
</g>
<!-- q1&#45;&gt;q3 -->
<g id="edge2" class="edge"><title>q1&#45;&gt;q3</title>
<path fill="none" stroke="black" d="M84.4416,-280.168C74.6336,-265.822 61.2402,-246.232 50.3153,-230.252"/>
<polygon fill="black" stroke="black" points="53.0715,-228.082 44.5383,-221.802 47.2928,-232.033 53.0715,-228.082"/>
<text text-anchor="middle" x="75.5" y="-246.9" font-family="Times Roman,serif" font-size="14.00">b</text>
</g>
<!-- q4 -->
<g id="node5" class="node"><title>q4</title>
<ellipse fill="none" stroke="black" cx="96" cy="-108" rx="27" ry="18"/>
<text text-anchor="middle" x="96" y="-103.9" font-family="Times Roman,serif" font-size="14.00">q4</text>
</g>
<!-- q1&#45;&gt;q4 -->
<g id="edge4" class="edge"><title>q1&#45;&gt;q4</title>
<path fill="none" stroke="black" d="M97.7706,-277.975C97.4057,-242.951 96.6937,-174.596 96.2927,-136.096"/>
<polygon fill="black" stroke="black" points="99.7924,-136.045 96.1884,-126.082 92.7928,-136.118 99.7924,-136.045"/>
<text text-anchor="middle" x="101.5" y="-197.9" font-family="Times Roman,serif" font-size="14.00">a</text>
</g>
<!-- q3&#45;&gt;q4 -->
<g id="edge12" class="edge"><title>q3&#45;&gt;q4</title>
<path fill="none" stroke="black" d="M44.7848,-182.065C54.6912,-167.739 68.1166,-148.324 78.7366,-132.966"/>
<polygon fill="black" stroke="black" points="81.8086,-134.677 84.6174,-124.461 76.0511,-130.695 81.8086,-134.677"/>
<text text-anchor="middle" x="74.5" y="-148.9" font-family="Times Roman,serif" font-size="14.00">a</text>
</g>
<!-- q0 -->
<g id="node8" class="node"><title>q0</title>
<ellipse fill="none" stroke="darkred" cx="41" cy="-18" rx="27" ry="18"/>
<text text-anchor="middle" x="41" y="-13.9" font-family="Times Roman,serif" font-size="14.00">q0</text>
</g>
<!-- q3&#45;&gt;q0 -->
<g id="edge10" class="edge"><title>q3&#45;&gt;q0</title>
<path fill="none" stroke="black" d="M32.2062,-179.805C34.0265,-146.312 37.4742,-82.8751 39.4691,-46.1691"/>
<polygon fill="black" stroke="black" points="42.9665,-46.3102 40.0144,-36.135 35.9768,-45.9303 42.9665,-46.3102"/>
<text text-anchor="middle" x="41.5" y="-103.9" font-family="Times Roman,serif" font-size="14.00">b</text>
</g>
<!-- q4&#45;&gt;q1 -->
<g id="edge6" class="edge"><title>q4&#45;&gt;q1</title>
<path fill="none" stroke="black" d="M104.141,-125.202C106.507,-131.036 108.781,-137.679 110,-144 129.157,-243.315 114.778,-236.151 111,-260 110.539,-262.907 109.902,-265.891 109.154,-268.855"/>
<polygon fill="black" stroke="black" points="105.718,-268.135 106.284,-278.715 112.439,-270.091 105.718,-268.135"/>
<text text-anchor="middle" x="123.5" y="-197.9" font-family="Times Roman,serif" font-size="14.00">b</text>
</g>
<!-- q4&#45;&gt;q0 -->
<g id="edge8" class="edge"><title>q4&#45;&gt;q0</title>
<path fill="none" stroke="black" d="M85.6549,-91.0717C77.5119,-77.7467 66.0275,-58.9541 56.7446,-43.7639"/>
<polygon fill="black" stroke="black" points="59.4997,-41.5601 51.2987,-34.8524 53.5267,-45.2103 59.4997,-41.5601"/>
<text text-anchor="middle" x="78.5" y="-58.9" font-family="Times Roman,serif" font-size="14.00">a</text>
</g>
<!-- q0&#45;&gt;q3 -->
<g id="edge14" class="edge"><title>q0&#45;&gt;q3</title>
<path fill="none" stroke="black" d="M35.2478,-35.8193C30.9058,-50.2515 25.3142,-71.2014 23,-90 19.6895,-116.891 22.3318,-147.597 25.4389,-170.048"/>
<polygon fill="black" stroke="black" points="21.993,-170.67 26.9283,-180.046 28.9166,-169.639 21.993,-170.67"/>
<text text-anchor="middle" x="27.5" y="-103.9" font-family="Times Roman,serif" font-size="14.00">b</text>
</g>
<!-- q0&#45;&gt;q0 -->
<g id="edge16" class="edge"><title>q0&#45;&gt;q0</title>
<path fill="none" stroke="black" d="M65.5325,-26.1211C76.5078,-26.8945 86,-24.1875 86,-18 86,-13.8428 81.7151,-11.2567 75.5743,-10.2417"/>
<polygon fill="black" stroke="black" points="75.6524,-6.74237 65.5325,-9.87891 75.3995,-13.7378 75.6524,-6.74237"/>
<text text-anchor="middle" x="90.5" y="-13.9" font-family="Times Roman,serif" font-size="14.00">a</text>
</g>
</g>
</svg>
