<?xml version="1.0" encoding="UTF-8" standalone="no"?>
<!DOCTYPE svg PUBLIC "-//W3C//DTD SVG 1.1//EN"
 "http://www.w3.org/Graphics/SVG/1.1/DTD/svg11.dtd">
<!-- Generated by graphviz version 2.26.3 (20100126.1600)
 -->
<!-- Title: G Pages: 1 -->
<svg width="252pt" height="510pt"
 viewBox="0.00 0.00 252.00 510.00" xmlns="http://www.w3.org/2000/svg" xmlns:xlink="http://www.w3.org/1999/xlink">
<g id="graph1" class="graph" transform="scale(1 1) rotate(0) translate(4 506)">
<title>G</title>
<polygon fill="white" stroke="white" points="-4,5 -4,-506 249,-506 249,5 -4,5"/>
<!-- q6 -->
<g id="node1" class="node"><title>q6</title>
<ellipse fill="none" stroke="black" cx="27" cy="-292" rx="27" ry="18"/>
<text text-anchor="middle" x="27" y="-287.9" font-family="Times Roman,serif" font-size="14.00">q6</text>
</g>
<!-- q6&#45;&gt;q6 -->
<g id="edge2" class="edge"><title>q6&#45;&gt;q6</title>
<path fill="none" stroke="black" d="M50.6146,-300.78C61.9731,-301.864 72,-298.938 72,-292 72,-287.339 67.4737,-284.488 61.0584,-283.448"/>
<polygon fill="black" stroke="black" points="60.6888,-279.939 50.6146,-283.22 60.5356,-286.938 60.6888,-279.939"/>
<text text-anchor="middle" x="76.5" y="-287.9" font-family="Times Roman,serif" font-size="14.00">b</text>
</g>
<!-- q4 -->
<g id="node4" class="node"><title>q4</title>
<ellipse fill="none" stroke="black" cx="126" cy="-198" rx="27" ry="18"/>
<text text-anchor="middle" x="126" y="-193.9" font-family="Times Roman,serif" font-size="14.00">q4</text>
</g>
<!-- q6&#45;&gt;q4 -->
<g id="edge4" class="edge"><title>q6&#45;&gt;q4</title>
<path fill="none" stroke="black" d="M42.9061,-276.897C59.1669,-261.458 84.5854,-237.323 103.029,-219.811"/>
<polygon fill="black" stroke="black" points="105.618,-222.179 110.46,-212.755 100.798,-217.103 105.618,-222.179"/>
<text text-anchor="middle" x="89.5" y="-238.9" font-family="Times Roman,serif" font-size="14.00">a</text>
</g>
<!-- q3 -->
<g id="node9" class="node"><title>q3</title>
<ellipse fill="none" stroke="black" cx="189" cy="-108" rx="27" ry="18"/>
<text text-anchor="middle" x="189" y="-103.9" font-family="Times Roman,serif" font-size="14.00">q3</text>
</g>
<!-- q4&#45;&gt;q3 -->
<g id="edge20" class="edge"><title>q4&#45;&gt;q3</title>
<path fill="none" stroke="black" d="M137.555,-181.493C147.057,-167.918 160.673,-148.467 171.51,-132.985"/>
<polygon fill="black" stroke="black" points="174.651,-134.602 177.518,-124.403 168.916,-130.588 174.651,-134.602"/>
<text text-anchor="middle" x="167.5" y="-148.9" font-family="Times Roman,serif" font-size="14.00">a</text>
</g>
<!-- q2 -->
<g id="node10" class="node"><title>q2</title>
<ellipse fill="none" stroke="black" cx="174" cy="-18" rx="27" ry="18"/>
<text text-anchor="middle" x="174" y="-13.9" font-family="Times Roman,serif" font-size="14.00">q2</text>
</g>
<!-- q4&#45;&gt;q2 -->
<g id="edge18" class="edge"><title>q4&#45;&gt;q2</title>
<path fill="none" stroke="black" d="M127.748,-179.755C130.122,-158.052 135.123,-120.874 144,-90 148.456,-74.5007 155.259,-57.8399 161.261,-44.4528"/>
<polygon fill="black" stroke="black" points="164.45,-45.8949 165.444,-35.3469 158.089,-42.9726 164.45,-45.8949"/>
<text text-anchor="middle" x="148.5" y="-103.9" font-family="Times Roman,serif" font-size="14.00">b</text>
</g>
<!-- q5 -->
<g id="node5" class="node"><title>q5</title>
<ellipse fill="none" stroke="black" cx="211" cy="-484" rx="27" ry="18"/>
<text text-anchor="middle" x="211" y="-479.9" font-family="Times Roman,serif" font-size="14.00">q5</text>
</g>
<!-- q1 -->
<g id="node7" class="node"><title>q1</title>
<ellipse fill="none" stroke="black" cx="170" cy="-390" rx="27" ry="18"/>
<ellipse fill="none" stroke="black" cx="170" cy="-390" rx="31" ry="22"/>
<text text-anchor="middle" x="170" y="-385.9" font-family="Times Roman,serif" font-size="14.00">q1</text>
</g>
<!-- q5&#45;&gt;q1 -->
<g id="edge6" class="edge"><title>q5&#45;&gt;q1</title>
<path fill="none" stroke="black" d="M203.288,-466.319C197.694,-453.493 189.984,-435.817 183.393,-420.705"/>
<polygon fill="black" stroke="black" points="186.462,-418.989 179.256,-411.222 180.046,-421.787 186.462,-418.989"/>
<text text-anchor="middle" x="198.5" y="-434.9" font-family="Times Roman,serif" font-size="14.00">b</text>
</g>
<!-- q5&#45;&gt;q3 -->
<g id="edge8" class="edge"><title>q5&#45;&gt;q3</title>
<path fill="none" stroke="black" d="M218.331,-466.323C225.389,-447.68 235,-417.286 235,-390 235,-390 235,-390 235,-198 235,-173.643 221.477,-149.24 209.095,-132.002"/>
<polygon fill="black" stroke="black" points="211.624,-129.544 202.802,-123.679 206.041,-133.766 211.624,-129.544"/>
<text text-anchor="middle" x="239.5" y="-287.9" font-family="Times Roman,serif" font-size="14.00">a</text>
</g>
<!-- q1&#45;&gt;q3 -->
<g id="edge16" class="edge"><title>q1&#45;&gt;q3</title>
<path fill="none" stroke="black" d="M171.491,-367.872C174.903,-317.234 183.276,-192.958 187.073,-136.608"/>
<polygon fill="black" stroke="black" points="190.588,-136.498 187.768,-126.286 183.604,-136.028 190.588,-136.498"/>
<text text-anchor="middle" x="184.5" y="-238.9" font-family="Times Roman,serif" font-size="14.00">a</text>
</g>
<!-- q0 -->
<g id="node14" class="node"><title>q0</title>
<ellipse fill="none" stroke="black" cx="130" cy="-292" rx="27" ry="18"/>
<ellipse fill="none" stroke="black" cx="130" cy="-292" rx="31" ry="22"/>
<text text-anchor="middle" x="130" y="-287.9" font-family="Times Roman,serif" font-size="14.00">q0</text>
</g>
<!-- q1&#45;&gt;q0 -->
<g id="edge14" class="edge"><title>q1&#45;&gt;q0</title>
<path fill="none" stroke="black" d="M149.621,-373.252C143.126,-366.727 136.676,-358.716 133,-350 129.63,-342.008 128.186,-332.838 127.754,-324.184"/>
<polygon fill="black" stroke="black" points="131.252,-323.968 127.668,-313.998 124.253,-324.027 131.252,-323.968"/>
<text text-anchor="middle" x="137.5" y="-336.9" font-family="Times Roman,serif" font-size="14.00">b</text>
</g>
<!-- q3&#45;&gt;q2 -->
<g id="edge22" class="edge"><title>q3&#45;&gt;q2</title>
<path fill="none" stroke="black" d="M194.255,-90.2356C196.603,-79.5777 198.2,-65.8375 195,-54 194.017,-50.3635 192.565,-46.7172 190.876,-43.2154"/>
<polygon fill="black" stroke="black" points="193.903,-41.4565 186.009,-34.3898 187.773,-44.8368 193.903,-41.4565"/>
<text text-anchor="middle" x="200.5" y="-58.9" font-family="Times Roman,serif" font-size="14.00">b</text>
</g>
<!-- q3&#45;&gt;q2 -->
<g id="edge24" class="edge"><title>q3&#45;&gt;q2</title>
<path fill="none" stroke="black" d="M176.425,-91.6841C172.624,-85.805 168.944,-78.9099 167,-72 164.634,-63.5895 164.888,-54.2136 166.18,-45.6655"/>
<polygon fill="black" stroke="black" points="169.63,-46.2626 168.163,-35.7698 162.766,-44.887 169.63,-46.2626"/>
<text text-anchor="middle" x="171.5" y="-58.9" font-family="Times Roman,serif" font-size="14.00">a</text>
</g>
<!-- q2&#45;&gt;q3 -->
<g id="edge12" class="edge"><title>q2&#45;&gt;q3</title>
<path fill="none" stroke="black" d="M177.031,-36.1858C179.104,-48.6224 181.893,-65.3601 184.258,-79.5481"/>
<polygon fill="black" stroke="black" points="180.868,-80.4986 185.965,-89.7872 187.773,-79.3478 180.868,-80.4986"/>
<text text-anchor="middle" x="186.5" y="-58.9" font-family="Times Roman,serif" font-size="14.00">a</text>
</g>
<!-- q2&#45;&gt;q2 -->
<g id="edge10" class="edge"><title>q2&#45;&gt;q2</title>
<path fill="none" stroke="black" d="M198.532,-26.1211C209.508,-26.8945 219,-24.1875 219,-18 219,-13.8428 214.715,-11.2567 208.574,-10.2417"/>
<polygon fill="black" stroke="black" points="208.652,-6.74237 198.532,-9.87891 208.4,-13.7378 208.652,-6.74237"/>
<text text-anchor="middle" x="223.5" y="-13.9" font-family="Times Roman,serif" font-size="14.00">b</text>
</g>
<!-- q0&#45;&gt;q4 -->
<g id="edge28" class="edge"><title>q0&#45;&gt;q4</title>
<path fill="none" stroke="black" d="M129.052,-269.723C128.496,-256.658 127.788,-240.029 127.195,-226.073"/>
<polygon fill="black" stroke="black" points="130.689,-225.867 126.767,-216.025 123.695,-226.165 130.689,-225.867"/>
<text text-anchor="middle" x="132.5" y="-238.9" font-family="Times Roman,serif" font-size="14.00">a</text>
</g>
<!-- q0&#45;&gt;q1 -->
<g id="edge26" class="edge"><title>q0&#45;&gt;q1</title>
<path fill="none" stroke="black" d="M138.662,-313.223C144.163,-326.699 151.371,-344.36 157.488,-359.345"/>
<polygon fill="black" stroke="black" points="154.301,-360.8 161.321,-368.735 160.782,-358.154 154.301,-360.8"/>
<text text-anchor="middle" x="157.5" y="-336.9" font-family="Times Roman,serif" font-size="14.00">b</text>
</g>
</g>
</svg>
