<?xml version="1.0" encoding="UTF-8" standalone="no"?>
<!DOCTYPE svg PUBLIC "-//W3C//DTD SVG 1.1//EN"
 "http://www.w3.org/Graphics/SVG/1.1/DTD/svg11.dtd">
<!-- Generated by graphviz version 2.26.3 (20100126.1600)
 -->
<!-- Title: G Pages: 1 -->
<svg width="259pt" height="898pt"
 viewBox="0.00 0.00 258.85 898.00" xmlns="http://www.w3.org/2000/svg" xmlns:xlink="http://www.w3.org/1999/xlink">
<g id="graph1" class="graph" transform="scale(1 1) rotate(0) translate(4 894)">
<title>G</title>
<polygon fill="white" stroke="white" points="-4,5 -4,-894 255.848,-894 255.848,5 -4,5"/>
<!-- q0 -->
<g id="node1" class="node"><title>q0</title>
<ellipse fill="none" stroke="black" cx="163.848" cy="-779" rx="27" ry="18.3848"/>
<text text-anchor="middle" x="163.848" y="-775.4" font-family="Times Roman,serif" font-size="14.00">q0</text>
</g>
<!-- q0&#45;&gt;q0 -->
<g id="edge2" class="edge"><title>q0&#45;&gt;q0</title>
<path fill="none" stroke="black" d="M187.922,-787.454C199.09,-788.377 208.848,-785.559 208.848,-779 208.848,-774.593 204.443,-771.875 198.165,-770.846"/>
<polygon fill="black" stroke="black" points="198.02,-767.34 187.922,-770.546 197.815,-774.337 198.02,-767.34"/>
<text text-anchor="middle" x="213.348" y="-775.4" font-family="Times Roman,serif" font-size="14.00">b</text>
</g>
<!-- q6 -->
<g id="node4" class="node"><title>q6</title>
<ellipse fill="none" stroke="black" cx="168.848" cy="-687" rx="27" ry="18.3848"/>
<text text-anchor="middle" x="168.848" y="-683.4" font-family="Times Roman,serif" font-size="14.00">q6</text>
</g>
<!-- q0&#45;&gt;q6 -->
<g id="edge4" class="edge"><title>q0&#45;&gt;q6</title>
<path fill="none" stroke="black" d="M164.86,-760.382C165.558,-747.538 166.499,-730.216 167.292,-715.627"/>
<polygon fill="black" stroke="black" points="170.79,-715.765 167.838,-705.59 163.8,-715.385 170.79,-715.765"/>
<text text-anchor="middle" x="170.348" y="-729.4" font-family="Times Roman,serif" font-size="14.00">a</text>
</g>
<!-- q6&#45;&gt;q6 -->
<g id="edge26" class="edge"><title>q6&#45;&gt;q6</title>
<path fill="none" stroke="black" d="M192.922,-695.454C204.09,-696.377 213.848,-693.559 213.848,-687 213.848,-682.593 209.443,-679.875 203.165,-678.846"/>
<polygon fill="black" stroke="black" points="203.02,-675.34 192.922,-678.546 202.815,-682.337 203.02,-675.34"/>
<text text-anchor="middle" x="218.348" y="-683.4" font-family="Times Roman,serif" font-size="14.00">b</text>
</g>
<!-- q7 -->
<g id="node12" class="node"><title>q7</title>
<ellipse fill="none" stroke="black" cx="104.848" cy="-595" rx="27" ry="18.3848"/>
<text text-anchor="middle" x="104.848" y="-591.4" font-family="Times Roman,serif" font-size="14.00">q7</text>
</g>
<!-- q6&#45;&gt;q7 -->
<g id="edge28" class="edge"><title>q6&#45;&gt;q7</title>
<path fill="none" stroke="black" d="M157.109,-670.126C147.366,-656.12 133.365,-635.994 122.307,-620.098"/>
<polygon fill="black" stroke="black" points="125.096,-617.978 116.512,-611.767 119.35,-621.975 125.096,-617.978"/>
<text text-anchor="middle" x="146.348" y="-637.4" font-family="Times Roman,serif" font-size="14.00">a</text>
</g>
<!-- q1 -->
<g id="node5" class="node"><title>q1</title>
<ellipse fill="none" stroke="black" cx="56.8479" cy="-219" rx="27" ry="18.3848"/>
<text text-anchor="middle" x="56.8479" y="-215.4" font-family="Times Roman,serif" font-size="14.00">q1</text>
</g>
<!-- q3 -->
<g id="node7" class="node"><title>q3</title>
<ellipse fill="none" stroke="black" cx="186.848" cy="-123" rx="27" ry="18.3848"/>
<text text-anchor="middle" x="186.848" y="-119.4" font-family="Times Roman,serif" font-size="14.00">q3</text>
</g>
<!-- q1&#45;&gt;q3 -->
<g id="edge6" class="edge"><title>q1&#45;&gt;q3</title>
<path fill="none" stroke="black" d="M75.4737,-205.246C97.6768,-188.849 134.943,-161.33 160.193,-142.683"/>
<polygon fill="black" stroke="black" points="162.291,-145.485 168.257,-136.729 158.133,-139.854 162.291,-145.485"/>
<text text-anchor="middle" x="133.348" y="-169.4" font-family="Times Roman,serif" font-size="14.00">b</text>
</g>
<!-- q8 -->
<g id="node9" class="node"><title>q8</title>
<ellipse fill="none" stroke="black" cx="56.8479" cy="-123" rx="27" ry="18.3848"/>
<ellipse fill="none" stroke="black" cx="56.8479" cy="-123" rx="31" ry="22.3848"/>
<text text-anchor="middle" x="56.8479" y="-119.4" font-family="Times Roman,serif" font-size="14.00">q8</text>
</g>
<!-- q1&#45;&gt;q8 -->
<g id="edge8" class="edge"><title>q1&#45;&gt;q8</title>
<path fill="none" stroke="black" d="M56.8479,-200.49C56.8479,-187.863 56.8479,-170.791 56.8479,-155.885"/>
<polygon fill="black" stroke="black" points="60.348,-155.508 56.8479,-145.508 53.348,-155.508 60.348,-155.508"/>
<text text-anchor="middle" x="61.3479" y="-169.4" font-family="Times Roman,serif" font-size="14.00">a</text>
</g>
<!-- q3&#45;&gt;q6 -->
<g id="edge16" class="edge"><title>q3&#45;&gt;q6</title>
<path fill="none" stroke="black" d="M186.848,-141.763C186.848,-161.114 186.848,-192.167 186.848,-219 186.848,-595 186.848,-595 186.848,-595 186.848,-616.768 181.934,-640.903 177.242,-658.99"/>
<polygon fill="black" stroke="black" points="173.8,-658.308 174.543,-668.876 180.553,-660.151 173.8,-658.308"/>
<text text-anchor="middle" x="191.348" y="-407.4" font-family="Times Roman,serif" font-size="14.00">a</text>
</g>
<!-- q5 -->
<g id="node16" class="node"><title>q5</title>
<ellipse fill="none" stroke="black" cx="186.848" cy="-23" rx="27" ry="18.3848"/>
<ellipse fill="none" stroke="black" cx="186.848" cy="-23" rx="31" ry="22.3848"/>
<text text-anchor="middle" x="186.848" y="-19.4" font-family="Times Roman,serif" font-size="14.00">q5</text>
</g>
<!-- q3&#45;&gt;q5 -->
<g id="edge14" class="edge"><title>q3&#45;&gt;q5</title>
<path fill="none" stroke="black" d="M186.848,-104.191C186.848,-90.5459 186.848,-71.7412 186.848,-55.665"/>
<polygon fill="black" stroke="black" points="190.348,-55.5764 186.848,-45.5764 183.348,-55.5764 190.348,-55.5764"/>
<text text-anchor="middle" x="191.348" y="-69.4" font-family="Times Roman,serif" font-size="14.00">b</text>
</g>
<!-- q8&#45;&gt;q8 -->
<g id="edge34" class="edge"><title>q8&#45;&gt;q8</title>
<path fill="none" stroke="black" d="M87.4729,-127.688C97.6812,-127.688 105.848,-126.125 105.848,-123 105.848,-121.047 102.658,-119.704 97.7729,-118.972"/>
<polygon fill="black" stroke="black" points="97.676,-115.458 87.4729,-118.312 97.2289,-122.444 97.676,-115.458"/>
<text text-anchor="middle" x="110.348" y="-119.4" font-family="Times Roman,serif" font-size="14.00">b</text>
</g>
<!-- q8&#45;&gt;q8 -->
<g id="edge36" class="edge"><title>q8&#45;&gt;q8</title>
<path fill="none" stroke="black" d="M80.1951,-137.951C101.272,-145.224 123.848,-140.24 123.848,-123 123.848,-108.454 107.776,-102.633 90.0928,-105.538"/>
<polygon fill="black" stroke="black" points="89.027,-102.197 80.1951,-108.049 90.7488,-108.982 89.027,-102.197"/>
<text text-anchor="middle" x="128.348" y="-119.4" font-family="Times Roman,serif" font-size="14.00">a</text>
</g>
<!-- q2 -->
<g id="node10" class="node"><title>q2</title>
<ellipse fill="none" stroke="black" cx="111.848" cy="-503" rx="27" ry="18.3848"/>
<text text-anchor="middle" x="111.848" y="-499.4" font-family="Times Roman,serif" font-size="14.00">q2</text>
</g>
<!-- q2&#45;&gt;q7 -->
<g id="edge10" class="edge"><title>q2&#45;&gt;q7</title>
<path fill="none" stroke="black" d="M110.433,-521.59C109.457,-534.428 108.139,-551.748 107.028,-566.342"/>
<polygon fill="black" stroke="black" points="103.533,-566.146 106.264,-576.382 110.513,-566.677 103.533,-566.146"/>
<text text-anchor="middle" x="114.348" y="-545.4" font-family="Times Roman,serif" font-size="14.00">b</text>
</g>
<!-- q4 -->
<g id="node14" class="node"><title>q4</title>
<ellipse fill="none" stroke="black" cx="111.848" cy="-411" rx="27" ry="18.3848"/>
<text text-anchor="middle" x="111.848" y="-407.4" font-family="Times Roman,serif" font-size="14.00">q4</text>
</g>
<!-- q2&#45;&gt;q4 -->
<g id="edge12" class="edge"><title>q2&#45;&gt;q4</title>
<path fill="none" stroke="black" d="M111.848,-484.382C111.848,-471.538 111.848,-454.216 111.848,-439.627"/>
<polygon fill="black" stroke="black" points="115.348,-439.59 111.848,-429.59 108.348,-439.59 115.348,-439.59"/>
<text text-anchor="middle" x="116.348" y="-453.4" font-family="Times Roman,serif" font-size="14.00">a</text>
</g>
<!-- q7&#45;&gt;q2 -->
<g id="edge30" class="edge"><title>q7&#45;&gt;q2</title>
<path fill="none" stroke="black" d="M98.4654,-576.596C95.588,-565.878 93.338,-552.128 95.8479,-540 96.5287,-536.71 97.5167,-533.354 98.6727,-530.071"/>
<polygon fill="black" stroke="black" points="102.005,-531.166 102.506,-520.583 95.5147,-528.544 102.005,-531.166"/>
<text text-anchor="middle" x="100.348" y="-545.4" font-family="Times Roman,serif" font-size="14.00">b</text>
</g>
<!-- q7&#45;&gt;q7 -->
<g id="edge32" class="edge"><title>q7&#45;&gt;q7</title>
<path fill="none" stroke="black" d="M128.922,-603.454C140.09,-604.377 149.848,-601.559 149.848,-595 149.848,-590.593 145.443,-587.875 139.165,-586.846"/>
<polygon fill="black" stroke="black" points="139.02,-583.34 128.922,-586.546 138.815,-590.337 139.02,-583.34"/>
<text text-anchor="middle" x="154.348" y="-591.4" font-family="Times Roman,serif" font-size="14.00">a</text>
</g>
<!-- q4&#45;&gt;q8 -->
<g id="edge18" class="edge"><title>q4&#45;&gt;q8</title>
<path fill="none" stroke="black" d="M115.551,-392.543C123.171,-349.926 137.018,-242.33 100.848,-164 97.658,-157.092 92.7186,-150.794 87.2843,-145.32"/>
<polygon fill="black" stroke="black" points="89.4307,-142.54 79.685,-138.384 84.7118,-147.71 89.4307,-142.54"/>
<text text-anchor="middle" x="128.348" y="-261.4" font-family="Times Roman,serif" font-size="14.00">b</text>
</g>
<!-- q10 -->
<g id="node20" class="node"><title>q10</title>
<ellipse fill="none" stroke="black" cx="52.8479" cy="-315" rx="29.9649" ry="18.3848"/>
<ellipse fill="none" stroke="black" cx="52.8479" cy="-315" rx="33.907" ry="22.3848"/>
<text text-anchor="middle" x="52.8479" y="-311.4" font-family="Times Roman,serif" font-size="14.00">q10</text>
</g>
<!-- q4&#45;&gt;q10 -->
<g id="edge20" class="edge"><title>q4&#45;&gt;q10</title>
<path fill="none" stroke="black" d="M101.3,-393.837C92.9099,-380.186 80.9732,-360.763 71.0474,-344.613"/>
<polygon fill="black" stroke="black" points="73.9931,-342.721 65.7752,-336.034 68.0293,-346.386 73.9931,-342.721"/>
<text text-anchor="middle" x="92.3479" y="-361.4" font-family="Times Roman,serif" font-size="14.00">a</text>
</g>
<!-- q5&#45;&gt;q6 -->
<g id="edge22" class="edge"><title>q5&#45;&gt;q6</title>
<path fill="none" stroke="black" d="M204.553,-41.6221C220.631,-60.5503 241.848,-91.4962 241.848,-123 241.848,-595 241.848,-595 241.848,-595 241.848,-625.24 217.346,-651.32 196.732,-667.911"/>
<polygon fill="black" stroke="black" points="194.597,-665.138 188.795,-674.004 198.859,-670.691 194.597,-665.138"/>
<text text-anchor="middle" x="246.348" y="-361.4" font-family="Times Roman,serif" font-size="14.00">b</text>
</g>
<!-- q5&#45;&gt;q10 -->
<g id="edge24" class="edge"><title>q5&#45;&gt;q10</title>
<path fill="none" stroke="black" d="M156.132,-26.8772C116.124,-33.7578 47.6642,-52.212 16.8479,-100 -20.1268,-157.338 12.8246,-240.537 35.5548,-284.742"/>
<polygon fill="black" stroke="black" points="32.588,-286.619 40.3616,-293.817 38.7739,-283.342 32.588,-286.619"/>
<text text-anchor="middle" x="6.34787" y="-169.4" font-family="Times Roman,serif" font-size="14.00">a</text>
</g>
<!-- q10&#45;&gt;q1 -->
<g id="edge42" class="edge"><title>q10&#45;&gt;q1</title>
<path fill="none" stroke="black" d="M53.7958,-292.249C54.3481,-278.994 55.05,-262.148 55.6415,-247.954"/>
<polygon fill="black" stroke="black" points="59.1484,-247.857 56.0679,-237.72 52.1545,-247.565 59.1484,-247.857"/>
<text text-anchor="middle" x="60.3479" y="-261.4" font-family="Times Roman,serif" font-size="14.00">b</text>
</g>
<!-- q10&#45;&gt;q7 -->
<g id="edge44" class="edge"><title>q10&#45;&gt;q7</title>
<path fill="none" stroke="black" d="M53.394,-337.709C54.7556,-376.182 59.4864,-456.393 75.8479,-522 79.7777,-537.758 86.3274,-554.653 92.2088,-568.217"/>
<polygon fill="black" stroke="black" points="89.0539,-569.736 96.3262,-577.441 95.446,-566.883 89.0539,-569.736"/>
<text text-anchor="middle" x="70.3479" y="-453.4" font-family="Times Roman,serif" font-size="14.00">a</text>
</g>
<!-- q9 -->
<g id="node29" class="node"><title>q9</title>
<ellipse fill="none" stroke="black" cx="129.848" cy="-871" rx="27" ry="18.3848"/>
<text text-anchor="middle" x="129.848" y="-867.4" font-family="Times Roman,serif" font-size="14.00">q9</text>
</g>
<!-- q9&#45;&gt;q0 -->
<g id="edge38" class="edge"><title>q9&#45;&gt;q0</title>
<path fill="none" stroke="black" d="M136.565,-852.824C141.408,-839.719 148.035,-821.789 153.544,-806.88"/>
<polygon fill="black" stroke="black" points="156.961,-807.732 157.145,-797.138 150.395,-805.305 156.961,-807.732"/>
<text text-anchor="middle" x="154.348" y="-821.4" font-family="Times Roman,serif" font-size="14.00">b</text>
</g>
<!-- q9&#45;&gt;q7 -->
<g id="edge40" class="edge"><title>q9&#45;&gt;q7</title>
<path fill="none" stroke="black" d="M128.169,-852.462C123.9,-805.34 112.61,-680.696 107.467,-623.914"/>
<polygon fill="black" stroke="black" points="110.941,-623.464 106.553,-613.82 103.969,-624.095 110.941,-623.464"/>
<text text-anchor="middle" x="123.348" y="-729.4" font-family="Times Roman,serif" font-size="14.00">a</text>
</g>
</g>
</svg>
