<?xml version="1.0" encoding="UTF-8" standalone="no"?>
<!DOCTYPE svg PUBLIC "-//W3C//DTD SVG 1.1//EN"
 "http://www.w3.org/Graphics/SVG/1.1/DTD/svg11.dtd">
<!-- Generated by graphviz version 2.26.3 (20100126.1600)
 -->
<!-- Title: G Pages: 1 -->
<svg width="257pt" height="606pt"
 viewBox="0.00 0.00 256.67 606.00" xmlns="http://www.w3.org/2000/svg" xmlns:xlink="http://www.w3.org/1999/xlink">
<g id="graph1" class="graph" transform="scale(1 1) rotate(0) translate(4 602)">
<title>G</title>
<polygon fill="white" stroke="white" points="-4,5 -4,-602 253.67,-602 253.67,5 -4,5"/>
<!-- q0 -->
<g id="node1" class="node"><title>q0</title>
<ellipse fill="none" stroke="black" cx="49.6695" cy="-295" rx="27" ry="18.3848"/>
<text text-anchor="middle" x="49.6695" y="-291.4" font-family="Times Roman,serif" font-size="14.00">q0</text>
</g>
<!-- q3 -->
<g id="node3" class="node"><title>q3</title>
<ellipse fill="none" stroke="black" cx="121.67" cy="-203" rx="27" ry="18.3848"/>
<text text-anchor="middle" x="121.67" y="-199.4" font-family="Times Roman,serif" font-size="14.00">q3</text>
</g>
<!-- q0&#45;&gt;q3 -->
<g id="edge2" class="edge"><title>q0&#45;&gt;q3</title>
<path fill="none" stroke="black" d="M62.5417,-278.552C73.7018,-264.292 90.0042,-243.461 102.666,-227.282"/>
<polygon fill="black" stroke="black" points="105.502,-229.338 108.909,-219.305 99.9894,-225.023 105.502,-229.338"/>
<text text-anchor="middle" x="96.1695" y="-245.4" font-family="Times Roman,serif" font-size="14.00">b</text>
</g>
<!-- q10 -->
<g id="node5" class="node"><title>q10</title>
<ellipse fill="none" stroke="black" cx="134.67" cy="-19" rx="29.9071" ry="18.3848"/>
<text text-anchor="middle" x="134.67" y="-15.4" font-family="Times Roman,serif" font-size="14.00">q10</text>
</g>
<!-- q0&#45;&gt;q10 -->
<g id="edge4" class="edge"><title>q0&#45;&gt;q10</title>
<path fill="none" stroke="black" d="M39.5055,-277.721C19.3905,-241.057 -20.6952,-153.776 13.6695,-92 31.2729,-60.3552 68.7998,-40.934 97.4246,-30.1605"/>
<polygon fill="black" stroke="black" points="98.8844,-33.3561 107.131,-26.7046 96.5364,-26.7616 98.8844,-33.3561"/>
<text text-anchor="middle" x="6.16954" y="-153.4" font-family="Times Roman,serif" font-size="14.00">a</text>
</g>
<!-- q3&#45;&gt;q10 -->
<g id="edge6" class="edge"><title>q3&#45;&gt;q10</title>
<path fill="none" stroke="black" d="M124.453,-184.59C125.269,-178.666 126.096,-172.066 126.67,-166 130.551,-124.982 132.716,-77.3333 133.788,-47.6692"/>
<polygon fill="black" stroke="black" points="137.288,-47.7141 134.134,-37.5996 130.292,-47.4733 137.288,-47.7141"/>
<text text-anchor="middle" x="136.17" y="-107.4" font-family="Times Roman,serif" font-size="14.00">b</text>
</g>
<!-- q6 -->
<g id="node8" class="node"><title>q6</title>
<ellipse fill="none" stroke="black" cx="49.6695" cy="-111" rx="27" ry="18.3848"/>
<text text-anchor="middle" x="49.6695" y="-107.4" font-family="Times Roman,serif" font-size="14.00">q6</text>
</g>
<!-- q3&#45;&gt;q6 -->
<g id="edge8" class="edge"><title>q3&#45;&gt;q6</title>
<path fill="none" stroke="black" d="M107.35,-187.04C101.715,-180.606 95.2664,-173.051 89.6695,-166 82.1387,-156.513 74.2197,-145.796 67.4331,-136.359"/>
<polygon fill="black" stroke="black" points="70.2175,-134.236 61.5626,-128.125 64.5177,-138.299 70.2175,-134.236"/>
<text text-anchor="middle" x="94.1695" y="-153.4" font-family="Times Roman,serif" font-size="14.00">a</text>
</g>
<!-- q10&#45;&gt;q3 -->
<g id="edge30" class="edge"><title>q10&#45;&gt;q3</title>
<path fill="none" stroke="black" d="M141.813,-37.1653C143.797,-43.076 145.678,-49.7301 146.67,-56 154.316,-104.361 154.789,-119.118 140.67,-166 139.585,-169.6 138.156,-173.266 136.568,-176.822"/>
<polygon fill="black" stroke="black" points="133.395,-175.341 132.116,-185.859 139.675,-178.435 133.395,-175.341"/>
<text text-anchor="middle" x="156.17" y="-107.4" font-family="Times Roman,serif" font-size="14.00">b</text>
</g>
<!-- q10&#45;&gt;q3 -->
<g id="edge34" class="edge"><title>q10&#45;&gt;q3</title>
<path fill="none" stroke="black" d="M128.828,-37.3726C124.499,-51.9981 118.968,-73.0814 116.67,-92 113.291,-119.812 115.355,-151.793 117.774,-174.261"/>
<polygon fill="black" stroke="black" points="114.33,-174.941 118.968,-184.467 121.282,-174.128 114.33,-174.941"/>
<text text-anchor="middle" x="121.17" y="-107.4" font-family="Times Roman,serif" font-size="14.00">b</text>
</g>
<!-- q10&#45;&gt;q10 -->
<g id="edge32" class="edge"><title>q10&#45;&gt;q10</title>
<path fill="none" stroke="black" d="M164.199,-23.3114C174.418,-23.3571 182.67,-21.9199 182.67,-19 182.67,-17.175 179.446,-15.9293 174.534,-15.2628"/>
<polygon fill="black" stroke="black" points="174.378,-11.7488 164.199,-14.6886 173.99,-18.738 174.378,-11.7488"/>
<text text-anchor="middle" x="187.17" y="-15.4" font-family="Times Roman,serif" font-size="14.00">a</text>
</g>
<!-- q10&#45;&gt;q10 -->
<g id="edge36" class="edge"><title>q10&#45;&gt;q10</title>
<path fill="none" stroke="black" d="M155.281,-32.7671C176.687,-41.1232 200.67,-36.5342 200.67,-19 200.67,-4.06855 183.278,1.47561 164.897,-2.36753"/>
<polygon fill="black" stroke="black" points="163.865,0.977143 155.281,-5.23293 165.864,-5.73135 163.865,0.977143"/>
<text text-anchor="middle" x="205.17" y="-15.4" font-family="Times Roman,serif" font-size="14.00">a</text>
</g>
<!-- q6&#45;&gt;q0 -->
<g id="edge18" class="edge"><title>q6&#45;&gt;q0</title>
<path fill="none" stroke="black" d="M49.6695,-129.705C49.6695,-161.837 49.6695,-227.739 49.6695,-265.91"/>
<polygon fill="black" stroke="black" points="46.1696,-266.344 49.6695,-276.345 53.1696,-266.345 46.1696,-266.344"/>
<text text-anchor="middle" x="54.1695" y="-199.4" font-family="Times Roman,serif" font-size="14.00">b</text>
</g>
<!-- q6&#45;&gt;q10 -->
<g id="edge20" class="edge"><title>q6&#45;&gt;q10</title>
<path fill="none" stroke="black" d="M60.5379,-93.778C68.0564,-82.4782 78.6572,-67.6861 89.6695,-56 94.9153,-50.4333 100.989,-44.9267 106.943,-39.9304"/>
<polygon fill="black" stroke="black" points="109.339,-42.4938 114.9,-33.4758 104.929,-37.0575 109.339,-42.4938"/>
<text text-anchor="middle" x="94.1695" y="-61.4" font-family="Times Roman,serif" font-size="14.00">a</text>
</g>
<!-- q4 -->
<g id="node9" class="node"><title>q4</title>
<ellipse fill="none" stroke="black" cx="128.67" cy="-575" rx="27" ry="18.3848"/>
<ellipse fill="none" stroke="black" cx="128.67" cy="-575" rx="31" ry="22.3848"/>
<text text-anchor="middle" x="128.67" y="-571.4" font-family="Times Roman,serif" font-size="14.00">q4</text>
</g>
<!-- q8 -->
<g id="node11" class="node"><title>q8</title>
<ellipse fill="none" stroke="black" cx="130.67" cy="-387" rx="27" ry="18.3848"/>
<text text-anchor="middle" x="130.67" y="-383.4" font-family="Times Roman,serif" font-size="14.00">q8</text>
</g>
<!-- q4&#45;&gt;q8 -->
<g id="edge10" class="edge"><title>q4&#45;&gt;q8</title>
<path fill="none" stroke="black" d="M126.881,-552.52C125.273,-529.336 123.351,-492.137 124.67,-460 125.27,-445.363 126.545,-429.116 127.766,-415.673"/>
<polygon fill="black" stroke="black" points="131.264,-415.862 128.72,-405.577 124.295,-415.203 131.264,-415.862"/>
<text text-anchor="middle" x="129.17" y="-475.4" font-family="Times Roman,serif" font-size="14.00">b</text>
</g>
<!-- q5 -->
<g id="node13" class="node"><title>q5</title>
<ellipse fill="none" stroke="black" cx="169.67" cy="-479" rx="27" ry="18.3848"/>
<text text-anchor="middle" x="169.67" y="-475.4" font-family="Times Roman,serif" font-size="14.00">q5</text>
</g>
<!-- q4&#45;&gt;q5 -->
<g id="edge12" class="edge"><title>q4&#45;&gt;q5</title>
<path fill="none" stroke="black" d="M137.973,-553.216C143.942,-539.239 151.739,-520.984 158.106,-506.077"/>
<polygon fill="black" stroke="black" points="161.34,-507.414 162.049,-496.842 154.903,-504.664 161.34,-507.414"/>
<text text-anchor="middle" x="157.17" y="-521.4" font-family="Times Roman,serif" font-size="14.00">a</text>
</g>
<!-- q8&#45;&gt;q5 -->
<g id="edge22" class="edge"><title>q8&#45;&gt;q5</title>
<path fill="none" stroke="black" d="M138.979,-404.61C141.804,-410.72 144.936,-417.634 147.67,-424 151.502,-432.926 155.502,-442.752 159.023,-451.599"/>
<polygon fill="black" stroke="black" points="155.835,-453.055 162.761,-461.072 162.346,-450.486 155.835,-453.055"/>
<text text-anchor="middle" x="158.17" y="-429.4" font-family="Times Roman,serif" font-size="14.00">b</text>
</g>
<!-- q9 -->
<g id="node20" class="node"><title>q9</title>
<ellipse fill="none" stroke="black" cx="130.67" cy="-295" rx="27" ry="18.3848"/>
<text text-anchor="middle" x="130.67" y="-291.4" font-family="Times Roman,serif" font-size="14.00">q9</text>
</g>
<!-- q8&#45;&gt;q9 -->
<g id="edge24" class="edge"><title>q8&#45;&gt;q9</title>
<path fill="none" stroke="black" d="M130.67,-368.382C130.67,-355.538 130.67,-338.216 130.67,-323.627"/>
<polygon fill="black" stroke="black" points="134.17,-323.59 130.67,-313.59 127.17,-323.59 134.17,-323.59"/>
<text text-anchor="middle" x="135.17" y="-337.4" font-family="Times Roman,serif" font-size="14.00">a</text>
</g>
<!-- q5&#45;&gt;q10 -->
<g id="edge16" class="edge"><title>q5&#45;&gt;q10</title>
<path fill="none" stroke="black" d="M188.797,-465.813C209.523,-449.802 239.67,-420.717 239.67,-387 239.67,-387 239.67,-387 239.67,-111 239.67,-73.0015 200.288,-47.0395 169.761,-32.623"/>
<polygon fill="black" stroke="black" points="171.181,-29.424 160.625,-28.519 168.312,-35.8093 171.181,-29.424"/>
<text text-anchor="middle" x="244.17" y="-245.4" font-family="Times Roman,serif" font-size="14.00">a</text>
</g>
<!-- q5&#45;&gt;q8 -->
<g id="edge14" class="edge"><title>q5&#45;&gt;q8</title>
<path fill="none" stroke="black" d="M153.628,-463.771C148.015,-457.553 142.231,-449.955 138.67,-442 135.026,-433.861 132.97,-424.43 131.831,-415.7"/>
<polygon fill="black" stroke="black" points="135.295,-415.153 130.851,-405.535 128.327,-415.825 135.295,-415.153"/>
<text text-anchor="middle" x="143.17" y="-429.4" font-family="Times Roman,serif" font-size="14.00">b</text>
</g>
<!-- q9&#45;&gt;q3 -->
<g id="edge26" class="edge"><title>q9&#45;&gt;q3</title>
<path fill="none" stroke="black" d="M128.848,-276.382C127.592,-263.538 125.897,-246.216 124.47,-231.627"/>
<polygon fill="black" stroke="black" points="127.945,-231.202 123.488,-221.59 120.978,-231.883 127.945,-231.202"/>
<text text-anchor="middle" x="131.17" y="-245.4" font-family="Times Roman,serif" font-size="14.00">b</text>
</g>
<!-- q9&#45;&gt;q5 -->
<g id="edge28" class="edge"><title>q9&#45;&gt;q5</title>
<path fill="none" stroke="black" d="M141.803,-312.175C150.398,-326.472 161.646,-347.699 166.67,-368 173.426,-395.302 173.456,-427.536 172.231,-450.214"/>
<polygon fill="black" stroke="black" points="168.738,-450.005 171.577,-460.212 175.723,-450.462 168.738,-450.005"/>
<text text-anchor="middle" x="176.17" y="-383.4" font-family="Times Roman,serif" font-size="14.00">a</text>
</g>
</g>
</svg>
