<?xml version="1.0" encoding="UTF-8" standalone="no"?>
<!DOCTYPE svg PUBLIC "-//W3C//DTD SVG 1.1//EN"
 "http://www.w3.org/Graphics/SVG/1.1/DTD/svg11.dtd">
<!-- Generated by graphviz version 2.26.3 (20100126.1600)
 -->
<!-- Title: G Pages: 1 -->
<svg width="174pt" height="330pt"
 viewBox="0.00 0.00 174.00 330.00" xmlns="http://www.w3.org/2000/svg" xmlns:xlink="http://www.w3.org/1999/xlink">
<g id="graph1" class="graph" transform="scale(1 1) rotate(0) translate(4 326)">
<title>G</title>
<polygon fill="white" stroke="white" points="-4,5 -4,-326 171,-326 171,5 -4,5"/>
<!-- q1 -->
<g id="node1" class="node"><title>q1</title>
<ellipse fill="none" stroke="black" cx="135" cy="-300" rx="27" ry="18"/>
<ellipse fill="none" stroke="black" cx="135" cy="-300" rx="31" ry="22"/>
<text text-anchor="middle" x="135" y="-295.9" font-family="Times Roman,serif" font-size="14.00">q1</text>
</g>
<!-- q0 -->
<g id="node3" class="node"><title>q0</title>
<ellipse fill="none" stroke="darkred" cx="53" cy="-206" rx="27" ry="18"/>
<text text-anchor="middle" x="53" y="-201.9" font-family="Times Roman,serif" font-size="14.00">q0</text>
</g>
<!-- q1&#45;&gt;q0 -->
<g id="edge2" class="edge"><title>q1&#45;&gt;q0</title>
<path fill="none" stroke="black" d="M118.406,-280.978C105.414,-266.085 87.2826,-245.3 73.4039,-229.39"/>
<polygon fill="black" stroke="black" points="75.795,-226.807 66.5838,-221.572 70.52,-231.408 75.795,-226.807"/>
<text text-anchor="middle" x="102.5" y="-246.9" font-family="Times Roman,serif" font-size="14.00">b</text>
</g>
<!-- q4 -->
<g id="node5" class="node"><title>q4</title>
<ellipse fill="none" stroke="black" cx="116" cy="-18" rx="27" ry="18"/>
<text text-anchor="middle" x="116" y="-13.9" font-family="Times Roman,serif" font-size="14.00">q4</text>
</g>
<!-- q1&#45;&gt;q4 -->
<g id="edge4" class="edge"><title>q1&#45;&gt;q4</title>
<path fill="none" stroke="black" d="M133.509,-277.872C130.097,-227.234 121.724,-102.958 117.927,-46.6079"/>
<polygon fill="black" stroke="black" points="121.396,-46.0276 117.232,-36.2855 114.412,-46.4982 121.396,-46.0276"/>
<text text-anchor="middle" x="130.5" y="-156.9" font-family="Times Roman,serif" font-size="14.00">a</text>
</g>
<!-- q0&#45;&gt;q0 -->
<g id="edge16" class="edge"><title>q0&#45;&gt;q0</title>
<path fill="none" stroke="black" d="M77.5325,-214.121C88.5078,-214.895 98,-212.188 98,-206 98,-201.843 93.7151,-199.257 87.5743,-198.242"/>
<polygon fill="black" stroke="black" points="87.6524,-194.742 77.5325,-197.879 87.3995,-201.738 87.6524,-194.742"/>
<text text-anchor="middle" x="102.5" y="-201.9" font-family="Times Roman,serif" font-size="14.00">a</text>
</g>
<!-- q3 -->
<g id="node8" class="node"><title>q3</title>
<ellipse fill="none" stroke="black" cx="31" cy="-112" rx="27" ry="18"/>
<ellipse fill="none" stroke="black" cx="31" cy="-112" rx="31" ry="22"/>
<text text-anchor="middle" x="31" y="-107.9" font-family="Times Roman,serif" font-size="14.00">q3</text>
</g>
<!-- q0&#45;&gt;q3 -->
<g id="edge14" class="edge"><title>q0&#45;&gt;q3</title>
<path fill="none" stroke="black" d="M38.7202,-190.714C34.0385,-184.717 29.4194,-177.482 27,-170 24.3286,-161.739 23.9042,-152.48 24.5183,-143.828"/>
<polygon fill="black" stroke="black" points="28.0196,-144.02 25.7013,-133.682 21.0667,-143.209 28.0196,-144.02"/>
<text text-anchor="middle" x="31.5" y="-156.9" font-family="Times Roman,serif" font-size="14.00">b</text>
</g>
<!-- q4&#45;&gt;q1 -->
<g id="edge6" class="edge"><title>q4&#45;&gt;q1</title>
<path fill="none" stroke="black" d="M125.606,-35.0993C128.46,-40.9267 131.28,-47.5914 133,-54 154.699,-134.865 142.677,-158.307 145,-242 145.222,-249.997 145.977,-252.06 145,-260 144.667,-262.704 144.212,-265.488 143.679,-268.269"/>
<polygon fill="black" stroke="black" points="140.23,-267.655 141.482,-278.176 147.064,-269.171 140.23,-267.655"/>
<text text-anchor="middle" x="150.5" y="-156.9" font-family="Times Roman,serif" font-size="14.00">b</text>
</g>
<!-- q4&#45;&gt;q0 -->
<g id="edge8" class="edge"><title>q4&#45;&gt;q0</title>
<path fill="none" stroke="black" d="M110.043,-35.7765C98.9975,-68.7375 75.2751,-139.528 62.1694,-178.637"/>
<polygon fill="black" stroke="black" points="58.7857,-177.72 58.9269,-188.313 65.423,-179.944 58.7857,-177.72"/>
<text text-anchor="middle" x="95.5" y="-107.9" font-family="Times Roman,serif" font-size="14.00">a</text>
</g>
<!-- q3&#45;&gt;q0 -->
<g id="edge10" class="edge"><title>q3&#45;&gt;q0</title>
<path fill="none" stroke="black" d="M36.158,-134.039C39.2139,-147.096 43.1172,-163.773 46.3965,-177.785"/>
<polygon fill="black" stroke="black" points="43.0714,-178.937 48.7582,-187.876 49.8872,-177.341 43.0714,-178.937"/>
<text text-anchor="middle" x="47.5" y="-156.9" font-family="Times Roman,serif" font-size="14.00">b</text>
</g>
<!-- q3&#45;&gt;q4 -->
<g id="edge12" class="edge"><title>q3&#45;&gt;q4</title>
<path fill="none" stroke="black" d="M44.54,-92.151C52.8051,-80.5682 63.8908,-65.934 75,-54 79.8568,-48.7826 85.4009,-43.5219 90.8086,-38.6942"/>
<polygon fill="black" stroke="black" points="93.2795,-41.1841 98.5379,-31.9863 88.6914,-35.8974 93.2795,-41.1841"/>
<text text-anchor="middle" x="79.5" y="-58.9" font-family="Times Roman,serif" font-size="14.00">a</text>
</g>
</g>
</svg>
