<?xml version="1.0" encoding="UTF-8" standalone="no"?>
<!DOCTYPE svg PUBLIC "-//W3C//DTD SVG 1.1//EN"
 "http://www.w3.org/Graphics/SVG/1.1/DTD/svg11.dtd">
<!-- Generated by graphviz version 2.26.3 (20100126.1600)
 -->
<!-- Title: G Pages: 1 -->
<svg width="211pt" height="414pt"
 viewBox="0.00 0.00 211.00 414.00" xmlns="http://www.w3.org/2000/svg" xmlns:xlink="http://www.w3.org/1999/xlink">
<g id="graph1" class="graph" transform="scale(1 1) rotate(0) translate(4 410)">
<title>G</title>
<polygon fill="white" stroke="white" points="-4,5 -4,-410 208,-410 208,5 -4,5"/>
<!-- q2 -->
<g id="node1" class="node"><title>q2</title>
<ellipse fill="none" stroke="black" cx="76" cy="-387" rx="27" ry="18.3848"/>
<text text-anchor="middle" x="76" y="-383.4" font-family="Times Roman,serif" font-size="14.00">q2</text>
</g>
<!-- q4 -->
<g id="node3" class="node"><title>q4</title>
<ellipse fill="none" stroke="black" cx="76" cy="-295" rx="27" ry="18.3848"/>
<text text-anchor="middle" x="76" y="-291.4" font-family="Times Roman,serif" font-size="14.00">q4</text>
</g>
<!-- q2&#45;&gt;q4 -->
<g id="edge2" class="edge"><title>q2&#45;&gt;q4</title>
<path fill="none" stroke="black" d="M76,-368.382C76,-355.538 76,-338.216 76,-323.627"/>
<polygon fill="black" stroke="black" points="79.5001,-323.59 76,-313.59 72.5001,-323.59 79.5001,-323.59"/>
<text text-anchor="middle" x="80.5" y="-337.4" font-family="Times Roman,serif" font-size="14.00">b</text>
</g>
<!-- q0 -->
<g id="node5" class="node"><title>q0</title>
<ellipse fill="none" stroke="black" cx="76" cy="-19" rx="27" ry="18.3848"/>
<text text-anchor="middle" x="76" y="-15.4" font-family="Times Roman,serif" font-size="14.00">q0</text>
</g>
<!-- q2&#45;&gt;q0 -->
<g id="edge4" class="edge"><title>q2&#45;&gt;q0</title>
<path fill="none" stroke="black" d="M55.6334,-374.477C33.1213,-358.892 0,-330.012 0,-295 0,-295 0,-295 0,-111 0,-80.0908 25.8133,-53.9613 47.3523,-37.5386"/>
<polygon fill="black" stroke="black" points="49.5996,-40.2321 55.6334,-31.5232 45.4856,-34.5686 49.5996,-40.2321"/>
<text text-anchor="middle" x="4.5" y="-199.4" font-family="Times Roman,serif" font-size="14.00">a</text>
</g>
<!-- q4&#45;&gt;q0 -->
<g id="edge12" class="edge"><title>q4&#45;&gt;q0</title>
<path fill="none" stroke="black" d="M68.6411,-277.102C58.1646,-249.627 40.6692,-195.272 45,-148 48.7936,-106.592 50.8199,-96.0499 62,-56 62.8864,-52.8247 63.9326,-49.5394 65.0475,-46.2969"/>
<polygon fill="black" stroke="black" points="68.3544,-47.4447 68.5072,-36.8509 61.7814,-45.0372 68.3544,-47.4447"/>
<text text-anchor="middle" x="49.5" y="-153.4" font-family="Times Roman,serif" font-size="14.00">a</text>
</g>
<!-- q1 -->
<g id="node6" class="node"><title>q1</title>
<ellipse fill="none" stroke="black" cx="131" cy="-203" rx="27" ry="18.3848"/>
<text text-anchor="middle" x="131" y="-199.4" font-family="Times Roman,serif" font-size="14.00">q1</text>
</g>
<!-- q4&#45;&gt;q1 -->
<g id="edge10" class="edge"><title>q4&#45;&gt;q1</title>
<path fill="none" stroke="black" d="M86.3451,-277.696C94.565,-263.946 106.189,-244.501 115.518,-228.898"/>
<polygon fill="black" stroke="black" points="118.574,-230.606 120.701,-220.227 112.566,-227.014 118.574,-230.606"/>
<text text-anchor="middle" x="112.5" y="-245.4" font-family="Times Roman,serif" font-size="14.00">b</text>
</g>
<!-- q0&#45;&gt;q4 -->
<g id="edge20" class="edge"><title>q0&#45;&gt;q4</title>
<path fill="none" stroke="black" d="M76,-37.8205C76,-85.2508 76,-209.914 76,-266.424"/>
<polygon fill="black" stroke="black" points="72.5001,-266.462 76,-276.462 79.5001,-266.462 72.5001,-266.462"/>
<text text-anchor="middle" x="80.5" y="-153.4" font-family="Times Roman,serif" font-size="14.00">a</text>
</g>
<!-- q0&#45;&gt;q0 -->
<g id="edge18" class="edge"><title>q0&#45;&gt;q0</title>
<path fill="none" stroke="black" d="M100.074,-27.4544C111.242,-28.3767 121,-25.5586 121,-19 121,-14.5934 116.595,-11.8754 110.317,-10.8458"/>
<polygon fill="black" stroke="black" points="110.173,-7.34018 100.074,-10.5456 109.967,-14.3372 110.173,-7.34018"/>
<text text-anchor="middle" x="125.5" y="-15.4" font-family="Times Roman,serif" font-size="14.00">b</text>
</g>
<!-- q1&#45;&gt;q0 -->
<g id="edge8" class="edge"><title>q1&#45;&gt;q0</title>
<path fill="none" stroke="black" d="M126.469,-184.738C119.409,-156.788 105.025,-101.82 90,-56 88.9728,-52.8674 87.8386,-49.6088 86.6737,-46.3815"/>
<polygon fill="black" stroke="black" points="89.9319,-45.1015 83.1628,-36.951 83.3717,-47.5438 89.9319,-45.1015"/>
<text text-anchor="middle" x="115.5" y="-107.4" font-family="Times Roman,serif" font-size="14.00">a</text>
</g>
<!-- q3 -->
<g id="node8" class="node"><title>q3</title>
<ellipse fill="none" stroke="black" cx="176" cy="-111" rx="27" ry="18.3848"/>
<text text-anchor="middle" x="176" y="-107.4" font-family="Times Roman,serif" font-size="14.00">q3</text>
</g>
<!-- q1&#45;&gt;q3 -->
<g id="edge6" class="edge"><title>q1&#45;&gt;q3</title>
<path fill="none" stroke="black" d="M139.676,-185.261C146.275,-171.77 155.464,-152.984 162.949,-137.683"/>
<polygon fill="black" stroke="black" points="166.1,-139.205 167.35,-128.684 159.812,-136.129 166.1,-139.205"/>
<text text-anchor="middle" x="161.5" y="-153.4" font-family="Times Roman,serif" font-size="14.00">b</text>
</g>
<!-- q3&#45;&gt;q2 -->
<g id="edge16" class="edge"><title>q3&#45;&gt;q2</title>
<path fill="none" stroke="black" d="M176.844,-129.509C177.335,-151.906 176.476,-190.528 167,-222 150.948,-275.314 116.017,-330.67 94.4049,-361.787"/>
<polygon fill="black" stroke="black" points="91.3271,-360.078 88.4252,-370.268 97.0481,-364.112 91.3271,-360.078"/>
<text text-anchor="middle" x="164.5" y="-245.4" font-family="Times Roman,serif" font-size="14.00">a</text>
</g>
<!-- q3&#45;&gt;q0 -->
<g id="edge14" class="edge"><title>q3&#45;&gt;q0</title>
<path fill="none" stroke="black" d="M165.957,-93.7745C158.642,-82.1911 147.952,-67.0739 136,-56 127.34,-47.9761 116.687,-40.7454 106.772,-34.8496"/>
<polygon fill="black" stroke="black" points="108.374,-31.7343 97.9526,-29.8258 104.909,-37.8167 108.374,-31.7343"/>
<text text-anchor="middle" x="156.5" y="-61.4" font-family="Times Roman,serif" font-size="14.00">b</text>
</g>
</g>
</svg>
