<?xml version="1.0" encoding="UTF-8" standalone="no"?>
<!DOCTYPE svg PUBLIC "-//W3C//DTD SVG 1.1//EN"
 "http://www.w3.org/Graphics/SVG/1.1/DTD/svg11.dtd">
<!-- Generated by graphviz version 2.26.3 (20100126.1600)
 -->
<!-- Title: G Pages: 1 -->
<svg width="233pt" height="510pt"
 viewBox="0.00 0.00 233.00 510.00" xmlns="http://www.w3.org/2000/svg" xmlns:xlink="http://www.w3.org/1999/xlink">
<g id="graph1" class="graph" transform="scale(1 1) rotate(0) translate(4 506)">
<title>G</title>
<polygon fill="white" stroke="white" points="-4,5 -4,-506 230,-506 230,5 -4,5"/>
<!-- q6 -->
<g id="node1" class="node"><title>q6</title>
<ellipse fill="none" stroke="black" cx="27" cy="-386" rx="27" ry="18"/>
<text text-anchor="middle" x="27" y="-381.9" font-family="Times Roman,serif" font-size="14.00">q6</text>
</g>
<!-- q3 -->
<g id="node3" class="node"><title>q3</title>
<ellipse fill="none" stroke="black" cx="90" cy="-296" rx="27" ry="18"/>
<text text-anchor="middle" x="90" y="-291.9" font-family="Times Roman,serif" font-size="14.00">q3</text>
</g>
<!-- q6&#45;&gt;q3 -->
<g id="edge2" class="edge"><title>q6&#45;&gt;q3</title>
<path fill="none" stroke="black" d="M38.5552,-369.493C48.0575,-355.918 61.6733,-336.467 72.5105,-320.985"/>
<polygon fill="black" stroke="black" points="75.6507,-322.602 78.5181,-312.403 69.9161,-318.588 75.6507,-322.602"/>
<text text-anchor="middle" x="69.5" y="-336.9" font-family="Times Roman,serif" font-size="14.00">b</text>
</g>
<!-- q4 -->
<g id="node5" class="node"><title>q4</title>
<ellipse fill="none" stroke="black" cx="73" cy="-116" rx="27" ry="18"/>
<text text-anchor="middle" x="73" y="-111.9" font-family="Times Roman,serif" font-size="14.00">q4</text>
</g>
<!-- q6&#45;&gt;q4 -->
<g id="edge4" class="edge"><title>q6&#45;&gt;q4</title>
<path fill="none" stroke="black" d="M30.0896,-367.865C37.9458,-321.753 58.7309,-199.754 68.1902,-144.232"/>
<polygon fill="black" stroke="black" points="71.6945,-144.502 69.9238,-134.056 64.794,-143.326 71.6945,-144.502"/>
<text text-anchor="middle" x="56.5" y="-246.9" font-family="Times Roman,serif" font-size="14.00">a</text>
</g>
<!-- q2 -->
<g id="node10" class="node"><title>q2</title>
<ellipse fill="none" stroke="black" cx="122" cy="-206" rx="27" ry="18"/>
<text text-anchor="middle" x="122" y="-201.9" font-family="Times Roman,serif" font-size="14.00">q2</text>
</g>
<!-- q3&#45;&gt;q2 -->
<g id="edge22" class="edge"><title>q3&#45;&gt;q2</title>
<path fill="none" stroke="black" d="M96.3222,-278.219C100.88,-265.399 107.117,-247.858 112.303,-233.274"/>
<polygon fill="black" stroke="black" points="115.639,-234.339 115.691,-223.744 109.043,-231.994 115.639,-234.339"/>
<text text-anchor="middle" x="112.5" y="-246.9" font-family="Times Roman,serif" font-size="14.00">b</text>
</g>
<!-- q3&#45;&gt;q2 -->
<g id="edge24" class="edge"><title>q3&#45;&gt;q2</title>
<path fill="none" stroke="black" d="M87.3285,-277.909C86.4623,-267.135 86.6522,-253.388 91,-242 92.8644,-237.117 95.7056,-232.445 98.9256,-228.179"/>
<polygon fill="black" stroke="black" points="101.619,-230.415 105.428,-220.528 96.2849,-225.882 101.619,-230.415"/>
<text text-anchor="middle" x="95.5" y="-246.9" font-family="Times Roman,serif" font-size="14.00">a</text>
</g>
<!-- q4&#45;&gt;q3 -->
<g id="edge20" class="edge"><title>q4&#45;&gt;q3</title>
<path fill="none" stroke="black" d="M72.9632,-134.011C73.0819,-155.491 73.8001,-192.453 77,-224 78.6369,-240.138 80.1184,-244.037 83,-260 83.4818,-262.669 83.997,-265.446 84.5213,-268.222"/>
<polygon fill="black" stroke="black" points="81.09,-268.914 86.4156,-278.073 87.9641,-267.592 81.09,-268.914"/>
<text text-anchor="middle" x="81.5" y="-201.9" font-family="Times Roman,serif" font-size="14.00">a</text>
</g>
<!-- q4&#45;&gt;q2 -->
<g id="edge18" class="edge"><title>q4&#45;&gt;q2</title>
<path fill="none" stroke="black" d="M86.2943,-131.881C90.99,-137.942 96.0738,-145.066 100,-152 104.711,-160.321 108.941,-169.852 112.403,-178.569"/>
<polygon fill="black" stroke="black" points="109.146,-179.851 115.97,-187.955 115.689,-177.364 109.146,-179.851"/>
<text text-anchor="middle" x="112.5" y="-156.9" font-family="Times Roman,serif" font-size="14.00">b</text>
</g>
<!-- q5 -->
<g id="node6" class="node"><title>q5</title>
<ellipse fill="none" stroke="black" cx="162" cy="-116" rx="27" ry="18"/>
<text text-anchor="middle" x="162" y="-111.9" font-family="Times Roman,serif" font-size="14.00">q5</text>
</g>
<!-- q1 -->
<g id="node8" class="node"><title>q1</title>
<ellipse fill="none" stroke="black" cx="194" cy="-22" rx="27" ry="18"/>
<ellipse fill="none" stroke="black" cx="194" cy="-22" rx="31" ry="22"/>
<text text-anchor="middle" x="194" y="-17.9" font-family="Times Roman,serif" font-size="14.00">q1</text>
</g>
<!-- q5&#45;&gt;q1 -->
<g id="edge6" class="edge"><title>q5&#45;&gt;q1</title>
<path fill="none" stroke="black" d="M168.019,-98.3193C172.314,-85.7017 178.208,-68.3903 183.296,-53.4444"/>
<polygon fill="black" stroke="black" points="186.75,-54.1563 186.66,-43.5618 180.124,-51.9004 186.75,-54.1563"/>
<text text-anchor="middle" x="183.5" y="-66.9" font-family="Times Roman,serif" font-size="14.00">b</text>
</g>
<!-- q5&#45;&gt;q2 -->
<g id="edge8" class="edge"><title>q5&#45;&gt;q2</title>
<path fill="none" stroke="black" d="M154.311,-133.3C148.507,-146.359 140.439,-164.513 133.817,-179.412"/>
<polygon fill="black" stroke="black" points="130.576,-178.087 129.712,-188.647 136.972,-180.93 130.576,-178.087"/>
<text text-anchor="middle" x="149.5" y="-156.9" font-family="Times Roman,serif" font-size="14.00">a</text>
</g>
<!-- q1&#45;&gt;q3 -->
<g id="edge16" class="edge"><title>q1&#45;&gt;q3</title>
<path fill="none" stroke="black" d="M197.93,-44.1639C201.244,-66.9585 204.503,-103.357 198,-134 188.913,-176.819 182.263,-187.567 158,-224 145.536,-242.715 128.06,-261.099 113.946,-274.606"/>
<polygon fill="black" stroke="black" points="111.408,-272.188 106.504,-281.58 116.194,-277.296 111.408,-272.188"/>
<text text-anchor="middle" x="197.5" y="-156.9" font-family="Times Roman,serif" font-size="14.00">a</text>
</g>
<!-- q1&#45;&gt;q5 -->
<g id="edge14" class="edge"><title>q1&#45;&gt;q5</title>
<path fill="none" stroke="black" d="M176.095,-40.0219C170.865,-46.4317 165.804,-54.0454 163,-62 160.151,-70.0833 159.208,-79.2786 159.175,-87.7613"/>
<polygon fill="black" stroke="black" points="155.685,-88.12 159.543,-97.9876 162.681,-87.8681 155.685,-88.12"/>
<text text-anchor="middle" x="167.5" y="-66.9" font-family="Times Roman,serif" font-size="14.00">b</text>
</g>
<!-- q2&#45;&gt;q4 -->
<g id="edge10" class="edge"><title>q2&#45;&gt;q4</title>
<path fill="none" stroke="black" d="M106.671,-190.886C101.145,-184.8 95.2348,-177.46 91,-170 86.4414,-161.97 82.8126,-152.608 80.0421,-143.956"/>
<polygon fill="black" stroke="black" points="83.365,-142.85 77.1798,-134.248 76.6508,-144.83 83.365,-142.85"/>
<text text-anchor="middle" x="95.5" y="-156.9" font-family="Times Roman,serif" font-size="14.00">b</text>
</g>
<!-- q2&#45;&gt;q5 -->
<g id="edge12" class="edge"><title>q2&#45;&gt;q5</title>
<path fill="none" stroke="black" d="M140.197,-192.517C146.995,-186.441 154.023,-178.678 158,-170 161.619,-162.101 163.147,-152.868 163.621,-144.292"/>
<polygon fill="black" stroke="black" points="167.12,-144.336 163.747,-134.293 160.121,-144.248 167.12,-144.336"/>
<text text-anchor="middle" x="166.5" y="-156.9" font-family="Times Roman,serif" font-size="14.00">a</text>
</g>
<!-- q0 -->
<g id="node19" class="node"><title>q0</title>
<ellipse fill="none" stroke="black" cx="68" cy="-480" rx="27" ry="18"/>
<ellipse fill="none" stroke="black" cx="68" cy="-480" rx="31" ry="22"/>
<text text-anchor="middle" x="68" y="-475.9" font-family="Times Roman,serif" font-size="14.00">q0</text>
</g>
<!-- q0&#45;&gt;q6 -->
<g id="edge28" class="edge"><title>q0&#45;&gt;q6</title>
<path fill="none" stroke="black" d="M58.6965,-458.67C52.784,-445.114 45.079,-427.449 38.7463,-412.93"/>
<polygon fill="black" stroke="black" points="41.8263,-411.237 34.6202,-403.471 35.4101,-414.036 41.8263,-411.237"/>
<text text-anchor="middle" x="54.5" y="-426.9" font-family="Times Roman,serif" font-size="14.00">a</text>
</g>
<!-- q0&#45;&gt;q3 -->
<g id="edge26" class="edge"><title>q0&#45;&gt;q3</title>
<path fill="none" stroke="black" d="M70.6537,-457.805C74.6583,-424.312 82.2432,-360.875 86.632,-324.169"/>
<polygon fill="black" stroke="black" points="90.1197,-324.48 87.8317,-314.135 83.1692,-323.649 90.1197,-324.48"/>
<text text-anchor="middle" x="85.5" y="-381.9" font-family="Times Roman,serif" font-size="14.00">b</text>
</g>
</g>
</svg>
