<?xml version="1.0" encoding="UTF-8" standalone="no"?>
<!DOCTYPE svg PUBLIC "-//W3C//DTD SVG 1.1//EN"
 "http://www.w3.org/Graphics/SVG/1.1/DTD/svg11.dtd">
<!-- Generated by graphviz version 2.26.3 (20100126.1600)
 -->
<!-- Title: G Pages: 1 -->
<svg width="141pt" height="414pt"
 viewBox="0.00 0.00 141.00 414.00" xmlns="http://www.w3.org/2000/svg" xmlns:xlink="http://www.w3.org/1999/xlink">
<g id="graph1" class="graph" transform="scale(1 1) rotate(0) translate(4 410)">
<title>G</title>
<polygon fill="white" stroke="white" points="-4,5 -4,-410 138,-410 138,5 -4,5"/>
<!-- q2 -->
<g id="node1" class="node"><title>q2</title>
<ellipse fill="none" stroke="black" cx="77" cy="-387" rx="27" ry="18.3848"/>
<text text-anchor="middle" x="77" y="-383.4" font-family="Times Roman,serif" font-size="14.00">q2</text>
</g>
<!-- q4 -->
<g id="node3" class="node"><title>q4</title>
<ellipse fill="none" stroke="black" cx="27" cy="-295" rx="27" ry="18.3848"/>
<text text-anchor="middle" x="27" y="-291.4" font-family="Times Roman,serif" font-size="14.00">q4</text>
</g>
<!-- q2&#45;&gt;q4 -->
<g id="edge2" class="edge"><title>q2&#45;&gt;q4</title>
<path fill="none" stroke="black" d="M56.3489,-374.743C47.6673,-368.474 38.3561,-360.039 33,-350 28.7426,-342.021 26.8053,-332.471 26.0573,-323.585"/>
<polygon fill="black" stroke="black" points="29.5546,-323.445 25.6579,-313.593 22.5602,-323.725 29.5546,-323.445"/>
<text text-anchor="middle" x="37.5" y="-337.4" font-family="Times Roman,serif" font-size="14.00">b</text>
</g>
<!-- q0 -->
<g id="node5" class="node"><title>q0</title>
<ellipse fill="none" stroke="black" cx="45" cy="-203" rx="27" ry="18.3848"/>
<text text-anchor="middle" x="45" y="-199.4" font-family="Times Roman,serif" font-size="14.00">q0</text>
</g>
<!-- q2&#45;&gt;q0 -->
<g id="edge4" class="edge"><title>q2&#45;&gt;q0</title>
<path fill="none" stroke="black" d="M75.3248,-368.436C73.1748,-346.311 68.9933,-308.274 63,-276 60.2083,-260.966 56.2026,-244.406 52.6784,-230.864"/>
<polygon fill="black" stroke="black" points="56.0542,-229.939 50.1054,-221.172 49.2886,-231.736 56.0542,-229.939"/>
<text text-anchor="middle" x="72.5" y="-291.4" font-family="Times Roman,serif" font-size="14.00">a</text>
</g>
<!-- q4&#45;&gt;q2 -->
<g id="edge10" class="edge"><title>q4&#45;&gt;q2</title>
<path fill="none" stroke="black" d="M36.4413,-312.372C43.7674,-325.852 54.0522,-344.776 62.4318,-360.194"/>
<polygon fill="black" stroke="black" points="59.5091,-362.147 67.3595,-369.261 65.6595,-358.804 59.5091,-362.147"/>
<text text-anchor="middle" x="60.5" y="-337.4" font-family="Times Roman,serif" font-size="14.00">b</text>
</g>
<!-- q4&#45;&gt;q0 -->
<g id="edge12" class="edge"><title>q4&#45;&gt;q0</title>
<path fill="none" stroke="black" d="M30.6426,-276.382C33.1555,-263.538 36.5447,-246.216 39.3991,-231.627"/>
<polygon fill="black" stroke="black" points="42.8775,-232.076 41.3628,-221.59 36.0078,-230.732 42.8775,-232.076"/>
<text text-anchor="middle" x="41.5" y="-245.4" font-family="Times Roman,serif" font-size="14.00">a</text>
</g>
<!-- q0&#45;&gt;q0 -->
<g id="edge20" class="edge"><title>q0&#45;&gt;q0</title>
<path fill="none" stroke="black" d="M69.0743,-211.454C80.2423,-212.377 90,-209.559 90,-203 90,-198.593 85.5952,-195.875 79.3174,-194.846"/>
<polygon fill="black" stroke="black" points="79.1726,-191.34 69.0743,-194.546 78.9674,-198.337 79.1726,-191.34"/>
<text text-anchor="middle" x="94.5" y="-199.4" font-family="Times Roman,serif" font-size="14.00">a</text>
</g>
<!-- q3 -->
<g id="node11" class="node"><title>q3</title>
<ellipse fill="none" stroke="black" cx="106" cy="-111" rx="27" ry="18.3848"/>
<text text-anchor="middle" x="106" y="-107.4" font-family="Times Roman,serif" font-size="14.00">q3</text>
</g>
<!-- q0&#45;&gt;q3 -->
<g id="edge18" class="edge"><title>q0&#45;&gt;q3</title>
<path fill="none" stroke="black" d="M56.1883,-186.126C65.3315,-172.336 78.4079,-152.614 88.8686,-136.837"/>
<polygon fill="black" stroke="black" points="92.0669,-138.347 94.676,-128.079 86.2328,-134.479 92.0669,-138.347"/>
<text text-anchor="middle" x="84.5" y="-153.4" font-family="Times Roman,serif" font-size="14.00">b</text>
</g>
<!-- q1 -->
<g id="node6" class="node"><title>q1</title>
<ellipse fill="none" stroke="black" cx="52" cy="-19" rx="27" ry="18.3848"/>
<text text-anchor="middle" x="52" y="-15.4" font-family="Times Roman,serif" font-size="14.00">q1</text>
</g>
<!-- q1&#45;&gt;q0 -->
<g id="edge6" class="edge"><title>q1&#45;&gt;q0</title>
<path fill="none" stroke="black" d="M42.2733,-36.3529C34.7903,-50.7527 25.0643,-72.0313 21,-92 15.1689,-120.649 24.146,-153.353 32.7325,-175.801"/>
<polygon fill="black" stroke="black" points="29.5983,-177.386 36.5955,-185.341 36.0866,-174.759 29.5983,-177.386"/>
<text text-anchor="middle" x="26.5" y="-107.4" font-family="Times Roman,serif" font-size="14.00">b</text>
</g>
<!-- q1&#45;&gt;q0 -->
<g id="edge8" class="edge"><title>q1&#45;&gt;q0</title>
<path fill="none" stroke="black" d="M51.2884,-37.7049C50.066,-69.8374 47.5589,-135.739 46.1067,-173.91"/>
<polygon fill="black" stroke="black" points="42.5925,-174.219 45.7097,-184.345 49.5874,-174.485 42.5925,-174.219"/>
<text text-anchor="middle" x="53.5" y="-107.4" font-family="Times Roman,serif" font-size="14.00">a</text>
</g>
<!-- q3&#45;&gt;q2 -->
<g id="edge16" class="edge"><title>q3&#45;&gt;q2</title>
<path fill="none" stroke="black" d="M106.65,-129.6C107.132,-144.35 107.747,-165.491 108,-184 108.231,-200.887 109.436,-205.172 108,-222 103.093,-279.514 97.7172,-293.479 86,-350 85.4087,-352.852 84.7543,-355.819 84.0761,-358.776"/>
<polygon fill="black" stroke="black" points="80.6455,-358.074 81.7354,-368.612 87.4554,-359.694 80.6455,-358.074"/>
<text text-anchor="middle" x="110.5" y="-245.4" font-family="Times Roman,serif" font-size="14.00">a</text>
</g>
<!-- q3&#45;&gt;q1 -->
<g id="edge14" class="edge"><title>q3&#45;&gt;q1</title>
<path fill="none" stroke="black" d="M95.843,-93.6955C87.7726,-79.9459 76.3594,-60.5012 67.2009,-44.8979"/>
<polygon fill="black" stroke="black" points="70.192,-43.0794 62.1114,-36.2269 64.155,-46.6228 70.192,-43.0794"/>
<text text-anchor="middle" x="87.5" y="-61.4" font-family="Times Roman,serif" font-size="14.00">b</text>
</g>
</g>
</svg>
