<?xml version="1.0" encoding="UTF-8" standalone="no"?>
<!DOCTYPE svg PUBLIC "-//W3C//DTD SVG 1.1//EN"
 "http://www.w3.org/Graphics/SVG/1.1/DTD/svg11.dtd">
<!-- Generated by graphviz version 2.26.3 (20100126.1600)
 -->
<!-- Title: G Pages: 1 -->
<svg width="188pt" height="230pt"
 viewBox="0.00 0.00 187.61 230.00" xmlns="http://www.w3.org/2000/svg" xmlns:xlink="http://www.w3.org/1999/xlink">
<g id="graph1" class="graph" transform="scale(1 1) rotate(0) translate(4 226)">
<title>G</title>
<polygon fill="white" stroke="white" points="-4,5 -4,-226 184.606,-226 184.606,5 -4,5"/>
<!-- q2 -->
<g id="node1" class="node"><title>q2</title>
<ellipse fill="none" stroke="black" cx="89.6064" cy="-203" rx="27" ry="18.3848"/>
<text text-anchor="middle" x="89.6064" y="-199.4" font-family="Times Roman,serif" font-size="14.00">q2</text>
</g>
<!-- q1 -->
<g id="node3" class="node"><title>q1</title>
<ellipse fill="none" stroke="black" cx="57.6064" cy="-111" rx="27" ry="18.3848"/>
<text text-anchor="middle" x="57.6064" y="-107.4" font-family="Times Roman,serif" font-size="14.00">q1</text>
</g>
<!-- q2&#45;&gt;q1 -->
<g id="edge2" class="edge"><title>q2&#45;&gt;q1</title>
<path fill="none" stroke="black" d="M73.0261,-187.992C67.347,-181.801 61.6585,-174.164 58.6064,-166 55.5391,-157.796 54.5412,-148.411 54.5236,-139.745"/>
<polygon fill="black" stroke="black" points="58.0245,-139.786 54.9151,-129.658 51.0298,-139.514 58.0245,-139.786"/>
<text text-anchor="middle" x="63.1064" y="-153.4" font-family="Times Roman,serif" font-size="14.00">b</text>
</g>
<!-- q2&#45;&gt;q1 -->
<g id="edge4" class="edge"><title>q2&#45;&gt;q1</title>
<path fill="none" stroke="black" d="M83.2842,-184.824C78.726,-171.719 72.4893,-153.789 67.3038,-138.88"/>
<polygon fill="black" stroke="black" points="70.5064,-137.434 63.9154,-129.138 63.8949,-139.733 70.5064,-137.434"/>
<text text-anchor="middle" x="80.1064" y="-153.4" font-family="Times Roman,serif" font-size="14.00">a</text>
</g>
<!-- q0 -->
<g id="node6" class="node"><title>q0</title>
<ellipse fill="none" stroke="black" cx="33.6064" cy="-19" rx="27" ry="18.3848"/>
<text text-anchor="middle" x="33.6064" y="-15.4" font-family="Times Roman,serif" font-size="14.00">q0</text>
</g>
<!-- q1&#45;&gt;q0 -->
<g id="edge6" class="edge"><title>q1&#45;&gt;q0</title>
<path fill="none" stroke="black" d="M34.1674,-101.68C22.4272,-95.6702 9.31351,-86.5957 2.60636,-74 -3.10887,-63.2671 1.95083,-51.5078 9.52011,-41.6273"/>
<polygon fill="black" stroke="black" points="12.3739,-43.679 16.2871,-33.8333 7.08816,-39.0897 12.3739,-43.679"/>
<text text-anchor="middle" x="7.10636" y="-61.4" font-family="Times Roman,serif" font-size="14.00">b</text>
</g>
<!-- q4 -->
<g id="node8" class="node"><title>q4</title>
<ellipse fill="none" stroke="black" cx="146.606" cy="-19" rx="27" ry="18.3848"/>
<text text-anchor="middle" x="146.606" y="-15.4" font-family="Times Roman,serif" font-size="14.00">q4</text>
</g>
<!-- q1&#45;&gt;q4 -->
<g id="edge8" class="edge"><title>q1&#45;&gt;q4</title>
<path fill="none" stroke="black" d="M56.4449,-92.4651C56.6629,-80.9077 58.761,-66.3223 66.6064,-56 69.8383,-51.7476 93.3401,-41.1283 114.041,-32.3517"/>
<polygon fill="black" stroke="black" points="115.405,-35.575 123.272,-28.4784 112.697,-29.1201 115.405,-35.575"/>
<text text-anchor="middle" x="71.1064" y="-61.4" font-family="Times Roman,serif" font-size="14.00">a</text>
</g>
<!-- q0&#45;&gt;q1 -->
<g id="edge18" class="edge"><title>q0&#45;&gt;q1</title>
<path fill="none" stroke="black" d="M31.5241,-37.4542C30.8902,-48.3114 31.1169,-62.1848 34.6064,-74 35.7779,-77.9669 37.4986,-81.9275 39.4802,-85.7034"/>
<polygon fill="black" stroke="black" points="36.6575,-87.8043 44.7797,-94.6074 42.6728,-84.2241 36.6575,-87.8043"/>
<text text-anchor="middle" x="39.1064" y="-61.4" font-family="Times Roman,serif" font-size="14.00">b</text>
</g>
<!-- q0&#45;&gt;q0 -->
<g id="edge20" class="edge"><title>q0&#45;&gt;q0</title>
<path fill="none" stroke="black" d="M57.6807,-27.4544C68.8487,-28.3767 78.6064,-25.5586 78.6064,-19 78.6064,-14.5934 74.2016,-11.8754 67.9237,-10.8458"/>
<polygon fill="black" stroke="black" points="67.779,-7.34018 57.6807,-10.5456 67.5738,-14.3372 67.779,-7.34018"/>
<text text-anchor="middle" x="83.1064" y="-15.4" font-family="Times Roman,serif" font-size="14.00">a</text>
</g>
<!-- q4&#45;&gt;q2 -->
<g id="edge12" class="edge"><title>q4&#45;&gt;q2</title>
<path fill="none" stroke="black" d="M155.484,-36.6254C165.526,-59.1311 178.864,-98.8831 165.606,-130 155.931,-152.709 135.344,-171.758 118.034,-184.697"/>
<polygon fill="black" stroke="black" points="115.956,-181.881 109.862,-190.548 120.031,-187.572 115.956,-181.881"/>
<text text-anchor="middle" x="175.106" y="-107.4" font-family="Times Roman,serif" font-size="14.00">a</text>
</g>
<!-- q4&#45;&gt;q1 -->
<g id="edge10" class="edge"><title>q4&#45;&gt;q1</title>
<path fill="none" stroke="black" d="M126.922,-32.2885C117.825,-38.8878 107.167,-47.3003 98.6064,-56 89.9084,-64.8392 81.5032,-75.5869 74.5915,-85.2283"/>
<polygon fill="black" stroke="black" points="71.5441,-83.4796 68.6983,-93.6851 77.2872,-87.4817 71.5441,-83.4796"/>
<text text-anchor="middle" x="103.106" y="-61.4" font-family="Times Roman,serif" font-size="14.00">b</text>
</g>
<!-- q3 -->
<g id="node11" class="node"><title>q3</title>
<ellipse fill="none" stroke="black" cx="129.606" cy="-111" rx="27" ry="18.3848"/>
<text text-anchor="middle" x="129.606" y="-107.4" font-family="Times Roman,serif" font-size="14.00">q3</text>
</g>
<!-- q3&#45;&gt;q0 -->
<g id="edge14" class="edge"><title>q3&#45;&gt;q0</title>
<path fill="none" stroke="black" d="M125.808,-92.601C122.611,-80.953 117.007,-66.2167 107.606,-56 96.8594,-44.3202 81.6029,-35.8298 67.7321,-29.9515"/>
<polygon fill="black" stroke="black" points="69.0104,-26.6933 58.4231,-26.2921 66.4494,-33.208 69.0104,-26.6933"/>
<text text-anchor="middle" x="123.106" y="-61.4" font-family="Times Roman,serif" font-size="14.00">b</text>
</g>
<!-- q3&#45;&gt;q4 -->
<g id="edge16" class="edge"><title>q3&#45;&gt;q4</title>
<path fill="none" stroke="black" d="M135.094,-92.6737C136.722,-86.7544 138.393,-80.136 139.606,-74 141.274,-65.568 142.63,-56.3264 143.689,-47.866"/>
<polygon fill="black" stroke="black" points="147.194,-48.0243 144.872,-37.687 140.241,-47.216 147.194,-48.0243"/>
<text text-anchor="middle" x="146.106" y="-61.4" font-family="Times Roman,serif" font-size="14.00">a</text>
</g>
</g>
</svg>
