<?xml version="1.0" encoding="UTF-8" standalone="no"?>
<!DOCTYPE svg PUBLIC "-//W3C//DTD SVG 1.1//EN"
 "http://www.w3.org/Graphics/SVG/1.1/DTD/svg11.dtd">
<!-- Generated by graphviz version 2.26.3 (20100126.1600)
 -->
<!-- Title: G Pages: 1 -->
<svg width="171pt" height="502pt"
 viewBox="0.00 0.00 171.00 502.00" xmlns="http://www.w3.org/2000/svg" xmlns:xlink="http://www.w3.org/1999/xlink">
<g id="graph1" class="graph" transform="scale(1 1) rotate(0) translate(4 498)">
<title>G</title>
<polygon fill="white" stroke="white" points="-4,5 -4,-498 168,-498 168,5 -4,5"/>
<!-- q6 -->
<g id="node1" class="node"><title>q6</title>
<ellipse fill="none" stroke="black" cx="117" cy="-476" rx="27" ry="18"/>
<text text-anchor="middle" x="117" y="-471.9" font-family="Times Roman,serif" font-size="14.00">q6</text>
</g>
<!-- q7 -->
<g id="node3" class="node"><title>q7</title>
<ellipse fill="none" stroke="black" cx="27" cy="-386" rx="27" ry="18"/>
<text text-anchor="middle" x="27" y="-381.9" font-family="Times Roman,serif" font-size="14.00">q7</text>
</g>
<!-- q6&#45;&gt;q7 -->
<g id="edge2" class="edge"><title>q6&#45;&gt;q7</title>
<path fill="none" stroke="black" d="M101.733,-460.733C87.2939,-446.294 65.4629,-424.463 49.1189,-408.119"/>
<polygon fill="black" stroke="black" points="51.5878,-405.638 42.0418,-401.042 46.638,-410.588 51.5878,-405.638"/>
<text text-anchor="middle" x="85.5" y="-426.9" font-family="Times Roman,serif" font-size="14.00">b</text>
</g>
<!-- q4 -->
<g id="node5" class="node"><title>q4</title>
<ellipse fill="none" stroke="black" cx="64" cy="-296" rx="27" ry="18"/>
<text text-anchor="middle" x="64" y="-291.9" font-family="Times Roman,serif" font-size="14.00">q4</text>
</g>
<!-- q6&#45;&gt;q4 -->
<g id="edge4" class="edge"><title>q6&#45;&gt;q4</title>
<path fill="none" stroke="black" d="M113.063,-457.884C108.237,-436.304 99.5201,-399.245 90,-368 85.4316,-353.007 79.5542,-336.547 74.5436,-323.154"/>
<polygon fill="black" stroke="black" points="77.7339,-321.695 70.9169,-313.585 71.1883,-324.176 77.7339,-321.695"/>
<text text-anchor="middle" x="103.5" y="-381.9" font-family="Times Roman,serif" font-size="14.00">a</text>
</g>
<!-- q7&#45;&gt;q7 -->
<g id="edge8" class="edge"><title>q7&#45;&gt;q7</title>
<path fill="none" stroke="black" d="M51.5325,-394.121C62.5078,-394.895 72,-392.188 72,-386 72,-381.843 67.7151,-379.257 61.5743,-378.242"/>
<polygon fill="black" stroke="black" points="61.6524,-374.742 51.5325,-377.879 61.3995,-381.738 61.6524,-374.742"/>
<text text-anchor="middle" x="76.5" y="-381.9" font-family="Times Roman,serif" font-size="14.00">a</text>
</g>
<!-- q7&#45;&gt;q4 -->
<g id="edge6" class="edge"><title>q7&#45;&gt;q4</title>
<path fill="none" stroke="black" d="M34.31,-368.219C39.6146,-355.316 46.8853,-337.63 52.9039,-322.99"/>
<polygon fill="black" stroke="black" points="56.2658,-324.018 56.8311,-313.438 49.7916,-321.356 56.2658,-324.018"/>
<text text-anchor="middle" x="53.5" y="-336.9" font-family="Times Roman,serif" font-size="14.00">b</text>
</g>
<!-- q4&#45;&gt;q4 -->
<g id="edge16" class="edge"><title>q4&#45;&gt;q4</title>
<path fill="none" stroke="black" d="M88.5325,-304.121C99.5078,-304.895 109,-302.188 109,-296 109,-291.843 104.715,-289.257 98.5743,-288.242"/>
<polygon fill="black" stroke="black" points="98.6524,-284.742 88.5325,-287.879 98.3995,-291.738 98.6524,-284.742"/>
<text text-anchor="middle" x="113.5" y="-291.9" font-family="Times Roman,serif" font-size="14.00">a</text>
</g>
<!-- q2 -->
<g id="node8" class="node"><title>q2</title>
<ellipse fill="none" stroke="black" cx="90" cy="-206" rx="27" ry="18"/>
<text text-anchor="middle" x="90" y="-201.9" font-family="Times Roman,serif" font-size="14.00">q2</text>
</g>
<!-- q4&#45;&gt;q2 -->
<g id="edge14" class="edge"><title>q4&#45;&gt;q2</title>
<path fill="none" stroke="black" d="M69.1368,-278.219C72.8047,-265.522 77.8103,-248.195 81.999,-233.696"/>
<polygon fill="black" stroke="black" points="85.4609,-234.323 84.8739,-223.744 78.7359,-232.38 85.4609,-234.323"/>
<text text-anchor="middle" x="84.5" y="-246.9" font-family="Times Roman,serif" font-size="14.00">b</text>
</g>
<!-- q0 -->
<g id="node10" class="node"><title>q0</title>
<ellipse fill="none" stroke="black" cx="122" cy="-116" rx="27" ry="18"/>
<text text-anchor="middle" x="122" y="-111.9" font-family="Times Roman,serif" font-size="14.00">q0</text>
</g>
<!-- q2&#45;&gt;q0 -->
<g id="edge10" class="edge"><title>q2&#45;&gt;q0</title>
<path fill="none" stroke="black" d="M87.3285,-187.909C86.4623,-177.135 86.6522,-163.388 91,-152 92.8644,-147.117 95.7056,-142.445 98.9256,-138.179"/>
<polygon fill="black" stroke="black" points="101.619,-140.415 105.428,-130.528 96.2849,-135.882 101.619,-140.415"/>
<text text-anchor="middle" x="95.5" y="-156.9" font-family="Times Roman,serif" font-size="14.00">b</text>
</g>
<!-- q2&#45;&gt;q0 -->
<g id="edge12" class="edge"><title>q2&#45;&gt;q0</title>
<path fill="none" stroke="black" d="M96.3222,-188.219C100.88,-175.399 107.117,-157.858 112.303,-143.274"/>
<polygon fill="black" stroke="black" points="115.639,-144.339 115.691,-133.744 109.043,-141.994 115.639,-144.339"/>
<text text-anchor="middle" x="112.5" y="-156.9" font-family="Times Roman,serif" font-size="14.00">a</text>
</g>
<!-- q0&#45;&gt;q6 -->
<g id="edge24" class="edge"><title>q0&#45;&gt;q6</title>
<path fill="none" stroke="black" d="M131.95,-132.953C141.343,-150.587 154,-179.301 154,-206 154,-386 154,-386 154,-386 154,-409.092 143.452,-433.182 133.619,-450.622"/>
<polygon fill="black" stroke="black" points="130.398,-449.192 128.302,-459.578 136.417,-452.766 130.398,-449.192"/>
<text text-anchor="middle" x="158.5" y="-291.9" font-family="Times Roman,serif" font-size="14.00">a</text>
</g>
<!-- q3 -->
<g id="node14" class="node"><title>q3</title>
<ellipse fill="none" stroke="black" cx="122" cy="-22" rx="27" ry="18"/>
<ellipse fill="none" stroke="black" cx="122" cy="-22" rx="31" ry="22"/>
<text text-anchor="middle" x="122" y="-17.9" font-family="Times Roman,serif" font-size="14.00">q3</text>
</g>
<!-- q0&#45;&gt;q3 -->
<g id="edge22" class="edge"><title>q0&#45;&gt;q3</title>
<path fill="none" stroke="black" d="M114.265,-98.3885C112.116,-92.6409 110.077,-86.1528 109,-80 107.453,-71.1598 108.457,-61.6322 110.458,-52.9045"/>
<polygon fill="black" stroke="black" points="113.873,-53.6871 113.171,-43.1155 107.127,-51.8172 113.873,-53.6871"/>
<text text-anchor="middle" x="113.5" y="-66.9" font-family="Times Roman,serif" font-size="14.00">b</text>
</g>
<!-- q3&#45;&gt;q0 -->
<g id="edge18" class="edge"><title>q3&#45;&gt;q0</title>
<path fill="none" stroke="black" d="M122,-44.0388C122,-57.0958 122,-73.7734 122,-87.785"/>
<polygon fill="black" stroke="black" points="118.5,-87.8758 122,-97.8759 125.5,-87.8759 118.5,-87.8758"/>
<text text-anchor="middle" x="126.5" y="-66.9" font-family="Times Roman,serif" font-size="14.00">b</text>
</g>
<!-- q3&#45;&gt;q0 -->
<g id="edge20" class="edge"><title>q3&#45;&gt;q0</title>
<path fill="none" stroke="black" d="M128.937,-43.7022C131.597,-54.5722 133.642,-67.952 132,-80 131.627,-82.7376 131.101,-85.5608 130.484,-88.3653"/>
<polygon fill="black" stroke="black" points="127.041,-87.6996 127.956,-98.2549 133.823,-89.4331 127.041,-87.6996"/>
<text text-anchor="middle" x="136.5" y="-66.9" font-family="Times Roman,serif" font-size="14.00">a</text>
</g>
</g>
</svg>
