<?xml version="1.0" encoding="UTF-8" standalone="no"?>
<!DOCTYPE svg PUBLIC "-//W3C//DTD SVG 1.1//EN"
 "http://www.w3.org/Graphics/SVG/1.1/DTD/svg11.dtd">
<!-- Generated by graphviz version 2.26.3 (20100126.1600)
 -->
<!-- Title: G Pages: 1 -->
<svg width="172pt" height="600pt"
 viewBox="0.00 0.00 172.00 600.00" xmlns="http://www.w3.org/2000/svg" xmlns:xlink="http://www.w3.org/1999/xlink">
<g id="graph1" class="graph" transform="scale(1 1) rotate(0) translate(4 596)">
<title>G</title>
<polygon fill="white" stroke="white" points="-4,5 -4,-596 169,-596 169,5 -4,5"/>
<!-- q6 -->
<g id="node1" class="node"><title>q6</title>
<ellipse fill="none" stroke="black" cx="110" cy="-574" rx="27" ry="18"/>
<text text-anchor="middle" x="110" y="-569.9" font-family="Times Roman,serif" font-size="14.00">q6</text>
</g>
<!-- q6&#45;&gt;q6 -->
<g id="edge2" class="edge"><title>q6&#45;&gt;q6</title>
<path fill="none" stroke="black" d="M134.532,-582.121C145.508,-582.895 155,-580.188 155,-574 155,-569.843 150.715,-567.257 144.574,-566.242"/>
<polygon fill="black" stroke="black" points="144.652,-562.742 134.532,-565.879 144.4,-569.738 144.652,-562.742"/>
<text text-anchor="middle" x="159.5" y="-569.9" font-family="Times Roman,serif" font-size="14.00">b</text>
</g>
<!-- q4 -->
<g id="node4" class="node"><title>q4</title>
<ellipse fill="none" stroke="black" cx="110" cy="-484" rx="27" ry="18"/>
<text text-anchor="middle" x="110" y="-479.9" font-family="Times Roman,serif" font-size="14.00">q4</text>
</g>
<!-- q6&#45;&gt;q4 -->
<g id="edge4" class="edge"><title>q6&#45;&gt;q4</title>
<path fill="none" stroke="black" d="M110,-555.787C110,-543.344 110,-526.605 110,-512.421"/>
<polygon fill="black" stroke="black" points="113.5,-512.186 110,-502.186 106.5,-512.186 113.5,-512.186"/>
<text text-anchor="middle" x="114.5" y="-524.9" font-family="Times Roman,serif" font-size="14.00">a</text>
</g>
<!-- q3 -->
<g id="node9" class="node"><title>q3</title>
<ellipse fill="none" stroke="black" cx="47" cy="-394" rx="27" ry="18"/>
<text text-anchor="middle" x="47" y="-389.9" font-family="Times Roman,serif" font-size="14.00">q3</text>
</g>
<!-- q4&#45;&gt;q3 -->
<g id="edge20" class="edge"><title>q4&#45;&gt;q3</title>
<path fill="none" stroke="black" d="M98.4448,-467.493C88.9425,-453.918 75.3267,-434.467 64.4895,-418.985"/>
<polygon fill="black" stroke="black" points="67.0839,-416.588 58.4819,-410.403 61.3493,-420.602 67.0839,-416.588"/>
<text text-anchor="middle" x="88.5" y="-434.9" font-family="Times Roman,serif" font-size="14.00">a</text>
</g>
<!-- q2 -->
<g id="node10" class="node"><title>q2</title>
<ellipse fill="none" stroke="black" cx="86" cy="-304" rx="27" ry="18"/>
<text text-anchor="middle" x="86" y="-299.9" font-family="Times Roman,serif" font-size="14.00">q2</text>
</g>
<!-- q4&#45;&gt;q2 -->
<g id="edge18" class="edge"><title>q4&#45;&gt;q2</title>
<path fill="none" stroke="black" d="M107.567,-465.75C103.369,-434.269 94.74,-369.55 89.7633,-332.225"/>
<polygon fill="black" stroke="black" points="93.1951,-331.48 88.4041,-322.031 86.2565,-332.405 93.1951,-331.48"/>
<text text-anchor="middle" x="104.5" y="-389.9" font-family="Times Roman,serif" font-size="14.00">b</text>
</g>
<!-- q5 -->
<g id="node5" class="node"><title>q5</title>
<ellipse fill="none" stroke="black" cx="27" cy="-214" rx="27" ry="18"/>
<text text-anchor="middle" x="27" y="-209.9" font-family="Times Roman,serif" font-size="14.00">q5</text>
</g>
<!-- q1 -->
<g id="node7" class="node"><title>q1</title>
<ellipse fill="none" stroke="black" cx="39" cy="-120" rx="27" ry="18"/>
<ellipse fill="none" stroke="black" cx="39" cy="-120" rx="31" ry="22"/>
<text text-anchor="middle" x="39" y="-115.9" font-family="Times Roman,serif" font-size="14.00">q1</text>
</g>
<!-- q5&#45;&gt;q1 -->
<g id="edge6" class="edge"><title>q5&#45;&gt;q1</title>
<path fill="none" stroke="black" d="M20.456,-196.351C17.4094,-185.734 15.0424,-171.996 18,-160 18.8519,-156.545 20.0616,-153.057 21.4754,-149.658"/>
<polygon fill="black" stroke="black" points="24.7388,-150.946 25.873,-140.412 18.4173,-147.939 24.7388,-150.946"/>
<text text-anchor="middle" x="22.5" y="-164.9" font-family="Times Roman,serif" font-size="14.00">b</text>
</g>
<!-- q5&#45;&gt;q3 -->
<g id="edge8" class="edge"><title>q5&#45;&gt;q3</title>
<path fill="none" stroke="black" d="M29.0034,-232.031C32.4841,-263.357 39.6735,-328.061 43.8349,-365.514"/>
<polygon fill="black" stroke="black" points="40.3892,-366.198 44.9722,-375.75 47.3464,-365.425 40.3892,-366.198"/>
<text text-anchor="middle" x="43.5" y="-299.9" font-family="Times Roman,serif" font-size="14.00">a</text>
</g>
<!-- q1&#45;&gt;q5 -->
<g id="edge14" class="edge"><title>q1&#45;&gt;q5</title>
<path fill="none" stroke="black" d="M36.1865,-142.039C34.5197,-155.096 32.3906,-171.773 30.6019,-185.785"/>
<polygon fill="black" stroke="black" points="27.1083,-185.513 29.3137,-195.876 34.0519,-186.4 27.1083,-185.513"/>
<text text-anchor="middle" x="38.5" y="-164.9" font-family="Times Roman,serif" font-size="14.00">b</text>
</g>
<!-- q0 -->
<g id="node12" class="node"><title>q0</title>
<ellipse fill="none" stroke="black" cx="85" cy="-22" rx="27" ry="18"/>
<ellipse fill="none" stroke="black" cx="85" cy="-22" rx="31" ry="22"/>
<text text-anchor="middle" x="85" y="-17.9" font-family="Times Roman,serif" font-size="14.00">q0</text>
</g>
<!-- q1&#45;&gt;q0 -->
<g id="edge16" class="edge"><title>q1&#45;&gt;q0</title>
<path fill="none" stroke="black" d="M36.3188,-97.8471C35.8886,-86.6179 36.8409,-73.0558 42,-62 45.0126,-55.5439 49.5842,-49.6322 54.6393,-44.4486"/>
<polygon fill="black" stroke="black" points="57.3001,-46.7553 62.2663,-37.3964 52.5477,-41.6156 57.3001,-46.7553"/>
<text text-anchor="middle" x="46.5" y="-66.9" font-family="Times Roman,serif" font-size="14.00">a</text>
</g>
<!-- q3&#45;&gt;q2 -->
<g id="edge22" class="edge"><title>q3&#45;&gt;q2</title>
<path fill="none" stroke="black" d="M47.1818,-375.775C47.8923,-364.954 49.8752,-351.204 55,-340 57.1742,-335.247 60.1718,-330.64 63.4519,-326.4"/>
<polygon fill="black" stroke="black" points="66.1452,-328.635 69.9653,-318.753 60.8164,-324.096 66.1452,-328.635"/>
<text text-anchor="middle" x="59.5" y="-344.9" font-family="Times Roman,serif" font-size="14.00">b</text>
</g>
<!-- q3&#45;&gt;q2 -->
<g id="edge24" class="edge"><title>q3&#45;&gt;q2</title>
<path fill="none" stroke="black" d="M55.3195,-376.874C58.145,-370.93 61.275,-364.201 64,-358 67.8467,-349.246 71.8497,-339.601 75.37,-330.914"/>
<polygon fill="black" stroke="black" points="78.627,-332.195 79.1054,-321.611 72.1311,-329.587 78.627,-332.195"/>
<text text-anchor="middle" x="75.5" y="-344.9" font-family="Times Roman,serif" font-size="14.00">a</text>
</g>
<!-- q2&#45;&gt;q5 -->
<g id="edge12" class="edge"><title>q2&#45;&gt;q5</title>
<path fill="none" stroke="black" d="M75.1785,-287.493C66.3351,-274.003 53.6875,-254.71 43.5697,-239.276"/>
<polygon fill="black" stroke="black" points="46.3624,-237.152 37.9527,-230.708 40.5082,-240.99 46.3624,-237.152"/>
<text text-anchor="middle" x="65.5" y="-254.9" font-family="Times Roman,serif" font-size="14.00">a</text>
</g>
<!-- q2&#45;&gt;q0 -->
<g id="edge10" class="edge"><title>q2&#45;&gt;q0</title>
<path fill="none" stroke="black" d="M85.9359,-285.931C85.7704,-239.239 85.3265,-114.068 85.115,-54.4429"/>
<polygon fill="black" stroke="black" points="88.6139,-54.0935 85.0784,-44.106 81.614,-54.1184 88.6139,-54.0935"/>
<text text-anchor="middle" x="89.5" y="-164.9" font-family="Times Roman,serif" font-size="14.00">b</text>
</g>
<!-- q0&#45;&gt;q4 -->
<g id="edge28" class="edge"><title>q0&#45;&gt;q4</title>
<path fill="none" stroke="black" d="M104.617,-39.4181C122.781,-57.5593 147,-87.7874 147,-120 147,-394 147,-394 147,-394 147,-417.092 136.452,-441.182 126.619,-458.622"/>
<polygon fill="black" stroke="black" points="123.398,-457.192 121.302,-467.578 129.417,-460.766 123.398,-457.192"/>
<text text-anchor="middle" x="151.5" y="-254.9" font-family="Times Roman,serif" font-size="14.00">a</text>
</g>
<!-- q0&#45;&gt;q1 -->
<g id="edge26" class="edge"><title>q0&#45;&gt;q1</title>
<path fill="none" stroke="black" d="M75.1962,-42.8864C68.8608,-56.3834 60.5067,-74.1814 53.4207,-89.2776"/>
<polygon fill="black" stroke="black" points="50.0621,-88.1959 48.9813,-98.7355 56.3988,-91.1703 50.0621,-88.1959"/>
<text text-anchor="middle" x="70.5" y="-66.9" font-family="Times Roman,serif" font-size="14.00">b</text>
</g>
</g>
</svg>
