<?xml version="1.0" encoding="UTF-8" standalone="no"?>
<!DOCTYPE svg PUBLIC "-//W3C//DTD SVG 1.1//EN"
 "http://www.w3.org/Graphics/SVG/1.1/DTD/svg11.dtd">
<!-- Generated by graphviz version 2.26.3 (20100126.1600)
 -->
<!-- Title: G Pages: 1 -->
<svg width="144pt" height="322pt"
 viewBox="0.00 0.00 144.00 322.00" xmlns="http://www.w3.org/2000/svg" xmlns:xlink="http://www.w3.org/1999/xlink">
<g id="graph1" class="graph" transform="scale(1 1) rotate(0) translate(4 318)">
<title>G</title>
<polygon fill="white" stroke="white" points="-4,5 -4,-318 141,-318 141,5 -4,5"/>
<!-- q1 -->
<g id="node1" class="node"><title>q1</title>
<ellipse fill="none" stroke="black" cx="78" cy="-292" rx="27" ry="18"/>
<ellipse fill="none" stroke="black" cx="78" cy="-292" rx="31" ry="22"/>
<text text-anchor="middle" x="78" y="-287.9" font-family="Times Roman,serif" font-size="14.00">q1</text>
</g>
<!-- q1&#45;&gt;q1 -->
<g id="edge2" class="edge"><title>q1&#45;&gt;q1</title>
<path fill="none" stroke="black" d="M106.689,-300.965C117.781,-301.363 127,-298.375 127,-292 127,-287.717 122.838,-284.962 116.743,-283.737"/>
<polygon fill="black" stroke="black" points="116.908,-280.24 106.689,-283.035 116.421,-287.223 116.908,-280.24"/>
<text text-anchor="middle" x="131.5" y="-287.9" font-family="Times Roman,serif" font-size="14.00">b</text>
</g>
<!-- q4 -->
<g id="node4" class="node"><title>q4</title>
<ellipse fill="none" stroke="black" cx="46" cy="-198" rx="27" ry="18"/>
<text text-anchor="middle" x="46" y="-193.9" font-family="Times Roman,serif" font-size="14.00">q4</text>
</g>
<!-- q1&#45;&gt;q4 -->
<g id="edge4" class="edge"><title>q1&#45;&gt;q4</title>
<path fill="none" stroke="black" d="M60.0947,-273.978C54.8645,-267.568 49.8041,-259.955 47,-252 44.1505,-243.917 43.2084,-234.721 43.1749,-226.239"/>
<polygon fill="black" stroke="black" points="46.6809,-226.132 43.5431,-216.012 39.6854,-225.88 46.6809,-226.132"/>
<text text-anchor="middle" x="51.5" y="-238.9" font-family="Times Roman,serif" font-size="14.00">a</text>
</g>
<!-- q4&#45;&gt;q1 -->
<g id="edge6" class="edge"><title>q4&#45;&gt;q1</title>
<path fill="none" stroke="black" d="M51.9908,-215.598C56.2661,-228.157 62.1349,-245.396 67.2157,-260.321"/>
<polygon fill="black" stroke="black" points="64.0421,-261.86 70.5781,-270.198 70.6687,-259.604 64.0421,-261.86"/>
<text text-anchor="middle" x="67.5" y="-238.9" font-family="Times Roman,serif" font-size="14.00">b</text>
</g>
<!-- q0 -->
<g id="node7" class="node"><title>q0</title>
<ellipse fill="none" stroke="darkred" cx="27" cy="-108" rx="27" ry="18"/>
<text text-anchor="middle" x="27" y="-103.9" font-family="Times Roman,serif" font-size="14.00">q0</text>
</g>
<!-- q4&#45;&gt;q0 -->
<g id="edge8" class="edge"><title>q4&#45;&gt;q0</title>
<path fill="none" stroke="black" d="M42.1551,-179.787C39.485,-167.14 35.878,-150.053 32.8527,-135.723"/>
<polygon fill="black" stroke="black" points="36.2646,-134.94 30.7744,-125.879 29.4155,-136.386 36.2646,-134.94"/>
<text text-anchor="middle" x="43.5" y="-148.9" font-family="Times Roman,serif" font-size="14.00">a</text>
</g>
<!-- q0&#45;&gt;q0 -->
<g id="edge16" class="edge"><title>q0&#45;&gt;q0</title>
<path fill="none" stroke="black" d="M51.5325,-116.121C62.5078,-116.895 72,-114.188 72,-108 72,-103.843 67.7151,-101.257 61.5743,-100.242"/>
<polygon fill="black" stroke="black" points="61.6524,-96.7424 51.5325,-99.8789 61.3995,-103.738 61.6524,-96.7424"/>
<text text-anchor="middle" x="76.5" y="-103.9" font-family="Times Roman,serif" font-size="14.00">a</text>
</g>
<!-- q3 -->
<g id="node8" class="node"><title>q3</title>
<ellipse fill="none" stroke="black" cx="59" cy="-18" rx="27" ry="18"/>
<text text-anchor="middle" x="59" y="-13.9" font-family="Times Roman,serif" font-size="14.00">q3</text>
</g>
<!-- q0&#45;&gt;q3 -->
<g id="edge14" class="edge"><title>q0&#45;&gt;q3</title>
<path fill="none" stroke="black" d="M24.3285,-89.9088C23.4623,-79.1351 23.6522,-65.3878 28,-54 29.8644,-49.1167 32.7056,-44.4449 35.9256,-40.1793"/>
<polygon fill="black" stroke="black" points="38.6191,-42.4145 42.4275,-32.5278 33.2849,-37.8817 38.6191,-42.4145"/>
<text text-anchor="middle" x="32.5" y="-58.9" font-family="Times Roman,serif" font-size="14.00">b</text>
</g>
<!-- q3&#45;&gt;q1 -->
<g id="edge12" class="edge"><title>q3&#45;&gt;q1</title>
<path fill="none" stroke="black" d="M68.7256,-35.0981C76.2079,-49.2908 85.9336,-70.2729 90,-90 102.208,-149.223 92.5754,-220.122 84.9526,-260.226"/>
<polygon fill="black" stroke="black" points="81.485,-259.719 82.9742,-270.209 88.3514,-261.08 81.485,-259.719"/>
<text text-anchor="middle" x="99.5" y="-148.9" font-family="Times Roman,serif" font-size="14.00">a</text>
</g>
<!-- q3&#45;&gt;q0 -->
<g id="edge10" class="edge"><title>q3&#45;&gt;q0</title>
<path fill="none" stroke="black" d="M52.691,-35.7442C48.136,-48.5549 41.8999,-66.0939 36.7124,-80.6838"/>
<polygon fill="black" stroke="black" points="33.3746,-79.6242 33.3222,-90.2189 39.9701,-81.9693 33.3746,-79.6242"/>
<text text-anchor="middle" x="50.5" y="-58.9" font-family="Times Roman,serif" font-size="14.00">b</text>
</g>
</g>
</svg>
