<?xml version="1.0" encoding="UTF-8" standalone="no"?>
<!DOCTYPE svg PUBLIC "-//W3C//DTD SVG 1.1//EN"
 "http://www.w3.org/Graphics/SVG/1.1/DTD/svg11.dtd">
<!-- Generated by graphviz version 2.26.3 (20100126.1600)
 -->
<!-- Title: G Pages: 1 -->
<svg width="213pt" height="230pt"
 viewBox="0.00 0.00 213.38 230.00" xmlns="http://www.w3.org/2000/svg" xmlns:xlink="http://www.w3.org/1999/xlink">
<g id="graph1" class="graph" transform="scale(1 1) rotate(0) translate(4 226)">
<title>G</title>
<polygon fill="white" stroke="white" points="-4,5 -4,-226 210.376,-226 210.376,5 -4,5"/>
<!-- q2 -->
<g id="node1" class="node"><title>q2</title>
<ellipse fill="none" stroke="black" cx="56.3756" cy="-203" rx="27" ry="18.3848"/>
<text text-anchor="middle" x="56.3756" y="-199.4" font-family="Times Roman,serif" font-size="14.00">q2</text>
</g>
<!-- q3 -->
<g id="node3" class="node"><title>q3</title>
<ellipse fill="none" stroke="black" cx="113.376" cy="-19" rx="27" ry="18.3848"/>
<text text-anchor="middle" x="113.376" y="-15.4" font-family="Times Roman,serif" font-size="14.00">q3</text>
</g>
<!-- q2&#45;&gt;q3 -->
<g id="edge2" class="edge"><title>q2&#45;&gt;q3</title>
<path fill="none" stroke="black" d="M40.4768,-188.014C19.5987,-166.437 -12.4299,-125.527 5.37564,-92 21.0006,-62.5792 54.3626,-42.8572 79.8991,-31.4073"/>
<polygon fill="black" stroke="black" points="81.4233,-34.5624 89.2497,-27.4211 78.6782,-28.1231 81.4233,-34.5624"/>
<text text-anchor="middle" x="10.8756" y="-107.4" font-family="Times Roman,serif" font-size="14.00">b</text>
</g>
<!-- q4 -->
<g id="node5" class="node"><title>q4</title>
<ellipse fill="none" stroke="black" cx="50.3756" cy="-111" rx="27" ry="18.3848"/>
<text text-anchor="middle" x="50.3756" y="-107.4" font-family="Times Roman,serif" font-size="14.00">q4</text>
</g>
<!-- q2&#45;&gt;q4 -->
<g id="edge4" class="edge"><title>q2&#45;&gt;q4</title>
<path fill="none" stroke="black" d="M47.6142,-185.361C45.0769,-179.367 42.6492,-172.531 41.3756,-166 39.6905,-157.358 40.3406,-147.91 41.8787,-139.321"/>
<polygon fill="black" stroke="black" points="45.3344,-139.906 44.0979,-129.383 38.5026,-138.38 45.3344,-139.906"/>
<text text-anchor="middle" x="45.8756" y="-153.4" font-family="Times Roman,serif" font-size="14.00">a</text>
</g>
<!-- q3&#45;&gt;q2 -->
<g id="edge14" class="edge"><title>q3&#45;&gt;q2</title>
<path fill="none" stroke="black" d="M109.73,-37.7016C105.184,-59.9599 96.7364,-98.1242 86.3756,-130 81.3314,-145.519 74.4878,-162.398 68.6107,-176.012"/>
<polygon fill="black" stroke="black" points="65.356,-174.719 64.5416,-185.282 71.7657,-177.532 65.356,-174.719"/>
<text text-anchor="middle" x="100.876" y="-107.4" font-family="Times Roman,serif" font-size="14.00">b</text>
</g>
<!-- q3&#45;&gt;q3 -->
<g id="edge16" class="edge"><title>q3&#45;&gt;q3</title>
<path fill="none" stroke="black" d="M137.45,-27.4544C148.618,-28.3767 158.376,-25.5586 158.376,-19 158.376,-14.5934 153.971,-11.8754 147.693,-10.8458"/>
<polygon fill="black" stroke="black" points="147.548,-7.34018 137.45,-10.5456 147.343,-14.3372 147.548,-7.34018"/>
<text text-anchor="middle" x="162.876" y="-15.4" font-family="Times Roman,serif" font-size="14.00">a</text>
</g>
<!-- q4&#45;&gt;q2 -->
<g id="edge12" class="edge"><title>q4&#45;&gt;q2</title>
<path fill="none" stroke="black" d="M51.588,-129.59C52.4253,-142.428 53.5549,-159.748 54.5066,-174.342"/>
<polygon fill="black" stroke="black" points="51.018,-174.631 55.1615,-184.382 58.0031,-174.176 51.018,-174.631"/>
<text text-anchor="middle" x="57.8756" y="-153.4" font-family="Times Roman,serif" font-size="14.00">a</text>
</g>
<!-- q4&#45;&gt;q3 -->
<g id="edge10" class="edge"><title>q4&#45;&gt;q3</title>
<path fill="none" stroke="black" d="M61.9308,-94.1258C71.5219,-80.1197 85.3038,-59.9939 96.1892,-44.0976"/>
<polygon fill="black" stroke="black" points="99.1314,-45.9957 101.894,-35.7672 93.3558,-42.0406 99.1314,-45.9957"/>
<text text-anchor="middle" x="91.8756" y="-61.4" font-family="Times Roman,serif" font-size="14.00">b</text>
</g>
<!-- q1 -->
<g id="node6" class="node"><title>q1</title>
<ellipse fill="none" stroke="black" cx="178.376" cy="-203" rx="27" ry="18.3848"/>
<text text-anchor="middle" x="178.376" y="-199.4" font-family="Times Roman,serif" font-size="14.00">q1</text>
</g>
<!-- q0 -->
<g id="node8" class="node"><title>q0</title>
<ellipse fill="none" stroke="black" cx="173.376" cy="-111" rx="27" ry="18.3848"/>
<text text-anchor="middle" x="173.376" y="-107.4" font-family="Times Roman,serif" font-size="14.00">q0</text>
</g>
<!-- q1&#45;&gt;q0 -->
<g id="edge6" class="edge"><title>q1&#45;&gt;q0</title>
<path fill="none" stroke="black" d="M169.614,-185.361C167.077,-179.367 164.649,-172.531 163.376,-166 161.685,-157.332 162.46,-147.876 164.161,-139.289"/>
<polygon fill="black" stroke="black" points="167.615,-139.901 166.592,-129.355 160.816,-138.237 167.615,-139.901"/>
<text text-anchor="middle" x="167.876" y="-153.4" font-family="Times Roman,serif" font-size="14.00">b</text>
</g>
<!-- q1&#45;&gt;q0 -->
<g id="edge8" class="edge"><title>q1&#45;&gt;q0</title>
<path fill="none" stroke="black" d="M177.364,-184.382C176.666,-171.538 175.724,-154.216 174.931,-139.627"/>
<polygon fill="black" stroke="black" points="178.424,-139.385 174.386,-129.59 171.434,-139.765 178.424,-139.385"/>
<text text-anchor="middle" x="179.876" y="-153.4" font-family="Times Roman,serif" font-size="14.00">a</text>
</g>
<!-- q0&#45;&gt;q3 -->
<g id="edge18" class="edge"><title>q0&#45;&gt;q3</title>
<path fill="none" stroke="black" d="M161.256,-94.198C156.808,-87.9164 151.785,-80.6847 147.376,-74 141.256,-64.7229 134.785,-54.3957 129.149,-45.2181"/>
<polygon fill="black" stroke="black" points="132.031,-43.2206 123.836,-36.505 126.054,-46.8651 132.031,-43.2206"/>
<text text-anchor="middle" x="151.876" y="-61.4" font-family="Times Roman,serif" font-size="14.00">b</text>
</g>
<!-- q0&#45;&gt;q3 -->
<g id="edge20" class="edge"><title>q0&#45;&gt;q3</title>
<path fill="none" stroke="black" d="M170.363,-92.5557C167.899,-81.3129 163.606,-67.0349 156.376,-56 152.22,-49.6569 146.674,-43.7822 140.95,-38.668"/>
<polygon fill="black" stroke="black" points="143.078,-35.8861 133.148,-32.1929 138.608,-41.2726 143.078,-35.8861"/>
<text text-anchor="middle" x="168.876" y="-61.4" font-family="Times Roman,serif" font-size="14.00">a</text>
</g>
</g>
</svg>
