<?xml version="1.0" encoding="UTF-8" standalone="no"?>
<!DOCTYPE svg PUBLIC "-//W3C//DTD SVG 1.1//EN"
 "http://www.w3.org/Graphics/SVG/1.1/DTD/svg11.dtd">
<!-- Generated by graphviz version 2.26.3 (20100126.1600)
 -->
<!-- Title: G Pages: 1 -->
<svg width="328pt" height="698pt"
 viewBox="0.00 0.00 328.00 698.00" xmlns="http://www.w3.org/2000/svg" xmlns:xlink="http://www.w3.org/1999/xlink">
<g id="graph1" class="graph" transform="scale(1 1) rotate(0) translate(4 694)">
<title>G</title>
<polygon fill="white" stroke="white" points="-4,5 -4,-694 325,-694 325,5 -4,5"/>
<!-- q0 -->
<g id="node1" class="node"><title>q0</title>
<ellipse fill="none" stroke="black" cx="198" cy="-671" rx="27" ry="18.3848"/>
<text text-anchor="middle" x="198" y="-667.4" font-family="Times Roman,serif" font-size="14.00">q0</text>
</g>
<!-- q0&#45;&gt;q0 -->
<g id="edge4" class="edge"><title>q0&#45;&gt;q0</title>
<path fill="none" stroke="black" d="M222.074,-679.454C233.242,-680.377 243,-677.559 243,-671 243,-666.593 238.595,-663.875 232.317,-662.846"/>
<polygon fill="black" stroke="black" points="232.173,-659.34 222.074,-662.546 231.967,-666.337 232.173,-659.34"/>
<text text-anchor="middle" x="247.5" y="-667.4" font-family="Times Roman,serif" font-size="14.00">a</text>
</g>
<!-- q3 -->
<g id="node3" class="node"><title>q3</title>
<ellipse fill="none" stroke="black" cx="198" cy="-579" rx="27" ry="18.3848"/>
<text text-anchor="middle" x="198" y="-575.4" font-family="Times Roman,serif" font-size="14.00">q3</text>
</g>
<!-- q0&#45;&gt;q3 -->
<g id="edge2" class="edge"><title>q0&#45;&gt;q3</title>
<path fill="none" stroke="black" d="M198,-652.382C198,-639.538 198,-622.216 198,-607.627"/>
<polygon fill="black" stroke="black" points="201.5,-607.59 198,-597.59 194.5,-607.59 201.5,-607.59"/>
<text text-anchor="middle" x="202.5" y="-621.4" font-family="Times Roman,serif" font-size="14.00">b</text>
</g>
<!-- q2 -->
<g id="node5" class="node"><title>q2</title>
<ellipse fill="none" stroke="black" cx="73" cy="-487" rx="27" ry="18.3848"/>
<text text-anchor="middle" x="73" y="-483.4" font-family="Times Roman,serif" font-size="14.00">q2</text>
</g>
<!-- q3&#45;&gt;q2 -->
<g id="edge12" class="edge"><title>q3&#45;&gt;q2</title>
<path fill="none" stroke="black" d="M172.667,-571.907C154.687,-565.985 130.699,-556.204 113,-542 103.1,-534.055 94.4612,-523.084 87.7695,-513.028"/>
<polygon fill="black" stroke="black" points="90.7028,-511.118 82.4077,-504.527 84.782,-514.852 90.7028,-511.118"/>
<text text-anchor="middle" x="117.5" y="-529.4" font-family="Times Roman,serif" font-size="14.00">a</text>
</g>
<!-- q10 -->
<g id="node11" class="node"><title>q10</title>
<ellipse fill="none" stroke="black" cx="221" cy="-19" rx="29.9071" ry="18.3848"/>
<text text-anchor="middle" x="221" y="-15.4" font-family="Times Roman,serif" font-size="14.00">q10</text>
</g>
<!-- q3&#45;&gt;q10 -->
<g id="edge10" class="edge"><title>q3&#45;&gt;q10</title>
<path fill="none" stroke="black" d="M191.039,-560.976C184.594,-542.645 176,-513.276 176,-487 176,-487 176,-487 176,-111 176,-86.4712 189.068,-61.6626 201.119,-43.9986"/>
<polygon fill="black" stroke="black" points="204.266,-45.6168 207.254,-35.4521 198.579,-41.5348 204.266,-45.6168"/>
<text text-anchor="middle" x="180.5" y="-291.4" font-family="Times Roman,serif" font-size="14.00">b</text>
</g>
<!-- q4 -->
<g id="node7" class="node"><title>q4</title>
<ellipse fill="none" stroke="black" cx="31" cy="-391" rx="27" ry="18.3848"/>
<ellipse fill="none" stroke="black" cx="31" cy="-391" rx="31" ry="22.3848"/>
<text text-anchor="middle" x="31" y="-387.4" font-family="Times Roman,serif" font-size="14.00">q4</text>
</g>
<!-- q2&#45;&gt;q4 -->
<g id="edge6" class="edge"><title>q2&#45;&gt;q4</title>
<path fill="none" stroke="black" d="M65.1001,-468.943C59.3147,-455.719 51.3207,-437.447 44.5267,-421.918"/>
<polygon fill="black" stroke="black" points="47.6969,-420.432 40.4821,-412.673 41.2838,-423.238 47.6969,-420.432"/>
<text text-anchor="middle" x="59.5" y="-437.4" font-family="Times Roman,serif" font-size="14.00">b</text>
</g>
<!-- q9 -->
<g id="node9" class="node"><title>q9</title>
<ellipse fill="none" stroke="black" cx="88" cy="-203" rx="27" ry="18.3848"/>
<text text-anchor="middle" x="88" y="-199.4" font-family="Times Roman,serif" font-size="14.00">q9</text>
</g>
<!-- q2&#45;&gt;q9 -->
<g id="edge8" class="edge"><title>q2&#45;&gt;q9</title>
<path fill="none" stroke="black" d="M73.9842,-468.366C76.5375,-420.023 83.389,-290.302 86.4664,-232.037"/>
<polygon fill="black" stroke="black" points="89.9798,-231.873 87.0122,-221.703 82.9895,-231.504 89.9798,-231.873"/>
<text text-anchor="middle" x="85.5" y="-337.4" font-family="Times Roman,serif" font-size="14.00">a</text>
</g>
<!-- q4&#45;&gt;q2 -->
<g id="edge16" class="edge"><title>q4&#45;&gt;q2</title>
<path fill="none" stroke="black" d="M29.3321,-413.507C29.3549,-424.922 30.7586,-438.72 36,-450 38.7131,-455.839 42.7599,-461.281 47.194,-466.098"/>
<polygon fill="black" stroke="black" points="44.7576,-468.611 54.3447,-473.121 49.6625,-463.617 44.7576,-468.611"/>
<text text-anchor="middle" x="40.5" y="-437.4" font-family="Times Roman,serif" font-size="14.00">a</text>
</g>
<!-- q8 -->
<g id="node14" class="node"><title>q8</title>
<ellipse fill="none" stroke="black" cx="32" cy="-295" rx="27" ry="18.3848"/>
<text text-anchor="middle" x="32" y="-291.4" font-family="Times Roman,serif" font-size="14.00">q8</text>
</g>
<!-- q4&#45;&gt;q8 -->
<g id="edge14" class="edge"><title>q4&#45;&gt;q8</title>
<path fill="none" stroke="black" d="M31.237,-368.249C31.3751,-354.994 31.5505,-338.148 31.6984,-323.954"/>
<polygon fill="black" stroke="black" points="35.2006,-323.756 31.805,-313.72 28.2009,-323.683 35.2006,-323.756"/>
<text text-anchor="middle" x="35.5" y="-337.4" font-family="Times Roman,serif" font-size="14.00">b</text>
</g>
<!-- q9&#45;&gt;q3 -->
<g id="edge26" class="edge"><title>q9&#45;&gt;q3</title>
<path fill="none" stroke="black" d="M93.7872,-221.36C95.5652,-227.281 97.4579,-233.892 99,-240 132.565,-372.94 97.6314,-420.937 162,-542 164.911,-547.475 168.878,-552.693 173.118,-557.394"/>
<polygon fill="black" stroke="black" points="170.864,-560.094 180.372,-564.769 175.855,-555.185 170.864,-560.094"/>
<text text-anchor="middle" x="124.5" y="-387.4" font-family="Times Roman,serif" font-size="14.00">b</text>
</g>
<!-- q5 -->
<g id="node16" class="node"><title>q5</title>
<ellipse fill="none" stroke="black" cx="55" cy="-111" rx="27" ry="18.3848"/>
<text text-anchor="middle" x="55" y="-107.4" font-family="Times Roman,serif" font-size="14.00">q5</text>
</g>
<!-- q9&#45;&gt;q5 -->
<g id="edge28" class="edge"><title>q9&#45;&gt;q5</title>
<path fill="none" stroke="black" d="M81.4803,-184.824C76.7797,-171.719 70.3481,-153.789 65.0005,-138.88"/>
<polygon fill="black" stroke="black" points="68.1771,-137.37 61.5062,-129.138 61.5881,-139.733 68.1771,-137.37"/>
<text text-anchor="middle" x="78.5" y="-153.4" font-family="Times Roman,serif" font-size="14.00">a</text>
</g>
<!-- q10&#45;&gt;q3 -->
<g id="edge30" class="edge"><title>q10&#45;&gt;q3</title>
<path fill="none" stroke="black" d="M221,-37.6776C221,-56.265 221,-85.6042 221,-111 221,-487 221,-487 221,-487 221,-509.123 214.663,-533.369 208.642,-551.414"/>
<polygon fill="black" stroke="black" points="205.285,-550.409 205.277,-561.004 211.891,-552.726 205.285,-550.409"/>
<text text-anchor="middle" x="225.5" y="-291.4" font-family="Times Roman,serif" font-size="14.00">b</text>
</g>
<!-- q10&#45;&gt;q3 -->
<g id="edge32" class="edge"><title>q10&#45;&gt;q3</title>
<path fill="none" stroke="black" d="M234.746,-35.4521C247.98,-53.0052 266,-82.1956 266,-111 266,-487 266,-487 266,-487 266,-516.023 243.845,-541.888 224.827,-558.744"/>
<polygon fill="black" stroke="black" points="222.326,-556.275 216.942,-565.4 226.841,-561.624 222.326,-556.275"/>
<text text-anchor="middle" x="270.5" y="-291.4" font-family="Times Roman,serif" font-size="14.00">a</text>
</g>
<!-- q10&#45;&gt;q3 -->
<g id="edge34" class="edge"><title>q10&#45;&gt;q3</title>
<path fill="none" stroke="black" d="M245.118,-30.5707C271.777,-45.2399 311,-73.2387 311,-111 311,-487 311,-487 311,-487 311,-528.1 265.49,-554.086 232.233,-567.589"/>
<polygon fill="black" stroke="black" points="230.871,-564.364 222.798,-571.226 233.388,-570.895 230.871,-564.364"/>
<text text-anchor="middle" x="315.5" y="-291.4" font-family="Times Roman,serif" font-size="14.00">b</text>
</g>
<!-- q10&#45;&gt;q10 -->
<g id="edge36" class="edge"><title>q10&#45;&gt;q10</title>
<path fill="none" stroke="black" d="M247.655,-27.5218C259.154,-28.2195 269,-25.3789 269,-19 269,-14.6145 264.346,-11.9014 257.701,-10.8607"/>
<polygon fill="black" stroke="black" points="257.781,-7.3613 247.655,-10.4782 257.514,-14.3562 257.781,-7.3613"/>
<text text-anchor="middle" x="273.5" y="-15.4" font-family="Times Roman,serif" font-size="14.00">a</text>
</g>
<!-- q8&#45;&gt;q9 -->
<g id="edge24" class="edge"><title>q8&#45;&gt;q9</title>
<path fill="none" stroke="black" d="M42.5332,-277.696C50.9025,-263.946 62.7384,-244.501 72.2361,-228.898"/>
<polygon fill="black" stroke="black" points="75.3042,-230.589 77.5141,-220.227 69.3248,-226.949 75.3042,-230.589"/>
<text text-anchor="middle" x="69.5" y="-245.4" font-family="Times Roman,serif" font-size="14.00">a</text>
</g>
<!-- q8&#45;&gt;q5 -->
<g id="edge22" class="edge"><title>q8&#45;&gt;q5</title>
<path fill="none" stroke="black" d="M27.9338,-276.346C23.7538,-254.134 18.6782,-216.014 25,-184 28.1613,-167.991 34.8739,-151.078 41.1494,-137.567"/>
<polygon fill="black" stroke="black" points="44.3835,-138.919 45.5846,-128.392 38.0813,-135.872 44.3835,-138.919"/>
<text text-anchor="middle" x="30.5" y="-199.4" font-family="Times Roman,serif" font-size="14.00">b</text>
</g>
<!-- q5&#45;&gt;q10 -->
<g id="edge20" class="edge"><title>q5&#45;&gt;q10</title>
<path fill="none" stroke="black" d="M75.9841,-99.1185C95.7974,-87.9248 126.361,-70.7216 153,-56 164.881,-49.4342 177.971,-42.29 189.468,-36.0457"/>
<polygon fill="black" stroke="black" points="191.171,-39.1037 198.293,-31.2592 187.834,-32.9505 191.171,-39.1037"/>
<text text-anchor="middle" x="157.5" y="-61.4" font-family="Times Roman,serif" font-size="14.00">a</text>
</g>
<!-- q5&#45;&gt;q8 -->
<g id="edge18" class="edge"><title>q5&#45;&gt;q8</title>
<path fill="none" stroke="black" d="M51.6125,-129.554C49.0057,-144.279 45.4467,-165.409 43,-184 39.3303,-211.885 36.284,-243.856 34.3349,-266.302"/>
<polygon fill="black" stroke="black" points="30.828,-266.236 33.4683,-276.496 37.8028,-266.829 30.828,-266.236"/>
<text text-anchor="middle" x="47.5" y="-199.4" font-family="Times Roman,serif" font-size="14.00">b</text>
</g>
</g>
</svg>
