<?xml version="1.0" encoding="UTF-8" standalone="no"?>
<!DOCTYPE svg PUBLIC "-//W3C//DTD SVG 1.1//EN"
 "http://www.w3.org/Graphics/SVG/1.1/DTD/svg11.dtd">
<!-- Generated by graphviz version 2.26.3 (20100126.1600)
 -->
<!-- Title: G Pages: 1 -->
<svg width="223pt" height="698pt"
 viewBox="0.00 0.00 223.00 698.00" xmlns="http://www.w3.org/2000/svg" xmlns:xlink="http://www.w3.org/1999/xlink">
<g id="graph1" class="graph" transform="scale(1 1) rotate(0) translate(4 694)">
<title>G</title>
<polygon fill="white" stroke="white" points="-4,5 -4,-694 220,-694 220,5 -4,5"/>
<!-- q0 -->
<g id="node1" class="node"><title>q0</title>
<ellipse fill="none" stroke="black" cx="27" cy="-579" rx="27" ry="18.3848"/>
<text text-anchor="middle" x="27" y="-575.4" font-family="Times Roman,serif" font-size="14.00">q0</text>
</g>
<!-- q0&#45;&gt;q0 -->
<g id="edge2" class="edge"><title>q0&#45;&gt;q0</title>
<path fill="none" stroke="black" d="M51.0743,-587.454C62.2423,-588.377 72,-585.559 72,-579 72,-574.593 67.5952,-571.875 61.3174,-570.846"/>
<polygon fill="black" stroke="black" points="61.1726,-567.34 51.0743,-570.546 60.9674,-574.337 61.1726,-567.34"/>
<text text-anchor="middle" x="76.5" y="-575.4" font-family="Times Roman,serif" font-size="14.00">b</text>
</g>
<!-- q6 -->
<g id="node4" class="node"><title>q6</title>
<ellipse fill="none" stroke="black" cx="116" cy="-487" rx="27" ry="18.3848"/>
<text text-anchor="middle" x="116" y="-483.4" font-family="Times Roman,serif" font-size="14.00">q6</text>
</g>
<!-- q0&#45;&gt;q6 -->
<g id="edge4" class="edge"><title>q0&#45;&gt;q6</title>
<path fill="none" stroke="black" d="M42.0976,-563.393C56.29,-548.723 77.7046,-526.586 93.8342,-509.913"/>
<polygon fill="black" stroke="black" points="96.3909,-512.304 100.828,-502.683 91.3598,-507.437 96.3909,-512.304"/>
<text text-anchor="middle" x="83.5" y="-529.4" font-family="Times Roman,serif" font-size="14.00">a</text>
</g>
<!-- q6&#45;&gt;q6 -->
<g id="edge22" class="edge"><title>q6&#45;&gt;q6</title>
<path fill="none" stroke="black" d="M140.074,-495.454C151.242,-496.377 161,-493.559 161,-487 161,-482.593 156.595,-479.875 150.317,-478.846"/>
<polygon fill="black" stroke="black" points="150.173,-475.34 140.074,-478.546 149.967,-482.337 150.173,-475.34"/>
<text text-anchor="middle" x="165.5" y="-483.4" font-family="Times Roman,serif" font-size="14.00">b</text>
</g>
<!-- q7 -->
<g id="node7" class="node"><title>q7</title>
<ellipse fill="none" stroke="black" cx="108" cy="-395" rx="27" ry="18.3848"/>
<text text-anchor="middle" x="108" y="-391.4" font-family="Times Roman,serif" font-size="14.00">q7</text>
</g>
<!-- q6&#45;&gt;q7 -->
<g id="edge24" class="edge"><title>q6&#45;&gt;q7</title>
<path fill="none" stroke="black" d="M114.381,-468.382C113.264,-455.538 111.758,-438.216 110.489,-423.627"/>
<polygon fill="black" stroke="black" points="113.97,-423.249 109.617,-413.59 106.996,-423.856 113.97,-423.249"/>
<text text-anchor="middle" x="116.5" y="-437.4" font-family="Times Roman,serif" font-size="14.00">a</text>
</g>
<!-- q2 -->
<g id="node5" class="node"><title>q2</title>
<ellipse fill="none" stroke="black" cx="137" cy="-303" rx="27" ry="18.3848"/>
<text text-anchor="middle" x="137" y="-299.4" font-family="Times Roman,serif" font-size="14.00">q2</text>
</g>
<!-- q2&#45;&gt;q7 -->
<g id="edge6" class="edge"><title>q2&#45;&gt;q7</title>
<path fill="none" stroke="black" d="M121.399,-318.156C116.075,-324.366 110.77,-331.977 108,-340 105.143,-348.278 104.332,-357.683 104.469,-366.346"/>
<polygon fill="black" stroke="black" points="100.98,-366.63 105.032,-376.419 107.969,-366.239 100.98,-366.63"/>
<text text-anchor="middle" x="112.5" y="-345.4" font-family="Times Roman,serif" font-size="14.00">b</text>
</g>
<!-- q4 -->
<g id="node9" class="node"><title>q4</title>
<ellipse fill="none" stroke="black" cx="137" cy="-211" rx="27" ry="18.3848"/>
<text text-anchor="middle" x="137" y="-207.4" font-family="Times Roman,serif" font-size="14.00">q4</text>
</g>
<!-- q2&#45;&gt;q4 -->
<g id="edge8" class="edge"><title>q2&#45;&gt;q4</title>
<path fill="none" stroke="black" d="M137,-284.382C137,-271.538 137,-254.216 137,-239.627"/>
<polygon fill="black" stroke="black" points="140.5,-239.59 137,-229.59 133.5,-239.59 140.5,-239.59"/>
<text text-anchor="middle" x="141.5" y="-253.4" font-family="Times Roman,serif" font-size="14.00">a</text>
</g>
<!-- q7&#45;&gt;q2 -->
<g id="edge26" class="edge"><title>q7&#45;&gt;q2</title>
<path fill="none" stroke="black" d="M113.729,-376.824C117.86,-363.719 123.512,-345.789 128.212,-330.88"/>
<polygon fill="black" stroke="black" points="131.614,-331.728 131.282,-321.138 124.938,-329.624 131.614,-331.728"/>
<text text-anchor="middle" x="129.5" y="-345.4" font-family="Times Roman,serif" font-size="14.00">b</text>
</g>
<!-- q7&#45;&gt;q7 -->
<g id="edge28" class="edge"><title>q7&#45;&gt;q7</title>
<path fill="none" stroke="black" d="M132.074,-403.454C143.242,-404.377 153,-401.559 153,-395 153,-390.593 148.595,-387.875 142.317,-386.846"/>
<polygon fill="black" stroke="black" points="142.173,-383.34 132.074,-386.546 141.967,-390.337 142.173,-383.34"/>
<text text-anchor="middle" x="157.5" y="-391.4" font-family="Times Roman,serif" font-size="14.00">a</text>
</g>
<!-- q8 -->
<g id="node15" class="node"><title>q8</title>
<ellipse fill="none" stroke="black" cx="133" cy="-115" rx="27" ry="18.3848"/>
<ellipse fill="none" stroke="black" cx="133" cy="-115" rx="31" ry="22.3848"/>
<text text-anchor="middle" x="133" y="-111.4" font-family="Times Roman,serif" font-size="14.00">q8</text>
</g>
<!-- q4&#45;&gt;q8 -->
<g id="edge14" class="edge"><title>q4&#45;&gt;q8</title>
<path fill="none" stroke="black" d="M136.229,-192.49C135.703,-179.863 134.991,-162.791 134.37,-147.885"/>
<polygon fill="black" stroke="black" points="137.851,-147.353 133.938,-137.508 130.857,-147.645 137.851,-147.353"/>
<text text-anchor="middle" x="139.5" y="-161.4" font-family="Times Roman,serif" font-size="14.00">b</text>
</g>
<!-- q9 -->
<g id="node17" class="node"><title>q9</title>
<ellipse fill="none" stroke="black" cx="97" cy="-19" rx="27" ry="18.3848"/>
<text text-anchor="middle" x="97" y="-15.4" font-family="Times Roman,serif" font-size="14.00">q9</text>
</g>
<!-- q4&#45;&gt;q9 -->
<g id="edge16" class="edge"><title>q4&#45;&gt;q9</title>
<path fill="none" stroke="black" d="M154.755,-196.976C170.042,-183.673 191.015,-162.164 200,-138 207.125,-118.837 209.388,-110.161 200,-92 185.428,-63.8111 154.394,-44.1578 130.179,-32.4017"/>
<polygon fill="black" stroke="black" points="131.497,-29.1549 120.951,-28.136 128.559,-35.5089 131.497,-29.1549"/>
<text text-anchor="middle" x="210.5" y="-111.4" font-family="Times Roman,serif" font-size="14.00">a</text>
</g>
<!-- q3 -->
<g id="node10" class="node"><title>q3</title>
<ellipse fill="none" stroke="black" cx="150" cy="-671" rx="27" ry="18.3848"/>
<text text-anchor="middle" x="150" y="-667.4" font-family="Times Roman,serif" font-size="14.00">q3</text>
</g>
<!-- q3&#45;&gt;q6 -->
<g id="edge12" class="edge"><title>q3&#45;&gt;q6</title>
<path fill="none" stroke="black" d="M142.81,-653.013C137.292,-638.425 129.968,-617.206 126,-598 120.314,-570.48 117.861,-538.46 116.803,-515.903"/>
<polygon fill="black" stroke="black" points="120.29,-515.501 116.387,-505.651 113.295,-515.784 120.29,-515.501"/>
<text text-anchor="middle" x="130.5" y="-575.4" font-family="Times Roman,serif" font-size="14.00">a</text>
</g>
<!-- q5 -->
<g id="node12" class="node"><title>q5</title>
<ellipse fill="none" stroke="black" cx="171" cy="-579" rx="27" ry="18.3848"/>
<text text-anchor="middle" x="171" y="-575.4" font-family="Times Roman,serif" font-size="14.00">q5</text>
</g>
<!-- q3&#45;&gt;q5 -->
<g id="edge10" class="edge"><title>q3&#45;&gt;q5</title>
<path fill="none" stroke="black" d="M148.171,-652.367C147.644,-641.573 147.894,-627.823 151,-616 151.966,-612.323 153.366,-608.611 154.984,-605.031"/>
<polygon fill="black" stroke="black" points="158.179,-606.471 159.626,-595.976 151.95,-603.278 158.179,-606.471"/>
<text text-anchor="middle" x="155.5" y="-621.4" font-family="Times Roman,serif" font-size="14.00">b</text>
</g>
<!-- q5&#45;&gt;q6 -->
<g id="edge18" class="edge"><title>q5&#45;&gt;q6</title>
<path fill="none" stroke="black" d="M160.655,-561.696C152.435,-547.946 140.811,-528.501 131.482,-512.898"/>
<polygon fill="black" stroke="black" points="134.434,-511.014 126.299,-504.227 128.426,-514.606 134.434,-511.014"/>
<text text-anchor="middle" x="152.5" y="-529.4" font-family="Times Roman,serif" font-size="14.00">b</text>
</g>
<!-- q5&#45;&gt;q3 -->
<g id="edge20" class="edge"><title>q5&#45;&gt;q3</title>
<path fill="none" stroke="black" d="M167.637,-597.399C165.6,-608.116 162.85,-621.866 160,-634 159.33,-636.854 158.594,-639.822 157.835,-642.78"/>
<polygon fill="black" stroke="black" points="154.406,-642.055 155.227,-652.618 161.173,-643.848 154.406,-642.055"/>
<text text-anchor="middle" x="167.5" y="-621.4" font-family="Times Roman,serif" font-size="14.00">a</text>
</g>
<!-- q8&#45;&gt;q8 -->
<g id="edge30" class="edge"><title>q8&#45;&gt;q8</title>
<path fill="none" stroke="black" d="M161.689,-124.338C172.781,-124.753 182,-121.641 182,-115 182,-110.538 177.838,-107.669 171.743,-106.393"/>
<polygon fill="black" stroke="black" points="171.916,-102.896 161.689,-105.662 171.408,-109.878 171.916,-102.896"/>
<text text-anchor="middle" x="186.5" y="-111.4" font-family="Times Roman,serif" font-size="14.00">b</text>
</g>
<!-- q8&#45;&gt;q9 -->
<g id="edge32" class="edge"><title>q8&#45;&gt;q9</title>
<path fill="none" stroke="black" d="M124.831,-93.2161C119.673,-79.4621 112.962,-61.5655 107.422,-46.7927"/>
<polygon fill="black" stroke="black" points="110.596,-45.2882 103.808,-37.1538 104.042,-47.7461 110.596,-45.2882"/>
<text text-anchor="middle" x="121.5" y="-61.4" font-family="Times Roman,serif" font-size="14.00">a</text>
</g>
<!-- q9&#45;&gt;q0 -->
<g id="edge34" class="edge"><title>q9&#45;&gt;q0</title>
<path fill="none" stroke="black" d="M78.5093,-32.7077C58.0706,-49.586 28,-80.3126 28,-115 28,-487 28,-487 28,-487 28,-508.131 27.7329,-531.991 27.4749,-550.117"/>
<polygon fill="black" stroke="black" points="23.9722,-550.272 27.3219,-560.323 30.9714,-550.377 23.9722,-550.272"/>
<text text-anchor="middle" x="32.5" y="-299.4" font-family="Times Roman,serif" font-size="14.00">b</text>
</g>
<!-- q9&#45;&gt;q7 -->
<g id="edge36" class="edge"><title>q9&#45;&gt;q7</title>
<path fill="none" stroke="black" d="M89.9743,-37.0948C83.2104,-56.1674 74,-87.2359 74,-115 74,-303 74,-303 74,-303 74,-326.132 83.5737,-350.619 92.5607,-368.511"/>
<polygon fill="black" stroke="black" points="89.6614,-370.515 97.4286,-377.721 95.8502,-367.244 89.6614,-370.515"/>
<text text-anchor="middle" x="78.5" y="-207.4" font-family="Times Roman,serif" font-size="14.00">a</text>
</g>
</g>
</svg>
