<?xml version="1.0" encoding="UTF-8" standalone="no"?>
<!DOCTYPE svg PUBLIC "-//W3C//DTD SVG 1.1//EN"
 "http://www.w3.org/Graphics/SVG/1.1/DTD/svg11.dtd">
<!-- Generated by graphviz version 2.26.3 (20100126.1600)
 -->
<!-- Title: G Pages: 1 -->
<svg width="204pt" height="514pt"
 viewBox="0.00 0.00 204.00 514.00" xmlns="http://www.w3.org/2000/svg" xmlns:xlink="http://www.w3.org/1999/xlink">
<g id="graph1" class="graph" transform="scale(1 1) rotate(0) translate(4 510)">
<title>G</title>
<polygon fill="white" stroke="white" points="-4,5 -4,-510 201,-510 201,5 -4,5"/>
<!-- q0 -->
<g id="node1" class="node"><title>q0</title>
<ellipse fill="none" stroke="black" cx="113" cy="-487" rx="27" ry="18.3848"/>
<text text-anchor="middle" x="113" y="-483.4" font-family="Times Roman,serif" font-size="14.00">q0</text>
</g>
<!-- q0&#45;&gt;q0 -->
<g id="edge4" class="edge"><title>q0&#45;&gt;q0</title>
<path fill="none" stroke="black" d="M137.074,-495.454C148.242,-496.377 158,-493.559 158,-487 158,-482.593 153.595,-479.875 147.317,-478.846"/>
<polygon fill="black" stroke="black" points="147.173,-475.34 137.074,-478.546 146.967,-482.337 147.173,-475.34"/>
<text text-anchor="middle" x="162.5" y="-483.4" font-family="Times Roman,serif" font-size="14.00">a</text>
</g>
<!-- q3 -->
<g id="node3" class="node"><title>q3</title>
<ellipse fill="none" stroke="black" cx="113" cy="-395" rx="27" ry="18.3848"/>
<text text-anchor="middle" x="113" y="-391.4" font-family="Times Roman,serif" font-size="14.00">q3</text>
</g>
<!-- q0&#45;&gt;q3 -->
<g id="edge2" class="edge"><title>q0&#45;&gt;q3</title>
<path fill="none" stroke="black" d="M113,-468.382C113,-455.538 113,-438.216 113,-423.627"/>
<polygon fill="black" stroke="black" points="116.5,-423.59 113,-413.59 109.5,-423.59 116.5,-423.59"/>
<text text-anchor="middle" x="117.5" y="-437.4" font-family="Times Roman,serif" font-size="14.00">b</text>
</g>
<!-- q2 -->
<g id="node5" class="node"><title>q2</title>
<ellipse fill="none" stroke="black" cx="27" cy="-303" rx="27" ry="18.3848"/>
<text text-anchor="middle" x="27" y="-299.4" font-family="Times Roman,serif" font-size="14.00">q2</text>
</g>
<!-- q3&#45;&gt;q2 -->
<g id="edge12" class="edge"><title>q3&#45;&gt;q2</title>
<path fill="none" stroke="black" d="M89.5103,-385.671C76.4303,-379.478 60.6803,-370.228 50,-358 43.3001,-350.329 38.3525,-340.428 34.8001,-331.146"/>
<polygon fill="black" stroke="black" points="38.0302,-329.775 31.476,-321.451 31.4085,-332.045 38.0302,-329.775"/>
<text text-anchor="middle" x="54.5" y="-345.4" font-family="Times Roman,serif" font-size="14.00">a</text>
</g>
<!-- q10 -->
<g id="node11" class="node"><title>q10</title>
<ellipse fill="none" stroke="black" cx="102" cy="-303" rx="29.9071" ry="18.3848"/>
<text text-anchor="middle" x="102" y="-299.4" font-family="Times Roman,serif" font-size="14.00">q10</text>
</g>
<!-- q3&#45;&gt;q10 -->
<g id="edge10" class="edge"><title>q3&#45;&gt;q10</title>
<path fill="none" stroke="black" d="M90.9251,-383.629C81.4042,-377.45 71.2608,-368.837 66,-358 60.3604,-346.383 66.7401,-334.29 75.6154,-324.411"/>
<polygon fill="black" stroke="black" points="78.1095,-326.867 82.7311,-317.333 73.1729,-321.904 78.1095,-326.867"/>
<text text-anchor="middle" x="70.5" y="-345.4" font-family="Times Roman,serif" font-size="14.00">b</text>
</g>
<!-- q4 -->
<g id="node7" class="node"><title>q4</title>
<ellipse fill="none" stroke="black" cx="43" cy="-207" rx="27" ry="18.3848"/>
<ellipse fill="none" stroke="black" cx="43" cy="-207" rx="31" ry="22.3848"/>
<text text-anchor="middle" x="43" y="-203.4" font-family="Times Roman,serif" font-size="14.00">q4</text>
</g>
<!-- q2&#45;&gt;q4 -->
<g id="edge6" class="edge"><title>q2&#45;&gt;q4</title>
<path fill="none" stroke="black" d="M25.8185,-284.513C25.508,-273.767 25.758,-260.017 28,-248 28.5978,-244.796 29.4179,-241.512 30.3689,-238.264"/>
<polygon fill="black" stroke="black" points="33.6982,-239.344 33.5227,-228.751 27.0538,-237.141 33.6982,-239.344"/>
<text text-anchor="middle" x="32.5" y="-253.4" font-family="Times Roman,serif" font-size="14.00">b</text>
</g>
<!-- q9 -->
<g id="node9" class="node"><title>q9</title>
<ellipse fill="none" stroke="black" cx="110" cy="-19" rx="27" ry="18.3848"/>
<text text-anchor="middle" x="110" y="-15.4" font-family="Times Roman,serif" font-size="14.00">q9</text>
</g>
<!-- q2&#45;&gt;q9 -->
<g id="edge8" class="edge"><title>q2&#45;&gt;q9</title>
<path fill="none" stroke="black" d="M42.0947,-287.52C54.8515,-273.581 72.6537,-251.964 83,-230 111.376,-169.761 113.174,-89.7078 111.757,-47.6335"/>
<polygon fill="black" stroke="black" points="115.25,-47.3901 111.329,-37.5474 108.256,-47.6868 115.25,-47.3901"/>
<text text-anchor="middle" x="110.5" y="-153.4" font-family="Times Roman,serif" font-size="14.00">a</text>
</g>
<!-- q4&#45;&gt;q2 -->
<g id="edge16" class="edge"><title>q4&#45;&gt;q2</title>
<path fill="none" stroke="black" d="M41.573,-229.535C40.654,-240.584 39.2068,-254.053 37,-266 36.4674,-268.883 35.822,-271.87 35.1182,-274.839"/>
<polygon fill="black" stroke="black" points="31.6855,-274.135 32.5804,-284.692 38.4643,-275.881 31.6855,-274.135"/>
<text text-anchor="middle" x="43.5" y="-253.4" font-family="Times Roman,serif" font-size="14.00">a</text>
</g>
<!-- q8 -->
<g id="node14" class="node"><title>q8</title>
<ellipse fill="none" stroke="black" cx="43" cy="-111" rx="27" ry="18.3848"/>
<text text-anchor="middle" x="43" y="-107.4" font-family="Times Roman,serif" font-size="14.00">q8</text>
</g>
<!-- q4&#45;&gt;q8 -->
<g id="edge14" class="edge"><title>q4&#45;&gt;q8</title>
<path fill="none" stroke="black" d="M43,-184.249C43,-170.994 43,-154.148 43,-139.954"/>
<polygon fill="black" stroke="black" points="46.5001,-139.72 43,-129.72 39.5001,-139.72 46.5001,-139.72"/>
<text text-anchor="middle" x="47.5" y="-153.4" font-family="Times Roman,serif" font-size="14.00">b</text>
</g>
<!-- q9&#45;&gt;q3 -->
<g id="edge22" class="edge"><title>q9&#45;&gt;q3</title>
<path fill="none" stroke="black" d="M130.635,-31.4582C153.443,-46.981 187,-75.8002 187,-111 187,-303 187,-303 187,-303 187,-333.582 161.866,-359.766 140.894,-376.29"/>
<polygon fill="black" stroke="black" points="138.723,-373.543 132.831,-382.348 142.928,-379.14 138.723,-373.543"/>
<text text-anchor="middle" x="191.5" y="-203.4" font-family="Times Roman,serif" font-size="14.00">b</text>
</g>
<!-- q9&#45;&gt;q8 -->
<g id="edge24" class="edge"><title>q9&#45;&gt;q8</title>
<path fill="none" stroke="black" d="M99.047,-36.1199C91.8767,-47.1129 82.169,-61.601 73,-74 69.8838,-78.2139 66.472,-82.609 63.1018,-86.8374"/>
<polygon fill="black" stroke="black" points="60.3318,-84.6965 56.7609,-94.6715 65.7729,-89.1005 60.3318,-84.6965"/>
<text text-anchor="middle" x="89.5" y="-61.4" font-family="Times Roman,serif" font-size="14.00">a</text>
</g>
<!-- q10&#45;&gt;q3 -->
<g id="edge26" class="edge"><title>q10&#45;&gt;q3</title>
<path fill="none" stroke="black" d="M98.241,-321.479C96.6546,-332.222 95.6546,-345.972 98,-358 98.6368,-361.266 99.5621,-364.607 100.645,-367.882"/>
<polygon fill="black" stroke="black" points="97.4211,-369.251 104.239,-377.361 103.967,-366.769 97.4211,-369.251"/>
<text text-anchor="middle" x="102.5" y="-345.4" font-family="Times Roman,serif" font-size="14.00">b</text>
</g>
<!-- q10&#45;&gt;q3 -->
<g id="edge28" class="edge"><title>q10&#45;&gt;q3</title>
<path fill="none" stroke="black" d="M104.586,-321.432C105.391,-327.357 106.262,-333.952 107,-340 108.039,-348.514 109.084,-357.78 110.003,-366.238"/>
<polygon fill="black" stroke="black" points="106.547,-366.831 111.091,-376.402 113.507,-366.086 106.547,-366.831"/>
<text text-anchor="middle" x="112.5" y="-345.4" font-family="Times Roman,serif" font-size="14.00">a</text>
</g>
<!-- q10&#45;&gt;q3 -->
<g id="edge30" class="edge"><title>q10&#45;&gt;q3</title>
<path fill="none" stroke="black" d="M113.079,-320.397C116.292,-326.374 119.371,-333.262 121,-340 123.063,-348.535 122.649,-357.952 121.257,-366.545"/>
<polygon fill="black" stroke="black" points="117.796,-365.999 119.177,-376.504 124.648,-367.431 117.796,-365.999"/>
<text text-anchor="middle" x="126.5" y="-345.4" font-family="Times Roman,serif" font-size="14.00">b</text>
</g>
<!-- q10&#45;&gt;q10 -->
<g id="edge32" class="edge"><title>q10&#45;&gt;q10</title>
<path fill="none" stroke="black" d="M128.655,-311.522C140.154,-312.22 150,-309.379 150,-303 150,-298.615 145.346,-295.901 138.701,-294.861"/>
<polygon fill="black" stroke="black" points="138.781,-291.361 128.655,-294.478 138.514,-298.356 138.781,-291.361"/>
<text text-anchor="middle" x="154.5" y="-299.4" font-family="Times Roman,serif" font-size="14.00">a</text>
</g>
<!-- q8&#45;&gt;q9 -->
<g id="edge20" class="edge"><title>q8&#45;&gt;q9</title>
<path fill="none" stroke="black" d="M47.3457,-92.7228C50.6457,-81.4075 56.0014,-66.9917 64,-56 68.9186,-49.2409 75.3724,-43.0329 81.8839,-37.711"/>
<polygon fill="black" stroke="black" points="84.2313,-40.3221 90.0514,-31.469 79.9807,-34.7604 84.2313,-40.3221"/>
<text text-anchor="middle" x="68.5" y="-61.4" font-family="Times Roman,serif" font-size="14.00">a</text>
</g>
<!-- q8&#45;&gt;q8 -->
<g id="edge18" class="edge"><title>q8&#45;&gt;q8</title>
<path fill="none" stroke="black" d="M67.0743,-119.454C78.2423,-120.377 88,-117.559 88,-111 88,-106.593 83.5952,-103.875 77.3174,-102.846"/>
<polygon fill="black" stroke="black" points="77.1726,-99.3402 67.0743,-102.546 76.9674,-106.337 77.1726,-99.3402"/>
<text text-anchor="middle" x="92.5" y="-107.4" font-family="Times Roman,serif" font-size="14.00">b</text>
</g>
</g>
</svg>
