<?xml version="1.0" encoding="UTF-8" standalone="no"?>
<!DOCTYPE svg PUBLIC "-//W3C//DTD SVG 1.1//EN"
 "http://www.w3.org/Graphics/SVG/1.1/DTD/svg11.dtd">
<!-- Generated by graphviz version 2.26.3 (20100126.1600)
 -->
<!-- Title: G Pages: 1 -->
<svg width="179pt" height="322pt"
 viewBox="0.00 0.00 179.00 322.00" xmlns="http://www.w3.org/2000/svg" xmlns:xlink="http://www.w3.org/1999/xlink">
<g id="graph1" class="graph" transform="scale(1 1) rotate(0) translate(4 318)">
<title>G</title>
<polygon fill="white" stroke="white" points="-4,5 -4,-318 176,-318 176,5 -4,5"/>
<!-- q2 -->
<g id="node1" class="node"><title>q2</title>
<ellipse fill="none" stroke="black" cx="117" cy="-295" rx="27" ry="18.3848"/>
<text text-anchor="middle" x="117" y="-291.4" font-family="Times Roman,serif" font-size="14.00">q2</text>
</g>
<!-- q2&#45;&gt;q2 -->
<g id="edge2" class="edge"><title>q2&#45;&gt;q2</title>
<path fill="none" stroke="black" d="M141.074,-303.454C152.242,-304.377 162,-301.559 162,-295 162,-290.593 157.595,-287.875 151.317,-286.846"/>
<polygon fill="black" stroke="black" points="151.173,-283.34 141.074,-286.546 150.967,-290.337 151.173,-283.34"/>
<text text-anchor="middle" x="166.5" y="-291.4" font-family="Times Roman,serif" font-size="14.00">b</text>
</g>
<!-- q3 -->
<g id="node4" class="node"><title>q3</title>
<ellipse fill="none" stroke="black" cx="27" cy="-203" rx="27" ry="18.3848"/>
<text text-anchor="middle" x="27" y="-199.4" font-family="Times Roman,serif" font-size="14.00">q3</text>
</g>
<!-- q2&#45;&gt;q3 -->
<g id="edge4" class="edge"><title>q2&#45;&gt;q3</title>
<path fill="none" stroke="black" d="M101.733,-279.393C87.2939,-264.634 65.4629,-242.318 49.1189,-225.61"/>
<polygon fill="black" stroke="black" points="51.5367,-223.077 42.0418,-218.376 46.5328,-227.972 51.5367,-223.077"/>
<text text-anchor="middle" x="84.5" y="-245.4" font-family="Times Roman,serif" font-size="14.00">a</text>
</g>
<!-- q4 -->
<g id="node7" class="node"><title>q4</title>
<ellipse fill="none" stroke="black" cx="75" cy="-111" rx="27" ry="18.3848"/>
<text text-anchor="middle" x="75" y="-107.4" font-family="Times Roman,serif" font-size="14.00">q4</text>
</g>
<!-- q3&#45;&gt;q4 -->
<g id="edge14" class="edge"><title>q3&#45;&gt;q4</title>
<path fill="none" stroke="black" d="M23.5015,-184.481C22.3029,-173.344 22.4343,-159.205 28,-148 31.7681,-140.414 37.9061,-133.906 44.5213,-128.56"/>
<polygon fill="black" stroke="black" points="46.9639,-131.112 53.0133,-122.414 42.8601,-125.441 46.9639,-131.112"/>
<text text-anchor="middle" x="32.5" y="-153.4" font-family="Times Roman,serif" font-size="14.00">b</text>
</g>
<!-- q3&#45;&gt;q4 -->
<g id="edge16" class="edge"><title>q3&#45;&gt;q4</title>
<path fill="none" stroke="black" d="M36.2549,-185.261C43.2937,-171.77 53.0952,-152.984 61.0786,-137.683"/>
<polygon fill="black" stroke="black" points="64.2509,-139.169 65.7735,-128.684 58.0448,-135.931 64.2509,-139.169"/>
<text text-anchor="middle" x="59.5" y="-153.4" font-family="Times Roman,serif" font-size="14.00">a</text>
</g>
<!-- q1 -->
<g id="node5" class="node"><title>q1</title>
<ellipse fill="none" stroke="black" cx="100" cy="-203" rx="27" ry="18.3848"/>
<text text-anchor="middle" x="100" y="-199.4" font-family="Times Roman,serif" font-size="14.00">q1</text>
</g>
<!-- q1&#45;&gt;q4 -->
<g id="edge6" class="edge"><title>q1&#45;&gt;q4</title>
<path fill="none" stroke="black" d="M94.9409,-184.382C91.4277,-171.454 86.6815,-153.988 82.7009,-139.339"/>
<polygon fill="black" stroke="black" points="85.9662,-138.008 79.9663,-129.276 79.2111,-139.844 85.9662,-138.008"/>
<text text-anchor="middle" x="93.5" y="-153.4" font-family="Times Roman,serif" font-size="14.00">b</text>
</g>
<!-- q1&#45;&gt;q4 -->
<g id="edge8" class="edge"><title>q1&#45;&gt;q4</title>
<path fill="none" stroke="black" d="M103.237,-184.495C104.432,-173.62 104.714,-159.746 101,-148 99.6042,-143.586 97.4718,-139.242 95.0163,-135.17"/>
<polygon fill="black" stroke="black" points="97.8123,-133.058 89.2853,-126.77 92.0298,-137.003 97.8123,-133.058"/>
<text text-anchor="middle" x="107.5" y="-153.4" font-family="Times Roman,serif" font-size="14.00">a</text>
</g>
<!-- q0 -->
<g id="node10" class="node"><title>q0</title>
<ellipse fill="none" stroke="black" cx="75" cy="-19" rx="27" ry="18.3848"/>
<text text-anchor="middle" x="75" y="-15.4" font-family="Times Roman,serif" font-size="14.00">q0</text>
</g>
<!-- q4&#45;&gt;q0 -->
<g id="edge10" class="edge"><title>q4&#45;&gt;q0</title>
<path fill="none" stroke="black" d="M66.2385,-93.3607C63.7013,-87.3671 61.2735,-80.5311 60,-74 58.4689,-66.1479 58.4689,-63.8521 60,-56 60.6368,-52.7344 61.5621,-49.3927 62.6454,-46.1181"/>
<polygon fill="black" stroke="black" points="65.9666,-47.2306 66.2385,-36.6393 59.4211,-44.7494 65.9666,-47.2306"/>
<text text-anchor="middle" x="64.5" y="-61.4" font-family="Times Roman,serif" font-size="14.00">b</text>
</g>
<!-- q4&#45;&gt;q0 -->
<g id="edge12" class="edge"><title>q4&#45;&gt;q0</title>
<path fill="none" stroke="black" d="M75,-92.3824C75,-79.5383 75,-62.2161 75,-47.6269"/>
<polygon fill="black" stroke="black" points="78.5001,-47.5898 75,-37.5899 71.5001,-47.5899 78.5001,-47.5898"/>
<text text-anchor="middle" x="79.5" y="-61.4" font-family="Times Roman,serif" font-size="14.00">a</text>
</g>
<!-- q0&#45;&gt;q2 -->
<g id="edge18" class="edge"><title>q0&#45;&gt;q2</title>
<path fill="none" stroke="black" d="M84.7048,-36.2775C92.5756,-50.8089 103.549,-72.3076 111,-92 125.996,-131.629 130.395,-142.001 136,-184 138.234,-200.74 138.144,-205.248 136,-222 134.052,-237.216 129.909,-253.792 125.987,-267.297"/>
<polygon fill="black" stroke="black" points="122.611,-266.368 123.071,-276.952 129.313,-268.391 122.611,-266.368"/>
<text text-anchor="middle" x="137.5" y="-153.4" font-family="Times Roman,serif" font-size="14.00">b</text>
</g>
<!-- q0&#45;&gt;q3 -->
<g id="edge20" class="edge"><title>q0&#45;&gt;q3</title>
<path fill="none" stroke="black" d="M62.4314,-35.4867C52.1921,-49.7166 38.142,-71.205 30,-92 20.7524,-115.619 21.456,-122.755 19,-148 18.2254,-155.962 18.1499,-158.045 19,-166 19.3077,-168.879 19.7465,-171.864 20.2622,-174.832"/>
<polygon fill="black" stroke="black" points="16.839,-175.563 22.2324,-184.682 23.703,-174.19 16.839,-175.563"/>
<text text-anchor="middle" x="34.5" y="-107.4" font-family="Times Roman,serif" font-size="14.00">a</text>
</g>
</g>
</svg>
