<?xml version="1.0" encoding="UTF-8" standalone="no"?>
<!DOCTYPE svg PUBLIC "-//W3C//DTD SVG 1.1//EN"
 "http://www.w3.org/Graphics/SVG/1.1/DTD/svg11.dtd">
<!-- Generated by graphviz version 2.26.3 (20100126.1600)
 -->
<!-- Title: G Pages: 1 -->
<svg width="191pt" height="330pt"
 viewBox="0.00 0.00 191.00 330.00" xmlns="http://www.w3.org/2000/svg" xmlns:xlink="http://www.w3.org/1999/xlink">
<g id="graph1" class="graph" transform="scale(1 1) rotate(0) translate(4 326)">
<title>G</title>
<polygon fill="white" stroke="white" points="-4,5 -4,-326 188,-326 188,5 -4,5"/>
<!-- q6 -->
<g id="node1" class="node"><title>q6</title>
<ellipse fill="none" stroke="black" cx="27" cy="-304" rx="27" ry="18"/>
<text text-anchor="middle" x="27" y="-299.9" font-family="Times Roman,serif" font-size="14.00">q6</text>
</g>
<!-- q6&#45;&gt;q6 -->
<g id="edge2" class="edge"><title>q6&#45;&gt;q6</title>
<path fill="none" stroke="black" d="M51.5325,-312.121C62.5078,-312.895 72,-310.188 72,-304 72,-299.843 67.7151,-297.257 61.5743,-296.242"/>
<polygon fill="black" stroke="black" points="61.6524,-292.742 51.5325,-295.879 61.3995,-299.738 61.6524,-292.742"/>
<text text-anchor="middle" x="76.5" y="-299.9" font-family="Times Roman,serif" font-size="14.00">b</text>
</g>
<!-- q4 -->
<g id="node4" class="node"><title>q4</title>
<ellipse fill="none" stroke="black" cx="27" cy="-214" rx="27" ry="18"/>
<text text-anchor="middle" x="27" y="-209.9" font-family="Times Roman,serif" font-size="14.00">q4</text>
</g>
<!-- q6&#45;&gt;q4 -->
<g id="edge4" class="edge"><title>q6&#45;&gt;q4</title>
<path fill="none" stroke="black" d="M27,-285.787C27,-273.344 27,-256.605 27,-242.421"/>
<polygon fill="black" stroke="black" points="30.5001,-242.186 27,-232.186 23.5001,-242.186 30.5001,-242.186"/>
<text text-anchor="middle" x="31.5" y="-254.9" font-family="Times Roman,serif" font-size="14.00">a</text>
</g>
<!-- q4&#45;&gt;q4 -->
<g id="edge20" class="edge"><title>q4&#45;&gt;q4</title>
<path fill="none" stroke="black" d="M51.5325,-222.121C62.5078,-222.895 72,-220.188 72,-214 72,-209.843 67.7151,-207.257 61.5743,-206.242"/>
<polygon fill="black" stroke="black" points="61.6524,-202.742 51.5325,-205.879 61.3995,-209.738 61.6524,-202.742"/>
<text text-anchor="middle" x="76.5" y="-209.9" font-family="Times Roman,serif" font-size="14.00">a</text>
</g>
<!-- q2 -->
<g id="node9" class="node"><title>q2</title>
<ellipse fill="none" stroke="black" cx="76" cy="-120" rx="27" ry="18"/>
<text text-anchor="middle" x="76" y="-115.9" font-family="Times Roman,serif" font-size="14.00">q2</text>
</g>
<!-- q4&#45;&gt;q2 -->
<g id="edge18" class="edge"><title>q4&#45;&gt;q2</title>
<path fill="none" stroke="black" d="M35.9874,-196.759C43.378,-182.581 53.9681,-162.265 62.397,-146.095"/>
<polygon fill="black" stroke="black" points="65.5508,-147.617 67.0696,-137.132 59.3435,-144.381 65.5508,-147.617"/>
<text text-anchor="middle" x="58.5" y="-164.9" font-family="Times Roman,serif" font-size="14.00">b</text>
</g>
<!-- q5 -->
<g id="node5" class="node"><title>q5</title>
<ellipse fill="none" stroke="black" cx="128" cy="-214" rx="27" ry="18"/>
<text text-anchor="middle" x="128" y="-209.9" font-family="Times Roman,serif" font-size="14.00">q5</text>
</g>
<!-- q1 -->
<g id="node7" class="node"><title>q1</title>
<ellipse fill="none" stroke="black" cx="152" cy="-120" rx="27" ry="18"/>
<ellipse fill="none" stroke="black" cx="152" cy="-120" rx="31" ry="22"/>
<text text-anchor="middle" x="152" y="-115.9" font-family="Times Roman,serif" font-size="14.00">q1</text>
</g>
<!-- q5&#45;&gt;q1 -->
<g id="edge6" class="edge"><title>q5&#45;&gt;q1</title>
<path fill="none" stroke="black" d="M132.627,-195.876C135.837,-183.305 140.195,-166.235 143.965,-151.469"/>
<polygon fill="black" stroke="black" points="147.377,-152.253 146.46,-141.698 140.595,-150.522 147.377,-152.253"/>
<text text-anchor="middle" x="145.5" y="-164.9" font-family="Times Roman,serif" font-size="14.00">b</text>
</g>
<!-- q5&#45;&gt;q2 -->
<g id="edge8" class="edge"><title>q5&#45;&gt;q2</title>
<path fill="none" stroke="black" d="M118.462,-196.759C110.619,-182.581 99.3808,-162.265 90.4358,-146.095"/>
<polygon fill="black" stroke="black" points="93.3804,-144.188 85.4771,-137.132 87.2552,-147.576 93.3804,-144.188"/>
<text text-anchor="middle" x="110.5" y="-164.9" font-family="Times Roman,serif" font-size="14.00">a</text>
</g>
<!-- q0 -->
<g id="node11" class="node"><title>q0</title>
<ellipse fill="none" stroke="black" cx="88" cy="-22" rx="27" ry="18"/>
<ellipse fill="none" stroke="black" cx="88" cy="-22" rx="31" ry="22"/>
<text text-anchor="middle" x="88" y="-17.9" font-family="Times Roman,serif" font-size="14.00">q0</text>
</g>
<!-- q1&#45;&gt;q0 -->
<g id="edge14" class="edge"><title>q1&#45;&gt;q0</title>
<path fill="none" stroke="black" d="M146.289,-98.2373C142.692,-86.8556 137.328,-73.0352 130,-62 126.183,-56.2512 121.399,-50.7138 116.441,-45.6866"/>
<polygon fill="black" stroke="black" points="118.793,-43.0933 109.142,-38.7209 113.96,-48.1572 118.793,-43.0933"/>
<text text-anchor="middle" x="143.5" y="-66.9" font-family="Times Roman,serif" font-size="14.00">b</text>
</g>
<!-- q1&#45;&gt;q0 -->
<g id="edge16" class="edge"><title>q1&#45;&gt;q0</title>
<path fill="none" stroke="black" d="M136.294,-100.879C131.21,-94.3956 125.681,-87.0164 121,-80 115.021,-71.0371 109.031,-60.9318 103.827,-51.6971"/>
<polygon fill="black" stroke="black" points="106.821,-49.8794 98.9145,-42.8271 100.698,-53.2708 106.821,-49.8794"/>
<text text-anchor="middle" x="125.5" y="-66.9" font-family="Times Roman,serif" font-size="14.00">a</text>
</g>
<!-- q2&#45;&gt;q0 -->
<g id="edge10" class="edge"><title>q2&#45;&gt;q0</title>
<path fill="none" stroke="black" d="M78.201,-102.025C79.8439,-88.6081 82.1324,-69.9187 84.0846,-53.9754"/>
<polygon fill="black" stroke="black" points="87.5674,-54.3291 85.3088,-43.9779 80.6193,-53.4783 87.5674,-54.3291"/>
<text text-anchor="middle" x="87.5" y="-66.9" font-family="Times Roman,serif" font-size="14.00">b</text>
</g>
<!-- q2&#45;&gt;q0 -->
<g id="edge12" class="edge"><title>q2&#45;&gt;q0</title>
<path fill="none" stroke="black" d="M69.6618,-102.328C66.3899,-90.7554 63.707,-75.3565 67,-62 67.8519,-58.5446 69.0616,-55.0574 70.4754,-51.6583"/>
<polygon fill="black" stroke="black" points="73.7388,-52.9456 74.873,-42.4116 67.4173,-49.9391 73.7388,-52.9456"/>
<text text-anchor="middle" x="71.5" y="-66.9" font-family="Times Roman,serif" font-size="14.00">a</text>
</g>
<!-- q0&#45;&gt;q4 -->
<g id="edge24" class="edge"><title>q0&#45;&gt;q4</title>
<path fill="none" stroke="black" d="M69.6296,-39.7535C56.1828,-54.0594 38.9524,-75.446 31,-98 20.9473,-126.511 21.3032,-161.443 23.3207,-185.479"/>
<polygon fill="black" stroke="black" points="19.8637,-186.088 24.3331,-195.694 26.8296,-185.397 19.8637,-186.088"/>
<text text-anchor="middle" x="35.5" y="-115.9" font-family="Times Roman,serif" font-size="14.00">a</text>
</g>
<!-- q0&#45;&gt;q0 -->
<g id="edge22" class="edge"><title>q0&#45;&gt;q0</title>
<path fill="none" stroke="black" d="M116.689,-30.9648C127.781,-31.3633 137,-28.375 137,-22 137,-17.7168 132.838,-14.9624 126.743,-13.7368"/>
<polygon fill="black" stroke="black" points="126.908,-10.2399 116.689,-13.0352 126.421,-17.223 126.908,-10.2399"/>
<text text-anchor="middle" x="141.5" y="-17.9" font-family="Times Roman,serif" font-size="14.00">b</text>
</g>
</g>
</svg>
