<?xml version="1.0" encoding="UTF-8" standalone="no"?>
<!DOCTYPE svg PUBLIC "-//W3C//DTD SVG 1.1//EN"
 "http://www.w3.org/Graphics/SVG/1.1/DTD/svg11.dtd">
<!-- Generated by graphviz version 2.26.3 (20100126.1600)
 -->
<!-- Title: G Pages: 1 -->
<svg width="140pt" height="412pt"
 viewBox="0.00 0.00 140.00 412.00" xmlns="http://www.w3.org/2000/svg" xmlns:xlink="http://www.w3.org/1999/xlink">
<g id="graph1" class="graph" transform="scale(1 1) rotate(0) translate(4 408)">
<title>G</title>
<polygon fill="white" stroke="white" points="-4,5 -4,-408 137,-408 137,5 -4,5"/>
<!-- q6 -->
<g id="node1" class="node"><title>q6</title>
<ellipse fill="none" stroke="black" cx="27" cy="-288" rx="27" ry="18"/>
<text text-anchor="middle" x="27" y="-283.9" font-family="Times Roman,serif" font-size="14.00">q6</text>
</g>
<!-- q6&#45;&gt;q6 -->
<g id="edge2" class="edge"><title>q6&#45;&gt;q6</title>
<path fill="none" stroke="black" d="M51.5325,-296.121C62.5078,-296.895 72,-294.188 72,-288 72,-283.843 67.7151,-281.257 61.5743,-280.242"/>
<polygon fill="black" stroke="black" points="61.6524,-276.742 51.5325,-279.879 61.3995,-283.738 61.6524,-276.742"/>
<text text-anchor="middle" x="76.5" y="-283.9" font-family="Times Roman,serif" font-size="14.00">b</text>
</g>
<!-- q4 -->
<g id="node4" class="node"><title>q4</title>
<ellipse fill="none" stroke="black" cx="54" cy="-198" rx="27" ry="18"/>
<text text-anchor="middle" x="54" y="-193.9" font-family="Times Roman,serif" font-size="14.00">q4</text>
</g>
<!-- q6&#45;&gt;q4 -->
<g id="edge4" class="edge"><title>q6&#45;&gt;q4</title>
<path fill="none" stroke="black" d="M32.3343,-270.219C36.1433,-257.522 41.3414,-240.195 45.6913,-225.696"/>
<polygon fill="black" stroke="black" points="49.1556,-226.328 48.6768,-215.744 42.4508,-224.317 49.1556,-226.328"/>
<text text-anchor="middle" x="46.5" y="-238.9" font-family="Times Roman,serif" font-size="14.00">a</text>
</g>
<!-- q2 -->
<g id="node5" class="node"><title>q2</title>
<ellipse fill="none" stroke="black" cx="63" cy="-18" rx="27" ry="18"/>
<text text-anchor="middle" x="63" y="-13.9" font-family="Times Roman,serif" font-size="14.00">q2</text>
</g>
<!-- q4&#45;&gt;q2 -->
<g id="edge14" class="edge"><title>q4&#45;&gt;q2</title>
<path fill="none" stroke="black" d="M54.9125,-179.75C56.4866,-148.269 59.7225,-83.5502 61.5888,-46.2249"/>
<polygon fill="black" stroke="black" points="65.0946,-46.193 62.0985,-36.0306 58.1034,-45.8433 65.0946,-46.193"/>
<text text-anchor="middle" x="63.5" y="-103.9" font-family="Times Roman,serif" font-size="14.00">b</text>
</g>
<!-- q3 -->
<g id="node11" class="node"><title>q3</title>
<ellipse fill="none" stroke="black" cx="105" cy="-108" rx="27" ry="18"/>
<text text-anchor="middle" x="105" y="-103.9" font-family="Times Roman,serif" font-size="14.00">q3</text>
</g>
<!-- q4&#45;&gt;q3 -->
<g id="edge16" class="edge"><title>q4&#45;&gt;q3</title>
<path fill="none" stroke="black" d="M63.5927,-181.072C71.1435,-167.747 81.7927,-148.954 90.4005,-133.764"/>
<polygon fill="black" stroke="black" points="93.5652,-135.278 95.4503,-124.852 87.475,-131.827 93.5652,-135.278"/>
<text text-anchor="middle" x="88.5" y="-148.9" font-family="Times Roman,serif" font-size="14.00">a</text>
</g>
<!-- q2&#45;&gt;q6 -->
<g id="edge8" class="edge"><title>q2&#45;&gt;q6</title>
<path fill="none" stroke="black" d="M56.3911,-35.6467C45.7653,-65.0618 25.3328,-126.204 18,-180 15.839,-195.853 17.0058,-200.031 18,-216 18.9079,-230.584 20.8408,-246.733 22.6833,-260.035"/>
<polygon fill="black" stroke="black" points="19.2299,-260.61 24.1204,-270.009 26.1584,-259.612 19.2299,-260.61"/>
<text text-anchor="middle" x="29.5" y="-148.9" font-family="Times Roman,serif" font-size="14.00">a</text>
</g>
<!-- q2&#45;&gt;q2 -->
<g id="edge6" class="edge"><title>q2&#45;&gt;q2</title>
<path fill="none" stroke="black" d="M87.5325,-26.1211C98.5078,-26.8945 108,-24.1875 108,-18 108,-13.8428 103.715,-11.2567 97.5743,-10.2417"/>
<polygon fill="black" stroke="black" points="97.6524,-6.74237 87.5325,-9.87891 97.3995,-13.7378 97.6524,-6.74237"/>
<text text-anchor="middle" x="112.5" y="-13.9" font-family="Times Roman,serif" font-size="14.00">b</text>
</g>
<!-- q1 -->
<g id="node8" class="node"><title>q1</title>
<ellipse fill="none" stroke="black" cx="82" cy="-382" rx="27" ry="18"/>
<ellipse fill="none" stroke="black" cx="82" cy="-382" rx="31" ry="22"/>
<text text-anchor="middle" x="82" y="-377.9" font-family="Times Roman,serif" font-size="14.00">q1</text>
</g>
<!-- q1&#45;&gt;q6 -->
<g id="edge10" class="edge"><title>q1&#45;&gt;q6</title>
<path fill="none" stroke="black" d="M70.0658,-361.603C61.8505,-347.563 50.8716,-328.799 42.0554,-313.731"/>
<polygon fill="black" stroke="black" points="44.9605,-311.766 36.8895,-304.902 38.9187,-315.301 44.9605,-311.766"/>
<text text-anchor="middle" x="61.5" y="-328.9" font-family="Times Roman,serif" font-size="14.00">b</text>
</g>
<!-- q1&#45;&gt;q3 -->
<g id="edge12" class="edge"><title>q1&#45;&gt;q3</title>
<path fill="none" stroke="black" d="M84.4805,-360.067C86.1542,-344.895 88.35,-324.234 90,-306 95.4575,-245.69 100.488,-174.921 103.108,-136.443"/>
<polygon fill="black" stroke="black" points="106.629,-136.246 103.811,-126.033 99.6449,-135.774 106.629,-136.246"/>
<text text-anchor="middle" x="99.5" y="-238.9" font-family="Times Roman,serif" font-size="14.00">a</text>
</g>
<!-- q3&#45;&gt;q2 -->
<g id="edge18" class="edge"><title>q3&#45;&gt;q2</title>
<path fill="none" stroke="black" d="M92.8018,-91.705C88.6842,-85.717 84.3002,-78.7478 81,-72 76.9432,-63.7053 73.4499,-54.2718 70.6491,-45.6358"/>
<polygon fill="black" stroke="black" points="73.9661,-44.5141 67.6872,-35.9803 67.2739,-46.5671 73.9661,-44.5141"/>
<text text-anchor="middle" x="85.5" y="-58.9" font-family="Times Roman,serif" font-size="14.00">b</text>
</g>
<!-- q3&#45;&gt;q2 -->
<g id="edge20" class="edge"><title>q3&#45;&gt;q2</title>
<path fill="none" stroke="black" d="M101.734,-89.8811C99.3648,-79.0975 95.584,-65.3497 90,-54 87.9662,-49.8663 85.4368,-45.7268 82.748,-41.8035"/>
<polygon fill="black" stroke="black" points="85.4873,-39.6209 76.7376,-33.6464 79.8518,-43.7733 85.4873,-39.6209"/>
<text text-anchor="middle" x="100.5" y="-58.9" font-family="Times Roman,serif" font-size="14.00">a</text>
</g>
</g>
</svg>
