<?xml version="1.0" encoding="UTF-8" standalone="no"?>
<!DOCTYPE svg PUBLIC "-//W3C//DTD SVG 1.1//EN"
 "http://www.w3.org/Graphics/SVG/1.1/DTD/svg11.dtd">
<!-- Generated by graphviz version 2.26.3 (20100126.1600)
 -->
<!-- Title: G Pages: 1 -->
<svg width="217pt" height="414pt"
 viewBox="0.00 0.00 217.00 414.00" xmlns="http://www.w3.org/2000/svg" xmlns:xlink="http://www.w3.org/1999/xlink">
<g id="graph1" class="graph" transform="scale(1 1) rotate(0) translate(4 410)">
<title>G</title>
<polygon fill="white" stroke="white" points="-4,5 -4,-410 214,-410 214,5 -4,5"/>
<!-- q6 -->
<g id="node1" class="node"><title>q6</title>
<ellipse fill="none" stroke="black" cx="27" cy="-295" rx="27" ry="18.3848"/>
<text text-anchor="middle" x="27" y="-291.4" font-family="Times Roman,serif" font-size="14.00">q6</text>
</g>
<!-- q6&#45;&gt;q6 -->
<g id="edge4" class="edge"><title>q6&#45;&gt;q6</title>
<path fill="none" stroke="black" d="M51.0743,-303.454C62.2423,-304.377 72,-301.559 72,-295 72,-290.593 67.5952,-287.875 61.3174,-286.846"/>
<polygon fill="black" stroke="black" points="61.1726,-283.34 51.0743,-286.546 60.9674,-290.337 61.1726,-283.34"/>
<text text-anchor="middle" x="76.5" y="-291.4" font-family="Times Roman,serif" font-size="14.00">a</text>
</g>
<!-- q1 -->
<g id="node3" class="node"><title>q1</title>
<ellipse fill="none" stroke="black" cx="83" cy="-203" rx="27" ry="18.3848"/>
<text text-anchor="middle" x="83" y="-199.4" font-family="Times Roman,serif" font-size="14.00">q1</text>
</g>
<!-- q6&#45;&gt;q1 -->
<g id="edge2" class="edge"><title>q6&#45;&gt;q1</title>
<path fill="none" stroke="black" d="M37.5332,-277.696C45.9025,-263.946 57.7384,-244.501 67.2361,-228.898"/>
<polygon fill="black" stroke="black" points="70.3042,-230.589 72.5141,-220.227 64.3248,-226.949 70.3042,-230.589"/>
<text text-anchor="middle" x="65.5" y="-245.4" font-family="Times Roman,serif" font-size="14.00">b</text>
</g>
<!-- q1&#45;&gt;q1 -->
<g id="edge16" class="edge"><title>q1&#45;&gt;q1</title>
<path fill="none" stroke="black" d="M107.074,-211.454C118.242,-212.377 128,-209.559 128,-203 128,-198.593 123.595,-195.875 117.317,-194.846"/>
<polygon fill="black" stroke="black" points="117.173,-191.34 107.074,-194.546 116.967,-198.337 117.173,-191.34"/>
<text text-anchor="middle" x="132.5" y="-199.4" font-family="Times Roman,serif" font-size="14.00">a</text>
</g>
<!-- q5 -->
<g id="node5" class="node"><title>q5</title>
<ellipse fill="none" stroke="black" cx="119" cy="-111" rx="27" ry="18.3848"/>
<text text-anchor="middle" x="119" y="-107.4" font-family="Times Roman,serif" font-size="14.00">q5</text>
</g>
<!-- q1&#45;&gt;q5 -->
<g id="edge14" class="edge"><title>q1&#45;&gt;q5</title>
<path fill="none" stroke="black" d="M90.1124,-184.824C95.2897,-171.593 102.392,-153.443 108.258,-138.451"/>
<polygon fill="black" stroke="black" points="111.518,-139.726 111.902,-129.138 104.999,-137.175 111.518,-139.726"/>
<text text-anchor="middle" x="109.5" y="-153.4" font-family="Times Roman,serif" font-size="14.00">b</text>
</g>
<!-- q5&#45;&gt;q6 -->
<g id="edge8" class="edge"><title>q5&#45;&gt;q6</title>
<path fill="none" stroke="black" d="M98.4099,-123.167C79.1857,-135.755 51.4938,-157.306 38,-184 25.0449,-209.628 23.4075,-242.81 24.3231,-266.196"/>
<polygon fill="black" stroke="black" points="20.8292,-266.404 24.8919,-276.189 27.8178,-266.006 20.8292,-266.404"/>
<text text-anchor="middle" x="42.5" y="-199.4" font-family="Times Roman,serif" font-size="14.00">a</text>
</g>
<!-- q2 -->
<g id="node7" class="node"><title>q2</title>
<ellipse fill="none" stroke="black" cx="124" cy="-19" rx="27" ry="18.3848"/>
<text text-anchor="middle" x="124" y="-15.4" font-family="Times Roman,serif" font-size="14.00">q2</text>
</g>
<!-- q5&#45;&gt;q2 -->
<g id="edge6" class="edge"><title>q5&#45;&gt;q2</title>
<path fill="none" stroke="black" d="M112.217,-92.6447C109.122,-81.943 106.622,-68.193 109,-56 109.637,-52.7344 110.562,-49.3927 111.645,-46.1181"/>
<polygon fill="black" stroke="black" points="114.967,-47.2306 115.239,-36.6393 108.421,-44.7494 114.967,-47.2306"/>
<text text-anchor="middle" x="113.5" y="-61.4" font-family="Times Roman,serif" font-size="14.00">b</text>
</g>
<!-- q2&#45;&gt;q1 -->
<g id="edge10" class="edge"><title>q2&#45;&gt;q1</title>
<path fill="none" stroke="black" d="M109.128,-34.5853C97.0238,-48.4258 80.8608,-69.8422 74,-92 65.5199,-119.388 69.8839,-152.291 75.0574,-175.13"/>
<polygon fill="black" stroke="black" points="71.6629,-175.984 77.4481,-184.86 78.4607,-174.314 71.6629,-175.984"/>
<text text-anchor="middle" x="78.5" y="-107.4" font-family="Times Roman,serif" font-size="14.00">b</text>
</g>
<!-- q2&#45;&gt;q5 -->
<g id="edge12" class="edge"><title>q2&#45;&gt;q5</title>
<path fill="none" stroke="black" d="M122.99,-37.5899C122.292,-50.4275 121.351,-67.7485 120.558,-82.3416"/>
<polygon fill="black" stroke="black" points="117.06,-82.2072 120.012,-92.3824 124.049,-82.5871 117.06,-82.2072"/>
<text text-anchor="middle" x="125.5" y="-61.4" font-family="Times Roman,serif" font-size="14.00">a</text>
</g>
<!-- q4 -->
<g id="node13" class="node"><title>q4</title>
<ellipse fill="none" stroke="black" cx="138" cy="-387" rx="27" ry="18.3848"/>
<text text-anchor="middle" x="138" y="-383.4" font-family="Times Roman,serif" font-size="14.00">q4</text>
</g>
<!-- q4&#45;&gt;q1 -->
<g id="edge20" class="edge"><title>q4&#45;&gt;q1</title>
<path fill="none" stroke="black" d="M132.525,-368.685C122.889,-336.447 102.839,-269.372 91.4267,-231.191"/>
<polygon fill="black" stroke="black" points="94.6699,-229.82 88.4525,-221.241 87.9631,-231.825 94.6699,-229.82"/>
<text text-anchor="middle" x="120.5" y="-291.4" font-family="Times Roman,serif" font-size="14.00">a</text>
</g>
<!-- q0 -->
<g id="node15" class="node"><title>q0</title>
<ellipse fill="none" stroke="black" cx="171" cy="-295" rx="27" ry="18.3848"/>
<text text-anchor="middle" x="171" y="-291.4" font-family="Times Roman,serif" font-size="14.00">q0</text>
</g>
<!-- q4&#45;&gt;q0 -->
<g id="edge18" class="edge"><title>q4&#45;&gt;q0</title>
<path fill="none" stroke="black" d="M144.52,-368.824C149.22,-355.719 155.652,-337.789 160.999,-322.88"/>
<polygon fill="black" stroke="black" points="164.412,-323.733 164.494,-313.138 157.823,-321.37 164.412,-323.733"/>
<text text-anchor="middle" x="161.5" y="-337.4" font-family="Times Roman,serif" font-size="14.00">b</text>
</g>
<!-- q0&#45;&gt;q1 -->
<g id="edge28" class="edge"><title>q0&#45;&gt;q1</title>
<path fill="none" stroke="black" d="M159.101,-277.852C150.928,-266.583 139.512,-251.798 128,-240 122.464,-234.326 116.1,-228.659 109.934,-223.525"/>
<polygon fill="black" stroke="black" points="111.722,-220.47 101.744,-216.905 107.321,-225.914 111.722,-220.47"/>
<text text-anchor="middle" x="147.5" y="-245.4" font-family="Times Roman,serif" font-size="14.00">a</text>
</g>
<!-- q3 -->
<g id="node17" class="node"><title>q3</title>
<ellipse fill="none" stroke="black" cx="182" cy="-203" rx="27" ry="18.3848"/>
<text text-anchor="middle" x="182" y="-199.4" font-family="Times Roman,serif" font-size="14.00">q3</text>
</g>
<!-- q0&#45;&gt;q3 -->
<g id="edge26" class="edge"><title>q0&#45;&gt;q3</title>
<path fill="none" stroke="black" d="M173.226,-276.382C174.762,-263.538 176.833,-246.216 178.577,-231.627"/>
<polygon fill="black" stroke="black" points="182.065,-231.935 179.777,-221.59 175.115,-231.104 182.065,-231.935"/>
<text text-anchor="middle" x="181.5" y="-245.4" font-family="Times Roman,serif" font-size="14.00">b</text>
</g>
<!-- q3&#45;&gt;q5 -->
<g id="edge22" class="edge"><title>q3&#45;&gt;q5</title>
<path fill="none" stroke="black" d="M170.445,-186.126C160.854,-172.12 147.072,-151.994 136.186,-136.098"/>
<polygon fill="black" stroke="black" points="139.02,-134.041 130.482,-127.767 133.244,-137.996 139.02,-134.041"/>
<text text-anchor="middle" x="160.5" y="-153.4" font-family="Times Roman,serif" font-size="14.00">b</text>
</g>
<!-- q3&#45;&gt;q2 -->
<g id="edge24" class="edge"><title>q3&#45;&gt;q2</title>
<path fill="none" stroke="black" d="M178.419,-184.277C173.935,-161.999 165.546,-123.815 155,-92 149.84,-76.4349 142.772,-59.5532 136.688,-45.9485"/>
<polygon fill="black" stroke="black" points="139.801,-44.3389 132.473,-36.687 133.43,-47.2386 139.801,-44.3389"/>
<text text-anchor="middle" x="169.5" y="-107.4" font-family="Times Roman,serif" font-size="14.00">a</text>
</g>
</g>
</svg>
