<?xml version="1.0" encoding="UTF-8" standalone="no"?>
<!DOCTYPE svg PUBLIC "-//W3C//DTD SVG 1.1//EN"
 "http://www.w3.org/Graphics/SVG/1.1/DTD/svg11.dtd">
<!-- Generated by graphviz version 2.26.3 (20100126.1600)
 -->
<!-- Title: G Pages: 1 -->
<svg width="222pt" height="514pt"
 viewBox="0.00 0.00 222.00 514.00" xmlns="http://www.w3.org/2000/svg" xmlns:xlink="http://www.w3.org/1999/xlink">
<g id="graph1" class="graph" transform="scale(1 1) rotate(0) translate(4 510)">
<title>G</title>
<polygon fill="white" stroke="white" points="-4,5 -4,-510 219,-510 219,5 -4,5"/>
<!-- q0 -->
<g id="node1" class="node"><title>q0</title>
<ellipse fill="none" stroke="black" cx="27" cy="-487" rx="27" ry="18.3848"/>
<text text-anchor="middle" x="27" y="-483.4" font-family="Times Roman,serif" font-size="14.00">q0</text>
</g>
<!-- q0&#45;&gt;q0 -->
<g id="edge2" class="edge"><title>q0&#45;&gt;q0</title>
<path fill="none" stroke="black" d="M51.0743,-495.454C62.2423,-496.377 72,-493.559 72,-487 72,-482.593 67.5952,-479.875 61.3174,-478.846"/>
<polygon fill="black" stroke="black" points="61.1726,-475.34 51.0743,-478.546 60.9674,-482.337 61.1726,-475.34"/>
<text text-anchor="middle" x="76.5" y="-483.4" font-family="Times Roman,serif" font-size="14.00">b</text>
</g>
<!-- q6 -->
<g id="node4" class="node"><title>q6</title>
<ellipse fill="none" stroke="black" cx="81" cy="-395" rx="27" ry="18.3848"/>
<text text-anchor="middle" x="81" y="-391.4" font-family="Times Roman,serif" font-size="14.00">q6</text>
</g>
<!-- q0&#45;&gt;q6 -->
<g id="edge4" class="edge"><title>q0&#45;&gt;q6</title>
<path fill="none" stroke="black" d="M37.157,-469.696C45.2274,-455.946 56.6406,-436.501 65.7991,-420.898"/>
<polygon fill="black" stroke="black" points="68.845,-422.623 70.8886,-412.227 62.808,-419.079 68.845,-422.623"/>
<text text-anchor="middle" x="62.5" y="-437.4" font-family="Times Roman,serif" font-size="14.00">a</text>
</g>
<!-- q6&#45;&gt;q6 -->
<g id="edge18" class="edge"><title>q6&#45;&gt;q6</title>
<path fill="none" stroke="black" d="M105.074,-403.454C116.242,-404.377 126,-401.559 126,-395 126,-390.593 121.595,-387.875 115.317,-386.846"/>
<polygon fill="black" stroke="black" points="115.173,-383.34 105.074,-386.546 114.967,-390.337 115.173,-383.34"/>
<text text-anchor="middle" x="130.5" y="-391.4" font-family="Times Roman,serif" font-size="14.00">b</text>
</g>
<!-- q7 -->
<g id="node7" class="node"><title>q7</title>
<ellipse fill="none" stroke="black" cx="81" cy="-303" rx="27" ry="18.3848"/>
<text text-anchor="middle" x="81" y="-299.4" font-family="Times Roman,serif" font-size="14.00">q7</text>
</g>
<!-- q6&#45;&gt;q7 -->
<g id="edge20" class="edge"><title>q6&#45;&gt;q7</title>
<path fill="none" stroke="black" d="M81,-376.382C81,-363.538 81,-346.216 81,-331.627"/>
<polygon fill="black" stroke="black" points="84.5001,-331.59 81,-321.59 77.5001,-331.59 84.5001,-331.59"/>
<text text-anchor="middle" x="85.5" y="-345.4" font-family="Times Roman,serif" font-size="14.00">a</text>
</g>
<!-- q2 -->
<g id="node5" class="node"><title>q2</title>
<ellipse fill="none" stroke="black" cx="108" cy="-211" rx="27" ry="18.3848"/>
<text text-anchor="middle" x="108" y="-207.4" font-family="Times Roman,serif" font-size="14.00">q2</text>
</g>
<!-- q2&#45;&gt;q7 -->
<g id="edge6" class="edge"><title>q2&#45;&gt;q7</title>
<path fill="none" stroke="black" d="M96.4188,-228.014C92.8239,-234.076 89.225,-241.112 87,-248 84.3132,-256.318 82.7784,-265.672 81.9161,-274.274"/>
<polygon fill="black" stroke="black" points="78.4239,-274.041 81.1656,-284.275 85.4042,-274.565 78.4239,-274.041"/>
<text text-anchor="middle" x="91.5" y="-253.4" font-family="Times Roman,serif" font-size="14.00">b</text>
</g>
<!-- q4 -->
<g id="node9" class="node"><title>q4</title>
<ellipse fill="none" stroke="black" cx="108" cy="-119" rx="27" ry="18.3848"/>
<text text-anchor="middle" x="108" y="-115.4" font-family="Times Roman,serif" font-size="14.00">q4</text>
</g>
<!-- q2&#45;&gt;q4 -->
<g id="edge8" class="edge"><title>q2&#45;&gt;q4</title>
<path fill="none" stroke="black" d="M108,-192.382C108,-179.538 108,-162.216 108,-147.627"/>
<polygon fill="black" stroke="black" points="111.5,-147.59 108,-137.59 104.5,-147.59 111.5,-147.59"/>
<text text-anchor="middle" x="112.5" y="-161.4" font-family="Times Roman,serif" font-size="14.00">a</text>
</g>
<!-- q7&#45;&gt;q2 -->
<g id="edge22" class="edge"><title>q7&#45;&gt;q2</title>
<path fill="none" stroke="black" d="M88.9496,-285.157C91.4327,-279.149 94.0336,-272.357 96,-266 98.6281,-257.504 100.904,-248.098 102.746,-239.503"/>
<polygon fill="black" stroke="black" points="106.21,-240.034 104.773,-229.537 99.3502,-238.639 106.21,-240.034"/>
<text text-anchor="middle" x="104.5" y="-253.4" font-family="Times Roman,serif" font-size="14.00">b</text>
</g>
<!-- q7&#45;&gt;q7 -->
<g id="edge24" class="edge"><title>q7&#45;&gt;q7</title>
<path fill="none" stroke="black" d="M105.074,-311.454C116.242,-312.377 126,-309.559 126,-303 126,-298.593 121.595,-295.875 115.317,-294.846"/>
<polygon fill="black" stroke="black" points="115.173,-291.34 105.074,-294.546 114.967,-298.337 115.173,-291.34"/>
<text text-anchor="middle" x="130.5" y="-299.4" font-family="Times Roman,serif" font-size="14.00">a</text>
</g>
<!-- q8 -->
<g id="node11" class="node"><title>q8</title>
<ellipse fill="none" stroke="black" cx="129" cy="-23" rx="27" ry="18.3848"/>
<ellipse fill="none" stroke="black" cx="129" cy="-23" rx="31" ry="22.3848"/>
<text text-anchor="middle" x="129" y="-19.4" font-family="Times Roman,serif" font-size="14.00">q8</text>
</g>
<!-- q4&#45;&gt;q8 -->
<g id="edge10" class="edge"><title>q4&#45;&gt;q8</title>
<path fill="none" stroke="black" d="M112.049,-100.49C114.838,-87.7407 118.618,-70.459 121.901,-55.451"/>
<polygon fill="black" stroke="black" points="125.359,-56.0247 124.076,-45.5077 118.52,-54.5288 125.359,-56.0247"/>
<text text-anchor="middle" x="123.5" y="-69.4" font-family="Times Roman,serif" font-size="14.00">b</text>
</g>
<!-- q9 -->
<g id="node13" class="node"><title>q9</title>
<ellipse fill="none" stroke="black" cx="53" cy="-23" rx="27" ry="18.3848"/>
<text text-anchor="middle" x="53" y="-19.4" font-family="Times Roman,serif" font-size="14.00">q9</text>
</g>
<!-- q4&#45;&gt;q9 -->
<g id="edge12" class="edge"><title>q4&#45;&gt;q9</title>
<path fill="none" stroke="black" d="M97.9122,-101.392C89.539,-86.7771 77.5072,-65.7762 68.004,-49.1888"/>
<polygon fill="black" stroke="black" points="71.032,-47.4332 63.0239,-40.4963 64.9582,-50.913 71.032,-47.4332"/>
<text text-anchor="middle" x="89.5" y="-69.4" font-family="Times Roman,serif" font-size="14.00">a</text>
</g>
<!-- q8&#45;&gt;q8 -->
<g id="edge26" class="edge"><title>q8&#45;&gt;q8</title>
<path fill="none" stroke="black" d="M159.625,-27.6875C169.833,-27.6875 178,-26.125 178,-23 178,-21.0469 174.81,-19.7041 169.925,-18.9717"/>
<polygon fill="black" stroke="black" points="169.828,-15.4584 159.625,-18.3125 169.381,-22.4441 169.828,-15.4584"/>
<text text-anchor="middle" x="182.5" y="-19.4" font-family="Times Roman,serif" font-size="14.00">b</text>
</g>
<!-- q8&#45;&gt;q8 -->
<g id="edge28" class="edge"><title>q8&#45;&gt;q8</title>
<path fill="none" stroke="black" d="M152.347,-37.9505C173.424,-45.2237 196,-40.2402 196,-23 196,-8.45355 179.928,-2.63284 162.245,-5.53787"/>
<polygon fill="black" stroke="black" points="161.179,-2.19731 152.347,-8.04948 162.901,-8.98227 161.179,-2.19731"/>
<text text-anchor="middle" x="200.5" y="-19.4" font-family="Times Roman,serif" font-size="14.00">a</text>
</g>
<!-- q9&#45;&gt;q0 -->
<g id="edge30" class="edge"><title>q9&#45;&gt;q0</title>
<path fill="none" stroke="black" d="M41.8043,-39.8941C30.5952,-58.4726 15,-89.6032 15,-119 15,-395 15,-395 15,-395 15,-416.409 18.2348,-440.387 21.3454,-458.495"/>
<polygon fill="black" stroke="black" points="17.9153,-459.196 23.1371,-468.415 24.8038,-457.952 17.9153,-459.196"/>
<text text-anchor="middle" x="19.5" y="-253.4" font-family="Times Roman,serif" font-size="14.00">b</text>
</g>
<!-- q9&#45;&gt;q7 -->
<g id="edge32" class="edge"><title>q9&#45;&gt;q7</title>
<path fill="none" stroke="black" d="M54.5097,-41.5747C57.5,-77.8341 64.5354,-160.569 72,-230 73.5725,-244.627 75.5523,-260.872 77.2544,-274.318"/>
<polygon fill="black" stroke="black" points="73.8056,-274.941 78.5468,-284.416 80.7489,-274.052 73.8056,-274.941"/>
<text text-anchor="middle" x="70.5" y="-161.4" font-family="Times Roman,serif" font-size="14.00">a</text>
</g>
<!-- q5 -->
<g id="node14" class="node"><title>q5</title>
<ellipse fill="none" stroke="black" cx="132" cy="-487" rx="27" ry="18.3848"/>
<text text-anchor="middle" x="132" y="-483.4" font-family="Times Roman,serif" font-size="14.00">q5</text>
</g>
<!-- q5&#45;&gt;q6 -->
<g id="edge14" class="edge"><title>q5&#45;&gt;q6</title>
<path fill="none" stroke="black" d="M122.407,-469.696C114.904,-456.161 104.342,-437.107 95.7632,-421.632"/>
<polygon fill="black" stroke="black" points="98.6326,-419.589 90.7231,-412.54 92.5104,-422.983 98.6326,-419.589"/>
<text text-anchor="middle" x="115.5" y="-437.4" font-family="Times Roman,serif" font-size="14.00">b</text>
</g>
<!-- q5&#45;&gt;q9 -->
<g id="edge16" class="edge"><title>q5&#45;&gt;q9</title>
<path fill="none" stroke="black" d="M141.639,-469.606C150.739,-451.528 163,-422.136 163,-395 163,-395 163,-395 163,-119 163,-90.9401 152.966,-82.6493 132,-64 116.52,-50.2303 107.353,-55.6127 89,-46 86.4131,-44.645 83.7702,-43.1628 81.1499,-41.6244"/>
<polygon fill="black" stroke="black" points="82.7958,-38.528 72.4418,-36.2815 79.135,-44.4945 82.7958,-38.528"/>
<text text-anchor="middle" x="167.5" y="-253.4" font-family="Times Roman,serif" font-size="14.00">a</text>
</g>
</g>
</svg>
