<?xml version="1.0" encoding="UTF-8" standalone="no"?>
<!DOCTYPE svg PUBLIC "-//W3C//DTD SVG 1.1//EN"
 "http://www.w3.org/Graphics/SVG/1.1/DTD/svg11.dtd">
<!-- Generated by graphviz version 2.26.3 (20100126.1600)
 -->
<!-- Title: G Pages: 1 -->
<svg width="283pt" height="698pt"
 viewBox="0.00 0.00 283.15 698.00" xmlns="http://www.w3.org/2000/svg" xmlns:xlink="http://www.w3.org/1999/xlink">
<g id="graph1" class="graph" transform="scale(1 1) rotate(0) translate(4 694)">
<title>G</title>
<polygon fill="white" stroke="white" points="-4,5 -4,-694 280.151,-694 280.151,5 -4,5"/>
<!-- q0 -->
<g id="node1" class="node"><title>q0</title>
<ellipse fill="none" stroke="black" cx="176.151" cy="-671" rx="27" ry="18.3848"/>
<text text-anchor="middle" x="176.151" y="-667.4" font-family="Times Roman,serif" font-size="14.00">q0</text>
</g>
<!-- q0&#45;&gt;q0 -->
<g id="edge4" class="edge"><title>q0&#45;&gt;q0</title>
<path fill="none" stroke="black" d="M200.225,-679.454C211.393,-680.377 221.151,-677.559 221.151,-671 221.151,-666.593 216.746,-663.875 210.468,-662.846"/>
<polygon fill="black" stroke="black" points="210.324,-659.34 200.225,-662.546 210.119,-666.337 210.324,-659.34"/>
<text text-anchor="middle" x="225.651" y="-667.4" font-family="Times Roman,serif" font-size="14.00">a</text>
</g>
<!-- q3 -->
<g id="node3" class="node"><title>q3</title>
<ellipse fill="none" stroke="black" cx="176.151" cy="-579" rx="27" ry="18.3848"/>
<text text-anchor="middle" x="176.151" y="-575.4" font-family="Times Roman,serif" font-size="14.00">q3</text>
</g>
<!-- q0&#45;&gt;q3 -->
<g id="edge2" class="edge"><title>q0&#45;&gt;q3</title>
<path fill="none" stroke="black" d="M176.151,-652.382C176.151,-639.538 176.151,-622.216 176.151,-607.627"/>
<polygon fill="black" stroke="black" points="179.651,-607.59 176.151,-597.59 172.651,-607.59 179.651,-607.59"/>
<text text-anchor="middle" x="180.651" y="-621.4" font-family="Times Roman,serif" font-size="14.00">b</text>
</g>
<!-- q2 -->
<g id="node5" class="node"><title>q2</title>
<ellipse fill="none" stroke="black" cx="73.1511" cy="-487" rx="27" ry="18.3848"/>
<text text-anchor="middle" x="73.1511" y="-483.4" font-family="Times Roman,serif" font-size="14.00">q2</text>
</g>
<!-- q3&#45;&gt;q2 -->
<g id="edge12" class="edge"><title>q3&#45;&gt;q2</title>
<path fill="none" stroke="black" d="M153.672,-568.679C140.929,-562.156 125.179,-552.906 113.151,-542 103.91,-533.621 95.483,-522.789 88.7727,-512.957"/>
<polygon fill="black" stroke="black" points="91.5199,-510.763 83.1186,-504.308 85.6607,-514.593 91.5199,-510.763"/>
<text text-anchor="middle" x="117.651" y="-529.4" font-family="Times Roman,serif" font-size="14.00">a</text>
</g>
<!-- q10 -->
<g id="node11" class="node"><title>q10</title>
<ellipse fill="none" stroke="black" cx="198.151" cy="-19" rx="29.9071" ry="18.3848"/>
<text text-anchor="middle" x="198.151" y="-15.4" font-family="Times Roman,serif" font-size="14.00">q10</text>
</g>
<!-- q3&#45;&gt;q10 -->
<g id="edge10" class="edge"><title>q3&#45;&gt;q10</title>
<path fill="none" stroke="black" d="M176.151,-560.322C176.151,-541.735 176.151,-512.396 176.151,-487 176.151,-487 176.151,-487 176.151,-111 176.151,-88.9322 182.213,-64.6832 187.972,-46.623"/>
<polygon fill="black" stroke="black" points="191.33,-47.6181 191.19,-37.0242 184.693,-45.393 191.33,-47.6181"/>
<text text-anchor="middle" x="180.651" y="-291.4" font-family="Times Roman,serif" font-size="14.00">b</text>
</g>
<!-- q4 -->
<g id="node7" class="node"><title>q4</title>
<ellipse fill="none" stroke="black" cx="31.1511" cy="-391" rx="27" ry="18.3848"/>
<ellipse fill="none" stroke="black" cx="31.1511" cy="-391" rx="31" ry="22.3848"/>
<text text-anchor="middle" x="31.1511" y="-387.4" font-family="Times Roman,serif" font-size="14.00">q4</text>
</g>
<!-- q2&#45;&gt;q4 -->
<g id="edge6" class="edge"><title>q2&#45;&gt;q4</title>
<path fill="none" stroke="black" d="M53.7524,-473.724C46.2467,-467.469 38.4426,-459.326 34.1511,-450 30.4225,-441.897 28.8811,-432.49 28.4711,-423.601"/>
<polygon fill="black" stroke="black" points="31.9709,-423.503 28.4462,-413.512 24.9709,-423.521 31.9709,-423.503"/>
<text text-anchor="middle" x="38.6511" y="-437.4" font-family="Times Roman,serif" font-size="14.00">b</text>
</g>
<!-- q9 -->
<g id="node9" class="node"><title>q9</title>
<ellipse fill="none" stroke="black" cx="88.1511" cy="-203" rx="27" ry="18.3848"/>
<text text-anchor="middle" x="88.1511" y="-199.4" font-family="Times Roman,serif" font-size="14.00">q9</text>
</g>
<!-- q2&#45;&gt;q9 -->
<g id="edge8" class="edge"><title>q2&#45;&gt;q9</title>
<path fill="none" stroke="black" d="M74.1353,-468.366C76.6886,-420.023 83.5401,-290.302 86.6175,-232.037"/>
<polygon fill="black" stroke="black" points="90.1309,-231.873 87.1633,-221.703 83.1406,-231.504 90.1309,-231.873"/>
<text text-anchor="middle" x="85.6511" y="-337.4" font-family="Times Roman,serif" font-size="14.00">a</text>
</g>
<!-- q4&#45;&gt;q2 -->
<g id="edge16" class="edge"><title>q4&#45;&gt;q2</title>
<path fill="none" stroke="black" d="M40.6332,-412.673C46.7241,-426.595 54.6868,-444.796 61.2081,-459.702"/>
<polygon fill="black" stroke="black" points="58.0364,-461.184 65.2512,-468.943 64.4495,-458.379 58.0364,-461.184"/>
<text text-anchor="middle" x="59.6511" y="-437.4" font-family="Times Roman,serif" font-size="14.00">a</text>
</g>
<!-- q8 -->
<g id="node14" class="node"><title>q8</title>
<ellipse fill="none" stroke="black" cx="32.1511" cy="-295" rx="27" ry="18.3848"/>
<text text-anchor="middle" x="32.1511" y="-291.4" font-family="Times Roman,serif" font-size="14.00">q8</text>
</g>
<!-- q4&#45;&gt;q8 -->
<g id="edge14" class="edge"><title>q4&#45;&gt;q8</title>
<path fill="none" stroke="black" d="M31.3881,-368.249C31.5262,-354.994 31.7016,-338.148 31.8495,-323.954"/>
<polygon fill="black" stroke="black" points="35.3517,-323.756 31.9561,-313.72 28.352,-323.683 35.3517,-323.756"/>
<text text-anchor="middle" x="35.6511" y="-337.4" font-family="Times Roman,serif" font-size="14.00">b</text>
</g>
<!-- q9&#45;&gt;q3 -->
<g id="edge26" class="edge"><title>q9&#45;&gt;q3</title>
<path fill="none" stroke="black" d="M93.9383,-221.36C95.7163,-227.281 97.609,-233.892 99.1511,-240 132.717,-372.94 123.773,-410.369 162.151,-542 163.074,-545.165 164.143,-548.444 165.271,-551.683"/>
<polygon fill="black" stroke="black" points="162.007,-552.948 168.743,-561.125 168.576,-550.531 162.007,-552.948"/>
<text text-anchor="middle" x="136.651" y="-387.4" font-family="Times Roman,serif" font-size="14.00">b</text>
</g>
<!-- q5 -->
<g id="node16" class="node"><title>q5</title>
<ellipse fill="none" stroke="black" cx="55.1511" cy="-111" rx="27" ry="18.3848"/>
<text text-anchor="middle" x="55.1511" y="-107.4" font-family="Times Roman,serif" font-size="14.00">q5</text>
</g>
<!-- q9&#45;&gt;q5 -->
<g id="edge28" class="edge"><title>q9&#45;&gt;q5</title>
<path fill="none" stroke="black" d="M81.6314,-184.824C76.9308,-171.719 70.4992,-153.789 65.1516,-138.88"/>
<polygon fill="black" stroke="black" points="68.3282,-137.37 61.6573,-129.138 61.7392,-139.733 68.3282,-137.37"/>
<text text-anchor="middle" x="78.6511" y="-153.4" font-family="Times Roman,serif" font-size="14.00">a</text>
</g>
<!-- q10&#45;&gt;q3 -->
<g id="edge30" class="edge"><title>q10&#45;&gt;q3</title>
<path fill="none" stroke="black" d="M205.428,-36.9963C212.167,-55.306 221.151,-84.6579 221.151,-111 221.151,-487 221.151,-487 221.151,-487 221.151,-511.68 207.922,-536.644 195.809,-554.328"/>
<polygon fill="black" stroke="black" points="192.659,-552.712 189.653,-562.872 198.338,-556.805 192.659,-552.712"/>
<text text-anchor="middle" x="225.651" y="-291.4" font-family="Times Roman,serif" font-size="14.00">b</text>
</g>
<!-- q10&#45;&gt;q3 -->
<g id="edge32" class="edge"><title>q10&#45;&gt;q3</title>
<path fill="none" stroke="black" d="M217.82,-33.1873C237.903,-49.4827 266.151,-78.2284 266.151,-111 266.151,-487 266.151,-487 266.151,-487 266.151,-521.578 233.262,-547.97 207.248,-563.438"/>
<polygon fill="black" stroke="black" points="205.376,-560.476 198.398,-568.448 208.825,-566.567 205.376,-560.476"/>
<text text-anchor="middle" x="270.651" y="-291.4" font-family="Times Roman,serif" font-size="14.00">a</text>
</g>
<!-- q8&#45;&gt;q9 -->
<g id="edge24" class="edge"><title>q8&#45;&gt;q9</title>
<path fill="none" stroke="black" d="M42.6843,-277.696C51.0536,-263.946 62.8895,-244.501 72.3872,-228.898"/>
<polygon fill="black" stroke="black" points="75.4553,-230.589 77.6652,-220.227 69.4759,-226.949 75.4553,-230.589"/>
<text text-anchor="middle" x="69.6511" y="-245.4" font-family="Times Roman,serif" font-size="14.00">a</text>
</g>
<!-- q8&#45;&gt;q5 -->
<g id="edge22" class="edge"><title>q8&#45;&gt;q5</title>
<path fill="none" stroke="black" d="M33.6194,-276.496C35.4548,-254.429 38.8809,-216.447 43.1511,-184 45.0817,-169.33 47.7049,-153.08 50.0063,-139.643"/>
<polygon fill="black" stroke="black" points="53.4957,-140.006 51.7636,-129.554 46.5995,-138.805 53.4957,-140.006"/>
<text text-anchor="middle" x="47.6511" y="-199.4" font-family="Times Roman,serif" font-size="14.00">b</text>
</g>
<!-- q5&#45;&gt;q10 -->
<g id="edge20" class="edge"><title>q5&#45;&gt;q10</title>
<path fill="none" stroke="black" d="M75.0346,-98.2078C99.2717,-82.6147 140.452,-56.1208 168.452,-38.1072"/>
<polygon fill="black" stroke="black" points="170.525,-40.9352 177.041,-32.5811 166.738,-35.0482 170.525,-40.9352"/>
<text text-anchor="middle" x="143.651" y="-61.4" font-family="Times Roman,serif" font-size="14.00">a</text>
</g>
<!-- q5&#45;&gt;q8 -->
<g id="edge18" class="edge"><title>q5&#45;&gt;q8</title>
<path fill="none" stroke="black" d="M38.4983,-125.826C31.9371,-132.219 24.6679,-140.047 19.1511,-148 9.06634,-162.539 6.0227,-166.735 2.15111,-184 -4.39315,-213.184 6.99895,-246.229 17.574,-268.619"/>
<polygon fill="black" stroke="black" points="14.5619,-270.422 22.1543,-277.811 20.8273,-267.3 14.5619,-270.422"/>
<text text-anchor="middle" x="6.65111" y="-199.4" font-family="Times Roman,serif" font-size="14.00">b</text>
</g>
</g>
</svg>
