<?xml version="1.0" encoding="UTF-8" standalone="no"?>
<!DOCTYPE svg PUBLIC "-//W3C//DTD SVG 1.1//EN"
 "http://www.w3.org/Graphics/SVG/1.1/DTD/svg11.dtd">
<!-- Generated by graphviz version 2.26.3 (20100126.1600)
 -->
<!-- Title: G Pages: 1 -->
<svg width="191pt" height="514pt"
 viewBox="0.00 0.00 191.00 514.00" xmlns="http://www.w3.org/2000/svg" xmlns:xlink="http://www.w3.org/1999/xlink">
<g id="graph1" class="graph" transform="scale(1 1) rotate(0) translate(4 510)">
<title>G</title>
<polygon fill="white" stroke="white" points="-4,5 -4,-510 188,-510 188,5 -4,5"/>
<!-- q0 -->
<g id="node1" class="node"><title>q0</title>
<ellipse fill="none" stroke="black" cx="27" cy="-487" rx="27" ry="18.3848"/>
<text text-anchor="middle" x="27" y="-483.4" font-family="Times Roman,serif" font-size="14.00">q0</text>
</g>
<!-- q0&#45;&gt;q0 -->
<g id="edge2" class="edge"><title>q0&#45;&gt;q0</title>
<path fill="none" stroke="black" d="M51.0743,-495.454C62.2423,-496.377 72,-493.559 72,-487 72,-482.593 67.5952,-479.875 61.3174,-478.846"/>
<polygon fill="black" stroke="black" points="61.1726,-475.34 51.0743,-478.546 60.9674,-482.337 61.1726,-475.34"/>
<text text-anchor="middle" x="76.5" y="-483.4" font-family="Times Roman,serif" font-size="14.00">b</text>
</g>
<!-- q9 -->
<g id="node4" class="node"><title>q9</title>
<ellipse fill="none" stroke="black" cx="57" cy="-395" rx="27" ry="18.3848"/>
<text text-anchor="middle" x="57" y="-391.4" font-family="Times Roman,serif" font-size="14.00">q9</text>
</g>
<!-- q0&#45;&gt;q9 -->
<g id="edge4" class="edge"><title>q0&#45;&gt;q9</title>
<path fill="none" stroke="black" d="M23.9615,-468.394C22.9168,-457.485 22.8847,-443.61 27,-432 28.751,-427.06 31.4736,-422.299 34.5795,-417.93"/>
<polygon fill="black" stroke="black" points="37.3547,-420.063 40.8697,-410.069 31.889,-415.69 37.3547,-420.063"/>
<text text-anchor="middle" x="31.5" y="-437.4" font-family="Times Roman,serif" font-size="14.00">a</text>
</g>
<!-- q9&#45;&gt;q0 -->
<g id="edge30" class="edge"><title>q9&#45;&gt;q0</title>
<path fill="none" stroke="black" d="M51.0853,-413.138C46.815,-426.234 40.9687,-444.163 36.1054,-459.077"/>
<polygon fill="black" stroke="black" points="32.6998,-458.231 32.927,-468.824 39.3549,-460.402 32.6998,-458.231"/>
<text text-anchor="middle" x="49.5" y="-437.4" font-family="Times Roman,serif" font-size="14.00">b</text>
</g>
<!-- q7 -->
<g id="node7" class="node"><title>q7</title>
<ellipse fill="none" stroke="black" cx="116" cy="-303" rx="27" ry="18.3848"/>
<text text-anchor="middle" x="116" y="-299.4" font-family="Times Roman,serif" font-size="14.00">q7</text>
</g>
<!-- q9&#45;&gt;q7 -->
<g id="edge32" class="edge"><title>q9&#45;&gt;q7</title>
<path fill="none" stroke="black" d="M68.0974,-377.696C76.9151,-363.946 89.3851,-344.501 99.3916,-328.898"/>
<polygon fill="black" stroke="black" points="102.5,-330.534 104.952,-320.227 96.6077,-326.755 102.5,-330.534"/>
<text text-anchor="middle" x="95.5" y="-345.4" font-family="Times Roman,serif" font-size="14.00">a</text>
</g>
<!-- q2 -->
<g id="node5" class="node"><title>q2</title>
<ellipse fill="none" stroke="black" cx="112" cy="-211" rx="27" ry="18.3848"/>
<text text-anchor="middle" x="112" y="-207.4" font-family="Times Roman,serif" font-size="14.00">q2</text>
</g>
<!-- q2&#45;&gt;q7 -->
<g id="edge6" class="edge"><title>q2&#45;&gt;q7</title>
<path fill="none" stroke="black" d="M104.711,-229.325C101.364,-240.016 98.6145,-253.766 101,-266 101.637,-269.266 102.562,-272.607 103.645,-275.882"/>
<polygon fill="black" stroke="black" points="100.421,-277.251 107.239,-285.361 106.967,-274.769 100.421,-277.251"/>
<text text-anchor="middle" x="105.5" y="-253.4" font-family="Times Roman,serif" font-size="14.00">b</text>
</g>
<!-- q4 -->
<g id="node9" class="node"><title>q4</title>
<ellipse fill="none" stroke="black" cx="79" cy="-119" rx="27" ry="18.3848"/>
<text text-anchor="middle" x="79" y="-115.4" font-family="Times Roman,serif" font-size="14.00">q4</text>
</g>
<!-- q2&#45;&gt;q4 -->
<g id="edge8" class="edge"><title>q2&#45;&gt;q4</title>
<path fill="none" stroke="black" d="M105.48,-192.824C100.78,-179.719 94.3481,-161.789 89.0005,-146.88"/>
<polygon fill="black" stroke="black" points="92.1771,-145.37 85.5062,-137.138 85.5881,-147.733 92.1771,-145.37"/>
<text text-anchor="middle" x="102.5" y="-161.4" font-family="Times Roman,serif" font-size="14.00">a</text>
</g>
<!-- q7&#45;&gt;q2 -->
<g id="edge22" class="edge"><title>q7&#45;&gt;q2</title>
<path fill="none" stroke="black" d="M115.191,-284.382C114.632,-271.538 113.879,-254.216 113.245,-239.627"/>
<polygon fill="black" stroke="black" points="116.739,-239.428 112.808,-229.59 109.746,-239.733 116.739,-239.428"/>
<text text-anchor="middle" x="118.5" y="-253.4" font-family="Times Roman,serif" font-size="14.00">b</text>
</g>
<!-- q7&#45;&gt;q7 -->
<g id="edge24" class="edge"><title>q7&#45;&gt;q7</title>
<path fill="none" stroke="black" d="M140.074,-311.454C151.242,-312.377 161,-309.559 161,-303 161,-298.593 156.595,-295.875 150.317,-294.846"/>
<polygon fill="black" stroke="black" points="150.173,-291.34 140.074,-294.546 149.967,-298.337 150.173,-291.34"/>
<text text-anchor="middle" x="165.5" y="-299.4" font-family="Times Roman,serif" font-size="14.00">a</text>
</g>
<!-- q4&#45;&gt;q9 -->
<g id="edge12" class="edge"><title>q4&#45;&gt;q9</title>
<path fill="none" stroke="black" d="M77.4998,-137.82C73.7191,-185.251 63.7822,-309.914 59.2778,-366.424"/>
<polygon fill="black" stroke="black" points="55.7834,-366.216 58.4776,-376.462 62.7612,-366.772 55.7834,-366.216"/>
<text text-anchor="middle" x="72.5" y="-253.4" font-family="Times Roman,serif" font-size="14.00">a</text>
</g>
<!-- q8 -->
<g id="node11" class="node"><title>q8</title>
<ellipse fill="none" stroke="black" cx="79" cy="-23" rx="27" ry="18.3848"/>
<ellipse fill="none" stroke="black" cx="79" cy="-23" rx="31" ry="22.3848"/>
<text text-anchor="middle" x="79" y="-19.4" font-family="Times Roman,serif" font-size="14.00">q8</text>
</g>
<!-- q4&#45;&gt;q8 -->
<g id="edge10" class="edge"><title>q4&#45;&gt;q8</title>
<path fill="none" stroke="black" d="M79,-100.49C79,-87.8633 79,-70.791 79,-55.8846"/>
<polygon fill="black" stroke="black" points="82.5001,-55.5077 79,-45.5077 75.5001,-55.5078 82.5001,-55.5077"/>
<text text-anchor="middle" x="83.5" y="-69.4" font-family="Times Roman,serif" font-size="14.00">b</text>
</g>
<!-- q8&#45;&gt;q8 -->
<g id="edge26" class="edge"><title>q8&#45;&gt;q8</title>
<path fill="none" stroke="black" d="M109.625,-27.6875C119.833,-27.6875 128,-26.125 128,-23 128,-21.0469 124.81,-19.7041 119.925,-18.9717"/>
<polygon fill="black" stroke="black" points="119.828,-15.4584 109.625,-18.3125 119.381,-22.4441 119.828,-15.4584"/>
<text text-anchor="middle" x="132.5" y="-19.4" font-family="Times Roman,serif" font-size="14.00">b</text>
</g>
<!-- q8&#45;&gt;q8 -->
<g id="edge28" class="edge"><title>q8&#45;&gt;q8</title>
<path fill="none" stroke="black" d="M102.347,-37.9505C123.424,-45.2237 146,-40.2402 146,-23 146,-8.45355 129.928,-2.63284 112.245,-5.53787"/>
<polygon fill="black" stroke="black" points="111.179,-2.19731 102.347,-8.04948 112.901,-8.98227 111.179,-2.19731"/>
<text text-anchor="middle" x="150.5" y="-19.4" font-family="Times Roman,serif" font-size="14.00">a</text>
</g>
<!-- q5 -->
<g id="node13" class="node"><title>q5</title>
<ellipse fill="none" stroke="black" cx="126" cy="-487" rx="27" ry="18.3848"/>
<text text-anchor="middle" x="126" y="-483.4" font-family="Times Roman,serif" font-size="14.00">q5</text>
</g>
<!-- q5&#45;&gt;q9 -->
<g id="edge16" class="edge"><title>q5&#45;&gt;q9</title>
<path fill="none" stroke="black" d="M113.344,-470.126C102.774,-456.032 87.5565,-435.742 75.6,-419.8"/>
<polygon fill="black" stroke="black" points="78.1433,-417.358 69.3433,-411.458 72.5433,-421.558 78.1433,-417.358"/>
<text text-anchor="middle" x="101.5" y="-437.4" font-family="Times Roman,serif" font-size="14.00">a</text>
</g>
<!-- q6 -->
<g id="node15" class="node"><title>q6</title>
<ellipse fill="none" stroke="black" cx="129" cy="-395" rx="27" ry="18.3848"/>
<text text-anchor="middle" x="129" y="-391.4" font-family="Times Roman,serif" font-size="14.00">q6</text>
</g>
<!-- q5&#45;&gt;q6 -->
<g id="edge14" class="edge"><title>q5&#45;&gt;q6</title>
<path fill="none" stroke="black" d="M126.607,-468.382C127.026,-455.538 127.591,-438.216 128.067,-423.627"/>
<polygon fill="black" stroke="black" points="131.566,-423.699 128.394,-413.59 124.57,-423.47 131.566,-423.699"/>
<text text-anchor="middle" x="131.5" y="-437.4" font-family="Times Roman,serif" font-size="14.00">b</text>
</g>
<!-- q6&#45;&gt;q7 -->
<g id="edge20" class="edge"><title>q6&#45;&gt;q7</title>
<path fill="none" stroke="black" d="M126.369,-376.382C124.554,-363.538 122.107,-346.216 120.045,-331.627"/>
<polygon fill="black" stroke="black" points="123.492,-331.002 118.627,-321.59 116.56,-331.981 123.492,-331.002"/>
<text text-anchor="middle" x="127.5" y="-345.4" font-family="Times Roman,serif" font-size="14.00">a</text>
</g>
<!-- q6&#45;&gt;q6 -->
<g id="edge18" class="edge"><title>q6&#45;&gt;q6</title>
<path fill="none" stroke="black" d="M153.074,-403.454C164.242,-404.377 174,-401.559 174,-395 174,-390.593 169.595,-387.875 163.317,-386.846"/>
<polygon fill="black" stroke="black" points="163.173,-383.34 153.074,-386.546 162.967,-390.337 163.173,-383.34"/>
<text text-anchor="middle" x="178.5" y="-391.4" font-family="Times Roman,serif" font-size="14.00">b</text>
</g>
</g>
</svg>
