<?xml version="1.0" encoding="UTF-8" standalone="no"?>
<!DOCTYPE svg PUBLIC "-//W3C//DTD SVG 1.1//EN"
 "http://www.w3.org/Graphics/SVG/1.1/DTD/svg11.dtd">
<!-- Generated by graphviz version 2.26.3 (20100126.1600)
 -->
<!-- Title: G Pages: 1 -->
<svg width="152pt" height="322pt"
 viewBox="0.00 0.00 152.00 322.00" xmlns="http://www.w3.org/2000/svg" xmlns:xlink="http://www.w3.org/1999/xlink">
<g id="graph1" class="graph" transform="scale(1 1) rotate(0) translate(4 318)">
<title>G</title>
<polygon fill="white" stroke="white" points="-4,5 -4,-318 149,-318 149,5 -4,5"/>
<!-- q1 -->
<g id="node1" class="node"><title>q1</title>
<ellipse fill="none" stroke="black" cx="101" cy="-292" rx="27" ry="18"/>
<ellipse fill="none" stroke="black" cx="101" cy="-292" rx="31" ry="22"/>
<text text-anchor="middle" x="101" y="-287.9" font-family="Times Roman,serif" font-size="14.00">q1</text>
</g>
<!-- q0 -->
<g id="node3" class="node"><title>q0</title>
<ellipse fill="none" stroke="darkred" cx="27" cy="-198" rx="27" ry="18"/>
<text text-anchor="middle" x="27" y="-193.9" font-family="Times Roman,serif" font-size="14.00">q0</text>
</g>
<!-- q1&#45;&gt;q0 -->
<g id="edge2" class="edge"><title>q1&#45;&gt;q0</title>
<path fill="none" stroke="black" d="M78.7164,-276.102C70.2675,-269.334 61.0054,-260.94 54,-252 47.638,-243.881 42.1776,-234.025 37.8655,-224.967"/>
<polygon fill="black" stroke="black" points="40.9365,-223.261 33.649,-215.571 34.55,-226.127 40.9365,-223.261"/>
<text text-anchor="middle" x="58.5" y="-238.9" font-family="Times Roman,serif" font-size="14.00">b</text>
</g>
<!-- q1&#45;&gt;q0 -->
<g id="edge4" class="edge"><title>q1&#45;&gt;q0</title>
<path fill="none" stroke="black" d="M88.9578,-271.425C81.9244,-260.003 72.5694,-245.768 63,-234 59.1419,-229.255 54.7396,-224.446 50.3692,-219.953"/>
<polygon fill="black" stroke="black" points="52.7009,-217.335 43.1458,-212.758 47.761,-222.295 52.7009,-217.335"/>
<text text-anchor="middle" x="79.5" y="-238.9" font-family="Times Roman,serif" font-size="14.00">a</text>
</g>
<!-- q0&#45;&gt;q0 -->
<g id="edge16" class="edge"><title>q0&#45;&gt;q0</title>
<path fill="none" stroke="black" d="M51.5325,-206.121C62.5078,-206.895 72,-204.188 72,-198 72,-193.843 67.7151,-191.257 61.5743,-190.242"/>
<polygon fill="black" stroke="black" points="61.6524,-186.742 51.5325,-189.879 61.3995,-193.738 61.6524,-186.742"/>
<text text-anchor="middle" x="76.5" y="-193.9" font-family="Times Roman,serif" font-size="14.00">a</text>
</g>
<!-- q3 -->
<g id="node8" class="node"><title>q3</title>
<ellipse fill="none" stroke="black" cx="95" cy="-108" rx="27" ry="18"/>
<text text-anchor="middle" x="95" y="-103.9" font-family="Times Roman,serif" font-size="14.00">q3</text>
</g>
<!-- q0&#45;&gt;q3 -->
<g id="edge14" class="edge"><title>q0&#45;&gt;q3</title>
<path fill="none" stroke="black" d="M39.157,-181.91C49.5359,-168.173 64.6241,-148.203 76.5012,-132.484"/>
<polygon fill="black" stroke="black" points="79.4831,-134.343 82.7189,-124.254 73.898,-130.123 79.4831,-134.343"/>
<text text-anchor="middle" x="71.5" y="-148.9" font-family="Times Roman,serif" font-size="14.00">b</text>
</g>
<!-- q4 -->
<g id="node5" class="node"><title>q4</title>
<ellipse fill="none" stroke="black" cx="95" cy="-18" rx="27" ry="18"/>
<text text-anchor="middle" x="95" y="-13.9" font-family="Times Roman,serif" font-size="14.00">q4</text>
</g>
<!-- q4&#45;&gt;q1 -->
<g id="edge6" class="edge"><title>q4&#45;&gt;q1</title>
<path fill="none" stroke="black" d="M106.103,-34.5987C114.805,-48.6679 126.216,-69.7337 131,-90 145.117,-149.803 126.37,-221.215 112.786,-261.108"/>
<polygon fill="black" stroke="black" points="109.483,-259.951 109.467,-270.545 116.087,-262.273 109.483,-259.951"/>
<text text-anchor="middle" x="139.5" y="-148.9" font-family="Times Roman,serif" font-size="14.00">b</text>
</g>
<!-- q4&#45;&gt;q0 -->
<g id="edge8" class="edge"><title>q4&#45;&gt;q0</title>
<path fill="none" stroke="black" d="M82.5065,-34.2667C72.3129,-48.3051 58.2878,-69.5011 50,-90 39.5022,-115.965 33.4956,-147.467 30.2731,-169.731"/>
<polygon fill="black" stroke="black" points="26.7759,-169.475 28.9072,-179.854 33.7131,-170.411 26.7759,-169.475"/>
<text text-anchor="middle" x="54.5" y="-103.9" font-family="Times Roman,serif" font-size="14.00">a</text>
</g>
<!-- q3&#45;&gt;q1 -->
<g id="edge10" class="edge"><title>q3&#45;&gt;q1</title>
<path fill="none" stroke="black" d="M95.5914,-126.135C96.6025,-157.144 98.6768,-220.756 99.9423,-259.565"/>
<polygon fill="black" stroke="black" points="96.4521,-259.925 100.276,-269.805 103.448,-259.697 96.4521,-259.925"/>
<text text-anchor="middle" x="102.5" y="-193.9" font-family="Times Roman,serif" font-size="14.00">b</text>
</g>
<!-- q3&#45;&gt;q4 -->
<g id="edge12" class="edge"><title>q3&#45;&gt;q4</title>
<path fill="none" stroke="black" d="M95,-89.7872C95,-77.3443 95,-60.6053 95,-46.4211"/>
<polygon fill="black" stroke="black" points="98.5001,-46.1857 95,-36.1858 91.5001,-46.1858 98.5001,-46.1857"/>
<text text-anchor="middle" x="99.5" y="-58.9" font-family="Times Roman,serif" font-size="14.00">a</text>
</g>
</g>
</svg>
