<?xml version="1.0" encoding="UTF-8" standalone="no"?>
<!DOCTYPE svg PUBLIC "-//W3C//DTD SVG 1.1//EN"
 "http://www.w3.org/Graphics/SVG/1.1/DTD/svg11.dtd">
<!-- Generated by graphviz version 2.26.3 (20100126.1600)
 -->
<!-- Title: G Pages: 1 -->
<svg width="158pt" height="506pt"
 viewBox="0.00 0.00 158.00 506.00" xmlns="http://www.w3.org/2000/svg" xmlns:xlink="http://www.w3.org/1999/xlink">
<g id="graph1" class="graph" transform="scale(1 1) rotate(0) translate(4 502)">
<title>G</title>
<polygon fill="white" stroke="white" points="-4,5 -4,-502 155,-502 155,5 -4,5"/>
<!-- q6 -->
<g id="node1" class="node"><title>q6</title>
<ellipse fill="none" stroke="black" cx="55" cy="-479" rx="27" ry="18.3848"/>
<text text-anchor="middle" x="55" y="-475.4" font-family="Times Roman,serif" font-size="14.00">q6</text>
</g>
<!-- q2 -->
<g id="node3" class="node"><title>q2</title>
<ellipse fill="none" stroke="black" cx="90" cy="-387" rx="27" ry="18.3848"/>
<text text-anchor="middle" x="90" y="-383.4" font-family="Times Roman,serif" font-size="14.00">q2</text>
</g>
<!-- q6&#45;&gt;q2 -->
<g id="edge2" class="edge"><title>q6&#45;&gt;q2</title>
<path fill="none" stroke="black" d="M61.9149,-460.824C66.9004,-447.719 73.7218,-429.789 79.3934,-414.88"/>
<polygon fill="black" stroke="black" points="82.815,-415.729 83.0995,-405.138 76.2724,-413.24 82.815,-415.729"/>
<text text-anchor="middle" x="79.5" y="-429.4" font-family="Times Roman,serif" font-size="14.00">b</text>
</g>
<!-- q5 -->
<g id="node5" class="node"><title>q5</title>
<ellipse fill="none" stroke="black" cx="27" cy="-111" rx="27" ry="18.3848"/>
<text text-anchor="middle" x="27" y="-107.4" font-family="Times Roman,serif" font-size="14.00">q5</text>
</g>
<!-- q6&#45;&gt;q5 -->
<g id="edge4" class="edge"><title>q6&#45;&gt;q5</title>
<path fill="none" stroke="black" d="M48.0391,-460.976C41.5938,-442.645 33,-413.276 33,-387 33,-387 33,-387 33,-203 33,-181.825 31.3977,-157.967 29.8491,-139.853"/>
<polygon fill="black" stroke="black" points="33.3137,-139.3 28.9315,-129.654 26.3418,-139.928 33.3137,-139.3"/>
<text text-anchor="middle" x="37.5" y="-291.4" font-family="Times Roman,serif" font-size="14.00">a</text>
</g>
<!-- q2&#45;&gt;q2 -->
<g id="edge12" class="edge"><title>q2&#45;&gt;q2</title>
<path fill="none" stroke="black" d="M114.074,-395.454C125.242,-396.377 135,-393.559 135,-387 135,-382.593 130.595,-379.875 124.317,-378.846"/>
<polygon fill="black" stroke="black" points="124.173,-375.34 114.074,-378.546 123.967,-382.337 124.173,-375.34"/>
<text text-anchor="middle" x="139.5" y="-383.4" font-family="Times Roman,serif" font-size="14.00">a</text>
</g>
<!-- q1 -->
<g id="node10" class="node"><title>q1</title>
<ellipse fill="none" stroke="black" cx="96" cy="-295" rx="27" ry="18.3848"/>
<text text-anchor="middle" x="96" y="-291.4" font-family="Times Roman,serif" font-size="14.00">q1</text>
</g>
<!-- q2&#45;&gt;q1 -->
<g id="edge10" class="edge"><title>q2&#45;&gt;q1</title>
<path fill="none" stroke="black" d="M91.2142,-368.382C92.0518,-355.538 93.1816,-338.216 94.133,-323.627"/>
<polygon fill="black" stroke="black" points="97.6293,-323.796 94.7876,-313.59 90.6442,-323.341 97.6293,-323.796"/>
<text text-anchor="middle" x="97.5" y="-337.4" font-family="Times Roman,serif" font-size="14.00">b</text>
</g>
<!-- q5&#45;&gt;q5 -->
<g id="edge8" class="edge"><title>q5&#45;&gt;q5</title>
<path fill="none" stroke="black" d="M51.0743,-119.454C62.2423,-120.377 72,-117.559 72,-111 72,-106.593 67.5952,-103.875 61.3174,-102.846"/>
<polygon fill="black" stroke="black" points="61.1726,-99.3402 51.0743,-102.546 60.9674,-106.337 61.1726,-99.3402"/>
<text text-anchor="middle" x="76.5" y="-107.4" font-family="Times Roman,serif" font-size="14.00">a</text>
</g>
<!-- q4 -->
<g id="node7" class="node"><title>q4</title>
<ellipse fill="none" stroke="black" cx="101" cy="-19" rx="27" ry="18.3848"/>
<text text-anchor="middle" x="101" y="-15.4" font-family="Times Roman,serif" font-size="14.00">q4</text>
</g>
<!-- q5&#45;&gt;q4 -->
<g id="edge6" class="edge"><title>q5&#45;&gt;q4</title>
<path fill="none" stroke="black" d="M40.2297,-94.5522C51.6998,-80.2922 68.455,-59.4613 81.4685,-43.2824"/>
<polygon fill="black" stroke="black" points="84.3445,-45.2912 87.8848,-35.3054 78.8899,-40.9038 84.3445,-45.2912"/>
<text text-anchor="middle" x="74.5" y="-61.4" font-family="Times Roman,serif" font-size="14.00">b</text>
</g>
<!-- q4&#45;&gt;q5 -->
<g id="edge20" class="edge"><title>q4&#45;&gt;q5</title>
<path fill="none" stroke="black" d="M78.3987,-29.3555C66.9595,-35.6172 53.6923,-44.6039 45,-56 39.112,-63.7195 35.1044,-73.4478 32.3966,-82.5686"/>
<polygon fill="black" stroke="black" points="28.9516,-81.9128 29.8606,-92.4686 35.7327,-83.6499 28.9516,-81.9128"/>
<text text-anchor="middle" x="49.5" y="-61.4" font-family="Times Roman,serif" font-size="14.00">a</text>
</g>
<!-- q4&#45;&gt;q1 -->
<g id="edge18" class="edge"><title>q4&#45;&gt;q1</title>
<path fill="none" stroke="black" d="M108.234,-36.8258C121.671,-72.373 147.746,-154.469 132,-222 128.141,-238.549 119.965,-255.657 112.378,-269.149"/>
<polygon fill="black" stroke="black" points="109.31,-267.461 107.28,-277.86 115.352,-270.997 109.31,-267.461"/>
<text text-anchor="middle" x="140.5" y="-153.4" font-family="Times Roman,serif" font-size="14.00">b</text>
</g>
<!-- q1&#45;&gt;q1 -->
<g id="edge14" class="edge"><title>q1&#45;&gt;q1</title>
<path fill="none" stroke="black" d="M120.074,-303.454C131.242,-304.377 141,-301.559 141,-295 141,-290.593 136.595,-287.875 130.317,-286.846"/>
<polygon fill="black" stroke="black" points="130.173,-283.34 120.074,-286.546 129.967,-290.337 130.173,-283.34"/>
<text text-anchor="middle" x="145.5" y="-291.4" font-family="Times Roman,serif" font-size="14.00">b</text>
</g>
<!-- q0 -->
<g id="node14" class="node"><title>q0</title>
<ellipse fill="none" stroke="black" cx="96" cy="-203" rx="27" ry="18.3848"/>
<text text-anchor="middle" x="96" y="-199.4" font-family="Times Roman,serif" font-size="14.00">q0</text>
</g>
<!-- q1&#45;&gt;q0 -->
<g id="edge16" class="edge"><title>q1&#45;&gt;q0</title>
<path fill="none" stroke="black" d="M96,-276.382C96,-263.538 96,-246.216 96,-231.627"/>
<polygon fill="black" stroke="black" points="99.5001,-231.59 96,-221.59 92.5001,-231.59 99.5001,-231.59"/>
<text text-anchor="middle" x="100.5" y="-245.4" font-family="Times Roman,serif" font-size="14.00">a</text>
</g>
<!-- q0&#45;&gt;q5 -->
<g id="edge24" class="edge"><title>q0&#45;&gt;q5</title>
<path fill="none" stroke="black" d="M83.3443,-186.126C72.7741,-172.032 57.5565,-151.742 45.6,-135.8"/>
<polygon fill="black" stroke="black" points="48.1433,-133.358 39.3433,-127.458 42.5433,-137.558 48.1433,-133.358"/>
<text text-anchor="middle" x="71.5" y="-153.4" font-family="Times Roman,serif" font-size="14.00">a</text>
</g>
<!-- q0&#45;&gt;q4 -->
<g id="edge22" class="edge"><title>q0&#45;&gt;q4</title>
<path fill="none" stroke="black" d="M96.5069,-184.345C97.3792,-152.247 99.1699,-86.3485 100.208,-48.1485"/>
<polygon fill="black" stroke="black" points="103.719,-47.7963 100.492,-37.7049 96.7213,-47.6061 103.719,-47.7963"/>
<text text-anchor="middle" x="102.5" y="-107.4" font-family="Times Roman,serif" font-size="14.00">b</text>
</g>
</g>
</svg>
