<?xml version="1.0" encoding="UTF-8" standalone="no"?>
<!DOCTYPE svg PUBLIC "-//W3C//DTD SVG 1.1//EN"
 "http://www.w3.org/Graphics/SVG/1.1/DTD/svg11.dtd">
<!-- Generated by graphviz version 2.26.3 (20100126.1600)
 -->
<!-- Title: G Pages: 1 -->
<svg width="383pt" height="790pt"
 viewBox="0.00 0.00 383.00 790.00" xmlns="http://www.w3.org/2000/svg" xmlns:xlink="http://www.w3.org/1999/xlink">
<g id="graph1" class="graph" transform="scale(1 1) rotate(0) translate(4 786)">
<title>G</title>
<polygon fill="white" stroke="white" points="-4,5 -4,-786 380,-786 380,5 -4,5"/>
<!-- q0 -->
<g id="node1" class="node"><title>q0</title>
<ellipse fill="none" stroke="black" cx="247" cy="-671" rx="27" ry="18.3848"/>
<text text-anchor="middle" x="247" y="-667.4" font-family="Times Roman,serif" font-size="14.00">q0</text>
</g>
<!-- q0&#45;&gt;q0 -->
<g id="edge4" class="edge"><title>q0&#45;&gt;q0</title>
<path fill="none" stroke="black" d="M271.074,-679.454C282.242,-680.377 292,-677.559 292,-671 292,-666.593 287.595,-663.875 281.317,-662.846"/>
<polygon fill="black" stroke="black" points="281.173,-659.34 271.074,-662.546 280.967,-666.337 281.173,-659.34"/>
<text text-anchor="middle" x="296.5" y="-667.4" font-family="Times Roman,serif" font-size="14.00">a</text>
</g>
<!-- q3 -->
<g id="node3" class="node"><title>q3</title>
<ellipse fill="none" stroke="black" cx="135" cy="-579" rx="27" ry="18.3848"/>
<text text-anchor="middle" x="135" y="-575.4" font-family="Times Roman,serif" font-size="14.00">q3</text>
</g>
<!-- q0&#45;&gt;q3 -->
<g id="edge2" class="edge"><title>q0&#45;&gt;q3</title>
<path fill="none" stroke="black" d="M229.5,-656.625C210.925,-641.367 181.396,-617.111 160.291,-599.775"/>
<polygon fill="black" stroke="black" points="162.326,-596.917 152.377,-593.274 157.883,-602.326 162.326,-596.917"/>
<text text-anchor="middle" x="205.5" y="-621.4" font-family="Times Roman,serif" font-size="14.00">b</text>
</g>
<!-- q2 -->
<g id="node5" class="node"><title>q2</title>
<ellipse fill="none" stroke="black" cx="214" cy="-487" rx="27" ry="18.3848"/>
<text text-anchor="middle" x="214" y="-483.4" font-family="Times Roman,serif" font-size="14.00">q2</text>
</g>
<!-- q3&#45;&gt;q2 -->
<g id="edge12" class="edge"><title>q3&#45;&gt;q2</title>
<path fill="none" stroke="black" d="M148.761,-562.975C161.146,-548.552 179.51,-527.166 193.602,-510.755"/>
<polygon fill="black" stroke="black" points="196.273,-513.017 200.132,-503.15 190.962,-508.457 196.273,-513.017"/>
<text text-anchor="middle" x="185.5" y="-529.4" font-family="Times Roman,serif" font-size="14.00">a</text>
</g>
<!-- q10 -->
<g id="node11" class="node"><title>q10</title>
<ellipse fill="none" stroke="black" cx="128" cy="-19" rx="29.9071" ry="18.3848"/>
<text text-anchor="middle" x="128" y="-15.4" font-family="Times Roman,serif" font-size="14.00">q10</text>
</g>
<!-- q3&#45;&gt;q10 -->
<g id="edge10" class="edge"><title>q3&#45;&gt;q10</title>
<path fill="none" stroke="black" d="M108.488,-574.93C85.7711,-570.285 53.2856,-560.759 31,-542 9.53272,-523.93 0,-515.06 0,-487 0,-487 0,-487 0,-111 0,-82.9401 9.7383,-74.3111 31,-56 47.5144,-41.7773 70.0698,-32.7356 89.2747,-27.1536"/>
<polygon fill="black" stroke="black" points="90.2188,-30.5241 98.9624,-24.5409 88.396,-23.7656 90.2188,-30.5241"/>
<text text-anchor="middle" x="4.5" y="-291.4" font-family="Times Roman,serif" font-size="14.00">b</text>
</g>
<!-- q4 -->
<g id="node7" class="node"><title>q4</title>
<ellipse fill="none" stroke="black" cx="214" cy="-391" rx="27" ry="18.3848"/>
<ellipse fill="none" stroke="black" cx="214" cy="-391" rx="31" ry="22.3848"/>
<text text-anchor="middle" x="214" y="-387.4" font-family="Times Roman,serif" font-size="14.00">q4</text>
</g>
<!-- q2&#45;&gt;q4 -->
<g id="edge6" class="edge"><title>q2&#45;&gt;q4</title>
<path fill="none" stroke="black" d="M214,-468.49C214,-455.863 214,-438.791 214,-423.885"/>
<polygon fill="black" stroke="black" points="217.5,-423.508 214,-413.508 210.5,-423.508 217.5,-423.508"/>
<text text-anchor="middle" x="218.5" y="-437.4" font-family="Times Roman,serif" font-size="14.00">b</text>
</g>
<!-- q9 -->
<g id="node9" class="node"><title>q9</title>
<ellipse fill="none" stroke="black" cx="311" cy="-203" rx="27" ry="18.3848"/>
<text text-anchor="middle" x="311" y="-199.4" font-family="Times Roman,serif" font-size="14.00">q9</text>
</g>
<!-- q2&#45;&gt;q9 -->
<g id="edge8" class="edge"><title>q2&#45;&gt;q9</title>
<path fill="none" stroke="black" d="M224.91,-469.871C233.73,-455.428 245.962,-433.976 254,-414 279.409,-350.853 297.196,-272.599 305.567,-231.416"/>
<polygon fill="black" stroke="black" points="309.014,-232.03 307.538,-221.539 302.149,-230.661 309.014,-232.03"/>
<text text-anchor="middle" x="285.5" y="-337.4" font-family="Times Roman,serif" font-size="14.00">a</text>
</g>
<!-- q4&#45;&gt;q2 -->
<g id="edge16" class="edge"><title>q4&#45;&gt;q2</title>
<path fill="none" stroke="black" d="M205.1,-412.757C201.608,-423.853 198.884,-437.593 201,-450 201.521,-453.056 202.268,-456.195 203.144,-459.292"/>
<polygon fill="black" stroke="black" points="199.842,-460.455 206.264,-468.882 206.499,-458.289 199.842,-460.455"/>
<text text-anchor="middle" x="205.5" y="-437.4" font-family="Times Roman,serif" font-size="14.00">a</text>
</g>
<!-- q8 -->
<g id="node14" class="node"><title>q8</title>
<ellipse fill="none" stroke="black" cx="214" cy="-295" rx="27" ry="18.3848"/>
<text text-anchor="middle" x="214" y="-291.4" font-family="Times Roman,serif" font-size="14.00">q8</text>
</g>
<!-- q4&#45;&gt;q8 -->
<g id="edge14" class="edge"><title>q4&#45;&gt;q8</title>
<path fill="none" stroke="black" d="M214,-368.249C214,-354.994 214,-338.148 214,-323.954"/>
<polygon fill="black" stroke="black" points="217.5,-323.72 214,-313.72 210.5,-323.72 217.5,-323.72"/>
<text text-anchor="middle" x="218.5" y="-337.4" font-family="Times Roman,serif" font-size="14.00">b</text>
</g>
<!-- q9&#45;&gt;q3 -->
<g id="edge30" class="edge"><title>q9&#45;&gt;q3</title>
<path fill="none" stroke="black" d="M314.219,-221.613C317.142,-240.152 321,-269.455 321,-295 321,-487 321,-487 321,-487 321,-520.252 224.282,-553.387 170.333,-569.283"/>
<polygon fill="black" stroke="black" points="169.105,-565.995 160.473,-572.137 171.051,-572.719 169.105,-565.995"/>
<text text-anchor="middle" x="325.5" y="-387.4" font-family="Times Roman,serif" font-size="14.00">b</text>
</g>
<!-- q5 -->
<g id="node16" class="node"><title>q5</title>
<ellipse fill="none" stroke="black" cx="239" cy="-111" rx="27" ry="18.3848"/>
<text text-anchor="middle" x="239" y="-107.4" font-family="Times Roman,serif" font-size="14.00">q5</text>
</g>
<!-- q9&#45;&gt;q5 -->
<g id="edge32" class="edge"><title>q9&#45;&gt;q5</title>
<path fill="none" stroke="black" d="M299.107,-185.875C291.335,-174.88 280.836,-160.392 271,-148 267.502,-143.593 263.671,-138.989 259.915,-134.585"/>
<polygon fill="black" stroke="black" points="262.509,-132.234 253.32,-126.96 257.214,-136.813 262.509,-132.234"/>
<text text-anchor="middle" x="288.5" y="-153.4" font-family="Times Roman,serif" font-size="14.00">a</text>
</g>
<!-- q10&#45;&gt;q3 -->
<g id="edge34" class="edge"><title>q10&#45;&gt;q3</title>
<path fill="none" stroke="black" d="M105.32,-31.3282C80.7451,-46.5329 45,-74.8604 45,-111 45,-487 45,-487 45,-487 45,-521.578 77.8886,-547.97 103.903,-563.438"/>
<polygon fill="black" stroke="black" points="102.326,-566.567 112.753,-568.448 105.775,-560.476 102.326,-566.567"/>
<text text-anchor="middle" x="49.5" y="-291.4" font-family="Times Roman,serif" font-size="14.00">b</text>
</g>
<!-- q10&#45;&gt;q3 -->
<g id="edge36" class="edge"><title>q10&#45;&gt;q3</title>
<path fill="none" stroke="black" d="M116.185,-36.1107C105.03,-53.9624 90,-83.1775 90,-111 90,-487 90,-487 90,-487 90,-511.68 103.229,-536.644 115.342,-554.328"/>
<polygon fill="black" stroke="black" points="112.813,-556.805 121.499,-562.872 118.492,-552.712 112.813,-556.805"/>
<text text-anchor="middle" x="94.5" y="-291.4" font-family="Times Roman,serif" font-size="14.00">a</text>
</g>
<!-- q10&#45;&gt;q3 -->
<g id="edge38" class="edge"><title>q10&#45;&gt;q3</title>
<path fill="none" stroke="black" d="M128.684,-37.5099C130.445,-86.8315 135,-225.533 135,-341 135,-487 135,-487 135,-487 135,-508.13 135,-531.99 135,-550.116"/>
<polygon fill="black" stroke="black" points="131.5,-550.322 135,-560.322 138.5,-550.322 131.5,-550.322"/>
<text text-anchor="middle" x="138.5" y="-291.4" font-family="Times Roman,serif" font-size="14.00">b</text>
</g>
<!-- q10&#45;&gt;q8 -->
<g id="edge40" class="edge"><title>q10&#45;&gt;q8</title>
<path fill="none" stroke="black" d="M135.231,-37.3532C137.487,-43.274 139.925,-49.8865 142,-56 167.592,-131.412 193.543,-221.712 206.151,-266.666"/>
<polygon fill="black" stroke="black" points="202.857,-267.883 208.918,-276.573 209.598,-266 202.857,-267.883"/>
<text text-anchor="middle" x="180.5" y="-153.4" font-family="Times Roman,serif" font-size="14.00">a</text>
</g>
<!-- q8&#45;&gt;q9 -->
<g id="edge28" class="edge"><title>q8&#45;&gt;q9</title>
<path fill="none" stroke="black" d="M230.018,-279.808C245.603,-265.026 269.471,-242.388 287.263,-225.513"/>
<polygon fill="black" stroke="black" points="290.112,-227.636 294.959,-218.214 285.294,-222.557 290.112,-227.636"/>
<text text-anchor="middle" x="275.5" y="-245.4" font-family="Times Roman,serif" font-size="14.00">a</text>
</g>
<!-- q8&#45;&gt;q5 -->
<g id="edge26" class="edge"><title>q8&#45;&gt;q5</title>
<path fill="none" stroke="black" d="M220.661,-276.647C229.988,-249.032 245.534,-195.015 243,-148 242.86,-145.403 242.665,-142.708 242.436,-140.01"/>
<polygon fill="black" stroke="black" points="245.893,-139.399 241.428,-129.791 238.927,-140.086 245.893,-139.399"/>
<text text-anchor="middle" x="245.5" y="-199.4" font-family="Times Roman,serif" font-size="14.00">b</text>
</g>
<!-- q5&#45;&gt;q10 -->
<g id="edge20" class="edge"><title>q5&#45;&gt;q10</title>
<path fill="none" stroke="black" d="M223.486,-95.4723C211.875,-84.1184 195.407,-68.571 180,-56 172.781,-50.1096 164.693,-44.0965 157.087,-38.677"/>
<polygon fill="black" stroke="black" points="158.658,-35.5038 148.46,-32.6305 154.64,-41.2361 158.658,-35.5038"/>
<text text-anchor="middle" x="204.5" y="-61.4" font-family="Times Roman,serif" font-size="14.00">a</text>
</g>
<!-- q5&#45;&gt;q8 -->
<g id="edge18" class="edge"><title>q5&#45;&gt;q8</title>
<path fill="none" stroke="black" d="M235.335,-129.546C232.514,-144.267 228.659,-165.394 226,-184 222.017,-211.868 218.691,-243.841 216.559,-266.293"/>
<polygon fill="black" stroke="black" points="213.051,-266.208 215.61,-276.49 220.021,-266.857 213.051,-266.208"/>
<text text-anchor="middle" x="230.5" y="-199.4" font-family="Times Roman,serif" font-size="14.00">b</text>
</g>
<!-- q6 -->
<g id="node19" class="node"><title>q6</title>
<ellipse fill="none" stroke="black" cx="330" cy="-763" rx="27" ry="18.3848"/>
<text text-anchor="middle" x="330" y="-759.4" font-family="Times Roman,serif" font-size="14.00">q6</text>
</g>
<!-- q6&#45;&gt;q0 -->
<g id="edge22" class="edge"><title>q6&#45;&gt;q0</title>
<path fill="none" stroke="black" d="M315.543,-746.975C302.451,-732.463 282.999,-710.903 268.159,-694.453"/>
<polygon fill="black" stroke="black" points="270.589,-691.922 261.292,-686.842 265.392,-696.611 270.589,-691.922"/>
<text text-anchor="middle" x="299.5" y="-713.4" font-family="Times Roman,serif" font-size="14.00">b</text>
</g>
<!-- q6&#45;&gt;q10 -->
<g id="edge24" class="edge"><title>q6&#45;&gt;q10</title>
<path fill="none" stroke="black" d="M341.193,-745.803C351.761,-727.883 366,-698.614 366,-671 366,-671 366,-671 366,-111 366,-68.864 234.576,-38.5482 167.051,-25.7529"/>
<polygon fill="black" stroke="black" points="167.654,-22.3052 157.183,-23.9217 166.377,-29.1877 167.654,-22.3052"/>
<text text-anchor="middle" x="370.5" y="-387.4" font-family="Times Roman,serif" font-size="14.00">a</text>
</g>
</g>
</svg>
