<?xml version="1.0" encoding="UTF-8" standalone="no"?>
<!DOCTYPE svg PUBLIC "-//W3C//DTD SVG 1.1//EN"
 "http://www.w3.org/Graphics/SVG/1.1/DTD/svg11.dtd">
<!-- Generated by graphviz version 2.26.3 (20100126.1600)
 -->
<!-- Title: G Pages: 1 -->
<svg width="254pt" height="322pt"
 viewBox="0.00 0.00 254.00 322.00" xmlns="http://www.w3.org/2000/svg" xmlns:xlink="http://www.w3.org/1999/xlink">
<g id="graph1" class="graph" transform="scale(1 1) rotate(0) translate(4 318)">
<title>G</title>
<polygon fill="white" stroke="white" points="-4,5 -4,-318 251,-318 251,5 -4,5"/>
<!-- q5 -->
<g id="node1" class="node"><title>q5</title>
<ellipse fill="none" stroke="black" cx="192" cy="-203" rx="27" ry="18.3848"/>
<text text-anchor="middle" x="192" y="-199.4" font-family="Times Roman,serif" font-size="14.00">q5</text>
</g>
<!-- q3 -->
<g id="node3" class="node"><title>q3</title>
<ellipse fill="none" stroke="black" cx="126" cy="-111" rx="27" ry="18.3848"/>
<text text-anchor="middle" x="126" y="-107.4" font-family="Times Roman,serif" font-size="14.00">q3</text>
</g>
<!-- q5&#45;&gt;q3 -->
<g id="edge2" class="edge"><title>q5&#45;&gt;q3</title>
<path fill="none" stroke="black" d="M170.882,-191.434C154.254,-182.126 133.476,-169.966 131,-166 126.183,-158.284 124.249,-148.733 123.724,-139.767"/>
<polygon fill="black" stroke="black" points="127.223,-139.635 123.665,-129.655 120.223,-139.675 127.223,-139.635"/>
<text text-anchor="middle" x="135.5" y="-153.4" font-family="Times Roman,serif" font-size="14.00">b</text>
</g>
<!-- q2 -->
<g id="node5" class="node"><title>q2</title>
<ellipse fill="none" stroke="black" cx="189" cy="-19" rx="27" ry="18.3848"/>
<text text-anchor="middle" x="189" y="-15.4" font-family="Times Roman,serif" font-size="14.00">q2</text>
</g>
<!-- q5&#45;&gt;q2 -->
<g id="edge4" class="edge"><title>q5&#45;&gt;q2</title>
<path fill="none" stroke="black" d="M191.696,-184.345C191.172,-152.247 190.098,-86.3485 189.475,-48.1485"/>
<polygon fill="black" stroke="black" points="192.968,-47.6464 189.305,-37.7049 185.969,-47.7606 192.968,-47.6464"/>
<text text-anchor="middle" x="194.5" y="-107.4" font-family="Times Roman,serif" font-size="14.00">a</text>
</g>
<!-- q3&#45;&gt;q5 -->
<g id="edge20" class="edge"><title>q3&#45;&gt;q5</title>
<path fill="none" stroke="black" d="M138.029,-127.767C148.054,-141.742 162.489,-161.863 173.908,-177.781"/>
<polygon fill="black" stroke="black" points="171.222,-180.041 179.895,-186.126 176.909,-175.96 171.222,-180.041"/>
<text text-anchor="middle" x="168.5" y="-153.4" font-family="Times Roman,serif" font-size="14.00">a</text>
</g>
<!-- q3&#45;&gt;q2 -->
<g id="edge18" class="edge"><title>q3&#45;&gt;q2</title>
<path fill="none" stroke="black" d="M137.555,-94.1258C147.146,-80.1197 160.928,-59.9939 171.814,-44.0976"/>
<polygon fill="black" stroke="black" points="174.756,-45.9957 177.518,-35.7672 168.98,-42.0406 174.756,-45.9957"/>
<text text-anchor="middle" x="167.5" y="-61.4" font-family="Times Roman,serif" font-size="14.00">b</text>
</g>
<!-- q2&#45;&gt;q5 -->
<g id="edge6" class="edge"><title>q2&#45;&gt;q5</title>
<path fill="none" stroke="black" d="M197.098,-36.708C199.461,-42.7062 201.744,-49.5275 203,-56 219.747,-142.275 208.832,-143.536 205,-166 204.479,-169.056 203.732,-172.195 202.856,-175.292"/>
<polygon fill="black" stroke="black" points="199.501,-174.289 199.736,-184.882 206.158,-176.455 199.501,-174.289"/>
<text text-anchor="middle" x="216.5" y="-107.4" font-family="Times Roman,serif" font-size="14.00">b</text>
</g>
<!-- q2&#45;&gt;q5 -->
<g id="edge8" class="edge"><title>q2&#45;&gt;q5</title>
<path fill="none" stroke="black" d="M203.801,-34.4763C209.027,-40.7249 214.474,-48.2791 218,-56 224.771,-70.8266 223.437,-75.7754 225,-92 228.158,-124.785 233.453,-135.508 221,-166 219.095,-170.666 216.421,-175.233 213.461,-179.479"/>
<polygon fill="black" stroke="black" points="210.478,-177.615 207.136,-187.669 216.019,-181.893 210.478,-177.615"/>
<text text-anchor="middle" x="232.5" y="-107.4" font-family="Times Roman,serif" font-size="14.00">a</text>
</g>
<!-- q1 -->
<g id="node8" class="node"><title>q1</title>
<ellipse fill="none" stroke="black" cx="27" cy="-111" rx="27" ry="18.3848"/>
<text text-anchor="middle" x="27" y="-107.4" font-family="Times Roman,serif" font-size="14.00">q1</text>
</g>
<!-- q1&#45;&gt;q2 -->
<g id="edge10" class="edge"><title>q1&#45;&gt;q2</title>
<path fill="none" stroke="black" d="M47.847,-99.161C76.0806,-83.127 126.652,-54.4075 158.976,-36.0504"/>
<polygon fill="black" stroke="black" points="161.009,-38.9211 167.976,-30.9393 157.552,-32.8342 161.009,-38.9211"/>
<text text-anchor="middle" x="126.5" y="-61.4" font-family="Times Roman,serif" font-size="14.00">b</text>
</g>
<!-- q1&#45;&gt;q1 -->
<g id="edge12" class="edge"><title>q1&#45;&gt;q1</title>
<path fill="none" stroke="black" d="M51.0743,-119.454C62.2423,-120.377 72,-117.559 72,-111 72,-106.593 67.5952,-103.875 61.3174,-102.846"/>
<polygon fill="black" stroke="black" points="61.1726,-99.3402 51.0743,-102.546 60.9674,-106.337 61.1726,-99.3402"/>
<text text-anchor="middle" x="76.5" y="-107.4" font-family="Times Roman,serif" font-size="14.00">a</text>
</g>
<!-- q4 -->
<g id="node11" class="node"><title>q4</title>
<ellipse fill="none" stroke="black" cx="93" cy="-203" rx="27" ry="18.3848"/>
<text text-anchor="middle" x="93" y="-199.4" font-family="Times Roman,serif" font-size="14.00">q4</text>
</g>
<!-- q4&#45;&gt;q3 -->
<g id="edge16" class="edge"><title>q4&#45;&gt;q3</title>
<path fill="none" stroke="black" d="M91.6903,-184.328C91.5682,-173.396 92.5491,-159.52 97,-148 98.8163,-143.299 101.444,-138.713 104.385,-134.46"/>
<polygon fill="black" stroke="black" points="107.368,-136.324 110.705,-126.268 101.825,-132.048 107.368,-136.324"/>
<text text-anchor="middle" x="101.5" y="-153.4" font-family="Times Roman,serif" font-size="14.00">a</text>
</g>
<!-- q4&#45;&gt;q4 -->
<g id="edge14" class="edge"><title>q4&#45;&gt;q4</title>
<path fill="none" stroke="black" d="M117.074,-211.454C128.242,-212.377 138,-209.559 138,-203 138,-198.593 133.595,-195.875 127.317,-194.846"/>
<polygon fill="black" stroke="black" points="127.173,-191.34 117.074,-194.546 126.967,-198.337 127.173,-191.34"/>
<text text-anchor="middle" x="142.5" y="-199.4" font-family="Times Roman,serif" font-size="14.00">b</text>
</g>
<!-- q0 -->
<g id="node16" class="node"><title>q0</title>
<ellipse fill="none" stroke="black" cx="192" cy="-295" rx="27" ry="18.3848"/>
<text text-anchor="middle" x="192" y="-291.4" font-family="Times Roman,serif" font-size="14.00">q0</text>
</g>
<!-- q0&#45;&gt;q5 -->
<g id="edge22" class="edge"><title>q0&#45;&gt;q5</title>
<path fill="none" stroke="black" d="M192,-276.382C192,-263.538 192,-246.216 192,-231.627"/>
<polygon fill="black" stroke="black" points="195.5,-231.59 192,-221.59 188.5,-231.59 195.5,-231.59"/>
<text text-anchor="middle" x="196.5" y="-245.4" font-family="Times Roman,serif" font-size="14.00">b</text>
</g>
<!-- q0&#45;&gt;q0 -->
<g id="edge24" class="edge"><title>q0&#45;&gt;q0</title>
<path fill="none" stroke="black" d="M216.074,-303.454C227.242,-304.377 237,-301.559 237,-295 237,-290.593 232.595,-287.875 226.317,-286.846"/>
<polygon fill="black" stroke="black" points="226.173,-283.34 216.074,-286.546 225.967,-290.337 226.173,-283.34"/>
<text text-anchor="middle" x="241.5" y="-291.4" font-family="Times Roman,serif" font-size="14.00">a</text>
</g>
</g>
</svg>
