<?xml version="1.0" encoding="UTF-8" standalone="no"?>
<!DOCTYPE svg PUBLIC "-//W3C//DTD SVG 1.1//EN"
 "http://www.w3.org/Graphics/SVG/1.1/DTD/svg11.dtd">
<!-- Generated by graphviz version 2.26.3 (20100126.1600)
 -->
<!-- Title: G Pages: 1 -->
<svg width="156pt" height="506pt"
 viewBox="0.00 0.00 156.00 506.00" xmlns="http://www.w3.org/2000/svg" xmlns:xlink="http://www.w3.org/1999/xlink">
<g id="graph1" class="graph" transform="scale(1 1) rotate(0) translate(4 502)">
<title>G</title>
<polygon fill="white" stroke="white" points="-4,5 -4,-502 153,-502 153,5 -4,5"/>
<!-- q5 -->
<g id="node1" class="node"><title>q5</title>
<ellipse fill="none" stroke="black" cx="27" cy="-479" rx="27" ry="18.3848"/>
<text text-anchor="middle" x="27" y="-475.4" font-family="Times Roman,serif" font-size="14.00">q5</text>
</g>
<!-- q2 -->
<g id="node3" class="node"><title>q2</title>
<ellipse fill="none" stroke="black" cx="65" cy="-111" rx="27" ry="18.3848"/>
<text text-anchor="middle" x="65" y="-107.4" font-family="Times Roman,serif" font-size="14.00">q2</text>
</g>
<!-- q5&#45;&gt;q2 -->
<g id="edge2" class="edge"><title>q5&#45;&gt;q2</title>
<path fill="none" stroke="black" d="M20.0391,-460.976C13.5938,-442.645 5,-413.276 5,-387 5,-387 5,-387 5,-203 5,-175.55 23.972,-149.881 40.5795,-132.669"/>
<polygon fill="black" stroke="black" points="43.3067,-134.895 47.9669,-125.38 38.3903,-129.912 43.3067,-134.895"/>
<text text-anchor="middle" x="9.5" y="-291.4" font-family="Times Roman,serif" font-size="14.00">b</text>
</g>
<!-- q0 -->
<g id="node5" class="node"><title>q0</title>
<ellipse fill="none" stroke="black" cx="60" cy="-387" rx="27" ry="18.3848"/>
<text text-anchor="middle" x="60" y="-383.4" font-family="Times Roman,serif" font-size="14.00">q0</text>
</g>
<!-- q5&#45;&gt;q0 -->
<g id="edge4" class="edge"><title>q5&#45;&gt;q0</title>
<path fill="none" stroke="black" d="M33.5197,-460.824C38.2203,-447.719 44.6519,-429.789 49.9995,-414.88"/>
<polygon fill="black" stroke="black" points="53.4119,-415.733 53.4938,-405.138 46.8229,-413.37 53.4119,-415.733"/>
<text text-anchor="middle" x="50.5" y="-429.4" font-family="Times Roman,serif" font-size="14.00">a</text>
</g>
<!-- q2&#45;&gt;q2 -->
<g id="edge8" class="edge"><title>q2&#45;&gt;q2</title>
<path fill="none" stroke="black" d="M89.0743,-119.454C100.242,-120.377 110,-117.559 110,-111 110,-106.593 105.595,-103.875 99.3174,-102.846"/>
<polygon fill="black" stroke="black" points="99.1726,-99.3402 89.0743,-102.546 98.9674,-106.337 99.1726,-99.3402"/>
<text text-anchor="middle" x="114.5" y="-107.4" font-family="Times Roman,serif" font-size="14.00">a</text>
</g>
<!-- q3 -->
<g id="node7" class="node"><title>q3</title>
<ellipse fill="none" stroke="black" cx="65" cy="-19" rx="27" ry="18.3848"/>
<text text-anchor="middle" x="65" y="-15.4" font-family="Times Roman,serif" font-size="14.00">q3</text>
</g>
<!-- q2&#45;&gt;q3 -->
<g id="edge6" class="edge"><title>q2&#45;&gt;q3</title>
<path fill="none" stroke="black" d="M56.2385,-93.3607C53.7013,-87.3671 51.2735,-80.5311 50,-74 48.4689,-66.1479 48.4689,-63.8521 50,-56 50.6368,-52.7344 51.5621,-49.3927 52.6454,-46.1181"/>
<polygon fill="black" stroke="black" points="55.9666,-47.2306 56.2385,-36.6393 49.4211,-44.7494 55.9666,-47.2306"/>
<text text-anchor="middle" x="54.5" y="-61.4" font-family="Times Roman,serif" font-size="14.00">b</text>
</g>
<!-- q0&#45;&gt;q2 -->
<g id="edge22" class="edge"><title>q0&#45;&gt;q2</title>
<path fill="none" stroke="black" d="M59.9893,-368.245C60.0122,-332.43 60.2727,-251.824 62,-184 62.372,-169.392 63.0168,-153.148 63.6134,-139.699"/>
<polygon fill="black" stroke="black" points="67.1148,-139.747 64.0755,-129.597 60.1221,-139.427 67.1148,-139.747"/>
<text text-anchor="middle" x="64.5" y="-245.4" font-family="Times Roman,serif" font-size="14.00">b</text>
</g>
<!-- q4 -->
<g id="node11" class="node"><title>q4</title>
<ellipse fill="none" stroke="black" cx="114" cy="-295" rx="27" ry="18.3848"/>
<text text-anchor="middle" x="114" y="-291.4" font-family="Times Roman,serif" font-size="14.00">q4</text>
</g>
<!-- q0&#45;&gt;q4 -->
<g id="edge24" class="edge"><title>q0&#45;&gt;q4</title>
<path fill="none" stroke="black" d="M70.157,-369.696C78.2274,-355.946 89.6406,-336.501 98.7991,-320.898"/>
<polygon fill="black" stroke="black" points="101.845,-322.623 103.889,-312.227 95.808,-319.079 101.845,-322.623"/>
<text text-anchor="middle" x="95.5" y="-337.4" font-family="Times Roman,serif" font-size="14.00">a</text>
</g>
<!-- q3&#45;&gt;q2 -->
<g id="edge18" class="edge"><title>q3&#45;&gt;q2</title>
<path fill="none" stroke="black" d="M65,-37.5899C65,-50.4275 65,-67.7485 65,-82.3416"/>
<polygon fill="black" stroke="black" points="61.5001,-82.3824 65,-92.3824 68.5001,-82.3825 61.5001,-82.3824"/>
<text text-anchor="middle" x="69.5" y="-61.4" font-family="Times Roman,serif" font-size="14.00">b</text>
</g>
<!-- q3&#45;&gt;q3 -->
<g id="edge20" class="edge"><title>q3&#45;&gt;q3</title>
<path fill="none" stroke="black" d="M89.0743,-27.4544C100.242,-28.3767 110,-25.5586 110,-19 110,-14.5934 105.595,-11.8754 99.3174,-10.8458"/>
<polygon fill="black" stroke="black" points="99.1726,-7.34018 89.0743,-10.5456 98.9674,-14.3372 99.1726,-7.34018"/>
<text text-anchor="middle" x="114.5" y="-15.4" font-family="Times Roman,serif" font-size="14.00">a</text>
</g>
<!-- q1 -->
<g id="node9" class="node"><title>q1</title>
<ellipse fill="none" stroke="black" cx="98" cy="-203" rx="27" ry="18.3848"/>
<text text-anchor="middle" x="98" y="-199.4" font-family="Times Roman,serif" font-size="14.00">q1</text>
</g>
<!-- q1&#45;&gt;q2 -->
<g id="edge12" class="edge"><title>q1&#45;&gt;q2</title>
<path fill="none" stroke="black" d="M91.4803,-184.824C86.7797,-171.719 80.3481,-153.789 75.0005,-138.88"/>
<polygon fill="black" stroke="black" points="78.1771,-137.37 71.5062,-129.138 71.5881,-139.733 78.1771,-137.37"/>
<text text-anchor="middle" x="88.5" y="-153.4" font-family="Times Roman,serif" font-size="14.00">a</text>
</g>
<!-- q1&#45;&gt;q4 -->
<g id="edge10" class="edge"><title>q1&#45;&gt;q4</title>
<path fill="none" stroke="black" d="M103.553,-221.313C105.185,-227.232 106.841,-233.853 108,-240 109.589,-248.429 110.799,-257.669 111.702,-266.13"/>
<polygon fill="black" stroke="black" points="108.24,-266.693 112.686,-276.309 115.207,-266.019 108.24,-266.693"/>
<text text-anchor="middle" x="114.5" y="-245.4" font-family="Times Roman,serif" font-size="14.00">b</text>
</g>
<!-- q4&#45;&gt;q2 -->
<g id="edge16" class="edge"><title>q4&#45;&gt;q2</title>
<path fill="none" stroke="black" d="M122.893,-277.488C132.986,-255.102 146.522,-215.476 134,-184 125.492,-162.612 107.414,-143.873 91.8971,-130.737"/>
<polygon fill="black" stroke="black" points="94.0508,-127.977 84.0802,-124.394 89.6401,-133.413 94.0508,-127.977"/>
<text text-anchor="middle" x="143.5" y="-199.4" font-family="Times Roman,serif" font-size="14.00">a</text>
</g>
<!-- q4&#45;&gt;q1 -->
<g id="edge14" class="edge"><title>q4&#45;&gt;q1</title>
<path fill="none" stroke="black" d="M105.308,-277.347C102.775,-271.352 100.333,-264.519 99,-258 97.2783,-249.579 96.6436,-240.281 96.5444,-231.764"/>
<polygon fill="black" stroke="black" points="100.047,-231.558 96.6636,-221.518 93.0474,-231.476 100.047,-231.558"/>
<text text-anchor="middle" x="103.5" y="-245.4" font-family="Times Roman,serif" font-size="14.00">b</text>
</g>
</g>
</svg>
