<?xml version="1.0" encoding="UTF-8" standalone="no"?>
<!DOCTYPE svg PUBLIC "-//W3C//DTD SVG 1.1//EN"
 "http://www.w3.org/Graphics/SVG/1.1/DTD/svg11.dtd">
<!-- Generated by graphviz version 2.26.3 (20100126.1600)
 -->
<!-- Title: G Pages: 1 -->
<svg width="378pt" height="606pt"
 viewBox="0.00 0.00 378.00 606.00" xmlns="http://www.w3.org/2000/svg" xmlns:xlink="http://www.w3.org/1999/xlink">
<g id="graph1" class="graph" transform="scale(1 1) rotate(0) translate(4 602)">
<title>G</title>
<polygon fill="white" stroke="white" points="-4,5 -4,-602 375,-602 375,5 -4,5"/>
<!-- q0 -->
<g id="node1" class="node"><title>q0</title>
<ellipse fill="none" stroke="black" cx="293" cy="-579" rx="27" ry="18.3848"/>
<text text-anchor="middle" x="293" y="-575.4" font-family="Times Roman,serif" font-size="14.00">q0</text>
</g>
<!-- q0&#45;&gt;q0 -->
<g id="edge4" class="edge"><title>q0&#45;&gt;q0</title>
<path fill="none" stroke="black" d="M317.074,-587.454C328.242,-588.377 338,-585.559 338,-579 338,-574.593 333.595,-571.875 327.317,-570.846"/>
<polygon fill="black" stroke="black" points="327.173,-567.34 317.074,-570.546 326.967,-574.337 327.173,-567.34"/>
<text text-anchor="middle" x="342.5" y="-575.4" font-family="Times Roman,serif" font-size="14.00">a</text>
</g>
<!-- q3 -->
<g id="node3" class="node"><title>q3</title>
<ellipse fill="none" stroke="black" cx="139" cy="-487" rx="27" ry="18.3848"/>
<text text-anchor="middle" x="139" y="-483.4" font-family="Times Roman,serif" font-size="14.00">q3</text>
</g>
<!-- q0&#45;&gt;q3 -->
<g id="edge2" class="edge"><title>q0&#45;&gt;q3</title>
<path fill="none" stroke="black" d="M272.55,-566.783C245.857,-550.836 198.956,-522.818 168.439,-504.587"/>
<polygon fill="black" stroke="black" points="169.914,-501.391 159.535,-499.267 166.324,-507.401 169.914,-501.391"/>
<text text-anchor="middle" x="233.5" y="-529.4" font-family="Times Roman,serif" font-size="14.00">b</text>
</g>
<!-- q2 -->
<g id="node5" class="node"><title>q2</title>
<ellipse fill="none" stroke="black" cx="181" cy="-395" rx="27" ry="18.3848"/>
<text text-anchor="middle" x="181" y="-391.4" font-family="Times Roman,serif" font-size="14.00">q2</text>
</g>
<!-- q3&#45;&gt;q2 -->
<g id="edge12" class="edge"><title>q3&#45;&gt;q2</title>
<path fill="none" stroke="black" d="M147.098,-469.261C153.199,-455.898 161.672,-437.338 168.621,-422.117"/>
<polygon fill="black" stroke="black" points="171.958,-423.235 172.927,-412.684 165.59,-420.327 171.958,-423.235"/>
<text text-anchor="middle" x="167.5" y="-437.4" font-family="Times Roman,serif" font-size="14.00">a</text>
</g>
<!-- q10 -->
<g id="node11" class="node"><title>q10</title>
<ellipse fill="none" stroke="black" cx="76" cy="-19" rx="29.9071" ry="18.3848"/>
<text text-anchor="middle" x="76" y="-15.4" font-family="Times Roman,serif" font-size="14.00">q10</text>
</g>
<!-- q3&#45;&gt;q10 -->
<g id="edge10" class="edge"><title>q3&#45;&gt;q10</title>
<path fill="none" stroke="black" d="M121.115,-472.798C102.49,-456.278 76,-427.135 76,-395 76,-395 76,-395 76,-111 76,-89.8699 76,-66.0099 76,-47.8843"/>
<polygon fill="black" stroke="black" points="79.5001,-47.6775 76,-37.6776 72.5001,-47.6776 79.5001,-47.6775"/>
<text text-anchor="middle" x="80.5" y="-245.4" font-family="Times Roman,serif" font-size="14.00">b</text>
</g>
<!-- q4 -->
<g id="node7" class="node"><title>q4</title>
<ellipse fill="none" stroke="black" cx="218" cy="-299" rx="27" ry="18.3848"/>
<ellipse fill="none" stroke="black" cx="218" cy="-299" rx="31" ry="22.3848"/>
<text text-anchor="middle" x="218" y="-295.4" font-family="Times Roman,serif" font-size="14.00">q4</text>
</g>
<!-- q2&#45;&gt;q4 -->
<g id="edge6" class="edge"><title>q2&#45;&gt;q4</title>
<path fill="none" stroke="black" d="M183.95,-376.498C186.031,-365.624 189.295,-351.75 194,-340 195.509,-336.231 197.325,-332.396 199.274,-328.66"/>
<polygon fill="black" stroke="black" points="202.475,-330.106 204.294,-319.668 196.363,-326.693 202.475,-330.106"/>
<text text-anchor="middle" x="198.5" y="-345.4" font-family="Times Roman,serif" font-size="14.00">b</text>
</g>
<!-- q9 -->
<g id="node9" class="node"><title>q9</title>
<ellipse fill="none" stroke="black" cx="251" cy="-203" rx="27" ry="18.3848"/>
<text text-anchor="middle" x="251" y="-199.4" font-family="Times Roman,serif" font-size="14.00">q9</text>
</g>
<!-- q2&#45;&gt;q9 -->
<g id="edge8" class="edge"><title>q2&#45;&gt;q9</title>
<path fill="none" stroke="black" d="M173.689,-376.756C165.195,-352.589 154.127,-309.154 169,-276 179.708,-252.13 202.508,-232.87 221.353,-220.14"/>
<polygon fill="black" stroke="black" points="223.445,-222.956 229.946,-214.59 219.647,-217.075 223.445,-222.956"/>
<text text-anchor="middle" x="173.5" y="-295.4" font-family="Times Roman,serif" font-size="14.00">a</text>
</g>
<!-- q4&#45;&gt;q2 -->
<g id="edge16" class="edge"><title>q4&#45;&gt;q2</title>
<path fill="none" stroke="black" d="M213.907,-321.341C211.453,-332.587 207.853,-346.283 203,-358 201.436,-361.776 199.536,-365.627 197.516,-369.349"/>
<polygon fill="black" stroke="black" points="194.36,-367.813 192.366,-378.218 200.414,-371.328 194.36,-367.813"/>
<text text-anchor="middle" x="213.5" y="-345.4" font-family="Times Roman,serif" font-size="14.00">a</text>
</g>
<!-- q4&#45;&gt;q9 -->
<g id="edge14" class="edge"><title>q4&#45;&gt;q9</title>
<path fill="none" stroke="black" d="M225.654,-276.734C230.357,-263.053 236.421,-245.412 241.438,-230.816"/>
<polygon fill="black" stroke="black" points="244.774,-231.878 244.715,-221.283 238.155,-229.602 244.774,-231.878"/>
<text text-anchor="middle" x="241.5" y="-245.4" font-family="Times Roman,serif" font-size="14.00">b</text>
</g>
<!-- q9&#45;&gt;q0 -->
<g id="edge40" class="edge"><title>q9&#45;&gt;q0</title>
<path fill="none" stroke="black" d="M275.14,-211.628C307.52,-224.932 361,-253.755 361,-299 361,-487 361,-487 361,-487 361,-516.023 338.845,-541.888 319.827,-558.744"/>
<polygon fill="black" stroke="black" points="317.326,-556.275 311.942,-565.4 321.841,-561.624 317.326,-556.275"/>
<text text-anchor="middle" x="365.5" y="-391.4" font-family="Times Roman,serif" font-size="14.00">a</text>
</g>
<!-- q9&#45;&gt;q3 -->
<g id="edge26" class="edge"><title>q9&#45;&gt;q3</title>
<path fill="none" stroke="black" d="M255.08,-221.372C259.634,-244.947 265.45,-286.981 258,-322 248.685,-365.786 242.969,-377.537 217,-414 202.615,-434.198 181.981,-453.209 165.549,-466.765"/>
<polygon fill="black" stroke="black" points="162.986,-464.335 157.394,-473.333 167.377,-469.786 162.986,-464.335"/>
<text text-anchor="middle" x="257.5" y="-345.4" font-family="Times Roman,serif" font-size="14.00">b</text>
</g>
<!-- q9&#45;&gt;q3 -->
<g id="edge38" class="edge"><title>q9&#45;&gt;q3</title>
<path fill="none" stroke="black" d="M263.578,-219.815C267.38,-225.861 271.059,-232.938 273,-240 293.797,-315.668 286.5,-348.686 243,-414 225.374,-440.464 194.626,-460.27 171.121,-472.526"/>
<polygon fill="black" stroke="black" points="169.244,-469.551 161.871,-477.159 172.379,-475.81 169.244,-469.551"/>
<text text-anchor="middle" x="284.5" y="-345.4" font-family="Times Roman,serif" font-size="14.00">b</text>
</g>
<!-- q5 -->
<g id="node15" class="node"><title>q5</title>
<ellipse fill="none" stroke="black" cx="251" cy="-111" rx="27" ry="18.3848"/>
<text text-anchor="middle" x="251" y="-107.4" font-family="Times Roman,serif" font-size="14.00">q5</text>
</g>
<!-- q9&#45;&gt;q5 -->
<g id="edge28" class="edge"><title>q9&#45;&gt;q5</title>
<path fill="none" stroke="black" d="M251,-184.382C251,-171.538 251,-154.216 251,-139.627"/>
<polygon fill="black" stroke="black" points="254.5,-139.59 251,-129.59 247.5,-139.59 254.5,-139.59"/>
<text text-anchor="middle" x="255.5" y="-153.4" font-family="Times Roman,serif" font-size="14.00">a</text>
</g>
<!-- q10&#45;&gt;q3 -->
<g id="edge30" class="edge"><title>q10&#45;&gt;q3</title>
<path fill="none" stroke="black" d="M87.8151,-36.1107C98.9701,-53.9624 114,-83.1775 114,-111 114,-395 114,-395 114,-395 114,-417.241 120.888,-441.481 127.433,-459.494"/>
<polygon fill="black" stroke="black" points="124.251,-460.971 131.09,-469.063 130.789,-458.472 124.251,-460.971"/>
<text text-anchor="middle" x="118.5" y="-245.4" font-family="Times Roman,serif" font-size="14.00">b</text>
</g>
<!-- q10&#45;&gt;q3 -->
<g id="edge32" class="edge"><title>q10&#45;&gt;q3</title>
<path fill="none" stroke="black" d="M53.3615,-31.3058C43.34,-37.6364 32.0309,-46.1076 24,-56 7.19023,-76.706 0,-84.3296 0,-111 0,-395 0,-395 0,-395 0,-421.67 4.22064,-432.109 24,-450 45.5037,-469.451 77.3206,-478.684 102.04,-483.063"/>
<polygon fill="black" stroke="black" points="101.726,-486.556 112.149,-484.658 102.817,-479.642 101.726,-486.556"/>
<text text-anchor="middle" x="4.5" y="-245.4" font-family="Times Roman,serif" font-size="14.00">a</text>
</g>
<!-- q10&#45;&gt;q3 -->
<g id="edge34" class="edge"><title>q10&#45;&gt;q3</title>
<path fill="none" stroke="black" d="M64.1849,-36.1107C53.0299,-53.9624 38,-83.1775 38,-111 38,-395 38,-395 38,-395 38,-432.561 76.6491,-458.857 106.131,-473.451"/>
<polygon fill="black" stroke="black" points="104.782,-476.685 115.32,-477.778 107.764,-470.352 104.782,-476.685"/>
<text text-anchor="middle" x="42.5" y="-245.4" font-family="Times Roman,serif" font-size="14.00">b</text>
</g>
<!-- q10&#45;&gt;q10 -->
<g id="edge36" class="edge"><title>q10&#45;&gt;q10</title>
<path fill="none" stroke="black" d="M102.655,-27.5218C114.154,-28.2195 124,-25.3789 124,-19 124,-14.6145 119.346,-11.9014 112.701,-10.8607"/>
<polygon fill="black" stroke="black" points="112.781,-7.3613 102.655,-10.4782 112.514,-14.3562 112.781,-7.3613"/>
<text text-anchor="middle" x="128.5" y="-15.4" font-family="Times Roman,serif" font-size="14.00">a</text>
</g>
<!-- q5&#45;&gt;q10 -->
<g id="edge20" class="edge"><title>q5&#45;&gt;q10</title>
<path fill="none" stroke="black" d="M229.542,-99.719C199.128,-83.7304 143.266,-54.3629 107.963,-35.8035"/>
<polygon fill="black" stroke="black" points="109.504,-32.6596 99.0244,-31.1042 106.247,-38.8556 109.504,-32.6596"/>
<text text-anchor="middle" x="183.5" y="-61.4" font-family="Times Roman,serif" font-size="14.00">a</text>
</g>
<!-- q8 -->
<g id="node17" class="node"><title>q8</title>
<ellipse fill="none" stroke="black" cx="251" cy="-19" rx="27" ry="18.3848"/>
<text text-anchor="middle" x="251" y="-15.4" font-family="Times Roman,serif" font-size="14.00">q8</text>
</g>
<!-- q5&#45;&gt;q8 -->
<g id="edge18" class="edge"><title>q5&#45;&gt;q8</title>
<path fill="none" stroke="black" d="M256.956,-92.7512C258.61,-86.836 260.177,-80.2004 261,-74 262.053,-66.0696 262.053,-63.9304 261,-56 260.614,-53.0935 260.065,-50.0915 259.42,-47.1128"/>
<polygon fill="black" stroke="black" points="262.775,-46.1028 256.956,-37.2488 255.984,-47.7989 262.775,-46.1028"/>
<text text-anchor="middle" x="265.5" y="-61.4" font-family="Times Roman,serif" font-size="14.00">b</text>
</g>
<!-- q8&#45;&gt;q9 -->
<g id="edge24" class="edge"><title>q8&#45;&gt;q9</title>
<path fill="none" stroke="black" d="M228.427,-29.1789C217.736,-35.2979 206.013,-44.2087 200,-56 179.001,-97.1769 208.858,-148.982 230.968,-178.811"/>
<polygon fill="black" stroke="black" points="228.367,-181.17 237.233,-186.971 233.919,-176.908 228.367,-181.17"/>
<text text-anchor="middle" x="205.5" y="-107.4" font-family="Times Roman,serif" font-size="14.00">a</text>
</g>
<!-- q8&#45;&gt;q5 -->
<g id="edge22" class="edge"><title>q8&#45;&gt;q5</title>
<path fill="none" stroke="black" d="M251,-37.5899C251,-50.4275 251,-67.7485 251,-82.3416"/>
<polygon fill="black" stroke="black" points="247.5,-82.3824 251,-92.3824 254.5,-82.3825 247.5,-82.3824"/>
<text text-anchor="middle" x="255.5" y="-61.4" font-family="Times Roman,serif" font-size="14.00">b</text>
</g>
</g>
</svg>
