<?xml version="1.0" encoding="UTF-8" standalone="no"?>
<!DOCTYPE svg PUBLIC "-//W3C//DTD SVG 1.1//EN"
 "http://www.w3.org/Graphics/SVG/1.1/DTD/svg11.dtd">
<!-- Generated by graphviz version 2.26.3 (20100126.1600)
 -->
<!-- Title: G Pages: 1 -->
<svg width="216pt" height="514pt"
 viewBox="0.00 0.00 216.00 514.00" xmlns="http://www.w3.org/2000/svg" xmlns:xlink="http://www.w3.org/1999/xlink">
<g id="graph1" class="graph" transform="scale(1 1) rotate(0) translate(4 510)">
<title>G</title>
<polygon fill="white" stroke="white" points="-4,5 -4,-510 213,-510 213,5 -4,5"/>
<!-- q0 -->
<g id="node1" class="node"><title>q0</title>
<ellipse fill="none" stroke="black" cx="154" cy="-487" rx="27" ry="18.3848"/>
<text text-anchor="middle" x="154" y="-483.4" font-family="Times Roman,serif" font-size="14.00">q0</text>
</g>
<!-- q0&#45;&gt;q0 -->
<g id="edge2" class="edge"><title>q0&#45;&gt;q0</title>
<path fill="none" stroke="black" d="M178.074,-495.454C189.242,-496.377 199,-493.559 199,-487 199,-482.593 194.595,-479.875 188.317,-478.846"/>
<polygon fill="black" stroke="black" points="188.173,-475.34 178.074,-478.546 187.967,-482.337 188.173,-475.34"/>
<text text-anchor="middle" x="203.5" y="-483.4" font-family="Times Roman,serif" font-size="14.00">b</text>
</g>
<!-- q6 -->
<g id="node4" class="node"><title>q6</title>
<ellipse fill="none" stroke="black" cx="99" cy="-395" rx="27" ry="18.3848"/>
<text text-anchor="middle" x="99" y="-391.4" font-family="Times Roman,serif" font-size="14.00">q6</text>
</g>
<!-- q0&#45;&gt;q6 -->
<g id="edge4" class="edge"><title>q0&#45;&gt;q6</title>
<path fill="none" stroke="black" d="M143.655,-469.696C135.435,-455.946 123.811,-436.501 114.482,-420.898"/>
<polygon fill="black" stroke="black" points="117.434,-419.014 109.299,-412.227 111.426,-422.606 117.434,-419.014"/>
<text text-anchor="middle" x="135.5" y="-437.4" font-family="Times Roman,serif" font-size="14.00">a</text>
</g>
<!-- q6&#45;&gt;q6 -->
<g id="edge14" class="edge"><title>q6&#45;&gt;q6</title>
<path fill="none" stroke="black" d="M123.074,-403.454C134.242,-404.377 144,-401.559 144,-395 144,-390.593 139.595,-387.875 133.317,-386.846"/>
<polygon fill="black" stroke="black" points="133.173,-383.34 123.074,-386.546 132.967,-390.337 133.173,-383.34"/>
<text text-anchor="middle" x="148.5" y="-391.4" font-family="Times Roman,serif" font-size="14.00">b</text>
</g>
<!-- q7 -->
<g id="node7" class="node"><title>q7</title>
<ellipse fill="none" stroke="black" cx="99" cy="-303" rx="27" ry="18.3848"/>
<text text-anchor="middle" x="99" y="-299.4" font-family="Times Roman,serif" font-size="14.00">q7</text>
</g>
<!-- q6&#45;&gt;q7 -->
<g id="edge16" class="edge"><title>q6&#45;&gt;q7</title>
<path fill="none" stroke="black" d="M99,-376.382C99,-363.538 99,-346.216 99,-331.627"/>
<polygon fill="black" stroke="black" points="102.5,-331.59 99,-321.59 95.5001,-331.59 102.5,-331.59"/>
<text text-anchor="middle" x="103.5" y="-345.4" font-family="Times Roman,serif" font-size="14.00">a</text>
</g>
<!-- q2 -->
<g id="node5" class="node"><title>q2</title>
<ellipse fill="none" stroke="black" cx="82" cy="-211" rx="27" ry="18.3848"/>
<text text-anchor="middle" x="82" y="-207.4" font-family="Times Roman,serif" font-size="14.00">q2</text>
</g>
<!-- q2&#45;&gt;q7 -->
<g id="edge6" class="edge"><title>q2&#45;&gt;q7</title>
<path fill="none" stroke="black" d="M85.4351,-229.59C87.8073,-242.428 91.0079,-259.748 93.7044,-274.342"/>
<polygon fill="black" stroke="black" points="90.3009,-275.185 95.5598,-284.382 97.1844,-273.913 90.3009,-275.185"/>
<text text-anchor="middle" x="96.5" y="-253.4" font-family="Times Roman,serif" font-size="14.00">b</text>
</g>
<!-- q4 -->
<g id="node9" class="node"><title>q4</title>
<ellipse fill="none" stroke="black" cx="82" cy="-119" rx="27" ry="18.3848"/>
<text text-anchor="middle" x="82" y="-115.4" font-family="Times Roman,serif" font-size="14.00">q4</text>
</g>
<!-- q2&#45;&gt;q4 -->
<g id="edge8" class="edge"><title>q2&#45;&gt;q4</title>
<path fill="none" stroke="black" d="M82,-192.382C82,-179.538 82,-162.216 82,-147.627"/>
<polygon fill="black" stroke="black" points="85.5001,-147.59 82,-137.59 78.5001,-147.59 85.5001,-147.59"/>
<text text-anchor="middle" x="86.5" y="-161.4" font-family="Times Roman,serif" font-size="14.00">a</text>
</g>
<!-- q7&#45;&gt;q2 -->
<g id="edge18" class="edge"><title>q7&#45;&gt;q2</title>
<path fill="none" stroke="black" d="M85.5457,-286.705C81.31,-280.594 77.1726,-273.342 75,-266 72.4756,-257.469 72.6863,-247.93 73.9863,-239.222"/>
<polygon fill="black" stroke="black" points="77.4743,-239.627 76.0015,-229.135 70.61,-238.256 77.4743,-239.627"/>
<text text-anchor="middle" x="79.5" y="-253.4" font-family="Times Roman,serif" font-size="14.00">b</text>
</g>
<!-- q7&#45;&gt;q7 -->
<g id="edge20" class="edge"><title>q7&#45;&gt;q7</title>
<path fill="none" stroke="black" d="M123.074,-311.454C134.242,-312.377 144,-309.559 144,-303 144,-298.593 139.595,-295.875 133.317,-294.846"/>
<polygon fill="black" stroke="black" points="133.173,-291.34 123.074,-294.546 132.967,-298.337 133.173,-291.34"/>
<text text-anchor="middle" x="148.5" y="-299.4" font-family="Times Roman,serif" font-size="14.00">a</text>
</g>
<!-- q8 -->
<g id="node11" class="node"><title>q8</title>
<ellipse fill="none" stroke="black" cx="31" cy="-23" rx="27" ry="18.3848"/>
<ellipse fill="none" stroke="black" cx="31" cy="-23" rx="31" ry="22.3848"/>
<text text-anchor="middle" x="31" y="-19.4" font-family="Times Roman,serif" font-size="14.00">q8</text>
</g>
<!-- q4&#45;&gt;q8 -->
<g id="edge10" class="edge"><title>q4&#45;&gt;q8</title>
<path fill="none" stroke="black" d="M72.6458,-101.392C65.4823,-87.9079 55.431,-68.9878 46.9977,-53.1133"/>
<polygon fill="black" stroke="black" points="50.0358,-51.3718 42.2533,-44.1827 43.854,-54.656 50.0358,-51.3718"/>
<text text-anchor="middle" x="66.5" y="-69.4" font-family="Times Roman,serif" font-size="14.00">b</text>
</g>
<!-- q9 -->
<g id="node13" class="node"><title>q9</title>
<ellipse fill="none" stroke="black" cx="161" cy="-23" rx="27" ry="18.3848"/>
<text text-anchor="middle" x="161" y="-19.4" font-family="Times Roman,serif" font-size="14.00">q9</text>
</g>
<!-- q4&#45;&gt;q9 -->
<g id="edge12" class="edge"><title>q4&#45;&gt;q9</title>
<path fill="none" stroke="black" d="M91.5183,-101.627C98.0316,-90.4006 107.231,-75.7481 117,-64 122.758,-57.0758 129.631,-50.1633 136.213,-44.0407"/>
<polygon fill="black" stroke="black" points="138.645,-46.5611 143.723,-37.2627 133.954,-41.3645 138.645,-46.5611"/>
<text text-anchor="middle" x="121.5" y="-69.4" font-family="Times Roman,serif" font-size="14.00">a</text>
</g>
<!-- q8&#45;&gt;q8 -->
<g id="edge22" class="edge"><title>q8&#45;&gt;q8</title>
<path fill="none" stroke="black" d="M61.625,-27.6875C71.8333,-27.6875 80,-26.125 80,-23 80,-21.0469 76.8099,-19.7041 71.925,-18.9717"/>
<polygon fill="black" stroke="black" points="71.8282,-15.4584 61.625,-18.3125 71.381,-22.4441 71.8282,-15.4584"/>
<text text-anchor="middle" x="84.5" y="-19.4" font-family="Times Roman,serif" font-size="14.00">b</text>
</g>
<!-- q8&#45;&gt;q8 -->
<g id="edge24" class="edge"><title>q8&#45;&gt;q8</title>
<path fill="none" stroke="black" d="M54.3472,-37.9505C75.424,-45.2237 98,-40.2402 98,-23 98,-8.45355 81.9279,-2.63284 64.245,-5.53787"/>
<polygon fill="black" stroke="black" points="63.1792,-2.19731 54.3472,-8.04948 64.9009,-8.98227 63.1792,-2.19731"/>
<text text-anchor="middle" x="102.5" y="-19.4" font-family="Times Roman,serif" font-size="14.00">a</text>
</g>
<!-- q9&#45;&gt;q0 -->
<g id="edge26" class="edge"><title>q9&#45;&gt;q0</title>
<path fill="none" stroke="black" d="M167.109,-41.1694C172.991,-60.3028 181,-91.4203 181,-119 181,-395 181,-395 181,-395 181,-417.472 173.492,-441.827 166.394,-459.831"/>
<polygon fill="black" stroke="black" points="163.136,-458.548 162.543,-469.127 169.604,-461.227 163.136,-458.548"/>
<text text-anchor="middle" x="185.5" y="-253.4" font-family="Times Roman,serif" font-size="14.00">b</text>
</g>
<!-- q9&#45;&gt;q7 -->
<g id="edge28" class="edge"><title>q9&#45;&gt;q7</title>
<path fill="none" stroke="black" d="M157.454,-41.6236C150.464,-77.9676 134.172,-160.842 118,-230 114.507,-244.938 110.232,-261.49 106.623,-275.051"/>
<polygon fill="black" stroke="black" points="103.228,-274.197 104.016,-284.762 109.989,-276.011 103.228,-274.197"/>
<text text-anchor="middle" x="137.5" y="-161.4" font-family="Times Roman,serif" font-size="14.00">a</text>
</g>
</g>
</svg>
