<?xml version="1.0" encoding="UTF-8" standalone="no"?>
<!DOCTYPE svg PUBLIC "-//W3C//DTD SVG 1.1//EN"
 "http://www.w3.org/Graphics/SVG/1.1/DTD/svg11.dtd">
<!-- Generated by graphviz version 2.26.3 (20100126.1600)
 -->
<!-- Title: G Pages: 1 -->
<svg width="166pt" height="330pt"
 viewBox="0.00 0.00 166.00 330.00" xmlns="http://www.w3.org/2000/svg" xmlns:xlink="http://www.w3.org/1999/xlink">
<g id="graph1" class="graph" transform="scale(1 1) rotate(0) translate(4 326)">
<title>G</title>
<polygon fill="white" stroke="white" points="-4,5 -4,-326 163,-326 163,5 -4,5"/>
<!-- q1 -->
<g id="node1" class="node"><title>q1</title>
<ellipse fill="none" stroke="black" cx="127" cy="-300" rx="27" ry="18"/>
<ellipse fill="none" stroke="black" cx="127" cy="-300" rx="31" ry="22"/>
<text text-anchor="middle" x="127" y="-295.9" font-family="Times Roman,serif" font-size="14.00">q1</text>
</g>
<!-- q0 -->
<g id="node3" class="node"><title>q0</title>
<ellipse fill="none" stroke="darkred" cx="41" cy="-202" rx="27" ry="18"/>
<ellipse fill="none" stroke="darkred" cx="41" cy="-202" rx="31" ry="22"/>
<text text-anchor="middle" x="41" y="-197.9" font-family="Times Roman,serif" font-size="14.00">q0</text>
</g>
<!-- q1&#45;&gt;q0 -->
<g id="edge2" class="edge"><title>q1&#45;&gt;q0</title>
<path fill="none" stroke="black" d="M110.418,-281.105C97.3312,-266.191 78.9136,-245.204 64.3375,-228.594"/>
<polygon fill="black" stroke="black" points="66.7574,-226.045 57.5308,-220.837 61.496,-230.662 66.7574,-226.045"/>
<text text-anchor="middle" x="95.5" y="-246.9" font-family="Times Roman,serif" font-size="14.00">b</text>
</g>
<!-- q4 -->
<g id="node5" class="node"><title>q4</title>
<ellipse fill="none" stroke="black" cx="108" cy="-18" rx="27" ry="18"/>
<text text-anchor="middle" x="108" y="-13.9" font-family="Times Roman,serif" font-size="14.00">q4</text>
</g>
<!-- q1&#45;&gt;q4 -->
<g id="edge4" class="edge"><title>q1&#45;&gt;q4</title>
<path fill="none" stroke="black" d="M125.509,-277.872C122.097,-227.234 113.724,-102.958 109.927,-46.6079"/>
<polygon fill="black" stroke="black" points="113.396,-46.0276 109.232,-36.2855 106.412,-46.4982 113.396,-46.0276"/>
<text text-anchor="middle" x="121.5" y="-148.9" font-family="Times Roman,serif" font-size="14.00">a</text>
</g>
<!-- q0&#45;&gt;q0 -->
<g id="edge16" class="edge"><title>q0&#45;&gt;q0</title>
<path fill="none" stroke="black" d="M69.6885,-210.965C80.7806,-211.363 90,-208.375 90,-202 90,-197.717 85.8382,-194.962 79.7429,-193.737"/>
<polygon fill="black" stroke="black" points="79.9079,-190.24 69.6885,-193.035 79.4205,-197.223 79.9079,-190.24"/>
<text text-anchor="middle" x="94.5" y="-197.9" font-family="Times Roman,serif" font-size="14.00">a</text>
</g>
<!-- q3 -->
<g id="node8" class="node"><title>q3</title>
<ellipse fill="none" stroke="black" cx="27" cy="-108" rx="27" ry="18"/>
<text text-anchor="middle" x="27" y="-103.9" font-family="Times Roman,serif" font-size="14.00">q3</text>
</g>
<!-- q0&#45;&gt;q3 -->
<g id="edge14" class="edge"><title>q0&#45;&gt;q3</title>
<path fill="none" stroke="black" d="M27.4839,-182.07C24.0205,-175.904 20.7745,-168.909 19,-162 16.8209,-153.516 17.2579,-144.12 18.7061,-135.576"/>
<polygon fill="black" stroke="black" points="22.1497,-136.212 20.8662,-125.695 15.3112,-134.717 22.1497,-136.212"/>
<text text-anchor="middle" x="23.5" y="-148.9" font-family="Times Roman,serif" font-size="14.00">b</text>
</g>
<!-- q4&#45;&gt;q1 -->
<g id="edge6" class="edge"><title>q4&#45;&gt;q1</title>
<path fill="none" stroke="black" d="M117.65,-35.0875C120.507,-40.9141 123.318,-47.5813 125,-54 146.22,-134.992 134.976,-158.299 137,-242 137.193,-249.998 137.977,-252.06 137,-260 136.667,-262.704 136.212,-265.488 135.679,-268.269"/>
<polygon fill="black" stroke="black" points="132.23,-267.655 133.482,-278.176 139.064,-269.171 132.23,-267.655"/>
<text text-anchor="middle" x="142.5" y="-148.9" font-family="Times Roman,serif" font-size="14.00">b</text>
</g>
<!-- q4&#45;&gt;q0 -->
<g id="edge8" class="edge"><title>q4&#45;&gt;q0</title>
<path fill="none" stroke="black" d="M101.624,-35.5099C90.3036,-66.599 66.5542,-131.821 52.3736,-170.765"/>
<polygon fill="black" stroke="black" points="48.9497,-169.939 48.8169,-180.533 55.5272,-172.334 48.9497,-169.939"/>
<text text-anchor="middle" x="85.5" y="-103.9" font-family="Times Roman,serif" font-size="14.00">a</text>
</g>
<!-- q3&#45;&gt;q0 -->
<g id="edge10" class="edge"><title>q3&#45;&gt;q0</title>
<path fill="none" stroke="black" d="M29.6846,-126.025C31.5176,-138.333 33.998,-154.987 36.1694,-169.566"/>
<polygon fill="black" stroke="black" points="32.7472,-170.348 37.6822,-179.723 39.6708,-169.317 32.7472,-170.348"/>
<text text-anchor="middle" x="38.5" y="-148.9" font-family="Times Roman,serif" font-size="14.00">b</text>
</g>
<!-- q3&#45;&gt;q4 -->
<g id="edge12" class="edge"><title>q3&#45;&gt;q4</title>
<path fill="none" stroke="black" d="M38.0449,-91.2242C45.638,-80.186 56.2555,-65.6755 67,-54 71.8269,-48.7549 77.3586,-43.4828 82.7638,-38.6528"/>
<polygon fill="black" stroke="black" points="85.2341,-41.1433 90.4956,-31.9472 80.6478,-35.855 85.2341,-41.1433"/>
<text text-anchor="middle" x="71.5" y="-58.9" font-family="Times Roman,serif" font-size="14.00">a</text>
</g>
</g>
</svg>
