<?xml version="1.0" encoding="UTF-8" standalone="no"?>
<!DOCTYPE svg PUBLIC "-//W3C//DTD SVG 1.1//EN"
 "http://www.w3.org/Graphics/SVG/1.1/DTD/svg11.dtd">
<!-- Generated by graphviz version 2.26.3 (20100126.1600)
 -->
<!-- Title: G Pages: 1 -->
<svg width="188pt" height="322pt"
 viewBox="0.00 0.00 188.00 322.00" xmlns="http://www.w3.org/2000/svg" xmlns:xlink="http://www.w3.org/1999/xlink">
<g id="graph1" class="graph" transform="scale(1 1) rotate(0) translate(4 318)">
<title>G</title>
<polygon fill="white" stroke="white" points="-4,5 -4,-318 185,-318 185,5 -4,5"/>
<!-- q2 -->
<g id="node1" class="node"><title>q2</title>
<ellipse fill="none" stroke="black" cx="27" cy="-296" rx="27" ry="18"/>
<text text-anchor="middle" x="27" y="-291.9" font-family="Times Roman,serif" font-size="14.00">q2</text>
</g>
<!-- q2&#45;&gt;q2 -->
<g id="edge2" class="edge"><title>q2&#45;&gt;q2</title>
<path fill="none" stroke="black" d="M51.5325,-304.121C62.5078,-304.895 72,-302.188 72,-296 72,-291.843 67.7151,-289.257 61.5743,-288.242"/>
<polygon fill="black" stroke="black" points="61.6524,-284.742 51.5325,-287.879 61.3995,-291.738 61.6524,-284.742"/>
<text text-anchor="middle" x="76.5" y="-291.9" font-family="Times Roman,serif" font-size="14.00">b</text>
</g>
<!-- q1 -->
<g id="node4" class="node"><title>q1</title>
<ellipse fill="none" stroke="black" cx="27" cy="-206" rx="27" ry="18"/>
<text text-anchor="middle" x="27" y="-201.9" font-family="Times Roman,serif" font-size="14.00">q1</text>
</g>
<!-- q2&#45;&gt;q1 -->
<g id="edge4" class="edge"><title>q2&#45;&gt;q1</title>
<path fill="none" stroke="black" d="M27,-277.787C27,-265.344 27,-248.605 27,-234.421"/>
<polygon fill="black" stroke="black" points="30.5001,-234.186 27,-224.186 23.5001,-234.186 30.5001,-234.186"/>
<text text-anchor="middle" x="31.5" y="-246.9" font-family="Times Roman,serif" font-size="14.00">a</text>
</g>
<!-- q1&#45;&gt;q1 -->
<g id="edge6" class="edge"><title>q1&#45;&gt;q1</title>
<path fill="none" stroke="black" d="M51.5325,-214.121C62.5078,-214.895 72,-212.188 72,-206 72,-201.843 67.7151,-199.257 61.5743,-198.242"/>
<polygon fill="black" stroke="black" points="61.6524,-194.742 51.5325,-197.879 61.3995,-201.738 61.6524,-194.742"/>
<text text-anchor="middle" x="76.5" y="-201.9" font-family="Times Roman,serif" font-size="14.00">b</text>
</g>
<!-- q4 -->
<g id="node7" class="node"><title>q4</title>
<ellipse fill="none" stroke="black" cx="59" cy="-116" rx="27" ry="18"/>
<text text-anchor="middle" x="59" y="-111.9" font-family="Times Roman,serif" font-size="14.00">q4</text>
</g>
<!-- q1&#45;&gt;q4 -->
<g id="edge8" class="edge"><title>q1&#45;&gt;q4</title>
<path fill="none" stroke="black" d="M24.3285,-187.909C23.4623,-177.135 23.6522,-163.388 28,-152 29.8644,-147.117 32.7056,-142.445 35.9256,-138.179"/>
<polygon fill="black" stroke="black" points="38.6191,-140.415 42.4275,-130.528 33.2849,-135.882 38.6191,-140.415"/>
<text text-anchor="middle" x="32.5" y="-156.9" font-family="Times Roman,serif" font-size="14.00">a</text>
</g>
<!-- q4&#45;&gt;q1 -->
<g id="edge12" class="edge"><title>q4&#45;&gt;q1</title>
<path fill="none" stroke="black" d="M52.691,-133.744C48.136,-146.555 41.8999,-164.094 36.7124,-178.684"/>
<polygon fill="black" stroke="black" points="33.3746,-177.624 33.3222,-188.219 39.9701,-179.969 33.3746,-177.624"/>
<text text-anchor="middle" x="49.5" y="-156.9" font-family="Times Roman,serif" font-size="14.00">a</text>
</g>
<!-- q0 -->
<g id="node9" class="node"><title>q0</title>
<ellipse fill="none" stroke="black" cx="59" cy="-22" rx="27" ry="18"/>
<ellipse fill="none" stroke="black" cx="59" cy="-22" rx="31" ry="22"/>
<text text-anchor="middle" x="59" y="-17.9" font-family="Times Roman,serif" font-size="14.00">q0</text>
</g>
<!-- q4&#45;&gt;q0 -->
<g id="edge10" class="edge"><title>q4&#45;&gt;q0</title>
<path fill="none" stroke="black" d="M42.3489,-101.502C36.6612,-95.4908 30.9852,-88.0416 28,-80 25.2159,-72.5001 25.4103,-69.5692 28,-62 29.6211,-57.2617 32.0572,-52.6505 34.865,-48.3445"/>
<polygon fill="black" stroke="black" points="37.9028,-50.1214 41.0082,-39.9919 32.2637,-45.9739 37.9028,-50.1214"/>
<text text-anchor="middle" x="32.5" y="-66.9" font-family="Times Roman,serif" font-size="14.00">b</text>
</g>
<!-- q0&#45;&gt;q4 -->
<g id="edge18" class="edge"><title>q0&#45;&gt;q4</title>
<path fill="none" stroke="black" d="M59,-44.0388C59,-57.0958 59,-73.7734 59,-87.785"/>
<polygon fill="black" stroke="black" points="55.5001,-87.8758 59,-97.8759 62.5001,-87.8759 55.5001,-87.8758"/>
<text text-anchor="middle" x="63.5" y="-66.9" font-family="Times Roman,serif" font-size="14.00">b</text>
</g>
<!-- q0&#45;&gt;q4 -->
<g id="edge20" class="edge"><title>q0&#45;&gt;q4</title>
<path fill="none" stroke="black" d="M65.9375,-43.7022C68.5969,-54.5722 70.6422,-67.952 69,-80 68.6268,-82.7376 68.101,-85.5608 67.4837,-88.3653"/>
<polygon fill="black" stroke="black" points="64.0414,-87.6996 64.956,-98.2549 70.8234,-89.4331 64.0414,-87.6996"/>
<text text-anchor="middle" x="73.5" y="-66.9" font-family="Times Roman,serif" font-size="14.00">a</text>
</g>
<!-- q3 -->
<g id="node11" class="node"><title>q3</title>
<ellipse fill="none" stroke="black" cx="126" cy="-206" rx="27" ry="18"/>
<text text-anchor="middle" x="126" y="-201.9" font-family="Times Roman,serif" font-size="14.00">q3</text>
</g>
<!-- q3&#45;&gt;q4 -->
<g id="edge16" class="edge"><title>q3&#45;&gt;q4</title>
<path fill="none" stroke="black" d="M113.711,-189.493C103.511,-175.791 88.8542,-156.103 77.2776,-140.552"/>
<polygon fill="black" stroke="black" points="79.9899,-138.334 71.2109,-132.403 74.3749,-142.514 79.9899,-138.334"/>
<text text-anchor="middle" x="102.5" y="-156.9" font-family="Times Roman,serif" font-size="14.00">a</text>
</g>
<!-- q3&#45;&gt;q3 -->
<g id="edge14" class="edge"><title>q3&#45;&gt;q3</title>
<path fill="none" stroke="black" d="M150.532,-214.121C161.508,-214.895 171,-212.188 171,-206 171,-201.843 166.715,-199.257 160.574,-198.242"/>
<polygon fill="black" stroke="black" points="160.652,-194.742 150.532,-197.879 160.4,-201.738 160.652,-194.742"/>
<text text-anchor="middle" x="175.5" y="-201.9" font-family="Times Roman,serif" font-size="14.00">b</text>
</g>
</g>
</svg>
