<?xml version="1.0" encoding="UTF-8" standalone="no"?>
<!DOCTYPE svg PUBLIC "-//W3C//DTD SVG 1.1//EN"
 "http://www.w3.org/Graphics/SVG/1.1/DTD/svg11.dtd">
<!-- Generated by graphviz version 2.26.3 (20100126.1600)
 -->
<!-- Title: G Pages: 1 -->
<svg width="326pt" height="514pt"
 viewBox="0.00 0.00 326.00 514.00" xmlns="http://www.w3.org/2000/svg" xmlns:xlink="http://www.w3.org/1999/xlink">
<g id="graph1" class="graph" transform="scale(1 1) rotate(0) translate(4 510)">
<title>G</title>
<polygon fill="white" stroke="white" points="-4,5 -4,-510 323,-510 323,5 -4,5"/>
<!-- q0 -->
<g id="node1" class="node"><title>q0</title>
<ellipse fill="none" stroke="black" cx="143" cy="-303" rx="27" ry="18.3848"/>
<text text-anchor="middle" x="143" y="-299.4" font-family="Times Roman,serif" font-size="14.00">q0</text>
</g>
<!-- q0&#45;&gt;q0 -->
<g id="edge4" class="edge"><title>q0&#45;&gt;q0</title>
<path fill="none" stroke="black" d="M167.074,-311.454C178.242,-312.377 188,-309.559 188,-303 188,-298.593 183.595,-295.875 177.317,-294.846"/>
<polygon fill="black" stroke="black" points="177.173,-291.34 167.074,-294.546 176.967,-298.337 177.173,-291.34"/>
<text text-anchor="middle" x="192.5" y="-299.4" font-family="Times Roman,serif" font-size="14.00">a</text>
</g>
<!-- q3 -->
<g id="node3" class="node"><title>q3</title>
<ellipse fill="none" stroke="black" cx="163" cy="-211" rx="27" ry="18.3848"/>
<text text-anchor="middle" x="163" y="-207.4" font-family="Times Roman,serif" font-size="14.00">q3</text>
</g>
<!-- q0&#45;&gt;q3 -->
<g id="edge2" class="edge"><title>q0&#45;&gt;q3</title>
<path fill="none" stroke="black" d="M147.047,-284.382C149.839,-271.538 153.605,-254.216 156.777,-239.627"/>
<polygon fill="black" stroke="black" points="160.254,-240.105 158.959,-229.59 153.414,-238.618 160.254,-240.105"/>
<text text-anchor="middle" x="158.5" y="-253.4" font-family="Times Roman,serif" font-size="14.00">b</text>
</g>
<!-- q2 -->
<g id="node5" class="node"><title>q2</title>
<ellipse fill="none" stroke="black" cx="27" cy="-119" rx="27" ry="18.3848"/>
<text text-anchor="middle" x="27" y="-115.4" font-family="Times Roman,serif" font-size="14.00">q2</text>
</g>
<!-- q3&#45;&gt;q2 -->
<g id="edge12" class="edge"><title>q3&#45;&gt;q2</title>
<path fill="none" stroke="black" d="M136.934,-205.287C116.387,-199.819 87.8239,-189.993 67,-174 56.8607,-166.213 48.1425,-155.173 41.4571,-145.026"/>
<polygon fill="black" stroke="black" points="44.373,-143.087 36.1208,-136.442 38.4282,-146.783 44.373,-143.087"/>
<text text-anchor="middle" x="71.5" y="-161.4" font-family="Times Roman,serif" font-size="14.00">a</text>
</g>
<!-- q10 -->
<g id="node9" class="node"><title>q10</title>
<ellipse fill="none" stroke="black" cx="204" cy="-23" rx="29.9071" ry="18.3848"/>
<text text-anchor="middle" x="204" y="-19.4" font-family="Times Roman,serif" font-size="14.00">q10</text>
</g>
<!-- q3&#45;&gt;q10 -->
<g id="edge10" class="edge"><title>q3&#45;&gt;q10</title>
<path fill="none" stroke="black" d="M157.406,-192.722C151.448,-170.551 143.79,-132.153 151,-100 155.542,-79.7467 168.774,-60.5112 180.88,-46.3317"/>
<polygon fill="black" stroke="black" points="183.741,-48.3831 187.803,-38.5979 178.526,-43.7141 183.741,-48.3831"/>
<text text-anchor="middle" x="155.5" y="-115.4" font-family="Times Roman,serif" font-size="14.00">b</text>
</g>
<!-- q4 -->
<g id="node7" class="node"><title>q4</title>
<ellipse fill="none" stroke="black" cx="59" cy="-23" rx="27" ry="18.3848"/>
<ellipse fill="none" stroke="black" cx="59" cy="-23" rx="31" ry="22.3848"/>
<text text-anchor="middle" x="59" y="-19.4" font-family="Times Roman,serif" font-size="14.00">q4</text>
</g>
<!-- q2&#45;&gt;q4 -->
<g id="edge6" class="edge"><title>q2&#45;&gt;q4</title>
<path fill="none" stroke="black" d="M24.5227,-100.419C23.7529,-89.5185 23.9754,-75.6438 28,-64 29.7054,-59.0661 32.2501,-54.2461 35.1616,-49.7456"/>
<polygon fill="black" stroke="black" points="38.071,-51.6952 41.0882,-41.539 32.3961,-47.5969 38.071,-51.6952"/>
<text text-anchor="middle" x="32.5" y="-69.4" font-family="Times Roman,serif" font-size="14.00">b</text>
</g>
<!-- q2&#45;&gt;q10 -->
<g id="edge8" class="edge"><title>q2&#45;&gt;q10</title>
<path fill="none" stroke="black" d="M47.052,-106.511C65.7086,-95.042 94.4022,-77.7878 120,-64 136.446,-55.1418 155.085,-45.9602 170.621,-38.5371"/>
<polygon fill="black" stroke="black" points="172.31,-41.6094 179.845,-34.161 169.31,-35.285 172.31,-41.6094"/>
<text text-anchor="middle" x="125.5" y="-69.4" font-family="Times Roman,serif" font-size="14.00">a</text>
</g>
<!-- q4&#45;&gt;q3 -->
<g id="edge14" class="edge"><title>q4&#45;&gt;q3</title>
<path fill="none" stroke="black" d="M70.6149,-43.9961C89.7057,-78.5065 127.673,-147.14 148.499,-184.786"/>
<polygon fill="black" stroke="black" points="145.499,-186.594 153.402,-193.65 151.624,-183.206 145.499,-186.594"/>
<text text-anchor="middle" x="126.5" y="-115.4" font-family="Times Roman,serif" font-size="14.00">b</text>
</g>
<!-- q4&#45;&gt;q2 -->
<g id="edge16" class="edge"><title>q4&#45;&gt;q2</title>
<path fill="none" stroke="black" d="M51.6598,-45.0206C47.0715,-58.7856 41.1233,-76.6302 36.2184,-91.3448"/>
<polygon fill="black" stroke="black" points="32.8609,-90.3495 33.019,-100.943 39.5017,-92.5631 32.8609,-90.3495"/>
<text text-anchor="middle" x="49.5" y="-69.4" font-family="Times Roman,serif" font-size="14.00">a</text>
</g>
<!-- q10&#45;&gt;q3 -->
<g id="edge30" class="edge"><title>q10&#45;&gt;q3</title>
<path fill="none" stroke="black" d="M199.978,-41.4431C192.801,-74.3503 177.745,-143.389 169.224,-182.461"/>
<polygon fill="black" stroke="black" points="165.717,-182.115 167.006,-192.631 172.556,-183.607 165.717,-182.115"/>
<text text-anchor="middle" x="190.5" y="-115.4" font-family="Times Roman,serif" font-size="14.00">b</text>
</g>
<!-- q10&#45;&gt;q3 -->
<g id="edge32" class="edge"><title>q10&#45;&gt;q3</title>
<path fill="none" stroke="black" d="M205.662,-41.7622C206.204,-48.7384 206.734,-56.725 207,-64 208.814,-113.657 208.55,-129.226 187,-174 185.132,-177.881 182.926,-181.842 180.621,-185.662"/>
<polygon fill="black" stroke="black" points="177.596,-183.897 175.175,-194.212 183.5,-187.658 177.596,-183.897"/>
<text text-anchor="middle" x="211.5" y="-115.4" font-family="Times Roman,serif" font-size="14.00">a</text>
</g>
<!-- q10&#45;&gt;q3 -->
<g id="edge34" class="edge"><title>q10&#45;&gt;q3</title>
<path fill="none" stroke="black" d="M213.208,-40.8856C216.336,-47.9001 219.435,-56.1404 221,-64 227.423,-96.2587 226.738,-105.806 220,-138 216.449,-154.966 215.095,-159.91 205,-174 200.741,-179.944 195.357,-185.591 189.877,-190.601"/>
<polygon fill="black" stroke="black" points="187.209,-188.279 181.9,-197.447 191.768,-193.591 187.209,-188.279"/>
<text text-anchor="middle" x="229.5" y="-115.4" font-family="Times Roman,serif" font-size="14.00">b</text>
</g>
<!-- q10&#45;&gt;q10 -->
<g id="edge36" class="edge"><title>q10&#45;&gt;q10</title>
<path fill="none" stroke="black" d="M230.168,-32.2285C241.875,-33.1074 252,-30.0312 252,-23 252,-18.166 247.214,-15.2014 240.419,-14.1062"/>
<polygon fill="black" stroke="black" points="240.277,-10.5998 230.168,-13.7715 240.048,-17.5961 240.277,-10.5998"/>
<text text-anchor="middle" x="256.5" y="-19.4" font-family="Times Roman,serif" font-size="14.00">a</text>
</g>
<!-- q5 -->
<g id="node14" class="node"><title>q5</title>
<ellipse fill="none" stroke="black" cx="259" cy="-487" rx="27" ry="18.3848"/>
<text text-anchor="middle" x="259" y="-483.4" font-family="Times Roman,serif" font-size="14.00">q5</text>
</g>
<!-- q5&#45;&gt;q10 -->
<g id="edge20" class="edge"><title>q5&#45;&gt;q10</title>
<path fill="none" stroke="black" d="M273.731,-471.446C288.48,-454.185 309,-424.813 309,-395 309,-395 309,-395 309,-119 309,-80.0515 269.161,-52.6611 238.563,-37.3677"/>
<polygon fill="black" stroke="black" points="239.951,-34.1521 229.418,-33.0104 236.94,-40.4714 239.951,-34.1521"/>
<text text-anchor="middle" x="313.5" y="-253.4" font-family="Times Roman,serif" font-size="14.00">a</text>
</g>
<!-- q8 -->
<g id="node16" class="node"><title>q8</title>
<ellipse fill="none" stroke="black" cx="209" cy="-395" rx="27" ry="18.3848"/>
<text text-anchor="middle" x="209" y="-391.4" font-family="Times Roman,serif" font-size="14.00">q8</text>
</g>
<!-- q5&#45;&gt;q8 -->
<g id="edge18" class="edge"><title>q5&#45;&gt;q8</title>
<path fill="none" stroke="black" d="M238.349,-474.743C229.667,-468.474 220.356,-460.039 215,-450 210.743,-442.021 208.805,-432.471 208.057,-423.585"/>
<polygon fill="black" stroke="black" points="211.555,-423.445 207.658,-413.593 204.56,-423.725 211.555,-423.445"/>
<text text-anchor="middle" x="219.5" y="-437.4" font-family="Times Roman,serif" font-size="14.00">b</text>
</g>
<!-- q8&#45;&gt;q5 -->
<g id="edge22" class="edge"><title>q8&#45;&gt;q5</title>
<path fill="none" stroke="black" d="M218.441,-412.372C225.767,-425.852 236.052,-444.776 244.432,-460.194"/>
<polygon fill="black" stroke="black" points="241.509,-462.147 249.359,-469.261 247.66,-458.804 241.509,-462.147"/>
<text text-anchor="middle" x="242.5" y="-437.4" font-family="Times Roman,serif" font-size="14.00">b</text>
</g>
<!-- q9 -->
<g id="node20" class="node"><title>q9</title>
<ellipse fill="none" stroke="black" cx="242" cy="-303" rx="27" ry="18.3848"/>
<text text-anchor="middle" x="242" y="-299.4" font-family="Times Roman,serif" font-size="14.00">q9</text>
</g>
<!-- q8&#45;&gt;q9 -->
<g id="edge24" class="edge"><title>q8&#45;&gt;q9</title>
<path fill="none" stroke="black" d="M215.52,-376.824C220.22,-363.719 226.652,-345.789 231.999,-330.88"/>
<polygon fill="black" stroke="black" points="235.412,-331.733 235.494,-321.138 228.823,-329.37 235.412,-331.733"/>
<text text-anchor="middle" x="232.5" y="-345.4" font-family="Times Roman,serif" font-size="14.00">a</text>
</g>
<!-- q9&#45;&gt;q3 -->
<g id="edge26" class="edge"><title>q9&#45;&gt;q3</title>
<path fill="none" stroke="black" d="M228.239,-286.975C215.854,-272.552 197.49,-251.166 183.398,-234.755"/>
<polygon fill="black" stroke="black" points="186.038,-232.457 176.868,-227.15 180.727,-237.017 186.038,-232.457"/>
<text text-anchor="middle" x="213.5" y="-253.4" font-family="Times Roman,serif" font-size="14.00">b</text>
</g>
<!-- q9&#45;&gt;q5 -->
<g id="edge28" class="edge"><title>q9&#45;&gt;q5</title>
<path fill="none" stroke="black" d="M243.728,-321.705C246.697,-353.837 252.786,-419.739 256.312,-457.91"/>
<polygon fill="black" stroke="black" points="252.871,-458.709 257.276,-468.345 259.841,-458.065 252.871,-458.709"/>
<text text-anchor="middle" x="256.5" y="-391.4" font-family="Times Roman,serif" font-size="14.00">a</text>
</g>
</g>
</svg>
