<?xml version="1.0" encoding="UTF-8" standalone="no"?>
<!DOCTYPE svg PUBLIC "-//W3C//DTD SVG 1.1//EN"
 "http://www.w3.org/Graphics/SVG/1.1/DTD/svg11.dtd">
<!-- Generated by graphviz version 2.26.3 (20100126.1600)
 -->
<!-- Title: G Pages: 1 -->
<svg width="185pt" height="514pt"
 viewBox="0.00 0.00 185.00 514.00" xmlns="http://www.w3.org/2000/svg" xmlns:xlink="http://www.w3.org/1999/xlink">
<g id="graph1" class="graph" transform="scale(1 1) rotate(0) translate(4 510)">
<title>G</title>
<polygon fill="white" stroke="white" points="-4,5 -4,-510 182,-510 182,5 -4,5"/>
<!-- q0 -->
<g id="node1" class="node"><title>q0</title>
<ellipse fill="none" stroke="black" cx="66" cy="-487" rx="27" ry="18.3848"/>
<text text-anchor="middle" x="66" y="-483.4" font-family="Times Roman,serif" font-size="14.00">q0</text>
</g>
<!-- q0&#45;&gt;q0 -->
<g id="edge2" class="edge"><title>q0&#45;&gt;q0</title>
<path fill="none" stroke="black" d="M90.0743,-495.454C101.242,-496.377 111,-493.559 111,-487 111,-482.593 106.595,-479.875 100.317,-478.846"/>
<polygon fill="black" stroke="black" points="100.173,-475.34 90.0743,-478.546 99.9674,-482.337 100.173,-475.34"/>
<text text-anchor="middle" x="115.5" y="-483.4" font-family="Times Roman,serif" font-size="14.00">b</text>
</g>
<!-- q6 -->
<g id="node4" class="node"><title>q6</title>
<ellipse fill="none" stroke="black" cx="66" cy="-395" rx="27" ry="18.3848"/>
<text text-anchor="middle" x="66" y="-391.4" font-family="Times Roman,serif" font-size="14.00">q6</text>
</g>
<!-- q0&#45;&gt;q6 -->
<g id="edge4" class="edge"><title>q0&#45;&gt;q6</title>
<path fill="none" stroke="black" d="M66,-468.382C66,-455.538 66,-438.216 66,-423.627"/>
<polygon fill="black" stroke="black" points="69.5001,-423.59 66,-413.59 62.5001,-423.59 69.5001,-423.59"/>
<text text-anchor="middle" x="70.5" y="-437.4" font-family="Times Roman,serif" font-size="14.00">a</text>
</g>
<!-- q6&#45;&gt;q6 -->
<g id="edge14" class="edge"><title>q6&#45;&gt;q6</title>
<path fill="none" stroke="black" d="M90.0743,-403.454C101.242,-404.377 111,-401.559 111,-395 111,-390.593 106.595,-387.875 100.317,-386.846"/>
<polygon fill="black" stroke="black" points="100.173,-383.34 90.0743,-386.546 99.9674,-390.337 100.173,-383.34"/>
<text text-anchor="middle" x="115.5" y="-391.4" font-family="Times Roman,serif" font-size="14.00">b</text>
</g>
<!-- q7 -->
<g id="node7" class="node"><title>q7</title>
<ellipse fill="none" stroke="black" cx="66" cy="-303" rx="27" ry="18.3848"/>
<text text-anchor="middle" x="66" y="-299.4" font-family="Times Roman,serif" font-size="14.00">q7</text>
</g>
<!-- q6&#45;&gt;q7 -->
<g id="edge16" class="edge"><title>q6&#45;&gt;q7</title>
<path fill="none" stroke="black" d="M66,-376.382C66,-363.538 66,-346.216 66,-331.627"/>
<polygon fill="black" stroke="black" points="69.5001,-331.59 66,-321.59 62.5001,-331.59 69.5001,-331.59"/>
<text text-anchor="middle" x="70.5" y="-345.4" font-family="Times Roman,serif" font-size="14.00">a</text>
</g>
<!-- q2 -->
<g id="node5" class="node"><title>q2</title>
<ellipse fill="none" stroke="black" cx="93" cy="-211" rx="27" ry="18.3848"/>
<text text-anchor="middle" x="93" y="-207.4" font-family="Times Roman,serif" font-size="14.00">q2</text>
</g>
<!-- q2&#45;&gt;q7 -->
<g id="edge6" class="edge"><title>q2&#45;&gt;q7</title>
<path fill="none" stroke="black" d="M81.4188,-228.014C77.8239,-234.076 74.225,-241.112 72,-248 69.3132,-256.318 67.7784,-265.672 66.9161,-274.274"/>
<polygon fill="black" stroke="black" points="63.4239,-274.041 66.1656,-284.275 70.4042,-274.565 63.4239,-274.041"/>
<text text-anchor="middle" x="76.5" y="-253.4" font-family="Times Roman,serif" font-size="14.00">b</text>
</g>
<!-- q4 -->
<g id="node9" class="node"><title>q4</title>
<ellipse fill="none" stroke="black" cx="93" cy="-119" rx="27" ry="18.3848"/>
<text text-anchor="middle" x="93" y="-115.4" font-family="Times Roman,serif" font-size="14.00">q4</text>
</g>
<!-- q2&#45;&gt;q4 -->
<g id="edge8" class="edge"><title>q2&#45;&gt;q4</title>
<path fill="none" stroke="black" d="M93,-192.382C93,-179.538 93,-162.216 93,-147.627"/>
<polygon fill="black" stroke="black" points="96.5001,-147.59 93,-137.59 89.5001,-147.59 96.5001,-147.59"/>
<text text-anchor="middle" x="97.5" y="-161.4" font-family="Times Roman,serif" font-size="14.00">a</text>
</g>
<!-- q7&#45;&gt;q2 -->
<g id="edge18" class="edge"><title>q7&#45;&gt;q2</title>
<path fill="none" stroke="black" d="M73.9496,-285.157C76.4327,-279.149 79.0336,-272.357 81,-266 83.6281,-257.504 85.9041,-248.098 87.7462,-239.503"/>
<polygon fill="black" stroke="black" points="91.2099,-240.034 89.7725,-229.537 84.3502,-238.639 91.2099,-240.034"/>
<text text-anchor="middle" x="89.5" y="-253.4" font-family="Times Roman,serif" font-size="14.00">b</text>
</g>
<!-- q7&#45;&gt;q7 -->
<g id="edge20" class="edge"><title>q7&#45;&gt;q7</title>
<path fill="none" stroke="black" d="M90.0743,-311.454C101.242,-312.377 111,-309.559 111,-303 111,-298.593 106.595,-295.875 100.317,-294.846"/>
<polygon fill="black" stroke="black" points="100.173,-291.34 90.0743,-294.546 99.9674,-298.337 100.173,-291.34"/>
<text text-anchor="middle" x="115.5" y="-299.4" font-family="Times Roman,serif" font-size="14.00">a</text>
</g>
<!-- q8 -->
<g id="node11" class="node"><title>q8</title>
<ellipse fill="none" stroke="black" cx="119" cy="-23" rx="27" ry="18.3848"/>
<ellipse fill="none" stroke="black" cx="119" cy="-23" rx="31" ry="22.3848"/>
<text text-anchor="middle" x="119" y="-19.4" font-family="Times Roman,serif" font-size="14.00">q8</text>
</g>
<!-- q4&#45;&gt;q8 -->
<g id="edge10" class="edge"><title>q4&#45;&gt;q8</title>
<path fill="none" stroke="black" d="M98.0131,-100.49C101.49,-87.6521 106.212,-70.2188 110.296,-55.1387"/>
<polygon fill="black" stroke="black" points="113.762,-55.7272 112.998,-45.16 107.006,-53.8972 113.762,-55.7272"/>
<text text-anchor="middle" x="111.5" y="-69.4" font-family="Times Roman,serif" font-size="14.00">b</text>
</g>
<!-- q9 -->
<g id="node13" class="node"><title>q9</title>
<ellipse fill="none" stroke="black" cx="38" cy="-23" rx="27" ry="18.3848"/>
<text text-anchor="middle" x="38" y="-19.4" font-family="Times Roman,serif" font-size="14.00">q9</text>
</g>
<!-- q4&#45;&gt;q9 -->
<g id="edge12" class="edge"><title>q4&#45;&gt;q9</title>
<path fill="none" stroke="black" d="M82.9122,-101.392C74.539,-86.7771 62.5072,-65.7762 53.004,-49.1888"/>
<polygon fill="black" stroke="black" points="56.032,-47.4332 48.0239,-40.4963 49.9582,-50.913 56.032,-47.4332"/>
<text text-anchor="middle" x="74.5" y="-69.4" font-family="Times Roman,serif" font-size="14.00">a</text>
</g>
<!-- q8&#45;&gt;q0 -->
<g id="edge24" class="edge"><title>q8&#45;&gt;q0</title>
<path fill="none" stroke="black" d="M129.47,-44.5554C137.776,-63.6543 148,-92.536 148,-119 148,-395 148,-395 148,-395 148,-427.442 119.233,-453.729 95.776,-469.77"/>
<polygon fill="black" stroke="black" points="93.5875,-467.019 87.117,-475.408 97.407,-472.885 93.5875,-467.019"/>
<text text-anchor="middle" x="152.5" y="-253.4" font-family="Times Roman,serif" font-size="14.00">a</text>
</g>
<!-- q8&#45;&gt;q8 -->
<g id="edge22" class="edge"><title>q8&#45;&gt;q8</title>
<path fill="none" stroke="black" d="M147.689,-32.3384C158.781,-32.7534 168,-29.6406 168,-23 168,-18.5383 163.838,-15.6692 157.743,-14.3925"/>
<polygon fill="black" stroke="black" points="157.916,-10.896 147.689,-13.6616 157.408,-17.8776 157.916,-10.896"/>
<text text-anchor="middle" x="172.5" y="-19.4" font-family="Times Roman,serif" font-size="14.00">b</text>
</g>
<!-- q9&#45;&gt;q0 -->
<g id="edge26" class="edge"><title>q9&#45;&gt;q0</title>
<path fill="none" stroke="black" d="M26.8043,-39.8941C15.5952,-58.4726 0,-89.6032 0,-119 0,-395 0,-395 0,-395 0,-423.724 21.5037,-449.632 39.9624,-466.579"/>
<polygon fill="black" stroke="black" points="37.7849,-469.325 47.6153,-473.276 42.3947,-464.057 37.7849,-469.325"/>
<text text-anchor="middle" x="4.5" y="-253.4" font-family="Times Roman,serif" font-size="14.00">b</text>
</g>
<!-- q9&#45;&gt;q7 -->
<g id="edge28" class="edge"><title>q9&#45;&gt;q7</title>
<path fill="none" stroke="black" d="M39.5097,-41.5747C42.5,-77.8341 49.5354,-160.569 57,-230 58.5725,-244.627 60.5523,-260.872 62.2544,-274.318"/>
<polygon fill="black" stroke="black" points="58.8056,-274.941 63.5468,-284.416 65.7489,-274.052 58.8056,-274.941"/>
<text text-anchor="middle" x="55.5" y="-161.4" font-family="Times Roman,serif" font-size="14.00">a</text>
</g>
</g>
</svg>
