<?xml version="1.0" encoding="UTF-8" standalone="no"?>
<!DOCTYPE svg PUBLIC "-//W3C//DTD SVG 1.1//EN"
 "http://www.w3.org/Graphics/SVG/1.1/DTD/svg11.dtd">
<!-- Generated by graphviz version 2.26.3 (20100126.1600)
 -->
<!-- Title: G Pages: 1 -->
<svg width="351pt" height="414pt"
 viewBox="0.00 0.00 351.00 414.00" xmlns="http://www.w3.org/2000/svg" xmlns:xlink="http://www.w3.org/1999/xlink">
<g id="graph1" class="graph" transform="scale(1 1) rotate(0) translate(4 410)">
<title>G</title>
<polygon fill="white" stroke="white" points="-4,5 -4,-410 348,-410 348,5 -4,5"/>
<!-- q6 -->
<g id="node1" class="node"><title>q6</title>
<ellipse fill="none" stroke="black" cx="207" cy="-203" rx="27" ry="18.3848"/>
<text text-anchor="middle" x="207" y="-199.4" font-family="Times Roman,serif" font-size="14.00">q6</text>
</g>
<!-- q4 -->
<g id="node3" class="node"><title>q4</title>
<ellipse fill="none" stroke="black" cx="162" cy="-19" rx="27" ry="18.3848"/>
<text text-anchor="middle" x="162" y="-15.4" font-family="Times Roman,serif" font-size="14.00">q4</text>
</g>
<!-- q6&#45;&gt;q4 -->
<g id="edge2" class="edge"><title>q6&#45;&gt;q4</title>
<path fill="none" stroke="black" d="M203.992,-184.208C199.268,-156.032 189.263,-101.307 176,-56 175.074,-52.8361 174.003,-49.5579 172.874,-46.3195"/>
<polygon fill="black" stroke="black" points="176.137,-45.0538 169.4,-36.8776 169.568,-47.4711 176.137,-45.0538"/>
<text text-anchor="middle" x="197.5" y="-107.4" font-family="Times Roman,serif" font-size="14.00">b</text>
</g>
<!-- q1 -->
<g id="node5" class="node"><title>q1</title>
<ellipse fill="none" stroke="black" cx="279" cy="-19" rx="27" ry="18.3848"/>
<text text-anchor="middle" x="279" y="-15.4" font-family="Times Roman,serif" font-size="14.00">q1</text>
</g>
<!-- q6&#45;&gt;q1 -->
<g id="edge4" class="edge"><title>q6&#45;&gt;q1</title>
<path fill="none" stroke="black" d="M214.035,-185.022C226.67,-152.731 253.281,-84.7252 268.228,-46.5295"/>
<polygon fill="black" stroke="black" points="271.552,-47.6385 271.937,-37.0507 265.033,-45.0877 271.552,-47.6385"/>
<text text-anchor="middle" x="254.5" y="-107.4" font-family="Times Roman,serif" font-size="14.00">a</text>
</g>
<!-- q4&#45;&gt;q6 -->
<g id="edge22" class="edge"><title>q4&#45;&gt;q6</title>
<path fill="none" stroke="black" d="M161.675,-37.822C161.747,-60.1961 163.326,-98.4717 172,-130 176.44,-146.139 184.324,-163.061 191.486,-176.544"/>
<polygon fill="black" stroke="black" points="188.631,-178.616 196.514,-185.694 194.765,-175.244 188.631,-178.616"/>
<text text-anchor="middle" x="176.5" y="-107.4" font-family="Times Roman,serif" font-size="14.00">b</text>
</g>
<!-- q4&#45;&gt;q4 -->
<g id="edge24" class="edge"><title>q4&#45;&gt;q4</title>
<path fill="none" stroke="black" d="M186.074,-27.4544C197.242,-28.3767 207,-25.5586 207,-19 207,-14.5934 202.595,-11.8754 196.317,-10.8458"/>
<polygon fill="black" stroke="black" points="196.173,-7.34018 186.074,-10.5456 195.967,-14.3372 196.173,-7.34018"/>
<text text-anchor="middle" x="211.5" y="-15.4" font-family="Times Roman,serif" font-size="14.00">a</text>
</g>
<!-- q1&#45;&gt;q6 -->
<g id="edge18" class="edge"><title>q1&#45;&gt;q6</title>
<path fill="none" stroke="black" d="M279.253,-37.8823C278.901,-60.6475 276.164,-99.6316 263,-130 254.928,-148.622 241.073,-166.742 229.164,-180.271"/>
<polygon fill="black" stroke="black" points="226.571,-177.92 222.436,-187.675 231.752,-182.628 226.571,-177.92"/>
<text text-anchor="middle" x="278.5" y="-107.4" font-family="Times Roman,serif" font-size="14.00">b</text>
</g>
<!-- q1&#45;&gt;q1 -->
<g id="edge20" class="edge"><title>q1&#45;&gt;q1</title>
<path fill="none" stroke="black" d="M303.074,-27.4544C314.242,-28.3767 324,-25.5586 324,-19 324,-14.5934 319.595,-11.8754 313.317,-10.8458"/>
<polygon fill="black" stroke="black" points="313.173,-7.34018 303.074,-10.5456 312.967,-14.3372 313.173,-7.34018"/>
<text text-anchor="middle" x="328.5" y="-15.4" font-family="Times Roman,serif" font-size="14.00">a</text>
</g>
<!-- q5 -->
<g id="node6" class="node"><title>q5</title>
<ellipse fill="none" stroke="black" cx="27" cy="-111" rx="27" ry="18.3848"/>
<text text-anchor="middle" x="27" y="-107.4" font-family="Times Roman,serif" font-size="14.00">q5</text>
</g>
<!-- q3 -->
<g id="node8" class="node"><title>q3</title>
<ellipse fill="none" stroke="black" cx="96" cy="-203" rx="27" ry="18.3848"/>
<text text-anchor="middle" x="96" y="-199.4" font-family="Times Roman,serif" font-size="14.00">q3</text>
</g>
<!-- q5&#45;&gt;q3 -->
<g id="edge6" class="edge"><title>q5&#45;&gt;q3</title>
<path fill="none" stroke="black" d="M40.9125,-126.945C46.377,-133.376 52.6171,-140.934 58,-148 65.1418,-157.375 72.5968,-167.967 78.9929,-177.334"/>
<polygon fill="black" stroke="black" points="76.2564,-179.536 84.756,-185.861 82.056,-175.616 76.2564,-179.536"/>
<text text-anchor="middle" x="76.5" y="-153.4" font-family="Times Roman,serif" font-size="14.00">b</text>
</g>
<!-- q7 -->
<g id="node10" class="node"><title>q7</title>
<ellipse fill="none" stroke="black" cx="151" cy="-295" rx="27" ry="18.3848"/>
<text text-anchor="middle" x="151" y="-291.4" font-family="Times Roman,serif" font-size="14.00">q7</text>
</g>
<!-- q5&#45;&gt;q7 -->
<g id="edge8" class="edge"><title>q5&#45;&gt;q7</title>
<path fill="none" stroke="black" d="M26.8505,-129.566C27.5336,-153.066 31.7135,-193.867 51,-222 68.3053,-247.243 97.2947,-266.988 119.618,-279.543"/>
<polygon fill="black" stroke="black" points="117.959,-282.624 128.417,-284.318 121.298,-276.472 117.959,-282.624"/>
<text text-anchor="middle" x="55.5" y="-199.4" font-family="Times Roman,serif" font-size="14.00">a</text>
</g>
<!-- q3&#45;&gt;q5 -->
<g id="edge28" class="edge"><title>q3&#45;&gt;q5</title>
<path fill="none" stroke="black" d="M75.6786,-190.561C66.5418,-184.148 56.2152,-175.647 49,-166 42.9836,-157.956 38.3557,-148.044 34.9325,-138.861"/>
<polygon fill="black" stroke="black" points="38.2158,-137.644 31.6821,-129.304 31.5886,-139.898 38.2158,-137.644"/>
<text text-anchor="middle" x="53.5" y="-153.4" font-family="Times Roman,serif" font-size="14.00">a</text>
</g>
<!-- q0 -->
<g id="node21" class="node"><title>q0</title>
<ellipse fill="none" stroke="black" cx="99" cy="-111" rx="27" ry="18.3848"/>
<text text-anchor="middle" x="99" y="-107.4" font-family="Times Roman,serif" font-size="14.00">q0</text>
</g>
<!-- q3&#45;&gt;q0 -->
<g id="edge26" class="edge"><title>q3&#45;&gt;q0</title>
<path fill="none" stroke="black" d="M96.6071,-184.382C97.0259,-171.538 97.5908,-154.216 98.0665,-139.627"/>
<polygon fill="black" stroke="black" points="101.566,-139.699 98.3938,-129.59 94.5697,-139.47 101.566,-139.699"/>
<text text-anchor="middle" x="102.5" y="-153.4" font-family="Times Roman,serif" font-size="14.00">b</text>
</g>
<!-- q7&#45;&gt;q6 -->
<g id="edge12" class="edge"><title>q7&#45;&gt;q6</title>
<path fill="none" stroke="black" d="M161.533,-277.696C169.903,-263.946 181.738,-244.501 191.236,-228.898"/>
<polygon fill="black" stroke="black" points="194.304,-230.589 196.514,-220.227 188.325,-226.949 194.304,-230.589"/>
<text text-anchor="middle" x="188.5" y="-245.4" font-family="Times Roman,serif" font-size="14.00">a</text>
</g>
<!-- q7&#45;&gt;q3 -->
<g id="edge10" class="edge"><title>q7&#45;&gt;q3</title>
<path fill="none" stroke="black" d="M140.655,-277.696C132.435,-263.946 120.811,-244.501 111.482,-228.898"/>
<polygon fill="black" stroke="black" points="114.434,-227.014 106.299,-220.227 108.426,-230.606 114.434,-227.014"/>
<text text-anchor="middle" x="133.5" y="-245.4" font-family="Times Roman,serif" font-size="14.00">b</text>
</g>
<!-- q2 -->
<g id="node13" class="node"><title>q2</title>
<ellipse fill="none" stroke="black" cx="275" cy="-387" rx="27" ry="18.3848"/>
<text text-anchor="middle" x="275" y="-383.4" font-family="Times Roman,serif" font-size="14.00">q2</text>
</g>
<!-- q2&#45;&gt;q1 -->
<g id="edge16" class="edge"><title>q2&#45;&gt;q1</title>
<path fill="none" stroke="black" d="M292.065,-372.258C309.49,-355.477 334,-326.308 334,-295 334,-295 334,-295 334,-111 334,-84.3734 316.818,-58.7706 301.661,-41.3653"/>
<polygon fill="black" stroke="black" points="304.236,-38.9951 294.908,-33.9709 299.067,-43.7154 304.236,-38.9951"/>
<text text-anchor="middle" x="338.5" y="-199.4" font-family="Times Roman,serif" font-size="14.00">a</text>
</g>
<!-- q2&#45;&gt;q7 -->
<g id="edge14" class="edge"><title>q2&#45;&gt;q7</title>
<path fill="none" stroke="black" d="M256.436,-373.227C235.616,-357.78 201.664,-332.59 177.93,-314.98"/>
<polygon fill="black" stroke="black" points="179.807,-312.015 169.691,-308.867 175.636,-317.637 179.807,-312.015"/>
<text text-anchor="middle" x="228.5" y="-337.4" font-family="Times Roman,serif" font-size="14.00">b</text>
</g>
<!-- q0&#45;&gt;q4 -->
<g id="edge32" class="edge"><title>q0&#45;&gt;q4</title>
<path fill="none" stroke="black" d="M96.751,-92.3979C96.2956,-81.0957 97.4193,-66.8107 104,-56 109.991,-46.1579 119.703,-38.4794 129.481,-32.7314"/>
<polygon fill="black" stroke="black" points="131.197,-35.7826 138.374,-27.9887 127.903,-29.6061 131.197,-35.7826"/>
<text text-anchor="middle" x="108.5" y="-61.4" font-family="Times Roman,serif" font-size="14.00">a</text>
</g>
<!-- q0&#45;&gt;q1 -->
<g id="edge30" class="edge"><title>q0&#45;&gt;q1</title>
<path fill="none" stroke="black" d="M120.712,-99.9027C152.471,-83.6704 211.751,-53.3717 248.063,-34.8125"/>
<polygon fill="black" stroke="black" points="249.899,-37.8044 257.211,-30.1367 246.714,-31.5713 249.899,-37.8044"/>
<text text-anchor="middle" x="209.5" y="-61.4" font-family="Times Roman,serif" font-size="14.00">b</text>
</g>
</g>
</svg>
