<?xml version="1.0" encoding="UTF-8" standalone="no"?>
<!DOCTYPE svg PUBLIC "-//W3C//DTD SVG 1.1//EN"
 "http://www.w3.org/Graphics/SVG/1.1/DTD/svg11.dtd">
<!-- Generated by graphviz version 2.26.3 (20100126.1600)
 -->
<!-- Title: G Pages: 1 -->
<svg width="220pt" height="514pt"
 viewBox="0.00 0.00 220.00 514.00" xmlns="http://www.w3.org/2000/svg" xmlns:xlink="http://www.w3.org/1999/xlink">
<g id="graph1" class="graph" transform="scale(1 1) rotate(0) translate(4 510)">
<title>G</title>
<polygon fill="white" stroke="white" points="-4,5 -4,-510 217,-510 217,5 -4,5"/>
<!-- q0 -->
<g id="node1" class="node"><title>q0</title>
<ellipse fill="none" stroke="black" cx="158" cy="-487" rx="27" ry="18.3848"/>
<text text-anchor="middle" x="158" y="-483.4" font-family="Times Roman,serif" font-size="14.00">q0</text>
</g>
<!-- q0&#45;&gt;q0 -->
<g id="edge2" class="edge"><title>q0&#45;&gt;q0</title>
<path fill="none" stroke="black" d="M182.074,-495.454C193.242,-496.377 203,-493.559 203,-487 203,-482.593 198.595,-479.875 192.317,-478.846"/>
<polygon fill="black" stroke="black" points="192.173,-475.34 182.074,-478.546 191.967,-482.337 192.173,-475.34"/>
<text text-anchor="middle" x="207.5" y="-483.4" font-family="Times Roman,serif" font-size="14.00">b</text>
</g>
<!-- q6 -->
<g id="node4" class="node"><title>q6</title>
<ellipse fill="none" stroke="black" cx="103" cy="-395" rx="27" ry="18.3848"/>
<text text-anchor="middle" x="103" y="-391.4" font-family="Times Roman,serif" font-size="14.00">q6</text>
</g>
<!-- q0&#45;&gt;q6 -->
<g id="edge4" class="edge"><title>q0&#45;&gt;q6</title>
<path fill="none" stroke="black" d="M147.655,-469.696C139.435,-455.946 127.811,-436.501 118.482,-420.898"/>
<polygon fill="black" stroke="black" points="121.434,-419.014 113.299,-412.227 115.426,-422.606 121.434,-419.014"/>
<text text-anchor="middle" x="139.5" y="-437.4" font-family="Times Roman,serif" font-size="14.00">a</text>
</g>
<!-- q6&#45;&gt;q6 -->
<g id="edge14" class="edge"><title>q6&#45;&gt;q6</title>
<path fill="none" stroke="black" d="M127.074,-403.454C138.242,-404.377 148,-401.559 148,-395 148,-390.593 143.595,-387.875 137.317,-386.846"/>
<polygon fill="black" stroke="black" points="137.173,-383.34 127.074,-386.546 136.967,-390.337 137.173,-383.34"/>
<text text-anchor="middle" x="152.5" y="-391.4" font-family="Times Roman,serif" font-size="14.00">b</text>
</g>
<!-- q7 -->
<g id="node7" class="node"><title>q7</title>
<ellipse fill="none" stroke="black" cx="103" cy="-303" rx="27" ry="18.3848"/>
<text text-anchor="middle" x="103" y="-299.4" font-family="Times Roman,serif" font-size="14.00">q7</text>
</g>
<!-- q6&#45;&gt;q7 -->
<g id="edge16" class="edge"><title>q6&#45;&gt;q7</title>
<path fill="none" stroke="black" d="M103,-376.382C103,-363.538 103,-346.216 103,-331.627"/>
<polygon fill="black" stroke="black" points="106.5,-331.59 103,-321.59 99.5001,-331.59 106.5,-331.59"/>
<text text-anchor="middle" x="107.5" y="-345.4" font-family="Times Roman,serif" font-size="14.00">a</text>
</g>
<!-- q2 -->
<g id="node5" class="node"><title>q2</title>
<ellipse fill="none" stroke="black" cx="86" cy="-211" rx="27" ry="18.3848"/>
<text text-anchor="middle" x="86" y="-207.4" font-family="Times Roman,serif" font-size="14.00">q2</text>
</g>
<!-- q2&#45;&gt;q7 -->
<g id="edge6" class="edge"><title>q2&#45;&gt;q7</title>
<path fill="none" stroke="black" d="M89.4351,-229.59C91.8073,-242.428 95.0079,-259.748 97.7044,-274.342"/>
<polygon fill="black" stroke="black" points="94.3009,-275.185 99.5598,-284.382 101.184,-273.913 94.3009,-275.185"/>
<text text-anchor="middle" x="100.5" y="-253.4" font-family="Times Roman,serif" font-size="14.00">b</text>
</g>
<!-- q4 -->
<g id="node9" class="node"><title>q4</title>
<ellipse fill="none" stroke="black" cx="86" cy="-119" rx="27" ry="18.3848"/>
<text text-anchor="middle" x="86" y="-115.4" font-family="Times Roman,serif" font-size="14.00">q4</text>
</g>
<!-- q2&#45;&gt;q4 -->
<g id="edge8" class="edge"><title>q2&#45;&gt;q4</title>
<path fill="none" stroke="black" d="M86,-192.382C86,-179.538 86,-162.216 86,-147.627"/>
<polygon fill="black" stroke="black" points="89.5001,-147.59 86,-137.59 82.5001,-147.59 89.5001,-147.59"/>
<text text-anchor="middle" x="90.5" y="-161.4" font-family="Times Roman,serif" font-size="14.00">a</text>
</g>
<!-- q7&#45;&gt;q2 -->
<g id="edge18" class="edge"><title>q7&#45;&gt;q2</title>
<path fill="none" stroke="black" d="M89.5457,-286.705C85.31,-280.594 81.1726,-273.342 79,-266 76.4756,-257.469 76.6863,-247.93 77.9863,-239.222"/>
<polygon fill="black" stroke="black" points="81.4743,-239.627 80.0015,-229.135 74.61,-238.256 81.4743,-239.627"/>
<text text-anchor="middle" x="83.5" y="-253.4" font-family="Times Roman,serif" font-size="14.00">b</text>
</g>
<!-- q7&#45;&gt;q7 -->
<g id="edge20" class="edge"><title>q7&#45;&gt;q7</title>
<path fill="none" stroke="black" d="M127.074,-311.454C138.242,-312.377 148,-309.559 148,-303 148,-298.593 143.595,-295.875 137.317,-294.846"/>
<polygon fill="black" stroke="black" points="137.173,-291.34 127.074,-294.546 136.967,-298.337 137.173,-291.34"/>
<text text-anchor="middle" x="152.5" y="-299.4" font-family="Times Roman,serif" font-size="14.00">a</text>
</g>
<!-- q8 -->
<g id="node11" class="node"><title>q8</title>
<ellipse fill="none" stroke="black" cx="31" cy="-23" rx="27" ry="18.3848"/>
<ellipse fill="none" stroke="black" cx="31" cy="-23" rx="31" ry="22.3848"/>
<text text-anchor="middle" x="31" y="-19.4" font-family="Times Roman,serif" font-size="14.00">q8</text>
</g>
<!-- q4&#45;&gt;q8 -->
<g id="edge10" class="edge"><title>q4&#45;&gt;q8</title>
<path fill="none" stroke="black" d="M75.9122,-101.392C68.135,-87.8174 57.2015,-68.7336 48.0695,-52.7941"/>
<polygon fill="black" stroke="black" points="50.9465,-50.7749 42.9384,-43.838 44.8727,-54.2548 50.9465,-50.7749"/>
<text text-anchor="middle" x="68.5" y="-69.4" font-family="Times Roman,serif" font-size="14.00">b</text>
</g>
<!-- q9 -->
<g id="node13" class="node"><title>q9</title>
<ellipse fill="none" stroke="black" cx="165" cy="-23" rx="27" ry="18.3848"/>
<ellipse fill="none" stroke="black" cx="165" cy="-23" rx="31" ry="22.3848"/>
<text text-anchor="middle" x="165" y="-19.4" font-family="Times Roman,serif" font-size="14.00">q9</text>
</g>
<!-- q4&#45;&gt;q9 -->
<g id="edge12" class="edge"><title>q4&#45;&gt;q9</title>
<path fill="none" stroke="black" d="M95.5183,-101.627C102.032,-90.4006 111.231,-75.7481 121,-64 125.773,-58.2599 131.313,-52.5279 136.818,-47.2473"/>
<polygon fill="black" stroke="black" points="139.281,-49.7365 144.228,-40.3678 134.518,-44.6064 139.281,-49.7365"/>
<text text-anchor="middle" x="125.5" y="-69.4" font-family="Times Roman,serif" font-size="14.00">a</text>
</g>
<!-- q8&#45;&gt;q8 -->
<g id="edge22" class="edge"><title>q8&#45;&gt;q8</title>
<path fill="none" stroke="black" d="M61.625,-27.6875C71.8333,-27.6875 80,-26.125 80,-23 80,-21.0469 76.8099,-19.7041 71.925,-18.9717"/>
<polygon fill="black" stroke="black" points="71.8282,-15.4584 61.625,-18.3125 71.381,-22.4441 71.8282,-15.4584"/>
<text text-anchor="middle" x="84.5" y="-19.4" font-family="Times Roman,serif" font-size="14.00">b</text>
</g>
<!-- q8&#45;&gt;q8 -->
<g id="edge24" class="edge"><title>q8&#45;&gt;q8</title>
<path fill="none" stroke="black" d="M54.3472,-37.9505C75.424,-45.2237 98,-40.2402 98,-23 98,-8.45355 81.9279,-2.63284 64.245,-5.53787"/>
<polygon fill="black" stroke="black" points="63.1792,-2.19731 54.3472,-8.04948 64.9009,-8.98227 63.1792,-2.19731"/>
<text text-anchor="middle" x="102.5" y="-19.4" font-family="Times Roman,serif" font-size="14.00">a</text>
</g>
<!-- q9&#45;&gt;q0 -->
<g id="edge26" class="edge"><title>q9&#45;&gt;q0</title>
<path fill="none" stroke="black" d="M172.334,-45.2278C178.042,-64.5123 185,-93.293 185,-119 185,-395 185,-395 185,-395 185,-417.472 177.492,-441.827 170.394,-459.831"/>
<polygon fill="black" stroke="black" points="167.136,-458.548 166.543,-469.127 173.604,-461.227 167.136,-458.548"/>
<text text-anchor="middle" x="189.5" y="-253.4" font-family="Times Roman,serif" font-size="14.00">b</text>
</g>
<!-- q9&#45;&gt;q7 -->
<g id="edge28" class="edge"><title>q9&#45;&gt;q7</title>
<path fill="none" stroke="black" d="M160.719,-45.4414C153.369,-83.5199 137.629,-163.165 122,-230 118.507,-244.938 114.232,-261.49 110.623,-275.051"/>
<polygon fill="black" stroke="black" points="107.228,-274.197 108.016,-284.762 113.989,-276.011 107.228,-274.197"/>
<text text-anchor="middle" x="141.5" y="-161.4" font-family="Times Roman,serif" font-size="14.00">a</text>
</g>
</g>
</svg>
