<?xml version="1.0" encoding="UTF-8" standalone="no"?>
<!DOCTYPE svg PUBLIC "-//W3C//DTD SVG 1.1//EN"
 "http://www.w3.org/Graphics/SVG/1.1/DTD/svg11.dtd">
<!-- Generated by graphviz version 2.26.3 (20100126.1600)
 -->
<!-- Title: G Pages: 1 -->
<svg width="167pt" height="338pt"
 viewBox="0.00 0.00 167.00 338.00" xmlns="http://www.w3.org/2000/svg" xmlns:xlink="http://www.w3.org/1999/xlink">
<g id="graph1" class="graph" transform="scale(1 1) rotate(0) translate(4 334)">
<title>G</title>
<polygon fill="white" stroke="white" points="-4,5 -4,-334 164,-334 164,5 -4,5"/>
<!-- q1 -->
<g id="node1" class="node"><title>q1</title>
<ellipse fill="none" stroke="black" cx="101" cy="-308" rx="27" ry="18"/>
<ellipse fill="none" stroke="black" cx="101" cy="-308" rx="31" ry="22"/>
<text text-anchor="middle" x="101" y="-303.9" font-family="Times Roman,serif" font-size="14.00">q1</text>
</g>
<!-- q1&#45;&gt;q1 -->
<g id="edge2" class="edge"><title>q1&#45;&gt;q1</title>
<path fill="none" stroke="black" d="M129.689,-316.965C140.781,-317.363 150,-314.375 150,-308 150,-303.717 145.838,-300.962 139.743,-299.737"/>
<polygon fill="black" stroke="black" points="139.908,-296.24 129.689,-299.035 139.421,-303.223 139.908,-296.24"/>
<text text-anchor="middle" x="154.5" y="-303.9" font-family="Times Roman,serif" font-size="14.00">b</text>
</g>
<!-- q4 -->
<g id="node4" class="node"><title>q4</title>
<ellipse fill="none" stroke="black" cx="101" cy="-210" rx="27" ry="18"/>
<ellipse fill="none" stroke="black" cx="101" cy="-210" rx="31" ry="22"/>
<text text-anchor="middle" x="101" y="-205.9" font-family="Times Roman,serif" font-size="14.00">q4</text>
</g>
<!-- q1&#45;&gt;q4 -->
<g id="edge4" class="edge"><title>q1&#45;&gt;q4</title>
<path fill="none" stroke="black" d="M91.4466,-286.812C89.2043,-280.849 87.1381,-274.276 86,-268 84.3861,-259.1 85.5999,-249.553 87.9064,-240.826"/>
<polygon fill="black" stroke="black" points="91.3213,-241.636 91.0121,-231.046 84.6496,-239.517 91.3213,-241.636"/>
<text text-anchor="middle" x="90.5" y="-254.9" font-family="Times Roman,serif" font-size="14.00">a</text>
</g>
<!-- q4&#45;&gt;q1 -->
<g id="edge6" class="edge"><title>q4&#45;&gt;q1</title>
<path fill="none" stroke="black" d="M101,-232.15C101,-244.914 101,-261.195 101,-275.399"/>
<polygon fill="black" stroke="black" points="97.5001,-275.762 101,-285.762 104.5,-275.762 97.5001,-275.762"/>
<text text-anchor="middle" x="105.5" y="-254.9" font-family="Times Roman,serif" font-size="14.00">b</text>
</g>
<!-- q0 -->
<g id="node7" class="node"><title>q0</title>
<ellipse fill="none" stroke="darkred" cx="31" cy="-112" rx="27" ry="18"/>
<ellipse fill="none" stroke="darkred" cx="31" cy="-112" rx="31" ry="22"/>
<text text-anchor="middle" x="31" y="-107.9" font-family="Times Roman,serif" font-size="14.00">q0</text>
</g>
<!-- q4&#45;&gt;q0 -->
<g id="edge8" class="edge"><title>q4&#45;&gt;q0</title>
<path fill="none" stroke="black" d="M86.8345,-190.168C76.5874,-175.822 62.5942,-156.232 51.1801,-140.252"/>
<polygon fill="black" stroke="black" points="53.805,-137.905 45.1445,-131.802 48.1088,-141.974 53.805,-137.905"/>
<text text-anchor="middle" x="77.5" y="-156.9" font-family="Times Roman,serif" font-size="14.00">a</text>
</g>
<!-- q0&#45;&gt;q0 -->
<g id="edge16" class="edge"><title>q0&#45;&gt;q0</title>
<path fill="none" stroke="black" d="M59.6885,-120.965C70.7806,-121.363 80,-118.375 80,-112 80,-107.717 75.8382,-104.962 69.7429,-103.737"/>
<polygon fill="black" stroke="black" points="69.9079,-100.24 59.6885,-103.035 69.4205,-107.223 69.9079,-100.24"/>
<text text-anchor="middle" x="84.5" y="-107.9" font-family="Times Roman,serif" font-size="14.00">a</text>
</g>
<!-- q3 -->
<g id="node8" class="node"><title>q3</title>
<ellipse fill="none" stroke="black" cx="63" cy="-18" rx="27" ry="18"/>
<text text-anchor="middle" x="63" y="-13.9" font-family="Times Roman,serif" font-size="14.00">q3</text>
</g>
<!-- q0&#45;&gt;q3 -->
<g id="edge14" class="edge"><title>q0&#45;&gt;q3</title>
<path fill="none" stroke="black" d="M28.4434,-89.8487C27.9799,-78.7459 28.6888,-65.2957 33,-54 34.7914,-49.3065 37.464,-44.7826 40.4886,-40.6197"/>
<polygon fill="black" stroke="black" points="43.3932,-42.597 47.0216,-32.6428 37.9776,-38.1617 43.3932,-42.597"/>
<text text-anchor="middle" x="37.5" y="-58.9" font-family="Times Roman,serif" font-size="14.00">b</text>
</g>
<!-- q3&#45;&gt;q4 -->
<g id="edge12" class="edge"><title>q3&#45;&gt;q4</title>
<path fill="none" stroke="black" d="M73.6654,-34.6745C82.0497,-48.7888 93.1029,-69.8784 98,-90 105.083,-119.104 105.158,-153.354 103.862,-177.797"/>
<polygon fill="black" stroke="black" points="100.358,-177.754 103.215,-187.956 107.344,-178.199 100.358,-177.754"/>
<text text-anchor="middle" x="107.5" y="-107.9" font-family="Times Roman,serif" font-size="14.00">a</text>
</g>
<!-- q3&#45;&gt;q0 -->
<g id="edge10" class="edge"><title>q3&#45;&gt;q0</title>
<path fill="none" stroke="black" d="M57.0092,-35.598C52.7339,-48.1567 46.8651,-65.3962 41.7843,-80.3213"/>
<polygon fill="black" stroke="black" points="38.3313,-79.6038 38.4219,-90.1982 44.9579,-81.8597 38.3313,-79.6038"/>
<text text-anchor="middle" x="54.5" y="-58.9" font-family="Times Roman,serif" font-size="14.00">b</text>
</g>
</g>
</svg>
