<?xml version="1.0" encoding="UTF-8" standalone="no"?>
<!DOCTYPE svg PUBLIC "-//W3C//DTD SVG 1.1//EN"
 "http://www.w3.org/Graphics/SVG/1.1/DTD/svg11.dtd">
<!-- Generated by graphviz version 2.26.3 (20100126.1600)
 -->
<!-- Title: G Pages: 1 -->
<svg width="144pt" height="600pt"
 viewBox="0.00 0.00 144.00 600.00" xmlns="http://www.w3.org/2000/svg" xmlns:xlink="http://www.w3.org/1999/xlink">
<g id="graph1" class="graph" transform="scale(1 1) rotate(0) translate(4 596)">
<title>G</title>
<polygon fill="white" stroke="white" points="-4,5 -4,-596 141,-596 141,5 -4,5"/>
<!-- q6 -->
<g id="node1" class="node"><title>q6</title>
<ellipse fill="none" stroke="black" cx="75" cy="-574" rx="27" ry="18"/>
<text text-anchor="middle" x="75" y="-569.9" font-family="Times Roman,serif" font-size="14.00">q6</text>
</g>
<!-- q6&#45;&gt;q6 -->
<g id="edge2" class="edge"><title>q6&#45;&gt;q6</title>
<path fill="none" stroke="black" d="M99.5325,-582.121C110.508,-582.895 120,-580.188 120,-574 120,-569.843 115.715,-567.257 109.574,-566.242"/>
<polygon fill="black" stroke="black" points="109.652,-562.742 99.5325,-565.879 109.4,-569.738 109.652,-562.742"/>
<text text-anchor="middle" x="124.5" y="-569.9" font-family="Times Roman,serif" font-size="14.00">b</text>
</g>
<!-- q4 -->
<g id="node4" class="node"><title>q4</title>
<ellipse fill="none" stroke="black" cx="27" cy="-484" rx="27" ry="18"/>
<text text-anchor="middle" x="27" y="-479.9" font-family="Times Roman,serif" font-size="14.00">q4</text>
</g>
<!-- q6&#45;&gt;q4 -->
<g id="edge4" class="edge"><title>q6&#45;&gt;q4</title>
<path fill="none" stroke="black" d="M65.7451,-556.647C58.728,-543.49 48.9652,-525.185 40.9953,-510.241"/>
<polygon fill="black" stroke="black" points="43.8579,-508.171 36.0637,-500.994 37.6814,-511.465 43.8579,-508.171"/>
<text text-anchor="middle" x="60.5" y="-524.9" font-family="Times Roman,serif" font-size="14.00">a</text>
</g>
<!-- q0 -->
<g id="node9" class="node"><title>q0</title>
<ellipse fill="none" stroke="black" cx="92" cy="-390" rx="27" ry="18"/>
<ellipse fill="none" stroke="black" cx="92" cy="-390" rx="31" ry="22"/>
<text text-anchor="middle" x="92" y="-385.9" font-family="Times Roman,serif" font-size="14.00">q0</text>
</g>
<!-- q4&#45;&gt;q0 -->
<g id="edge20" class="edge"><title>q4&#45;&gt;q0</title>
<path fill="none" stroke="black" d="M38.3221,-467.626C47.7132,-454.046 61.2827,-434.422 72.4285,-418.303"/>
<polygon fill="black" stroke="black" points="75.5205,-419.986 78.3293,-409.77 69.7629,-416.004 75.5205,-419.986"/>
<text text-anchor="middle" x="68.5" y="-434.9" font-family="Times Roman,serif" font-size="14.00">a</text>
</g>
<!-- q2 -->
<g id="node10" class="node"><title>q2</title>
<ellipse fill="none" stroke="black" cx="60" cy="-206" rx="27" ry="18"/>
<text text-anchor="middle" x="60" y="-201.9" font-family="Times Roman,serif" font-size="14.00">q2</text>
</g>
<!-- q4&#45;&gt;q2 -->
<g id="edge18" class="edge"><title>q4&#45;&gt;q2</title>
<path fill="none" stroke="black" d="M26.9541,-466C26.9388,-455.5 26.9388,-442 27,-430 27.2222,-386.443 23.0263,-375.273 28,-332 32.6789,-291.292 37.0622,-281.489 48,-242 48.7749,-239.202 49.6385,-236.301 50.5374,-233.415"/>
<polygon fill="black" stroke="black" points="53.8892,-234.426 53.6515,-223.833 47.232,-232.262 53.8892,-234.426"/>
<text text-anchor="middle" x="32.5" y="-336.9" font-family="Times Roman,serif" font-size="14.00">b</text>
</g>
<!-- q5 -->
<g id="node5" class="node"><title>q5</title>
<ellipse fill="none" stroke="black" cx="60" cy="-116" rx="27" ry="18"/>
<text text-anchor="middle" x="60" y="-111.9" font-family="Times Roman,serif" font-size="14.00">q5</text>
</g>
<!-- q1 -->
<g id="node7" class="node"><title>q1</title>
<ellipse fill="none" stroke="black" cx="92" cy="-22" rx="27" ry="18"/>
<ellipse fill="none" stroke="black" cx="92" cy="-22" rx="31" ry="22"/>
<text text-anchor="middle" x="92" y="-17.9" font-family="Times Roman,serif" font-size="14.00">q1</text>
</g>
<!-- q5&#45;&gt;q1 -->
<g id="edge6" class="edge"><title>q5&#45;&gt;q1</title>
<path fill="none" stroke="black" d="M66.019,-98.3193C70.3143,-85.7017 76.2076,-68.3903 81.2955,-53.4444"/>
<polygon fill="black" stroke="black" points="84.7504,-54.1563 84.6598,-43.5618 78.1238,-51.9004 84.7504,-54.1563"/>
<text text-anchor="middle" x="81.5" y="-66.9" font-family="Times Roman,serif" font-size="14.00">b</text>
</g>
<!-- q5&#45;&gt;q0 -->
<g id="edge8" class="edge"><title>q5&#45;&gt;q0</title>
<path fill="none" stroke="black" d="M81.969,-126.54C92.1409,-132.566 103.408,-141.111 110,-152 139.294,-200.393 123.99,-221.574 128,-278 129.134,-293.96 131.51,-298.39 128,-314 124.357,-330.203 116.843,-347.012 109.619,-360.689"/>
<polygon fill="black" stroke="black" points="106.464,-359.162 104.714,-369.612 112.598,-362.534 106.464,-359.162"/>
<text text-anchor="middle" x="131.5" y="-246.9" font-family="Times Roman,serif" font-size="14.00">a</text>
</g>
<!-- q1&#45;&gt;q5 -->
<g id="edge14" class="edge"><title>q1&#45;&gt;q5</title>
<path fill="none" stroke="black" d="M74.0947,-40.0219C68.8645,-46.4317 63.8041,-54.0454 61,-62 58.1505,-70.0833 57.2084,-79.2786 57.1749,-87.7613"/>
<polygon fill="black" stroke="black" points="53.6854,-88.12 57.5431,-97.9876 60.6809,-87.8681 53.6854,-88.12"/>
<text text-anchor="middle" x="65.5" y="-66.9" font-family="Times Roman,serif" font-size="14.00">b</text>
</g>
<!-- q3 -->
<g id="node15" class="node"><title>q3</title>
<ellipse fill="none" stroke="black" cx="92" cy="-296" rx="27" ry="18"/>
<text text-anchor="middle" x="92" y="-291.9" font-family="Times Roman,serif" font-size="14.00">q3</text>
</g>
<!-- q1&#45;&gt;q3 -->
<g id="edge16" class="edge"><title>q1&#45;&gt;q3</title>
<path fill="none" stroke="black" d="M93.4809,-44.2688C94.412,-59.4114 95.5241,-79.9048 96,-98 97.4722,-153.981 97.5538,-168.022 96,-224 95.5971,-238.516 94.7381,-254.659 93.9191,-267.974"/>
<polygon fill="black" stroke="black" points="90.4258,-267.759 93.2803,-277.962 97.4115,-268.206 90.4258,-267.759"/>
<text text-anchor="middle" x="101.5" y="-156.9" font-family="Times Roman,serif" font-size="14.00">a</text>
</g>
<!-- q0&#45;&gt;q6 -->
<g id="edge28" class="edge"><title>q0&#45;&gt;q6</title>
<path fill="none" stroke="black" d="M89.966,-412.016C86.8716,-445.507 80.9837,-509.236 77.5885,-545.984"/>
<polygon fill="black" stroke="black" points="74.0959,-545.743 76.661,-556.022 81.0662,-546.387 74.0959,-545.743"/>
<text text-anchor="middle" x="88.5" y="-479.9" font-family="Times Roman,serif" font-size="14.00">a</text>
</g>
<!-- q0&#45;&gt;q3 -->
<g id="edge26" class="edge"><title>q0&#45;&gt;q3</title>
<path fill="none" stroke="black" d="M92,-367.723C92,-354.658 92,-338.029 92,-324.073"/>
<polygon fill="black" stroke="black" points="95.5001,-324.025 92,-314.025 88.5001,-324.025 95.5001,-324.025"/>
<text text-anchor="middle" x="96.5" y="-336.9" font-family="Times Roman,serif" font-size="14.00">b</text>
</g>
<!-- q2&#45;&gt;q4 -->
<g id="edge10" class="edge"><title>q2&#45;&gt;q4</title>
<path fill="none" stroke="black" d="M56.818,-223.916C55.8469,-229.68 54.8201,-236.101 54,-242 43.2989,-318.978 34.0431,-410.198 29.6755,-455.506"/>
<polygon fill="black" stroke="black" points="26.1645,-455.456 28.6968,-465.743 33.1327,-456.122 26.1645,-455.456"/>
<text text-anchor="middle" x="47.5" y="-336.9" font-family="Times Roman,serif" font-size="14.00">b</text>
</g>
<!-- q2&#45;&gt;q5 -->
<g id="edge12" class="edge"><title>q2&#45;&gt;q5</title>
<path fill="none" stroke="black" d="M60,-187.787C60,-175.344 60,-158.605 60,-144.421"/>
<polygon fill="black" stroke="black" points="63.5001,-144.186 60,-134.186 56.5001,-144.186 63.5001,-144.186"/>
<text text-anchor="middle" x="64.5" y="-156.9" font-family="Times Roman,serif" font-size="14.00">a</text>
</g>
<!-- q3&#45;&gt;q2 -->
<g id="edge22" class="edge"><title>q3&#45;&gt;q2</title>
<path fill="none" stroke="black" d="M75.4275,-281.472C69.7494,-275.458 64.0595,-268.014 61,-260 57.943,-251.993 56.9415,-242.819 56.9174,-234.333"/>
<polygon fill="black" stroke="black" points="60.4246,-234.224 57.3285,-224.091 53.4302,-233.943 60.4246,-234.224"/>
<text text-anchor="middle" x="65.5" y="-246.9" font-family="Times Roman,serif" font-size="14.00">b</text>
</g>
<!-- q3&#45;&gt;q2 -->
<g id="edge24" class="edge"><title>q3&#45;&gt;q2</title>
<path fill="none" stroke="black" d="M85.6778,-278.219C81.1197,-265.399 74.883,-247.858 69.6975,-233.274"/>
<polygon fill="black" stroke="black" points="72.957,-231.994 66.309,-223.744 66.3614,-234.339 72.957,-231.994"/>
<text text-anchor="middle" x="82.5" y="-246.9" font-family="Times Roman,serif" font-size="14.00">a</text>
</g>
</g>
</svg>
