<?xml version="1.0" encoding="UTF-8" standalone="no"?>
<!DOCTYPE svg PUBLIC "-//W3C//DTD SVG 1.1//EN"
 "http://www.w3.org/Graphics/SVG/1.1/DTD/svg11.dtd">
<!-- Generated by graphviz version 2.26.3 (20100126.1600)
 -->
<!-- Title: G Pages: 1 -->
<svg width="192pt" height="322pt"
 viewBox="0.00 0.00 191.97 322.00" xmlns="http://www.w3.org/2000/svg" xmlns:xlink="http://www.w3.org/1999/xlink">
<g id="graph1" class="graph" transform="scale(1 1) rotate(0) translate(4 318)">
<title>G</title>
<polygon fill="white" stroke="white" points="-4,5 -4,-318 188.972,-318 188.972,5 -4,5"/>
<!-- q2 -->
<g id="node1" class="node"><title>q2</title>
<ellipse fill="none" stroke="black" cx="129.972" cy="-295" rx="27" ry="18.3848"/>
<text text-anchor="middle" x="129.972" y="-291.4" font-family="Times Roman,serif" font-size="14.00">q2</text>
</g>
<!-- q2&#45;&gt;q2 -->
<g id="edge2" class="edge"><title>q2&#45;&gt;q2</title>
<path fill="none" stroke="black" d="M154.046,-303.454C165.214,-304.377 174.972,-301.559 174.972,-295 174.972,-290.593 170.567,-287.875 164.29,-286.846"/>
<polygon fill="black" stroke="black" points="164.145,-283.34 154.046,-286.546 163.94,-290.337 164.145,-283.34"/>
<text text-anchor="middle" x="179.472" y="-291.4" font-family="Times Roman,serif" font-size="14.00">b</text>
</g>
<!-- q3 -->
<g id="node4" class="node"><title>q3</title>
<ellipse fill="none" stroke="black" cx="39.9721" cy="-203" rx="27" ry="18.3848"/>
<text text-anchor="middle" x="39.9721" y="-199.4" font-family="Times Roman,serif" font-size="14.00">q3</text>
</g>
<!-- q2&#45;&gt;q3 -->
<g id="edge4" class="edge"><title>q2&#45;&gt;q3</title>
<path fill="none" stroke="black" d="M114.705,-279.393C100.266,-264.634 78.4351,-242.318 62.091,-225.61"/>
<polygon fill="black" stroke="black" points="64.5088,-223.077 55.0139,-218.376 59.505,-227.972 64.5088,-223.077"/>
<text text-anchor="middle" x="97.4721" y="-245.4" font-family="Times Roman,serif" font-size="14.00">a</text>
</g>
<!-- q4 -->
<g id="node7" class="node"><title>q4</title>
<ellipse fill="none" stroke="black" cx="71.9721" cy="-111" rx="27" ry="18.3848"/>
<text text-anchor="middle" x="71.9721" y="-107.4" font-family="Times Roman,serif" font-size="14.00">q4</text>
</g>
<!-- q3&#45;&gt;q4 -->
<g id="edge14" class="edge"><title>q3&#45;&gt;q4</title>
<path fill="none" stroke="black" d="M37.2809,-184.342C36.4375,-173.415 36.6578,-159.54 40.9721,-148 42.832,-143.025 45.6709,-138.246 48.8901,-133.871"/>
<polygon fill="black" stroke="black" points="51.7163,-135.945 55.3919,-126.008 46.3218,-131.484 51.7163,-135.945"/>
<text text-anchor="middle" x="45.4721" y="-153.4" font-family="Times Roman,serif" font-size="14.00">b</text>
</g>
<!-- q3&#45;&gt;q4 -->
<g id="edge16" class="edge"><title>q3&#45;&gt;q4</title>
<path fill="none" stroke="black" d="M46.2943,-184.824C50.8525,-171.719 57.0892,-153.789 62.2746,-138.88"/>
<polygon fill="black" stroke="black" points="65.6836,-139.733 65.6631,-129.138 59.0721,-137.434 65.6836,-139.733"/>
<text text-anchor="middle" x="62.4721" y="-153.4" font-family="Times Roman,serif" font-size="14.00">a</text>
</g>
<!-- q1 -->
<g id="node5" class="node"><title>q1</title>
<ellipse fill="none" stroke="black" cx="112.972" cy="-203" rx="27" ry="18.3848"/>
<text text-anchor="middle" x="112.972" y="-199.4" font-family="Times Roman,serif" font-size="14.00">q1</text>
</g>
<!-- q1&#45;&gt;q4 -->
<g id="edge6" class="edge"><title>q1&#45;&gt;q4</title>
<path fill="none" stroke="black" d="M117.138,-184.622C118.74,-173.536 119.123,-159.401 113.972,-148 110.892,-141.181 105.865,-135.117 100.341,-129.97"/>
<polygon fill="black" stroke="black" points="102.555,-127.259 92.636,-123.536 98.0681,-132.632 102.555,-127.259"/>
<text text-anchor="middle" x="122.472" y="-153.4" font-family="Times Roman,serif" font-size="14.00">b</text>
</g>
<!-- q1&#45;&gt;q4 -->
<g id="edge8" class="edge"><title>q1&#45;&gt;q4</title>
<path fill="none" stroke="black" d="M105.067,-185.261C99.1495,-171.983 90.9462,-153.576 84.1873,-138.41"/>
<polygon fill="black" stroke="black" points="87.2605,-136.707 79.993,-128.998 80.8667,-139.557 87.2605,-136.707"/>
<text text-anchor="middle" x="100.472" y="-153.4" font-family="Times Roman,serif" font-size="14.00">a</text>
</g>
<!-- q4&#45;&gt;q3 -->
<g id="edge12" class="edge"><title>q4&#45;&gt;q3</title>
<path fill="none" stroke="black" d="M47.1636,-118.666C33.2819,-124.371 17.1638,-133.689 8.97214,-148 2.7851,-158.809 8.19729,-170.858 16.131,-180.917"/>
<polygon fill="black" stroke="black" points="13.6037,-183.342 22.8608,-188.495 18.8379,-178.694 13.6037,-183.342"/>
<text text-anchor="middle" x="13.4721" y="-153.4" font-family="Times Roman,serif" font-size="14.00">a</text>
</g>
<!-- q0 -->
<g id="node10" class="node"><title>q0</title>
<ellipse fill="none" stroke="black" cx="71.9721" cy="-19" rx="27" ry="18.3848"/>
<text text-anchor="middle" x="71.9721" y="-15.4" font-family="Times Roman,serif" font-size="14.00">q0</text>
</g>
<!-- q4&#45;&gt;q0 -->
<g id="edge10" class="edge"><title>q4&#45;&gt;q0</title>
<path fill="none" stroke="black" d="M71.9721,-92.3824C71.9721,-79.5383 71.9721,-62.2161 71.9721,-47.6269"/>
<polygon fill="black" stroke="black" points="75.4722,-47.5898 71.9721,-37.5899 68.4722,-47.5899 75.4722,-47.5898"/>
<text text-anchor="middle" x="76.4721" y="-61.4" font-family="Times Roman,serif" font-size="14.00">b</text>
</g>
<!-- q0&#45;&gt;q2 -->
<g id="edge18" class="edge"><title>q0&#45;&gt;q2</title>
<path fill="none" stroke="black" d="M83.0574,-35.8974C101.255,-64.7902 136.672,-126.18 148.972,-184 154.97,-212.192 147.759,-244.724 140.563,-267.249"/>
<polygon fill="black" stroke="black" points="137.207,-266.248 137.306,-276.842 143.835,-268.499 137.207,-266.248"/>
<text text-anchor="middle" x="148.472" y="-153.4" font-family="Times Roman,serif" font-size="14.00">b</text>
</g>
<!-- q0&#45;&gt;q3 -->
<g id="edge20" class="edge"><title>q0&#45;&gt;q3</title>
<path fill="none" stroke="black" d="M59.0693,-35.275C41.5742,-58.602 11.4243,-103.64 1.97214,-148 0.304928,-155.824 -1.13853,-158.63 1.97214,-166 4.55671,-172.124 8.70521,-177.736 13.3301,-182.638"/>
<polygon fill="black" stroke="black" points="11.1615,-185.405 20.8337,-189.729 15.9693,-180.317 11.1615,-185.405"/>
<text text-anchor="middle" x="27.4721" y="-107.4" font-family="Times Roman,serif" font-size="14.00">a</text>
</g>
</g>
</svg>
