<?xml version="1.0" encoding="UTF-8" standalone="no"?>
<!DOCTYPE svg PUBLIC "-//W3C//DTD SVG 1.1//EN"
 "http://www.w3.org/Graphics/SVG/1.1/DTD/svg11.dtd">
<!-- Generated by graphviz version 2.26.3 (20100126.1600)
 -->
<!-- Title: G Pages: 1 -->
<svg width="153pt" height="322pt"
 viewBox="0.00 0.00 152.61 322.00" xmlns="http://www.w3.org/2000/svg" xmlns:xlink="http://www.w3.org/1999/xlink">
<g id="graph1" class="graph" transform="scale(1 1) rotate(0) translate(4 318)">
<title>G</title>
<polygon fill="white" stroke="white" points="-4,5 -4,-318 149.609,-318 149.609,5 -4,5"/>
<!-- q2 -->
<g id="node1" class="node"><title>q2</title>
<ellipse fill="none" stroke="black" cx="33.6086" cy="-296" rx="27" ry="18"/>
<text text-anchor="middle" x="33.6086" y="-291.9" font-family="Times Roman,serif" font-size="14.00">q2</text>
</g>
<!-- q2&#45;&gt;q2 -->
<g id="edge2" class="edge"><title>q2&#45;&gt;q2</title>
<path fill="none" stroke="black" d="M58.1411,-304.121C69.1164,-304.895 78.6086,-302.188 78.6086,-296 78.6086,-291.843 74.3237,-289.257 68.183,-288.242"/>
<polygon fill="black" stroke="black" points="68.261,-284.742 58.1411,-287.879 68.0082,-291.738 68.261,-284.742"/>
<text text-anchor="middle" x="83.1086" y="-291.9" font-family="Times Roman,serif" font-size="14.00">b</text>
</g>
<!-- q1 -->
<g id="node4" class="node"><title>q1</title>
<ellipse fill="none" stroke="black" cx="33.6086" cy="-206" rx="27" ry="18"/>
<text text-anchor="middle" x="33.6086" y="-201.9" font-family="Times Roman,serif" font-size="14.00">q1</text>
</g>
<!-- q2&#45;&gt;q1 -->
<g id="edge4" class="edge"><title>q2&#45;&gt;q1</title>
<path fill="none" stroke="black" d="M33.6086,-277.787C33.6086,-265.344 33.6086,-248.605 33.6086,-234.421"/>
<polygon fill="black" stroke="black" points="37.1087,-234.186 33.6086,-224.186 30.1087,-234.186 37.1087,-234.186"/>
<text text-anchor="middle" x="38.1086" y="-246.9" font-family="Times Roman,serif" font-size="14.00">a</text>
</g>
<!-- q1&#45;&gt;q1 -->
<g id="edge6" class="edge"><title>q1&#45;&gt;q1</title>
<path fill="none" stroke="black" d="M58.1411,-214.121C69.1164,-214.895 78.6086,-212.188 78.6086,-206 78.6086,-201.843 74.3237,-199.257 68.183,-198.242"/>
<polygon fill="black" stroke="black" points="68.261,-194.742 58.1411,-197.879 68.0082,-201.738 68.261,-194.742"/>
<text text-anchor="middle" x="83.1086" y="-201.9" font-family="Times Roman,serif" font-size="14.00">b</text>
</g>
<!-- q4 -->
<g id="node7" class="node"><title>q4</title>
<ellipse fill="none" stroke="black" cx="33.6086" cy="-116" rx="27" ry="18"/>
<text text-anchor="middle" x="33.6086" y="-111.9" font-family="Times Roman,serif" font-size="14.00">q4</text>
</g>
<!-- q1&#45;&gt;q4 -->
<g id="edge8" class="edge"><title>q1&#45;&gt;q4</title>
<path fill="none" stroke="black" d="M24.8486,-188.86C22.3114,-183.03 19.8834,-176.374 18.6086,-170 17.0397,-162.155 17.0397,-159.845 18.6086,-152 19.2261,-148.913 20.1141,-145.759 21.1541,-142.665"/>
<polygon fill="black" stroke="black" points="24.4955,-143.729 24.8486,-133.14 17.9692,-141.198 24.4955,-143.729"/>
<text text-anchor="middle" x="23.1086" y="-156.9" font-family="Times Roman,serif" font-size="14.00">a</text>
</g>
<!-- q4&#45;&gt;q1 -->
<g id="edge12" class="edge"><title>q4&#45;&gt;q1</title>
<path fill="none" stroke="black" d="M33.6086,-134.186C33.6086,-146.622 33.6086,-163.36 33.6086,-177.548"/>
<polygon fill="black" stroke="black" points="30.1087,-177.787 33.6086,-187.787 37.1087,-177.787 30.1087,-177.787"/>
<text text-anchor="middle" x="38.1086" y="-156.9" font-family="Times Roman,serif" font-size="14.00">a</text>
</g>
<!-- q0 -->
<g id="node9" class="node"><title>q0</title>
<ellipse fill="none" stroke="black" cx="65.6086" cy="-22" rx="27" ry="18"/>
<ellipse fill="none" stroke="black" cx="65.6086" cy="-22" rx="31" ry="22"/>
<text text-anchor="middle" x="65.6086" y="-17.9" font-family="Times Roman,serif" font-size="14.00">q0</text>
</g>
<!-- q4&#45;&gt;q0 -->
<g id="edge10" class="edge"><title>q4&#45;&gt;q0</title>
<path fill="none" stroke="black" d="M16.6944,-101.869C5.85674,-91.0225 -4.88907,-75.6417 2.60863,-62 8.44869,-51.3743 18.4383,-43.1718 28.763,-37.0408"/>
<polygon fill="black" stroke="black" points="30.6699,-39.9897 37.8266,-32.1775 27.3601,-33.8216 30.6699,-39.9897"/>
<text text-anchor="middle" x="7.10863" y="-66.9" font-family="Times Roman,serif" font-size="14.00">b</text>
</g>
<!-- q0&#45;&gt;q4 -->
<g id="edge18" class="edge"><title>q0&#45;&gt;q4</title>
<path fill="none" stroke="black" d="M47.7033,-40.0219C42.4732,-46.4317 37.4127,-54.0454 34.6086,-62 31.7592,-70.0833 30.817,-79.2786 30.7835,-87.7613"/>
<polygon fill="black" stroke="black" points="27.294,-88.12 31.1517,-97.9876 34.2895,-87.8681 27.294,-88.12"/>
<text text-anchor="middle" x="39.1086" y="-66.9" font-family="Times Roman,serif" font-size="14.00">b</text>
</g>
<!-- q0&#45;&gt;q4 -->
<g id="edge20" class="edge"><title>q0&#45;&gt;q4</title>
<path fill="none" stroke="black" d="M58.2684,-43.5618C53.7242,-56.9105 47.8462,-74.1772 42.9688,-88.5045"/>
<polygon fill="black" stroke="black" points="39.537,-87.7249 39.6276,-98.3193 46.1636,-89.9808 39.537,-87.7249"/>
<text text-anchor="middle" x="55.1086" y="-66.9" font-family="Times Roman,serif" font-size="14.00">a</text>
</g>
<!-- q3 -->
<g id="node11" class="node"><title>q3</title>
<ellipse fill="none" stroke="black" cx="117.609" cy="-116" rx="27" ry="18"/>
<text text-anchor="middle" x="117.609" y="-111.9" font-family="Times Roman,serif" font-size="14.00">q3</text>
</g>
<!-- q3&#45;&gt;q0 -->
<g id="edge14" class="edge"><title>q3&#45;&gt;q0</title>
<path fill="none" stroke="black" d="M108.071,-98.759C100.835,-85.6791 90.71,-67.3755 82.1615,-51.9225"/>
<polygon fill="black" stroke="black" points="84.9859,-49.7975 77.0826,-42.7414 78.8607,-53.186 84.9859,-49.7975"/>
<text text-anchor="middle" x="100.109" y="-66.9" font-family="Times Roman,serif" font-size="14.00">b</text>
</g>
<!-- q3&#45;&gt;q0 -->
<g id="edge16" class="edge"><title>q3&#45;&gt;q0</title>
<path fill="none" stroke="black" d="M117.039,-97.8042C116.037,-86.8651 113.558,-72.9823 107.609,-62 104.257,-55.8134 99.6065,-50.0239 94.6151,-44.8758"/>
<polygon fill="black" stroke="black" points="96.8363,-42.1588 87.1703,-37.8205 92.0212,-47.2396 96.8363,-42.1588"/>
<text text-anchor="middle" x="118.109" y="-66.9" font-family="Times Roman,serif" font-size="14.00">a</text>
</g>
</g>
</svg>
