<?xml version="1.0" encoding="UTF-8" standalone="no"?>
<!DOCTYPE svg PUBLIC "-//W3C//DTD SVG 1.1//EN"
 "http://www.w3.org/Graphics/SVG/1.1/DTD/svg11.dtd">
<!-- Generated by graphviz version 2.26.3 (20100126.1600)
 -->
<!-- Title: G Pages: 1 -->
<svg width="124pt" height="510pt"
 viewBox="0.00 0.00 124.00 510.00" xmlns="http://www.w3.org/2000/svg" xmlns:xlink="http://www.w3.org/1999/xlink">
<g id="graph1" class="graph" transform="scale(1 1) rotate(0) translate(4 506)">
<title>G</title>
<polygon fill="white" stroke="white" points="-4,5 -4,-506 121,-506 121,5 -4,5"/>
<!-- q6 -->
<g id="node1" class="node"><title>q6</title>
<ellipse fill="none" stroke="black" cx="31" cy="-484" rx="27" ry="18"/>
<text text-anchor="middle" x="31" y="-479.9" font-family="Times Roman,serif" font-size="14.00">q6</text>
</g>
<!-- q6&#45;&gt;q6 -->
<g id="edge2" class="edge"><title>q6&#45;&gt;q6</title>
<path fill="none" stroke="black" d="M55.5325,-492.121C66.5078,-492.895 76,-490.188 76,-484 76,-479.843 71.7151,-477.257 65.5743,-476.242"/>
<polygon fill="black" stroke="black" points="65.6524,-472.742 55.5325,-475.879 65.3995,-479.738 65.6524,-472.742"/>
<text text-anchor="middle" x="80.5" y="-479.9" font-family="Times Roman,serif" font-size="14.00">b</text>
</g>
<!-- q4 -->
<g id="node4" class="node"><title>q4</title>
<ellipse fill="none" stroke="black" cx="31" cy="-394" rx="27" ry="18"/>
<text text-anchor="middle" x="31" y="-389.9" font-family="Times Roman,serif" font-size="14.00">q4</text>
</g>
<!-- q6&#45;&gt;q4 -->
<g id="edge4" class="edge"><title>q6&#45;&gt;q4</title>
<path fill="none" stroke="black" d="M31,-465.787C31,-453.344 31,-436.605 31,-422.421"/>
<polygon fill="black" stroke="black" points="34.5001,-422.186 31,-412.186 27.5001,-422.186 34.5001,-422.186"/>
<text text-anchor="middle" x="35.5" y="-434.9" font-family="Times Roman,serif" font-size="14.00">a</text>
</g>
<!-- q4&#45;&gt;q4 -->
<g id="edge20" class="edge"><title>q4&#45;&gt;q4</title>
<path fill="none" stroke="black" d="M55.5325,-402.121C66.5078,-402.895 76,-400.188 76,-394 76,-389.843 71.7151,-387.257 65.5743,-386.242"/>
<polygon fill="black" stroke="black" points="65.6524,-382.742 55.5325,-385.879 65.3995,-389.738 65.6524,-382.742"/>
<text text-anchor="middle" x="80.5" y="-389.9" font-family="Times Roman,serif" font-size="14.00">a</text>
</g>
<!-- q2 -->
<g id="node9" class="node"><title>q2</title>
<ellipse fill="none" stroke="black" cx="31" cy="-304" rx="27" ry="18"/>
<text text-anchor="middle" x="31" y="-299.9" font-family="Times Roman,serif" font-size="14.00">q2</text>
</g>
<!-- q4&#45;&gt;q2 -->
<g id="edge18" class="edge"><title>q4&#45;&gt;q2</title>
<path fill="none" stroke="black" d="M31,-375.787C31,-363.344 31,-346.605 31,-332.421"/>
<polygon fill="black" stroke="black" points="34.5001,-332.186 31,-322.186 27.5001,-332.186 34.5001,-332.186"/>
<text text-anchor="middle" x="35.5" y="-344.9" font-family="Times Roman,serif" font-size="14.00">b</text>
</g>
<!-- q5 -->
<g id="node5" class="node"><title>q5</title>
<ellipse fill="none" stroke="black" cx="31" cy="-214" rx="27" ry="18"/>
<text text-anchor="middle" x="31" y="-209.9" font-family="Times Roman,serif" font-size="14.00">q5</text>
</g>
<!-- q1 -->
<g id="node7" class="node"><title>q1</title>
<ellipse fill="none" stroke="black" cx="31" cy="-120" rx="27" ry="18"/>
<ellipse fill="none" stroke="black" cx="31" cy="-120" rx="31" ry="22"/>
<text text-anchor="middle" x="31" y="-115.9" font-family="Times Roman,serif" font-size="14.00">q1</text>
</g>
<!-- q5&#45;&gt;q1 -->
<g id="edge6" class="edge"><title>q5&#45;&gt;q1</title>
<path fill="none" stroke="black" d="M22.2399,-196.86C19.7028,-191.03 17.2748,-184.374 16,-178 14.192,-168.96 15.4343,-159.226 17.8315,-150.363"/>
<polygon fill="black" stroke="black" points="21.174,-151.402 20.9276,-140.81 14.515,-149.244 21.174,-151.402"/>
<text text-anchor="middle" x="20.5" y="-164.9" font-family="Times Roman,serif" font-size="14.00">b</text>
</g>
<!-- q5&#45;&gt;q2 -->
<g id="edge8" class="edge"><title>q5&#45;&gt;q2</title>
<path fill="none" stroke="black" d="M31,-232.186C31,-244.622 31,-261.36 31,-275.548"/>
<polygon fill="black" stroke="black" points="27.5001,-275.787 31,-285.787 34.5001,-275.787 27.5001,-275.787"/>
<text text-anchor="middle" x="35.5" y="-254.9" font-family="Times Roman,serif" font-size="14.00">a</text>
</g>
<!-- q1&#45;&gt;q5 -->
<g id="edge16" class="edge"><title>q1&#45;&gt;q5</title>
<path fill="none" stroke="black" d="M31,-142.039C31,-155.096 31,-171.773 31,-185.785"/>
<polygon fill="black" stroke="black" points="27.5001,-185.876 31,-195.876 34.5001,-185.876 27.5001,-185.876"/>
<text text-anchor="middle" x="35.5" y="-164.9" font-family="Times Roman,serif" font-size="14.00">a</text>
</g>
<!-- q0 -->
<g id="node13" class="node"><title>q0</title>
<ellipse fill="none" stroke="black" cx="31" cy="-22" rx="27" ry="18"/>
<ellipse fill="none" stroke="black" cx="31" cy="-22" rx="31" ry="22"/>
<text text-anchor="middle" x="31" y="-17.9" font-family="Times Roman,serif" font-size="14.00">q0</text>
</g>
<!-- q1&#45;&gt;q0 -->
<g id="edge14" class="edge"><title>q1&#45;&gt;q0</title>
<path fill="none" stroke="black" d="M31,-97.7623C31,-84.9818 31,-68.6973 31,-54.5036"/>
<polygon fill="black" stroke="black" points="34.5001,-54.1497 31,-44.1497 27.5001,-54.1497 34.5001,-54.1497"/>
<text text-anchor="middle" x="35.5" y="-66.9" font-family="Times Roman,serif" font-size="14.00">b</text>
</g>
<!-- q2&#45;&gt;q5 -->
<g id="edge12" class="edge"><title>q2&#45;&gt;q5</title>
<path fill="none" stroke="black" d="M23.2648,-286.388C21.1157,-280.641 19.0769,-274.153 18,-268 16.6208,-260.12 16.6208,-257.88 18,-250 18.5048,-247.116 19.2209,-244.158 20.0607,-241.237"/>
<polygon fill="black" stroke="black" points="23.4274,-242.205 23.2648,-231.612 16.7856,-239.994 23.4274,-242.205"/>
<text text-anchor="middle" x="22.5" y="-254.9" font-family="Times Roman,serif" font-size="14.00">a</text>
</g>
<!-- q2&#45;&gt;q2 -->
<g id="edge10" class="edge"><title>q2&#45;&gt;q2</title>
<path fill="none" stroke="black" d="M55.5325,-312.121C66.5078,-312.895 76,-310.188 76,-304 76,-299.843 71.7151,-297.257 65.5743,-296.242"/>
<polygon fill="black" stroke="black" points="65.6524,-292.742 55.5325,-295.879 65.3995,-299.738 65.6524,-292.742"/>
<text text-anchor="middle" x="80.5" y="-299.9" font-family="Times Roman,serif" font-size="14.00">b</text>
</g>
<!-- q0&#45;&gt;q0 -->
<g id="edge22" class="edge"><title>q0&#45;&gt;q0</title>
<path fill="none" stroke="black" d="M61.625,-26.5C71.8333,-26.5 80,-25 80,-22 80,-20.125 76.8099,-18.8359 71.925,-18.1328"/>
<polygon fill="black" stroke="black" points="71.8208,-14.6199 61.625,-17.5 71.3915,-21.6067 71.8208,-14.6199"/>
<text text-anchor="middle" x="84.5" y="-17.9" font-family="Times Roman,serif" font-size="14.00">b</text>
</g>
<!-- q0&#45;&gt;q0 -->
<g id="edge24" class="edge"><title>q0&#45;&gt;q0</title>
<path fill="none" stroke="black" d="M54.6948,-36.2925C75.6714,-43.0259 98,-38.2617 98,-22 98,-8.27917 82.104,-2.74361 64.5363,-5.39331"/>
<polygon fill="black" stroke="black" points="63.6281,-2.01132 54.6948,-7.70747 65.2305,-8.82547 63.6281,-2.01132"/>
<text text-anchor="middle" x="102.5" y="-17.9" font-family="Times Roman,serif" font-size="14.00">a</text>
</g>
</g>
</svg>
