<?xml version="1.0" encoding="UTF-8" standalone="no"?>
<!DOCTYPE svg PUBLIC "-//W3C//DTD SVG 1.1//EN"
 "http://www.w3.org/Graphics/SVG/1.1/DTD/svg11.dtd">
<!-- Generated by graphviz version 2.26.3 (20100126.1600)
 -->
<!-- Title: G Pages: 1 -->
<svg width="255pt" height="422pt"
 viewBox="0.00 0.00 255.00 422.00" xmlns="http://www.w3.org/2000/svg" xmlns:xlink="http://www.w3.org/1999/xlink">
<g id="graph1" class="graph" transform="scale(1 1) rotate(0) translate(4 418)">
<title>G</title>
<polygon fill="white" stroke="white" points="-4,5 -4,-418 252,-418 252,5 -4,5"/>
<!-- q0 -->
<g id="node1" class="node"><title>q0</title>
<ellipse fill="none" stroke="black" cx="27" cy="-295" rx="27" ry="18.3848"/>
<text text-anchor="middle" x="27" y="-291.4" font-family="Times Roman,serif" font-size="14.00">q0</text>
</g>
<!-- q0&#45;&gt;q0 -->
<g id="edge2" class="edge"><title>q0&#45;&gt;q0</title>
<path fill="none" stroke="black" d="M51.0743,-303.454C62.2423,-304.377 72,-301.559 72,-295 72,-290.593 67.5952,-287.875 61.3174,-286.846"/>
<polygon fill="black" stroke="black" points="61.1726,-283.34 51.0743,-286.546 60.9674,-290.337 61.1726,-283.34"/>
<text text-anchor="middle" x="76.5" y="-291.4" font-family="Times Roman,serif" font-size="14.00">b</text>
</g>
<!-- q6 -->
<g id="node4" class="node"><title>q6</title>
<ellipse fill="none" stroke="black" cx="27" cy="-203" rx="27" ry="18.3848"/>
<text text-anchor="middle" x="27" y="-199.4" font-family="Times Roman,serif" font-size="14.00">q6</text>
</g>
<!-- q0&#45;&gt;q6 -->
<g id="edge4" class="edge"><title>q0&#45;&gt;q6</title>
<path fill="none" stroke="black" d="M27,-276.382C27,-263.538 27,-246.216 27,-231.627"/>
<polygon fill="black" stroke="black" points="30.5001,-231.59 27,-221.59 23.5001,-231.59 30.5001,-231.59"/>
<text text-anchor="middle" x="31.5" y="-245.4" font-family="Times Roman,serif" font-size="14.00">a</text>
</g>
<!-- q6&#45;&gt;q6 -->
<g id="edge10" class="edge"><title>q6&#45;&gt;q6</title>
<path fill="none" stroke="black" d="M51.0743,-211.454C62.2423,-212.377 72,-209.559 72,-203 72,-198.593 67.5952,-195.875 61.3174,-194.846"/>
<polygon fill="black" stroke="black" points="61.1726,-191.34 51.0743,-194.546 60.9674,-198.337 61.1726,-191.34"/>
<text text-anchor="middle" x="76.5" y="-199.4" font-family="Times Roman,serif" font-size="14.00">b</text>
</g>
<!-- q7 -->
<g id="node7" class="node"><title>q7</title>
<ellipse fill="none" stroke="black" cx="86" cy="-111" rx="27" ry="18.3848"/>
<text text-anchor="middle" x="86" y="-107.4" font-family="Times Roman,serif" font-size="14.00">q7</text>
</g>
<!-- q6&#45;&gt;q7 -->
<g id="edge12" class="edge"><title>q6&#45;&gt;q7</title>
<path fill="none" stroke="black" d="M38.0974,-185.696C46.9151,-171.946 59.3851,-152.501 69.3916,-136.898"/>
<polygon fill="black" stroke="black" points="72.5002,-138.534 74.9523,-128.227 66.6077,-134.755 72.5002,-138.534"/>
<text text-anchor="middle" x="65.5" y="-153.4" font-family="Times Roman,serif" font-size="14.00">a</text>
</g>
<!-- q2 -->
<g id="node5" class="node"><title>q2</title>
<ellipse fill="none" stroke="black" cx="60" cy="-19" rx="27" ry="18.3848"/>
<text text-anchor="middle" x="60" y="-15.4" font-family="Times Roman,serif" font-size="14.00">q2</text>
</g>
<!-- q2&#45;&gt;q6 -->
<g id="edge8" class="edge"><title>q2&#45;&gt;q6</title>
<path fill="none" stroke="black" d="M54.5775,-37.1513C50.3616,-51.8317 44.6365,-73.0957 41,-92 35.6711,-119.702 31.8827,-151.698 29.6019,-174.199"/>
<polygon fill="black" stroke="black" points="26.0922,-174.13 28.6033,-184.423 33.059,-174.81 26.0922,-174.13"/>
<text text-anchor="middle" x="45.5" y="-107.4" font-family="Times Roman,serif" font-size="14.00">a</text>
</g>
<!-- q2&#45;&gt;q7 -->
<g id="edge6" class="edge"><title>q2&#45;&gt;q7</title>
<path fill="none" stroke="black" d="M57.7523,-37.5048C57.0615,-48.3794 57.2864,-62.2533 61,-74 62.3145,-78.1579 64.2583,-82.275 66.4914,-86.1684"/>
<polygon fill="black" stroke="black" points="63.6877,-88.2776 72.0672,-94.7612 69.5599,-84.4673 63.6877,-88.2776"/>
<text text-anchor="middle" x="65.5" y="-61.4" font-family="Times Roman,serif" font-size="14.00">b</text>
</g>
<!-- q7&#45;&gt;q2 -->
<g id="edge14" class="edge"><title>q7&#45;&gt;q2</title>
<path fill="none" stroke="black" d="M80.8632,-92.8238C77.1838,-79.8042 72.1582,-62.0212 67.9614,-47.1711"/>
<polygon fill="black" stroke="black" points="71.3028,-46.1246 65.2151,-37.4534 64.5666,-48.0284 71.3028,-46.1246"/>
<text text-anchor="middle" x="79.5" y="-61.4" font-family="Times Roman,serif" font-size="14.00">b</text>
</g>
<!-- q7&#45;&gt;q7 -->
<g id="edge16" class="edge"><title>q7&#45;&gt;q7</title>
<path fill="none" stroke="black" d="M110.074,-119.454C121.242,-120.377 131,-117.559 131,-111 131,-106.593 126.595,-103.875 120.317,-102.846"/>
<polygon fill="black" stroke="black" points="120.173,-99.3402 110.074,-102.546 119.967,-106.337 120.173,-99.3402"/>
<text text-anchor="middle" x="135.5" y="-107.4" font-family="Times Roman,serif" font-size="14.00">a</text>
</g>
<!-- q8 -->
<g id="node13" class="node"><title>q8</title>
<ellipse fill="none" stroke="black" cx="162" cy="-391" rx="27" ry="18.3848"/>
<ellipse fill="none" stroke="black" cx="162" cy="-391" rx="31" ry="22.3848"/>
<text text-anchor="middle" x="162" y="-387.4" font-family="Times Roman,serif" font-size="14.00">q8</text>
</g>
<!-- q8&#45;&gt;q8 -->
<g id="edge18" class="edge"><title>q8&#45;&gt;q8</title>
<path fill="none" stroke="black" d="M192.625,-395.688C202.833,-395.688 211,-394.125 211,-391 211,-389.047 207.81,-387.704 202.925,-386.972"/>
<polygon fill="black" stroke="black" points="202.828,-383.458 192.625,-386.312 202.381,-390.444 202.828,-383.458"/>
<text text-anchor="middle" x="215.5" y="-387.4" font-family="Times Roman,serif" font-size="14.00">b</text>
</g>
<!-- q8&#45;&gt;q8 -->
<g id="edge20" class="edge"><title>q8&#45;&gt;q8</title>
<path fill="none" stroke="black" d="M185.347,-405.951C206.424,-413.224 229,-408.24 229,-391 229,-376.454 212.928,-370.633 195.245,-373.538"/>
<polygon fill="black" stroke="black" points="194.179,-370.197 185.347,-376.049 195.901,-376.982 194.179,-370.197"/>
<text text-anchor="middle" x="233.5" y="-387.4" font-family="Times Roman,serif" font-size="14.00">a</text>
</g>
<!-- q9 -->
<g id="node16" class="node"><title>q9</title>
<ellipse fill="none" stroke="black" cx="82" cy="-391" rx="27" ry="18.3848"/>
<ellipse fill="none" stroke="black" cx="82" cy="-391" rx="31" ry="22.3848"/>
<text text-anchor="middle" x="82" y="-387.4" font-family="Times Roman,serif" font-size="14.00">q9</text>
</g>
<!-- q9&#45;&gt;q0 -->
<g id="edge22" class="edge"><title>q9&#45;&gt;q0</title>
<path fill="none" stroke="black" d="M70.0658,-370.169C61.8505,-355.83 50.8716,-336.667 42.0554,-321.278"/>
<polygon fill="black" stroke="black" points="44.8975,-319.199 36.8895,-312.262 38.8237,-322.678 44.8975,-319.199"/>
<text text-anchor="middle" x="61.5" y="-337.4" font-family="Times Roman,serif" font-size="14.00">b</text>
</g>
<!-- q9&#45;&gt;q7 -->
<g id="edge24" class="edge"><title>q9&#45;&gt;q7</title>
<path fill="none" stroke="black" d="M84.9613,-368.474C86.8232,-353.147 89.0473,-332.388 90,-314 92.9894,-256.3 91.5812,-241.756 90,-184 89.5998,-169.383 88.7498,-153.139 87.9358,-139.691"/>
<polygon fill="black" stroke="black" points="91.4214,-139.351 87.3,-129.591 84.4353,-139.791 91.4214,-139.351"/>
<text text-anchor="middle" x="95.5" y="-245.4" font-family="Times Roman,serif" font-size="14.00">a</text>
</g>
</g>
</svg>
