<?xml version="1.0" encoding="UTF-8" standalone="no"?>
<!DOCTYPE svg PUBLIC "-//W3C//DTD SVG 1.1//EN"
 "http://www.w3.org/Graphics/SVG/1.1/DTD/svg11.dtd">
<!-- Generated by graphviz version 2.26.3 (20100126.1600)
 -->
<!-- Title: G Pages: 1 -->
<svg width="263pt" height="506pt"
 viewBox="0.00 0.00 263.00 506.00" xmlns="http://www.w3.org/2000/svg" xmlns:xlink="http://www.w3.org/1999/xlink">
<g id="graph1" class="graph" transform="scale(1 1) rotate(0) translate(4 502)">
<title>G</title>
<polygon fill="white" stroke="white" points="-4,5 -4,-502 260,-502 260,5 -4,5"/>
<!-- q6 -->
<g id="node1" class="node"><title>q6</title>
<ellipse fill="none" stroke="black" cx="168" cy="-295" rx="27" ry="18.3848"/>
<text text-anchor="middle" x="168" y="-291.4" font-family="Times Roman,serif" font-size="14.00">q6</text>
</g>
<!-- q6&#45;&gt;q6 -->
<g id="edge4" class="edge"><title>q6&#45;&gt;q6</title>
<path fill="none" stroke="black" d="M192.074,-303.454C203.242,-304.377 213,-301.559 213,-295 213,-290.593 208.595,-287.875 202.317,-286.846"/>
<polygon fill="black" stroke="black" points="202.173,-283.34 192.074,-286.546 201.967,-290.337 202.173,-283.34"/>
<text text-anchor="middle" x="217.5" y="-291.4" font-family="Times Roman,serif" font-size="14.00">a</text>
</g>
<!-- q1 -->
<g id="node3" class="node"><title>q1</title>
<ellipse fill="none" stroke="black" cx="127" cy="-203" rx="27" ry="18.3848"/>
<text text-anchor="middle" x="127" y="-199.4" font-family="Times Roman,serif" font-size="14.00">q1</text>
</g>
<!-- q6&#45;&gt;q1 -->
<g id="edge2" class="edge"><title>q6&#45;&gt;q1</title>
<path fill="none" stroke="black" d="M160.095,-277.261C154.177,-263.983 145.974,-245.576 139.215,-230.41"/>
<polygon fill="black" stroke="black" points="142.288,-228.707 135.021,-220.998 135.895,-231.557 142.288,-228.707"/>
<text text-anchor="middle" x="155.5" y="-245.4" font-family="Times Roman,serif" font-size="14.00">b</text>
</g>
<!-- q2 -->
<g id="node10" class="node"><title>q2</title>
<ellipse fill="none" stroke="black" cx="99" cy="-111" rx="27" ry="18.3848"/>
<text text-anchor="middle" x="99" y="-107.4" font-family="Times Roman,serif" font-size="14.00">q2</text>
</g>
<!-- q1&#45;&gt;q2 -->
<g id="edge18" class="edge"><title>q1&#45;&gt;q2</title>
<path fill="none" stroke="black" d="M111.399,-187.844C106.075,-181.634 100.77,-174.023 98,-166 95.1421,-157.721 94.4602,-148.315 94.762,-139.652"/>
<polygon fill="black" stroke="black" points="98.2594,-139.819 95.5378,-129.58 91.2801,-139.281 98.2594,-139.819"/>
<text text-anchor="middle" x="102.5" y="-153.4" font-family="Times Roman,serif" font-size="14.00">b</text>
</g>
<!-- q1&#45;&gt;q2 -->
<g id="edge20" class="edge"><title>q1&#45;&gt;q2</title>
<path fill="none" stroke="black" d="M121.468,-184.824C117.48,-171.719 112.023,-153.789 107.485,-138.88"/>
<polygon fill="black" stroke="black" points="110.78,-137.686 104.52,-129.138 104.084,-139.724 110.78,-137.686"/>
<text text-anchor="middle" x="119.5" y="-153.4" font-family="Times Roman,serif" font-size="14.00">a</text>
</g>
<!-- q5 -->
<g id="node5" class="node"><title>q5</title>
<ellipse fill="none" stroke="black" cx="201" cy="-387" rx="27" ry="18.3848"/>
<text text-anchor="middle" x="201" y="-383.4" font-family="Times Roman,serif" font-size="14.00">q5</text>
</g>
<!-- q5&#45;&gt;q6 -->
<g id="edge8" class="edge"><title>q5&#45;&gt;q6</title>
<path fill="none" stroke="black" d="M194.48,-368.824C189.78,-355.719 183.348,-337.789 178.001,-322.88"/>
<polygon fill="black" stroke="black" points="181.177,-321.37 174.506,-313.138 174.588,-323.733 181.177,-321.37"/>
<text text-anchor="middle" x="191.5" y="-337.4" font-family="Times Roman,serif" font-size="14.00">a</text>
</g>
<!-- q5&#45;&gt;q5 -->
<g id="edge6" class="edge"><title>q5&#45;&gt;q5</title>
<path fill="none" stroke="black" d="M225.074,-395.454C236.242,-396.377 246,-393.559 246,-387 246,-382.593 241.595,-379.875 235.317,-378.846"/>
<polygon fill="black" stroke="black" points="235.173,-375.34 225.074,-378.546 234.967,-382.337 235.173,-375.34"/>
<text text-anchor="middle" x="250.5" y="-383.4" font-family="Times Roman,serif" font-size="14.00">b</text>
</g>
<!-- q7 -->
<g id="node8" class="node"><title>q7</title>
<ellipse fill="none" stroke="black" cx="28" cy="-203" rx="27" ry="18.3848"/>
<text text-anchor="middle" x="28" y="-199.4" font-family="Times Roman,serif" font-size="14.00">q7</text>
</g>
<!-- q7&#45;&gt;q7 -->
<g id="edge12" class="edge"><title>q7&#45;&gt;q7</title>
<path fill="none" stroke="black" d="M52.0743,-211.454C63.2423,-212.377 73,-209.559 73,-203 73,-198.593 68.5952,-195.875 62.3174,-194.846"/>
<polygon fill="black" stroke="black" points="62.1726,-191.34 52.0743,-194.546 61.9674,-198.337 62.1726,-191.34"/>
<text text-anchor="middle" x="77.5" y="-199.4" font-family="Times Roman,serif" font-size="14.00">a</text>
</g>
<!-- q7&#45;&gt;q2 -->
<g id="edge10" class="edge"><title>q7&#45;&gt;q2</title>
<path fill="none" stroke="black" d="M40.6934,-186.552C51.6305,-172.38 67.5761,-151.718 80.0287,-135.583"/>
<polygon fill="black" stroke="black" points="82.8383,-137.671 86.1771,-127.616 77.2967,-133.394 82.8383,-137.671"/>
<text text-anchor="middle" x="73.5" y="-153.4" font-family="Times Roman,serif" font-size="14.00">b</text>
</g>
<!-- q2&#45;&gt;q2 -->
<g id="edge14" class="edge"><title>q2&#45;&gt;q2</title>
<path fill="none" stroke="black" d="M123.074,-119.454C134.242,-120.377 144,-117.559 144,-111 144,-106.593 139.595,-103.875 133.317,-102.846"/>
<polygon fill="black" stroke="black" points="133.173,-99.3402 123.074,-102.546 132.967,-106.337 133.173,-99.3402"/>
<text text-anchor="middle" x="148.5" y="-107.4" font-family="Times Roman,serif" font-size="14.00">b</text>
</g>
<!-- q3 -->
<g id="node14" class="node"><title>q3</title>
<ellipse fill="none" stroke="black" cx="91" cy="-19" rx="27" ry="18.3848"/>
<text text-anchor="middle" x="91" y="-15.4" font-family="Times Roman,serif" font-size="14.00">q3</text>
</g>
<!-- q2&#45;&gt;q3 -->
<g id="edge16" class="edge"><title>q2&#45;&gt;q3</title>
<path fill="none" stroke="black" d="M94.8943,-92.6462C93.7402,-86.7254 92.6293,-80.113 92,-74 91.1267,-65.5168 90.741,-56.2598 90.609,-47.8009"/>
<polygon fill="black" stroke="black" points="94.1082,-47.6145 90.5598,-37.6316 87.1083,-47.6484 94.1082,-47.6145"/>
<text text-anchor="middle" x="96.5" y="-61.4" font-family="Times Roman,serif" font-size="14.00">a</text>
</g>
<!-- q3&#45;&gt;q6 -->
<g id="edge26" class="edge"><title>q3&#45;&gt;q6</title>
<path fill="none" stroke="black" d="M110.115,-32.0886C127.234,-45.0509 151.246,-66.603 162,-92 186.545,-149.97 179.771,-225.823 173.425,-266.416"/>
<polygon fill="black" stroke="black" points="169.95,-265.976 171.757,-276.416 176.855,-267.128 169.95,-265.976"/>
<text text-anchor="middle" x="182.5" y="-153.4" font-family="Times Roman,serif" font-size="14.00">b</text>
</g>
<!-- q3&#45;&gt;q2 -->
<g id="edge28" class="edge"><title>q3&#45;&gt;q2</title>
<path fill="none" stroke="black" d="M96.9565,-37.2488C98.61,-43.164 100.177,-49.7996 101,-56 102.123,-64.458 102.219,-73.7075 101.868,-82.1671"/>
<polygon fill="black" stroke="black" points="98.3629,-82.1412 101.228,-92.3412 105.349,-82.5806 98.3629,-82.1412"/>
<text text-anchor="middle" x="106.5" y="-61.4" font-family="Times Roman,serif" font-size="14.00">a</text>
</g>
<!-- q4 -->
<g id="node17" class="node"><title>q4</title>
<ellipse fill="none" stroke="black" cx="27" cy="-111" rx="27" ry="18.3848"/>
<text text-anchor="middle" x="27" y="-107.4" font-family="Times Roman,serif" font-size="14.00">q4</text>
</g>
<!-- q4&#45;&gt;q3 -->
<g id="edge22" class="edge"><title>q4&#45;&gt;q3</title>
<path fill="none" stroke="black" d="M22.9988,-92.4489C21.5712,-81.166 21.6383,-66.8833 28,-56 34.5011,-44.8782 45.7597,-36.7575 56.9776,-31.0072"/>
<polygon fill="black" stroke="black" points="58.6667,-34.0827 66.2858,-26.7206 55.7386,-27.7245 58.6667,-34.0827"/>
<text text-anchor="middle" x="32.5" y="-61.4" font-family="Times Roman,serif" font-size="14.00">b</text>
</g>
<!-- q4&#45;&gt;q3 -->
<g id="edge24" class="edge"><title>q4&#45;&gt;q3</title>
<path fill="none" stroke="black" d="M38.7386,-94.1258C48.4819,-80.1197 62.4825,-59.9939 73.5408,-44.0976"/>
<polygon fill="black" stroke="black" points="76.4983,-45.9751 79.3358,-35.7672 70.752,-41.9776 76.4983,-45.9751"/>
<text text-anchor="middle" x="68.5" y="-61.4" font-family="Times Roman,serif" font-size="14.00">a</text>
</g>
<!-- q0 -->
<g id="node22" class="node"><title>q0</title>
<ellipse fill="none" stroke="black" cx="168" cy="-479" rx="27" ry="18.3848"/>
<text text-anchor="middle" x="168" y="-475.4" font-family="Times Roman,serif" font-size="14.00">q0</text>
</g>
<!-- q0&#45;&gt;q6 -->
<g id="edge30" class="edge"><title>q0&#45;&gt;q6</title>
<path fill="none" stroke="black" d="M164.102,-460.501C161.214,-445.805 157.526,-424.69 156,-406 154.626,-389.167 154.626,-384.833 156,-368 157.204,-353.253 159.755,-336.995 162.196,-323.573"/>
<polygon fill="black" stroke="black" points="165.682,-323.976 164.102,-313.499 158.804,-322.674 165.682,-323.976"/>
<text text-anchor="middle" x="160.5" y="-383.4" font-family="Times Roman,serif" font-size="14.00">b</text>
</g>
<!-- q0&#45;&gt;q5 -->
<g id="edge32" class="edge"><title>q0&#45;&gt;q5</title>
<path fill="none" stroke="black" d="M174.52,-460.824C179.22,-447.719 185.652,-429.789 190.999,-414.88"/>
<polygon fill="black" stroke="black" points="194.412,-415.733 194.494,-405.138 187.823,-413.37 194.412,-415.733"/>
<text text-anchor="middle" x="191.5" y="-429.4" font-family="Times Roman,serif" font-size="14.00">a</text>
</g>
</g>
</svg>
