<?xml version="1.0" encoding="UTF-8" standalone="no"?>
<!DOCTYPE svg PUBLIC "-//W3C//DTD SVG 1.1//EN"
 "http://www.w3.org/Graphics/SVG/1.1/DTD/svg11.dtd">
<!-- Generated by graphviz version 2.26.3 (20100126.1600)
 -->
<!-- Title: G Pages: 1 -->
<svg width="152pt" height="232pt"
 viewBox="0.00 0.00 152.00 232.00" xmlns="http://www.w3.org/2000/svg" xmlns:xlink="http://www.w3.org/1999/xlink">
<g id="graph1" class="graph" transform="scale(1 1) rotate(0) translate(4 228)">
<title>G</title>
<polygon fill="white" stroke="white" points="-4,5 -4,-228 149,-228 149,5 -4,5"/>
<!-- q1 -->
<g id="node1" class="node"><title>q1</title>
<ellipse fill="none" stroke="black" cx="101" cy="-202" rx="27" ry="18"/>
<ellipse fill="none" stroke="black" cx="101" cy="-202" rx="31" ry="22"/>
<text text-anchor="middle" x="101" y="-197.9" font-family="Times Roman,serif" font-size="14.00">q1</text>
</g>
<!-- q0 -->
<g id="node3" class="node"><title>q0</title>
<ellipse fill="none" stroke="darkred" cx="27" cy="-108" rx="27" ry="18"/>
<text text-anchor="middle" x="27" y="-103.9" font-family="Times Roman,serif" font-size="14.00">q0</text>
</g>
<!-- q1&#45;&gt;q0 -->
<g id="edge2" class="edge"><title>q1&#45;&gt;q0</title>
<path fill="none" stroke="black" d="M78.7164,-186.102C70.2675,-179.334 61.0054,-170.94 54,-162 47.638,-153.881 42.1776,-144.025 37.8655,-134.967"/>
<polygon fill="black" stroke="black" points="40.9365,-133.261 33.649,-125.571 34.55,-136.127 40.9365,-133.261"/>
<text text-anchor="middle" x="58.5" y="-148.9" font-family="Times Roman,serif" font-size="14.00">b</text>
</g>
<!-- q1&#45;&gt;q0 -->
<g id="edge4" class="edge"><title>q1&#45;&gt;q0</title>
<path fill="none" stroke="black" d="M88.9578,-181.425C81.9244,-170.003 72.5694,-155.768 63,-144 59.1419,-139.255 54.7396,-134.446 50.3692,-129.953"/>
<polygon fill="black" stroke="black" points="52.7009,-127.335 43.1458,-122.758 47.761,-132.295 52.7009,-127.335"/>
<text text-anchor="middle" x="79.5" y="-148.9" font-family="Times Roman,serif" font-size="14.00">a</text>
</g>
<!-- q0&#45;&gt;q0 -->
<g id="edge12" class="edge"><title>q0&#45;&gt;q0</title>
<path fill="none" stroke="black" d="M51.5325,-116.121C62.5078,-116.895 72,-114.188 72,-108 72,-103.843 67.7151,-101.257 61.5743,-100.242"/>
<polygon fill="black" stroke="black" points="61.6524,-96.7424 51.5325,-99.8789 61.3995,-103.738 61.6524,-96.7424"/>
<text text-anchor="middle" x="76.5" y="-103.9" font-family="Times Roman,serif" font-size="14.00">a</text>
</g>
<!-- q3 -->
<g id="node5" class="node"><title>q3</title>
<ellipse fill="none" stroke="black" cx="117" cy="-18" rx="27" ry="18"/>
<text text-anchor="middle" x="117" y="-13.9" font-family="Times Roman,serif" font-size="14.00">q3</text>
</g>
<!-- q0&#45;&gt;q3 -->
<g id="edge10" class="edge"><title>q0&#45;&gt;q3</title>
<path fill="none" stroke="black" d="M42.2673,-92.7327C56.7061,-78.2939 78.5371,-56.4629 94.8811,-40.1189"/>
<polygon fill="black" stroke="black" points="97.362,-42.5878 101.958,-33.0418 92.4122,-37.638 97.362,-42.5878"/>
<text text-anchor="middle" x="84.5" y="-58.9" font-family="Times Roman,serif" font-size="14.00">b</text>
</g>
<!-- q3&#45;&gt;q1 -->
<g id="edge6" class="edge"><title>q3&#45;&gt;q1</title>
<path fill="none" stroke="black" d="M115.423,-36.135C112.727,-67.1439 107.195,-130.756 103.82,-169.565"/>
<polygon fill="black" stroke="black" points="100.31,-169.54 102.93,-179.805 107.283,-170.146 100.31,-169.54"/>
<text text-anchor="middle" x="114.5" y="-103.9" font-family="Times Roman,serif" font-size="14.00">b</text>
</g>
<!-- q3&#45;&gt;q1 -->
<g id="edge8" class="edge"><title>q3&#45;&gt;q1</title>
<path fill="none" stroke="black" d="M122.956,-35.7451C124.609,-41.4999 126.176,-47.9584 127,-54 133.501,-101.691 131.688,-115.571 119,-162 118.117,-165.232 117.005,-168.535 115.77,-171.789"/>
<polygon fill="black" stroke="black" points="112.429,-170.706 111.799,-181.282 118.887,-173.407 112.429,-170.706"/>
<text text-anchor="middle" x="134.5" y="-103.9" font-family="Times Roman,serif" font-size="14.00">a</text>
</g>
</g>
</svg>
