<?xml version="1.0" encoding="UTF-8" standalone="no"?>
<!DOCTYPE svg PUBLIC "-//W3C//DTD SVG 1.1//EN"
 "http://www.w3.org/Graphics/SVG/1.1/DTD/svg11.dtd">
<!-- Generated by graphviz version 2.26.3 (20100126.1600)
 -->
<!-- Title: G Pages: 1 -->
<svg width="283pt" height="790pt"
 viewBox="0.00 0.00 283.15 790.00" xmlns="http://www.w3.org/2000/svg" xmlns:xlink="http://www.w3.org/1999/xlink">
<g id="graph1" class="graph" transform="scale(1 1) rotate(0) translate(4 786)">
<title>G</title>
<polygon fill="white" stroke="white" points="-4,5 -4,-786 280.151,-786 280.151,5 -4,5"/>
<!-- q0 -->
<g id="node1" class="node"><title>q0</title>
<ellipse fill="none" stroke="black" cx="176.151" cy="-671" rx="27" ry="18.3848"/>
<text text-anchor="middle" x="176.151" y="-667.4" font-family="Times Roman,serif" font-size="14.00">q0</text>
</g>
<!-- q0&#45;&gt;q0 -->
<g id="edge4" class="edge"><title>q0&#45;&gt;q0</title>
<path fill="none" stroke="black" d="M200.225,-679.454C211.393,-680.377 221.151,-677.559 221.151,-671 221.151,-666.593 216.746,-663.875 210.468,-662.846"/>
<polygon fill="black" stroke="black" points="210.324,-659.34 200.225,-662.546 210.119,-666.337 210.324,-659.34"/>
<text text-anchor="middle" x="225.651" y="-667.4" font-family="Times Roman,serif" font-size="14.00">a</text>
</g>
<!-- q3 -->
<g id="node3" class="node"><title>q3</title>
<ellipse fill="none" stroke="black" cx="176.151" cy="-579" rx="27" ry="18.3848"/>
<text text-anchor="middle" x="176.151" y="-575.4" font-family="Times Roman,serif" font-size="14.00">q3</text>
</g>
<!-- q0&#45;&gt;q3 -->
<g id="edge2" class="edge"><title>q0&#45;&gt;q3</title>
<path fill="none" stroke="black" d="M176.151,-652.382C176.151,-639.538 176.151,-622.216 176.151,-607.627"/>
<polygon fill="black" stroke="black" points="179.651,-607.59 176.151,-597.59 172.651,-607.59 179.651,-607.59"/>
<text text-anchor="middle" x="180.651" y="-621.4" font-family="Times Roman,serif" font-size="14.00">b</text>
</g>
<!-- q2 -->
<g id="node5" class="node"><title>q2</title>
<ellipse fill="none" stroke="black" cx="72.1511" cy="-487" rx="27" ry="18.3848"/>
<text text-anchor="middle" x="72.1511" y="-483.4" font-family="Times Roman,serif" font-size="14.00">q2</text>
</g>
<!-- q3&#45;&gt;q2 -->
<g id="edge12" class="edge"><title>q3&#45;&gt;q2</title>
<path fill="none" stroke="black" d="M153.72,-568.626C140.993,-562.085 125.243,-552.835 113.151,-542 103.684,-533.517 94.9839,-522.547 88.0571,-512.638"/>
<polygon fill="black" stroke="black" points="90.933,-510.643 82.4517,-504.293 85.1222,-514.546 90.933,-510.643"/>
<text text-anchor="middle" x="117.651" y="-529.4" font-family="Times Roman,serif" font-size="14.00">a</text>
</g>
<!-- q10 -->
<g id="node11" class="node"><title>q10</title>
<ellipse fill="none" stroke="black" cx="198.151" cy="-19" rx="29.9071" ry="18.3848"/>
<text text-anchor="middle" x="198.151" y="-15.4" font-family="Times Roman,serif" font-size="14.00">q10</text>
</g>
<!-- q3&#45;&gt;q10 -->
<g id="edge10" class="edge"><title>q3&#45;&gt;q10</title>
<path fill="none" stroke="black" d="M176.151,-560.322C176.151,-541.735 176.151,-512.396 176.151,-487 176.151,-487 176.151,-487 176.151,-111 176.151,-88.9322 182.213,-64.6832 187.972,-46.623"/>
<polygon fill="black" stroke="black" points="191.33,-47.6181 191.19,-37.0242 184.693,-45.393 191.33,-47.6181"/>
<text text-anchor="middle" x="180.651" y="-291.4" font-family="Times Roman,serif" font-size="14.00">b</text>
</g>
<!-- q4 -->
<g id="node7" class="node"><title>q4</title>
<ellipse fill="none" stroke="black" cx="31.1511" cy="-391" rx="27" ry="18.3848"/>
<ellipse fill="none" stroke="black" cx="31.1511" cy="-391" rx="31" ry="22.3848"/>
<text text-anchor="middle" x="31.1511" y="-387.4" font-family="Times Roman,serif" font-size="14.00">q4</text>
</g>
<!-- q2&#45;&gt;q4 -->
<g id="edge6" class="edge"><title>q2&#45;&gt;q4</title>
<path fill="none" stroke="black" d="M53.2427,-473.628C45.9282,-467.358 38.3252,-459.229 34.1511,-450 30.4752,-441.873 28.9506,-432.458 28.5399,-423.569"/>
<polygon fill="black" stroke="black" points="32.0397,-423.473 28.5073,-413.484 25.0398,-423.495 32.0397,-423.473"/>
<text text-anchor="middle" x="38.6511" y="-437.4" font-family="Times Roman,serif" font-size="14.00">b</text>
</g>
<!-- q9 -->
<g id="node9" class="node"><title>q9</title>
<ellipse fill="none" stroke="black" cx="88.1511" cy="-203" rx="27" ry="18.3848"/>
<text text-anchor="middle" x="88.1511" y="-199.4" font-family="Times Roman,serif" font-size="14.00">q9</text>
</g>
<!-- q2&#45;&gt;q9 -->
<g id="edge8" class="edge"><title>q2&#45;&gt;q9</title>
<path fill="none" stroke="black" d="M73.2009,-468.366C75.9245,-420.023 83.2327,-290.302 86.5152,-232.037"/>
<polygon fill="black" stroke="black" points="90.0293,-231.884 87.0974,-221.703 83.0404,-231.49 90.0293,-231.884"/>
<text text-anchor="middle" x="85.6511" y="-337.4" font-family="Times Roman,serif" font-size="14.00">a</text>
</g>
<!-- q4&#45;&gt;q2 -->
<g id="edge16" class="edge"><title>q4&#45;&gt;q2</title>
<path fill="none" stroke="black" d="M40.4074,-412.673C46.3533,-426.595 54.1265,-444.796 60.4925,-459.702"/>
<polygon fill="black" stroke="black" points="57.2929,-461.121 64.4393,-468.943 63.7304,-458.372 57.2929,-461.121"/>
<text text-anchor="middle" x="60.6511" y="-437.4" font-family="Times Roman,serif" font-size="14.00">a</text>
</g>
<!-- q8 -->
<g id="node14" class="node"><title>q8</title>
<ellipse fill="none" stroke="black" cx="32.1511" cy="-295" rx="27" ry="18.3848"/>
<text text-anchor="middle" x="32.1511" y="-291.4" font-family="Times Roman,serif" font-size="14.00">q8</text>
</g>
<!-- q4&#45;&gt;q8 -->
<g id="edge14" class="edge"><title>q4&#45;&gt;q8</title>
<path fill="none" stroke="black" d="M31.3881,-368.249C31.5262,-354.994 31.7016,-338.148 31.8495,-323.954"/>
<polygon fill="black" stroke="black" points="35.3517,-323.756 31.9561,-313.72 28.352,-323.683 35.3517,-323.756"/>
<text text-anchor="middle" x="36.6511" y="-337.4" font-family="Times Roman,serif" font-size="14.00">b</text>
</g>
<!-- q9&#45;&gt;q3 -->
<g id="edge30" class="edge"><title>q9&#45;&gt;q3</title>
<path fill="none" stroke="black" d="M94.5394,-221.324C96.4829,-227.243 98.5312,-233.862 100.151,-240 135.119,-372.485 124.007,-410.395 162.151,-542 163.069,-545.166 164.135,-548.446 165.261,-551.685"/>
<polygon fill="black" stroke="black" points="161.996,-552.95 168.732,-561.128 168.567,-550.535 161.996,-552.95"/>
<text text-anchor="middle" x="138.651" y="-387.4" font-family="Times Roman,serif" font-size="14.00">b</text>
</g>
<!-- q5 -->
<g id="node16" class="node"><title>q5</title>
<ellipse fill="none" stroke="black" cx="55.1511" cy="-111" rx="27" ry="18.3848"/>
<text text-anchor="middle" x="55.1511" y="-107.4" font-family="Times Roman,serif" font-size="14.00">q5</text>
</g>
<!-- q9&#45;&gt;q5 -->
<g id="edge32" class="edge"><title>q9&#45;&gt;q5</title>
<path fill="none" stroke="black" d="M81.6314,-184.824C76.9308,-171.719 70.4992,-153.789 65.1516,-138.88"/>
<polygon fill="black" stroke="black" points="68.3282,-137.37 61.6573,-129.138 61.7392,-139.733 68.3282,-137.37"/>
<text text-anchor="middle" x="79.6511" y="-153.4" font-family="Times Roman,serif" font-size="14.00">a</text>
</g>
<!-- q10&#45;&gt;q3 -->
<g id="edge34" class="edge"><title>q10&#45;&gt;q3</title>
<path fill="none" stroke="black" d="M205.428,-36.9963C212.167,-55.306 221.151,-84.6579 221.151,-111 221.151,-487 221.151,-487 221.151,-487 221.151,-511.68 207.922,-536.644 195.809,-554.328"/>
<polygon fill="black" stroke="black" points="192.659,-552.712 189.653,-562.872 198.338,-556.805 192.659,-552.712"/>
<text text-anchor="middle" x="225.651" y="-291.4" font-family="Times Roman,serif" font-size="14.00">b</text>
</g>
<!-- q10&#45;&gt;q3 -->
<g id="edge36" class="edge"><title>q10&#45;&gt;q3</title>
<path fill="none" stroke="black" d="M217.82,-33.1873C237.903,-49.4827 266.151,-78.2284 266.151,-111 266.151,-487 266.151,-487 266.151,-487 266.151,-521.578 233.262,-547.97 207.248,-563.438"/>
<polygon fill="black" stroke="black" points="205.376,-560.476 198.398,-568.448 208.825,-566.567 205.376,-560.476"/>
<text text-anchor="middle" x="270.651" y="-291.4" font-family="Times Roman,serif" font-size="14.00">a</text>
</g>
<!-- q8&#45;&gt;q9 -->
<g id="edge28" class="edge"><title>q8&#45;&gt;q9</title>
<path fill="none" stroke="black" d="M42.6843,-277.696C51.0536,-263.946 62.8895,-244.501 72.3872,-228.898"/>
<polygon fill="black" stroke="black" points="75.4553,-230.589 77.6652,-220.227 69.4759,-226.949 75.4553,-230.589"/>
<text text-anchor="middle" x="70.6511" y="-245.4" font-family="Times Roman,serif" font-size="14.00">a</text>
</g>
<!-- q8&#45;&gt;q5 -->
<g id="edge26" class="edge"><title>q8&#45;&gt;q5</title>
<path fill="none" stroke="black" d="M33.6194,-276.496C35.4548,-254.429 38.8809,-216.447 43.1511,-184 45.0817,-169.33 47.7049,-153.08 50.0063,-139.643"/>
<polygon fill="black" stroke="black" points="53.4957,-140.006 51.7636,-129.554 46.5995,-138.805 53.4957,-140.006"/>
<text text-anchor="middle" x="47.6511" y="-199.4" font-family="Times Roman,serif" font-size="14.00">b</text>
</g>
<!-- q5&#45;&gt;q10 -->
<g id="edge20" class="edge"><title>q5&#45;&gt;q10</title>
<path fill="none" stroke="black" d="M75.0346,-98.2078C99.2717,-82.6147 140.452,-56.1208 168.452,-38.1072"/>
<polygon fill="black" stroke="black" points="170.525,-40.9352 177.041,-32.5811 166.738,-35.0482 170.525,-40.9352"/>
<text text-anchor="middle" x="144.651" y="-61.4" font-family="Times Roman,serif" font-size="14.00">a</text>
</g>
<!-- q5&#45;&gt;q8 -->
<g id="edge18" class="edge"><title>q5&#45;&gt;q8</title>
<path fill="none" stroke="black" d="M38.4983,-125.826C31.9371,-132.219 24.6679,-140.047 19.1511,-148 9.06634,-162.539 6.0227,-166.735 2.15111,-184 -4.39315,-213.184 6.99895,-246.229 17.574,-268.619"/>
<polygon fill="black" stroke="black" points="14.5619,-270.422 22.1543,-277.811 20.8273,-267.3 14.5619,-270.422"/>
<text text-anchor="middle" x="6.65111" y="-199.4" font-family="Times Roman,serif" font-size="14.00">b</text>
</g>
<!-- q6 -->
<g id="node19" class="node"><title>q6</title>
<ellipse fill="none" stroke="black" cx="176.151" cy="-763" rx="27" ry="18.3848"/>
<text text-anchor="middle" x="176.151" y="-759.4" font-family="Times Roman,serif" font-size="14.00">q6</text>
</g>
<!-- q6&#45;&gt;q0 -->
<g id="edge22" class="edge"><title>q6&#45;&gt;q0</title>
<path fill="none" stroke="black" d="M167.39,-745.361C164.852,-739.367 162.425,-732.531 161.151,-726 159.62,-718.148 159.62,-715.852 161.151,-708 161.788,-704.734 162.713,-701.393 163.796,-698.118"/>
<polygon fill="black" stroke="black" points="167.118,-699.231 167.39,-688.639 160.572,-696.749 167.118,-699.231"/>
<text text-anchor="middle" x="165.651" y="-713.4" font-family="Times Roman,serif" font-size="14.00">b</text>
</g>
<!-- q6&#45;&gt;q0 -->
<g id="edge24" class="edge"><title>q6&#45;&gt;q0</title>
<path fill="none" stroke="black" d="M176.151,-744.382C176.151,-731.538 176.151,-714.216 176.151,-699.627"/>
<polygon fill="black" stroke="black" points="179.651,-699.59 176.151,-689.59 172.651,-699.59 179.651,-699.59"/>
<text text-anchor="middle" x="180.651" y="-713.4" font-family="Times Roman,serif" font-size="14.00">a</text>
</g>
</g>
</svg>
