<?xml version="1.0" encoding="UTF-8" standalone="no"?>
<!DOCTYPE svg PUBLIC "-//W3C//DTD SVG 1.1//EN"
 "http://www.w3.org/Graphics/SVG/1.1/DTD/svg11.dtd">
<!-- Generated by graphviz version 2.26.3 (20100126.1600)
 -->
<!-- Title: G Pages: 1 -->
<svg width="311pt" height="790pt"
 viewBox="0.00 0.00 311.00 790.00" xmlns="http://www.w3.org/2000/svg" xmlns:xlink="http://www.w3.org/1999/xlink">
<g id="graph1" class="graph" transform="scale(1 1) rotate(0) translate(4 786)">
<title>G</title>
<polygon fill="white" stroke="white" points="-4,5 -4,-786 308,-786 308,5 -4,5"/>
<!-- q0 -->
<g id="node1" class="node"><title>q0</title>
<ellipse fill="none" stroke="black" cx="89" cy="-671" rx="27" ry="18.3848"/>
<text text-anchor="middle" x="89" y="-667.4" font-family="Times Roman,serif" font-size="14.00">q0</text>
</g>
<!-- q0&#45;&gt;q0 -->
<g id="edge4" class="edge"><title>q0&#45;&gt;q0</title>
<path fill="none" stroke="black" d="M113.074,-679.454C124.242,-680.377 134,-677.559 134,-671 134,-666.593 129.595,-663.875 123.317,-662.846"/>
<polygon fill="black" stroke="black" points="123.173,-659.34 113.074,-662.546 122.967,-666.337 123.173,-659.34"/>
<text text-anchor="middle" x="138.5" y="-667.4" font-family="Times Roman,serif" font-size="14.00">a</text>
</g>
<!-- q3 -->
<g id="node3" class="node"><title>q3</title>
<ellipse fill="none" stroke="black" cx="185" cy="-579" rx="27" ry="18.3848"/>
<text text-anchor="middle" x="185" y="-575.4" font-family="Times Roman,serif" font-size="14.00">q3</text>
</g>
<!-- q0&#45;&gt;q3 -->
<g id="edge2" class="edge"><title>q0&#45;&gt;q3</title>
<path fill="none" stroke="black" d="M104.852,-655.808C120.277,-641.026 143.899,-618.388 161.508,-601.513"/>
<polygon fill="black" stroke="black" points="164.326,-603.661 169.124,-594.214 159.482,-598.607 164.326,-603.661"/>
<text text-anchor="middle" x="149.5" y="-621.4" font-family="Times Roman,serif" font-size="14.00">b</text>
</g>
<!-- q2 -->
<g id="node5" class="node"><title>q2</title>
<ellipse fill="none" stroke="black" cx="103" cy="-487" rx="27" ry="18.3848"/>
<text text-anchor="middle" x="103" y="-483.4" font-family="Times Roman,serif" font-size="14.00">q2</text>
</g>
<!-- q3&#45;&gt;q2 -->
<g id="edge12" class="edge"><title>q3&#45;&gt;q2</title>
<path fill="none" stroke="black" d="M167.039,-564.687C159.283,-558.135 150.328,-550.047 143,-542 134.722,-532.911 126.561,-522.116 119.79,-512.508"/>
<polygon fill="black" stroke="black" points="122.555,-510.351 114.001,-504.1 116.789,-514.321 122.555,-510.351"/>
<text text-anchor="middle" x="147.5" y="-529.4" font-family="Times Roman,serif" font-size="14.00">a</text>
</g>
<!-- q10 -->
<g id="node11" class="node"><title>q10</title>
<ellipse fill="none" stroke="black" cx="204" cy="-19" rx="29.9071" ry="18.3848"/>
<text text-anchor="middle" x="204" y="-15.4" font-family="Times Roman,serif" font-size="14.00">q10</text>
</g>
<!-- q3&#45;&gt;q10 -->
<g id="edge10" class="edge"><title>q3&#45;&gt;q10</title>
<path fill="none" stroke="black" d="M191.012,-560.899C196.578,-542.509 204,-513.095 204,-487 204,-487 204,-487 204,-111 204,-89.8699 204,-66.0099 204,-47.8843"/>
<polygon fill="black" stroke="black" points="207.5,-47.6775 204,-37.6776 200.5,-47.6776 207.5,-47.6775"/>
<text text-anchor="middle" x="208.5" y="-291.4" font-family="Times Roman,serif" font-size="14.00">b</text>
</g>
<!-- q4 -->
<g id="node7" class="node"><title>q4</title>
<ellipse fill="none" stroke="black" cx="61" cy="-391" rx="27" ry="18.3848"/>
<ellipse fill="none" stroke="black" cx="61" cy="-391" rx="31" ry="22.3848"/>
<text text-anchor="middle" x="61" y="-387.4" font-family="Times Roman,serif" font-size="14.00">q4</text>
</g>
<!-- q2&#45;&gt;q4 -->
<g id="edge6" class="edge"><title>q2&#45;&gt;q4</title>
<path fill="none" stroke="black" d="M95.1001,-468.943C89.3147,-455.719 81.3207,-437.447 74.5267,-421.918"/>
<polygon fill="black" stroke="black" points="77.6969,-420.432 70.4821,-412.673 71.2838,-423.238 77.6969,-420.432"/>
<text text-anchor="middle" x="89.5" y="-437.4" font-family="Times Roman,serif" font-size="14.00">b</text>
</g>
<!-- q9 -->
<g id="node9" class="node"><title>q9</title>
<ellipse fill="none" stroke="black" cx="106" cy="-203" rx="27" ry="18.3848"/>
<text text-anchor="middle" x="106" y="-199.4" font-family="Times Roman,serif" font-size="14.00">q9</text>
</g>
<!-- q2&#45;&gt;q9 -->
<g id="edge8" class="edge"><title>q2&#45;&gt;q9</title>
<path fill="none" stroke="black" d="M103.197,-468.366C103.708,-420.023 105.078,-290.302 105.693,-232.037"/>
<polygon fill="black" stroke="black" points="109.197,-231.739 105.802,-221.703 102.197,-231.665 109.197,-231.739"/>
<text text-anchor="middle" x="108.5" y="-337.4" font-family="Times Roman,serif" font-size="14.00">a</text>
</g>
<!-- q4&#45;&gt;q2 -->
<g id="edge16" class="edge"><title>q4&#45;&gt;q2</title>
<path fill="none" stroke="black" d="M59.3321,-413.507C59.3549,-424.922 60.7586,-438.72 66,-450 68.7131,-455.839 72.7599,-461.281 77.194,-466.098"/>
<polygon fill="black" stroke="black" points="74.7576,-468.611 84.3447,-473.121 79.6625,-463.617 74.7576,-468.611"/>
<text text-anchor="middle" x="70.5" y="-437.4" font-family="Times Roman,serif" font-size="14.00">a</text>
</g>
<!-- q8 -->
<g id="node14" class="node"><title>q8</title>
<ellipse fill="none" stroke="black" cx="27" cy="-295" rx="27" ry="18.3848"/>
<text text-anchor="middle" x="27" y="-291.4" font-family="Times Roman,serif" font-size="14.00">q8</text>
</g>
<!-- q4&#45;&gt;q8 -->
<g id="edge14" class="edge"><title>q4&#45;&gt;q8</title>
<path fill="none" stroke="black" d="M53.1143,-368.734C48.2688,-355.053 42.0209,-337.412 36.8513,-322.816"/>
<polygon fill="black" stroke="black" points="40.1129,-321.541 33.4752,-313.283 33.5145,-323.878 40.1129,-321.541"/>
<text text-anchor="middle" x="50.5" y="-337.4" font-family="Times Roman,serif" font-size="14.00">b</text>
</g>
<!-- q9&#45;&gt;q3 -->
<g id="edge30" class="edge"><title>q9&#45;&gt;q3</title>
<path fill="none" stroke="black" d="M112.88,-220.901C115.031,-226.912 117.288,-233.692 119,-240 149.759,-353.307 172.078,-491.614 180.872,-550.385"/>
<polygon fill="black" stroke="black" points="177.429,-551.03 182.355,-560.409 184.353,-550.005 177.429,-551.03"/>
<text text-anchor="middle" x="161.5" y="-387.4" font-family="Times Roman,serif" font-size="14.00">b</text>
</g>
<!-- q9&#45;&gt;q10 -->
<g id="edge40" class="edge"><title>q9&#45;&gt;q10</title>
<path fill="none" stroke="black" d="M115.397,-185.357C132.665,-152.935 169.534,-83.7123 189.846,-45.5743"/>
<polygon fill="black" stroke="black" points="193.02,-47.0608 194.632,-36.5893 186.842,-43.7701 193.02,-47.0608"/>
<text text-anchor="middle" x="168.5" y="-107.4" font-family="Times Roman,serif" font-size="14.00">a</text>
</g>
<!-- q5 -->
<g id="node16" class="node"><title>q5</title>
<ellipse fill="none" stroke="black" cx="74" cy="-111" rx="27" ry="18.3848"/>
<text text-anchor="middle" x="74" y="-107.4" font-family="Times Roman,serif" font-size="14.00">q5</text>
</g>
<!-- q9&#45;&gt;q5 -->
<g id="edge32" class="edge"><title>q9&#45;&gt;q5</title>
<path fill="none" stroke="black" d="M99.6778,-184.824C95.1197,-171.719 88.883,-153.789 83.6975,-138.88"/>
<polygon fill="black" stroke="black" points="86.9,-137.434 80.309,-129.138 80.2886,-139.733 86.9,-137.434"/>
<text text-anchor="middle" x="96.5" y="-153.4" font-family="Times Roman,serif" font-size="14.00">a</text>
</g>
<!-- q9&#45;&gt;q5 -->
<g id="edge38" class="edge"><title>q9&#45;&gt;q5</title>
<path fill="none" stroke="black" d="M89.4197,-187.992C83.7406,-181.801 78.0521,-174.164 75,-166 71.9327,-157.796 70.9348,-148.411 70.9172,-139.745"/>
<polygon fill="black" stroke="black" points="74.4182,-139.786 71.3087,-129.658 67.4234,-139.514 74.4182,-139.786"/>
<text text-anchor="middle" x="79.5" y="-153.4" font-family="Times Roman,serif" font-size="14.00">b</text>
</g>
<!-- q10&#45;&gt;q3 -->
<g id="edge34" class="edge"><title>q10&#45;&gt;q3</title>
<path fill="none" stroke="black" d="M217.746,-35.4521C230.98,-53.0052 249,-82.1956 249,-111 249,-487 249,-487 249,-487 249,-515.261 228.397,-541.069 210.57,-558.11"/>
<polygon fill="black" stroke="black" points="208.2,-555.535 203.169,-564.858 212.917,-560.708 208.2,-555.535"/>
<text text-anchor="middle" x="253.5" y="-291.4" font-family="Times Roman,serif" font-size="14.00">b</text>
</g>
<!-- q10&#45;&gt;q3 -->
<g id="edge36" class="edge"><title>q10&#45;&gt;q3</title>
<path fill="none" stroke="black" d="M228.118,-30.5707C254.777,-45.2399 294,-73.2387 294,-111 294,-487 294,-487 294,-487 294,-526.834 250.963,-552.933 218.975,-566.83"/>
<polygon fill="black" stroke="black" points="217.372,-563.704 209.462,-570.752 220.041,-570.176 217.372,-563.704"/>
<text text-anchor="middle" x="298.5" y="-291.4" font-family="Times Roman,serif" font-size="14.00">a</text>
</g>
<!-- q8&#45;&gt;q9 -->
<g id="edge28" class="edge"><title>q8&#45;&gt;q9</title>
<path fill="none" stroke="black" d="M35.9235,-277.402C42.1183,-266.083 51.028,-251.412 61,-240 66.216,-234.031 72.4561,-228.249 78.6042,-223.098"/>
<polygon fill="black" stroke="black" points="81.212,-225.494 86.8263,-216.509 76.8343,-220.032 81.212,-225.494"/>
<text text-anchor="middle" x="65.5" y="-245.4" font-family="Times Roman,serif" font-size="14.00">a</text>
</g>
<!-- q8&#45;&gt;q5 -->
<g id="edge26" class="edge"><title>q8&#45;&gt;q5</title>
<path fill="none" stroke="black" d="M25.2075,-276.495C23.6309,-254.102 22.8254,-215.484 32,-184 36.9999,-166.842 46.7995,-149.428 55.676,-135.912"/>
<polygon fill="black" stroke="black" points="58.5768,-137.871 61.316,-127.636 52.7923,-133.929 58.5768,-137.871"/>
<text text-anchor="middle" x="36.5" y="-199.4" font-family="Times Roman,serif" font-size="14.00">b</text>
</g>
<!-- q5&#45;&gt;q10 -->
<g id="edge20" class="edge"><title>q5&#45;&gt;q10</title>
<path fill="none" stroke="black" d="M87.7341,-94.6391C98.1966,-82.8709 113.414,-67.1704 129,-56 141.345,-47.1522 156.124,-39.3571 169.287,-33.2318"/>
<polygon fill="black" stroke="black" points="170.844,-36.3695 178.528,-29.0756 167.973,-29.9855 170.844,-36.3695"/>
<text text-anchor="middle" x="133.5" y="-61.4" font-family="Times Roman,serif" font-size="14.00">a</text>
</g>
<!-- q5&#45;&gt;q8 -->
<g id="edge18" class="edge"><title>q5&#45;&gt;q8</title>
<path fill="none" stroke="black" d="M69.3406,-129.241C61.1195,-161.426 43.9875,-228.496 34.2234,-266.721"/>
<polygon fill="black" stroke="black" points="30.7622,-266.13 31.6784,-276.685 37.5444,-267.862 30.7622,-266.13"/>
<text text-anchor="middle" x="59.5" y="-199.4" font-family="Times Roman,serif" font-size="14.00">b</text>
</g>
<!-- q6 -->
<g id="node19" class="node"><title>q6</title>
<ellipse fill="none" stroke="black" cx="32" cy="-763" rx="27" ry="18.3848"/>
<text text-anchor="middle" x="32" y="-759.4" font-family="Times Roman,serif" font-size="14.00">q6</text>
</g>
<!-- q6&#45;&gt;q0 -->
<g id="edge22" class="edge"><title>q6&#45;&gt;q0</title>
<path fill="none" stroke="black" d="M42.7213,-745.696C51.24,-731.946 63.2873,-712.501 72.9546,-696.898"/>
<polygon fill="black" stroke="black" points="76.0353,-698.571 78.3268,-688.227 70.0848,-694.884 76.0353,-698.571"/>
<text text-anchor="middle" x="69.5" y="-713.4" font-family="Times Roman,serif" font-size="14.00">b</text>
</g>
<!-- q6&#45;&gt;q9 -->
<g id="edge24" class="edge"><title>q6&#45;&gt;q9</title>
<path fill="none" stroke="black" d="M22.6723,-745.569C13.8657,-727.463 2,-698.048 2,-671 2,-671 2,-671 2,-441 2,-407.475 -0.379511,-393.824 21,-368 32.9174,-353.605 46.6925,-364.063 59,-350 74.6052,-332.169 91.0824,-268.807 99.7775,-231.341"/>
<polygon fill="black" stroke="black" points="103.206,-232.047 102.016,-221.519 96.3813,-230.491 103.206,-232.047"/>
<text text-anchor="middle" x="6.5" y="-483.4" font-family="Times Roman,serif" font-size="14.00">a</text>
</g>
</g>
</svg>
