<?xml version="1.0" encoding="UTF-8" standalone="no"?>
<!DOCTYPE svg PUBLIC "-//W3C//DTD SVG 1.1//EN"
 "http://www.w3.org/Graphics/SVG/1.1/DTD/svg11.dtd">
<!-- Generated by graphviz version 2.26.3 (20100126.1600)
 -->
<!-- Title: G Pages: 1 -->
<svg width="378pt" height="414pt"
 viewBox="0.00 0.00 378.00 414.00" xmlns="http://www.w3.org/2000/svg" xmlns:xlink="http://www.w3.org/1999/xlink">
<g id="graph1" class="graph" transform="scale(1 1) rotate(0) translate(4 410)">
<title>G</title>
<polygon fill="white" stroke="white" points="-4,5 -4,-410 375,-410 375,5 -4,5"/>
<!-- q6 -->
<g id="node1" class="node"><title>q6</title>
<ellipse fill="none" stroke="black" cx="257" cy="-203" rx="27" ry="18.3848"/>
<text text-anchor="middle" x="257" y="-199.4" font-family="Times Roman,serif" font-size="14.00">q6</text>
</g>
<!-- q4 -->
<g id="node3" class="node"><title>q4</title>
<ellipse fill="none" stroke="black" cx="189" cy="-19" rx="27" ry="18.3848"/>
<text text-anchor="middle" x="189" y="-15.4" font-family="Times Roman,serif" font-size="14.00">q4</text>
</g>
<!-- q6&#45;&gt;q4 -->
<g id="edge2" class="edge"><title>q6&#45;&gt;q4</title>
<path fill="none" stroke="black" d="M250.406,-184.875C240.288,-157.103 220.287,-102.365 203,-56 201.848,-52.9111 200.636,-49.6797 199.427,-46.4679"/>
<polygon fill="black" stroke="black" points="202.679,-45.1714 195.871,-37.0532 196.13,-47.6449 202.679,-45.1714"/>
<text text-anchor="middle" x="234.5" y="-107.4" font-family="Times Roman,serif" font-size="14.00">b</text>
</g>
<!-- q1 -->
<g id="node5" class="node"><title>q1</title>
<ellipse fill="none" stroke="black" cx="306" cy="-19" rx="27" ry="18.3848"/>
<text text-anchor="middle" x="306" y="-15.4" font-family="Times Roman,serif" font-size="14.00">q1</text>
</g>
<!-- q6&#45;&gt;q1 -->
<g id="edge4" class="edge"><title>q6&#45;&gt;q1</title>
<path fill="none" stroke="black" d="M261.877,-184.685C270.463,-152.447 288.325,-85.3721 298.493,-47.1911"/>
<polygon fill="black" stroke="black" points="301.951,-47.8052 301.142,-37.2412 295.187,-46.0038 301.951,-47.8052"/>
<text text-anchor="middle" x="290.5" y="-107.4" font-family="Times Roman,serif" font-size="14.00">a</text>
</g>
<!-- q4&#45;&gt;q6 -->
<g id="edge22" class="edge"><title>q4&#45;&gt;q6</title>
<path fill="none" stroke="black" d="M188.778,-37.7749C189.123,-60.4343 191.703,-99.3142 204,-130 211.285,-148.179 224.099,-166.016 235.302,-179.508"/>
<polygon fill="black" stroke="black" points="232.834,-182.006 242.006,-187.311 238.144,-177.445 232.834,-182.006"/>
<text text-anchor="middle" x="208.5" y="-107.4" font-family="Times Roman,serif" font-size="14.00">b</text>
</g>
<!-- q4&#45;&gt;q4 -->
<g id="edge24" class="edge"><title>q4&#45;&gt;q4</title>
<path fill="none" stroke="black" d="M213.074,-27.4544C224.242,-28.3767 234,-25.5586 234,-19 234,-14.5934 229.595,-11.8754 223.317,-10.8458"/>
<polygon fill="black" stroke="black" points="223.173,-7.34018 213.074,-10.5456 222.967,-14.3372 223.173,-7.34018"/>
<text text-anchor="middle" x="238.5" y="-15.4" font-family="Times Roman,serif" font-size="14.00">a</text>
</g>
<!-- q1&#45;&gt;q6 -->
<g id="edge18" class="edge"><title>q1&#45;&gt;q6</title>
<path fill="none" stroke="black" d="M306.607,-37.8209C306.769,-43.6475 306.92,-50.0887 307,-56 307.676,-106.034 307.663,-122.461 283,-166 280.718,-170.028 278.108,-174.164 275.442,-178.144"/>
<polygon fill="black" stroke="black" points="272.462,-176.298 269.622,-186.505 278.207,-180.297 272.462,-176.298"/>
<text text-anchor="middle" x="310.5" y="-107.4" font-family="Times Roman,serif" font-size="14.00">b</text>
</g>
<!-- q1&#45;&gt;q1 -->
<g id="edge20" class="edge"><title>q1&#45;&gt;q1</title>
<path fill="none" stroke="black" d="M330.074,-27.4544C341.242,-28.3767 351,-25.5586 351,-19 351,-14.5934 346.595,-11.8754 340.317,-10.8458"/>
<polygon fill="black" stroke="black" points="340.173,-7.34018 330.074,-10.5456 339.967,-14.3372 340.173,-7.34018"/>
<text text-anchor="middle" x="355.5" y="-15.4" font-family="Times Roman,serif" font-size="14.00">a</text>
</g>
<!-- q5 -->
<g id="node6" class="node"><title>q5</title>
<ellipse fill="none" stroke="black" cx="27" cy="-111" rx="27" ry="18.3848"/>
<text text-anchor="middle" x="27" y="-107.4" font-family="Times Roman,serif" font-size="14.00">q5</text>
</g>
<!-- q5&#45;&gt;q5 -->
<g id="edge8" class="edge"><title>q5&#45;&gt;q5</title>
<path fill="none" stroke="black" d="M51.0743,-119.454C62.2423,-120.377 72,-117.559 72,-111 72,-106.593 67.5952,-103.875 61.3174,-102.846"/>
<polygon fill="black" stroke="black" points="61.1726,-99.3402 51.0743,-102.546 60.9674,-106.337 61.1726,-99.3402"/>
<text text-anchor="middle" x="76.5" y="-107.4" font-family="Times Roman,serif" font-size="14.00">a</text>
</g>
<!-- q3 -->
<g id="node8" class="node"><title>q3</title>
<ellipse fill="none" stroke="black" cx="98" cy="-203" rx="27" ry="18.3848"/>
<text text-anchor="middle" x="98" y="-199.4" font-family="Times Roman,serif" font-size="14.00">q3</text>
</g>
<!-- q5&#45;&gt;q3 -->
<g id="edge6" class="edge"><title>q5&#45;&gt;q3</title>
<path fill="none" stroke="black" d="M39.8229,-127.616C50.7993,-141.839 66.7508,-162.508 79.1757,-178.608"/>
<polygon fill="black" stroke="black" points="76.4262,-180.774 85.3066,-186.552 81.9678,-176.497 76.4262,-180.774"/>
<text text-anchor="middle" x="73.5" y="-153.4" font-family="Times Roman,serif" font-size="14.00">b</text>
</g>
<!-- q3&#45;&gt;q5 -->
<g id="edge28" class="edge"><title>q3&#45;&gt;q5</title>
<path fill="none" stroke="black" d="M75.8623,-192.375C64.873,-186.089 52.2235,-177.163 44,-166 38.2718,-158.224 34.4458,-148.482 31.9021,-139.366"/>
<polygon fill="black" stroke="black" points="35.2681,-138.392 29.5421,-129.478 28.4593,-140.017 35.2681,-138.392"/>
<text text-anchor="middle" x="48.5" y="-153.4" font-family="Times Roman,serif" font-size="14.00">a</text>
</g>
<!-- q0 -->
<g id="node21" class="node"><title>q0</title>
<ellipse fill="none" stroke="black" cx="126" cy="-111" rx="27" ry="18.3848"/>
<text text-anchor="middle" x="126" y="-107.4" font-family="Times Roman,serif" font-size="14.00">q0</text>
</g>
<!-- q3&#45;&gt;q0 -->
<g id="edge26" class="edge"><title>q3&#45;&gt;q0</title>
<path fill="none" stroke="black" d="M103.532,-184.824C107.52,-171.719 112.977,-153.789 117.515,-138.88"/>
<polygon fill="black" stroke="black" points="120.916,-139.724 120.48,-129.138 114.22,-137.686 120.916,-139.724"/>
<text text-anchor="middle" x="119.5" y="-153.4" font-family="Times Roman,serif" font-size="14.00">b</text>
</g>
<!-- q7 -->
<g id="node10" class="node"><title>q7</title>
<ellipse fill="none" stroke="black" cx="257" cy="-295" rx="27" ry="18.3848"/>
<text text-anchor="middle" x="257" y="-291.4" font-family="Times Roman,serif" font-size="14.00">q7</text>
</g>
<!-- q7&#45;&gt;q6 -->
<g id="edge12" class="edge"><title>q7&#45;&gt;q6</title>
<path fill="none" stroke="black" d="M257,-276.382C257,-263.538 257,-246.216 257,-231.627"/>
<polygon fill="black" stroke="black" points="260.5,-231.59 257,-221.59 253.5,-231.59 260.5,-231.59"/>
<text text-anchor="middle" x="261.5" y="-245.4" font-family="Times Roman,serif" font-size="14.00">a</text>
</g>
<!-- q7&#45;&gt;q3 -->
<g id="edge10" class="edge"><title>q7&#45;&gt;q3</title>
<path fill="none" stroke="black" d="M236.214,-282.973C208.479,-266.925 159.205,-238.414 127.597,-220.126"/>
<polygon fill="black" stroke="black" points="129.2,-217.009 118.792,-215.03 125.694,-223.068 129.2,-217.009"/>
<text text-anchor="middle" x="195.5" y="-245.4" font-family="Times Roman,serif" font-size="14.00">b</text>
</g>
<!-- q2 -->
<g id="node13" class="node"><title>q2</title>
<ellipse fill="none" stroke="black" cx="329" cy="-387" rx="27" ry="18.3848"/>
<text text-anchor="middle" x="329" y="-383.4" font-family="Times Roman,serif" font-size="14.00">q2</text>
</g>
<!-- q2&#45;&gt;q1 -->
<g id="edge16" class="edge"><title>q2&#45;&gt;q1</title>
<path fill="none" stroke="black" d="M338.95,-369.643C348.343,-351.595 361,-322.226 361,-295 361,-295 361,-295 361,-111 361,-84.3734 343.818,-58.7706 328.661,-41.3653"/>
<polygon fill="black" stroke="black" points="331.236,-38.9951 321.908,-33.9709 326.067,-43.7154 331.236,-38.9951"/>
<text text-anchor="middle" x="365.5" y="-199.4" font-family="Times Roman,serif" font-size="14.00">a</text>
</g>
<!-- q2&#45;&gt;q7 -->
<g id="edge14" class="edge"><title>q2&#45;&gt;q7</title>
<path fill="none" stroke="black" d="M316.128,-370.552C304.968,-356.292 288.665,-335.461 276.004,-319.282"/>
<polygon fill="black" stroke="black" points="278.68,-317.023 269.761,-311.305 273.168,-321.338 278.68,-317.023"/>
<text text-anchor="middle" x="303.5" y="-337.4" font-family="Times Roman,serif" font-size="14.00">b</text>
</g>
<!-- q0&#45;&gt;q4 -->
<g id="edge32" class="edge"><title>q0&#45;&gt;q4</title>
<path fill="none" stroke="black" d="M123.751,-92.3979C123.296,-81.0957 124.419,-66.8107 131,-56 136.991,-46.1579 146.703,-38.4794 156.481,-32.7314"/>
<polygon fill="black" stroke="black" points="158.197,-35.7826 165.374,-27.9887 154.903,-29.6061 158.197,-35.7826"/>
<text text-anchor="middle" x="135.5" y="-61.4" font-family="Times Roman,serif" font-size="14.00">a</text>
</g>
<!-- q0&#45;&gt;q1 -->
<g id="edge30" class="edge"><title>q0&#45;&gt;q1</title>
<path fill="none" stroke="black" d="M147.712,-99.9027C179.471,-83.6704 238.751,-53.3717 275.063,-34.8125"/>
<polygon fill="black" stroke="black" points="276.899,-37.8044 284.211,-30.1367 273.714,-31.5713 276.899,-37.8044"/>
<text text-anchor="middle" x="236.5" y="-61.4" font-family="Times Roman,serif" font-size="14.00">b</text>
</g>
</g>
</svg>
