<?xml version="1.0" encoding="UTF-8" standalone="no"?>
<!DOCTYPE svg PUBLIC "-//W3C//DTD SVG 1.1//EN"
 "http://www.w3.org/Graphics/SVG/1.1/DTD/svg11.dtd">
<!-- Generated by graphviz version 2.26.3 (20100126.1600)
 -->
<!-- Title: G Pages: 1 -->
<svg width="223pt" height="522pt"
 viewBox="0.00 0.00 223.00 522.00" xmlns="http://www.w3.org/2000/svg" xmlns:xlink="http://www.w3.org/1999/xlink">
<g id="graph1" class="graph" transform="scale(1 1) rotate(0) translate(4 518)">
<title>G</title>
<polygon fill="white" stroke="white" points="-4,5 -4,-518 220,-518 220,5 -4,5"/>
<!-- q0 -->
<g id="node1" class="node"><title>q0</title>
<ellipse fill="none" stroke="black" cx="27" cy="-491" rx="27" ry="18.3848"/>
<text text-anchor="middle" x="27" y="-487.4" font-family="Times Roman,serif" font-size="14.00">q0</text>
</g>
<!-- q0&#45;&gt;q0 -->
<g id="edge2" class="edge"><title>q0&#45;&gt;q0</title>
<path fill="none" stroke="black" d="M50.6146,-500.146C61.9731,-501.275 72,-498.227 72,-491 72,-486.145 67.4737,-483.175 61.0584,-482.092"/>
<polygon fill="black" stroke="black" points="60.6918,-478.583 50.6146,-481.854 60.5323,-485.581 60.6918,-478.583"/>
<text text-anchor="middle" x="76.5" y="-487.4" font-family="Times Roman,serif" font-size="14.00">b</text>
</g>
<!-- q6 -->
<g id="node4" class="node"><title>q6</title>
<ellipse fill="none" stroke="black" cx="82" cy="-395" rx="27" ry="18.3848"/>
<text text-anchor="middle" x="82" y="-391.4" font-family="Times Roman,serif" font-size="14.00">q6</text>
</g>
<!-- q0&#45;&gt;q6 -->
<g id="edge4" class="edge"><title>q0&#45;&gt;q6</title>
<path fill="none" stroke="black" d="M37.0878,-473.392C45.461,-458.777 57.4928,-437.776 66.996,-421.189"/>
<polygon fill="black" stroke="black" points="70.0418,-422.913 71.9761,-412.496 63.968,-419.433 70.0418,-422.913"/>
<text text-anchor="middle" x="63.5" y="-437.4" font-family="Times Roman,serif" font-size="14.00">a</text>
</g>
<!-- q6&#45;&gt;q6 -->
<g id="edge18" class="edge"><title>q6&#45;&gt;q6</title>
<path fill="none" stroke="black" d="M106.074,-403.454C117.242,-404.377 127,-401.559 127,-395 127,-390.593 122.595,-387.875 116.317,-386.846"/>
<polygon fill="black" stroke="black" points="116.173,-383.34 106.074,-386.546 115.967,-390.337 116.173,-383.34"/>
<text text-anchor="middle" x="131.5" y="-391.4" font-family="Times Roman,serif" font-size="14.00">b</text>
</g>
<!-- q7 -->
<g id="node7" class="node"><title>q7</title>
<ellipse fill="none" stroke="black" cx="82" cy="-303" rx="27" ry="18.3848"/>
<text text-anchor="middle" x="82" y="-299.4" font-family="Times Roman,serif" font-size="14.00">q7</text>
</g>
<!-- q6&#45;&gt;q7 -->
<g id="edge20" class="edge"><title>q6&#45;&gt;q7</title>
<path fill="none" stroke="black" d="M82,-376.382C82,-363.538 82,-346.216 82,-331.627"/>
<polygon fill="black" stroke="black" points="85.5001,-331.59 82,-321.59 78.5001,-331.59 85.5001,-331.59"/>
<text text-anchor="middle" x="86.5" y="-345.4" font-family="Times Roman,serif" font-size="14.00">a</text>
</g>
<!-- q2 -->
<g id="node5" class="node"><title>q2</title>
<ellipse fill="none" stroke="black" cx="109" cy="-211" rx="27" ry="18.3848"/>
<text text-anchor="middle" x="109" y="-207.4" font-family="Times Roman,serif" font-size="14.00">q2</text>
</g>
<!-- q2&#45;&gt;q7 -->
<g id="edge6" class="edge"><title>q2&#45;&gt;q7</title>
<path fill="none" stroke="black" d="M97.4188,-228.014C93.8239,-234.076 90.225,-241.112 88,-248 85.3132,-256.318 83.7784,-265.672 82.9161,-274.274"/>
<polygon fill="black" stroke="black" points="79.4239,-274.041 82.1656,-284.275 86.4042,-274.565 79.4239,-274.041"/>
<text text-anchor="middle" x="92.5" y="-253.4" font-family="Times Roman,serif" font-size="14.00">b</text>
</g>
<!-- q4 -->
<g id="node9" class="node"><title>q4</title>
<ellipse fill="none" stroke="black" cx="109" cy="-119" rx="27" ry="18.3848"/>
<text text-anchor="middle" x="109" y="-115.4" font-family="Times Roman,serif" font-size="14.00">q4</text>
</g>
<!-- q2&#45;&gt;q4 -->
<g id="edge8" class="edge"><title>q2&#45;&gt;q4</title>
<path fill="none" stroke="black" d="M109,-192.382C109,-179.538 109,-162.216 109,-147.627"/>
<polygon fill="black" stroke="black" points="112.5,-147.59 109,-137.59 105.5,-147.59 112.5,-147.59"/>
<text text-anchor="middle" x="113.5" y="-161.4" font-family="Times Roman,serif" font-size="14.00">a</text>
</g>
<!-- q7&#45;&gt;q2 -->
<g id="edge22" class="edge"><title>q7&#45;&gt;q2</title>
<path fill="none" stroke="black" d="M89.9496,-285.157C92.4327,-279.149 95.0336,-272.357 97,-266 99.6281,-257.504 101.904,-248.098 103.746,-239.503"/>
<polygon fill="black" stroke="black" points="107.21,-240.034 105.773,-229.537 100.35,-238.639 107.21,-240.034"/>
<text text-anchor="middle" x="105.5" y="-253.4" font-family="Times Roman,serif" font-size="14.00">b</text>
</g>
<!-- q7&#45;&gt;q7 -->
<g id="edge24" class="edge"><title>q7&#45;&gt;q7</title>
<path fill="none" stroke="black" d="M106.074,-311.454C117.242,-312.377 127,-309.559 127,-303 127,-298.593 122.595,-295.875 116.317,-294.846"/>
<polygon fill="black" stroke="black" points="116.173,-291.34 106.074,-294.546 115.967,-298.337 116.173,-291.34"/>
<text text-anchor="middle" x="131.5" y="-299.4" font-family="Times Roman,serif" font-size="14.00">a</text>
</g>
<!-- q8 -->
<g id="node11" class="node"><title>q8</title>
<ellipse fill="none" stroke="black" cx="130" cy="-23" rx="27" ry="18.3848"/>
<ellipse fill="none" stroke="black" cx="130" cy="-23" rx="31" ry="22.3848"/>
<text text-anchor="middle" x="130" y="-19.4" font-family="Times Roman,serif" font-size="14.00">q8</text>
</g>
<!-- q4&#45;&gt;q8 -->
<g id="edge10" class="edge"><title>q4&#45;&gt;q8</title>
<path fill="none" stroke="black" d="M113.049,-100.49C115.838,-87.7407 119.618,-70.459 122.901,-55.451"/>
<polygon fill="black" stroke="black" points="126.359,-56.0247 125.076,-45.5077 119.52,-54.5288 126.359,-56.0247"/>
<text text-anchor="middle" x="124.5" y="-69.4" font-family="Times Roman,serif" font-size="14.00">b</text>
</g>
<!-- q9 -->
<g id="node13" class="node"><title>q9</title>
<ellipse fill="none" stroke="black" cx="54" cy="-23" rx="27" ry="18.3848"/>
<text text-anchor="middle" x="54" y="-19.4" font-family="Times Roman,serif" font-size="14.00">q9</text>
</g>
<!-- q4&#45;&gt;q9 -->
<g id="edge12" class="edge"><title>q4&#45;&gt;q9</title>
<path fill="none" stroke="black" d="M98.9122,-101.392C90.539,-86.7771 78.5072,-65.7762 69.004,-49.1888"/>
<polygon fill="black" stroke="black" points="72.032,-47.4332 64.0239,-40.4963 65.9582,-50.913 72.032,-47.4332"/>
<text text-anchor="middle" x="90.5" y="-69.4" font-family="Times Roman,serif" font-size="14.00">a</text>
</g>
<!-- q8&#45;&gt;q8 -->
<g id="edge26" class="edge"><title>q8&#45;&gt;q8</title>
<path fill="none" stroke="black" d="M160.625,-27.6875C170.833,-27.6875 179,-26.125 179,-23 179,-21.0469 175.81,-19.7041 170.925,-18.9717"/>
<polygon fill="black" stroke="black" points="170.828,-15.4584 160.625,-18.3125 170.381,-22.4441 170.828,-15.4584"/>
<text text-anchor="middle" x="183.5" y="-19.4" font-family="Times Roman,serif" font-size="14.00">b</text>
</g>
<!-- q8&#45;&gt;q8 -->
<g id="edge28" class="edge"><title>q8&#45;&gt;q8</title>
<path fill="none" stroke="black" d="M153.347,-37.9505C174.424,-45.2237 197,-40.2402 197,-23 197,-8.45355 180.928,-2.63284 163.245,-5.53787"/>
<polygon fill="black" stroke="black" points="162.179,-2.19731 153.347,-8.04948 163.901,-8.98227 162.179,-2.19731"/>
<text text-anchor="middle" x="201.5" y="-19.4" font-family="Times Roman,serif" font-size="14.00">a</text>
</g>
<!-- q9&#45;&gt;q0 -->
<g id="edge30" class="edge"><title>q9&#45;&gt;q0</title>
<path fill="none" stroke="black" d="M42.8043,-39.8941C31.5952,-58.4726 16,-89.6032 16,-119 16,-395 16,-395 16,-395 16,-417.683 19.0687,-443.187 21.9645,-462.203"/>
<polygon fill="black" stroke="black" points="18.5454,-462.987 23.5798,-472.309 25.4577,-461.882 18.5454,-462.987"/>
<text text-anchor="middle" x="20.5" y="-253.4" font-family="Times Roman,serif" font-size="14.00">b</text>
</g>
<!-- q9&#45;&gt;q7 -->
<g id="edge32" class="edge"><title>q9&#45;&gt;q7</title>
<path fill="none" stroke="black" d="M55.5097,-41.5747C58.5,-77.8341 65.5354,-160.569 73,-230 74.5725,-244.627 76.5523,-260.872 78.2544,-274.318"/>
<polygon fill="black" stroke="black" points="74.8056,-274.941 79.5468,-284.416 81.7489,-274.052 74.8056,-274.941"/>
<text text-anchor="middle" x="71.5" y="-161.4" font-family="Times Roman,serif" font-size="14.00">a</text>
</g>
<!-- q5 -->
<g id="node14" class="node"><title>q5</title>
<ellipse fill="none" stroke="black" cx="136" cy="-491" rx="27" ry="18.3848"/>
<ellipse fill="none" stroke="black" cx="136" cy="-491" rx="31" ry="22.3848"/>
<text text-anchor="middle" x="136" y="-487.4" font-family="Times Roman,serif" font-size="14.00">q5</text>
</g>
<!-- q5&#45;&gt;q6 -->
<g id="edge14" class="edge"><title>q5&#45;&gt;q6</title>
<path fill="none" stroke="black" d="M124.016,-469.694C115.987,-455.422 105.362,-436.533 96.8055,-421.321"/>
<polygon fill="black" stroke="black" points="99.74,-419.399 91.7868,-412.399 93.639,-422.83 99.74,-419.399"/>
<text text-anchor="middle" x="116.5" y="-437.4" font-family="Times Roman,serif" font-size="14.00">b</text>
</g>
<!-- q5&#45;&gt;q9 -->
<g id="edge16" class="edge"><title>q5&#45;&gt;q9</title>
<path fill="none" stroke="black" d="M146.109,-469.407C154.129,-450.285 164,-421.389 164,-395 164,-395 164,-395 164,-119 164,-90.9401 153.966,-82.6493 133,-64 117.52,-50.2303 108.353,-55.6127 90,-46 87.4131,-44.645 84.7702,-43.1628 82.1499,-41.6244"/>
<polygon fill="black" stroke="black" points="83.7958,-38.528 73.4418,-36.2815 80.135,-44.4945 83.7958,-38.528"/>
<text text-anchor="middle" x="168.5" y="-253.4" font-family="Times Roman,serif" font-size="14.00">a</text>
</g>
</g>
</svg>
