<?xml version="1.0" encoding="UTF-8" standalone="no"?>
<!DOCTYPE svg PUBLIC "-//W3C//DTD SVG 1.1//EN"
 "http://www.w3.org/Graphics/SVG/1.1/DTD/svg11.dtd">
<!-- Generated by graphviz version 2.26.3 (20100126.1600)
 -->
<!-- Title: G Pages: 1 -->
<svg width="212pt" height="614pt"
 viewBox="0.00 0.00 212.00 614.00" xmlns="http://www.w3.org/2000/svg" xmlns:xlink="http://www.w3.org/1999/xlink">
<g id="graph1" class="graph" transform="scale(1 1) rotate(0) translate(4 610)">
<title>G</title>
<polygon fill="white" stroke="white" points="-4,5 -4,-610 209,-610 209,5 -4,5"/>
<!-- q0 -->
<g id="node1" class="node"><title>q0</title>
<ellipse fill="none" stroke="black" cx="64" cy="-395" rx="27" ry="18.3848"/>
<text text-anchor="middle" x="64" y="-391.4" font-family="Times Roman,serif" font-size="14.00">q0</text>
</g>
<!-- q0&#45;&gt;q0 -->
<g id="edge2" class="edge"><title>q0&#45;&gt;q0</title>
<path fill="none" stroke="black" d="M88.0743,-403.454C99.2423,-404.377 109,-401.559 109,-395 109,-390.593 104.595,-387.875 98.3174,-386.846"/>
<polygon fill="black" stroke="black" points="98.1726,-383.34 88.0743,-386.546 97.9674,-390.337 98.1726,-383.34"/>
<text text-anchor="middle" x="113.5" y="-391.4" font-family="Times Roman,serif" font-size="14.00">b</text>
</g>
<!-- q6 -->
<g id="node4" class="node"><title>q6</title>
<ellipse fill="none" stroke="black" cx="64" cy="-303" rx="27" ry="18.3848"/>
<text text-anchor="middle" x="64" y="-299.4" font-family="Times Roman,serif" font-size="14.00">q6</text>
</g>
<!-- q0&#45;&gt;q6 -->
<g id="edge4" class="edge"><title>q0&#45;&gt;q6</title>
<path fill="none" stroke="black" d="M64,-376.382C64,-363.538 64,-346.216 64,-331.627"/>
<polygon fill="black" stroke="black" points="67.5001,-331.59 64,-321.59 60.5001,-331.59 67.5001,-331.59"/>
<text text-anchor="middle" x="68.5" y="-345.4" font-family="Times Roman,serif" font-size="14.00">a</text>
</g>
<!-- q6&#45;&gt;q6 -->
<g id="edge14" class="edge"><title>q6&#45;&gt;q6</title>
<path fill="none" stroke="black" d="M88.0743,-311.454C99.2423,-312.377 109,-309.559 109,-303 109,-298.593 104.595,-295.875 98.3174,-294.846"/>
<polygon fill="black" stroke="black" points="98.1726,-291.34 88.0743,-294.546 97.9674,-298.337 98.1726,-291.34"/>
<text text-anchor="middle" x="113.5" y="-299.4" font-family="Times Roman,serif" font-size="14.00">b</text>
</g>
<!-- q7 -->
<g id="node7" class="node"><title>q7</title>
<ellipse fill="none" stroke="black" cx="119" cy="-211" rx="27" ry="18.3848"/>
<text text-anchor="middle" x="119" y="-207.4" font-family="Times Roman,serif" font-size="14.00">q7</text>
</g>
<!-- q6&#45;&gt;q7 -->
<g id="edge16" class="edge"><title>q6&#45;&gt;q7</title>
<path fill="none" stroke="black" d="M74.3451,-285.696C82.565,-271.946 94.1895,-252.501 103.518,-236.898"/>
<polygon fill="black" stroke="black" points="106.574,-238.606 108.701,-228.227 100.566,-235.014 106.574,-238.606"/>
<text text-anchor="middle" x="100.5" y="-253.4" font-family="Times Roman,serif" font-size="14.00">a</text>
</g>
<!-- q2 -->
<g id="node5" class="node"><title>q2</title>
<ellipse fill="none" stroke="black" cx="119" cy="-119" rx="27" ry="18.3848"/>
<text text-anchor="middle" x="119" y="-115.4" font-family="Times Roman,serif" font-size="14.00">q2</text>
</g>
<!-- q2&#45;&gt;q7 -->
<g id="edge6" class="edge"><title>q2&#45;&gt;q7</title>
<path fill="none" stroke="black" d="M119,-137.59C119,-150.428 119,-167.748 119,-182.342"/>
<polygon fill="black" stroke="black" points="115.5,-182.382 119,-192.382 122.5,-182.382 115.5,-182.382"/>
<text text-anchor="middle" x="123.5" y="-161.4" font-family="Times Roman,serif" font-size="14.00">b</text>
</g>
<!-- q8 -->
<g id="node9" class="node"><title>q8</title>
<ellipse fill="none" stroke="black" cx="119" cy="-23" rx="27" ry="18.3848"/>
<ellipse fill="none" stroke="black" cx="119" cy="-23" rx="31" ry="22.3848"/>
<text text-anchor="middle" x="119" y="-19.4" font-family="Times Roman,serif" font-size="14.00">q8</text>
</g>
<!-- q2&#45;&gt;q8 -->
<g id="edge8" class="edge"><title>q2&#45;&gt;q8</title>
<path fill="none" stroke="black" d="M119,-100.49C119,-87.8633 119,-70.791 119,-55.8846"/>
<polygon fill="black" stroke="black" points="122.5,-55.5077 119,-45.5077 115.5,-55.5078 122.5,-55.5077"/>
<text text-anchor="middle" x="123.5" y="-69.4" font-family="Times Roman,serif" font-size="14.00">a</text>
</g>
<!-- q7&#45;&gt;q2 -->
<g id="edge18" class="edge"><title>q7&#45;&gt;q2</title>
<path fill="none" stroke="black" d="M111.264,-192.882C109.115,-186.973 107.076,-180.309 106,-174 104.655,-166.114 104.655,-163.886 106,-156 106.521,-152.944 107.268,-149.805 108.144,-146.708"/>
<polygon fill="black" stroke="black" points="111.499,-147.711 111.264,-137.118 104.842,-145.545 111.499,-147.711"/>
<text text-anchor="middle" x="110.5" y="-161.4" font-family="Times Roman,serif" font-size="14.00">b</text>
</g>
<!-- q7&#45;&gt;q7 -->
<g id="edge20" class="edge"><title>q7&#45;&gt;q7</title>
<path fill="none" stroke="black" d="M143.074,-219.454C154.242,-220.377 164,-217.559 164,-211 164,-206.593 159.595,-203.875 153.317,-202.846"/>
<polygon fill="black" stroke="black" points="153.173,-199.34 143.074,-202.546 152.967,-206.337 153.173,-199.34"/>
<text text-anchor="middle" x="168.5" y="-207.4" font-family="Times Roman,serif" font-size="14.00">a</text>
</g>
<!-- q8&#45;&gt;q8 -->
<g id="edge22" class="edge"><title>q8&#45;&gt;q8</title>
<path fill="none" stroke="black" d="M149.625,-27.6875C159.833,-27.6875 168,-26.125 168,-23 168,-21.0469 164.81,-19.7041 159.925,-18.9717"/>
<polygon fill="black" stroke="black" points="159.828,-15.4584 149.625,-18.3125 159.381,-22.4441 159.828,-15.4584"/>
<text text-anchor="middle" x="172.5" y="-19.4" font-family="Times Roman,serif" font-size="14.00">b</text>
</g>
<!-- q8&#45;&gt;q8 -->
<g id="edge24" class="edge"><title>q8&#45;&gt;q8</title>
<path fill="none" stroke="black" d="M142.347,-37.9505C163.424,-45.2237 186,-40.2402 186,-23 186,-8.45355 169.928,-2.63284 152.245,-5.53787"/>
<polygon fill="black" stroke="black" points="151.179,-2.19731 142.347,-8.04948 152.901,-8.98227 151.179,-2.19731"/>
<text text-anchor="middle" x="190.5" y="-19.4" font-family="Times Roman,serif" font-size="14.00">a</text>
</g>
<!-- q5 -->
<g id="node10" class="node"><title>q5</title>
<ellipse fill="none" stroke="black" cx="31" cy="-583" rx="27" ry="18.3848"/>
<ellipse fill="none" stroke="black" cx="31" cy="-583" rx="31" ry="22.3848"/>
<text text-anchor="middle" x="31" y="-579.4" font-family="Times Roman,serif" font-size="14.00">q5</text>
</g>
<!-- q5&#45;&gt;q6 -->
<g id="edge10" class="edge"><title>q5&#45;&gt;q6</title>
<path fill="none" stroke="black" d="M27.1836,-560.566C21.4199,-522.165 12.6972,-441.629 28,-376 31.8586,-359.451 40.0354,-342.343 47.6222,-328.851"/>
<polygon fill="black" stroke="black" points="50.6899,-330.539 52.7201,-320.14 44.6485,-327.003 50.6899,-330.539"/>
<text text-anchor="middle" x="24.5" y="-437.4" font-family="Times Roman,serif" font-size="14.00">b</text>
</g>
<!-- q9 -->
<g id="node13" class="node"><title>q9</title>
<ellipse fill="none" stroke="black" cx="64" cy="-487" rx="27" ry="18.3848"/>
<text text-anchor="middle" x="64" y="-483.4" font-family="Times Roman,serif" font-size="14.00">q9</text>
</g>
<!-- q5&#45;&gt;q9 -->
<g id="edge12" class="edge"><title>q5&#45;&gt;q9</title>
<path fill="none" stroke="black" d="M38.6538,-560.734C43.3567,-547.053 49.4209,-529.412 54.4384,-514.816"/>
<polygon fill="black" stroke="black" points="57.7743,-515.878 57.7153,-505.283 51.1545,-513.602 57.7743,-515.878"/>
<text text-anchor="middle" x="54.5" y="-529.4" font-family="Times Roman,serif" font-size="14.00">a</text>
</g>
<!-- q9&#45;&gt;q0 -->
<g id="edge26" class="edge"><title>q9&#45;&gt;q0</title>
<path fill="none" stroke="black" d="M64,-468.382C64,-455.538 64,-438.216 64,-423.627"/>
<polygon fill="black" stroke="black" points="67.5001,-423.59 64,-413.59 60.5001,-423.59 67.5001,-423.59"/>
<text text-anchor="middle" x="68.5" y="-437.4" font-family="Times Roman,serif" font-size="14.00">b</text>
</g>
<!-- q9&#45;&gt;q7 -->
<g id="edge28" class="edge"><title>q9&#45;&gt;q7</title>
<path fill="none" stroke="black" d="M81.755,-472.976C97.0416,-459.673 118.015,-438.164 127,-414 148.948,-354.975 136.39,-279.539 126.781,-239.294"/>
<polygon fill="black" stroke="black" points="130.125,-238.237 124.303,-229.385 123.334,-239.936 130.125,-238.237"/>
<text text-anchor="middle" x="143.5" y="-345.4" font-family="Times Roman,serif" font-size="14.00">a</text>
</g>
</g>
</svg>
