<?xml version="1.0" encoding="UTF-8" standalone="no"?>
<!DOCTYPE svg PUBLIC "-//W3C//DTD SVG 1.1//EN"
 "http://www.w3.org/Graphics/SVG/1.1/DTD/svg11.dtd">
<!-- Generated by graphviz version 2.26.3 (20100126.1600)
 -->
<!-- Title: G Pages: 1 -->
<svg width="206pt" height="414pt"
 viewBox="0.00 0.00 205.74 414.00" xmlns="http://www.w3.org/2000/svg" xmlns:xlink="http://www.w3.org/1999/xlink">
<g id="graph1" class="graph" transform="scale(1 1) rotate(0) translate(4 410)">
<title>G</title>
<polygon fill="white" stroke="white" points="-4,5 -4,-410 202.737,-410 202.737,5 -4,5"/>
<!-- q5 -->
<g id="node1" class="node"><title>q5</title>
<ellipse fill="none" stroke="black" cx="87.7373" cy="-295" rx="27" ry="18.3848"/>
<text text-anchor="middle" x="87.7373" y="-291.4" font-family="Times Roman,serif" font-size="14.00">q5</text>
</g>
<!-- q2 -->
<g id="node3" class="node"><title>q2</title>
<ellipse fill="none" stroke="black" cx="35.7373" cy="-111" rx="27" ry="18.3848"/>
<text text-anchor="middle" x="35.7373" y="-107.4" font-family="Times Roman,serif" font-size="14.00">q2</text>
</g>
<!-- q5&#45;&gt;q2 -->
<g id="edge2" class="edge"><title>q5&#45;&gt;q2</title>
<path fill="none" stroke="black" d="M63.579,-286.306C49.3491,-280.189 31.8262,-270.8 19.7373,-258 7.58804,-245.136 6.60886,-239.265 2.73727,-222 -0.958108,-205.52 -0.821052,-200.51 2.73727,-184 6.22714,-167.808 13.6118,-150.882 20.5123,-137.41"/>
<polygon fill="black" stroke="black" points="23.7692,-138.741 25.3886,-128.271 17.5933,-135.446 23.7692,-138.741"/>
<text text-anchor="middle" x="7.23727" y="-199.4" font-family="Times Roman,serif" font-size="14.00">b</text>
</g>
<!-- q3 -->
<g id="node5" class="node"><title>q3</title>
<ellipse fill="none" stroke="black" cx="87.7373" cy="-203" rx="27" ry="18.3848"/>
<text text-anchor="middle" x="87.7373" y="-199.4" font-family="Times Roman,serif" font-size="14.00">q3</text>
</g>
<!-- q5&#45;&gt;q3 -->
<g id="edge4" class="edge"><title>q5&#45;&gt;q3</title>
<path fill="none" stroke="black" d="M87.7373,-276.382C87.7373,-263.538 87.7373,-246.216 87.7373,-231.627"/>
<polygon fill="black" stroke="black" points="91.2374,-231.59 87.7373,-221.59 84.2374,-231.59 91.2374,-231.59"/>
<text text-anchor="middle" x="92.2373" y="-245.4" font-family="Times Roman,serif" font-size="14.00">a</text>
</g>
<!-- q2&#45;&gt;q5 -->
<g id="edge6" class="edge"><title>q2&#45;&gt;q5</title>
<path fill="none" stroke="black" d="M34.2105,-129.572C32.9708,-152.033 32.7955,-190.716 42.7373,-222 48.2856,-239.459 58.8965,-256.999 68.4214,-270.51"/>
<polygon fill="black" stroke="black" points="65.7308,-272.76 74.4598,-278.764 71.3806,-268.627 65.7308,-272.76"/>
<text text-anchor="middle" x="47.2373" y="-199.4" font-family="Times Roman,serif" font-size="14.00">b</text>
</g>
<!-- q4 -->
<g id="node8" class="node"><title>q4</title>
<ellipse fill="none" stroke="black" cx="121.737" cy="-19" rx="27" ry="18.3848"/>
<text text-anchor="middle" x="121.737" y="-15.4" font-family="Times Roman,serif" font-size="14.00">q4</text>
</g>
<!-- q2&#45;&gt;q4 -->
<g id="edge8" class="edge"><title>q2&#45;&gt;q4</title>
<path fill="none" stroke="black" d="M47.7236,-93.9364C55.9338,-82.7035 67.3584,-67.9264 78.7373,-56 84.0656,-50.4153 90.1617,-44.7822 96.056,-39.6537"/>
<polygon fill="black" stroke="black" points="98.5116,-42.1605 103.878,-33.0251 93.9859,-36.8202 98.5116,-42.1605"/>
<text text-anchor="middle" x="83.2373" y="-61.4" font-family="Times Roman,serif" font-size="14.00">a</text>
</g>
<!-- q3&#45;&gt;q2 -->
<g id="edge14" class="edge"><title>q3&#45;&gt;q2</title>
<path fill="none" stroke="black" d="M77.9565,-185.696C70.3063,-172.161 59.5369,-153.107 50.7899,-137.632"/>
<polygon fill="black" stroke="black" points="53.6186,-135.523 45.651,-128.54 47.5247,-138.968 53.6186,-135.523"/>
<text text-anchor="middle" x="70.2373" y="-153.4" font-family="Times Roman,serif" font-size="14.00">b</text>
</g>
<!-- q3&#45;&gt;q4 -->
<g id="edge16" class="edge"><title>q3&#45;&gt;q4</title>
<path fill="none" stroke="black" d="M91.1845,-184.345C97.1565,-152.025 109.461,-85.4384 116.496,-47.3624"/>
<polygon fill="black" stroke="black" points="119.956,-47.9008 118.331,-37.4313 113.073,-46.6288 119.956,-47.9008"/>
<text text-anchor="middle" x="112.237" y="-107.4" font-family="Times Roman,serif" font-size="14.00">a</text>
</g>
<!-- q4&#45;&gt;q5 -->
<g id="edge12" class="edge"><title>q4&#45;&gt;q5</title>
<path fill="none" stroke="black" d="M124.926,-37.5435C130.485,-73.6695 139.896,-155.743 123.737,-222 119.711,-238.509 111.524,-255.615 103.974,-269.115"/>
<polygon fill="black" stroke="black" points="100.906,-267.429 98.9071,-277.834 106.958,-270.946 100.906,-267.429"/>
<text text-anchor="middle" x="136.237" y="-153.4" font-family="Times Roman,serif" font-size="14.00">a</text>
</g>
<!-- q4&#45;&gt;q4 -->
<g id="edge10" class="edge"><title>q4&#45;&gt;q4</title>
<path fill="none" stroke="black" d="M145.812,-27.4544C156.98,-28.3767 166.737,-25.5586 166.737,-19 166.737,-14.5934 162.332,-11.8754 156.055,-10.8458"/>
<polygon fill="black" stroke="black" points="155.91,-7.34018 145.812,-10.5456 155.705,-14.3372 155.91,-7.34018"/>
<text text-anchor="middle" x="171.237" y="-15.4" font-family="Times Roman,serif" font-size="14.00">b</text>
</g>
<!-- q0 -->
<g id="node13" class="node"><title>q0</title>
<ellipse fill="none" stroke="black" cx="157.737" cy="-387" rx="27" ry="18.3848"/>
<text text-anchor="middle" x="157.737" y="-383.4" font-family="Times Roman,serif" font-size="14.00">q0</text>
</g>
<!-- q0&#45;&gt;q5 -->
<g id="edge18" class="edge"><title>q0&#45;&gt;q5</title>
<path fill="none" stroke="black" d="M145.223,-370.552C134.44,-356.38 118.719,-335.718 106.441,-319.583"/>
<polygon fill="black" stroke="black" points="109.22,-317.455 100.38,-311.616 103.649,-321.693 109.22,-317.455"/>
<text text-anchor="middle" x="133.237" y="-337.4" font-family="Times Roman,serif" font-size="14.00">b</text>
</g>
<!-- q0&#45;&gt;q4 -->
<g id="edge20" class="edge"><title>q0&#45;&gt;q4</title>
<path fill="none" stroke="black" d="M167.376,-369.606C176.476,-351.528 188.737,-322.136 188.737,-295 188.737,-295 188.737,-295 188.737,-111 188.737,-82.1273 166.908,-56.2409 148.169,-39.3387"/>
<polygon fill="black" stroke="black" points="150.266,-36.5256 140.401,-32.6625 145.704,-41.8346 150.266,-36.5256"/>
<text text-anchor="middle" x="193.237" y="-199.4" font-family="Times Roman,serif" font-size="14.00">a</text>
</g>
</g>
</svg>
