<?xml version="1.0" encoding="UTF-8" standalone="no"?>
<!DOCTYPE svg PUBLIC "-//W3C//DTD SVG 1.1//EN"
 "http://www.w3.org/Graphics/SVG/1.1/DTD/svg11.dtd">
<!-- Generated by graphviz version 2.26.3 (20100126.1600)
 -->
<!-- Title: G Pages: 1 -->
<svg width="322pt" height="790pt"
 viewBox="0.00 0.00 322.00 790.00" xmlns="http://www.w3.org/2000/svg" xmlns:xlink="http://www.w3.org/1999/xlink">
<g id="graph1" class="graph" transform="scale(1 1) rotate(0) translate(4 786)">
<title>G</title>
<polygon fill="white" stroke="white" points="-4,5 -4,-786 319,-786 319,5 -4,5"/>
<!-- q0 -->
<g id="node1" class="node"><title>q0</title>
<ellipse fill="none" stroke="black" cx="104" cy="-671" rx="27" ry="18.3848"/>
<text text-anchor="middle" x="104" y="-667.4" font-family="Times Roman,serif" font-size="14.00">q0</text>
</g>
<!-- q0&#45;&gt;q0 -->
<g id="edge4" class="edge"><title>q0&#45;&gt;q0</title>
<path fill="none" stroke="black" d="M128.074,-679.454C139.242,-680.377 149,-677.559 149,-671 149,-666.593 144.595,-663.875 138.317,-662.846"/>
<polygon fill="black" stroke="black" points="138.173,-659.34 128.074,-662.546 137.967,-666.337 138.173,-659.34"/>
<text text-anchor="middle" x="153.5" y="-667.4" font-family="Times Roman,serif" font-size="14.00">a</text>
</g>
<!-- q3 -->
<g id="node3" class="node"><title>q3</title>
<ellipse fill="none" stroke="black" cx="115" cy="-579" rx="27" ry="18.3848"/>
<text text-anchor="middle" x="115" y="-575.4" font-family="Times Roman,serif" font-size="14.00">q3</text>
</g>
<!-- q0&#45;&gt;q3 -->
<g id="edge2" class="edge"><title>q0&#45;&gt;q3</title>
<path fill="none" stroke="black" d="M106.226,-652.382C107.762,-639.538 109.833,-622.216 111.577,-607.627"/>
<polygon fill="black" stroke="black" points="115.065,-607.935 112.777,-597.59 108.115,-607.104 115.065,-607.935"/>
<text text-anchor="middle" x="114.5" y="-621.4" font-family="Times Roman,serif" font-size="14.00">b</text>
</g>
<!-- q2 -->
<g id="node5" class="node"><title>q2</title>
<ellipse fill="none" stroke="black" cx="193" cy="-487" rx="27" ry="18.3848"/>
<text text-anchor="middle" x="193" y="-483.4" font-family="Times Roman,serif" font-size="14.00">q2</text>
</g>
<!-- q3&#45;&gt;q2 -->
<g id="edge12" class="edge"><title>q3&#45;&gt;q2</title>
<path fill="none" stroke="black" d="M128.587,-562.975C140.704,-548.683 158.617,-527.554 172.48,-511.203"/>
<polygon fill="black" stroke="black" points="175.51,-513.041 179.307,-503.15 170.171,-508.514 175.51,-513.041"/>
<text text-anchor="middle" x="164.5" y="-529.4" font-family="Times Roman,serif" font-size="14.00">a</text>
</g>
<!-- q10 -->
<g id="node11" class="node"><title>q10</title>
<ellipse fill="none" stroke="black" cx="157" cy="-19" rx="29.9071" ry="18.3848"/>
<text text-anchor="middle" x="157" y="-15.4" font-family="Times Roman,serif" font-size="14.00">q10</text>
</g>
<!-- q3&#45;&gt;q10 -->
<g id="edge10" class="edge"><title>q3&#45;&gt;q10</title>
<path fill="none" stroke="black" d="M140.624,-572.345C192.486,-558.12 305,-523.1 305,-487 305,-487 305,-487 305,-111 305,-59.6358 239.907,-35.9366 196.059,-25.7991"/>
<polygon fill="black" stroke="black" points="196.755,-22.3686 186.24,-23.6703 195.271,-29.2097 196.755,-22.3686"/>
<text text-anchor="middle" x="309.5" y="-291.4" font-family="Times Roman,serif" font-size="14.00">b</text>
</g>
<!-- q4 -->
<g id="node7" class="node"><title>q4</title>
<ellipse fill="none" stroke="black" cx="229" cy="-391" rx="27" ry="18.3848"/>
<ellipse fill="none" stroke="black" cx="229" cy="-391" rx="31" ry="22.3848"/>
<text text-anchor="middle" x="229" y="-387.4" font-family="Times Roman,serif" font-size="14.00">q4</text>
</g>
<!-- q2&#45;&gt;q4 -->
<g id="edge6" class="edge"><title>q2&#45;&gt;q4</title>
<path fill="none" stroke="black" d="M201.737,-469.118C204.533,-463.109 207.539,-456.324 210,-450 213.403,-441.256 216.691,-431.625 219.549,-422.725"/>
<polygon fill="black" stroke="black" points="222.923,-423.662 222.576,-413.073 216.244,-421.568 222.923,-423.662"/>
<text text-anchor="middle" x="220.5" y="-437.4" font-family="Times Roman,serif" font-size="14.00">b</text>
</g>
<!-- q9 -->
<g id="node9" class="node"><title>q9</title>
<ellipse fill="none" stroke="black" cx="157" cy="-203" rx="27" ry="18.3848"/>
<text text-anchor="middle" x="157" y="-199.4" font-family="Times Roman,serif" font-size="14.00">q9</text>
</g>
<!-- q2&#45;&gt;q9 -->
<g id="edge8" class="edge"><title>q2&#45;&gt;q9</title>
<path fill="none" stroke="black" d="M190.638,-468.366C184.497,-419.922 167.998,-289.763 160.635,-231.674"/>
<polygon fill="black" stroke="black" points="164.101,-231.183 159.371,-221.703 157.156,-232.063 164.101,-231.183"/>
<text text-anchor="middle" x="179.5" y="-337.4" font-family="Times Roman,serif" font-size="14.00">a</text>
</g>
<!-- q4&#45;&gt;q2 -->
<g id="edge16" class="edge"><title>q4&#45;&gt;q2</title>
<path fill="none" stroke="black" d="M213.089,-410.407C208.501,-416.918 203.944,-424.451 201,-432 197.785,-440.245 195.847,-449.641 194.683,-458.305"/>
<polygon fill="black" stroke="black" points="191.189,-458.071 193.614,-468.385 198.15,-458.809 191.189,-458.071"/>
<text text-anchor="middle" x="205.5" y="-437.4" font-family="Times Roman,serif" font-size="14.00">a</text>
</g>
<!-- q8 -->
<g id="node14" class="node"><title>q8</title>
<ellipse fill="none" stroke="black" cx="229" cy="-295" rx="27" ry="18.3848"/>
<text text-anchor="middle" x="229" y="-291.4" font-family="Times Roman,serif" font-size="14.00">q8</text>
</g>
<!-- q4&#45;&gt;q8 -->
<g id="edge14" class="edge"><title>q4&#45;&gt;q8</title>
<path fill="none" stroke="black" d="M229,-368.249C229,-354.994 229,-338.148 229,-323.954"/>
<polygon fill="black" stroke="black" points="232.5,-323.72 229,-313.72 225.5,-323.72 232.5,-323.72"/>
<text text-anchor="middle" x="233.5" y="-337.4" font-family="Times Roman,serif" font-size="14.00">b</text>
</g>
<!-- q9&#45;&gt;q3 -->
<g id="edge30" class="edge"><title>q9&#45;&gt;q3</title>
<path fill="none" stroke="black" d="M154.905,-221.758C148.085,-282.81 126.489,-476.142 118.243,-549.964"/>
<polygon fill="black" stroke="black" points="114.715,-550.027 117.083,-560.354 121.671,-550.804 114.715,-550.027"/>
<text text-anchor="middle" x="142.5" y="-387.4" font-family="Times Roman,serif" font-size="14.00">b</text>
</g>
<!-- q9&#45;&gt;q10 -->
<g id="edge40" class="edge"><title>q9&#45;&gt;q10</title>
<path fill="none" stroke="black" d="M157,-184.345C157,-152.247 157,-86.3485 157,-48.1485"/>
<polygon fill="black" stroke="black" points="160.5,-47.7048 157,-37.7049 153.5,-47.7049 160.5,-47.7048"/>
<text text-anchor="middle" x="161.5" y="-107.4" font-family="Times Roman,serif" font-size="14.00">a</text>
</g>
<!-- q9&#45;&gt;q8 -->
<g id="edge32" class="edge"><title>q9&#45;&gt;q8</title>
<path fill="none" stroke="black" d="M174.841,-217.454C182.192,-223.907 190.492,-231.88 197,-240 203.943,-248.663 210.367,-259.001 215.609,-268.363"/>
<polygon fill="black" stroke="black" points="212.603,-270.164 220.432,-277.302 218.763,-266.84 212.603,-270.164"/>
<text text-anchor="middle" x="213.5" y="-245.4" font-family="Times Roman,serif" font-size="14.00">a</text>
</g>
<!-- q5 -->
<g id="node16" class="node"><title>q5</title>
<ellipse fill="none" stroke="black" cx="217" cy="-111" rx="27" ry="18.3848"/>
<text text-anchor="middle" x="217" y="-107.4" font-family="Times Roman,serif" font-size="14.00">q5</text>
</g>
<!-- q9&#45;&gt;q5 -->
<g id="edge38" class="edge"><title>q9&#45;&gt;q5</title>
<path fill="none" stroke="black" d="M168.286,-185.696C177.309,-171.859 190.095,-152.255 200.303,-136.602"/>
<polygon fill="black" stroke="black" points="203.437,-138.204 205.968,-127.916 197.573,-134.38 203.437,-138.204"/>
<text text-anchor="middle" x="196.5" y="-153.4" font-family="Times Roman,serif" font-size="14.00">b</text>
</g>
<!-- q10&#45;&gt;q3 -->
<g id="edge34" class="edge"><title>q10&#45;&gt;q3</title>
<path fill="none" stroke="black" d="M127.47,-22.8178C81.9904,-30.5359 0,-52.5548 0,-111 0,-487 0,-487 0,-487 0,-528.655 46.5753,-554.552 80.4451,-567.877"/>
<polygon fill="black" stroke="black" points="79.4541,-571.243 90.0467,-571.459 81.9006,-564.684 79.4541,-571.243"/>
<text text-anchor="middle" x="4.5" y="-291.4" font-family="Times Roman,serif" font-size="14.00">b</text>
</g>
<!-- q10&#45;&gt;q3 -->
<g id="edge36" class="edge"><title>q10&#45;&gt;q3</title>
<path fill="none" stroke="black" d="M137.849,-33.6788C118.676,-50.1909 92,-78.9273 92,-111 92,-249 92,-249 92,-249 92,-360.684 105.272,-493.115 111.652,-550.326"/>
<polygon fill="black" stroke="black" points="108.193,-550.881 112.795,-560.424 115.148,-550.094 108.193,-550.881"/>
<text text-anchor="middle" x="97.5" y="-291.4" font-family="Times Roman,serif" font-size="14.00">a</text>
</g>
<!-- q8&#45;&gt;q9 -->
<g id="edge28" class="edge"><title>q8&#45;&gt;q9</title>
<path fill="none" stroke="black" d="M211.046,-281.008C203.396,-274.514 194.71,-266.384 188,-258 181.117,-249.4 174.86,-239.075 169.799,-229.706"/>
<polygon fill="black" stroke="black" points="172.868,-228.021 165.158,-220.755 166.654,-231.243 172.868,-228.021"/>
<text text-anchor="middle" x="192.5" y="-245.4" font-family="Times Roman,serif" font-size="14.00">a</text>
</g>
<!-- q8&#45;&gt;q5 -->
<g id="edge26" class="edge"><title>q8&#45;&gt;q5</title>
<path fill="none" stroke="black" d="M227.783,-276.345C225.69,-244.247 221.392,-178.349 218.901,-140.148"/>
<polygon fill="black" stroke="black" points="222.363,-139.456 218.22,-129.705 215.378,-139.911 222.363,-139.456"/>
<text text-anchor="middle" x="228.5" y="-199.4" font-family="Times Roman,serif" font-size="14.00">b</text>
</g>
<!-- q5&#45;&gt;q10 -->
<g id="edge20" class="edge"><title>q5&#45;&gt;q10</title>
<path fill="none" stroke="black" d="M205.714,-93.6955C196.747,-79.9459 184.066,-60.5012 173.89,-44.8979"/>
<polygon fill="black" stroke="black" points="176.629,-42.6911 168.235,-36.2269 170.766,-46.515 176.629,-42.6911"/>
<text text-anchor="middle" x="196.5" y="-61.4" font-family="Times Roman,serif" font-size="14.00">a</text>
</g>
<!-- q5&#45;&gt;q8 -->
<g id="edge18" class="edge"><title>q5&#45;&gt;q8</title>
<path fill="none" stroke="black" d="M227.731,-128.173C231.131,-134.248 234.619,-141.252 237,-148 250.833,-187.213 250.206,-198.592 254,-240 254.73,-247.967 256.342,-250.351 254,-258 252.723,-262.17 250.801,-266.293 248.578,-270.19"/>
<polygon fill="black" stroke="black" points="245.509,-268.489 243.008,-278.784 251.383,-272.296 245.509,-268.489"/>
<text text-anchor="middle" x="256.5" y="-199.4" font-family="Times Roman,serif" font-size="14.00">b</text>
</g>
<!-- q6 -->
<g id="node19" class="node"><title>q6</title>
<ellipse fill="none" stroke="black" cx="68" cy="-763" rx="27" ry="18.3848"/>
<text text-anchor="middle" x="68" y="-759.4" font-family="Times Roman,serif" font-size="14.00">q6</text>
</g>
<!-- q6&#45;&gt;q0 -->
<g id="edge22" class="edge"><title>q6&#45;&gt;q0</title>
<path fill="none" stroke="black" d="M75.1124,-744.824C80.2897,-731.593 87.3918,-713.443 93.2583,-698.451"/>
<polygon fill="black" stroke="black" points="96.5176,-699.726 96.9023,-689.138 89.9989,-697.175 96.5176,-699.726"/>
<text text-anchor="middle" x="93.5" y="-713.4" font-family="Times Roman,serif" font-size="14.00">b</text>
</g>
<!-- q6&#45;&gt;q9 -->
<g id="edge24" class="edge"><title>q6&#45;&gt;q9</title>
<path fill="none" stroke="black" d="M61.0391,-744.976C54.5938,-726.645 46,-697.276 46,-671 46,-671 46,-671 46,-295 46,-254.624 90.0737,-228.603 122.677,-214.877"/>
<polygon fill="black" stroke="black" points="124.376,-217.968 132.366,-211.01 121.781,-211.466 124.376,-217.968"/>
<text text-anchor="middle" x="50.5" y="-483.4" font-family="Times Roman,serif" font-size="14.00">a</text>
</g>
</g>
</svg>
