<?xml version="1.0" encoding="UTF-8" standalone="no"?>
<!DOCTYPE svg PUBLIC "-//W3C//DTD SVG 1.1//EN"
 "http://www.w3.org/Graphics/SVG/1.1/DTD/svg11.dtd">
<!-- Generated by graphviz version 2.26.3 (20100126.1600)
 -->
<!-- Title: G Pages: 1 -->
<svg width="246pt" height="146pt"
 viewBox="0.00 0.00 246.00 146.00" xmlns="http://www.w3.org/2000/svg" xmlns:xlink="http://www.w3.org/1999/xlink">
<g id="graph1" class="graph" transform="scale(1 1) rotate(0) translate(4 142)">
<title>G</title>
<polygon fill="white" stroke="white" points="-4,5 -4,-142 243,-142 243,5 -4,5"/>
<!-- q2 -->
<g id="node1" class="node"><title>q2</title>
<ellipse fill="none" stroke="black" cx="27" cy="-115" rx="27" ry="18.3848"/>
<text text-anchor="middle" x="27" y="-111.4" font-family="Times Roman,serif" font-size="14.00">q2</text>
</g>
<!-- q2&#45;&gt;q2 -->
<g id="edge2" class="edge"><title>q2&#45;&gt;q2</title>
<path fill="none" stroke="black" d="M53.3466,-119.669C63.5332,-119.877 72,-118.32 72,-115 72,-112.873 68.5252,-111.47 63.3495,-110.791"/>
<polygon fill="black" stroke="black" points="63.4968,-107.294 53.3466,-110.331 63.1753,-114.286 63.4968,-107.294"/>
<text text-anchor="middle" x="76.5" y="-111.4" font-family="Times Roman,serif" font-size="14.00">b</text>
</g>
<!-- q2&#45;&gt;q2 -->
<g id="edge4" class="edge"><title>q2&#45;&gt;q2</title>
<path fill="none" stroke="black" d="M45.7031,-128.641C66.375,-137.734 90,-133.188 90,-115 90,-99.6543 73.181,-94.0195 55.508,-98.0957"/>
<polygon fill="black" stroke="black" points="54.0859,-94.8802 45.7031,-101.359 56.2967,-101.522 54.0859,-94.8802"/>
<text text-anchor="middle" x="94.5" y="-111.4" font-family="Times Roman,serif" font-size="14.00">a</text>
</g>
<!-- q1 -->
<g id="node4" class="node"><title>q1</title>
<ellipse fill="none" stroke="black" cx="157" cy="-115" rx="27" ry="18.3848"/>
<ellipse fill="none" stroke="black" cx="157" cy="-115" rx="31" ry="22.3848"/>
<text text-anchor="middle" x="157" y="-111.4" font-family="Times Roman,serif" font-size="14.00">q1</text>
</g>
<!-- q0 -->
<g id="node6" class="node"><title>q0</title>
<ellipse fill="none" stroke="black" cx="157" cy="-19" rx="27" ry="18.3848"/>
<text text-anchor="middle" x="157" y="-15.4" font-family="Times Roman,serif" font-size="14.00">q0</text>
</g>
<!-- q1&#45;&gt;q0 -->
<g id="edge6" class="edge"><title>q1&#45;&gt;q0</title>
<path fill="none" stroke="black" d="M146.843,-93.5543C142.77,-82.4192 139.552,-68.552 142,-56 142.637,-52.7344 143.562,-49.3927 144.645,-46.1181"/>
<polygon fill="black" stroke="black" points="147.967,-47.2306 148.239,-36.6393 141.421,-44.7494 147.967,-47.2306"/>
<text text-anchor="middle" x="146.5" y="-61.4" font-family="Times Roman,serif" font-size="14.00">b</text>
</g>
<!-- q1&#45;&gt;q0 -->
<g id="edge8" class="edge"><title>q1&#45;&gt;q0</title>
<path fill="none" stroke="black" d="M157,-92.2493C157,-78.9942 157,-62.1479 157,-47.9538"/>
<polygon fill="black" stroke="black" points="160.5,-47.7198 157,-37.7198 153.5,-47.7199 160.5,-47.7198"/>
<text text-anchor="middle" x="161.5" y="-61.4" font-family="Times Roman,serif" font-size="14.00">a</text>
</g>
<!-- q0&#45;&gt;q0 -->
<g id="edge10" class="edge"><title>q0&#45;&gt;q0</title>
<path fill="none" stroke="black" d="M183.347,-23.2957C193.533,-23.4866 202,-22.0547 202,-19 202,-17.0431 198.525,-15.7522 193.35,-15.1273"/>
<polygon fill="black" stroke="black" points="193.486,-11.63 183.347,-14.7043 193.19,-18.6237 193.486,-11.63"/>
<text text-anchor="middle" x="206.5" y="-15.4" font-family="Times Roman,serif" font-size="14.00">b</text>
</g>
<!-- q0&#45;&gt;q0 -->
<g id="edge12" class="edge"><title>q0&#45;&gt;q0</title>
<path fill="none" stroke="black" d="M175.703,-32.3594C196.375,-41.2656 220,-36.8125 220,-19 220,-3.9707 203.181,1.54787 185.508,-2.44429"/>
<polygon fill="black" stroke="black" points="184.126,0.786507 175.703,-5.64062 186.296,-5.86879 184.126,0.786507"/>
<text text-anchor="middle" x="224.5" y="-15.4" font-family="Times Roman,serif" font-size="14.00">a</text>
</g>
</g>
</svg>
