<?xml version="1.0" encoding="UTF-8" standalone="no"?>
<!DOCTYPE svg PUBLIC "-//W3C//DTD SVG 1.1//EN"
 "http://www.w3.org/Graphics/SVG/1.1/DTD/svg11.dtd">
<!-- Generated by graphviz version 2.26.3 (20100126.1600)
 -->
<!-- Title: G Pages: 1 -->
<svg width="272pt" height="790pt"
 viewBox="0.00 0.00 272.00 790.00" xmlns="http://www.w3.org/2000/svg" xmlns:xlink="http://www.w3.org/1999/xlink">
<g id="graph1" class="graph" transform="scale(1 1) rotate(0) translate(4 786)">
<title>G</title>
<polygon fill="white" stroke="white" points="-4,5 -4,-786 269,-786 269,5 -4,5"/>
<!-- q0 -->
<g id="node1" class="node"><title>q0</title>
<ellipse fill="none" stroke="black" cx="101" cy="-671" rx="27" ry="18.3848"/>
<text text-anchor="middle" x="101" y="-667.4" font-family="Times Roman,serif" font-size="14.00">q0</text>
</g>
<!-- q0&#45;&gt;q0 -->
<g id="edge4" class="edge"><title>q0&#45;&gt;q0</title>
<path fill="none" stroke="black" d="M125.074,-679.454C136.242,-680.377 146,-677.559 146,-671 146,-666.593 141.595,-663.875 135.317,-662.846"/>
<polygon fill="black" stroke="black" points="135.173,-659.34 125.074,-662.546 134.967,-666.337 135.173,-659.34"/>
<text text-anchor="middle" x="150.5" y="-667.4" font-family="Times Roman,serif" font-size="14.00">a</text>
</g>
<!-- q3 -->
<g id="node3" class="node"><title>q3</title>
<ellipse fill="none" stroke="black" cx="93" cy="-579" rx="27" ry="18.3848"/>
<text text-anchor="middle" x="93" y="-575.4" font-family="Times Roman,serif" font-size="14.00">q3</text>
</g>
<!-- q0&#45;&gt;q3 -->
<g id="edge2" class="edge"><title>q0&#45;&gt;q3</title>
<path fill="none" stroke="black" d="M99.3811,-652.382C98.2642,-639.538 96.7579,-622.216 95.4893,-607.627"/>
<polygon fill="black" stroke="black" points="98.9697,-607.249 94.6165,-597.59 91.9961,-607.856 98.9697,-607.249"/>
<text text-anchor="middle" x="102.5" y="-621.4" font-family="Times Roman,serif" font-size="14.00">b</text>
</g>
<!-- q2 -->
<g id="node5" class="node"><title>q2</title>
<ellipse fill="none" stroke="black" cx="193" cy="-487" rx="27" ry="18.3848"/>
<text text-anchor="middle" x="193" y="-483.4" font-family="Times Roman,serif" font-size="14.00">q2</text>
</g>
<!-- q3&#45;&gt;q2 -->
<g id="edge12" class="edge"><title>q3&#45;&gt;q2</title>
<path fill="none" stroke="black" d="M113.462,-566.863C123.993,-560.163 136.738,-551.323 147,-542 156.933,-532.976 166.659,-521.797 174.589,-511.88"/>
<polygon fill="black" stroke="black" points="177.406,-513.96 180.794,-503.921 171.885,-509.656 177.406,-513.96"/>
<text text-anchor="middle" x="167.5" y="-529.4" font-family="Times Roman,serif" font-size="14.00">a</text>
</g>
<!-- q10 -->
<g id="node11" class="node"><title>q10</title>
<ellipse fill="none" stroke="black" cx="67" cy="-19" rx="29.9071" ry="18.3848"/>
<text text-anchor="middle" x="67" y="-15.4" font-family="Times Roman,serif" font-size="14.00">q10</text>
</g>
<!-- q3&#45;&gt;q10 -->
<g id="edge10" class="edge"><title>q3&#45;&gt;q10</title>
<path fill="none" stroke="black" d="M70.0112,-568.649C42.4713,-554.492 0,-526.29 0,-487 0,-487 0,-487 0,-111 0,-82.4731 21.3098,-56.8613 39.8934,-39.9498"/>
<polygon fill="black" stroke="black" points="42.357,-42.4463 47.6208,-33.2516 37.772,-37.1568 42.357,-42.4463"/>
<text text-anchor="middle" x="4.5" y="-291.4" font-family="Times Roman,serif" font-size="14.00">b</text>
</g>
<!-- q4 -->
<g id="node7" class="node"><title>q4</title>
<ellipse fill="none" stroke="black" cx="233" cy="-391" rx="27" ry="18.3848"/>
<ellipse fill="none" stroke="black" cx="233" cy="-391" rx="31" ry="22.3848"/>
<text text-anchor="middle" x="233" y="-387.4" font-family="Times Roman,serif" font-size="14.00">q4</text>
</g>
<!-- q2&#45;&gt;q4 -->
<g id="edge6" class="edge"><title>q2&#45;&gt;q4</title>
<path fill="none" stroke="black" d="M196.681,-468.479C199.178,-457.599 202.947,-443.725 208,-432 209.708,-428.038 211.746,-424.002 213.913,-420.085"/>
<polygon fill="black" stroke="black" points="217.056,-421.643 219.103,-411.248 211.02,-418.098 217.056,-421.643"/>
<text text-anchor="middle" x="212.5" y="-437.4" font-family="Times Roman,serif" font-size="14.00">b</text>
</g>
<!-- q9 -->
<g id="node9" class="node"><title>q9</title>
<ellipse fill="none" stroke="black" cx="168" cy="-203" rx="27" ry="18.3848"/>
<text text-anchor="middle" x="168" y="-199.4" font-family="Times Roman,serif" font-size="14.00">q9</text>
</g>
<!-- q2&#45;&gt;q9 -->
<g id="edge8" class="edge"><title>q2&#45;&gt;q9</title>
<path fill="none" stroke="black" d="M191.36,-468.366C187.095,-419.922 175.638,-289.763 170.524,-231.674"/>
<polygon fill="black" stroke="black" points="174.01,-231.357 169.646,-221.703 167.037,-231.971 174.01,-231.357"/>
<text text-anchor="middle" x="184.5" y="-337.4" font-family="Times Roman,serif" font-size="14.00">a</text>
</g>
<!-- q4&#45;&gt;q2 -->
<g id="edge16" class="edge"><title>q4&#45;&gt;q2</title>
<path fill="none" stroke="black" d="M228.649,-413.417C226.035,-424.681 222.194,-438.372 217,-450 215.243,-453.932 213.1,-457.923 210.825,-461.756"/>
<polygon fill="black" stroke="black" points="207.797,-459.995 205.396,-470.314 213.708,-463.745 207.797,-459.995"/>
<text text-anchor="middle" x="227.5" y="-437.4" font-family="Times Roman,serif" font-size="14.00">a</text>
</g>
<!-- q8 -->
<g id="node14" class="node"><title>q8</title>
<ellipse fill="none" stroke="black" cx="231" cy="-295" rx="27" ry="18.3848"/>
<text text-anchor="middle" x="231" y="-291.4" font-family="Times Roman,serif" font-size="14.00">q8</text>
</g>
<!-- q4&#45;&gt;q8 -->
<g id="edge14" class="edge"><title>q4&#45;&gt;q8</title>
<path fill="none" stroke="black" d="M232.526,-368.249C232.25,-354.994 231.899,-338.148 231.603,-323.954"/>
<polygon fill="black" stroke="black" points="235.098,-323.645 231.39,-313.72 228.099,-323.791 235.098,-323.645"/>
<text text-anchor="middle" x="236.5" y="-337.4" font-family="Times Roman,serif" font-size="14.00">b</text>
</g>
<!-- q9&#45;&gt;q3 -->
<g id="edge30" class="edge"><title>q9&#45;&gt;q3</title>
<path fill="none" stroke="black" d="M158.05,-220.357C148.657,-238.405 136,-267.774 136,-295 136,-487 136,-487 136,-487 136,-511.322 123.513,-536.147 111.997,-553.87"/>
<polygon fill="black" stroke="black" points="108.887,-552.218 106.135,-562.45 114.666,-556.167 108.887,-552.218"/>
<text text-anchor="middle" x="140.5" y="-387.4" font-family="Times Roman,serif" font-size="14.00">b</text>
</g>
<!-- q5 -->
<g id="node16" class="node"><title>q5</title>
<ellipse fill="none" stroke="black" cx="215" cy="-111" rx="27" ry="18.3848"/>
<text text-anchor="middle" x="215" y="-107.4" font-family="Times Roman,serif" font-size="14.00">q5</text>
</g>
<!-- q9&#45;&gt;q5 -->
<g id="edge32" class="edge"><title>q9&#45;&gt;q5</title>
<path fill="none" stroke="black" d="M177.062,-185.261C183.954,-171.77 193.552,-152.984 201.369,-137.683"/>
<polygon fill="black" stroke="black" points="204.533,-139.182 205.966,-128.684 198.299,-135.997 204.533,-139.182"/>
<text text-anchor="middle" x="199.5" y="-153.4" font-family="Times Roman,serif" font-size="14.00">a</text>
</g>
<!-- q10&#45;&gt;q3 -->
<g id="edge34" class="edge"><title>q10&#45;&gt;q3</title>
<path fill="none" stroke="black" d="M60.0391,-37.0242C53.5938,-55.3554 45,-84.7239 45,-111 45,-487 45,-487 45,-487 45,-512.236 59.3715,-537.4 72.3869,-555.015"/>
<polygon fill="black" stroke="black" points="69.7039,-557.267 78.5984,-563.023 75.2351,-552.976 69.7039,-557.267"/>
<text text-anchor="middle" x="49.5" y="-291.4" font-family="Times Roman,serif" font-size="14.00">b</text>
</g>
<!-- q10&#45;&gt;q3 -->
<g id="edge36" class="edge"><title>q10&#45;&gt;q3</title>
<path fill="none" stroke="black" d="M74.2773,-36.9963C81.0156,-55.306 90,-84.6579 90,-111 90,-487 90,-487 90,-487 90,-508.141 90.8012,-532.001 91.5754,-550.124"/>
<polygon fill="black" stroke="black" points="88.0885,-550.496 92.0343,-560.328 95.0815,-550.181 88.0885,-550.496"/>
<text text-anchor="middle" x="94.5" y="-291.4" font-family="Times Roman,serif" font-size="14.00">a</text>
</g>
<!-- q8&#45;&gt;q9 -->
<g id="edge28" class="edge"><title>q8&#45;&gt;q9</title>
<path fill="none" stroke="black" d="M219.445,-278.126C209.854,-264.12 196.072,-243.994 185.186,-228.098"/>
<polygon fill="black" stroke="black" points="188.02,-226.041 179.482,-219.767 182.244,-229.996 188.02,-226.041"/>
<text text-anchor="middle" x="209.5" y="-245.4" font-family="Times Roman,serif" font-size="14.00">a</text>
</g>
<!-- q8&#45;&gt;q5 -->
<g id="edge26" class="edge"><title>q8&#45;&gt;q5</title>
<path fill="none" stroke="black" d="M236.956,-276.751C238.61,-270.836 240.177,-264.2 241,-258 247.455,-209.374 245.761,-195.083 232,-148 231.018,-144.641 229.781,-141.198 228.423,-137.829"/>
<polygon fill="black" stroke="black" points="231.62,-136.404 224.39,-128.659 225.212,-139.222 231.62,-136.404"/>
<text text-anchor="middle" x="248.5" y="-199.4" font-family="Times Roman,serif" font-size="14.00">b</text>
</g>
<!-- q5&#45;&gt;q10 -->
<g id="edge20" class="edge"><title>q5&#45;&gt;q10</title>
<path fill="none" stroke="black" d="M194.732,-98.4007C169.477,-82.7021 126.108,-55.7431 97.0008,-37.6492"/>
<polygon fill="black" stroke="black" points="98.8018,-34.6476 88.4611,-32.3407 95.1062,-40.5926 98.8018,-34.6476"/>
<text text-anchor="middle" x="158.5" y="-61.4" font-family="Times Roman,serif" font-size="14.00">a</text>
</g>
<!-- q5&#45;&gt;q8 -->
<g id="edge18" class="edge"><title>q5&#45;&gt;q8</title>
<path fill="none" stroke="black" d="M216.627,-129.705C219.421,-161.837 225.151,-227.739 228.47,-265.91"/>
<polygon fill="black" stroke="black" points="225.025,-266.685 229.378,-276.345 231.998,-266.079 225.025,-266.685"/>
<text text-anchor="middle" x="228.5" y="-199.4" font-family="Times Roman,serif" font-size="14.00">b</text>
</g>
<!-- q6 -->
<g id="node19" class="node"><title>q6</title>
<ellipse fill="none" stroke="black" cx="166" cy="-763" rx="27" ry="18.3848"/>
<text text-anchor="middle" x="166" y="-759.4" font-family="Times Roman,serif" font-size="14.00">q6</text>
</g>
<!-- q6&#45;&gt;q0 -->
<g id="edge22" class="edge"><title>q6&#45;&gt;q0</title>
<path fill="none" stroke="black" d="M154.078,-746.126C144.182,-732.12 129.963,-711.994 118.732,-696.098"/>
<polygon fill="black" stroke="black" points="121.475,-693.915 112.846,-687.767 115.758,-697.954 121.475,-693.915"/>
<text text-anchor="middle" x="143.5" y="-713.4" font-family="Times Roman,serif" font-size="14.00">b</text>
</g>
<!-- q6&#45;&gt;q2 -->
<g id="edge24" class="edge"><title>q6&#45;&gt;q2</title>
<path fill="none" stroke="black" d="M167.813,-744.462C172.423,-697.34 184.617,-572.696 190.171,-515.914"/>
<polygon fill="black" stroke="black" points="193.669,-516.114 191.159,-505.82 186.702,-515.432 193.669,-516.114"/>
<text text-anchor="middle" x="184.5" y="-621.4" font-family="Times Roman,serif" font-size="14.00">a</text>
</g>
</g>
</svg>
