<?xml version="1.0" encoding="UTF-8" standalone="no"?>
<!DOCTYPE svg PUBLIC "-//W3C//DTD SVG 1.1//EN"
 "http://www.w3.org/Graphics/SVG/1.1/DTD/svg11.dtd">
<!-- Generated by graphviz version 2.26.3 (20100126.1600)
 -->
<!-- Title: G Pages: 1 -->
<svg width="152pt" height="330pt"
 viewBox="0.00 0.00 152.00 330.00" xmlns="http://www.w3.org/2000/svg" xmlns:xlink="http://www.w3.org/1999/xlink">
<g id="graph1" class="graph" transform="scale(1 1) rotate(0) translate(4 326)">
<title>G</title>
<polygon fill="white" stroke="white" points="-4,5 -4,-326 149,-326 149,5 -4,5"/>
<!-- q1 -->
<g id="node1" class="node"><title>q1</title>
<ellipse fill="none" stroke="black" cx="90" cy="-300" rx="27" ry="18"/>
<ellipse fill="none" stroke="black" cx="90" cy="-300" rx="31" ry="22"/>
<text text-anchor="middle" x="90" y="-295.9" font-family="Times Roman,serif" font-size="14.00">q1</text>
</g>
<!-- q3 -->
<g id="node3" class="node"><title>q3</title>
<ellipse fill="none" stroke="black" cx="27" cy="-206" rx="27" ry="18"/>
<text text-anchor="middle" x="27" y="-201.9" font-family="Times Roman,serif" font-size="14.00">q3</text>
</g>
<!-- q1&#45;&gt;q3 -->
<g id="edge2" class="edge"><title>q1&#45;&gt;q3</title>
<path fill="none" stroke="black" d="M76.6393,-280.065C67.0378,-265.739 54.0254,-246.324 43.7322,-230.966"/>
<polygon fill="black" stroke="black" points="46.5072,-228.819 38.0323,-222.461 40.6923,-232.716 46.5072,-228.819"/>
<text text-anchor="middle" x="67.5" y="-246.9" font-family="Times Roman,serif" font-size="14.00">b</text>
</g>
<!-- q0 -->
<g id="node5" class="node"><title>q0</title>
<ellipse fill="none" stroke="darkred" cx="50" cy="-18" rx="27" ry="18"/>
<text text-anchor="middle" x="50" y="-13.9" font-family="Times Roman,serif" font-size="14.00">q0</text>
</g>
<!-- q1&#45;&gt;q0 -->
<g id="edge4" class="edge"><title>q1&#45;&gt;q0</title>
<path fill="none" stroke="black" d="M100.831,-279.125C119.4,-240.321 152.752,-155.113 125,-90 115.538,-67.8007 95.5036,-49.151 78.52,-36.398"/>
<polygon fill="black" stroke="black" points="80.1547,-33.2634 69.9889,-30.279 76.0748,-38.9515 80.1547,-33.2634"/>
<text text-anchor="middle" x="139.5" y="-156.9" font-family="Times Roman,serif" font-size="14.00">a</text>
</g>
<!-- q3&#45;&gt;q0 -->
<g id="edge10" class="edge"><title>q3&#45;&gt;q0</title>
<path fill="none" stroke="black" d="M27.7636,-187.849C28.8745,-164.958 31.3329,-124.428 36,-90 37.9842,-75.3633 41.0444,-59.209 43.7983,-45.9172"/>
<polygon fill="black" stroke="black" points="47.2602,-46.4638 45.9148,-35.9548 40.413,-45.0091 47.2602,-46.4638"/>
<text text-anchor="middle" x="40.5" y="-107.9" font-family="Times Roman,serif" font-size="14.00">b</text>
</g>
<!-- q4 -->
<g id="node6" class="node"><title>q4</title>
<ellipse fill="none" stroke="black" cx="85" cy="-112" rx="27" ry="18"/>
<ellipse fill="none" stroke="black" cx="85" cy="-112" rx="31" ry="22"/>
<text text-anchor="middle" x="85" y="-107.9" font-family="Times Roman,serif" font-size="14.00">q4</text>
</g>
<!-- q3&#45;&gt;q4 -->
<g id="edge12" class="edge"><title>q3&#45;&gt;q4</title>
<path fill="none" stroke="black" d="M37.3692,-189.195C45.5951,-175.863 57.2891,-156.911 67.0312,-141.122"/>
<polygon fill="black" stroke="black" points="70.2283,-142.606 72.5008,-132.257 64.271,-138.93 70.2283,-142.606"/>
<text text-anchor="middle" x="64.5" y="-156.9" font-family="Times Roman,serif" font-size="14.00">a</text>
</g>
<!-- q0&#45;&gt;q3 -->
<g id="edge14" class="edge"><title>q0&#45;&gt;q3</title>
<path fill="none" stroke="black" d="M40.2744,-35.0981C32.7921,-49.2908 23.0664,-70.2729 19,-90 12.8859,-119.661 16.6853,-154.396 20.8788,-178.071"/>
<polygon fill="black" stroke="black" points="17.483,-178.948 22.7991,-188.112 24.3584,-177.633 17.483,-178.948"/>
<text text-anchor="middle" x="23.5" y="-107.9" font-family="Times Roman,serif" font-size="14.00">b</text>
</g>
<!-- q0&#45;&gt;q0 -->
<g id="edge16" class="edge"><title>q0&#45;&gt;q0</title>
<path fill="none" stroke="black" d="M74.5325,-26.1211C85.5078,-26.8945 95,-24.1875 95,-18 95,-13.8428 90.7151,-11.2567 84.5743,-10.2417"/>
<polygon fill="black" stroke="black" points="84.6524,-6.74237 74.5325,-9.87891 84.3995,-13.7378 84.6524,-6.74237"/>
<text text-anchor="middle" x="99.5" y="-13.9" font-family="Times Roman,serif" font-size="14.00">a</text>
</g>
<!-- q4&#45;&gt;q1 -->
<g id="edge6" class="edge"><title>q4&#45;&gt;q1</title>
<path fill="none" stroke="black" d="M85.5924,-134.275C86.4716,-167.331 88.1265,-229.555 89.1393,-267.639"/>
<polygon fill="black" stroke="black" points="85.6421,-267.792 89.4068,-277.696 92.6396,-267.606 85.6421,-267.792"/>
<text text-anchor="middle" x="91.5" y="-201.9" font-family="Times Roman,serif" font-size="14.00">b</text>
</g>
<!-- q4&#45;&gt;q0 -->
<g id="edge8" class="edge"><title>q4&#45;&gt;q0</title>
<path fill="none" stroke="black" d="M77.058,-90.6699C72.0107,-77.1144 65.4333,-59.4494 60.0273,-44.9305"/>
<polygon fill="black" stroke="black" points="63.2745,-43.6209 56.505,-35.4707 56.7145,-46.0635 63.2745,-43.6209"/>
<text text-anchor="middle" x="73.5" y="-58.9" font-family="Times Roman,serif" font-size="14.00">a</text>
</g>
</g>
</svg>
