<?xml version="1.0" encoding="UTF-8" standalone="no"?>
<!DOCTYPE svg PUBLIC "-//W3C//DTD SVG 1.1//EN"
 "http://www.w3.org/Graphics/SVG/1.1/DTD/svg11.dtd">
<!-- Generated by graphviz version 2.26.3 (20100126.1600)
 -->
<!-- Title: G Pages: 1 -->
<svg width="272pt" height="706pt"
 viewBox="0.00 0.00 272.00 706.00" xmlns="http://www.w3.org/2000/svg" xmlns:xlink="http://www.w3.org/1999/xlink">
<g id="graph1" class="graph" transform="scale(1 1) rotate(0) translate(4 702)">
<title>G</title>
<polygon fill="white" stroke="white" points="-4,5 -4,-702 269,-702 269,5 -4,5"/>
<!-- q0 -->
<g id="node1" class="node"><title>q0</title>
<ellipse fill="none" stroke="black" cx="27" cy="-487" rx="27" ry="18.3848"/>
<text text-anchor="middle" x="27" y="-483.4" font-family="Times Roman,serif" font-size="14.00">q0</text>
</g>
<!-- q0&#45;&gt;q0 -->
<g id="edge2" class="edge"><title>q0&#45;&gt;q0</title>
<path fill="none" stroke="black" d="M51.0743,-495.454C62.2423,-496.377 72,-493.559 72,-487 72,-482.593 67.5952,-479.875 61.3174,-478.846"/>
<polygon fill="black" stroke="black" points="61.1726,-475.34 51.0743,-478.546 60.9674,-482.337 61.1726,-475.34"/>
<text text-anchor="middle" x="76.5" y="-483.4" font-family="Times Roman,serif" font-size="14.00">b</text>
</g>
<!-- q6 -->
<g id="node4" class="node"><title>q6</title>
<ellipse fill="none" stroke="black" cx="126" cy="-395" rx="27" ry="18.3848"/>
<text text-anchor="middle" x="126" y="-391.4" font-family="Times Roman,serif" font-size="14.00">q6</text>
</g>
<!-- q0&#45;&gt;q6 -->
<g id="edge4" class="edge"><title>q0&#45;&gt;q6</title>
<path fill="none" stroke="black" d="M43.3478,-471.808C59.4942,-456.803 84.3501,-433.705 102.589,-416.755"/>
<polygon fill="black" stroke="black" points="105.014,-419.28 109.956,-409.909 100.248,-414.153 105.014,-419.28"/>
<text text-anchor="middle" x="90.5" y="-437.4" font-family="Times Roman,serif" font-size="14.00">a</text>
</g>
<!-- q6&#45;&gt;q6 -->
<g id="edge26" class="edge"><title>q6&#45;&gt;q6</title>
<path fill="none" stroke="black" d="M150.074,-403.454C161.242,-404.377 171,-401.559 171,-395 171,-390.593 166.595,-387.875 160.317,-386.846"/>
<polygon fill="black" stroke="black" points="160.173,-383.34 150.074,-386.546 159.967,-390.337 160.173,-383.34"/>
<text text-anchor="middle" x="175.5" y="-391.4" font-family="Times Roman,serif" font-size="14.00">b</text>
</g>
<!-- q7 -->
<g id="node12" class="node"><title>q7</title>
<ellipse fill="none" stroke="black" cx="126" cy="-303" rx="27" ry="18.3848"/>
<text text-anchor="middle" x="126" y="-299.4" font-family="Times Roman,serif" font-size="14.00">q7</text>
</g>
<!-- q6&#45;&gt;q7 -->
<g id="edge28" class="edge"><title>q6&#45;&gt;q7</title>
<path fill="none" stroke="black" d="M126,-376.382C126,-363.538 126,-346.216 126,-331.627"/>
<polygon fill="black" stroke="black" points="129.5,-331.59 126,-321.59 122.5,-331.59 129.5,-331.59"/>
<text text-anchor="middle" x="130.5" y="-345.4" font-family="Times Roman,serif" font-size="14.00">a</text>
</g>
<!-- q1 -->
<g id="node5" class="node"><title>q1</title>
<ellipse fill="none" stroke="black" cx="204" cy="-675" rx="27" ry="18.3848"/>
<ellipse fill="none" stroke="black" cx="204" cy="-675" rx="31" ry="22.3848"/>
<text text-anchor="middle" x="204" y="-671.4" font-family="Times Roman,serif" font-size="14.00">q1</text>
</g>
<!-- q3 -->
<g id="node7" class="node"><title>q3</title>
<ellipse fill="none" stroke="black" cx="166" cy="-579" rx="27" ry="18.3848"/>
<text text-anchor="middle" x="166" y="-575.4" font-family="Times Roman,serif" font-size="14.00">q3</text>
</g>
<!-- q1&#45;&gt;q3 -->
<g id="edge6" class="edge"><title>q1&#45;&gt;q3</title>
<path fill="none" stroke="black" d="M195.377,-653.216C189.933,-639.462 182.849,-621.565 177.001,-606.793"/>
<polygon fill="black" stroke="black" points="180.121,-605.164 173.186,-597.154 173.612,-607.74 180.121,-605.164"/>
<text text-anchor="middle" x="191.5" y="-621.4" font-family="Times Roman,serif" font-size="14.00">b</text>
</g>
<!-- q8 -->
<g id="node9" class="node"><title>q8</title>
<ellipse fill="none" stroke="black" cx="179" cy="-23" rx="27" ry="18.3848"/>
<ellipse fill="none" stroke="black" cx="179" cy="-23" rx="31" ry="22.3848"/>
<text text-anchor="middle" x="179" y="-19.4" font-family="Times Roman,serif" font-size="14.00">q8</text>
</g>
<!-- q1&#45;&gt;q8 -->
<g id="edge8" class="edge"><title>q1&#45;&gt;q8</title>
<path fill="none" stroke="black" d="M211.943,-653.21C218.244,-633.961 226,-604.99 226,-579 226,-579 226,-579 226,-119 226,-94.2816 213.275,-69.2956 201.068,-51.0126"/>
<polygon fill="black" stroke="black" points="203.781,-48.7855 195.175,-42.6064 198.049,-52.8038 203.781,-48.7855"/>
<text text-anchor="middle" x="230.5" y="-345.4" font-family="Times Roman,serif" font-size="14.00">a</text>
</g>
<!-- q3&#45;&gt;q6 -->
<g id="edge16" class="edge"><title>q3&#45;&gt;q6</title>
<path fill="none" stroke="black" d="M167.69,-560.203C169.161,-537.852 169.971,-499.599 162,-468 157.844,-451.524 149.649,-434.419 142.127,-420.912"/>
<polygon fill="black" stroke="black" points="145.119,-419.094 137.084,-412.187 139.058,-422.597 145.119,-419.094"/>
<text text-anchor="middle" x="171.5" y="-483.4" font-family="Times Roman,serif" font-size="14.00">a</text>
</g>
<!-- q5 -->
<g id="node16" class="node"><title>q5</title>
<ellipse fill="none" stroke="black" cx="126" cy="-487" rx="27" ry="18.3848"/>
<text text-anchor="middle" x="126" y="-483.4" font-family="Times Roman,serif" font-size="14.00">q5</text>
</g>
<!-- q3&#45;&gt;q5 -->
<g id="edge14" class="edge"><title>q3&#45;&gt;q5</title>
<path fill="none" stroke="black" d="M148.372,-564.926C141.773,-558.649 134.93,-550.703 131,-542 127.353,-533.924 125.688,-524.51 125.049,-515.778"/>
<polygon fill="black" stroke="black" points="128.541,-515.479 124.713,-505.6 121.545,-515.71 128.541,-515.479"/>
<text text-anchor="middle" x="135.5" y="-529.4" font-family="Times Roman,serif" font-size="14.00">b</text>
</g>
<!-- q8&#45;&gt;q8 -->
<g id="edge34" class="edge"><title>q8&#45;&gt;q8</title>
<path fill="none" stroke="black" d="M209.625,-27.6875C219.833,-27.6875 228,-26.125 228,-23 228,-21.0469 224.81,-19.7041 219.925,-18.9717"/>
<polygon fill="black" stroke="black" points="219.828,-15.4584 209.625,-18.3125 219.381,-22.4441 219.828,-15.4584"/>
<text text-anchor="middle" x="232.5" y="-19.4" font-family="Times Roman,serif" font-size="14.00">b</text>
</g>
<!-- q8&#45;&gt;q8 -->
<g id="edge36" class="edge"><title>q8&#45;&gt;q8</title>
<path fill="none" stroke="black" d="M202.347,-37.9505C223.424,-45.2237 246,-40.2402 246,-23 246,-8.45355 229.928,-2.63284 212.245,-5.53787"/>
<polygon fill="black" stroke="black" points="211.179,-2.19731 202.347,-8.04948 212.901,-8.98227 211.179,-2.19731"/>
<text text-anchor="middle" x="250.5" y="-19.4" font-family="Times Roman,serif" font-size="14.00">a</text>
</g>
<!-- q2 -->
<g id="node10" class="node"><title>q2</title>
<ellipse fill="none" stroke="black" cx="153" cy="-211" rx="27" ry="18.3848"/>
<text text-anchor="middle" x="153" y="-207.4" font-family="Times Roman,serif" font-size="14.00">q2</text>
</g>
<!-- q2&#45;&gt;q7 -->
<g id="edge10" class="edge"><title>q2&#45;&gt;q7</title>
<path fill="none" stroke="black" d="M147.677,-229.138C143.834,-242.234 138.572,-260.163 134.195,-275.077"/>
<polygon fill="black" stroke="black" points="130.792,-274.243 131.334,-284.824 137.509,-276.214 130.792,-274.243"/>
<text text-anchor="middle" x="145.5" y="-253.4" font-family="Times Roman,serif" font-size="14.00">b</text>
</g>
<!-- q4 -->
<g id="node14" class="node"><title>q4</title>
<ellipse fill="none" stroke="black" cx="153" cy="-119" rx="27" ry="18.3848"/>
<text text-anchor="middle" x="153" y="-115.4" font-family="Times Roman,serif" font-size="14.00">q4</text>
</g>
<!-- q2&#45;&gt;q4 -->
<g id="edge12" class="edge"><title>q2&#45;&gt;q4</title>
<path fill="none" stroke="black" d="M153,-192.382C153,-179.538 153,-162.216 153,-147.627"/>
<polygon fill="black" stroke="black" points="156.5,-147.59 153,-137.59 149.5,-147.59 156.5,-147.59"/>
<text text-anchor="middle" x="157.5" y="-161.4" font-family="Times Roman,serif" font-size="14.00">a</text>
</g>
<!-- q7&#45;&gt;q2 -->
<g id="edge30" class="edge"><title>q7&#45;&gt;q2</title>
<path fill="none" stroke="black" d="M123.673,-284.47C122.955,-273.586 123.179,-259.712 127,-248 128.436,-243.599 130.59,-239.262 133.055,-235.193"/>
<polygon fill="black" stroke="black" points="136.041,-237.026 138.79,-226.794 130.26,-233.079 136.041,-237.026"/>
<text text-anchor="middle" x="132.5" y="-253.4" font-family="Times Roman,serif" font-size="14.00">b</text>
</g>
<!-- q7&#45;&gt;q7 -->
<g id="edge32" class="edge"><title>q7&#45;&gt;q7</title>
<path fill="none" stroke="black" d="M150.074,-311.454C161.242,-312.377 171,-309.559 171,-303 171,-298.593 166.595,-295.875 160.317,-294.846"/>
<polygon fill="black" stroke="black" points="160.173,-291.34 150.074,-294.546 159.967,-298.337 160.173,-291.34"/>
<text text-anchor="middle" x="175.5" y="-299.4" font-family="Times Roman,serif" font-size="14.00">a</text>
</g>
<!-- q4&#45;&gt;q8 -->
<g id="edge18" class="edge"><title>q4&#45;&gt;q8</title>
<path fill="none" stroke="black" d="M158.013,-100.49C161.49,-87.6521 166.212,-70.2188 170.296,-55.1387"/>
<polygon fill="black" stroke="black" points="173.762,-55.7272 172.998,-45.16 167.006,-53.8972 173.762,-55.7272"/>
<text text-anchor="middle" x="171.5" y="-69.4" font-family="Times Roman,serif" font-size="14.00">b</text>
</g>
<!-- q9 -->
<g id="node20" class="node"><title>q9</title>
<ellipse fill="none" stroke="black" cx="93" cy="-23" rx="27" ry="18.3848"/>
<text text-anchor="middle" x="93" y="-19.4" font-family="Times Roman,serif" font-size="14.00">q9</text>
</g>
<!-- q4&#45;&gt;q9 -->
<g id="edge20" class="edge"><title>q4&#45;&gt;q9</title>
<path fill="none" stroke="black" d="M142.273,-101.837C133.058,-87.0936 119.637,-65.6188 109.128,-48.804"/>
<polygon fill="black" stroke="black" points="111.902,-46.6393 103.634,-40.0143 105.966,-50.3493 111.902,-46.6393"/>
<text text-anchor="middle" x="133.5" y="-69.4" font-family="Times Roman,serif" font-size="14.00">a</text>
</g>
<!-- q5&#45;&gt;q6 -->
<g id="edge22" class="edge"><title>q5&#45;&gt;q6</title>
<path fill="none" stroke="black" d="M126,-468.382C126,-455.538 126,-438.216 126,-423.627"/>
<polygon fill="black" stroke="black" points="129.5,-423.59 126,-413.59 122.5,-423.59 129.5,-423.59"/>
<text text-anchor="middle" x="130.5" y="-437.4" font-family="Times Roman,serif" font-size="14.00">b</text>
</g>
<!-- q5&#45;&gt;q3 -->
<g id="edge24" class="edge"><title>q5&#45;&gt;q3</title>
<path fill="none" stroke="black" d="M133.825,-504.998C139.627,-518.342 147.636,-536.762 154.211,-551.885"/>
<polygon fill="black" stroke="black" points="151.091,-553.486 158.288,-561.261 157.51,-550.695 151.091,-553.486"/>
<text text-anchor="middle" x="153.5" y="-529.4" font-family="Times Roman,serif" font-size="14.00">a</text>
</g>
<!-- q9&#45;&gt;q0 -->
<g id="edge38" class="edge"><title>q9&#45;&gt;q0</title>
<path fill="none" stroke="black" d="M78.238,-38.5862C62.8645,-56.5111 41,-87.5353 41,-119 41,-395 41,-395 41,-395 41,-416.474 37.2261,-440.449 33.5971,-458.54"/>
<polygon fill="black" stroke="black" points="30.1465,-457.941 31.5068,-468.448 36.9957,-459.386 30.1465,-457.941"/>
<text text-anchor="middle" x="45.5" y="-253.4" font-family="Times Roman,serif" font-size="14.00">b</text>
</g>
<!-- q9&#45;&gt;q7 -->
<g id="edge40" class="edge"><title>q9&#45;&gt;q7</title>
<path fill="none" stroke="black" d="M94.7492,-41.6356C98.6459,-82.3989 108.6,-182.517 120,-266 120.375,-268.746 120.791,-271.603 121.225,-274.457"/>
<polygon fill="black" stroke="black" points="117.807,-275.253 122.827,-284.583 124.721,-274.159 117.807,-275.253"/>
<text text-anchor="middle" x="113.5" y="-161.4" font-family="Times Roman,serif" font-size="14.00">a</text>
</g>
</g>
</svg>
