<?xml version="1.0" encoding="UTF-8" standalone="no"?>
<!DOCTYPE svg PUBLIC "-//W3C//DTD SVG 1.1//EN"
 "http://www.w3.org/Graphics/SVG/1.1/DTD/svg11.dtd">
<!-- Generated by graphviz version 2.26.3 (20100126.1600)
 -->
<!-- Title: G Pages: 1 -->
<svg width="136pt" height="510pt"
 viewBox="0.00 0.00 136.00 510.00" xmlns="http://www.w3.org/2000/svg" xmlns:xlink="http://www.w3.org/1999/xlink">
<g id="graph1" class="graph" transform="scale(1 1) rotate(0) translate(4 506)">
<title>G</title>
<polygon fill="white" stroke="white" points="-4,5 -4,-506 133,-506 133,5 -4,5"/>
<!-- q6 -->
<g id="node1" class="node"><title>q6</title>
<ellipse fill="none" stroke="black" cx="74" cy="-484" rx="27" ry="18"/>
<text text-anchor="middle" x="74" y="-479.9" font-family="Times Roman,serif" font-size="14.00">q6</text>
</g>
<!-- q6&#45;&gt;q6 -->
<g id="edge2" class="edge"><title>q6&#45;&gt;q6</title>
<path fill="none" stroke="black" d="M98.5325,-492.121C109.508,-492.895 119,-490.188 119,-484 119,-479.843 114.715,-477.257 108.574,-476.242"/>
<polygon fill="black" stroke="black" points="108.652,-472.742 98.5325,-475.879 108.4,-479.738 108.652,-472.742"/>
<text text-anchor="middle" x="123.5" y="-479.9" font-family="Times Roman,serif" font-size="14.00">b</text>
</g>
<!-- q0 -->
<g id="node4" class="node"><title>q0</title>
<ellipse fill="none" stroke="black" cx="74" cy="-390" rx="27" ry="18"/>
<ellipse fill="none" stroke="black" cx="74" cy="-390" rx="31" ry="22"/>
<text text-anchor="middle" x="74" y="-385.9" font-family="Times Roman,serif" font-size="14.00">q0</text>
</g>
<!-- q6&#45;&gt;q0 -->
<g id="edge4" class="edge"><title>q6&#45;&gt;q0</title>
<path fill="none" stroke="black" d="M65.2399,-466.86C62.7028,-461.03 60.2748,-454.374 59,-448 57.192,-438.96 58.4343,-429.226 60.8315,-420.363"/>
<polygon fill="black" stroke="black" points="64.174,-421.402 63.9276,-410.81 57.515,-419.244 64.174,-421.402"/>
<text text-anchor="middle" x="63.5" y="-434.9" font-family="Times Roman,serif" font-size="14.00">a</text>
</g>
<!-- q0&#45;&gt;q6 -->
<g id="edge24" class="edge"><title>q0&#45;&gt;q6</title>
<path fill="none" stroke="black" d="M74,-412.039C74,-425.096 74,-441.773 74,-455.785"/>
<polygon fill="black" stroke="black" points="70.5001,-455.876 74,-465.876 77.5001,-455.876 70.5001,-455.876"/>
<text text-anchor="middle" x="78.5" y="-434.9" font-family="Times Roman,serif" font-size="14.00">a</text>
</g>
<!-- q3 -->
<g id="node14" class="node"><title>q3</title>
<ellipse fill="none" stroke="black" cx="27" cy="-296" rx="27" ry="18"/>
<text text-anchor="middle" x="27" y="-291.9" font-family="Times Roman,serif" font-size="14.00">q3</text>
</g>
<!-- q0&#45;&gt;q3 -->
<g id="edge22" class="edge"><title>q0&#45;&gt;q3</title>
<path fill="none" stroke="black" d="M63.5692,-369.138C56.6919,-355.384 47.6251,-337.25 40.2403,-322.481"/>
<polygon fill="black" stroke="black" points="43.2728,-320.719 35.6702,-313.34 37.0118,-323.85 43.2728,-320.719"/>
<text text-anchor="middle" x="58.5" y="-336.9" font-family="Times Roman,serif" font-size="14.00">b</text>
</g>
<!-- q5 -->
<g id="node5" class="node"><title>q5</title>
<ellipse fill="none" stroke="black" cx="58" cy="-116" rx="27" ry="18"/>
<text text-anchor="middle" x="58" y="-111.9" font-family="Times Roman,serif" font-size="14.00">q5</text>
</g>
<!-- q1 -->
<g id="node7" class="node"><title>q1</title>
<ellipse fill="none" stroke="black" cx="31" cy="-22" rx="27" ry="18"/>
<ellipse fill="none" stroke="black" cx="31" cy="-22" rx="31" ry="22"/>
<text text-anchor="middle" x="31" y="-17.9" font-family="Times Roman,serif" font-size="14.00">q1</text>
</g>
<!-- q5&#45;&gt;q1 -->
<g id="edge6" class="edge"><title>q5&#45;&gt;q1</title>
<path fill="none" stroke="black" d="M43.7901,-100.691C39.1159,-94.6918 34.4838,-87.4612 32,-80 29.2862,-71.8481 28.2701,-62.6881 28.1216,-54.0974"/>
<polygon fill="black" stroke="black" points="31.6226,-54.072 28.3149,-44.0068 24.6239,-53.9379 31.6226,-54.072"/>
<text text-anchor="middle" x="36.5" y="-66.9" font-family="Times Roman,serif" font-size="14.00">b</text>
</g>
<!-- q2 -->
<g id="node9" class="node"><title>q2</title>
<ellipse fill="none" stroke="black" cx="63" cy="-206" rx="27" ry="18"/>
<text text-anchor="middle" x="63" y="-201.9" font-family="Times Roman,serif" font-size="14.00">q2</text>
</g>
<!-- q5&#45;&gt;q2 -->
<g id="edge8" class="edge"><title>q5&#45;&gt;q2</title>
<path fill="none" stroke="black" d="M59.0103,-134.186C59.7012,-146.622 60.6311,-163.36 61.4193,-177.548"/>
<polygon fill="black" stroke="black" points="57.9388,-177.997 61.9882,-187.787 64.928,-177.608 57.9388,-177.997"/>
<text text-anchor="middle" x="65.5" y="-156.9" font-family="Times Roman,serif" font-size="14.00">a</text>
</g>
<!-- q1&#45;&gt;q5 -->
<g id="edge14" class="edge"><title>q1&#45;&gt;q5</title>
<path fill="none" stroke="black" d="M37.1933,-43.5618C41.0275,-56.9105 45.9871,-74.1772 50.1023,-88.5045"/>
<polygon fill="black" stroke="black" points="46.7967,-89.6742 52.9215,-98.3193 53.5247,-87.7417 46.7967,-89.6742"/>
<text text-anchor="middle" x="51.5" y="-66.9" font-family="Times Roman,serif" font-size="14.00">b</text>
</g>
<!-- q1&#45;&gt;q3 -->
<g id="edge16" class="edge"><title>q1&#45;&gt;q3</title>
<path fill="none" stroke="black" d="M27.4387,-43.9719C26.5635,-49.8204 25.6828,-56.1411 25,-62 23.1415,-77.9475 22.6672,-81.9584 22,-98 19.0075,-169.943 20.4367,-188.083 24,-260 24.1205,-262.431 24.2733,-264.953 24.4461,-267.481"/>
<polygon fill="black" stroke="black" points="20.9757,-268.001 25.2354,-277.702 27.9549,-267.462 20.9757,-268.001"/>
<text text-anchor="middle" x="25.5" y="-156.9" font-family="Times Roman,serif" font-size="14.00">a</text>
</g>
<!-- q2&#45;&gt;q0 -->
<g id="edge10" class="edge"><title>q2&#45;&gt;q0</title>
<path fill="none" stroke="black" d="M64.0842,-224.135C65.9379,-255.144 69.7409,-318.756 72.0609,-357.565"/>
<polygon fill="black" stroke="black" points="68.5825,-358.032 72.6731,-367.805 75.5701,-357.614 68.5825,-358.032"/>
<text text-anchor="middle" x="74.5" y="-291.9" font-family="Times Roman,serif" font-size="14.00">b</text>
</g>
<!-- q2&#45;&gt;q5 -->
<g id="edge12" class="edge"><title>q2&#45;&gt;q5</title>
<path fill="none" stroke="black" d="M54.2399,-188.86C51.7028,-183.03 49.2748,-176.374 48,-170 46.2719,-161.359 47.0949,-151.919 48.8523,-143.383"/>
<polygon fill="black" stroke="black" points="52.2843,-144.088 51.3506,-133.534 45.4992,-142.367 52.2843,-144.088"/>
<text text-anchor="middle" x="52.5" y="-156.9" font-family="Times Roman,serif" font-size="14.00">a</text>
</g>
<!-- q3&#45;&gt;q2 -->
<g id="edge18" class="edge"><title>q3&#45;&gt;q2</title>
<path fill="none" stroke="black" d="M25.9642,-277.82C26.0008,-267.015 27.2154,-253.266 32,-242 34.0433,-237.189 36.9748,-232.553 40.2295,-228.302"/>
<polygon fill="black" stroke="black" points="42.923,-230.537 46.7381,-220.653 37.5918,-226.001 42.923,-230.537"/>
<text text-anchor="middle" x="36.5" y="-246.9" font-family="Times Roman,serif" font-size="14.00">b</text>
</g>
<!-- q3&#45;&gt;q2 -->
<g id="edge20" class="edge"><title>q3&#45;&gt;q2</title>
<path fill="none" stroke="black" d="M34.1124,-278.219C39.2737,-265.316 46.3479,-247.63 52.2038,-232.99"/>
<polygon fill="black" stroke="black" points="55.5605,-234.023 56.0248,-223.438 49.0612,-231.423 55.5605,-234.023"/>
<text text-anchor="middle" x="53.5" y="-246.9" font-family="Times Roman,serif" font-size="14.00">a</text>
</g>
</g>
</svg>
