<?xml version="1.0" encoding="UTF-8" standalone="no"?>
<!DOCTYPE svg PUBLIC "-//W3C//DTD SVG 1.1//EN"
 "http://www.w3.org/Graphics/SVG/1.1/DTD/svg11.dtd">
<!-- Generated by graphviz version 2.26.3 (20100126.1600)
 -->
<!-- Title: G Pages: 1 -->
<svg width="200pt" height="322pt"
 viewBox="0.00 0.00 199.87 322.00" xmlns="http://www.w3.org/2000/svg" xmlns:xlink="http://www.w3.org/1999/xlink">
<g id="graph1" class="graph" transform="scale(1 1) rotate(0) translate(4 318)">
<title>G</title>
<polygon fill="white" stroke="white" points="-4,5 -4,-318 196.866,-318 196.866,5 -4,5"/>
<!-- q5 -->
<g id="node1" class="node"><title>q5</title>
<ellipse fill="none" stroke="black" cx="27" cy="-203" rx="27" ry="18.3848"/>
<text text-anchor="middle" x="27" y="-199.4" font-family="Times Roman,serif" font-size="14.00">q5</text>
</g>
<!-- q5&#45;&gt;q5 -->
<g id="edge4" class="edge"><title>q5&#45;&gt;q5</title>
<path fill="none" stroke="black" d="M51.0743,-211.454C62.2423,-212.377 72,-209.559 72,-203 72,-198.593 67.5952,-195.875 61.3174,-194.846"/>
<polygon fill="black" stroke="black" points="61.1726,-191.34 51.0743,-194.546 60.9674,-198.337 61.1726,-191.34"/>
<text text-anchor="middle" x="76.5" y="-199.4" font-family="Times Roman,serif" font-size="14.00">a</text>
</g>
<!-- q2 -->
<g id="node3" class="node"><title>q2</title>
<ellipse fill="none" stroke="black" cx="92" cy="-111" rx="27" ry="18.3848"/>
<text text-anchor="middle" x="92" y="-107.4" font-family="Times Roman,serif" font-size="14.00">q2</text>
</g>
<!-- q5&#45;&gt;q2 -->
<g id="edge2" class="edge"><title>q5&#45;&gt;q2</title>
<path fill="none" stroke="black" d="M36.8044,-185.741C43.2894,-174.692 52.1921,-160.194 61,-148 64.1695,-143.612 67.7132,-139.083 71.2405,-134.763"/>
<polygon fill="black" stroke="black" points="74.1659,-136.721 77.9004,-126.806 68.798,-132.228 74.1659,-136.721"/>
<text text-anchor="middle" x="65.5" y="-153.4" font-family="Times Roman,serif" font-size="14.00">b</text>
</g>
<!-- q2&#45;&gt;q5 -->
<g id="edge6" class="edge"><title>q2&#45;&gt;q5</title>
<path fill="none" stroke="black" d="M87.0702,-129.437C83.4943,-140.677 77.8918,-154.955 70,-166 65.5914,-172.17 59.9447,-177.976 54.2035,-183.078"/>
<polygon fill="black" stroke="black" points="51.8605,-180.475 46.4234,-189.568 56.3445,-185.85 51.8605,-180.475"/>
<text text-anchor="middle" x="83.5" y="-153.4" font-family="Times Roman,serif" font-size="14.00">b</text>
</g>
<!-- q4 -->
<g id="node7" class="node"><title>q4</title>
<ellipse fill="none" stroke="black" cx="92" cy="-19" rx="27" ry="18.3848"/>
<text text-anchor="middle" x="92" y="-15.4" font-family="Times Roman,serif" font-size="14.00">q4</text>
</g>
<!-- q2&#45;&gt;q4 -->
<g id="edge8" class="edge"><title>q2&#45;&gt;q4</title>
<path fill="none" stroke="black" d="M92,-92.3824C92,-79.5383 92,-62.2161 92,-47.6269"/>
<polygon fill="black" stroke="black" points="95.5001,-47.5898 92,-37.5899 88.5001,-47.5899 95.5001,-47.5898"/>
<text text-anchor="middle" x="96.5" y="-61.4" font-family="Times Roman,serif" font-size="14.00">a</text>
</g>
<!-- q4&#45;&gt;q5 -->
<g id="edge16" class="edge"><title>q4&#45;&gt;q5</title>
<path fill="none" stroke="black" d="M79.3474,-35.4542C69.0568,-49.6642 54.9786,-71.1417 47,-92 36.7332,-118.84 31.6649,-151.386 29.2089,-174.275"/>
<polygon fill="black" stroke="black" points="25.7124,-174.071 28.2283,-184.362 32.6795,-174.748 25.7124,-174.071"/>
<text text-anchor="middle" x="51.5" y="-107.4" font-family="Times Roman,serif" font-size="14.00">a</text>
</g>
<!-- q4&#45;&gt;q4 -->
<g id="edge14" class="edge"><title>q4&#45;&gt;q4</title>
<path fill="none" stroke="black" d="M116.074,-27.4544C127.242,-28.3767 137,-25.5586 137,-19 137,-14.5934 132.595,-11.8754 126.317,-10.8458"/>
<polygon fill="black" stroke="black" points="126.173,-7.34018 116.074,-10.5456 125.967,-14.3372 126.173,-7.34018"/>
<text text-anchor="middle" x="141.5" y="-15.4" font-family="Times Roman,serif" font-size="14.00">b</text>
</g>
<!-- q1 -->
<g id="node8" class="node"><title>q1</title>
<ellipse fill="none" stroke="black" cx="126" cy="-203" rx="27" ry="18.3848"/>
<text text-anchor="middle" x="126" y="-199.4" font-family="Times Roman,serif" font-size="14.00">q1</text>
</g>
<!-- q1&#45;&gt;q2 -->
<g id="edge12" class="edge"><title>q1&#45;&gt;q2</title>
<path fill="none" stroke="black" d="M119.283,-184.824C114.44,-171.719 107.813,-153.789 102.304,-138.88"/>
<polygon fill="black" stroke="black" points="105.453,-137.305 98.7034,-129.138 98.8869,-139.732 105.453,-137.305"/>
<text text-anchor="middle" x="116.5" y="-153.4" font-family="Times Roman,serif" font-size="14.00">a</text>
</g>
<!-- q1&#45;&gt;q1 -->
<g id="edge10" class="edge"><title>q1&#45;&gt;q1</title>
<path fill="none" stroke="black" d="M150.074,-211.454C161.242,-212.377 171,-209.559 171,-203 171,-198.593 166.595,-195.875 160.317,-194.846"/>
<polygon fill="black" stroke="black" points="160.173,-191.34 150.074,-194.546 159.967,-198.337 160.173,-191.34"/>
<text text-anchor="middle" x="175.5" y="-199.4" font-family="Times Roman,serif" font-size="14.00">b</text>
</g>
<!-- q0 -->
<g id="node13" class="node"><title>q0</title>
<ellipse fill="none" stroke="black" cx="157" cy="-295" rx="27" ry="18.3848"/>
<text text-anchor="middle" x="157" y="-291.4" font-family="Times Roman,serif" font-size="14.00">q0</text>
</g>
<!-- q0&#45;&gt;q5 -->
<g id="edge18" class="edge"><title>q0&#45;&gt;q5</title>
<path fill="none" stroke="black" d="M138.097,-281.622C116.049,-266.019 79.4236,-240.1 54.2928,-222.315"/>
<polygon fill="black" stroke="black" points="56.1105,-219.314 45.9259,-216.394 52.0668,-225.027 56.1105,-219.314"/>
<text text-anchor="middle" x="107.5" y="-245.4" font-family="Times Roman,serif" font-size="14.00">b</text>
</g>
<!-- q0&#45;&gt;q4 -->
<g id="edge20" class="edge"><title>q0&#45;&gt;q4</title>
<path fill="none" stroke="black" d="M168.001,-277.741C180.5,-255.95 198.059,-217.285 189,-184 174.084,-129.195 135.843,-74.0164 112.074,-43.396"/>
<polygon fill="black" stroke="black" points="114.729,-41.1109 105.785,-35.4315 109.235,-45.4488 114.729,-41.1109"/>
<text text-anchor="middle" x="186.5" y="-153.4" font-family="Times Roman,serif" font-size="14.00">a</text>
</g>
</g>
</svg>
