<?xml version="1.0" encoding="UTF-8" standalone="no"?>
<!DOCTYPE svg PUBLIC "-//W3C//DTD SVG 1.1//EN"
 "http://www.w3.org/Graphics/SVG/1.1/DTD/svg11.dtd">
<!-- Generated by graphviz version 2.26.3 (20100126.1600)
 -->
<!-- Title: G Pages: 1 -->
<svg width="288pt" height="614pt"
 viewBox="0.00 0.00 288.00 614.00" xmlns="http://www.w3.org/2000/svg" xmlns:xlink="http://www.w3.org/1999/xlink">
<g id="graph1" class="graph" transform="scale(1 1) rotate(0) translate(4 610)">
<title>G</title>
<polygon fill="white" stroke="white" points="-4,5 -4,-610 285,-610 285,5 -4,5"/>
<!-- q0 -->
<g id="node1" class="node"><title>q0</title>
<ellipse fill="none" stroke="black" cx="139" cy="-395" rx="27" ry="18.3848"/>
<text text-anchor="middle" x="139" y="-391.4" font-family="Times Roman,serif" font-size="14.00">q0</text>
</g>
<!-- q0&#45;&gt;q0 -->
<g id="edge2" class="edge"><title>q0&#45;&gt;q0</title>
<path fill="none" stroke="black" d="M163.074,-403.454C174.242,-404.377 184,-401.559 184,-395 184,-390.593 179.595,-387.875 173.317,-386.846"/>
<polygon fill="black" stroke="black" points="173.173,-383.34 163.074,-386.546 172.967,-390.337 173.173,-383.34"/>
<text text-anchor="middle" x="188.5" y="-391.4" font-family="Times Roman,serif" font-size="14.00">b</text>
</g>
<!-- q7 -->
<g id="node4" class="node"><title>q7</title>
<ellipse fill="none" stroke="black" cx="226" cy="-303" rx="27" ry="18.3848"/>
<text text-anchor="middle" x="226" y="-299.4" font-family="Times Roman,serif" font-size="14.00">q7</text>
</g>
<!-- q0&#45;&gt;q7 -->
<g id="edge4" class="edge"><title>q0&#45;&gt;q7</title>
<path fill="none" stroke="black" d="M153.758,-379.393C167.507,-364.855 188.189,-342.985 203.905,-326.365"/>
<polygon fill="black" stroke="black" points="206.841,-328.354 211.169,-318.683 201.755,-323.544 206.841,-328.354"/>
<text text-anchor="middle" x="194.5" y="-345.4" font-family="Times Roman,serif" font-size="14.00">a</text>
</g>
<!-- q7&#45;&gt;q7 -->
<g id="edge28" class="edge"><title>q7&#45;&gt;q7</title>
<path fill="none" stroke="black" d="M250.074,-311.454C261.242,-312.377 271,-309.559 271,-303 271,-298.593 266.595,-295.875 260.317,-294.846"/>
<polygon fill="black" stroke="black" points="260.173,-291.34 250.074,-294.546 259.967,-298.337 260.173,-291.34"/>
<text text-anchor="middle" x="275.5" y="-299.4" font-family="Times Roman,serif" font-size="14.00">a</text>
</g>
<!-- q2 -->
<g id="node10" class="node"><title>q2</title>
<ellipse fill="none" stroke="black" cx="195" cy="-211" rx="27" ry="18.3848"/>
<text text-anchor="middle" x="195" y="-207.4" font-family="Times Roman,serif" font-size="14.00">q2</text>
</g>
<!-- q7&#45;&gt;q2 -->
<g id="edge26" class="edge"><title>q7&#45;&gt;q2</title>
<path fill="none" stroke="black" d="M219.875,-284.824C215.46,-271.719 209.418,-253.789 204.394,-238.88"/>
<polygon fill="black" stroke="black" points="207.622,-237.497 201.112,-229.138 200.988,-239.733 207.622,-237.497"/>
<text text-anchor="middle" x="217.5" y="-253.4" font-family="Times Roman,serif" font-size="14.00">b</text>
</g>
<!-- q1 -->
<g id="node5" class="node"><title>q1</title>
<ellipse fill="none" stroke="black" cx="62" cy="-583" rx="27" ry="18.3848"/>
<ellipse fill="none" stroke="black" cx="62" cy="-583" rx="31" ry="22.3848"/>
<text text-anchor="middle" x="62" y="-579.4" font-family="Times Roman,serif" font-size="14.00">q1</text>
</g>
<!-- q3 -->
<g id="node7" class="node"><title>q3</title>
<ellipse fill="none" stroke="black" cx="123" cy="-487" rx="27" ry="18.3848"/>
<text text-anchor="middle" x="123" y="-483.4" font-family="Times Roman,serif" font-size="14.00">q3</text>
</g>
<!-- q1&#45;&gt;q3 -->
<g id="edge6" class="edge"><title>q1&#45;&gt;q3</title>
<path fill="none" stroke="black" d="M75.2361,-562.169C84.4336,-547.695 96.7542,-528.305 106.578,-512.844"/>
<polygon fill="black" stroke="black" points="109.623,-514.579 112.032,-504.262 103.714,-510.825 109.623,-514.579"/>
<text text-anchor="middle" x="102.5" y="-529.4" font-family="Times Roman,serif" font-size="14.00">b</text>
</g>
<!-- q8 -->
<g id="node9" class="node"><title>q8</title>
<ellipse fill="none" stroke="black" cx="31" cy="-23" rx="27" ry="18.3848"/>
<ellipse fill="none" stroke="black" cx="31" cy="-23" rx="31" ry="22.3848"/>
<text text-anchor="middle" x="31" y="-19.4" font-family="Times Roman,serif" font-size="14.00">q8</text>
</g>
<!-- q1&#45;&gt;q8 -->
<g id="edge8" class="edge"><title>q1&#45;&gt;q8</title>
<path fill="none" stroke="black" d="M50.9833,-561.897C42.073,-542.853 31,-513.797 31,-487 31,-487 31,-487 31,-119 31,-97.8639 31,-74.1103 31,-55.5192"/>
<polygon fill="black" stroke="black" points="34.5001,-55.5005 31,-45.5005 27.5001,-55.5005 34.5001,-55.5005"/>
<text text-anchor="middle" x="35.5" y="-299.4" font-family="Times Roman,serif" font-size="14.00">a</text>
</g>
<!-- q4 -->
<g id="node13" class="node"><title>q4</title>
<ellipse fill="none" stroke="black" cx="86" cy="-119" rx="27" ry="18.3848"/>
<text text-anchor="middle" x="86" y="-115.4" font-family="Times Roman,serif" font-size="14.00">q4</text>
</g>
<!-- q3&#45;&gt;q4 -->
<g id="edge16" class="edge"><title>q3&#45;&gt;q4</title>
<path fill="none" stroke="black" d="M111.087,-470.265C99.6176,-452.48 84,-423.104 84,-395 84,-395 84,-395 84,-211 84,-189.865 84.5341,-166.005 85.0503,-147.881"/>
<polygon fill="black" stroke="black" points="88.5549,-147.775 85.3562,-137.675 81.5581,-147.566 88.5549,-147.775"/>
<text text-anchor="middle" x="88.5" y="-299.4" font-family="Times Roman,serif" font-size="14.00">a</text>
</g>
<!-- q5 -->
<g id="node15" class="node"><title>q5</title>
<ellipse fill="none" stroke="black" cx="238" cy="-395" rx="27" ry="18.3848"/>
<text text-anchor="middle" x="238" y="-391.4" font-family="Times Roman,serif" font-size="14.00">q5</text>
</g>
<!-- q3&#45;&gt;q5 -->
<g id="edge14" class="edge"><title>q3&#45;&gt;q5</title>
<path fill="none" stroke="black" d="M138.8,-471.687C150.825,-460.301 167.982,-444.618 184,-432 192.083,-425.632 201.204,-419.14 209.617,-413.409"/>
<polygon fill="black" stroke="black" points="211.701,-416.226 218.055,-407.748 207.801,-410.412 211.701,-416.226"/>
<text text-anchor="middle" x="188.5" y="-437.4" font-family="Times Roman,serif" font-size="14.00">b</text>
</g>
<!-- q8&#45;&gt;q8 -->
<g id="edge30" class="edge"><title>q8&#45;&gt;q8</title>
<path fill="none" stroke="black" d="M61.625,-27.6875C71.8333,-27.6875 80,-26.125 80,-23 80,-21.0469 76.8099,-19.7041 71.925,-18.9717"/>
<polygon fill="black" stroke="black" points="71.8282,-15.4584 61.625,-18.3125 71.381,-22.4441 71.8282,-15.4584"/>
<text text-anchor="middle" x="84.5" y="-19.4" font-family="Times Roman,serif" font-size="14.00">b</text>
</g>
<!-- q8&#45;&gt;q8 -->
<g id="edge32" class="edge"><title>q8&#45;&gt;q8</title>
<path fill="none" stroke="black" d="M54.3472,-37.9505C75.424,-45.2237 98,-40.2402 98,-23 98,-8.45355 81.9279,-2.63284 64.245,-5.53787"/>
<polygon fill="black" stroke="black" points="63.1792,-2.19731 54.3472,-8.04948 64.9009,-8.98227 63.1792,-2.19731"/>
<text text-anchor="middle" x="102.5" y="-19.4" font-family="Times Roman,serif" font-size="14.00">a</text>
</g>
<!-- q2&#45;&gt;q7 -->
<g id="edge10" class="edge"><title>q2&#45;&gt;q7</title>
<path fill="none" stroke="black" d="M191.893,-229.631C190.824,-240.548 190.791,-254.424 195,-266 196.815,-270.991 199.631,-275.779 202.841,-280.158"/>
<polygon fill="black" stroke="black" points="200.272,-282.543 209.341,-288.021 205.667,-278.083 200.272,-282.543"/>
<text text-anchor="middle" x="199.5" y="-253.4" font-family="Times Roman,serif" font-size="14.00">b</text>
</g>
<!-- q2&#45;&gt;q4 -->
<g id="edge12" class="edge"><title>q2&#45;&gt;q4</title>
<path fill="none" stroke="black" d="M177.969,-196.625C159.997,-181.456 131.489,-157.394 110.975,-140.08"/>
<polygon fill="black" stroke="black" points="113.171,-137.353 103.271,-133.578 108.656,-142.702 113.171,-137.353"/>
<text text-anchor="middle" x="154.5" y="-161.4" font-family="Times Roman,serif" font-size="14.00">a</text>
</g>
<!-- q4&#45;&gt;q8 -->
<g id="edge18" class="edge"><title>q4&#45;&gt;q8</title>
<path fill="none" stroke="black" d="M75.9122,-101.392C68.135,-87.8174 57.2015,-68.7336 48.0695,-52.7941"/>
<polygon fill="black" stroke="black" points="50.9465,-50.7749 42.9384,-43.838 44.8727,-54.2548 50.9465,-50.7749"/>
<text text-anchor="middle" x="68.5" y="-69.4" font-family="Times Roman,serif" font-size="14.00">b</text>
</g>
<!-- q9 -->
<g id="node19" class="node"><title>q9</title>
<ellipse fill="none" stroke="black" cx="161" cy="-23" rx="27" ry="18.3848"/>
<text text-anchor="middle" x="161" y="-19.4" font-family="Times Roman,serif" font-size="14.00">q9</text>
</g>
<!-- q4&#45;&gt;q9 -->
<g id="edge20" class="edge"><title>q4&#45;&gt;q9</title>
<path fill="none" stroke="black" d="M94.6278,-101.35C100.492,-90.1453 108.83,-75.6208 118,-64 123.302,-57.2817 129.683,-50.6116 135.888,-44.6641"/>
<polygon fill="black" stroke="black" points="138.595,-46.928 143.559,-37.5678 133.841,-41.7897 138.595,-46.928"/>
<text text-anchor="middle" x="122.5" y="-69.4" font-family="Times Roman,serif" font-size="14.00">a</text>
</g>
<!-- q5&#45;&gt;q7 -->
<g id="edge22" class="edge"><title>q5&#45;&gt;q7</title>
<path fill="none" stroke="black" d="M235.572,-376.382C233.896,-363.538 231.637,-346.216 229.734,-331.627"/>
<polygon fill="black" stroke="black" points="233.189,-331.053 228.425,-321.59 226.248,-331.959 233.189,-331.053"/>
<text text-anchor="middle" x="237.5" y="-345.4" font-family="Times Roman,serif" font-size="14.00">b</text>
</g>
<!-- q5&#45;&gt;q3 -->
<g id="edge24" class="edge"><title>q5&#45;&gt;q3</title>
<path fill="none" stroke="black" d="M226.89,-411.908C218.574,-423.64 206.369,-439.063 193,-450 181.809,-459.155 167.996,-467.034 155.606,-473.139"/>
<polygon fill="black" stroke="black" points="154.021,-470.016 146.475,-477.453 157.012,-476.345 154.021,-470.016"/>
<text text-anchor="middle" x="214.5" y="-437.4" font-family="Times Roman,serif" font-size="14.00">a</text>
</g>
<!-- q9&#45;&gt;q0 -->
<g id="edge34" class="edge"><title>q9&#45;&gt;q0</title>
<path fill="none" stroke="black" d="M154.891,-41.1694C149.009,-60.3028 141,-91.4203 141,-119 141,-303 141,-303 141,-303 141,-324.135 140.466,-347.995 139.95,-366.119"/>
<polygon fill="black" stroke="black" points="136.445,-366.225 139.644,-376.325 143.442,-366.434 136.445,-366.225"/>
<text text-anchor="middle" x="145.5" y="-207.4" font-family="Times Roman,serif" font-size="14.00">b</text>
</g>
<!-- q9&#45;&gt;q7 -->
<g id="edge36" class="edge"><title>q9&#45;&gt;q7</title>
<path fill="none" stroke="black" d="M170.99,-40.5197C187.404,-70.4262 219.415,-133.754 231,-192 236.49,-219.603 234.099,-251.795 231.026,-274.381"/>
<polygon fill="black" stroke="black" points="227.555,-273.926 229.544,-284.333 234.479,-274.957 227.555,-273.926"/>
<text text-anchor="middle" x="230.5" y="-161.4" font-family="Times Roman,serif" font-size="14.00">a</text>
</g>
</g>
</svg>
