<?xml version="1.0" encoding="UTF-8" standalone="no"?>
<!DOCTYPE svg PUBLIC "-//W3C//DTD SVG 1.1//EN"
 "http://www.w3.org/Graphics/SVG/1.1/DTD/svg11.dtd">
<!-- Generated by graphviz version 2.26.3 (20100126.1600)
 -->
<!-- Title: G Pages: 1 -->
<svg width="196pt" height="330pt"
 viewBox="0.00 0.00 196.00 330.00" xmlns="http://www.w3.org/2000/svg" xmlns:xlink="http://www.w3.org/1999/xlink">
<g id="graph1" class="graph" transform="scale(1 1) rotate(0) translate(4 326)">
<title>G</title>
<polygon fill="white" stroke="white" points="-4,5 -4,-326 193,-326 193,5 -4,5"/>
<!-- q2 -->
<g id="node1" class="node"><title>q2</title>
<ellipse fill="none" stroke="black" cx="27" cy="-304" rx="27" ry="18"/>
<text text-anchor="middle" x="27" y="-299.9" font-family="Times Roman,serif" font-size="14.00">q2</text>
</g>
<!-- q2&#45;&gt;q2 -->
<g id="edge2" class="edge"><title>q2&#45;&gt;q2</title>
<path fill="none" stroke="black" d="M51.5325,-312.121C62.5078,-312.895 72,-310.188 72,-304 72,-299.843 67.7151,-297.257 61.5743,-296.242"/>
<polygon fill="black" stroke="black" points="61.6524,-292.742 51.5325,-295.879 61.3995,-299.738 61.6524,-292.742"/>
<text text-anchor="middle" x="76.5" y="-299.9" font-family="Times Roman,serif" font-size="14.00">b</text>
</g>
<!-- q1 -->
<g id="node4" class="node"><title>q1</title>
<ellipse fill="none" stroke="black" cx="27" cy="-210" rx="27" ry="18"/>
<text text-anchor="middle" x="27" y="-205.9" font-family="Times Roman,serif" font-size="14.00">q1</text>
</g>
<!-- q2&#45;&gt;q1 -->
<g id="edge4" class="edge"><title>q2&#45;&gt;q1</title>
<path fill="none" stroke="black" d="M27,-285.876C27,-272.352 27,-253.619 27,-238.151"/>
<polygon fill="black" stroke="black" points="30.5001,-238.068 27,-228.069 23.5001,-238.069 30.5001,-238.068"/>
<text text-anchor="middle" x="31.5" y="-254.9" font-family="Times Roman,serif" font-size="14.00">a</text>
</g>
<!-- q1&#45;&gt;q1 -->
<g id="edge6" class="edge"><title>q1&#45;&gt;q1</title>
<path fill="none" stroke="black" d="M50.6146,-218.78C61.9731,-219.864 72,-216.938 72,-210 72,-205.339 67.4737,-202.488 61.0584,-201.448"/>
<polygon fill="black" stroke="black" points="60.6888,-197.939 50.6146,-201.22 60.5356,-204.938 60.6888,-197.939"/>
<text text-anchor="middle" x="76.5" y="-205.9" font-family="Times Roman,serif" font-size="14.00">b</text>
</g>
<!-- q4 -->
<g id="node7" class="node"><title>q4</title>
<ellipse fill="none" stroke="black" cx="59" cy="-116" rx="27" ry="18"/>
<text text-anchor="middle" x="59" y="-111.9" font-family="Times Roman,serif" font-size="14.00">q4</text>
</g>
<!-- q1&#45;&gt;q4 -->
<g id="edge8" class="edge"><title>q1&#45;&gt;q4</title>
<path fill="none" stroke="black" d="M24.2144,-191.891C23.1454,-180.139 23.1588,-164.705 28,-152 29.8613,-147.116 32.7009,-142.443 35.9203,-138.177"/>
<polygon fill="black" stroke="black" points="38.6138,-140.413 42.4221,-130.526 33.2796,-135.88 38.6138,-140.413"/>
<text text-anchor="middle" x="32.5" y="-156.9" font-family="Times Roman,serif" font-size="14.00">a</text>
</g>
<!-- q4&#45;&gt;q1 -->
<g id="edge12" class="edge"><title>q4&#45;&gt;q1</title>
<path fill="none" stroke="black" d="M53.008,-133.601C48.3223,-147.366 41.723,-166.751 36.3446,-182.55"/>
<polygon fill="black" stroke="black" points="32.9284,-181.725 33.019,-192.319 39.5549,-183.981 32.9284,-181.725"/>
<text text-anchor="middle" x="50.5" y="-156.9" font-family="Times Roman,serif" font-size="14.00">a</text>
</g>
<!-- q0 -->
<g id="node9" class="node"><title>q0</title>
<ellipse fill="none" stroke="black" cx="59" cy="-22" rx="27" ry="18"/>
<ellipse fill="none" stroke="black" cx="59" cy="-22" rx="31" ry="22"/>
<text text-anchor="middle" x="59" y="-17.9" font-family="Times Roman,serif" font-size="14.00">q0</text>
</g>
<!-- q4&#45;&gt;q0 -->
<g id="edge10" class="edge"><title>q4&#45;&gt;q0</title>
<path fill="none" stroke="black" d="M42.3489,-101.502C36.6612,-95.4908 30.9852,-88.0416 28,-80 25.2159,-72.5001 25.4103,-69.5692 28,-62 29.6211,-57.2617 32.0572,-52.6505 34.865,-48.3445"/>
<polygon fill="black" stroke="black" points="37.9028,-50.1214 41.0082,-39.9919 32.2637,-45.9739 37.9028,-50.1214"/>
<text text-anchor="middle" x="32.5" y="-66.9" font-family="Times Roman,serif" font-size="14.00">b</text>
</g>
<!-- q0&#45;&gt;q4 -->
<g id="edge18" class="edge"><title>q0&#45;&gt;q4</title>
<path fill="none" stroke="black" d="M59,-44.0388C59,-57.0958 59,-73.7734 59,-87.785"/>
<polygon fill="black" stroke="black" points="55.5001,-87.8758 59,-97.8759 62.5001,-87.8759 55.5001,-87.8758"/>
<text text-anchor="middle" x="63.5" y="-66.9" font-family="Times Roman,serif" font-size="14.00">b</text>
</g>
<!-- q0&#45;&gt;q4 -->
<g id="edge20" class="edge"><title>q0&#45;&gt;q4</title>
<path fill="none" stroke="black" d="M65.9375,-43.7022C68.5969,-54.5722 70.6422,-67.952 69,-80 68.6268,-82.7376 68.101,-85.5608 67.4837,-88.3653"/>
<polygon fill="black" stroke="black" points="64.0414,-87.6996 64.956,-98.2549 70.8234,-89.4331 64.0414,-87.6996"/>
<text text-anchor="middle" x="73.5" y="-66.9" font-family="Times Roman,serif" font-size="14.00">a</text>
</g>
<!-- q3 -->
<g id="node11" class="node"><title>q3</title>
<ellipse fill="none" stroke="black" cx="130" cy="-210" rx="27" ry="18"/>
<ellipse fill="none" stroke="black" cx="130" cy="-210" rx="31" ry="22"/>
<text text-anchor="middle" x="130" y="-205.9" font-family="Times Roman,serif" font-size="14.00">q3</text>
</g>
<!-- q3&#45;&gt;q4 -->
<g id="edge16" class="edge"><title>q3&#45;&gt;q4</title>
<path fill="none" stroke="black" d="M115.289,-190.523C104.322,-176.004 89.2683,-156.073 77.4879,-140.477"/>
<polygon fill="black" stroke="black" points="80.1467,-138.19 71.3267,-132.32 74.561,-142.409 80.1467,-138.19"/>
<text text-anchor="middle" x="102.5" y="-156.9" font-family="Times Roman,serif" font-size="14.00">a</text>
</g>
<!-- q3&#45;&gt;q3 -->
<g id="edge14" class="edge"><title>q3&#45;&gt;q3</title>
<path fill="none" stroke="black" d="M158.689,-218.965C169.781,-219.363 179,-216.375 179,-210 179,-205.717 174.838,-202.962 168.743,-201.737"/>
<polygon fill="black" stroke="black" points="168.908,-198.24 158.689,-201.035 168.421,-205.223 168.908,-198.24"/>
<text text-anchor="middle" x="183.5" y="-205.9" font-family="Times Roman,serif" font-size="14.00">b</text>
</g>
</g>
</svg>
