<?xml version="1.0" encoding="UTF-8" standalone="no"?>
<!DOCTYPE svg PUBLIC "-//W3C//DTD SVG 1.1//EN"
 "http://www.w3.org/Graphics/SVG/1.1/DTD/svg11.dtd">
<!-- Generated by graphviz version 2.26.3 (20100126.1600)
 -->
<!-- Title: G Pages: 1 -->
<svg width="272pt" height="798pt"
 viewBox="0.00 0.00 272.00 798.00" xmlns="http://www.w3.org/2000/svg" xmlns:xlink="http://www.w3.org/1999/xlink">
<g id="graph1" class="graph" transform="scale(1 1) rotate(0) translate(4 794)">
<title>G</title>
<polygon fill="white" stroke="white" points="-4,5 -4,-794 269,-794 269,5 -4,5"/>
<!-- q0 -->
<g id="node1" class="node"><title>q0</title>
<ellipse fill="none" stroke="black" cx="101" cy="-679" rx="27" ry="18.3848"/>
<text text-anchor="middle" x="101" y="-675.4" font-family="Times Roman,serif" font-size="14.00">q0</text>
</g>
<!-- q0&#45;&gt;q0 -->
<g id="edge4" class="edge"><title>q0&#45;&gt;q0</title>
<path fill="none" stroke="black" d="M125.074,-687.454C136.242,-688.377 146,-685.559 146,-679 146,-674.593 141.595,-671.875 135.317,-670.846"/>
<polygon fill="black" stroke="black" points="135.173,-667.34 125.074,-670.546 134.967,-674.337 135.173,-667.34"/>
<text text-anchor="middle" x="150.5" y="-675.4" font-family="Times Roman,serif" font-size="14.00">a</text>
</g>
<!-- q3 -->
<g id="node3" class="node"><title>q3</title>
<ellipse fill="none" stroke="black" cx="93" cy="-587" rx="27" ry="18.3848"/>
<text text-anchor="middle" x="93" y="-583.4" font-family="Times Roman,serif" font-size="14.00">q3</text>
</g>
<!-- q0&#45;&gt;q3 -->
<g id="edge2" class="edge"><title>q0&#45;&gt;q3</title>
<path fill="none" stroke="black" d="M99.3811,-660.382C98.2642,-647.538 96.7579,-630.216 95.4893,-615.627"/>
<polygon fill="black" stroke="black" points="98.9697,-615.249 94.6165,-605.59 91.9961,-615.856 98.9697,-615.249"/>
<text text-anchor="middle" x="102.5" y="-629.4" font-family="Times Roman,serif" font-size="14.00">b</text>
</g>
<!-- q2 -->
<g id="node5" class="node"><title>q2</title>
<ellipse fill="none" stroke="black" cx="193" cy="-495" rx="27" ry="18.3848"/>
<text text-anchor="middle" x="193" y="-491.4" font-family="Times Roman,serif" font-size="14.00">q2</text>
</g>
<!-- q3&#45;&gt;q2 -->
<g id="edge12" class="edge"><title>q3&#45;&gt;q2</title>
<path fill="none" stroke="black" d="M113.462,-574.863C123.993,-568.163 136.738,-559.323 147,-550 156.933,-540.976 166.659,-529.797 174.589,-519.88"/>
<polygon fill="black" stroke="black" points="177.406,-521.96 180.794,-511.921 171.885,-517.656 177.406,-521.96"/>
<text text-anchor="middle" x="167.5" y="-537.4" font-family="Times Roman,serif" font-size="14.00">a</text>
</g>
<!-- q10 -->
<g id="node11" class="node"><title>q10</title>
<ellipse fill="none" stroke="black" cx="67" cy="-19" rx="29.9071" ry="18.3848"/>
<text text-anchor="middle" x="67" y="-15.4" font-family="Times Roman,serif" font-size="14.00">q10</text>
</g>
<!-- q3&#45;&gt;q10 -->
<g id="edge10" class="edge"><title>q3&#45;&gt;q10</title>
<path fill="none" stroke="black" d="M70.0112,-576.649C42.4713,-562.492 0,-534.29 0,-495 0,-495 0,-495 0,-111 0,-82.4731 21.3098,-56.8613 39.8934,-39.9498"/>
<polygon fill="black" stroke="black" points="42.357,-42.4463 47.6208,-33.2516 37.772,-37.1568 42.357,-42.4463"/>
<text text-anchor="middle" x="4.5" y="-295.4" font-family="Times Roman,serif" font-size="14.00">b</text>
</g>
<!-- q4 -->
<g id="node7" class="node"><title>q4</title>
<ellipse fill="none" stroke="black" cx="233" cy="-399" rx="27" ry="18.3848"/>
<ellipse fill="none" stroke="black" cx="233" cy="-399" rx="31" ry="22.3848"/>
<text text-anchor="middle" x="233" y="-395.4" font-family="Times Roman,serif" font-size="14.00">q4</text>
</g>
<!-- q2&#45;&gt;q4 -->
<g id="edge6" class="edge"><title>q2&#45;&gt;q4</title>
<path fill="none" stroke="black" d="M196.681,-476.479C199.178,-465.599 202.947,-451.725 208,-440 209.708,-436.038 211.746,-432.002 213.913,-428.085"/>
<polygon fill="black" stroke="black" points="217.056,-429.643 219.103,-419.248 211.02,-426.098 217.056,-429.643"/>
<text text-anchor="middle" x="212.5" y="-445.4" font-family="Times Roman,serif" font-size="14.00">b</text>
</g>
<!-- q9 -->
<g id="node9" class="node"><title>q9</title>
<ellipse fill="none" stroke="black" cx="169" cy="-203" rx="27" ry="18.3848"/>
<text text-anchor="middle" x="169" y="-199.4" font-family="Times Roman,serif" font-size="14.00">q9</text>
</g>
<!-- q2&#45;&gt;q9 -->
<g id="edge8" class="edge"><title>q2&#45;&gt;q9</title>
<path fill="none" stroke="black" d="M191.462,-476.29C187.381,-426.639 176.256,-291.285 171.363,-231.751"/>
<polygon fill="black" stroke="black" points="174.832,-231.234 170.525,-221.554 167.856,-231.807 174.832,-231.234"/>
<text text-anchor="middle" x="185.5" y="-345.4" font-family="Times Roman,serif" font-size="14.00">a</text>
</g>
<!-- q4&#45;&gt;q2 -->
<g id="edge16" class="edge"><title>q4&#45;&gt;q2</title>
<path fill="none" stroke="black" d="M228.649,-421.417C226.035,-432.681 222.194,-446.372 217,-458 215.243,-461.932 213.1,-465.923 210.825,-469.756"/>
<polygon fill="black" stroke="black" points="207.797,-467.995 205.396,-478.314 213.708,-471.745 207.797,-467.995"/>
<text text-anchor="middle" x="227.5" y="-445.4" font-family="Times Roman,serif" font-size="14.00">a</text>
</g>
<!-- q8 -->
<g id="node14" class="node"><title>q8</title>
<ellipse fill="none" stroke="black" cx="233" cy="-299" rx="27" ry="18.3848"/>
<ellipse fill="none" stroke="black" cx="233" cy="-299" rx="31" ry="22.3848"/>
<text text-anchor="middle" x="233" y="-295.4" font-family="Times Roman,serif" font-size="14.00">q8</text>
</g>
<!-- q4&#45;&gt;q8 -->
<g id="edge14" class="edge"><title>q4&#45;&gt;q8</title>
<path fill="none" stroke="black" d="M233,-376.308C233,-363.139 233,-346.324 233,-331.742"/>
<polygon fill="black" stroke="black" points="236.5,-331.602 233,-321.602 229.5,-331.602 236.5,-331.602"/>
<text text-anchor="middle" x="237.5" y="-345.4" font-family="Times Roman,serif" font-size="14.00">b</text>
</g>
<!-- q9&#45;&gt;q3 -->
<g id="edge30" class="edge"><title>q9&#45;&gt;q3</title>
<path fill="none" stroke="black" d="M159.099,-220.43C149.379,-239.209 136,-270.273 136,-299 136,-495 136,-495 136,-495 136,-519.322 123.513,-544.147 111.997,-561.87"/>
<polygon fill="black" stroke="black" points="108.887,-560.218 106.135,-570.45 114.666,-564.167 108.887,-560.218"/>
<text text-anchor="middle" x="140.5" y="-395.4" font-family="Times Roman,serif" font-size="14.00">b</text>
</g>
<!-- q5 -->
<g id="node16" class="node"><title>q5</title>
<ellipse fill="none" stroke="black" cx="216" cy="-111" rx="27" ry="18.3848"/>
<text text-anchor="middle" x="216" y="-107.4" font-family="Times Roman,serif" font-size="14.00">q5</text>
</g>
<!-- q9&#45;&gt;q5 -->
<g id="edge32" class="edge"><title>q9&#45;&gt;q5</title>
<path fill="none" stroke="black" d="M178.062,-185.261C184.954,-171.77 194.552,-152.984 202.369,-137.683"/>
<polygon fill="black" stroke="black" points="205.533,-139.182 206.966,-128.684 199.299,-135.997 205.533,-139.182"/>
<text text-anchor="middle" x="200.5" y="-153.4" font-family="Times Roman,serif" font-size="14.00">a</text>
</g>
<!-- q10&#45;&gt;q3 -->
<g id="edge34" class="edge"><title>q10&#45;&gt;q3</title>
<path fill="none" stroke="black" d="M60.0391,-37.0242C53.5938,-55.3554 45,-84.7239 45,-111 45,-495 45,-495 45,-495 45,-520.236 59.3715,-545.4 72.3869,-563.015"/>
<polygon fill="black" stroke="black" points="69.7039,-565.267 78.5984,-571.023 75.2351,-560.976 69.7039,-565.267"/>
<text text-anchor="middle" x="49.5" y="-295.4" font-family="Times Roman,serif" font-size="14.00">b</text>
</g>
<!-- q10&#45;&gt;q3 -->
<g id="edge36" class="edge"><title>q10&#45;&gt;q3</title>
<path fill="none" stroke="black" d="M74.2773,-36.9963C81.0156,-55.306 90,-84.6579 90,-111 90,-495 90,-495 90,-495 90,-516.141 90.8012,-540.001 91.5754,-558.124"/>
<polygon fill="black" stroke="black" points="88.0885,-558.496 92.0343,-568.328 95.0815,-558.181 88.0885,-558.496"/>
<text text-anchor="middle" x="94.5" y="-295.4" font-family="Times Roman,serif" font-size="14.00">a</text>
</g>
<!-- q8&#45;&gt;q9 -->
<g id="edge28" class="edge"><title>q8&#45;&gt;q9</title>
<path fill="none" stroke="black" d="M219.427,-278.641C209.735,-264.102 196.621,-244.431 186.195,-228.793"/>
<polygon fill="black" stroke="black" points="188.873,-226.5 180.414,-220.121 183.049,-230.383 188.873,-226.5"/>
<text text-anchor="middle" x="208.5" y="-245.4" font-family="Times Roman,serif" font-size="14.00">a</text>
</g>
<!-- q8&#45;&gt;q5 -->
<g id="edge26" class="edge"><title>q8&#45;&gt;q5</title>
<path fill="none" stroke="black" d="M238.835,-276.588C240.144,-270.592 241.34,-264.086 242,-258 247.286,-209.268 247.627,-195.086 234,-148 233.017,-144.603 231.741,-141.137 230.322,-137.755"/>
<polygon fill="black" stroke="black" points="233.449,-136.177 226.071,-128.573 227.097,-139.118 233.449,-136.177"/>
<text text-anchor="middle" x="249.5" y="-199.4" font-family="Times Roman,serif" font-size="14.00">b</text>
</g>
<!-- q5&#45;&gt;q10 -->
<g id="edge20" class="edge"><title>q5&#45;&gt;q10</title>
<path fill="none" stroke="black" d="M195.905,-98.5925C170.422,-82.8576 126.264,-55.5924 96.8389,-37.424"/>
<polygon fill="black" stroke="black" points="98.5646,-34.3761 88.217,-32.1004 94.8869,-40.3322 98.5646,-34.3761"/>
<text text-anchor="middle" x="158.5" y="-61.4" font-family="Times Roman,serif" font-size="14.00">a</text>
</g>
<!-- q5&#45;&gt;q8 -->
<g id="edge18" class="edge"><title>q5&#45;&gt;q8</title>
<path fill="none" stroke="black" d="M217.676,-129.529C220.547,-161.28 226.443,-226.486 230.026,-266.114"/>
<polygon fill="black" stroke="black" points="226.563,-266.679 230.949,-276.323 233.535,-266.048 226.563,-266.679"/>
<text text-anchor="middle" x="229.5" y="-199.4" font-family="Times Roman,serif" font-size="14.00">b</text>
</g>
<!-- q6 -->
<g id="node19" class="node"><title>q6</title>
<ellipse fill="none" stroke="black" cx="166" cy="-771" rx="27" ry="18.3848"/>
<text text-anchor="middle" x="166" y="-767.4" font-family="Times Roman,serif" font-size="14.00">q6</text>
</g>
<!-- q6&#45;&gt;q0 -->
<g id="edge22" class="edge"><title>q6&#45;&gt;q0</title>
<path fill="none" stroke="black" d="M154.078,-754.126C144.182,-740.12 129.963,-719.994 118.732,-704.098"/>
<polygon fill="black" stroke="black" points="121.475,-701.915 112.846,-695.767 115.758,-705.954 121.475,-701.915"/>
<text text-anchor="middle" x="143.5" y="-721.4" font-family="Times Roman,serif" font-size="14.00">b</text>
</g>
<!-- q6&#45;&gt;q2 -->
<g id="edge24" class="edge"><title>q6&#45;&gt;q2</title>
<path fill="none" stroke="black" d="M167.813,-752.462C172.423,-705.34 184.617,-580.696 190.171,-523.914"/>
<polygon fill="black" stroke="black" points="193.669,-524.114 191.159,-513.82 186.702,-523.432 193.669,-524.114"/>
<text text-anchor="middle" x="184.5" y="-629.4" font-family="Times Roman,serif" font-size="14.00">a</text>
</g>
</g>
</svg>
