<?xml version="1.0" encoding="UTF-8" standalone="no"?>
<!DOCTYPE svg PUBLIC "-//W3C//DTD SVG 1.1//EN"
 "http://www.w3.org/Graphics/SVG/1.1/DTD/svg11.dtd">
<!-- Generated by graphviz version 2.26.3 (20100126.1600)
 -->
<!-- Title: G Pages: 1 -->
<svg width="284pt" height="414pt"
 viewBox="0.00 0.00 284.00 414.00" xmlns="http://www.w3.org/2000/svg" xmlns:xlink="http://www.w3.org/1999/xlink">
<g id="graph1" class="graph" transform="scale(1 1) rotate(0) translate(4 410)">
<title>G</title>
<polygon fill="white" stroke="white" points="-4,5 -4,-410 281,-410 281,5 -4,5"/>
<!-- q5 -->
<g id="node1" class="node"><title>q5</title>
<ellipse fill="none" stroke="black" cx="184" cy="-295" rx="27" ry="18.3848"/>
<text text-anchor="middle" x="184" y="-291.4" font-family="Times Roman,serif" font-size="14.00">q5</text>
</g>
<!-- q2 -->
<g id="node3" class="node"><title>q2</title>
<ellipse fill="none" stroke="black" cx="96" cy="-111" rx="27" ry="18.3848"/>
<text text-anchor="middle" x="96" y="-107.4" font-family="Times Roman,serif" font-size="14.00">q2</text>
</g>
<!-- q5&#45;&gt;q2 -->
<g id="edge2" class="edge"><title>q5&#45;&gt;q2</title>
<path fill="none" stroke="black" d="M182.1,-276.428C179.193,-253.632 172.279,-214.277 157,-184 147.483,-165.142 132.25,-146.906 119.388,-133.377"/>
<polygon fill="black" stroke="black" points="121.647,-130.682 112.149,-125.987 116.646,-135.58 121.647,-130.682"/>
<text text-anchor="middle" x="175.5" y="-199.4" font-family="Times Roman,serif" font-size="14.00">b</text>
</g>
<!-- q3 -->
<g id="node5" class="node"><title>q3</title>
<ellipse fill="none" stroke="black" cx="121" cy="-203" rx="27" ry="18.3848"/>
<text text-anchor="middle" x="121" y="-199.4" font-family="Times Roman,serif" font-size="14.00">q3</text>
</g>
<!-- q5&#45;&gt;q3 -->
<g id="edge4" class="edge"><title>q5&#45;&gt;q3</title>
<path fill="none" stroke="black" d="M172.445,-278.126C162.854,-264.12 149.072,-243.994 138.186,-228.098"/>
<polygon fill="black" stroke="black" points="141.02,-226.041 132.482,-219.767 135.244,-229.996 141.02,-226.041"/>
<text text-anchor="middle" x="162.5" y="-245.4" font-family="Times Roman,serif" font-size="14.00">a</text>
</g>
<!-- q2&#45;&gt;q5 -->
<g id="edge6" class="edge"><title>q2&#45;&gt;q5</title>
<path fill="none" stroke="black" d="M86.2397,-128.608C75.0018,-151.444 60.0192,-191.909 76,-222 91.6249,-251.421 124.987,-271.143 150.523,-282.593"/>
<polygon fill="black" stroke="black" points="149.303,-285.877 159.874,-286.579 152.048,-279.438 149.303,-285.877"/>
<text text-anchor="middle" x="80.5" y="-199.4" font-family="Times Roman,serif" font-size="14.00">b</text>
</g>
<!-- q4 -->
<g id="node8" class="node"><title>q4</title>
<ellipse fill="none" stroke="black" cx="190" cy="-19" rx="27" ry="18.3848"/>
<text text-anchor="middle" x="190" y="-15.4" font-family="Times Roman,serif" font-size="14.00">q4</text>
</g>
<!-- q2&#45;&gt;q4 -->
<g id="edge8" class="edge"><title>q2&#45;&gt;q4</title>
<path fill="none" stroke="black" d="M106.539,-93.4534C113.918,-82.0165 124.487,-67.1937 136,-56 143.317,-48.8854 152.146,-42.2091 160.525,-36.5392"/>
<polygon fill="black" stroke="black" points="162.538,-39.4052 169.013,-31.0187 158.721,-33.5373 162.538,-39.4052"/>
<text text-anchor="middle" x="140.5" y="-61.4" font-family="Times Roman,serif" font-size="14.00">a</text>
</g>
<!-- q3&#45;&gt;q2 -->
<g id="edge18" class="edge"><title>q3&#45;&gt;q2</title>
<path fill="none" stroke="black" d="M115.941,-184.382C112.428,-171.454 107.682,-153.988 103.701,-139.339"/>
<polygon fill="black" stroke="black" points="106.966,-138.008 100.966,-129.276 100.211,-139.844 106.966,-138.008"/>
<text text-anchor="middle" x="114.5" y="-153.4" font-family="Times Roman,serif" font-size="14.00">b</text>
</g>
<!-- q3&#45;&gt;q4 -->
<g id="edge20" class="edge"><title>q3&#45;&gt;q4</title>
<path fill="none" stroke="black" d="M127.742,-185.022C139.851,-152.731 165.353,-84.7252 179.676,-46.5295"/>
<polygon fill="black" stroke="black" points="182.997,-47.6429 183.231,-37.0507 176.443,-45.185 182.997,-47.6429"/>
<text text-anchor="middle" x="166.5" y="-107.4" font-family="Times Roman,serif" font-size="14.00">a</text>
</g>
<!-- q4&#45;&gt;q5 -->
<g id="edge16" class="edge"><title>q4&#45;&gt;q5</title>
<path fill="none" stroke="black" d="M190.113,-37.627C190.337,-75.66 190.83,-164.99 191,-240 191.018,-248 191.747,-250.035 191,-258 190.74,-260.772 190.373,-263.647 189.941,-266.512"/>
<polygon fill="black" stroke="black" points="186.443,-266.2 188.173,-276.653 193.339,-267.403 186.443,-266.2"/>
<text text-anchor="middle" x="194.5" y="-153.4" font-family="Times Roman,serif" font-size="14.00">a</text>
</g>
<!-- q4&#45;&gt;q4 -->
<g id="edge14" class="edge"><title>q4&#45;&gt;q4</title>
<path fill="none" stroke="black" d="M214.074,-27.4544C225.242,-28.3767 235,-25.5586 235,-19 235,-14.5934 230.595,-11.8754 224.317,-10.8458"/>
<polygon fill="black" stroke="black" points="224.173,-7.34018 214.074,-10.5456 223.967,-14.3372 224.173,-7.34018"/>
<text text-anchor="middle" x="239.5" y="-15.4" font-family="Times Roman,serif" font-size="14.00">b</text>
</g>
<!-- q1 -->
<g id="node9" class="node"><title>q1</title>
<ellipse fill="none" stroke="black" cx="27" cy="-295" rx="27" ry="18.3848"/>
<text text-anchor="middle" x="27" y="-291.4" font-family="Times Roman,serif" font-size="14.00">q1</text>
</g>
<!-- q1&#45;&gt;q2 -->
<g id="edge12" class="edge"><title>q1&#45;&gt;q2</title>
<path fill="none" stroke="black" d="M26.49,-276.192C26.346,-253.831 27.5671,-215.568 36,-184 40.5667,-166.905 42.2816,-162.078 53,-148 57.5937,-141.966 63.3142,-136.215 69.068,-131.122"/>
<polygon fill="black" stroke="black" points="71.4124,-133.724 76.8322,-124.62 66.9182,-128.357 71.4124,-133.724"/>
<text text-anchor="middle" x="40.5" y="-199.4" font-family="Times Roman,serif" font-size="14.00">a</text>
</g>
<!-- q1&#45;&gt;q3 -->
<g id="edge10" class="edge"><title>q1&#45;&gt;q3</title>
<path fill="none" stroke="black" d="M42.5222,-279.808C57.6257,-265.026 80.7556,-242.388 97.9972,-225.513"/>
<polygon fill="black" stroke="black" points="100.756,-227.711 105.455,-218.214 95.8599,-222.708 100.756,-227.711"/>
<text text-anchor="middle" x="87.5" y="-245.4" font-family="Times Roman,serif" font-size="14.00">b</text>
</g>
<!-- q0 -->
<g id="node16" class="node"><title>q0</title>
<ellipse fill="none" stroke="black" cx="240" cy="-387" rx="27" ry="18.3848"/>
<text text-anchor="middle" x="240" y="-383.4" font-family="Times Roman,serif" font-size="14.00">q0</text>
</g>
<!-- q0&#45;&gt;q5 -->
<g id="edge22" class="edge"><title>q0&#45;&gt;q5</title>
<path fill="none" stroke="black" d="M229.467,-369.696C221.097,-355.946 209.262,-336.501 199.764,-320.898"/>
<polygon fill="black" stroke="black" points="202.675,-318.949 194.486,-312.227 196.696,-322.589 202.675,-318.949"/>
<text text-anchor="middle" x="221.5" y="-337.4" font-family="Times Roman,serif" font-size="14.00">b</text>
</g>
<!-- q0&#45;&gt;q4 -->
<g id="edge24" class="edge"><title>q0&#45;&gt;q4</title>
<path fill="none" stroke="black" d="M248.543,-369.127C256.453,-350.913 267,-321.633 267,-295 267,-295 267,-295 267,-111 267,-79.9252 240.847,-53.8231 219.025,-37.4521"/>
<polygon fill="black" stroke="black" points="220.806,-34.4234 210.635,-31.4582 216.737,-40.1192 220.806,-34.4234"/>
<text text-anchor="middle" x="271.5" y="-199.4" font-family="Times Roman,serif" font-size="14.00">a</text>
</g>
</g>
</svg>
