<?xml version="1.0" encoding="UTF-8" standalone="no"?>
<!DOCTYPE svg PUBLIC "-//W3C//DTD SVG 1.1//EN"
 "http://www.w3.org/Graphics/SVG/1.1/DTD/svg11.dtd">
<!-- Generated by graphviz version 2.26.3 (20100126.1600)
 -->
<!-- Title: G Pages: 1 -->
<svg width="268pt" height="706pt"
 viewBox="0.00 0.00 268.00 706.00" xmlns="http://www.w3.org/2000/svg" xmlns:xlink="http://www.w3.org/1999/xlink">
<g id="graph1" class="graph" transform="scale(1 1) rotate(0) translate(4 702)">
<title>G</title>
<polygon fill="white" stroke="white" points="-4,5 -4,-702 265,-702 265,5 -4,5"/>
<!-- q0 -->
<g id="node1" class="node"><title>q0</title>
<ellipse fill="none" stroke="black" cx="178" cy="-487" rx="27" ry="18.3848"/>
<text text-anchor="middle" x="178" y="-483.4" font-family="Times Roman,serif" font-size="14.00">q0</text>
</g>
<!-- q0&#45;&gt;q0 -->
<g id="edge2" class="edge"><title>q0&#45;&gt;q0</title>
<path fill="none" stroke="black" d="M202.074,-495.454C213.242,-496.377 223,-493.559 223,-487 223,-482.593 218.595,-479.875 212.317,-478.846"/>
<polygon fill="black" stroke="black" points="212.173,-475.34 202.074,-478.546 211.967,-482.337 212.173,-475.34"/>
<text text-anchor="middle" x="227.5" y="-483.4" font-family="Times Roman,serif" font-size="14.00">b</text>
</g>
<!-- q6 -->
<g id="node4" class="node"><title>q6</title>
<ellipse fill="none" stroke="black" cx="96" cy="-395" rx="27" ry="18.3848"/>
<text text-anchor="middle" x="96" y="-391.4" font-family="Times Roman,serif" font-size="14.00">q6</text>
</g>
<!-- q0&#45;&gt;q6 -->
<g id="edge4" class="edge"><title>q0&#45;&gt;q6</title>
<path fill="none" stroke="black" d="M163.717,-470.975C150.783,-456.463 131.566,-434.903 116.904,-418.453"/>
<polygon fill="black" stroke="black" points="119.386,-415.978 110.12,-410.842 114.161,-420.636 119.386,-415.978"/>
<text text-anchor="middle" x="148.5" y="-437.4" font-family="Times Roman,serif" font-size="14.00">a</text>
</g>
<!-- q6&#45;&gt;q6 -->
<g id="edge26" class="edge"><title>q6&#45;&gt;q6</title>
<path fill="none" stroke="black" d="M120.074,-403.454C131.242,-404.377 141,-401.559 141,-395 141,-390.593 136.595,-387.875 130.317,-386.846"/>
<polygon fill="black" stroke="black" points="130.173,-383.34 120.074,-386.546 129.967,-390.337 130.173,-383.34"/>
<text text-anchor="middle" x="145.5" y="-391.4" font-family="Times Roman,serif" font-size="14.00">b</text>
</g>
<!-- q7 -->
<g id="node12" class="node"><title>q7</title>
<ellipse fill="none" stroke="black" cx="90" cy="-303" rx="27" ry="18.3848"/>
<text text-anchor="middle" x="90" y="-299.4" font-family="Times Roman,serif" font-size="14.00">q7</text>
</g>
<!-- q6&#45;&gt;q7 -->
<g id="edge28" class="edge"><title>q6&#45;&gt;q7</title>
<path fill="none" stroke="black" d="M94.7858,-376.382C93.9482,-363.538 92.8184,-346.216 91.867,-331.627"/>
<polygon fill="black" stroke="black" points="95.3558,-331.341 91.2124,-321.59 88.3707,-331.796 95.3558,-331.341"/>
<text text-anchor="middle" x="97.5" y="-345.4" font-family="Times Roman,serif" font-size="14.00">a</text>
</g>
<!-- q1 -->
<g id="node5" class="node"><title>q1</title>
<ellipse fill="none" stroke="black" cx="31" cy="-675" rx="27" ry="18.3848"/>
<ellipse fill="none" stroke="black" cx="31" cy="-675" rx="31" ry="22.3848"/>
<text text-anchor="middle" x="31" y="-671.4" font-family="Times Roman,serif" font-size="14.00">q1</text>
</g>
<!-- q3 -->
<g id="node7" class="node"><title>q3</title>
<ellipse fill="none" stroke="black" cx="73" cy="-579" rx="27" ry="18.3848"/>
<text text-anchor="middle" x="73" y="-575.4" font-family="Times Roman,serif" font-size="14.00">q3</text>
</g>
<!-- q1&#45;&gt;q3 -->
<g id="edge6" class="edge"><title>q1&#45;&gt;q3</title>
<path fill="none" stroke="black" d="M40.5305,-653.216C46.6454,-639.239 54.632,-620.984 61.154,-606.077"/>
<polygon fill="black" stroke="black" points="64.3923,-607.407 65.1939,-596.842 57.9791,-604.601 64.3923,-607.407"/>
<text text-anchor="middle" x="60.5" y="-621.4" font-family="Times Roman,serif" font-size="14.00">b</text>
</g>
<!-- q8 -->
<g id="node9" class="node"><title>q8</title>
<ellipse fill="none" stroke="black" cx="31" cy="-23" rx="27" ry="18.3848"/>
<ellipse fill="none" stroke="black" cx="31" cy="-23" rx="31" ry="22.3848"/>
<text text-anchor="middle" x="31" y="-19.4" font-family="Times Roman,serif" font-size="14.00">q8</text>
</g>
<!-- q1&#45;&gt;q8 -->
<g id="edge8" class="edge"><title>q1&#45;&gt;q8</title>
<path fill="none" stroke="black" d="M21.9744,-653.303C14.8135,-634.114 6,-605.178 6,-579 6,-579 6,-579 6,-119 6,-96.9121 12.2744,-72.8614 18.5366,-54.3581"/>
<polygon fill="black" stroke="black" points="21.9194,-55.2916 21.9744,-44.6969 15.3245,-52.9448 21.9194,-55.2916"/>
<text text-anchor="middle" x="10.5" y="-345.4" font-family="Times Roman,serif" font-size="14.00">a</text>
</g>
<!-- q3&#45;&gt;q6 -->
<g id="edge16" class="edge"><title>q3&#45;&gt;q6</title>
<path fill="none" stroke="black" d="M67.3741,-560.715C61.3839,-538.537 53.6953,-500.131 61,-468 64.7466,-451.519 72.696,-434.415 80.0731,-420.908"/>
<polygon fill="black" stroke="black" points="83.1328,-422.608 85.0303,-412.185 77.0467,-419.15 83.1328,-422.608"/>
<text text-anchor="middle" x="65.5" y="-483.4" font-family="Times Roman,serif" font-size="14.00">a</text>
</g>
<!-- q5 -->
<g id="node16" class="node"><title>q5</title>
<ellipse fill="none" stroke="black" cx="106" cy="-487" rx="27" ry="18.3848"/>
<text text-anchor="middle" x="106" y="-483.4" font-family="Times Roman,serif" font-size="14.00">q5</text>
</g>
<!-- q3&#45;&gt;q5 -->
<g id="edge14" class="edge"><title>q3&#45;&gt;q5</title>
<path fill="none" stroke="black" d="M76.0983,-560.556C78.2301,-549.702 81.4959,-535.829 86,-524 87.3528,-520.447 88.9826,-516.809 90.7207,-513.268"/>
<polygon fill="black" stroke="black" points="93.9093,-514.723 95.4588,-504.243 87.7115,-511.47 93.9093,-514.723"/>
<text text-anchor="middle" x="90.5" y="-529.4" font-family="Times Roman,serif" font-size="14.00">b</text>
</g>
<!-- q8&#45;&gt;q8 -->
<g id="edge34" class="edge"><title>q8&#45;&gt;q8</title>
<path fill="none" stroke="black" d="M61.625,-27.6875C71.8333,-27.6875 80,-26.125 80,-23 80,-21.0469 76.8099,-19.7041 71.925,-18.9717"/>
<polygon fill="black" stroke="black" points="71.8282,-15.4584 61.625,-18.3125 71.381,-22.4441 71.8282,-15.4584"/>
<text text-anchor="middle" x="84.5" y="-19.4" font-family="Times Roman,serif" font-size="14.00">b</text>
</g>
<!-- q8&#45;&gt;q8 -->
<g id="edge36" class="edge"><title>q8&#45;&gt;q8</title>
<path fill="none" stroke="black" d="M54.3472,-37.9505C75.424,-45.2237 98,-40.2402 98,-23 98,-8.45355 81.9279,-2.63284 64.245,-5.53787"/>
<polygon fill="black" stroke="black" points="63.1792,-2.19731 54.3472,-8.04948 64.9009,-8.98227 63.1792,-2.19731"/>
<text text-anchor="middle" x="102.5" y="-19.4" font-family="Times Roman,serif" font-size="14.00">a</text>
</g>
<!-- q2 -->
<g id="node10" class="node"><title>q2</title>
<ellipse fill="none" stroke="black" cx="76" cy="-211" rx="27" ry="18.3848"/>
<text text-anchor="middle" x="76" y="-207.4" font-family="Times Roman,serif" font-size="14.00">q2</text>
</g>
<!-- q2&#45;&gt;q7 -->
<g id="edge10" class="edge"><title>q2&#45;&gt;q7</title>
<path fill="none" stroke="black" d="M74.3511,-229.483C73.8015,-240.227 73.8015,-253.977 76,-266 76.593,-269.243 77.4558,-272.57 78.4664,-275.837"/>
<polygon fill="black" stroke="black" points="75.1826,-277.049 81.8195,-285.308 81.7812,-274.713 75.1826,-277.049"/>
<text text-anchor="middle" x="80.5" y="-253.4" font-family="Times Roman,serif" font-size="14.00">b</text>
</g>
<!-- q4 -->
<g id="node14" class="node"><title>q4</title>
<ellipse fill="none" stroke="black" cx="76" cy="-119" rx="27" ry="18.3848"/>
<text text-anchor="middle" x="76" y="-115.4" font-family="Times Roman,serif" font-size="14.00">q4</text>
</g>
<!-- q2&#45;&gt;q4 -->
<g id="edge12" class="edge"><title>q2&#45;&gt;q4</title>
<path fill="none" stroke="black" d="M76,-192.382C76,-179.538 76,-162.216 76,-147.627"/>
<polygon fill="black" stroke="black" points="79.5001,-147.59 76,-137.59 72.5001,-147.59 79.5001,-147.59"/>
<text text-anchor="middle" x="80.5" y="-161.4" font-family="Times Roman,serif" font-size="14.00">a</text>
</g>
<!-- q7&#45;&gt;q2 -->
<g id="edge30" class="edge"><title>q7&#45;&gt;q2</title>
<path fill="none" stroke="black" d="M88.9909,-284.328C88.2418,-273.642 86.9957,-260.012 85,-248 84.5226,-245.126 83.9429,-242.146 83.3103,-239.18"/>
<polygon fill="black" stroke="black" points="86.6954,-238.284 81.0273,-229.333 79.8763,-239.865 86.6954,-238.284"/>
<text text-anchor="middle" x="91.5" y="-253.4" font-family="Times Roman,serif" font-size="14.00">b</text>
</g>
<!-- q7&#45;&gt;q7 -->
<g id="edge32" class="edge"><title>q7&#45;&gt;q7</title>
<path fill="none" stroke="black" d="M114.074,-311.454C125.242,-312.377 135,-309.559 135,-303 135,-298.593 130.595,-295.875 124.317,-294.846"/>
<polygon fill="black" stroke="black" points="124.173,-291.34 114.074,-294.546 123.967,-298.337 124.173,-291.34"/>
<text text-anchor="middle" x="139.5" y="-299.4" font-family="Times Roman,serif" font-size="14.00">a</text>
</g>
<!-- q4&#45;&gt;q0 -->
<g id="edge20" class="edge"><title>q4&#45;&gt;q0</title>
<path fill="none" stroke="black" d="M99.8597,-127.797C130.564,-140.842 180,-168.452 180,-211 180,-395 180,-395 180,-395 180,-416.135 179.466,-439.995 178.95,-458.119"/>
<polygon fill="black" stroke="black" points="175.445,-458.225 178.644,-468.325 182.442,-458.434 175.445,-458.225"/>
<text text-anchor="middle" x="184.5" y="-299.4" font-family="Times Roman,serif" font-size="14.00">a</text>
</g>
<!-- q4&#45;&gt;q8 -->
<g id="edge18" class="edge"><title>q4&#45;&gt;q8</title>
<path fill="none" stroke="black" d="M67.5358,-100.943C61.295,-87.6294 52.6555,-69.1984 45.3445,-53.6017"/>
<polygon fill="black" stroke="black" points="48.4109,-51.8969 40.9974,-44.3279 42.0727,-54.868 48.4109,-51.8969"/>
<text text-anchor="middle" x="61.5" y="-69.4" font-family="Times Roman,serif" font-size="14.00">b</text>
</g>
<!-- q5&#45;&gt;q6 -->
<g id="edge22" class="edge"><title>q5&#45;&gt;q6</title>
<path fill="none" stroke="black" d="M103.976,-468.382C102.58,-455.538 100.697,-438.216 99.1116,-423.627"/>
<polygon fill="black" stroke="black" points="102.581,-423.153 98.0206,-413.59 95.6218,-423.91 102.581,-423.153"/>
<text text-anchor="middle" x="105.5" y="-437.4" font-family="Times Roman,serif" font-size="14.00">b</text>
</g>
<!-- q5&#45;&gt;q3 -->
<g id="edge24" class="edge"><title>q5&#45;&gt;q3</title>
<path fill="none" stroke="black" d="M103.892,-505.52C102.264,-516.4 99.5063,-530.274 95,-542 93.5632,-545.739 91.7637,-549.534 89.8165,-553.197"/>
<polygon fill="black" stroke="black" points="86.7469,-551.514 84.7939,-561.928 92.8145,-555.005 86.7469,-551.514"/>
<text text-anchor="middle" x="104.5" y="-529.4" font-family="Times Roman,serif" font-size="14.00">a</text>
</g>
<!-- q9 -->
<g id="node28" class="node"><title>q9</title>
<ellipse fill="none" stroke="black" cx="233" cy="-579" rx="27" ry="18.3848"/>
<text text-anchor="middle" x="233" y="-575.4" font-family="Times Roman,serif" font-size="14.00">q9</text>
</g>
<!-- q9&#45;&gt;q0 -->
<g id="edge38" class="edge"><title>q9&#45;&gt;q0</title>
<path fill="none" stroke="black" d="M222.655,-561.696C214.435,-547.946 202.811,-528.501 193.482,-512.898"/>
<polygon fill="black" stroke="black" points="196.434,-511.014 188.299,-504.227 190.426,-514.606 196.434,-511.014"/>
<text text-anchor="middle" x="214.5" y="-529.4" font-family="Times Roman,serif" font-size="14.00">b</text>
</g>
<!-- q9&#45;&gt;q7 -->
<g id="edge40" class="edge"><title>q9&#45;&gt;q7</title>
<path fill="none" stroke="black" d="M238.95,-560.626C245.241,-538.028 252.762,-498.874 241,-468 216.556,-403.836 153.839,-349.591 117.382,-322.174"/>
<polygon fill="black" stroke="black" points="119.28,-319.224 109.154,-316.106 115.125,-324.858 119.28,-319.224"/>
<text text-anchor="middle" x="236.5" y="-437.4" font-family="Times Roman,serif" font-size="14.00">a</text>
</g>
</g>
</svg>
