<?xml version="1.0" encoding="UTF-8" standalone="no"?>
<!DOCTYPE svg PUBLIC "-//W3C//DTD SVG 1.1//EN"
 "http://www.w3.org/Graphics/SVG/1.1/DTD/svg11.dtd">
<!-- Generated by graphviz version 2.26.3 (20100126.1600)
 -->
<!-- Title: G Pages: 1 -->
<svg width="366pt" height="698pt"
 viewBox="0.00 0.00 366.00 698.00" xmlns="http://www.w3.org/2000/svg" xmlns:xlink="http://www.w3.org/1999/xlink">
<g id="graph1" class="graph" transform="scale(1 1) rotate(0) translate(4 694)">
<title>G</title>
<polygon fill="white" stroke="white" points="-4,5 -4,-694 363,-694 363,5 -4,5"/>
<!-- q0 -->
<g id="node1" class="node"><title>q0</title>
<ellipse fill="none" stroke="black" cx="113" cy="-671" rx="27" ry="18.3848"/>
<text text-anchor="middle" x="113" y="-667.4" font-family="Times Roman,serif" font-size="14.00">q0</text>
</g>
<!-- q0&#45;&gt;q0 -->
<g id="edge4" class="edge"><title>q0&#45;&gt;q0</title>
<path fill="none" stroke="black" d="M137.074,-679.454C148.242,-680.377 158,-677.559 158,-671 158,-666.593 153.595,-663.875 147.317,-662.846"/>
<polygon fill="black" stroke="black" points="147.173,-659.34 137.074,-662.546 146.967,-666.337 147.173,-659.34"/>
<text text-anchor="middle" x="162.5" y="-667.4" font-family="Times Roman,serif" font-size="14.00">a</text>
</g>
<!-- q3 -->
<g id="node3" class="node"><title>q3</title>
<ellipse fill="none" stroke="black" cx="113" cy="-579" rx="27" ry="18.3848"/>
<text text-anchor="middle" x="113" y="-575.4" font-family="Times Roman,serif" font-size="14.00">q3</text>
</g>
<!-- q0&#45;&gt;q3 -->
<g id="edge2" class="edge"><title>q0&#45;&gt;q3</title>
<path fill="none" stroke="black" d="M113,-652.382C113,-639.538 113,-622.216 113,-607.627"/>
<polygon fill="black" stroke="black" points="116.5,-607.59 113,-597.59 109.5,-607.59 116.5,-607.59"/>
<text text-anchor="middle" x="117.5" y="-621.4" font-family="Times Roman,serif" font-size="14.00">b</text>
</g>
<!-- q2 -->
<g id="node5" class="node"><title>q2</title>
<ellipse fill="none" stroke="black" cx="252" cy="-487" rx="27" ry="18.3848"/>
<text text-anchor="middle" x="252" y="-483.4" font-family="Times Roman,serif" font-size="14.00">q2</text>
</g>
<!-- q3&#45;&gt;q2 -->
<g id="edge12" class="edge"><title>q3&#45;&gt;q2</title>
<path fill="none" stroke="black" d="M137.103,-570.651C154.074,-564.184 176.901,-554.269 195,-542 208.19,-533.059 221.117,-520.944 231.318,-510.36"/>
<polygon fill="black" stroke="black" points="233.941,-512.679 238.228,-502.991 228.835,-507.891 233.941,-512.679"/>
<text text-anchor="middle" x="221.5" y="-529.4" font-family="Times Roman,serif" font-size="14.00">a</text>
</g>
<!-- q10 -->
<g id="node11" class="node"><title>q10</title>
<ellipse fill="none" stroke="black" cx="67" cy="-19" rx="29.9071" ry="18.3848"/>
<text text-anchor="middle" x="67" y="-15.4" font-family="Times Roman,serif" font-size="14.00">q10</text>
</g>
<!-- q3&#45;&gt;q10 -->
<g id="edge10" class="edge"><title>q3&#45;&gt;q10</title>
<path fill="none" stroke="black" d="M87.6883,-572.183C70.1477,-566.437 47.1366,-556.755 31,-542 10.292,-523.065 0,-515.06 0,-487 0,-487 0,-487 0,-111 0,-82.4731 21.3098,-56.8613 39.8934,-39.9498"/>
<polygon fill="black" stroke="black" points="42.357,-42.4463 47.6208,-33.2516 37.772,-37.1568 42.357,-42.4463"/>
<text text-anchor="middle" x="4.5" y="-291.4" font-family="Times Roman,serif" font-size="14.00">b</text>
</g>
<!-- q4 -->
<g id="node7" class="node"><title>q4</title>
<ellipse fill="none" stroke="black" cx="282" cy="-391" rx="27" ry="18.3848"/>
<ellipse fill="none" stroke="black" cx="282" cy="-391" rx="31" ry="22.3848"/>
<text text-anchor="middle" x="282" y="-387.4" font-family="Times Roman,serif" font-size="14.00">q4</text>
</g>
<!-- q2&#45;&gt;q4 -->
<g id="edge6" class="edge"><title>q2&#45;&gt;q4</title>
<path fill="none" stroke="black" d="M249.66,-468.465C248.937,-457.581 249.161,-443.706 253,-432 254.516,-427.376 256.75,-422.82 259.316,-418.521"/>
<polygon fill="black" stroke="black" points="262.283,-420.38 264.927,-410.12 256.462,-416.492 262.283,-420.38"/>
<text text-anchor="middle" x="257.5" y="-437.4" font-family="Times Roman,serif" font-size="14.00">b</text>
</g>
<!-- q9 -->
<g id="node9" class="node"><title>q9</title>
<ellipse fill="none" stroke="black" cx="216" cy="-203" rx="27" ry="18.3848"/>
<text text-anchor="middle" x="216" y="-199.4" font-family="Times Roman,serif" font-size="14.00">q9</text>
</g>
<!-- q2&#45;&gt;q9 -->
<g id="edge8" class="edge"><title>q2&#45;&gt;q9</title>
<path fill="none" stroke="black" d="M248.256,-468.6C247.121,-462.677 245.93,-456.075 245,-450 232.962,-371.372 223.231,-277.993 218.721,-231.815"/>
<polygon fill="black" stroke="black" points="222.185,-231.268 217.739,-221.651 215.217,-231.941 222.185,-231.268"/>
<text text-anchor="middle" x="235.5" y="-337.4" font-family="Times Roman,serif" font-size="14.00">a</text>
</g>
<!-- q4&#45;&gt;q2 -->
<g id="edge16" class="edge"><title>q4&#45;&gt;q2</title>
<path fill="none" stroke="black" d="M275.075,-413.16C270.858,-426.653 265.429,-444.027 260.896,-458.532"/>
<polygon fill="black" stroke="black" points="257.426,-457.901 257.784,-468.49 264.108,-459.989 257.426,-457.901"/>
<text text-anchor="middle" x="272.5" y="-437.4" font-family="Times Roman,serif" font-size="14.00">a</text>
</g>
<!-- q8 -->
<g id="node14" class="node"><title>q8</title>
<ellipse fill="none" stroke="black" cx="282" cy="-295" rx="27" ry="18.3848"/>
<text text-anchor="middle" x="282" y="-291.4" font-family="Times Roman,serif" font-size="14.00">q8</text>
</g>
<!-- q4&#45;&gt;q8 -->
<g id="edge14" class="edge"><title>q4&#45;&gt;q8</title>
<path fill="none" stroke="black" d="M282,-368.249C282,-354.994 282,-338.148 282,-323.954"/>
<polygon fill="black" stroke="black" points="285.5,-323.72 282,-313.72 278.5,-323.72 285.5,-323.72"/>
<text text-anchor="middle" x="286.5" y="-337.4" font-family="Times Roman,serif" font-size="14.00">b</text>
</g>
<!-- q9&#45;&gt;q3 -->
<g id="edge30" class="edge"><title>q9&#45;&gt;q3</title>
<path fill="none" stroke="black" d="M194.981,-214.99C171.278,-230.254 136,-259.017 136,-295 136,-487 136,-487 136,-487 136,-509.123 129.663,-533.369 123.642,-551.414"/>
<polygon fill="black" stroke="black" points="120.285,-550.409 120.277,-561.004 126.891,-552.726 120.285,-550.409"/>
<text text-anchor="middle" x="140.5" y="-387.4" font-family="Times Roman,serif" font-size="14.00">b</text>
</g>
<!-- q9&#45;&gt;q3 -->
<g id="edge38" class="edge"><title>q9&#45;&gt;q3</title>
<path fill="none" stroke="black" d="M205.118,-220.238C194.843,-238.192 181,-267.487 181,-295 181,-487 181,-487 181,-487 181,-516.023 158.845,-541.888 139.827,-558.744"/>
<polygon fill="black" stroke="black" points="137.326,-556.275 131.942,-565.4 141.841,-561.624 137.326,-556.275"/>
<text text-anchor="middle" x="185.5" y="-387.4" font-family="Times Roman,serif" font-size="14.00">b</text>
</g>
<!-- q9&#45;&gt;q8 -->
<g id="edge40" class="edge"><title>q9&#45;&gt;q8</title>
<path fill="none" stroke="black" d="M222.905,-220.996C227.659,-232.202 234.619,-246.602 243,-258 246.991,-263.428 251.833,-268.737 256.727,-273.562"/>
<polygon fill="black" stroke="black" points="254.655,-276.417 264.348,-280.694 259.438,-271.306 254.655,-276.417"/>
<text text-anchor="middle" x="247.5" y="-245.4" font-family="Times Roman,serif" font-size="14.00">a</text>
</g>
<!-- q5 -->
<g id="node16" class="node"><title>q5</title>
<ellipse fill="none" stroke="black" cx="263" cy="-111" rx="27" ry="18.3848"/>
<text text-anchor="middle" x="263" y="-107.4" font-family="Times Roman,serif" font-size="14.00">q5</text>
</g>
<!-- q9&#45;&gt;q5 -->
<g id="edge32" class="edge"><title>q9&#45;&gt;q5</title>
<path fill="none" stroke="black" d="M225.062,-185.261C231.954,-171.77 241.552,-152.984 249.369,-137.683"/>
<polygon fill="black" stroke="black" points="252.533,-139.182 253.966,-128.684 246.299,-135.997 252.533,-139.182"/>
<text text-anchor="middle" x="247.5" y="-153.4" font-family="Times Roman,serif" font-size="14.00">a</text>
</g>
<!-- q10&#45;&gt;q3 -->
<g id="edge34" class="edge"><title>q10&#45;&gt;q3</title>
<path fill="none" stroke="black" d="M60.0391,-37.0242C53.5938,-55.3554 45,-84.7239 45,-111 45,-487 45,-487 45,-487 45,-516.023 67.1553,-541.888 86.1734,-558.744"/>
<polygon fill="black" stroke="black" points="84.159,-561.624 94.0582,-565.4 88.6742,-556.275 84.159,-561.624"/>
<text text-anchor="middle" x="49.5" y="-291.4" font-family="Times Roman,serif" font-size="14.00">b</text>
</g>
<!-- q10&#45;&gt;q3 -->
<g id="edge36" class="edge"><title>q10&#45;&gt;q3</title>
<path fill="none" stroke="black" d="M74.2773,-36.9963C81.0156,-55.306 90,-84.6579 90,-111 90,-487 90,-487 90,-487 90,-509.123 96.337,-533.369 102.358,-551.414"/>
<polygon fill="black" stroke="black" points="99.1094,-552.726 105.723,-561.004 105.715,-550.409 99.1094,-552.726"/>
<text text-anchor="middle" x="94.5" y="-291.4" font-family="Times Roman,serif" font-size="14.00">a</text>
</g>
<!-- q8&#45;&gt;q9 -->
<g id="edge28" class="edge"><title>q8&#45;&gt;q9</title>
<path fill="none" stroke="black" d="M273.825,-277.173C268.349,-266.032 260.587,-251.642 252,-240 248.319,-235.01 243.998,-230.014 239.652,-225.381"/>
<polygon fill="black" stroke="black" points="241.918,-222.692 232.423,-217.99 236.914,-227.586 241.918,-222.692"/>
<text text-anchor="middle" x="267.5" y="-245.4" font-family="Times Roman,serif" font-size="14.00">a</text>
</g>
<!-- q8&#45;&gt;q5 -->
<g id="edge26" class="edge"><title>q8&#45;&gt;q5</title>
<path fill="none" stroke="black" d="M280.074,-276.345C276.745,-244.109 269.896,-177.782 265.959,-139.658"/>
<polygon fill="black" stroke="black" points="269.44,-139.292 264.931,-129.705 262.477,-140.012 269.44,-139.292"/>
<text text-anchor="middle" x="278.5" y="-199.4" font-family="Times Roman,serif" font-size="14.00">b</text>
</g>
<!-- q5&#45;&gt;q10 -->
<g id="edge20" class="edge"><title>q5&#45;&gt;q10</title>
<path fill="none" stroke="black" d="M240.516,-100.446C206.073,-84.2792 140.052,-53.2898 100.122,-34.5473"/>
<polygon fill="black" stroke="black" points="101.591,-31.3704 91.0518,-30.2896 98.617,-37.7071 101.591,-31.3704"/>
<text text-anchor="middle" x="186.5" y="-61.4" font-family="Times Roman,serif" font-size="14.00">a</text>
</g>
<!-- q5&#45;&gt;q8 -->
<g id="edge18" class="edge"><title>q5&#45;&gt;q8</title>
<path fill="none" stroke="black" d="M278.361,-126.382C283.773,-132.619 289.399,-140.19 293,-148 310.41,-185.761 306.206,-198.592 310,-240 310.73,-247.967 312.546,-250.416 310,-258 308.447,-262.625 306.062,-267.132 303.325,-271.319"/>
<polygon fill="black" stroke="black" points="300.486,-269.272 297.368,-279.397 306.12,-273.427 300.486,-269.272"/>
<text text-anchor="middle" x="312.5" y="-199.4" font-family="Times Roman,serif" font-size="14.00">b</text>
</g>
<!-- q6 -->
<g id="node19" class="node"><title>q6</title>
<ellipse fill="none" stroke="black" cx="309" cy="-579" rx="27" ry="18.3848"/>
<text text-anchor="middle" x="309" y="-575.4" font-family="Times Roman,serif" font-size="14.00">q6</text>
</g>
<!-- q6&#45;&gt;q2 -->
<g id="edge24" class="edge"><title>q6&#45;&gt;q2</title>
<path fill="none" stroke="black" d="M298.279,-561.696C289.76,-547.946 277.713,-528.501 268.045,-512.898"/>
<polygon fill="black" stroke="black" points="270.915,-510.884 262.673,-504.227 264.965,-514.571 270.915,-510.884"/>
<text text-anchor="middle" x="289.5" y="-529.4" font-family="Times Roman,serif" font-size="14.00">a</text>
</g>
<!-- q6&#45;&gt;q9 -->
<g id="edge22" class="edge"><title>q6&#45;&gt;q9</title>
<path fill="none" stroke="black" d="M321.219,-562.309C332.982,-544.562 349,-515.215 349,-487 349,-487 349,-487 349,-295 349,-270.606 287.717,-236.938 248.349,-217.827"/>
<polygon fill="black" stroke="black" points="249.396,-214.448 238.864,-213.296 246.379,-220.764 249.396,-214.448"/>
<text text-anchor="middle" x="353.5" y="-387.4" font-family="Times Roman,serif" font-size="14.00">b</text>
</g>
</g>
</svg>
