<?xml version="1.0" encoding="UTF-8" standalone="no"?>
<!DOCTYPE svg PUBLIC "-//W3C//DTD SVG 1.1//EN"
 "http://www.w3.org/Graphics/SVG/1.1/DTD/svg11.dtd">
<!-- Generated by graphviz version 2.26.3 (20100126.1600)
 -->
<!-- Title: G Pages: 1 -->
<svg width="165pt" height="322pt"
 viewBox="0.00 0.00 165.16 322.00" xmlns="http://www.w3.org/2000/svg" xmlns:xlink="http://www.w3.org/1999/xlink">
<g id="graph1" class="graph" transform="scale(1 1) rotate(0) translate(4 318)">
<title>G</title>
<polygon fill="white" stroke="white" points="-4,5 -4,-318 162.155,-318 162.155,5 -4,5"/>
<!-- q2 -->
<g id="node1" class="node"><title>q2</title>
<ellipse fill="none" stroke="black" cx="31.1552" cy="-296" rx="27" ry="18"/>
<text text-anchor="middle" x="31.1552" y="-291.9" font-family="Times Roman,serif" font-size="14.00">q2</text>
</g>
<!-- q2&#45;&gt;q2 -->
<g id="edge2" class="edge"><title>q2&#45;&gt;q2</title>
<path fill="none" stroke="black" d="M55.6877,-304.121C66.6631,-304.895 76.1552,-302.188 76.1552,-296 76.1552,-291.843 71.8703,-289.257 65.7296,-288.242"/>
<polygon fill="black" stroke="black" points="65.8076,-284.742 55.6877,-287.879 65.5548,-291.738 65.8076,-284.742"/>
<text text-anchor="middle" x="80.6552" y="-291.9" font-family="Times Roman,serif" font-size="14.00">b</text>
</g>
<!-- q1 -->
<g id="node4" class="node"><title>q1</title>
<ellipse fill="none" stroke="black" cx="31.1552" cy="-206" rx="27" ry="18"/>
<text text-anchor="middle" x="31.1552" y="-201.9" font-family="Times Roman,serif" font-size="14.00">q1</text>
</g>
<!-- q2&#45;&gt;q1 -->
<g id="edge4" class="edge"><title>q2&#45;&gt;q1</title>
<path fill="none" stroke="black" d="M31.1552,-277.787C31.1552,-265.344 31.1552,-248.605 31.1552,-234.421"/>
<polygon fill="black" stroke="black" points="34.6553,-234.186 31.1552,-224.186 27.6553,-234.186 34.6553,-234.186"/>
<text text-anchor="middle" x="35.6552" y="-246.9" font-family="Times Roman,serif" font-size="14.00">a</text>
</g>
<!-- q1&#45;&gt;q1 -->
<g id="edge6" class="edge"><title>q1&#45;&gt;q1</title>
<path fill="none" stroke="black" d="M55.6877,-214.121C66.6631,-214.895 76.1552,-212.188 76.1552,-206 76.1552,-201.843 71.8703,-199.257 65.7296,-198.242"/>
<polygon fill="black" stroke="black" points="65.8076,-194.742 55.6877,-197.879 65.5548,-201.738 65.8076,-194.742"/>
<text text-anchor="middle" x="80.6552" y="-201.9" font-family="Times Roman,serif" font-size="14.00">b</text>
</g>
<!-- q4 -->
<g id="node7" class="node"><title>q4</title>
<ellipse fill="none" stroke="black" cx="31.1552" cy="-116" rx="27" ry="18"/>
<text text-anchor="middle" x="31.1552" y="-111.9" font-family="Times Roman,serif" font-size="14.00">q4</text>
</g>
<!-- q1&#45;&gt;q4 -->
<g id="edge8" class="edge"><title>q1&#45;&gt;q4</title>
<path fill="none" stroke="black" d="M22.3952,-188.86C19.8581,-183.03 17.43,-176.374 16.1552,-170 14.5863,-162.155 14.5863,-159.845 16.1552,-152 16.7727,-148.913 17.6608,-145.759 18.7007,-142.665"/>
<polygon fill="black" stroke="black" points="22.0422,-143.729 22.3952,-133.14 15.5159,-141.198 22.0422,-143.729"/>
<text text-anchor="middle" x="20.6552" y="-156.9" font-family="Times Roman,serif" font-size="14.00">a</text>
</g>
<!-- q4&#45;&gt;q1 -->
<g id="edge12" class="edge"><title>q4&#45;&gt;q1</title>
<path fill="none" stroke="black" d="M31.1552,-134.186C31.1552,-146.622 31.1552,-163.36 31.1552,-177.548"/>
<polygon fill="black" stroke="black" points="27.6553,-177.787 31.1552,-187.787 34.6553,-177.787 27.6553,-177.787"/>
<text text-anchor="middle" x="35.6552" y="-156.9" font-family="Times Roman,serif" font-size="14.00">a</text>
</g>
<!-- q0 -->
<g id="node9" class="node"><title>q0</title>
<ellipse fill="none" stroke="black" cx="49.1552" cy="-22" rx="27" ry="18"/>
<ellipse fill="none" stroke="black" cx="49.1552" cy="-22" rx="31" ry="22"/>
<text text-anchor="middle" x="49.1552" y="-17.9" font-family="Times Roman,serif" font-size="14.00">q0</text>
</g>
<!-- q4&#45;&gt;q0 -->
<g id="edge10" class="edge"><title>q4&#45;&gt;q0</title>
<path fill="none" stroke="black" d="M14.8392,-101.116C5.1652,-90.406 -4.09374,-75.524 2.15525,-62 5.56814,-54.6138 11.0918,-48.09 17.1737,-42.5668"/>
<polygon fill="black" stroke="black" points="19.5351,-45.1571 25.0592,-36.1164 15.1029,-39.739 19.5351,-45.1571"/>
<text text-anchor="middle" x="6.65525" y="-66.9" font-family="Times Roman,serif" font-size="14.00">b</text>
</g>
<!-- q0&#45;&gt;q4 -->
<g id="edge18" class="edge"><title>q0&#45;&gt;q4</title>
<path fill="none" stroke="black" d="M39.8317,-43.2327C37.5902,-49.1957 35.467,-55.758 34.1552,-62 32.4173,-70.2699 31.5306,-79.3992 31.1114,-87.7615"/>
<polygon fill="black" stroke="black" points="27.6111,-87.7181 30.8015,-97.8212 34.6078,-87.9337 27.6111,-87.7181"/>
<text text-anchor="middle" x="38.6552" y="-66.9" font-family="Times Roman,serif" font-size="14.00">b</text>
</g>
<!-- q0&#45;&gt;q4 -->
<g id="edge20" class="edge"><title>q0&#45;&gt;q4</title>
<path fill="none" stroke="black" d="M47.9998,-44.212C47.1451,-55.088 45.6736,-68.3231 43.1552,-80 42.5433,-82.8376 41.7864,-85.7649 40.9528,-88.667"/>
<polygon fill="black" stroke="black" points="37.5943,-87.6795 37.9212,-98.2693 44.2695,-89.787 37.5943,-87.6795"/>
<text text-anchor="middle" x="49.6552" y="-66.9" font-family="Times Roman,serif" font-size="14.00">a</text>
</g>
<!-- q3 -->
<g id="node11" class="node"><title>q3</title>
<ellipse fill="none" stroke="black" cx="103.155" cy="-116" rx="27" ry="18"/>
<text text-anchor="middle" x="103.155" y="-111.9" font-family="Times Roman,serif" font-size="14.00">q3</text>
</g>
<!-- q3&#45;&gt;q0 -->
<g id="edge16" class="edge"><title>q3&#45;&gt;q0</title>
<path fill="none" stroke="black" d="M93.2508,-98.759C85.615,-85.4671 74.8804,-66.7808 65.9144,-51.1734"/>
<polygon fill="black" stroke="black" points="68.8928,-49.3315 60.8766,-42.4038 62.823,-52.8184 68.8928,-49.3315"/>
<text text-anchor="middle" x="84.6552" y="-66.9" font-family="Times Roman,serif" font-size="14.00">a</text>
</g>
<!-- q3&#45;&gt;q3 -->
<g id="edge14" class="edge"><title>q3&#45;&gt;q3</title>
<path fill="none" stroke="black" d="M127.688,-124.121C138.663,-124.895 148.155,-122.188 148.155,-116 148.155,-111.843 143.87,-109.257 137.73,-108.242"/>
<polygon fill="black" stroke="black" points="137.808,-104.742 127.688,-107.879 137.555,-111.738 137.808,-104.742"/>
<text text-anchor="middle" x="152.655" y="-111.9" font-family="Times Roman,serif" font-size="14.00">b</text>
</g>
</g>
</svg>
