<?xml version="1.0" encoding="UTF-8" standalone="no"?>
<!DOCTYPE svg PUBLIC "-//W3C//DTD SVG 1.1//EN"
 "http://www.w3.org/Graphics/SVG/1.1/DTD/svg11.dtd">
<!-- Generated by graphviz version 2.26.3 (20100126.1600)
 -->
<!-- Title: G Pages: 1 -->
<svg width="366pt" height="706pt"
 viewBox="0.00 0.00 366.00 706.00" xmlns="http://www.w3.org/2000/svg" xmlns:xlink="http://www.w3.org/1999/xlink">
<g id="graph1" class="graph" transform="scale(1 1) rotate(0) translate(4 702)">
<title>G</title>
<polygon fill="white" stroke="white" points="-4,5 -4,-702 363,-702 363,5 -4,5"/>
<!-- q0 -->
<g id="node1" class="node"><title>q0</title>
<ellipse fill="none" stroke="black" cx="113" cy="-679" rx="27" ry="18.3848"/>
<text text-anchor="middle" x="113" y="-675.4" font-family="Times Roman,serif" font-size="14.00">q0</text>
</g>
<!-- q0&#45;&gt;q0 -->
<g id="edge4" class="edge"><title>q0&#45;&gt;q0</title>
<path fill="none" stroke="black" d="M137.074,-687.454C148.242,-688.377 158,-685.559 158,-679 158,-674.593 153.595,-671.875 147.317,-670.846"/>
<polygon fill="black" stroke="black" points="147.173,-667.34 137.074,-670.546 146.967,-674.337 147.173,-667.34"/>
<text text-anchor="middle" x="162.5" y="-675.4" font-family="Times Roman,serif" font-size="14.00">a</text>
</g>
<!-- q3 -->
<g id="node3" class="node"><title>q3</title>
<ellipse fill="none" stroke="black" cx="113" cy="-587" rx="27" ry="18.3848"/>
<text text-anchor="middle" x="113" y="-583.4" font-family="Times Roman,serif" font-size="14.00">q3</text>
</g>
<!-- q0&#45;&gt;q3 -->
<g id="edge2" class="edge"><title>q0&#45;&gt;q3</title>
<path fill="none" stroke="black" d="M113,-660.382C113,-647.538 113,-630.216 113,-615.627"/>
<polygon fill="black" stroke="black" points="116.5,-615.59 113,-605.59 109.5,-615.59 116.5,-615.59"/>
<text text-anchor="middle" x="117.5" y="-629.4" font-family="Times Roman,serif" font-size="14.00">b</text>
</g>
<!-- q2 -->
<g id="node5" class="node"><title>q2</title>
<ellipse fill="none" stroke="black" cx="252" cy="-495" rx="27" ry="18.3848"/>
<text text-anchor="middle" x="252" y="-491.4" font-family="Times Roman,serif" font-size="14.00">q2</text>
</g>
<!-- q3&#45;&gt;q2 -->
<g id="edge12" class="edge"><title>q3&#45;&gt;q2</title>
<path fill="none" stroke="black" d="M137.103,-578.651C154.074,-572.184 176.901,-562.269 195,-550 208.19,-541.059 221.117,-528.944 231.318,-518.36"/>
<polygon fill="black" stroke="black" points="233.941,-520.679 238.228,-510.991 228.835,-515.891 233.941,-520.679"/>
<text text-anchor="middle" x="221.5" y="-537.4" font-family="Times Roman,serif" font-size="14.00">a</text>
</g>
<!-- q10 -->
<g id="node11" class="node"><title>q10</title>
<ellipse fill="none" stroke="black" cx="67" cy="-19" rx="29.9071" ry="18.3848"/>
<text text-anchor="middle" x="67" y="-15.4" font-family="Times Roman,serif" font-size="14.00">q10</text>
</g>
<!-- q3&#45;&gt;q10 -->
<g id="edge10" class="edge"><title>q3&#45;&gt;q10</title>
<path fill="none" stroke="black" d="M87.6883,-580.183C70.1477,-574.437 47.1366,-564.755 31,-550 10.292,-531.065 0,-523.06 0,-495 0,-495 0,-495 0,-111 0,-82.4731 21.3098,-56.8613 39.8934,-39.9498"/>
<polygon fill="black" stroke="black" points="42.357,-42.4463 47.6208,-33.2516 37.772,-37.1568 42.357,-42.4463"/>
<text text-anchor="middle" x="4.5" y="-295.4" font-family="Times Roman,serif" font-size="14.00">b</text>
</g>
<!-- q4 -->
<g id="node7" class="node"><title>q4</title>
<ellipse fill="none" stroke="black" cx="282" cy="-399" rx="27" ry="18.3848"/>
<ellipse fill="none" stroke="black" cx="282" cy="-399" rx="31" ry="22.3848"/>
<text text-anchor="middle" x="282" y="-395.4" font-family="Times Roman,serif" font-size="14.00">q4</text>
</g>
<!-- q2&#45;&gt;q4 -->
<g id="edge6" class="edge"><title>q2&#45;&gt;q4</title>
<path fill="none" stroke="black" d="M249.66,-476.465C248.937,-465.581 249.161,-451.706 253,-440 254.516,-435.376 256.75,-430.82 259.316,-426.521"/>
<polygon fill="black" stroke="black" points="262.283,-428.38 264.927,-418.12 256.462,-424.492 262.283,-428.38"/>
<text text-anchor="middle" x="257.5" y="-445.4" font-family="Times Roman,serif" font-size="14.00">b</text>
</g>
<!-- q9 -->
<g id="node9" class="node"><title>q9</title>
<ellipse fill="none" stroke="black" cx="216" cy="-203" rx="27" ry="18.3848"/>
<text text-anchor="middle" x="216" y="-199.4" font-family="Times Roman,serif" font-size="14.00">q9</text>
</g>
<!-- q2&#45;&gt;q9 -->
<g id="edge8" class="edge"><title>q2&#45;&gt;q9</title>
<path fill="none" stroke="black" d="M248.242,-476.602C247.107,-470.679 245.919,-464.076 245,-458 232.637,-376.257 222.961,-279.05 218.571,-231.737"/>
<polygon fill="black" stroke="black" points="222.042,-231.258 217.643,-221.619 215.071,-231.897 222.042,-231.258"/>
<text text-anchor="middle" x="235.5" y="-345.4" font-family="Times Roman,serif" font-size="14.00">a</text>
</g>
<!-- q4&#45;&gt;q2 -->
<g id="edge16" class="edge"><title>q4&#45;&gt;q2</title>
<path fill="none" stroke="black" d="M275.075,-421.16C270.858,-434.653 265.429,-452.027 260.896,-466.532"/>
<polygon fill="black" stroke="black" points="257.426,-465.901 257.784,-476.49 264.108,-467.989 257.426,-465.901"/>
<text text-anchor="middle" x="272.5" y="-445.4" font-family="Times Roman,serif" font-size="14.00">a</text>
</g>
<!-- q8 -->
<g id="node14" class="node"><title>q8</title>
<ellipse fill="none" stroke="black" cx="282" cy="-299" rx="27" ry="18.3848"/>
<ellipse fill="none" stroke="black" cx="282" cy="-299" rx="31" ry="22.3848"/>
<text text-anchor="middle" x="282" y="-295.4" font-family="Times Roman,serif" font-size="14.00">q8</text>
</g>
<!-- q4&#45;&gt;q8 -->
<g id="edge14" class="edge"><title>q4&#45;&gt;q8</title>
<path fill="none" stroke="black" d="M282,-376.308C282,-363.139 282,-346.324 282,-331.742"/>
<polygon fill="black" stroke="black" points="285.5,-331.602 282,-321.602 278.5,-331.602 285.5,-331.602"/>
<text text-anchor="middle" x="286.5" y="-345.4" font-family="Times Roman,serif" font-size="14.00">b</text>
</g>
<!-- q9&#45;&gt;q3 -->
<g id="edge30" class="edge"><title>q9&#45;&gt;q3</title>
<path fill="none" stroke="black" d="M195.398,-215.453C171.695,-231.531 136,-261.901 136,-299 136,-495 136,-495 136,-495 136,-517.123 129.663,-541.369 123.642,-559.414"/>
<polygon fill="black" stroke="black" points="120.285,-558.409 120.277,-569.004 126.891,-560.726 120.285,-558.409"/>
<text text-anchor="middle" x="140.5" y="-395.4" font-family="Times Roman,serif" font-size="14.00">b</text>
</g>
<!-- q9&#45;&gt;q3 -->
<g id="edge38" class="edge"><title>q9&#45;&gt;q3</title>
<path fill="none" stroke="black" d="M205.499,-220.355C195.189,-239.071 181,-270.084 181,-299 181,-495 181,-495 181,-495 181,-524.023 158.845,-549.888 139.827,-566.744"/>
<polygon fill="black" stroke="black" points="137.326,-564.275 131.942,-573.4 141.841,-569.624 137.326,-564.275"/>
<text text-anchor="middle" x="185.5" y="-395.4" font-family="Times Roman,serif" font-size="14.00">b</text>
</g>
<!-- q9&#45;&gt;q8 -->
<g id="edge40" class="edge"><title>q9&#45;&gt;q8</title>
<path fill="none" stroke="black" d="M223.11,-220.85C227.942,-231.999 234.914,-246.391 243,-258 246.758,-263.396 251.218,-268.773 255.754,-273.773"/>
<polygon fill="black" stroke="black" points="253.438,-276.417 262.858,-281.267 258.518,-271.601 253.438,-276.417"/>
<text text-anchor="middle" x="247.5" y="-245.4" font-family="Times Roman,serif" font-size="14.00">a</text>
</g>
<!-- q5 -->
<g id="node16" class="node"><title>q5</title>
<ellipse fill="none" stroke="black" cx="248" cy="-111" rx="27" ry="18.3848"/>
<text text-anchor="middle" x="248" y="-107.4" font-family="Times Roman,serif" font-size="14.00">q5</text>
</g>
<!-- q9&#45;&gt;q5 -->
<g id="edge32" class="edge"><title>q9&#45;&gt;q5</title>
<path fill="none" stroke="black" d="M222.322,-184.824C226.88,-171.719 233.117,-153.789 238.303,-138.88"/>
<polygon fill="black" stroke="black" points="241.711,-139.733 241.691,-129.138 235.1,-137.434 241.711,-139.733"/>
<text text-anchor="middle" x="238.5" y="-153.4" font-family="Times Roman,serif" font-size="14.00">a</text>
</g>
<!-- q10&#45;&gt;q3 -->
<g id="edge34" class="edge"><title>q10&#45;&gt;q3</title>
<path fill="none" stroke="black" d="M60.0391,-37.0242C53.5938,-55.3554 45,-84.7239 45,-111 45,-495 45,-495 45,-495 45,-524.023 67.1553,-549.888 86.1734,-566.744"/>
<polygon fill="black" stroke="black" points="84.159,-569.624 94.0582,-573.4 88.6742,-564.275 84.159,-569.624"/>
<text text-anchor="middle" x="49.5" y="-295.4" font-family="Times Roman,serif" font-size="14.00">b</text>
</g>
<!-- q10&#45;&gt;q3 -->
<g id="edge36" class="edge"><title>q10&#45;&gt;q3</title>
<path fill="none" stroke="black" d="M74.2773,-36.9963C81.0156,-55.306 90,-84.6579 90,-111 90,-495 90,-495 90,-495 90,-517.123 96.337,-541.369 102.358,-559.414"/>
<polygon fill="black" stroke="black" points="99.1094,-560.726 105.723,-569.004 105.715,-558.409 99.1094,-560.726"/>
<text text-anchor="middle" x="94.5" y="-295.4" font-family="Times Roman,serif" font-size="14.00">a</text>
</g>
<!-- q8&#45;&gt;q9 -->
<g id="edge28" class="edge"><title>q8&#45;&gt;q9</title>
<path fill="none" stroke="black" d="M272.91,-277.361C267.589,-265.793 260.291,-251.588 252,-240 248.392,-234.957 244.104,-229.937 239.768,-225.297"/>
<polygon fill="black" stroke="black" points="242.033,-222.606 232.537,-217.908 237.03,-227.503 242.033,-222.606"/>
<text text-anchor="middle" x="266.5" y="-245.4" font-family="Times Roman,serif" font-size="14.00">a</text>
</g>
<!-- q8&#45;&gt;q5 -->
<g id="edge26" class="edge"><title>q8&#45;&gt;q5</title>
<path fill="none" stroke="black" d="M279.804,-276.521C278.606,-265.486 276.966,-252.012 275,-240 269.284,-205.07 260.618,-165.253 254.653,-139.208"/>
<polygon fill="black" stroke="black" points="258.02,-138.231 252.357,-129.276 251.2,-139.808 258.02,-138.231"/>
<text text-anchor="middle" x="275.5" y="-199.4" font-family="Times Roman,serif" font-size="14.00">b</text>
</g>
<!-- q5&#45;&gt;q10 -->
<g id="edge20" class="edge"><title>q5&#45;&gt;q10</title>
<path fill="none" stroke="black" d="M226.167,-99.9027C194.663,-83.8897 136.229,-54.188 99.6022,-35.5713"/>
<polygon fill="black" stroke="black" points="100.841,-32.2747 90.3404,-30.8636 97.669,-38.5149 100.841,-32.2747"/>
<text text-anchor="middle" x="177.5" y="-61.4" font-family="Times Roman,serif" font-size="14.00">a</text>
</g>
<!-- q5&#45;&gt;q8 -->
<g id="edge18" class="edge"><title>q5&#45;&gt;q8</title>
<path fill="none" stroke="black" d="M268.772,-123.355C277.58,-129.644 287.144,-138.067 293,-148 319.804,-193.467 319.798,-226.281 310,-258 308.618,-262.476 306.56,-266.899 304.177,-271.09"/>
<polygon fill="black" stroke="black" points="301.027,-269.517 298.574,-279.824 306.919,-273.297 301.027,-269.517"/>
<text text-anchor="middle" x="319.5" y="-199.4" font-family="Times Roman,serif" font-size="14.00">b</text>
</g>
<!-- q6 -->
<g id="node19" class="node"><title>q6</title>
<ellipse fill="none" stroke="black" cx="309" cy="-587" rx="27" ry="18.3848"/>
<text text-anchor="middle" x="309" y="-583.4" font-family="Times Roman,serif" font-size="14.00">q6</text>
</g>
<!-- q6&#45;&gt;q2 -->
<g id="edge24" class="edge"><title>q6&#45;&gt;q2</title>
<path fill="none" stroke="black" d="M298.279,-569.696C289.76,-555.946 277.713,-536.501 268.045,-520.898"/>
<polygon fill="black" stroke="black" points="270.915,-518.884 262.673,-512.227 264.965,-522.571 270.915,-518.884"/>
<text text-anchor="middle" x="289.5" y="-537.4" font-family="Times Roman,serif" font-size="14.00">a</text>
</g>
<!-- q6&#45;&gt;q9 -->
<g id="edge22" class="edge"><title>q6&#45;&gt;q9</title>
<path fill="none" stroke="black" d="M321.219,-570.309C332.982,-552.562 349,-523.215 349,-495 349,-495 349,-495 349,-299 349,-274.021 286.539,-238.193 247.226,-218.117"/>
<polygon fill="black" stroke="black" points="248.767,-214.975 238.261,-213.606 245.621,-221.228 248.767,-214.975"/>
<text text-anchor="middle" x="353.5" y="-395.4" font-family="Times Roman,serif" font-size="14.00">b</text>
</g>
</g>
</svg>
