<?xml version="1.0" encoding="UTF-8" standalone="no"?>
<!DOCTYPE svg PUBLIC "-//W3C//DTD SVG 1.1//EN"
 "http://www.w3.org/Graphics/SVG/1.1/DTD/svg11.dtd">
<!-- Generated by graphviz version 2.26.3 (20100126.1600)
 -->
<!-- Title: G Pages: 1 -->
<svg width="263pt" height="614pt"
 viewBox="0.00 0.00 263.00 614.00" xmlns="http://www.w3.org/2000/svg" xmlns:xlink="http://www.w3.org/1999/xlink">
<g id="graph1" class="graph" transform="scale(1 1) rotate(0) translate(4 610)">
<title>G</title>
<polygon fill="white" stroke="white" points="-4,5 -4,-610 260,-610 260,5 -4,5"/>
<!-- q0 -->
<g id="node1" class="node"><title>q0</title>
<ellipse fill="none" stroke="black" cx="64" cy="-395" rx="27" ry="18.3848"/>
<text text-anchor="middle" x="64" y="-391.4" font-family="Times Roman,serif" font-size="14.00">q0</text>
</g>
<!-- q0&#45;&gt;q0 -->
<g id="edge2" class="edge"><title>q0&#45;&gt;q0</title>
<path fill="none" stroke="black" d="M88.0743,-403.454C99.2423,-404.377 109,-401.559 109,-395 109,-390.593 104.595,-387.875 98.3174,-386.846"/>
<polygon fill="black" stroke="black" points="98.1726,-383.34 88.0743,-386.546 97.9674,-390.337 98.1726,-383.34"/>
<text text-anchor="middle" x="113.5" y="-391.4" font-family="Times Roman,serif" font-size="14.00">b</text>
</g>
<!-- q6 -->
<g id="node4" class="node"><title>q6</title>
<ellipse fill="none" stroke="black" cx="201" cy="-303" rx="27" ry="18.3848"/>
<text text-anchor="middle" x="201" y="-299.4" font-family="Times Roman,serif" font-size="14.00">q6</text>
</g>
<!-- q0&#45;&gt;q6 -->
<g id="edge4" class="edge"><title>q0&#45;&gt;q6</title>
<path fill="none" stroke="black" d="M76.3462,-378.338C85.8544,-366.42 99.8937,-350.664 115,-340 130.615,-328.977 150.03,-320.274 166.46,-314.085"/>
<polygon fill="black" stroke="black" points="168.023,-317.242 176.244,-310.558 165.649,-310.657 168.023,-317.242"/>
<text text-anchor="middle" x="119.5" y="-345.4" font-family="Times Roman,serif" font-size="14.00">a</text>
</g>
<!-- q6&#45;&gt;q6 -->
<g id="edge22" class="edge"><title>q6&#45;&gt;q6</title>
<path fill="none" stroke="black" d="M225.074,-311.454C236.242,-312.377 246,-309.559 246,-303 246,-298.593 241.595,-295.875 235.317,-294.846"/>
<polygon fill="black" stroke="black" points="235.173,-291.34 225.074,-294.546 234.967,-298.337 235.173,-291.34"/>
<text text-anchor="middle" x="250.5" y="-299.4" font-family="Times Roman,serif" font-size="14.00">b</text>
</g>
<!-- q7 -->
<g id="node20" class="node"><title>q7</title>
<ellipse fill="none" stroke="black" cx="146" cy="-211" rx="27" ry="18.3848"/>
<text text-anchor="middle" x="146" y="-207.4" font-family="Times Roman,serif" font-size="14.00">q7</text>
</g>
<!-- q6&#45;&gt;q7 -->
<g id="edge24" class="edge"><title>q6&#45;&gt;q7</title>
<path fill="none" stroke="black" d="M190.655,-285.696C182.435,-271.946 170.811,-252.501 161.482,-236.898"/>
<polygon fill="black" stroke="black" points="164.434,-235.014 156.299,-228.227 158.426,-238.606 164.434,-235.014"/>
<text text-anchor="middle" x="182.5" y="-253.4" font-family="Times Roman,serif" font-size="14.00">a</text>
</g>
<!-- q1 -->
<g id="node5" class="node"><title>q1</title>
<ellipse fill="none" stroke="black" cx="67" cy="-583" rx="27" ry="18.3848"/>
<ellipse fill="none" stroke="black" cx="67" cy="-583" rx="31" ry="22.3848"/>
<text text-anchor="middle" x="67" y="-579.4" font-family="Times Roman,serif" font-size="14.00">q1</text>
</g>
<!-- q3 -->
<g id="node7" class="node"><title>q3</title>
<ellipse fill="none" stroke="black" cx="208" cy="-487" rx="27" ry="18.3848"/>
<text text-anchor="middle" x="208" y="-483.4" font-family="Times Roman,serif" font-size="14.00">q3</text>
</g>
<!-- q1&#45;&gt;q3 -->
<g id="edge6" class="edge"><title>q1&#45;&gt;q3</title>
<path fill="none" stroke="black" d="M89.6541,-567.576C114.273,-550.814 153.631,-524.017 180.127,-505.977"/>
<polygon fill="black" stroke="black" points="182.283,-508.744 188.58,-500.222 178.344,-502.957 182.283,-508.744"/>
<text text-anchor="middle" x="154.5" y="-529.4" font-family="Times Roman,serif" font-size="14.00">b</text>
</g>
<!-- q8 -->
<g id="node9" class="node"><title>q8</title>
<ellipse fill="none" stroke="black" cx="31" cy="-23" rx="27" ry="18.3848"/>
<ellipse fill="none" stroke="black" cx="31" cy="-23" rx="31" ry="22.3848"/>
<text text-anchor="middle" x="31" y="-19.4" font-family="Times Roman,serif" font-size="14.00">q8</text>
</g>
<!-- q1&#45;&gt;q8 -->
<g id="edge8" class="edge"><title>q1&#45;&gt;q8</title>
<path fill="none" stroke="black" d="M48.0086,-565.092C31.0934,-547.124 9,-517.766 9,-487 9,-487 9,-487 9,-119 9,-97.0709 14.5215,-73.0199 20.0322,-54.4767"/>
<polygon fill="black" stroke="black" points="23.4172,-55.3788 23.0575,-44.7901 16.7354,-53.292 23.4172,-55.3788"/>
<text text-anchor="middle" x="13.5" y="-299.4" font-family="Times Roman,serif" font-size="14.00">a</text>
</g>
<!-- q3&#45;&gt;q6 -->
<g id="edge12" class="edge"><title>q3&#45;&gt;q6</title>
<path fill="none" stroke="black" d="M217.831,-469.766C229.014,-448.002 244.779,-409.363 237,-376 233.141,-359.451 224.965,-342.343 217.378,-328.851"/>
<polygon fill="black" stroke="black" points="220.352,-327.003 212.28,-320.14 214.31,-330.539 220.352,-327.003"/>
<text text-anchor="middle" x="243.5" y="-391.4" font-family="Times Roman,serif" font-size="14.00">a</text>
</g>
<!-- q5 -->
<g id="node11" class="node"><title>q5</title>
<ellipse fill="none" stroke="black" cx="201" cy="-395" rx="27" ry="18.3848"/>
<text text-anchor="middle" x="201" y="-391.4" font-family="Times Roman,serif" font-size="14.00">q5</text>
</g>
<!-- q3&#45;&gt;q5 -->
<g id="edge10" class="edge"><title>q3&#45;&gt;q5</title>
<path fill="none" stroke="black" d="M208.862,-468.375C209.141,-457.704 209.132,-444.074 208,-432 207.74,-429.228 207.373,-426.353 206.941,-423.488"/>
<polygon fill="black" stroke="black" points="210.339,-422.597 205.173,-413.347 203.443,-423.8 210.339,-422.597"/>
<text text-anchor="middle" x="212.5" y="-437.4" font-family="Times Roman,serif" font-size="14.00">b</text>
</g>
<!-- q8&#45;&gt;q8 -->
<g id="edge30" class="edge"><title>q8&#45;&gt;q8</title>
<path fill="none" stroke="black" d="M61.625,-27.6875C71.8333,-27.6875 80,-26.125 80,-23 80,-21.0469 76.8099,-19.7041 71.925,-18.9717"/>
<polygon fill="black" stroke="black" points="71.8282,-15.4584 61.625,-18.3125 71.381,-22.4441 71.8282,-15.4584"/>
<text text-anchor="middle" x="84.5" y="-19.4" font-family="Times Roman,serif" font-size="14.00">b</text>
</g>
<!-- q8&#45;&gt;q8 -->
<g id="edge32" class="edge"><title>q8&#45;&gt;q8</title>
<path fill="none" stroke="black" d="M54.3472,-37.9505C75.424,-45.2237 98,-40.2402 98,-23 98,-8.45355 81.9279,-2.63284 64.245,-5.53787"/>
<polygon fill="black" stroke="black" points="63.1792,-2.19731 54.3472,-8.04948 64.9009,-8.98227 63.1792,-2.19731"/>
<text text-anchor="middle" x="102.5" y="-19.4" font-family="Times Roman,serif" font-size="14.00">a</text>
</g>
<!-- q5&#45;&gt;q6 -->
<g id="edge18" class="edge"><title>q5&#45;&gt;q6</title>
<path fill="none" stroke="black" d="M201,-376.382C201,-363.538 201,-346.216 201,-331.627"/>
<polygon fill="black" stroke="black" points="204.5,-331.59 201,-321.59 197.5,-331.59 204.5,-331.59"/>
<text text-anchor="middle" x="205.5" y="-345.4" font-family="Times Roman,serif" font-size="14.00">b</text>
</g>
<!-- q5&#45;&gt;q3 -->
<g id="edge20" class="edge"><title>q5&#45;&gt;q3</title>
<path fill="none" stroke="black" d="M198.888,-413.644C198.037,-424.321 197.556,-437.952 199,-450 199.347,-452.892 199.841,-455.885 200.421,-458.858"/>
<polygon fill="black" stroke="black" points="197.029,-459.726 202.638,-468.715 203.858,-458.19 197.029,-459.726"/>
<text text-anchor="middle" x="203.5" y="-437.4" font-family="Times Roman,serif" font-size="14.00">a</text>
</g>
<!-- q4 -->
<g id="node13" class="node"><title>q4</title>
<ellipse fill="none" stroke="black" cx="64" cy="-119" rx="27" ry="18.3848"/>
<text text-anchor="middle" x="64" y="-115.4" font-family="Times Roman,serif" font-size="14.00">q4</text>
</g>
<!-- q4&#45;&gt;q0 -->
<g id="edge16" class="edge"><title>q4&#45;&gt;q0</title>
<path fill="none" stroke="black" d="M64,-137.82C64,-185.251 64,-309.914 64,-366.424"/>
<polygon fill="black" stroke="black" points="60.5001,-366.462 64,-376.462 67.5001,-366.462 60.5001,-366.462"/>
<text text-anchor="middle" x="68.5" y="-253.4" font-family="Times Roman,serif" font-size="14.00">a</text>
</g>
<!-- q4&#45;&gt;q8 -->
<g id="edge14" class="edge"><title>q4&#45;&gt;q8</title>
<path fill="none" stroke="black" d="M57.793,-100.943C53.3208,-87.9332 47.1689,-70.0369 41.8879,-54.6737"/>
<polygon fill="black" stroke="black" points="45.1303,-53.3396 38.5696,-45.0206 38.5105,-55.6152 45.1303,-53.3396"/>
<text text-anchor="middle" x="54.5" y="-69.4" font-family="Times Roman,serif" font-size="14.00">b</text>
</g>
<!-- q7&#45;&gt;q4 -->
<g id="edge26" class="edge"><title>q7&#45;&gt;q4</title>
<path fill="none" stroke="black" d="M131.717,-194.975C118.783,-180.463 99.5656,-158.903 84.9038,-142.453"/>
<polygon fill="black" stroke="black" points="87.3862,-139.978 78.1196,-134.842 82.1606,-144.636 87.3862,-139.978"/>
<text text-anchor="middle" x="116.5" y="-161.4" font-family="Times Roman,serif" font-size="14.00">b</text>
</g>
<!-- q7&#45;&gt;q7 -->
<g id="edge28" class="edge"><title>q7&#45;&gt;q7</title>
<path fill="none" stroke="black" d="M170.074,-219.454C181.242,-220.377 191,-217.559 191,-211 191,-206.593 186.595,-203.875 180.317,-202.846"/>
<polygon fill="black" stroke="black" points="180.173,-199.34 170.074,-202.546 179.967,-206.337 180.173,-199.34"/>
<text text-anchor="middle" x="195.5" y="-207.4" font-family="Times Roman,serif" font-size="14.00">a</text>
</g>
<!-- q9 -->
<g id="node25" class="node"><title>q9</title>
<ellipse fill="none" stroke="black" cx="115" cy="-487" rx="27" ry="18.3848"/>
<text text-anchor="middle" x="115" y="-483.4" font-family="Times Roman,serif" font-size="14.00">q9</text>
</g>
<!-- q9&#45;&gt;q0 -->
<g id="edge34" class="edge"><title>q9&#45;&gt;q0</title>
<path fill="none" stroke="black" d="M105.407,-469.696C97.9042,-456.161 87.342,-437.107 78.7632,-421.632"/>
<polygon fill="black" stroke="black" points="81.6326,-419.589 73.7231,-412.54 75.5104,-422.983 81.6326,-419.589"/>
<text text-anchor="middle" x="98.5" y="-437.4" font-family="Times Roman,serif" font-size="14.00">b</text>
</g>
<!-- q9&#45;&gt;q7 -->
<g id="edge36" class="edge"><title>q9&#45;&gt;q7</title>
<path fill="none" stroke="black" d="M118.416,-468.45C121.038,-453.726 124.604,-432.598 127,-414 134.979,-352.066 140.984,-279.091 143.946,-239.703"/>
<polygon fill="black" stroke="black" points="147.452,-239.752 144.7,-229.521 140.471,-239.235 147.452,-239.752"/>
<text text-anchor="middle" x="139.5" y="-345.4" font-family="Times Roman,serif" font-size="14.00">a</text>
</g>
</g>
</svg>
