<?xml version="1.0" encoding="UTF-8" standalone="no"?>
<!DOCTYPE svg PUBLIC "-//W3C//DTD SVG 1.1//EN"
 "http://www.w3.org/Graphics/SVG/1.1/DTD/svg11.dtd">
<!-- Generated by graphviz version 2.26.3 (20100126.1600)
 -->
<!-- Title: G Pages: 1 -->
<svg width="123pt" height="414pt"
 viewBox="0.00 0.00 123.00 414.00" xmlns="http://www.w3.org/2000/svg" xmlns:xlink="http://www.w3.org/1999/xlink">
<g id="graph1" class="graph" transform="scale(1 1) rotate(0) translate(4 410)">
<title>G</title>
<polygon fill="white" stroke="white" points="-4,5 -4,-410 120,-410 120,5 -4,5"/>
<!-- q2 -->
<g id="node1" class="node"><title>q2</title>
<ellipse fill="none" stroke="black" cx="88" cy="-387" rx="27" ry="18.3848"/>
<text text-anchor="middle" x="88" y="-383.4" font-family="Times Roman,serif" font-size="14.00">q2</text>
</g>
<!-- q3 -->
<g id="node3" class="node"><title>q3</title>
<ellipse fill="none" stroke="black" cx="27" cy="-295" rx="27" ry="18.3848"/>
<text text-anchor="middle" x="27" y="-291.4" font-family="Times Roman,serif" font-size="14.00">q3</text>
</g>
<!-- q2&#45;&gt;q3 -->
<g id="edge2" class="edge"><title>q2&#45;&gt;q3</title>
<path fill="none" stroke="black" d="M76.8117,-370.126C67.6685,-356.336 54.5921,-336.614 44.1314,-320.837"/>
<polygon fill="black" stroke="black" points="46.7672,-318.479 38.324,-312.079 40.9331,-322.347 46.7672,-318.479"/>
<text text-anchor="middle" x="66.5" y="-337.4" font-family="Times Roman,serif" font-size="14.00">b</text>
</g>
<!-- q0 -->
<g id="node5" class="node"><title>q0</title>
<ellipse fill="none" stroke="black" cx="76" cy="-203" rx="27" ry="18.3848"/>
<text text-anchor="middle" x="76" y="-199.4" font-family="Times Roman,serif" font-size="14.00">q0</text>
</g>
<!-- q2&#45;&gt;q0 -->
<g id="edge4" class="edge"><title>q2&#45;&gt;q0</title>
<path fill="none" stroke="black" d="M89.6036,-368.489C91.2227,-346.415 93.0814,-308.427 90,-276 88.5937,-261.2 85.6179,-244.937 82.77,-231.525"/>
<polygon fill="black" stroke="black" points="86.1217,-230.472 80.546,-221.463 79.2867,-231.982 86.1217,-230.472"/>
<text text-anchor="middle" x="95.5" y="-291.4" font-family="Times Roman,serif" font-size="14.00">a</text>
</g>
<!-- q3&#45;&gt;q3 -->
<g id="edge16" class="edge"><title>q3&#45;&gt;q3</title>
<path fill="none" stroke="black" d="M51.0743,-303.454C62.2423,-304.377 72,-301.559 72,-295 72,-290.593 67.5952,-287.875 61.3174,-286.846"/>
<polygon fill="black" stroke="black" points="61.1726,-283.34 51.0743,-286.546 60.9674,-290.337 61.1726,-283.34"/>
<text text-anchor="middle" x="76.5" y="-291.4" font-family="Times Roman,serif" font-size="14.00">a</text>
</g>
<!-- q3&#45;&gt;q0 -->
<g id="edge14" class="edge"><title>q3&#45;&gt;q0</title>
<path fill="none" stroke="black" d="M40.293,-278.645C44.9885,-272.412 50.0726,-265.097 54,-258 58.7396,-249.436 62.996,-239.637 66.4733,-230.705"/>
<polygon fill="black" stroke="black" points="69.8397,-231.695 70.0525,-221.102 63.2804,-229.25 69.8397,-231.695"/>
<text text-anchor="middle" x="66.5" y="-245.4" font-family="Times Roman,serif" font-size="14.00">b</text>
</g>
<!-- q0&#45;&gt;q3 -->
<g id="edge18" class="edge"><title>q0&#45;&gt;q3</title>
<path fill="none" stroke="black" d="M60.6661,-218.583C55.1401,-224.845 49.2306,-232.38 45,-240 40.3581,-248.36 36.6797,-258.107 33.89,-267.053"/>
<polygon fill="black" stroke="black" points="30.5169,-266.119 31.114,-276.697 37.2437,-268.055 30.5169,-266.119"/>
<text text-anchor="middle" x="49.5" y="-245.4" font-family="Times Roman,serif" font-size="14.00">b</text>
</g>
<!-- q1 -->
<g id="node6" class="node"><title>q1</title>
<ellipse fill="none" stroke="black" cx="66" cy="-111" rx="27" ry="18.3848"/>
<text text-anchor="middle" x="66" y="-107.4" font-family="Times Roman,serif" font-size="14.00">q1</text>
</g>
<!-- q0&#45;&gt;q1 -->
<g id="edge20" class="edge"><title>q0&#45;&gt;q1</title>
<path fill="none" stroke="black" d="M73.9764,-184.382C72.5803,-171.538 70.6974,-154.216 69.1116,-139.627"/>
<polygon fill="black" stroke="black" points="72.5808,-139.153 68.0206,-129.59 65.6218,-139.91 72.5808,-139.153"/>
<text text-anchor="middle" x="75.5" y="-153.4" font-family="Times Roman,serif" font-size="14.00">a</text>
</g>
<!-- q1&#45;&gt;q0 -->
<g id="edge6" class="edge"><title>q1&#45;&gt;q0</title>
<path fill="none" stroke="black" d="M58.8685,-128.966C55.5329,-139.777 52.9058,-153.769 56,-166 56.9323,-169.686 58.3126,-173.402 59.9201,-176.985"/>
<polygon fill="black" stroke="black" points="56.8837,-178.735 64.5543,-186.043 63.1154,-175.546 56.8837,-178.735"/>
<text text-anchor="middle" x="60.5" y="-153.4" font-family="Times Roman,serif" font-size="14.00">b</text>
</g>
<!-- q4 -->
<g id="node9" class="node"><title>q4</title>
<ellipse fill="none" stroke="black" cx="33" cy="-19" rx="27" ry="18.3848"/>
<text text-anchor="middle" x="33" y="-15.4" font-family="Times Roman,serif" font-size="14.00">q4</text>
</g>
<!-- q1&#45;&gt;q4 -->
<g id="edge8" class="edge"><title>q1&#45;&gt;q4</title>
<path fill="none" stroke="black" d="M59.4803,-92.8238C54.7797,-79.7191 48.3481,-61.7885 43.0005,-46.8803"/>
<polygon fill="black" stroke="black" points="46.1771,-45.3695 39.5062,-37.1385 39.5881,-47.733 46.1771,-45.3695"/>
<text text-anchor="middle" x="56.5" y="-61.4" font-family="Times Roman,serif" font-size="14.00">a</text>
</g>
<!-- q4&#45;&gt;q3 -->
<g id="edge12" class="edge"><title>q4&#45;&gt;q3</title>
<path fill="none" stroke="black" d="M32.1007,-37.5979C31.4201,-52.3476 30.5171,-73.4881 30,-92 28.2683,-153.995 27.4998,-226.67 27.1886,-266.056"/>
<polygon fill="black" stroke="black" points="23.6874,-266.219 27.1125,-276.245 30.6872,-266.272 23.6874,-266.219"/>
<text text-anchor="middle" x="32.5" y="-153.4" font-family="Times Roman,serif" font-size="14.00">a</text>
</g>
<!-- q4&#45;&gt;q4 -->
<g id="edge10" class="edge"><title>q4&#45;&gt;q4</title>
<path fill="none" stroke="black" d="M57.0743,-27.4544C68.2423,-28.3767 78,-25.5586 78,-19 78,-14.5934 73.5952,-11.8754 67.3174,-10.8458"/>
<polygon fill="black" stroke="black" points="67.1726,-7.34018 57.0743,-10.5456 66.9674,-14.3372 67.1726,-7.34018"/>
<text text-anchor="middle" x="82.5" y="-15.4" font-family="Times Roman,serif" font-size="14.00">b</text>
</g>
</g>
</svg>
