<?xml version="1.0" encoding="UTF-8" standalone="no"?>
<!DOCTYPE svg PUBLIC "-//W3C//DTD SVG 1.1//EN"
 "http://www.w3.org/Graphics/SVG/1.1/DTD/svg11.dtd">
<!-- Generated by graphviz version 2.26.3 (20100126.1600)
 -->
<!-- Title: G Pages: 1 -->
<svg width="281pt" height="606pt"
 viewBox="0.00 0.00 281.00 606.00" xmlns="http://www.w3.org/2000/svg" xmlns:xlink="http://www.w3.org/1999/xlink">
<g id="graph1" class="graph" transform="scale(1 1) rotate(0) translate(4 602)">
<title>G</title>
<polygon fill="white" stroke="white" points="-4,5 -4,-602 278,-602 278,5 -4,5"/>
<!-- q0 -->
<g id="node1" class="node"><title>q0</title>
<ellipse fill="none" stroke="black" cx="191" cy="-487" rx="27" ry="18.3848"/>
<text text-anchor="middle" x="191" y="-483.4" font-family="Times Roman,serif" font-size="14.00">q0</text>
</g>
<!-- q0&#45;&gt;q0 -->
<g id="edge4" class="edge"><title>q0&#45;&gt;q0</title>
<path fill="none" stroke="black" d="M215.074,-495.454C226.242,-496.377 236,-493.559 236,-487 236,-482.593 231.595,-479.875 225.317,-478.846"/>
<polygon fill="black" stroke="black" points="225.173,-475.34 215.074,-478.546 224.967,-482.337 225.173,-475.34"/>
<text text-anchor="middle" x="240.5" y="-483.4" font-family="Times Roman,serif" font-size="14.00">a</text>
</g>
<!-- q3 -->
<g id="node3" class="node"><title>q3</title>
<ellipse fill="none" stroke="black" cx="191" cy="-395" rx="27" ry="18.3848"/>
<text text-anchor="middle" x="191" y="-391.4" font-family="Times Roman,serif" font-size="14.00">q3</text>
</g>
<!-- q0&#45;&gt;q3 -->
<g id="edge2" class="edge"><title>q0&#45;&gt;q3</title>
<path fill="none" stroke="black" d="M191,-468.382C191,-455.538 191,-438.216 191,-423.627"/>
<polygon fill="black" stroke="black" points="194.5,-423.59 191,-413.59 187.5,-423.59 194.5,-423.59"/>
<text text-anchor="middle" x="195.5" y="-437.4" font-family="Times Roman,serif" font-size="14.00">b</text>
</g>
<!-- q10 -->
<g id="node11" class="node"><title>q10</title>
<ellipse fill="none" stroke="black" cx="172" cy="-303" rx="29.9071" ry="18.3848"/>
<text text-anchor="middle" x="172" y="-299.4" font-family="Times Roman,serif" font-size="14.00">q10</text>
</g>
<!-- q3&#45;&gt;q10 -->
<g id="edge10" class="edge"><title>q3&#45;&gt;q10</title>
<path fill="none" stroke="black" d="M166.258,-387.099C152.664,-381.347 136.984,-372.062 129,-358 121.784,-345.29 130.907,-332.351 142.577,-322.218"/>
<polygon fill="black" stroke="black" points="144.783,-324.936 150.468,-315.995 140.448,-319.439 144.783,-324.936"/>
<text text-anchor="middle" x="133.5" y="-345.4" font-family="Times Roman,serif" font-size="14.00">b</text>
</g>
<!-- q3&#45;&gt;q10 -->
<g id="edge12" class="edge"><title>q3&#45;&gt;q10</title>
<path fill="none" stroke="black" d="M174.87,-379.931C169.363,-373.733 163.873,-366.106 161,-358 157.937,-349.358 158.615,-339.633 160.697,-330.791"/>
<polygon fill="black" stroke="black" points="164.132,-331.517 163.645,-320.934 157.426,-329.511 164.132,-331.517"/>
<text text-anchor="middle" x="165.5" y="-345.4" font-family="Times Roman,serif" font-size="14.00">a</text>
</g>
<!-- q2 -->
<g id="node5" class="node"><title>q2</title>
<ellipse fill="none" stroke="black" cx="27" cy="-303" rx="27" ry="18.3848"/>
<text text-anchor="middle" x="27" y="-299.4" font-family="Times Roman,serif" font-size="14.00">q2</text>
</g>
<!-- q4 -->
<g id="node7" class="node"><title>q4</title>
<ellipse fill="none" stroke="black" cx="53" cy="-207" rx="27" ry="18.3848"/>
<ellipse fill="none" stroke="black" cx="53" cy="-207" rx="31" ry="22.3848"/>
<text text-anchor="middle" x="53" y="-203.4" font-family="Times Roman,serif" font-size="14.00">q4</text>
</g>
<!-- q2&#45;&gt;q4 -->
<g id="edge6" class="edge"><title>q2&#45;&gt;q4</title>
<path fill="none" stroke="black" d="M32.0131,-284.49C35.49,-271.652 40.2116,-254.219 44.2958,-239.139"/>
<polygon fill="black" stroke="black" points="47.7624,-239.727 46.9983,-229.16 41.0058,-237.897 47.7624,-239.727"/>
<text text-anchor="middle" x="46.5" y="-253.4" font-family="Times Roman,serif" font-size="14.00">b</text>
</g>
<!-- q9 -->
<g id="node9" class="node"><title>q9</title>
<ellipse fill="none" stroke="black" cx="187" cy="-19" rx="27" ry="18.3848"/>
<text text-anchor="middle" x="187" y="-15.4" font-family="Times Roman,serif" font-size="14.00">q9</text>
</g>
<!-- q2&#45;&gt;q9 -->
<g id="edge8" class="edge"><title>q2&#45;&gt;q9</title>
<path fill="none" stroke="black" d="M19.3649,-284.844C10.4457,-260.774 -1.3747,-217.446 13,-184 42.4812,-115.406 116.05,-61.9419 157.467,-36.0732"/>
<polygon fill="black" stroke="black" points="159.333,-39.0351 166.035,-30.8294 155.678,-33.0646 159.333,-39.0351"/>
<text text-anchor="middle" x="37.5" y="-153.4" font-family="Times Roman,serif" font-size="14.00">a</text>
</g>
<!-- q4&#45;&gt;q2 -->
<g id="edge16" class="edge"><title>q4&#45;&gt;q2</title>
<path fill="none" stroke="black" d="M38.0014,-226.852C33.9717,-233.268 30.1408,-240.635 28,-248 25.601,-256.254 24.7652,-265.502 24.6899,-274.025"/>
<polygon fill="black" stroke="black" points="21.1978,-274.392 24.941,-284.304 28.1957,-274.221 21.1978,-274.392"/>
<text text-anchor="middle" x="32.5" y="-253.4" font-family="Times Roman,serif" font-size="14.00">a</text>
</g>
<!-- q8 -->
<g id="node14" class="node"><title>q8</title>
<ellipse fill="none" stroke="black" cx="146" cy="-111" rx="27" ry="18.3848"/>
<text text-anchor="middle" x="146" y="-107.4" font-family="Times Roman,serif" font-size="14.00">q8</text>
</g>
<!-- q4&#45;&gt;q8 -->
<g id="edge14" class="edge"><title>q4&#45;&gt;q8</title>
<path fill="none" stroke="black" d="M66.1624,-186.477C74.2976,-174.58 85.3794,-159.69 97,-148 103.374,-141.588 110.902,-135.364 118.121,-129.906"/>
<polygon fill="black" stroke="black" points="120.353,-132.61 126.365,-123.887 116.225,-126.957 120.353,-132.61"/>
<text text-anchor="middle" x="101.5" y="-153.4" font-family="Times Roman,serif" font-size="14.00">b</text>
</g>
<!-- q9&#45;&gt;q3 -->
<g id="edge30" class="edge"><title>q9&#45;&gt;q3</title>
<path fill="none" stroke="black" d="M204.317,-33.3217C222.351,-49.9485 248,-79.1875 248,-111 248,-303 248,-303 248,-303 248,-329.885 230.193,-355.457 214.485,-372.785"/>
<polygon fill="black" stroke="black" points="211.843,-370.484 207.487,-380.142 216.915,-375.309 211.843,-370.484"/>
<text text-anchor="middle" x="252.5" y="-203.4" font-family="Times Roman,serif" font-size="14.00">b</text>
</g>
<!-- q5 -->
<g id="node16" class="node"><title>q5</title>
<ellipse fill="none" stroke="black" cx="185" cy="-207" rx="27" ry="18.3848"/>
<text text-anchor="middle" x="185" y="-203.4" font-family="Times Roman,serif" font-size="14.00">q5</text>
</g>
<!-- q9&#45;&gt;q5 -->
<g id="edge32" class="edge"><title>q9&#45;&gt;q5</title>
<path fill="none" stroke="black" d="M186.802,-37.6378C186.452,-70.5222 185.723,-139.05 185.307,-178.106"/>
<polygon fill="black" stroke="black" points="181.806,-178.25 185.199,-188.287 188.805,-178.324 181.806,-178.25"/>
<text text-anchor="middle" x="190.5" y="-107.4" font-family="Times Roman,serif" font-size="14.00">a</text>
</g>
<!-- q10&#45;&gt;q3 -->
<g id="edge34" class="edge"><title>q10&#45;&gt;q3</title>
<path fill="none" stroke="black" d="M175.839,-321.59C178.49,-334.428 182.068,-351.748 185.081,-366.342"/>
<polygon fill="black" stroke="black" points="181.705,-367.297 187.155,-376.382 188.56,-365.881 181.705,-367.297"/>
<text text-anchor="middle" x="187.5" y="-345.4" font-family="Times Roman,serif" font-size="14.00">b</text>
</g>
<!-- q10&#45;&gt;q3 -->
<g id="edge36" class="edge"><title>q10&#45;&gt;q3</title>
<path fill="none" stroke="black" d="M185.708,-319.663C189.855,-325.696 193.871,-332.805 196,-340 198.495,-348.432 198.561,-357.881 197.618,-366.536"/>
<polygon fill="black" stroke="black" points="194.134,-366.161 196.062,-376.579 201.052,-367.233 194.134,-366.161"/>
<text text-anchor="middle" x="202.5" y="-345.4" font-family="Times Roman,serif" font-size="14.00">a</text>
</g>
<!-- q10&#45;&gt;q3 -->
<g id="edge38" class="edge"><title>q10&#45;&gt;q3</title>
<path fill="none" stroke="black" d="M146.692,-313.426C126.226,-323.471 102.549,-339.792 114,-358 123.068,-372.418 139.496,-381.346 154.856,-386.809"/>
<polygon fill="black" stroke="black" points="154.118,-390.246 164.707,-389.92 156.226,-383.571 154.118,-390.246"/>
<text text-anchor="middle" x="118.5" y="-345.4" font-family="Times Roman,serif" font-size="14.00">b</text>
</g>
<!-- q10&#45;&gt;q8 -->
<g id="edge40" class="edge"><title>q10&#45;&gt;q8</title>
<path fill="none" stroke="black" d="M159.834,-285.915C155.938,-279.847 151.89,-272.826 149,-266 131.556,-224.806 135.499,-171.765 140.41,-139.625"/>
<polygon fill="black" stroke="black" points="143.894,-140.013 142.084,-129.574 136.989,-138.863 143.894,-140.013"/>
<text text-anchor="middle" x="143.5" y="-203.4" font-family="Times Roman,serif" font-size="14.00">a</text>
</g>
<!-- q10&#45;&gt;q5 -->
<g id="edge42" class="edge"><title>q10&#45;&gt;q5</title>
<path fill="none" stroke="black" d="M160.453,-285.638C154.699,-274.803 149.782,-260.573 154,-248 156.086,-241.782 159.53,-235.754 163.38,-230.321"/>
<polygon fill="black" stroke="black" points="166.225,-232.364 169.626,-222.329 160.71,-228.052 166.225,-232.364"/>
<text text-anchor="middle" x="158.5" y="-253.4" font-family="Times Roman,serif" font-size="14.00">b</text>
</g>
<!-- q10&#45;&gt;q5 -->
<g id="edge44" class="edge"><title>q10&#45;&gt;q5</title>
<path fill="none" stroke="black" d="M174.507,-284.49C176.377,-270.678 178.968,-251.547 181.107,-235.75"/>
<polygon fill="black" stroke="black" points="184.628,-235.832 182.501,-225.453 177.691,-234.893 184.628,-235.832"/>
<text text-anchor="middle" x="184.5" y="-253.4" font-family="Times Roman,serif" font-size="14.00">a</text>
</g>
<!-- q8&#45;&gt;q9 -->
<g id="edge28" class="edge"><title>q8&#45;&gt;q9</title>
<path fill="none" stroke="black" d="M153.905,-93.2615C159.823,-79.9833 168.026,-61.5758 174.785,-46.4097"/>
<polygon fill="black" stroke="black" points="178.105,-47.5567 178.979,-36.998 171.712,-44.7073 178.105,-47.5567"/>
<text text-anchor="middle" x="175.5" y="-61.4" font-family="Times Roman,serif" font-size="14.00">a</text>
</g>
<!-- q8&#45;&gt;q5 -->
<g id="edge26" class="edge"><title>q8&#45;&gt;q5</title>
<path fill="none" stroke="black" d="M154.57,-128.949C157.354,-134.963 160.396,-141.733 163,-148 167.216,-158.146 171.512,-169.418 175.176,-179.37"/>
<polygon fill="black" stroke="black" points="171.895,-180.589 178.603,-188.79 178.473,-178.195 171.895,-180.589"/>
<text text-anchor="middle" x="175.5" y="-153.4" font-family="Times Roman,serif" font-size="14.00">b</text>
</g>
<!-- q5&#45;&gt;q10 -->
<g id="edge20" class="edge"><title>q5&#45;&gt;q10</title>
<path fill="none" stroke="black" d="M192.171,-225.044C195.859,-236.844 198.85,-252.513 195,-266 193.887,-269.898 192.232,-273.785 190.311,-277.496"/>
<polygon fill="black" stroke="black" points="187.208,-275.868 185.144,-286.26 193.238,-279.424 187.208,-275.868"/>
<text text-anchor="middle" x="200.5" y="-253.4" font-family="Times Roman,serif" font-size="14.00">a</text>
</g>
<!-- q5&#45;&gt;q8 -->
<g id="edge18" class="edge"><title>q5&#45;&gt;q8</title>
<path fill="none" stroke="black" d="M170.268,-191.429C164.27,-184.222 157.854,-175.221 154,-166 150.587,-157.835 148.593,-148.462 147.439,-139.794"/>
<polygon fill="black" stroke="black" points="150.906,-139.292 146.409,-129.698 143.942,-140.002 150.906,-139.292"/>
<text text-anchor="middle" x="158.5" y="-153.4" font-family="Times Roman,serif" font-size="14.00">b</text>
</g>
<!-- q6 -->
<g id="node19" class="node"><title>q6</title>
<ellipse fill="none" stroke="black" cx="246" cy="-579" rx="27" ry="18.3848"/>
<text text-anchor="middle" x="246" y="-575.4" font-family="Times Roman,serif" font-size="14.00">q6</text>
</g>
<!-- q6&#45;&gt;q0 -->
<g id="edge22" class="edge"><title>q6&#45;&gt;q0</title>
<path fill="none" stroke="black" d="M235.655,-561.696C227.435,-547.946 215.811,-528.501 206.482,-512.898"/>
<polygon fill="black" stroke="black" points="209.434,-511.014 201.299,-504.227 203.426,-514.606 209.434,-511.014"/>
<text text-anchor="middle" x="227.5" y="-529.4" font-family="Times Roman,serif" font-size="14.00">b</text>
</g>
<!-- q6&#45;&gt;q10 -->
<g id="edge24" class="edge"><title>q6&#45;&gt;q10</title>
<path fill="none" stroke="black" d="M249.753,-560.452C253.67,-538.342 258.645,-500.32 254,-468 245.463,-408.597 245.623,-389.018 211,-340 207.254,-334.697 202.665,-329.544 197.966,-324.851"/>
<polygon fill="black" stroke="black" points="200.274,-322.217 190.599,-317.9 195.47,-327.308 200.274,-322.217"/>
<text text-anchor="middle" x="255.5" y="-437.4" font-family="Times Roman,serif" font-size="14.00">a</text>
</g>
</g>
</svg>
