<?xml version="1.0" encoding="UTF-8" standalone="no"?>
<!DOCTYPE svg PUBLIC "-//W3C//DTD SVG 1.1//EN"
 "http://www.w3.org/Graphics/SVG/1.1/DTD/svg11.dtd">
<!-- Generated by graphviz version 2.26.3 (20100126.1600)
 -->
<!-- Title: G Pages: 1 -->
<svg width="171pt" height="502pt"
 viewBox="0.00 0.00 171.00 502.00" xmlns="http://www.w3.org/2000/svg" xmlns:xlink="http://www.w3.org/1999/xlink">
<g id="graph1" class="graph" transform="scale(1 1) rotate(0) translate(4 498)">
<title>G</title>
<polygon fill="white" stroke="white" points="-4,5 -4,-498 168,-498 168,5 -4,5"/>
<!-- q6 -->
<g id="node1" class="node"><title>q6</title>
<ellipse fill="none" stroke="black" cx="117" cy="-476" rx="27" ry="18"/>
<text text-anchor="middle" x="117" y="-471.9" font-family="Times Roman,serif" font-size="14.00">q6</text>
</g>
<!-- q7 -->
<g id="node3" class="node"><title>q7</title>
<ellipse fill="none" stroke="black" cx="27" cy="-386" rx="27" ry="18"/>
<text text-anchor="middle" x="27" y="-381.9" font-family="Times Roman,serif" font-size="14.00">q7</text>
</g>
<!-- q6&#45;&gt;q7 -->
<g id="edge2" class="edge"><title>q6&#45;&gt;q7</title>
<path fill="none" stroke="black" d="M101.733,-460.733C87.2939,-446.294 65.4629,-424.463 49.1189,-408.119"/>
<polygon fill="black" stroke="black" points="51.5878,-405.638 42.0418,-401.042 46.638,-410.588 51.5878,-405.638"/>
<text text-anchor="middle" x="85.5" y="-426.9" font-family="Times Roman,serif" font-size="14.00">b</text>
</g>
<!-- q4 -->
<g id="node5" class="node"><title>q4</title>
<ellipse fill="none" stroke="black" cx="64" cy="-296" rx="27" ry="18"/>
<text text-anchor="middle" x="64" y="-291.9" font-family="Times Roman,serif" font-size="14.00">q4</text>
</g>
<!-- q6&#45;&gt;q4 -->
<g id="edge4" class="edge"><title>q6&#45;&gt;q4</title>
<path fill="none" stroke="black" d="M113.063,-457.884C108.237,-436.304 99.5201,-399.245 90,-368 85.4316,-353.007 79.5542,-336.547 74.5436,-323.154"/>
<polygon fill="black" stroke="black" points="77.7339,-321.695 70.9169,-313.585 71.1883,-324.176 77.7339,-321.695"/>
<text text-anchor="middle" x="103.5" y="-381.9" font-family="Times Roman,serif" font-size="14.00">a</text>
</g>
<!-- q7&#45;&gt;q7 -->
<g id="edge8" class="edge"><title>q7&#45;&gt;q7</title>
<path fill="none" stroke="black" d="M51.5325,-394.121C62.5078,-394.895 72,-392.188 72,-386 72,-381.843 67.7151,-379.257 61.5743,-378.242"/>
<polygon fill="black" stroke="black" points="61.6524,-374.742 51.5325,-377.879 61.3995,-381.738 61.6524,-374.742"/>
<text text-anchor="middle" x="76.5" y="-381.9" font-family="Times Roman,serif" font-size="14.00">a</text>
</g>
<!-- q7&#45;&gt;q4 -->
<g id="edge6" class="edge"><title>q7&#45;&gt;q4</title>
<path fill="none" stroke="black" d="M34.31,-368.219C39.6146,-355.316 46.8853,-337.63 52.9039,-322.99"/>
<polygon fill="black" stroke="black" points="56.2658,-324.018 56.8311,-313.438 49.7916,-321.356 56.2658,-324.018"/>
<text text-anchor="middle" x="53.5" y="-336.9" font-family="Times Roman,serif" font-size="14.00">b</text>
</g>
<!-- q4&#45;&gt;q4 -->
<g id="edge16" class="edge"><title>q4&#45;&gt;q4</title>
<path fill="none" stroke="black" d="M88.5325,-304.121C99.5078,-304.895 109,-302.188 109,-296 109,-291.843 104.715,-289.257 98.5743,-288.242"/>
<polygon fill="black" stroke="black" points="98.6524,-284.742 88.5325,-287.879 98.3995,-291.738 98.6524,-284.742"/>
<text text-anchor="middle" x="113.5" y="-291.9" font-family="Times Roman,serif" font-size="14.00">a</text>
</g>
<!-- q2 -->
<g id="node8" class="node"><title>q2</title>
<ellipse fill="none" stroke="black" cx="98" cy="-206" rx="27" ry="18"/>
<text text-anchor="middle" x="98" y="-201.9" font-family="Times Roman,serif" font-size="14.00">q2</text>
</g>
<!-- q4&#45;&gt;q2 -->
<g id="edge14" class="edge"><title>q4&#45;&gt;q2</title>
<path fill="none" stroke="black" d="M70.7173,-278.219C75.5603,-265.399 82.1868,-247.858 87.6964,-233.274"/>
<polygon fill="black" stroke="black" points="91.0367,-234.336 91.2966,-223.744 84.4884,-231.862 91.0367,-234.336"/>
<text text-anchor="middle" x="89.5" y="-246.9" font-family="Times Roman,serif" font-size="14.00">b</text>
</g>
<!-- q2&#45;&gt;q4 -->
<g id="edge10" class="edge"><title>q2&#45;&gt;q4</title>
<path fill="none" stroke="black" d="M81.5837,-220.589C75.9248,-226.611 70.2072,-234.044 67,-242 63.791,-249.96 62.4912,-259.12 62.1462,-267.608"/>
<polygon fill="black" stroke="black" points="58.6461,-267.861 62.1481,-277.86 65.6461,-267.86 58.6461,-267.861"/>
<text text-anchor="middle" x="71.5" y="-246.9" font-family="Times Roman,serif" font-size="14.00">b</text>
</g>
<!-- q0 -->
<g id="node11" class="node"><title>q0</title>
<ellipse fill="none" stroke="black" cx="98" cy="-116" rx="27" ry="18"/>
<text text-anchor="middle" x="98" y="-111.9" font-family="Times Roman,serif" font-size="14.00">q0</text>
</g>
<!-- q2&#45;&gt;q0 -->
<g id="edge12" class="edge"><title>q2&#45;&gt;q0</title>
<path fill="none" stroke="black" d="M98,-187.787C98,-175.344 98,-158.605 98,-144.421"/>
<polygon fill="black" stroke="black" points="101.5,-144.186 98,-134.186 94.5001,-144.186 101.5,-144.186"/>
<text text-anchor="middle" x="102.5" y="-156.9" font-family="Times Roman,serif" font-size="14.00">a</text>
</g>
<!-- q0&#45;&gt;q6 -->
<g id="edge24" class="edge"><title>q0&#45;&gt;q6</title>
<path fill="none" stroke="black" d="M114.198,-130.521C130.736,-147.025 154,-175.635 154,-206 154,-386 154,-386 154,-386 154,-409.092 143.452,-433.182 133.619,-450.622"/>
<polygon fill="black" stroke="black" points="130.398,-449.192 128.302,-459.578 136.417,-452.766 130.398,-449.192"/>
<text text-anchor="middle" x="158.5" y="-291.9" font-family="Times Roman,serif" font-size="14.00">a</text>
</g>
<!-- q3 -->
<g id="node14" class="node"><title>q3</title>
<ellipse fill="none" stroke="black" cx="66" cy="-22" rx="27" ry="18"/>
<ellipse fill="none" stroke="black" cx="66" cy="-22" rx="31" ry="22"/>
<text text-anchor="middle" x="66" y="-17.9" font-family="Times Roman,serif" font-size="14.00">q3</text>
</g>
<!-- q0&#45;&gt;q3 -->
<g id="edge22" class="edge"><title>q0&#45;&gt;q3</title>
<path fill="none" stroke="black" d="M91.981,-98.3193C87.6857,-85.7017 81.7924,-68.3903 76.7045,-53.4444"/>
<polygon fill="black" stroke="black" points="79.8762,-51.9004 73.3402,-43.5618 73.2496,-54.1563 79.8762,-51.9004"/>
<text text-anchor="middle" x="89.5" y="-66.9" font-family="Times Roman,serif" font-size="14.00">b</text>
</g>
<!-- q3&#45;&gt;q4 -->
<g id="edge18" class="edge"><title>q3&#45;&gt;q4</title>
<path fill="none" stroke="black" d="M62.1303,-43.942C61.2575,-49.7907 60.4551,-56.119 60,-62 53.8282,-141.763 59.2222,-161.999 59,-242 58.9778,-250 58.4484,-252.019 59,-260 59.1789,-262.589 59.4294,-265.275 59.7238,-267.96"/>
<polygon fill="black" stroke="black" points="56.2807,-268.629 61.0186,-278.106 63.2244,-267.743 56.2807,-268.629"/>
<text text-anchor="middle" x="62.5" y="-156.9" font-family="Times Roman,serif" font-size="14.00">b</text>
</g>
<!-- q3&#45;&gt;q0 -->
<g id="edge20" class="edge"><title>q3&#45;&gt;q0</title>
<path fill="none" stroke="black" d="M62.9033,-44.1537C62.208,-55.2571 62.6967,-68.707 67,-80 68.8613,-84.8845 71.7009,-89.5569 74.9203,-93.8228"/>
<polygon fill="black" stroke="black" points="72.2796,-96.1203 81.4221,-101.474 77.6138,-91.5875 72.2796,-96.1203"/>
<text text-anchor="middle" x="71.5" y="-66.9" font-family="Times Roman,serif" font-size="14.00">a</text>
</g>
</g>
</svg>
