<?xml version="1.0" encoding="UTF-8" standalone="no"?>
<!DOCTYPE svg PUBLIC "-//W3C//DTD SVG 1.1//EN"
 "http://www.w3.org/Graphics/SVG/1.1/DTD/svg11.dtd">
<!-- Generated by graphviz version 2.26.3 (20100126.1600)
 -->
<!-- Title: G Pages: 1 -->
<svg width="311pt" height="898pt"
 viewBox="0.00 0.00 311.00 898.00" xmlns="http://www.w3.org/2000/svg" xmlns:xlink="http://www.w3.org/1999/xlink">
<g id="graph1" class="graph" transform="scale(1 1) rotate(0) translate(4 894)">
<title>G</title>
<polygon fill="white" stroke="white" points="-4,5 -4,-894 308,-894 308,5 -4,5"/>
<!-- q0 -->
<g id="node1" class="node"><title>q0</title>
<ellipse fill="none" stroke="black" cx="48" cy="-779" rx="27" ry="18.3848"/>
<text text-anchor="middle" x="48" y="-775.4" font-family="Times Roman,serif" font-size="14.00">q0</text>
</g>
<!-- q0&#45;&gt;q0 -->
<g id="edge2" class="edge"><title>q0&#45;&gt;q0</title>
<path fill="none" stroke="black" d="M72.0743,-787.454C83.2423,-788.377 93,-785.559 93,-779 93,-774.593 88.5952,-771.875 82.3174,-770.846"/>
<polygon fill="black" stroke="black" points="82.1726,-767.34 72.0743,-770.546 81.9674,-774.337 82.1726,-767.34"/>
<text text-anchor="middle" x="97.5" y="-775.4" font-family="Times Roman,serif" font-size="14.00">b</text>
</g>
<!-- q6 -->
<g id="node4" class="node"><title>q6</title>
<ellipse fill="none" stroke="black" cx="47" cy="-687" rx="27" ry="18.3848"/>
<text text-anchor="middle" x="47" y="-683.4" font-family="Times Roman,serif" font-size="14.00">q6</text>
</g>
<!-- q0&#45;&gt;q6 -->
<g id="edge4" class="edge"><title>q0&#45;&gt;q6</title>
<path fill="none" stroke="black" d="M47.7976,-760.382C47.658,-747.538 47.4697,-730.216 47.3112,-715.627"/>
<polygon fill="black" stroke="black" points="50.8106,-715.551 47.2021,-705.59 43.8111,-715.627 50.8106,-715.551"/>
<text text-anchor="middle" x="52.5" y="-729.4" font-family="Times Roman,serif" font-size="14.00">a</text>
</g>
<!-- q6&#45;&gt;q6 -->
<g id="edge26" class="edge"><title>q6&#45;&gt;q6</title>
<path fill="none" stroke="black" d="M71.0743,-695.454C82.2423,-696.377 92,-693.559 92,-687 92,-682.593 87.5952,-679.875 81.3174,-678.846"/>
<polygon fill="black" stroke="black" points="81.1726,-675.34 71.0743,-678.546 80.9674,-682.337 81.1726,-675.34"/>
<text text-anchor="middle" x="96.5" y="-683.4" font-family="Times Roman,serif" font-size="14.00">b</text>
</g>
<!-- q7 -->
<g id="node12" class="node"><title>q7</title>
<ellipse fill="none" stroke="black" cx="131" cy="-595" rx="27" ry="18.3848"/>
<text text-anchor="middle" x="131" y="-591.4" font-family="Times Roman,serif" font-size="14.00">q7</text>
</g>
<!-- q6&#45;&gt;q7 -->
<g id="edge28" class="edge"><title>q6&#45;&gt;q7</title>
<path fill="none" stroke="black" d="M61.6317,-670.975C74.8812,-656.463 94.567,-634.903 109.586,-618.453"/>
<polygon fill="black" stroke="black" points="112.378,-620.586 116.536,-610.842 107.209,-615.866 112.378,-620.586"/>
<text text-anchor="middle" x="100.5" y="-637.4" font-family="Times Roman,serif" font-size="14.00">a</text>
</g>
<!-- q1 -->
<g id="node5" class="node"><title>q1</title>
<ellipse fill="none" stroke="black" cx="104" cy="-407" rx="27" ry="18.3848"/>
<ellipse fill="none" stroke="black" cx="104" cy="-407" rx="31" ry="22.3848"/>
<text text-anchor="middle" x="104" y="-403.4" font-family="Times Roman,serif" font-size="14.00">q1</text>
</g>
<!-- q3 -->
<g id="node7" class="node"><title>q3</title>
<ellipse fill="none" stroke="black" cx="76" cy="-115" rx="27" ry="18.3848"/>
<ellipse fill="none" stroke="black" cx="76" cy="-115" rx="31" ry="22.3848"/>
<text text-anchor="middle" x="76" y="-111.4" font-family="Times Roman,serif" font-size="14.00">q3</text>
</g>
<!-- q1&#45;&gt;q3 -->
<g id="edge6" class="edge"><title>q1&#45;&gt;q3</title>
<path fill="none" stroke="black" d="M101.803,-384.087C96.8652,-332.594 84.8759,-207.563 79.148,-147.83"/>
<polygon fill="black" stroke="black" points="82.6255,-147.427 78.1869,-137.806 75.6575,-148.095 82.6255,-147.427"/>
<text text-anchor="middle" x="94.5" y="-253.4" font-family="Times Roman,serif" font-size="14.00">b</text>
</g>
<!-- q8 -->
<g id="node9" class="node"><title>q8</title>
<ellipse fill="none" stroke="black" cx="222" cy="-307" rx="27" ry="18.3848"/>
<ellipse fill="none" stroke="black" cx="222" cy="-307" rx="31" ry="22.3848"/>
<text text-anchor="middle" x="222" y="-303.4" font-family="Times Roman,serif" font-size="14.00">q8</text>
</g>
<!-- q1&#45;&gt;q8 -->
<g id="edge8" class="edge"><title>q1&#45;&gt;q8</title>
<path fill="none" stroke="black" d="M110.347,-384.85C114.768,-372.701 121.739,-358.102 132,-348 146.013,-334.205 165.499,-324.547 182.758,-318.086"/>
<polygon fill="black" stroke="black" points="184.32,-321.248 192.605,-314.644 182.01,-314.64 184.32,-321.248"/>
<text text-anchor="middle" x="136.5" y="-353.4" font-family="Times Roman,serif" font-size="14.00">a</text>
</g>
<!-- q3&#45;&gt;q6 -->
<g id="edge16" class="edge"><title>q3&#45;&gt;q6</title>
<path fill="none" stroke="black" d="M65.3387,-136.142C56.7158,-155.211 46,-184.284 46,-211 46,-595 46,-595 46,-595 46,-616.131 46.2671,-639.991 46.5251,-658.117"/>
<polygon fill="black" stroke="black" points="43.0286,-658.377 46.6781,-668.323 50.0278,-658.272 43.0286,-658.377"/>
<text text-anchor="middle" x="50.5" y="-403.4" font-family="Times Roman,serif" font-size="14.00">a</text>
</g>
<!-- q5 -->
<g id="node16" class="node"><title>q5</title>
<ellipse fill="none" stroke="black" cx="44" cy="-19" rx="27" ry="18.3848"/>
<text text-anchor="middle" x="44" y="-15.4" font-family="Times Roman,serif" font-size="14.00">q5</text>
</g>
<!-- q3&#45;&gt;q5 -->
<g id="edge14" class="edge"><title>q3&#45;&gt;q5</title>
<path fill="none" stroke="black" d="M58.0882,-96.461C52.8576,-89.8865 47.7986,-82.0967 45,-74 42.1388,-65.722 41.1993,-56.3164 41.1718,-47.6535"/>
<polygon fill="black" stroke="black" points="44.6723,-47.6966 41.5227,-37.5808 37.6765,-47.4528 44.6723,-47.6966"/>
<text text-anchor="middle" x="49.5" y="-61.4" font-family="Times Roman,serif" font-size="14.00">b</text>
</g>
<!-- q8&#45;&gt;q8 -->
<g id="edge36" class="edge"><title>q8&#45;&gt;q8</title>
<path fill="none" stroke="black" d="M250.689,-316.338C261.781,-316.753 271,-313.641 271,-307 271,-302.538 266.838,-299.669 260.743,-298.393"/>
<polygon fill="black" stroke="black" points="260.916,-294.896 250.689,-297.662 260.408,-301.878 260.916,-294.896"/>
<text text-anchor="middle" x="275.5" y="-303.4" font-family="Times Roman,serif" font-size="14.00">a</text>
</g>
<!-- q10 -->
<g id="node20" class="node"><title>q10</title>
<ellipse fill="none" stroke="black" cx="192" cy="-211" rx="29.9071" ry="18.3848"/>
<text text-anchor="middle" x="192" y="-207.4" font-family="Times Roman,serif" font-size="14.00">q10</text>
</g>
<!-- q8&#45;&gt;q10 -->
<g id="edge34" class="edge"><title>q8&#45;&gt;q10</title>
<path fill="none" stroke="black" d="M215.042,-284.734C210.808,-271.185 205.36,-253.751 200.824,-239.237"/>
<polygon fill="black" stroke="black" points="204.037,-237.784 197.713,-229.283 197.356,-239.872 204.037,-237.784"/>
<text text-anchor="middle" x="212.5" y="-253.4" font-family="Times Roman,serif" font-size="14.00">b</text>
</g>
<!-- q2 -->
<g id="node10" class="node"><title>q2</title>
<ellipse fill="none" stroke="black" cx="163" cy="-503" rx="27" ry="18.3848"/>
<text text-anchor="middle" x="163" y="-499.4" font-family="Times Roman,serif" font-size="14.00">q2</text>
</g>
<!-- q2&#45;&gt;q7 -->
<g id="edge10" class="edge"><title>q2&#45;&gt;q7</title>
<path fill="none" stroke="black" d="M146.42,-518.008C140.741,-524.199 135.052,-531.836 132,-540 128.933,-548.204 127.935,-557.589 127.917,-566.255"/>
<polygon fill="black" stroke="black" points="124.423,-566.486 128.309,-576.342 131.418,-566.214 124.423,-566.486"/>
<text text-anchor="middle" x="136.5" y="-545.4" font-family="Times Roman,serif" font-size="14.00">b</text>
</g>
<!-- q4 -->
<g id="node14" class="node"><title>q4</title>
<ellipse fill="none" stroke="black" cx="222" cy="-407" rx="27" ry="18.3848"/>
<text text-anchor="middle" x="222" y="-403.4" font-family="Times Roman,serif" font-size="14.00">q4</text>
</g>
<!-- q2&#45;&gt;q4 -->
<g id="edge12" class="edge"><title>q2&#45;&gt;q4</title>
<path fill="none" stroke="black" d="M173.548,-485.837C182.553,-471.185 195.644,-449.884 205.95,-433.116"/>
<polygon fill="black" stroke="black" points="209.09,-434.69 211.344,-424.338 203.126,-431.025 209.09,-434.69"/>
<text text-anchor="middle" x="200.5" y="-453.4" font-family="Times Roman,serif" font-size="14.00">a</text>
</g>
<!-- q7&#45;&gt;q2 -->
<g id="edge30" class="edge"><title>q7&#45;&gt;q2</title>
<path fill="none" stroke="black" d="M137.322,-576.824C141.88,-563.719 148.117,-545.789 153.303,-530.88"/>
<polygon fill="black" stroke="black" points="156.711,-531.733 156.691,-521.138 150.1,-529.434 156.711,-531.733"/>
<text text-anchor="middle" x="153.5" y="-545.4" font-family="Times Roman,serif" font-size="14.00">b</text>
</g>
<!-- q7&#45;&gt;q7 -->
<g id="edge32" class="edge"><title>q7&#45;&gt;q7</title>
<path fill="none" stroke="black" d="M155.074,-603.454C166.242,-604.377 176,-601.559 176,-595 176,-590.593 171.595,-587.875 165.317,-586.846"/>
<polygon fill="black" stroke="black" points="165.173,-583.34 155.074,-586.546 164.967,-590.337 165.173,-583.34"/>
<text text-anchor="middle" x="180.5" y="-591.4" font-family="Times Roman,serif" font-size="14.00">a</text>
</g>
<!-- q4&#45;&gt;q8 -->
<g id="edge18" class="edge"><title>q4&#45;&gt;q8</title>
<path fill="none" stroke="black" d="M222,-388.191C222,-374.546 222,-355.741 222,-339.665"/>
<polygon fill="black" stroke="black" points="225.5,-339.576 222,-329.576 218.5,-339.576 225.5,-339.576"/>
<text text-anchor="middle" x="226.5" y="-353.4" font-family="Times Roman,serif" font-size="14.00">b</text>
</g>
<!-- q4&#45;&gt;q10 -->
<g id="edge20" class="edge"><title>q4&#45;&gt;q10</title>
<path fill="none" stroke="black" d="M239.659,-392.785C265.625,-370.062 308.977,-324.036 289,-284 275.85,-257.645 248.152,-238.311 225.707,-226.185"/>
<polygon fill="black" stroke="black" points="227.273,-223.055 216.781,-221.584 224.066,-229.277 227.273,-223.055"/>
<text text-anchor="middle" x="298.5" y="-303.4" font-family="Times Roman,serif" font-size="14.00">a</text>
</g>
<!-- q5&#45;&gt;q6 -->
<g id="edge22" class="edge"><title>q5&#45;&gt;q6</title>
<path fill="none" stroke="black" d="M31.0365,-35.6342C18.0576,-53.9905 0,-84.9325 0,-115 0,-595 0,-595 0,-595 0,-620.124 14.0721,-645.299 26.8163,-662.946"/>
<polygon fill="black" stroke="black" points="24.069,-665.116 32.8985,-670.972 29.6479,-660.888 24.069,-665.116"/>
<text text-anchor="middle" x="4.5" y="-353.4" font-family="Times Roman,serif" font-size="14.00">b</text>
</g>
<!-- q5&#45;&gt;q3 -->
<g id="edge24" class="edge"><title>q5&#45;&gt;q3</title>
<path fill="none" stroke="black" d="M50.0943,-37.2828C54.4081,-50.2242 60.3056,-67.9169 65.3841,-83.1522"/>
<polygon fill="black" stroke="black" points="62.0954,-84.3544 68.5781,-92.7344 68.7362,-82.1407 62.0954,-84.3544"/>
<text text-anchor="middle" x="65.5" y="-61.4" font-family="Times Roman,serif" font-size="14.00">a</text>
</g>
<!-- q10&#45;&gt;q3 -->
<g id="edge42" class="edge"><title>q10&#45;&gt;q3</title>
<path fill="none" stroke="black" d="M173.875,-196C155.342,-180.663 126.282,-156.613 104.635,-138.698"/>
<polygon fill="black" stroke="black" points="106.674,-135.842 96.7385,-132.163 102.211,-141.235 106.674,-135.842"/>
<text text-anchor="middle" x="148.5" y="-161.4" font-family="Times Roman,serif" font-size="14.00">b</text>
</g>
<!-- q10&#45;&gt;q2 -->
<g id="edge44" class="edge"><title>q10&#45;&gt;q2</title>
<path fill="none" stroke="black" d="M189.197,-229.571C187.036,-244.306 184.075,-265.439 182,-284 174.374,-352.21 168.086,-432.666 165.019,-474.498"/>
<polygon fill="black" stroke="black" points="161.526,-474.284 164.293,-484.511 168.507,-474.79 161.526,-474.284"/>
<text text-anchor="middle" x="179.5" y="-353.4" font-family="Times Roman,serif" font-size="14.00">a</text>
</g>
<!-- q9 -->
<g id="node29" class="node"><title>q9</title>
<ellipse fill="none" stroke="black" cx="104" cy="-871" rx="27" ry="18.3848"/>
<text text-anchor="middle" x="104" y="-867.4" font-family="Times Roman,serif" font-size="14.00">q9</text>
</g>
<!-- q9&#45;&gt;q0 -->
<g id="edge38" class="edge"><title>q9&#45;&gt;q0</title>
<path fill="none" stroke="black" d="M93.4668,-853.696C85.0975,-839.946 73.2616,-820.501 63.7639,-804.898"/>
<polygon fill="black" stroke="black" points="66.6752,-802.949 58.4859,-796.227 60.6958,-806.589 66.6752,-802.949"/>
<text text-anchor="middle" x="85.5" y="-821.4" font-family="Times Roman,serif" font-size="14.00">b</text>
</g>
<!-- q9&#45;&gt;q7 -->
<g id="edge40" class="edge"><title>q9&#45;&gt;q7</title>
<path fill="none" stroke="black" d="M105.813,-852.462C110.423,-805.34 122.617,-680.696 128.171,-623.914"/>
<polygon fill="black" stroke="black" points="131.669,-624.114 129.159,-613.82 124.702,-623.432 131.669,-624.114"/>
<text text-anchor="middle" x="122.5" y="-729.4" font-family="Times Roman,serif" font-size="14.00">a</text>
</g>
</g>
</svg>
