<?xml version="1.0" encoding="UTF-8" standalone="no"?>
<!DOCTYPE svg PUBLIC "-//W3C//DTD SVG 1.1//EN"
 "http://www.w3.org/Graphics/SVG/1.1/DTD/svg11.dtd">
<!-- Generated by graphviz version 2.26.3 (20100126.1600)
 -->
<!-- Title: G Pages: 1 -->
<svg width="188pt" height="322pt"
 viewBox="0.00 0.00 188.00 322.00" xmlns="http://www.w3.org/2000/svg" xmlns:xlink="http://www.w3.org/1999/xlink">
<g id="graph1" class="graph" transform="scale(1 1) rotate(0) translate(4 318)">
<title>G</title>
<polygon fill="white" stroke="white" points="-4,5 -4,-318 185,-318 185,5 -4,5"/>
<!-- q2 -->
<g id="node1" class="node"><title>q2</title>
<ellipse fill="none" stroke="black" cx="27" cy="-296" rx="27" ry="18"/>
<text text-anchor="middle" x="27" y="-291.9" font-family="Times Roman,serif" font-size="14.00">q2</text>
</g>
<!-- q2&#45;&gt;q2 -->
<g id="edge2" class="edge"><title>q2&#45;&gt;q2</title>
<path fill="none" stroke="black" d="M51.5325,-304.121C62.5078,-304.895 72,-302.188 72,-296 72,-291.843 67.7151,-289.257 61.5743,-288.242"/>
<polygon fill="black" stroke="black" points="61.6524,-284.742 51.5325,-287.879 61.3995,-291.738 61.6524,-284.742"/>
<text text-anchor="middle" x="76.5" y="-291.9" font-family="Times Roman,serif" font-size="14.00">b</text>
</g>
<!-- q1 -->
<g id="node4" class="node"><title>q1</title>
<ellipse fill="none" stroke="black" cx="76" cy="-206" rx="27" ry="18"/>
<text text-anchor="middle" x="76" y="-201.9" font-family="Times Roman,serif" font-size="14.00">q1</text>
</g>
<!-- q2&#45;&gt;q1 -->
<g id="edge4" class="edge"><title>q2&#45;&gt;q1</title>
<path fill="none" stroke="black" d="M36.2165,-279.072C43.4253,-265.831 53.5734,-247.192 61.8158,-232.053"/>
<polygon fill="black" stroke="black" points="64.9504,-233.615 66.6582,-223.158 58.8025,-230.267 64.9504,-233.615"/>
<text text-anchor="middle" x="60.5" y="-246.9" font-family="Times Roman,serif" font-size="14.00">a</text>
</g>
<!-- q1&#45;&gt;q1 -->
<g id="edge6" class="edge"><title>q1&#45;&gt;q1</title>
<path fill="none" stroke="black" d="M100.532,-214.121C111.508,-214.895 121,-212.188 121,-206 121,-201.843 116.715,-199.257 110.574,-198.242"/>
<polygon fill="black" stroke="black" points="110.652,-194.742 100.532,-197.879 110.4,-201.738 110.652,-194.742"/>
<text text-anchor="middle" x="125.5" y="-201.9" font-family="Times Roman,serif" font-size="14.00">b</text>
</g>
<!-- q4 -->
<g id="node7" class="node"><title>q4</title>
<ellipse fill="none" stroke="black" cx="44" cy="-116" rx="27" ry="18"/>
<text text-anchor="middle" x="44" y="-111.9" font-family="Times Roman,serif" font-size="14.00">q4</text>
</g>
<!-- q1&#45;&gt;q4 -->
<g id="edge8" class="edge"><title>q1&#45;&gt;q4</title>
<path fill="none" stroke="black" d="M59.4275,-191.472C53.7494,-185.458 48.0595,-178.014 45,-170 41.943,-161.993 40.9415,-152.819 40.9174,-144.333"/>
<polygon fill="black" stroke="black" points="44.4246,-144.224 41.3285,-134.091 37.4302,-143.943 44.4246,-144.224"/>
<text text-anchor="middle" x="49.5" y="-156.9" font-family="Times Roman,serif" font-size="14.00">a</text>
</g>
<!-- q4&#45;&gt;q1 -->
<g id="edge12" class="edge"><title>q4&#45;&gt;q1</title>
<path fill="none" stroke="black" d="M50.309,-133.744C54.864,-146.555 61.1001,-164.094 66.2876,-178.684"/>
<polygon fill="black" stroke="black" points="63.0299,-179.969 69.6778,-188.219 69.6254,-177.624 63.0299,-179.969"/>
<text text-anchor="middle" x="67.5" y="-156.9" font-family="Times Roman,serif" font-size="14.00">a</text>
</g>
<!-- q0 -->
<g id="node9" class="node"><title>q0</title>
<ellipse fill="none" stroke="black" cx="76" cy="-22" rx="27" ry="18"/>
<ellipse fill="none" stroke="black" cx="76" cy="-22" rx="31" ry="22"/>
<text text-anchor="middle" x="76" y="-17.9" font-family="Times Roman,serif" font-size="14.00">q0</text>
</g>
<!-- q4&#45;&gt;q0 -->
<g id="edge10" class="edge"><title>q4&#45;&gt;q0</title>
<path fill="none" stroke="black" d="M41.5431,-97.9876C40.7529,-87.2417 40.9474,-73.4962 45,-62 46.6649,-57.277 49.1253,-52.6741 51.9444,-48.3721"/>
<polygon fill="black" stroke="black" points="54.9822,-50.1493 58.0947,-40.0219 49.3461,-45.998 54.9822,-50.1493"/>
<text text-anchor="middle" x="49.5" y="-66.9" font-family="Times Roman,serif" font-size="14.00">b</text>
</g>
<!-- q0&#45;&gt;q1 -->
<g id="edge18" class="edge"><title>q0&#45;&gt;q1</title>
<path fill="none" stroke="black" d="M77.63,-44.3092C79.0853,-66.9108 80.8637,-102.881 80,-134 79.5971,-148.516 78.7381,-164.659 77.9191,-177.974"/>
<polygon fill="black" stroke="black" points="74.4258,-177.759 77.2803,-187.962 81.4115,-178.206 74.4258,-177.759"/>
<text text-anchor="middle" x="84.5" y="-111.9" font-family="Times Roman,serif" font-size="14.00">b</text>
</g>
<!-- q0&#45;&gt;q4 -->
<g id="edge20" class="edge"><title>q0&#45;&gt;q4</title>
<path fill="none" stroke="black" d="M68.6598,-43.5618C64.1156,-56.9105 58.2375,-74.1772 53.3602,-88.5045"/>
<polygon fill="black" stroke="black" points="49.9284,-87.7249 50.019,-98.3193 56.5549,-89.9808 49.9284,-87.7249"/>
<text text-anchor="middle" x="66.5" y="-66.9" font-family="Times Roman,serif" font-size="14.00">a</text>
</g>
<!-- q3 -->
<g id="node11" class="node"><title>q3</title>
<ellipse fill="none" stroke="black" cx="126" cy="-296" rx="27" ry="18"/>
<text text-anchor="middle" x="126" y="-291.9" font-family="Times Roman,serif" font-size="14.00">q3</text>
</g>
<!-- q3&#45;&gt;q1 -->
<g id="edge16" class="edge"><title>q3&#45;&gt;q1</title>
<path fill="none" stroke="black" d="M116.595,-279.072C109.239,-265.831 98.8843,-247.192 90.4737,-232.053"/>
<polygon fill="black" stroke="black" points="93.4485,-230.2 85.5324,-223.158 87.3294,-233.6 93.4485,-230.2"/>
<text text-anchor="middle" x="109.5" y="-246.9" font-family="Times Roman,serif" font-size="14.00">a</text>
</g>
<!-- q3&#45;&gt;q3 -->
<g id="edge14" class="edge"><title>q3&#45;&gt;q3</title>
<path fill="none" stroke="black" d="M150.532,-304.121C161.508,-304.895 171,-302.188 171,-296 171,-291.843 166.715,-289.257 160.574,-288.242"/>
<polygon fill="black" stroke="black" points="160.652,-284.742 150.532,-287.879 160.4,-291.738 160.652,-284.742"/>
<text text-anchor="middle" x="175.5" y="-291.9" font-family="Times Roman,serif" font-size="14.00">b</text>
</g>
</g>
</svg>
