<?xml version="1.0" encoding="UTF-8" standalone="no"?>
<!DOCTYPE svg PUBLIC "-//W3C//DTD SVG 1.1//EN"
 "http://www.w3.org/Graphics/SVG/1.1/DTD/svg11.dtd">
<!-- Generated by graphviz version 2.26.3 (20100126.1600)
 -->
<!-- Title: G Pages: 1 -->
<svg width="223pt" height="142pt"
 viewBox="0.00 0.00 223.00 142.00" xmlns="http://www.w3.org/2000/svg" xmlns:xlink="http://www.w3.org/1999/xlink">
<g id="graph1" class="graph" transform="scale(1 1) rotate(0) translate(4 138)">
<title>G</title>
<polygon fill="white" stroke="white" points="-4,5 -4,-138 220,-138 220,5 -4,5"/>
<!-- q6 -->
<g id="node1" class="node"><title>q6</title>
<ellipse fill="none" stroke="black" cx="31" cy="-116" rx="27" ry="18"/>
<text text-anchor="middle" x="31" y="-111.9" font-family="Times Roman,serif" font-size="14.00">q6</text>
</g>
<!-- q6&#45;&gt;q6 -->
<g id="edge2" class="edge"><title>q6&#45;&gt;q6</title>
<path fill="none" stroke="black" d="M55.5325,-124.121C66.5078,-124.895 76,-122.188 76,-116 76,-111.843 71.7151,-109.257 65.5743,-108.242"/>
<polygon fill="black" stroke="black" points="65.6524,-104.742 55.5325,-107.879 65.3995,-111.738 65.6524,-104.742"/>
<text text-anchor="middle" x="80.5" y="-111.9" font-family="Times Roman,serif" font-size="14.00">b</text>
</g>
<!-- q0 -->
<g id="node4" class="node"><title>q0</title>
<ellipse fill="none" stroke="black" cx="31" cy="-22" rx="27" ry="18"/>
<ellipse fill="none" stroke="black" cx="31" cy="-22" rx="31" ry="22"/>
<text text-anchor="middle" x="31" y="-17.9" font-family="Times Roman,serif" font-size="14.00">q0</text>
</g>
<!-- q6&#45;&gt;q0 -->
<g id="edge4" class="edge"><title>q6&#45;&gt;q0</title>
<path fill="none" stroke="black" d="M31,-97.8759C31,-85.5119 31,-68.7953 31,-54.1995"/>
<polygon fill="black" stroke="black" points="34.5001,-54.0388 31,-44.0388 27.5001,-54.0389 34.5001,-54.0388"/>
<text text-anchor="middle" x="35.5" y="-66.9" font-family="Times Roman,serif" font-size="14.00">a</text>
</g>
<!-- q0&#45;&gt;q0 -->
<g id="edge14" class="edge"><title>q0&#45;&gt;q0</title>
<path fill="none" stroke="black" d="M61.625,-26.5C71.8333,-26.5 80,-25 80,-22 80,-20.125 76.8099,-18.8359 71.925,-18.1328"/>
<polygon fill="black" stroke="black" points="71.8208,-14.6199 61.625,-17.5 71.3915,-21.6067 71.8208,-14.6199"/>
<text text-anchor="middle" x="84.5" y="-17.9" font-family="Times Roman,serif" font-size="14.00">b</text>
</g>
<!-- q0&#45;&gt;q0 -->
<g id="edge16" class="edge"><title>q0&#45;&gt;q0</title>
<path fill="none" stroke="black" d="M54.6948,-36.2925C75.6714,-43.0259 98,-38.2617 98,-22 98,-8.27917 82.104,-2.74361 64.5363,-5.39331"/>
<polygon fill="black" stroke="black" points="63.6281,-2.01132 54.6948,-7.70747 65.2305,-8.82547 63.6281,-2.01132"/>
<text text-anchor="middle" x="102.5" y="-17.9" font-family="Times Roman,serif" font-size="14.00">a</text>
</g>
<!-- q5 -->
<g id="node5" class="node"><title>q5</title>
<ellipse fill="none" stroke="black" cx="161" cy="-116" rx="27" ry="18"/>
<text text-anchor="middle" x="161" y="-111.9" font-family="Times Roman,serif" font-size="14.00">q5</text>
</g>
<!-- q2 -->
<g id="node7" class="node"><title>q2</title>
<ellipse fill="none" stroke="black" cx="161" cy="-22" rx="27" ry="18"/>
<text text-anchor="middle" x="161" y="-17.9" font-family="Times Roman,serif" font-size="14.00">q2</text>
</g>
<!-- q5&#45;&gt;q2 -->
<g id="edge6" class="edge"><title>q5&#45;&gt;q2</title>
<path fill="none" stroke="black" d="M144.349,-101.502C138.661,-95.4908 132.985,-88.0416 130,-80 127.216,-72.5001 127.41,-69.5692 130,-62 132.041,-56.0356 135.373,-50.2724 139.112,-45.0661"/>
<polygon fill="black" stroke="black" points="142.132,-46.8928 145.633,-36.893 136.66,-42.5271 142.132,-46.8928"/>
<text text-anchor="middle" x="134.5" y="-66.9" font-family="Times Roman,serif" font-size="14.00">b</text>
</g>
<!-- q5&#45;&gt;q2 -->
<g id="edge8" class="edge"><title>q5&#45;&gt;q2</title>
<path fill="none" stroke="black" d="M161,-97.8759C161,-84.3516 161,-65.6192 161,-50.1514"/>
<polygon fill="black" stroke="black" points="164.5,-50.0685 161,-40.0685 157.5,-50.0685 164.5,-50.0685"/>
<text text-anchor="middle" x="165.5" y="-66.9" font-family="Times Roman,serif" font-size="14.00">a</text>
</g>
<!-- q2&#45;&gt;q5 -->
<g id="edge12" class="edge"><title>q2&#45;&gt;q5</title>
<path fill="none" stroke="black" d="M166.909,-39.719C170.023,-51.178 172.849,-66.4333 171,-80 170.627,-82.7376 170.101,-85.5608 169.484,-88.3653"/>
<polygon fill="black" stroke="black" points="166.041,-87.6996 166.956,-98.2549 172.823,-89.4331 166.041,-87.6996"/>
<text text-anchor="middle" x="175.5" y="-66.9" font-family="Times Roman,serif" font-size="14.00">a</text>
</g>
<!-- q2&#45;&gt;q2 -->
<g id="edge10" class="edge"><title>q2&#45;&gt;q2</title>
<path fill="none" stroke="black" d="M184.615,-30.7803C195.973,-31.8643 206,-28.9375 206,-22 206,-17.3389 201.474,-14.4882 195.058,-13.4481"/>
<polygon fill="black" stroke="black" points="194.689,-9.93931 184.615,-13.2197 194.536,-16.9376 194.689,-9.93931"/>
<text text-anchor="middle" x="210.5" y="-17.9" font-family="Times Roman,serif" font-size="14.00">b</text>
</g>
</g>
</svg>
