<?xml version="1.0" encoding="UTF-8" standalone="no"?>
<!DOCTYPE svg PUBLIC "-//W3C//DTD SVG 1.1//EN"
 "http://www.w3.org/Graphics/SVG/1.1/DTD/svg11.dtd">
<!-- Generated by graphviz version 2.26.3 (20100126.1600)
 -->
<!-- Title: G Pages: 1 -->
<svg width="278pt" height="414pt"
 viewBox="0.00 0.00 278.00 414.00" xmlns="http://www.w3.org/2000/svg" xmlns:xlink="http://www.w3.org/1999/xlink">
<g id="graph1" class="graph" transform="scale(1 1) rotate(0) translate(4 410)">
<title>G</title>
<polygon fill="white" stroke="white" points="-4,5 -4,-410 275,-410 275,5 -4,5"/>
<!-- q6 -->
<g id="node1" class="node"><title>q6</title>
<ellipse fill="none" stroke="black" cx="60" cy="-295" rx="27" ry="18.3848"/>
<text text-anchor="middle" x="60" y="-291.4" font-family="Times Roman,serif" font-size="14.00">q6</text>
</g>
<!-- q3 -->
<g id="node3" class="node"><title>q3</title>
<ellipse fill="none" stroke="black" cx="105" cy="-203" rx="27" ry="18.3848"/>
<text text-anchor="middle" x="105" y="-199.4" font-family="Times Roman,serif" font-size="14.00">q3</text>
</g>
<!-- q6&#45;&gt;q3 -->
<g id="edge2" class="edge"><title>q6&#45;&gt;q3</title>
<path fill="none" stroke="black" d="M68.6765,-277.261C75.2753,-263.77 84.4643,-244.984 91.9487,-229.683"/>
<polygon fill="black" stroke="black" points="95.1003,-231.205 96.3502,-220.684 88.8122,-228.129 95.1003,-231.205"/>
<text text-anchor="middle" x="90.5" y="-245.4" font-family="Times Roman,serif" font-size="14.00">b</text>
</g>
<!-- q4 -->
<g id="node5" class="node"><title>q4</title>
<ellipse fill="none" stroke="black" cx="105" cy="-111" rx="27" ry="18.3848"/>
<text text-anchor="middle" x="105" y="-107.4" font-family="Times Roman,serif" font-size="14.00">q4</text>
</g>
<!-- q6&#45;&gt;q4 -->
<g id="edge4" class="edge"><title>q6&#45;&gt;q4</title>
<path fill="none" stroke="black" d="M56.9752,-276.507C53.9974,-254.125 51.0659,-215.519 60,-184 64.9959,-166.375 75.5854,-148.828 85.2372,-135.356"/>
<polygon fill="black" stroke="black" points="88.1993,-137.239 91.3761,-127.131 82.5896,-133.052 88.1993,-137.239"/>
<text text-anchor="middle" x="64.5" y="-199.4" font-family="Times Roman,serif" font-size="14.00">a</text>
</g>
<!-- q3&#45;&gt;q3 -->
<g id="edge22" class="edge"><title>q3&#45;&gt;q3</title>
<path fill="none" stroke="black" d="M129.074,-211.454C140.242,-212.377 150,-209.559 150,-203 150,-198.593 145.595,-195.875 139.317,-194.846"/>
<polygon fill="black" stroke="black" points="139.173,-191.34 129.074,-194.546 138.967,-198.337 139.173,-191.34"/>
<text text-anchor="middle" x="154.5" y="-199.4" font-family="Times Roman,serif" font-size="14.00">b</text>
</g>
<!-- q3&#45;&gt;q4 -->
<g id="edge24" class="edge"><title>q3&#45;&gt;q4</title>
<path fill="none" stroke="black" d="M105,-184.382C105,-171.538 105,-154.216 105,-139.627"/>
<polygon fill="black" stroke="black" points="108.5,-139.59 105,-129.59 101.5,-139.59 108.5,-139.59"/>
<text text-anchor="middle" x="109.5" y="-153.4" font-family="Times Roman,serif" font-size="14.00">a</text>
</g>
<!-- q4&#45;&gt;q4 -->
<g id="edge20" class="edge"><title>q4&#45;&gt;q4</title>
<path fill="none" stroke="black" d="M129.074,-119.454C140.242,-120.377 150,-117.559 150,-111 150,-106.593 145.595,-103.875 139.317,-102.846"/>
<polygon fill="black" stroke="black" points="139.173,-99.3402 129.074,-102.546 138.967,-106.337 139.173,-99.3402"/>
<text text-anchor="middle" x="154.5" y="-107.4" font-family="Times Roman,serif" font-size="14.00">a</text>
</g>
<!-- q0 -->
<g id="node10" class="node"><title>q0</title>
<ellipse fill="none" stroke="black" cx="216" cy="-19" rx="27" ry="18.3848"/>
<text text-anchor="middle" x="216" y="-15.4" font-family="Times Roman,serif" font-size="14.00">q0</text>
</g>
<!-- q4&#45;&gt;q0 -->
<g id="edge18" class="edge"><title>q4&#45;&gt;q0</title>
<path fill="none" stroke="black" d="M122.344,-96.625C140.753,-81.3667 170.018,-57.1108 190.935,-39.7748"/>
<polygon fill="black" stroke="black" points="193.312,-42.3502 198.778,-33.2741 188.845,-36.9607 193.312,-42.3502"/>
<text text-anchor="middle" x="174.5" y="-61.4" font-family="Times Roman,serif" font-size="14.00">b</text>
</g>
<!-- q5 -->
<g id="node6" class="node"><title>q5</title>
<ellipse fill="none" stroke="black" cx="236" cy="-387" rx="27" ry="18.3848"/>
<text text-anchor="middle" x="236" y="-383.4" font-family="Times Roman,serif" font-size="14.00">q5</text>
</g>
<!-- q1 -->
<g id="node8" class="node"><title>q1</title>
<ellipse fill="none" stroke="black" cx="195" cy="-295" rx="27" ry="18.3848"/>
<text text-anchor="middle" x="195" y="-291.4" font-family="Times Roman,serif" font-size="14.00">q1</text>
</g>
<!-- q5&#45;&gt;q1 -->
<g id="edge6" class="edge"><title>q5&#45;&gt;q1</title>
<path fill="none" stroke="black" d="M228.095,-369.261C222.177,-355.983 213.974,-337.576 207.215,-322.41"/>
<polygon fill="black" stroke="black" points="210.288,-320.707 203.021,-312.998 203.895,-323.557 210.288,-320.707"/>
<text text-anchor="middle" x="223.5" y="-337.4" font-family="Times Roman,serif" font-size="14.00">b</text>
</g>
<!-- q5&#45;&gt;q0 -->
<g id="edge8" class="edge"><title>q5&#45;&gt;q0</title>
<path fill="none" stroke="black" d="M241.379,-368.854C246.359,-350.429 253,-320.988 253,-295 253,-295 253,-295 253,-111 253,-87.2506 242.256,-62.3814 232.347,-44.4958"/>
<polygon fill="black" stroke="black" points="235.355,-42.7071 227.302,-35.8223 229.304,-46.2263 235.355,-42.7071"/>
<text text-anchor="middle" x="257.5" y="-199.4" font-family="Times Roman,serif" font-size="14.00">a</text>
</g>
<!-- q1&#45;&gt;q3 -->
<g id="edge14" class="edge"><title>q1&#45;&gt;q3</title>
<path fill="none" stroke="black" d="M179.733,-279.393C165.294,-264.634 143.463,-242.318 127.119,-225.61"/>
<polygon fill="black" stroke="black" points="129.537,-223.077 120.042,-218.376 124.533,-227.972 129.537,-223.077"/>
<text text-anchor="middle" x="162.5" y="-245.4" font-family="Times Roman,serif" font-size="14.00">b</text>
</g>
<!-- q1&#45;&gt;q4 -->
<g id="edge16" class="edge"><title>q1&#45;&gt;q4</title>
<path fill="none" stroke="black" d="M193.18,-276.388C190.353,-253.551 183.519,-214.155 168,-184 158.202,-164.962 142.469,-146.726 129.177,-133.243"/>
<polygon fill="black" stroke="black" points="131.28,-130.401 121.697,-125.883 126.37,-135.391 131.28,-130.401"/>
<text text-anchor="middle" x="186.5" y="-199.4" font-family="Times Roman,serif" font-size="14.00">a</text>
</g>
<!-- q0&#45;&gt;q3 -->
<g id="edge28" class="edge"><title>q0&#45;&gt;q3</title>
<path fill="none" stroke="black" d="M210.084,-37.1279C202.258,-59.815 187.185,-99.4052 168,-130 156.625,-148.14 140.891,-166.375 127.993,-180.083"/>
<polygon fill="black" stroke="black" points="125.181,-177.958 120.781,-187.596 130.231,-182.806 125.181,-177.958"/>
<text text-anchor="middle" x="191.5" y="-107.4" font-family="Times Roman,serif" font-size="14.00">a</text>
</g>
<!-- q0&#45;&gt;q0 -->
<g id="edge26" class="edge"><title>q0&#45;&gt;q0</title>
<path fill="none" stroke="black" d="M240.074,-27.4544C251.242,-28.3767 261,-25.5586 261,-19 261,-14.5934 256.595,-11.8754 250.317,-10.8458"/>
<polygon fill="black" stroke="black" points="250.173,-7.34018 240.074,-10.5456 249.967,-14.3372 250.173,-7.34018"/>
<text text-anchor="middle" x="265.5" y="-15.4" font-family="Times Roman,serif" font-size="14.00">b</text>
</g>
<!-- q2 -->
<g id="node11" class="node"><title>q2</title>
<ellipse fill="none" stroke="black" cx="27" cy="-387" rx="27" ry="18.3848"/>
<text text-anchor="middle" x="27" y="-383.4" font-family="Times Roman,serif" font-size="14.00">q2</text>
</g>
<!-- q2&#45;&gt;q6 -->
<g id="edge12" class="edge"><title>q2&#45;&gt;q6</title>
<path fill="none" stroke="black" d="M33.5197,-368.824C38.2203,-355.719 44.6519,-337.789 49.9995,-322.88"/>
<polygon fill="black" stroke="black" points="53.4119,-323.733 53.4938,-313.138 46.8229,-321.37 53.4119,-323.733"/>
<text text-anchor="middle" x="50.5" y="-337.4" font-family="Times Roman,serif" font-size="14.00">a</text>
</g>
<!-- q2&#45;&gt;q4 -->
<g id="edge10" class="edge"><title>q2&#45;&gt;q4</title>
<path fill="none" stroke="black" d="M26.025,-368.404C25.3026,-353.655 24.3803,-332.515 24,-314 23.6532,-297.115 21.6815,-292.729 24,-276 29.833,-233.912 37.5006,-224.61 50,-184 54.9613,-167.881 52.6026,-162.005 62,-148 66.2254,-141.703 71.7992,-135.847 77.5279,-130.736"/>
<polygon fill="black" stroke="black" points="79.8701,-133.34 85.3237,-124.256 75.3959,-127.956 79.8701,-133.34"/>
<text text-anchor="middle" x="35.5" y="-245.4" font-family="Times Roman,serif" font-size="14.00">b</text>
</g>
</g>
</svg>
