<?xml version="1.0" encoding="UTF-8" standalone="no"?>
<!DOCTYPE svg PUBLIC "-//W3C//DTD SVG 1.1//EN"
 "http://www.w3.org/Graphics/SVG/1.1/DTD/svg11.dtd">
<!-- Generated by graphviz version 2.26.3 (20100126.1600)
 -->
<!-- Title: G Pages: 1 -->
<svg width="200pt" height="330pt"
 viewBox="0.00 0.00 200.00 330.00" xmlns="http://www.w3.org/2000/svg" xmlns:xlink="http://www.w3.org/1999/xlink">
<g id="graph1" class="graph" transform="scale(1 1) rotate(0) translate(4 326)">
<title>G</title>
<polygon fill="white" stroke="white" points="-4,5 -4,-326 197,-326 197,5 -4,5"/>
<!-- q2 -->
<g id="node1" class="node"><title>q2</title>
<ellipse fill="none" stroke="black" cx="36" cy="-303" rx="27" ry="18.3848"/>
<text text-anchor="middle" x="36" y="-299.4" font-family="Times Roman,serif" font-size="14.00">q2</text>
</g>
<!-- q3 -->
<g id="node3" class="node"><title>q3</title>
<ellipse fill="none" stroke="black" cx="27" cy="-19" rx="27" ry="18.3848"/>
<text text-anchor="middle" x="27" y="-15.4" font-family="Times Roman,serif" font-size="14.00">q3</text>
</g>
<!-- q2&#45;&gt;q3 -->
<g id="edge2" class="edge"><title>q2&#45;&gt;q3</title>
<path fill="none" stroke="black" d="M31.454,-284.537C28.0853,-269.862 23.7823,-248.756 22,-230 15.827,-165.038 20.6621,-88.3489 24.1771,-47.6854"/>
<polygon fill="black" stroke="black" points="27.6668,-47.9552 25.0789,-37.6813 20.6951,-47.3266 27.6668,-47.9552"/>
<text text-anchor="middle" x="24.5" y="-153.4" font-family="Times Roman,serif" font-size="14.00">b</text>
</g>
<!-- q4 -->
<g id="node5" class="node"><title>q4</title>
<ellipse fill="none" stroke="black" cx="58" cy="-207" rx="27" ry="18.3848"/>
<text text-anchor="middle" x="58" y="-203.4" font-family="Times Roman,serif" font-size="14.00">q4</text>
</g>
<!-- q2&#45;&gt;q4 -->
<g id="edge4" class="edge"><title>q2&#45;&gt;q4</title>
<path fill="none" stroke="black" d="M34.2694,-284.393C33.7758,-273.607 34.0258,-259.857 37,-248 38.2246,-243.118 40.1164,-238.158 42.2732,-233.454"/>
<polygon fill="black" stroke="black" points="45.5332,-234.765 46.944,-224.264 39.2929,-231.593 45.5332,-234.765"/>
<text text-anchor="middle" x="41.5" y="-253.4" font-family="Times Roman,serif" font-size="14.00">a</text>
</g>
<!-- q3&#45;&gt;q3 -->
<g id="edge14" class="edge"><title>q3&#45;&gt;q3</title>
<path fill="none" stroke="black" d="M53.3466,-23.2957C63.5332,-23.4866 72,-22.0547 72,-19 72,-17.0431 68.5252,-15.7522 63.3495,-15.1273"/>
<polygon fill="black" stroke="black" points="63.4855,-11.63 53.3466,-14.7043 63.1898,-18.6237 63.4855,-11.63"/>
<text text-anchor="middle" x="76.5" y="-15.4" font-family="Times Roman,serif" font-size="14.00">b</text>
</g>
<!-- q3&#45;&gt;q3 -->
<g id="edge16" class="edge"><title>q3&#45;&gt;q3</title>
<path fill="none" stroke="black" d="M45.7031,-32.3594C66.375,-41.2656 90,-36.8125 90,-19 90,-3.9707 73.181,1.54787 55.508,-2.44429"/>
<polygon fill="black" stroke="black" points="54.1259,0.786507 45.7031,-5.64062 56.2955,-5.86879 54.1259,0.786507"/>
<text text-anchor="middle" x="94.5" y="-15.4" font-family="Times Roman,serif" font-size="14.00">a</text>
</g>
<!-- q4&#45;&gt;q2 -->
<g id="edge10" class="edge"><title>q4&#45;&gt;q2</title>
<path fill="none" stroke="black" d="M54.568,-225.403C52.3146,-237.075 49.2006,-252.471 46,-266 45.325,-268.853 44.5861,-271.82 43.8253,-274.778"/>
<polygon fill="black" stroke="black" points="40.3969,-274.052 41.2154,-284.615 47.1629,-275.847 40.3969,-274.052"/>
<text text-anchor="middle" x="53.5" y="-253.4" font-family="Times Roman,serif" font-size="14.00">b</text>
</g>
<!-- q1 -->
<g id="node6" class="node"><title>q1</title>
<ellipse fill="none" stroke="black" cx="67" cy="-111" rx="27" ry="18.3848"/>
<text text-anchor="middle" x="67" y="-107.4" font-family="Times Roman,serif" font-size="14.00">q1</text>
</g>
<!-- q4&#45;&gt;q1 -->
<g id="edge12" class="edge"><title>q4&#45;&gt;q1</title>
<path fill="none" stroke="black" d="M51.2009,-189.054C47.6654,-177.294 44.7043,-161.633 48,-148 48.8834,-144.346 50.1933,-140.648 51.7197,-137.074"/>
<polygon fill="black" stroke="black" points="54.8951,-138.548 56.1216,-128.024 48.6002,-135.486 54.8951,-138.548"/>
<text text-anchor="middle" x="52.5" y="-153.4" font-family="Times Roman,serif" font-size="14.00">a</text>
</g>
<!-- q1&#45;&gt;q3 -->
<g id="edge8" class="edge"><title>q1&#45;&gt;q3</title>
<path fill="none" stroke="black" d="M59.2876,-93.2615C53.5145,-79.9833 45.5112,-61.5758 38.9173,-46.4097"/>
<polygon fill="black" stroke="black" points="42.0223,-44.7731 34.8252,-36.998 35.6028,-47.5642 42.0223,-44.7731"/>
<text text-anchor="middle" x="54.5" y="-61.4" font-family="Times Roman,serif" font-size="14.00">a</text>
</g>
<!-- q1&#45;&gt;q4 -->
<g id="edge6" class="edge"><title>q1&#45;&gt;q4</title>
<path fill="none" stroke="black" d="M65.2393,-129.78C63.9463,-143.573 62.1663,-162.56 60.6949,-178.255"/>
<polygon fill="black" stroke="black" points="57.1841,-178.207 59.7353,-188.49 64.1535,-178.861 57.1841,-178.207"/>
<text text-anchor="middle" x="67.5" y="-153.4" font-family="Times Roman,serif" font-size="14.00">b</text>
</g>
<!-- q0 -->
<g id="node13" class="node"><title>q0</title>
<ellipse fill="none" stroke="black" cx="134" cy="-207" rx="27" ry="18.3848"/>
<ellipse fill="none" stroke="black" cx="134" cy="-207" rx="31" ry="22.3848"/>
<text text-anchor="middle" x="134" y="-203.4" font-family="Times Roman,serif" font-size="14.00">q0</text>
</g>
<!-- q0&#45;&gt;q1 -->
<g id="edge18" class="edge"><title>q0&#45;&gt;q1</title>
<path fill="none" stroke="black" d="M119.791,-186.641C109.484,-171.873 95.4824,-151.811 84.4885,-136.058"/>
<polygon fill="black" stroke="black" points="87.3261,-134.008 78.7328,-127.811 81.5859,-138.015 87.3261,-134.008"/>
<text text-anchor="middle" x="108.5" y="-153.4" font-family="Times Roman,serif" font-size="14.00">b</text>
</g>
<!-- q0&#45;&gt;q0 -->
<g id="edge20" class="edge"><title>q0&#45;&gt;q0</title>
<path fill="none" stroke="black" d="M162.689,-216.338C173.781,-216.753 183,-213.641 183,-207 183,-202.538 178.838,-199.669 172.743,-198.393"/>
<polygon fill="black" stroke="black" points="172.916,-194.896 162.689,-197.662 172.408,-201.878 172.916,-194.896"/>
<text text-anchor="middle" x="187.5" y="-203.4" font-family="Times Roman,serif" font-size="14.00">a</text>
</g>
</g>
</svg>
