<?xml version="1.0" encoding="UTF-8" standalone="no"?>
<!DOCTYPE svg PUBLIC "-//W3C//DTD SVG 1.1//EN"
 "http://www.w3.org/Graphics/SVG/1.1/DTD/svg11.dtd">
<!-- Generated by graphviz version 2.26.3 (20100126.1600)
 -->
<!-- Title: G Pages: 1 -->
<svg width="208pt" height="434pt"
 viewBox="0.00 0.00 208.00 434.00" xmlns="http://www.w3.org/2000/svg" xmlns:xlink="http://www.w3.org/1999/xlink">
<g id="graph1" class="graph" transform="scale(1 1) rotate(0) translate(4 430)">
<title>G</title>
<polygon fill="white" stroke="white" points="-4,5 -4,-430 205,-430 205,5 -4,5"/>
<!-- q6 -->
<g id="node1" class="node"><title>q6</title>
<ellipse fill="none" stroke="black" cx="42" cy="-407" rx="27" ry="18.3848"/>
<text text-anchor="middle" x="42" y="-403.4" font-family="Times Roman,serif" font-size="14.00">q6</text>
</g>
<!-- q2 -->
<g id="node3" class="node"><title>q2</title>
<ellipse fill="none" stroke="black" cx="42" cy="-259" rx="27" ry="18.3848"/>
<text text-anchor="middle" x="42" y="-255.4" font-family="Times Roman,serif" font-size="14.00">q2</text>
</g>
<!-- q6&#45;&gt;q2 -->
<g id="edge2" class="edge"><title>q6&#45;&gt;q2</title>
<path fill="none" stroke="black" d="M42,-388.256C42,-362.901 42,-317.439 42,-287.75"/>
<polygon fill="black" stroke="black" points="45.5001,-287.592 42,-277.592 38.5001,-287.592 45.5001,-287.592"/>
<text text-anchor="middle" x="46.5" y="-357.4" font-family="Times Roman,serif" font-size="14.00">b</text>
</g>
<!-- q5 -->
<g id="node5" class="node"><title>q5</title>
<ellipse fill="none" stroke="black" cx="109" cy="-315" rx="27" ry="18.3848"/>
<text text-anchor="middle" x="109" y="-311.4" font-family="Times Roman,serif" font-size="14.00">q5</text>
</g>
<!-- q6&#45;&gt;q5 -->
<g id="edge4" class="edge"><title>q6&#45;&gt;q5</title>
<path fill="none" stroke="black" d="M54.2888,-390.126C64.4889,-376.12 79.1458,-355.994 90.7224,-340.098"/>
<polygon fill="black" stroke="black" points="93.7313,-341.911 96.7891,-331.767 88.0728,-337.79 93.7313,-341.911"/>
<text text-anchor="middle" x="85.5" y="-357.4" font-family="Times Roman,serif" font-size="14.00">a</text>
</g>
<!-- q2&#45;&gt;q2 -->
<g id="edge12" class="edge"><title>q2&#45;&gt;q2</title>
<path fill="none" stroke="black" d="M64.6909,-269.131C76.4238,-270.689 87,-267.312 87,-259 87,-253.285 82.0011,-249.903 75.0642,-248.854"/>
<polygon fill="black" stroke="black" points="74.6857,-245.354 64.6909,-248.869 74.696,-252.354 74.6857,-245.354"/>
<text text-anchor="middle" x="91.5" y="-255.4" font-family="Times Roman,serif" font-size="14.00">a</text>
</g>
<!-- q1 -->
<g id="node10" class="node"><title>q1</title>
<ellipse fill="none" stroke="black" cx="87" cy="-111" rx="27" ry="18.3848"/>
<text text-anchor="middle" x="87" y="-107.4" font-family="Times Roman,serif" font-size="14.00">q1</text>
</g>
<!-- q2&#45;&gt;q1 -->
<g id="edge10" class="edge"><title>q2&#45;&gt;q1</title>
<path fill="none" stroke="black" d="M47.5179,-240.852C55.2437,-215.443 69.356,-169.029 78.4488,-139.124"/>
<polygon fill="black" stroke="black" points="81.8765,-139.882 81.437,-129.296 75.1792,-137.845 81.8765,-139.882"/>
<text text-anchor="middle" x="68.5" y="-199.4" font-family="Times Roman,serif" font-size="14.00">b</text>
</g>
<!-- q5&#45;&gt;q5 -->
<g id="edge8" class="edge"><title>q5&#45;&gt;q5</title>
<path fill="none" stroke="black" d="M133.074,-323.454C144.242,-324.377 154,-321.559 154,-315 154,-310.593 149.595,-307.875 143.317,-306.846"/>
<polygon fill="black" stroke="black" points="143.173,-303.34 133.074,-306.546 142.967,-310.337 143.173,-303.34"/>
<text text-anchor="middle" x="158.5" y="-311.4" font-family="Times Roman,serif" font-size="14.00">a</text>
</g>
<!-- q4 -->
<g id="node7" class="node"><title>q4</title>
<ellipse fill="none" stroke="black" cx="119" cy="-203" rx="27" ry="18.3848"/>
<text text-anchor="middle" x="119" y="-199.4" font-family="Times Roman,serif" font-size="14.00">q4</text>
</g>
<!-- q5&#45;&gt;q4 -->
<g id="edge6" class="edge"><title>q5&#45;&gt;q4</title>
<path fill="none" stroke="black" d="M120.446,-298.043C123.903,-291.986 127.245,-284.937 129,-278 132.889,-262.629 130.887,-245.079 127.686,-230.823"/>
<polygon fill="black" stroke="black" points="131.07,-229.929 125.209,-221.102 124.286,-231.657 131.07,-229.929"/>
<text text-anchor="middle" x="135.5" y="-255.4" font-family="Times Roman,serif" font-size="14.00">b</text>
</g>
<!-- q4&#45;&gt;q5 -->
<g id="edge20" class="edge"><title>q4&#45;&gt;q5</title>
<path fill="none" stroke="black" d="M117.346,-221.522C115.768,-239.203 113.366,-266.098 111.544,-286.507"/>
<polygon fill="black" stroke="black" points="108.055,-286.234 110.651,-296.505 115.027,-286.856 108.055,-286.234"/>
<text text-anchor="middle" x="119.5" y="-255.4" font-family="Times Roman,serif" font-size="14.00">a</text>
</g>
<!-- q4&#45;&gt;q1 -->
<g id="edge18" class="edge"><title>q4&#45;&gt;q1</title>
<path fill="none" stroke="black" d="M112.678,-184.824C108.12,-171.719 101.883,-153.789 96.6975,-138.88"/>
<polygon fill="black" stroke="black" points="99.9,-137.434 93.309,-129.138 93.2886,-139.733 99.9,-137.434"/>
<text text-anchor="middle" x="109.5" y="-153.4" font-family="Times Roman,serif" font-size="14.00">b</text>
</g>
<!-- q1&#45;&gt;q1 -->
<g id="edge14" class="edge"><title>q1&#45;&gt;q1</title>
<path fill="none" stroke="black" d="M111.074,-119.454C122.242,-120.377 132,-117.559 132,-111 132,-106.593 127.595,-103.875 121.317,-102.846"/>
<polygon fill="black" stroke="black" points="121.173,-99.3402 111.074,-102.546 120.967,-106.337 121.173,-99.3402"/>
<text text-anchor="middle" x="136.5" y="-107.4" font-family="Times Roman,serif" font-size="14.00">b</text>
</g>
<!-- q3 -->
<g id="node14" class="node"><title>q3</title>
<ellipse fill="none" stroke="black" cx="71" cy="-19" rx="27" ry="18.3848"/>
<text text-anchor="middle" x="71" y="-15.4" font-family="Times Roman,serif" font-size="14.00">q3</text>
</g>
<!-- q1&#45;&gt;q3 -->
<g id="edge16" class="edge"><title>q1&#45;&gt;q3</title>
<path fill="none" stroke="black" d="M70.3411,-96.0207C64.6524,-89.8332 58.9778,-82.1909 56,-74 52.7219,-64.9831 54.0772,-54.9088 57.0269,-45.8707"/>
<polygon fill="black" stroke="black" points="60.2825,-47.1554 60.7096,-36.5692 53.7741,-44.5785 60.2825,-47.1554"/>
<text text-anchor="middle" x="60.5" y="-61.4" font-family="Times Roman,serif" font-size="14.00">a</text>
</g>
<!-- q3&#45;&gt;q6 -->
<g id="edge24" class="edge"><title>q3&#45;&gt;q6</title>
<path fill="none" stroke="black" d="M51.5989,-32.1239C30.5771,-48.0762 0,-77.1051 0,-111 0,-315 0,-315 0,-315 0,-339.222 12.1964,-364.054 23.4445,-381.805"/>
<polygon fill="black" stroke="black" points="20.7138,-384.019 29.1704,-390.402 26.5397,-380.139 20.7138,-384.019"/>
<text text-anchor="middle" x="4.5" y="-199.4" font-family="Times Roman,serif" font-size="14.00">a</text>
</g>
<!-- q3&#45;&gt;q1 -->
<g id="edge22" class="edge"><title>q3&#45;&gt;q1</title>
<path fill="none" stroke="black" d="M74.233,-37.5899C76.4657,-50.4275 79.478,-67.7485 82.0159,-82.3416"/>
<polygon fill="black" stroke="black" points="78.6004,-83.13 83.7622,-92.3824 85.4969,-81.9306 78.6004,-83.13"/>
<text text-anchor="middle" x="84.5" y="-61.4" font-family="Times Roman,serif" font-size="14.00">b</text>
</g>
<!-- q0 -->
<g id="node19" class="node"><title>q0</title>
<ellipse fill="none" stroke="black" cx="136" cy="-407" rx="27" ry="18.3848"/>
<text text-anchor="middle" x="136" y="-403.4" font-family="Times Roman,serif" font-size="14.00">q0</text>
</g>
<!-- q0&#45;&gt;q5 -->
<g id="edge28" class="edge"><title>q0&#45;&gt;q5</title>
<path fill="none" stroke="black" d="M130.666,-388.824C126.82,-375.719 121.558,-357.789 117.182,-342.88"/>
<polygon fill="black" stroke="black" points="120.498,-341.748 114.323,-333.138 113.781,-343.719 120.498,-341.748"/>
<text text-anchor="middle" x="128.5" y="-357.4" font-family="Times Roman,serif" font-size="14.00">a</text>
</g>
<!-- q0&#45;&gt;q3 -->
<g id="edge26" class="edge"><title>q0&#45;&gt;q3</title>
<path fill="none" stroke="black" d="M151.908,-392.029C168.152,-375.048 191,-345.705 191,-315 191,-315 191,-315 191,-111 191,-67.6882 141.157,-41.9908 105.717,-29.1934"/>
<polygon fill="black" stroke="black" points="106.751,-25.848 96.1559,-25.922 104.484,-32.471 106.751,-25.848"/>
<text text-anchor="middle" x="195.5" y="-199.4" font-family="Times Roman,serif" font-size="14.00">b</text>
</g>
</g>
</svg>
