<?xml version="1.0" encoding="UTF-8" standalone="no"?>
<!DOCTYPE svg PUBLIC "-//W3C//DTD SVG 1.1//EN"
 "http://www.w3.org/Graphics/SVG/1.1/DTD/svg11.dtd">
<!-- Generated by graphviz version 2.26.3 (20100126.1600)
 -->
<!-- Title: G Pages: 1 -->
<svg width="280pt" height="510pt"
 viewBox="0.00 0.00 280.00 510.00" xmlns="http://www.w3.org/2000/svg" xmlns:xlink="http://www.w3.org/1999/xlink">
<g id="graph1" class="graph" transform="scale(1 1) rotate(0) translate(4 506)">
<title>G</title>
<polygon fill="white" stroke="white" points="-4,5 -4,-506 277,-506 277,5 -4,5"/>
<!-- q6 -->
<g id="node1" class="node"><title>q6</title>
<ellipse fill="none" stroke="black" cx="31" cy="-480" rx="27" ry="18"/>
<ellipse fill="none" stroke="black" cx="31" cy="-480" rx="31" ry="22"/>
<text text-anchor="middle" x="31" y="-475.9" font-family="Times Roman,serif" font-size="14.00">q6</text>
</g>
<!-- q6&#45;&gt;q6 -->
<g id="edge2" class="edge"><title>q6&#45;&gt;q6</title>
<path fill="none" stroke="black" d="M59.6885,-488.965C70.7806,-489.363 80,-486.375 80,-480 80,-475.717 75.8382,-472.962 69.7429,-471.737"/>
<polygon fill="black" stroke="black" points="69.9079,-468.24 59.6885,-471.035 69.4205,-475.223 69.9079,-468.24"/>
<text text-anchor="middle" x="84.5" y="-475.9" font-family="Times Roman,serif" font-size="14.00">b</text>
</g>
<!-- q4 -->
<g id="node4" class="node"><title>q4</title>
<ellipse fill="none" stroke="black" cx="95" cy="-386" rx="27" ry="18"/>
<text text-anchor="middle" x="95" y="-381.9" font-family="Times Roman,serif" font-size="14.00">q4</text>
</g>
<!-- q6&#45;&gt;q4 -->
<g id="edge4" class="edge"><title>q6&#45;&gt;q4</title>
<path fill="none" stroke="black" d="M44.5728,-460.065C54.3267,-445.739 67.5456,-426.324 78.0022,-410.966"/>
<polygon fill="black" stroke="black" points="81.0577,-412.697 83.7926,-402.461 75.2715,-408.757 81.0577,-412.697"/>
<text text-anchor="middle" x="72.5" y="-426.9" font-family="Times Roman,serif" font-size="14.00">a</text>
</g>
<!-- q3 -->
<g id="node9" class="node"><title>q3</title>
<ellipse fill="none" stroke="black" cx="125" cy="-296" rx="27" ry="18"/>
<text text-anchor="middle" x="125" y="-291.9" font-family="Times Roman,serif" font-size="14.00">q3</text>
</g>
<!-- q4&#45;&gt;q3 -->
<g id="edge20" class="edge"><title>q4&#45;&gt;q3</title>
<path fill="none" stroke="black" d="M100.927,-368.219C105.2,-355.399 111.047,-337.858 115.909,-323.274"/>
<polygon fill="black" stroke="black" points="119.243,-324.338 119.085,-313.744 112.603,-322.124 119.243,-324.338"/>
<text text-anchor="middle" x="116.5" y="-336.9" font-family="Times Roman,serif" font-size="14.00">a</text>
</g>
<!-- q2 -->
<g id="node10" class="node"><title>q2</title>
<ellipse fill="none" stroke="black" cx="136" cy="-206" rx="27" ry="18"/>
<text text-anchor="middle" x="136" y="-201.9" font-family="Times Roman,serif" font-size="14.00">q2</text>
</g>
<!-- q4&#45;&gt;q2 -->
<g id="edge18" class="edge"><title>q4&#45;&gt;q2</title>
<path fill="none" stroke="black" d="M87.6627,-368.314C79.7165,-346.52 69.4947,-308.618 80,-278 86.5301,-258.968 100.374,-241.091 112.662,-227.911"/>
<polygon fill="black" stroke="black" points="115.191,-230.332 119.65,-220.721 110.171,-225.453 115.191,-230.332"/>
<text text-anchor="middle" x="84.5" y="-291.9" font-family="Times Roman,serif" font-size="14.00">b</text>
</g>
<!-- q5 -->
<g id="node5" class="node"><title>q5</title>
<ellipse fill="none" stroke="black" cx="136" cy="-116" rx="27" ry="18"/>
<text text-anchor="middle" x="136" y="-111.9" font-family="Times Roman,serif" font-size="14.00">q5</text>
</g>
<!-- q1 -->
<g id="node7" class="node"><title>q1</title>
<ellipse fill="none" stroke="black" cx="103" cy="-22" rx="27" ry="18"/>
<ellipse fill="none" stroke="black" cx="103" cy="-22" rx="31" ry="22"/>
<text text-anchor="middle" x="103" y="-17.9" font-family="Times Roman,serif" font-size="14.00">q1</text>
</g>
<!-- q5&#45;&gt;q1 -->
<g id="edge6" class="edge"><title>q5&#45;&gt;q1</title>
<path fill="none" stroke="black" d="M129.793,-98.3193C125.321,-85.5804 119.169,-68.057 113.888,-53.0139"/>
<polygon fill="black" stroke="black" points="117.184,-51.8379 110.57,-43.5618 110.58,-54.1566 117.184,-51.8379"/>
<text text-anchor="middle" x="126.5" y="-66.9" font-family="Times Roman,serif" font-size="14.00">b</text>
</g>
<!-- q5&#45;&gt;q3 -->
<g id="edge8" class="edge"><title>q5&#45;&gt;q3</title>
<path fill="none" stroke="black" d="M153.772,-129.719C177.291,-149.665 214.115,-188.205 199,-224 189.678,-246.077 169.91,-264.732 153.149,-277.518"/>
<polygon fill="black" stroke="black" points="150.748,-274.937 144.729,-283.657 154.872,-280.594 150.748,-274.937"/>
<text text-anchor="middle" x="206.5" y="-201.9" font-family="Times Roman,serif" font-size="14.00">a</text>
</g>
<!-- q1&#45;&gt;q6 -->
<g id="edge14" class="edge"><title>q1&#45;&gt;q6</title>
<path fill="none" stroke="black" d="M78.8408,-35.9339C54.6528,-51.8951 21,-80.4838 21,-116 21,-386 21,-386 21,-386 21,-406.716 23.4312,-429.856 25.8961,-447.994"/>
<polygon fill="black" stroke="black" points="22.4521,-448.635 27.3332,-458.038 29.3816,-447.644 22.4521,-448.635"/>
<text text-anchor="middle" x="25.5" y="-246.9" font-family="Times Roman,serif" font-size="14.00">b</text>
</g>
<!-- q1&#45;&gt;q3 -->
<g id="edge16" class="edge"><title>q1&#45;&gt;q3</title>
<path fill="none" stroke="black" d="M100.086,-44.0185C95.7203,-81.3528 89.0914,-159.326 100,-224 102.596,-239.388 108.106,-255.879 113.294,-269.191"/>
<polygon fill="black" stroke="black" points="110.141,-270.73 117.145,-278.68 116.627,-268.097 110.141,-270.73"/>
<text text-anchor="middle" x="98.5" y="-156.9" font-family="Times Roman,serif" font-size="14.00">a</text>
</g>
<!-- q3&#45;&gt;q2 -->
<g id="edge22" class="edge"><title>q3&#45;&gt;q2</title>
<path fill="none" stroke="black" d="M124.202,-277.907C124.019,-267.377 124.269,-253.877 126,-242 126.398,-239.266 126.941,-236.445 127.569,-233.642"/>
<polygon fill="black" stroke="black" points="131.011,-234.311 130.111,-223.755 124.231,-232.568 131.011,-234.311"/>
<text text-anchor="middle" x="130.5" y="-246.9" font-family="Times Roman,serif" font-size="14.00">b</text>
</g>
<!-- q3&#45;&gt;q2 -->
<g id="edge24" class="edge"><title>q3&#45;&gt;q2</title>
<path fill="none" stroke="black" d="M130.889,-278.245C132.539,-272.49 134.121,-266.034 135,-260 136.217,-251.649 136.702,-242.496 136.819,-234.137"/>
<polygon fill="black" stroke="black" points="140.319,-234.085 136.798,-224.093 133.319,-234.1 140.319,-234.085"/>
<text text-anchor="middle" x="140.5" y="-246.9" font-family="Times Roman,serif" font-size="14.00">a</text>
</g>
<!-- q2&#45;&gt;q5 -->
<g id="edge12" class="edge"><title>q2&#45;&gt;q5</title>
<path fill="none" stroke="black" d="M136,-187.787C136,-175.344 136,-158.605 136,-144.421"/>
<polygon fill="black" stroke="black" points="139.5,-144.186 136,-134.186 132.5,-144.186 139.5,-144.186"/>
<text text-anchor="middle" x="140.5" y="-156.9" font-family="Times Roman,serif" font-size="14.00">a</text>
</g>
<!-- q2&#45;&gt;q2 -->
<g id="edge10" class="edge"><title>q2&#45;&gt;q2</title>
<path fill="none" stroke="black" d="M160.532,-214.121C171.508,-214.895 181,-212.188 181,-206 181,-201.843 176.715,-199.257 170.574,-198.242"/>
<polygon fill="black" stroke="black" points="170.652,-194.742 160.532,-197.879 170.4,-201.738 170.652,-194.742"/>
<text text-anchor="middle" x="185.5" y="-201.9" font-family="Times Roman,serif" font-size="14.00">b</text>
</g>
<!-- q0 -->
<g id="node19" class="node"><title>q0</title>
<ellipse fill="none" stroke="black" cx="143" cy="-480" rx="27" ry="18"/>
<ellipse fill="none" stroke="black" cx="143" cy="-480" rx="31" ry="22"/>
<text text-anchor="middle" x="143" y="-475.9" font-family="Times Roman,serif" font-size="14.00">q0</text>
</g>
<!-- q0&#45;&gt;q4 -->
<g id="edge28" class="edge"><title>q0&#45;&gt;q4</title>
<path fill="none" stroke="black" d="M132.347,-459.138C125.324,-445.384 116.064,-427.25 108.522,-412.481"/>
<polygon fill="black" stroke="black" points="111.52,-410.655 103.855,-403.34 105.285,-413.838 111.52,-410.655"/>
<text text-anchor="middle" x="125.5" y="-426.9" font-family="Times Roman,serif" font-size="14.00">a</text>
</g>
<!-- q0&#45;&gt;q1 -->
<g id="edge26" class="edge"><title>q0&#45;&gt;q1</title>
<path fill="none" stroke="black" d="M171.743,-471.526C207.244,-459.079 263,-432.18 263,-386 263,-386 263,-386 263,-116 263,-60.7732 191.258,-37.3596 143.854,-27.9169"/>
<polygon fill="black" stroke="black" points="144.321,-24.4439 133.85,-26.0569 143.041,-31.326 144.321,-24.4439"/>
<text text-anchor="middle" x="267.5" y="-246.9" font-family="Times Roman,serif" font-size="14.00">b</text>
</g>
</g>
</svg>
