<?xml version="1.0" encoding="UTF-8" standalone="no"?>
<!DOCTYPE svg PUBLIC "-//W3C//DTD SVG 1.1//EN"
 "http://www.w3.org/Graphics/SVG/1.1/DTD/svg11.dtd">
<!-- Generated by graphviz version 2.26.3 (20100126.1600)
 -->
<!-- Title: G Pages: 1 -->
<svg width="182pt" height="230pt"
 viewBox="0.00 0.00 182.17 230.00" xmlns="http://www.w3.org/2000/svg" xmlns:xlink="http://www.w3.org/1999/xlink">
<g id="graph1" class="graph" transform="scale(1 1) rotate(0) translate(4 226)">
<title>G</title>
<polygon fill="white" stroke="white" points="-4,5 -4,-226 179.17,-226 179.17,5 -4,5"/>
<!-- q2 -->
<g id="node1" class="node"><title>q2</title>
<ellipse fill="none" stroke="black" cx="27.1702" cy="-203" rx="27" ry="18.3848"/>
<text text-anchor="middle" x="27.1702" y="-199.4" font-family="Times Roman,serif" font-size="14.00">q2</text>
</g>
<!-- q3 -->
<g id="node3" class="node"><title>q3</title>
<ellipse fill="none" stroke="black" cx="48.1702" cy="-19" rx="27" ry="18.3848"/>
<text text-anchor="middle" x="48.1702" y="-15.4" font-family="Times Roman,serif" font-size="14.00">q3</text>
</g>
<!-- q2&#45;&gt;q3 -->
<g id="edge2" class="edge"><title>q2&#45;&gt;q3</title>
<path fill="none" stroke="black" d="M18.1269,-185.528C7.93515,-163.518 -6.07787,-124.626 3.17023,-92 8.16611,-74.375 18.7556,-56.8281 28.4074,-43.356"/>
<polygon fill="black" stroke="black" points="31.3695,-45.2388 34.5464,-35.1315 25.7599,-41.0517 31.3695,-45.2388"/>
<text text-anchor="middle" x="7.67023" y="-107.4" font-family="Times Roman,serif" font-size="14.00">b</text>
</g>
<!-- q4 -->
<g id="node5" class="node"><title>q4</title>
<ellipse fill="none" stroke="black" cx="48.1702" cy="-111" rx="27" ry="18.3848"/>
<text text-anchor="middle" x="48.1702" y="-107.4" font-family="Times Roman,serif" font-size="14.00">q4</text>
</g>
<!-- q2&#45;&gt;q4 -->
<g id="edge4" class="edge"><title>q2&#45;&gt;q4</title>
<path fill="none" stroke="black" d="M25.3411,-184.367C24.8147,-173.573 25.0647,-159.823 28.1702,-148 29.136,-144.323 30.5362,-140.611 32.1541,-137.031"/>
<polygon fill="black" stroke="black" points="35.3491,-138.471 36.7965,-127.976 29.1199,-135.278 35.3491,-138.471"/>
<text text-anchor="middle" x="32.6702" y="-153.4" font-family="Times Roman,serif" font-size="14.00">a</text>
</g>
<!-- q3&#45;&gt;q3 -->
<g id="edge10" class="edge"><title>q3&#45;&gt;q3</title>
<path fill="none" stroke="black" d="M74.5168,-23.2957C84.7034,-23.4866 93.1702,-22.0547 93.1702,-19 93.1702,-17.0431 89.6955,-15.7522 84.5198,-15.1273"/>
<polygon fill="black" stroke="black" points="84.6558,-11.63 74.5168,-14.7043 84.36,-18.6237 84.6558,-11.63"/>
<text text-anchor="middle" x="97.6702" y="-15.4" font-family="Times Roman,serif" font-size="14.00">b</text>
</g>
<!-- q3&#45;&gt;q3 -->
<g id="edge12" class="edge"><title>q3&#45;&gt;q3</title>
<path fill="none" stroke="black" d="M66.8734,-32.3594C87.5452,-41.2656 111.17,-36.8125 111.17,-19 111.17,-3.9707 94.3513,1.54787 76.6782,-2.44429"/>
<polygon fill="black" stroke="black" points="75.2961,0.786507 66.8734,-5.64062 77.4657,-5.86879 75.2961,0.786507"/>
<text text-anchor="middle" x="115.67" y="-15.4" font-family="Times Roman,serif" font-size="14.00">a</text>
</g>
<!-- q4&#45;&gt;q2 -->
<g id="edge6" class="edge"><title>q4&#45;&gt;q2</title>
<path fill="none" stroke="black" d="M44.8076,-129.399C42.7701,-140.116 40.0201,-153.866 37.1702,-166 36.4999,-168.854 35.764,-171.822 35.0051,-174.78"/>
<polygon fill="black" stroke="black" points="31.5766,-174.055 32.3975,-184.618 38.3429,-175.848 31.5766,-174.055"/>
<text text-anchor="middle" x="44.6702" y="-153.4" font-family="Times Roman,serif" font-size="14.00">b</text>
</g>
<!-- q4&#45;&gt;q3 -->
<g id="edge8" class="edge"><title>q4&#45;&gt;q3</title>
<path fill="none" stroke="black" d="M48.1702,-92.3824C48.1702,-79.5383 48.1702,-62.2161 48.1702,-47.6269"/>
<polygon fill="black" stroke="black" points="51.6703,-47.5898 48.1702,-37.5899 44.6703,-47.5899 51.6703,-47.5898"/>
<text text-anchor="middle" x="52.6702" y="-61.4" font-family="Times Roman,serif" font-size="14.00">a</text>
</g>
<!-- q0 -->
<g id="node10" class="node"><title>q0</title>
<ellipse fill="none" stroke="black" cx="120.17" cy="-111" rx="27" ry="18.3848"/>
<text text-anchor="middle" x="120.17" y="-107.4" font-family="Times Roman,serif" font-size="14.00">q0</text>
</g>
<!-- q0&#45;&gt;q3 -->
<g id="edge14" class="edge"><title>q0&#45;&gt;q3</title>
<path fill="none" stroke="black" d="M107.298,-94.5522C96.138,-80.2922 79.8356,-59.4613 67.1739,-43.2824"/>
<polygon fill="black" stroke="black" points="69.8503,-41.0233 60.9309,-35.3054 64.3378,-45.3375 69.8503,-41.0233"/>
<text text-anchor="middle" x="94.6702" y="-61.4" font-family="Times Roman,serif" font-size="14.00">b</text>
</g>
<!-- q0&#45;&gt;q0 -->
<g id="edge16" class="edge"><title>q0&#45;&gt;q0</title>
<path fill="none" stroke="black" d="M144.245,-119.454C155.413,-120.377 165.17,-117.559 165.17,-111 165.17,-106.593 160.765,-103.875 154.488,-102.846"/>
<polygon fill="black" stroke="black" points="154.343,-99.3402 144.245,-102.546 154.138,-106.337 154.343,-99.3402"/>
<text text-anchor="middle" x="169.67" y="-107.4" font-family="Times Roman,serif" font-size="14.00">a</text>
</g>
</g>
</svg>
