<?xml version="1.0" encoding="UTF-8" standalone="no"?>
<!DOCTYPE svg PUBLIC "-//W3C//DTD SVG 1.1//EN"
 "http://www.w3.org/Graphics/SVG/1.1/DTD/svg11.dtd">
<!-- Generated by graphviz version 2.26.3 (20100126.1600)
 -->
<!-- Title: G Pages: 1 -->
<svg width="207pt" height="598pt"
 viewBox="0.00 0.00 207.00 598.00" xmlns="http://www.w3.org/2000/svg" xmlns:xlink="http://www.w3.org/1999/xlink">
<g id="graph1" class="graph" transform="scale(1 1) rotate(0) translate(4 594)">
<title>G</title>
<polygon fill="white" stroke="white" points="-4,5 -4,-594 204,-594 204,5 -4,5"/>
<!-- q6 -->
<g id="node1" class="node"><title>q6</title>
<ellipse fill="none" stroke="black" cx="127" cy="-571" rx="27" ry="18.3848"/>
<text text-anchor="middle" x="127" y="-567.4" font-family="Times Roman,serif" font-size="14.00">q6</text>
</g>
<!-- q2 -->
<g id="node3" class="node"><title>q2</title>
<ellipse fill="none" stroke="black" cx="45" cy="-479" rx="27" ry="18.3848"/>
<text text-anchor="middle" x="45" y="-475.4" font-family="Times Roman,serif" font-size="14.00">q2</text>
</g>
<!-- q6&#45;&gt;q2 -->
<g id="edge2" class="edge"><title>q6&#45;&gt;q2</title>
<path fill="none" stroke="black" d="M112.717,-554.975C99.7826,-540.463 80.5656,-518.903 65.9038,-502.453"/>
<polygon fill="black" stroke="black" points="68.3862,-499.978 59.1196,-494.842 63.1606,-504.636 68.3862,-499.978"/>
<text text-anchor="middle" x="98.5" y="-521.4" font-family="Times Roman,serif" font-size="14.00">b</text>
</g>
<!-- q5 -->
<g id="node5" class="node"><title>q5</title>
<ellipse fill="none" stroke="black" cx="100" cy="-295" rx="27" ry="18.3848"/>
<text text-anchor="middle" x="100" y="-291.4" font-family="Times Roman,serif" font-size="14.00">q5</text>
</g>
<!-- q6&#45;&gt;q5 -->
<g id="edge4" class="edge"><title>q6&#45;&gt;q5</title>
<path fill="none" stroke="black" d="M125.187,-552.462C120.577,-505.34 108.383,-380.696 102.829,-323.914"/>
<polygon fill="black" stroke="black" points="106.298,-323.432 101.841,-313.82 99.3315,-324.114 106.298,-323.432"/>
<text text-anchor="middle" x="118.5" y="-429.4" font-family="Times Roman,serif" font-size="14.00">a</text>
</g>
<!-- q2&#45;&gt;q2 -->
<g id="edge12" class="edge"><title>q2&#45;&gt;q2</title>
<path fill="none" stroke="black" d="M69.0743,-487.454C80.2423,-488.377 90,-485.559 90,-479 90,-474.593 85.5952,-471.875 79.3174,-470.846"/>
<polygon fill="black" stroke="black" points="79.1726,-467.34 69.0743,-470.546 78.9674,-474.337 79.1726,-467.34"/>
<text text-anchor="middle" x="94.5" y="-475.4" font-family="Times Roman,serif" font-size="14.00">a</text>
</g>
<!-- q0 -->
<g id="node10" class="node"><title>q0</title>
<ellipse fill="none" stroke="black" cx="45" cy="-387" rx="27" ry="18.3848"/>
<text text-anchor="middle" x="45" y="-383.4" font-family="Times Roman,serif" font-size="14.00">q0</text>
</g>
<!-- q2&#45;&gt;q0 -->
<g id="edge10" class="edge"><title>q2&#45;&gt;q0</title>
<path fill="none" stroke="black" d="M45,-460.382C45,-447.538 45,-430.216 45,-415.627"/>
<polygon fill="black" stroke="black" points="48.5001,-415.59 45,-405.59 41.5001,-415.59 48.5001,-415.59"/>
<text text-anchor="middle" x="49.5" y="-429.4" font-family="Times Roman,serif" font-size="14.00">b</text>
</g>
<!-- q5&#45;&gt;q5 -->
<g id="edge8" class="edge"><title>q5&#45;&gt;q5</title>
<path fill="none" stroke="black" d="M124.074,-303.454C135.242,-304.377 145,-301.559 145,-295 145,-290.593 140.595,-287.875 134.317,-286.846"/>
<polygon fill="black" stroke="black" points="134.173,-283.34 124.074,-286.546 133.967,-290.337 134.173,-283.34"/>
<text text-anchor="middle" x="149.5" y="-291.4" font-family="Times Roman,serif" font-size="14.00">a</text>
</g>
<!-- q4 -->
<g id="node7" class="node"><title>q4</title>
<ellipse fill="none" stroke="black" cx="100" cy="-203" rx="27" ry="18.3848"/>
<text text-anchor="middle" x="100" y="-199.4" font-family="Times Roman,serif" font-size="14.00">q4</text>
</g>
<!-- q5&#45;&gt;q4 -->
<g id="edge6" class="edge"><title>q5&#45;&gt;q4</title>
<path fill="none" stroke="black" d="M100,-276.382C100,-263.538 100,-246.216 100,-231.627"/>
<polygon fill="black" stroke="black" points="103.5,-231.59 100,-221.59 96.5001,-231.59 103.5,-231.59"/>
<text text-anchor="middle" x="104.5" y="-245.4" font-family="Times Roman,serif" font-size="14.00">b</text>
</g>
<!-- q4&#45;&gt;q5 -->
<g id="edge20" class="edge"><title>q4&#45;&gt;q5</title>
<path fill="none" stroke="black" d="M94.0435,-221.249C92.39,-227.164 90.8231,-233.8 90,-240 88.9472,-247.93 88.9472,-250.07 90,-258 90.3858,-260.906 90.9351,-263.909 91.5801,-266.887"/>
<polygon fill="black" stroke="black" points="88.2248,-267.897 94.0435,-276.751 95.0162,-266.201 88.2248,-267.897"/>
<text text-anchor="middle" x="94.5" y="-245.4" font-family="Times Roman,serif" font-size="14.00">a</text>
</g>
<!-- q1 -->
<g id="node12" class="node"><title>q1</title>
<ellipse fill="none" stroke="black" cx="100" cy="-111" rx="27" ry="18.3848"/>
<text text-anchor="middle" x="100" y="-107.4" font-family="Times Roman,serif" font-size="14.00">q1</text>
</g>
<!-- q4&#45;&gt;q1 -->
<g id="edge18" class="edge"><title>q4&#45;&gt;q1</title>
<path fill="none" stroke="black" d="M100,-184.382C100,-171.538 100,-154.216 100,-139.627"/>
<polygon fill="black" stroke="black" points="103.5,-139.59 100,-129.59 96.5001,-139.59 103.5,-139.59"/>
<text text-anchor="middle" x="104.5" y="-153.4" font-family="Times Roman,serif" font-size="14.00">b</text>
</g>
<!-- q0&#45;&gt;q5 -->
<g id="edge28" class="edge"><title>q0&#45;&gt;q5</title>
<path fill="none" stroke="black" d="M55.3451,-369.696C63.565,-355.946 75.1895,-336.501 84.5176,-320.898"/>
<polygon fill="black" stroke="black" points="87.5741,-322.606 89.7013,-312.227 81.5659,-319.014 87.5741,-322.606"/>
<text text-anchor="middle" x="82.5" y="-337.4" font-family="Times Roman,serif" font-size="14.00">a</text>
</g>
<!-- q3 -->
<g id="node15" class="node"><title>q3</title>
<ellipse fill="none" stroke="black" cx="67" cy="-19" rx="27" ry="18.3848"/>
<text text-anchor="middle" x="67" y="-15.4" font-family="Times Roman,serif" font-size="14.00">q3</text>
</g>
<!-- q0&#45;&gt;q3 -->
<g id="edge26" class="edge"><title>q0&#45;&gt;q3</title>
<path fill="none" stroke="black" d="M31.4985,-370.872C18.2435,-353.355 0,-323.982 0,-295 0,-295 0,-295 0,-111 0,-82.1273 21.8295,-56.2409 40.5679,-39.3387"/>
<polygon fill="black" stroke="black" points="43.0337,-41.8346 48.3368,-32.6625 38.4713,-36.5256 43.0337,-41.8346"/>
<text text-anchor="middle" x="4.5" y="-199.4" font-family="Times Roman,serif" font-size="14.00">b</text>
</g>
<!-- q1&#45;&gt;q1 -->
<g id="edge14" class="edge"><title>q1&#45;&gt;q1</title>
<path fill="none" stroke="black" d="M124.074,-119.454C135.242,-120.377 145,-117.559 145,-111 145,-106.593 140.595,-103.875 134.317,-102.846"/>
<polygon fill="black" stroke="black" points="134.173,-99.3402 124.074,-102.546 133.967,-106.337 134.173,-99.3402"/>
<text text-anchor="middle" x="149.5" y="-107.4" font-family="Times Roman,serif" font-size="14.00">b</text>
</g>
<!-- q1&#45;&gt;q3 -->
<g id="edge16" class="edge"><title>q1&#45;&gt;q3</title>
<path fill="none" stroke="black" d="M93.4803,-92.8238C88.7797,-79.7191 82.3481,-61.7885 77.0005,-46.8803"/>
<polygon fill="black" stroke="black" points="80.1771,-45.3695 73.5062,-37.1385 73.5881,-47.733 80.1771,-45.3695"/>
<text text-anchor="middle" x="91.5" y="-61.4" font-family="Times Roman,serif" font-size="14.00">a</text>
</g>
<!-- q3&#45;&gt;q6 -->
<g id="edge24" class="edge"><title>q3&#45;&gt;q6</title>
<path fill="none" stroke="black" d="M92.4857,-25.6342C128.513,-36.7286 190,-62.7333 190,-111 190,-479 190,-479 190,-479 190,-506.867 170.079,-532.484 152.642,-549.57"/>
<polygon fill="black" stroke="black" points="149.815,-547.42 144.885,-556.798 154.587,-552.541 149.815,-547.42"/>
<text text-anchor="middle" x="194.5" y="-291.4" font-family="Times Roman,serif" font-size="14.00">a</text>
</g>
<!-- q3&#45;&gt;q0 -->
<g id="edge22" class="edge"><title>q3&#45;&gt;q0</title>
<path fill="none" stroke="black" d="M60.0391,-37.0242C53.5938,-55.3554 45,-84.7239 45,-111 45,-295 45,-295 45,-295 45,-316.13 45,-339.99 45,-358.116"/>
<polygon fill="black" stroke="black" points="41.5001,-358.322 45,-368.322 48.5001,-358.322 41.5001,-358.322"/>
<text text-anchor="middle" x="49.5" y="-199.4" font-family="Times Roman,serif" font-size="14.00">b</text>
</g>
</g>
</svg>
