<?xml version="1.0" encoding="UTF-8" standalone="no"?>
<!DOCTYPE svg PUBLIC "-//W3C//DTD SVG 1.1//EN"
 "http://www.w3.org/Graphics/SVG/1.1/DTD/svg11.dtd">
<!-- Generated by graphviz version 2.26.3 (20100126.1600)
 -->
<!-- Title: G Pages: 1 -->
<svg width="173pt" height="502pt"
 viewBox="0.00 0.00 173.00 502.00" xmlns="http://www.w3.org/2000/svg" xmlns:xlink="http://www.w3.org/1999/xlink">
<g id="graph1" class="graph" transform="scale(1 1) rotate(0) translate(4 498)">
<title>G</title>
<polygon fill="white" stroke="white" points="-4,5 -4,-498 170,-498 170,5 -4,5"/>
<!-- q6 -->
<g id="node1" class="node"><title>q6</title>
<ellipse fill="none" stroke="black" cx="111" cy="-476" rx="27" ry="18"/>
<text text-anchor="middle" x="111" y="-471.9" font-family="Times Roman,serif" font-size="14.00">q6</text>
</g>
<!-- q6&#45;&gt;q6 -->
<g id="edge2" class="edge"><title>q6&#45;&gt;q6</title>
<path fill="none" stroke="black" d="M135.532,-484.121C146.508,-484.895 156,-482.188 156,-476 156,-471.843 151.715,-469.257 145.574,-468.242"/>
<polygon fill="black" stroke="black" points="145.652,-464.742 135.532,-467.879 145.4,-471.738 145.652,-464.742"/>
<text text-anchor="middle" x="160.5" y="-471.9" font-family="Times Roman,serif" font-size="14.00">b</text>
</g>
<!-- q4 -->
<g id="node4" class="node"><title>q4</title>
<ellipse fill="none" stroke="black" cx="111" cy="-386" rx="27" ry="18"/>
<text text-anchor="middle" x="111" y="-381.9" font-family="Times Roman,serif" font-size="14.00">q4</text>
</g>
<!-- q6&#45;&gt;q4 -->
<g id="edge4" class="edge"><title>q6&#45;&gt;q4</title>
<path fill="none" stroke="black" d="M111,-457.787C111,-445.344 111,-428.605 111,-414.421"/>
<polygon fill="black" stroke="black" points="114.5,-414.186 111,-404.186 107.5,-414.186 114.5,-414.186"/>
<text text-anchor="middle" x="115.5" y="-426.9" font-family="Times Roman,serif" font-size="14.00">a</text>
</g>
<!-- q3 -->
<g id="node9" class="node"><title>q3</title>
<ellipse fill="none" stroke="black" cx="70" cy="-296" rx="27" ry="18"/>
<text text-anchor="middle" x="70" y="-291.9" font-family="Times Roman,serif" font-size="14.00">q3</text>
</g>
<!-- q4&#45;&gt;q3 -->
<g id="edge20" class="edge"><title>q4&#45;&gt;q3</title>
<path fill="none" stroke="black" d="M103.095,-368.647C97.1392,-355.574 88.8681,-337.418 82.0846,-322.527"/>
<polygon fill="black" stroke="black" points="85.2117,-320.949 77.8809,-313.3 78.8416,-323.851 85.2117,-320.949"/>
<text text-anchor="middle" x="98.5" y="-336.9" font-family="Times Roman,serif" font-size="14.00">a</text>
</g>
<!-- q2 -->
<g id="node10" class="node"><title>q2</title>
<ellipse fill="none" stroke="black" cx="103" cy="-206" rx="27" ry="18"/>
<text text-anchor="middle" x="103" y="-201.9" font-family="Times Roman,serif" font-size="14.00">q2</text>
</g>
<!-- q4&#45;&gt;q2 -->
<g id="edge18" class="edge"><title>q4&#45;&gt;q2</title>
<path fill="none" stroke="black" d="M110.651,-367.801C110.062,-340.468 108.666,-287.199 106,-242 105.857,-239.57 105.688,-237.049 105.504,-234.521"/>
<polygon fill="black" stroke="black" points="108.974,-233.995 104.698,-224.302 101.996,-234.546 108.974,-233.995"/>
<text text-anchor="middle" x="113.5" y="-291.9" font-family="Times Roman,serif" font-size="14.00">b</text>
</g>
<!-- q5 -->
<g id="node5" class="node"><title>q5</title>
<ellipse fill="none" stroke="black" cx="58" cy="-116" rx="27" ry="18"/>
<text text-anchor="middle" x="58" y="-111.9" font-family="Times Roman,serif" font-size="14.00">q5</text>
</g>
<!-- q1 -->
<g id="node7" class="node"><title>q1</title>
<ellipse fill="none" stroke="black" cx="31" cy="-22" rx="27" ry="18"/>
<ellipse fill="none" stroke="black" cx="31" cy="-22" rx="31" ry="22"/>
<text text-anchor="middle" x="31" y="-17.9" font-family="Times Roman,serif" font-size="14.00">q1</text>
</g>
<!-- q5&#45;&gt;q1 -->
<g id="edge6" class="edge"><title>q5&#45;&gt;q1</title>
<path fill="none" stroke="black" d="M52.9215,-98.3193C49.2973,-85.7017 44.3249,-68.3903 40.0319,-53.4444"/>
<polygon fill="black" stroke="black" points="43.3181,-52.2069 37.1933,-43.5618 36.5901,-54.1395 43.3181,-52.2069"/>
<text text-anchor="middle" x="50.5" y="-66.9" font-family="Times Roman,serif" font-size="14.00">b</text>
</g>
<!-- q5&#45;&gt;q3 -->
<g id="edge8" class="edge"><title>q5&#45;&gt;q3</title>
<path fill="none" stroke="black" d="M57.0944,-134C56.2236,-155.469 55.3864,-192.42 58,-224 59.2124,-238.649 61.7897,-254.804 64.2461,-268.094"/>
<polygon fill="black" stroke="black" points="60.8359,-268.895 66.1618,-278.054 67.7099,-267.573 60.8359,-268.895"/>
<text text-anchor="middle" x="62.5" y="-201.9" font-family="Times Roman,serif" font-size="14.00">a</text>
</g>
<!-- q1&#45;&gt;q5 -->
<g id="edge14" class="edge"><title>q1&#45;&gt;q5</title>
<path fill="none" stroke="black" d="M28.3149,-44.0068C27.7245,-55.0728 28.1828,-68.5336 32,-80 33.3972,-84.1969 35.474,-88.3209 37.8558,-92.1938"/>
<polygon fill="black" stroke="black" points="35.1949,-94.4965 43.7901,-100.691 40.9339,-90.4886 35.1949,-94.4965"/>
<text text-anchor="middle" x="36.5" y="-66.9" font-family="Times Roman,serif" font-size="14.00">b</text>
</g>
<!-- q1&#45;&gt;q3 -->
<g id="edge16" class="edge"><title>q1&#45;&gt;q3</title>
<path fill="none" stroke="black" d="M26.6816,-43.9389C25.6618,-49.7877 24.6758,-56.1167 24,-62 22.1712,-77.92 22.4446,-81.9815 22,-98 21.5561,-113.994 19.8976,-118.139 22,-134 29.6216,-191.5 37.9069,-204.891 56,-260 56.9727,-262.963 58.0539,-266.037 59.1722,-269.084"/>
<polygon fill="black" stroke="black" points="55.9511,-270.461 62.783,-278.558 62.4921,-267.968 55.9511,-270.461"/>
<text text-anchor="middle" x="31.5" y="-156.9" font-family="Times Roman,serif" font-size="14.00">a</text>
</g>
<!-- q3&#45;&gt;q2 -->
<g id="edge22" class="edge"><title>q3&#45;&gt;q2</title>
<path fill="none" stroke="black" d="M70.6098,-277.958C71.4719,-267.201 73.464,-253.455 78,-242 79.5758,-238.02 81.6661,-234.052 83.9688,-230.281"/>
<polygon fill="black" stroke="black" points="86.9082,-232.182 89.5847,-221.931 81.0997,-228.275 86.9082,-232.182"/>
<text text-anchor="middle" x="82.5" y="-246.9" font-family="Times Roman,serif" font-size="14.00">b</text>
</g>
<!-- q3&#45;&gt;q2 -->
<g id="edge24" class="edge"><title>q3&#45;&gt;q2</title>
<path fill="none" stroke="black" d="M78.8483,-278.655C81.6517,-272.811 84.6339,-266.199 87,-260 90.1729,-251.687 93.1118,-242.461 95.5821,-234.021"/>
<polygon fill="black" stroke="black" points="98.9975,-234.805 98.3472,-224.23 92.261,-232.903 98.9975,-234.805"/>
<text text-anchor="middle" x="97.5" y="-246.9" font-family="Times Roman,serif" font-size="14.00">a</text>
</g>
<!-- q2&#45;&gt;q5 -->
<g id="edge12" class="edge"><title>q2&#45;&gt;q5</title>
<path fill="none" stroke="black" d="M94.3235,-188.647C87.7869,-175.574 78.7089,-157.418 71.2635,-142.527"/>
<polygon fill="black" stroke="black" points="74.2525,-140.679 66.6498,-133.3 67.9915,-143.809 74.2525,-140.679"/>
<text text-anchor="middle" x="88.5" y="-156.9" font-family="Times Roman,serif" font-size="14.00">a</text>
</g>
<!-- q2&#45;&gt;q2 -->
<g id="edge10" class="edge"><title>q2&#45;&gt;q2</title>
<path fill="none" stroke="black" d="M127.532,-214.121C138.508,-214.895 148,-212.188 148,-206 148,-201.843 143.715,-199.257 137.574,-198.242"/>
<polygon fill="black" stroke="black" points="137.652,-194.742 127.532,-197.879 137.4,-201.738 137.652,-194.742"/>
<text text-anchor="middle" x="152.5" y="-201.9" font-family="Times Roman,serif" font-size="14.00">b</text>
</g>
</g>
</svg>
