<?xml version="1.0" encoding="UTF-8" standalone="no"?>
<!DOCTYPE svg PUBLIC "-//W3C//DTD SVG 1.1//EN"
 "http://www.w3.org/Graphics/SVG/1.1/DTD/svg11.dtd">
<!-- Generated by graphviz version 2.26.3 (20100126.1600)
 -->
<!-- Title: G Pages: 1 -->
<svg width="271pt" height="414pt"
 viewBox="0.00 0.00 271.00 414.00" xmlns="http://www.w3.org/2000/svg" xmlns:xlink="http://www.w3.org/1999/xlink">
<g id="graph1" class="graph" transform="scale(1 1) rotate(0) translate(4 410)">
<title>G</title>
<polygon fill="white" stroke="white" points="-4,5 -4,-410 268,-410 268,5 -4,5"/>
<!-- q6 -->
<g id="node1" class="node"><title>q6</title>
<ellipse fill="none" stroke="black" cx="116" cy="-387" rx="27" ry="18.3848"/>
<text text-anchor="middle" x="116" y="-383.4" font-family="Times Roman,serif" font-size="14.00">q6</text>
</g>
<!-- q6&#45;&gt;q6 -->
<g id="edge4" class="edge"><title>q6&#45;&gt;q6</title>
<path fill="none" stroke="black" d="M140.074,-395.454C151.242,-396.377 161,-393.559 161,-387 161,-382.593 156.595,-379.875 150.317,-378.846"/>
<polygon fill="black" stroke="black" points="150.173,-375.34 140.074,-378.546 149.967,-382.337 150.173,-375.34"/>
<text text-anchor="middle" x="165.5" y="-383.4" font-family="Times Roman,serif" font-size="14.00">a</text>
</g>
<!-- q0 -->
<g id="node3" class="node"><title>q0</title>
<ellipse fill="none" stroke="black" cx="88" cy="-295" rx="27" ry="18.3848"/>
<text text-anchor="middle" x="88" y="-291.4" font-family="Times Roman,serif" font-size="14.00">q0</text>
</g>
<!-- q6&#45;&gt;q0 -->
<g id="edge2" class="edge"><title>q6&#45;&gt;q0</title>
<path fill="none" stroke="black" d="M110.468,-368.824C106.48,-355.719 101.023,-337.789 96.4853,-322.88"/>
<polygon fill="black" stroke="black" points="99.7805,-321.686 93.5204,-313.138 93.0837,-323.724 99.7805,-321.686"/>
<text text-anchor="middle" x="108.5" y="-337.4" font-family="Times Roman,serif" font-size="14.00">b</text>
</g>
<!-- q4 -->
<g id="node13" class="node"><title>q4</title>
<ellipse fill="none" stroke="black" cx="236" cy="-203" rx="27" ry="18.3848"/>
<text text-anchor="middle" x="236" y="-199.4" font-family="Times Roman,serif" font-size="14.00">q4</text>
</g>
<!-- q0&#45;&gt;q4 -->
<g id="edge32" class="edge"><title>q0&#45;&gt;q4</title>
<path fill="none" stroke="black" d="M108.268,-282.401C133.953,-266.435 178.375,-238.821 207.475,-220.732"/>
<polygon fill="black" stroke="black" points="209.331,-223.699 215.976,-215.447 205.636,-217.754 209.331,-223.699"/>
<text text-anchor="middle" x="179.5" y="-245.4" font-family="Times Roman,serif" font-size="14.00">a</text>
</g>
<!-- q3 -->
<g id="node18" class="node"><title>q3</title>
<ellipse fill="none" stroke="black" cx="27" cy="-203" rx="27" ry="18.3848"/>
<text text-anchor="middle" x="27" y="-199.4" font-family="Times Roman,serif" font-size="14.00">q3</text>
</g>
<!-- q0&#45;&gt;q3 -->
<g id="edge30" class="edge"><title>q0&#45;&gt;q3</title>
<path fill="none" stroke="black" d="M81.5815,-276.836C77.2107,-265.699 70.808,-251.433 63,-240 59.503,-234.879 55.2667,-229.824 50.9461,-225.172"/>
<polygon fill="black" stroke="black" points="53.2089,-222.481 43.711,-217.786 48.2081,-227.379 53.2089,-222.481"/>
<text text-anchor="middle" x="77.5" y="-245.4" font-family="Times Roman,serif" font-size="14.00">b</text>
</g>
<!-- q5 -->
<g id="node5" class="node"><title>q5</title>
<ellipse fill="none" stroke="black" cx="133" cy="-19" rx="27" ry="18.3848"/>
<text text-anchor="middle" x="133" y="-15.4" font-family="Times Roman,serif" font-size="14.00">q5</text>
</g>
<!-- q5&#45;&gt;q0 -->
<g id="edge8" class="edge"><title>q5&#45;&gt;q0</title>
<path fill="none" stroke="black" d="M129.991,-37.457C122.304,-84.6035 101.903,-209.73 92.6634,-266.398"/>
<polygon fill="black" stroke="black" points="89.1773,-266.029 91.0225,-276.462 96.0861,-267.156 89.1773,-266.029"/>
<text text-anchor="middle" x="115.5" y="-153.4" font-family="Times Roman,serif" font-size="14.00">a</text>
</g>
<!-- q5&#45;&gt;q5 -->
<g id="edge6" class="edge"><title>q5&#45;&gt;q5</title>
<path fill="none" stroke="black" d="M157.074,-27.4544C168.242,-28.3767 178,-25.5586 178,-19 178,-14.5934 173.595,-11.8754 167.317,-10.8458"/>
<polygon fill="black" stroke="black" points="167.173,-7.34018 157.074,-10.5456 166.967,-14.3372 167.173,-7.34018"/>
<text text-anchor="middle" x="182.5" y="-15.4" font-family="Times Roman,serif" font-size="14.00">b</text>
</g>
<!-- q7 -->
<g id="node8" class="node"><title>q7</title>
<ellipse fill="none" stroke="black" cx="164" cy="-203" rx="27" ry="18.3848"/>
<text text-anchor="middle" x="164" y="-199.4" font-family="Times Roman,serif" font-size="14.00">q7</text>
</g>
<!-- q2 -->
<g id="node10" class="node"><title>q2</title>
<ellipse fill="none" stroke="black" cx="173" cy="-111" rx="27" ry="18.3848"/>
<text text-anchor="middle" x="173" y="-107.4" font-family="Times Roman,serif" font-size="14.00">q2</text>
</g>
<!-- q7&#45;&gt;q2 -->
<g id="edge10" class="edge"><title>q7&#45;&gt;q2</title>
<path fill="none" stroke="black" d="M150.88,-186.74C143.729,-175.846 137.221,-161.145 142,-148 143.815,-143.009 146.631,-138.221 149.841,-133.842"/>
<polygon fill="black" stroke="black" points="152.667,-135.917 156.341,-125.979 147.272,-131.457 152.667,-135.917"/>
<text text-anchor="middle" x="146.5" y="-153.4" font-family="Times Roman,serif" font-size="14.00">b</text>
</g>
<!-- q7&#45;&gt;q2 -->
<g id="edge12" class="edge"><title>q7&#45;&gt;q2</title>
<path fill="none" stroke="black" d="M165.821,-184.382C167.078,-171.538 168.772,-154.216 170.2,-139.627"/>
<polygon fill="black" stroke="black" points="173.691,-139.883 171.181,-129.59 166.724,-139.202 173.691,-139.883"/>
<text text-anchor="middle" x="173.5" y="-153.4" font-family="Times Roman,serif" font-size="14.00">a</text>
</g>
<!-- q2&#45;&gt;q5 -->
<g id="edge16" class="edge"><title>q2&#45;&gt;q5</title>
<path fill="none" stroke="black" d="M165.288,-93.2615C159.514,-79.9833 151.511,-61.5758 144.917,-46.4097"/>
<polygon fill="black" stroke="black" points="148.022,-44.7731 140.825,-36.998 141.603,-47.5642 148.022,-44.7731"/>
<text text-anchor="middle" x="160.5" y="-61.4" font-family="Times Roman,serif" font-size="14.00">a</text>
</g>
<!-- q2&#45;&gt;q4 -->
<g id="edge14" class="edge"><title>q2&#45;&gt;q4</title>
<path fill="none" stroke="black" d="M192.027,-124.463C199.98,-130.859 208.795,-139.059 215,-148 220.589,-156.053 224.937,-165.792 228.191,-174.823"/>
<polygon fill="black" stroke="black" points="224.955,-176.186 231.406,-184.59 231.604,-173.997 224.955,-176.186"/>
<text text-anchor="middle" x="228.5" y="-153.4" font-family="Times Roman,serif" font-size="14.00">b</text>
</g>
<!-- q4&#45;&gt;q6 -->
<g id="edge24" class="edge"><title>q4&#45;&gt;q6</title>
<path fill="none" stroke="black" d="M224.953,-219.939C203.81,-252.358 157.519,-323.338 132.625,-361.509"/>
<polygon fill="black" stroke="black" points="129.605,-359.731 127.074,-370.02 135.469,-363.555 129.605,-359.731"/>
<text text-anchor="middle" x="191.5" y="-291.4" font-family="Times Roman,serif" font-size="14.00">a</text>
</g>
<!-- q4&#45;&gt;q2 -->
<g id="edge22" class="edge"><title>q4&#45;&gt;q2</title>
<path fill="none" stroke="black" d="M222.048,-186.809C216.809,-180.473 210.933,-173.045 206,-166 199.677,-156.97 193.309,-146.698 187.877,-137.496"/>
<polygon fill="black" stroke="black" points="190.84,-135.628 182.793,-128.736 184.785,-139.142 190.84,-135.628"/>
<text text-anchor="middle" x="210.5" y="-153.4" font-family="Times Roman,serif" font-size="14.00">b</text>
</g>
<!-- q1 -->
<g id="node15" class="node"><title>q1</title>
<ellipse fill="none" stroke="black" cx="36" cy="-387" rx="27" ry="18.3848"/>
<text text-anchor="middle" x="36" y="-383.4" font-family="Times Roman,serif" font-size="14.00">q1</text>
</g>
<!-- q1&#45;&gt;q0 -->
<g id="edge18" class="edge"><title>q1&#45;&gt;q0</title>
<path fill="none" stroke="black" d="M45.7808,-369.696C53.431,-356.161 64.2003,-337.107 72.9473,-321.632"/>
<polygon fill="black" stroke="black" points="76.2126,-322.968 78.0863,-312.54 70.1187,-319.523 76.2126,-322.968"/>
<text text-anchor="middle" x="71.5" y="-337.4" font-family="Times Roman,serif" font-size="14.00">b</text>
</g>
<!-- q1&#45;&gt;q3 -->
<g id="edge20" class="edge"><title>q1&#45;&gt;q3</title>
<path fill="none" stroke="black" d="M35.0875,-368.345C33.5175,-336.247 30.2942,-270.349 28.4257,-232.148"/>
<polygon fill="black" stroke="black" points="31.8994,-231.522 27.9149,-221.705 24.9077,-231.864 31.8994,-231.522"/>
<text text-anchor="middle" x="37.5" y="-291.4" font-family="Times Roman,serif" font-size="14.00">a</text>
</g>
<!-- q3&#45;&gt;q0 -->
<g id="edge28" class="edge"><title>q3&#45;&gt;q0</title>
<path fill="none" stroke="black" d="M34.2891,-221.053C39.1438,-232.149 46.0746,-246.41 54,-258 57.2622,-262.771 61.113,-267.55 65.0293,-272.015"/>
<polygon fill="black" stroke="black" points="62.6928,-274.645 72.0363,-279.64 67.847,-269.908 62.6928,-274.645"/>
<text text-anchor="middle" x="58.5" y="-245.4" font-family="Times Roman,serif" font-size="14.00">a</text>
</g>
<!-- q3&#45;&gt;q3 -->
<g id="edge26" class="edge"><title>q3&#45;&gt;q3</title>
<path fill="none" stroke="black" d="M51.0743,-211.454C62.2423,-212.377 72,-209.559 72,-203 72,-198.593 67.5952,-195.875 61.3174,-194.846"/>
<polygon fill="black" stroke="black" points="61.1726,-191.34 51.0743,-194.546 60.9674,-198.337 61.1726,-191.34"/>
<text text-anchor="middle" x="76.5" y="-199.4" font-family="Times Roman,serif" font-size="14.00">b</text>
</g>
</g>
</svg>
