<?xml version="1.0" encoding="UTF-8" standalone="no"?>
<!DOCTYPE svg PUBLIC "-//W3C//DTD SVG 1.1//EN"
 "http://www.w3.org/Graphics/SVG/1.1/DTD/svg11.dtd">
<!-- Generated by graphviz version 2.26.3 (20100126.1600)
 -->
<!-- Title: G Pages: 1 -->
<svg width="147pt" height="510pt"
 viewBox="0.00 0.00 147.00 510.00" xmlns="http://www.w3.org/2000/svg" xmlns:xlink="http://www.w3.org/1999/xlink">
<g id="graph1" class="graph" transform="scale(1 1) rotate(0) translate(4 506)">
<title>G</title>
<polygon fill="white" stroke="white" points="-4,5 -4,-506 144,-506 144,5 -4,5"/>
<!-- q6 -->
<g id="node1" class="node"><title>q6</title>
<ellipse fill="none" stroke="black" cx="82" cy="-484" rx="27" ry="18"/>
<text text-anchor="middle" x="82" y="-479.9" font-family="Times Roman,serif" font-size="14.00">q6</text>
</g>
<!-- q6&#45;&gt;q6 -->
<g id="edge2" class="edge"><title>q6&#45;&gt;q6</title>
<path fill="none" stroke="black" d="M106.532,-492.121C117.508,-492.895 127,-490.188 127,-484 127,-479.843 122.715,-477.257 116.574,-476.242"/>
<polygon fill="black" stroke="black" points="116.652,-472.742 106.532,-475.879 116.4,-479.738 116.652,-472.742"/>
<text text-anchor="middle" x="131.5" y="-479.9" font-family="Times Roman,serif" font-size="14.00">b</text>
</g>
<!-- q4 -->
<g id="node4" class="node"><title>q4</title>
<ellipse fill="none" stroke="black" cx="82" cy="-394" rx="27" ry="18"/>
<text text-anchor="middle" x="82" y="-389.9" font-family="Times Roman,serif" font-size="14.00">q4</text>
</g>
<!-- q6&#45;&gt;q4 -->
<g id="edge4" class="edge"><title>q6&#45;&gt;q4</title>
<path fill="none" stroke="black" d="M82,-465.787C82,-453.344 82,-436.605 82,-422.421"/>
<polygon fill="black" stroke="black" points="85.5001,-422.186 82,-412.186 78.5001,-422.186 85.5001,-422.186"/>
<text text-anchor="middle" x="86.5" y="-434.9" font-family="Times Roman,serif" font-size="14.00">a</text>
</g>
<!-- q4&#45;&gt;q4 -->
<g id="edge20" class="edge"><title>q4&#45;&gt;q4</title>
<path fill="none" stroke="black" d="M106.532,-402.121C117.508,-402.895 127,-400.188 127,-394 127,-389.843 122.715,-387.257 116.574,-386.242"/>
<polygon fill="black" stroke="black" points="116.652,-382.742 106.532,-385.879 116.4,-389.738 116.652,-382.742"/>
<text text-anchor="middle" x="131.5" y="-389.9" font-family="Times Roman,serif" font-size="14.00">a</text>
</g>
<!-- q2 -->
<g id="node9" class="node"><title>q2</title>
<ellipse fill="none" stroke="black" cx="27" cy="-304" rx="27" ry="18"/>
<text text-anchor="middle" x="27" y="-299.9" font-family="Times Roman,serif" font-size="14.00">q2</text>
</g>
<!-- q4&#45;&gt;q2 -->
<g id="edge18" class="edge"><title>q4&#45;&gt;q2</title>
<path fill="none" stroke="black" d="M71.6549,-377.072C63.5119,-363.747 52.0275,-344.954 42.7446,-329.764"/>
<polygon fill="black" stroke="black" points="45.4997,-327.56 37.2987,-320.852 39.5267,-331.21 45.4997,-327.56"/>
<text text-anchor="middle" x="63.5" y="-344.9" font-family="Times Roman,serif" font-size="14.00">b</text>
</g>
<!-- q5 -->
<g id="node5" class="node"><title>q5</title>
<ellipse fill="none" stroke="black" cx="46" cy="-214" rx="27" ry="18"/>
<text text-anchor="middle" x="46" y="-209.9" font-family="Times Roman,serif" font-size="14.00">q5</text>
</g>
<!-- q1 -->
<g id="node7" class="node"><title>q1</title>
<ellipse fill="none" stroke="black" cx="49" cy="-120" rx="27" ry="18"/>
<ellipse fill="none" stroke="black" cx="49" cy="-120" rx="31" ry="22"/>
<text text-anchor="middle" x="49" y="-115.9" font-family="Times Roman,serif" font-size="14.00">q1</text>
</g>
<!-- q5&#45;&gt;q1 -->
<g id="edge6" class="edge"><title>q5&#45;&gt;q1</title>
<path fill="none" stroke="black" d="M46.5784,-195.876C46.973,-183.512 47.5065,-166.795 47.9724,-152.199"/>
<polygon fill="black" stroke="black" points="51.4758,-152.145 48.2966,-142.039 44.4793,-151.922 51.4758,-152.145"/>
<text text-anchor="middle" x="51.5" y="-164.9" font-family="Times Roman,serif" font-size="14.00">b</text>
</g>
<!-- q5&#45;&gt;q2 -->
<g id="edge8" class="edge"><title>q5&#45;&gt;q2</title>
<path fill="none" stroke="black" d="M42.2256,-231.879C39.5723,-244.447 35.9685,-261.518 32.933,-275.896"/>
<polygon fill="black" stroke="black" points="29.4861,-275.28 30.8449,-285.787 36.3351,-276.726 29.4861,-275.28"/>
<text text-anchor="middle" x="43.5" y="-254.9" font-family="Times Roman,serif" font-size="14.00">a</text>
</g>
<!-- q0 -->
<g id="node13" class="node"><title>q0</title>
<ellipse fill="none" stroke="black" cx="81" cy="-22" rx="27" ry="18"/>
<ellipse fill="none" stroke="black" cx="81" cy="-22" rx="31" ry="22"/>
<text text-anchor="middle" x="81" y="-17.9" font-family="Times Roman,serif" font-size="14.00">q0</text>
</g>
<!-- q1&#45;&gt;q0 -->
<g id="edge14" class="edge"><title>q1&#45;&gt;q0</title>
<path fill="none" stroke="black" d="M46.1511,-97.9371C45.519,-86.8569 45.9894,-73.4002 50,-62 51.6619,-57.2759 54.1206,-52.6725 56.9389,-48.3702"/>
<polygon fill="black" stroke="black" points="59.9768,-50.1474 63.0887,-40.0198 54.3404,-45.9963 59.9768,-50.1474"/>
<text text-anchor="middle" x="54.5" y="-66.9" font-family="Times Roman,serif" font-size="14.00">b</text>
</g>
<!-- q1&#45;&gt;q0 -->
<g id="edge16" class="edge"><title>q1&#45;&gt;q0</title>
<path fill="none" stroke="black" d="M56.1018,-98.2506C60.4105,-85.0554 65.9814,-67.9944 70.7609,-53.3574"/>
<polygon fill="black" stroke="black" points="74.1411,-54.2811 73.918,-43.6886 67.4868,-52.1082 74.1411,-54.2811"/>
<text text-anchor="middle" x="71.5" y="-66.9" font-family="Times Roman,serif" font-size="14.00">a</text>
</g>
<!-- q2&#45;&gt;q5 -->
<g id="edge12" class="edge"><title>q2&#45;&gt;q5</title>
<path fill="none" stroke="black" d="M21.9809,-286.146C19.7979,-275.457 18.4531,-261.714 22,-250 23.1904,-246.068 24.9674,-242.174 27.0262,-238.48"/>
<polygon fill="black" stroke="black" points="30.132,-240.118 32.5502,-229.803 24.2271,-236.359 30.132,-240.118"/>
<text text-anchor="middle" x="26.5" y="-254.9" font-family="Times Roman,serif" font-size="14.00">a</text>
</g>
<!-- q2&#45;&gt;q2 -->
<g id="edge10" class="edge"><title>q2&#45;&gt;q2</title>
<path fill="none" stroke="black" d="M51.5325,-312.121C62.5078,-312.895 72,-310.188 72,-304 72,-299.843 67.7151,-297.257 61.5743,-296.242"/>
<polygon fill="black" stroke="black" points="61.6524,-292.742 51.5325,-295.879 61.3995,-299.738 61.6524,-292.742"/>
<text text-anchor="middle" x="76.5" y="-299.9" font-family="Times Roman,serif" font-size="14.00">b</text>
</g>
<!-- q0&#45;&gt;q4 -->
<g id="edge24" class="edge"><title>q0&#45;&gt;q4</title>
<path fill="none" stroke="black" d="M90.636,-42.9187C98.7354,-62.4325 109,-92.5732 109,-120 109,-304 109,-304 109,-304 109,-325.955 101.538,-349.7 94.459,-367.285"/>
<polygon fill="black" stroke="black" points="91.0775,-366.294 90.395,-376.867 97.5219,-369.028 91.0775,-366.294"/>
<text text-anchor="middle" x="113.5" y="-209.9" font-family="Times Roman,serif" font-size="14.00">a</text>
</g>
<!-- q0&#45;&gt;q0 -->
<g id="edge22" class="edge"><title>q0&#45;&gt;q0</title>
<path fill="none" stroke="black" d="M109.689,-30.9648C120.781,-31.3633 130,-28.375 130,-22 130,-17.7168 125.838,-14.9624 119.743,-13.7368"/>
<polygon fill="black" stroke="black" points="119.908,-10.2399 109.689,-13.0352 119.421,-17.223 119.908,-10.2399"/>
<text text-anchor="middle" x="134.5" y="-17.9" font-family="Times Roman,serif" font-size="14.00">b</text>
</g>
</g>
</svg>
