<?xml version="1.0" encoding="UTF-8" standalone="no"?>
<!DOCTYPE svg PUBLIC "-//W3C//DTD SVG 1.1//EN"
 "http://www.w3.org/Graphics/SVG/1.1/DTD/svg11.dtd">
<!-- Generated by graphviz version 2.26.3 (20100126.1600)
 -->
<!-- Title: G Pages: 1 -->
<svg width="218pt" height="330pt"
 viewBox="0.00 0.00 218.00 330.00" xmlns="http://www.w3.org/2000/svg" xmlns:xlink="http://www.w3.org/1999/xlink">
<g id="graph1" class="graph" transform="scale(1 1) rotate(0) translate(4 326)">
<title>G</title>
<polygon fill="white" stroke="white" points="-4,5 -4,-326 215,-326 215,5 -4,5"/>
<!-- q6 -->
<g id="node1" class="node"><title>q6</title>
<ellipse fill="none" stroke="black" cx="27" cy="-304" rx="27" ry="18"/>
<text text-anchor="middle" x="27" y="-299.9" font-family="Times Roman,serif" font-size="14.00">q6</text>
</g>
<!-- q6&#45;&gt;q6 -->
<g id="edge2" class="edge"><title>q6&#45;&gt;q6</title>
<path fill="none" stroke="black" d="M51.5325,-312.121C62.5078,-312.895 72,-310.188 72,-304 72,-299.843 67.7151,-297.257 61.5743,-296.242"/>
<polygon fill="black" stroke="black" points="61.6524,-292.742 51.5325,-295.879 61.3995,-299.738 61.6524,-292.742"/>
<text text-anchor="middle" x="76.5" y="-299.9" font-family="Times Roman,serif" font-size="14.00">b</text>
</g>
<!-- q4 -->
<g id="node4" class="node"><title>q4</title>
<ellipse fill="none" stroke="black" cx="27" cy="-214" rx="27" ry="18"/>
<text text-anchor="middle" x="27" y="-209.9" font-family="Times Roman,serif" font-size="14.00">q4</text>
</g>
<!-- q6&#45;&gt;q4 -->
<g id="edge4" class="edge"><title>q6&#45;&gt;q4</title>
<path fill="none" stroke="black" d="M27,-285.787C27,-273.344 27,-256.605 27,-242.421"/>
<polygon fill="black" stroke="black" points="30.5001,-242.186 27,-232.186 23.5001,-242.186 30.5001,-242.186"/>
<text text-anchor="middle" x="31.5" y="-254.9" font-family="Times Roman,serif" font-size="14.00">a</text>
</g>
<!-- q4&#45;&gt;q4 -->
<g id="edge20" class="edge"><title>q4&#45;&gt;q4</title>
<path fill="none" stroke="black" d="M51.5325,-222.121C62.5078,-222.895 72,-220.188 72,-214 72,-209.843 67.7151,-207.257 61.5743,-206.242"/>
<polygon fill="black" stroke="black" points="61.6524,-202.742 51.5325,-205.879 61.3995,-209.738 61.6524,-202.742"/>
<text text-anchor="middle" x="76.5" y="-209.9" font-family="Times Roman,serif" font-size="14.00">a</text>
</g>
<!-- q2 -->
<g id="node9" class="node"><title>q2</title>
<ellipse fill="none" stroke="black" cx="76" cy="-120" rx="27" ry="18"/>
<text text-anchor="middle" x="76" y="-115.9" font-family="Times Roman,serif" font-size="14.00">q2</text>
</g>
<!-- q4&#45;&gt;q2 -->
<g id="edge18" class="edge"><title>q4&#45;&gt;q2</title>
<path fill="none" stroke="black" d="M35.9874,-196.759C43.378,-182.581 53.9681,-162.265 62.397,-146.095"/>
<polygon fill="black" stroke="black" points="65.5508,-147.617 67.0696,-137.132 59.3435,-144.381 65.5508,-147.617"/>
<text text-anchor="middle" x="58.5" y="-164.9" font-family="Times Roman,serif" font-size="14.00">b</text>
</g>
<!-- q5 -->
<g id="node5" class="node"><title>q5</title>
<ellipse fill="none" stroke="black" cx="128" cy="-214" rx="27" ry="18"/>
<text text-anchor="middle" x="128" y="-209.9" font-family="Times Roman,serif" font-size="14.00">q5</text>
</g>
<!-- q1 -->
<g id="node7" class="node"><title>q1</title>
<ellipse fill="none" stroke="black" cx="179" cy="-120" rx="27" ry="18"/>
<ellipse fill="none" stroke="black" cx="179" cy="-120" rx="31" ry="22"/>
<text text-anchor="middle" x="179" y="-115.9" font-family="Times Roman,serif" font-size="14.00">q1</text>
</g>
<!-- q5&#45;&gt;q1 -->
<g id="edge6" class="edge"><title>q5&#45;&gt;q1</title>
<path fill="none" stroke="black" d="M137.354,-196.759C144.451,-183.679 154.381,-165.375 162.765,-149.923"/>
<polygon fill="black" stroke="black" points="166.054,-151.2 167.747,-140.741 159.901,-147.862 166.054,-151.2"/>
<text text-anchor="middle" x="160.5" y="-164.9" font-family="Times Roman,serif" font-size="14.00">b</text>
</g>
<!-- q5&#45;&gt;q2 -->
<g id="edge8" class="edge"><title>q5&#45;&gt;q2</title>
<path fill="none" stroke="black" d="M118.462,-196.759C110.619,-182.581 99.3808,-162.265 90.4358,-146.095"/>
<polygon fill="black" stroke="black" points="93.3804,-144.188 85.4771,-137.132 87.2552,-147.576 93.3804,-144.188"/>
<text text-anchor="middle" x="110.5" y="-164.9" font-family="Times Roman,serif" font-size="14.00">a</text>
</g>
<!-- q0 -->
<g id="node12" class="node"><title>q0</title>
<ellipse fill="none" stroke="black" cx="106" cy="-22" rx="27" ry="18"/>
<ellipse fill="none" stroke="black" cx="106" cy="-22" rx="31" ry="22"/>
<text text-anchor="middle" x="106" y="-17.9" font-family="Times Roman,serif" font-size="14.00">q0</text>
</g>
<!-- q1&#45;&gt;q0 -->
<g id="edge14" class="edge"><title>q1&#45;&gt;q0</title>
<path fill="none" stroke="black" d="M161.489,-101.826C155.387,-95.1659 148.657,-87.4358 143,-80 136.095,-70.9233 129.194,-60.5487 123.254,-51.1071"/>
<polygon fill="black" stroke="black" points="126.117,-49.0826 117.885,-42.4136 120.161,-52.7609 126.117,-49.0826"/>
<text text-anchor="middle" x="147.5" y="-66.9" font-family="Times Roman,serif" font-size="14.00">b</text>
</g>
<!-- q1&#45;&gt;q0 -->
<g id="edge16" class="edge"><title>q1&#45;&gt;q0</title>
<path fill="none" stroke="black" d="M171.475,-98.4169C166.878,-86.9545 160.284,-73.0027 152,-62 147.361,-55.8387 141.636,-49.9438 135.818,-44.6629"/>
<polygon fill="black" stroke="black" points="137.786,-41.7395 127.921,-37.875 133.223,-47.0478 137.786,-41.7395"/>
<text text-anchor="middle" x="167.5" y="-66.9" font-family="Times Roman,serif" font-size="14.00">a</text>
</g>
<!-- q2&#45;&gt;q2 -->
<g id="edge10" class="edge"><title>q2&#45;&gt;q2</title>
<path fill="none" stroke="black" d="M99.6146,-128.78C110.973,-129.864 121,-126.938 121,-120 121,-115.339 116.474,-112.488 110.058,-111.448"/>
<polygon fill="black" stroke="black" points="109.689,-107.939 99.6146,-111.22 109.536,-114.938 109.689,-107.939"/>
<text text-anchor="middle" x="125.5" y="-115.9" font-family="Times Roman,serif" font-size="14.00">b</text>
</g>
<!-- q2&#45;&gt;q0 -->
<g id="edge12" class="edge"><title>q2&#45;&gt;q0</title>
<path fill="none" stroke="black" d="M81.5025,-102.025C85.6769,-88.3888 91.5185,-69.3064 96.4503,-53.1958"/>
<polygon fill="black" stroke="black" points="99.7999,-54.2106 99.3804,-43.624 93.1065,-52.1615 99.7999,-54.2106"/>
<text text-anchor="middle" x="97.5" y="-66.9" font-family="Times Roman,serif" font-size="14.00">a</text>
</g>
<!-- q0&#45;&gt;q4 -->
<g id="edge24" class="edge"><title>q0&#45;&gt;q4</title>
<path fill="none" stroke="black" d="M83.3711,-37.4368C65.539,-51.0477 41.9243,-72.6314 31,-98 18.9201,-126.052 19.7423,-161.55 22.4233,-185.844"/>
<polygon fill="black" stroke="black" points="18.9603,-186.356 23.6999,-195.832 25.9038,-185.469 18.9603,-186.356"/>
<text text-anchor="middle" x="35.5" y="-115.9" font-family="Times Roman,serif" font-size="14.00">a</text>
</g>
<!-- q0&#45;&gt;q0 -->
<g id="edge22" class="edge"><title>q0&#45;&gt;q0</title>
<path fill="none" stroke="black" d="M134.689,-30.9648C145.781,-31.3633 155,-28.375 155,-22 155,-17.7168 150.838,-14.9624 144.743,-13.7368"/>
<polygon fill="black" stroke="black" points="144.908,-10.2399 134.689,-13.0352 144.421,-17.223 144.908,-10.2399"/>
<text text-anchor="middle" x="159.5" y="-17.9" font-family="Times Roman,serif" font-size="14.00">b</text>
</g>
</g>
</svg>
