<?xml version="1.0" encoding="UTF-8" standalone="no"?>
<!DOCTYPE svg PUBLIC "-//W3C//DTD SVG 1.1//EN"
 "http://www.w3.org/Graphics/SVG/1.1/DTD/svg11.dtd">
<!-- Generated by graphviz version 2.26.3 (20100126.1600)
 -->
<!-- Title: G Pages: 1 -->
<svg width="152pt" height="414pt"
 viewBox="0.00 0.00 152.00 414.00" xmlns="http://www.w3.org/2000/svg" xmlns:xlink="http://www.w3.org/1999/xlink">
<g id="graph1" class="graph" transform="scale(1 1) rotate(0) translate(4 410)">
<title>G</title>
<polygon fill="white" stroke="white" points="-4,5 -4,-410 149,-410 149,5 -4,5"/>
<!-- q2 -->
<g id="node1" class="node"><title>q2</title>
<ellipse fill="none" stroke="black" cx="117" cy="-387" rx="27" ry="18.3848"/>
<text text-anchor="middle" x="117" y="-383.4" font-family="Times Roman,serif" font-size="14.00">q2</text>
</g>
<!-- q3 -->
<g id="node3" class="node"><title>q3</title>
<ellipse fill="none" stroke="black" cx="27" cy="-295" rx="27" ry="18.3848"/>
<text text-anchor="middle" x="27" y="-291.4" font-family="Times Roman,serif" font-size="14.00">q3</text>
</g>
<!-- q2&#45;&gt;q3 -->
<g id="edge2" class="edge"><title>q2&#45;&gt;q3</title>
<path fill="none" stroke="black" d="M101.733,-371.393C87.2939,-356.634 65.4629,-334.318 49.1189,-317.61"/>
<polygon fill="black" stroke="black" points="51.5367,-315.077 42.0418,-310.376 46.5328,-319.972 51.5367,-315.077"/>
<text text-anchor="middle" x="84.5" y="-337.4" font-family="Times Roman,serif" font-size="14.00">b</text>
</g>
<!-- q0 -->
<g id="node5" class="node"><title>q0</title>
<ellipse fill="none" stroke="black" cx="92" cy="-203" rx="27" ry="18.3848"/>
<text text-anchor="middle" x="92" y="-199.4" font-family="Times Roman,serif" font-size="14.00">q0</text>
</g>
<!-- q2&#45;&gt;q0 -->
<g id="edge4" class="edge"><title>q2&#45;&gt;q0</title>
<path fill="none" stroke="black" d="M114.465,-368.345C110.074,-336.025 101.027,-269.438 95.8536,-231.362"/>
<polygon fill="black" stroke="black" points="99.3188,-230.869 94.5043,-221.431 92.3825,-231.811 99.3188,-230.869"/>
<text text-anchor="middle" x="110.5" y="-291.4" font-family="Times Roman,serif" font-size="14.00">a</text>
</g>
<!-- q3&#45;&gt;q3 -->
<g id="edge16" class="edge"><title>q3&#45;&gt;q3</title>
<path fill="none" stroke="black" d="M51.0743,-303.454C62.2423,-304.377 72,-301.559 72,-295 72,-290.593 67.5952,-287.875 61.3174,-286.846"/>
<polygon fill="black" stroke="black" points="61.1726,-283.34 51.0743,-286.546 60.9674,-290.337 61.1726,-283.34"/>
<text text-anchor="middle" x="76.5" y="-291.4" font-family="Times Roman,serif" font-size="14.00">a</text>
</g>
<!-- q3&#45;&gt;q0 -->
<g id="edge14" class="edge"><title>q3&#45;&gt;q0</title>
<path fill="none" stroke="black" d="M36.8044,-277.741C43.2894,-266.692 52.1921,-252.194 61,-240 64.1695,-235.612 67.7132,-231.083 71.2405,-226.763"/>
<polygon fill="black" stroke="black" points="74.1659,-228.721 77.9004,-218.806 68.798,-224.228 74.1659,-228.721"/>
<text text-anchor="middle" x="65.5" y="-245.4" font-family="Times Roman,serif" font-size="14.00">b</text>
</g>
<!-- q0&#45;&gt;q3 -->
<g id="edge18" class="edge"><title>q0&#45;&gt;q3</title>
<path fill="none" stroke="black" d="M87.0702,-221.437C83.4943,-232.677 77.8918,-246.955 70,-258 65.5914,-264.17 59.9447,-269.976 54.2035,-275.078"/>
<polygon fill="black" stroke="black" points="51.8605,-272.475 46.4234,-281.568 56.3445,-277.85 51.8605,-272.475"/>
<text text-anchor="middle" x="83.5" y="-245.4" font-family="Times Roman,serif" font-size="14.00">b</text>
</g>
<!-- q1 -->
<g id="node6" class="node"><title>q1</title>
<ellipse fill="none" stroke="black" cx="92" cy="-111" rx="27" ry="18.3848"/>
<text text-anchor="middle" x="92" y="-107.4" font-family="Times Roman,serif" font-size="14.00">q1</text>
</g>
<!-- q0&#45;&gt;q1 -->
<g id="edge20" class="edge"><title>q0&#45;&gt;q1</title>
<path fill="none" stroke="black" d="M92,-184.382C92,-171.538 92,-154.216 92,-139.627"/>
<polygon fill="black" stroke="black" points="95.5001,-139.59 92,-129.59 88.5001,-139.59 95.5001,-139.59"/>
<text text-anchor="middle" x="96.5" y="-153.4" font-family="Times Roman,serif" font-size="14.00">a</text>
</g>
<!-- q1&#45;&gt;q2 -->
<g id="edge6" class="edge"><title>q1&#45;&gt;q2</title>
<path fill="none" stroke="black" d="M103.28,-128.14C111.961,-142.416 123.251,-163.633 128,-184 142.206,-244.925 131.467,-318.8 123.515,-358.485"/>
<polygon fill="black" stroke="black" points="120.042,-357.997 121.42,-368.502 126.893,-359.431 120.042,-357.997"/>
<text text-anchor="middle" x="138.5" y="-245.4" font-family="Times Roman,serif" font-size="14.00">b</text>
</g>
<!-- q4 -->
<g id="node9" class="node"><title>q4</title>
<ellipse fill="none" stroke="black" cx="51" cy="-19" rx="27" ry="18.3848"/>
<text text-anchor="middle" x="51" y="-15.4" font-family="Times Roman,serif" font-size="14.00">q4</text>
</g>
<!-- q1&#45;&gt;q4 -->
<g id="edge8" class="edge"><title>q1&#45;&gt;q4</title>
<path fill="none" stroke="black" d="M84.0948,-93.2615C78.1774,-79.9833 69.974,-61.5758 63.2152,-46.4097"/>
<polygon fill="black" stroke="black" points="66.2884,-44.7073 59.0208,-36.998 59.8946,-47.5567 66.2884,-44.7073"/>
<text text-anchor="middle" x="79.5" y="-61.4" font-family="Times Roman,serif" font-size="14.00">a</text>
</g>
<!-- q4&#45;&gt;q3 -->
<g id="edge12" class="edge"><title>q4&#45;&gt;q3</title>
<path fill="none" stroke="black" d="M49.3634,-37.8205C45.2391,-85.2508 34.3988,-209.914 29.4848,-266.424"/>
<polygon fill="black" stroke="black" points="25.9915,-266.197 28.612,-276.462 32.9652,-266.803 25.9915,-266.197"/>
<text text-anchor="middle" x="43.5" y="-153.4" font-family="Times Roman,serif" font-size="14.00">a</text>
</g>
<!-- q4&#45;&gt;q4 -->
<g id="edge10" class="edge"><title>q4&#45;&gt;q4</title>
<path fill="none" stroke="black" d="M75.0743,-27.4544C86.2423,-28.3767 96,-25.5586 96,-19 96,-14.5934 91.5952,-11.8754 85.3174,-10.8458"/>
<polygon fill="black" stroke="black" points="85.1726,-7.34018 75.0743,-10.5456 84.9674,-14.3372 85.1726,-7.34018"/>
<text text-anchor="middle" x="100.5" y="-15.4" font-family="Times Roman,serif" font-size="14.00">b</text>
</g>
</g>
</svg>
