<?xml version="1.0" encoding="UTF-8" standalone="no"?>
<!DOCTYPE svg PUBLIC "-//W3C//DTD SVG 1.1//EN"
 "http://www.w3.org/Graphics/SVG/1.1/DTD/svg11.dtd">
<!-- Generated by graphviz version 2.26.3 (20100126.1600)
 -->
<!-- Title: G Pages: 1 -->
<svg width="184pt" height="322pt"
 viewBox="0.00 0.00 184.00 322.00" xmlns="http://www.w3.org/2000/svg" xmlns:xlink="http://www.w3.org/1999/xlink">
<g id="graph1" class="graph" transform="scale(1 1) rotate(0) translate(4 318)">
<title>G</title>
<polygon fill="white" stroke="white" points="-4,5 -4,-318 181,-318 181,5 -4,5"/>
<!-- q6 -->
<g id="node1" class="node"><title>q6</title>
<ellipse fill="none" stroke="black" cx="76" cy="-295" rx="27" ry="18.3848"/>
<text text-anchor="middle" x="76" y="-291.4" font-family="Times Roman,serif" font-size="14.00">q6</text>
</g>
<!-- q1 -->
<g id="node3" class="node"><title>q1</title>
<ellipse fill="none" stroke="black" cx="27" cy="-203" rx="27" ry="18.3848"/>
<text text-anchor="middle" x="27" y="-199.4" font-family="Times Roman,serif" font-size="14.00">q1</text>
</g>
<!-- q6&#45;&gt;q1 -->
<g id="edge2" class="edge"><title>q6&#45;&gt;q1</title>
<path fill="none" stroke="black" d="M66.5523,-277.261C59.3668,-263.77 49.3611,-244.984 41.2114,-229.683"/>
<polygon fill="black" stroke="black" points="44.2088,-227.865 36.4187,-220.684 38.0305,-231.156 44.2088,-227.865"/>
<text text-anchor="middle" x="60.5" y="-245.4" font-family="Times Roman,serif" font-size="14.00">b</text>
</g>
<!-- q0 -->
<g id="node5" class="node"><title>q0</title>
<ellipse fill="none" stroke="black" cx="126" cy="-203" rx="27" ry="18.3848"/>
<text text-anchor="middle" x="126" y="-199.4" font-family="Times Roman,serif" font-size="14.00">q0</text>
</g>
<!-- q6&#45;&gt;q0 -->
<g id="edge4" class="edge"><title>q6&#45;&gt;q0</title>
<path fill="none" stroke="black" d="M85.6405,-277.261C93.0196,-263.684 103.314,-244.743 111.658,-229.389"/>
<polygon fill="black" stroke="black" points="114.859,-230.83 116.559,-220.372 108.708,-227.487 114.859,-230.83"/>
<text text-anchor="middle" x="109.5" y="-245.4" font-family="Times Roman,serif" font-size="14.00">a</text>
</g>
<!-- q1&#45;&gt;q1 -->
<g id="edge16" class="edge"><title>q1&#45;&gt;q1</title>
<path fill="none" stroke="black" d="M51.0743,-211.454C62.2423,-212.377 72,-209.559 72,-203 72,-198.593 67.5952,-195.875 61.3174,-194.846"/>
<polygon fill="black" stroke="black" points="61.1726,-191.34 51.0743,-194.546 60.9674,-198.337 61.1726,-191.34"/>
<text text-anchor="middle" x="76.5" y="-199.4" font-family="Times Roman,serif" font-size="14.00">a</text>
</g>
<!-- q3 -->
<g id="node9" class="node"><title>q3</title>
<ellipse fill="none" stroke="black" cx="47" cy="-111" rx="27" ry="18.3848"/>
<text text-anchor="middle" x="47" y="-107.4" font-family="Times Roman,serif" font-size="14.00">q3</text>
</g>
<!-- q1&#45;&gt;q3 -->
<g id="edge14" class="edge"><title>q1&#45;&gt;q3</title>
<path fill="none" stroke="black" d="M31.0473,-184.382C33.8395,-171.538 37.6052,-154.216 40.7768,-139.627"/>
<polygon fill="black" stroke="black" points="44.2545,-140.105 42.9587,-129.59 37.4142,-138.618 44.2545,-140.105"/>
<text text-anchor="middle" x="43.5" y="-153.4" font-family="Times Roman,serif" font-size="14.00">b</text>
</g>
<!-- q0&#45;&gt;q3 -->
<g id="edge28" class="edge"><title>q0&#45;&gt;q3</title>
<path fill="none" stroke="black" d="M112.239,-186.975C99.8544,-172.552 81.49,-151.166 67.3979,-134.755"/>
<polygon fill="black" stroke="black" points="70.0382,-132.457 60.8681,-127.15 64.7275,-137.017 70.0382,-132.457"/>
<text text-anchor="middle" x="97.5" y="-153.4" font-family="Times Roman,serif" font-size="14.00">a</text>
</g>
<!-- q4 -->
<g id="node12" class="node"><title>q4</title>
<ellipse fill="none" stroke="black" cx="149" cy="-111" rx="27" ry="18.3848"/>
<text text-anchor="middle" x="149" y="-107.4" font-family="Times Roman,serif" font-size="14.00">q4</text>
</g>
<!-- q0&#45;&gt;q4 -->
<g id="edge26" class="edge"><title>q0&#45;&gt;q4</title>
<path fill="none" stroke="black" d="M123.503,-184.567C122.645,-173.718 122.619,-159.845 126,-148 127.135,-144.023 128.835,-140.056 130.807,-136.277"/>
<polygon fill="black" stroke="black" points="133.999,-137.756 136.1,-127.371 127.982,-134.18 133.999,-137.756"/>
<text text-anchor="middle" x="130.5" y="-153.4" font-family="Times Roman,serif" font-size="14.00">b</text>
</g>
<!-- q5 -->
<g id="node6" class="node"><title>q5</title>
<ellipse fill="none" stroke="black" cx="49" cy="-19" rx="27" ry="18.3848"/>
<text text-anchor="middle" x="49" y="-15.4" font-family="Times Roman,serif" font-size="14.00">q5</text>
</g>
<!-- q5&#45;&gt;q5 -->
<g id="edge6" class="edge"><title>q5&#45;&gt;q5</title>
<path fill="none" stroke="black" d="M73.0743,-27.4544C84.2423,-28.3767 94,-25.5586 94,-19 94,-14.5934 89.5952,-11.8754 83.3174,-10.8458"/>
<polygon fill="black" stroke="black" points="83.1726,-7.34018 73.0743,-10.5456 82.9674,-14.3372 83.1726,-7.34018"/>
<text text-anchor="middle" x="98.5" y="-15.4" font-family="Times Roman,serif" font-size="14.00">b</text>
</g>
<!-- q5&#45;&gt;q3 -->
<g id="edge8" class="edge"><title>q5&#45;&gt;q3</title>
<path fill="none" stroke="black" d="M54.219,-37.3174C56.6254,-48.0066 58.6254,-61.7566 57,-74 56.6142,-76.9065 56.0649,-79.9085 55.4199,-82.8872"/>
<polygon fill="black" stroke="black" points="51.9838,-82.2011 52.9565,-92.7512 58.7752,-83.8972 51.9838,-82.2011"/>
<text text-anchor="middle" x="62.5" y="-61.4" font-family="Times Roman,serif" font-size="14.00">a</text>
</g>
<!-- q3&#45;&gt;q5 -->
<g id="edge24" class="edge"><title>q3&#45;&gt;q5</title>
<path fill="none" stroke="black" d="M47.2971,-92.4146C47.4777,-81.7564 47.7259,-68.1256 48,-56 48.0584,-53.4142 48.1232,-50.7269 48.1909,-48.0339"/>
<polygon fill="black" stroke="black" points="51.6953,-47.9105 48.4591,-37.822 44.6977,-47.7267 51.6953,-47.9105"/>
<text text-anchor="middle" x="52.5" y="-61.4" font-family="Times Roman,serif" font-size="14.00">a</text>
</g>
<!-- q3&#45;&gt;q3 -->
<g id="edge22" class="edge"><title>q3&#45;&gt;q3</title>
<path fill="none" stroke="black" d="M71.0743,-119.454C82.2423,-120.377 92,-117.559 92,-111 92,-106.593 87.5952,-103.875 81.3174,-102.846"/>
<polygon fill="black" stroke="black" points="81.1726,-99.3402 71.0743,-102.546 80.9674,-106.337 81.1726,-99.3402"/>
<text text-anchor="middle" x="96.5" y="-107.4" font-family="Times Roman,serif" font-size="14.00">b</text>
</g>
<!-- q2 -->
<g id="node10" class="node"><title>q2</title>
<ellipse fill="none" stroke="black" cx="149" cy="-19" rx="27" ry="18.3848"/>
<text text-anchor="middle" x="149" y="-15.4" font-family="Times Roman,serif" font-size="14.00">q2</text>
</g>
<!-- q2&#45;&gt;q4 -->
<g id="edge10" class="edge"><title>q2&#45;&gt;q4</title>
<path fill="none" stroke="black" d="M149,-37.5899C149,-50.4275 149,-67.7485 149,-82.3416"/>
<polygon fill="black" stroke="black" points="145.5,-82.3824 149,-92.3824 152.5,-82.3825 145.5,-82.3824"/>
<text text-anchor="middle" x="153.5" y="-61.4" font-family="Times Roman,serif" font-size="14.00">b</text>
</g>
<!-- q2&#45;&gt;q4 -->
<g id="edge12" class="edge"><title>q2&#45;&gt;q4</title>
<path fill="none" stroke="black" d="M154.956,-37.2488C156.61,-43.164 158.177,-49.7996 159,-56 160.053,-63.9304 160.053,-66.0696 159,-74 158.614,-76.9065 158.065,-79.9085 157.42,-82.8872"/>
<polygon fill="black" stroke="black" points="153.984,-82.2011 154.956,-92.7512 160.775,-83.8972 153.984,-82.2011"/>
<text text-anchor="middle" x="163.5" y="-61.4" font-family="Times Roman,serif" font-size="14.00">a</text>
</g>
<!-- q4&#45;&gt;q0 -->
<g id="edge20" class="edge"><title>q4&#45;&gt;q0</title>
<path fill="none" stroke="black" d="M144.431,-129.276C141.219,-142.124 136.857,-159.574 133.182,-174.272"/>
<polygon fill="black" stroke="black" points="129.684,-173.832 130.654,-184.382 136.475,-175.53 129.684,-173.832"/>
<text text-anchor="middle" x="143.5" y="-153.4" font-family="Times Roman,serif" font-size="14.00">a</text>
</g>
<!-- q4&#45;&gt;q2 -->
<g id="edge18" class="edge"><title>q4&#45;&gt;q2</title>
<path fill="none" stroke="black" d="M141.264,-92.8815C139.115,-86.9733 137.076,-80.3089 136,-74 134.655,-66.1139 134.655,-63.8861 136,-56 136.521,-52.9441 137.268,-49.8048 138.144,-46.7085"/>
<polygon fill="black" stroke="black" points="141.499,-47.7107 141.264,-37.1185 134.842,-45.5453 141.499,-47.7107"/>
<text text-anchor="middle" x="140.5" y="-61.4" font-family="Times Roman,serif" font-size="14.00">b</text>
</g>
</g>
</svg>
