<?xml version="1.0" encoding="UTF-8" standalone="no"?>
<!DOCTYPE svg PUBLIC "-//W3C//DTD SVG 1.1//EN"
 "http://www.w3.org/Graphics/SVG/1.1/DTD/svg11.dtd">
<!-- Generated by graphviz version 2.26.3 (20100126.1600)
 -->
<!-- Title: G Pages: 1 -->
<svg width="151pt" height="510pt"
 viewBox="0.00 0.00 151.00 510.00" xmlns="http://www.w3.org/2000/svg" xmlns:xlink="http://www.w3.org/1999/xlink">
<g id="graph1" class="graph" transform="scale(1 1) rotate(0) translate(4 506)">
<title>G</title>
<polygon fill="white" stroke="white" points="-4,5 -4,-506 148,-506 148,5 -4,5"/>
<!-- q6 -->
<g id="node1" class="node"><title>q6</title>
<ellipse fill="none" stroke="black" cx="82" cy="-484" rx="27" ry="18"/>
<text text-anchor="middle" x="82" y="-479.9" font-family="Times Roman,serif" font-size="14.00">q6</text>
</g>
<!-- q6&#45;&gt;q6 -->
<g id="edge2" class="edge"><title>q6&#45;&gt;q6</title>
<path fill="none" stroke="black" d="M106.532,-492.121C117.508,-492.895 127,-490.188 127,-484 127,-479.843 122.715,-477.257 116.574,-476.242"/>
<polygon fill="black" stroke="black" points="116.652,-472.742 106.532,-475.879 116.4,-479.738 116.652,-472.742"/>
<text text-anchor="middle" x="131.5" y="-479.9" font-family="Times Roman,serif" font-size="14.00">b</text>
</g>
<!-- q4 -->
<g id="node4" class="node"><title>q4</title>
<ellipse fill="none" stroke="black" cx="82" cy="-394" rx="27" ry="18"/>
<text text-anchor="middle" x="82" y="-389.9" font-family="Times Roman,serif" font-size="14.00">q4</text>
</g>
<!-- q6&#45;&gt;q4 -->
<g id="edge4" class="edge"><title>q6&#45;&gt;q4</title>
<path fill="none" stroke="black" d="M82,-465.787C82,-453.344 82,-436.605 82,-422.421"/>
<polygon fill="black" stroke="black" points="85.5001,-422.186 82,-412.186 78.5001,-422.186 85.5001,-422.186"/>
<text text-anchor="middle" x="86.5" y="-434.9" font-family="Times Roman,serif" font-size="14.00">a</text>
</g>
<!-- q4&#45;&gt;q4 -->
<g id="edge20" class="edge"><title>q4&#45;&gt;q4</title>
<path fill="none" stroke="black" d="M106.532,-402.121C117.508,-402.895 127,-400.188 127,-394 127,-389.843 122.715,-387.257 116.574,-386.242"/>
<polygon fill="black" stroke="black" points="116.652,-382.742 106.532,-385.879 116.4,-389.738 116.652,-382.742"/>
<text text-anchor="middle" x="131.5" y="-389.9" font-family="Times Roman,serif" font-size="14.00">a</text>
</g>
<!-- q2 -->
<g id="node9" class="node"><title>q2</title>
<ellipse fill="none" stroke="black" cx="27" cy="-304" rx="27" ry="18"/>
<text text-anchor="middle" x="27" y="-299.9" font-family="Times Roman,serif" font-size="14.00">q2</text>
</g>
<!-- q4&#45;&gt;q2 -->
<g id="edge18" class="edge"><title>q4&#45;&gt;q2</title>
<path fill="none" stroke="black" d="M71.6549,-377.072C63.5119,-363.747 52.0275,-344.954 42.7446,-329.764"/>
<polygon fill="black" stroke="black" points="45.4997,-327.56 37.2987,-320.852 39.5267,-331.21 45.4997,-327.56"/>
<text text-anchor="middle" x="63.5" y="-344.9" font-family="Times Roman,serif" font-size="14.00">b</text>
</g>
<!-- q5 -->
<g id="node5" class="node"><title>q5</title>
<ellipse fill="none" stroke="black" cx="36" cy="-214" rx="27" ry="18"/>
<text text-anchor="middle" x="36" y="-209.9" font-family="Times Roman,serif" font-size="14.00">q5</text>
</g>
<!-- q1 -->
<g id="node7" class="node"><title>q1</title>
<ellipse fill="none" stroke="black" cx="39" cy="-120" rx="27" ry="18"/>
<ellipse fill="none" stroke="black" cx="39" cy="-120" rx="31" ry="22"/>
<text text-anchor="middle" x="39" y="-115.9" font-family="Times Roman,serif" font-size="14.00">q1</text>
</g>
<!-- q5&#45;&gt;q1 -->
<g id="edge6" class="edge"><title>q5&#45;&gt;q1</title>
<path fill="none" stroke="black" d="M20.0987,-198.972C14.8796,-193.003 9.72272,-185.72 7,-178 4.3392,-170.455 4.35194,-167.549 7,-160 8.72208,-155.091 11.3281,-150.336 14.3242,-145.923"/>
<polygon fill="black" stroke="black" points="17.1584,-147.978 20.4367,-137.903 11.5912,-143.734 17.1584,-147.978"/>
<text text-anchor="middle" x="11.5" y="-164.9" font-family="Times Roman,serif" font-size="14.00">b</text>
</g>
<!-- q5&#45;&gt;q1 -->
<g id="edge8" class="edge"><title>q5&#45;&gt;q1</title>
<path fill="none" stroke="black" d="M36.5784,-195.876C36.973,-183.512 37.5065,-166.795 37.9724,-152.199"/>
<polygon fill="black" stroke="black" points="41.4758,-152.145 38.2966,-142.039 34.4793,-151.922 41.4758,-152.145"/>
<text text-anchor="middle" x="42.5" y="-164.9" font-family="Times Roman,serif" font-size="14.00">a</text>
</g>
<!-- q1&#45;&gt;q5 -->
<g id="edge16" class="edge"><title>q1&#45;&gt;q5</title>
<path fill="none" stroke="black" d="M45.6427,-141.77C48.1342,-152.656 49.9424,-166.031 48,-178 47.535,-180.865 46.8746,-183.811 46.0998,-186.724"/>
<polygon fill="black" stroke="black" points="42.7366,-185.753 43.1427,-196.34 49.4274,-187.811 42.7366,-185.753"/>
<text text-anchor="middle" x="52.5" y="-164.9" font-family="Times Roman,serif" font-size="14.00">a</text>
</g>
<!-- q0 -->
<g id="node13" class="node"><title>q0</title>
<ellipse fill="none" stroke="black" cx="85" cy="-22" rx="27" ry="18"/>
<ellipse fill="none" stroke="black" cx="85" cy="-22" rx="31" ry="22"/>
<text text-anchor="middle" x="85" y="-17.9" font-family="Times Roman,serif" font-size="14.00">q0</text>
</g>
<!-- q1&#45;&gt;q0 -->
<g id="edge14" class="edge"><title>q1&#45;&gt;q0</title>
<path fill="none" stroke="black" d="M48.9813,-98.7355C55.354,-85.1589 63.7148,-67.3466 70.7769,-52.3014"/>
<polygon fill="black" stroke="black" points="74.1154,-53.4259 75.1962,-42.8864 67.7787,-50.4516 74.1154,-53.4259"/>
<text text-anchor="middle" x="70.5" y="-66.9" font-family="Times Roman,serif" font-size="14.00">b</text>
</g>
<!-- q2&#45;&gt;q5 -->
<g id="edge12" class="edge"><title>q2&#45;&gt;q5</title>
<path fill="none" stroke="black" d="M28.8213,-285.787C30.0656,-273.344 31.7395,-256.605 33.1579,-242.421"/>
<polygon fill="black" stroke="black" points="36.6689,-242.484 34.1814,-232.186 29.7037,-241.788 36.6689,-242.484"/>
<text text-anchor="middle" x="37.5" y="-254.9" font-family="Times Roman,serif" font-size="14.00">a</text>
</g>
<!-- q2&#45;&gt;q2 -->
<g id="edge10" class="edge"><title>q2&#45;&gt;q2</title>
<path fill="none" stroke="black" d="M51.5325,-312.121C62.5078,-312.895 72,-310.188 72,-304 72,-299.843 67.7151,-297.257 61.5743,-296.242"/>
<polygon fill="black" stroke="black" points="61.6524,-292.742 51.5325,-295.879 61.3995,-299.738 61.6524,-292.742"/>
<text text-anchor="middle" x="76.5" y="-299.9" font-family="Times Roman,serif" font-size="14.00">b</text>
</g>
<!-- q0&#45;&gt;q4 -->
<g id="edge24" class="edge"><title>q0&#45;&gt;q4</title>
<path fill="none" stroke="black" d="M93.394,-43.4283C100.315,-63.0398 109,-93.0243 109,-120 109,-304 109,-304 109,-304 109,-325.955 101.538,-349.7 94.459,-367.285"/>
<polygon fill="black" stroke="black" points="91.0775,-366.294 90.395,-376.867 97.5219,-369.028 91.0775,-366.294"/>
<text text-anchor="middle" x="113.5" y="-209.9" font-family="Times Roman,serif" font-size="14.00">a</text>
</g>
<!-- q0&#45;&gt;q0 -->
<g id="edge22" class="edge"><title>q0&#45;&gt;q0</title>
<path fill="none" stroke="black" d="M113.689,-30.9648C124.781,-31.3633 134,-28.375 134,-22 134,-17.7168 129.838,-14.9624 123.743,-13.7368"/>
<polygon fill="black" stroke="black" points="123.908,-10.2399 113.689,-13.0352 123.421,-17.223 123.908,-10.2399"/>
<text text-anchor="middle" x="138.5" y="-17.9" font-family="Times Roman,serif" font-size="14.00">b</text>
</g>
</g>
</svg>
