<?xml version="1.0" encoding="UTF-8" standalone="no"?>
<!DOCTYPE svg PUBLIC "-//W3C//DTD SVG 1.1//EN"
 "http://www.w3.org/Graphics/SVG/1.1/DTD/svg11.dtd">
<!-- Generated by graphviz version 2.26.3 (20100126.1600)
 -->
<!-- Title: G Pages: 1 -->
<svg width="287pt" height="414pt"
 viewBox="0.00 0.00 287.00 414.00" xmlns="http://www.w3.org/2000/svg" xmlns:xlink="http://www.w3.org/1999/xlink">
<g id="graph1" class="graph" transform="scale(1 1) rotate(0) translate(4 410)">
<title>G</title>
<polygon fill="white" stroke="white" points="-4,5 -4,-410 284,-410 284,5 -4,5"/>
<!-- q6 -->
<g id="node1" class="node"><title>q6</title>
<ellipse fill="none" stroke="black" cx="246" cy="-203" rx="27" ry="18.3848"/>
<text text-anchor="middle" x="246" y="-199.4" font-family="Times Roman,serif" font-size="14.00">q6</text>
</g>
<!-- q0 -->
<g id="node3" class="node"><title>q0</title>
<ellipse fill="none" stroke="black" cx="173" cy="-111" rx="27" ry="18.3848"/>
<text text-anchor="middle" x="173" y="-107.4" font-family="Times Roman,serif" font-size="14.00">q0</text>
</g>
<!-- q6&#45;&gt;q0 -->
<g id="edge2" class="edge"><title>q6&#45;&gt;q0</title>
<path fill="none" stroke="black" d="M232.949,-186.552C221.634,-172.292 205.105,-151.461 192.268,-135.282"/>
<polygon fill="black" stroke="black" points="194.895,-132.963 185.938,-127.305 189.412,-137.314 194.895,-132.963"/>
<text text-anchor="middle" x="220.5" y="-153.4" font-family="Times Roman,serif" font-size="14.00">b</text>
</g>
<!-- q3 -->
<g id="node5" class="node"><title>q3</title>
<ellipse fill="none" stroke="black" cx="126" cy="-19" rx="27" ry="18.3848"/>
<text text-anchor="middle" x="126" y="-15.4" font-family="Times Roman,serif" font-size="14.00">q3</text>
</g>
<!-- q6&#45;&gt;q3 -->
<g id="edge4" class="edge"><title>q6&#45;&gt;q3</title>
<path fill="none" stroke="black" d="M248.402,-184.411C251.257,-154.013 252.332,-93.327 222,-56 217.805,-50.8375 185.985,-39.1543 160.111,-30.2875"/>
<polygon fill="black" stroke="black" points="161.15,-26.9441 150.555,-27.0465 158.901,-33.5732 161.15,-26.9441"/>
<text text-anchor="middle" x="252.5" y="-107.4" font-family="Times Roman,serif" font-size="14.00">a</text>
</g>
<!-- q0&#45;&gt;q3 -->
<g id="edge30" class="edge"><title>q0&#45;&gt;q3</title>
<path fill="none" stroke="black" d="M153.317,-98.125C145.347,-91.8384 136.889,-83.5612 132,-74 127.928,-66.0351 126.024,-56.5862 125.25,-47.7872"/>
<polygon fill="black" stroke="black" points="128.735,-47.356 124.797,-37.5201 121.742,-47.6647 128.735,-47.356"/>
<text text-anchor="middle" x="136.5" y="-61.4" font-family="Times Roman,serif" font-size="14.00">b</text>
</g>
<!-- q4 -->
<g id="node18" class="node"><title>q4</title>
<ellipse fill="none" stroke="black" cx="225" cy="-19" rx="27" ry="18.3848"/>
<text text-anchor="middle" x="225" y="-15.4" font-family="Times Roman,serif" font-size="14.00">q4</text>
</g>
<!-- q0&#45;&gt;q4 -->
<g id="edge32" class="edge"><title>q0&#45;&gt;q4</title>
<path fill="none" stroke="black" d="M176.927,-92.5903C179.792,-81.4936 184.349,-67.3577 191,-56 193.92,-51.0126 197.606,-46.1286 201.466,-41.6285"/>
<polygon fill="black" stroke="black" points="204.284,-43.7349 208.473,-34.0035 199.129,-38.9984 204.284,-43.7349"/>
<text text-anchor="middle" x="195.5" y="-61.4" font-family="Times Roman,serif" font-size="14.00">a</text>
</g>
<!-- q3&#45;&gt;q0 -->
<g id="edge28" class="edge"><title>q3&#45;&gt;q0</title>
<path fill="none" stroke="black" d="M135.034,-36.6841C141.919,-50.1609 151.515,-68.9447 159.337,-84.2556"/>
<polygon fill="black" stroke="black" points="156.272,-85.9486 163.938,-93.2615 162.505,-82.7639 156.272,-85.9486"/>
<text text-anchor="middle" x="157.5" y="-61.4" font-family="Times Roman,serif" font-size="14.00">a</text>
</g>
<!-- q3&#45;&gt;q3 -->
<g id="edge26" class="edge"><title>q3&#45;&gt;q3</title>
<path fill="none" stroke="black" d="M150.074,-27.4544C161.242,-28.3767 171,-25.5586 171,-19 171,-14.5934 166.595,-11.8754 160.317,-10.8458"/>
<polygon fill="black" stroke="black" points="160.173,-7.34018 150.074,-10.5456 159.967,-14.3372 160.173,-7.34018"/>
<text text-anchor="middle" x="175.5" y="-15.4" font-family="Times Roman,serif" font-size="14.00">b</text>
</g>
<!-- q5 -->
<g id="node6" class="node"><title>q5</title>
<ellipse fill="none" stroke="black" cx="99" cy="-203" rx="27" ry="18.3848"/>
<text text-anchor="middle" x="99" y="-199.4" font-family="Times Roman,serif" font-size="14.00">q5</text>
</g>
<!-- q5&#45;&gt;q0 -->
<g id="edge8" class="edge"><title>q5&#45;&gt;q0</title>
<path fill="none" stroke="black" d="M117.359,-189.032C125.188,-182.543 134.091,-174.409 141,-166 148.048,-157.422 154.494,-147.102 159.724,-137.731"/>
<polygon fill="black" stroke="black" points="162.886,-139.242 164.527,-128.775 156.717,-135.934 162.886,-139.242"/>
<text text-anchor="middle" x="157.5" y="-153.4" font-family="Times Roman,serif" font-size="14.00">a</text>
</g>
<!-- q5&#45;&gt;q5 -->
<g id="edge6" class="edge"><title>q5&#45;&gt;q5</title>
<path fill="none" stroke="black" d="M123.074,-211.454C134.242,-212.377 144,-209.559 144,-203 144,-198.593 139.595,-195.875 133.317,-194.846"/>
<polygon fill="black" stroke="black" points="133.173,-191.34 123.074,-194.546 132.967,-198.337 133.173,-191.34"/>
<text text-anchor="middle" x="148.5" y="-199.4" font-family="Times Roman,serif" font-size="14.00">b</text>
</g>
<!-- q7 -->
<g id="node9" class="node"><title>q7</title>
<ellipse fill="none" stroke="black" cx="166" cy="-387" rx="27" ry="18.3848"/>
<text text-anchor="middle" x="166" y="-383.4" font-family="Times Roman,serif" font-size="14.00">q7</text>
</g>
<!-- q2 -->
<g id="node11" class="node"><title>q2</title>
<ellipse fill="none" stroke="black" cx="166" cy="-295" rx="27" ry="18.3848"/>
<text text-anchor="middle" x="166" y="-291.4" font-family="Times Roman,serif" font-size="14.00">q2</text>
</g>
<!-- q7&#45;&gt;q2 -->
<g id="edge10" class="edge"><title>q7&#45;&gt;q2</title>
<path fill="none" stroke="black" d="M157.239,-369.361C154.701,-363.367 152.274,-356.531 151,-350 149.469,-342.148 149.469,-339.852 151,-332 151.637,-328.734 152.562,-325.393 153.645,-322.118"/>
<polygon fill="black" stroke="black" points="156.967,-323.231 157.239,-312.639 150.421,-320.749 156.967,-323.231"/>
<text text-anchor="middle" x="155.5" y="-337.4" font-family="Times Roman,serif" font-size="14.00">b</text>
</g>
<!-- q7&#45;&gt;q2 -->
<g id="edge12" class="edge"><title>q7&#45;&gt;q2</title>
<path fill="none" stroke="black" d="M166,-368.382C166,-355.538 166,-338.216 166,-323.627"/>
<polygon fill="black" stroke="black" points="169.5,-323.59 166,-313.59 162.5,-323.59 169.5,-323.59"/>
<text text-anchor="middle" x="170.5" y="-337.4" font-family="Times Roman,serif" font-size="14.00">a</text>
</g>
<!-- q2&#45;&gt;q0 -->
<g id="edge14" class="edge"><title>q2&#45;&gt;q0</title>
<path fill="none" stroke="black" d="M166.71,-276.345C167.931,-244.247 170.438,-178.349 171.891,-140.148"/>
<polygon fill="black" stroke="black" points="175.406,-139.831 172.288,-129.705 168.411,-139.565 175.406,-139.831"/>
<text text-anchor="middle" x="174.5" y="-199.4" font-family="Times Roman,serif" font-size="14.00">b</text>
</g>
<!-- q2&#45;&gt;q5 -->
<g id="edge16" class="edge"><title>q2&#45;&gt;q5</title>
<path fill="none" stroke="black" d="M153.711,-278.126C143.511,-264.12 128.854,-243.994 117.278,-228.098"/>
<polygon fill="black" stroke="black" points="119.927,-225.79 111.211,-219.767 114.269,-229.911 119.927,-225.79"/>
<text text-anchor="middle" x="142.5" y="-245.4" font-family="Times Roman,serif" font-size="14.00">a</text>
</g>
<!-- q1 -->
<g id="node15" class="node"><title>q1</title>
<ellipse fill="none" stroke="black" cx="27" cy="-203" rx="27" ry="18.3848"/>
<text text-anchor="middle" x="27" y="-199.4" font-family="Times Roman,serif" font-size="14.00">q1</text>
</g>
<!-- q1&#45;&gt;q0 -->
<g id="edge18" class="edge"><title>q1&#45;&gt;q0</title>
<path fill="none" stroke="black" d="M46.9945,-190.401C72.082,-174.592 115.291,-147.365 144.006,-129.27"/>
<polygon fill="black" stroke="black" points="146.184,-132.035 152.778,-123.742 142.452,-126.112 146.184,-132.035"/>
<text text-anchor="middle" x="117.5" y="-153.4" font-family="Times Roman,serif" font-size="14.00">b</text>
</g>
<!-- q1&#45;&gt;q3 -->
<g id="edge20" class="edge"><title>q1&#45;&gt;q3</title>
<path fill="none" stroke="black" d="M36.4925,-185.357C53.9371,-152.935 91.182,-83.7123 111.702,-45.5743"/>
<polygon fill="black" stroke="black" points="114.88,-47.0539 116.536,-36.5893 108.716,-43.7372 114.88,-47.0539"/>
<text text-anchor="middle" x="91.5" y="-107.4" font-family="Times Roman,serif" font-size="14.00">a</text>
</g>
<!-- q4&#45;&gt;q6 -->
<g id="edge24" class="edge"><title>q4&#45;&gt;q6</title>
<path fill="none" stroke="black" d="M243.027,-32.9042C249.687,-39.1559 256.468,-47.1274 260,-56 278.08,-101.423 268.794,-117.909 260,-166 259.407,-169.243 258.544,-172.57 257.534,-175.837"/>
<polygon fill="black" stroke="black" points="254.219,-174.713 254.18,-185.308 260.817,-177.049 254.219,-174.713"/>
<text text-anchor="middle" x="274.5" y="-107.4" font-family="Times Roman,serif" font-size="14.00">a</text>
</g>
<!-- q4&#45;&gt;q0 -->
<g id="edge22" class="edge"><title>q4&#45;&gt;q0</title>
<path fill="none" stroke="black" d="M217.895,-37.0465C213.313,-48.0105 206.929,-62.1345 200,-74 197.635,-78.0494 194.928,-82.1965 192.16,-86.1814"/>
<polygon fill="black" stroke="black" points="189.137,-84.3898 186.116,-94.545 194.81,-88.4897 189.137,-84.3898"/>
<text text-anchor="middle" x="213.5" y="-61.4" font-family="Times Roman,serif" font-size="14.00">b</text>
</g>
</g>
</svg>
