<?xml version="1.0" encoding="UTF-8" standalone="no"?>
<!DOCTYPE svg PUBLIC "-//W3C//DTD SVG 1.1//EN"
 "http://www.w3.org/Graphics/SVG/1.1/DTD/svg11.dtd">
<!-- Generated by graphviz version 2.26.3 (20100126.1600)
 -->
<!-- Title: G Pages: 1 -->
<svg width="332pt" height="698pt"
 viewBox="0.00 0.00 332.00 698.00" xmlns="http://www.w3.org/2000/svg" xmlns:xlink="http://www.w3.org/1999/xlink">
<g id="graph1" class="graph" transform="scale(1 1) rotate(0) translate(4 694)">
<title>G</title>
<polygon fill="white" stroke="white" points="-4,5 -4,-694 329,-694 329,5 -4,5"/>
<!-- q0 -->
<g id="node1" class="node"><title>q0</title>
<ellipse fill="none" stroke="black" cx="203" cy="-579" rx="27" ry="18.3848"/>
<text text-anchor="middle" x="203" y="-575.4" font-family="Times Roman,serif" font-size="14.00">q0</text>
</g>
<!-- q0&#45;&gt;q0 -->
<g id="edge4" class="edge"><title>q0&#45;&gt;q0</title>
<path fill="none" stroke="black" d="M227.074,-587.454C238.242,-588.377 248,-585.559 248,-579 248,-574.593 243.595,-571.875 237.317,-570.846"/>
<polygon fill="black" stroke="black" points="237.173,-567.34 227.074,-570.546 236.967,-574.337 237.173,-567.34"/>
<text text-anchor="middle" x="252.5" y="-575.4" font-family="Times Roman,serif" font-size="14.00">a</text>
</g>
<!-- q3 -->
<g id="node3" class="node"><title>q3</title>
<ellipse fill="none" stroke="black" cx="114" cy="-487" rx="27" ry="18.3848"/>
<text text-anchor="middle" x="114" y="-483.4" font-family="Times Roman,serif" font-size="14.00">q3</text>
</g>
<!-- q0&#45;&gt;q3 -->
<g id="edge2" class="edge"><title>q0&#45;&gt;q3</title>
<path fill="none" stroke="black" d="M187.902,-563.393C173.71,-548.723 152.295,-526.586 136.166,-509.913"/>
<polygon fill="black" stroke="black" points="138.64,-507.437 129.172,-502.683 133.609,-512.304 138.64,-507.437"/>
<text text-anchor="middle" x="170.5" y="-529.4" font-family="Times Roman,serif" font-size="14.00">b</text>
</g>
<!-- q2 -->
<g id="node5" class="node"><title>q2</title>
<ellipse fill="none" stroke="black" cx="220" cy="-395" rx="27" ry="18.3848"/>
<text text-anchor="middle" x="220" y="-391.4" font-family="Times Roman,serif" font-size="14.00">q2</text>
</g>
<!-- q3&#45;&gt;q2 -->
<g id="edge12" class="edge"><title>q3&#45;&gt;q2</title>
<path fill="none" stroke="black" d="M133.872,-474.076C143.829,-467.301 155.887,-458.631 166,-450 177.355,-440.309 189.069,-428.619 198.672,-418.513"/>
<polygon fill="black" stroke="black" points="201.283,-420.845 205.563,-411.153 196.174,-416.06 201.283,-420.845"/>
<text text-anchor="middle" x="188.5" y="-437.4" font-family="Times Roman,serif" font-size="14.00">a</text>
</g>
<!-- q10 -->
<g id="node11" class="node"><title>q10</title>
<ellipse fill="none" stroke="black" cx="95" cy="-19" rx="29.9071" ry="18.3848"/>
<text text-anchor="middle" x="95" y="-15.4" font-family="Times Roman,serif" font-size="14.00">q10</text>
</g>
<!-- q3&#45;&gt;q10 -->
<g id="edge10" class="edge"><title>q3&#45;&gt;q10</title>
<path fill="none" stroke="black" d="M87.7856,-481.828C68.0543,-476.729 41.5058,-467.135 24,-450 4.94042,-431.344 0,-421.67 0,-395 0,-395 0,-395 0,-111 0,-84.3296 5.80243,-75.4976 24,-56 33.5981,-45.7162 46.7035,-37.7809 59.0431,-31.9444"/>
<polygon fill="black" stroke="black" points="60.5177,-35.1194 68.2592,-27.8861 57.6967,-28.713 60.5177,-35.1194"/>
<text text-anchor="middle" x="4.5" y="-245.4" font-family="Times Roman,serif" font-size="14.00">b</text>
</g>
<!-- q4 -->
<g id="node7" class="node"><title>q4</title>
<ellipse fill="none" stroke="black" cx="256" cy="-299" rx="27" ry="18.3848"/>
<ellipse fill="none" stroke="black" cx="256" cy="-299" rx="31" ry="22.3848"/>
<text text-anchor="middle" x="256" y="-295.4" font-family="Times Roman,serif" font-size="14.00">q4</text>
</g>
<!-- q2&#45;&gt;q4 -->
<g id="edge6" class="edge"><title>q2&#45;&gt;q4</title>
<path fill="none" stroke="black" d="M231.036,-377.789C234.587,-371.711 238.298,-364.715 241,-358 244.403,-349.543 247.216,-340.088 249.45,-331.267"/>
<polygon fill="black" stroke="black" points="252.911,-331.837 251.807,-321.3 246.099,-330.226 252.911,-331.837"/>
<text text-anchor="middle" x="250.5" y="-345.4" font-family="Times Roman,serif" font-size="14.00">b</text>
</g>
<!-- q9 -->
<g id="node9" class="node"><title>q9</title>
<ellipse fill="none" stroke="black" cx="193" cy="-203" rx="27" ry="18.3848"/>
<text text-anchor="middle" x="193" y="-199.4" font-family="Times Roman,serif" font-size="14.00">q9</text>
</g>
<!-- q2&#45;&gt;q9 -->
<g id="edge8" class="edge"><title>q2&#45;&gt;q9</title>
<path fill="none" stroke="black" d="M216.383,-376.447C213.589,-361.722 209.747,-340.593 207,-322 202.465,-291.305 198.462,-255.982 195.911,-231.843"/>
<polygon fill="black" stroke="black" points="199.361,-231.18 194.844,-221.596 192.398,-231.905 199.361,-231.18"/>
<text text-anchor="middle" x="211.5" y="-295.4" font-family="Times Roman,serif" font-size="14.00">a</text>
</g>
<!-- q4&#45;&gt;q2 -->
<g id="edge16" class="edge"><title>q4&#45;&gt;q2</title>
<path fill="none" stroke="black" d="M242.218,-319.638C238.467,-325.965 234.7,-333.085 232,-340 228.74,-348.349 226.276,-357.775 224.456,-366.435"/>
<polygon fill="black" stroke="black" points="220.973,-366.016 222.545,-376.493 227.85,-367.323 220.973,-366.016"/>
<text text-anchor="middle" x="236.5" y="-345.4" font-family="Times Roman,serif" font-size="14.00">a</text>
</g>
<!-- q4&#45;&gt;q9 -->
<g id="edge14" class="edge"><title>q4&#45;&gt;q9</title>
<path fill="none" stroke="black" d="M242.639,-278.641C233.098,-264.102 220.189,-244.431 209.927,-228.793"/>
<polygon fill="black" stroke="black" points="212.649,-226.562 204.236,-220.121 206.796,-230.402 212.649,-226.562"/>
<text text-anchor="middle" x="232.5" y="-245.4" font-family="Times Roman,serif" font-size="14.00">b</text>
</g>
<!-- q9&#45;&gt;q3 -->
<g id="edge26" class="edge"><title>q9&#45;&gt;q3</title>
<path fill="none" stroke="black" d="M188.837,-221.471C179.369,-262.804 154.946,-365.742 128,-450 126.996,-453.14 125.876,-456.403 124.719,-459.633"/>
<polygon fill="black" stroke="black" points="121.416,-458.473 121.217,-469.066 127.979,-460.91 121.416,-458.473"/>
<text text-anchor="middle" x="163.5" y="-345.4" font-family="Times Roman,serif" font-size="14.00">b</text>
</g>
<!-- q5 -->
<g id="node15" class="node"><title>q5</title>
<ellipse fill="none" stroke="black" cx="193" cy="-111" rx="27" ry="18.3848"/>
<text text-anchor="middle" x="193" y="-107.4" font-family="Times Roman,serif" font-size="14.00">q5</text>
</g>
<!-- q9&#45;&gt;q5 -->
<g id="edge28" class="edge"><title>q9&#45;&gt;q5</title>
<path fill="none" stroke="black" d="M193,-184.382C193,-171.538 193,-154.216 193,-139.627"/>
<polygon fill="black" stroke="black" points="196.5,-139.59 193,-129.59 189.5,-139.59 196.5,-139.59"/>
<text text-anchor="middle" x="197.5" y="-153.4" font-family="Times Roman,serif" font-size="14.00">a</text>
</g>
<!-- q10&#45;&gt;q3 -->
<g id="edge30" class="edge"><title>q10&#45;&gt;q3</title>
<path fill="none" stroke="black" d="M77.8981,-34.4773C61.1084,-51.45 38,-80.3734 38,-111 38,-395 38,-395 38,-395 38,-421.67 45.1902,-429.294 62,-450 68.1541,-457.581 76.2333,-464.327 84.1829,-469.914"/>
<polygon fill="black" stroke="black" points="82.3864,-472.922 92.6609,-475.508 86.2413,-467.079 82.3864,-472.922"/>
<text text-anchor="middle" x="42.5" y="-245.4" font-family="Times Roman,serif" font-size="14.00">b</text>
</g>
<!-- q10&#45;&gt;q3 -->
<g id="edge32" class="edge"><title>q10&#45;&gt;q3</title>
<path fill="none" stroke="black" d="M88.8837,-37.4467C83.3294,-55.8589 76,-85.0682 76,-111 76,-395 76,-395 76,-395 76,-418.84 87.0349,-443.702 97.2117,-461.562"/>
<polygon fill="black" stroke="black" points="94.2545,-463.436 102.392,-470.221 100.261,-459.842 94.2545,-463.436"/>
<text text-anchor="middle" x="80.5" y="-245.4" font-family="Times Roman,serif" font-size="14.00">a</text>
</g>
<!-- q10&#45;&gt;q3 -->
<g id="edge34" class="edge"><title>q10&#45;&gt;q3</title>
<path fill="none" stroke="black" d="M101.116,-37.4467C106.671,-55.8589 114,-85.0682 114,-111 114,-395 114,-395 114,-395 114,-416.13 114,-439.99 114,-458.116"/>
<polygon fill="black" stroke="black" points="110.5,-458.322 114,-468.322 117.5,-458.322 110.5,-458.322"/>
<text text-anchor="middle" x="118.5" y="-245.4" font-family="Times Roman,serif" font-size="14.00">b</text>
</g>
<!-- q10&#45;&gt;q10 -->
<g id="edge36" class="edge"><title>q10&#45;&gt;q10</title>
<path fill="none" stroke="black" d="M121.655,-27.5218C133.154,-28.2195 143,-25.3789 143,-19 143,-14.6145 138.346,-11.9014 131.701,-10.8607"/>
<polygon fill="black" stroke="black" points="131.781,-7.3613 121.655,-10.4782 131.514,-14.3562 131.781,-7.3613"/>
<text text-anchor="middle" x="147.5" y="-15.4" font-family="Times Roman,serif" font-size="14.00">a</text>
</g>
<!-- q5&#45;&gt;q4 -->
<g id="edge18" class="edge"><title>q5&#45;&gt;q4</title>
<path fill="none" stroke="black" d="M203.046,-128.504C211.01,-142.991 221.939,-164.314 229,-184 238.727,-211.119 245.909,-243.106 250.41,-266.451"/>
<polygon fill="black" stroke="black" points="247.014,-267.332 252.289,-276.52 253.895,-266.048 247.014,-267.332"/>
<text text-anchor="middle" x="244.5" y="-199.4" font-family="Times Roman,serif" font-size="14.00">b</text>
</g>
<!-- q5&#45;&gt;q10 -->
<g id="edge20" class="edge"><title>q5&#45;&gt;q10</title>
<path fill="none" stroke="black" d="M176.817,-95.8081C161.165,-81.1144 137.245,-58.659 119.305,-41.8171"/>
<polygon fill="black" stroke="black" points="121.221,-38.8146 111.534,-34.522 116.43,-43.9182 121.221,-38.8146"/>
<text text-anchor="middle" x="156.5" y="-61.4" font-family="Times Roman,serif" font-size="14.00">a</text>
</g>
<!-- q6 -->
<g id="node18" class="node"><title>q6</title>
<ellipse fill="none" stroke="black" cx="281" cy="-671" rx="27" ry="18.3848"/>
<text text-anchor="middle" x="281" y="-667.4" font-family="Times Roman,serif" font-size="14.00">q6</text>
</g>
<!-- q6&#45;&gt;q0 -->
<g id="edge22" class="edge"><title>q6&#45;&gt;q0</title>
<path fill="none" stroke="black" d="M267.413,-654.975C255.296,-640.683 237.383,-619.554 223.52,-603.203"/>
<polygon fill="black" stroke="black" points="225.829,-600.514 216.693,-595.15 220.49,-605.041 225.829,-600.514"/>
<text text-anchor="middle" x="252.5" y="-621.4" font-family="Times Roman,serif" font-size="14.00">b</text>
</g>
<!-- q6&#45;&gt;q10 -->
<g id="edge24" class="edge"><title>q6&#45;&gt;q10</title>
<path fill="none" stroke="black" d="M291.571,-653.721C301.552,-635.735 315,-606.415 315,-579 315,-579 315,-579 315,-111 315,-72.1757 196.909,-40.8572 133.766,-26.8863"/>
<polygon fill="black" stroke="black" points="134.276,-23.4155 123.761,-24.7159 132.792,-30.2564 134.276,-23.4155"/>
<text text-anchor="middle" x="319.5" y="-345.4" font-family="Times Roman,serif" font-size="14.00">a</text>
</g>
</g>
</svg>
