<?xml version="1.0" encoding="UTF-8" standalone="no"?>
<!DOCTYPE svg PUBLIC "-//W3C//DTD SVG 1.1//EN"
 "http://www.w3.org/Graphics/SVG/1.1/DTD/svg11.dtd">
<!-- Generated by graphviz version 2.26.3 (20100126.1600)
 -->
<!-- Title: G Pages: 1 -->
<svg width="132pt" height="322pt"
 viewBox="0.00 0.00 132.00 322.00" xmlns="http://www.w3.org/2000/svg" xmlns:xlink="http://www.w3.org/1999/xlink">
<g id="graph1" class="graph" transform="scale(1 1) rotate(0) translate(4 318)">
<title>G</title>
<polygon fill="white" stroke="white" points="-4,5 -4,-318 129,-318 129,5 -4,5"/>
<!-- q1 -->
<g id="node1" class="node"><title>q1</title>
<ellipse fill="none" stroke="black" cx="80" cy="-292" rx="27" ry="18"/>
<ellipse fill="none" stroke="black" cx="80" cy="-292" rx="31" ry="22"/>
<text text-anchor="middle" x="80" y="-287.9" font-family="Times Roman,serif" font-size="14.00">q1</text>
</g>
<!-- q0 -->
<g id="node3" class="node"><title>q0</title>
<ellipse fill="none" stroke="darkred" cx="48" cy="-198" rx="27" ry="18"/>
<text text-anchor="middle" x="48" y="-193.9" font-family="Times Roman,serif" font-size="14.00">q0</text>
</g>
<!-- q1&#45;&gt;q0 -->
<g id="edge2" class="edge"><title>q1&#45;&gt;q0</title>
<path fill="none" stroke="black" d="M62.0947,-273.978C56.8645,-267.568 51.8041,-259.955 49,-252 46.1505,-243.917 45.2084,-234.721 45.1749,-226.239"/>
<polygon fill="black" stroke="black" points="48.6809,-226.132 45.5431,-216.012 41.6854,-225.88 48.6809,-226.132"/>
<text text-anchor="middle" x="53.5" y="-238.9" font-family="Times Roman,serif" font-size="14.00">b</text>
</g>
<!-- q1&#45;&gt;q0 -->
<g id="edge4" class="edge"><title>q1&#45;&gt;q0</title>
<path fill="none" stroke="black" d="M72.5781,-270.198C68.0319,-256.844 62.1738,-239.635 57.3171,-225.369"/>
<polygon fill="black" stroke="black" points="60.5268,-223.937 53.9908,-215.598 53.9002,-226.192 60.5268,-223.937"/>
<text text-anchor="middle" x="69.5" y="-238.9" font-family="Times Roman,serif" font-size="14.00">a</text>
</g>
<!-- q0&#45;&gt;q0 -->
<g id="edge16" class="edge"><title>q0&#45;&gt;q0</title>
<path fill="none" stroke="black" d="M72.5325,-206.121C83.5078,-206.895 93,-204.188 93,-198 93,-193.843 88.7151,-191.257 82.5743,-190.242"/>
<polygon fill="black" stroke="black" points="82.6524,-186.742 72.5325,-189.879 82.3995,-193.738 82.6524,-186.742"/>
<text text-anchor="middle" x="97.5" y="-193.9" font-family="Times Roman,serif" font-size="14.00">a</text>
</g>
<!-- q3 -->
<g id="node8" class="node"><title>q3</title>
<ellipse fill="none" stroke="black" cx="27" cy="-108" rx="27" ry="18"/>
<text text-anchor="middle" x="27" y="-103.9" font-family="Times Roman,serif" font-size="14.00">q3</text>
</g>
<!-- q0&#45;&gt;q3 -->
<g id="edge14" class="edge"><title>q0&#45;&gt;q3</title>
<path fill="none" stroke="black" d="M33.9972,-182.277C29.5862,-176.343 25.2741,-169.261 23,-162 20.4035,-153.709 20.2031,-144.366 21.0072,-135.812"/>
<polygon fill="black" stroke="black" points="24.4757,-136.28 22.3926,-125.892 17.543,-135.311 24.4757,-136.28"/>
<text text-anchor="middle" x="27.5" y="-148.9" font-family="Times Roman,serif" font-size="14.00">b</text>
</g>
<!-- q4 -->
<g id="node5" class="node"><title>q4</title>
<ellipse fill="none" stroke="black" cx="90" cy="-18" rx="27" ry="18"/>
<text text-anchor="middle" x="90" y="-13.9" font-family="Times Roman,serif" font-size="14.00">q4</text>
</g>
<!-- q4&#45;&gt;q1 -->
<g id="edge6" class="edge"><title>q4&#45;&gt;q1</title>
<path fill="none" stroke="black" d="M95.4456,-35.9055C105.287,-70.8279 123.872,-150.362 111,-216 107.911,-231.753 101.537,-248.36 95.368,-262.017"/>
<polygon fill="black" stroke="black" points="92.0502,-260.848 90.9619,-271.387 98.3847,-263.827 92.0502,-260.848"/>
<text text-anchor="middle" x="119.5" y="-148.9" font-family="Times Roman,serif" font-size="14.00">b</text>
</g>
<!-- q4&#45;&gt;q0 -->
<g id="edge8" class="edge"><title>q4&#45;&gt;q0</title>
<path fill="none" stroke="black" d="M85.8362,-35.8447C78.4897,-67.3297 63.1803,-132.942 54.455,-170.336"/>
<polygon fill="black" stroke="black" points="51.0446,-169.549 52.1807,-180.083 57.8615,-171.14 51.0446,-169.549"/>
<text text-anchor="middle" x="77.5" y="-103.9" font-family="Times Roman,serif" font-size="14.00">a</text>
</g>
<!-- q3&#45;&gt;q0 -->
<g id="edge10" class="edge"><title>q3&#45;&gt;q0</title>
<path fill="none" stroke="black" d="M31.1717,-125.879C34.1043,-138.447 38.0875,-155.518 41.4424,-169.896"/>
<polygon fill="black" stroke="black" points="38.0695,-170.844 43.7503,-179.787 44.8864,-169.253 38.0695,-170.844"/>
<text text-anchor="middle" x="44.5" y="-148.9" font-family="Times Roman,serif" font-size="14.00">b</text>
</g>
<!-- q3&#45;&gt;q4 -->
<g id="edge12" class="edge"><title>q3&#45;&gt;q4</title>
<path fill="none" stroke="black" d="M38.5552,-91.4926C48.0575,-77.9179 61.6733,-58.4668 72.5105,-42.985"/>
<polygon fill="black" stroke="black" points="75.6507,-44.6022 78.5181,-34.4027 69.9161,-40.5879 75.6507,-44.6022"/>
<text text-anchor="middle" x="68.5" y="-58.9" font-family="Times Roman,serif" font-size="14.00">a</text>
</g>
</g>
</svg>
