<?xml version="1.0" encoding="UTF-8" standalone="no"?>
<!DOCTYPE svg PUBLIC "-//W3C//DTD SVG 1.1//EN"
 "http://www.w3.org/Graphics/SVG/1.1/DTD/svg11.dtd">
<!-- Generated by graphviz version 2.26.3 (20100126.1600)
 -->
<!-- Title: G Pages: 1 -->
<svg width="214pt" height="322pt"
 viewBox="0.00 0.00 214.00 322.00" xmlns="http://www.w3.org/2000/svg" xmlns:xlink="http://www.w3.org/1999/xlink">
<g id="graph1" class="graph" transform="scale(1 1) rotate(0) translate(4 318)">
<title>G</title>
<polygon fill="white" stroke="white" points="-4,5 -4,-318 211,-318 211,5 -4,5"/>
<!-- q5 -->
<g id="node1" class="node"><title>q5</title>
<ellipse fill="none" stroke="black" cx="37" cy="-295" rx="27" ry="18.3848"/>
<text text-anchor="middle" x="37" y="-291.4" font-family="Times Roman,serif" font-size="14.00">q5</text>
</g>
<!-- q5&#45;&gt;q5 -->
<g id="edge4" class="edge"><title>q5&#45;&gt;q5</title>
<path fill="none" stroke="black" d="M61.0743,-303.454C72.2423,-304.377 82,-301.559 82,-295 82,-290.593 77.5952,-287.875 71.3174,-286.846"/>
<polygon fill="black" stroke="black" points="71.1726,-283.34 61.0743,-286.546 70.9674,-290.337 71.1726,-283.34"/>
<text text-anchor="middle" x="86.5" y="-291.4" font-family="Times Roman,serif" font-size="14.00">a</text>
</g>
<!-- q2 -->
<g id="node3" class="node"><title>q2</title>
<ellipse fill="none" stroke="black" cx="37" cy="-203" rx="27" ry="18.3848"/>
<text text-anchor="middle" x="37" y="-199.4" font-family="Times Roman,serif" font-size="14.00">q2</text>
</g>
<!-- q5&#45;&gt;q2 -->
<g id="edge2" class="edge"><title>q5&#45;&gt;q2</title>
<path fill="none" stroke="black" d="M37,-276.382C37,-263.538 37,-246.216 37,-231.627"/>
<polygon fill="black" stroke="black" points="40.5001,-231.59 37,-221.59 33.5001,-231.59 40.5001,-231.59"/>
<text text-anchor="middle" x="41.5" y="-245.4" font-family="Times Roman,serif" font-size="14.00">b</text>
</g>
<!-- q2&#45;&gt;q2 -->
<g id="edge8" class="edge"><title>q2&#45;&gt;q2</title>
<path fill="none" stroke="black" d="M61.0743,-211.454C72.2423,-212.377 82,-209.559 82,-203 82,-198.593 77.5952,-195.875 71.3174,-194.846"/>
<polygon fill="black" stroke="black" points="71.1726,-191.34 61.0743,-194.546 70.9674,-198.337 71.1726,-191.34"/>
<text text-anchor="middle" x="86.5" y="-199.4" font-family="Times Roman,serif" font-size="14.00">a</text>
</g>
<!-- q1 -->
<g id="node6" class="node"><title>q1</title>
<ellipse fill="none" stroke="black" cx="60" cy="-111" rx="27" ry="18.3848"/>
<text text-anchor="middle" x="60" y="-107.4" font-family="Times Roman,serif" font-size="14.00">q1</text>
</g>
<!-- q2&#45;&gt;q1 -->
<g id="edge6" class="edge"><title>q2&#45;&gt;q1</title>
<path fill="none" stroke="black" d="M42.7537,-184.631C44.5298,-178.71 46.4299,-172.101 48,-166 50.2167,-157.387 52.3737,-147.948 54.2334,-139.358"/>
<polygon fill="black" stroke="black" points="57.6915,-139.922 56.3384,-129.414 50.8433,-138.472 57.6915,-139.922"/>
<text text-anchor="middle" x="55.5" y="-153.4" font-family="Times Roman,serif" font-size="14.00">b</text>
</g>
<!-- q1&#45;&gt;q2 -->
<g id="edge12" class="edge"><title>q1&#45;&gt;q2</title>
<path fill="none" stroke="black" d="M48.1326,-127.927C44.5148,-133.982 40.9745,-141.036 39,-148 36.6542,-156.273 35.7106,-165.527 35.4732,-174.05"/>
<polygon fill="black" stroke="black" points="31.9738,-174.333 35.4978,-184.325 38.9737,-174.316 31.9738,-174.333"/>
<text text-anchor="middle" x="43.5" y="-153.4" font-family="Times Roman,serif" font-size="14.00">a</text>
</g>
<!-- q3 -->
<g id="node9" class="node"><title>q3</title>
<ellipse fill="none" stroke="black" cx="27" cy="-19" rx="27" ry="18.3848"/>
<text text-anchor="middle" x="27" y="-15.4" font-family="Times Roman,serif" font-size="14.00">q3</text>
</g>
<!-- q1&#45;&gt;q3 -->
<g id="edge10" class="edge"><title>q1&#45;&gt;q3</title>
<path fill="none" stroke="black" d="M53.4803,-92.8238C48.7797,-79.7191 42.3481,-61.7885 37.0005,-46.8803"/>
<polygon fill="black" stroke="black" points="40.1771,-45.3695 33.5062,-37.1385 33.5881,-47.733 40.1771,-45.3695"/>
<text text-anchor="middle" x="50.5" y="-61.4" font-family="Times Roman,serif" font-size="14.00">b</text>
</g>
<!-- q3&#45;&gt;q2 -->
<g id="edge20" class="edge"><title>q3&#45;&gt;q2</title>
<path fill="none" stroke="black" d="M22.129,-37.5175C16.9827,-59.5987 10.2228,-97.5927 15,-130 17.2612,-145.34 22.0594,-161.926 26.5994,-175.406"/>
<polygon fill="black" stroke="black" points="23.3641,-176.757 29.9745,-185.037 29.9702,-174.442 23.3641,-176.757"/>
<text text-anchor="middle" x="19.5" y="-107.4" font-family="Times Roman,serif" font-size="14.00">a</text>
</g>
<!-- q3&#45;&gt;q3 -->
<g id="edge18" class="edge"><title>q3&#45;&gt;q3</title>
<path fill="none" stroke="black" d="M51.0743,-27.4544C62.2423,-28.3767 72,-25.5586 72,-19 72,-14.5934 67.5952,-11.8754 61.3174,-10.8458"/>
<polygon fill="black" stroke="black" points="61.1726,-7.34018 51.0743,-10.5456 60.9674,-14.3372 61.1726,-7.34018"/>
<text text-anchor="middle" x="76.5" y="-15.4" font-family="Times Roman,serif" font-size="14.00">b</text>
</g>
<!-- q4 -->
<g id="node11" class="node"><title>q4</title>
<ellipse fill="none" stroke="black" cx="136" cy="-203" rx="27" ry="18.3848"/>
<text text-anchor="middle" x="136" y="-199.4" font-family="Times Roman,serif" font-size="14.00">q4</text>
</g>
<!-- q4&#45;&gt;q1 -->
<g id="edge14" class="edge"><title>q4&#45;&gt;q1</title>
<path fill="none" stroke="black" d="M122.413,-186.552C110.633,-172.292 93.4246,-151.461 80.0594,-135.282"/>
<polygon fill="black" stroke="black" points="82.5369,-132.786 73.4696,-127.305 77.1401,-137.244 82.5369,-132.786"/>
<text text-anchor="middle" x="108.5" y="-153.4" font-family="Times Roman,serif" font-size="14.00">b</text>
</g>
<!-- q0 -->
<g id="node14" class="node"><title>q0</title>
<ellipse fill="none" stroke="black" cx="152" cy="-111" rx="27" ry="18.3848"/>
<text text-anchor="middle" x="152" y="-107.4" font-family="Times Roman,serif" font-size="14.00">q0</text>
</g>
<!-- q4&#45;&gt;q0 -->
<g id="edge16" class="edge"><title>q4&#45;&gt;q0</title>
<path fill="none" stroke="black" d="M134.664,-184.482C134.301,-173.727 134.551,-159.977 137,-148 137.666,-144.74 138.61,-141.402 139.704,-138.13"/>
<polygon fill="black" stroke="black" points="143.025,-139.244 143.308,-128.653 136.482,-136.756 143.025,-139.244"/>
<text text-anchor="middle" x="141.5" y="-153.4" font-family="Times Roman,serif" font-size="14.00">a</text>
</g>
<!-- q0&#45;&gt;q4 -->
<g id="edge22" class="edge"><title>q0&#45;&gt;q4</title>
<path fill="none" stroke="black" d="M150.686,-129.691C149.754,-140.383 148.26,-154.012 146,-166 145.457,-168.881 144.804,-171.867 144.097,-174.835"/>
<polygon fill="black" stroke="black" points="140.664,-174.129 141.553,-184.687 147.442,-175.879 140.664,-174.129"/>
<text text-anchor="middle" x="152.5" y="-153.4" font-family="Times Roman,serif" font-size="14.00">b</text>
</g>
<!-- q0&#45;&gt;q0 -->
<g id="edge24" class="edge"><title>q0&#45;&gt;q0</title>
<path fill="none" stroke="black" d="M176.074,-119.454C187.242,-120.377 197,-117.559 197,-111 197,-106.593 192.595,-103.875 186.317,-102.846"/>
<polygon fill="black" stroke="black" points="186.173,-99.3402 176.074,-102.546 185.967,-106.337 186.173,-99.3402"/>
<text text-anchor="middle" x="201.5" y="-107.4" font-family="Times Roman,serif" font-size="14.00">a</text>
</g>
</g>
</svg>
