<?xml version="1.0" encoding="UTF-8" standalone="no"?>
<!DOCTYPE svg PUBLIC "-//W3C//DTD SVG 1.1//EN"
 "http://www.w3.org/Graphics/SVG/1.1/DTD/svg11.dtd">
<!-- Generated by graphviz version 2.26.3 (20100126.1600)
 -->
<!-- Title: G Pages: 1 -->
<svg width="200pt" height="420pt"
 viewBox="0.00 0.00 200.00 420.00" xmlns="http://www.w3.org/2000/svg" xmlns:xlink="http://www.w3.org/1999/xlink">
<g id="graph1" class="graph" transform="scale(1 1) rotate(0) translate(4 416)">
<title>G</title>
<polygon fill="white" stroke="white" points="-4,5 -4,-416 197,-416 197,5 -4,5"/>
<!-- q6 -->
<g id="node1" class="node"><title>q6</title>
<ellipse fill="none" stroke="black" cx="126" cy="-394" rx="27" ry="18"/>
<text text-anchor="middle" x="126" y="-389.9" font-family="Times Roman,serif" font-size="14.00">q6</text>
</g>
<!-- q6&#45;&gt;q6 -->
<g id="edge2" class="edge"><title>q6&#45;&gt;q6</title>
<path fill="none" stroke="black" d="M150.532,-402.121C161.508,-402.895 171,-400.188 171,-394 171,-389.843 166.715,-387.257 160.574,-386.242"/>
<polygon fill="black" stroke="black" points="160.652,-382.742 150.532,-385.879 160.4,-389.738 160.652,-382.742"/>
<text text-anchor="middle" x="175.5" y="-389.9" font-family="Times Roman,serif" font-size="14.00">b</text>
</g>
<!-- q4 -->
<g id="node4" class="node"><title>q4</title>
<ellipse fill="none" stroke="black" cx="126" cy="-304" rx="27" ry="18"/>
<text text-anchor="middle" x="126" y="-299.9" font-family="Times Roman,serif" font-size="14.00">q4</text>
</g>
<!-- q6&#45;&gt;q4 -->
<g id="edge4" class="edge"><title>q6&#45;&gt;q4</title>
<path fill="none" stroke="black" d="M126,-375.787C126,-363.344 126,-346.605 126,-332.421"/>
<polygon fill="black" stroke="black" points="129.5,-332.186 126,-322.186 122.5,-332.186 129.5,-332.186"/>
<text text-anchor="middle" x="130.5" y="-344.9" font-family="Times Roman,serif" font-size="14.00">a</text>
</g>
<!-- q1 -->
<g id="node7" class="node"><title>q1</title>
<ellipse fill="none" stroke="black" cx="59" cy="-210" rx="27" ry="18"/>
<ellipse fill="none" stroke="black" cx="59" cy="-210" rx="31" ry="22"/>
<text text-anchor="middle" x="59" y="-205.9" font-family="Times Roman,serif" font-size="14.00">q1</text>
</g>
<!-- q4&#45;&gt;q1 -->
<g id="edge20" class="edge"><title>q4&#45;&gt;q1</title>
<path fill="none" stroke="black" d="M114.329,-287.626C104.65,-274.046 90.6624,-254.422 79.1737,-238.303"/>
<polygon fill="black" stroke="black" points="81.7457,-235.882 73.0913,-229.77 76.0454,-239.945 81.7457,-235.882"/>
<text text-anchor="middle" x="103.5" y="-254.9" font-family="Times Roman,serif" font-size="14.00">a</text>
</g>
<!-- q2 -->
<g id="node9" class="node"><title>q2</title>
<ellipse fill="none" stroke="black" cx="59" cy="-18" rx="27" ry="18"/>
<text text-anchor="middle" x="59" y="-13.9" font-family="Times Roman,serif" font-size="14.00">q2</text>
</g>
<!-- q4&#45;&gt;q2 -->
<g id="edge18" class="edge"><title>q4&#45;&gt;q2</title>
<path fill="none" stroke="black" d="M136.594,-287.328C158.989,-249.778 206.215,-156.657 170,-90 153.859,-60.291 119.583,-40.9428 93.362,-29.8627"/>
<polygon fill="black" stroke="black" points="94.3462,-26.4866 83.7618,-26.0167 91.7429,-32.9846 94.3462,-26.4866"/>
<text text-anchor="middle" x="187.5" y="-156.9" font-family="Times Roman,serif" font-size="14.00">b</text>
</g>
<!-- q5 -->
<g id="node5" class="node"><title>q5</title>
<ellipse fill="none" stroke="black" cx="27" cy="-112" rx="27" ry="18"/>
<text text-anchor="middle" x="27" y="-107.9" font-family="Times Roman,serif" font-size="14.00">q5</text>
</g>
<!-- q5&#45;&gt;q1 -->
<g id="edge6" class="edge"><title>q5&#45;&gt;q1</title>
<path fill="none" stroke="black" d="M24.4351,-130.028C23.4568,-141.747 23.4881,-157.175 28,-170 29.6619,-174.724 32.1206,-179.328 34.9389,-183.63"/>
<polygon fill="black" stroke="black" points="32.3404,-186.004 41.0887,-191.98 37.9768,-181.853 32.3404,-186.004"/>
<text text-anchor="middle" x="32.5" y="-156.9" font-family="Times Roman,serif" font-size="14.00">b</text>
</g>
<!-- q5&#45;&gt;q2 -->
<g id="edge8" class="edge"><title>q5&#45;&gt;q2</title>
<path fill="none" stroke="black" d="M33.019,-94.3193C37.712,-80.5334 44.3127,-61.1441 49.6863,-45.3589"/>
<polygon fill="black" stroke="black" points="53.0986,-46.1959 53.008,-35.6014 46.4721,-43.94 53.0986,-46.1959"/>
<text text-anchor="middle" x="50.5" y="-58.9" font-family="Times Roman,serif" font-size="14.00">a</text>
</g>
<!-- q1&#45;&gt;q5 -->
<g id="edge16" class="edge"><title>q1&#45;&gt;q5</title>
<path fill="none" stroke="black" d="M51.8982,-188.251C47.1856,-173.818 40.9629,-154.761 35.9175,-139.31"/>
<polygon fill="black" stroke="black" points="39.2308,-138.181 32.7996,-129.761 32.5766,-140.354 39.2308,-138.181"/>
<text text-anchor="middle" x="50.5" y="-156.9" font-family="Times Roman,serif" font-size="14.00">a</text>
</g>
<!-- q0 -->
<g id="node13" class="node"><title>q0</title>
<ellipse fill="none" stroke="black" cx="103" cy="-112" rx="27" ry="18"/>
<ellipse fill="none" stroke="black" cx="103" cy="-112" rx="31" ry="22"/>
<text text-anchor="middle" x="103" y="-107.9" font-family="Times Roman,serif" font-size="14.00">q0</text>
</g>
<!-- q1&#45;&gt;q0 -->
<g id="edge14" class="edge"><title>q1&#45;&gt;q0</title>
<path fill="none" stroke="black" d="M68.5473,-188.735C74.6015,-175.251 82.5316,-157.589 89.2573,-142.609"/>
<polygon fill="black" stroke="black" points="92.5683,-143.779 93.4713,-133.223 86.1824,-140.912 92.5683,-143.779"/>
<text text-anchor="middle" x="89.5" y="-156.9" font-family="Times Roman,serif" font-size="14.00">b</text>
</g>
<!-- q2&#45;&gt;q5 -->
<g id="edge12" class="edge"><title>q2&#45;&gt;q5</title>
<path fill="none" stroke="black" d="M43.0216,-32.6428C37.5339,-38.6715 32.0171,-46.0951 29,-54 25.4382,-63.3322 24.3352,-74.1349 24.3207,-83.8696"/>
<polygon fill="black" stroke="black" points="20.8237,-84.0204 24.6674,-93.8934 27.8196,-83.7783 20.8237,-84.0204"/>
<text text-anchor="middle" x="33.5" y="-58.9" font-family="Times Roman,serif" font-size="14.00">a</text>
</g>
<!-- q2&#45;&gt;q2 -->
<g id="edge10" class="edge"><title>q2&#45;&gt;q2</title>
<path fill="none" stroke="black" d="M83.5325,-26.1211C94.5078,-26.8945 104,-24.1875 104,-18 104,-13.8428 99.7151,-11.2567 93.5743,-10.2417"/>
<polygon fill="black" stroke="black" points="93.6524,-6.74237 83.5325,-9.87891 93.3995,-13.7378 93.6524,-6.74237"/>
<text text-anchor="middle" x="108.5" y="-13.9" font-family="Times Roman,serif" font-size="14.00">b</text>
</g>
<!-- q0&#45;&gt;q4 -->
<g id="edge24" class="edge"><title>q0&#45;&gt;q4</title>
<path fill="none" stroke="black" d="M105.63,-133.951C109.823,-168.957 118.021,-237.393 122.636,-275.917"/>
<polygon fill="black" stroke="black" points="119.172,-276.424 123.836,-285.937 126.122,-275.592 119.172,-276.424"/>
<text text-anchor="middle" x="121.5" y="-205.9" font-family="Times Roman,serif" font-size="14.00">a</text>
</g>
<!-- q0&#45;&gt;q0 -->
<g id="edge22" class="edge"><title>q0&#45;&gt;q0</title>
<path fill="none" stroke="black" d="M131.689,-120.965C142.781,-121.363 152,-118.375 152,-112 152,-107.717 147.838,-104.962 141.743,-103.737"/>
<polygon fill="black" stroke="black" points="141.908,-100.24 131.689,-103.035 141.421,-107.223 141.908,-100.24"/>
<text text-anchor="middle" x="156.5" y="-107.9" font-family="Times Roman,serif" font-size="14.00">b</text>
</g>
</g>
</svg>
