<?xml version="1.0" encoding="UTF-8" standalone="no"?>
<!DOCTYPE svg PUBLIC "-//W3C//DTD SVG 1.1//EN"
 "http://www.w3.org/Graphics/SVG/1.1/DTD/svg11.dtd">
<!-- Generated by graphviz version 2.26.3 (20100126.1600)
 -->
<!-- Title: G Pages: 1 -->
<svg width="174pt" height="510pt"
 viewBox="0.00 0.00 174.00 510.00" xmlns="http://www.w3.org/2000/svg" xmlns:xlink="http://www.w3.org/1999/xlink">
<g id="graph1" class="graph" transform="scale(1 1) rotate(0) translate(4 506)">
<title>G</title>
<polygon fill="white" stroke="white" points="-4,5 -4,-506 171,-506 171,5 -4,5"/>
<!-- q6 -->
<g id="node1" class="node"><title>q6</title>
<ellipse fill="none" stroke="black" cx="112" cy="-484" rx="27" ry="18"/>
<text text-anchor="middle" x="112" y="-479.9" font-family="Times Roman,serif" font-size="14.00">q6</text>
</g>
<!-- q6&#45;&gt;q6 -->
<g id="edge2" class="edge"><title>q6&#45;&gt;q6</title>
<path fill="none" stroke="black" d="M136.532,-492.121C147.508,-492.895 157,-490.188 157,-484 157,-479.843 152.715,-477.257 146.574,-476.242"/>
<polygon fill="black" stroke="black" points="146.652,-472.742 136.532,-475.879 146.4,-479.738 146.652,-472.742"/>
<text text-anchor="middle" x="161.5" y="-479.9" font-family="Times Roman,serif" font-size="14.00">b</text>
</g>
<!-- q4 -->
<g id="node4" class="node"><title>q4</title>
<ellipse fill="none" stroke="black" cx="112" cy="-394" rx="27" ry="18"/>
<text text-anchor="middle" x="112" y="-389.9" font-family="Times Roman,serif" font-size="14.00">q4</text>
</g>
<!-- q6&#45;&gt;q4 -->
<g id="edge4" class="edge"><title>q6&#45;&gt;q4</title>
<path fill="none" stroke="black" d="M112,-465.787C112,-453.344 112,-436.605 112,-422.421"/>
<polygon fill="black" stroke="black" points="115.5,-422.186 112,-412.186 108.5,-422.186 115.5,-422.186"/>
<text text-anchor="middle" x="116.5" y="-434.9" font-family="Times Roman,serif" font-size="14.00">a</text>
</g>
<!-- q4&#45;&gt;q4 -->
<g id="edge20" class="edge"><title>q4&#45;&gt;q4</title>
<path fill="none" stroke="black" d="M136.532,-402.121C147.508,-402.895 157,-400.188 157,-394 157,-389.843 152.715,-387.257 146.574,-386.242"/>
<polygon fill="black" stroke="black" points="146.652,-382.742 136.532,-385.879 146.4,-389.738 146.652,-382.742"/>
<text text-anchor="middle" x="161.5" y="-389.9" font-family="Times Roman,serif" font-size="14.00">a</text>
</g>
<!-- q2 -->
<g id="node9" class="node"><title>q2</title>
<ellipse fill="none" stroke="black" cx="73" cy="-304" rx="27" ry="18"/>
<text text-anchor="middle" x="73" y="-299.9" font-family="Times Roman,serif" font-size="14.00">q2</text>
</g>
<!-- q4&#45;&gt;q2 -->
<g id="edge18" class="edge"><title>q4&#45;&gt;q2</title>
<path fill="none" stroke="black" d="M104.48,-376.647C98.8153,-363.574 90.9477,-345.418 84.4951,-330.527"/>
<polygon fill="black" stroke="black" points="87.6841,-329.084 80.4965,-321.3 81.2612,-331.867 87.6841,-329.084"/>
<text text-anchor="middle" x="99.5" y="-344.9" font-family="Times Roman,serif" font-size="14.00">b</text>
</g>
<!-- q5 -->
<g id="node5" class="node"><title>q5</title>
<ellipse fill="none" stroke="black" cx="34" cy="-214" rx="27" ry="18"/>
<text text-anchor="middle" x="34" y="-209.9" font-family="Times Roman,serif" font-size="14.00">q5</text>
</g>
<!-- q1 -->
<g id="node7" class="node"><title>q1</title>
<ellipse fill="none" stroke="black" cx="31" cy="-120" rx="27" ry="18"/>
<ellipse fill="none" stroke="black" cx="31" cy="-120" rx="31" ry="22"/>
<text text-anchor="middle" x="31" y="-115.9" font-family="Times Roman,serif" font-size="14.00">q1</text>
</g>
<!-- q5&#45;&gt;q1 -->
<g id="edge6" class="edge"><title>q5&#45;&gt;q1</title>
<path fill="none" stroke="black" d="M23.1242,-197.47C19.8398,-191.574 16.6652,-184.723 15,-178 12.7556,-168.939 14.028,-159.136 16.6354,-150.213"/>
<polygon fill="black" stroke="black" points="20.0006,-151.195 20.0301,-140.6 13.4,-148.864 20.0006,-151.195"/>
<text text-anchor="middle" x="19.5" y="-164.9" font-family="Times Roman,serif" font-size="14.00">b</text>
</g>
<!-- q5&#45;&gt;q2 -->
<g id="edge8" class="edge"><title>q5&#45;&gt;q2</title>
<path fill="none" stroke="black" d="M41.4965,-231.3C47.1556,-244.359 55.0222,-262.513 61.4786,-277.412"/>
<polygon fill="black" stroke="black" points="58.2928,-278.863 65.4804,-286.647 64.7157,-276.08 58.2928,-278.863"/>
<text text-anchor="middle" x="60.5" y="-254.9" font-family="Times Roman,serif" font-size="14.00">a</text>
</g>
<!-- q1&#45;&gt;q5 -->
<g id="edge16" class="edge"><title>q1&#45;&gt;q5</title>
<path fill="none" stroke="black" d="M31.7034,-142.039C32.1201,-155.096 32.6523,-171.773 33.0995,-185.785"/>
<polygon fill="black" stroke="black" points="29.6043,-185.993 33.4216,-195.876 36.6007,-185.769 29.6043,-185.993"/>
<text text-anchor="middle" x="37.5" y="-164.9" font-family="Times Roman,serif" font-size="14.00">a</text>
</g>
<!-- q0 -->
<g id="node11" class="node"><title>q0</title>
<ellipse fill="none" stroke="black" cx="90" cy="-22" rx="27" ry="18"/>
<ellipse fill="none" stroke="black" cx="90" cy="-22" rx="31" ry="22"/>
<text text-anchor="middle" x="90" y="-17.9" font-family="Times Roman,serif" font-size="14.00">q0</text>
</g>
<!-- q1&#45;&gt;q0 -->
<g id="edge14" class="edge"><title>q1&#45;&gt;q0</title>
<path fill="none" stroke="black" d="M43.2248,-99.6943C51.6894,-85.6345 63.0839,-66.7082 72.5073,-51.0557"/>
<polygon fill="black" stroke="black" points="75.6315,-52.6521 77.7908,-42.2797 69.6344,-49.0416 75.6315,-52.6521"/>
<text text-anchor="middle" x="69.5" y="-66.9" font-family="Times Roman,serif" font-size="14.00">b</text>
</g>
<!-- q2&#45;&gt;q5 -->
<g id="edge12" class="edge"><title>q2&#45;&gt;q5</title>
<path fill="none" stroke="black" d="M54.7224,-290.554C47.9124,-284.483 40.8964,-276.715 37,-268 33.4969,-260.165 32.1129,-251.041 31.7814,-242.547"/>
<polygon fill="black" stroke="black" points="35.2829,-242.29 31.844,-232.269 28.283,-242.247 35.2829,-242.29"/>
<text text-anchor="middle" x="41.5" y="-254.9" font-family="Times Roman,serif" font-size="14.00">a</text>
</g>
<!-- q2&#45;&gt;q0 -->
<g id="edge10" class="edge"><title>q2&#45;&gt;q0</title>
<path fill="none" stroke="black" d="M74.0893,-285.931C76.904,-239.239 84.4498,-114.068 88.0442,-54.4429"/>
<polygon fill="black" stroke="black" points="91.5592,-54.2985 88.6674,-44.106 84.5719,-53.8773 91.5592,-54.2985"/>
<text text-anchor="middle" x="85.5" y="-164.9" font-family="Times Roman,serif" font-size="14.00">b</text>
</g>
<!-- q0&#45;&gt;q4 -->
<g id="edge24" class="edge"><title>q0&#45;&gt;q4</title>
<path fill="none" stroke="black" d="M105.317,-41.3937C118.699,-60.3182 136,-90.4919 136,-120 136,-304 136,-304 136,-304 136,-325.629 129.449,-349.224 123.192,-366.827"/>
<polygon fill="black" stroke="black" points="119.822,-365.846 119.594,-376.439 126.378,-368.301 119.822,-365.846"/>
<text text-anchor="middle" x="140.5" y="-209.9" font-family="Times Roman,serif" font-size="14.00">a</text>
</g>
<!-- q0&#45;&gt;q0 -->
<g id="edge22" class="edge"><title>q0&#45;&gt;q0</title>
<path fill="none" stroke="black" d="M118.689,-30.9648C129.781,-31.3633 139,-28.375 139,-22 139,-17.7168 134.838,-14.9624 128.743,-13.7368"/>
<polygon fill="black" stroke="black" points="128.908,-10.2399 118.689,-13.0352 128.421,-17.223 128.908,-10.2399"/>
<text text-anchor="middle" x="143.5" y="-17.9" font-family="Times Roman,serif" font-size="14.00">b</text>
</g>
</g>
</svg>
