<?xml version="1.0" encoding="UTF-8" standalone="no"?>
<!DOCTYPE svg PUBLIC "-//W3C//DTD SVG 1.1//EN"
 "http://www.w3.org/Graphics/SVG/1.1/DTD/svg11.dtd">
<!-- Generated by graphviz version 2.26.3 (20100126.1600)
 -->
<!-- Title: G Pages: 1 -->
<svg width="169pt" height="330pt"
 viewBox="0.00 0.00 169.00 330.00" xmlns="http://www.w3.org/2000/svg" xmlns:xlink="http://www.w3.org/1999/xlink">
<g id="graph1" class="graph" transform="scale(1 1) rotate(0) translate(4 326)">
<title>G</title>
<polygon fill="white" stroke="white" points="-4,5 -4,-326 166,-326 166,5 -4,5"/>
<!-- q2 -->
<g id="node1" class="node"><title>q2</title>
<ellipse fill="none" stroke="black" cx="27" cy="-304" rx="27" ry="18"/>
<text text-anchor="middle" x="27" y="-299.9" font-family="Times Roman,serif" font-size="14.00">q2</text>
</g>
<!-- q2&#45;&gt;q2 -->
<g id="edge2" class="edge"><title>q2&#45;&gt;q2</title>
<path fill="none" stroke="black" d="M51.5325,-312.121C62.5078,-312.895 72,-310.188 72,-304 72,-299.843 67.7151,-297.257 61.5743,-296.242"/>
<polygon fill="black" stroke="black" points="61.6524,-292.742 51.5325,-295.879 61.3995,-299.738 61.6524,-292.742"/>
<text text-anchor="middle" x="76.5" y="-299.9" font-family="Times Roman,serif" font-size="14.00">b</text>
</g>
<!-- q1 -->
<g id="node4" class="node"><title>q1</title>
<ellipse fill="none" stroke="black" cx="27" cy="-210" rx="27" ry="18"/>
<text text-anchor="middle" x="27" y="-205.9" font-family="Times Roman,serif" font-size="14.00">q1</text>
</g>
<!-- q2&#45;&gt;q1 -->
<g id="edge4" class="edge"><title>q2&#45;&gt;q1</title>
<path fill="none" stroke="black" d="M27,-285.876C27,-272.352 27,-253.619 27,-238.151"/>
<polygon fill="black" stroke="black" points="30.5001,-238.068 27,-228.069 23.5001,-238.069 30.5001,-238.068"/>
<text text-anchor="middle" x="31.5" y="-254.9" font-family="Times Roman,serif" font-size="14.00">a</text>
</g>
<!-- q1&#45;&gt;q1 -->
<g id="edge6" class="edge"><title>q1&#45;&gt;q1</title>
<path fill="none" stroke="black" d="M50.6146,-218.78C61.9731,-219.864 72,-216.938 72,-210 72,-205.339 67.4737,-202.488 61.0584,-201.448"/>
<polygon fill="black" stroke="black" points="60.6888,-197.939 50.6146,-201.22 60.5356,-204.938 60.6888,-197.939"/>
<text text-anchor="middle" x="76.5" y="-205.9" font-family="Times Roman,serif" font-size="14.00">b</text>
</g>
<!-- q4 -->
<g id="node7" class="node"><title>q4</title>
<ellipse fill="none" stroke="black" cx="65" cy="-116" rx="27" ry="18"/>
<text text-anchor="middle" x="65" y="-111.9" font-family="Times Roman,serif" font-size="14.00">q4</text>
</g>
<!-- q1&#45;&gt;q4 -->
<g id="edge8" class="edge"><title>q1&#45;&gt;q4</title>
<path fill="none" stroke="black" d="M24.7441,-192C24.0113,-180.152 24.5152,-164.568 30,-152 32.3099,-146.707 35.7682,-141.743 39.6259,-137.291"/>
<polygon fill="black" stroke="black" points="42.3775,-139.482 46.8393,-129.873 37.3588,-134.602 42.3775,-139.482"/>
<text text-anchor="middle" x="34.5" y="-156.9" font-family="Times Roman,serif" font-size="14.00">a</text>
</g>
<!-- q4&#45;&gt;q1 -->
<g id="edge12" class="edge"><title>q4&#45;&gt;q1</title>
<path fill="none" stroke="black" d="M57.8845,-133.601C52.2672,-147.497 44.3341,-167.121 37.9147,-183.001"/>
<polygon fill="black" stroke="black" points="34.6506,-181.736 34.1475,-192.319 41.1404,-184.36 34.6506,-181.736"/>
<text text-anchor="middle" x="54.5" y="-156.9" font-family="Times Roman,serif" font-size="14.00">a</text>
</g>
<!-- q0 -->
<g id="node9" class="node"><title>q0</title>
<ellipse fill="none" stroke="black" cx="85" cy="-22" rx="27" ry="18"/>
<ellipse fill="none" stroke="black" cx="85" cy="-22" rx="31" ry="22"/>
<text text-anchor="middle" x="85" y="-17.9" font-family="Times Roman,serif" font-size="14.00">q0</text>
</g>
<!-- q4&#45;&gt;q0 -->
<g id="edge10" class="edge"><title>q4&#45;&gt;q0</title>
<path fill="none" stroke="black" d="M49.6015,-100.991C40.4969,-90.222 31.8449,-75.3209 38,-62 41.4129,-54.6138 46.9366,-48.09 53.0185,-42.5668"/>
<polygon fill="black" stroke="black" points="55.3798,-45.1571 60.9039,-36.1164 50.9476,-39.739 55.3798,-45.1571"/>
<text text-anchor="middle" x="42.5" y="-66.9" font-family="Times Roman,serif" font-size="14.00">b</text>
</g>
<!-- q0&#45;&gt;q4 -->
<g id="edge18" class="edge"><title>q0&#45;&gt;q4</title>
<path fill="none" stroke="black" d="M75.8282,-43.2661C73.5873,-49.2292 71.4265,-55.7832 70,-62 68.1049,-70.259 66.9244,-79.385 66.1901,-87.7478"/>
<polygon fill="black" stroke="black" points="62.6928,-87.5876 65.4786,-97.8096 69.6754,-88.0814 62.6928,-87.5876"/>
<text text-anchor="middle" x="74.5" y="-66.9" font-family="Times Roman,serif" font-size="14.00">b</text>
</g>
<!-- q0&#45;&gt;q4 -->
<g id="edge20" class="edge"><title>q0&#45;&gt;q4</title>
<path fill="none" stroke="black" d="M84.1141,-43.9927C83.3236,-54.9341 81.8282,-68.2901 79,-80 78.2679,-83.0311 77.3399,-86.1489 76.3112,-89.2217"/>
<polygon fill="black" stroke="black" points="72.9831,-88.1307 72.7991,-98.724 79.549,-90.5576 72.9831,-88.1307"/>
<text text-anchor="middle" x="86.5" y="-66.9" font-family="Times Roman,serif" font-size="14.00">a</text>
</g>
<!-- q3 -->
<g id="node11" class="node"><title>q3</title>
<ellipse fill="none" stroke="black" cx="130" cy="-210" rx="27" ry="18"/>
<ellipse fill="none" stroke="black" cx="130" cy="-210" rx="31" ry="22"/>
<text text-anchor="middle" x="130" y="-205.9" font-family="Times Roman,serif" font-size="14.00">q3</text>
</g>
<!-- q3&#45;&gt;q4 -->
<g id="edge16" class="edge"><title>q3&#45;&gt;q4</title>
<path fill="none" stroke="black" d="M116.215,-190.065C106.309,-175.739 92.8834,-156.324 82.2634,-140.966"/>
<polygon fill="black" stroke="black" points="84.9489,-138.695 76.3826,-132.461 79.1914,-142.677 84.9489,-138.695"/>
<text text-anchor="middle" x="105.5" y="-156.9" font-family="Times Roman,serif" font-size="14.00">a</text>
</g>
<!-- q3&#45;&gt;q0 -->
<g id="edge14" class="edge"><title>q3&#45;&gt;q0</title>
<path fill="none" stroke="black" d="M124.87,-187.914C118.125,-158.97 105.858,-106.64 95,-62 94.3561,-59.3526 93.6826,-56.6082 93.0025,-53.8542"/>
<polygon fill="black" stroke="black" points="96.3607,-52.8547 90.5521,-43.9941 89.5673,-54.5431 96.3607,-52.8547"/>
<text text-anchor="middle" x="116.5" y="-111.9" font-family="Times Roman,serif" font-size="14.00">b</text>
</g>
</g>
</svg>
