<?xml version="1.0" encoding="UTF-8" standalone="no"?>
<!DOCTYPE svg PUBLIC "-//W3C//DTD SVG 1.1//EN"
 "http://www.w3.org/Graphics/SVG/1.1/DTD/svg11.dtd">
<!-- Generated by graphviz version 2.26.3 (20100126.1600)
 -->
<!-- Title: G Pages: 1 -->
<svg width="192pt" height="322pt"
 viewBox="0.00 0.00 192.00 322.00" xmlns="http://www.w3.org/2000/svg" xmlns:xlink="http://www.w3.org/1999/xlink">
<g id="graph1" class="graph" transform="scale(1 1) rotate(0) translate(4 318)">
<title>G</title>
<polygon fill="white" stroke="white" points="-4,5 -4,-318 189,-318 189,5 -4,5"/>
<!-- q2 -->
<g id="node1" class="node"><title>q2</title>
<ellipse fill="none" stroke="black" cx="36" cy="-295" rx="27" ry="18.3848"/>
<text text-anchor="middle" x="36" y="-291.4" font-family="Times Roman,serif" font-size="14.00">q2</text>
</g>
<!-- q3 -->
<g id="node3" class="node"><title>q3</title>
<ellipse fill="none" stroke="black" cx="27" cy="-19" rx="27" ry="18.3848"/>
<text text-anchor="middle" x="27" y="-15.4" font-family="Times Roman,serif" font-size="14.00">q3</text>
</g>
<!-- q2&#45;&gt;q3 -->
<g id="edge2" class="edge"><title>q2&#45;&gt;q3</title>
<path fill="none" stroke="black" d="M31.454,-276.537C28.0853,-261.862 23.7823,-240.756 22,-222 16.1167,-160.086 20.7164,-87.103 24.1449,-47.7084"/>
<polygon fill="black" stroke="black" points="27.6509,-47.8008 25.0712,-37.5249 20.6796,-47.1667 27.6509,-47.8008"/>
<text text-anchor="middle" x="24.5" y="-153.4" font-family="Times Roman,serif" font-size="14.00">b</text>
</g>
<!-- q4 -->
<g id="node5" class="node"><title>q4</title>
<ellipse fill="none" stroke="black" cx="58" cy="-203" rx="27" ry="18.3848"/>
<text text-anchor="middle" x="58" y="-199.4" font-family="Times Roman,serif" font-size="14.00">q4</text>
</g>
<!-- q2&#45;&gt;q4 -->
<g id="edge4" class="edge"><title>q2&#45;&gt;q4</title>
<path fill="none" stroke="black" d="M34.0793,-276.343C33.5223,-265.54 33.7723,-251.79 37,-240 38.0153,-236.291 39.4862,-232.56 41.1854,-228.97"/>
<polygon fill="black" stroke="black" points="44.4059,-230.371 46.0602,-219.907 38.241,-227.056 44.4059,-230.371"/>
<text text-anchor="middle" x="41.5" y="-245.4" font-family="Times Roman,serif" font-size="14.00">a</text>
</g>
<!-- q3&#45;&gt;q3 -->
<g id="edge14" class="edge"><title>q3&#45;&gt;q3</title>
<path fill="none" stroke="black" d="M53.3466,-23.2957C63.5332,-23.4866 72,-22.0547 72,-19 72,-17.0431 68.5252,-15.7522 63.3495,-15.1273"/>
<polygon fill="black" stroke="black" points="63.4855,-11.63 53.3466,-14.7043 63.1898,-18.6237 63.4855,-11.63"/>
<text text-anchor="middle" x="76.5" y="-15.4" font-family="Times Roman,serif" font-size="14.00">b</text>
</g>
<!-- q3&#45;&gt;q3 -->
<g id="edge16" class="edge"><title>q3&#45;&gt;q3</title>
<path fill="none" stroke="black" d="M45.7031,-32.3594C66.375,-41.2656 90,-36.8125 90,-19 90,-3.9707 73.181,1.54787 55.508,-2.44429"/>
<polygon fill="black" stroke="black" points="54.1259,0.786507 45.7031,-5.64062 56.2955,-5.86879 54.1259,0.786507"/>
<text text-anchor="middle" x="94.5" y="-15.4" font-family="Times Roman,serif" font-size="14.00">a</text>
</g>
<!-- q4&#45;&gt;q2 -->
<g id="edge10" class="edge"><title>q4&#45;&gt;q2</title>
<path fill="none" stroke="black" d="M54.2246,-221.385C51.9662,-232.097 48.9662,-245.847 46,-258 45.3048,-260.848 44.5527,-263.812 43.7838,-266.768"/>
<polygon fill="black" stroke="black" points="40.3561,-266.038 41.1636,-276.602 47.1202,-267.84 40.3561,-266.038"/>
<text text-anchor="middle" x="53.5" y="-245.4" font-family="Times Roman,serif" font-size="14.00">b</text>
</g>
<!-- q1 -->
<g id="node6" class="node"><title>q1</title>
<ellipse fill="none" stroke="black" cx="66" cy="-111" rx="27" ry="18.3848"/>
<text text-anchor="middle" x="66" y="-107.4" font-family="Times Roman,serif" font-size="14.00">q1</text>
</g>
<!-- q4&#45;&gt;q1 -->
<g id="edge12" class="edge"><title>q4&#45;&gt;q1</title>
<path fill="none" stroke="black" d="M51.0591,-185.08C47.791,-174.286 45.1681,-160.295 48,-148 48.7937,-144.554 49.9534,-141.058 51.308,-137.659"/>
<polygon fill="black" stroke="black" points="54.5372,-139.013 55.4992,-128.462 48.1674,-136.11 54.5372,-139.013"/>
<text text-anchor="middle" x="52.5" y="-153.4" font-family="Times Roman,serif" font-size="14.00">a</text>
</g>
<!-- q1&#45;&gt;q3 -->
<g id="edge8" class="edge"><title>q1&#45;&gt;q3</title>
<path fill="none" stroke="black" d="M58.2949,-92.8238C52.6498,-79.5071 44.8922,-61.2074 38.5132,-46.1594"/>
<polygon fill="black" stroke="black" points="41.6818,-44.6663 34.5564,-36.8254 35.237,-47.3984 41.6818,-44.6663"/>
<text text-anchor="middle" x="53.5" y="-61.4" font-family="Times Roman,serif" font-size="14.00">a</text>
</g>
<!-- q1&#45;&gt;q4 -->
<g id="edge6" class="edge"><title>q1&#45;&gt;q4</title>
<path fill="none" stroke="black" d="M64.3835,-129.59C63.2672,-142.428 61.761,-159.748 60.492,-174.342"/>
<polygon fill="black" stroke="black" points="56.9985,-174.117 59.6189,-184.382 63.9721,-174.723 56.9985,-174.117"/>
<text text-anchor="middle" x="66.5" y="-153.4" font-family="Times Roman,serif" font-size="14.00">b</text>
</g>
<!-- q0 -->
<g id="node13" class="node"><title>q0</title>
<ellipse fill="none" stroke="black" cx="130" cy="-203" rx="27" ry="18.3848"/>
<text text-anchor="middle" x="130" y="-199.4" font-family="Times Roman,serif" font-size="14.00">q0</text>
</g>
<!-- q0&#45;&gt;q1 -->
<g id="edge18" class="edge"><title>q0&#45;&gt;q1</title>
<path fill="none" stroke="black" d="M118.261,-186.126C108.518,-172.12 94.5175,-151.994 83.4592,-136.098"/>
<polygon fill="black" stroke="black" points="86.248,-133.978 77.6642,-127.767 80.5017,-137.975 86.248,-133.978"/>
<text text-anchor="middle" x="107.5" y="-153.4" font-family="Times Roman,serif" font-size="14.00">b</text>
</g>
<!-- q0&#45;&gt;q0 -->
<g id="edge20" class="edge"><title>q0&#45;&gt;q0</title>
<path fill="none" stroke="black" d="M154.074,-211.454C165.242,-212.377 175,-209.559 175,-203 175,-198.593 170.595,-195.875 164.317,-194.846"/>
<polygon fill="black" stroke="black" points="164.173,-191.34 154.074,-194.546 163.967,-198.337 164.173,-191.34"/>
<text text-anchor="middle" x="179.5" y="-199.4" font-family="Times Roman,serif" font-size="14.00">a</text>
</g>
</g>
</svg>
