<?xml version="1.0" encoding="UTF-8" standalone="no"?>
<!DOCTYPE svg PUBLIC "-//W3C//DTD SVG 1.1//EN"
 "http://www.w3.org/Graphics/SVG/1.1/DTD/svg11.dtd">
<!-- Generated by graphviz version 2.26.3 (20100126.1600)
 -->
<!-- Title: G Pages: 1 -->
<svg width="218pt" height="506pt"
 viewBox="0.00 0.00 218.36 506.00" xmlns="http://www.w3.org/2000/svg" xmlns:xlink="http://www.w3.org/1999/xlink">
<g id="graph1" class="graph" transform="scale(1 1) rotate(0) translate(4 502)">
<title>G</title>
<polygon fill="white" stroke="white" points="-4,5 -4,-502 215.359,-502 215.359,5 -4,5"/>
<!-- q6 -->
<g id="node1" class="node"><title>q6</title>
<ellipse fill="none" stroke="black" cx="113.359" cy="-479" rx="27" ry="18.3848"/>
<text text-anchor="middle" x="113.359" y="-475.4" font-family="Times Roman,serif" font-size="14.00">q6</text>
</g>
<!-- q6&#45;&gt;q6 -->
<g id="edge2" class="edge"><title>q6&#45;&gt;q6</title>
<path fill="none" stroke="black" d="M137.434,-487.454C148.602,-488.377 158.359,-485.559 158.359,-479 158.359,-474.593 153.955,-471.875 147.677,-470.846"/>
<polygon fill="black" stroke="black" points="147.532,-467.34 137.434,-470.546 147.327,-474.337 147.532,-467.34"/>
<text text-anchor="middle" x="162.859" y="-475.4" font-family="Times Roman,serif" font-size="14.00">b</text>
</g>
<!-- q3 -->
<g id="node4" class="node"><title>q3</title>
<ellipse fill="none" stroke="black" cx="113.359" cy="-387" rx="27" ry="18.3848"/>
<text text-anchor="middle" x="113.359" y="-383.4" font-family="Times Roman,serif" font-size="14.00">q3</text>
</g>
<!-- q6&#45;&gt;q3 -->
<g id="edge4" class="edge"><title>q6&#45;&gt;q3</title>
<path fill="none" stroke="black" d="M113.359,-460.382C113.359,-447.538 113.359,-430.216 113.359,-415.627"/>
<polygon fill="black" stroke="black" points="116.859,-415.59 113.359,-405.59 109.859,-415.59 116.859,-415.59"/>
<text text-anchor="middle" x="117.859" y="-429.4" font-family="Times Roman,serif" font-size="14.00">a</text>
</g>
<!-- q2 -->
<g id="node10" class="node"><title>q2</title>
<ellipse fill="none" stroke="black" cx="32.3594" cy="-295" rx="27" ry="18.3848"/>
<text text-anchor="middle" x="32.3594" y="-291.4" font-family="Times Roman,serif" font-size="14.00">q2</text>
</g>
<!-- q3&#45;&gt;q2 -->
<g id="edge22" class="edge"><title>q3&#45;&gt;q2</title>
<path fill="none" stroke="black" d="M94.2889,-373.4C85.8238,-366.86 76.0581,-358.584 68.3594,-350 60.5639,-341.309 53.2497,-330.78 47.2771,-321.271"/>
<polygon fill="black" stroke="black" points="50.1705,-319.292 41.9899,-312.56 44.1864,-322.924 50.1705,-319.292"/>
<text text-anchor="middle" x="72.8594" y="-337.4" font-family="Times Roman,serif" font-size="14.00">b</text>
</g>
<!-- q4 -->
<g id="node15" class="node"><title>q4</title>
<ellipse fill="none" stroke="black" cx="146.359" cy="-295" rx="27" ry="18.3848"/>
<text text-anchor="middle" x="146.359" y="-291.4" font-family="Times Roman,serif" font-size="14.00">q4</text>
</g>
<!-- q3&#45;&gt;q4 -->
<g id="edge24" class="edge"><title>q3&#45;&gt;q4</title>
<path fill="none" stroke="black" d="M119.879,-368.824C124.58,-355.719 131.011,-337.789 136.359,-322.88"/>
<polygon fill="black" stroke="black" points="139.771,-323.733 139.853,-313.138 133.182,-321.37 139.771,-323.733"/>
<text text-anchor="middle" x="136.859" y="-337.4" font-family="Times Roman,serif" font-size="14.00">a</text>
</g>
<!-- q5 -->
<g id="node5" class="node"><title>q5</title>
<ellipse fill="none" stroke="black" cx="38.3594" cy="-203" rx="27" ry="18.3848"/>
<text text-anchor="middle" x="38.3594" y="-199.4" font-family="Times Roman,serif" font-size="14.00">q5</text>
</g>
<!-- q0 -->
<g id="node7" class="node"><title>q0</title>
<ellipse fill="none" stroke="black" cx="91.3594" cy="-19" rx="27" ry="18.3848"/>
<text text-anchor="middle" x="91.3594" y="-15.4" font-family="Times Roman,serif" font-size="14.00">q0</text>
</g>
<!-- q5&#45;&gt;q0 -->
<g id="edge6" class="edge"><title>q5&#45;&gt;q0</title>
<path fill="none" stroke="black" d="M37.0459,-184.419C36.0537,-161.95 36.2714,-123.258 46.3594,-92 51.9859,-74.5661 62.5998,-57.0266 72.1069,-43.5106"/>
<polygon fill="black" stroke="black" points="75.0659,-45.3931 78.1309,-35.2513 69.4104,-41.2681 75.0659,-45.3931"/>
<text text-anchor="middle" x="50.8594" y="-107.4" font-family="Times Roman,serif" font-size="14.00">b</text>
</g>
<!-- q1 -->
<g id="node9" class="node"><title>q1</title>
<ellipse fill="none" stroke="black" cx="91.3594" cy="-111" rx="27" ry="18.3848"/>
<text text-anchor="middle" x="91.3594" y="-107.4" font-family="Times Roman,serif" font-size="14.00">q1</text>
</g>
<!-- q5&#45;&gt;q1 -->
<g id="edge8" class="edge"><title>q5&#45;&gt;q1</title>
<path fill="none" stroke="black" d="M48.3283,-185.696C56.2493,-171.946 67.4511,-152.501 76.4399,-136.898"/>
<polygon fill="black" stroke="black" points="79.4761,-138.639 81.4352,-128.227 73.4106,-135.145 79.4761,-138.639"/>
<text text-anchor="middle" x="74.8594" y="-153.4" font-family="Times Roman,serif" font-size="14.00">a</text>
</g>
<!-- q0&#45;&gt;q3 -->
<g id="edge28" class="edge"><title>q0&#45;&gt;q3</title>
<path fill="none" stroke="black" d="M115.772,-27.0759C148.179,-39.5172 201.359,-66.6849 201.359,-111 201.359,-295 201.359,-295 201.359,-295 201.359,-329.007 169.572,-355.369 144.207,-370.991"/>
<polygon fill="black" stroke="black" points="142.418,-367.983 135.566,-376.064 145.961,-374.02 142.418,-367.983"/>
<text text-anchor="middle" x="205.859" y="-199.4" font-family="Times Roman,serif" font-size="14.00">a</text>
</g>
<!-- q0&#45;&gt;q2 -->
<g id="edge26" class="edge"><title>q0&#45;&gt;q2</title>
<path fill="none" stroke="black" d="M72.9227,-32.6293C65.1842,-39.0556 56.5613,-47.2335 50.3594,-56 15.2695,-105.6 12.7702,-124.141 2.35939,-184 -0.534528,-200.639 -0.912431,-205.431 2.35939,-222 5.52068,-238.009 12.2333,-254.922 18.5088,-268.433"/>
<polygon fill="black" stroke="black" points="15.4406,-270.128 22.944,-277.608 21.7429,-267.081 15.4406,-270.128"/>
<text text-anchor="middle" x="13.8594" y="-153.4" font-family="Times Roman,serif" font-size="14.00">b</text>
</g>
<!-- q1&#45;&gt;q3 -->
<g id="edge14" class="edge"><title>q1&#45;&gt;q3</title>
<path fill="none" stroke="black" d="M90.5676,-129.606C89.5862,-157.545 88.4796,-211.969 92.3594,-258 95.2906,-292.777 102.28,-332.331 107.393,-358.368"/>
<polygon fill="black" stroke="black" points="103.989,-359.194 109.384,-368.313 110.853,-357.82 103.989,-359.194"/>
<text text-anchor="middle" x="96.8594" y="-245.4" font-family="Times Roman,serif" font-size="14.00">b</text>
</g>
<!-- q1&#45;&gt;q0 -->
<g id="edge16" class="edge"><title>q1&#45;&gt;q0</title>
<path fill="none" stroke="black" d="M91.3594,-92.3824C91.3594,-79.5383 91.3594,-62.2161 91.3594,-47.6269"/>
<polygon fill="black" stroke="black" points="94.8595,-47.5898 91.3594,-37.5899 87.8595,-47.5899 94.8595,-47.5898"/>
<text text-anchor="middle" x="95.8594" y="-61.4" font-family="Times Roman,serif" font-size="14.00">a</text>
</g>
<!-- q2&#45;&gt;q5 -->
<g id="edge10" class="edge"><title>q2&#45;&gt;q5</title>
<path fill="none" stroke="black" d="M26.6931,-276.612C24.1377,-265.899 22.1377,-252.149 24.3594,-240 24.9524,-236.757 25.8152,-233.43 26.8258,-230.163"/>
<polygon fill="black" stroke="black" points="30.1406,-231.287 30.1789,-220.692 23.542,-228.951 30.1406,-231.287"/>
<text text-anchor="middle" x="28.8594" y="-245.4" font-family="Times Roman,serif" font-size="14.00">b</text>
</g>
<!-- q2&#45;&gt;q5 -->
<g id="edge12" class="edge"><title>q2&#45;&gt;q5</title>
<path fill="none" stroke="black" d="M33.5736,-276.382C34.4112,-263.538 35.5409,-246.216 36.4924,-231.627"/>
<polygon fill="black" stroke="black" points="39.9887,-231.796 37.147,-221.59 33.0035,-231.341 39.9887,-231.796"/>
<text text-anchor="middle" x="40.8594" y="-245.4" font-family="Times Roman,serif" font-size="14.00">a</text>
</g>
<!-- q4&#45;&gt;q5 -->
<g id="edge18" class="edge"><title>q4&#45;&gt;q5</title>
<path fill="none" stroke="black" d="M134.916,-278.025C126.533,-266.409 114.386,-251.153 101.359,-240 91.8203,-231.833 80.2374,-224.45 69.618,-218.465"/>
<polygon fill="black" stroke="black" points="71.0687,-215.27 60.6094,-213.581 67.7324,-221.424 71.0687,-215.27"/>
<text text-anchor="middle" x="123.859" y="-245.4" font-family="Times Roman,serif" font-size="14.00">b</text>
</g>
<!-- q4&#45;&gt;q0 -->
<g id="edge20" class="edge"><title>q4&#45;&gt;q0</title>
<path fill="none" stroke="black" d="M146.849,-276.394C147.32,-240.159 146.007,-157.906 127.359,-92 122.733,-75.6495 114.51,-58.5526 107.09,-45.0181"/>
<polygon fill="black" stroke="black" points="110.109,-43.2465 102.135,-36.2702 104.018,-46.6963 110.109,-43.2465"/>
<text text-anchor="middle" x="145.859" y="-153.4" font-family="Times Roman,serif" font-size="14.00">a</text>
</g>
</g>
</svg>
