<?xml version="1.0" encoding="UTF-8" standalone="no"?>
<!DOCTYPE svg PUBLIC "-//W3C//DTD SVG 1.1//EN"
 "http://www.w3.org/Graphics/SVG/1.1/DTD/svg11.dtd">
<!-- Generated by graphviz version 2.26.3 (20100126.1600)
 -->
<!-- Title: G Pages: 1 -->
<svg width="95pt" height="142pt"
 viewBox="0.00 0.00 95.04 142.00" xmlns="http://www.w3.org/2000/svg" xmlns:xlink="http://www.w3.org/1999/xlink">
<g id="graph1" class="graph" transform="scale(1 1) rotate(0) translate(4 138)">
<title>G</title>
<polygon fill="white" stroke="white" points="-4,5 -4,-138 92.0395,-138 92.0395,5 -4,5"/>
<!-- q1 -->
<g id="node1" class="node"><title>q1</title>
<ellipse fill="none" stroke="black" cx="33.0395" cy="-112" rx="27" ry="18"/>
<ellipse fill="none" stroke="black" cx="33.0395" cy="-112" rx="31" ry="22"/>
<text text-anchor="middle" x="33.0395" y="-107.9" font-family="Times Roman,serif" font-size="14.00">q1</text>
</g>
<!-- q0 -->
<g id="node3" class="node"><title>q0</title>
<ellipse fill="none" stroke="darkred" cx="33.0395" cy="-18" rx="27" ry="18"/>
<text text-anchor="middle" x="33.0395" y="-13.9" font-family="Times Roman,serif" font-size="14.00">q0</text>
</g>
<!-- q1&#45;&gt;q0 -->
<g id="edge2" class="edge"><title>q1&#45;&gt;q0</title>
<path fill="none" stroke="black" d="M15.0477,-94.0081C9.81181,-87.6003 4.76985,-79.9802 2.0395,-72 -0.550233,-64.4308 -0.744633,-61.4999 2.0395,-54 3.85862,-49.0996 6.67691,-44.4193 9.88817,-40.1503"/>
<polygon fill="black" stroke="black" points="12.5817,-42.3856 16.3884,-32.4982 7.24673,-37.8536 12.5817,-42.3856"/>
<text text-anchor="middle" x="6.5395" y="-58.9" font-family="Times Roman,serif" font-size="14.00">b</text>
</g>
<!-- q1&#45;&gt;q0 -->
<g id="edge4" class="edge"><title>q1&#45;&gt;q0</title>
<path fill="none" stroke="black" d="M33.0395,-89.7233C33.0395,-76.6578 33.0395,-60.0289 33.0395,-46.0729"/>
<polygon fill="black" stroke="black" points="36.5396,-46.025 33.0395,-36.0251 29.5396,-46.0251 36.5396,-46.025"/>
<text text-anchor="middle" x="37.5395" y="-58.9" font-family="Times Roman,serif" font-size="14.00">a</text>
</g>
<!-- q0&#45;&gt;q1 -->
<g id="edge6" class="edge"><title>q0&#45;&gt;q1</title>
<path fill="none" stroke="black" d="M38.9955,-35.7451C40.649,-41.4999 42.216,-47.9584 43.0395,-54 44.207,-62.5654 43.5108,-71.8039 42.055,-80.3351"/>
<polygon fill="black" stroke="black" points="38.5927,-79.7938 39.977,-90.2978 45.4452,-81.2232 38.5927,-79.7938"/>
<text text-anchor="middle" x="47.5395" y="-58.9" font-family="Times Roman,serif" font-size="14.00">b</text>
</g>
<!-- q0&#45;&gt;q0 -->
<g id="edge8" class="edge"><title>q0&#45;&gt;q0</title>
<path fill="none" stroke="black" d="M57.572,-26.1211C68.5473,-26.8945 78.0395,-24.1875 78.0395,-18 78.0395,-13.8428 73.7546,-11.2567 67.6138,-10.2417"/>
<polygon fill="black" stroke="black" points="67.6919,-6.74237 57.572,-9.87891 67.439,-13.7378 67.6919,-6.74237"/>
<text text-anchor="middle" x="82.5395" y="-13.9" font-family="Times Roman,serif" font-size="14.00">a</text>
</g>
</g>
</svg>
