<?xml version="1.0" encoding="UTF-8" standalone="no"?>
<!DOCTYPE svg PUBLIC "-//W3C//DTD SVG 1.1//EN"
 "http://www.w3.org/Graphics/SVG/1.1/DTD/svg11.dtd">
<!-- Generated by graphviz version 2.26.3 (20100126.1600)
 -->
<!-- Title: G Pages: 1 -->
<svg width="151pt" height="592pt"
 viewBox="0.00 0.00 151.00 592.00" xmlns="http://www.w3.org/2000/svg" xmlns:xlink="http://www.w3.org/1999/xlink">
<g id="graph1" class="graph" transform="scale(1 1) rotate(0) translate(4 588)">
<title>G</title>
<polygon fill="white" stroke="white" points="-4,5 -4,-588 148,-588 148,5 -4,5"/>
<!-- q6 -->
<g id="node1" class="node"><title>q6</title>
<ellipse fill="none" stroke="black" cx="89" cy="-566" rx="27" ry="18"/>
<text text-anchor="middle" x="89" y="-561.9" font-family="Times Roman,serif" font-size="14.00">q6</text>
</g>
<!-- q6&#45;&gt;q6 -->
<g id="edge2" class="edge"><title>q6&#45;&gt;q6</title>
<path fill="none" stroke="black" d="M113.532,-574.121C124.508,-574.895 134,-572.188 134,-566 134,-561.843 129.715,-559.257 123.574,-558.242"/>
<polygon fill="black" stroke="black" points="123.652,-554.742 113.532,-557.879 123.4,-561.738 123.652,-554.742"/>
<text text-anchor="middle" x="138.5" y="-561.9" font-family="Times Roman,serif" font-size="14.00">b</text>
</g>
<!-- q4 -->
<g id="node4" class="node"><title>q4</title>
<ellipse fill="none" stroke="black" cx="53" cy="-476" rx="27" ry="18"/>
<text text-anchor="middle" x="53" y="-471.9" font-family="Times Roman,serif" font-size="14.00">q4</text>
</g>
<!-- q6&#45;&gt;q4 -->
<g id="edge4" class="edge"><title>q6&#45;&gt;q4</title>
<path fill="none" stroke="black" d="M81.8876,-548.219C76.7263,-535.316 69.6521,-517.63 63.7962,-502.99"/>
<polygon fill="black" stroke="black" points="66.9388,-501.423 59.9752,-493.438 60.4395,-504.023 66.9388,-501.423"/>
<text text-anchor="middle" x="78.5" y="-516.9" font-family="Times Roman,serif" font-size="14.00">a</text>
</g>
<!-- q2 -->
<g id="node9" class="node"><title>q2</title>
<ellipse fill="none" stroke="black" cx="27" cy="-296" rx="27" ry="18"/>
<text text-anchor="middle" x="27" y="-291.9" font-family="Times Roman,serif" font-size="14.00">q2</text>
</g>
<!-- q4&#45;&gt;q2 -->
<g id="edge18" class="edge"><title>q4&#45;&gt;q2</title>
<path fill="none" stroke="black" d="M39.3789,-460.122C28.4974,-446.32 14.0956,-425.254 8,-404 0.217155,-376.863 7.82597,-344.926 15.6065,-322.856"/>
<polygon fill="black" stroke="black" points="18.895,-324.055 19.1387,-313.463 12.3429,-321.591 18.895,-324.055"/>
<text text-anchor="middle" x="12.5" y="-381.9" font-family="Times Roman,serif" font-size="14.00">b</text>
</g>
<!-- q3 -->
<g id="node17" class="node"><title>q3</title>
<ellipse fill="none" stroke="black" cx="53" cy="-386" rx="27" ry="18"/>
<text text-anchor="middle" x="53" y="-381.9" font-family="Times Roman,serif" font-size="14.00">q3</text>
</g>
<!-- q4&#45;&gt;q3 -->
<g id="edge20" class="edge"><title>q4&#45;&gt;q3</title>
<path fill="none" stroke="black" d="M53,-457.787C53,-445.344 53,-428.605 53,-414.421"/>
<polygon fill="black" stroke="black" points="56.5001,-414.186 53,-404.186 49.5001,-414.186 56.5001,-414.186"/>
<text text-anchor="middle" x="57.5" y="-426.9" font-family="Times Roman,serif" font-size="14.00">a</text>
</g>
<!-- q5 -->
<g id="node5" class="node"><title>q5</title>
<ellipse fill="none" stroke="black" cx="107" cy="-116" rx="27" ry="18"/>
<text text-anchor="middle" x="107" y="-111.9" font-family="Times Roman,serif" font-size="14.00">q5</text>
</g>
<!-- q5&#45;&gt;q6 -->
<g id="edge8" class="edge"><title>q5&#45;&gt;q6</title>
<path fill="none" stroke="black" d="M107.644,-134.269C108.228,-152.45 109,-181.15 109,-206 109,-476 109,-476 109,-476 109,-497.408 103.541,-521.013 98.3266,-538.676"/>
<polygon fill="black" stroke="black" points="94.9527,-537.739 95.3281,-548.328 101.638,-539.816 94.9527,-537.739"/>
<text text-anchor="middle" x="113.5" y="-336.9" font-family="Times Roman,serif" font-size="14.00">a</text>
</g>
<!-- q1 -->
<g id="node7" class="node"><title>q1</title>
<ellipse fill="none" stroke="black" cx="85" cy="-22" rx="27" ry="18"/>
<ellipse fill="none" stroke="black" cx="85" cy="-22" rx="31" ry="22"/>
<text text-anchor="middle" x="85" y="-17.9" font-family="Times Roman,serif" font-size="14.00">q1</text>
</g>
<!-- q5&#45;&gt;q1 -->
<g id="edge6" class="edge"><title>q5&#45;&gt;q1</title>
<path fill="none" stroke="black" d="M95.0583,-99.5916C91.4345,-93.7052 87.9095,-86.829 86,-80 83.7056,-71.7946 82.8185,-62.6781 82.659,-54.149"/>
<polygon fill="black" stroke="black" points="86.1588,-54.1787 82.7798,-44.1372 79.1593,-54.0942 86.1588,-54.1787"/>
<text text-anchor="middle" x="90.5" y="-66.9" font-family="Times Roman,serif" font-size="14.00">b</text>
</g>
<!-- q1&#45;&gt;q5 -->
<g id="edge14" class="edge"><title>q1&#45;&gt;q5</title>
<path fill="none" stroke="black" d="M90.6057,-43.9812C92.067,-49.8297 93.6185,-56.148 95,-62 96.9858,-70.4121 99.0585,-79.5836 100.912,-87.9409"/>
<polygon fill="black" stroke="black" points="97.5516,-88.9583 103.118,-97.9729 104.388,-87.4545 97.5516,-88.9583"/>
<text text-anchor="middle" x="103.5" y="-66.9" font-family="Times Roman,serif" font-size="14.00">b</text>
</g>
<!-- q0 -->
<g id="node12" class="node"><title>q0</title>
<ellipse fill="none" stroke="black" cx="53" cy="-206" rx="27" ry="18"/>
<text text-anchor="middle" x="53" y="-201.9" font-family="Times Roman,serif" font-size="14.00">q0</text>
</g>
<!-- q1&#45;&gt;q0 -->
<g id="edge16" class="edge"><title>q1&#45;&gt;q0</title>
<path fill="none" stroke="black" d="M77.2288,-43.319C72.0629,-58.3893 65.5907,-79.1777 62,-98 56.9027,-124.72 54.6923,-155.705 53.7338,-177.616"/>
<polygon fill="black" stroke="black" points="50.2262,-177.755 53.3473,-187.88 57.2212,-178.019 50.2262,-177.755"/>
<text text-anchor="middle" x="66.5" y="-111.9" font-family="Times Roman,serif" font-size="14.00">a</text>
</g>
<!-- q2&#45;&gt;q2 -->
<g id="edge10" class="edge"><title>q2&#45;&gt;q2</title>
<path fill="none" stroke="black" d="M51.5325,-304.121C62.5078,-304.895 72,-302.188 72,-296 72,-291.843 67.7151,-289.257 61.5743,-288.242"/>
<polygon fill="black" stroke="black" points="61.6524,-284.742 51.5325,-287.879 61.3995,-291.738 61.6524,-284.742"/>
<text text-anchor="middle" x="76.5" y="-291.9" font-family="Times Roman,serif" font-size="14.00">b</text>
</g>
<!-- q2&#45;&gt;q0 -->
<g id="edge12" class="edge"><title>q2&#45;&gt;q0</title>
<path fill="none" stroke="black" d="M23.147,-278.016C21.6196,-267.281 21.042,-253.536 25,-242 26.5153,-237.584 28.8182,-233.292 31.4654,-229.301"/>
<polygon fill="black" stroke="black" points="34.4117,-231.207 37.6385,-221.116 28.8229,-226.992 34.4117,-231.207"/>
<text text-anchor="middle" x="29.5" y="-246.9" font-family="Times Roman,serif" font-size="14.00">a</text>
</g>
<!-- q0&#45;&gt;q5 -->
<g id="edge28" class="edge"><title>q0&#45;&gt;q5</title>
<path fill="none" stroke="black" d="M63.157,-189.072C71.152,-175.747 82.4276,-156.954 91.5417,-141.764"/>
<polygon fill="black" stroke="black" points="94.7448,-143.228 96.8886,-132.852 88.7423,-139.627 94.7448,-143.228"/>
<text text-anchor="middle" x="88.5" y="-156.9" font-family="Times Roman,serif" font-size="14.00">a</text>
</g>
<!-- q0&#45;&gt;q2 -->
<g id="edge26" class="edge"><title>q0&#45;&gt;q2</title>
<path fill="none" stroke="black" d="M47.8739,-223.744C44.2086,-236.432 39.2035,-253.757 35.0132,-268.262"/>
<polygon fill="black" stroke="black" points="31.5497,-267.64 32.1368,-278.219 38.2747,-269.583 31.5497,-267.64"/>
<text text-anchor="middle" x="46.5" y="-246.9" font-family="Times Roman,serif" font-size="14.00">b</text>
</g>
<!-- q3&#45;&gt;q2 -->
<g id="edge22" class="edge"><title>q3&#45;&gt;q2</title>
<path fill="none" stroke="black" d="M40.3231,-370.051C36.2843,-364.096 32.2767,-357.059 30,-350 27.4059,-341.957 26.265,-332.896 25.8761,-324.525"/>
<polygon fill="black" stroke="black" points="29.3744,-324.371 25.733,-314.421 22.3751,-324.47 29.3744,-324.371"/>
<text text-anchor="middle" x="34.5" y="-336.9" font-family="Times Roman,serif" font-size="14.00">b</text>
</g>
<!-- q3&#45;&gt;q2 -->
<g id="edge24" class="edge"><title>q3&#45;&gt;q2</title>
<path fill="none" stroke="black" d="M48.6383,-367.915C46.0177,-357.387 42.5177,-343.887 39,-332 38.1763,-329.216 37.2806,-326.325 36.3622,-323.444"/>
<polygon fill="black" stroke="black" points="39.6643,-322.281 33.2233,-313.869 33.0126,-324.462 39.6643,-322.281"/>
<text text-anchor="middle" x="47.5" y="-336.9" font-family="Times Roman,serif" font-size="14.00">a</text>
</g>
</g>
</svg>
