<?xml version="1.0" encoding="UTF-8" standalone="no"?>
<!DOCTYPE svg PUBLIC "-//W3C//DTD SVG 1.1//EN"
 "http://www.w3.org/Graphics/SVG/1.1/DTD/svg11.dtd">
<!-- Generated by graphviz version 2.26.3 (20100126.1600)
 -->
<!-- Title: G Pages: 1 -->
<svg width="95pt" height="322pt"
 viewBox="0.00 0.00 95.04 322.00" xmlns="http://www.w3.org/2000/svg" xmlns:xlink="http://www.w3.org/1999/xlink">
<g id="graph1" class="graph" transform="scale(1 1) rotate(0) translate(4 318)">
<title>G</title>
<polygon fill="white" stroke="white" points="-4,5 -4,-318 92.0395,-318 92.0395,5 -4,5"/>
<!-- q2 -->
<g id="node1" class="node"><title>q2</title>
<ellipse fill="none" stroke="black" cx="33.0395" cy="-296" rx="27" ry="18"/>
<text text-anchor="middle" x="33.0395" y="-291.9" font-family="Times Roman,serif" font-size="14.00">q2</text>
</g>
<!-- q2&#45;&gt;q2 -->
<g id="edge2" class="edge"><title>q2&#45;&gt;q2</title>
<path fill="none" stroke="black" d="M57.572,-304.121C68.5473,-304.895 78.0395,-302.188 78.0395,-296 78.0395,-291.843 73.7546,-289.257 67.6138,-288.242"/>
<polygon fill="black" stroke="black" points="67.6919,-284.742 57.572,-287.879 67.439,-291.738 67.6919,-284.742"/>
<text text-anchor="middle" x="82.5395" y="-291.9" font-family="Times Roman,serif" font-size="14.00">b</text>
</g>
<!-- q1 -->
<g id="node4" class="node"><title>q1</title>
<ellipse fill="none" stroke="black" cx="33.0395" cy="-206" rx="27" ry="18"/>
<text text-anchor="middle" x="33.0395" y="-201.9" font-family="Times Roman,serif" font-size="14.00">q1</text>
</g>
<!-- q2&#45;&gt;q1 -->
<g id="edge4" class="edge"><title>q2&#45;&gt;q1</title>
<path fill="none" stroke="black" d="M33.0395,-277.787C33.0395,-265.344 33.0395,-248.605 33.0395,-234.421"/>
<polygon fill="black" stroke="black" points="36.5396,-234.186 33.0395,-224.186 29.5396,-234.186 36.5396,-234.186"/>
<text text-anchor="middle" x="37.5395" y="-246.9" font-family="Times Roman,serif" font-size="14.00">a</text>
</g>
<!-- q1&#45;&gt;q1 -->
<g id="edge6" class="edge"><title>q1&#45;&gt;q1</title>
<path fill="none" stroke="black" d="M57.572,-214.121C68.5473,-214.895 78.0395,-212.188 78.0395,-206 78.0395,-201.843 73.7546,-199.257 67.6138,-198.242"/>
<polygon fill="black" stroke="black" points="67.6919,-194.742 57.572,-197.879 67.439,-201.738 67.6919,-194.742"/>
<text text-anchor="middle" x="82.5395" y="-201.9" font-family="Times Roman,serif" font-size="14.00">b</text>
</g>
<!-- q4 -->
<g id="node7" class="node"><title>q4</title>
<ellipse fill="none" stroke="black" cx="33.0395" cy="-116" rx="27" ry="18"/>
<text text-anchor="middle" x="33.0395" y="-111.9" font-family="Times Roman,serif" font-size="14.00">q4</text>
</g>
<!-- q1&#45;&gt;q4 -->
<g id="edge8" class="edge"><title>q1&#45;&gt;q4</title>
<path fill="none" stroke="black" d="M24.2794,-188.86C21.7423,-183.03 19.3143,-176.374 18.0395,-170 16.4706,-162.155 16.4706,-159.845 18.0395,-152 18.657,-148.913 19.545,-145.759 20.585,-142.665"/>
<polygon fill="black" stroke="black" points="23.9264,-143.729 24.2794,-133.14 17.4001,-141.198 23.9264,-143.729"/>
<text text-anchor="middle" x="22.5395" y="-156.9" font-family="Times Roman,serif" font-size="14.00">a</text>
</g>
<!-- q4&#45;&gt;q1 -->
<g id="edge12" class="edge"><title>q4&#45;&gt;q1</title>
<path fill="none" stroke="black" d="M33.0395,-134.186C33.0395,-146.622 33.0395,-163.36 33.0395,-177.548"/>
<polygon fill="black" stroke="black" points="29.5396,-177.787 33.0395,-187.787 36.5396,-177.787 29.5396,-177.787"/>
<text text-anchor="middle" x="37.5395" y="-156.9" font-family="Times Roman,serif" font-size="14.00">a</text>
</g>
<!-- q0 -->
<g id="node9" class="node"><title>q0</title>
<ellipse fill="none" stroke="black" cx="33.0395" cy="-22" rx="27" ry="18"/>
<ellipse fill="none" stroke="black" cx="33.0395" cy="-22" rx="31" ry="22"/>
<text text-anchor="middle" x="33.0395" y="-17.9" font-family="Times Roman,serif" font-size="14.00">q0</text>
</g>
<!-- q4&#45;&gt;q0 -->
<g id="edge10" class="edge"><title>q4&#45;&gt;q0</title>
<path fill="none" stroke="black" d="M16.3884,-101.502C10.7007,-95.4908 5.02472,-88.0416 2.0395,-80 -0.744633,-72.5001 -0.550233,-69.5692 2.0395,-62 3.66065,-57.2617 6.09673,-52.6505 8.90447,-48.3445"/>
<polygon fill="black" stroke="black" points="11.9423,-50.1214 15.0477,-39.9919 6.30323,-45.9739 11.9423,-50.1214"/>
<text text-anchor="middle" x="6.5395" y="-66.9" font-family="Times Roman,serif" font-size="14.00">b</text>
</g>
<!-- q0&#45;&gt;q4 -->
<g id="edge14" class="edge"><title>q0&#45;&gt;q4</title>
<path fill="none" stroke="black" d="M33.0395,-44.0388C33.0395,-57.0958 33.0395,-73.7734 33.0395,-87.785"/>
<polygon fill="black" stroke="black" points="29.5396,-87.8758 33.0395,-97.8759 36.5396,-87.8759 29.5396,-87.8758"/>
<text text-anchor="middle" x="37.5395" y="-66.9" font-family="Times Roman,serif" font-size="14.00">b</text>
</g>
<!-- q0&#45;&gt;q4 -->
<g id="edge16" class="edge"><title>q0&#45;&gt;q4</title>
<path fill="none" stroke="black" d="M39.977,-43.7022C42.6364,-54.5722 44.6817,-67.952 43.0395,-80 42.6663,-82.7376 42.1405,-85.5608 41.5232,-88.3653"/>
<polygon fill="black" stroke="black" points="38.0809,-87.6996 38.9955,-98.2549 44.8629,-89.4331 38.0809,-87.6996"/>
<text text-anchor="middle" x="47.5395" y="-66.9" font-family="Times Roman,serif" font-size="14.00">a</text>
</g>
</g>
</svg>
