<?xml version="1.0" encoding="UTF-8" standalone="no"?>
<!DOCTYPE svg PUBLIC "-//W3C//DTD SVG 1.1//EN"
 "http://www.w3.org/Graphics/SVG/1.1/DTD/svg11.dtd">
<!-- Generated by graphviz version 2.26.3 (20100126.1600)
 -->
<!-- Title: G Pages: 1 -->
<svg width="141pt" height="598pt"
 viewBox="0.00 0.00 141.00 598.00" xmlns="http://www.w3.org/2000/svg" xmlns:xlink="http://www.w3.org/1999/xlink">
<g id="graph1" class="graph" transform="scale(1 1) rotate(0) translate(4 594)">
<title>G</title>
<polygon fill="white" stroke="white" points="-4,5 -4,-594 138,-594 138,5 -4,5"/>
<!-- q6 -->
<g id="node1" class="node"><title>q6</title>
<ellipse fill="none" stroke="black" cx="102" cy="-571" rx="27" ry="18.3848"/>
<text text-anchor="middle" x="102" y="-567.4" font-family="Times Roman,serif" font-size="14.00">q6</text>
</g>
<!-- q1 -->
<g id="node3" class="node"><title>q1</title>
<ellipse fill="none" stroke="black" cx="61" cy="-479" rx="27" ry="18.3848"/>
<text text-anchor="middle" x="61" y="-475.4" font-family="Times Roman,serif" font-size="14.00">q1</text>
</g>
<!-- q6&#45;&gt;q1 -->
<g id="edge2" class="edge"><title>q6&#45;&gt;q1</title>
<path fill="none" stroke="black" d="M94.0948,-553.261C88.1774,-539.983 79.974,-521.576 73.2152,-506.41"/>
<polygon fill="black" stroke="black" points="76.2884,-504.707 69.0208,-496.998 69.8946,-507.557 76.2884,-504.707"/>
<text text-anchor="middle" x="89.5" y="-521.4" font-family="Times Roman,serif" font-size="14.00">b</text>
</g>
<!-- q0 -->
<g id="node5" class="node"><title>q0</title>
<ellipse fill="none" stroke="black" cx="68" cy="-203" rx="27" ry="18.3848"/>
<text text-anchor="middle" x="68" y="-199.4" font-family="Times Roman,serif" font-size="14.00">q0</text>
</g>
<!-- q6&#45;&gt;q0 -->
<g id="edge4" class="edge"><title>q6&#45;&gt;q0</title>
<path fill="none" stroke="black" d="M108.961,-552.976C115.406,-534.645 124,-505.276 124,-479 124,-479 124,-479 124,-295 124,-268.245 106.505,-242.657 91.0728,-225.29"/>
<polygon fill="black" stroke="black" points="93.5764,-222.843 84.1975,-217.915 88.456,-227.616 93.5764,-222.843"/>
<text text-anchor="middle" x="128.5" y="-383.4" font-family="Times Roman,serif" font-size="14.00">a</text>
</g>
<!-- q3 -->
<g id="node9" class="node"><title>q3</title>
<ellipse fill="none" stroke="black" cx="27" cy="-111" rx="27" ry="18.3848"/>
<text text-anchor="middle" x="27" y="-107.4" font-family="Times Roman,serif" font-size="14.00">q3</text>
</g>
<!-- q1&#45;&gt;q3 -->
<g id="edge14" class="edge"><title>q1&#45;&gt;q3</title>
<path fill="none" stroke="black" d="M44.224,-464.2C27.0944,-447.367 3,-418.154 3,-387 3,-387 3,-387 3,-203 3,-180.819 9.61254,-156.576 15.8957,-138.546"/>
<polygon fill="black" stroke="black" points="19.2515,-139.561 19.4062,-128.967 12.6789,-137.152 19.2515,-139.561"/>
<text text-anchor="middle" x="7.5" y="-291.4" font-family="Times Roman,serif" font-size="14.00">b</text>
</g>
<!-- q2 -->
<g id="node10" class="node"><title>q2</title>
<ellipse fill="none" stroke="black" cx="61" cy="-387" rx="27" ry="18.3848"/>
<text text-anchor="middle" x="61" y="-383.4" font-family="Times Roman,serif" font-size="14.00">q2</text>
</g>
<!-- q1&#45;&gt;q2 -->
<g id="edge16" class="edge"><title>q1&#45;&gt;q2</title>
<path fill="none" stroke="black" d="M61,-460.382C61,-447.538 61,-430.216 61,-415.627"/>
<polygon fill="black" stroke="black" points="64.5001,-415.59 61,-405.59 57.5001,-415.59 64.5001,-415.59"/>
<text text-anchor="middle" x="65.5" y="-429.4" font-family="Times Roman,serif" font-size="14.00">a</text>
</g>
<!-- q0&#45;&gt;q3 -->
<g id="edge28" class="edge"><title>q0&#45;&gt;q3</title>
<path fill="none" stroke="black" d="M60.0948,-185.261C54.1774,-171.983 45.974,-153.576 39.2152,-138.41"/>
<polygon fill="black" stroke="black" points="42.2884,-136.707 35.0208,-128.998 35.8946,-139.557 42.2884,-136.707"/>
<text text-anchor="middle" x="55.5" y="-153.4" font-family="Times Roman,serif" font-size="14.00">a</text>
</g>
<!-- q4 -->
<g id="node12" class="node"><title>q4</title>
<ellipse fill="none" stroke="black" cx="68" cy="-295" rx="27" ry="18.3848"/>
<text text-anchor="middle" x="68" y="-291.4" font-family="Times Roman,serif" font-size="14.00">q4</text>
</g>
<!-- q0&#45;&gt;q4 -->
<g id="edge26" class="edge"><title>q0&#45;&gt;q4</title>
<path fill="none" stroke="black" d="M68,-221.59C68,-234.428 68,-251.748 68,-266.342"/>
<polygon fill="black" stroke="black" points="64.5001,-266.382 68,-276.382 71.5001,-266.382 64.5001,-266.382"/>
<text text-anchor="middle" x="72.5" y="-245.4" font-family="Times Roman,serif" font-size="14.00">b</text>
</g>
<!-- q5 -->
<g id="node6" class="node"><title>q5</title>
<ellipse fill="none" stroke="black" cx="27" cy="-19" rx="27" ry="18.3848"/>
<text text-anchor="middle" x="27" y="-15.4" font-family="Times Roman,serif" font-size="14.00">q5</text>
</g>
<!-- q5&#45;&gt;q5 -->
<g id="edge6" class="edge"><title>q5&#45;&gt;q5</title>
<path fill="none" stroke="black" d="M51.0743,-27.4544C62.2423,-28.3767 72,-25.5586 72,-19 72,-14.5934 67.5952,-11.8754 61.3174,-10.8458"/>
<polygon fill="black" stroke="black" points="61.1726,-7.34018 51.0743,-10.5456 60.9674,-14.3372 61.1726,-7.34018"/>
<text text-anchor="middle" x="76.5" y="-15.4" font-family="Times Roman,serif" font-size="14.00">b</text>
</g>
<!-- q5&#45;&gt;q3 -->
<g id="edge8" class="edge"><title>q5&#45;&gt;q3</title>
<path fill="none" stroke="black" d="M27,-37.5899C27,-50.4275 27,-67.7485 27,-82.3416"/>
<polygon fill="black" stroke="black" points="23.5001,-82.3824 27,-92.3824 30.5001,-82.3825 23.5001,-82.3824"/>
<text text-anchor="middle" x="31.5" y="-61.4" font-family="Times Roman,serif" font-size="14.00">a</text>
</g>
<!-- q3&#45;&gt;q5 -->
<g id="edge24" class="edge"><title>q3&#45;&gt;q5</title>
<path fill="none" stroke="black" d="M19.2638,-92.8815C17.1147,-86.9733 15.0761,-80.3089 14,-74 12.6549,-66.1139 12.6549,-63.8861 14,-56 14.5212,-52.9441 15.2683,-49.8048 16.1443,-46.7085"/>
<polygon fill="black" stroke="black" points="19.4988,-47.7107 19.2638,-37.1185 12.8421,-45.5453 19.4988,-47.7107"/>
<text text-anchor="middle" x="18.5" y="-61.4" font-family="Times Roman,serif" font-size="14.00">a</text>
</g>
<!-- q3&#45;&gt;q3 -->
<g id="edge22" class="edge"><title>q3&#45;&gt;q3</title>
<path fill="none" stroke="black" d="M51.0743,-119.454C62.2423,-120.377 72,-117.559 72,-111 72,-106.593 67.5952,-103.875 61.3174,-102.846"/>
<polygon fill="black" stroke="black" points="61.1726,-99.3402 51.0743,-102.546 60.9674,-106.337 61.1726,-99.3402"/>
<text text-anchor="middle" x="76.5" y="-107.4" font-family="Times Roman,serif" font-size="14.00">b</text>
</g>
<!-- q2&#45;&gt;q4 -->
<g id="edge10" class="edge"><title>q2&#45;&gt;q4</title>
<path fill="none" stroke="black" d="M46.9324,-370.852C39.235,-360.006 32.159,-345.316 37,-332 38.8146,-327.009 41.6306,-322.221 44.841,-317.842"/>
<polygon fill="black" stroke="black" points="47.6671,-319.917 51.3411,-309.979 42.272,-315.457 47.6671,-319.917"/>
<text text-anchor="middle" x="41.5" y="-337.4" font-family="Times Roman,serif" font-size="14.00">b</text>
</g>
<!-- q2&#45;&gt;q4 -->
<g id="edge12" class="edge"><title>q2&#45;&gt;q4</title>
<path fill="none" stroke="black" d="M62.4166,-368.382C63.3938,-355.538 64.7118,-338.216 65.8219,-323.627"/>
<polygon fill="black" stroke="black" points="69.3167,-323.827 66.5856,-313.59 62.3369,-323.295 69.3167,-323.827"/>
<text text-anchor="middle" x="69.5" y="-337.4" font-family="Times Roman,serif" font-size="14.00">a</text>
</g>
<!-- q4&#45;&gt;q0 -->
<g id="edge20" class="edge"><title>q4&#45;&gt;q0</title>
<path fill="none" stroke="black" d="M62.0435,-276.751C60.39,-270.836 58.8231,-264.2 58,-258 56.9472,-250.07 56.9472,-247.93 58,-240 58.3858,-237.094 58.9351,-234.091 59.5801,-231.113"/>
<polygon fill="black" stroke="black" points="63.0162,-231.799 62.0435,-221.249 56.2248,-230.103 63.0162,-231.799"/>
<text text-anchor="middle" x="62.5" y="-245.4" font-family="Times Roman,serif" font-size="14.00">a</text>
</g>
<!-- q4&#45;&gt;q2 -->
<g id="edge18" class="edge"><title>q4&#45;&gt;q2</title>
<path fill="none" stroke="black" d="M74.8421,-312.898C78.0751,-323.684 80.696,-337.675 78,-350 77.2523,-353.418 76.1581,-356.898 74.8794,-360.288"/>
<polygon fill="black" stroke="black" points="71.6632,-358.907 70.9217,-369.476 78.0922,-361.677 71.6632,-358.907"/>
<text text-anchor="middle" x="83.5" y="-337.4" font-family="Times Roman,serif" font-size="14.00">b</text>
</g>
</g>
</svg>
