<?xml version="1.0" encoding="UTF-8" standalone="no"?>
<!DOCTYPE svg PUBLIC "-//W3C//DTD SVG 1.1//EN"
 "http://www.w3.org/Graphics/SVG/1.1/DTD/svg11.dtd">
<!-- Generated by graphviz version 2.26.3 (20100126.1600)
 -->
<!-- Title: G Pages: 1 -->
<svg width="154pt" height="232pt"
 viewBox="0.00 0.00 154.00 232.00" xmlns="http://www.w3.org/2000/svg" xmlns:xlink="http://www.w3.org/1999/xlink">
<g id="graph1" class="graph" transform="scale(1 1) rotate(0) translate(4 228)">
<title>G</title>
<polygon fill="white" stroke="white" points="-4,5 -4,-228 151,-228 151,5 -4,5"/>
<!-- q1 -->
<g id="node1" class="node"><title>q1</title>
<ellipse fill="none" stroke="black" cx="88" cy="-202" rx="27" ry="18"/>
<ellipse fill="none" stroke="black" cx="88" cy="-202" rx="31" ry="22"/>
<text text-anchor="middle" x="88" y="-197.9" font-family="Times Roman,serif" font-size="14.00">q1</text>
</g>
<!-- q1&#45;&gt;q1 -->
<g id="edge4" class="edge"><title>q1&#45;&gt;q1</title>
<path fill="none" stroke="black" d="M116.689,-210.965C127.781,-211.363 137,-208.375 137,-202 137,-197.717 132.838,-194.962 126.743,-193.737"/>
<polygon fill="black" stroke="black" points="126.908,-190.24 116.689,-193.035 126.421,-197.223 126.908,-190.24"/>
<text text-anchor="middle" x="141.5" y="-197.9" font-family="Times Roman,serif" font-size="14.00">a</text>
</g>
<!-- q0 -->
<g id="node3" class="node"><title>q0</title>
<ellipse fill="none" stroke="darkred" cx="27" cy="-108" rx="27" ry="18"/>
<text text-anchor="middle" x="27" y="-103.9" font-family="Times Roman,serif" font-size="14.00">q0</text>
</g>
<!-- q1&#45;&gt;q0 -->
<g id="edge2" class="edge"><title>q1&#45;&gt;q0</title>
<path fill="none" stroke="black" d="M74.7639,-181.603C65.5078,-167.34 53.0887,-148.202 43.2342,-133.017"/>
<polygon fill="black" stroke="black" points="46.1514,-131.082 37.7717,-124.599 40.2794,-134.893 46.1514,-131.082"/>
<text text-anchor="middle" x="65.5" y="-148.9" font-family="Times Roman,serif" font-size="14.00">b</text>
</g>
<!-- q0&#45;&gt;q0 -->
<g id="edge12" class="edge"><title>q0&#45;&gt;q0</title>
<path fill="none" stroke="black" d="M51.5325,-116.121C62.5078,-116.895 72,-114.188 72,-108 72,-103.843 67.7151,-101.257 61.5743,-100.242"/>
<polygon fill="black" stroke="black" points="61.6524,-96.7424 51.5325,-99.8789 61.3995,-103.738 61.6524,-96.7424"/>
<text text-anchor="middle" x="76.5" y="-103.9" font-family="Times Roman,serif" font-size="14.00">a</text>
</g>
<!-- q3 -->
<g id="node5" class="node"><title>q3</title>
<ellipse fill="none" stroke="black" cx="59" cy="-18" rx="27" ry="18"/>
<text text-anchor="middle" x="59" y="-13.9" font-family="Times Roman,serif" font-size="14.00">q3</text>
</g>
<!-- q0&#45;&gt;q3 -->
<g id="edge10" class="edge"><title>q0&#45;&gt;q3</title>
<path fill="none" stroke="black" d="M24.3285,-89.9088C23.4623,-79.1351 23.6522,-65.3878 28,-54 29.8644,-49.1167 32.7056,-44.4449 35.9256,-40.1793"/>
<polygon fill="black" stroke="black" points="38.6191,-42.4145 42.4275,-32.5278 33.2849,-37.8817 38.6191,-42.4145"/>
<text text-anchor="middle" x="32.5" y="-58.9" font-family="Times Roman,serif" font-size="14.00">b</text>
</g>
<!-- q3&#45;&gt;q1 -->
<g id="edge8" class="edge"><title>q3&#45;&gt;q1</title>
<path fill="none" stroke="black" d="M68.7256,-35.0981C76.2079,-49.2908 85.9336,-70.2729 90,-90 95.4569,-116.473 94.399,-147.214 92.2917,-169.786"/>
<polygon fill="black" stroke="black" points="88.799,-169.534 91.2333,-179.845 95.7605,-170.267 88.799,-169.534"/>
<text text-anchor="middle" x="97.5" y="-103.9" font-family="Times Roman,serif" font-size="14.00">a</text>
</g>
<!-- q3&#45;&gt;q0 -->
<g id="edge6" class="edge"><title>q3&#45;&gt;q0</title>
<path fill="none" stroke="black" d="M52.691,-35.7442C48.136,-48.5549 41.8999,-66.0939 36.7124,-80.6838"/>
<polygon fill="black" stroke="black" points="33.3746,-79.6242 33.3222,-90.2189 39.9701,-81.9693 33.3746,-79.6242"/>
<text text-anchor="middle" x="50.5" y="-58.9" font-family="Times Roman,serif" font-size="14.00">b</text>
</g>
</g>
</svg>
