<?xml version="1.0" encoding="UTF-8" standalone="no"?>
<!DOCTYPE svg PUBLIC "-//W3C//DTD SVG 1.1//EN"
 "http://www.w3.org/Graphics/SVG/1.1/DTD/svg11.dtd">
<!-- Generated by graphviz version 2.26.3 (20100126.1600)
 -->
<!-- Title: G Pages: 1 -->
<svg width="180pt" height="502pt"
 viewBox="0.00 0.00 180.00 502.00" xmlns="http://www.w3.org/2000/svg" xmlns:xlink="http://www.w3.org/1999/xlink">
<g id="graph1" class="graph" transform="scale(1 1) rotate(0) translate(4 498)">
<title>G</title>
<polygon fill="white" stroke="white" points="-4,5 -4,-498 177,-498 177,5 -4,5"/>
<!-- q6 -->
<g id="node1" class="node"><title>q6</title>
<ellipse fill="none" stroke="black" cx="118" cy="-476" rx="27" ry="18"/>
<text text-anchor="middle" x="118" y="-471.9" font-family="Times Roman,serif" font-size="14.00">q6</text>
</g>
<!-- q6&#45;&gt;q6 -->
<g id="edge2" class="edge"><title>q6&#45;&gt;q6</title>
<path fill="none" stroke="black" d="M142.532,-484.121C153.508,-484.895 163,-482.188 163,-476 163,-471.843 158.715,-469.257 152.574,-468.242"/>
<polygon fill="black" stroke="black" points="152.652,-464.742 142.532,-467.879 152.4,-471.738 152.652,-464.742"/>
<text text-anchor="middle" x="167.5" y="-471.9" font-family="Times Roman,serif" font-size="14.00">b</text>
</g>
<!-- q4 -->
<g id="node4" class="node"><title>q4</title>
<ellipse fill="none" stroke="black" cx="83" cy="-386" rx="27" ry="18"/>
<text text-anchor="middle" x="83" y="-381.9" font-family="Times Roman,serif" font-size="14.00">q4</text>
</g>
<!-- q6&#45;&gt;q4 -->
<g id="edge4" class="edge"><title>q6&#45;&gt;q4</title>
<path fill="none" stroke="black" d="M111.085,-458.219C106.067,-445.316 99.1896,-427.63 93.4963,-412.99"/>
<polygon fill="black" stroke="black" points="96.668,-411.489 89.7814,-403.438 90.1439,-414.027 96.668,-411.489"/>
<text text-anchor="middle" x="107.5" y="-426.9" font-family="Times Roman,serif" font-size="14.00">a</text>
</g>
<!-- q3 -->
<g id="node9" class="node"><title>q3</title>
<ellipse fill="none" stroke="black" cx="27" cy="-296" rx="27" ry="18"/>
<text text-anchor="middle" x="27" y="-291.9" font-family="Times Roman,serif" font-size="14.00">q3</text>
</g>
<!-- q4&#45;&gt;q3 -->
<g id="edge20" class="edge"><title>q4&#45;&gt;q3</title>
<path fill="none" stroke="black" d="M72.4668,-369.072C64.1757,-355.747 52.4825,-336.954 43.0308,-321.764"/>
<polygon fill="black" stroke="black" points="45.7407,-319.494 37.4859,-312.852 39.7973,-323.192 45.7407,-319.494"/>
<text text-anchor="middle" x="64.5" y="-336.9" font-family="Times Roman,serif" font-size="14.00">a</text>
</g>
<!-- q2 -->
<g id="node10" class="node"><title>q2</title>
<ellipse fill="none" stroke="black" cx="56" cy="-206" rx="27" ry="18"/>
<text text-anchor="middle" x="56" y="-201.9" font-family="Times Roman,serif" font-size="14.00">q2</text>
</g>
<!-- q4&#45;&gt;q2 -->
<g id="edge18" class="edge"><title>q4&#45;&gt;q2</title>
<path fill="none" stroke="black" d="M80.3124,-368.083C75.6142,-336.761 65.8738,-271.825 60.2523,-234.349"/>
<polygon fill="black" stroke="black" points="63.6615,-233.482 58.7168,-224.112 56.739,-234.52 63.6615,-233.482"/>
<text text-anchor="middle" x="76.5" y="-291.9" font-family="Times Roman,serif" font-size="14.00">b</text>
</g>
<!-- q5 -->
<g id="node5" class="node"><title>q5</title>
<ellipse fill="none" stroke="black" cx="56" cy="-116" rx="27" ry="18"/>
<text text-anchor="middle" x="56" y="-111.9" font-family="Times Roman,serif" font-size="14.00">q5</text>
</g>
<!-- q1 -->
<g id="node7" class="node"><title>q1</title>
<ellipse fill="none" stroke="black" cx="88" cy="-22" rx="27" ry="18"/>
<ellipse fill="none" stroke="black" cx="88" cy="-22" rx="31" ry="22"/>
<text text-anchor="middle" x="88" y="-17.9" font-family="Times Roman,serif" font-size="14.00">q1</text>
</g>
<!-- q5&#45;&gt;q1 -->
<g id="edge6" class="edge"><title>q5&#45;&gt;q1</title>
<path fill="none" stroke="black" d="M53.5431,-97.9876C52.7529,-87.2417 52.9474,-73.4962 57,-62 58.6649,-57.277 61.1253,-52.6741 63.9444,-48.3721"/>
<polygon fill="black" stroke="black" points="66.9822,-50.1493 70.0947,-40.0219 61.3461,-45.998 66.9822,-50.1493"/>
<text text-anchor="middle" x="61.5" y="-66.9" font-family="Times Roman,serif" font-size="14.00">b</text>
</g>
<!-- q5&#45;&gt;q3 -->
<g id="edge8" class="edge"><title>q5&#45;&gt;q3</title>
<path fill="none" stroke="black" d="M42.3789,-131.878C31.4974,-145.68 17.0956,-166.746 11,-188 3.28611,-214.897 9.78888,-246.686 16.6774,-268.781"/>
<polygon fill="black" stroke="black" points="13.4338,-270.118 19.9243,-278.492 20.0725,-267.898 13.4338,-270.118"/>
<text text-anchor="middle" x="15.5" y="-201.9" font-family="Times Roman,serif" font-size="14.00">a</text>
</g>
<!-- q1&#45;&gt;q6 -->
<g id="edge14" class="edge"><title>q1&#45;&gt;q6</title>
<path fill="none" stroke="black" d="M104.928,-40.6241C119.433,-58.5663 138,-87.1642 138,-116 138,-386 138,-386 138,-386 138,-407.408 132.541,-431.013 127.327,-448.676"/>
<polygon fill="black" stroke="black" points="123.953,-447.739 124.328,-458.328 130.638,-449.816 123.953,-447.739"/>
<text text-anchor="middle" x="142.5" y="-246.9" font-family="Times Roman,serif" font-size="14.00">b</text>
</g>
<!-- q1&#45;&gt;q5 -->
<g id="edge16" class="edge"><title>q1&#45;&gt;q5</title>
<path fill="none" stroke="black" d="M80.6598,-43.5618C76.1156,-56.9105 70.2375,-74.1772 65.3602,-88.5045"/>
<polygon fill="black" stroke="black" points="61.9284,-87.7249 62.019,-98.3193 68.5549,-89.9808 61.9284,-87.7249"/>
<text text-anchor="middle" x="77.5" y="-66.9" font-family="Times Roman,serif" font-size="14.00">a</text>
</g>
<!-- q3&#45;&gt;q2 -->
<g id="edge22" class="edge"><title>q3&#45;&gt;q2</title>
<path fill="none" stroke="black" d="M25.9874,-278.004C25.9514,-267.265 26.9192,-253.519 31,-242 32.4293,-237.965 34.4374,-233.966 36.7011,-230.181"/>
<polygon fill="black" stroke="black" points="39.6419,-232.079 42.2945,-221.822 33.8242,-228.186 39.6419,-232.079"/>
<text text-anchor="middle" x="35.5" y="-246.9" font-family="Times Roman,serif" font-size="14.00">b</text>
</g>
<!-- q3&#45;&gt;q2 -->
<g id="edge24" class="edge"><title>q3&#45;&gt;q2</title>
<path fill="none" stroke="black" d="M33.5543,-278.493C35.684,-272.638 38.0097,-266.061 40,-260 42.7761,-251.546 45.6003,-242.279 48.0876,-233.845"/>
<polygon fill="black" stroke="black" points="51.4953,-234.661 50.9287,-224.082 44.7741,-232.706 51.4953,-234.661"/>
<text text-anchor="middle" x="49.5" y="-246.9" font-family="Times Roman,serif" font-size="14.00">a</text>
</g>
<!-- q2&#45;&gt;q5 -->
<g id="edge12" class="edge"><title>q2&#45;&gt;q5</title>
<path fill="none" stroke="black" d="M56,-187.787C56,-175.344 56,-158.605 56,-144.421"/>
<polygon fill="black" stroke="black" points="59.5001,-144.186 56,-134.186 52.5001,-144.186 59.5001,-144.186"/>
<text text-anchor="middle" x="60.5" y="-156.9" font-family="Times Roman,serif" font-size="14.00">a</text>
</g>
<!-- q2&#45;&gt;q2 -->
<g id="edge10" class="edge"><title>q2&#45;&gt;q2</title>
<path fill="none" stroke="black" d="M80.5325,-214.121C91.5078,-214.895 101,-212.188 101,-206 101,-201.843 96.7151,-199.257 90.5743,-198.242"/>
<polygon fill="black" stroke="black" points="90.6524,-194.742 80.5325,-197.879 90.3995,-201.738 90.6524,-194.742"/>
<text text-anchor="middle" x="105.5" y="-201.9" font-family="Times Roman,serif" font-size="14.00">b</text>
</g>
</g>
</svg>
