<?xml version="1.0" encoding="UTF-8" standalone="no"?>
<!DOCTYPE svg PUBLIC "-//W3C//DTD SVG 1.1//EN"
 "http://www.w3.org/Graphics/SVG/1.1/DTD/svg11.dtd">
<!-- Generated by graphviz version 2.26.3 (20100126.1600)
 -->
<!-- Title: G Pages: 1 -->
<svg width="168pt" height="506pt"
 viewBox="0.00 0.00 168.00 506.00" xmlns="http://www.w3.org/2000/svg" xmlns:xlink="http://www.w3.org/1999/xlink">
<g id="graph1" class="graph" transform="scale(1 1) rotate(0) translate(4 502)">
<title>G</title>
<polygon fill="white" stroke="white" points="-4,5 -4,-502 165,-502 165,5 -4,5"/>
<!-- q5 -->
<g id="node1" class="node"><title>q5</title>
<ellipse fill="none" stroke="black" cx="60" cy="-479" rx="27" ry="18.3848"/>
<text text-anchor="middle" x="60" y="-475.4" font-family="Times Roman,serif" font-size="14.00">q5</text>
</g>
<!-- q4 -->
<g id="node3" class="node"><title>q4</title>
<ellipse fill="none" stroke="black" cx="90" cy="-387" rx="27" ry="18.3848"/>
<text text-anchor="middle" x="90" y="-383.4" font-family="Times Roman,serif" font-size="14.00">q4</text>
</g>
<!-- q5&#45;&gt;q4 -->
<g id="edge2" class="edge"><title>q5&#45;&gt;q4</title>
<path fill="none" stroke="black" d="M65.927,-460.824C70.2003,-447.719 76.0472,-429.789 80.9086,-414.88"/>
<polygon fill="black" stroke="black" points="84.3126,-415.731 84.0853,-405.138 77.6574,-413.561 84.3126,-415.731"/>
<text text-anchor="middle" x="81.5" y="-429.4" font-family="Times Roman,serif" font-size="14.00">b</text>
</g>
<!-- q2 -->
<g id="node5" class="node"><title>q2</title>
<ellipse fill="none" stroke="black" cx="27" cy="-203" rx="27" ry="18.3848"/>
<text text-anchor="middle" x="27" y="-199.4" font-family="Times Roman,serif" font-size="14.00">q2</text>
</g>
<!-- q5&#45;&gt;q2 -->
<g id="edge4" class="edge"><title>q5&#45;&gt;q2</title>
<path fill="none" stroke="black" d="M56.2245,-460.605C55.0881,-454.682 53.9042,-448.078 53,-442 41.7669,-366.485 33.3123,-276.864 29.4006,-231.85"/>
<polygon fill="black" stroke="black" points="32.8683,-231.322 28.5266,-221.658 25.8939,-231.92 32.8683,-231.322"/>
<text text-anchor="middle" x="45.5" y="-337.4" font-family="Times Roman,serif" font-size="14.00">a</text>
</g>
<!-- q4&#45;&gt;q5 -->
<g id="edge16" class="edge"><title>q4&#45;&gt;q5</title>
<path fill="none" stroke="black" d="M74.4759,-402.183C69.1616,-408.396 63.8425,-416.002 61,-424 58.0669,-432.253 57.107,-441.651 57.083,-450.315"/>
<polygon fill="black" stroke="black" points="53.5883,-450.526 57.4481,-460.393 60.5837,-450.273 53.5883,-450.526"/>
<text text-anchor="middle" x="65.5" y="-429.4" font-family="Times Roman,serif" font-size="14.00">a</text>
</g>
<!-- q0 -->
<g id="node13" class="node"><title>q0</title>
<ellipse fill="none" stroke="black" cx="90" cy="-295" rx="27" ry="18.3848"/>
<text text-anchor="middle" x="90" y="-291.4" font-family="Times Roman,serif" font-size="14.00">q0</text>
</g>
<!-- q4&#45;&gt;q0 -->
<g id="edge14" class="edge"><title>q4&#45;&gt;q0</title>
<path fill="none" stroke="black" d="M90,-368.382C90,-355.538 90,-338.216 90,-323.627"/>
<polygon fill="black" stroke="black" points="93.5001,-323.59 90,-313.59 86.5001,-323.59 93.5001,-323.59"/>
<text text-anchor="middle" x="94.5" y="-337.4" font-family="Times Roman,serif" font-size="14.00">b</text>
</g>
<!-- q1 -->
<g id="node7" class="node"><title>q1</title>
<ellipse fill="none" stroke="black" cx="66" cy="-111" rx="27" ry="18.3848"/>
<text text-anchor="middle" x="66" y="-107.4" font-family="Times Roman,serif" font-size="14.00">q1</text>
</g>
<!-- q2&#45;&gt;q1 -->
<g id="edge6" class="edge"><title>q2&#45;&gt;q1</title>
<path fill="none" stroke="black" d="M35.3098,-185.39C38.1346,-179.28 41.2665,-172.366 44,-166 47.8327,-157.074 51.8321,-147.248 55.3534,-138.401"/>
<polygon fill="black" stroke="black" points="58.6764,-139.514 59.0915,-128.928 52.1651,-136.945 58.6764,-139.514"/>
<text text-anchor="middle" x="54.5" y="-153.4" font-family="Times Roman,serif" font-size="14.00">b</text>
</g>
<!-- q2&#45;&gt;q1 -->
<g id="edge8" class="edge"><title>q2&#45;&gt;q1</title>
<path fill="none" stroke="black" d="M12.2194,-187.153C3.61132,-175.921 -4.2457,-160.658 3,-148 9.39975,-136.82 20.6374,-128.687 31.8669,-122.943"/>
<polygon fill="black" stroke="black" points="33.5614,-126.017 41.1915,-118.666 30.6428,-119.654 33.5614,-126.017"/>
<text text-anchor="middle" x="7.5" y="-153.4" font-family="Times Roman,serif" font-size="14.00">a</text>
</g>
<!-- q1&#45;&gt;q2 -->
<g id="edge12" class="edge"><title>q1&#45;&gt;q2</title>
<path fill="none" stroke="black" d="M49.958,-126.229C44.345,-132.447 38.5611,-140.045 35,-148 31.3562,-156.139 29.3007,-165.57 28.1616,-174.3"/>
<polygon fill="black" stroke="black" points="24.6574,-174.175 27.1814,-184.465 31.6251,-174.847 24.6574,-174.175"/>
<text text-anchor="middle" x="39.5" y="-153.4" font-family="Times Roman,serif" font-size="14.00">a</text>
</g>
<!-- q3 -->
<g id="node10" class="node"><title>q3</title>
<ellipse fill="none" stroke="black" cx="106" cy="-19" rx="27" ry="18.3848"/>
<text text-anchor="middle" x="106" y="-15.4" font-family="Times Roman,serif" font-size="14.00">q3</text>
</g>
<!-- q1&#45;&gt;q3 -->
<g id="edge10" class="edge"><title>q1&#45;&gt;q3</title>
<path fill="none" stroke="black" d="M73.7124,-93.2615C79.4855,-79.9833 87.4888,-61.5758 94.0827,-46.4097"/>
<polygon fill="black" stroke="black" points="97.3972,-47.5642 98.1748,-36.998 90.9777,-44.7731 97.3972,-47.5642"/>
<text text-anchor="middle" x="93.5" y="-61.4" font-family="Times Roman,serif" font-size="14.00">b</text>
</g>
<!-- q3&#45;&gt;q3 -->
<g id="edge18" class="edge"><title>q3&#45;&gt;q3</title>
<path fill="none" stroke="black" d="M130.074,-27.4544C141.242,-28.3767 151,-25.5586 151,-19 151,-14.5934 146.595,-11.8754 140.317,-10.8458"/>
<polygon fill="black" stroke="black" points="140.173,-7.34018 130.074,-10.5456 139.967,-14.3372 140.173,-7.34018"/>
<text text-anchor="middle" x="155.5" y="-15.4" font-family="Times Roman,serif" font-size="14.00">b</text>
</g>
<!-- q3&#45;&gt;q0 -->
<g id="edge20" class="edge"><title>q3&#45;&gt;q0</title>
<path fill="none" stroke="black" d="M106.51,-37.6826C107.363,-78.0633 108.102,-176.421 98,-258 97.6441,-260.874 97.1738,-263.855 96.6389,-266.82"/>
<polygon fill="black" stroke="black" points="93.1992,-266.172 94.6442,-276.668 100.06,-267.562 93.1992,-266.172"/>
<text text-anchor="middle" x="109.5" y="-153.4" font-family="Times Roman,serif" font-size="14.00">a</text>
</g>
<!-- q0&#45;&gt;q2 -->
<g id="edge24" class="edge"><title>q0&#45;&gt;q2</title>
<path fill="none" stroke="black" d="M78.4448,-278.126C68.8537,-264.12 55.0719,-243.994 44.1864,-228.098"/>
<polygon fill="black" stroke="black" points="47.0198,-226.041 38.4819,-219.767 41.2442,-229.996 47.0198,-226.041"/>
<text text-anchor="middle" x="68.5" y="-245.4" font-family="Times Roman,serif" font-size="14.00">a</text>
</g>
<!-- q0&#45;&gt;q1 -->
<g id="edge22" class="edge"><title>q0&#45;&gt;q1</title>
<path fill="none" stroke="black" d="M87.5667,-276.345C83.3511,-244.025 74.6659,-177.438 69.6994,-139.362"/>
<polygon fill="black" stroke="black" points="73.1682,-138.895 68.4041,-129.431 66.227,-139.8 73.1682,-138.895"/>
<text text-anchor="middle" x="84.5" y="-199.4" font-family="Times Roman,serif" font-size="14.00">b</text>
</g>
</g>
</svg>
