<?xml version="1.0" encoding="UTF-8" standalone="no"?>
<!DOCTYPE svg PUBLIC "-//W3C//DTD SVG 1.1//EN"
 "http://www.w3.org/Graphics/SVG/1.1/DTD/svg11.dtd">
<!-- Generated by graphviz version 2.26.3 (20100126.1600)
 -->
<!-- Title: G Pages: 1 -->
<svg width="161pt" height="322pt"
 viewBox="0.00 0.00 161.00 322.00" xmlns="http://www.w3.org/2000/svg" xmlns:xlink="http://www.w3.org/1999/xlink">
<g id="graph1" class="graph" transform="scale(1 1) rotate(0) translate(4 318)">
<title>G</title>
<polygon fill="white" stroke="white" points="-4,5 -4,-318 158,-318 158,5 -4,5"/>
<!-- q2 -->
<g id="node1" class="node"><title>q2</title>
<ellipse fill="none" stroke="black" cx="27" cy="-296" rx="27" ry="18"/>
<text text-anchor="middle" x="27" y="-291.9" font-family="Times Roman,serif" font-size="14.00">q2</text>
</g>
<!-- q2&#45;&gt;q2 -->
<g id="edge2" class="edge"><title>q2&#45;&gt;q2</title>
<path fill="none" stroke="black" d="M51.5325,-304.121C62.5078,-304.895 72,-302.188 72,-296 72,-291.843 67.7151,-289.257 61.5743,-288.242"/>
<polygon fill="black" stroke="black" points="61.6524,-284.742 51.5325,-287.879 61.3995,-291.738 61.6524,-284.742"/>
<text text-anchor="middle" x="76.5" y="-291.9" font-family="Times Roman,serif" font-size="14.00">b</text>
</g>
<!-- q1 -->
<g id="node4" class="node"><title>q1</title>
<ellipse fill="none" stroke="black" cx="27" cy="-206" rx="27" ry="18"/>
<text text-anchor="middle" x="27" y="-201.9" font-family="Times Roman,serif" font-size="14.00">q1</text>
</g>
<!-- q2&#45;&gt;q1 -->
<g id="edge4" class="edge"><title>q2&#45;&gt;q1</title>
<path fill="none" stroke="black" d="M27,-277.787C27,-265.344 27,-248.605 27,-234.421"/>
<polygon fill="black" stroke="black" points="30.5001,-234.186 27,-224.186 23.5001,-234.186 30.5001,-234.186"/>
<text text-anchor="middle" x="31.5" y="-246.9" font-family="Times Roman,serif" font-size="14.00">a</text>
</g>
<!-- q1&#45;&gt;q1 -->
<g id="edge6" class="edge"><title>q1&#45;&gt;q1</title>
<path fill="none" stroke="black" d="M51.5325,-214.121C62.5078,-214.895 72,-212.188 72,-206 72,-201.843 67.7151,-199.257 61.5743,-198.242"/>
<polygon fill="black" stroke="black" points="61.6524,-194.742 51.5325,-197.879 61.3995,-201.738 61.6524,-194.742"/>
<text text-anchor="middle" x="76.5" y="-201.9" font-family="Times Roman,serif" font-size="14.00">b</text>
</g>
<!-- q4 -->
<g id="node7" class="node"><title>q4</title>
<ellipse fill="none" stroke="black" cx="62" cy="-116" rx="27" ry="18"/>
<text text-anchor="middle" x="62" y="-111.9" font-family="Times Roman,serif" font-size="14.00">q4</text>
</g>
<!-- q1&#45;&gt;q4 -->
<g id="edge8" class="edge"><title>q1&#45;&gt;q4</title>
<path fill="none" stroke="black" d="M24.6111,-187.832C23.9257,-177.031 24.3691,-163.282 29,-152 31.1329,-146.804 34.3719,-141.886 38.0016,-137.45"/>
<polygon fill="black" stroke="black" points="40.6251,-139.768 44.8028,-130.032 35.4653,-135.038 40.6251,-139.768"/>
<text text-anchor="middle" x="33.5" y="-156.9" font-family="Times Roman,serif" font-size="14.00">a</text>
</g>
<!-- q4&#45;&gt;q1 -->
<g id="edge12" class="edge"><title>q4&#45;&gt;q1</title>
<path fill="none" stroke="black" d="M55.2186,-133.438C50.2341,-146.255 43.3626,-163.925 37.6485,-178.618"/>
<polygon fill="black" stroke="black" points="34.2774,-177.63 33.9149,-188.219 40.8014,-180.167 34.2774,-177.63"/>
<text text-anchor="middle" x="52.5" y="-156.9" font-family="Times Roman,serif" font-size="14.00">a</text>
</g>
<!-- q0 -->
<g id="node9" class="node"><title>q0</title>
<ellipse fill="none" stroke="black" cx="82" cy="-22" rx="27" ry="18"/>
<ellipse fill="none" stroke="black" cx="82" cy="-22" rx="31" ry="22"/>
<text text-anchor="middle" x="82" y="-17.9" font-family="Times Roman,serif" font-size="14.00">q0</text>
</g>
<!-- q4&#45;&gt;q0 -->
<g id="edge10" class="edge"><title>q4&#45;&gt;q0</title>
<path fill="none" stroke="black" d="M46.6015,-100.991C37.4969,-90.222 28.8449,-75.3209 35,-62 38.4129,-54.6138 43.9366,-48.09 50.0185,-42.5668"/>
<polygon fill="black" stroke="black" points="52.3798,-45.1571 57.9039,-36.1164 47.9476,-39.739 52.3798,-45.1571"/>
<text text-anchor="middle" x="39.5" y="-66.9" font-family="Times Roman,serif" font-size="14.00">b</text>
</g>
<!-- q0&#45;&gt;q4 -->
<g id="edge18" class="edge"><title>q0&#45;&gt;q4</title>
<path fill="none" stroke="black" d="M72.8282,-43.2661C70.5873,-49.2292 68.4265,-55.7832 67,-62 65.1049,-70.259 63.9244,-79.385 63.1901,-87.7478"/>
<polygon fill="black" stroke="black" points="59.6928,-87.5876 62.4786,-97.8096 66.6754,-88.0814 59.6928,-87.5876"/>
<text text-anchor="middle" x="71.5" y="-66.9" font-family="Times Roman,serif" font-size="14.00">b</text>
</g>
<!-- q0&#45;&gt;q4 -->
<g id="edge20" class="edge"><title>q0&#45;&gt;q4</title>
<path fill="none" stroke="black" d="M81.1141,-43.9927C80.3236,-54.9341 78.8282,-68.2901 76,-80 75.2679,-83.0311 74.3399,-86.1489 73.3112,-89.2217"/>
<polygon fill="black" stroke="black" points="69.9831,-88.1307 69.7991,-98.724 76.549,-90.5576 69.9831,-88.1307"/>
<text text-anchor="middle" x="83.5" y="-66.9" font-family="Times Roman,serif" font-size="14.00">a</text>
</g>
<!-- q3 -->
<g id="node11" class="node"><title>q3</title>
<ellipse fill="none" stroke="black" cx="126" cy="-206" rx="27" ry="18"/>
<text text-anchor="middle" x="126" y="-201.9" font-family="Times Roman,serif" font-size="14.00">q3</text>
</g>
<!-- q3&#45;&gt;q4 -->
<g id="edge16" class="edge"><title>q3&#45;&gt;q4</title>
<path fill="none" stroke="black" d="M114.261,-189.493C104.608,-175.918 90.7764,-156.467 79.7671,-140.985"/>
<polygon fill="black" stroke="black" points="82.3118,-138.524 73.6642,-132.403 76.6071,-142.581 82.3118,-138.524"/>
<text text-anchor="middle" x="103.5" y="-156.9" font-family="Times Roman,serif" font-size="14.00">a</text>
</g>
<!-- q3&#45;&gt;q0 -->
<g id="edge14" class="edge"><title>q3&#45;&gt;q0</title>
<path fill="none" stroke="black" d="M121.783,-187.796C115.43,-160.457 102.981,-107.179 92,-62 91.3565,-59.3525 90.6834,-56.608 90.0035,-53.8539"/>
<polygon fill="black" stroke="black" points="93.3617,-52.8546 87.5535,-43.9938 86.5683,-54.5427 93.3617,-52.8546"/>
<text text-anchor="middle" x="112.5" y="-111.9" font-family="Times Roman,serif" font-size="14.00">b</text>
</g>
</g>
</svg>
