<?xml version="1.0" encoding="UTF-8" standalone="no"?>
<!DOCTYPE svg PUBLIC "-//W3C//DTD SVG 1.1//EN"
 "http://www.w3.org/Graphics/SVG/1.1/DTD/svg11.dtd">
<!-- Generated by graphviz version 2.26.3 (20100126.1600)
 -->
<!-- Title: G Pages: 1 -->
<svg width="264pt" height="414pt"
 viewBox="0.00 0.00 264.00 414.00" xmlns="http://www.w3.org/2000/svg" xmlns:xlink="http://www.w3.org/1999/xlink">
<g id="graph1" class="graph" transform="scale(1 1) rotate(0) translate(4 410)">
<title>G</title>
<polygon fill="white" stroke="white" points="-4,5 -4,-410 261,-410 261,5 -4,5"/>
<!-- q6 -->
<g id="node1" class="node"><title>q6</title>
<ellipse fill="none" stroke="black" cx="81" cy="-387" rx="27" ry="18.3848"/>
<text text-anchor="middle" x="81" y="-383.4" font-family="Times Roman,serif" font-size="14.00">q6</text>
</g>
<!-- q0 -->
<g id="node3" class="node"><title>q0</title>
<ellipse fill="none" stroke="black" cx="137" cy="-295" rx="27" ry="18.3848"/>
<text text-anchor="middle" x="137" y="-291.4" font-family="Times Roman,serif" font-size="14.00">q0</text>
</g>
<!-- q6&#45;&gt;q0 -->
<g id="edge2" class="edge"><title>q6&#45;&gt;q0</title>
<path fill="none" stroke="black" d="M91.5332,-369.696C99.9025,-355.946 111.738,-336.501 121.236,-320.898"/>
<polygon fill="black" stroke="black" points="124.304,-322.589 126.514,-312.227 118.325,-318.949 124.304,-322.589"/>
<text text-anchor="middle" x="118.5" y="-337.4" font-family="Times Roman,serif" font-size="14.00">b</text>
</g>
<!-- q3 -->
<g id="node5" class="node"><title>q3</title>
<ellipse fill="none" stroke="black" cx="202" cy="-203" rx="27" ry="18.3848"/>
<text text-anchor="middle" x="202" y="-199.4" font-family="Times Roman,serif" font-size="14.00">q3</text>
</g>
<!-- q6&#45;&gt;q3 -->
<g id="edge4" class="edge"><title>q6&#45;&gt;q3</title>
<path fill="none" stroke="black" d="M76.7026,-368.651C70.7097,-338.056 63.7974,-276.395 95,-240 116.188,-215.285 135.613,-233.68 166,-222 167.88,-221.277 169.788,-220.48 171.693,-219.634"/>
<polygon fill="black" stroke="black" points="173.583,-222.609 181.07,-215.113 170.543,-216.303 173.583,-222.609"/>
<text text-anchor="middle" x="80.5" y="-291.4" font-family="Times Roman,serif" font-size="14.00">a</text>
</g>
<!-- q0&#45;&gt;q3 -->
<g id="edge30" class="edge"><title>q0&#45;&gt;q3</title>
<path fill="none" stroke="black" d="M148.922,-278.126C158.818,-264.12 173.037,-243.994 184.268,-228.098"/>
<polygon fill="black" stroke="black" points="187.242,-229.954 190.154,-219.767 181.525,-225.915 187.242,-229.954"/>
<text text-anchor="middle" x="179.5" y="-245.4" font-family="Times Roman,serif" font-size="14.00">b</text>
</g>
<!-- q4 -->
<g id="node14" class="node"><title>q4</title>
<ellipse fill="none" stroke="black" cx="58" cy="-203" rx="27" ry="18.3848"/>
<text text-anchor="middle" x="58" y="-199.4" font-family="Times Roman,serif" font-size="14.00">q4</text>
</g>
<!-- q0&#45;&gt;q4 -->
<g id="edge32" class="edge"><title>q0&#45;&gt;q4</title>
<path fill="none" stroke="black" d="M123.239,-278.975C110.854,-264.552 92.49,-243.166 78.3979,-226.755"/>
<polygon fill="black" stroke="black" points="81.0382,-224.457 71.8681,-219.15 75.7275,-229.017 81.0382,-224.457"/>
<text text-anchor="middle" x="108.5" y="-245.4" font-family="Times Roman,serif" font-size="14.00">a</text>
</g>
<!-- q3&#45;&gt;q0 -->
<g id="edge28" class="edge"><title>q3&#45;&gt;q0</title>
<path fill="none" stroke="black" d="M181.072,-214.753C167.445,-222.825 151.41,-233.258 147,-240 141.96,-247.706 139.282,-257.254 137.908,-266.221"/>
<polygon fill="black" stroke="black" points="134.409,-266.02 136.83,-276.335 141.37,-266.762 134.409,-266.02"/>
<text text-anchor="middle" x="151.5" y="-245.4" font-family="Times Roman,serif" font-size="14.00">a</text>
</g>
<!-- q3&#45;&gt;q3 -->
<g id="edge26" class="edge"><title>q3&#45;&gt;q3</title>
<path fill="none" stroke="black" d="M226.074,-211.454C237.242,-212.377 247,-209.559 247,-203 247,-198.593 242.595,-195.875 236.317,-194.846"/>
<polygon fill="black" stroke="black" points="236.173,-191.34 226.074,-194.546 235.967,-198.337 236.173,-191.34"/>
<text text-anchor="middle" x="251.5" y="-199.4" font-family="Times Roman,serif" font-size="14.00">b</text>
</g>
<!-- q5 -->
<g id="node6" class="node"><title>q5</title>
<ellipse fill="none" stroke="black" cx="27" cy="-19" rx="27" ry="18.3848"/>
<text text-anchor="middle" x="27" y="-15.4" font-family="Times Roman,serif" font-size="14.00">q5</text>
</g>
<!-- q5&#45;&gt;q0 -->
<g id="edge8" class="edge"><title>q5&#45;&gt;q0</title>
<path fill="none" stroke="black" d="M20.8198,-37.0112C9.18307,-74.3176 -11.9099,-161.593 22,-222 31.3891,-238.726 75.0555,-263.566 105.788,-279.522"/>
<polygon fill="black" stroke="black" points="104.363,-282.724 114.859,-284.169 107.555,-276.494 104.363,-282.724"/>
<text text-anchor="middle" x="8.5" y="-153.4" font-family="Times Roman,serif" font-size="14.00">a</text>
</g>
<!-- q5&#45;&gt;q5 -->
<g id="edge6" class="edge"><title>q5&#45;&gt;q5</title>
<path fill="none" stroke="black" d="M51.0743,-27.4544C62.2423,-28.3767 72,-25.5586 72,-19 72,-14.5934 67.5952,-11.8754 61.3174,-10.8458"/>
<polygon fill="black" stroke="black" points="61.1726,-7.34018 51.0743,-10.5456 60.9674,-14.3372 61.1726,-7.34018"/>
<text text-anchor="middle" x="76.5" y="-15.4" font-family="Times Roman,serif" font-size="14.00">b</text>
</g>
<!-- q7 -->
<g id="node9" class="node"><title>q7</title>
<ellipse fill="none" stroke="black" cx="130" cy="-203" rx="27" ry="18.3848"/>
<text text-anchor="middle" x="130" y="-199.4" font-family="Times Roman,serif" font-size="14.00">q7</text>
</g>
<!-- q2 -->
<g id="node11" class="node"><title>q2</title>
<ellipse fill="none" stroke="black" cx="67" cy="-111" rx="27" ry="18.3848"/>
<text text-anchor="middle" x="67" y="-107.4" font-family="Times Roman,serif" font-size="14.00">q2</text>
</g>
<!-- q7&#45;&gt;q2 -->
<g id="edge10" class="edge"><title>q7&#45;&gt;q2</title>
<path fill="none" stroke="black" d="M125.406,-184.59C122.035,-173.361 116.692,-159.084 109,-148 104.831,-141.992 99.4838,-136.32 94.0115,-131.304"/>
<polygon fill="black" stroke="black" points="95.8982,-128.312 86.0269,-124.463 91.3438,-133.627 95.8982,-128.312"/>
<text text-anchor="middle" x="122.5" y="-153.4" font-family="Times Roman,serif" font-size="14.00">b</text>
</g>
<!-- q7&#45;&gt;q2 -->
<g id="edge12" class="edge"><title>q7&#45;&gt;q2</title>
<path fill="none" stroke="black" d="M116.048,-186.809C110.809,-180.473 104.933,-173.045 100,-166 93.6769,-156.97 87.3091,-146.698 81.8768,-137.496"/>
<polygon fill="black" stroke="black" points="84.8395,-135.628 76.7927,-128.736 78.7853,-139.142 84.8395,-135.628"/>
<text text-anchor="middle" x="104.5" y="-153.4" font-family="Times Roman,serif" font-size="14.00">a</text>
</g>
<!-- q2&#45;&gt;q5 -->
<g id="edge16" class="edge"><title>q2&#45;&gt;q5</title>
<path fill="none" stroke="black" d="M59.2876,-93.2615C53.5145,-79.9833 45.5112,-61.5758 38.9173,-46.4097"/>
<polygon fill="black" stroke="black" points="42.0223,-44.7731 34.8252,-36.998 35.6028,-47.5642 42.0223,-44.7731"/>
<text text-anchor="middle" x="54.5" y="-61.4" font-family="Times Roman,serif" font-size="14.00">a</text>
</g>
<!-- q2&#45;&gt;q4 -->
<g id="edge14" class="edge"><title>q2&#45;&gt;q4</title>
<path fill="none" stroke="black" d="M50.3411,-125.979C44.6524,-132.167 38.9778,-139.809 36,-148 32.4159,-157.859 35.1804,-168.592 39.8035,-177.939"/>
<polygon fill="black" stroke="black" points="36.8514,-179.826 44.8798,-186.74 42.915,-176.328 36.8514,-179.826"/>
<text text-anchor="middle" x="40.5" y="-153.4" font-family="Times Roman,serif" font-size="14.00">b</text>
</g>
<!-- q4&#45;&gt;q6 -->
<g id="edge24" class="edge"><title>q4&#45;&gt;q6</title>
<path fill="none" stroke="black" d="M53.6802,-221.267C49.1265,-243.427 43.4492,-281.814 50,-314 53.2705,-330.069 60.2071,-346.985 66.691,-360.484"/>
<polygon fill="black" stroke="black" points="63.6703,-362.268 71.2733,-369.647 69.9311,-359.138 63.6703,-362.268"/>
<text text-anchor="middle" x="54.5" y="-291.4" font-family="Times Roman,serif" font-size="14.00">a</text>
</g>
<!-- q4&#45;&gt;q2 -->
<g id="edge22" class="edge"><title>q4&#45;&gt;q2</title>
<path fill="none" stroke="black" d="M59.8213,-184.382C61.0778,-171.538 62.7723,-154.216 64.1995,-139.627"/>
<polygon fill="black" stroke="black" points="67.6911,-139.883 65.1814,-129.59 60.7243,-139.202 67.6911,-139.883"/>
<text text-anchor="middle" x="67.5" y="-153.4" font-family="Times Roman,serif" font-size="14.00">b</text>
</g>
<!-- q1 -->
<g id="node16" class="node"><title>q1</title>
<ellipse fill="none" stroke="black" cx="163" cy="-387" rx="27" ry="18.3848"/>
<text text-anchor="middle" x="163" y="-383.4" font-family="Times Roman,serif" font-size="14.00">q1</text>
</g>
<!-- q1&#45;&gt;q0 -->
<g id="edge18" class="edge"><title>q1&#45;&gt;q0</title>
<path fill="none" stroke="black" d="M157.863,-368.824C154.184,-355.804 149.158,-338.021 144.961,-323.171"/>
<polygon fill="black" stroke="black" points="148.303,-322.125 142.215,-313.453 141.567,-324.028 148.303,-322.125"/>
<text text-anchor="middle" x="156.5" y="-337.4" font-family="Times Roman,serif" font-size="14.00">b</text>
</g>
<!-- q1&#45;&gt;q3 -->
<g id="edge20" class="edge"><title>q1&#45;&gt;q3</title>
<path fill="none" stroke="black" d="M166.882,-368.685C173.698,-336.53 187.859,-269.718 195.962,-231.487"/>
<polygon fill="black" stroke="black" points="199.426,-232.023 198.076,-221.514 192.578,-230.571 199.426,-232.023"/>
<text text-anchor="middle" x="190.5" y="-291.4" font-family="Times Roman,serif" font-size="14.00">a</text>
</g>
</g>
</svg>
