<?xml version="1.0" encoding="UTF-8" standalone="no"?>
<!DOCTYPE svg PUBLIC "-//W3C//DTD SVG 1.1//EN"
 "http://www.w3.org/Graphics/SVG/1.1/DTD/svg11.dtd">
<!-- Generated by graphviz version 2.26.3 (20100126.1600)
 -->
<!-- Title: G Pages: 1 -->
<svg width="171pt" height="598pt"
 viewBox="0.00 0.00 171.00 598.00" xmlns="http://www.w3.org/2000/svg" xmlns:xlink="http://www.w3.org/1999/xlink">
<g id="graph1" class="graph" transform="scale(1 1) rotate(0) translate(4 594)">
<title>G</title>
<polygon fill="white" stroke="white" points="-4,5 -4,-594 168,-594 168,5 -4,5"/>
<!-- q6 -->
<g id="node1" class="node"><title>q6</title>
<ellipse fill="none" stroke="black" cx="109" cy="-295" rx="27" ry="18.3848"/>
<text text-anchor="middle" x="109" y="-291.4" font-family="Times Roman,serif" font-size="14.00">q6</text>
</g>
<!-- q6&#45;&gt;q6 -->
<g id="edge2" class="edge"><title>q6&#45;&gt;q6</title>
<path fill="none" stroke="black" d="M133.074,-303.454C144.242,-304.377 154,-301.559 154,-295 154,-290.593 149.595,-287.875 143.317,-286.846"/>
<polygon fill="black" stroke="black" points="143.173,-283.34 133.074,-286.546 142.967,-290.337 143.173,-283.34"/>
<text text-anchor="middle" x="158.5" y="-291.4" font-family="Times Roman,serif" font-size="14.00">b</text>
</g>
<!-- q7 -->
<g id="node4" class="node"><title>q7</title>
<ellipse fill="none" stroke="black" cx="65" cy="-203" rx="27" ry="18.3848"/>
<text text-anchor="middle" x="65" y="-199.4" font-family="Times Roman,serif" font-size="14.00">q7</text>
</g>
<!-- q6&#45;&gt;q7 -->
<g id="edge4" class="edge"><title>q6&#45;&gt;q7</title>
<path fill="none" stroke="black" d="M100.516,-277.261C94.125,-263.898 85.2487,-245.338 77.9688,-230.117"/>
<polygon fill="black" stroke="black" points="80.9297,-228.195 73.4576,-220.684 74.6147,-231.216 80.9297,-228.195"/>
<text text-anchor="middle" x="94.5" y="-245.4" font-family="Times Roman,serif" font-size="14.00">a</text>
</g>
<!-- q7&#45;&gt;q7 -->
<g id="edge10" class="edge"><title>q7&#45;&gt;q7</title>
<path fill="none" stroke="black" d="M89.0743,-211.454C100.242,-212.377 110,-209.559 110,-203 110,-198.593 105.595,-195.875 99.3174,-194.846"/>
<polygon fill="black" stroke="black" points="99.1726,-191.34 89.0743,-194.546 98.9674,-198.337 99.1726,-191.34"/>
<text text-anchor="middle" x="114.5" y="-199.4" font-family="Times Roman,serif" font-size="14.00">b</text>
</g>
<!-- q4 -->
<g id="node11" class="node"><title>q4</title>
<ellipse fill="none" stroke="black" cx="65" cy="-111" rx="27" ry="18.3848"/>
<text text-anchor="middle" x="65" y="-107.4" font-family="Times Roman,serif" font-size="14.00">q4</text>
</g>
<!-- q7&#45;&gt;q4 -->
<g id="edge12" class="edge"><title>q7&#45;&gt;q4</title>
<path fill="none" stroke="black" d="M65,-184.382C65,-171.538 65,-154.216 65,-139.627"/>
<polygon fill="black" stroke="black" points="68.5001,-139.59 65,-129.59 61.5001,-139.59 68.5001,-139.59"/>
<text text-anchor="middle" x="69.5" y="-153.4" font-family="Times Roman,serif" font-size="14.00">a</text>
</g>
<!-- q5 -->
<g id="node5" class="node"><title>q5</title>
<ellipse fill="none" stroke="black" cx="117" cy="-571" rx="27" ry="18.3848"/>
<text text-anchor="middle" x="117" y="-567.4" font-family="Times Roman,serif" font-size="14.00">q5</text>
</g>
<!-- q2 -->
<g id="node7" class="node"><title>q2</title>
<ellipse fill="none" stroke="black" cx="81" cy="-479" rx="27" ry="18.3848"/>
<text text-anchor="middle" x="81" y="-475.4" font-family="Times Roman,serif" font-size="14.00">q2</text>
</g>
<!-- q5&#45;&gt;q2 -->
<g id="edge6" class="edge"><title>q5&#45;&gt;q2</title>
<path fill="none" stroke="black" d="M115.626,-552.35C114.333,-541.425 111.831,-527.55 107,-516 105.213,-511.729 102.87,-507.462 100.322,-503.425"/>
<polygon fill="black" stroke="black" points="103.104,-501.293 94.5514,-495.039 97.3369,-505.261 103.104,-501.293"/>
<text text-anchor="middle" x="116.5" y="-521.4" font-family="Times Roman,serif" font-size="14.00">b</text>
</g>
<!-- q5&#45;&gt;q2 -->
<g id="edge8" class="edge"><title>q5&#45;&gt;q2</title>
<path fill="none" stroke="black" d="M107.274,-553.604C104.082,-547.511 100.671,-540.553 98,-534 94.529,-525.486 91.3573,-515.988 88.7179,-507.313"/>
<polygon fill="black" stroke="black" points="92.0475,-506.229 85.8781,-497.615 85.3297,-508.196 92.0475,-506.229"/>
<text text-anchor="middle" x="102.5" y="-521.4" font-family="Times Roman,serif" font-size="14.00">a</text>
</g>
<!-- q1 -->
<g id="node13" class="node"><title>q1</title>
<ellipse fill="none" stroke="black" cx="33" cy="-571" rx="27" ry="18.3848"/>
<text text-anchor="middle" x="33" y="-567.4" font-family="Times Roman,serif" font-size="14.00">q1</text>
</g>
<!-- q2&#45;&gt;q1 -->
<g id="edge14" class="edge"><title>q2&#45;&gt;q1</title>
<path fill="none" stroke="black" d="M71.7735,-496.684C64.7422,-510.161 54.9419,-528.945 46.9536,-544.256"/>
<polygon fill="black" stroke="black" points="43.7775,-542.777 42.2549,-553.261 49.9836,-546.015 43.7775,-542.777"/>
<text text-anchor="middle" x="65.5" y="-521.4" font-family="Times Roman,serif" font-size="14.00">b</text>
</g>
<!-- q0 -->
<g id="node15" class="node"><title>q0</title>
<ellipse fill="none" stroke="black" cx="81" cy="-387" rx="27" ry="18.3848"/>
<text text-anchor="middle" x="81" y="-383.4" font-family="Times Roman,serif" font-size="14.00">q0</text>
</g>
<!-- q2&#45;&gt;q0 -->
<g id="edge16" class="edge"><title>q2&#45;&gt;q0</title>
<path fill="none" stroke="black" d="M81,-460.382C81,-447.538 81,-430.216 81,-415.627"/>
<polygon fill="black" stroke="black" points="84.5001,-415.59 81,-405.59 77.5001,-415.59 84.5001,-415.59"/>
<text text-anchor="middle" x="85.5" y="-429.4" font-family="Times Roman,serif" font-size="14.00">a</text>
</g>
<!-- q3 -->
<g id="node18" class="node"><title>q3</title>
<ellipse fill="none" stroke="black" cx="49" cy="-19" rx="27" ry="18.3848"/>
<text text-anchor="middle" x="49" y="-15.4" font-family="Times Roman,serif" font-size="14.00">q3</text>
</g>
<!-- q4&#45;&gt;q3 -->
<g id="edge22" class="edge"><title>q4&#45;&gt;q3</title>
<path fill="none" stroke="black" d="M72.6473,-92.8869C76.1658,-82.0247 78.804,-68.0296 75,-56 73.6042,-51.5858 71.4718,-47.242 69.0163,-43.1704"/>
<polygon fill="black" stroke="black" points="71.8123,-41.0581 63.2853,-34.77 66.0298,-45.0032 71.8123,-41.0581"/>
<text text-anchor="middle" x="80.5" y="-61.4" font-family="Times Roman,serif" font-size="14.00">b</text>
</g>
<!-- q4&#45;&gt;q3 -->
<g id="edge24" class="edge"><title>q4&#45;&gt;q3</title>
<path fill="none" stroke="black" d="M48.3411,-96.0207C42.6524,-89.8332 36.9778,-82.1909 34,-74 30.7219,-64.9831 32.0772,-54.9088 35.0269,-45.8707"/>
<polygon fill="black" stroke="black" points="38.2825,-47.1554 38.7096,-36.5692 31.7741,-44.5785 38.2825,-47.1554"/>
<text text-anchor="middle" x="38.5" y="-61.4" font-family="Times Roman,serif" font-size="14.00">a</text>
</g>
<!-- q1&#45;&gt;q2 -->
<g id="edge18" class="edge"><title>q1&#45;&gt;q2</title>
<path fill="none" stroke="black" d="M31.7495,-552.455C31.7694,-541.309 33.2047,-527.169 39,-516 42.4462,-509.358 47.619,-503.365 53.168,-498.23"/>
<polygon fill="black" stroke="black" points="55.438,-500.894 60.8411,-491.781 50.934,-495.536 55.438,-500.894"/>
<text text-anchor="middle" x="43.5" y="-521.4" font-family="Times Roman,serif" font-size="14.00">b</text>
</g>
<!-- q1&#45;&gt;q3 -->
<g id="edge20" class="edge"><title>q1&#45;&gt;q3</title>
<path fill="none" stroke="black" d="M22.7395,-553.681C13.0523,-535.664 0,-506.32 0,-479 0,-479 0,-479 0,-111 0,-85.6509 14.6709,-60.4975 27.9575,-42.9153"/>
<polygon fill="black" stroke="black" points="30.824,-44.9335 34.2984,-34.9245 25.3407,-40.5823 30.824,-44.9335"/>
<text text-anchor="middle" x="4.5" y="-291.4" font-family="Times Roman,serif" font-size="14.00">a</text>
</g>
<!-- q0&#45;&gt;q6 -->
<g id="edge32" class="edge"><title>q0&#45;&gt;q6</title>
<path fill="none" stroke="black" d="M86.5319,-368.824C90.5203,-355.719 95.9774,-337.789 100.515,-322.88"/>
<polygon fill="black" stroke="black" points="103.916,-323.724 103.48,-313.138 97.2195,-321.686 103.916,-323.724"/>
<text text-anchor="middle" x="101.5" y="-337.4" font-family="Times Roman,serif" font-size="14.00">a</text>
</g>
<!-- q0&#45;&gt;q7 -->
<g id="edge30" class="edge"><title>q0&#45;&gt;q7</title>
<path fill="none" stroke="black" d="M75.4824,-368.603C71.3931,-353.964 66.1687,-332.874 64,-314 60.8051,-286.194 61.5571,-254.212 62.806,-231.742"/>
<polygon fill="black" stroke="black" points="66.3132,-231.734 63.4439,-221.535 59.3269,-231.297 66.3132,-231.734"/>
<text text-anchor="middle" x="68.5" y="-291.4" font-family="Times Roman,serif" font-size="14.00">b</text>
</g>
<!-- q3&#45;&gt;q4 -->
<g id="edge26" class="edge"><title>q3&#45;&gt;q4</title>
<path fill="none" stroke="black" d="M52.233,-37.5899C54.4657,-50.4275 57.478,-67.7485 60.0159,-82.3416"/>
<polygon fill="black" stroke="black" points="56.6004,-83.13 61.7622,-92.3824 63.4969,-81.9306 56.6004,-83.13"/>
<text text-anchor="middle" x="62.5" y="-61.4" font-family="Times Roman,serif" font-size="14.00">b</text>
</g>
<!-- q3&#45;&gt;q3 -->
<g id="edge28" class="edge"><title>q3&#45;&gt;q3</title>
<path fill="none" stroke="black" d="M73.0743,-27.4544C84.2423,-28.3767 94,-25.5586 94,-19 94,-14.5934 89.5952,-11.8754 83.3174,-10.8458"/>
<polygon fill="black" stroke="black" points="83.1726,-7.34018 73.0743,-10.5456 82.9674,-14.3372 83.1726,-7.34018"/>
<text text-anchor="middle" x="98.5" y="-15.4" font-family="Times Roman,serif" font-size="14.00">a</text>
</g>
</g>
</svg>
