<?xml version="1.0" encoding="UTF-8" standalone="no"?>
<!DOCTYPE svg PUBLIC "-//W3C//DTD SVG 1.1//EN"
 "http://www.w3.org/Graphics/SVG/1.1/DTD/svg11.dtd">
<!-- Generated by graphviz version 2.26.3 (20100126.1600)
 -->
<!-- Title: G Pages: 1 -->
<svg width="227pt" height="322pt"
 viewBox="0.00 0.00 226.98 322.00" xmlns="http://www.w3.org/2000/svg" xmlns:xlink="http://www.w3.org/1999/xlink">
<g id="graph1" class="graph" transform="scale(1 1) rotate(0) translate(4 318)">
<title>G</title>
<polygon fill="white" stroke="white" points="-4,5 -4,-318 223.98,-318 223.98,5 -4,5"/>
<!-- q2 -->
<g id="node1" class="node"><title>q2</title>
<ellipse fill="none" stroke="black" cx="132.98" cy="-295" rx="27" ry="18.3848"/>
<text text-anchor="middle" x="132.98" y="-291.4" font-family="Times Roman,serif" font-size="14.00">q2</text>
</g>
<!-- q0 -->
<g id="node3" class="node"><title>q0</title>
<ellipse fill="none" stroke="black" cx="46.9797" cy="-111" rx="27" ry="18.3848"/>
<text text-anchor="middle" x="46.9797" y="-107.4" font-family="Times Roman,serif" font-size="14.00">q0</text>
</g>
<!-- q2&#45;&gt;q0 -->
<g id="edge2" class="edge"><title>q2&#45;&gt;q0</title>
<path fill="none" stroke="black" d="M106.255,-292.3C81.2758,-288.502 44.2805,-279.444 19.9797,-258 6.71241,-246.293 6.85129,-239.265 2.9797,-222 -4.40401,-189.072 2.75187,-177.017 19.9797,-148 22.3737,-143.968 25.0973,-139.83 27.8718,-135.849"/>
<polygon fill="black" stroke="black" points="30.8949,-137.642 33.9185,-127.487 25.2226,-133.54 30.8949,-137.642"/>
<text text-anchor="middle" x="7.4797" y="-199.4" font-family="Times Roman,serif" font-size="14.00">b</text>
</g>
<!-- q1 -->
<g id="node5" class="node"><title>q1</title>
<ellipse fill="none" stroke="black" cx="91.9797" cy="-203" rx="27" ry="18.3848"/>
<text text-anchor="middle" x="91.9797" y="-199.4" font-family="Times Roman,serif" font-size="14.00">q1</text>
</g>
<!-- q2&#45;&gt;q1 -->
<g id="edge4" class="edge"><title>q2&#45;&gt;q1</title>
<path fill="none" stroke="black" d="M125.074,-277.261C119.157,-263.983 110.954,-245.576 104.195,-230.41"/>
<polygon fill="black" stroke="black" points="107.268,-228.707 100.001,-220.998 100.874,-231.557 107.268,-228.707"/>
<text text-anchor="middle" x="120.48" y="-245.4" font-family="Times Roman,serif" font-size="14.00">a</text>
</g>
<!-- q0&#45;&gt;q2 -->
<g id="edge18" class="edge"><title>q0&#45;&gt;q2</title>
<path fill="none" stroke="black" d="M42.4827,-129.294C37.843,-152.153 33.0571,-191.92 46.9797,-222 58.3935,-246.66 82.6979,-266.033 102.567,-278.606"/>
<polygon fill="black" stroke="black" points="100.953,-281.72 111.321,-283.899 104.575,-275.73 100.953,-281.72"/>
<text text-anchor="middle" x="51.4797" y="-199.4" font-family="Times Roman,serif" font-size="14.00">b</text>
</g>
<!-- q4 -->
<g id="node9" class="node"><title>q4</title>
<ellipse fill="none" stroke="black" cx="191.98" cy="-19" rx="27" ry="18.3848"/>
<text text-anchor="middle" x="191.98" y="-15.4" font-family="Times Roman,serif" font-size="14.00">q4</text>
</g>
<!-- q0&#45;&gt;q4 -->
<g id="edge20" class="edge"><title>q0&#45;&gt;q4</title>
<path fill="none" stroke="black" d="M66.8373,-98.4007C91.753,-82.5921 134.666,-55.3649 163.184,-37.2703"/>
<polygon fill="black" stroke="black" points="165.328,-40.0552 171.897,-31.7424 161.578,-34.1445 165.328,-40.0552"/>
<text text-anchor="middle" x="136.48" y="-61.4" font-family="Times Roman,serif" font-size="14.00">a</text>
</g>
<!-- q1&#45;&gt;q0 -->
<g id="edge6" class="edge"><title>q1&#45;&gt;q0</title>
<path fill="none" stroke="black" d="M83.3032,-185.261C76.7044,-171.77 67.5154,-152.984 60.031,-137.683"/>
<polygon fill="black" stroke="black" points="63.1675,-136.129 55.6295,-128.684 56.8794,-139.205 63.1675,-136.129"/>
<text text-anchor="middle" x="77.4797" y="-153.4" font-family="Times Roman,serif" font-size="14.00">b</text>
</g>
<!-- q3 -->
<g id="node8" class="node"><title>q3</title>
<ellipse fill="none" stroke="black" cx="130.98" cy="-111" rx="27" ry="18.3848"/>
<text text-anchor="middle" x="130.98" y="-107.4" font-family="Times Roman,serif" font-size="14.00">q3</text>
</g>
<!-- q1&#45;&gt;q3 -->
<g id="edge8" class="edge"><title>q1&#45;&gt;q3</title>
<path fill="none" stroke="black" d="M92.1611,-184.465C92.8714,-173.453 94.8543,-159.449 99.9797,-148 102.15,-143.153 105.145,-138.438 108.424,-134.087"/>
<polygon fill="black" stroke="black" points="111.251,-136.162 114.938,-126.229 105.861,-131.694 111.251,-136.162"/>
<text text-anchor="middle" x="104.48" y="-153.4" font-family="Times Roman,serif" font-size="14.00">a</text>
</g>
<!-- q3&#45;&gt;q2 -->
<g id="edge14" class="edge"><title>q3&#45;&gt;q2</title>
<path fill="none" stroke="black" d="M131.183,-129.705C131.532,-161.837 132.249,-227.739 132.664,-265.91"/>
<polygon fill="black" stroke="black" points="129.168,-266.383 132.777,-276.345 136.168,-266.307 129.168,-266.383"/>
<text text-anchor="middle" x="136.48" y="-199.4" font-family="Times Roman,serif" font-size="14.00">b</text>
</g>
<!-- q3&#45;&gt;q1 -->
<g id="edge16" class="edge"><title>q3&#45;&gt;q1</title>
<path fill="none" stroke="black" d="M124.071,-128.928C119.846,-139.724 114.255,-153.715 108.98,-166 107.57,-169.282 106.055,-172.71 104.53,-176.099"/>
<polygon fill="black" stroke="black" points="101.258,-174.839 100.29,-185.39 107.626,-177.746 101.258,-174.839"/>
<text text-anchor="middle" x="119.48" y="-153.4" font-family="Times Roman,serif" font-size="14.00">a</text>
</g>
<!-- q4&#45;&gt;q2 -->
<g id="edge10" class="edge"><title>q4&#45;&gt;q2</title>
<path fill="none" stroke="black" d="M189.373,-37.5013C183.469,-77.933 167.867,-177.031 145.98,-258 145.154,-261.056 144.199,-264.223 143.189,-267.359"/>
<polygon fill="black" stroke="black" points="139.782,-266.507 139.868,-277.101 146.407,-268.766 139.782,-266.507"/>
<text text-anchor="middle" x="174.48" y="-153.4" font-family="Times Roman,serif" font-size="14.00">b</text>
</g>
<!-- q4&#45;&gt;q2 -->
<g id="edge12" class="edge"><title>q4&#45;&gt;q2</title>
<path fill="none" stroke="black" d="M196.152,-37.3473C197.31,-43.2677 198.406,-49.8815 198.98,-56 199.727,-63.9651 199.547,-66.0201 198.98,-74 194.245,-140.617 189.171,-157.207 172.98,-222 168.924,-238.231 169.715,-243.165 161.98,-258 159.649,-262.469 156.756,-266.934 153.707,-271.138"/>
<polygon fill="black" stroke="black" points="150.725,-269.272 147.359,-279.318 156.255,-273.563 150.725,-269.272"/>
<text text-anchor="middle" x="194.48" y="-153.4" font-family="Times Roman,serif" font-size="14.00">a</text>
</g>
</g>
</svg>
