<?xml version="1.0" encoding="UTF-8" standalone="no"?>
<!DOCTYPE svg PUBLIC "-//W3C//DTD SVG 1.1//EN"
 "http://www.w3.org/Graphics/SVG/1.1/DTD/svg11.dtd">
<!-- Generated by graphviz version 2.26.3 (20100126.1600)
 -->
<!-- Title: G Pages: 1 -->
<svg width="154pt" height="518pt"
 viewBox="0.00 0.00 154.00 518.00" xmlns="http://www.w3.org/2000/svg" xmlns:xlink="http://www.w3.org/1999/xlink">
<g id="graph1" class="graph" transform="scale(1 1) rotate(0) translate(4 514)">
<title>G</title>
<polygon fill="white" stroke="white" points="-4,5 -4,-514 151,-514 151,5 -4,5"/>
<!-- q6 -->
<g id="node1" class="node"><title>q6</title>
<ellipse fill="none" stroke="black" cx="82" cy="-492" rx="27" ry="18"/>
<text text-anchor="middle" x="82" y="-487.9" font-family="Times Roman,serif" font-size="14.00">q6</text>
</g>
<!-- q6&#45;&gt;q6 -->
<g id="edge2" class="edge"><title>q6&#45;&gt;q6</title>
<path fill="none" stroke="black" d="M106.532,-500.121C117.508,-500.895 127,-498.188 127,-492 127,-487.843 122.715,-485.257 116.574,-484.242"/>
<polygon fill="black" stroke="black" points="116.652,-480.742 106.532,-483.879 116.4,-487.738 116.652,-480.742"/>
<text text-anchor="middle" x="131.5" y="-487.9" font-family="Times Roman,serif" font-size="14.00">b</text>
</g>
<!-- q4 -->
<g id="node4" class="node"><title>q4</title>
<ellipse fill="none" stroke="black" cx="82" cy="-402" rx="27" ry="18"/>
<text text-anchor="middle" x="82" y="-397.9" font-family="Times Roman,serif" font-size="14.00">q4</text>
</g>
<!-- q6&#45;&gt;q4 -->
<g id="edge4" class="edge"><title>q6&#45;&gt;q4</title>
<path fill="none" stroke="black" d="M82,-473.787C82,-461.344 82,-444.605 82,-430.421"/>
<polygon fill="black" stroke="black" points="85.5001,-430.186 82,-420.186 78.5001,-430.186 85.5001,-430.186"/>
<text text-anchor="middle" x="86.5" y="-442.9" font-family="Times Roman,serif" font-size="14.00">a</text>
</g>
<!-- q4&#45;&gt;q4 -->
<g id="edge20" class="edge"><title>q4&#45;&gt;q4</title>
<path fill="none" stroke="black" d="M106.532,-410.121C117.508,-410.895 127,-408.188 127,-402 127,-397.843 122.715,-395.257 116.574,-394.242"/>
<polygon fill="black" stroke="black" points="116.652,-390.742 106.532,-393.879 116.4,-397.738 116.652,-390.742"/>
<text text-anchor="middle" x="131.5" y="-397.9" font-family="Times Roman,serif" font-size="14.00">a</text>
</g>
<!-- q2 -->
<g id="node9" class="node"><title>q2</title>
<ellipse fill="none" stroke="black" cx="27" cy="-312" rx="27" ry="18"/>
<text text-anchor="middle" x="27" y="-307.9" font-family="Times Roman,serif" font-size="14.00">q2</text>
</g>
<!-- q4&#45;&gt;q2 -->
<g id="edge18" class="edge"><title>q4&#45;&gt;q2</title>
<path fill="none" stroke="black" d="M71.6549,-385.072C63.5119,-371.747 52.0275,-352.954 42.7446,-337.764"/>
<polygon fill="black" stroke="black" points="45.4997,-335.56 37.2987,-328.852 39.5267,-339.21 45.4997,-335.56"/>
<text text-anchor="middle" x="63.5" y="-352.9" font-family="Times Roman,serif" font-size="14.00">b</text>
</g>
<!-- q5 -->
<g id="node5" class="node"><title>q5</title>
<ellipse fill="none" stroke="black" cx="35" cy="-218" rx="27" ry="18"/>
<ellipse fill="none" stroke="black" cx="35" cy="-218" rx="31" ry="22"/>
<text text-anchor="middle" x="35" y="-213.9" font-family="Times Roman,serif" font-size="14.00">q5</text>
</g>
<!-- q1 -->
<g id="node7" class="node"><title>q1</title>
<ellipse fill="none" stroke="black" cx="50" cy="-120" rx="27" ry="18"/>
<ellipse fill="none" stroke="black" cx="50" cy="-120" rx="31" ry="22"/>
<text text-anchor="middle" x="50" y="-115.9" font-family="Times Roman,serif" font-size="14.00">q1</text>
</g>
<!-- q5&#45;&gt;q1 -->
<g id="edge6" class="edge"><title>q5&#45;&gt;q1</title>
<path fill="none" stroke="black" d="M28.6086,-196.266C26.3209,-185.269 24.9721,-171.788 28,-160 28.9427,-156.33 30.3007,-152.635 31.886,-149.053"/>
<polygon fill="black" stroke="black" points="35.1089,-150.435 36.4839,-139.93 28.8579,-147.285 35.1089,-150.435"/>
<text text-anchor="middle" x="32.5" y="-164.9" font-family="Times Roman,serif" font-size="14.00">b</text>
</g>
<!-- q5&#45;&gt;q2 -->
<g id="edge8" class="edge"><title>q5&#45;&gt;q2</title>
<path fill="none" stroke="black" d="M33.1244,-240.039C32.0131,-253.096 30.5938,-269.773 29.4013,-283.785"/>
<polygon fill="black" stroke="black" points="25.9032,-283.615 28.5425,-293.876 32.878,-284.209 25.9032,-283.615"/>
<text text-anchor="middle" x="36.5" y="-262.9" font-family="Times Roman,serif" font-size="14.00">a</text>
</g>
<!-- q1&#45;&gt;q5 -->
<g id="edge16" class="edge"><title>q1&#45;&gt;q5</title>
<path fill="none" stroke="black" d="M46.6097,-142.15C44.6369,-155.039 42.1151,-171.515 39.9262,-185.816"/>
<polygon fill="black" stroke="black" points="36.4571,-185.348 38.4037,-195.762 43.3765,-186.407 36.4571,-185.348"/>
<text text-anchor="middle" x="47.5" y="-164.9" font-family="Times Roman,serif" font-size="14.00">a</text>
</g>
<!-- q0 -->
<g id="node13" class="node"><title>q0</title>
<ellipse fill="none" stroke="black" cx="88" cy="-22" rx="27" ry="18"/>
<ellipse fill="none" stroke="black" cx="88" cy="-22" rx="31" ry="22"/>
<text text-anchor="middle" x="88" y="-17.9" font-family="Times Roman,serif" font-size="14.00">q0</text>
</g>
<!-- q1&#45;&gt;q0 -->
<g id="edge14" class="edge"><title>q1&#45;&gt;q0</title>
<path fill="none" stroke="black" d="M58.2454,-98.7355C63.474,-85.2513 70.3227,-67.5888 76.1313,-52.6088"/>
<polygon fill="black" stroke="black" points="79.4186,-53.812 79.7707,-43.223 72.892,-51.2813 79.4186,-53.812"/>
<text text-anchor="middle" x="76.5" y="-66.9" font-family="Times Roman,serif" font-size="14.00">b</text>
</g>
<!-- q2&#45;&gt;q5 -->
<g id="edge12" class="edge"><title>q2&#45;&gt;q5</title>
<path fill="none" stroke="black" d="M20.8133,-294.431C17.8934,-283.843 15.534,-270.107 18,-258 18.6626,-254.747 19.5997,-251.43 20.6973,-248.168"/>
<polygon fill="black" stroke="black" points="24.0299,-249.253 24.3576,-238.663 17.4975,-246.738 24.0299,-249.253"/>
<text text-anchor="middle" x="22.5" y="-262.9" font-family="Times Roman,serif" font-size="14.00">a</text>
</g>
<!-- q2&#45;&gt;q2 -->
<g id="edge10" class="edge"><title>q2&#45;&gt;q2</title>
<path fill="none" stroke="black" d="M51.5325,-320.121C62.5078,-320.895 72,-318.188 72,-312 72,-307.843 67.7151,-305.257 61.5743,-304.242"/>
<polygon fill="black" stroke="black" points="61.6524,-300.742 51.5325,-303.879 61.3995,-307.738 61.6524,-300.742"/>
<text text-anchor="middle" x="76.5" y="-307.9" font-family="Times Roman,serif" font-size="14.00">b</text>
</g>
<!-- q0&#45;&gt;q4 -->
<g id="edge24" class="edge"><title>q0&#45;&gt;q4</title>
<path fill="none" stroke="black" d="M95.3448,-43.5138C101.401,-63.1828 109,-93.2038 109,-120 109,-312 109,-312 109,-312 109,-333.955 101.538,-357.7 94.459,-375.285"/>
<polygon fill="black" stroke="black" points="91.0775,-374.294 90.395,-384.867 97.5219,-377.028 91.0775,-374.294"/>
<text text-anchor="middle" x="113.5" y="-213.9" font-family="Times Roman,serif" font-size="14.00">a</text>
</g>
<!-- q0&#45;&gt;q0 -->
<g id="edge22" class="edge"><title>q0&#45;&gt;q0</title>
<path fill="none" stroke="black" d="M116.689,-30.9648C127.781,-31.3633 137,-28.375 137,-22 137,-17.7168 132.838,-14.9624 126.743,-13.7368"/>
<polygon fill="black" stroke="black" points="126.908,-10.2399 116.689,-13.0352 126.421,-17.223 126.908,-10.2399"/>
<text text-anchor="middle" x="141.5" y="-17.9" font-family="Times Roman,serif" font-size="14.00">b</text>
</g>
</g>
</svg>
