<?xml version="1.0" encoding="UTF-8" standalone="no"?>
<!DOCTYPE svg PUBLIC "-//W3C//DTD SVG 1.1//EN"
 "http://www.w3.org/Graphics/SVG/1.1/DTD/svg11.dtd">
<!-- Generated by graphviz version 2.26.3 (20100126.1600)
 -->
<!-- Title: G Pages: 1 -->
<svg width="242pt" height="230pt"
 viewBox="0.00 0.00 242.00 230.00" xmlns="http://www.w3.org/2000/svg" xmlns:xlink="http://www.w3.org/1999/xlink">
<g id="graph1" class="graph" transform="scale(1 1) rotate(0) translate(4 226)">
<title>G</title>
<polygon fill="white" stroke="white" points="-4,5 -4,-226 239,-226 239,5 -4,5"/>
<!-- q2 -->
<g id="node1" class="node"><title>q2</title>
<ellipse fill="none" stroke="black" cx="27" cy="-19" rx="27" ry="18.3848"/>
<text text-anchor="middle" x="27" y="-15.4" font-family="Times Roman,serif" font-size="14.00">q2</text>
</g>
<!-- q2&#45;&gt;q2 -->
<g id="edge2" class="edge"><title>q2&#45;&gt;q2</title>
<path fill="none" stroke="black" d="M53.3466,-23.2957C63.5332,-23.4866 72,-22.0547 72,-19 72,-17.0431 68.5252,-15.7522 63.3495,-15.1273"/>
<polygon fill="black" stroke="black" points="63.4855,-11.63 53.3466,-14.7043 63.1898,-18.6237 63.4855,-11.63"/>
<text text-anchor="middle" x="76.5" y="-15.4" font-family="Times Roman,serif" font-size="14.00">b</text>
</g>
<!-- q2&#45;&gt;q2 -->
<g id="edge4" class="edge"><title>q2&#45;&gt;q2</title>
<path fill="none" stroke="black" d="M45.7031,-32.3594C66.375,-41.2656 90,-36.8125 90,-19 90,-3.9707 73.181,1.54787 55.508,-2.44429"/>
<polygon fill="black" stroke="black" points="54.1259,0.786507 45.7031,-5.64062 56.2955,-5.86879 54.1259,0.786507"/>
<text text-anchor="middle" x="94.5" y="-15.4" font-family="Times Roman,serif" font-size="14.00">a</text>
</g>
<!-- q4 -->
<g id="node4" class="node"><title>q4</title>
<ellipse fill="none" stroke="black" cx="153" cy="-19" rx="27" ry="18.3848"/>
<text text-anchor="middle" x="153" y="-15.4" font-family="Times Roman,serif" font-size="14.00">q4</text>
</g>
<!-- q4&#45;&gt;q4 -->
<g id="edge6" class="edge"><title>q4&#45;&gt;q4</title>
<path fill="none" stroke="black" d="M179.347,-23.2957C189.533,-23.4866 198,-22.0547 198,-19 198,-17.0431 194.525,-15.7522 189.35,-15.1273"/>
<polygon fill="black" stroke="black" points="189.486,-11.63 179.347,-14.7043 189.19,-18.6237 189.486,-11.63"/>
<text text-anchor="middle" x="202.5" y="-15.4" font-family="Times Roman,serif" font-size="14.00">b</text>
</g>
<!-- q4&#45;&gt;q4 -->
<g id="edge8" class="edge"><title>q4&#45;&gt;q4</title>
<path fill="none" stroke="black" d="M171.703,-32.3594C192.375,-41.2656 216,-36.8125 216,-19 216,-3.9707 199.181,1.54787 181.508,-2.44429"/>
<polygon fill="black" stroke="black" points="180.126,0.786507 171.703,-5.64062 182.296,-5.86879 180.126,0.786507"/>
<text text-anchor="middle" x="220.5" y="-15.4" font-family="Times Roman,serif" font-size="14.00">a</text>
</g>
<!-- q3 -->
<g id="node7" class="node"><title>q3</title>
<ellipse fill="none" stroke="black" cx="48" cy="-203" rx="27" ry="18.3848"/>
<text text-anchor="middle" x="48" y="-199.4" font-family="Times Roman,serif" font-size="14.00">q3</text>
</g>
<!-- q3&#45;&gt;q2 -->
<g id="edge12" class="edge"><title>q3&#45;&gt;q2</title>
<path fill="none" stroke="black" d="M44.5204,-184.458C41.8629,-169.739 38.2805,-148.613 36,-130 32.5851,-102.129 30.1482,-70.1556 28.6787,-47.7053"/>
<polygon fill="black" stroke="black" points="32.1582,-47.2684 28.035,-37.5089 25.1721,-47.7095 32.1582,-47.2684"/>
<text text-anchor="middle" x="40.5" y="-107.4" font-family="Times Roman,serif" font-size="14.00">a</text>
</g>
<!-- q0 -->
<g id="node9" class="node"><title>q0</title>
<ellipse fill="none" stroke="black" cx="81" cy="-111" rx="27" ry="18.3848"/>
<text text-anchor="middle" x="81" y="-107.4" font-family="Times Roman,serif" font-size="14.00">q0</text>
</g>
<!-- q3&#45;&gt;q0 -->
<g id="edge10" class="edge"><title>q3&#45;&gt;q0</title>
<path fill="none" stroke="black" d="M54.5197,-184.824C59.2203,-171.719 65.6519,-153.789 70.9995,-138.88"/>
<polygon fill="black" stroke="black" points="74.4119,-139.733 74.4938,-129.138 67.8229,-137.37 74.4119,-139.733"/>
<text text-anchor="middle" x="71.5" y="-153.4" font-family="Times Roman,serif" font-size="14.00">b</text>
</g>
<!-- q0&#45;&gt;q2 -->
<g id="edge14" class="edge"><title>q0&#45;&gt;q2</title>
<path fill="none" stroke="black" d="M70.843,-93.6955C62.7726,-79.9459 51.3594,-60.5012 42.2009,-44.8979"/>
<polygon fill="black" stroke="black" points="45.192,-43.0794 37.1114,-36.2269 39.155,-46.6228 45.192,-43.0794"/>
<text text-anchor="middle" x="63.5" y="-61.4" font-family="Times Roman,serif" font-size="14.00">b</text>
</g>
<!-- q0&#45;&gt;q4 -->
<g id="edge16" class="edge"><title>q0&#45;&gt;q4</title>
<path fill="none" stroke="black" d="M93.8722,-94.5522C105.032,-80.2922 121.335,-59.4613 133.996,-43.2824"/>
<polygon fill="black" stroke="black" points="136.832,-45.3375 140.239,-35.3054 131.32,-41.0233 136.832,-45.3375"/>
<text text-anchor="middle" x="127.5" y="-61.4" font-family="Times Roman,serif" font-size="14.00">a</text>
</g>
</g>
</svg>
