<?xml version="1.0" encoding="UTF-8" standalone="no"?>
<!DOCTYPE svg PUBLIC "-//W3C//DTD SVG 1.1//EN"
 "http://www.w3.org/Graphics/SVG/1.1/DTD/svg11.dtd">
<!-- Generated by graphviz version 2.26.3 (20100126.1600)
 -->
<!-- Title: G Pages: 1 -->
<svg width="188pt" height="412pt"
 viewBox="0.00 0.00 188.00 412.00" xmlns="http://www.w3.org/2000/svg" xmlns:xlink="http://www.w3.org/1999/xlink">
<g id="graph1" class="graph" transform="scale(1 1) rotate(0) translate(4 408)">
<title>G</title>
<polygon fill="white" stroke="white" points="-4,5 -4,-408 185,-408 185,5 -4,5"/>
<!-- q6 -->
<g id="node1" class="node"><title>q6</title>
<ellipse fill="none" stroke="black" cx="92" cy="-386" rx="27" ry="18"/>
<text text-anchor="middle" x="92" y="-381.9" font-family="Times Roman,serif" font-size="14.00">q6</text>
</g>
<!-- q2 -->
<g id="node3" class="node"><title>q2</title>
<ellipse fill="none" stroke="black" cx="60" cy="-296" rx="27" ry="18"/>
<text text-anchor="middle" x="60" y="-291.9" font-family="Times Roman,serif" font-size="14.00">q2</text>
</g>
<!-- q6&#45;&gt;q2 -->
<g id="edge2" class="edge"><title>q6&#45;&gt;q2</title>
<path fill="none" stroke="black" d="M75.4275,-371.472C69.7494,-365.458 64.0595,-358.014 61,-350 57.943,-341.993 56.9415,-332.819 56.9174,-324.333"/>
<polygon fill="black" stroke="black" points="60.4246,-324.224 57.3285,-314.091 53.4302,-323.943 60.4246,-324.224"/>
<text text-anchor="middle" x="65.5" y="-336.9" font-family="Times Roman,serif" font-size="14.00">b</text>
</g>
<!-- q6&#45;&gt;q2 -->
<g id="edge4" class="edge"><title>q6&#45;&gt;q2</title>
<path fill="none" stroke="black" d="M85.6778,-368.219C81.1197,-355.399 74.883,-337.858 69.6975,-323.274"/>
<polygon fill="black" stroke="black" points="72.957,-321.994 66.309,-313.744 66.3614,-324.339 72.957,-321.994"/>
<text text-anchor="middle" x="83.5" y="-336.9" font-family="Times Roman,serif" font-size="14.00">a</text>
</g>
<!-- q5 -->
<g id="node5" class="node"><title>q5</title>
<ellipse fill="none" stroke="black" cx="126" cy="-206" rx="27" ry="18"/>
<text text-anchor="middle" x="126" y="-201.9" font-family="Times Roman,serif" font-size="14.00">q5</text>
</g>
<!-- q2&#45;&gt;q5 -->
<g id="edge16" class="edge"><title>q2&#45;&gt;q5</title>
<path fill="none" stroke="black" d="M72.1054,-279.493C82.1532,-265.791 96.5914,-246.103 107.995,-230.552"/>
<polygon fill="black" stroke="black" points="110.88,-232.537 113.971,-222.403 105.235,-228.397 110.88,-232.537"/>
<text text-anchor="middle" x="103.5" y="-246.9" font-family="Times Roman,serif" font-size="14.00">a</text>
</g>
<!-- q7 -->
<g id="node9" class="node"><title>q7</title>
<ellipse fill="none" stroke="black" cx="27" cy="-206" rx="27" ry="18"/>
<text text-anchor="middle" x="27" y="-201.9" font-family="Times Roman,serif" font-size="14.00">q7</text>
</g>
<!-- q2&#45;&gt;q7 -->
<g id="edge14" class="edge"><title>q2&#45;&gt;q7</title>
<path fill="none" stroke="black" d="M42.9009,-281.564C37.0406,-275.56 31.1658,-268.1 28,-260 24.8801,-252.017 23.8606,-242.851 23.8394,-234.363"/>
<polygon fill="black" stroke="black" points="27.3469,-234.253 24.2635,-224.116 20.3529,-233.963 27.3469,-234.253"/>
<text text-anchor="middle" x="32.5" y="-246.9" font-family="Times Roman,serif" font-size="14.00">b</text>
</g>
<!-- q5&#45;&gt;q6 -->
<g id="edge8" class="edge"><title>q5&#45;&gt;q6</title>
<path fill="none" stroke="black" d="M122.579,-224.112C116.636,-255.572 104.368,-320.521 97.3109,-357.883"/>
<polygon fill="black" stroke="black" points="93.8013,-357.607 95.3844,-368.083 100.68,-358.906 93.8013,-357.607"/>
<text text-anchor="middle" x="117.5" y="-291.9" font-family="Times Roman,serif" font-size="14.00">a</text>
</g>
<!-- q3 -->
<g id="node7" class="node"><title>q3</title>
<ellipse fill="none" stroke="black" cx="126" cy="-112" rx="27" ry="18"/>
<ellipse fill="none" stroke="black" cx="126" cy="-112" rx="31" ry="22"/>
<text text-anchor="middle" x="126" y="-107.9" font-family="Times Roman,serif" font-size="14.00">q3</text>
</g>
<!-- q5&#45;&gt;q3 -->
<g id="edge6" class="edge"><title>q5&#45;&gt;q3</title>
<path fill="none" stroke="black" d="M126,-187.876C126,-175.512 126,-158.795 126,-144.199"/>
<polygon fill="black" stroke="black" points="129.5,-144.039 126,-134.039 122.5,-144.039 129.5,-144.039"/>
<text text-anchor="middle" x="130.5" y="-156.9" font-family="Times Roman,serif" font-size="14.00">b</text>
</g>
<!-- q0 -->
<g id="node15" class="node"><title>q0</title>
<ellipse fill="none" stroke="black" cx="126" cy="-18" rx="27" ry="18"/>
<text text-anchor="middle" x="126" y="-13.9" font-family="Times Roman,serif" font-size="14.00">q0</text>
</g>
<!-- q3&#45;&gt;q0 -->
<g id="edge18" class="edge"><title>q3&#45;&gt;q0</title>
<path fill="none" stroke="black" d="M108.008,-94.0081C102.772,-87.6003 97.7304,-79.9802 95,-72 92.4103,-64.4308 92.2159,-61.4999 95,-54 96.8191,-49.0996 99.6374,-44.4193 102.849,-40.1503"/>
<polygon fill="black" stroke="black" points="105.542,-42.3856 109.349,-32.4982 100.207,-37.8536 105.542,-42.3856"/>
<text text-anchor="middle" x="99.5" y="-58.9" font-family="Times Roman,serif" font-size="14.00">b</text>
</g>
<!-- q3&#45;&gt;q0 -->
<g id="edge20" class="edge"><title>q3&#45;&gt;q0</title>
<path fill="none" stroke="black" d="M126,-89.7233C126,-76.6578 126,-60.0289 126,-46.0729"/>
<polygon fill="black" stroke="black" points="129.5,-46.025 126,-36.0251 122.5,-46.0251 129.5,-46.025"/>
<text text-anchor="middle" x="130.5" y="-58.9" font-family="Times Roman,serif" font-size="14.00">a</text>
</g>
<!-- q7&#45;&gt;q2 -->
<g id="edge10" class="edge"><title>q7&#45;&gt;q2</title>
<path fill="none" stroke="black" d="M33.5062,-223.744C38.2035,-236.555 44.6344,-254.094 49.984,-268.684"/>
<polygon fill="black" stroke="black" points="46.7516,-270.035 53.4803,-278.219 53.3237,-267.625 46.7516,-270.035"/>
<text text-anchor="middle" x="51.5" y="-246.9" font-family="Times Roman,serif" font-size="14.00">b</text>
</g>
<!-- q7&#45;&gt;q7 -->
<g id="edge12" class="edge"><title>q7&#45;&gt;q7</title>
<path fill="none" stroke="black" d="M51.5325,-214.121C62.5078,-214.895 72,-212.188 72,-206 72,-201.843 67.7151,-199.257 61.5743,-198.242"/>
<polygon fill="black" stroke="black" points="61.6524,-194.742 51.5325,-197.879 61.3995,-201.738 61.6524,-194.742"/>
<text text-anchor="middle" x="76.5" y="-201.9" font-family="Times Roman,serif" font-size="14.00">a</text>
</g>
<!-- q0&#45;&gt;q3 -->
<g id="edge22" class="edge"><title>q0&#45;&gt;q3</title>
<path fill="none" stroke="black" d="M131.956,-35.7451C133.609,-41.4999 135.176,-47.9584 136,-54 137.168,-62.5654 136.471,-71.8039 135.016,-80.3351"/>
<polygon fill="black" stroke="black" points="131.553,-79.7938 132.937,-90.2978 138.406,-81.2232 131.553,-79.7938"/>
<text text-anchor="middle" x="141.5" y="-58.9" font-family="Times Roman,serif" font-size="14.00">b</text>
</g>
<!-- q0&#45;&gt;q0 -->
<g id="edge24" class="edge"><title>q0&#45;&gt;q0</title>
<path fill="none" stroke="black" d="M150.532,-26.1211C161.508,-26.8945 171,-24.1875 171,-18 171,-13.8428 166.715,-11.2567 160.574,-10.2417"/>
<polygon fill="black" stroke="black" points="160.652,-6.74237 150.532,-9.87891 160.4,-13.7378 160.652,-6.74237"/>
<text text-anchor="middle" x="175.5" y="-13.9" font-family="Times Roman,serif" font-size="14.00">a</text>
</g>
</g>
</svg>
