<?xml version="1.0" encoding="UTF-8" standalone="no"?>
<!DOCTYPE svg PUBLIC "-//W3C//DTD SVG 1.1//EN"
 "http://www.w3.org/Graphics/SVG/1.1/DTD/svg11.dtd">
<!-- Generated by graphviz version 2.26.3 (20100126.1600)
 -->
<!-- Title: G Pages: 1 -->
<svg width="241pt" height="330pt"
 viewBox="0.00 0.00 241.00 330.00" xmlns="http://www.w3.org/2000/svg" xmlns:xlink="http://www.w3.org/1999/xlink">
<g id="graph1" class="graph" transform="scale(1 1) rotate(0) translate(4 326)">
<title>G</title>
<polygon fill="white" stroke="white" points="-4,5 -4,-326 238,-326 238,5 -4,5"/>
<!-- q6 -->
<g id="node1" class="node"><title>q6</title>
<ellipse fill="none" stroke="black" cx="63" cy="-304" rx="27" ry="18"/>
<text text-anchor="middle" x="63" y="-299.9" font-family="Times Roman,serif" font-size="14.00">q6</text>
</g>
<!-- q6&#45;&gt;q6 -->
<g id="edge2" class="edge"><title>q6&#45;&gt;q6</title>
<path fill="none" stroke="black" d="M87.5325,-312.121C98.5078,-312.895 108,-310.188 108,-304 108,-299.843 103.715,-297.257 97.5743,-296.242"/>
<polygon fill="black" stroke="black" points="97.6524,-292.742 87.5325,-295.879 97.3995,-299.738 97.6524,-292.742"/>
<text text-anchor="middle" x="112.5" y="-299.9" font-family="Times Roman,serif" font-size="14.00">b</text>
</g>
<!-- q4 -->
<g id="node4" class="node"><title>q4</title>
<ellipse fill="none" stroke="black" cx="63" cy="-210" rx="27" ry="18"/>
<text text-anchor="middle" x="63" y="-205.9" font-family="Times Roman,serif" font-size="14.00">q4</text>
</g>
<!-- q6&#45;&gt;q4 -->
<g id="edge4" class="edge"><title>q6&#45;&gt;q4</title>
<path fill="none" stroke="black" d="M63,-285.876C63,-272.352 63,-253.619 63,-238.151"/>
<polygon fill="black" stroke="black" points="66.5001,-238.068 63,-228.069 59.5001,-238.069 66.5001,-238.068"/>
<text text-anchor="middle" x="67.5" y="-254.9" font-family="Times Roman,serif" font-size="14.00">a</text>
</g>
<!-- q2 -->
<g id="node5" class="node"><title>q2</title>
<ellipse fill="none" stroke="black" cx="27" cy="-112" rx="27" ry="18"/>
<text text-anchor="middle" x="27" y="-107.9" font-family="Times Roman,serif" font-size="14.00">q2</text>
</g>
<!-- q4&#45;&gt;q2 -->
<g id="edge14" class="edge"><title>q4&#45;&gt;q2</title>
<path fill="none" stroke="black" d="M56.5639,-192.48C51.1201,-177.66 43.2291,-156.179 36.9686,-139.137"/>
<polygon fill="black" stroke="black" points="40.2353,-137.879 33.5017,-129.699 33.6646,-140.293 40.2353,-137.879"/>
<text text-anchor="middle" x="53.5" y="-156.9" font-family="Times Roman,serif" font-size="14.00">b</text>
</g>
<!-- q3 -->
<g id="node8" class="node"><title>q3</title>
<ellipse fill="none" stroke="black" cx="91" cy="-18" rx="27" ry="18"/>
<text text-anchor="middle" x="91" y="-13.9" font-family="Times Roman,serif" font-size="14.00">q3</text>
</g>
<!-- q4&#45;&gt;q3 -->
<g id="edge16" class="edge"><title>q4&#45;&gt;q3</title>
<path fill="none" stroke="black" d="M70.9187,-192.617C77.3851,-177.484 86.0733,-154.776 90,-134 95.1202,-106.91 91.5555,-99.5663 92,-72 92.1361,-63.5622 92.0529,-54.383 91.8877,-46.0266"/>
<polygon fill="black" stroke="black" points="95.3861,-45.912 91.6451,-35.9996 88.3881,-46.0814 95.3861,-45.912"/>
<text text-anchor="middle" x="97.5" y="-107.9" font-family="Times Roman,serif" font-size="14.00">a</text>
</g>
<!-- q2&#45;&gt;q2 -->
<g id="edge6" class="edge"><title>q2&#45;&gt;q2</title>
<path fill="none" stroke="black" d="M50.6146,-120.78C61.9731,-121.864 72,-118.938 72,-112 72,-107.339 67.4737,-104.488 61.0584,-103.448"/>
<polygon fill="black" stroke="black" points="60.6888,-99.9393 50.6146,-103.22 60.5356,-106.938 60.6888,-99.9393"/>
<text text-anchor="middle" x="76.5" y="-107.9" font-family="Times Roman,serif" font-size="14.00">b</text>
</g>
<!-- q2&#45;&gt;q3 -->
<g id="edge8" class="edge"><title>q2&#45;&gt;q3</title>
<path fill="none" stroke="black" d="M22.9294,-94.0146C21.1834,-81.8796 20.9209,-65.9599 28,-54 34.5169,-42.99 45.7787,-35.0498 56.9948,-29.4765"/>
<polygon fill="black" stroke="black" points="58.5867,-32.5991 66.3004,-25.3363 55.7411,-26.2036 58.5867,-32.5991"/>
<text text-anchor="middle" x="32.5" y="-58.9" font-family="Times Roman,serif" font-size="14.00">a</text>
</g>
<!-- q3&#45;&gt;q2 -->
<g id="edge18" class="edge"><title>q3&#45;&gt;q2</title>
<path fill="none" stroke="black" d="M76.4192,-33.5887C70.9857,-39.7335 64.9427,-46.9894 60,-54 52.9468,-64.0041 46.0944,-75.63 40.4785,-85.8349"/>
<polygon fill="black" stroke="black" points="37.354,-84.2553 35.6984,-94.72 43.5185,-87.5718 37.354,-84.2553"/>
<text text-anchor="middle" x="64.5" y="-58.9" font-family="Times Roman,serif" font-size="14.00">b</text>
</g>
<!-- q3&#45;&gt;q2 -->
<g id="edge20" class="edge"><title>q3&#45;&gt;q2</title>
<path fill="none" stroke="black" d="M85.8132,-35.9633C82.1406,-46.9469 76.5267,-60.9588 69,-72 64.2942,-78.9031 58.2271,-85.5332 52.1753,-91.3422"/>
<polygon fill="black" stroke="black" points="49.6594,-88.8994 44.6215,-98.2198 54.3721,-94.0754 49.6594,-88.8994"/>
<text text-anchor="middle" x="83.5" y="-58.9" font-family="Times Roman,serif" font-size="14.00">a</text>
</g>
<!-- q1 -->
<g id="node9" class="node"><title>q1</title>
<ellipse fill="none" stroke="black" cx="175" cy="-112" rx="27" ry="18"/>
<ellipse fill="none" stroke="black" cx="175" cy="-112" rx="31" ry="22"/>
<text text-anchor="middle" x="175" y="-107.9" font-family="Times Roman,serif" font-size="14.00">q1</text>
</g>
<!-- q1&#45;&gt;q3 -->
<g id="edge12" class="edge"><title>q1&#45;&gt;q3</title>
<path fill="none" stroke="black" d="M161.406,-92.2011C153.122,-80.6356 142.036,-66.0019 131,-54 126.241,-48.8248 120.824,-43.5815 115.547,-38.7573"/>
<polygon fill="black" stroke="black" points="117.804,-36.0809 108.008,-32.0459 113.15,-41.3093 117.804,-36.0809"/>
<text text-anchor="middle" x="149.5" y="-58.9" font-family="Times Roman,serif" font-size="14.00">a</text>
</g>
<!-- q1&#45;&gt;q1 -->
<g id="edge10" class="edge"><title>q1&#45;&gt;q1</title>
<path fill="none" stroke="black" d="M203.689,-120.965C214.781,-121.363 224,-118.375 224,-112 224,-107.717 219.838,-104.962 213.743,-103.737"/>
<polygon fill="black" stroke="black" points="213.908,-100.24 203.689,-103.035 213.421,-107.223 213.908,-100.24"/>
<text text-anchor="middle" x="228.5" y="-107.9" font-family="Times Roman,serif" font-size="14.00">b</text>
</g>
<!-- q0 -->
<g id="node16" class="node"><title>q0</title>
<ellipse fill="none" stroke="black" cx="175" cy="-210" rx="27" ry="18"/>
<ellipse fill="none" stroke="black" cx="175" cy="-210" rx="31" ry="22"/>
<text text-anchor="middle" x="175" y="-205.9" font-family="Times Roman,serif" font-size="14.00">q0</text>
</g>
<!-- q0&#45;&gt;q1 -->
<g id="edge22" class="edge"><title>q0&#45;&gt;q1</title>
<path fill="none" stroke="black" d="M175,-187.762C175,-174.982 175,-158.697 175,-144.504"/>
<polygon fill="black" stroke="black" points="178.5,-144.15 175,-134.15 171.5,-144.15 178.5,-144.15"/>
<text text-anchor="middle" x="179.5" y="-156.9" font-family="Times Roman,serif" font-size="14.00">b</text>
</g>
<!-- q0&#45;&gt;q0 -->
<g id="edge24" class="edge"><title>q0&#45;&gt;q0</title>
<path fill="none" stroke="black" d="M203.689,-218.965C214.781,-219.363 224,-216.375 224,-210 224,-205.717 219.838,-202.962 213.743,-201.737"/>
<polygon fill="black" stroke="black" points="213.908,-198.24 203.689,-201.035 213.421,-205.223 213.908,-198.24"/>
<text text-anchor="middle" x="228.5" y="-205.9" font-family="Times Roman,serif" font-size="14.00">a</text>
</g>
</g>
</svg>
