<?xml version="1.0" encoding="UTF-8" standalone="no"?>
<!DOCTYPE svg PUBLIC "-//W3C//DTD SVG 1.1//EN"
 "http://www.w3.org/Graphics/SVG/1.1/DTD/svg11.dtd">
<!-- Generated by graphviz version 2.26.3 (20100126.1600)
 -->
<!-- Title: G Pages: 1 -->
<svg width="184pt" height="330pt"
 viewBox="0.00 0.00 183.87 330.00" xmlns="http://www.w3.org/2000/svg" xmlns:xlink="http://www.w3.org/1999/xlink">
<g id="graph1" class="graph" transform="scale(1 1) rotate(0) translate(4 326)">
<title>G</title>
<polygon fill="white" stroke="white" points="-4,5 -4,-326 180.868,-326 180.868,5 -4,5"/>
<!-- q2 -->
<g id="node1" class="node"><title>q2</title>
<ellipse fill="none" stroke="black" cx="131.868" cy="-300" rx="27" ry="18"/>
<ellipse fill="none" stroke="black" cx="131.868" cy="-300" rx="31" ry="22"/>
<text text-anchor="middle" x="131.868" y="-295.9" font-family="Times Roman,serif" font-size="14.00">q2</text>
</g>
<!-- q3 -->
<g id="node3" class="node"><title>q3</title>
<ellipse fill="none" stroke="black" cx="76.8675" cy="-206" rx="27" ry="18"/>
<text text-anchor="middle" x="76.8675" y="-201.9" font-family="Times Roman,serif" font-size="14.00">q3</text>
</g>
<!-- q2&#45;&gt;q3 -->
<g id="edge2" class="edge"><title>q2&#45;&gt;q3</title>
<path fill="none" stroke="black" d="M119.933,-279.603C111.718,-265.563 100.739,-246.799 91.9229,-231.731"/>
<polygon fill="black" stroke="black" points="94.8281,-229.766 86.757,-222.902 88.7863,-233.301 94.8281,-229.766"/>
<text text-anchor="middle" x="111.368" y="-246.9" font-family="Times Roman,serif" font-size="14.00">b</text>
</g>
<!-- q1 -->
<g id="node5" class="node"><title>q1</title>
<ellipse fill="none" stroke="black" cx="121.868" cy="-22" rx="27" ry="18"/>
<text text-anchor="middle" x="121.868" y="-17.9" font-family="Times Roman,serif" font-size="14.00">q1</text>
</g>
<!-- q2&#45;&gt;q1 -->
<g id="edge4" class="edge"><title>q2&#45;&gt;q1</title>
<path fill="none" stroke="black" d="M134.829,-277.768C136.691,-262.641 138.915,-242.151 139.868,-224 143.132,-161.812 133.293,-89.1318 126.899,-50.1427"/>
<polygon fill="black" stroke="black" points="130.316,-49.3543 125.201,-40.0759 123.413,-50.5188 130.316,-49.3543"/>
<text text-anchor="middle" x="143.368" y="-156.9" font-family="Times Roman,serif" font-size="14.00">a</text>
</g>
<!-- q3&#45;&gt;q3 -->
<g id="edge14" class="edge"><title>q3&#45;&gt;q3</title>
<path fill="none" stroke="black" d="M101.4,-214.121C112.375,-214.895 121.868,-212.188 121.868,-206 121.868,-201.843 117.583,-199.257 111.442,-198.242"/>
<polygon fill="black" stroke="black" points="111.52,-194.742 101.4,-197.879 111.267,-201.738 111.52,-194.742"/>
<text text-anchor="middle" x="126.368" y="-201.9" font-family="Times Roman,serif" font-size="14.00">b</text>
</g>
<!-- q4 -->
<g id="node8" class="node"><title>q4</title>
<ellipse fill="none" stroke="black" cx="58.8675" cy="-116" rx="27" ry="18"/>
<text text-anchor="middle" x="58.8675" y="-111.9" font-family="Times Roman,serif" font-size="14.00">q4</text>
</g>
<!-- q3&#45;&gt;q4 -->
<g id="edge16" class="edge"><title>q3&#45;&gt;q4</title>
<path fill="none" stroke="black" d="M73.225,-187.787C70.6955,-175.14 67.2782,-158.053 64.4122,-143.723"/>
<polygon fill="black" stroke="black" points="67.8365,-142.998 62.4432,-133.879 60.9725,-144.371 67.8365,-142.998"/>
<text text-anchor="middle" x="73.3675" y="-156.9" font-family="Times Roman,serif" font-size="14.00">a</text>
</g>
<!-- q1&#45;&gt;q3 -->
<g id="edge6" class="edge"><title>q1&#45;&gt;q3</title>
<path fill="none" stroke="black" d="M117.612,-39.8571C112.33,-61.9701 103.023,-100.784 94.8675,-134 91.3038,-148.514 87.2742,-164.657 83.9325,-177.973"/>
<polygon fill="black" stroke="black" points="80.4654,-177.409 81.422,-187.961 87.2542,-179.116 80.4654,-177.409"/>
<text text-anchor="middle" x="107.368" y="-111.9" font-family="Times Roman,serif" font-size="14.00">b</text>
</g>
<!-- q1&#45;&gt;q1 -->
<g id="edge8" class="edge"><title>q1&#45;&gt;q1</title>
<path fill="none" stroke="black" d="M145.482,-30.7803C156.841,-31.8643 166.868,-28.9375 166.868,-22 166.868,-17.3389 162.341,-14.4882 155.926,-13.4481"/>
<polygon fill="black" stroke="black" points="155.556,-9.93931 145.482,-13.2197 155.403,-16.9376 155.556,-9.93931"/>
<text text-anchor="middle" x="171.368" y="-17.9" font-family="Times Roman,serif" font-size="14.00">a</text>
</g>
<!-- q4&#45;&gt;q1 -->
<g id="edge12" class="edge"><title>q4&#45;&gt;q1</title>
<path fill="none" stroke="black" d="M70.1307,-99.1947C79.8061,-84.7583 93.899,-63.7309 104.934,-47.2665"/>
<polygon fill="black" stroke="black" points="108.042,-48.9153 110.702,-38.6598 102.227,-45.0181 108.042,-48.9153"/>
<text text-anchor="middle" x="98.3675" y="-66.9" font-family="Times Roman,serif" font-size="14.00">a</text>
</g>
<!-- q0 -->
<g id="node10" class="node"><title>q0</title>
<ellipse fill="none" stroke="black" cx="33.8675" cy="-22" rx="27" ry="18"/>
<ellipse fill="none" stroke="black" cx="33.8675" cy="-22" rx="31" ry="22"/>
<text text-anchor="middle" x="33.8675" y="-17.9" font-family="Times Roman,serif" font-size="14.00">q0</text>
</g>
<!-- q4&#45;&gt;q0 -->
<g id="edge10" class="edge"><title>q4&#45;&gt;q0</title>
<path fill="none" stroke="black" d="M35.0331,-107.19C23.0884,-101.419 9.73513,-92.5791 2.86753,-80 -2.9028,-69.4307 1.34321,-57.7257 8.33178,-47.6147"/>
<polygon fill="black" stroke="black" points="11.2428,-49.5756 14.6875,-39.5564 5.74662,-45.2406 11.2428,-49.5756"/>
<text text-anchor="middle" x="7.36753" y="-66.9" font-family="Times Roman,serif" font-size="14.00">b</text>
</g>
<!-- q0&#45;&gt;q4 -->
<g id="edge18" class="edge"><title>q0&#45;&gt;q4</title>
<path fill="none" stroke="black" d="M31.3649,-43.9479C30.821,-54.9989 31.2659,-68.464 34.8675,-80 36.0918,-83.9212 37.8882,-87.81 39.9565,-91.5012"/>
<polygon fill="black" stroke="black" points="37.1597,-93.625 45.4867,-100.176 43.0622,-89.862 37.1597,-93.625"/>
<text text-anchor="middle" x="39.3675" y="-66.9" font-family="Times Roman,serif" font-size="14.00">b</text>
</g>
<!-- q0&#45;&gt;q4 -->
<g id="edge20" class="edge"><title>q0&#45;&gt;q4</title>
<path fill="none" stroke="black" d="M39.6383,-43.6983C43.1521,-56.9102 47.6766,-73.9222 51.454,-88.125"/>
<polygon fill="black" stroke="black" points="48.0946,-89.1114 54.0473,-97.8759 54.8594,-87.3122 48.0946,-89.1114"/>
<text text-anchor="middle" x="52.3675" y="-66.9" font-family="Times Roman,serif" font-size="14.00">a</text>
</g>
</g>
</svg>
