<?xml version="1.0" encoding="UTF-8" standalone="no"?>
<!DOCTYPE svg PUBLIC "-//W3C//DTD SVG 1.1//EN"
 "http://www.w3.org/Graphics/SVG/1.1/DTD/svg11.dtd">
<!-- Generated by graphviz version 2.26.3 (20100126.1600)
 -->
<!-- Title: G Pages: 1 -->
<svg width="301pt" height="518pt"
 viewBox="0.00 0.00 301.00 518.00" xmlns="http://www.w3.org/2000/svg" xmlns:xlink="http://www.w3.org/1999/xlink">
<g id="graph1" class="graph" transform="scale(1 1) rotate(0) translate(4 514)">
<title>G</title>
<polygon fill="white" stroke="white" points="-4,5 -4,-514 298,-514 298,5 -4,5"/>
<!-- q6 -->
<g id="node1" class="node"><title>q6</title>
<ellipse fill="none" stroke="black" cx="172" cy="-492" rx="27" ry="18"/>
<text text-anchor="middle" x="172" y="-487.9" font-family="Times Roman,serif" font-size="14.00">q6</text>
</g>
<!-- q6&#45;&gt;q6 -->
<g id="edge2" class="edge"><title>q6&#45;&gt;q6</title>
<path fill="none" stroke="black" d="M196.532,-500.121C207.508,-500.895 217,-498.188 217,-492 217,-487.843 212.715,-485.257 206.574,-484.242"/>
<polygon fill="black" stroke="black" points="206.652,-480.742 196.532,-483.879 206.4,-487.738 206.652,-480.742"/>
<text text-anchor="middle" x="221.5" y="-487.9" font-family="Times Roman,serif" font-size="14.00">b</text>
</g>
<!-- q4 -->
<g id="node4" class="node"><title>q4</title>
<ellipse fill="none" stroke="black" cx="113" cy="-402" rx="27" ry="18"/>
<text text-anchor="middle" x="113" y="-397.9" font-family="Times Roman,serif" font-size="14.00">q4</text>
</g>
<!-- q6&#45;&gt;q4 -->
<g id="edge4" class="edge"><title>q6&#45;&gt;q4</title>
<path fill="none" stroke="black" d="M161.178,-475.493C152.335,-462.003 139.687,-442.71 129.57,-427.276"/>
<polygon fill="black" stroke="black" points="132.362,-425.152 123.953,-418.708 126.508,-428.99 132.362,-425.152"/>
<text text-anchor="middle" x="151.5" y="-442.9" font-family="Times Roman,serif" font-size="14.00">a</text>
</g>
<!-- q3 -->
<g id="node9" class="node"><title>q3</title>
<ellipse fill="none" stroke="black" cx="113" cy="-312" rx="27" ry="18"/>
<text text-anchor="middle" x="113" y="-307.9" font-family="Times Roman,serif" font-size="14.00">q3</text>
</g>
<!-- q4&#45;&gt;q3 -->
<g id="edge20" class="edge"><title>q4&#45;&gt;q3</title>
<path fill="none" stroke="black" d="M113,-383.787C113,-371.344 113,-354.605 113,-340.421"/>
<polygon fill="black" stroke="black" points="116.5,-340.186 113,-330.186 109.5,-340.186 116.5,-340.186"/>
<text text-anchor="middle" x="117.5" y="-352.9" font-family="Times Roman,serif" font-size="14.00">a</text>
</g>
<!-- q2 -->
<g id="node10" class="node"><title>q2</title>
<ellipse fill="none" stroke="black" cx="31" cy="-218" rx="27" ry="18"/>
<ellipse fill="none" stroke="black" cx="31" cy="-218" rx="31" ry="22"/>
<text text-anchor="middle" x="31" y="-213.9" font-family="Times Roman,serif" font-size="14.00">q2</text>
</g>
<!-- q4&#45;&gt;q2 -->
<g id="edge18" class="edge"><title>q4&#45;&gt;q2</title>
<path fill="none" stroke="black" d="M101.286,-385.761C91.4362,-371.568 77.4842,-350.137 68,-330 57.2205,-307.113 57.9378,-300.021 50,-276 47.1325,-267.323 44.0404,-257.909 41.2007,-249.239"/>
<polygon fill="black" stroke="black" points="44.448,-247.909 38.0115,-239.493 37.7951,-250.086 44.448,-247.909"/>
<text text-anchor="middle" x="72.5" y="-307.9" font-family="Times Roman,serif" font-size="14.00">b</text>
</g>
<!-- q5 -->
<g id="node5" class="node"><title>q5</title>
<ellipse fill="none" stroke="black" cx="107" cy="-120" rx="27" ry="18"/>
<text text-anchor="middle" x="107" y="-115.9" font-family="Times Roman,serif" font-size="14.00">q5</text>
</g>
<!-- q1 -->
<g id="node7" class="node"><title>q1</title>
<ellipse fill="none" stroke="black" cx="200" cy="-22" rx="27" ry="18"/>
<ellipse fill="none" stroke="black" cx="200" cy="-22" rx="31" ry="22"/>
<text text-anchor="middle" x="200" y="-17.9" font-family="Times Roman,serif" font-size="14.00">q1</text>
</g>
<!-- q5&#45;&gt;q1 -->
<g id="edge6" class="edge"><title>q5&#45;&gt;q1</title>
<path fill="none" stroke="black" d="M114.016,-102.341C119.513,-90.0493 128.057,-73.8103 139,-62 146.71,-53.6785 156.493,-46.2831 165.955,-40.1844"/>
<polygon fill="black" stroke="black" points="167.786,-43.1673 174.485,-34.9589 164.129,-37.1983 167.786,-43.1673"/>
<text text-anchor="middle" x="143.5" y="-66.9" font-family="Times Roman,serif" font-size="14.00">b</text>
</g>
<!-- q5&#45;&gt;q3 -->
<g id="edge8" class="edge"><title>q5&#45;&gt;q3</title>
<path fill="none" stroke="black" d="M107.567,-138.155C108.617,-171.745 110.869,-243.806 112.119,-283.8"/>
<polygon fill="black" stroke="black" points="108.625,-284.051 112.436,-293.937 115.621,-283.833 108.625,-284.051"/>
<text text-anchor="middle" x="114.5" y="-213.9" font-family="Times Roman,serif" font-size="14.00">a</text>
</g>
<!-- q1&#45;&gt;q6 -->
<g id="edge14" class="edge"><title>q1&#45;&gt;q6</title>
<path fill="none" stroke="black" d="M200,-44.1852C200,-64.0481 200,-93.9688 200,-120 200,-402 200,-402 200,-402 200,-424.023 192.261,-447.765 184.92,-465.331"/>
<polygon fill="black" stroke="black" points="181.533,-464.338 180.706,-474.901 187.94,-467.16 181.533,-464.338"/>
<text text-anchor="middle" x="204.5" y="-262.9" font-family="Times Roman,serif" font-size="14.00">b</text>
</g>
<!-- q1&#45;&gt;q3 -->
<g id="edge16" class="edge"><title>q1&#45;&gt;q3</title>
<path fill="none" stroke="black" d="M192.209,-43.5115C190.121,-49.4756 187.913,-55.9687 186,-62 156.096,-156.27 154.2,-181.509 125,-276 124.143,-278.773 123.225,-281.659 122.294,-284.535"/>
<polygon fill="black" stroke="black" points="118.946,-283.512 119.138,-294.105 125.594,-285.704 118.946,-283.512"/>
<text text-anchor="middle" x="161.5" y="-164.9" font-family="Times Roman,serif" font-size="14.00">a</text>
</g>
<!-- q3&#45;&gt;q2 -->
<g id="edge22" class="edge"><title>q3&#45;&gt;q2</title>
<path fill="none" stroke="black" d="M94.3505,-298.78C86.073,-292.419 76.5246,-284.365 69,-276 61.1721,-267.297 53.8085,-256.838 47.6859,-247.213"/>
<polygon fill="black" stroke="black" points="50.6569,-245.362 42.4342,-238.681 44.6958,-249.032 50.6569,-245.362"/>
<text text-anchor="middle" x="73.5" y="-262.9" font-family="Times Roman,serif" font-size="14.00">b</text>
</g>
<!-- q3&#45;&gt;q2 -->
<g id="edge24" class="edge"><title>q3&#45;&gt;q2</title>
<path fill="none" stroke="black" d="M103.745,-295.055C97.2744,-283.946 88.0229,-269.419 78,-258 72.849,-252.132 66.822,-246.363 60.8351,-241.113"/>
<polygon fill="black" stroke="black" points="62.681,-238.09 52.7821,-234.314 58.1653,-243.439 62.681,-238.09"/>
<text text-anchor="middle" x="94.5" y="-262.9" font-family="Times Roman,serif" font-size="14.00">a</text>
</g>
<!-- q2&#45;&gt;q5 -->
<g id="edge12" class="edge"><title>q2&#45;&gt;q5</title>
<path fill="none" stroke="black" d="M46.0152,-198.638C58.098,-183.058 75.1471,-161.073 88.148,-144.309"/>
<polygon fill="black" stroke="black" points="91.1674,-146.127 94.5299,-136.08 85.6359,-141.837 91.1674,-146.127"/>
<text text-anchor="middle" x="79.5" y="-164.9" font-family="Times Roman,serif" font-size="14.00">a</text>
</g>
<!-- q2&#45;&gt;q2 -->
<g id="edge10" class="edge"><title>q2&#45;&gt;q2</title>
<path fill="none" stroke="black" d="M59.6885,-226.965C70.7806,-227.363 80,-224.375 80,-218 80,-213.717 75.8382,-210.962 69.7429,-209.737"/>
<polygon fill="black" stroke="black" points="69.9079,-206.24 59.6885,-209.035 69.4205,-213.223 69.9079,-206.24"/>
<text text-anchor="middle" x="84.5" y="-213.9" font-family="Times Roman,serif" font-size="14.00">b</text>
</g>
<!-- q0 -->
<g id="node19" class="node"><title>q0</title>
<ellipse fill="none" stroke="black" cx="262" cy="-120" rx="27" ry="18"/>
<ellipse fill="none" stroke="black" cx="262" cy="-120" rx="31" ry="22"/>
<text text-anchor="middle" x="262" y="-115.9" font-family="Times Roman,serif" font-size="14.00">q0</text>
</g>
<!-- q0&#45;&gt;q1 -->
<g id="edge26" class="edge"><title>q0&#45;&gt;q1</title>
<path fill="none" stroke="black" d="M257.63,-98.1919C254.683,-86.7974 250.023,-72.9792 243,-62 239.161,-55.9983 234.214,-50.2929 229.051,-45.1692"/>
<polygon fill="black" stroke="black" points="231.147,-42.3407 221.433,-38.1117 226.39,-47.4755 231.147,-42.3407"/>
<text text-anchor="middle" x="255.5" y="-66.9" font-family="Times Roman,serif" font-size="14.00">b</text>
</g>
<!-- q0&#45;&gt;q1 -->
<g id="edge28" class="edge"><title>q0&#45;&gt;q1</title>
<path fill="none" stroke="black" d="M247.723,-100.275C243.221,-93.8808 238.303,-86.7064 234,-80 228.138,-70.8639 222.048,-60.7113 216.669,-51.4865"/>
<polygon fill="black" stroke="black" points="219.594,-49.5525 211.563,-42.6429 213.532,-53.0531 219.594,-49.5525"/>
<text text-anchor="middle" x="238.5" y="-66.9" font-family="Times Roman,serif" font-size="14.00">a</text>
</g>
</g>
</svg>
