<?xml version="1.0" encoding="UTF-8" standalone="no"?>
<!DOCTYPE svg PUBLIC "-//W3C//DTD SVG 1.1//EN"
 "http://www.w3.org/Graphics/SVG/1.1/DTD/svg11.dtd">
<!-- Generated by graphviz version 2.26.3 (20100126.1600)
 -->
<!-- Title: G Pages: 1 -->
<svg width="247pt" height="322pt"
 viewBox="0.00 0.00 247.00 322.00" xmlns="http://www.w3.org/2000/svg" xmlns:xlink="http://www.w3.org/1999/xlink">
<g id="graph1" class="graph" transform="scale(1 1) rotate(0) translate(4 318)">
<title>G</title>
<polygon fill="white" stroke="white" points="-4,5 -4,-318 244,-318 244,5 -4,5"/>
<!-- q2 -->
<g id="node1" class="node"><title>q2</title>
<ellipse fill="none" stroke="black" cx="27" cy="-203" rx="27" ry="18.3848"/>
<text text-anchor="middle" x="27" y="-199.4" font-family="Times Roman,serif" font-size="14.00">q2</text>
</g>
<!-- q2&#45;&gt;q2 -->
<g id="edge2" class="edge"><title>q2&#45;&gt;q2</title>
<path fill="none" stroke="black" d="M53.3466,-207.296C63.5332,-207.487 72,-206.055 72,-203 72,-201.043 68.5252,-199.752 63.3495,-199.127"/>
<polygon fill="black" stroke="black" points="63.4855,-195.63 53.3466,-198.704 63.1898,-202.624 63.4855,-195.63"/>
<text text-anchor="middle" x="76.5" y="-199.4" font-family="Times Roman,serif" font-size="14.00">b</text>
</g>
<!-- q2&#45;&gt;q2 -->
<g id="edge4" class="edge"><title>q2&#45;&gt;q2</title>
<path fill="none" stroke="black" d="M45.7031,-216.359C66.375,-225.266 90,-220.812 90,-203 90,-187.971 73.181,-182.452 55.508,-186.444"/>
<polygon fill="black" stroke="black" points="54.1259,-183.213 45.7031,-189.641 56.2955,-189.869 54.1259,-183.213"/>
<text text-anchor="middle" x="94.5" y="-199.4" font-family="Times Roman,serif" font-size="14.00">a</text>
</g>
<!-- q1 -->
<g id="node4" class="node"><title>q1</title>
<ellipse fill="none" stroke="black" cx="152" cy="-19" rx="27" ry="18.3848"/>
<text text-anchor="middle" x="152" y="-15.4" font-family="Times Roman,serif" font-size="14.00">q1</text>
</g>
<!-- q1&#45;&gt;q1 -->
<g id="edge6" class="edge"><title>q1&#45;&gt;q1</title>
<path fill="none" stroke="black" d="M178.347,-23.2957C188.533,-23.4866 197,-22.0547 197,-19 197,-17.0431 193.525,-15.7522 188.35,-15.1273"/>
<polygon fill="black" stroke="black" points="188.486,-11.63 178.347,-14.7043 188.19,-18.6237 188.486,-11.63"/>
<text text-anchor="middle" x="201.5" y="-15.4" font-family="Times Roman,serif" font-size="14.00">b</text>
</g>
<!-- q1&#45;&gt;q1 -->
<g id="edge8" class="edge"><title>q1&#45;&gt;q1</title>
<path fill="none" stroke="black" d="M170.703,-32.3594C191.375,-41.2656 215,-36.8125 215,-19 215,-3.9707 198.181,1.54787 180.508,-2.44429"/>
<polygon fill="black" stroke="black" points="179.126,0.786507 170.703,-5.64062 181.296,-5.86879 179.126,0.786507"/>
<text text-anchor="middle" x="219.5" y="-15.4" font-family="Times Roman,serif" font-size="14.00">a</text>
</g>
<!-- q4 -->
<g id="node7" class="node"><title>q4</title>
<ellipse fill="none" stroke="black" cx="185" cy="-111" rx="27" ry="18.3848"/>
<text text-anchor="middle" x="185" y="-107.4" font-family="Times Roman,serif" font-size="14.00">q4</text>
</g>
<!-- q4&#45;&gt;q1 -->
<g id="edge10" class="edge"><title>q4&#45;&gt;q1</title>
<path fill="none" stroke="black" d="M178.48,-92.8238C173.78,-79.7191 167.348,-61.7885 162.001,-46.8803"/>
<polygon fill="black" stroke="black" points="165.177,-45.3695 158.506,-37.1385 158.588,-47.733 165.177,-45.3695"/>
<text text-anchor="middle" x="175.5" y="-61.4" font-family="Times Roman,serif" font-size="14.00">b</text>
</g>
<!-- q4&#45;&gt;q4 -->
<g id="edge12" class="edge"><title>q4&#45;&gt;q4</title>
<path fill="none" stroke="black" d="M209.074,-119.454C220.242,-120.377 230,-117.559 230,-111 230,-106.593 225.595,-103.875 219.317,-102.846"/>
<polygon fill="black" stroke="black" points="219.173,-99.3402 209.074,-102.546 218.967,-106.337 219.173,-99.3402"/>
<text text-anchor="middle" x="234.5" y="-107.4" font-family="Times Roman,serif" font-size="14.00">a</text>
</g>
<!-- q3 -->
<g id="node10" class="node"><title>q3</title>
<ellipse fill="none" stroke="black" cx="101" cy="-295" rx="27" ry="18.3848"/>
<text text-anchor="middle" x="101" y="-291.4" font-family="Times Roman,serif" font-size="14.00">q3</text>
</g>
<!-- q3&#45;&gt;q2 -->
<g id="edge16" class="edge"><title>q3&#45;&gt;q2</title>
<path fill="none" stroke="black" d="M87.7703,-278.552C76.3002,-264.292 59.545,-243.461 46.5315,-227.282"/>
<polygon fill="black" stroke="black" points="49.1101,-224.904 40.1152,-219.305 43.6555,-229.291 49.1101,-224.904"/>
<text text-anchor="middle" x="74.5" y="-245.4" font-family="Times Roman,serif" font-size="14.00">a</text>
</g>
<!-- q0 -->
<g id="node12" class="node"><title>q0</title>
<ellipse fill="none" stroke="black" cx="153" cy="-203" rx="27" ry="18.3848"/>
<text text-anchor="middle" x="153" y="-199.4" font-family="Times Roman,serif" font-size="14.00">q0</text>
</g>
<!-- q3&#45;&gt;q0 -->
<g id="edge14" class="edge"><title>q3&#45;&gt;q0</title>
<path fill="none" stroke="black" d="M110.781,-277.696C118.431,-264.161 129.2,-245.107 137.947,-229.632"/>
<polygon fill="black" stroke="black" points="141.213,-230.968 143.086,-220.54 135.119,-227.523 141.213,-230.968"/>
<text text-anchor="middle" x="135.5" y="-245.4" font-family="Times Roman,serif" font-size="14.00">b</text>
</g>
<!-- q0&#45;&gt;q1 -->
<g id="edge18" class="edge"><title>q0&#45;&gt;q1</title>
<path fill="none" stroke="black" d="M148.778,-184.518C145.65,-169.833 141.654,-148.722 140,-130 138.514,-113.177 138.626,-108.833 140,-92 141.204,-77.2527 143.755,-60.9951 146.196,-47.5729"/>
<polygon fill="black" stroke="black" points="149.682,-47.9759 148.102,-37.4995 142.804,-46.6741 149.682,-47.9759"/>
<text text-anchor="middle" x="144.5" y="-107.4" font-family="Times Roman,serif" font-size="14.00">b</text>
</g>
<!-- q0&#45;&gt;q4 -->
<g id="edge20" class="edge"><title>q0&#45;&gt;q4</title>
<path fill="none" stroke="black" d="M159.322,-184.824C163.88,-171.719 170.117,-153.789 175.303,-138.88"/>
<polygon fill="black" stroke="black" points="178.711,-139.733 178.691,-129.138 172.1,-137.434 178.711,-139.733"/>
<text text-anchor="middle" x="175.5" y="-153.4" font-family="Times Roman,serif" font-size="14.00">a</text>
</g>
</g>
</svg>
