<?xml version="1.0" encoding="UTF-8" standalone="no"?>
<!DOCTYPE svg PUBLIC "-//W3C//DTD SVG 1.1//EN"
 "http://www.w3.org/Graphics/SVG/1.1/DTD/svg11.dtd">
<!-- Generated by graphviz version 2.26.3 (20100126.1600)
 -->
<!-- Title: G Pages: 1 -->
<svg width="171pt" height="502pt"
 viewBox="0.00 0.00 171.00 502.00" xmlns="http://www.w3.org/2000/svg" xmlns:xlink="http://www.w3.org/1999/xlink">
<g id="graph1" class="graph" transform="scale(1 1) rotate(0) translate(4 498)">
<title>G</title>
<polygon fill="white" stroke="white" points="-4,5 -4,-498 168,-498 168,5 -4,5"/>
<!-- q6 -->
<g id="node1" class="node"><title>q6</title>
<ellipse fill="none" stroke="black" cx="117" cy="-476" rx="27" ry="18"/>
<text text-anchor="middle" x="117" y="-471.9" font-family="Times Roman,serif" font-size="14.00">q6</text>
</g>
<!-- q7 -->
<g id="node3" class="node"><title>q7</title>
<ellipse fill="none" stroke="black" cx="27" cy="-386" rx="27" ry="18"/>
<text text-anchor="middle" x="27" y="-381.9" font-family="Times Roman,serif" font-size="14.00">q7</text>
</g>
<!-- q6&#45;&gt;q7 -->
<g id="edge2" class="edge"><title>q6&#45;&gt;q7</title>
<path fill="none" stroke="black" d="M101.733,-460.733C87.2939,-446.294 65.4629,-424.463 49.1189,-408.119"/>
<polygon fill="black" stroke="black" points="51.5878,-405.638 42.0418,-401.042 46.638,-410.588 51.5878,-405.638"/>
<text text-anchor="middle" x="85.5" y="-426.9" font-family="Times Roman,serif" font-size="14.00">b</text>
</g>
<!-- q4 -->
<g id="node5" class="node"><title>q4</title>
<ellipse fill="none" stroke="black" cx="64" cy="-296" rx="27" ry="18"/>
<text text-anchor="middle" x="64" y="-291.9" font-family="Times Roman,serif" font-size="14.00">q4</text>
</g>
<!-- q6&#45;&gt;q4 -->
<g id="edge4" class="edge"><title>q6&#45;&gt;q4</title>
<path fill="none" stroke="black" d="M113.063,-457.884C108.237,-436.304 99.5201,-399.245 90,-368 85.4316,-353.007 79.5542,-336.547 74.5436,-323.154"/>
<polygon fill="black" stroke="black" points="77.7339,-321.695 70.9169,-313.585 71.1883,-324.176 77.7339,-321.695"/>
<text text-anchor="middle" x="103.5" y="-381.9" font-family="Times Roman,serif" font-size="14.00">a</text>
</g>
<!-- q7&#45;&gt;q7 -->
<g id="edge8" class="edge"><title>q7&#45;&gt;q7</title>
<path fill="none" stroke="black" d="M51.5325,-394.121C62.5078,-394.895 72,-392.188 72,-386 72,-381.843 67.7151,-379.257 61.5743,-378.242"/>
<polygon fill="black" stroke="black" points="61.6524,-374.742 51.5325,-377.879 61.3995,-381.738 61.6524,-374.742"/>
<text text-anchor="middle" x="76.5" y="-381.9" font-family="Times Roman,serif" font-size="14.00">a</text>
</g>
<!-- q7&#45;&gt;q4 -->
<g id="edge6" class="edge"><title>q7&#45;&gt;q4</title>
<path fill="none" stroke="black" d="M34.31,-368.219C39.6146,-355.316 46.8853,-337.63 52.9039,-322.99"/>
<polygon fill="black" stroke="black" points="56.2658,-324.018 56.8311,-313.438 49.7916,-321.356 56.2658,-324.018"/>
<text text-anchor="middle" x="53.5" y="-336.9" font-family="Times Roman,serif" font-size="14.00">b</text>
</g>
<!-- q4&#45;&gt;q4 -->
<g id="edge16" class="edge"><title>q4&#45;&gt;q4</title>
<path fill="none" stroke="black" d="M88.5325,-304.121C99.5078,-304.895 109,-302.188 109,-296 109,-291.843 104.715,-289.257 98.5743,-288.242"/>
<polygon fill="black" stroke="black" points="98.6524,-284.742 88.5325,-287.879 98.3995,-291.738 98.6524,-284.742"/>
<text text-anchor="middle" x="113.5" y="-291.9" font-family="Times Roman,serif" font-size="14.00">a</text>
</g>
<!-- q2 -->
<g id="node8" class="node"><title>q2</title>
<ellipse fill="none" stroke="black" cx="70" cy="-206" rx="27" ry="18"/>
<text text-anchor="middle" x="70" y="-201.9" font-family="Times Roman,serif" font-size="14.00">q2</text>
</g>
<!-- q4&#45;&gt;q2 -->
<g id="edge14" class="edge"><title>q4&#45;&gt;q2</title>
<path fill="none" stroke="black" d="M65.2142,-277.787C66.0437,-265.344 67.1596,-248.605 68.1053,-234.421"/>
<polygon fill="black" stroke="black" points="71.6146,-234.396 68.7876,-224.186 64.6301,-233.931 71.6146,-234.396"/>
<text text-anchor="middle" x="72.5" y="-246.9" font-family="Times Roman,serif" font-size="14.00">b</text>
</g>
<!-- q2&#45;&gt;q2 -->
<g id="edge12" class="edge"><title>q2&#45;&gt;q2</title>
<path fill="none" stroke="black" d="M94.5325,-214.121C105.508,-214.895 115,-212.188 115,-206 115,-201.843 110.715,-199.257 104.574,-198.242"/>
<polygon fill="black" stroke="black" points="104.652,-194.742 94.5325,-197.879 104.4,-201.738 104.652,-194.742"/>
<text text-anchor="middle" x="119.5" y="-201.9" font-family="Times Roman,serif" font-size="14.00">a</text>
</g>
<!-- q0 -->
<g id="node10" class="node"><title>q0</title>
<ellipse fill="none" stroke="black" cx="127" cy="-116" rx="27" ry="18"/>
<text text-anchor="middle" x="127" y="-111.9" font-family="Times Roman,serif" font-size="14.00">q0</text>
</g>
<!-- q2&#45;&gt;q0 -->
<g id="edge10" class="edge"><title>q2&#45;&gt;q0</title>
<path fill="none" stroke="black" d="M80.7213,-189.072C89.24,-175.621 101.287,-156.599 110.955,-141.335"/>
<polygon fill="black" stroke="black" points="113.933,-143.173 116.327,-132.852 108.019,-139.428 113.933,-143.173"/>
<text text-anchor="middle" x="107.5" y="-156.9" font-family="Times Roman,serif" font-size="14.00">b</text>
</g>
<!-- q0&#45;&gt;q6 -->
<g id="edge24" class="edge"><title>q0&#45;&gt;q6</title>
<path fill="none" stroke="black" d="M135.395,-133.133C143.321,-150.91 154,-179.736 154,-206 154,-386 154,-386 154,-386 154,-409.092 143.452,-433.182 133.619,-450.622"/>
<polygon fill="black" stroke="black" points="130.398,-449.192 128.302,-459.578 136.417,-452.766 130.398,-449.192"/>
<text text-anchor="middle" x="158.5" y="-291.9" font-family="Times Roman,serif" font-size="14.00">a</text>
</g>
<!-- q3 -->
<g id="node14" class="node"><title>q3</title>
<ellipse fill="none" stroke="black" cx="127" cy="-22" rx="27" ry="18"/>
<ellipse fill="none" stroke="black" cx="127" cy="-22" rx="31" ry="22"/>
<text text-anchor="middle" x="127" y="-17.9" font-family="Times Roman,serif" font-size="14.00">q3</text>
</g>
<!-- q0&#45;&gt;q3 -->
<g id="edge22" class="edge"><title>q0&#45;&gt;q3</title>
<path fill="none" stroke="black" d="M119.265,-98.3885C117.116,-92.6409 115.077,-86.1528 114,-80 112.453,-71.1598 113.457,-61.6322 115.458,-52.9045"/>
<polygon fill="black" stroke="black" points="118.873,-53.6871 118.171,-43.1155 112.127,-51.8172 118.873,-53.6871"/>
<text text-anchor="middle" x="118.5" y="-66.9" font-family="Times Roman,serif" font-size="14.00">b</text>
</g>
<!-- q3&#45;&gt;q0 -->
<g id="edge18" class="edge"><title>q3&#45;&gt;q0</title>
<path fill="none" stroke="black" d="M127,-44.0388C127,-57.0958 127,-73.7734 127,-87.785"/>
<polygon fill="black" stroke="black" points="123.5,-87.8758 127,-97.8759 130.5,-87.8759 123.5,-87.8758"/>
<text text-anchor="middle" x="131.5" y="-66.9" font-family="Times Roman,serif" font-size="14.00">b</text>
</g>
<!-- q3&#45;&gt;q0 -->
<g id="edge20" class="edge"><title>q3&#45;&gt;q0</title>
<path fill="none" stroke="black" d="M133.937,-43.7022C136.597,-54.5722 138.642,-67.952 137,-80 136.627,-82.7376 136.101,-85.5608 135.484,-88.3653"/>
<polygon fill="black" stroke="black" points="132.041,-87.6996 132.956,-98.2549 138.823,-89.4331 132.041,-87.6996"/>
<text text-anchor="middle" x="141.5" y="-66.9" font-family="Times Roman,serif" font-size="14.00">a</text>
</g>
</g>
</svg>
