<?xml version="1.0" encoding="UTF-8" standalone="no"?>
<!DOCTYPE svg PUBLIC "-//W3C//DTD SVG 1.1//EN"
 "http://www.w3.org/Graphics/SVG/1.1/DTD/svg11.dtd">
<!-- Generated by graphviz version 2.26.3 (20100126.1600)
 -->
<!-- Title: G Pages: 1 -->
<svg width="294pt" height="230pt"
 viewBox="0.00 0.00 294.29 230.00" xmlns="http://www.w3.org/2000/svg" xmlns:xlink="http://www.w3.org/1999/xlink">
<g id="graph1" class="graph" transform="scale(1 1) rotate(0) translate(4 226)">
<title>G</title>
<polygon fill="white" stroke="white" points="-4,5 -4,-226 291.286,-226 291.286,5 -4,5"/>
<!-- q2 -->
<g id="node1" class="node"><title>q2</title>
<ellipse fill="none" stroke="black" cx="53.2858" cy="-203" rx="27" ry="18.3848"/>
<text text-anchor="middle" x="53.2858" y="-199.4" font-family="Times Roman,serif" font-size="14.00">q2</text>
</g>
<!-- q1 -->
<g id="node3" class="node"><title>q1</title>
<ellipse fill="none" stroke="black" cx="79.2858" cy="-19" rx="27" ry="18.3848"/>
<text text-anchor="middle" x="79.2858" y="-15.4" font-family="Times Roman,serif" font-size="14.00">q1</text>
</g>
<!-- q2&#45;&gt;q1 -->
<g id="edge2" class="edge"><title>q2&#45;&gt;q1</title>
<path fill="none" stroke="black" d="M37.761,-187.613C31.8454,-181.259 25.322,-173.608 20.2858,-166 1.6586,-137.861 -4.09789,-124.928 3.28582,-92 7.15741,-74.7345 8.53986,-69.2332 20.2858,-56 27.967,-47.3462 38.1508,-39.9916 47.8925,-34.1744"/>
<polygon fill="black" stroke="black" points="49.6224,-37.2171 56.6302,-29.271 46.1967,-31.1126 49.6224,-37.2171"/>
<text text-anchor="middle" x="7.78582" y="-107.4" font-family="Times Roman,serif" font-size="14.00">b</text>
</g>
<!-- q0 -->
<g id="node5" class="node"><title>q0</title>
<ellipse fill="none" stroke="black" cx="133.286" cy="-111" rx="27" ry="18.3848"/>
<text text-anchor="middle" x="133.286" y="-107.4" font-family="Times Roman,serif" font-size="14.00">q0</text>
</g>
<!-- q2&#45;&gt;q0 -->
<g id="edge4" class="edge"><title>q2&#45;&gt;q0</title>
<path fill="none" stroke="black" d="M69.2002,-187.925C75.9005,-181.367 83.6632,-173.483 90.2858,-166 98.7353,-156.453 107.501,-145.466 114.896,-135.834"/>
<polygon fill="black" stroke="black" points="117.744,-137.871 121,-127.788 112.168,-133.64 117.744,-137.871"/>
<text text-anchor="middle" x="108.786" y="-153.4" font-family="Times Roman,serif" font-size="14.00">a</text>
</g>
<!-- q1&#45;&gt;q2 -->
<g id="edge6" class="edge"><title>q1&#45;&gt;q2</title>
<path fill="none" stroke="black" d="M69.5591,-36.3529C62.0761,-50.7527 52.3501,-72.0313 48.2858,-92 42.6728,-119.578 45.0814,-151.774 48.1916,-174.367"/>
<polygon fill="black" stroke="black" points="44.7408,-174.956 49.6931,-184.323 51.6626,-173.912 44.7408,-174.956"/>
<text text-anchor="middle" x="52.7858" y="-107.4" font-family="Times Roman,serif" font-size="14.00">b</text>
</g>
<!-- q1&#45;&gt;q2 -->
<g id="edge8" class="edge"><title>q1&#45;&gt;q2</title>
<path fill="none" stroke="black" d="M77.5527,-37.6429C74.827,-65.6286 69.0395,-120.113 61.2858,-166 60.8033,-168.855 60.25,-171.824 59.6644,-174.782"/>
<polygon fill="black" stroke="black" points="56.2282,-174.115 57.6056,-184.62 63.0797,-175.549 56.2282,-174.115"/>
<text text-anchor="middle" x="76.7858" y="-107.4" font-family="Times Roman,serif" font-size="14.00">a</text>
</g>
<!-- q0&#45;&gt;q1 -->
<g id="edge20" class="edge"><title>q0&#45;&gt;q1</title>
<path fill="none" stroke="black" d="M123.129,-93.6955C115.058,-79.9459 103.645,-60.5012 94.4868,-44.8979"/>
<polygon fill="black" stroke="black" points="97.4778,-43.0794 89.3973,-36.2269 91.4409,-46.6228 97.4778,-43.0794"/>
<text text-anchor="middle" x="114.786" y="-61.4" font-family="Times Roman,serif" font-size="14.00">a</text>
</g>
<!-- q0&#45;&gt;q0 -->
<g id="edge18" class="edge"><title>q0&#45;&gt;q0</title>
<path fill="none" stroke="black" d="M157.36,-119.454C168.528,-120.377 178.286,-117.559 178.286,-111 178.286,-106.593 173.881,-103.875 167.603,-102.846"/>
<polygon fill="black" stroke="black" points="167.458,-99.3402 157.36,-102.546 167.253,-106.337 167.458,-99.3402"/>
<text text-anchor="middle" x="182.786" y="-107.4" font-family="Times Roman,serif" font-size="14.00">b</text>
</g>
<!-- q4 -->
<g id="node8" class="node"><title>q4</title>
<ellipse fill="none" stroke="black" cx="144.286" cy="-203" rx="27" ry="18.3848"/>
<text text-anchor="middle" x="144.286" y="-199.4" font-family="Times Roman,serif" font-size="14.00">q4</text>
</g>
<!-- q4&#45;&gt;q0 -->
<g id="edge10" class="edge"><title>q4&#45;&gt;q0</title>
<path fill="none" stroke="black" d="M142.06,-184.382C140.524,-171.538 138.453,-154.216 136.709,-139.627"/>
<polygon fill="black" stroke="black" points="140.171,-139.104 135.509,-129.59 133.221,-139.935 140.171,-139.104"/>
<text text-anchor="middle" x="143.786" y="-153.4" font-family="Times Roman,serif" font-size="14.00">b</text>
</g>
<!-- q4&#45;&gt;q4 -->
<g id="edge12" class="edge"><title>q4&#45;&gt;q4</title>
<path fill="none" stroke="black" d="M168.36,-211.454C179.528,-212.377 189.286,-209.559 189.286,-203 189.286,-198.593 184.881,-195.875 178.603,-194.846"/>
<polygon fill="black" stroke="black" points="178.458,-191.34 168.36,-194.546 178.253,-198.337 178.458,-191.34"/>
<text text-anchor="middle" x="193.786" y="-199.4" font-family="Times Roman,serif" font-size="14.00">a</text>
</g>
<!-- q3 -->
<g id="node11" class="node"><title>q3</title>
<ellipse fill="none" stroke="black" cx="232.286" cy="-111" rx="27" ry="18.3848"/>
<text text-anchor="middle" x="232.286" y="-107.4" font-family="Times Roman,serif" font-size="14.00">q3</text>
</g>
<!-- q3&#45;&gt;q1 -->
<g id="edge16" class="edge"><title>q3&#45;&gt;q1</title>
<path fill="none" stroke="black" d="M211.969,-98.7831C185.449,-82.8365 138.853,-54.8179 108.534,-36.5869"/>
<polygon fill="black" stroke="black" points="110.061,-33.4212 99.6871,-31.2674 106.453,-39.4202 110.061,-33.4212"/>
<text text-anchor="middle" x="173.786" y="-61.4" font-family="Times Roman,serif" font-size="14.00">a</text>
</g>
<!-- q3&#45;&gt;q3 -->
<g id="edge14" class="edge"><title>q3&#45;&gt;q3</title>
<path fill="none" stroke="black" d="M256.36,-119.454C267.528,-120.377 277.286,-117.559 277.286,-111 277.286,-106.593 272.881,-103.875 266.603,-102.846"/>
<polygon fill="black" stroke="black" points="266.458,-99.3402 256.36,-102.546 266.253,-106.337 266.458,-99.3402"/>
<text text-anchor="middle" x="281.786" y="-107.4" font-family="Times Roman,serif" font-size="14.00">b</text>
</g>
</g>
</svg>
