<?xml version="1.0" encoding="UTF-8" standalone="no"?>
<!DOCTYPE svg PUBLIC "-//W3C//DTD SVG 1.1//EN"
 "http://www.w3.org/Graphics/SVG/1.1/DTD/svg11.dtd">
<!-- Generated by graphviz version 2.26.3 (20100126.1600)
 -->
<!-- Title: G Pages: 1 -->
<svg width="125pt" height="322pt"
 viewBox="0.00 0.00 125.00 322.00" xmlns="http://www.w3.org/2000/svg" xmlns:xlink="http://www.w3.org/1999/xlink">
<g id="graph1" class="graph" transform="scale(1 1) rotate(0) translate(4 318)">
<title>G</title>
<polygon fill="white" stroke="white" points="-4,5 -4,-318 122,-318 122,5 -4,5"/>
<!-- q6 -->
<g id="node1" class="node"><title>q6</title>
<ellipse fill="none" stroke="black" cx="63" cy="-296" rx="27" ry="18"/>
<text text-anchor="middle" x="63" y="-291.9" font-family="Times Roman,serif" font-size="14.00">q6</text>
</g>
<!-- q6&#45;&gt;q6 -->
<g id="edge2" class="edge"><title>q6&#45;&gt;q6</title>
<path fill="none" stroke="black" d="M87.5325,-304.121C98.5078,-304.895 108,-302.188 108,-296 108,-291.843 103.715,-289.257 97.5743,-288.242"/>
<polygon fill="black" stroke="black" points="97.6524,-284.742 87.5325,-287.879 97.3995,-291.738 97.6524,-284.742"/>
<text text-anchor="middle" x="112.5" y="-291.9" font-family="Times Roman,serif" font-size="14.00">b</text>
</g>
<!-- q4 -->
<g id="node4" class="node"><title>q4</title>
<ellipse fill="none" stroke="black" cx="28" cy="-206" rx="27" ry="18"/>
<text text-anchor="middle" x="28" y="-201.9" font-family="Times Roman,serif" font-size="14.00">q4</text>
</g>
<!-- q6&#45;&gt;q4 -->
<g id="edge4" class="edge"><title>q6&#45;&gt;q4</title>
<path fill="none" stroke="black" d="M56.0851,-278.219C51.0673,-265.316 44.1896,-247.63 38.4963,-232.99"/>
<polygon fill="black" stroke="black" points="41.668,-231.489 34.7814,-223.438 35.1439,-234.027 41.668,-231.489"/>
<text text-anchor="middle" x="52.5" y="-246.9" font-family="Times Roman,serif" font-size="14.00">a</text>
</g>
<!-- q3 -->
<g id="node8" class="node"><title>q3</title>
<ellipse fill="none" stroke="black" cx="27" cy="-116" rx="27" ry="18"/>
<text text-anchor="middle" x="27" y="-111.9" font-family="Times Roman,serif" font-size="14.00">q3</text>
</g>
<!-- q4&#45;&gt;q3 -->
<g id="edge10" class="edge"><title>q4&#45;&gt;q3</title>
<path fill="none" stroke="black" d="M17.1242,-189.47C13.8398,-183.574 10.6652,-176.723 9,-170 7.07654,-162.235 7.16198,-159.786 9,-152 9.77061,-148.736 10.8851,-145.43 12.1873,-142.213"/>
<polygon fill="black" stroke="black" points="15.4484,-143.501 16.5014,-132.958 9.10393,-140.543 15.4484,-143.501"/>
<text text-anchor="middle" x="13.5" y="-156.9" font-family="Times Roman,serif" font-size="14.00">b</text>
</g>
<!-- q4&#45;&gt;q3 -->
<g id="edge12" class="edge"><title>q4&#45;&gt;q3</title>
<path fill="none" stroke="black" d="M27.7976,-187.787C27.6594,-175.344 27.4734,-158.605 27.3158,-144.421"/>
<polygon fill="black" stroke="black" points="30.813,-144.146 27.2021,-134.186 23.8135,-144.224 30.813,-144.146"/>
<text text-anchor="middle" x="31.5" y="-156.9" font-family="Times Roman,serif" font-size="14.00">a</text>
</g>
<!-- q1 -->
<g id="node5" class="node"><title>q1</title>
<ellipse fill="none" stroke="black" cx="43" cy="-22" rx="27" ry="18"/>
<ellipse fill="none" stroke="black" cx="43" cy="-22" rx="31" ry="22"/>
<text text-anchor="middle" x="43" y="-17.9" font-family="Times Roman,serif" font-size="14.00">q1</text>
</g>
<!-- q1&#45;&gt;q6 -->
<g id="edge6" class="edge"><title>q1&#45;&gt;q6</title>
<path fill="none" stroke="black" d="M50.2246,-43.6629C54.8656,-58.7141 60.4805,-79.3411 63,-98 71.0801,-157.84 68.0715,-228.784 65.3874,-267.418"/>
<polygon fill="black" stroke="black" points="61.8613,-267.642 64.613,-277.873 68.8422,-268.159 61.8613,-267.642"/>
<text text-anchor="middle" x="72.5" y="-156.9" font-family="Times Roman,serif" font-size="14.00">b</text>
</g>
<!-- q1&#45;&gt;q3 -->
<g id="edge8" class="edge"><title>q1&#45;&gt;q3</title>
<path fill="none" stroke="black" d="M33.5234,-43.202C31.2814,-49.1649 29.1961,-55.7348 28,-62 26.4175,-70.2892 25.8241,-79.4243 25.7199,-87.7859"/>
<polygon fill="black" stroke="black" points="22.2205,-87.8744 25.812,-97.8419 29.2202,-87.8102 22.2205,-87.8744"/>
<text text-anchor="middle" x="32.5" y="-66.9" font-family="Times Roman,serif" font-size="14.00">a</text>
</g>
<!-- q3&#45;&gt;q1 -->
<g id="edge14" class="edge"><title>q3&#45;&gt;q1</title>
<path fill="none" stroke="black" d="M17.4825,-98.8017C12.8058,-88.106 8.9573,-74.1281 13,-62 14.5321,-57.4038 16.8221,-52.9104 19.4667,-48.6935"/>
<polygon fill="black" stroke="black" points="22.3559,-50.6696 25.2639,-40.4817 16.6373,-46.6325 22.3559,-50.6696"/>
<text text-anchor="middle" x="17.5" y="-66.9" font-family="Times Roman,serif" font-size="14.00">b</text>
</g>
<!-- q3&#45;&gt;q1 -->
<g id="edge16" class="edge"><title>q3&#45;&gt;q1</title>
<path fill="none" stroke="black" d="M32.5834,-98.1943C34.2169,-92.4363 35.8663,-85.9911 37,-80 38.5616,-71.7474 39.7412,-62.7518 40.6224,-54.3617"/>
<polygon fill="black" stroke="black" points="44.1301,-54.4442 41.5853,-44.1596 37.1611,-53.7864 44.1301,-54.4442"/>
<text text-anchor="middle" x="43.5" y="-66.9" font-family="Times Roman,serif" font-size="14.00">a</text>
</g>
</g>
</svg>
