<?xml version="1.0" encoding="UTF-8" standalone="no"?>
<!DOCTYPE svg PUBLIC "-//W3C//DTD SVG 1.1//EN"
 "http://www.w3.org/Graphics/SVG/1.1/DTD/svg11.dtd">
<!-- Generated by graphviz version 2.26.3 (20100126.1600)
 -->
<!-- Title: G Pages: 1 -->
<svg width="242pt" height="698pt"
 viewBox="0.00 0.00 242.00 698.00" xmlns="http://www.w3.org/2000/svg" xmlns:xlink="http://www.w3.org/1999/xlink">
<g id="graph1" class="graph" transform="scale(1 1) rotate(0) translate(4 694)">
<title>G</title>
<polygon fill="white" stroke="white" points="-4,5 -4,-694 239,-694 239,5 -4,5"/>
<!-- q0 -->
<g id="node1" class="node"><title>q0</title>
<ellipse fill="none" stroke="black" cx="27" cy="-487" rx="27" ry="18.3848"/>
<text text-anchor="middle" x="27" y="-483.4" font-family="Times Roman,serif" font-size="14.00">q0</text>
</g>
<!-- q0&#45;&gt;q0 -->
<g id="edge2" class="edge"><title>q0&#45;&gt;q0</title>
<path fill="none" stroke="black" d="M51.0743,-495.454C62.2423,-496.377 72,-493.559 72,-487 72,-482.593 67.5952,-479.875 61.3174,-478.846"/>
<polygon fill="black" stroke="black" points="61.1726,-475.34 51.0743,-478.546 60.9674,-482.337 61.1726,-475.34"/>
<text text-anchor="middle" x="76.5" y="-483.4" font-family="Times Roman,serif" font-size="14.00">b</text>
</g>
<!-- q6 -->
<g id="node4" class="node"><title>q6</title>
<ellipse fill="none" stroke="black" cx="99" cy="-395" rx="27" ry="18.3848"/>
<text text-anchor="middle" x="99" y="-391.4" font-family="Times Roman,serif" font-size="14.00">q6</text>
</g>
<!-- q0&#45;&gt;q6 -->
<g id="edge4" class="edge"><title>q0&#45;&gt;q6</title>
<path fill="none" stroke="black" d="M39.8722,-470.552C51.0322,-456.292 67.3346,-435.461 79.9964,-419.282"/>
<polygon fill="black" stroke="black" points="82.8324,-421.338 86.2393,-411.305 77.3199,-417.023 82.8324,-421.338"/>
<text text-anchor="middle" x="73.5" y="-437.4" font-family="Times Roman,serif" font-size="14.00">a</text>
</g>
<!-- q6&#45;&gt;q6 -->
<g id="edge26" class="edge"><title>q6&#45;&gt;q6</title>
<path fill="none" stroke="black" d="M123.074,-403.454C134.242,-404.377 144,-401.559 144,-395 144,-390.593 139.595,-387.875 133.317,-386.846"/>
<polygon fill="black" stroke="black" points="133.173,-383.34 123.074,-386.546 132.967,-390.337 133.173,-383.34"/>
<text text-anchor="middle" x="148.5" y="-391.4" font-family="Times Roman,serif" font-size="14.00">b</text>
</g>
<!-- q7 -->
<g id="node12" class="node"><title>q7</title>
<ellipse fill="none" stroke="black" cx="99" cy="-303" rx="27" ry="18.3848"/>
<text text-anchor="middle" x="99" y="-299.4" font-family="Times Roman,serif" font-size="14.00">q7</text>
</g>
<!-- q6&#45;&gt;q7 -->
<g id="edge28" class="edge"><title>q6&#45;&gt;q7</title>
<path fill="none" stroke="black" d="M99,-376.382C99,-363.538 99,-346.216 99,-331.627"/>
<polygon fill="black" stroke="black" points="102.5,-331.59 99,-321.59 95.5001,-331.59 102.5,-331.59"/>
<text text-anchor="middle" x="103.5" y="-345.4" font-family="Times Roman,serif" font-size="14.00">a</text>
</g>
<!-- q1 -->
<g id="node5" class="node"><title>q1</title>
<ellipse fill="none" stroke="black" cx="157" cy="-671" rx="27" ry="18.3848"/>
<text text-anchor="middle" x="157" y="-667.4" font-family="Times Roman,serif" font-size="14.00">q1</text>
</g>
<!-- q3 -->
<g id="node7" class="node"><title>q3</title>
<ellipse fill="none" stroke="black" cx="118" cy="-579" rx="27" ry="18.3848"/>
<text text-anchor="middle" x="118" y="-575.4" font-family="Times Roman,serif" font-size="14.00">q3</text>
</g>
<!-- q1&#45;&gt;q3 -->
<g id="edge6" class="edge"><title>q1&#45;&gt;q3</title>
<path fill="none" stroke="black" d="M149.295,-652.824C143.65,-639.507 135.892,-621.207 129.513,-606.159"/>
<polygon fill="black" stroke="black" points="132.682,-604.666 125.556,-596.825 126.237,-607.398 132.682,-604.666"/>
<text text-anchor="middle" x="144.5" y="-621.4" font-family="Times Roman,serif" font-size="14.00">b</text>
</g>
<!-- q8 -->
<g id="node9" class="node"><title>q8</title>
<ellipse fill="none" stroke="black" cx="149" cy="-23" rx="27" ry="18.3848"/>
<ellipse fill="none" stroke="black" cx="149" cy="-23" rx="31" ry="22.3848"/>
<text text-anchor="middle" x="149" y="-19.4" font-family="Times Roman,serif" font-size="14.00">q8</text>
</g>
<!-- q1&#45;&gt;q8 -->
<g id="edge8" class="edge"><title>q1&#45;&gt;q8</title>
<path fill="none" stroke="black" d="M164.594,-653.033C171.625,-634.746 181,-605.411 181,-579 181,-579 181,-579 181,-119 181,-96.1105 172.711,-71.6538 164.571,-53.154"/>
<polygon fill="black" stroke="black" points="167.742,-51.6736 160.372,-44.0626 161.387,-54.6087 167.742,-51.6736"/>
<text text-anchor="middle" x="185.5" y="-345.4" font-family="Times Roman,serif" font-size="14.00">a</text>
</g>
<!-- q3&#45;&gt;q0 -->
<g id="edge16" class="edge"><title>q3&#45;&gt;q0</title>
<path fill="none" stroke="black" d="M102.563,-563.393C87.9638,-548.634 65.8903,-526.318 49.3646,-509.61"/>
<polygon fill="black" stroke="black" points="51.7297,-507.024 42.2089,-502.376 46.7529,-511.947 51.7297,-507.024"/>
<text text-anchor="middle" x="84.5" y="-529.4" font-family="Times Roman,serif" font-size="14.00">a</text>
</g>
<!-- q5 -->
<g id="node16" class="node"><title>q5</title>
<ellipse fill="none" stroke="black" cx="126" cy="-487" rx="27" ry="18.3848"/>
<text text-anchor="middle" x="126" y="-483.4" font-family="Times Roman,serif" font-size="14.00">q5</text>
</g>
<!-- q3&#45;&gt;q5 -->
<g id="edge14" class="edge"><title>q3&#45;&gt;q5</title>
<path fill="none" stroke="black" d="M112.731,-560.57C110.392,-549.843 108.642,-536.093 111,-524 111.637,-520.734 112.562,-517.393 113.645,-514.118"/>
<polygon fill="black" stroke="black" points="116.967,-515.231 117.239,-504.639 110.421,-512.749 116.967,-515.231"/>
<text text-anchor="middle" x="115.5" y="-529.4" font-family="Times Roman,serif" font-size="14.00">b</text>
</g>
<!-- q8&#45;&gt;q8 -->
<g id="edge34" class="edge"><title>q8&#45;&gt;q8</title>
<path fill="none" stroke="black" d="M179.625,-27.6875C189.833,-27.6875 198,-26.125 198,-23 198,-21.0469 194.81,-19.7041 189.925,-18.9717"/>
<polygon fill="black" stroke="black" points="189.828,-15.4584 179.625,-18.3125 189.381,-22.4441 189.828,-15.4584"/>
<text text-anchor="middle" x="202.5" y="-19.4" font-family="Times Roman,serif" font-size="14.00">b</text>
</g>
<!-- q8&#45;&gt;q8 -->
<g id="edge36" class="edge"><title>q8&#45;&gt;q8</title>
<path fill="none" stroke="black" d="M172.347,-37.9505C193.424,-45.2237 216,-40.2402 216,-23 216,-8.45355 199.928,-2.63284 182.245,-5.53787"/>
<polygon fill="black" stroke="black" points="181.179,-2.19731 172.347,-8.04948 182.901,-8.98227 181.179,-2.19731"/>
<text text-anchor="middle" x="220.5" y="-19.4" font-family="Times Roman,serif" font-size="14.00">a</text>
</g>
<!-- q2 -->
<g id="node10" class="node"><title>q2</title>
<ellipse fill="none" stroke="black" cx="123" cy="-211" rx="27" ry="18.3848"/>
<text text-anchor="middle" x="123" y="-207.4" font-family="Times Roman,serif" font-size="14.00">q2</text>
</g>
<!-- q2&#45;&gt;q7 -->
<g id="edge10" class="edge"><title>q2&#45;&gt;q7</title>
<path fill="none" stroke="black" d="M110.173,-227.393C106.12,-233.514 102.142,-240.746 100,-248 97.5192,-256.4 96.6875,-265.84 96.6418,-274.497"/>
<polygon fill="black" stroke="black" points="93.1445,-274.646 96.9178,-284.546 100.142,-274.453 93.1445,-274.646"/>
<text text-anchor="middle" x="104.5" y="-253.4" font-family="Times Roman,serif" font-size="14.00">b</text>
</g>
<!-- q4 -->
<g id="node14" class="node"><title>q4</title>
<ellipse fill="none" stroke="black" cx="123" cy="-119" rx="27" ry="18.3848"/>
<text text-anchor="middle" x="123" y="-115.4" font-family="Times Roman,serif" font-size="14.00">q4</text>
</g>
<!-- q2&#45;&gt;q4 -->
<g id="edge12" class="edge"><title>q2&#45;&gt;q4</title>
<path fill="none" stroke="black" d="M123,-192.382C123,-179.538 123,-162.216 123,-147.627"/>
<polygon fill="black" stroke="black" points="126.5,-147.59 123,-137.59 119.5,-147.59 126.5,-147.59"/>
<text text-anchor="middle" x="127.5" y="-161.4" font-family="Times Roman,serif" font-size="14.00">a</text>
</g>
<!-- q7&#45;&gt;q2 -->
<g id="edge30" class="edge"><title>q7&#45;&gt;q2</title>
<path fill="none" stroke="black" d="M104.038,-284.571C105.643,-278.646 107.413,-272.05 109,-266 111.276,-257.327 113.702,-247.871 115.885,-239.283"/>
<polygon fill="black" stroke="black" points="119.339,-239.904 118.401,-229.351 112.553,-238.186 119.339,-239.904"/>
<text text-anchor="middle" x="117.5" y="-253.4" font-family="Times Roman,serif" font-size="14.00">b</text>
</g>
<!-- q7&#45;&gt;q7 -->
<g id="edge32" class="edge"><title>q7&#45;&gt;q7</title>
<path fill="none" stroke="black" d="M123.074,-311.454C134.242,-312.377 144,-309.559 144,-303 144,-298.593 139.595,-295.875 133.317,-294.846"/>
<polygon fill="black" stroke="black" points="133.173,-291.34 123.074,-294.546 132.967,-298.337 133.173,-291.34"/>
<text text-anchor="middle" x="148.5" y="-299.4" font-family="Times Roman,serif" font-size="14.00">a</text>
</g>
<!-- q4&#45;&gt;q8 -->
<g id="edge18" class="edge"><title>q4&#45;&gt;q8</title>
<path fill="none" stroke="black" d="M128.013,-100.49C131.49,-87.6521 136.212,-70.2188 140.296,-55.1387"/>
<polygon fill="black" stroke="black" points="143.762,-55.7272 142.998,-45.16 137.006,-53.8972 143.762,-55.7272"/>
<text text-anchor="middle" x="141.5" y="-69.4" font-family="Times Roman,serif" font-size="14.00">b</text>
</g>
<!-- q9 -->
<g id="node20" class="node"><title>q9</title>
<ellipse fill="none" stroke="black" cx="66" cy="-23" rx="27" ry="18.3848"/>
<text text-anchor="middle" x="66" y="-19.4" font-family="Times Roman,serif" font-size="14.00">q9</text>
</g>
<!-- q4&#45;&gt;q9 -->
<g id="edge20" class="edge"><title>q4&#45;&gt;q9</title>
<path fill="none" stroke="black" d="M112.81,-101.837C104.11,-87.1846 91.4622,-65.8836 81.5063,-49.1159"/>
<polygon fill="black" stroke="black" points="84.4093,-47.1496 76.2944,-40.338 78.3904,-50.7234 84.4093,-47.1496"/>
<text text-anchor="middle" x="103.5" y="-69.4" font-family="Times Roman,serif" font-size="14.00">a</text>
</g>
<!-- q5&#45;&gt;q6 -->
<g id="edge22" class="edge"><title>q5&#45;&gt;q6</title>
<path fill="none" stroke="black" d="M120.666,-468.824C116.82,-455.719 111.558,-437.789 107.182,-422.88"/>
<polygon fill="black" stroke="black" points="110.498,-421.748 104.323,-413.138 103.781,-423.719 110.498,-421.748"/>
<text text-anchor="middle" x="118.5" y="-437.4" font-family="Times Roman,serif" font-size="14.00">b</text>
</g>
<!-- q5&#45;&gt;q3 -->
<g id="edge24" class="edge"><title>q5&#45;&gt;q3</title>
<path fill="none" stroke="black" d="M124.383,-505.59C123.267,-518.428 121.761,-535.748 120.492,-550.342"/>
<polygon fill="black" stroke="black" points="116.998,-550.117 119.619,-560.382 123.972,-550.723 116.998,-550.117"/>
<text text-anchor="middle" x="126.5" y="-529.4" font-family="Times Roman,serif" font-size="14.00">a</text>
</g>
<!-- q9&#45;&gt;q0 -->
<g id="edge38" class="edge"><title>q9&#45;&gt;q0</title>
<path fill="none" stroke="black" d="M54.5097,-39.8531C43.0056,-58.3964 27,-89.4972 27,-119 27,-395 27,-395 27,-395 27,-416.13 27,-439.99 27,-458.116"/>
<polygon fill="black" stroke="black" points="23.5001,-458.322 27,-468.322 30.5001,-458.322 23.5001,-458.322"/>
<text text-anchor="middle" x="31.5" y="-253.4" font-family="Times Roman,serif" font-size="14.00">b</text>
</g>
<!-- q9&#45;&gt;q7 -->
<g id="edge40" class="edge"><title>q9&#45;&gt;q7</title>
<path fill="none" stroke="black" d="M67.6532,-41.5808C70.9317,-77.8508 78.6635,-160.603 87,-230 88.9266,-246.038 89.3867,-250.059 92,-266 92.4505,-268.748 92.9448,-271.606 93.456,-274.461"/>
<polygon fill="black" stroke="black" points="90.0691,-275.393 95.3326,-284.588 96.9519,-274.117 90.0691,-275.393"/>
<text text-anchor="middle" x="84.5" y="-161.4" font-family="Times Roman,serif" font-size="14.00">a</text>
</g>
</g>
</svg>
