<?xml version="1.0" encoding="UTF-8" standalone="no"?>
<!DOCTYPE svg PUBLIC "-//W3C//DTD SVG 1.1//EN"
 "http://www.w3.org/Graphics/SVG/1.1/DTD/svg11.dtd">
<!-- Generated by graphviz version 2.26.3 (20100126.1600)
 -->
<!-- Title: G Pages: 1 -->
<svg width="332pt" height="706pt"
 viewBox="0.00 0.00 332.00 706.00" xmlns="http://www.w3.org/2000/svg" xmlns:xlink="http://www.w3.org/1999/xlink">
<g id="graph1" class="graph" transform="scale(1 1) rotate(0) translate(4 702)">
<title>G</title>
<polygon fill="white" stroke="white" points="-4,5 -4,-702 329,-702 329,5 -4,5"/>
<!-- q0 -->
<g id="node1" class="node"><title>q0</title>
<ellipse fill="none" stroke="black" cx="203" cy="-587" rx="27" ry="18.3848"/>
<text text-anchor="middle" x="203" y="-583.4" font-family="Times Roman,serif" font-size="14.00">q0</text>
</g>
<!-- q0&#45;&gt;q0 -->
<g id="edge4" class="edge"><title>q0&#45;&gt;q0</title>
<path fill="none" stroke="black" d="M227.074,-595.454C238.242,-596.377 248,-593.559 248,-587 248,-582.593 243.595,-579.875 237.317,-578.846"/>
<polygon fill="black" stroke="black" points="237.173,-575.34 227.074,-578.546 236.967,-582.337 237.173,-575.34"/>
<text text-anchor="middle" x="252.5" y="-583.4" font-family="Times Roman,serif" font-size="14.00">a</text>
</g>
<!-- q3 -->
<g id="node3" class="node"><title>q3</title>
<ellipse fill="none" stroke="black" cx="114" cy="-495" rx="27" ry="18.3848"/>
<text text-anchor="middle" x="114" y="-491.4" font-family="Times Roman,serif" font-size="14.00">q3</text>
</g>
<!-- q0&#45;&gt;q3 -->
<g id="edge2" class="edge"><title>q0&#45;&gt;q3</title>
<path fill="none" stroke="black" d="M187.902,-571.393C173.71,-556.723 152.295,-534.586 136.166,-517.913"/>
<polygon fill="black" stroke="black" points="138.64,-515.437 129.172,-510.683 133.609,-520.304 138.64,-515.437"/>
<text text-anchor="middle" x="170.5" y="-537.4" font-family="Times Roman,serif" font-size="14.00">b</text>
</g>
<!-- q2 -->
<g id="node5" class="node"><title>q2</title>
<ellipse fill="none" stroke="black" cx="219" cy="-403" rx="27" ry="18.3848"/>
<text text-anchor="middle" x="219" y="-399.4" font-family="Times Roman,serif" font-size="14.00">q2</text>
</g>
<!-- q3&#45;&gt;q2 -->
<g id="edge12" class="edge"><title>q3&#45;&gt;q2</title>
<path fill="none" stroke="black" d="M133.906,-482.116C143.872,-475.351 155.927,-466.678 166,-458 177.098,-448.438 188.487,-436.887 197.849,-426.844"/>
<polygon fill="black" stroke="black" points="200.699,-428.915 204.879,-419.18 195.54,-424.184 200.699,-428.915"/>
<text text-anchor="middle" x="188.5" y="-445.4" font-family="Times Roman,serif" font-size="14.00">a</text>
</g>
<!-- q10 -->
<g id="node11" class="node"><title>q10</title>
<ellipse fill="none" stroke="black" cx="95" cy="-19" rx="29.9071" ry="18.3848"/>
<text text-anchor="middle" x="95" y="-15.4" font-family="Times Roman,serif" font-size="14.00">q10</text>
</g>
<!-- q3&#45;&gt;q10 -->
<g id="edge10" class="edge"><title>q3&#45;&gt;q10</title>
<path fill="none" stroke="black" d="M87.7856,-489.828C68.0543,-484.729 41.5058,-475.135 24,-458 4.94042,-439.344 0,-429.67 0,-403 0,-403 0,-403 0,-115 0,-86.6913 4.94601,-76.9363 24,-56 33.4682,-45.5965 46.5463,-37.6361 58.9006,-31.813"/>
<polygon fill="black" stroke="black" points="60.3772,-34.9874 68.135,-27.7717 57.5706,-28.5746 60.3772,-34.9874"/>
<text text-anchor="middle" x="4.5" y="-253.4" font-family="Times Roman,serif" font-size="14.00">b</text>
</g>
<!-- q4 -->
<g id="node7" class="node"><title>q4</title>
<ellipse fill="none" stroke="black" cx="256" cy="-307" rx="27" ry="18.3848"/>
<ellipse fill="none" stroke="black" cx="256" cy="-307" rx="31" ry="22.3848"/>
<text text-anchor="middle" x="256" y="-303.4" font-family="Times Roman,serif" font-size="14.00">q4</text>
</g>
<!-- q2&#45;&gt;q4 -->
<g id="edge6" class="edge"><title>q2&#45;&gt;q4</title>
<path fill="none" stroke="black" d="M230.366,-386.218C234.158,-380.061 238.14,-372.904 241,-366 244.488,-357.578 247.329,-348.134 249.562,-339.313"/>
<polygon fill="black" stroke="black" points="253.025,-339.877 251.907,-329.341 246.211,-338.274 253.025,-339.877"/>
<text text-anchor="middle" x="251.5" y="-353.4" font-family="Times Roman,serif" font-size="14.00">b</text>
</g>
<!-- q9 -->
<g id="node9" class="node"><title>q9</title>
<ellipse fill="none" stroke="black" cx="193" cy="-211" rx="27" ry="18.3848"/>
<text text-anchor="middle" x="193" y="-207.4" font-family="Times Roman,serif" font-size="14.00">q9</text>
</g>
<!-- q2&#45;&gt;q9 -->
<g id="edge8" class="edge"><title>q2&#45;&gt;q9</title>
<path fill="none" stroke="black" d="M215.707,-384.433C213.152,-369.701 209.617,-348.568 207,-330 202.67,-299.276 198.633,-263.957 196.017,-239.827"/>
<polygon fill="black" stroke="black" points="199.466,-239.155 194.92,-229.585 192.505,-239.901 199.466,-239.155"/>
<text text-anchor="middle" x="211.5" y="-303.4" font-family="Times Roman,serif" font-size="14.00">a</text>
</g>
<!-- q4&#45;&gt;q2 -->
<g id="edge16" class="edge"><title>q4&#45;&gt;q2</title>
<path fill="none" stroke="black" d="M242.294,-327.668C238.545,-333.995 234.759,-341.109 232,-348 228.655,-356.354 226.039,-365.781 224.058,-374.44"/>
<polygon fill="black" stroke="black" points="220.575,-373.993 221.95,-384.498 227.427,-375.428 220.575,-373.993"/>
<text text-anchor="middle" x="236.5" y="-353.4" font-family="Times Roman,serif" font-size="14.00">a</text>
</g>
<!-- q4&#45;&gt;q9 -->
<g id="edge14" class="edge"><title>q4&#45;&gt;q9</title>
<path fill="none" stroke="black" d="M242.639,-286.641C233.098,-272.102 220.189,-252.431 209.927,-236.793"/>
<polygon fill="black" stroke="black" points="212.649,-234.562 204.236,-228.121 206.796,-238.402 212.649,-234.562"/>
<text text-anchor="middle" x="232.5" y="-253.4" font-family="Times Roman,serif" font-size="14.00">b</text>
</g>
<!-- q9&#45;&gt;q3 -->
<g id="edge26" class="edge"><title>q9&#45;&gt;q3</title>
<path fill="none" stroke="black" d="M188.837,-229.471C179.369,-270.804 154.946,-373.742 128,-458 126.996,-461.14 125.876,-464.403 124.719,-467.633"/>
<polygon fill="black" stroke="black" points="121.416,-466.473 121.217,-477.066 127.979,-468.91 121.416,-466.473"/>
<text text-anchor="middle" x="163.5" y="-353.4" font-family="Times Roman,serif" font-size="14.00">b</text>
</g>
<!-- q5 -->
<g id="node15" class="node"><title>q5</title>
<ellipse fill="none" stroke="black" cx="193" cy="-115" rx="27" ry="18.3848"/>
<ellipse fill="none" stroke="black" cx="193" cy="-115" rx="31" ry="22.3848"/>
<text text-anchor="middle" x="193" y="-111.4" font-family="Times Roman,serif" font-size="14.00">q5</text>
</g>
<!-- q9&#45;&gt;q5 -->
<g id="edge28" class="edge"><title>q9&#45;&gt;q5</title>
<path fill="none" stroke="black" d="M193,-192.49C193,-179.863 193,-162.791 193,-147.885"/>
<polygon fill="black" stroke="black" points="196.5,-147.508 193,-137.508 189.5,-147.508 196.5,-147.508"/>
<text text-anchor="middle" x="197.5" y="-161.4" font-family="Times Roman,serif" font-size="14.00">a</text>
</g>
<!-- q10&#45;&gt;q3 -->
<g id="edge30" class="edge"><title>q10&#45;&gt;q3</title>
<path fill="none" stroke="black" d="M78.5132,-34.6436C61.679,-52.3823 38,-83.0179 38,-115 38,-403 38,-403 38,-403 38,-429.67 45.1902,-437.294 62,-458 68.1541,-465.581 76.2333,-472.327 84.1829,-477.914"/>
<polygon fill="black" stroke="black" points="82.3864,-480.922 92.6609,-483.508 86.2413,-475.079 82.3864,-480.922"/>
<text text-anchor="middle" x="42.5" y="-253.4" font-family="Times Roman,serif" font-size="14.00">b</text>
</g>
<!-- q10&#45;&gt;q3 -->
<g id="edge32" class="edge"><title>q10&#45;&gt;q3</title>
<path fill="none" stroke="black" d="M89.1961,-37.192C83.6086,-56.3439 76,-87.4763 76,-115 76,-403 76,-403 76,-403 76,-426.84 87.0349,-451.702 97.2117,-469.562"/>
<polygon fill="black" stroke="black" points="94.2545,-471.436 102.392,-478.221 100.261,-467.842 94.2545,-471.436"/>
<text text-anchor="middle" x="80.5" y="-253.4" font-family="Times Roman,serif" font-size="14.00">a</text>
</g>
<!-- q10&#45;&gt;q3 -->
<g id="edge34" class="edge"><title>q10&#45;&gt;q3</title>
<path fill="none" stroke="black" d="M100.804,-37.192C106.391,-56.3439 114,-87.4763 114,-115 114,-403 114,-403 114,-403 114,-424.13 114,-447.99 114,-466.116"/>
<polygon fill="black" stroke="black" points="110.5,-466.322 114,-476.322 117.5,-466.322 110.5,-466.322"/>
<text text-anchor="middle" x="118.5" y="-253.4" font-family="Times Roman,serif" font-size="14.00">b</text>
</g>
<!-- q10&#45;&gt;q10 -->
<g id="edge36" class="edge"><title>q10&#45;&gt;q10</title>
<path fill="none" stroke="black" d="M121.655,-27.5218C133.154,-28.2195 143,-25.3789 143,-19 143,-14.6145 138.346,-11.9014 131.701,-10.8607"/>
<polygon fill="black" stroke="black" points="131.781,-7.3613 121.655,-10.4782 131.514,-14.3562 131.781,-7.3613"/>
<text text-anchor="middle" x="147.5" y="-15.4" font-family="Times Roman,serif" font-size="14.00">a</text>
</g>
<!-- q5&#45;&gt;q4 -->
<g id="edge18" class="edge"><title>q5&#45;&gt;q4</title>
<path fill="none" stroke="black" d="M204.305,-136.079C212.096,-151.283 222.228,-172.482 229,-192 238.444,-219.219 245.654,-251.196 250.238,-274.512"/>
<polygon fill="black" stroke="black" points="246.844,-275.401 252.157,-284.567 253.72,-274.088 246.844,-275.401"/>
<text text-anchor="middle" x="243.5" y="-207.4" font-family="Times Roman,serif" font-size="14.00">b</text>
</g>
<!-- q5&#45;&gt;q10 -->
<g id="edge20" class="edge"><title>q5&#45;&gt;q10</title>
<path fill="none" stroke="black" d="M174.105,-96.4902C158.284,-80.9926 135.628,-58.7985 118.613,-42.1314"/>
<polygon fill="black" stroke="black" points="120.831,-39.4039 111.238,-34.9063 115.932,-44.4044 120.831,-39.4039"/>
<text text-anchor="middle" x="153.5" y="-61.4" font-family="Times Roman,serif" font-size="14.00">a</text>
</g>
<!-- q6 -->
<g id="node18" class="node"><title>q6</title>
<ellipse fill="none" stroke="black" cx="281" cy="-679" rx="27" ry="18.3848"/>
<text text-anchor="middle" x="281" y="-675.4" font-family="Times Roman,serif" font-size="14.00">q6</text>
</g>
<!-- q6&#45;&gt;q0 -->
<g id="edge22" class="edge"><title>q6&#45;&gt;q0</title>
<path fill="none" stroke="black" d="M267.413,-662.975C255.296,-648.683 237.383,-627.554 223.52,-611.203"/>
<polygon fill="black" stroke="black" points="225.829,-608.514 216.693,-603.15 220.49,-613.041 225.829,-608.514"/>
<text text-anchor="middle" x="252.5" y="-629.4" font-family="Times Roman,serif" font-size="14.00">b</text>
</g>
<!-- q6&#45;&gt;q10 -->
<g id="edge24" class="edge"><title>q6&#45;&gt;q10</title>
<path fill="none" stroke="black" d="M291.571,-661.721C301.552,-643.735 315,-614.415 315,-587 315,-587 315,-587 315,-115 315,-75.9199 196.909,-42.5733 133.766,-27.5362"/>
<polygon fill="black" stroke="black" points="134.295,-24.0657 123.761,-25.1973 132.702,-30.8819 134.295,-24.0657"/>
<text text-anchor="middle" x="319.5" y="-353.4" font-family="Times Roman,serif" font-size="14.00">a</text>
</g>
</g>
</svg>
