<?xml version="1.0" encoding="UTF-8" standalone="no"?>
<!DOCTYPE svg PUBLIC "-//W3C//DTD SVG 1.1//EN"
 "http://www.w3.org/Graphics/SVG/1.1/DTD/svg11.dtd">
<!-- Generated by graphviz version 2.26.3 (20100126.1600)
 -->
<!-- Title: G Pages: 1 -->
<svg width="156pt" height="232pt"
 viewBox="0.00 0.00 156.00 232.00" xmlns="http://www.w3.org/2000/svg" xmlns:xlink="http://www.w3.org/1999/xlink">
<g id="graph1" class="graph" transform="scale(1 1) rotate(0) translate(4 228)">
<title>G</title>
<polygon fill="white" stroke="white" points="-4,5 -4,-228 153,-228 153,5 -4,5"/>
<!-- q1 -->
<g id="node1" class="node"><title>q1</title>
<ellipse fill="none" stroke="black" cx="117" cy="-202" rx="27" ry="18"/>
<ellipse fill="none" stroke="black" cx="117" cy="-202" rx="31" ry="22"/>
<text text-anchor="middle" x="117" y="-197.9" font-family="Times Roman,serif" font-size="14.00">q1</text>
</g>
<!-- q0 -->
<g id="node3" class="node"><title>q0</title>
<ellipse fill="none" stroke="darkred" cx="27" cy="-108" rx="27" ry="18"/>
<text text-anchor="middle" x="27" y="-103.9" font-family="Times Roman,serif" font-size="14.00">q0</text>
</g>
<!-- q1&#45;&gt;q0 -->
<g id="edge2" class="edge"><title>q1&#45;&gt;q0</title>
<path fill="none" stroke="black" d="M99.2189,-183.429C84.779,-168.347 64.3496,-147.01 48.9022,-130.876"/>
<polygon fill="black" stroke="black" points="51.211,-128.226 41.7672,-123.424 46.1548,-133.067 51.211,-128.226"/>
<text text-anchor="middle" x="82.5" y="-148.9" font-family="Times Roman,serif" font-size="14.00">b</text>
</g>
<!-- q4 -->
<g id="node5" class="node"><title>q4</title>
<ellipse fill="none" stroke="black" cx="109" cy="-18" rx="27" ry="18"/>
<text text-anchor="middle" x="109" y="-13.9" font-family="Times Roman,serif" font-size="14.00">q4</text>
</g>
<!-- q1&#45;&gt;q4 -->
<g id="edge4" class="edge"><title>q1&#45;&gt;q4</title>
<path fill="none" stroke="black" d="M116.035,-179.805C114.579,-146.312 111.821,-82.8751 110.225,-46.1691"/>
<polygon fill="black" stroke="black" points="113.72,-45.9735 109.788,-36.135 106.726,-46.2776 113.72,-45.9735"/>
<text text-anchor="middle" x="117.5" y="-103.9" font-family="Times Roman,serif" font-size="14.00">a</text>
</g>
<!-- q0&#45;&gt;q0 -->
<g id="edge12" class="edge"><title>q0&#45;&gt;q0</title>
<path fill="none" stroke="black" d="M51.5325,-116.121C62.5078,-116.895 72,-114.188 72,-108 72,-103.843 67.7151,-101.257 61.5743,-100.242"/>
<polygon fill="black" stroke="black" points="61.6524,-96.7424 51.5325,-99.8789 61.3995,-103.738 61.6524,-96.7424"/>
<text text-anchor="middle" x="76.5" y="-103.9" font-family="Times Roman,serif" font-size="14.00">a</text>
</g>
<!-- q0&#45;&gt;q4 -->
<g id="edge10" class="edge"><title>q0&#45;&gt;q4</title>
<path fill="none" stroke="black" d="M30.7467,-90.1485C33.8485,-78.7998 39.2076,-64.3488 48,-54 55.6808,-44.9595 66.235,-37.6205 76.4063,-31.9843"/>
<polygon fill="black" stroke="black" points="78.252,-34.971 85.5463,-27.287 75.0522,-28.7451 78.252,-34.971"/>
<text text-anchor="middle" x="52.5" y="-58.9" font-family="Times Roman,serif" font-size="14.00">b</text>
</g>
<!-- q4&#45;&gt;q1 -->
<g id="edge6" class="edge"><title>q4&#45;&gt;q1</title>
<path fill="none" stroke="black" d="M117.553,-35.1844C120.077,-41.0176 122.549,-47.664 124,-54 134.723,-100.821 134.426,-114.399 128,-162 127.633,-164.717 127.132,-167.51 126.545,-170.297"/>
<polygon fill="black" stroke="black" points="123.096,-169.669 124.128,-180.213 129.897,-171.326 123.096,-169.669"/>
<text text-anchor="middle" x="136.5" y="-103.9" font-family="Times Roman,serif" font-size="14.00">b</text>
</g>
<!-- q4&#45;&gt;q0 -->
<g id="edge8" class="edge"><title>q4&#45;&gt;q0</title>
<path fill="none" stroke="black" d="M94.8804,-33.4972C81.9996,-47.6346 62.7901,-68.7182 48.09,-84.8525"/>
<polygon fill="black" stroke="black" points="45.431,-82.574 41.2833,-92.3232 50.6054,-87.2884 45.431,-82.574"/>
<text text-anchor="middle" x="80.5" y="-58.9" font-family="Times Roman,serif" font-size="14.00">a</text>
</g>
</g>
</svg>
