<?xml version="1.0" encoding="UTF-8" standalone="no"?>
<!DOCTYPE svg PUBLIC "-//W3C//DTD SVG 1.1//EN"
 "http://www.w3.org/Graphics/SVG/1.1/DTD/svg11.dtd">
<!-- Generated by graphviz version 2.26.3 (20100126.1600)
 -->
<!-- Title: G Pages: 1 -->
<svg width="225pt" height="414pt"
 viewBox="0.00 0.00 225.00 414.00" xmlns="http://www.w3.org/2000/svg" xmlns:xlink="http://www.w3.org/1999/xlink">
<g id="graph1" class="graph" transform="scale(1 1) rotate(0) translate(4 410)">
<title>G</title>
<polygon fill="white" stroke="white" points="-4,5 -4,-410 222,-410 222,5 -4,5"/>
<!-- q6 -->
<g id="node1" class="node"><title>q6</title>
<ellipse fill="none" stroke="black" cx="27" cy="-111" rx="27" ry="18.3848"/>
<text text-anchor="middle" x="27" y="-107.4" font-family="Times Roman,serif" font-size="14.00">q6</text>
</g>
<!-- q6&#45;&gt;q6 -->
<g id="edge2" class="edge"><title>q6&#45;&gt;q6</title>
<path fill="none" stroke="black" d="M51.0743,-119.454C62.2423,-120.377 72,-117.559 72,-111 72,-106.593 67.5952,-103.875 61.3174,-102.846"/>
<polygon fill="black" stroke="black" points="61.1726,-99.3402 51.0743,-102.546 60.9674,-106.337 61.1726,-99.3402"/>
<text text-anchor="middle" x="76.5" y="-107.4" font-family="Times Roman,serif" font-size="14.00">b</text>
</g>
<!-- q4 -->
<g id="node4" class="node"><title>q4</title>
<ellipse fill="none" stroke="black" cx="84" cy="-19" rx="27" ry="18.3848"/>
<text text-anchor="middle" x="84" y="-15.4" font-family="Times Roman,serif" font-size="14.00">q4</text>
</g>
<!-- q6&#45;&gt;q4 -->
<g id="edge4" class="edge"><title>q6&#45;&gt;q4</title>
<path fill="none" stroke="black" d="M37.7213,-93.6955C46.24,-79.9459 58.2873,-60.5012 67.9546,-44.8979"/>
<polygon fill="black" stroke="black" points="71.0353,-46.571 73.3268,-36.2269 65.0848,-42.8842 71.0353,-46.571"/>
<text text-anchor="middle" x="65.5" y="-61.4" font-family="Times Roman,serif" font-size="14.00">a</text>
</g>
<!-- q4&#45;&gt;q4 -->
<g id="edge18" class="edge"><title>q4&#45;&gt;q4</title>
<path fill="none" stroke="black" d="M110.347,-23.2957C120.533,-23.4866 129,-22.0547 129,-19 129,-17.0431 125.525,-15.7522 120.35,-15.1273"/>
<polygon fill="black" stroke="black" points="120.486,-11.63 110.347,-14.7043 120.19,-18.6237 120.486,-11.63"/>
<text text-anchor="middle" x="133.5" y="-15.4" font-family="Times Roman,serif" font-size="14.00">b</text>
</g>
<!-- q4&#45;&gt;q4 -->
<g id="edge20" class="edge"><title>q4&#45;&gt;q4</title>
<path fill="none" stroke="black" d="M102.703,-32.3594C123.375,-41.2656 147,-36.8125 147,-19 147,-3.9707 130.181,1.54787 112.508,-2.44429"/>
<polygon fill="black" stroke="black" points="111.126,0.786507 102.703,-5.64062 113.296,-5.86879 111.126,0.786507"/>
<text text-anchor="middle" x="151.5" y="-15.4" font-family="Times Roman,serif" font-size="14.00">a</text>
</g>
<!-- q5 -->
<g id="node5" class="node"><title>q5</title>
<ellipse fill="none" stroke="black" cx="37" cy="-203" rx="27" ry="18.3848"/>
<text text-anchor="middle" x="37" y="-199.4" font-family="Times Roman,serif" font-size="14.00">q5</text>
</g>
<!-- q5&#45;&gt;q6 -->
<g id="edge6" class="edge"><title>q5&#45;&gt;q6</title>
<path fill="none" stroke="black" d="M34.9764,-184.382C33.5803,-171.538 31.6974,-154.216 30.1116,-139.627"/>
<polygon fill="black" stroke="black" points="33.5808,-139.153 29.0206,-129.59 26.6218,-139.91 33.5808,-139.153"/>
<text text-anchor="middle" x="37.5" y="-153.4" font-family="Times Roman,serif" font-size="14.00">b</text>
</g>
<!-- q0 -->
<g id="node8" class="node"><title>q0</title>
<ellipse fill="none" stroke="black" cx="126" cy="-111" rx="27" ry="18.3848"/>
<text text-anchor="middle" x="126" y="-107.4" font-family="Times Roman,serif" font-size="14.00">q0</text>
</g>
<!-- q5&#45;&gt;q0 -->
<g id="edge8" class="edge"><title>q5&#45;&gt;q0</title>
<path fill="none" stroke="black" d="M50.7554,-186.744C60.365,-175.593 73.6381,-160.595 86,-148 90.9863,-142.92 96.4974,-137.629 101.794,-132.691"/>
<polygon fill="black" stroke="black" points="104.324,-135.119 109.314,-125.773 99.5847,-129.967 104.324,-135.119"/>
<text text-anchor="middle" x="90.5" y="-153.4" font-family="Times Roman,serif" font-size="14.00">a</text>
</g>
<!-- q0&#45;&gt;q4 -->
<g id="edge28" class="edge"><title>q0&#45;&gt;q4</title>
<path fill="none" stroke="black" d="M117.902,-93.2615C111.801,-79.8977 103.328,-61.3381 96.3793,-46.1166"/>
<polygon fill="black" stroke="black" points="99.4101,-44.3274 92.0732,-36.6841 93.0422,-47.2345 99.4101,-44.3274"/>
<text text-anchor="middle" x="112.5" y="-61.4" font-family="Times Roman,serif" font-size="14.00">a</text>
</g>
<!-- q0&#45;&gt;q0 -->
<g id="edge26" class="edge"><title>q0&#45;&gt;q0</title>
<path fill="none" stroke="black" d="M150.074,-119.454C161.242,-120.377 171,-117.559 171,-111 171,-106.593 166.595,-103.875 160.317,-102.846"/>
<polygon fill="black" stroke="black" points="160.173,-99.3402 150.074,-102.546 159.967,-106.337 160.173,-99.3402"/>
<text text-anchor="middle" x="175.5" y="-107.4" font-family="Times Roman,serif" font-size="14.00">b</text>
</g>
<!-- q7 -->
<g id="node9" class="node"><title>q7</title>
<ellipse fill="none" stroke="black" cx="125" cy="-387" rx="27" ry="18.3848"/>
<text text-anchor="middle" x="125" y="-383.4" font-family="Times Roman,serif" font-size="14.00">q7</text>
</g>
<!-- q7&#45;&gt;q7 -->
<g id="edge10" class="edge"><title>q7&#45;&gt;q7</title>
<path fill="none" stroke="black" d="M149.074,-395.454C160.242,-396.377 170,-393.559 170,-387 170,-382.593 165.595,-379.875 159.317,-378.846"/>
<polygon fill="black" stroke="black" points="159.173,-375.34 149.074,-378.546 158.967,-382.337 159.173,-375.34"/>
<text text-anchor="middle" x="174.5" y="-383.4" font-family="Times Roman,serif" font-size="14.00">b</text>
</g>
<!-- q3 -->
<g id="node12" class="node"><title>q3</title>
<ellipse fill="none" stroke="black" cx="125" cy="-295" rx="27" ry="18.3848"/>
<text text-anchor="middle" x="125" y="-291.4" font-family="Times Roman,serif" font-size="14.00">q3</text>
</g>
<!-- q7&#45;&gt;q3 -->
<g id="edge12" class="edge"><title>q7&#45;&gt;q3</title>
<path fill="none" stroke="black" d="M125,-368.382C125,-355.538 125,-338.216 125,-323.627"/>
<polygon fill="black" stroke="black" points="128.5,-323.59 125,-313.59 121.5,-323.59 128.5,-323.59"/>
<text text-anchor="middle" x="129.5" y="-337.4" font-family="Times Roman,serif" font-size="14.00">a</text>
</g>
<!-- q3&#45;&gt;q0 -->
<g id="edge22" class="edge"><title>q3&#45;&gt;q0</title>
<path fill="none" stroke="black" d="M122.507,-276.544C119.841,-254.521 116.22,-216.584 118,-184 118.801,-169.334 120.501,-153.085 122.129,-139.647"/>
<polygon fill="black" stroke="black" points="125.623,-139.916 123.401,-129.557 118.678,-139.041 125.623,-139.916"/>
<text text-anchor="middle" x="122.5" y="-199.4" font-family="Times Roman,serif" font-size="14.00">b</text>
</g>
<!-- q1 -->
<g id="node13" class="node"><title>q1</title>
<ellipse fill="none" stroke="black" cx="163" cy="-203" rx="27" ry="18.3848"/>
<text text-anchor="middle" x="163" y="-199.4" font-family="Times Roman,serif" font-size="14.00">q1</text>
</g>
<!-- q3&#45;&gt;q1 -->
<g id="edge24" class="edge"><title>q3&#45;&gt;q1</title>
<path fill="none" stroke="black" d="M132.508,-276.824C138.008,-263.507 145.567,-245.207 151.782,-230.159"/>
<polygon fill="black" stroke="black" points="155.055,-231.404 155.637,-220.825 148.585,-228.732 155.055,-231.404"/>
<text text-anchor="middle" x="151.5" y="-245.4" font-family="Times Roman,serif" font-size="14.00">a</text>
</g>
<!-- q1&#45;&gt;q0 -->
<g id="edge14" class="edge"><title>q1&#45;&gt;q0</title>
<path fill="none" stroke="black" d="M155.69,-184.824C150.369,-171.593 143.07,-153.443 137.04,-138.451"/>
<polygon fill="black" stroke="black" points="140.273,-137.11 133.295,-129.138 133.779,-139.722 140.273,-137.11"/>
<text text-anchor="middle" x="151.5" y="-153.4" font-family="Times Roman,serif" font-size="14.00">b</text>
</g>
<!-- q1&#45;&gt;q1 -->
<g id="edge16" class="edge"><title>q1&#45;&gt;q1</title>
<path fill="none" stroke="black" d="M187.074,-211.454C198.242,-212.377 208,-209.559 208,-203 208,-198.593 203.595,-195.875 197.317,-194.846"/>
<polygon fill="black" stroke="black" points="197.173,-191.34 187.074,-194.546 196.967,-198.337 197.173,-191.34"/>
<text text-anchor="middle" x="212.5" y="-199.4" font-family="Times Roman,serif" font-size="14.00">a</text>
</g>
</g>
</svg>
