<?xml version="1.0" encoding="UTF-8" standalone="no"?>
<!DOCTYPE svg PUBLIC "-//W3C//DTD SVG 1.1//EN"
 "http://www.w3.org/Graphics/SVG/1.1/DTD/svg11.dtd">
<!-- Generated by graphviz version 2.26.3 (20100126.1600)
 -->
<!-- Title: G Pages: 1 -->
<svg width="185pt" height="600pt"
 viewBox="0.00 0.00 185.15 600.00" xmlns="http://www.w3.org/2000/svg" xmlns:xlink="http://www.w3.org/1999/xlink">
<g id="graph1" class="graph" transform="scale(1 1) rotate(0) translate(4 596)">
<title>G</title>
<polygon fill="white" stroke="white" points="-4,5 -4,-596 182.15,-596 182.15,5 -4,5"/>
<!-- q6 -->
<g id="node1" class="node"><title>q6</title>
<ellipse fill="none" stroke="black" cx="54.1497" cy="-574" rx="27" ry="18"/>
<text text-anchor="middle" x="54.1497" y="-569.9" font-family="Times Roman,serif" font-size="14.00">q6</text>
</g>
<!-- q6&#45;&gt;q6 -->
<g id="edge2" class="edge"><title>q6&#45;&gt;q6</title>
<path fill="none" stroke="black" d="M78.6822,-582.121C89.6576,-582.895 99.1497,-580.188 99.1497,-574 99.1497,-569.843 94.8648,-567.257 88.7241,-566.242"/>
<polygon fill="black" stroke="black" points="88.8021,-562.742 78.6822,-565.879 88.5493,-569.738 88.8021,-562.742"/>
<text text-anchor="middle" x="103.65" y="-569.9" font-family="Times Roman,serif" font-size="14.00">b</text>
</g>
<!-- q4 -->
<g id="node4" class="node"><title>q4</title>
<ellipse fill="none" stroke="black" cx="54.1497" cy="-484" rx="27" ry="18"/>
<text text-anchor="middle" x="54.1497" y="-479.9" font-family="Times Roman,serif" font-size="14.00">q4</text>
</g>
<!-- q6&#45;&gt;q4 -->
<g id="edge4" class="edge"><title>q6&#45;&gt;q4</title>
<path fill="none" stroke="black" d="M54.1497,-555.787C54.1497,-543.344 54.1497,-526.605 54.1497,-512.421"/>
<polygon fill="black" stroke="black" points="57.6498,-512.186 54.1497,-502.186 50.6498,-512.186 57.6498,-512.186"/>
<text text-anchor="middle" x="58.6497" y="-524.9" font-family="Times Roman,serif" font-size="14.00">a</text>
</g>
<!-- q3 -->
<g id="node9" class="node"><title>q3</title>
<ellipse fill="none" stroke="black" cx="54.1497" cy="-394" rx="27" ry="18"/>
<text text-anchor="middle" x="54.1497" y="-389.9" font-family="Times Roman,serif" font-size="14.00">q3</text>
</g>
<!-- q4&#45;&gt;q3 -->
<g id="edge20" class="edge"><title>q4&#45;&gt;q3</title>
<path fill="none" stroke="black" d="M54.1497,-465.787C54.1497,-453.344 54.1497,-436.605 54.1497,-422.421"/>
<polygon fill="black" stroke="black" points="57.6498,-422.186 54.1497,-412.186 50.6498,-422.186 57.6498,-422.186"/>
<text text-anchor="middle" x="58.6497" y="-434.9" font-family="Times Roman,serif" font-size="14.00">a</text>
</g>
<!-- q2 -->
<g id="node10" class="node"><title>q2</title>
<ellipse fill="none" stroke="black" cx="48.1497" cy="-304" rx="27" ry="18"/>
<text text-anchor="middle" x="48.1497" y="-299.9" font-family="Times Roman,serif" font-size="14.00">q2</text>
</g>
<!-- q4&#45;&gt;q2 -->
<g id="edge18" class="edge"><title>q4&#45;&gt;q2</title>
<path fill="none" stroke="black" d="M40.5286,-468.122C29.6472,-454.32 15.2453,-433.254 9.14974,-412 0.83055,-382.993 15.986,-350.528 29.7633,-328.837"/>
<polygon fill="black" stroke="black" points="32.8615,-330.501 35.511,-320.242 27.0427,-326.609 32.8615,-330.501"/>
<text text-anchor="middle" x="13.6497" y="-389.9" font-family="Times Roman,serif" font-size="14.00">b</text>
</g>
<!-- q5 -->
<g id="node5" class="node"><title>q5</title>
<ellipse fill="none" stroke="black" cx="48.1497" cy="-214" rx="27" ry="18"/>
<text text-anchor="middle" x="48.1497" y="-209.9" font-family="Times Roman,serif" font-size="14.00">q5</text>
</g>
<!-- q1 -->
<g id="node7" class="node"><title>q1</title>
<ellipse fill="none" stroke="black" cx="109.15" cy="-120" rx="27" ry="18"/>
<ellipse fill="none" stroke="black" cx="109.15" cy="-120" rx="31" ry="22"/>
<text text-anchor="middle" x="109.15" y="-115.9" font-family="Times Roman,serif" font-size="14.00">q1</text>
</g>
<!-- q5&#45;&gt;q1 -->
<g id="edge6" class="edge"><title>q5&#45;&gt;q1</title>
<path fill="none" stroke="black" d="M59.0553,-197.195C67.7875,-183.739 80.2357,-164.556 90.5383,-148.68"/>
<polygon fill="black" stroke="black" points="93.4963,-150.551 96.004,-140.257 87.6243,-146.741 93.4963,-150.551"/>
<text text-anchor="middle" x="86.6497" y="-164.9" font-family="Times Roman,serif" font-size="14.00">b</text>
</g>
<!-- q5&#45;&gt;q3 -->
<g id="edge8" class="edge"><title>q5&#45;&gt;q3</title>
<path fill="none" stroke="black" d="M33.957,-229.777C17.0714,-250.531 -7.56984,-288.321 3.14974,-322 8.99779,-340.374 21.4251,-358.086 32.5477,-371.345"/>
<polygon fill="black" stroke="black" points="30.0165,-373.768 39.234,-378.991 35.286,-369.16 30.0165,-373.768"/>
<text text-anchor="middle" x="7.64974" y="-299.9" font-family="Times Roman,serif" font-size="14.00">a</text>
</g>
<!-- q1&#45;&gt;q3 -->
<g id="edge16" class="edge"><title>q1&#45;&gt;q3</title>
<path fill="none" stroke="black" d="M114.084,-142.005C121.581,-179.978 132.815,-259.728 111.15,-322 104.449,-341.258 90.2166,-359.245 77.6504,-372.424"/>
<polygon fill="black" stroke="black" points="75.0829,-370.042 70.5137,-379.601 80.0467,-374.978 75.0829,-370.042"/>
<text text-anchor="middle" x="127.65" y="-254.9" font-family="Times Roman,serif" font-size="14.00">a</text>
</g>
<!-- q0 -->
<g id="node14" class="node"><title>q0</title>
<ellipse fill="none" stroke="black" cx="141.15" cy="-22" rx="27" ry="18"/>
<ellipse fill="none" stroke="black" cx="141.15" cy="-22" rx="31" ry="22"/>
<text text-anchor="middle" x="141.15" y="-17.9" font-family="Times Roman,serif" font-size="14.00">q0</text>
</g>
<!-- q1&#45;&gt;q0 -->
<g id="edge14" class="edge"><title>q1&#45;&gt;q0</title>
<path fill="none" stroke="black" d="M116.252,-98.2506C120.56,-85.0554 126.131,-67.9944 130.911,-53.3574"/>
<polygon fill="black" stroke="black" points="134.291,-54.2811 134.068,-43.6886 127.637,-52.1082 134.291,-54.2811"/>
<text text-anchor="middle" x="131.65" y="-66.9" font-family="Times Roman,serif" font-size="14.00">b</text>
</g>
<!-- q3&#45;&gt;q2 -->
<g id="edge22" class="edge"><title>q3&#45;&gt;q2</title>
<path fill="none" stroke="black" d="M52.9355,-375.787C52.106,-363.344 50.9901,-346.605 50.0445,-332.421"/>
<polygon fill="black" stroke="black" points="53.5197,-331.931 49.3621,-322.186 46.5352,-332.396 53.5197,-331.931"/>
<text text-anchor="middle" x="55.6497" y="-344.9" font-family="Times Roman,serif" font-size="14.00">b</text>
</g>
<!-- q3&#45;&gt;q2 -->
<g id="edge24" class="edge"><title>q3&#45;&gt;q2</title>
<path fill="none" stroke="black" d="M45.3897,-376.86C42.8526,-371.03 40.4245,-364.374 39.1497,-358 37.427,-349.387 38.1212,-339.954 39.7118,-331.417"/>
<polygon fill="black" stroke="black" points="43.1475,-332.094 41.9942,-321.562 36.328,-330.515 43.1475,-332.094"/>
<text text-anchor="middle" x="43.6497" y="-344.9" font-family="Times Roman,serif" font-size="14.00">a</text>
</g>
<!-- q2&#45;&gt;q5 -->
<g id="edge12" class="edge"><title>q2&#45;&gt;q5</title>
<path fill="none" stroke="black" d="M48.1497,-285.787C48.1497,-273.344 48.1497,-256.605 48.1497,-242.421"/>
<polygon fill="black" stroke="black" points="51.6498,-242.186 48.1497,-232.186 44.6498,-242.186 51.6498,-242.186"/>
<text text-anchor="middle" x="52.6497" y="-254.9" font-family="Times Roman,serif" font-size="14.00">a</text>
</g>
<!-- q2&#45;&gt;q2 -->
<g id="edge10" class="edge"><title>q2&#45;&gt;q2</title>
<path fill="none" stroke="black" d="M72.6822,-312.121C83.6576,-312.895 93.1497,-310.188 93.1497,-304 93.1497,-299.843 88.8648,-297.257 82.7241,-296.242"/>
<polygon fill="black" stroke="black" points="82.8021,-292.742 72.6822,-295.879 82.5493,-299.738 82.8021,-292.742"/>
<text text-anchor="middle" x="97.6497" y="-299.9" font-family="Times Roman,serif" font-size="14.00">b</text>
</g>
<!-- q0&#45;&gt;q4 -->
<g id="edge28" class="edge"><title>q0&#45;&gt;q4</title>
<path fill="none" stroke="black" d="M150.593,-43.3321C158.379,-62.8788 168.15,-92.8224 168.15,-120 168.15,-394 168.15,-394 168.15,-394 168.15,-435.082 121.979,-460.325 88.4042,-473.251"/>
<polygon fill="black" stroke="black" points="87.0816,-470.007 78.886,-476.722 89.48,-476.584 87.0816,-470.007"/>
<text text-anchor="middle" x="172.65" y="-254.9" font-family="Times Roman,serif" font-size="14.00">a</text>
</g>
<!-- q0&#45;&gt;q1 -->
<g id="edge26" class="edge"><title>q0&#45;&gt;q1</title>
<path fill="none" stroke="black" d="M123.238,-40.0198C118.008,-46.4295 112.949,-54.0436 110.15,-62 107.298,-70.1049 106.237,-79.2491 106.088,-87.8399"/>
<polygon fill="black" stroke="black" points="102.591,-88.0132 106.301,-97.9371 109.589,-87.8656 102.591,-88.0132"/>
<text text-anchor="middle" x="114.65" y="-66.9" font-family="Times Roman,serif" font-size="14.00">b</text>
</g>
</g>
</svg>
