<?xml version="1.0" encoding="UTF-8" standalone="no"?>
<!DOCTYPE svg PUBLIC "-//W3C//DTD SVG 1.1//EN"
 "http://www.w3.org/Graphics/SVG/1.1/DTD/svg11.dtd">
<!-- Generated by graphviz version 2.26.3 (20100126.1600)
 -->
<!-- Title: G Pages: 1 -->
<svg width="257pt" height="412pt"
 viewBox="0.00 0.00 257.00 412.00" xmlns="http://www.w3.org/2000/svg" xmlns:xlink="http://www.w3.org/1999/xlink">
<g id="graph1" class="graph" transform="scale(1 1) rotate(0) translate(4 408)">
<title>G</title>
<polygon fill="white" stroke="white" points="-4,5 -4,-408 254,-408 254,5 -4,5"/>
<!-- q6 -->
<g id="node1" class="node"><title>q6</title>
<ellipse fill="none" stroke="black" cx="143" cy="-386" rx="27" ry="18"/>
<text text-anchor="middle" x="143" y="-381.9" font-family="Times Roman,serif" font-size="14.00">q6</text>
</g>
<!-- q2 -->
<g id="node3" class="node"><title>q2</title>
<ellipse fill="none" stroke="black" cx="37" cy="-296" rx="27" ry="18"/>
<text text-anchor="middle" x="37" y="-291.9" font-family="Times Roman,serif" font-size="14.00">q2</text>
</g>
<!-- q6&#45;&gt;q2 -->
<g id="edge2" class="edge"><title>q6&#45;&gt;q2</title>
<path fill="none" stroke="black" d="M125.969,-371.54C108.584,-356.779 81.4215,-333.716 61.6805,-316.955"/>
<polygon fill="black" stroke="black" points="63.8768,-314.228 53.9885,-310.424 59.3461,-319.565 63.8768,-314.228"/>
<text text-anchor="middle" x="104.5" y="-336.9" font-family="Times Roman,serif" font-size="14.00">b</text>
</g>
<!-- q0 -->
<g id="node5" class="node"><title>q0</title>
<ellipse fill="none" stroke="black" cx="195" cy="-18" rx="27" ry="18"/>
<text text-anchor="middle" x="195" y="-13.9" font-family="Times Roman,serif" font-size="14.00">q0</text>
</g>
<!-- q6&#45;&gt;q0 -->
<g id="edge4" class="edge"><title>q6&#45;&gt;q0</title>
<path fill="none" stroke="black" d="M163.756,-374.32C187.163,-359.435 222,-331.344 222,-296 222,-296 222,-296 222,-112 222,-88.54 214.135,-63.0218 206.895,-44.5008"/>
<polygon fill="black" stroke="black" points="210.132,-43.1708 203.101,-35.2455 203.655,-45.8258 210.132,-43.1708"/>
<text text-anchor="middle" x="226.5" y="-201.9" font-family="Times Roman,serif" font-size="14.00">a</text>
</g>
<!-- q5 -->
<g id="node6" class="node"><title>q5</title>
<ellipse fill="none" stroke="black" cx="143" cy="-206" rx="27" ry="18"/>
<text text-anchor="middle" x="143" y="-201.9" font-family="Times Roman,serif" font-size="14.00">q5</text>
</g>
<!-- q2&#45;&gt;q5 -->
<g id="edge16" class="edge"><title>q2&#45;&gt;q5</title>
<path fill="none" stroke="black" d="M54.0307,-281.54C71.4162,-266.779 98.5785,-243.716 118.32,-226.955"/>
<polygon fill="black" stroke="black" points="120.654,-229.565 126.012,-220.424 116.123,-224.228 120.654,-229.565"/>
<text text-anchor="middle" x="104.5" y="-246.9" font-family="Times Roman,serif" font-size="14.00">a</text>
</g>
<!-- q4 -->
<g id="node12" class="node"><title>q4</title>
<ellipse fill="none" stroke="black" cx="27" cy="-18" rx="27" ry="18"/>
<text text-anchor="middle" x="27" y="-13.9" font-family="Times Roman,serif" font-size="14.00">q4</text>
</g>
<!-- q2&#45;&gt;q4 -->
<g id="edge14" class="edge"><title>q2&#45;&gt;q4</title>
<path fill="none" stroke="black" d="M35.0369,-277.565C31.948,-247.532 26.0893,-186.157 24,-134 23.2173,-114.46 23.5929,-109.551 24,-90 24.3021,-75.4915 24.9464,-59.3493 25.5606,-46.0322"/>
<polygon fill="black" stroke="black" points="29.0566,-46.1994 26.0398,-36.0431 22.0646,-45.8639 29.0566,-46.1994"/>
<text text-anchor="middle" x="30.5" y="-156.9" font-family="Times Roman,serif" font-size="14.00">b</text>
</g>
<!-- q0&#45;&gt;q0 -->
<g id="edge28" class="edge"><title>q0&#45;&gt;q0</title>
<path fill="none" stroke="black" d="M219.532,-26.1211C230.508,-26.8945 240,-24.1875 240,-18 240,-13.8428 235.715,-11.2567 229.574,-10.2417"/>
<polygon fill="black" stroke="black" points="229.652,-6.74237 219.532,-9.87891 229.4,-13.7378 229.652,-6.74237"/>
<text text-anchor="middle" x="244.5" y="-13.9" font-family="Times Roman,serif" font-size="14.00">a</text>
</g>
<!-- q3 -->
<g id="node8" class="node"><title>q3</title>
<ellipse fill="none" stroke="black" cx="163" cy="-112" rx="27" ry="18"/>
<ellipse fill="none" stroke="black" cx="163" cy="-112" rx="31" ry="22"/>
<text text-anchor="middle" x="163" y="-107.9" font-family="Times Roman,serif" font-size="14.00">q3</text>
</g>
<!-- q0&#45;&gt;q3 -->
<g id="edge26" class="edge"><title>q0&#45;&gt;q3</title>
<path fill="none" stroke="black" d="M189.009,-35.598C184.734,-48.1567 178.865,-65.3962 173.784,-80.3213"/>
<polygon fill="black" stroke="black" points="170.331,-79.6038 170.422,-90.1982 176.958,-81.8597 170.331,-79.6038"/>
<text text-anchor="middle" x="185.5" y="-58.9" font-family="Times Roman,serif" font-size="14.00">b</text>
</g>
<!-- q5&#45;&gt;q6 -->
<g id="edge8" class="edge"><title>q5&#45;&gt;q6</title>
<path fill="none" stroke="black" d="M143,-224.031C143,-255.357 143,-320.061 143,-357.514"/>
<polygon fill="black" stroke="black" points="139.5,-357.75 143,-367.75 146.5,-357.75 139.5,-357.75"/>
<text text-anchor="middle" x="147.5" y="-291.9" font-family="Times Roman,serif" font-size="14.00">a</text>
</g>
<!-- q5&#45;&gt;q3 -->
<g id="edge6" class="edge"><title>q5&#45;&gt;q3</title>
<path fill="none" stroke="black" d="M146.856,-187.876C149.487,-175.512 153.044,-158.795 156.149,-144.199"/>
<polygon fill="black" stroke="black" points="159.653,-144.548 158.311,-134.039 152.806,-143.091 159.653,-144.548"/>
<text text-anchor="middle" x="158.5" y="-156.9" font-family="Times Roman,serif" font-size="14.00">b</text>
</g>
<!-- q3&#45;&gt;q0 -->
<g id="edge24" class="edge"><title>q3&#45;&gt;q0</title>
<path fill="none" stroke="black" d="M159.903,-89.8463C159.208,-78.7429 159.697,-65.293 164,-54 165.861,-49.1155 168.701,-44.4431 171.92,-40.1772"/>
<polygon fill="black" stroke="black" points="174.614,-42.4125 178.422,-32.5258 169.28,-37.8797 174.614,-42.4125"/>
<text text-anchor="middle" x="168.5" y="-58.9" font-family="Times Roman,serif" font-size="14.00">a</text>
</g>
<!-- q3&#45;&gt;q4 -->
<g id="edge22" class="edge"><title>q3&#45;&gt;q4</title>
<path fill="none" stroke="black" d="M140.542,-96.4778C116.922,-80.1517 79.7323,-54.4473 54.401,-36.939"/>
<polygon fill="black" stroke="black" points="56.1936,-33.9233 45.9773,-31.1167 52.2135,-39.6817 56.1936,-33.9233"/>
<text text-anchor="middle" x="108.5" y="-58.9" font-family="Times Roman,serif" font-size="14.00">b</text>
</g>
<!-- q7 -->
<g id="node10" class="node"><title>q7</title>
<ellipse fill="none" stroke="black" cx="60" cy="-112" rx="27" ry="18"/>
<text text-anchor="middle" x="60" y="-107.9" font-family="Times Roman,serif" font-size="14.00">q7</text>
</g>
<!-- q7&#45;&gt;q7 -->
<g id="edge12" class="edge"><title>q7&#45;&gt;q7</title>
<path fill="none" stroke="black" d="M83.6146,-120.78C94.9731,-121.864 105,-118.938 105,-112 105,-107.339 100.474,-104.488 94.0584,-103.448"/>
<polygon fill="black" stroke="black" points="93.6888,-99.9393 83.6146,-103.22 93.5356,-106.938 93.6888,-99.9393"/>
<text text-anchor="middle" x="109.5" y="-107.9" font-family="Times Roman,serif" font-size="14.00">a</text>
</g>
<!-- q7&#45;&gt;q4 -->
<g id="edge10" class="edge"><title>q7&#45;&gt;q4</title>
<path fill="none" stroke="black" d="M53.793,-94.3193C48.9532,-80.5334 42.1463,-61.1441 36.6047,-45.3589"/>
<polygon fill="black" stroke="black" points="39.7941,-43.8775 33.1792,-35.6014 33.1893,-46.1962 39.7941,-43.8775"/>
<text text-anchor="middle" x="50.5" y="-58.9" font-family="Times Roman,serif" font-size="14.00">b</text>
</g>
<!-- q4&#45;&gt;q2 -->
<g id="edge18" class="edge"><title>q4&#45;&gt;q2</title>
<path fill="none" stroke="black" d="M23.7488,-35.9068C22.7739,-41.6701 21.7624,-48.093 21,-54 16.4225,-89.4645 8.83409,-134.104 12,-170 15.5694,-210.47 19.5126,-220.269 28,-260 28.5733,-262.683 29.2049,-265.471 29.8596,-268.253"/>
<polygon fill="black" stroke="black" points="26.495,-269.228 32.269,-278.111 33.2949,-267.566 26.495,-269.228"/>
<text text-anchor="middle" x="16.5" y="-156.9" font-family="Times Roman,serif" font-size="14.00">b</text>
</g>
<!-- q4&#45;&gt;q4 -->
<g id="edge20" class="edge"><title>q4&#45;&gt;q4</title>
<path fill="none" stroke="black" d="M51.5325,-26.1211C62.5078,-26.8945 72,-24.1875 72,-18 72,-13.8428 67.7151,-11.2567 61.5743,-10.2417"/>
<polygon fill="black" stroke="black" points="61.6524,-6.74237 51.5325,-9.87891 61.3995,-13.7378 61.6524,-6.74237"/>
<text text-anchor="middle" x="76.5" y="-13.9" font-family="Times Roman,serif" font-size="14.00">a</text>
</g>
</g>
</svg>
