<?xml version="1.0" encoding="UTF-8" standalone="no"?>
<!DOCTYPE svg PUBLIC "-//W3C//DTD SVG 1.1//EN"
 "http://www.w3.org/Graphics/SVG/1.1/DTD/svg11.dtd">
<!-- Generated by graphviz version 2.26.3 (20100126.1600)
 -->
<!-- Title: G Pages: 1 -->
<svg width="210pt" height="598pt"
 viewBox="0.00 0.00 210.00 598.00" xmlns="http://www.w3.org/2000/svg" xmlns:xlink="http://www.w3.org/1999/xlink">
<g id="graph1" class="graph" transform="scale(1 1) rotate(0) translate(4 594)">
<title>G</title>
<polygon fill="white" stroke="white" points="-4,5 -4,-594 207,-594 207,5 -4,5"/>
<!-- q6 -->
<g id="node1" class="node"><title>q6</title>
<ellipse fill="none" stroke="black" cx="109" cy="-479" rx="27" ry="18.3848"/>
<text text-anchor="middle" x="109" y="-475.4" font-family="Times Roman,serif" font-size="14.00">q6</text>
</g>
<!-- q6&#45;&gt;q6 -->
<g id="edge2" class="edge"><title>q6&#45;&gt;q6</title>
<path fill="none" stroke="black" d="M133.074,-487.454C144.242,-488.377 154,-485.559 154,-479 154,-474.593 149.595,-471.875 143.317,-470.846"/>
<polygon fill="black" stroke="black" points="143.173,-467.34 133.074,-470.546 142.967,-474.337 143.173,-467.34"/>
<text text-anchor="middle" x="158.5" y="-475.4" font-family="Times Roman,serif" font-size="14.00">b</text>
</g>
<!-- q4 -->
<g id="node4" class="node"><title>q4</title>
<ellipse fill="none" stroke="black" cx="27" cy="-387" rx="27" ry="18.3848"/>
<text text-anchor="middle" x="27" y="-383.4" font-family="Times Roman,serif" font-size="14.00">q4</text>
</g>
<!-- q6&#45;&gt;q4 -->
<g id="edge4" class="edge"><title>q6&#45;&gt;q4</title>
<path fill="none" stroke="black" d="M94.7167,-462.975C81.7826,-448.463 62.5656,-426.903 47.9038,-410.453"/>
<polygon fill="black" stroke="black" points="50.3862,-407.978 41.1196,-402.842 45.1606,-412.636 50.3862,-407.978"/>
<text text-anchor="middle" x="79.5" y="-429.4" font-family="Times Roman,serif" font-size="14.00">a</text>
</g>
<!-- q4&#45;&gt;q4 -->
<g id="edge24" class="edge"><title>q4&#45;&gt;q4</title>
<path fill="none" stroke="black" d="M51.0743,-395.454C62.2423,-396.377 72,-393.559 72,-387 72,-382.593 67.5952,-379.875 61.3174,-378.846"/>
<polygon fill="black" stroke="black" points="61.1726,-375.34 51.0743,-378.546 60.9674,-382.337 61.1726,-375.34"/>
<text text-anchor="middle" x="76.5" y="-383.4" font-family="Times Roman,serif" font-size="14.00">a</text>
</g>
<!-- q0 -->
<g id="node12" class="node"><title>q0</title>
<ellipse fill="none" stroke="black" cx="39" cy="-295" rx="27" ry="18.3848"/>
<text text-anchor="middle" x="39" y="-291.4" font-family="Times Roman,serif" font-size="14.00">q0</text>
</g>
<!-- q4&#45;&gt;q0 -->
<g id="edge22" class="edge"><title>q4&#45;&gt;q0</title>
<path fill="none" stroke="black" d="M29.4284,-368.382C31.1037,-355.538 33.3631,-338.216 35.2661,-323.627"/>
<polygon fill="black" stroke="black" points="38.7524,-323.959 36.5752,-313.59 31.8112,-323.053 38.7524,-323.959"/>
<text text-anchor="middle" x="39.5" y="-337.4" font-family="Times Roman,serif" font-size="14.00">b</text>
</g>
<!-- q5 -->
<g id="node5" class="node"><title>q5</title>
<ellipse fill="none" stroke="black" cx="56" cy="-571" rx="27" ry="18.3848"/>
<text text-anchor="middle" x="56" y="-567.4" font-family="Times Roman,serif" font-size="14.00">q5</text>
</g>
<!-- q5&#45;&gt;q6 -->
<g id="edge6" class="edge"><title>q5&#45;&gt;q6</title>
<path fill="none" stroke="black" d="M65.9689,-553.696C73.8899,-539.946 85.0917,-520.501 94.0806,-504.898"/>
<polygon fill="black" stroke="black" points="97.1167,-506.639 99.0758,-496.227 91.0512,-503.145 97.1167,-506.639"/>
<text text-anchor="middle" x="91.5" y="-521.4" font-family="Times Roman,serif" font-size="14.00">b</text>
</g>
<!-- q5&#45;&gt;q4 -->
<g id="edge8" class="edge"><title>q5&#45;&gt;q4</title>
<path fill="none" stroke="black" d="M53.0597,-552.345C47.966,-520.025 37.4713,-453.438 31.4702,-415.362"/>
<polygon fill="black" stroke="black" points="34.9192,-414.764 29.9049,-405.431 28.0046,-415.854 34.9192,-414.764"/>
<text text-anchor="middle" x="49.5" y="-475.4" font-family="Times Roman,serif" font-size="14.00">a</text>
</g>
<!-- q7 -->
<g id="node8" class="node"><title>q7</title>
<ellipse fill="none" stroke="black" cx="76" cy="-19" rx="27" ry="18.3848"/>
<text text-anchor="middle" x="76" y="-15.4" font-family="Times Roman,serif" font-size="14.00">q7</text>
</g>
<!-- q2 -->
<g id="node10" class="node"><title>q2</title>
<ellipse fill="none" stroke="black" cx="63" cy="-203" rx="27" ry="18.3848"/>
<text text-anchor="middle" x="63" y="-199.4" font-family="Times Roman,serif" font-size="14.00">q2</text>
</g>
<!-- q7&#45;&gt;q2 -->
<g id="edge10" class="edge"><title>q7&#45;&gt;q2</title>
<path fill="none" stroke="black" d="M73.6322,-37.5718C71.8339,-52.3072 69.4334,-73.441 68,-92 65.8553,-119.768 64.5394,-151.52 63.7996,-173.93"/>
<polygon fill="black" stroke="black" points="60.2952,-174.019 63.4816,-184.123 67.2918,-174.237 60.2952,-174.019"/>
<text text-anchor="middle" x="72.5" y="-107.4" font-family="Times Roman,serif" font-size="14.00">b</text>
</g>
<!-- q7&#45;&gt;q0 -->
<g id="edge12" class="edge"><title>q7&#45;&gt;q0</title>
<path fill="none" stroke="black" d="M70.5153,-37.4433C68.7536,-43.3689 66.794,-49.9615 65,-56 43.4458,-128.552 20.8412,-146.565 27,-222 28.204,-236.747 30.7545,-253.005 33.1958,-266.427"/>
<polygon fill="black" stroke="black" points="29.8037,-267.326 35.1025,-276.501 36.6816,-266.024 29.8037,-267.326"/>
<text text-anchor="middle" x="37.5" y="-153.4" font-family="Times Roman,serif" font-size="14.00">a</text>
</g>
<!-- q2&#45;&gt;q7 -->
<g id="edge14" class="edge"><title>q2&#45;&gt;q7</title>
<path fill="none" stroke="black" d="M71.5131,-185.308C74.0337,-179.311 76.5145,-172.486 78,-166 88.9304,-118.274 89.2031,-104.684 84,-56 83.6923,-53.1206 83.2535,-50.1363 82.7378,-47.1684"/>
<polygon fill="black" stroke="black" points="86.161,-46.4374 80.7676,-37.3181 79.297,-47.8104 86.161,-46.4374"/>
<text text-anchor="middle" x="91.5" y="-107.4" font-family="Times Roman,serif" font-size="14.00">b</text>
</g>
<!-- q3 -->
<g id="node15" class="node"><title>q3</title>
<ellipse fill="none" stroke="black" cx="153" cy="-111" rx="27" ry="18.3848"/>
<text text-anchor="middle" x="153" y="-107.4" font-family="Times Roman,serif" font-size="14.00">q3</text>
</g>
<!-- q2&#45;&gt;q3 -->
<g id="edge16" class="edge"><title>q2&#45;&gt;q3</title>
<path fill="none" stroke="black" d="M83.1013,-190.224C92.7028,-183.616 104.027,-175.048 113,-166 121.657,-157.271 129.889,-146.544 136.61,-136.888"/>
<polygon fill="black" stroke="black" points="139.638,-138.658 142.326,-128.41 133.834,-134.745 139.638,-138.658"/>
<text text-anchor="middle" x="131.5" y="-153.4" font-family="Times Roman,serif" font-size="14.00">a</text>
</g>
<!-- q0&#45;&gt;q2 -->
<g id="edge30" class="edge"><title>q0&#45;&gt;q2</title>
<path fill="none" stroke="black" d="M40.9895,-276.443C42.4027,-265.674 44.6527,-251.924 48,-240 48.8992,-236.797 49.9886,-233.494 51.1652,-230.242"/>
<polygon fill="black" stroke="black" points="54.4804,-231.374 54.8537,-220.785 47.9589,-228.83 54.4804,-231.374"/>
<text text-anchor="middle" x="52.5" y="-245.4" font-family="Times Roman,serif" font-size="14.00">b</text>
</g>
<!-- q1 -->
<g id="node16" class="node"><title>q1</title>
<ellipse fill="none" stroke="black" cx="135" cy="-203" rx="27" ry="18.3848"/>
<text text-anchor="middle" x="135" y="-199.4" font-family="Times Roman,serif" font-size="14.00">q1</text>
</g>
<!-- q0&#45;&gt;q1 -->
<g id="edge32" class="edge"><title>q0&#45;&gt;q1</title>
<path fill="none" stroke="black" d="M51.7075,-278.289C60.7077,-266.935 73.3794,-251.881 86,-240 92.5829,-233.803 100.182,-227.651 107.402,-222.194"/>
<polygon fill="black" stroke="black" points="109.639,-224.893 115.619,-216.147 105.49,-219.256 109.639,-224.893"/>
<text text-anchor="middle" x="90.5" y="-245.4" font-family="Times Roman,serif" font-size="14.00">a</text>
</g>
<!-- q3&#45;&gt;q6 -->
<g id="edge26" class="edge"><title>q3&#45;&gt;q6</title>
<path fill="none" stroke="black" d="M165.219,-127.691C176.982,-145.438 193,-174.785 193,-203 193,-387 193,-387 193,-387 193,-419.939 163.271,-446.247 139.185,-462.156"/>
<polygon fill="black" stroke="black" points="137.231,-459.251 130.632,-467.54 140.96,-465.175 137.231,-459.251"/>
<text text-anchor="middle" x="197.5" y="-291.4" font-family="Times Roman,serif" font-size="14.00">b</text>
</g>
<!-- q3&#45;&gt;q7 -->
<g id="edge28" class="edge"><title>q3&#45;&gt;q7</title>
<path fill="none" stroke="black" d="M141.749,-94.1217C134.068,-82.9671 123.431,-68.2076 113,-56 108.74,-51.0144 103.94,-45.8986 99.2442,-41.1222"/>
<polygon fill="black" stroke="black" points="101.602,-38.531 92.0423,-33.9637 96.6673,-43.4957 101.602,-38.531"/>
<text text-anchor="middle" x="130.5" y="-61.4" font-family="Times Roman,serif" font-size="14.00">a</text>
</g>
<!-- q1&#45;&gt;q6 -->
<g id="edge18" class="edge"><title>q1&#45;&gt;q6</title>
<path fill="none" stroke="black" d="M131.648,-221.729C127.304,-246.767 119.833,-292.57 116,-332 112.015,-372.994 110.273,-420.649 109.529,-450.321"/>
<polygon fill="black" stroke="black" points="106.029,-450.316 109.298,-460.393 113.027,-450.476 106.029,-450.316"/>
<text text-anchor="middle" x="120.5" y="-337.4" font-family="Times Roman,serif" font-size="14.00">b</text>
</g>
<!-- q1&#45;&gt;q6 -->
<g id="edge20" class="edge"><title>q1&#45;&gt;q6</title>
<path fill="none" stroke="black" d="M136.401,-221.599C138.974,-262.223 142.61,-361.677 124,-442 123.249,-445.241 122.252,-448.568 121.128,-451.834"/>
<polygon fill="black" stroke="black" points="117.809,-450.713 117.494,-461.304 124.345,-453.222 117.809,-450.713"/>
<text text-anchor="middle" x="141.5" y="-337.4" font-family="Times Roman,serif" font-size="14.00">a</text>
</g>
</g>
</svg>
