<?xml version="1.0" encoding="UTF-8" standalone="no"?>
<!DOCTYPE svg PUBLIC "-//W3C//DTD SVG 1.1//EN"
 "http://www.w3.org/Graphics/SVG/1.1/DTD/svg11.dtd">
<!-- Generated by graphviz version 2.26.3 (20100126.1600)
 -->
<!-- Title: G Pages: 1 -->
<svg width="160pt" height="330pt"
 viewBox="0.00 0.00 160.00 330.00" xmlns="http://www.w3.org/2000/svg" xmlns:xlink="http://www.w3.org/1999/xlink">
<g id="graph1" class="graph" transform="scale(1 1) rotate(0) translate(4 326)">
<title>G</title>
<polygon fill="white" stroke="white" points="-4,5 -4,-326 157,-326 157,5 -4,5"/>
<!-- q1 -->
<g id="node1" class="node"><title>q1</title>
<ellipse fill="none" stroke="black" cx="94" cy="-300" rx="27" ry="18"/>
<ellipse fill="none" stroke="black" cx="94" cy="-300" rx="31" ry="22"/>
<text text-anchor="middle" x="94" y="-295.9" font-family="Times Roman,serif" font-size="14.00">q1</text>
</g>
<!-- q1&#45;&gt;q1 -->
<g id="edge2" class="edge"><title>q1&#45;&gt;q1</title>
<path fill="none" stroke="black" d="M122.689,-308.965C133.781,-309.363 143,-306.375 143,-300 143,-295.717 138.838,-292.962 132.743,-291.737"/>
<polygon fill="black" stroke="black" points="132.908,-288.24 122.689,-291.035 132.421,-295.223 132.908,-288.24"/>
<text text-anchor="middle" x="147.5" y="-295.9" font-family="Times Roman,serif" font-size="14.00">b</text>
</g>
<!-- q4 -->
<g id="node4" class="node"><title>q4</title>
<ellipse fill="none" stroke="black" cx="94" cy="-202" rx="27" ry="18"/>
<ellipse fill="none" stroke="black" cx="94" cy="-202" rx="31" ry="22"/>
<text text-anchor="middle" x="94" y="-197.9" font-family="Times Roman,serif" font-size="14.00">q4</text>
</g>
<!-- q1&#45;&gt;q4 -->
<g id="edge4" class="edge"><title>q1&#45;&gt;q4</title>
<path fill="none" stroke="black" d="M84.4466,-278.812C82.2043,-272.849 80.1381,-266.276 79,-260 77.3861,-251.1 78.5999,-241.553 80.9064,-232.826"/>
<polygon fill="black" stroke="black" points="84.3213,-233.636 84.0121,-223.046 77.6496,-231.517 84.3213,-233.636"/>
<text text-anchor="middle" x="83.5" y="-246.9" font-family="Times Roman,serif" font-size="14.00">a</text>
</g>
<!-- q4&#45;&gt;q1 -->
<g id="edge6" class="edge"><title>q4&#45;&gt;q1</title>
<path fill="none" stroke="black" d="M94,-224.15C94,-236.914 94,-253.195 94,-267.399"/>
<polygon fill="black" stroke="black" points="90.5001,-267.762 94,-277.762 97.5001,-267.762 90.5001,-267.762"/>
<text text-anchor="middle" x="98.5" y="-246.9" font-family="Times Roman,serif" font-size="14.00">b</text>
</g>
<!-- q0 -->
<g id="node7" class="node"><title>q0</title>
<ellipse fill="none" stroke="darkred" cx="27" cy="-108" rx="27" ry="18"/>
<text text-anchor="middle" x="27" y="-103.9" font-family="Times Roman,serif" font-size="14.00">q0</text>
</g>
<!-- q4&#45;&gt;q0 -->
<g id="edge8" class="edge"><title>q4&#45;&gt;q0</title>
<path fill="none" stroke="black" d="M79.791,-182.065C69.5799,-167.739 55.7413,-148.324 44.7946,-132.966"/>
<polygon fill="black" stroke="black" points="47.3871,-130.573 38.7328,-124.461 41.6869,-134.636 47.3871,-130.573"/>
<text text-anchor="middle" x="69.5" y="-148.9" font-family="Times Roman,serif" font-size="14.00">a</text>
</g>
<!-- q0&#45;&gt;q0 -->
<g id="edge16" class="edge"><title>q0&#45;&gt;q0</title>
<path fill="none" stroke="black" d="M51.5325,-116.121C62.5078,-116.895 72,-114.188 72,-108 72,-103.843 67.7151,-101.257 61.5743,-100.242"/>
<polygon fill="black" stroke="black" points="61.6524,-96.7424 51.5325,-99.8789 61.3995,-103.738 61.6524,-96.7424"/>
<text text-anchor="middle" x="76.5" y="-103.9" font-family="Times Roman,serif" font-size="14.00">a</text>
</g>
<!-- q3 -->
<g id="node8" class="node"><title>q3</title>
<ellipse fill="none" stroke="black" cx="59" cy="-18" rx="27" ry="18"/>
<text text-anchor="middle" x="59" y="-13.9" font-family="Times Roman,serif" font-size="14.00">q3</text>
</g>
<!-- q0&#45;&gt;q3 -->
<g id="edge14" class="edge"><title>q0&#45;&gt;q3</title>
<path fill="none" stroke="black" d="M24.3285,-89.9088C23.4623,-79.1351 23.6522,-65.3878 28,-54 29.8644,-49.1167 32.7056,-44.4449 35.9256,-40.1793"/>
<polygon fill="black" stroke="black" points="38.6191,-42.4145 42.4275,-32.5278 33.2849,-37.8817 38.6191,-42.4145"/>
<text text-anchor="middle" x="32.5" y="-58.9" font-family="Times Roman,serif" font-size="14.00">b</text>
</g>
<!-- q3&#45;&gt;q4 -->
<g id="edge12" class="edge"><title>q3&#45;&gt;q4</title>
<path fill="none" stroke="black" d="M68.5379,-35.1386C75.9114,-49.3547 85.5822,-70.3486 90,-90 95.9314,-116.384 96.6013,-147.133 95.9745,-169.73"/>
<polygon fill="black" stroke="black" points="92.474,-169.678 95.5948,-179.803 99.4691,-169.942 92.474,-169.678"/>
<text text-anchor="middle" x="99.5" y="-103.9" font-family="Times Roman,serif" font-size="14.00">a</text>
</g>
<!-- q3&#45;&gt;q0 -->
<g id="edge10" class="edge"><title>q3&#45;&gt;q0</title>
<path fill="none" stroke="black" d="M52.691,-35.7442C48.136,-48.5549 41.8999,-66.0939 36.7124,-80.6838"/>
<polygon fill="black" stroke="black" points="33.3746,-79.6242 33.3222,-90.2189 39.9701,-81.9693 33.3746,-79.6242"/>
<text text-anchor="middle" x="50.5" y="-58.9" font-family="Times Roman,serif" font-size="14.00">b</text>
</g>
</g>
</svg>
