<?xml version="1.0" encoding="UTF-8" standalone="no"?>
<!DOCTYPE svg PUBLIC "-//W3C//DTD SVG 1.1//EN"
 "http://www.w3.org/Graphics/SVG/1.1/DTD/svg11.dtd">
<!-- Generated by graphviz version 2.26.3 (20100126.1600)
 -->
<!-- Title: G Pages: 1 -->
<svg width="226pt" height="510pt"
 viewBox="0.00 0.00 226.00 510.00" xmlns="http://www.w3.org/2000/svg" xmlns:xlink="http://www.w3.org/1999/xlink">
<g id="graph1" class="graph" transform="scale(1 1) rotate(0) translate(4 506)">
<title>G</title>
<polygon fill="white" stroke="white" points="-4,5 -4,-506 223,-506 223,5 -4,5"/>
<!-- q6 -->
<g id="node1" class="node"><title>q6</title>
<ellipse fill="none" stroke="black" cx="164" cy="-484" rx="27" ry="18"/>
<text text-anchor="middle" x="164" y="-479.9" font-family="Times Roman,serif" font-size="14.00">q6</text>
</g>
<!-- q6&#45;&gt;q6 -->
<g id="edge2" class="edge"><title>q6&#45;&gt;q6</title>
<path fill="none" stroke="black" d="M188.532,-492.121C199.508,-492.895 209,-490.188 209,-484 209,-479.843 204.715,-477.257 198.574,-476.242"/>
<polygon fill="black" stroke="black" points="198.652,-472.742 188.532,-475.879 198.4,-479.738 198.652,-472.742"/>
<text text-anchor="middle" x="213.5" y="-479.9" font-family="Times Roman,serif" font-size="14.00">b</text>
</g>
<!-- q4 -->
<g id="node4" class="node"><title>q4</title>
<ellipse fill="none" stroke="black" cx="105" cy="-394" rx="27" ry="18"/>
<text text-anchor="middle" x="105" y="-389.9" font-family="Times Roman,serif" font-size="14.00">q4</text>
</g>
<!-- q6&#45;&gt;q4 -->
<g id="edge4" class="edge"><title>q6&#45;&gt;q4</title>
<path fill="none" stroke="black" d="M153.178,-467.493C144.335,-454.003 131.687,-434.71 121.57,-419.276"/>
<polygon fill="black" stroke="black" points="124.362,-417.152 115.953,-410.708 118.508,-420.99 124.362,-417.152"/>
<text text-anchor="middle" x="143.5" y="-434.9" font-family="Times Roman,serif" font-size="14.00">a</text>
</g>
<!-- q3 -->
<g id="node9" class="node"><title>q3</title>
<ellipse fill="none" stroke="black" cx="105" cy="-304" rx="27" ry="18"/>
<text text-anchor="middle" x="105" y="-299.9" font-family="Times Roman,serif" font-size="14.00">q3</text>
</g>
<!-- q4&#45;&gt;q3 -->
<g id="edge20" class="edge"><title>q4&#45;&gt;q3</title>
<path fill="none" stroke="black" d="M105,-375.787C105,-363.344 105,-346.605 105,-332.421"/>
<polygon fill="black" stroke="black" points="108.5,-332.186 105,-322.186 101.5,-332.186 108.5,-332.186"/>
<text text-anchor="middle" x="109.5" y="-344.9" font-family="Times Roman,serif" font-size="14.00">a</text>
</g>
<!-- q2 -->
<g id="node10" class="node"><title>q2</title>
<ellipse fill="none" stroke="black" cx="27" cy="-214" rx="27" ry="18"/>
<text text-anchor="middle" x="27" y="-209.9" font-family="Times Roman,serif" font-size="14.00">q2</text>
</g>
<!-- q4&#45;&gt;q2 -->
<g id="edge18" class="edge"><title>q4&#45;&gt;q2</title>
<path fill="none" stroke="black" d="M93.1573,-377.821C83.2274,-363.665 69.2297,-342.254 60,-322 48.0689,-295.817 38.9722,-264.161 33.3811,-241.911"/>
<polygon fill="black" stroke="black" points="36.7601,-240.994 30.9912,-232.107 29.9592,-242.652 36.7601,-240.994"/>
<text text-anchor="middle" x="64.5" y="-299.9" font-family="Times Roman,serif" font-size="14.00">b</text>
</g>
<!-- q5 -->
<g id="node5" class="node"><title>q5</title>
<ellipse fill="none" stroke="black" cx="95" cy="-120" rx="27" ry="18"/>
<ellipse fill="none" stroke="black" cx="95" cy="-120" rx="31" ry="22"/>
<text text-anchor="middle" x="95" y="-115.9" font-family="Times Roman,serif" font-size="14.00">q5</text>
</g>
<!-- q1 -->
<g id="node7" class="node"><title>q1</title>
<ellipse fill="none" stroke="black" cx="154" cy="-22" rx="27" ry="18"/>
<ellipse fill="none" stroke="black" cx="154" cy="-22" rx="31" ry="22"/>
<text text-anchor="middle" x="154" y="-17.9" font-family="Times Roman,serif" font-size="14.00">q1</text>
</g>
<!-- q5&#45;&gt;q1 -->
<g id="edge6" class="edge"><title>q5&#45;&gt;q1</title>
<path fill="none" stroke="black" d="M107.225,-99.6943C115.689,-85.6345 127.084,-66.7082 136.507,-51.0557"/>
<polygon fill="black" stroke="black" points="139.631,-52.6521 141.791,-42.2797 133.634,-49.0416 139.631,-52.6521"/>
<text text-anchor="middle" x="133.5" y="-66.9" font-family="Times Roman,serif" font-size="14.00">b</text>
</g>
<!-- q5&#45;&gt;q3 -->
<g id="edge8" class="edge"><title>q5&#45;&gt;q3</title>
<path fill="none" stroke="black" d="M96.2072,-142.212C98.0245,-175.651 101.462,-238.909 103.459,-275.638"/>
<polygon fill="black" stroke="black" points="99.967,-275.889 104.005,-285.685 106.957,-275.509 99.967,-275.889"/>
<text text-anchor="middle" x="104.5" y="-209.9" font-family="Times Roman,serif" font-size="14.00">a</text>
</g>
<!-- q1&#45;&gt;q6 -->
<g id="edge14" class="edge"><title>q1&#45;&gt;q6</title>
<path fill="none" stroke="black" d="M166.865,-42.1471C177.889,-61.3689 192,-91.5329 192,-120 192,-394 192,-394 192,-394 192,-416.023 184.261,-439.765 176.92,-457.331"/>
<polygon fill="black" stroke="black" points="173.533,-456.338 172.706,-466.901 179.94,-459.16 173.533,-456.338"/>
<text text-anchor="middle" x="196.5" y="-254.9" font-family="Times Roman,serif" font-size="14.00">b</text>
</g>
<!-- q1&#45;&gt;q3 -->
<g id="edge16" class="edge"><title>q1&#45;&gt;q3</title>
<path fill="none" stroke="black" d="M151.646,-44.2527C146.816,-87.6523 134.648,-186.485 116,-268 115.379,-270.714 114.661,-273.521 113.894,-276.315"/>
<polygon fill="black" stroke="black" points="110.453,-275.61 110.994,-286.191 117.169,-277.582 110.453,-275.61"/>
<text text-anchor="middle" x="139.5" y="-164.9" font-family="Times Roman,serif" font-size="14.00">a</text>
</g>
<!-- q3&#45;&gt;q2 -->
<g id="edge22" class="edge"><title>q3&#45;&gt;q2</title>
<path fill="none" stroke="black" d="M86.3492,-290.394C78.3602,-284.078 69.2265,-276.166 62,-268 54.3695,-259.377 47.2103,-248.945 41.3795,-239.558"/>
<polygon fill="black" stroke="black" points="44.3724,-237.743 36.2242,-230.972 38.3709,-241.347 44.3724,-237.743"/>
<text text-anchor="middle" x="66.5" y="-254.9" font-family="Times Roman,serif" font-size="14.00">b</text>
</g>
<!-- q3&#45;&gt;q2 -->
<g id="edge24" class="edge"><title>q3&#45;&gt;q2</title>
<path fill="none" stroke="black" d="M96.1665,-286.972C89.9466,-275.827 80.9743,-261.293 71,-250 65.879,-244.202 59.7695,-238.58 53.7568,-233.57"/>
<polygon fill="black" stroke="black" points="55.7193,-230.658 45.7196,-227.157 51.3537,-236.13 55.7193,-230.658"/>
<text text-anchor="middle" x="87.5" y="-254.9" font-family="Times Roman,serif" font-size="14.00">a</text>
</g>
<!-- q2&#45;&gt;q5 -->
<g id="edge12" class="edge"><title>q2&#45;&gt;q5</title>
<path fill="none" stroke="black" d="M38.8447,-197.626C48.6692,-184.046 62.865,-164.422 74.5252,-148.303"/>
<polygon fill="black" stroke="black" points="77.6729,-149.924 80.6983,-139.77 72.0013,-145.821 77.6729,-149.924"/>
<text text-anchor="middle" x="69.5" y="-164.9" font-family="Times Roman,serif" font-size="14.00">a</text>
</g>
<!-- q2&#45;&gt;q2 -->
<g id="edge10" class="edge"><title>q2&#45;&gt;q2</title>
<path fill="none" stroke="black" d="M51.5325,-222.121C62.5078,-222.895 72,-220.188 72,-214 72,-209.843 67.7151,-207.257 61.5743,-206.242"/>
<polygon fill="black" stroke="black" points="61.6524,-202.742 51.5325,-205.879 61.3995,-209.738 61.6524,-202.742"/>
<text text-anchor="middle" x="76.5" y="-209.9" font-family="Times Roman,serif" font-size="14.00">b</text>
</g>
</g>
</svg>
