<?xml version="1.0" encoding="UTF-8" standalone="no"?>
<!DOCTYPE svg PUBLIC "-//W3C//DTD SVG 1.1//EN"
 "http://www.w3.org/Graphics/SVG/1.1/DTD/svg11.dtd">
<!-- Generated by graphviz version 2.26.3 (20100126.1600)
 -->
<!-- Title: G Pages: 1 -->
<svg width="156pt" height="510pt"
 viewBox="0.00 0.00 156.00 510.00" xmlns="http://www.w3.org/2000/svg" xmlns:xlink="http://www.w3.org/1999/xlink">
<g id="graph1" class="graph" transform="scale(1 1) rotate(0) translate(4 506)">
<title>G</title>
<polygon fill="white" stroke="white" points="-4,5 -4,-506 153,-506 153,5 -4,5"/>
<!-- q6 -->
<g id="node1" class="node"><title>q6</title>
<ellipse fill="none" stroke="black" cx="104" cy="-484" rx="27" ry="18"/>
<text text-anchor="middle" x="104" y="-479.9" font-family="Times Roman,serif" font-size="14.00">q6</text>
</g>
<!-- q7 -->
<g id="node3" class="node"><title>q7</title>
<ellipse fill="none" stroke="black" cx="37" cy="-394" rx="27" ry="18"/>
<text text-anchor="middle" x="37" y="-389.9" font-family="Times Roman,serif" font-size="14.00">q7</text>
</g>
<!-- q6&#45;&gt;q7 -->
<g id="edge2" class="edge"><title>q6&#45;&gt;q7</title>
<path fill="none" stroke="black" d="M91.7112,-467.493C81.5111,-453.791 66.8542,-434.103 55.2776,-418.552"/>
<polygon fill="black" stroke="black" points="57.9899,-416.334 49.2109,-410.403 52.3749,-420.514 57.9899,-416.334"/>
<text text-anchor="middle" x="81.5" y="-434.9" font-family="Times Roman,serif" font-size="14.00">b</text>
</g>
<!-- q4 -->
<g id="node5" class="node"><title>q4</title>
<ellipse fill="none" stroke="black" cx="94" cy="-304" rx="27" ry="18"/>
<text text-anchor="middle" x="94" y="-299.9" font-family="Times Roman,serif" font-size="14.00">q4</text>
</g>
<!-- q6&#45;&gt;q4 -->
<g id="edge4" class="edge"><title>q6&#45;&gt;q4</title>
<path fill="none" stroke="black" d="M103.578,-465.643C103.024,-444.144 101.893,-407.465 100,-376 99.1264,-361.477 97.8127,-345.333 96.637,-332.019"/>
<polygon fill="black" stroke="black" points="100.12,-331.678 95.7348,-322.033 93.1489,-332.308 100.12,-331.678"/>
<text text-anchor="middle" x="106.5" y="-389.9" font-family="Times Roman,serif" font-size="14.00">a</text>
</g>
<!-- q7&#45;&gt;q7 -->
<g id="edge8" class="edge"><title>q7&#45;&gt;q7</title>
<path fill="none" stroke="black" d="M61.5325,-402.121C72.5078,-402.895 82,-400.188 82,-394 82,-389.843 77.7151,-387.257 71.5743,-386.242"/>
<polygon fill="black" stroke="black" points="71.6524,-382.742 61.5325,-385.879 71.3995,-389.738 71.6524,-382.742"/>
<text text-anchor="middle" x="86.5" y="-389.9" font-family="Times Roman,serif" font-size="14.00">a</text>
</g>
<!-- q7&#45;&gt;q4 -->
<g id="edge6" class="edge"><title>q7&#45;&gt;q4</title>
<path fill="none" stroke="black" d="M47.7213,-377.072C56.24,-363.621 68.2873,-344.599 77.9546,-329.335"/>
<polygon fill="black" stroke="black" points="80.9331,-331.173 83.3268,-320.852 75.0194,-327.428 80.9331,-331.173"/>
<text text-anchor="middle" x="75.5" y="-344.9" font-family="Times Roman,serif" font-size="14.00">b</text>
</g>
<!-- q4&#45;&gt;q4 -->
<g id="edge16" class="edge"><title>q4&#45;&gt;q4</title>
<path fill="none" stroke="black" d="M118.532,-312.121C129.508,-312.895 139,-310.188 139,-304 139,-299.843 134.715,-297.257 128.574,-296.242"/>
<polygon fill="black" stroke="black" points="128.652,-292.742 118.532,-295.879 128.4,-299.738 128.652,-292.742"/>
<text text-anchor="middle" x="143.5" y="-299.9" font-family="Times Roman,serif" font-size="14.00">a</text>
</g>
<!-- q2 -->
<g id="node8" class="node"><title>q2</title>
<ellipse fill="none" stroke="black" cx="37" cy="-214" rx="27" ry="18"/>
<text text-anchor="middle" x="37" y="-209.9" font-family="Times Roman,serif" font-size="14.00">q2</text>
</g>
<!-- q4&#45;&gt;q2 -->
<g id="edge14" class="edge"><title>q4&#45;&gt;q2</title>
<path fill="none" stroke="black" d="M83.2787,-287.072C74.76,-273.621 62.7127,-254.599 53.0454,-239.335"/>
<polygon fill="black" stroke="black" points="55.9806,-237.428 47.6732,-230.852 50.0669,-241.173 55.9806,-237.428"/>
<text text-anchor="middle" x="75.5" y="-254.9" font-family="Times Roman,serif" font-size="14.00">b</text>
</g>
<!-- q2&#45;&gt;q7 -->
<g id="edge10" class="edge"><title>q2&#45;&gt;q7</title>
<path fill="none" stroke="black" d="M37,-232.031C37,-263.357 37,-328.061 37,-365.514"/>
<polygon fill="black" stroke="black" points="33.5001,-365.75 37,-375.75 40.5001,-365.75 33.5001,-365.75"/>
<text text-anchor="middle" x="41.5" y="-299.9" font-family="Times Roman,serif" font-size="14.00">b</text>
</g>
<!-- q0 -->
<g id="node11" class="node"><title>q0</title>
<ellipse fill="none" stroke="black" cx="31" cy="-120" rx="27" ry="18"/>
<ellipse fill="none" stroke="black" cx="31" cy="-120" rx="31" ry="22"/>
<text text-anchor="middle" x="31" y="-115.9" font-family="Times Roman,serif" font-size="14.00">q0</text>
</g>
<!-- q2&#45;&gt;q0 -->
<g id="edge12" class="edge"><title>q2&#45;&gt;q0</title>
<path fill="none" stroke="black" d="M35.8431,-195.876C35.054,-183.512 33.9869,-166.795 33.0553,-152.199"/>
<polygon fill="black" stroke="black" points="36.5367,-151.796 32.4067,-142.039 29.5509,-152.241 36.5367,-151.796"/>
<text text-anchor="middle" x="39.5" y="-164.9" font-family="Times Roman,serif" font-size="14.00">a</text>
</g>
<!-- q0&#45;&gt;q0 -->
<g id="edge24" class="edge"><title>q0&#45;&gt;q0</title>
<path fill="none" stroke="black" d="M59.6885,-128.965C70.7806,-129.363 80,-126.375 80,-120 80,-115.717 75.8382,-112.962 69.7429,-111.737"/>
<polygon fill="black" stroke="black" points="69.9079,-108.24 59.6885,-111.035 69.4205,-115.223 69.9079,-108.24"/>
<text text-anchor="middle" x="84.5" y="-115.9" font-family="Times Roman,serif" font-size="14.00">a</text>
</g>
<!-- q3 -->
<g id="node14" class="node"><title>q3</title>
<ellipse fill="none" stroke="black" cx="63" cy="-22" rx="27" ry="18"/>
<ellipse fill="none" stroke="black" cx="63" cy="-22" rx="31" ry="22"/>
<text text-anchor="middle" x="63" y="-17.9" font-family="Times Roman,serif" font-size="14.00">q3</text>
</g>
<!-- q0&#45;&gt;q3 -->
<g id="edge22" class="edge"><title>q0&#45;&gt;q3</title>
<path fill="none" stroke="black" d="M38.1018,-98.2506C42.4105,-85.0554 47.9814,-67.9944 52.7609,-53.3574"/>
<polygon fill="black" stroke="black" points="56.1411,-54.2811 55.918,-43.6886 49.4868,-52.1082 56.1411,-54.2811"/>
<text text-anchor="middle" x="54.5" y="-66.9" font-family="Times Roman,serif" font-size="14.00">b</text>
</g>
<!-- q3&#45;&gt;q4 -->
<g id="edge18" class="edge"><title>q3&#45;&gt;q4</title>
<path fill="none" stroke="black" d="M75.3641,-42.4355C83.5862,-57.2676 93.6455,-78.1347 98,-98 111.681,-160.413 104.323,-236.02 98.6249,-276.023"/>
<polygon fill="black" stroke="black" points="95.137,-275.683 97.1171,-286.091 102.06,-276.72 95.137,-275.683"/>
<text text-anchor="middle" x="109.5" y="-164.9" font-family="Times Roman,serif" font-size="14.00">b</text>
</g>
<!-- q3&#45;&gt;q0 -->
<g id="edge20" class="edge"><title>q3&#45;&gt;q0</title>
<path fill="none" stroke="black" d="M45.0887,-40.0198C39.8582,-46.4295 34.799,-54.0436 32,-62 29.1487,-70.1049 28.0868,-79.2491 27.9382,-87.8399"/>
<polygon fill="black" stroke="black" points="24.441,-88.0132 28.1511,-97.9371 31.4395,-87.8656 24.441,-88.0132"/>
<text text-anchor="middle" x="36.5" y="-66.9" font-family="Times Roman,serif" font-size="14.00">a</text>
</g>
</g>
</svg>
