<?xml version="1.0" encoding="UTF-8" standalone="no"?>
<!DOCTYPE svg PUBLIC "-//W3C//DTD SVG 1.1//EN"
 "http://www.w3.org/Graphics/SVG/1.1/DTD/svg11.dtd">
<!-- Generated by graphviz version 2.26.3 (20100126.1600)
 -->
<!-- Title: G Pages: 1 -->
<svg width="234pt" height="412pt"
 viewBox="0.00 0.00 234.00 412.00" xmlns="http://www.w3.org/2000/svg" xmlns:xlink="http://www.w3.org/1999/xlink">
<g id="graph1" class="graph" transform="scale(1 1) rotate(0) translate(4 408)">
<title>G</title>
<polygon fill="white" stroke="white" points="-4,5 -4,-408 231,-408 231,5 -4,5"/>
<!-- q6 -->
<g id="node1" class="node"><title>q6</title>
<ellipse fill="none" stroke="black" cx="27" cy="-386" rx="27" ry="18"/>
<text text-anchor="middle" x="27" y="-381.9" font-family="Times Roman,serif" font-size="14.00">q6</text>
</g>
<!-- q6&#45;&gt;q6 -->
<g id="edge2" class="edge"><title>q6&#45;&gt;q6</title>
<path fill="none" stroke="black" d="M51.5325,-394.121C62.5078,-394.895 72,-392.188 72,-386 72,-381.843 67.7151,-379.257 61.5743,-378.242"/>
<polygon fill="black" stroke="black" points="61.6524,-374.742 51.5325,-377.879 61.3995,-381.738 61.6524,-374.742"/>
<text text-anchor="middle" x="76.5" y="-381.9" font-family="Times Roman,serif" font-size="14.00">b</text>
</g>
<!-- q4 -->
<g id="node4" class="node"><title>q4</title>
<ellipse fill="none" stroke="black" cx="27" cy="-296" rx="27" ry="18"/>
<text text-anchor="middle" x="27" y="-291.9" font-family="Times Roman,serif" font-size="14.00">q4</text>
</g>
<!-- q6&#45;&gt;q4 -->
<g id="edge4" class="edge"><title>q6&#45;&gt;q4</title>
<path fill="none" stroke="black" d="M27,-367.787C27,-355.344 27,-338.605 27,-324.421"/>
<polygon fill="black" stroke="black" points="30.5001,-324.186 27,-314.186 23.5001,-324.186 30.5001,-324.186"/>
<text text-anchor="middle" x="31.5" y="-336.9" font-family="Times Roman,serif" font-size="14.00">a</text>
</g>
<!-- q2 -->
<g id="node9" class="node"><title>q2</title>
<ellipse fill="none" stroke="black" cx="59" cy="-202" rx="27" ry="18"/>
<text text-anchor="middle" x="59" y="-197.9" font-family="Times Roman,serif" font-size="14.00">q2</text>
</g>
<!-- q4&#45;&gt;q2 -->
<g id="edge18" class="edge"><title>q4&#45;&gt;q2</title>
<path fill="none" stroke="black" d="M33.019,-278.319C37.712,-264.533 44.3127,-245.144 49.6863,-229.359"/>
<polygon fill="black" stroke="black" points="53.0986,-230.196 53.008,-219.601 46.4721,-227.94 53.0986,-230.196"/>
<text text-anchor="middle" x="48.5" y="-246.9" font-family="Times Roman,serif" font-size="14.00">b</text>
</g>
<!-- q3 -->
<g id="node15" class="node"><title>q3</title>
<ellipse fill="none" stroke="black" cx="65" cy="-18" rx="27" ry="18"/>
<text text-anchor="middle" x="65" y="-13.9" font-family="Times Roman,serif" font-size="14.00">q3</text>
</g>
<!-- q4&#45;&gt;q3 -->
<g id="edge20" class="edge"><title>q4&#45;&gt;q3</title>
<path fill="none" stroke="black" d="M22.8276,-278.154C21.67,-272.394 20.5738,-265.957 20,-260 19.233,-252.037 19.8066,-249.998 20,-242 22.0405,-157.612 19.9715,-133.969 47,-54 48.074,-50.8225 49.378,-47.5709 50.7881,-44.3848"/>
<polygon fill="black" stroke="black" points="54.0428,-45.6922 55.2124,-35.1621 47.7314,-42.6644 54.0428,-45.6922"/>
<text text-anchor="middle" x="28.5" y="-148.9" font-family="Times Roman,serif" font-size="14.00">a</text>
</g>
<!-- q5 -->
<g id="node5" class="node"><title>q5</title>
<ellipse fill="none" stroke="black" cx="110" cy="-296" rx="27" ry="18"/>
<text text-anchor="middle" x="110" y="-291.9" font-family="Times Roman,serif" font-size="14.00">q5</text>
</g>
<!-- q0 -->
<g id="node7" class="node"><title>q0</title>
<ellipse fill="none" stroke="black" cx="119" cy="-108" rx="27" ry="18"/>
<text text-anchor="middle" x="119" y="-103.9" font-family="Times Roman,serif" font-size="14.00">q0</text>
</g>
<!-- q5&#45;&gt;q0 -->
<g id="edge6" class="edge"><title>q5&#45;&gt;q0</title>
<path fill="none" stroke="black" d="M110.863,-277.974C112.431,-245.211 115.76,-175.672 117.638,-136.451"/>
<polygon fill="black" stroke="black" points="121.144,-136.404 118.126,-126.248 114.152,-136.069 121.144,-136.404"/>
<text text-anchor="middle" x="119.5" y="-197.9" font-family="Times Roman,serif" font-size="14.00">b</text>
</g>
<!-- q5&#45;&gt;q2 -->
<g id="edge8" class="edge"><title>q5&#45;&gt;q2</title>
<path fill="none" stroke="black" d="M100.646,-278.759C92.9535,-264.581 81.9312,-244.265 73.1582,-228.095"/>
<polygon fill="black" stroke="black" points="76.1402,-226.252 68.2949,-219.132 69.9874,-229.591 76.1402,-226.252"/>
<text text-anchor="middle" x="93.5" y="-246.9" font-family="Times Roman,serif" font-size="14.00">a</text>
</g>
<!-- q0&#45;&gt;q0 -->
<g id="edge28" class="edge"><title>q0&#45;&gt;q0</title>
<path fill="none" stroke="black" d="M143.532,-116.121C154.508,-116.895 164,-114.188 164,-108 164,-103.843 159.715,-101.257 153.574,-100.242"/>
<polygon fill="black" stroke="black" points="153.652,-96.7424 143.532,-99.8789 153.4,-103.738 153.652,-96.7424"/>
<text text-anchor="middle" x="168.5" y="-103.9" font-family="Times Roman,serif" font-size="14.00">a</text>
</g>
<!-- q0&#45;&gt;q3 -->
<g id="edge26" class="edge"><title>q0&#45;&gt;q3</title>
<path fill="none" stroke="black" d="M108.843,-91.0717C100.848,-77.7467 89.5724,-58.9541 80.4583,-43.7639"/>
<polygon fill="black" stroke="black" points="83.2577,-41.6266 75.1114,-34.8524 77.2552,-45.2281 83.2577,-41.6266"/>
<text text-anchor="middle" x="100.5" y="-58.9" font-family="Times Roman,serif" font-size="14.00">b</text>
</g>
<!-- q2&#45;&gt;q4 -->
<g id="edge10" class="edge"><title>q2&#45;&gt;q4</title>
<path fill="none" stroke="black" d="M43.7142,-216.921C37.614,-223.903 31.2715,-232.72 28,-242 25.1505,-250.083 24.2084,-259.279 24.1749,-267.761"/>
<polygon fill="black" stroke="black" points="20.6854,-268.12 24.5431,-277.988 27.6809,-267.868 20.6854,-268.12"/>
<text text-anchor="middle" x="32.5" y="-246.9" font-family="Times Roman,serif" font-size="14.00">b</text>
</g>
<!-- q2&#45;&gt;q0 -->
<g id="edge12" class="edge"><title>q2&#45;&gt;q0</title>
<path fill="none" stroke="black" d="M69.7268,-185.195C78.9415,-170.758 92.3633,-149.731 102.872,-133.266"/>
<polygon fill="black" stroke="black" points="105.936,-134.972 108.366,-124.66 100.035,-131.206 105.936,-134.972"/>
<text text-anchor="middle" x="98.5" y="-148.9" font-family="Times Roman,serif" font-size="14.00">a</text>
</g>
<!-- q1 -->
<g id="node12" class="node"><title>q1</title>
<ellipse fill="none" stroke="black" cx="195" cy="-202" rx="27" ry="18"/>
<ellipse fill="none" stroke="black" cx="195" cy="-202" rx="31" ry="22"/>
<text text-anchor="middle" x="195" y="-197.9" font-family="Times Roman,serif" font-size="14.00">q1</text>
</g>
<!-- q1&#45;&gt;q0 -->
<g id="edge14" class="edge"><title>q1&#45;&gt;q0</title>
<path fill="none" stroke="black" d="M179.253,-182.523C167.44,-167.913 151.198,-147.824 138.554,-132.185"/>
<polygon fill="black" stroke="black" points="140.959,-129.593 131.95,-124.017 135.516,-133.994 140.959,-129.593"/>
<text text-anchor="middle" x="165.5" y="-148.9" font-family="Times Roman,serif" font-size="14.00">b</text>
</g>
<!-- q1&#45;&gt;q3 -->
<g id="edge16" class="edge"><title>q1&#45;&gt;q3</title>
<path fill="none" stroke="black" d="M197.82,-179.93C199.74,-155.892 199.357,-117.238 182,-90 162.936,-60.0838 126.531,-40.626 99.3692,-29.5724"/>
<polygon fill="black" stroke="black" points="100.419,-26.2256 89.8298,-25.8764 97.8899,-32.7528 100.419,-26.2256"/>
<text text-anchor="middle" x="199.5" y="-103.9" font-family="Times Roman,serif" font-size="14.00">a</text>
</g>
<!-- q3&#45;&gt;q2 -->
<g id="edge22" class="edge"><title>q3&#45;&gt;q2</title>
<path fill="none" stroke="black" d="M64.4052,-36.2412C63.3602,-68.2884 61.1873,-134.923 59.9382,-173.229"/>
<polygon fill="black" stroke="black" points="56.4251,-173.576 59.5972,-183.685 63.4214,-173.804 56.4251,-173.576"/>
<text text-anchor="middle" x="66.5" y="-103.9" font-family="Times Roman,serif" font-size="14.00">b</text>
</g>
<!-- q3&#45;&gt;q2 -->
<g id="edge24" class="edge"><title>q3&#45;&gt;q2</title>
<path fill="none" stroke="black" d="M59.5665,-35.8438C55.4651,-50.2899 50.1839,-71.2465 48,-90 44.6637,-118.649 48.8329,-151.499 52.9609,-174.18"/>
<polygon fill="black" stroke="black" points="49.551,-174.981 54.8891,-184.133 56.4232,-173.65 49.551,-174.981"/>
<text text-anchor="middle" x="52.5" y="-103.9" font-family="Times Roman,serif" font-size="14.00">a</text>
</g>
</g>
</svg>
