<?xml version="1.0" encoding="UTF-8" standalone="no"?>
<!DOCTYPE svg PUBLIC "-//W3C//DTD SVG 1.1//EN"
 "http://www.w3.org/Graphics/SVG/1.1/DTD/svg11.dtd">
<!-- Generated by graphviz version 2.26.3 (20100126.1600)
 -->
<!-- Title: G Pages: 1 -->
<svg width="168pt" height="414pt"
 viewBox="0.00 0.00 168.00 414.00" xmlns="http://www.w3.org/2000/svg" xmlns:xlink="http://www.w3.org/1999/xlink">
<g id="graph1" class="graph" transform="scale(1 1) rotate(0) translate(4 410)">
<title>G</title>
<polygon fill="white" stroke="white" points="-4,5 -4,-410 165,-410 165,5 -4,5"/>
<!-- q5 -->
<g id="node1" class="node"><title>q5</title>
<ellipse fill="none" stroke="black" cx="97" cy="-295" rx="27" ry="18.3848"/>
<text text-anchor="middle" x="97" y="-291.4" font-family="Times Roman,serif" font-size="14.00">q5</text>
</g>
<!-- q5&#45;&gt;q5 -->
<g id="edge4" class="edge"><title>q5&#45;&gt;q5</title>
<path fill="none" stroke="black" d="M121.074,-303.454C132.242,-304.377 142,-301.559 142,-295 142,-290.593 137.595,-287.875 131.317,-286.846"/>
<polygon fill="black" stroke="black" points="131.173,-283.34 121.074,-286.546 130.967,-290.337 131.173,-283.34"/>
<text text-anchor="middle" x="146.5" y="-291.4" font-family="Times Roman,serif" font-size="14.00">a</text>
</g>
<!-- q2 -->
<g id="node3" class="node"><title>q2</title>
<ellipse fill="none" stroke="black" cx="118" cy="-203" rx="27" ry="18.3848"/>
<text text-anchor="middle" x="118" y="-199.4" font-family="Times Roman,serif" font-size="14.00">q2</text>
</g>
<!-- q5&#45;&gt;q2 -->
<g id="edge2" class="edge"><title>q5&#45;&gt;q2</title>
<path fill="none" stroke="black" d="M102.227,-276.618C103.842,-270.695 105.57,-264.089 107,-258 109.026,-249.373 111.002,-239.93 112.707,-231.341"/>
<polygon fill="black" stroke="black" points="116.167,-231.883 114.637,-221.399 109.295,-230.549 116.167,-231.883"/>
<text text-anchor="middle" x="114.5" y="-245.4" font-family="Times Roman,serif" font-size="14.00">b</text>
</g>
<!-- q2&#45;&gt;q5 -->
<g id="edge6" class="edge"><title>q2&#45;&gt;q5</title>
<path fill="none" stroke="black" d="M106.626,-219.976C103.175,-226.034 99.818,-233.079 98,-240 95.8164,-248.313 95.0445,-257.579 94.9617,-266.1"/>
<polygon fill="black" stroke="black" points="91.4678,-266.441 95.1708,-276.367 98.4664,-266.298 91.4678,-266.441"/>
<text text-anchor="middle" x="102.5" y="-245.4" font-family="Times Roman,serif" font-size="14.00">b</text>
</g>
<!-- q1 -->
<g id="node7" class="node"><title>q1</title>
<ellipse fill="none" stroke="black" cx="93" cy="-111" rx="27" ry="18.3848"/>
<text text-anchor="middle" x="93" y="-107.4" font-family="Times Roman,serif" font-size="14.00">q1</text>
</g>
<!-- q2&#45;&gt;q1 -->
<g id="edge8" class="edge"><title>q2&#45;&gt;q1</title>
<path fill="none" stroke="black" d="M112.941,-184.382C109.428,-171.454 104.682,-153.988 100.701,-139.339"/>
<polygon fill="black" stroke="black" points="103.966,-138.008 97.9663,-129.276 97.2111,-139.844 103.966,-138.008"/>
<text text-anchor="middle" x="111.5" y="-153.4" font-family="Times Roman,serif" font-size="14.00">a</text>
</g>
<!-- q1&#45;&gt;q5 -->
<g id="edge12" class="edge"><title>q1&#45;&gt;q5</title>
<path fill="none" stroke="black" d="M85.9629,-129.036C78.2825,-150.967 67.7355,-189.131 73,-222 75.4715,-237.431 80.7063,-254.025 85.6581,-267.487"/>
<polygon fill="black" stroke="black" points="82.4943,-269.012 89.3391,-277.099 89.0314,-266.509 82.4943,-269.012"/>
<text text-anchor="middle" x="77.5" y="-199.4" font-family="Times Roman,serif" font-size="14.00">a</text>
</g>
<!-- q0 -->
<g id="node9" class="node"><title>q0</title>
<ellipse fill="none" stroke="black" cx="82" cy="-19" rx="27" ry="18.3848"/>
<text text-anchor="middle" x="82" y="-15.4" font-family="Times Roman,serif" font-size="14.00">q0</text>
</g>
<!-- q1&#45;&gt;q0 -->
<g id="edge10" class="edge"><title>q1&#45;&gt;q0</title>
<path fill="none" stroke="black" d="M78.7147,-95.23C74.0324,-89.0601 69.4144,-81.6354 67,-74 64.1381,-64.9495 65.5258,-54.961 68.3806,-46.0075"/>
<polygon fill="black" stroke="black" points="71.7366,-47.033 72.079,-36.4437 65.2077,-44.5083 71.7366,-47.033"/>
<text text-anchor="middle" x="71.5" y="-61.4" font-family="Times Roman,serif" font-size="14.00">b</text>
</g>
<!-- q0&#45;&gt;q5 -->
<g id="edge22" class="edge"><title>q0&#45;&gt;q5</title>
<path fill="none" stroke="black" d="M94.7731,-35.5578C105.252,-49.8309 119.808,-71.3431 129,-92 146.226,-130.712 148.395,-142.001 154,-184 156.234,-200.74 159.496,-206.03 154,-222 147.351,-241.319 133.26,-259.444 120.753,-272.801"/>
<polygon fill="black" stroke="black" points="118.121,-270.487 113.64,-280.088 123.13,-275.377 118.121,-270.487"/>
<text text-anchor="middle" x="155.5" y="-153.4" font-family="Times Roman,serif" font-size="14.00">b</text>
</g>
<!-- q0&#45;&gt;q1 -->
<g id="edge24" class="edge"><title>q0&#45;&gt;q1</title>
<path fill="none" stroke="black" d="M84.2227,-37.5899C85.7576,-50.4275 87.8286,-67.7485 89.5735,-82.3416"/>
<polygon fill="black" stroke="black" points="86.1115,-82.8687 90.774,-92.3824 93.062,-82.0376 86.1115,-82.8687"/>
<text text-anchor="middle" x="92.5" y="-61.4" font-family="Times Roman,serif" font-size="14.00">a</text>
</g>
<!-- q4 -->
<g id="node11" class="node"><title>q4</title>
<ellipse fill="none" stroke="black" cx="27" cy="-387" rx="27" ry="18.3848"/>
<text text-anchor="middle" x="27" y="-383.4" font-family="Times Roman,serif" font-size="14.00">q4</text>
</g>
<!-- q4&#45;&gt;q5 -->
<g id="edge16" class="edge"><title>q4&#45;&gt;q5</title>
<path fill="none" stroke="black" d="M39.5146,-370.552C50.2977,-356.38 66.0187,-335.718 78.2959,-319.583"/>
<polygon fill="black" stroke="black" points="81.0879,-321.693 84.3577,-311.616 75.5171,-317.455 81.0879,-321.693"/>
<text text-anchor="middle" x="72.5" y="-337.4" font-family="Times Roman,serif" font-size="14.00">a</text>
</g>
<!-- q4&#45;&gt;q0 -->
<g id="edge14" class="edge"><title>q4&#45;&gt;q0</title>
<path fill="none" stroke="black" d="M24.4247,-368.364C22.0861,-349.808 19,-320.492 19,-295 19,-295 19,-295 19,-111 19,-83.1332 38.9206,-57.5159 56.3585,-40.4298"/>
<polygon fill="black" stroke="black" points="59.1849,-42.58 64.1152,-33.2023 54.413,-37.4586 59.1849,-42.58"/>
<text text-anchor="middle" x="23.5" y="-199.4" font-family="Times Roman,serif" font-size="14.00">b</text>
</g>
<!-- q3 -->
<g id="node14" class="node"><title>q3</title>
<ellipse fill="none" stroke="black" cx="110" cy="-387" rx="27" ry="18.3848"/>
<text text-anchor="middle" x="110" y="-383.4" font-family="Times Roman,serif" font-size="14.00">q3</text>
</g>
<!-- q3&#45;&gt;q5 -->
<g id="edge18" class="edge"><title>q3&#45;&gt;q5</title>
<path fill="none" stroke="black" d="M101.239,-369.361C98.7013,-363.367 96.2735,-356.531 95,-350 93.3541,-341.56 93.1127,-332.256 93.4917,-323.739"/>
<polygon fill="black" stroke="black" points="97.002,-323.727 94.2444,-313.497 90.0208,-323.213 97.002,-323.727"/>
<text text-anchor="middle" x="99.5" y="-337.4" font-family="Times Roman,serif" font-size="14.00">b</text>
</g>
<!-- q3&#45;&gt;q5 -->
<g id="edge20" class="edge"><title>q3&#45;&gt;q5</title>
<path fill="none" stroke="black" d="M108.333,-368.369C107.287,-357.696 105.797,-344.066 104,-332 103.59,-329.246 103.122,-326.384 102.628,-323.526"/>
<polygon fill="black" stroke="black" points="106.017,-322.602 100.774,-313.396 99.1316,-323.862 106.017,-322.602"/>
<text text-anchor="middle" x="110.5" y="-337.4" font-family="Times Roman,serif" font-size="14.00">a</text>
</g>
</g>
</svg>
