<?xml version="1.0" encoding="UTF-8" standalone="no"?>
<!DOCTYPE svg PUBLIC "-//W3C//DTD SVG 1.1//EN"
 "http://www.w3.org/Graphics/SVG/1.1/DTD/svg11.dtd">
<!-- Generated by graphviz version 2.26.3 (20100126.1600)
 -->
<!-- Title: G Pages: 1 -->
<svg width="154pt" height="322pt"
 viewBox="0.00 0.00 154.00 322.00" xmlns="http://www.w3.org/2000/svg" xmlns:xlink="http://www.w3.org/1999/xlink">
<g id="graph1" class="graph" transform="scale(1 1) rotate(0) translate(4 318)">
<title>G</title>
<polygon fill="white" stroke="white" points="-4,5 -4,-318 151,-318 151,5 -4,5"/>
<!-- q1 -->
<g id="node1" class="node"><title>q1</title>
<ellipse fill="none" stroke="black" cx="115" cy="-292" rx="27" ry="18"/>
<ellipse fill="none" stroke="black" cx="115" cy="-292" rx="31" ry="22"/>
<text text-anchor="middle" x="115" y="-287.9" font-family="Times Roman,serif" font-size="14.00">q1</text>
</g>
<!-- q0 -->
<g id="node3" class="node"><title>q0</title>
<ellipse fill="none" stroke="darkred" cx="71" cy="-198" rx="27" ry="18"/>
<text text-anchor="middle" x="71" y="-193.9" font-family="Times Roman,serif" font-size="14.00">q0</text>
</g>
<!-- q1&#45;&gt;q0 -->
<g id="edge2" class="edge"><title>q1&#45;&gt;q0</title>
<path fill="none" stroke="black" d="M92.0971,-276.681C84.2314,-270.099 76.324,-261.682 72,-252 68.4662,-244.087 67.3536,-234.85 67.3746,-226.275"/>
<polygon fill="black" stroke="black" points="70.8706,-226.441 67.8759,-216.279 63.8793,-226.091 70.8706,-226.441"/>
<text text-anchor="middle" x="76.5" y="-238.9" font-family="Times Roman,serif" font-size="14.00">b</text>
</g>
<!-- q4 -->
<g id="node5" class="node"><title>q4</title>
<ellipse fill="none" stroke="black" cx="108" cy="-18" rx="27" ry="18"/>
<text text-anchor="middle" x="108" y="-13.9" font-family="Times Roman,serif" font-size="14.00">q4</text>
</g>
<!-- q1&#45;&gt;q4 -->
<g id="edge4" class="edge"><title>q1&#45;&gt;q4</title>
<path fill="none" stroke="black" d="M115.442,-269.989C116.127,-227.961 116.899,-133.395 112,-54 111.85,-51.5639 111.653,-49.039 111.427,-46.5082"/>
<polygon fill="black" stroke="black" points="114.881,-45.8765 110.383,-36.2841 107.917,-46.5881 114.881,-45.8765"/>
<text text-anchor="middle" x="119.5" y="-148.9" font-family="Times Roman,serif" font-size="14.00">a</text>
</g>
<!-- q0&#45;&gt;q1 -->
<g id="edge16" class="edge"><title>q0&#45;&gt;q1</title>
<path fill="none" stroke="black" d="M79.1778,-215.471C85.2275,-228.395 93.6212,-246.327 100.763,-261.584"/>
<polygon fill="black" stroke="black" points="97.6063,-263.097 105.016,-270.67 103.946,-260.129 97.6063,-263.097"/>
<text text-anchor="middle" x="99.5" y="-238.9" font-family="Times Roman,serif" font-size="14.00">a</text>
</g>
<!-- q3 -->
<g id="node8" class="node"><title>q3</title>
<ellipse fill="none" stroke="black" cx="27" cy="-108" rx="27" ry="18"/>
<text text-anchor="middle" x="27" y="-103.9" font-family="Times Roman,serif" font-size="14.00">q3</text>
</g>
<!-- q0&#45;&gt;q3 -->
<g id="edge14" class="edge"><title>q0&#45;&gt;q3</title>
<path fill="none" stroke="black" d="M52.3624,-184.962C45.0937,-178.856 37.4517,-170.951 33,-162 29.0878,-154.134 27.2281,-144.845 26.4451,-136.208"/>
<polygon fill="black" stroke="black" points="29.9372,-135.957 25.9586,-126.137 22.9453,-136.295 29.9372,-135.957"/>
<text text-anchor="middle" x="37.5" y="-148.9" font-family="Times Roman,serif" font-size="14.00">b</text>
</g>
<!-- q4&#45;&gt;q1 -->
<g id="edge6" class="edge"><title>q4&#45;&gt;q1</title>
<path fill="none" stroke="black" d="M118.287,-35.0116C121.317,-40.8332 124.278,-47.5165 126,-54 130.113,-69.4878 127.466,-73.9842 128,-90 128.225,-96.7538 130.531,-242.991 129,-252 128.487,-255.022 127.769,-258.119 126.929,-261.187"/>
<polygon fill="black" stroke="black" points="123.579,-260.173 123.919,-270.762 130.257,-262.272 123.579,-260.173"/>
<text text-anchor="middle" x="133.5" y="-148.9" font-family="Times Roman,serif" font-size="14.00">b</text>
</g>
<!-- q4&#45;&gt;q0 -->
<g id="edge8" class="edge"><title>q4&#45;&gt;q0</title>
<path fill="none" stroke="black" d="M104.332,-35.8447C97.8877,-67.1952 84.4883,-132.381 76.7854,-169.855"/>
<polygon fill="black" stroke="black" points="73.2682,-169.583 74.683,-180.083 80.1248,-170.992 73.2682,-169.583"/>
<text text-anchor="middle" x="97.5" y="-103.9" font-family="Times Roman,serif" font-size="14.00">a</text>
</g>
<!-- q3&#45;&gt;q0 -->
<g id="edge10" class="edge"><title>q3&#45;&gt;q0</title>
<path fill="none" stroke="black" d="M35.4576,-125.3C41.8422,-138.359 50.7173,-156.513 58.0015,-171.412"/>
<polygon fill="black" stroke="black" points="54.9799,-173.2 62.5164,-180.647 61.2686,-170.126 54.9799,-173.2"/>
<text text-anchor="middle" x="57.5" y="-148.9" font-family="Times Roman,serif" font-size="14.00">b</text>
</g>
<!-- q3&#45;&gt;q4 -->
<g id="edge12" class="edge"><title>q3&#45;&gt;q4</title>
<path fill="none" stroke="black" d="M38.0449,-91.2242C45.638,-80.186 56.2555,-65.6755 67,-54 71.8269,-48.7549 77.3586,-43.4828 82.7638,-38.6528"/>
<polygon fill="black" stroke="black" points="85.2341,-41.1433 90.4956,-31.9472 80.6478,-35.855 85.2341,-41.1433"/>
<text text-anchor="middle" x="72.5" y="-58.9" font-family="Times Roman,serif" font-size="14.00">a</text>
</g>
</g>
</svg>
