<?xml version="1.0" encoding="UTF-8" standalone="no"?>
<!DOCTYPE svg PUBLIC "-//W3C//DTD SVG 1.1//EN"
 "http://www.w3.org/Graphics/SVG/1.1/DTD/svg11.dtd">
<!-- Generated by graphviz version 2.26.3 (20100126.1600)
 -->
<!-- Title: G Pages: 1 -->
<svg width="238pt" height="322pt"
 viewBox="0.00 0.00 238.26 322.00" xmlns="http://www.w3.org/2000/svg" xmlns:xlink="http://www.w3.org/1999/xlink">
<g id="graph1" class="graph" transform="scale(1 1) rotate(0) translate(4 318)">
<title>G</title>
<polygon fill="white" stroke="white" points="-4,5 -4,-318 235.262,-318 235.262,5 -4,5"/>
<!-- q2 -->
<g id="node1" class="node"><title>q2</title>
<ellipse fill="none" stroke="black" cx="46.2617" cy="-111" rx="27" ry="18.3848"/>
<text text-anchor="middle" x="46.2617" y="-107.4" font-family="Times Roman,serif" font-size="14.00">q2</text>
</g>
<!-- q1 -->
<g id="node3" class="node"><title>q1</title>
<ellipse fill="none" stroke="black" cx="82.2617" cy="-19" rx="27" ry="18.3848"/>
<text text-anchor="middle" x="82.2617" y="-15.4" font-family="Times Roman,serif" font-size="14.00">q1</text>
</g>
<!-- q2&#45;&gt;q1 -->
<g id="edge2" class="edge"><title>q2&#45;&gt;q1</title>
<path fill="none" stroke="black" d="M25.8431,-98.8409C10.3887,-88.021 -6.624,-71.5462 3.2617,-56 12.8182,-40.9715 30.2643,-31.9426 46.3355,-26.5725"/>
<polygon fill="black" stroke="black" points="47.4902,-29.8808 56.0815,-23.6808 45.499,-23.1699 47.4902,-29.8808"/>
<text text-anchor="middle" x="7.7617" y="-61.4" font-family="Times Roman,serif" font-size="14.00">b</text>
</g>
<!-- q2&#45;&gt;q1 -->
<g id="edge4" class="edge"><title>q2&#45;&gt;q1</title>
<path fill="none" stroke="black" d="M37.2655,-93.43C32.8442,-82.2575 29.5632,-67.7385 35.2617,-56 38.9607,-48.3803 45.0736,-41.8601 51.6867,-36.5123"/>
<polygon fill="black" stroke="black" points="54.1309,-39.0644 60.1868,-30.3709 50.0313,-33.3904 54.1309,-39.0644"/>
<text text-anchor="middle" x="39.7617" y="-61.4" font-family="Times Roman,serif" font-size="14.00">a</text>
</g>
<!-- q1&#45;&gt;q2 -->
<g id="edge6" class="edge"><title>q1&#45;&gt;q2</title>
<path fill="none" stroke="black" d="M74.8635,-37.0369C72.4172,-43.057 69.6986,-49.8081 67.2617,-56 63.7806,-64.8451 60.0573,-74.5222 56.7271,-83.2595"/>
<polygon fill="black" stroke="black" points="53.4467,-82.0393 53.1683,-92.6304 59.9907,-84.5246 53.4467,-82.0393"/>
<text text-anchor="middle" x="72.7617" y="-61.4" font-family="Times Roman,serif" font-size="14.00">b</text>
</g>
<!-- q1&#45;&gt;q2 -->
<g id="edge8" class="edge"><title>q1&#45;&gt;q2</title>
<path fill="none" stroke="black" d="M82.8171,-37.7337C82.5158,-48.6869 81.0295,-62.5632 76.2617,-74 74.245,-78.8375 71.3883,-83.5473 68.231,-87.8964"/>
<polygon fill="black" stroke="black" points="65.4559,-85.7624 61.9309,-95.7536 70.9172,-90.1413 65.4559,-85.7624"/>
<text text-anchor="middle" x="84.7617" y="-61.4" font-family="Times Roman,serif" font-size="14.00">a</text>
</g>
<!-- q4 -->
<g id="node7" class="node"><title>q4</title>
<ellipse fill="none" stroke="black" cx="138.262" cy="-295" rx="27" ry="18.3848"/>
<text text-anchor="middle" x="138.262" y="-291.4" font-family="Times Roman,serif" font-size="14.00">q4</text>
</g>
<!-- q4&#45;&gt;q4 -->
<g id="edge12" class="edge"><title>q4&#45;&gt;q4</title>
<path fill="none" stroke="black" d="M162.336,-303.454C173.504,-304.377 183.262,-301.559 183.262,-295 183.262,-290.593 178.857,-287.875 172.579,-286.846"/>
<polygon fill="black" stroke="black" points="172.434,-283.34 162.336,-286.546 172.229,-290.337 172.434,-283.34"/>
<text text-anchor="middle" x="187.762" y="-291.4" font-family="Times Roman,serif" font-size="14.00">a</text>
</g>
<!-- q0 -->
<g id="node9" class="node"><title>q0</title>
<ellipse fill="none" stroke="black" cx="138.262" cy="-203" rx="27" ry="18.3848"/>
<text text-anchor="middle" x="138.262" y="-199.4" font-family="Times Roman,serif" font-size="14.00">q0</text>
</g>
<!-- q4&#45;&gt;q0 -->
<g id="edge10" class="edge"><title>q4&#45;&gt;q0</title>
<path fill="none" stroke="black" d="M138.262,-276.382C138.262,-263.538 138.262,-246.216 138.262,-231.627"/>
<polygon fill="black" stroke="black" points="141.762,-231.59 138.262,-221.59 134.762,-231.59 141.762,-231.59"/>
<text text-anchor="middle" x="142.762" y="-245.4" font-family="Times Roman,serif" font-size="14.00">b</text>
</g>
<!-- q0&#45;&gt;q1 -->
<g id="edge20" class="edge"><title>q0&#45;&gt;q1</title>
<path fill="none" stroke="black" d="M132.687,-184.685C122.876,-152.447 102.462,-85.3721 90.8416,-47.1911"/>
<polygon fill="black" stroke="black" points="94.0734,-45.7889 87.8134,-37.2412 87.3767,-47.8271 94.0734,-45.7889"/>
<text text-anchor="middle" x="119.762" y="-107.4" font-family="Times Roman,serif" font-size="14.00">a</text>
</g>
<!-- q3 -->
<g id="node11" class="node"><title>q3</title>
<ellipse fill="none" stroke="black" cx="176.262" cy="-111" rx="27" ry="18.3848"/>
<text text-anchor="middle" x="176.262" y="-107.4" font-family="Times Roman,serif" font-size="14.00">q3</text>
</g>
<!-- q0&#45;&gt;q3 -->
<g id="edge18" class="edge"><title>q0&#45;&gt;q3</title>
<path fill="none" stroke="black" d="M145.769,-184.824C151.27,-171.507 158.828,-153.207 165.044,-138.159"/>
<polygon fill="black" stroke="black" points="168.316,-139.404 168.899,-128.825 161.846,-136.732 168.316,-139.404"/>
<text text-anchor="middle" x="164.762" y="-153.4" font-family="Times Roman,serif" font-size="14.00">b</text>
</g>
<!-- q3&#45;&gt;q1 -->
<g id="edge16" class="edge"><title>q3&#45;&gt;q1</title>
<path fill="none" stroke="black" d="M165.723,-93.4534C158.344,-82.0165 147.774,-67.1937 136.262,-56 128.944,-48.8854 120.116,-42.2091 111.736,-36.5392"/>
<polygon fill="black" stroke="black" points="113.54,-33.5373 103.249,-31.0187 109.723,-39.4052 113.54,-33.5373"/>
<text text-anchor="middle" x="154.762" y="-61.4" font-family="Times Roman,serif" font-size="14.00">a</text>
</g>
<!-- q3&#45;&gt;q3 -->
<g id="edge14" class="edge"><title>q3&#45;&gt;q3</title>
<path fill="none" stroke="black" d="M200.336,-119.454C211.504,-120.377 221.262,-117.559 221.262,-111 221.262,-106.593 216.857,-103.875 210.579,-102.846"/>
<polygon fill="black" stroke="black" points="210.434,-99.3402 200.336,-102.546 210.229,-106.337 210.434,-99.3402"/>
<text text-anchor="middle" x="225.762" y="-107.4" font-family="Times Roman,serif" font-size="14.00">b</text>
</g>
</g>
</svg>
