<?xml version="1.0" encoding="UTF-8" standalone="no"?>
<!DOCTYPE svg PUBLIC "-//W3C//DTD SVG 1.1//EN"
 "http://www.w3.org/Graphics/SVG/1.1/DTD/svg11.dtd">
<!-- Generated by graphviz version 2.26.3 (20100126.1600)
 -->
<!-- Title: G Pages: 1 -->
<svg width="237pt" height="600pt"
 viewBox="0.00 0.00 237.00 600.00" xmlns="http://www.w3.org/2000/svg" xmlns:xlink="http://www.w3.org/1999/xlink">
<g id="graph1" class="graph" transform="scale(1 1) rotate(0) translate(4 596)">
<title>G</title>
<polygon fill="white" stroke="white" points="-4,5 -4,-596 234,-596 234,5 -4,5"/>
<!-- q6 -->
<g id="node1" class="node"><title>q6</title>
<ellipse fill="none" stroke="black" cx="137" cy="-476" rx="27" ry="18"/>
<text text-anchor="middle" x="137" y="-471.9" font-family="Times Roman,serif" font-size="14.00">q6</text>
</g>
<!-- q6&#45;&gt;q6 -->
<g id="edge2" class="edge"><title>q6&#45;&gt;q6</title>
<path fill="none" stroke="black" d="M161.532,-484.121C172.508,-484.895 182,-482.188 182,-476 182,-471.843 177.715,-469.257 171.574,-468.242"/>
<polygon fill="black" stroke="black" points="171.652,-464.742 161.532,-467.879 171.4,-471.738 171.652,-464.742"/>
<text text-anchor="middle" x="186.5" y="-471.9" font-family="Times Roman,serif" font-size="14.00">b</text>
</g>
<!-- q4 -->
<g id="node4" class="node"><title>q4</title>
<ellipse fill="none" stroke="black" cx="131" cy="-386" rx="27" ry="18"/>
<text text-anchor="middle" x="131" y="-381.9" font-family="Times Roman,serif" font-size="14.00">q4</text>
</g>
<!-- q6&#45;&gt;q4 -->
<g id="edge4" class="edge"><title>q6&#45;&gt;q4</title>
<path fill="none" stroke="black" d="M135.786,-457.787C134.956,-445.344 133.84,-428.605 132.895,-414.421"/>
<polygon fill="black" stroke="black" points="136.37,-413.931 132.212,-404.186 129.385,-414.396 136.37,-413.931"/>
<text text-anchor="middle" x="138.5" y="-426.9" font-family="Times Roman,serif" font-size="14.00">a</text>
</g>
<!-- q2 -->
<g id="node9" class="node"><title>q2</title>
<ellipse fill="none" stroke="black" cx="90" cy="-296" rx="27" ry="18"/>
<text text-anchor="middle" x="90" y="-291.9" font-family="Times Roman,serif" font-size="14.00">q2</text>
</g>
<!-- q4&#45;&gt;q2 -->
<g id="edge18" class="edge"><title>q4&#45;&gt;q2</title>
<path fill="none" stroke="black" d="M112.12,-373.078C104.81,-366.992 97.2032,-359.07 93,-350 89.3512,-342.126 87.946,-332.9 87.64,-324.323"/>
<polygon fill="black" stroke="black" points="91.1398,-324.351 87.7349,-314.319 84.1401,-324.285 91.1398,-324.351"/>
<text text-anchor="middle" x="97.5" y="-336.9" font-family="Times Roman,serif" font-size="14.00">b</text>
</g>
<!-- q3 -->
<g id="node14" class="node"><title>q3</title>
<ellipse fill="none" stroke="black" cx="128" cy="-18" rx="27" ry="18"/>
<text text-anchor="middle" x="128" y="-13.9" font-family="Times Roman,serif" font-size="14.00">q3</text>
</g>
<!-- q4&#45;&gt;q3 -->
<g id="edge20" class="edge"><title>q4&#45;&gt;q3</title>
<path fill="none" stroke="black" d="M143.901,-370.172C156.567,-352.995 174,-324.226 174,-296 174,-296 174,-296 174,-112 174,-86.2373 159.887,-60.1752 147.296,-42.0492"/>
<polygon fill="black" stroke="black" points="150.022,-39.8471 141.305,-33.8247 144.364,-43.9685 150.022,-39.8471"/>
<text text-anchor="middle" x="178.5" y="-201.9" font-family="Times Roman,serif" font-size="14.00">a</text>
</g>
<!-- q5 -->
<g id="node5" class="node"><title>q5</title>
<ellipse fill="none" stroke="black" cx="35" cy="-206" rx="27" ry="18"/>
<text text-anchor="middle" x="35" y="-201.9" font-family="Times Roman,serif" font-size="14.00">q5</text>
</g>
<!-- q1 -->
<g id="node7" class="node"><title>q1</title>
<ellipse fill="none" stroke="black" cx="31" cy="-112" rx="27" ry="18"/>
<ellipse fill="none" stroke="black" cx="31" cy="-112" rx="31" ry="22"/>
<text text-anchor="middle" x="31" y="-107.9" font-family="Times Roman,serif" font-size="14.00">q1</text>
</g>
<!-- q5&#45;&gt;q1 -->
<g id="edge6" class="edge"><title>q5&#45;&gt;q1</title>
<path fill="none" stroke="black" d="M24.1242,-189.47C20.8398,-183.574 17.6652,-176.723 16,-170 13.7834,-161.051 14.9002,-151.346 17.3077,-142.481"/>
<polygon fill="black" stroke="black" points="20.6546,-143.507 20.4654,-132.914 14.0073,-141.313 20.6546,-143.507"/>
<text text-anchor="middle" x="20.5" y="-156.9" font-family="Times Roman,serif" font-size="14.00">b</text>
</g>
<!-- q5&#45;&gt;q2 -->
<g id="edge8" class="edge"><title>q5&#45;&gt;q2</title>
<path fill="none" stroke="black" d="M44.9432,-223.112C51.1878,-233.776 59.46,-247.75 67,-260 69.126,-263.454 71.3933,-267.075 73.6445,-270.635"/>
<polygon fill="black" stroke="black" points="70.7922,-272.671 79.1176,-279.224 76.6956,-268.91 70.7922,-272.671"/>
<text text-anchor="middle" x="71.5" y="-246.9" font-family="Times Roman,serif" font-size="14.00">a</text>
</g>
<!-- q1&#45;&gt;q5 -->
<g id="edge14" class="edge"><title>q1&#45;&gt;q5</title>
<path fill="none" stroke="black" d="M31.9378,-134.039C32.4934,-147.096 33.2031,-163.773 33.7994,-177.785"/>
<polygon fill="black" stroke="black" points="30.3067,-178.034 34.2288,-187.876 37.3004,-177.736 30.3067,-178.034"/>
<text text-anchor="middle" x="38.5" y="-156.9" font-family="Times Roman,serif" font-size="14.00">b</text>
</g>
<!-- q1&#45;&gt;q3 -->
<g id="edge16" class="edge"><title>q1&#45;&gt;q3</title>
<path fill="none" stroke="black" d="M40.8656,-90.9547C47.1542,-79.1062 56.1542,-64.6062 67,-54 75.4814,-45.706 86.2328,-38.5508 96.339,-32.8539"/>
<polygon fill="black" stroke="black" points="98.1815,-35.8379 105.355,-28.0412 94.8851,-29.6625 98.1815,-35.8379"/>
<text text-anchor="middle" x="71.5" y="-58.9" font-family="Times Roman,serif" font-size="14.00">a</text>
</g>
<!-- q2&#45;&gt;q4 -->
<g id="edge10" class="edge"><title>q2&#45;&gt;q4</title>
<path fill="none" stroke="black" d="M97.8809,-313.3C103.83,-326.359 112.1,-344.513 118.888,-359.412"/>
<polygon fill="black" stroke="black" points="115.764,-360.998 123.095,-368.647 122.134,-358.096 115.764,-360.998"/>
<text text-anchor="middle" x="118.5" y="-336.9" font-family="Times Roman,serif" font-size="14.00">b</text>
</g>
<!-- q2&#45;&gt;q5 -->
<g id="edge12" class="edge"><title>q2&#45;&gt;q5</title>
<path fill="none" stroke="black" d="M69.1648,-284.551C60.0152,-278.454 50.0072,-270.114 44,-260 39.4453,-252.331 37.0205,-243.029 35.7761,-234.32"/>
<polygon fill="black" stroke="black" points="39.2375,-233.754 34.7798,-224.143 32.2708,-234.436 39.2375,-233.754"/>
<text text-anchor="middle" x="48.5" y="-246.9" font-family="Times Roman,serif" font-size="14.00">a</text>
</g>
<!-- q3&#45;&gt;q2 -->
<g id="edge22" class="edge"><title>q3&#45;&gt;q2</title>
<path fill="none" stroke="black" d="M120.452,-35.3411C118.125,-41.1847 115.725,-47.7978 114,-54 93.1013,-129.125 89.8656,-221.812 89.6845,-267.618"/>
<polygon fill="black" stroke="black" points="86.1845,-267.701 89.6923,-277.698 93.1845,-267.695 86.1845,-267.701"/>
<text text-anchor="middle" x="100.5" y="-156.9" font-family="Times Roman,serif" font-size="14.00">b</text>
</g>
<!-- q3&#45;&gt;q2 -->
<g id="edge24" class="edge"><title>q3&#45;&gt;q2</title>
<path fill="none" stroke="black" d="M127.873,-36.1898C127.228,-76.8741 123.602,-178.084 104,-260 103.274,-263.033 102.35,-266.151 101.324,-269.225"/>
<polygon fill="black" stroke="black" points="97.9958,-268.134 97.8146,-278.728 104.562,-270.56 97.9958,-268.134"/>
<text text-anchor="middle" x="125.5" y="-156.9" font-family="Times Roman,serif" font-size="14.00">a</text>
</g>
<!-- q0 -->
<g id="node19" class="node"><title>q0</title>
<ellipse fill="none" stroke="black" cx="193" cy="-570" rx="27" ry="18"/>
<ellipse fill="none" stroke="black" cx="193" cy="-570" rx="31" ry="22"/>
<text text-anchor="middle" x="193" y="-565.9" font-family="Times Roman,serif" font-size="14.00">q0</text>
</g>
<!-- q0&#45;&gt;q6 -->
<g id="edge28" class="edge"><title>q0&#45;&gt;q6</title>
<path fill="none" stroke="black" d="M180.849,-549.603C172.484,-535.563 161.306,-516.799 152.329,-501.731"/>
<polygon fill="black" stroke="black" points="155.194,-499.702 147.069,-492.902 149.181,-503.284 155.194,-499.702"/>
<text text-anchor="middle" x="172.5" y="-516.9" font-family="Times Roman,serif" font-size="14.00">a</text>
</g>
<!-- q0&#45;&gt;q3 -->
<g id="edge26" class="edge"><title>q0&#45;&gt;q3</title>
<path fill="none" stroke="black" d="M202.748,-548.842C210.481,-530.108 220,-501.809 220,-476 220,-476 220,-476 220,-112 220,-76.4577 185.991,-49.3864 159.328,-33.624"/>
<polygon fill="black" stroke="black" points="160.702,-30.3811 150.271,-28.525 157.267,-36.4808 160.702,-30.3811"/>
<text text-anchor="middle" x="224.5" y="-291.9" font-family="Times Roman,serif" font-size="14.00">b</text>
</g>
</g>
</svg>
