<?xml version="1.0" encoding="UTF-8" standalone="no"?>
<!DOCTYPE svg PUBLIC "-//W3C//DTD SVG 1.1//EN"
 "http://www.w3.org/Graphics/SVG/1.1/DTD/svg11.dtd">
<!-- Generated by graphviz version 2.26.3 (20100126.1600)
 -->
<!-- Title: G Pages: 1 -->
<svg width="169pt" height="412pt"
 viewBox="0.00 0.00 169.29 412.00" xmlns="http://www.w3.org/2000/svg" xmlns:xlink="http://www.w3.org/1999/xlink">
<g id="graph1" class="graph" transform="scale(1 1) rotate(0) translate(4 408)">
<title>G</title>
<polygon fill="white" stroke="white" points="-4,5 -4,-408 166.289,-408 166.289,5 -4,5"/>
<!-- q6 -->
<g id="node1" class="node"><title>q6</title>
<ellipse fill="none" stroke="black" cx="87.2886" cy="-386" rx="27" ry="18"/>
<text text-anchor="middle" x="87.2886" y="-381.9" font-family="Times Roman,serif" font-size="14.00">q6</text>
</g>
<!-- q6&#45;&gt;q6 -->
<g id="edge2" class="edge"><title>q6&#45;&gt;q6</title>
<path fill="none" stroke="black" d="M111.821,-394.121C122.796,-394.895 132.289,-392.188 132.289,-386 132.289,-381.843 128.004,-379.257 121.863,-378.242"/>
<polygon fill="black" stroke="black" points="121.941,-374.742 111.821,-377.879 121.688,-381.738 121.941,-374.742"/>
<text text-anchor="middle" x="136.789" y="-381.9" font-family="Times Roman,serif" font-size="14.00">b</text>
</g>
<!-- q4 -->
<g id="node4" class="node"><title>q4</title>
<ellipse fill="none" stroke="black" cx="87.2886" cy="-296" rx="27" ry="18"/>
<text text-anchor="middle" x="87.2886" y="-291.9" font-family="Times Roman,serif" font-size="14.00">q4</text>
</g>
<!-- q6&#45;&gt;q4 -->
<g id="edge4" class="edge"><title>q6&#45;&gt;q4</title>
<path fill="none" stroke="black" d="M87.2886,-367.787C87.2886,-355.344 87.2886,-338.605 87.2886,-324.421"/>
<polygon fill="black" stroke="black" points="90.7887,-324.186 87.2886,-314.186 83.7887,-324.186 90.7887,-324.186"/>
<text text-anchor="middle" x="91.7886" y="-336.9" font-family="Times Roman,serif" font-size="14.00">a</text>
</g>
<!-- q2 -->
<g id="node10" class="node"><title>q2</title>
<ellipse fill="none" stroke="black" cx="55.2886" cy="-206" rx="27" ry="18"/>
<text text-anchor="middle" x="55.2886" y="-201.9" font-family="Times Roman,serif" font-size="14.00">q2</text>
</g>
<!-- q4&#45;&gt;q2 -->
<g id="edge14" class="edge"><title>q4&#45;&gt;q2</title>
<path fill="none" stroke="black" d="M65.2291,-285.068C55.7115,-279.085 45.5666,-270.691 40.2886,-260 35.9868,-251.286 37.3246,-241.152 40.5565,-232.033"/>
<polygon fill="black" stroke="black" points="43.8579,-233.217 44.6295,-222.65 37.4368,-230.43 43.8579,-233.217"/>
<text text-anchor="middle" x="44.7886" y="-246.9" font-family="Times Roman,serif" font-size="14.00">b</text>
</g>
<!-- q4&#45;&gt;q2 -->
<g id="edge16" class="edge"><title>q4&#45;&gt;q2</title>
<path fill="none" stroke="black" d="M79.6458,-278.546C77.1832,-272.695 74.5168,-266.106 72.2886,-260 69.2226,-251.598 66.1883,-242.346 63.5505,-233.91"/>
<polygon fill="black" stroke="black" points="66.8316,-232.671 60.5542,-224.136 60.1391,-234.723 66.8316,-232.671"/>
<text text-anchor="middle" x="76.7886" y="-246.9" font-family="Times Roman,serif" font-size="14.00">a</text>
</g>
<!-- q5 -->
<g id="node5" class="node"><title>q5</title>
<ellipse fill="none" stroke="black" cx="93.2886" cy="-116" rx="27" ry="18"/>
<text text-anchor="middle" x="93.2886" y="-111.9" font-family="Times Roman,serif" font-size="14.00">q5</text>
</g>
<!-- q0 -->
<g id="node7" class="node"><title>q0</title>
<ellipse fill="none" stroke="black" cx="130.289" cy="-22" rx="27" ry="18"/>
<ellipse fill="none" stroke="black" cx="130.289" cy="-22" rx="31" ry="22"/>
<text text-anchor="middle" x="130.289" y="-17.9" font-family="Times Roman,serif" font-size="14.00">q0</text>
</g>
<!-- q5&#45;&gt;q0 -->
<g id="edge6" class="edge"><title>q5&#45;&gt;q0</title>
<path fill="none" stroke="black" d="M92.8716,-97.8922C93.2082,-87.1125 94.6835,-73.3649 99.2886,-62 101.169,-57.3586 103.749,-52.8011 106.624,-48.5202"/>
<polygon fill="black" stroke="black" points="109.662,-50.2998 112.809,-40.1832 104.04,-46.129 109.662,-50.2998"/>
<text text-anchor="middle" x="103.789" y="-66.9" font-family="Times Roman,serif" font-size="14.00">b</text>
</g>
<!-- q3 -->
<g id="node9" class="node"><title>q3</title>
<ellipse fill="none" stroke="black" cx="33.2886" cy="-22" rx="27" ry="18"/>
<text text-anchor="middle" x="33.2886" y="-17.9" font-family="Times Roman,serif" font-size="14.00">q3</text>
</g>
<!-- q5&#45;&gt;q3 -->
<g id="edge8" class="edge"><title>q5&#45;&gt;q3</title>
<path fill="none" stroke="black" d="M82.5618,-99.1947C73.3471,-84.7583 59.9253,-63.7309 49.4161,-47.2665"/>
<polygon fill="black" stroke="black" points="52.2532,-45.2059 43.9225,-38.6598 46.3527,-48.9722 52.2532,-45.2059"/>
<text text-anchor="middle" x="72.7886" y="-66.9" font-family="Times Roman,serif" font-size="14.00">a</text>
</g>
<!-- q0&#45;&gt;q4 -->
<g id="edge24" class="edge"><title>q0&#45;&gt;q4</title>
<path fill="none" stroke="black" d="M131.591,-43.9908C132.583,-66.6474 133.194,-102.938 129.289,-134 122.094,-191.219 113.609,-204.402 98.2886,-260 97.5491,-262.684 96.7512,-265.471 95.9347,-268.253"/>
<polygon fill="black" stroke="black" points="92.498,-267.527 92.9678,-278.112 99.2011,-269.544 92.498,-267.527"/>
<text text-anchor="middle" x="130.789" y="-156.9" font-family="Times Roman,serif" font-size="14.00">a</text>
</g>
<!-- q0&#45;&gt;q5 -->
<g id="edge22" class="edge"><title>q0&#45;&gt;q5</title>
<path fill="none" stroke="black" d="M122.304,-43.5484C118.199,-54.4975 113.066,-67.9921 108.289,-80 107.125,-82.9254 105.889,-85.9758 104.645,-89.0093"/>
<polygon fill="black" stroke="black" points="101.32,-87.89 100.727,-98.4682 107.788,-90.5692 101.32,-87.89"/>
<text text-anchor="middle" x="118.789" y="-66.9" font-family="Times Roman,serif" font-size="14.00">b</text>
</g>
<!-- q3&#45;&gt;q2 -->
<g id="edge18" class="edge"><title>q3&#45;&gt;q2</title>
<path fill="none" stroke="black" d="M23.2173,-38.9451C11.4935,-60.7674 -5.34849,-99.9421 2.28861,-134 6.1602,-151.265 9.1045,-155.53 19.2886,-170 22.8084,-175.001 27.0551,-179.928 31.3788,-184.456"/>
<polygon fill="black" stroke="black" points="29.052,-187.078 38.6132,-191.643 33.9853,-182.112 29.052,-187.078"/>
<text text-anchor="middle" x="6.78861" y="-111.9" font-family="Times Roman,serif" font-size="14.00">b</text>
</g>
<!-- q3&#45;&gt;q2 -->
<g id="edge20" class="edge"><title>q3&#45;&gt;q2</title>
<path fill="none" stroke="black" d="M35.4468,-40.0507C39.2977,-72.2577 47.3767,-139.828 51.9489,-178.068"/>
<polygon fill="black" stroke="black" points="48.4766,-178.509 53.1391,-188.022 55.4271,-177.677 48.4766,-178.509"/>
<text text-anchor="middle" x="51.7886" y="-111.9" font-family="Times Roman,serif" font-size="14.00">a</text>
</g>
<!-- q2&#45;&gt;q4 -->
<g id="edge10" class="edge"><title>q2&#45;&gt;q4</title>
<path fill="none" stroke="black" d="M69.3959,-221.799C73.9405,-227.74 78.5146,-234.807 81.2886,-242 84.391,-250.045 86.0428,-259.229 86.8845,-267.713"/>
<polygon fill="black" stroke="black" points="83.4092,-268.202 87.5655,-277.948 90.3937,-267.737 83.4092,-268.202"/>
<text text-anchor="middle" x="89.7886" y="-246.9" font-family="Times Roman,serif" font-size="14.00">b</text>
</g>
<!-- q2&#45;&gt;q5 -->
<g id="edge12" class="edge"><title>q2&#45;&gt;q5</title>
<path fill="none" stroke="black" d="M62.6154,-188.647C68.0476,-175.781 75.5583,-157.993 81.7879,-143.239"/>
<polygon fill="black" stroke="black" points="85.1893,-144.181 85.8547,-133.607 78.7405,-141.458 85.1893,-144.181"/>
<text text-anchor="middle" x="81.7886" y="-156.9" font-family="Times Roman,serif" font-size="14.00">a</text>
</g>
</g>
</svg>
