<?xml version="1.0" encoding="UTF-8" standalone="no"?>
<!DOCTYPE svg PUBLIC "-//W3C//DTD SVG 1.1//EN"
 "http://www.w3.org/Graphics/SVG/1.1/DTD/svg11.dtd">
<!-- Generated by graphviz version 2.26.3 (20100126.1600)
 -->
<!-- Title: G Pages: 1 -->
<svg width="172pt" height="414pt"
 viewBox="0.00 0.00 172.00 414.00" xmlns="http://www.w3.org/2000/svg" xmlns:xlink="http://www.w3.org/1999/xlink">
<g id="graph1" class="graph" transform="scale(1 1) rotate(0) translate(4 410)">
<title>G</title>
<polygon fill="white" stroke="white" points="-4,5 -4,-410 169,-410 169,5 -4,5"/>
<!-- q5 -->
<g id="node1" class="node"><title>q5</title>
<ellipse fill="none" stroke="black" cx="92" cy="-295" rx="27" ry="18.3848"/>
<text text-anchor="middle" x="92" y="-291.4" font-family="Times Roman,serif" font-size="14.00">q5</text>
</g>
<!-- q5&#45;&gt;q5 -->
<g id="edge4" class="edge"><title>q5&#45;&gt;q5</title>
<path fill="none" stroke="black" d="M116.074,-303.454C127.242,-304.377 137,-301.559 137,-295 137,-290.593 132.595,-287.875 126.317,-286.846"/>
<polygon fill="black" stroke="black" points="126.173,-283.34 116.074,-286.546 125.967,-290.337 126.173,-283.34"/>
<text text-anchor="middle" x="141.5" y="-291.4" font-family="Times Roman,serif" font-size="14.00">a</text>
</g>
<!-- q2 -->
<g id="node3" class="node"><title>q2</title>
<ellipse fill="none" stroke="black" cx="112" cy="-203" rx="27" ry="18.3848"/>
<text text-anchor="middle" x="112" y="-199.4" font-family="Times Roman,serif" font-size="14.00">q2</text>
</g>
<!-- q5&#45;&gt;q2 -->
<g id="edge2" class="edge"><title>q5&#45;&gt;q2</title>
<path fill="none" stroke="black" d="M96.0473,-276.382C98.8395,-263.538 102.605,-246.216 105.777,-231.627"/>
<polygon fill="black" stroke="black" points="109.254,-232.105 107.959,-221.59 102.414,-230.618 109.254,-232.105"/>
<text text-anchor="middle" x="107.5" y="-245.4" font-family="Times Roman,serif" font-size="14.00">b</text>
</g>
<!-- q0 -->
<g id="node6" class="node"><title>q0</title>
<ellipse fill="none" stroke="black" cx="58" cy="-111" rx="27" ry="18.3848"/>
<text text-anchor="middle" x="58" y="-107.4" font-family="Times Roman,serif" font-size="14.00">q0</text>
</g>
<!-- q2&#45;&gt;q0 -->
<g id="edge6" class="edge"><title>q2&#45;&gt;q0</title>
<path fill="none" stroke="black" d="M101.843,-185.696C93.7726,-171.946 82.3594,-152.501 73.2009,-136.898"/>
<polygon fill="black" stroke="black" points="76.192,-135.079 68.1114,-128.227 70.155,-138.623 76.192,-135.079"/>
<text text-anchor="middle" x="93.5" y="-153.4" font-family="Times Roman,serif" font-size="14.00">b</text>
</g>
<!-- q1 -->
<g id="node8" class="node"><title>q1</title>
<ellipse fill="none" stroke="black" cx="108" cy="-19" rx="27" ry="18.3848"/>
<text text-anchor="middle" x="108" y="-15.4" font-family="Times Roman,serif" font-size="14.00">q1</text>
</g>
<!-- q2&#45;&gt;q1 -->
<g id="edge8" class="edge"><title>q2&#45;&gt;q1</title>
<path fill="none" stroke="black" d="M111.594,-184.345C110.897,-152.247 109.464,-86.3485 108.634,-48.1485"/>
<polygon fill="black" stroke="black" points="112.123,-47.6264 108.407,-37.7049 105.125,-47.7786 112.123,-47.6264"/>
<text text-anchor="middle" x="114.5" y="-107.4" font-family="Times Roman,serif" font-size="14.00">a</text>
</g>
<!-- q0&#45;&gt;q5 -->
<g id="edge22" class="edge"><title>q0&#45;&gt;q5</title>
<path fill="none" stroke="black" d="M58.1025,-129.663C58.5476,-151.884 60.3349,-190.012 67,-222 70.201,-237.362 75.7071,-253.951 80.7385,-267.426"/>
<polygon fill="black" stroke="black" points="77.5861,-268.979 84.4474,-277.052 84.118,-266.462 77.5861,-268.979"/>
<text text-anchor="middle" x="71.5" y="-199.4" font-family="Times Roman,serif" font-size="14.00">b</text>
</g>
<!-- q0&#45;&gt;q1 -->
<g id="edge24" class="edge"><title>q0&#45;&gt;q1</title>
<path fill="none" stroke="black" d="M57.1051,-92.4099C57.3345,-81.2473 59.0275,-67.1055 65,-56 68.656,-49.202 74.1037,-43.0984 79.9035,-37.9013"/>
<polygon fill="black" stroke="black" points="82.3493,-40.4234 87.8952,-31.396 77.9302,-34.9946 82.3493,-40.4234"/>
<text text-anchor="middle" x="69.5" y="-61.4" font-family="Times Roman,serif" font-size="14.00">a</text>
</g>
<!-- q1&#45;&gt;q5 -->
<g id="edge12" class="edge"><title>q1&#45;&gt;q5</title>
<path fill="none" stroke="black" d="M117.428,-36.5122C135.34,-72.18 170.569,-155.5 148,-222 141.477,-241.219 127.634,-259.344 115.344,-272.725"/>
<polygon fill="black" stroke="black" points="112.74,-270.384 108.354,-280.029 117.797,-275.224 112.74,-270.384"/>
<text text-anchor="middle" x="159.5" y="-153.4" font-family="Times Roman,serif" font-size="14.00">a</text>
</g>
<!-- q1&#45;&gt;q0 -->
<g id="edge10" class="edge"><title>q1&#45;&gt;q0</title>
<path fill="none" stroke="black" d="M98.5587,-36.3721C91.2326,-49.852 80.9478,-68.7761 72.5682,-84.1945"/>
<polygon fill="black" stroke="black" points="69.3405,-82.8039 67.6405,-93.2615 75.4909,-86.1465 69.3405,-82.8039"/>
<text text-anchor="middle" x="91.5" y="-61.4" font-family="Times Roman,serif" font-size="14.00">b</text>
</g>
<!-- q4 -->
<g id="node11" class="node"><title>q4</title>
<ellipse fill="none" stroke="black" cx="27" cy="-387" rx="27" ry="18.3848"/>
<text text-anchor="middle" x="27" y="-383.4" font-family="Times Roman,serif" font-size="14.00">q4</text>
</g>
<!-- q4&#45;&gt;q5 -->
<g id="edge16" class="edge"><title>q4&#45;&gt;q5</title>
<path fill="none" stroke="black" d="M38.922,-370.126C48.8176,-356.12 63.037,-335.994 74.268,-320.098"/>
<polygon fill="black" stroke="black" points="77.2418,-321.954 80.1536,-311.767 71.5247,-317.915 77.2418,-321.954"/>
<text text-anchor="middle" x="69.5" y="-337.4" font-family="Times Roman,serif" font-size="14.00">a</text>
</g>
<!-- q4&#45;&gt;q0 -->
<g id="edge14" class="edge"><title>q4&#45;&gt;q0</title>
<path fill="none" stroke="black" d="M29.0821,-368.462C34.3876,-321.227 48.4422,-196.095 54.7983,-139.505"/>
<polygon fill="black" stroke="black" points="58.2888,-139.785 55.9269,-129.457 51.3325,-139.004 58.2888,-139.785"/>
<text text-anchor="middle" x="47.5" y="-245.4" font-family="Times Roman,serif" font-size="14.00">b</text>
</g>
<!-- q3 -->
<g id="node14" class="node"><title>q3</title>
<ellipse fill="none" stroke="black" cx="106" cy="-387" rx="27" ry="18.3848"/>
<text text-anchor="middle" x="106" y="-383.4" font-family="Times Roman,serif" font-size="14.00">q3</text>
</g>
<!-- q3&#45;&gt;q5 -->
<g id="edge18" class="edge"><title>q3&#45;&gt;q5</title>
<path fill="none" stroke="black" d="M93.0998,-370.629C89.04,-364.51 85.0763,-357.273 83,-350 80.5182,-341.307 81.0471,-331.632 82.7194,-322.851"/>
<polygon fill="black" stroke="black" points="86.137,-323.609 85.0961,-313.065 79.3348,-321.957 86.137,-323.609"/>
<text text-anchor="middle" x="87.5" y="-337.4" font-family="Times Roman,serif" font-size="14.00">b</text>
</g>
<!-- q3&#45;&gt;q5 -->
<g id="edge20" class="edge"><title>q3&#45;&gt;q5</title>
<path fill="none" stroke="black" d="M103.167,-368.382C101.212,-355.538 98.5764,-338.216 96.3563,-323.627"/>
<polygon fill="black" stroke="black" points="99.7936,-322.949 94.8289,-313.59 92.8732,-324.003 99.7936,-322.949"/>
<text text-anchor="middle" x="104.5" y="-337.4" font-family="Times Roman,serif" font-size="14.00">a</text>
</g>
</g>
</svg>
