<?xml version="1.0" encoding="UTF-8" standalone="no"?>
<!DOCTYPE svg PUBLIC "-//W3C//DTD SVG 1.1//EN"
 "http://www.w3.org/Graphics/SVG/1.1/DTD/svg11.dtd">
<!-- Generated by graphviz version 2.26.3 (20100126.1600)
 -->
<!-- Title: G Pages: 1 -->
<svg width="255pt" height="592pt"
 viewBox="0.00 0.00 255.00 592.00" xmlns="http://www.w3.org/2000/svg" xmlns:xlink="http://www.w3.org/1999/xlink">
<g id="graph1" class="graph" transform="scale(1 1) rotate(0) translate(4 588)">
<title>G</title>
<polygon fill="white" stroke="white" points="-4,5 -4,-588 252,-588 252,5 -4,5"/>
<!-- q6 -->
<g id="node1" class="node"><title>q6</title>
<ellipse fill="none" stroke="black" cx="117" cy="-566" rx="27" ry="18"/>
<text text-anchor="middle" x="117" y="-561.9" font-family="Times Roman,serif" font-size="14.00">q6</text>
</g>
<!-- q6&#45;&gt;q6 -->
<g id="edge2" class="edge"><title>q6&#45;&gt;q6</title>
<path fill="none" stroke="black" d="M141.532,-574.121C152.508,-574.895 162,-572.188 162,-566 162,-561.843 157.715,-559.257 151.574,-558.242"/>
<polygon fill="black" stroke="black" points="151.652,-554.742 141.532,-557.879 151.4,-561.738 151.652,-554.742"/>
<text text-anchor="middle" x="166.5" y="-561.9" font-family="Times Roman,serif" font-size="14.00">b</text>
</g>
<!-- q4 -->
<g id="node4" class="node"><title>q4</title>
<ellipse fill="none" stroke="black" cx="117" cy="-476" rx="27" ry="18"/>
<text text-anchor="middle" x="117" y="-471.9" font-family="Times Roman,serif" font-size="14.00">q4</text>
</g>
<!-- q6&#45;&gt;q4 -->
<g id="edge4" class="edge"><title>q6&#45;&gt;q4</title>
<path fill="none" stroke="black" d="M117,-547.787C117,-535.344 117,-518.605 117,-504.421"/>
<polygon fill="black" stroke="black" points="120.5,-504.186 117,-494.186 113.5,-504.186 120.5,-504.186"/>
<text text-anchor="middle" x="121.5" y="-516.9" font-family="Times Roman,serif" font-size="14.00">a</text>
</g>
<!-- q3 -->
<g id="node9" class="node"><title>q3</title>
<ellipse fill="none" stroke="black" cx="117" cy="-386" rx="27" ry="18"/>
<text text-anchor="middle" x="117" y="-381.9" font-family="Times Roman,serif" font-size="14.00">q3</text>
</g>
<!-- q4&#45;&gt;q3 -->
<g id="edge20" class="edge"><title>q4&#45;&gt;q3</title>
<path fill="none" stroke="black" d="M117,-457.787C117,-445.344 117,-428.605 117,-414.421"/>
<polygon fill="black" stroke="black" points="120.5,-414.186 117,-404.186 113.5,-414.186 120.5,-414.186"/>
<text text-anchor="middle" x="121.5" y="-426.9" font-family="Times Roman,serif" font-size="14.00">a</text>
</g>
<!-- q2 -->
<g id="node10" class="node"><title>q2</title>
<ellipse fill="none" stroke="black" cx="27" cy="-296" rx="27" ry="18"/>
<text text-anchor="middle" x="27" y="-291.9" font-family="Times Roman,serif" font-size="14.00">q2</text>
</g>
<!-- q4&#45;&gt;q2 -->
<g id="edge18" class="edge"><title>q4&#45;&gt;q2</title>
<path fill="none" stroke="black" d="M105.363,-459.666C89.249,-436.362 60.1865,-391.758 43,-350 39.5606,-341.643 36.5191,-332.282 34.0367,-323.731"/>
<polygon fill="black" stroke="black" points="37.3358,-322.53 31.2966,-313.825 30.5891,-324.396 37.3358,-322.53"/>
<text text-anchor="middle" x="73.5" y="-381.9" font-family="Times Roman,serif" font-size="14.00">b</text>
</g>
<!-- q5 -->
<g id="node5" class="node"><title>q5</title>
<ellipse fill="none" stroke="black" cx="99" cy="-206" rx="27" ry="18"/>
<text text-anchor="middle" x="99" y="-201.9" font-family="Times Roman,serif" font-size="14.00">q5</text>
</g>
<!-- q1 -->
<g id="node7" class="node"><title>q1</title>
<ellipse fill="none" stroke="black" cx="141" cy="-112" rx="27" ry="18"/>
<ellipse fill="none" stroke="black" cx="141" cy="-112" rx="31" ry="22"/>
<text text-anchor="middle" x="141" y="-107.9" font-family="Times Roman,serif" font-size="14.00">q1</text>
</g>
<!-- q5&#45;&gt;q1 -->
<g id="edge6" class="edge"><title>q5&#45;&gt;q1</title>
<path fill="none" stroke="black" d="M106.9,-188.319C112.631,-175.493 120.529,-157.817 127.281,-142.705"/>
<polygon fill="black" stroke="black" points="130.634,-143.78 131.518,-133.222 124.243,-140.924 130.634,-143.78"/>
<text text-anchor="middle" x="126.5" y="-156.9" font-family="Times Roman,serif" font-size="14.00">b</text>
</g>
<!-- q5&#45;&gt;q3 -->
<g id="edge8" class="edge"><title>q5&#45;&gt;q3</title>
<path fill="none" stroke="black" d="M100.803,-224.031C103.936,-255.357 110.406,-320.061 114.151,-357.514"/>
<polygon fill="black" stroke="black" points="110.697,-358.148 115.175,-367.75 117.663,-357.451 110.697,-358.148"/>
<text text-anchor="middle" x="113.5" y="-291.9" font-family="Times Roman,serif" font-size="14.00">a</text>
</g>
<!-- q1&#45;&gt;q3 -->
<g id="edge16" class="edge"><title>q1&#45;&gt;q3</title>
<path fill="none" stroke="black" d="M141.006,-134.139C140.708,-176.383 138.551,-271.297 126,-350 125.568,-352.71 125.03,-355.514 124.435,-358.307"/>
<polygon fill="black" stroke="black" points="120.995,-357.645 122.105,-368.181 127.808,-359.252 120.995,-357.645"/>
<text text-anchor="middle" x="141.5" y="-246.9" font-family="Times Roman,serif" font-size="14.00">a</text>
</g>
<!-- q0 -->
<g id="node14" class="node"><title>q0</title>
<ellipse fill="none" stroke="black" cx="200" cy="-18" rx="27" ry="18"/>
<text text-anchor="middle" x="200" y="-13.9" font-family="Times Roman,serif" font-size="14.00">q0</text>
</g>
<!-- q1&#45;&gt;q0 -->
<g id="edge14" class="edge"><title>q1&#45;&gt;q0</title>
<path fill="none" stroke="black" d="M153.431,-91.8283C160.338,-80.6577 169.106,-66.5356 177,-54 179.161,-50.5679 181.449,-46.9593 183.71,-43.4062"/>
<polygon fill="black" stroke="black" points="186.76,-45.1331 189.19,-34.8206 180.859,-41.3672 186.76,-45.1331"/>
<text text-anchor="middle" x="181.5" y="-58.9" font-family="Times Roman,serif" font-size="14.00">b</text>
</g>
<!-- q3&#45;&gt;q2 -->
<g id="edge22" class="edge"><title>q3&#45;&gt;q2</title>
<path fill="none" stroke="black" d="M104.425,-369.741C95.555,-358.66 83.1361,-343.898 71,-332 65.4762,-326.585 59.2105,-321.111 53.175,-316.122"/>
<polygon fill="black" stroke="black" points="55.1593,-313.226 45.1787,-309.671 50.7639,-318.674 55.1593,-313.226"/>
<text text-anchor="middle" x="91.5" y="-336.9" font-family="Times Roman,serif" font-size="14.00">b</text>
</g>
<!-- q3&#45;&gt;q2 -->
<g id="edge24" class="edge"><title>q3&#45;&gt;q2</title>
<path fill="none" stroke="black" d="M95.6418,-374.846C84.7744,-368.506 71.8228,-359.867 62,-350 53.8766,-341.84 46.6213,-331.498 40.8517,-322.054"/>
<polygon fill="black" stroke="black" points="43.8534,-320.253 35.7954,-313.374 37.8049,-323.777 43.8534,-320.253"/>
<text text-anchor="middle" x="66.5" y="-336.9" font-family="Times Roman,serif" font-size="14.00">a</text>
</g>
<!-- q2&#45;&gt;q5 -->
<g id="edge12" class="edge"><title>q2&#45;&gt;q5</title>
<path fill="none" stroke="black" d="M39.8722,-279.91C50.9298,-266.088 67.0359,-245.955 79.647,-230.191"/>
<polygon fill="black" stroke="black" points="82.7253,-231.946 86.2393,-221.951 77.2592,-227.573 82.7253,-231.946"/>
<text text-anchor="middle" x="73.5" y="-246.9" font-family="Times Roman,serif" font-size="14.00">a</text>
</g>
<!-- q2&#45;&gt;q2 -->
<g id="edge10" class="edge"><title>q2&#45;&gt;q2</title>
<path fill="none" stroke="black" d="M51.5325,-304.121C62.5078,-304.895 72,-302.188 72,-296 72,-291.843 67.7151,-289.257 61.5743,-288.242"/>
<polygon fill="black" stroke="black" points="61.6524,-284.742 51.5325,-287.879 61.3995,-291.738 61.6524,-284.742"/>
<text text-anchor="middle" x="76.5" y="-291.9" font-family="Times Roman,serif" font-size="14.00">b</text>
</g>
<!-- q0&#45;&gt;q4 -->
<g id="edge28" class="edge"><title>q0&#45;&gt;q4</title>
<path fill="none" stroke="black" d="M211.196,-34.5097C222.405,-52.6734 238,-83.1319 238,-112 238,-386 238,-386 238,-386 238,-429.195 187.741,-454.096 152.006,-466.341"/>
<polygon fill="black" stroke="black" points="150.8,-463.052 142.366,-469.464 152.958,-469.712 150.8,-463.052"/>
<text text-anchor="middle" x="242.5" y="-246.9" font-family="Times Roman,serif" font-size="14.00">a</text>
</g>
<!-- q0&#45;&gt;q3 -->
<g id="edge26" class="edge"><title>q0&#45;&gt;q3</title>
<path fill="none" stroke="black" d="M200,-36.0204C200,-54.9425 200,-85.5625 200,-112 200,-296 200,-296 200,-296 200,-328.229 170.882,-353.853 147.139,-369.39"/>
<polygon fill="black" stroke="black" points="145.016,-366.589 138.375,-374.844 148.714,-372.532 145.016,-366.589"/>
<text text-anchor="middle" x="204.5" y="-201.9" font-family="Times Roman,serif" font-size="14.00">b</text>
</g>
</g>
</svg>
