<?xml version="1.0" encoding="UTF-8" standalone="no"?>
<!DOCTYPE svg PUBLIC "-//W3C//DTD SVG 1.1//EN"
 "http://www.w3.org/Graphics/SVG/1.1/DTD/svg11.dtd">
<!-- Generated by graphviz version 2.26.3 (20100126.1600)
 -->
<!-- Title: G Pages: 1 -->
<svg width="215pt" height="142pt"
 viewBox="0.00 0.00 215.00 142.00" xmlns="http://www.w3.org/2000/svg" xmlns:xlink="http://www.w3.org/1999/xlink">
<g id="graph1" class="graph" transform="scale(1 1) rotate(0) translate(4 138)">
<title>G</title>
<polygon fill="white" stroke="white" points="-4,5 -4,-138 212,-138 212,5 -4,5"/>
<!-- q2 -->
<g id="node1" class="node"><title>q2</title>
<ellipse fill="none" stroke="black" cx="27" cy="-116" rx="27" ry="18"/>
<text text-anchor="middle" x="27" y="-111.9" font-family="Times Roman,serif" font-size="14.00">q2</text>
</g>
<!-- q2&#45;&gt;q2 -->
<g id="edge2" class="edge"><title>q2&#45;&gt;q2</title>
<path fill="none" stroke="black" d="M53.3466,-120.109C63.5332,-120.292 72,-118.922 72,-116 72,-114.128 68.5252,-112.893 63.3495,-112.296"/>
<polygon fill="black" stroke="black" points="63.4799,-108.798 53.3466,-111.891 63.197,-115.792 63.4799,-108.798"/>
<text text-anchor="middle" x="76.5" y="-111.9" font-family="Times Roman,serif" font-size="14.00">b</text>
</g>
<!-- q2&#45;&gt;q2 -->
<g id="edge4" class="edge"><title>q2&#45;&gt;q2</title>
<path fill="none" stroke="black" d="M46.0264,-128.787C66.6205,-137.049 90,-132.787 90,-116 90,-101.836 73.3558,-96.5883 55.784,-100.257"/>
<polygon fill="black" stroke="black" points="54.5823,-96.9642 46.0264,-103.213 56.6116,-103.664 54.5823,-96.9642"/>
<text text-anchor="middle" x="94.5" y="-111.9" font-family="Times Roman,serif" font-size="14.00">a</text>
</g>
<!-- q4 -->
<g id="node4" class="node"><title>q4</title>
<ellipse fill="none" stroke="black" cx="153" cy="-116" rx="27" ry="18"/>
<text text-anchor="middle" x="153" y="-111.9" font-family="Times Roman,serif" font-size="14.00">q4</text>
</g>
<!-- q4&#45;&gt;q4 -->
<g id="edge8" class="edge"><title>q4&#45;&gt;q4</title>
<path fill="none" stroke="black" d="M177.532,-124.121C188.508,-124.895 198,-122.188 198,-116 198,-111.843 193.715,-109.257 187.574,-108.242"/>
<polygon fill="black" stroke="black" points="187.652,-104.742 177.532,-107.879 187.4,-111.738 187.652,-104.742"/>
<text text-anchor="middle" x="202.5" y="-111.9" font-family="Times Roman,serif" font-size="14.00">a</text>
</g>
<!-- q0 -->
<g id="node6" class="node"><title>q0</title>
<ellipse fill="none" stroke="black" cx="153" cy="-22" rx="27" ry="18"/>
<ellipse fill="none" stroke="black" cx="153" cy="-22" rx="31" ry="22"/>
<text text-anchor="middle" x="153" y="-17.9" font-family="Times Roman,serif" font-size="14.00">q0</text>
</g>
<!-- q4&#45;&gt;q0 -->
<g id="edge6" class="edge"><title>q4&#45;&gt;q0</title>
<path fill="none" stroke="black" d="M136.349,-101.502C130.661,-95.4908 124.985,-88.0416 122,-80 119.216,-72.5001 119.41,-69.5692 122,-62 123.621,-57.2617 126.057,-52.6505 128.865,-48.3445"/>
<polygon fill="black" stroke="black" points="131.903,-50.1214 135.008,-39.9919 126.264,-45.9739 131.903,-50.1214"/>
<text text-anchor="middle" x="126.5" y="-66.9" font-family="Times Roman,serif" font-size="14.00">b</text>
</g>
<!-- q0&#45;&gt;q4 -->
<g id="edge10" class="edge"><title>q0&#45;&gt;q4</title>
<path fill="none" stroke="black" d="M153,-44.0388C153,-57.0958 153,-73.7734 153,-87.785"/>
<polygon fill="black" stroke="black" points="149.5,-87.8758 153,-97.8759 156.5,-87.8759 149.5,-87.8758"/>
<text text-anchor="middle" x="157.5" y="-66.9" font-family="Times Roman,serif" font-size="14.00">b</text>
</g>
<!-- q0&#45;&gt;q4 -->
<g id="edge12" class="edge"><title>q0&#45;&gt;q4</title>
<path fill="none" stroke="black" d="M159.937,-43.7022C162.597,-54.5722 164.642,-67.952 163,-80 162.627,-82.7376 162.101,-85.5608 161.484,-88.3653"/>
<polygon fill="black" stroke="black" points="158.041,-87.6996 158.956,-98.2549 164.823,-89.4331 158.041,-87.6996"/>
<text text-anchor="middle" x="167.5" y="-66.9" font-family="Times Roman,serif" font-size="14.00">a</text>
</g>
</g>
</svg>
