<?xml version="1.0" encoding="UTF-8" standalone="no"?>
<!DOCTYPE svg PUBLIC "-//W3C//DTD SVG 1.1//EN"
 "http://www.w3.org/Graphics/SVG/1.1/DTD/svg11.dtd">
<!-- Generated by graphviz version 2.26.3 (20100126.1600)
 -->
<!-- Title: G Pages: 1 -->
<svg width="184pt" height="232pt"
 viewBox="0.00 0.00 184.00 232.00" xmlns="http://www.w3.org/2000/svg" xmlns:xlink="http://www.w3.org/1999/xlink">
<g id="graph1" class="graph" transform="scale(1 1) rotate(0) translate(4 228)">
<title>G</title>
<polygon fill="white" stroke="white" points="-4,5 -4,-228 181,-228 181,5 -4,5"/>
<!-- q6 -->
<g id="node1" class="node"><title>q6</title>
<ellipse fill="none" stroke="black" cx="27" cy="-206" rx="27" ry="18"/>
<text text-anchor="middle" x="27" y="-201.9" font-family="Times Roman,serif" font-size="14.00">q6</text>
</g>
<!-- q6&#45;&gt;q6 -->
<g id="edge2" class="edge"><title>q6&#45;&gt;q6</title>
<path fill="none" stroke="black" d="M51.5325,-214.121C62.5078,-214.895 72,-212.188 72,-206 72,-201.843 67.7151,-199.257 61.5743,-198.242"/>
<polygon fill="black" stroke="black" points="61.6524,-194.742 51.5325,-197.879 61.3995,-201.738 61.6524,-194.742"/>
<text text-anchor="middle" x="76.5" y="-201.9" font-family="Times Roman,serif" font-size="14.00">b</text>
</g>
<!-- q4 -->
<g id="node4" class="node"><title>q4</title>
<ellipse fill="none" stroke="black" cx="27" cy="-116" rx="27" ry="18"/>
<text text-anchor="middle" x="27" y="-111.9" font-family="Times Roman,serif" font-size="14.00">q4</text>
</g>
<!-- q6&#45;&gt;q4 -->
<g id="edge4" class="edge"><title>q6&#45;&gt;q4</title>
<path fill="none" stroke="black" d="M27,-187.787C27,-175.344 27,-158.605 27,-144.421"/>
<polygon fill="black" stroke="black" points="30.5001,-144.186 27,-134.186 23.5001,-144.186 30.5001,-144.186"/>
<text text-anchor="middle" x="31.5" y="-156.9" font-family="Times Roman,serif" font-size="14.00">a</text>
</g>
<!-- q4&#45;&gt;q4 -->
<g id="edge20" class="edge"><title>q4&#45;&gt;q4</title>
<path fill="none" stroke="black" d="M51.5325,-124.121C62.5078,-124.895 72,-122.188 72,-116 72,-111.843 67.7151,-109.257 61.5743,-108.242"/>
<polygon fill="black" stroke="black" points="61.6524,-104.742 51.5325,-107.879 61.3995,-111.738 61.6524,-104.742"/>
<text text-anchor="middle" x="76.5" y="-111.9" font-family="Times Roman,serif" font-size="14.00">a</text>
</g>
<!-- q2 -->
<g id="node9" class="node"><title>q2</title>
<ellipse fill="none" stroke="black" cx="42" cy="-22" rx="27" ry="18"/>
<text text-anchor="middle" x="42" y="-17.9" font-family="Times Roman,serif" font-size="14.00">q2</text>
</g>
<!-- q4&#45;&gt;q2 -->
<g id="edge18" class="edge"><title>q4&#45;&gt;q2</title>
<path fill="none" stroke="black" d="M21.9371,-98.2854C19.6578,-87.6451 18.0646,-73.906 21,-62 22.1817,-57.2071 24.0516,-52.3532 26.1999,-47.758"/>
<polygon fill="black" stroke="black" points="29.3548,-49.2774 30.8694,-38.7914 23.1462,-46.0442 29.3548,-49.2774"/>
<text text-anchor="middle" x="25.5" y="-66.9" font-family="Times Roman,serif" font-size="14.00">b</text>
</g>
<!-- q5 -->
<g id="node5" class="node"><title>q5</title>
<ellipse fill="none" stroke="black" cx="134" cy="-116" rx="27" ry="18"/>
<text text-anchor="middle" x="134" y="-111.9" font-family="Times Roman,serif" font-size="14.00">q5</text>
</g>
<!-- q1 -->
<g id="node7" class="node"><title>q1</title>
<ellipse fill="none" stroke="black" cx="145" cy="-22" rx="27" ry="18"/>
<ellipse fill="none" stroke="black" cx="145" cy="-22" rx="31" ry="22"/>
<text text-anchor="middle" x="145" y="-17.9" font-family="Times Roman,serif" font-size="14.00">q1</text>
</g>
<!-- q5&#45;&gt;q1 -->
<g id="edge6" class="edge"><title>q5&#45;&gt;q1</title>
<path fill="none" stroke="black" d="M120.425,-100.102C113.009,-89.4347 106.219,-75.0074 111,-62 112.926,-56.7603 115.877,-51.7382 119.251,-47.1293"/>
<polygon fill="black" stroke="black" points="122.019,-49.2739 125.654,-39.3222 116.607,-44.8349 122.019,-49.2739"/>
<text text-anchor="middle" x="115.5" y="-66.9" font-family="Times Roman,serif" font-size="14.00">b</text>
</g>
<!-- q5&#45;&gt;q2 -->
<g id="edge8" class="edge"><title>q5&#45;&gt;q2</title>
<path fill="none" stroke="black" d="M117.886,-101.155C111.043,-94.7442 103.038,-87.0992 96,-80 84.7762,-68.6784 72.6495,-55.7229 62.7368,-44.9322"/>
<polygon fill="black" stroke="black" points="65.2847,-42.5319 55.9547,-37.5118 60.1177,-47.2545 65.2847,-42.5319"/>
<text text-anchor="middle" x="100.5" y="-66.9" font-family="Times Roman,serif" font-size="14.00">a</text>
</g>
<!-- q1&#45;&gt;q5 -->
<g id="edge14" class="edge"><title>q1&#45;&gt;q5</title>
<path fill="none" stroke="black" d="M142.421,-44.0388C140.893,-57.0958 138.941,-73.7734 137.302,-87.785"/>
<polygon fill="black" stroke="black" points="133.807,-87.5368 136.121,-97.8759 140.76,-88.3505 133.807,-87.5368"/>
<text text-anchor="middle" x="144.5" y="-66.9" font-family="Times Roman,serif" font-size="14.00">b</text>
</g>
<!-- q1&#45;&gt;q5 -->
<g id="edge16" class="edge"><title>q1&#45;&gt;q5</title>
<path fill="none" stroke="black" d="M151.195,-43.6859C153.433,-54.6701 154.796,-68.1546 152,-80 151.229,-83.2644 150.115,-86.5702 148.813,-89.7873"/>
<polygon fill="black" stroke="black" points="145.552,-88.4991 144.499,-99.0415 151.896,-91.4568 145.552,-88.4991"/>
<text text-anchor="middle" x="157.5" y="-66.9" font-family="Times Roman,serif" font-size="14.00">a</text>
</g>
<!-- q2&#45;&gt;q4 -->
<g id="edge12" class="edge"><title>q2&#45;&gt;q4</title>
<path fill="none" stroke="black" d="M39.1167,-40.0685C36.9609,-53.5785 33.9721,-72.3082 31.5024,-87.785"/>
<polygon fill="black" stroke="black" points="28.0118,-87.4492 29.8922,-97.8759 34.9243,-88.5524 28.0118,-87.4492"/>
<text text-anchor="middle" x="40.5" y="-66.9" font-family="Times Roman,serif" font-size="14.00">a</text>
</g>
<!-- q2&#45;&gt;q2 -->
<g id="edge10" class="edge"><title>q2&#45;&gt;q2</title>
<path fill="none" stroke="black" d="M65.6146,-30.7803C76.9731,-31.8643 87,-28.9375 87,-22 87,-17.3389 82.4737,-14.4882 76.0584,-13.4481"/>
<polygon fill="black" stroke="black" points="75.6888,-9.93931 65.6146,-13.2197 75.5356,-16.9376 75.6888,-9.93931"/>
<text text-anchor="middle" x="91.5" y="-17.9" font-family="Times Roman,serif" font-size="14.00">b</text>
</g>
</g>
</svg>
