<?xml version="1.0" encoding="UTF-8" standalone="no"?>
<!DOCTYPE svg PUBLIC "-//W3C//DTD SVG 1.1//EN"
 "http://www.w3.org/Graphics/SVG/1.1/DTD/svg11.dtd">
<!-- Generated by graphviz version 2.26.3 (20100126.1600)
 -->
<!-- Title: G Pages: 1 -->
<svg width="204pt" height="238pt"
 viewBox="0.00 0.00 204.00 238.00" xmlns="http://www.w3.org/2000/svg" xmlns:xlink="http://www.w3.org/1999/xlink">
<g id="graph1" class="graph" transform="scale(1 1) rotate(0) translate(4 234)">
<title>G</title>
<polygon fill="white" stroke="white" points="-4,5 -4,-234 201,-234 201,5 -4,5"/>
<!-- q2 -->
<g id="node1" class="node"><title>q2</title>
<ellipse fill="none" stroke="black" cx="93" cy="-19" rx="27" ry="18.3848"/>
<text text-anchor="middle" x="93" y="-15.4" font-family="Times Roman,serif" font-size="14.00">q2</text>
</g>
<!-- q2&#45;&gt;q2 -->
<g id="edge2" class="edge"><title>q2&#45;&gt;q2</title>
<path fill="none" stroke="black" d="M119.347,-23.2957C129.533,-23.4866 138,-22.0547 138,-19 138,-17.0431 134.525,-15.7522 129.35,-15.1273"/>
<polygon fill="black" stroke="black" points="129.486,-11.63 119.347,-14.7043 129.19,-18.6237 129.486,-11.63"/>
<text text-anchor="middle" x="142.5" y="-15.4" font-family="Times Roman,serif" font-size="14.00">b</text>
</g>
<!-- q2&#45;&gt;q2 -->
<g id="edge4" class="edge"><title>q2&#45;&gt;q2</title>
<path fill="none" stroke="black" d="M111.703,-32.3594C132.375,-41.2656 156,-36.8125 156,-19 156,-3.9707 139.181,1.54787 121.508,-2.44429"/>
<polygon fill="black" stroke="black" points="120.126,0.786507 111.703,-5.64062 122.296,-5.86879 120.126,0.786507"/>
<text text-anchor="middle" x="160.5" y="-15.4" font-family="Times Roman,serif" font-size="14.00">a</text>
</g>
<!-- q1 -->
<g id="node4" class="node"><title>q1</title>
<ellipse fill="none" stroke="black" cx="31" cy="-115" rx="27" ry="18.3848"/>
<ellipse fill="none" stroke="black" cx="31" cy="-115" rx="31" ry="22.3848"/>
<text text-anchor="middle" x="31" y="-111.4" font-family="Times Roman,serif" font-size="14.00">q1</text>
</g>
<!-- q1&#45;&gt;q2 -->
<g id="edge6" class="edge"><title>q1&#45;&gt;q2</title>
<path fill="none" stroke="black" d="M44.4531,-94.1694C53.8609,-79.6025 66.4836,-60.0577 76.4996,-44.549"/>
<polygon fill="black" stroke="black" points="79.5665,-46.2515 82.0517,-35.9522 73.6862,-42.4538 79.5665,-46.2515"/>
<text text-anchor="middle" x="71.5" y="-61.4" font-family="Times Roman,serif" font-size="14.00">b</text>
</g>
<!-- q1&#45;&gt;q1 -->
<g id="edge8" class="edge"><title>q1&#45;&gt;q1</title>
<path fill="none" stroke="black" d="M59.6885,-124.338C70.7806,-124.753 80,-121.641 80,-115 80,-110.538 75.8382,-107.669 69.7429,-106.393"/>
<polygon fill="black" stroke="black" points="69.916,-102.896 59.6885,-105.662 69.4084,-109.878 69.916,-102.896"/>
<text text-anchor="middle" x="84.5" y="-111.4" font-family="Times Roman,serif" font-size="14.00">a</text>
</g>
<!-- q3 -->
<g id="node7" class="node"><title>q3</title>
<ellipse fill="none" stroke="black" cx="138" cy="-115" rx="27" ry="18.3848"/>
<ellipse fill="none" stroke="black" cx="138" cy="-115" rx="31" ry="22.3848"/>
<text text-anchor="middle" x="138" y="-111.4" font-family="Times Roman,serif" font-size="14.00">q3</text>
</g>
<!-- q3&#45;&gt;q2 -->
<g id="edge12" class="edge"><title>q3&#45;&gt;q2</title>
<path fill="none" stroke="black" d="M128.013,-93.6945C121.428,-79.6474 112.747,-61.1279 105.677,-46.044"/>
<polygon fill="black" stroke="black" points="108.715,-44.2783 101.301,-36.7093 102.376,-47.2494 108.715,-44.2783"/>
<text text-anchor="middle" x="122.5" y="-61.4" font-family="Times Roman,serif" font-size="14.00">a</text>
</g>
<!-- q3&#45;&gt;q3 -->
<g id="edge10" class="edge"><title>q3&#45;&gt;q3</title>
<path fill="none" stroke="black" d="M166.689,-124.338C177.781,-124.753 187,-121.641 187,-115 187,-110.538 182.838,-107.669 176.743,-106.393"/>
<polygon fill="black" stroke="black" points="176.916,-102.896 166.689,-105.662 176.408,-109.878 176.916,-102.896"/>
<text text-anchor="middle" x="191.5" y="-111.4" font-family="Times Roman,serif" font-size="14.00">b</text>
</g>
<!-- q0 -->
<g id="node10" class="node"><title>q0</title>
<ellipse fill="none" stroke="black" cx="138" cy="-211" rx="27" ry="18.3848"/>
<text text-anchor="middle" x="138" y="-207.4" font-family="Times Roman,serif" font-size="14.00">q0</text>
</g>
<!-- q0&#45;&gt;q3 -->
<g id="edge14" class="edge"><title>q0&#45;&gt;q3</title>
<path fill="none" stroke="black" d="M138,-192.49C138,-179.863 138,-162.791 138,-147.885"/>
<polygon fill="black" stroke="black" points="141.5,-147.508 138,-137.508 134.5,-147.508 141.5,-147.508"/>
<text text-anchor="middle" x="142.5" y="-161.4" font-family="Times Roman,serif" font-size="14.00">b</text>
</g>
<!-- q0&#45;&gt;q0 -->
<g id="edge16" class="edge"><title>q0&#45;&gt;q0</title>
<path fill="none" stroke="black" d="M162.074,-219.454C173.242,-220.377 183,-217.559 183,-211 183,-206.593 178.595,-203.875 172.317,-202.846"/>
<polygon fill="black" stroke="black" points="172.173,-199.34 162.074,-202.546 171.967,-206.337 172.173,-199.34"/>
<text text-anchor="middle" x="187.5" y="-207.4" font-family="Times Roman,serif" font-size="14.00">a</text>
</g>
</g>
</svg>
