<?xml version="1.0" encoding="UTF-8" standalone="no"?>
<!DOCTYPE svg PUBLIC "-//W3C//DTD SVG 1.1//EN"
 "http://www.w3.org/Graphics/SVG/1.1/DTD/svg11.dtd">
<!-- Generated by graphviz version 2.26.3 (20100126.1600)
 -->
<!-- Title: G Pages: 1 -->
<svg width="95pt" height="134pt"
 viewBox="0.00 0.00 95.09 134.00" xmlns="http://www.w3.org/2000/svg" xmlns:xlink="http://www.w3.org/1999/xlink">
<g id="graph1" class="graph" transform="scale(1 1) rotate(0) translate(4 130)">
<title>G</title>
<polygon fill="white" stroke="white" points="-4,5 -4,-130 92.0881,-130 92.0881,5 -4,5"/>
<!-- q3 -->
<g id="node1" class="node"><title>q3</title>
<ellipse fill="none" stroke="black" cx="33.0881" cy="-108" rx="27" ry="18"/>
<text text-anchor="middle" x="33.0881" y="-103.9" font-family="Times Roman,serif" font-size="14.00">q3</text>
</g>
<!-- q0 -->
<g id="node3" class="node"><title>q0</title>
<ellipse fill="none" stroke="darkred" cx="33.0881" cy="-18" rx="27" ry="18"/>
<text text-anchor="middle" x="33.0881" y="-13.9" font-family="Times Roman,serif" font-size="14.00">q0</text>
</g>
<!-- q3&#45;&gt;q0 -->
<g id="edge2" class="edge"><title>q3&#45;&gt;q0</title>
<path fill="none" stroke="black" d="M16.437,-93.5018C10.7493,-87.4908 5.07332,-80.0416 2.0881,-72 -0.696033,-64.5001 -0.696033,-61.4999 2.0881,-54 3.90722,-49.0996 6.72551,-44.4193 9.93677,-40.1503"/>
<polygon fill="black" stroke="black" points="12.6303,-42.3856 16.437,-32.4982 7.29533,-37.8536 12.6303,-42.3856"/>
<text text-anchor="middle" x="6.5881" y="-58.9" font-family="Times Roman,serif" font-size="14.00">b</text>
</g>
<!-- q3&#45;&gt;q0 -->
<g id="edge4" class="edge"><title>q3&#45;&gt;q0</title>
<path fill="none" stroke="black" d="M33.0881,-89.7872C33.0881,-77.3443 33.0881,-60.6053 33.0881,-46.4211"/>
<polygon fill="black" stroke="black" points="36.5882,-46.1857 33.0881,-36.1858 29.5882,-46.1858 36.5882,-46.1857"/>
<text text-anchor="middle" x="37.5881" y="-58.9" font-family="Times Roman,serif" font-size="14.00">a</text>
</g>
<!-- q0&#45;&gt;q3 -->
<g id="edge6" class="edge"><title>q0&#45;&gt;q3</title>
<path fill="none" stroke="black" d="M39.0441,-35.7451C40.6976,-41.4999 42.2646,-47.9584 43.0881,-54 44.1686,-61.9267 44.1686,-64.0733 43.0881,-72 42.7149,-74.7376 42.1891,-77.5608 41.5718,-80.3653"/>
<polygon fill="black" stroke="black" points="38.1295,-79.6996 39.0441,-90.2549 44.9115,-81.4331 38.1295,-79.6996"/>
<text text-anchor="middle" x="47.5881" y="-58.9" font-family="Times Roman,serif" font-size="14.00">b</text>
</g>
<!-- q0&#45;&gt;q0 -->
<g id="edge8" class="edge"><title>q0&#45;&gt;q0</title>
<path fill="none" stroke="black" d="M57.6206,-26.1211C68.5959,-26.8945 78.0881,-24.1875 78.0881,-18 78.0881,-13.8428 73.8032,-11.2567 67.6624,-10.2417"/>
<polygon fill="black" stroke="black" points="67.7405,-6.74237 57.6206,-9.87891 67.4876,-13.7378 67.7405,-6.74237"/>
<text text-anchor="middle" x="82.5881" y="-13.9" font-family="Times Roman,serif" font-size="14.00">a</text>
</g>
</g>
</svg>
