<?xml version="1.0" encoding="UTF-8" standalone="no"?>
<!DOCTYPE svg PUBLIC "-//W3C//DTD SVG 1.1//EN"
 "http://www.w3.org/Graphics/SVG/1.1/DTD/svg11.dtd">
<!-- Generated by graphviz version 2.26.3 (20100126.1600)
 -->
<!-- Title: G Pages: 1 -->
<svg width="206pt" height="420pt"
 viewBox="0.00 0.00 206.00 420.00" xmlns="http://www.w3.org/2000/svg" xmlns:xlink="http://www.w3.org/1999/xlink">
<g id="graph1" class="graph" transform="scale(1 1) rotate(0) translate(4 416)">
<title>G</title>
<polygon fill="white" stroke="white" points="-4,5 -4,-416 203,-416 203,5 -4,5"/>
<!-- q6 -->
<g id="node1" class="node"><title>q6</title>
<ellipse fill="none" stroke="black" cx="37" cy="-390" rx="27" ry="18"/>
<text text-anchor="middle" x="37" y="-385.9" font-family="Times Roman,serif" font-size="14.00">q6</text>
</g>
<!-- q6&#45;&gt;q6 -->
<g id="edge2" class="edge"><title>q6&#45;&gt;q6</title>
<path fill="none" stroke="black" d="M60.6146,-398.78C71.9731,-399.864 82,-396.938 82,-390 82,-385.339 77.4737,-382.488 71.0584,-381.448"/>
<polygon fill="black" stroke="black" points="70.6888,-377.939 60.6146,-381.22 70.5356,-384.938 70.6888,-377.939"/>
<text text-anchor="middle" x="86.5" y="-385.9" font-family="Times Roman,serif" font-size="14.00">b</text>
</g>
<!-- q4 -->
<g id="node4" class="node"><title>q4</title>
<ellipse fill="none" stroke="black" cx="88" cy="-296" rx="27" ry="18"/>
<text text-anchor="middle" x="88" y="-291.9" font-family="Times Roman,serif" font-size="14.00">q4</text>
</g>
<!-- q6&#45;&gt;q4 -->
<g id="edge4" class="edge"><title>q6&#45;&gt;q4</title>
<path fill="none" stroke="black" d="M46.3542,-372.759C54.0465,-358.581 65.0688,-338.265 73.8418,-322.095"/>
<polygon fill="black" stroke="black" points="77.0126,-323.591 78.7051,-313.132 70.8598,-320.252 77.0126,-323.591"/>
<text text-anchor="middle" x="72.5" y="-336.9" font-family="Times Roman,serif" font-size="14.00">a</text>
</g>
<!-- q4&#45;&gt;q4 -->
<g id="edge20" class="edge"><title>q4&#45;&gt;q4</title>
<path fill="none" stroke="black" d="M112.532,-304.121C123.508,-304.895 133,-302.188 133,-296 133,-291.843 128.715,-289.257 122.574,-288.242"/>
<polygon fill="black" stroke="black" points="122.652,-284.742 112.532,-287.879 122.4,-291.738 122.652,-284.742"/>
<text text-anchor="middle" x="137.5" y="-291.9" font-family="Times Roman,serif" font-size="14.00">a</text>
</g>
<!-- q2 -->
<g id="node9" class="node"><title>q2</title>
<ellipse fill="none" stroke="black" cx="27" cy="-206" rx="27" ry="18"/>
<text text-anchor="middle" x="27" y="-201.9" font-family="Times Roman,serif" font-size="14.00">q2</text>
</g>
<!-- q4&#45;&gt;q2 -->
<g id="edge18" class="edge"><title>q4&#45;&gt;q2</title>
<path fill="none" stroke="black" d="M76.8117,-279.493C67.6685,-266.003 54.5921,-246.71 44.1314,-231.276"/>
<polygon fill="black" stroke="black" points="46.8318,-229.022 38.324,-222.708 41.0373,-232.949 46.8318,-229.022"/>
<text text-anchor="middle" x="67.5" y="-246.9" font-family="Times Roman,serif" font-size="14.00">b</text>
</g>
<!-- q5 -->
<g id="node5" class="node"><title>q5</title>
<ellipse fill="none" stroke="black" cx="53" cy="-116" rx="27" ry="18"/>
<text text-anchor="middle" x="53" y="-111.9" font-family="Times Roman,serif" font-size="14.00">q5</text>
</g>
<!-- q1 -->
<g id="node7" class="node"><title>q1</title>
<ellipse fill="none" stroke="black" cx="85" cy="-22" rx="27" ry="18"/>
<ellipse fill="none" stroke="black" cx="85" cy="-22" rx="31" ry="22"/>
<text text-anchor="middle" x="85" y="-17.9" font-family="Times Roman,serif" font-size="14.00">q1</text>
</g>
<!-- q5&#45;&gt;q1 -->
<g id="edge6" class="edge"><title>q5&#45;&gt;q1</title>
<path fill="none" stroke="black" d="M50.5431,-97.9876C49.7529,-87.2417 49.9474,-73.4962 54,-62 55.6649,-57.277 58.1253,-52.6741 60.9444,-48.3721"/>
<polygon fill="black" stroke="black" points="63.9822,-50.1493 67.0947,-40.0219 58.3461,-45.998 63.9822,-50.1493"/>
<text text-anchor="middle" x="58.5" y="-66.9" font-family="Times Roman,serif" font-size="14.00">b</text>
</g>
<!-- q5&#45;&gt;q2 -->
<g id="edge8" class="edge"><title>q5&#45;&gt;q2</title>
<path fill="none" stroke="black" d="M47.8739,-133.744C44.2086,-146.432 39.2035,-163.757 35.0132,-178.262"/>
<polygon fill="black" stroke="black" points="31.5497,-177.64 32.1368,-188.219 38.2747,-179.583 31.5497,-177.64"/>
<text text-anchor="middle" x="47.5" y="-156.9" font-family="Times Roman,serif" font-size="14.00">a</text>
</g>
<!-- q1&#45;&gt;q4 -->
<g id="edge14" class="edge"><title>q1&#45;&gt;q4</title>
<path fill="none" stroke="black" d="M86.4158,-44.2707C87.3186,-59.4141 88.4236,-79.9078 89,-98 90.7832,-153.973 90.7776,-168.004 90,-224 89.8006,-238.36 89.3776,-254.326 88.9718,-267.567"/>
<polygon fill="black" stroke="black" points="85.4611,-267.847 88.6402,-277.953 92.4576,-268.07 85.4611,-267.847"/>
<text text-anchor="middle" x="94.5" y="-156.9" font-family="Times Roman,serif" font-size="14.00">b</text>
</g>
<!-- q1&#45;&gt;q5 -->
<g id="edge16" class="edge"><title>q1&#45;&gt;q5</title>
<path fill="none" stroke="black" d="M77.6598,-43.5618C73.1156,-56.9105 67.2375,-74.1772 62.3602,-88.5045"/>
<polygon fill="black" stroke="black" points="58.9284,-87.7249 59.019,-98.3193 65.5549,-89.9808 58.9284,-87.7249"/>
<text text-anchor="middle" x="75.5" y="-66.9" font-family="Times Roman,serif" font-size="14.00">a</text>
</g>
<!-- q2&#45;&gt;q5 -->
<g id="edge12" class="edge"><title>q2&#45;&gt;q5</title>
<path fill="none" stroke="black" d="M23.147,-188.016C21.6196,-177.281 21.042,-163.536 25,-152 26.5153,-147.584 28.8182,-143.292 31.4654,-139.301"/>
<polygon fill="black" stroke="black" points="34.4117,-141.207 37.6385,-131.116 28.8229,-136.992 34.4117,-141.207"/>
<text text-anchor="middle" x="29.5" y="-156.9" font-family="Times Roman,serif" font-size="14.00">a</text>
</g>
<!-- q2&#45;&gt;q2 -->
<g id="edge10" class="edge"><title>q2&#45;&gt;q2</title>
<path fill="none" stroke="black" d="M51.5325,-214.121C62.5078,-214.895 72,-212.188 72,-206 72,-201.843 67.7151,-199.257 61.5743,-198.242"/>
<polygon fill="black" stroke="black" points="61.6524,-194.742 51.5325,-197.879 61.3995,-201.738 61.6524,-194.742"/>
<text text-anchor="middle" x="76.5" y="-201.9" font-family="Times Roman,serif" font-size="14.00">b</text>
</g>
<!-- q0 -->
<g id="node16" class="node"><title>q0</title>
<ellipse fill="none" stroke="black" cx="140" cy="-390" rx="27" ry="18"/>
<ellipse fill="none" stroke="black" cx="140" cy="-390" rx="31" ry="22"/>
<text text-anchor="middle" x="140" y="-385.9" font-family="Times Roman,serif" font-size="14.00">q0</text>
</g>
<!-- q0&#45;&gt;q4 -->
<g id="edge24" class="edge"><title>q0&#45;&gt;q4</title>
<path fill="none" stroke="black" d="M128.46,-369.138C120.802,-355.295 110.69,-337.016 102.491,-322.195"/>
<polygon fill="black" stroke="black" points="105.328,-320.092 97.4243,-313.036 99.2024,-323.481 105.328,-320.092"/>
<text text-anchor="middle" x="121.5" y="-336.9" font-family="Times Roman,serif" font-size="14.00">a</text>
</g>
<!-- q0&#45;&gt;q0 -->
<g id="edge22" class="edge"><title>q0&#45;&gt;q0</title>
<path fill="none" stroke="black" d="M168.689,-398.965C179.781,-399.363 189,-396.375 189,-390 189,-385.717 184.838,-382.962 178.743,-381.737"/>
<polygon fill="black" stroke="black" points="178.908,-378.24 168.689,-381.035 178.421,-385.223 178.908,-378.24"/>
<text text-anchor="middle" x="193.5" y="-385.9" font-family="Times Roman,serif" font-size="14.00">b</text>
</g>
</g>
</svg>
