<?xml version="1.0" encoding="UTF-8" standalone="no"?>
<!DOCTYPE svg PUBLIC "-//W3C//DTD SVG 1.1//EN"
 "http://www.w3.org/Graphics/SVG/1.1/DTD/svg11.dtd">
<!-- Generated by graphviz version 2.26.3 (20100126.1600)
 -->
<!-- Title: G Pages: 1 -->
<svg width="196pt" height="238pt"
 viewBox="0.00 0.00 196.00 238.00" xmlns="http://www.w3.org/2000/svg" xmlns:xlink="http://www.w3.org/1999/xlink">
<g id="graph1" class="graph" transform="scale(1 1) rotate(0) translate(4 234)">
<title>G</title>
<polygon fill="white" stroke="white" points="-4,5 -4,-234 193,-234 193,5 -4,5"/>
<!-- q2 -->
<g id="node1" class="node"><title>q2</title>
<ellipse fill="none" stroke="black" cx="91" cy="-19" rx="27" ry="18.3848"/>
<text text-anchor="middle" x="91" y="-15.4" font-family="Times Roman,serif" font-size="14.00">q2</text>
</g>
<!-- q2&#45;&gt;q2 -->
<g id="edge2" class="edge"><title>q2&#45;&gt;q2</title>
<path fill="none" stroke="black" d="M117.347,-23.2957C127.533,-23.4866 136,-22.0547 136,-19 136,-17.0431 132.525,-15.7522 127.35,-15.1273"/>
<polygon fill="black" stroke="black" points="127.486,-11.63 117.347,-14.7043 127.19,-18.6237 127.486,-11.63"/>
<text text-anchor="middle" x="140.5" y="-15.4" font-family="Times Roman,serif" font-size="14.00">b</text>
</g>
<!-- q2&#45;&gt;q2 -->
<g id="edge4" class="edge"><title>q2&#45;&gt;q2</title>
<path fill="none" stroke="black" d="M109.703,-32.3594C130.375,-41.2656 154,-36.8125 154,-19 154,-3.9707 137.181,1.54787 119.508,-2.44429"/>
<polygon fill="black" stroke="black" points="118.126,0.786507 109.703,-5.64062 120.296,-5.86879 118.126,0.786507"/>
<text text-anchor="middle" x="158.5" y="-15.4" font-family="Times Roman,serif" font-size="14.00">a</text>
</g>
<!-- q1 -->
<g id="node4" class="node"><title>q1</title>
<ellipse fill="none" stroke="black" cx="31" cy="-115" rx="27" ry="18.3848"/>
<ellipse fill="none" stroke="black" cx="31" cy="-115" rx="31" ry="22.3848"/>
<text text-anchor="middle" x="31" y="-111.4" font-family="Times Roman,serif" font-size="14.00">q1</text>
</g>
<!-- q1&#45;&gt;q2 -->
<g id="edge6" class="edge"><title>q1&#45;&gt;q2</title>
<path fill="none" stroke="black" d="M44.0191,-94.1694C53.0658,-79.6947 65.1844,-60.3049 74.8475,-44.8439"/>
<polygon fill="black" stroke="black" points="77.8795,-46.5966 80.2115,-36.2616 71.9435,-42.8866 77.8795,-46.5966"/>
<text text-anchor="middle" x="70.5" y="-61.4" font-family="Times Roman,serif" font-size="14.00">b</text>
</g>
<!-- q1&#45;&gt;q1 -->
<g id="edge8" class="edge"><title>q1&#45;&gt;q1</title>
<path fill="none" stroke="black" d="M59.6885,-124.338C70.7806,-124.753 80,-121.641 80,-115 80,-110.538 75.8382,-107.669 69.7429,-106.393"/>
<polygon fill="black" stroke="black" points="69.916,-102.896 59.6885,-105.662 69.4084,-109.878 69.916,-102.896"/>
<text text-anchor="middle" x="84.5" y="-111.4" font-family="Times Roman,serif" font-size="14.00">a</text>
</g>
<!-- q3 -->
<g id="node7" class="node"><title>q3</title>
<ellipse fill="none" stroke="black" cx="134" cy="-115" rx="27" ry="18.3848"/>
<text text-anchor="middle" x="134" y="-111.4" font-family="Times Roman,serif" font-size="14.00">q3</text>
</g>
<!-- q3&#45;&gt;q2 -->
<g id="edge12" class="edge"><title>q3&#45;&gt;q2</title>
<path fill="none" stroke="black" d="M125.912,-96.9431C119.546,-82.7298 110.567,-62.6843 103.309,-46.4814"/>
<polygon fill="black" stroke="black" points="106.334,-44.6715 99.0517,-36.9759 99.9454,-47.533 106.334,-44.6715"/>
<text text-anchor="middle" x="119.5" y="-61.4" font-family="Times Roman,serif" font-size="14.00">a</text>
</g>
<!-- q3&#45;&gt;q3 -->
<g id="edge10" class="edge"><title>q3&#45;&gt;q3</title>
<path fill="none" stroke="black" d="M157.615,-124.146C168.973,-125.275 179,-122.227 179,-115 179,-110.145 174.474,-107.175 168.058,-106.092"/>
<polygon fill="black" stroke="black" points="167.692,-102.583 157.615,-105.854 167.532,-109.581 167.692,-102.583"/>
<text text-anchor="middle" x="183.5" y="-111.4" font-family="Times Roman,serif" font-size="14.00">b</text>
</g>
<!-- q0 -->
<g id="node10" class="node"><title>q0</title>
<ellipse fill="none" stroke="black" cx="134" cy="-211" rx="27" ry="18.3848"/>
<text text-anchor="middle" x="134" y="-207.4" font-family="Times Roman,serif" font-size="14.00">q0</text>
</g>
<!-- q0&#45;&gt;q3 -->
<g id="edge14" class="edge"><title>q0&#45;&gt;q3</title>
<path fill="none" stroke="black" d="M134,-192.49C134,-178.767 134,-159.792 134,-144.055"/>
<polygon fill="black" stroke="black" points="137.5,-143.78 134,-133.78 130.5,-143.781 137.5,-143.78"/>
<text text-anchor="middle" x="138.5" y="-161.4" font-family="Times Roman,serif" font-size="14.00">b</text>
</g>
<!-- q0&#45;&gt;q0 -->
<g id="edge16" class="edge"><title>q0&#45;&gt;q0</title>
<path fill="none" stroke="black" d="M158.074,-219.454C169.242,-220.377 179,-217.559 179,-211 179,-206.593 174.595,-203.875 168.317,-202.846"/>
<polygon fill="black" stroke="black" points="168.173,-199.34 158.074,-202.546 167.967,-206.337 168.173,-199.34"/>
<text text-anchor="middle" x="183.5" y="-207.4" font-family="Times Roman,serif" font-size="14.00">a</text>
</g>
</g>
</svg>
