<?xml version="1.0" encoding="UTF-8" standalone="no"?>
<!DOCTYPE svg PUBLIC "-//W3C//DTD SVG 1.1//EN"
 "http://www.w3.org/Graphics/SVG/1.1/DTD/svg11.dtd">
<!-- Generated by graphviz version 2.26.3 (20100126.1600)
 -->
<!-- Title: G Pages: 1 -->
<svg width="228pt" height="526pt"
 viewBox="0.00 0.00 227.60 526.00" xmlns="http://www.w3.org/2000/svg" xmlns:xlink="http://www.w3.org/1999/xlink">
<g id="graph1" class="graph" transform="scale(1 1) rotate(0) translate(4 522)">
<title>G</title>
<polygon fill="white" stroke="white" points="-4,5 -4,-522 224.596,-522 224.596,5 -4,5"/>
<!-- q6 -->
<g id="node1" class="node"><title>q6</title>
<ellipse fill="none" stroke="black" cx="54.5963" cy="-315" rx="27" ry="18.3848"/>
<text text-anchor="middle" x="54.5963" y="-311.4" font-family="Times Roman,serif" font-size="14.00">q6</text>
</g>
<!-- q5 -->
<g id="node3" class="node"><title>q5</title>
<ellipse fill="none" stroke="black" cx="46.5963" cy="-167" rx="27" ry="18.3848"/>
<text text-anchor="middle" x="46.5963" y="-163.4" font-family="Times Roman,serif" font-size="14.00">q5</text>
</g>
<!-- q6&#45;&gt;q5 -->
<g id="edge2" class="edge"><title>q6&#45;&gt;q5</title>
<path fill="none" stroke="black" d="M53.5831,-296.256C52.2125,-270.901 49.7551,-225.439 48.1503,-195.75"/>
<polygon fill="black" stroke="black" points="51.636,-195.389 47.6012,-185.592 44.6462,-195.766 51.636,-195.389"/>
<text text-anchor="middle" x="56.0963" y="-265.4" font-family="Times Roman,serif" font-size="14.00">b</text>
</g>
<!-- q0 -->
<g id="node5" class="node"><title>q0</title>
<ellipse fill="none" stroke="black" cx="109.596" cy="-223" rx="27" ry="18.3848"/>
<text text-anchor="middle" x="109.596" y="-219.4" font-family="Times Roman,serif" font-size="14.00">q0</text>
</g>
<!-- q6&#45;&gt;q0 -->
<g id="edge4" class="edge"><title>q6&#45;&gt;q0</title>
<path fill="none" stroke="black" d="M64.9413,-297.696C73.1612,-283.946 84.7858,-264.501 94.1138,-248.898"/>
<polygon fill="black" stroke="black" points="97.1704,-250.606 99.2976,-240.227 91.1622,-247.014 97.1704,-250.606"/>
<text text-anchor="middle" x="91.0963" y="-265.4" font-family="Times Roman,serif" font-size="14.00">a</text>
</g>
<!-- q5&#45;&gt;q6 -->
<g id="edge8" class="edge"><title>q5&#45;&gt;q6</title>
<path fill="none" stroke="black" d="M42.2407,-185.274C37.6518,-207.441 31.9398,-245.836 38.5963,-278 39.2771,-281.29 40.2651,-284.646 41.4211,-287.929"/>
<polygon fill="black" stroke="black" points="38.2631,-289.456 45.2544,-297.417 44.7533,-286.834 38.2631,-289.456"/>
<text text-anchor="middle" x="43.0963" y="-265.4" font-family="Times Roman,serif" font-size="14.00">a</text>
</g>
<!-- q2 -->
<g id="node7" class="node"><title>q2</title>
<ellipse fill="none" stroke="black" cx="53.5963" cy="-19" rx="27" ry="18.3848"/>
<text text-anchor="middle" x="53.5963" y="-15.4" font-family="Times Roman,serif" font-size="14.00">q2</text>
</g>
<!-- q5&#45;&gt;q2 -->
<g id="edge6" class="edge"><title>q5&#45;&gt;q2</title>
<path fill="none" stroke="black" d="M47.4828,-148.256C48.682,-122.901 50.8322,-77.4392 52.2365,-47.7501"/>
<polygon fill="black" stroke="black" points="55.7405,-47.7463 52.7169,-37.5921 48.7483,-47.4156 55.7405,-47.7463"/>
<text text-anchor="middle" x="54.0963" y="-107.4" font-family="Times Roman,serif" font-size="14.00">b</text>
</g>
<!-- q4 -->
<g id="node15" class="node"><title>q4</title>
<ellipse fill="none" stroke="black" cx="140.596" cy="-111" rx="27" ry="18.3848"/>
<text text-anchor="middle" x="140.596" y="-107.4" font-family="Times Roman,serif" font-size="14.00">q4</text>
</g>
<!-- q0&#45;&gt;q4 -->
<g id="edge26" class="edge"><title>q0&#45;&gt;q4</title>
<path fill="none" stroke="black" d="M106.164,-204.514C104.07,-188.95 102.923,-166.356 109.596,-148 111.411,-143.009 114.227,-138.221 117.437,-133.842"/>
<polygon fill="black" stroke="black" points="120.263,-135.917 123.937,-125.979 114.868,-131.457 120.263,-135.917"/>
<text text-anchor="middle" x="114.096" y="-163.4" font-family="Times Roman,serif" font-size="14.00">b</text>
</g>
<!-- q0&#45;&gt;q4 -->
<g id="edge28" class="edge"><title>q0&#45;&gt;q4</title>
<path fill="none" stroke="black" d="M114.715,-204.505C119.629,-186.753 127.118,-159.694 132.779,-139.244"/>
<polygon fill="black" stroke="black" points="136.175,-140.093 135.47,-129.522 129.429,-138.226 136.175,-140.093"/>
<text text-anchor="middle" x="134.096" y="-163.4" font-family="Times Roman,serif" font-size="14.00">a</text>
</g>
<!-- q2&#45;&gt;q6 -->
<g id="edge10" class="edge"><title>q2&#45;&gt;q6</title>
<path fill="none" stroke="black" d="M42.6419,-36.1551C24.88,-65.9836 -7.36406,-129.619 1.59626,-186 8.34659,-228.475 13.4454,-239.01 31.5963,-278 33.3918,-281.857 35.5087,-285.805 37.7191,-289.619"/>
<polygon fill="black" stroke="black" points="34.7397,-291.455 42.939,-298.165 40.7135,-287.807 34.7397,-291.455"/>
<text text-anchor="middle" x="6.09626" y="-163.4" font-family="Times Roman,serif" font-size="14.00">b</text>
</g>
<!-- q2&#45;&gt;q5 -->
<g id="edge12" class="edge"><title>q2&#45;&gt;q5</title>
<path fill="none" stroke="black" d="M46.8469,-37.0493C39.4875,-58.9943 29.4057,-97.1709 34.5963,-130 35.0764,-133.037 35.7654,-136.164 36.5737,-139.253"/>
<polygon fill="black" stroke="black" points="33.223,-140.265 39.4528,-148.835 39.9269,-138.25 33.223,-140.265"/>
<text text-anchor="middle" x="39.0963" y="-107.4" font-family="Times Roman,serif" font-size="14.00">a</text>
</g>
<!-- q1 -->
<g id="node11" class="node"><title>q1</title>
<ellipse fill="none" stroke="black" cx="190.596" cy="-499" rx="27" ry="18.3848"/>
<text text-anchor="middle" x="190.596" y="-495.4" font-family="Times Roman,serif" font-size="14.00">q1</text>
</g>
<!-- q3 -->
<g id="node13" class="node"><title>q3</title>
<ellipse fill="none" stroke="black" cx="155.596" cy="-407" rx="27" ry="18.3848"/>
<text text-anchor="middle" x="155.596" y="-403.4" font-family="Times Roman,serif" font-size="14.00">q3</text>
</g>
<!-- q1&#45;&gt;q3 -->
<g id="edge14" class="edge"><title>q1&#45;&gt;q3</title>
<path fill="none" stroke="black" d="M183.681,-480.824C178.696,-467.719 171.875,-449.789 166.203,-434.88"/>
<polygon fill="black" stroke="black" points="169.324,-433.24 162.497,-425.138 162.781,-435.729 169.324,-433.24"/>
<text text-anchor="middle" x="180.096" y="-449.4" font-family="Times Roman,serif" font-size="14.00">b</text>
</g>
<!-- q1&#45;&gt;q4 -->
<g id="edge16" class="edge"><title>q1&#45;&gt;q4</title>
<path fill="none" stroke="black" d="M196.924,-480.924C202.784,-462.552 210.596,-433.152 210.596,-407 210.596,-407 210.596,-407 210.596,-223 210.596,-187.466 184.945,-153.911 164.699,-132.96"/>
<polygon fill="black" stroke="black" points="167.096,-130.409 157.541,-125.831 162.157,-135.368 167.096,-130.409"/>
<text text-anchor="middle" x="215.096" y="-311.4" font-family="Times Roman,serif" font-size="14.00">a</text>
</g>
<!-- q3&#45;&gt;q6 -->
<g id="edge24" class="edge"><title>q3&#45;&gt;q6</title>
<path fill="none" stroke="black" d="M138.918,-391.808C122.446,-376.803 97.0876,-353.705 78.4799,-336.755"/>
<polygon fill="black" stroke="black" points="80.7137,-334.056 70.964,-329.909 75.9999,-339.231 80.7137,-334.056"/>
<text text-anchor="middle" x="118.096" y="-357.4" font-family="Times Roman,serif" font-size="14.00">a</text>
</g>
<!-- q3&#45;&gt;q4 -->
<g id="edge22" class="edge"><title>q3&#45;&gt;q4</title>
<path fill="none" stroke="black" d="M154.699,-388.247C152.981,-352.436 149.084,-271.836 145.596,-204 144.316,-179.108 143.936,-172.889 142.596,-148 142.457,-145.414 142.312,-142.727 142.167,-140.034"/>
<polygon fill="black" stroke="black" points="145.65,-139.619 141.615,-129.823 138.66,-139.997 145.65,-139.619"/>
<text text-anchor="middle" x="153.096" y="-265.4" font-family="Times Roman,serif" font-size="14.00">b</text>
</g>
<!-- q4&#45;&gt;q2 -->
<g id="edge18" class="edge"><title>q4&#45;&gt;q2</title>
<path fill="none" stroke="black" d="M126.353,-94.931C116.455,-83.8638 102.886,-68.8884 90.5963,-56 86.0708,-51.254 81.1556,-46.2425 76.4302,-41.4927"/>
<polygon fill="black" stroke="black" points="78.7943,-38.9072 69.2441,-34.3198 73.8491,-43.8615 78.7943,-38.9072"/>
<text text-anchor="middle" x="111.096" y="-61.4" font-family="Times Roman,serif" font-size="14.00">b</text>
</g>
<!-- q4&#45;&gt;q4 -->
<g id="edge20" class="edge"><title>q4&#45;&gt;q4</title>
<path fill="none" stroke="black" d="M164.671,-119.454C175.839,-120.377 185.596,-117.559 185.596,-111 185.596,-106.593 181.191,-103.875 174.914,-102.846"/>
<polygon fill="black" stroke="black" points="174.769,-99.3402 164.671,-102.546 174.564,-106.337 174.769,-99.3402"/>
<text text-anchor="middle" x="190.096" y="-107.4" font-family="Times Roman,serif" font-size="14.00">a</text>
</g>
</g>
</svg>
