<?xml version="1.0" encoding="UTF-8" standalone="no"?>
<!DOCTYPE svg PUBLIC "-//W3C//DTD SVG 1.1//EN"
 "http://www.w3.org/Graphics/SVG/1.1/DTD/svg11.dtd">
<!-- Generated by graphviz version 2.26.3 (20100126.1600)
 -->
<!-- Title: G Pages: 1 -->
<svg width="251pt" height="412pt"
 viewBox="0.00 0.00 251.00 412.00" xmlns="http://www.w3.org/2000/svg" xmlns:xlink="http://www.w3.org/1999/xlink">
<g id="graph1" class="graph" transform="scale(1 1) rotate(0) translate(4 408)">
<title>G</title>
<polygon fill="white" stroke="white" points="-4,5 -4,-408 248,-408 248,5 -4,5"/>
<!-- q6 -->
<g id="node1" class="node"><title>q6</title>
<ellipse fill="none" stroke="black" cx="117" cy="-386" rx="27" ry="18"/>
<text text-anchor="middle" x="117" y="-381.9" font-family="Times Roman,serif" font-size="14.00">q6</text>
</g>
<!-- q7 -->
<g id="node3" class="node"><title>q7</title>
<ellipse fill="none" stroke="black" cx="27" cy="-292" rx="27" ry="18"/>
<text text-anchor="middle" x="27" y="-287.9" font-family="Times Roman,serif" font-size="14.00">q7</text>
</g>
<!-- q6&#45;&gt;q7 -->
<g id="edge2" class="edge"><title>q6&#45;&gt;q7</title>
<path fill="none" stroke="black" d="M102.138,-370.478C87.5909,-355.284 65.2664,-331.967 48.728,-314.694"/>
<polygon fill="black" stroke="black" points="51.029,-312.036 41.5851,-307.233 45.9728,-316.877 51.029,-312.036"/>
<text text-anchor="middle" x="85.5" y="-336.9" font-family="Times Roman,serif" font-size="14.00">b</text>
</g>
<!-- q4 -->
<g id="node5" class="node"><title>q4</title>
<ellipse fill="none" stroke="black" cx="103" cy="-198" rx="27" ry="18"/>
<text text-anchor="middle" x="103" y="-193.9" font-family="Times Roman,serif" font-size="14.00">q4</text>
</g>
<!-- q6&#45;&gt;q4 -->
<g id="edge4" class="edge"><title>q6&#45;&gt;q4</title>
<path fill="none" stroke="black" d="M115.658,-367.974C113.218,-335.211 108.039,-265.672 105.119,-226.451"/>
<polygon fill="black" stroke="black" points="108.592,-225.96 104.359,-216.248 101.611,-226.48 108.592,-225.96"/>
<text text-anchor="middle" x="115.5" y="-287.9" font-family="Times Roman,serif" font-size="14.00">a</text>
</g>
<!-- q7&#45;&gt;q7 -->
<g id="edge8" class="edge"><title>q7&#45;&gt;q7</title>
<path fill="none" stroke="black" d="M50.6146,-300.78C61.9731,-301.864 72,-298.938 72,-292 72,-287.339 67.4737,-284.488 61.0584,-283.448"/>
<polygon fill="black" stroke="black" points="60.6888,-279.939 50.6146,-283.22 60.5356,-286.938 60.6888,-279.939"/>
<text text-anchor="middle" x="76.5" y="-287.9" font-family="Times Roman,serif" font-size="14.00">a</text>
</g>
<!-- q7&#45;&gt;q4 -->
<g id="edge6" class="edge"><title>q7&#45;&gt;q4</title>
<path fill="none" stroke="black" d="M39.8924,-276.054C51.9025,-261.2 69.9693,-238.854 83.6986,-221.873"/>
<polygon fill="black" stroke="black" points="86.4788,-224.001 90.0444,-214.024 81.0354,-219.6 86.4788,-224.001"/>
<text text-anchor="middle" x="76.5" y="-238.9" font-family="Times Roman,serif" font-size="14.00">b</text>
</g>
<!-- q4&#45;&gt;q4 -->
<g id="edge16" class="edge"><title>q4&#45;&gt;q4</title>
<path fill="none" stroke="black" d="M127.532,-206.121C138.508,-206.895 148,-204.188 148,-198 148,-193.843 143.715,-191.257 137.574,-190.242"/>
<polygon fill="black" stroke="black" points="137.652,-186.742 127.532,-189.879 137.4,-193.738 137.652,-186.742"/>
<text text-anchor="middle" x="152.5" y="-193.9" font-family="Times Roman,serif" font-size="14.00">a</text>
</g>
<!-- q2 -->
<g id="node8" class="node"><title>q2</title>
<ellipse fill="none" stroke="black" cx="103" cy="-108" rx="27" ry="18"/>
<text text-anchor="middle" x="103" y="-103.9" font-family="Times Roman,serif" font-size="14.00">q2</text>
</g>
<!-- q4&#45;&gt;q2 -->
<g id="edge14" class="edge"><title>q4&#45;&gt;q2</title>
<path fill="none" stroke="black" d="M103,-179.787C103,-167.344 103,-150.605 103,-136.421"/>
<polygon fill="black" stroke="black" points="106.5,-136.186 103,-126.186 99.5001,-136.186 106.5,-136.186"/>
<text text-anchor="middle" x="107.5" y="-148.9" font-family="Times Roman,serif" font-size="14.00">b</text>
</g>
<!-- q2&#45;&gt;q7 -->
<g id="edge10" class="edge"><title>q2&#45;&gt;q7</title>
<path fill="none" stroke="black" d="M90.8218,-124.4C80.8206,-138.519 66.901,-159.76 58,-180 45.8857,-207.547 37.3644,-241.015 32.3617,-264.152"/>
<polygon fill="black" stroke="black" points="28.9237,-263.494 30.3104,-273.998 35.7766,-264.922 28.9237,-263.494"/>
<text text-anchor="middle" x="62.5" y="-193.9" font-family="Times Roman,serif" font-size="14.00">b</text>
</g>
<!-- q0 -->
<g id="node11" class="node"><title>q0</title>
<ellipse fill="none" stroke="black" cx="185" cy="-18" rx="27" ry="18"/>
<text text-anchor="middle" x="185" y="-13.9" font-family="Times Roman,serif" font-size="14.00">q0</text>
</g>
<!-- q2&#45;&gt;q0 -->
<g id="edge12" class="edge"><title>q2&#45;&gt;q0</title>
<path fill="none" stroke="black" d="M117.283,-92.3232C130.217,-78.1273 149.434,-57.0354 164.096,-40.9432"/>
<polygon fill="black" stroke="black" points="166.733,-43.2464 170.88,-33.4972 161.558,-38.5319 166.733,-43.2464"/>
<text text-anchor="middle" x="155.5" y="-58.9" font-family="Times Roman,serif" font-size="14.00">a</text>
</g>
<!-- q0&#45;&gt;q6 -->
<g id="edge24" class="edge"><title>q0&#45;&gt;q6</title>
<path fill="none" stroke="black" d="M199.437,-33.2116C213.89,-50.0932 234,-78.8233 234,-108 234,-292 234,-292 234,-292 234,-334.687 186.084,-361.236 151.58,-374.819"/>
<polygon fill="black" stroke="black" points="149.957,-371.689 141.813,-378.466 152.405,-378.247 149.957,-371.689"/>
<text text-anchor="middle" x="238.5" y="-193.9" font-family="Times Roman,serif" font-size="14.00">a</text>
</g>
<!-- q0&#45;&gt;q0 -->
<g id="edge22" class="edge"><title>q0&#45;&gt;q0</title>
<path fill="none" stroke="black" d="M209.532,-26.1211C220.508,-26.8945 230,-24.1875 230,-18 230,-13.8428 225.715,-11.2567 219.574,-10.2417"/>
<polygon fill="black" stroke="black" points="219.652,-6.74237 209.532,-9.87891 219.4,-13.7378 219.652,-6.74237"/>
<text text-anchor="middle" x="234.5" y="-13.9" font-family="Times Roman,serif" font-size="14.00">b</text>
</g>
<!-- q3 -->
<g id="node14" class="node"><title>q3</title>
<ellipse fill="none" stroke="black" cx="175" cy="-292" rx="27" ry="18"/>
<ellipse fill="none" stroke="black" cx="175" cy="-292" rx="31" ry="22"/>
<text text-anchor="middle" x="175" y="-287.9" font-family="Times Roman,serif" font-size="14.00">q3</text>
</g>
<!-- q3&#45;&gt;q4 -->
<g id="edge18" class="edge"><title>q3&#45;&gt;q4</title>
<path fill="none" stroke="black" d="M160.191,-272.357C151.683,-261.103 140.778,-246.73 131,-234 128.022,-230.123 124.851,-226.021 121.754,-222.029"/>
<polygon fill="black" stroke="black" points="124.487,-219.843 115.586,-214.097 118.961,-224.139 124.487,-219.843"/>
<text text-anchor="middle" x="148.5" y="-238.9" font-family="Times Roman,serif" font-size="14.00">b</text>
</g>
<!-- q3&#45;&gt;q0 -->
<g id="edge20" class="edge"><title>q3&#45;&gt;q0</title>
<path fill="none" stroke="black" d="M175.818,-269.577C177.629,-219.971 181.971,-101.005 183.966,-46.3421"/>
<polygon fill="black" stroke="black" points="187.465,-46.4276 184.332,-36.3066 180.469,-46.1723 187.465,-46.4276"/>
<text text-anchor="middle" x="184.5" y="-148.9" font-family="Times Roman,serif" font-size="14.00">a</text>
</g>
</g>
</svg>
