<?xml version="1.0" encoding="UTF-8" standalone="no"?>
<!DOCTYPE svg PUBLIC "-//W3C//DTD SVG 1.1//EN"
 "http://www.w3.org/Graphics/SVG/1.1/DTD/svg11.dtd">
<!-- Generated by graphviz version 2.26.3 (20100126.1600)
 -->
<!-- Title: G Pages: 1 -->
<svg width="110pt" height="232pt"
 viewBox="0.00 0.00 110.40 232.00" xmlns="http://www.w3.org/2000/svg" xmlns:xlink="http://www.w3.org/1999/xlink">
<g id="graph1" class="graph" transform="scale(1 1) rotate(0) translate(4 228)">
<title>G</title>
<polygon fill="white" stroke="white" points="-4,5 -4,-228 107.398,-228 107.398,5 -4,5"/>
<!-- q1 -->
<g id="node1" class="node"><title>q1</title>
<ellipse fill="none" stroke="black" cx="53.3976" cy="-202" rx="27" ry="18"/>
<ellipse fill="none" stroke="black" cx="53.3976" cy="-202" rx="31" ry="22"/>
<text text-anchor="middle" x="53.3976" y="-197.9" font-family="Times Roman,serif" font-size="14.00">q1</text>
</g>
<!-- q0 -->
<g id="node3" class="node"><title>q0</title>
<ellipse fill="none" stroke="darkred" cx="48.3976" cy="-18" rx="27" ry="18"/>
<text text-anchor="middle" x="48.3976" y="-13.9" font-family="Times Roman,serif" font-size="14.00">q0</text>
</g>
<!-- q1&#45;&gt;q0 -->
<g id="edge2" class="edge"><title>q1&#45;&gt;q0</title>
<path fill="none" stroke="black" d="M36.5591,-183.296C24.7187,-168.815 9.87655,-147.636 3.39765,-126 -1.19219,-110.672 -1.01327,-105.38 3.39765,-90 8.39793,-72.565 18.9876,-55.2565 28.6384,-41.9807"/>
<polygon fill="black" stroke="black" points="31.5278,-43.9627 34.7765,-33.8783 25.9481,-39.7357 31.5278,-43.9627"/>
<text text-anchor="middle" x="7.89765" y="-103.9" font-family="Times Roman,serif" font-size="14.00">b</text>
</g>
<!-- q4 -->
<g id="node5" class="node"><title>q4</title>
<ellipse fill="none" stroke="black" cx="48.3976" cy="-108" rx="27" ry="18"/>
<text text-anchor="middle" x="48.3976" y="-103.9" font-family="Times Roman,serif" font-size="14.00">q4</text>
</g>
<!-- q1&#45;&gt;q4 -->
<g id="edge4" class="edge"><title>q1&#45;&gt;q4</title>
<path fill="none" stroke="black" d="M43.8443,-180.812C41.6019,-174.849 39.5357,-168.276 38.3976,-162 36.8254,-153.33 37.6918,-143.881 39.4409,-135.347"/>
<polygon fill="black" stroke="black" points="42.8716,-136.055 41.9076,-125.504 36.0816,-134.353 42.8716,-136.055"/>
<text text-anchor="middle" x="42.8976" y="-148.9" font-family="Times Roman,serif" font-size="14.00">a</text>
</g>
<!-- q0&#45;&gt;q1 -->
<g id="edge10" class="edge"><title>q0&#45;&gt;q1</title>
<path fill="none" stroke="black" d="M59.5003,-34.5987C68.203,-48.6679 79.6134,-69.7337 84.3976,-90 91.0494,-118.177 80.5033,-149.957 69.9497,-172.447"/>
<polygon fill="black" stroke="black" points="66.7782,-170.964 65.4764,-181.479 73.0511,-174.071 66.7782,-170.964"/>
<text text-anchor="middle" x="90.8976" y="-103.9" font-family="Times Roman,serif" font-size="14.00">b</text>
</g>
<!-- q0&#45;&gt;q0 -->
<g id="edge12" class="edge"><title>q0&#45;&gt;q0</title>
<path fill="none" stroke="black" d="M72.9301,-26.1211C83.9055,-26.8945 93.3976,-24.1875 93.3976,-18 93.3976,-13.8428 89.1127,-11.2567 82.972,-10.2417"/>
<polygon fill="black" stroke="black" points="83.05,-6.74237 72.9301,-9.87891 82.7972,-13.7378 83.05,-6.74237"/>
<text text-anchor="middle" x="97.8976" y="-13.9" font-family="Times Roman,serif" font-size="14.00">a</text>
</g>
<!-- q4&#45;&gt;q1 -->
<g id="edge6" class="edge"><title>q4&#45;&gt;q1</title>
<path fill="none" stroke="black" d="M49.3564,-126.025C50.0111,-138.333 50.8969,-154.987 51.6724,-169.566"/>
<polygon fill="black" stroke="black" points="48.1864,-169.923 52.2127,-179.723 55.1765,-169.551 48.1864,-169.923"/>
<text text-anchor="middle" x="54.8976" y="-148.9" font-family="Times Roman,serif" font-size="14.00">b</text>
</g>
<!-- q4&#45;&gt;q0 -->
<g id="edge8" class="edge"><title>q4&#45;&gt;q0</title>
<path fill="none" stroke="black" d="M48.3976,-89.7872C48.3976,-77.3443 48.3976,-60.6053 48.3976,-46.4211"/>
<polygon fill="black" stroke="black" points="51.8977,-46.1857 48.3976,-36.1858 44.8977,-46.1858 51.8977,-46.1857"/>
<text text-anchor="middle" x="52.8976" y="-58.9" font-family="Times Roman,serif" font-size="14.00">a</text>
</g>
</g>
</svg>
