<?xml version="1.0" encoding="UTF-8" standalone="no"?>
<!DOCTYPE svg PUBLIC "-//W3C//DTD SVG 1.1//EN"
 "http://www.w3.org/Graphics/SVG/1.1/DTD/svg11.dtd">
<!-- Generated by graphviz version 2.26.3 (20100126.1600)
 -->
<!-- Title: G Pages: 1 -->
<svg width="385pt" height="414pt"
 viewBox="0.00 0.00 385.00 414.00" xmlns="http://www.w3.org/2000/svg" xmlns:xlink="http://www.w3.org/1999/xlink">
<g id="graph1" class="graph" transform="scale(1 1) rotate(0) translate(4 410)">
<title>G</title>
<polygon fill="white" stroke="white" points="-4,5 -4,-410 382,-410 382,5 -4,5"/>
<!-- q6 -->
<g id="node1" class="node"><title>q6</title>
<ellipse fill="none" stroke="black" cx="278" cy="-387" rx="27" ry="18.3848"/>
<text text-anchor="middle" x="278" y="-383.4" font-family="Times Roman,serif" font-size="14.00">q6</text>
</g>
<!-- q2 -->
<g id="node3" class="node"><title>q2</title>
<ellipse fill="none" stroke="black" cx="143" cy="-295" rx="27" ry="18.3848"/>
<text text-anchor="middle" x="143" y="-291.4" font-family="Times Roman,serif" font-size="14.00">q2</text>
</g>
<!-- q6&#45;&gt;q2 -->
<g id="edge2" class="edge"><title>q6&#45;&gt;q2</title>
<path fill="none" stroke="black" d="M258.658,-373.819C235.601,-358.106 196.901,-331.733 170.68,-313.863"/>
<polygon fill="black" stroke="black" points="172.541,-310.896 162.306,-308.157 168.599,-316.681 172.541,-310.896"/>
<text text-anchor="middle" x="226.5" y="-337.4" font-family="Times Roman,serif" font-size="14.00">b</text>
</g>
<!-- q5 -->
<g id="node5" class="node"><title>q5</title>
<ellipse fill="none" stroke="black" cx="123" cy="-19" rx="27" ry="18.3848"/>
<text text-anchor="middle" x="123" y="-15.4" font-family="Times Roman,serif" font-size="14.00">q5</text>
</g>
<!-- q6&#45;&gt;q5 -->
<g id="edge4" class="edge"><title>q6&#45;&gt;q5</title>
<path fill="none" stroke="black" d="M251.516,-382.092C191.636,-370.239 51,-337.842 51,-295 51,-295 51,-295 51,-111 51,-81.0523 74.9528,-55.0448 95.2273,-38.3952"/>
<polygon fill="black" stroke="black" points="97.6056,-40.9785 103.326,-32.0605 93.2927,-35.4649 97.6056,-40.9785"/>
<text text-anchor="middle" x="55.5" y="-199.4" font-family="Times Roman,serif" font-size="14.00">a</text>
</g>
<!-- q3 -->
<g id="node9" class="node"><title>q3</title>
<ellipse fill="none" stroke="black" cx="223" cy="-111" rx="27" ry="18.3848"/>
<text text-anchor="middle" x="223" y="-107.4" font-family="Times Roman,serif" font-size="14.00">q3</text>
</g>
<!-- q2&#45;&gt;q3 -->
<g id="edge10" class="edge"><title>q2&#45;&gt;q3</title>
<path fill="none" stroke="black" d="M160.181,-280.354C174.868,-266.792 195.276,-245.26 206,-222 218.049,-195.864 221.855,-162.961 222.918,-139.786"/>
<polygon fill="black" stroke="black" points="226.423,-139.677 223.238,-129.572 219.426,-139.458 226.423,-139.677"/>
<text text-anchor="middle" x="221.5" y="-199.4" font-family="Times Roman,serif" font-size="14.00">b</text>
</g>
<!-- q4 -->
<g id="node11" class="node"><title>q4</title>
<ellipse fill="none" stroke="black" cx="143" cy="-203" rx="27" ry="18.3848"/>
<text text-anchor="middle" x="143" y="-199.4" font-family="Times Roman,serif" font-size="14.00">q4</text>
</g>
<!-- q2&#45;&gt;q4 -->
<g id="edge12" class="edge"><title>q2&#45;&gt;q4</title>
<path fill="none" stroke="black" d="M143,-276.382C143,-263.538 143,-246.216 143,-231.627"/>
<polygon fill="black" stroke="black" points="146.5,-231.59 143,-221.59 139.5,-231.59 146.5,-231.59"/>
<text text-anchor="middle" x="147.5" y="-245.4" font-family="Times Roman,serif" font-size="14.00">a</text>
</g>
<!-- q5&#45;&gt;q6 -->
<g id="edge6" class="edge"><title>q5&#45;&gt;q6</title>
<path fill="none" stroke="black" d="M149.568,-22.7123C185.814,-28.3054 248.087,-39.9696 264,-56 281.77,-73.9016 278,-85.7761 278,-111 278,-295 278,-295 278,-295 278,-316.13 278,-339.99 278,-358.116"/>
<polygon fill="black" stroke="black" points="274.5,-358.322 278,-368.322 281.5,-358.322 274.5,-358.322"/>
<text text-anchor="middle" x="282.5" y="-199.4" font-family="Times Roman,serif" font-size="14.00">b</text>
</g>
<!-- q5&#45;&gt;q2 -->
<g id="edge8" class="edge"><title>q5&#45;&gt;q2</title>
<path fill="none" stroke="black" d="M117.899,-37.2004C108.645,-73.0689 91.4262,-155.208 107,-222 110.859,-238.549 119.035,-255.657 126.622,-269.149"/>
<polygon fill="black" stroke="black" points="123.648,-270.997 131.72,-277.86 129.69,-267.461 123.648,-270.997"/>
<text text-anchor="middle" x="104.5" y="-153.4" font-family="Times Roman,serif" font-size="14.00">a</text>
</g>
<!-- q3&#45;&gt;q5 -->
<g id="edge24" class="edge"><title>q3&#45;&gt;q5</title>
<path fill="none" stroke="black" d="M206.487,-95.8081C190.178,-80.8034 165.071,-57.7049 146.647,-40.7554"/>
<polygon fill="black" stroke="black" points="148.935,-38.1041 139.206,-33.9092 144.195,-43.2556 148.935,-38.1041"/>
<text text-anchor="middle" x="185.5" y="-61.4" font-family="Times Roman,serif" font-size="14.00">a</text>
</g>
<!-- q0 -->
<g id="node18" class="node"><title>q0</title>
<ellipse fill="none" stroke="black" cx="323" cy="-19" rx="27" ry="18.3848"/>
<text text-anchor="middle" x="323" y="-15.4" font-family="Times Roman,serif" font-size="14.00">q0</text>
</g>
<!-- q3&#45;&gt;q0 -->
<g id="edge22" class="edge"><title>q3&#45;&gt;q0</title>
<path fill="none" stroke="black" d="M239.513,-95.8081C255.822,-80.8034 280.929,-57.7049 299.353,-40.7554"/>
<polygon fill="black" stroke="black" points="301.805,-43.2556 306.794,-33.9092 297.065,-38.1041 301.805,-43.2556"/>
<text text-anchor="middle" x="285.5" y="-61.4" font-family="Times Roman,serif" font-size="14.00">b</text>
</g>
<!-- q4&#45;&gt;q3 -->
<g id="edge18" class="edge"><title>q4&#45;&gt;q3</title>
<path fill="none" stroke="black" d="M156.935,-186.975C169.477,-172.552 188.073,-151.166 202.344,-134.755"/>
<polygon fill="black" stroke="black" points="205.036,-136.993 208.956,-127.15 199.753,-132.4 205.036,-136.993"/>
<text text-anchor="middle" x="194.5" y="-153.4" font-family="Times Roman,serif" font-size="14.00">b</text>
</g>
<!-- q4&#45;&gt;q4 -->
<g id="edge20" class="edge"><title>q4&#45;&gt;q4</title>
<path fill="none" stroke="black" d="M167.074,-211.454C178.242,-212.377 188,-209.559 188,-203 188,-198.593 183.595,-195.875 177.317,-194.846"/>
<polygon fill="black" stroke="black" points="177.173,-191.34 167.074,-194.546 176.967,-198.337 177.173,-191.34"/>
<text text-anchor="middle" x="192.5" y="-199.4" font-family="Times Roman,serif" font-size="14.00">a</text>
</g>
<!-- q1 -->
<g id="node12" class="node"><title>q1</title>
<ellipse fill="none" stroke="black" cx="27" cy="-387" rx="27" ry="18.3848"/>
<text text-anchor="middle" x="27" y="-383.4" font-family="Times Roman,serif" font-size="14.00">q1</text>
</g>
<!-- q1&#45;&gt;q2 -->
<g id="edge14" class="edge"><title>q1&#45;&gt;q2</title>
<path fill="none" stroke="black" d="M44.8708,-372.827C64.2563,-357.452 95.3729,-332.773 117.362,-315.334"/>
<polygon fill="black" stroke="black" points="119.639,-317.995 125.299,-309.039 115.289,-312.51 119.639,-317.995"/>
<text text-anchor="middle" x="99.5" y="-337.4" font-family="Times Roman,serif" font-size="14.00">b</text>
</g>
<!-- q1&#45;&gt;q1 -->
<g id="edge16" class="edge"><title>q1&#45;&gt;q1</title>
<path fill="none" stroke="black" d="M51.0743,-395.454C62.2423,-396.377 72,-393.559 72,-387 72,-382.593 67.5952,-379.875 61.3174,-378.846"/>
<polygon fill="black" stroke="black" points="61.1726,-375.34 51.0743,-378.546 60.9674,-382.337 61.1726,-375.34"/>
<text text-anchor="middle" x="76.5" y="-383.4" font-family="Times Roman,serif" font-size="14.00">a</text>
</g>
<!-- q0&#45;&gt;q6 -->
<g id="edge26" class="edge"><title>q0&#45;&gt;q6</title>
<path fill="none" stroke="black" d="M336.501,-35.1284C349.757,-52.6448 368,-82.0177 368,-111 368,-295 368,-295 368,-295 368,-329.578 335.111,-355.97 309.097,-371.438"/>
<polygon fill="black" stroke="black" points="307.225,-368.476 300.247,-376.448 310.674,-374.567 307.225,-368.476"/>
<text text-anchor="middle" x="372.5" y="-199.4" font-family="Times Roman,serif" font-size="14.00">b</text>
</g>
<!-- q0&#45;&gt;q6 -->
<g id="edge28" class="edge"><title>q0&#45;&gt;q6</title>
<path fill="none" stroke="black" d="M323,-37.6776C323,-56.265 323,-85.6042 323,-111 323,-295 323,-295 323,-295 323,-319.68 309.771,-344.644 297.658,-362.328"/>
<polygon fill="black" stroke="black" points="294.508,-360.712 291.501,-370.872 300.187,-364.805 294.508,-360.712"/>
<text text-anchor="middle" x="327.5" y="-199.4" font-family="Times Roman,serif" font-size="14.00">a</text>
</g>
</g>
</svg>
