<?xml version="1.0" encoding="UTF-8" standalone="no"?>
<!DOCTYPE svg PUBLIC "-//W3C//DTD SVG 1.1//EN"
 "http://www.w3.org/Graphics/SVG/1.1/DTD/svg11.dtd">
<!-- Generated by graphviz version 2.26.3 (20100126.1600)
 -->
<!-- Title: G Pages: 1 -->
<svg width="178pt" height="502pt"
 viewBox="0.00 0.00 178.00 502.00" xmlns="http://www.w3.org/2000/svg" xmlns:xlink="http://www.w3.org/1999/xlink">
<g id="graph1" class="graph" transform="scale(1 1) rotate(0) translate(4 498)">
<title>G</title>
<polygon fill="white" stroke="white" points="-4,5 -4,-498 175,-498 175,5 -4,5"/>
<!-- q6 -->
<g id="node1" class="node"><title>q6</title>
<ellipse fill="none" stroke="black" cx="116" cy="-476" rx="27" ry="18"/>
<text text-anchor="middle" x="116" y="-471.9" font-family="Times Roman,serif" font-size="14.00">q6</text>
</g>
<!-- q6&#45;&gt;q6 -->
<g id="edge2" class="edge"><title>q6&#45;&gt;q6</title>
<path fill="none" stroke="black" d="M140.532,-484.121C151.508,-484.895 161,-482.188 161,-476 161,-471.843 156.715,-469.257 150.574,-468.242"/>
<polygon fill="black" stroke="black" points="150.652,-464.742 140.532,-467.879 150.4,-471.738 150.652,-464.742"/>
<text text-anchor="middle" x="165.5" y="-471.9" font-family="Times Roman,serif" font-size="14.00">b</text>
</g>
<!-- q4 -->
<g id="node4" class="node"><title>q4</title>
<ellipse fill="none" stroke="black" cx="55" cy="-386" rx="27" ry="18"/>
<text text-anchor="middle" x="55" y="-381.9" font-family="Times Roman,serif" font-size="14.00">q4</text>
</g>
<!-- q6&#45;&gt;q4 -->
<g id="edge4" class="edge"><title>q6&#45;&gt;q4</title>
<path fill="none" stroke="black" d="M104.812,-459.493C95.6685,-446.003 82.5921,-426.71 72.1314,-411.276"/>
<polygon fill="black" stroke="black" points="74.8318,-409.022 66.324,-402.708 69.0373,-412.949 74.8318,-409.022"/>
<text text-anchor="middle" x="95.5" y="-426.9" font-family="Times Roman,serif" font-size="14.00">a</text>
</g>
<!-- q2 -->
<g id="node9" class="node"><title>q2</title>
<ellipse fill="none" stroke="black" cx="55" cy="-296" rx="27" ry="18"/>
<text text-anchor="middle" x="55" y="-291.9" font-family="Times Roman,serif" font-size="14.00">q2</text>
</g>
<!-- q4&#45;&gt;q2 -->
<g id="edge18" class="edge"><title>q4&#45;&gt;q2</title>
<path fill="none" stroke="black" d="M55,-367.787C55,-355.344 55,-338.605 55,-324.421"/>
<polygon fill="black" stroke="black" points="58.5001,-324.186 55,-314.186 51.5001,-324.186 58.5001,-324.186"/>
<text text-anchor="middle" x="59.5" y="-336.9" font-family="Times Roman,serif" font-size="14.00">b</text>
</g>
<!-- q3 -->
<g id="node14" class="node"><title>q3</title>
<ellipse fill="none" stroke="black" cx="57" cy="-18" rx="27" ry="18"/>
<text text-anchor="middle" x="57" y="-13.9" font-family="Times Roman,serif" font-size="14.00">q3</text>
</g>
<!-- q4&#45;&gt;q3 -->
<g id="edge20" class="edge"><title>q4&#45;&gt;q3</title>
<path fill="none" stroke="black" d="M39.0917,-371.422C22.8481,-354.868 0,-326.214 0,-296 0,-296 0,-296 0,-112 0,-84.3605 18.2412,-57.9106 34.0854,-40.1495"/>
<polygon fill="black" stroke="black" points="36.8466,-42.3212 41.1223,-32.6274 31.7347,-37.539 36.8466,-42.3212"/>
<text text-anchor="middle" x="4.5" y="-201.9" font-family="Times Roman,serif" font-size="14.00">a</text>
</g>
<!-- q5 -->
<g id="node5" class="node"><title>q5</title>
<ellipse fill="none" stroke="black" cx="134" cy="-206" rx="27" ry="18"/>
<text text-anchor="middle" x="134" y="-201.9" font-family="Times Roman,serif" font-size="14.00">q5</text>
</g>
<!-- q5&#45;&gt;q6 -->
<g id="edge8" class="edge"><title>q5&#45;&gt;q6</title>
<path fill="none" stroke="black" d="M132.796,-224.056C129.728,-270.081 121.595,-392.075 117.888,-447.673"/>
<polygon fill="black" stroke="black" points="114.382,-447.655 117.209,-457.865 121.367,-448.12 114.382,-447.655"/>
<text text-anchor="middle" x="129.5" y="-336.9" font-family="Times Roman,serif" font-size="14.00">a</text>
</g>
<!-- q1 -->
<g id="node7" class="node"><title>q1</title>
<ellipse fill="none" stroke="black" cx="135" cy="-112" rx="27" ry="18"/>
<ellipse fill="none" stroke="black" cx="135" cy="-112" rx="31" ry="22"/>
<text text-anchor="middle" x="135" y="-107.9" font-family="Times Roman,serif" font-size="14.00">q1</text>
</g>
<!-- q5&#45;&gt;q1 -->
<g id="edge6" class="edge"><title>q5&#45;&gt;q1</title>
<path fill="none" stroke="black" d="M134.193,-187.876C134.324,-175.512 134.502,-158.795 134.657,-144.199"/>
<polygon fill="black" stroke="black" points="138.159,-144.076 134.766,-134.039 131.159,-144.001 138.159,-144.076"/>
<text text-anchor="middle" x="138.5" y="-156.9" font-family="Times Roman,serif" font-size="14.00">b</text>
</g>
<!-- q1&#45;&gt;q5 -->
<g id="edge14" class="edge"><title>q1&#45;&gt;q5</title>
<path fill="none" stroke="black" d="M126.212,-133.366C122.749,-144.269 120.016,-157.777 122,-170 122.465,-172.865 123.125,-175.811 123.9,-178.724"/>
<polygon fill="black" stroke="black" points="120.573,-179.811 126.857,-188.34 127.263,-177.753 120.573,-179.811"/>
<text text-anchor="middle" x="126.5" y="-156.9" font-family="Times Roman,serif" font-size="14.00">b</text>
</g>
<!-- q1&#45;&gt;q3 -->
<g id="edge16" class="edge"><title>q1&#45;&gt;q3</title>
<path fill="none" stroke="black" d="M120.39,-92.3507C111.771,-80.9677 100.521,-66.4677 90,-54 86.3775,-49.7071 82.4199,-45.2251 78.5432,-40.9394"/>
<polygon fill="black" stroke="black" points="81.0798,-38.5269 71.7424,-33.5204 75.9197,-43.257 81.0798,-38.5269"/>
<text text-anchor="middle" x="109.5" y="-58.9" font-family="Times Roman,serif" font-size="14.00">a</text>
</g>
<!-- q2&#45;&gt;q5 -->
<g id="edge12" class="edge"><title>q2&#45;&gt;q5</title>
<path fill="none" stroke="black" d="M69.773,-280.779C75.8235,-274.437 82.8376,-266.945 89,-260 97.5199,-250.399 106.636,-239.571 114.419,-230.145"/>
<polygon fill="black" stroke="black" points="117.228,-232.239 120.868,-222.289 111.818,-227.798 117.228,-232.239"/>
<text text-anchor="middle" x="109.5" y="-246.9" font-family="Times Roman,serif" font-size="14.00">a</text>
</g>
<!-- q2&#45;&gt;q2 -->
<g id="edge10" class="edge"><title>q2&#45;&gt;q2</title>
<path fill="none" stroke="black" d="M79.5325,-304.121C90.5078,-304.895 100,-302.188 100,-296 100,-291.843 95.7151,-289.257 89.5743,-288.242"/>
<polygon fill="black" stroke="black" points="89.6524,-284.742 79.5325,-287.879 89.3995,-291.738 89.6524,-284.742"/>
<text text-anchor="middle" x="104.5" y="-291.9" font-family="Times Roman,serif" font-size="14.00">b</text>
</g>
<!-- q3&#45;&gt;q2 -->
<g id="edge22" class="edge"><title>q3&#45;&gt;q2</title>
<path fill="none" stroke="black" d="M54.1614,-36.2225C50.0383,-64.7224 43.0822,-121.596 45,-170 46.3303,-203.575 49.6469,-242.065 52.0977,-267.577"/>
<polygon fill="black" stroke="black" points="48.6276,-268.053 53.0867,-277.664 55.5942,-267.37 48.6276,-268.053"/>
<text text-anchor="middle" x="49.5" y="-156.9" font-family="Times Roman,serif" font-size="14.00">b</text>
</g>
<!-- q3&#45;&gt;q2 -->
<g id="edge24" class="edge"><title>q3&#45;&gt;q2</title>
<path fill="none" stroke="black" d="M59.9814,-35.8944C60.8083,-41.6572 61.591,-48.0827 62,-54 68.3126,-145.338 70.778,-168.866 62,-260 61.74,-262.699 61.3727,-265.497 60.9411,-268.286"/>
<polygon fill="black" stroke="black" points="57.4916,-267.693 59.1724,-278.154 64.3818,-268.928 57.4916,-267.693"/>
<text text-anchor="middle" x="72.5" y="-156.9" font-family="Times Roman,serif" font-size="14.00">a</text>
</g>
</g>
</svg>
