<?xml version="1.0" encoding="UTF-8" standalone="no"?>
<!DOCTYPE svg PUBLIC "-//W3C//DTD SVG 1.1//EN"
 "http://www.w3.org/Graphics/SVG/1.1/DTD/svg11.dtd">
<!-- Generated by graphviz version 2.26.3 (20100126.1600)
 -->
<!-- Title: G Pages: 1 -->
<svg width="255pt" height="412pt"
 viewBox="0.00 0.00 255.00 412.00" xmlns="http://www.w3.org/2000/svg" xmlns:xlink="http://www.w3.org/1999/xlink">
<g id="graph1" class="graph" transform="scale(1 1) rotate(0) translate(4 408)">
<title>G</title>
<polygon fill="white" stroke="white" points="-4,5 -4,-408 252,-408 252,5 -4,5"/>
<!-- q6 -->
<g id="node1" class="node"><title>q6</title>
<ellipse fill="none" stroke="black" cx="117" cy="-386" rx="27" ry="18"/>
<text text-anchor="middle" x="117" y="-381.9" font-family="Times Roman,serif" font-size="14.00">q6</text>
</g>
<!-- q7 -->
<g id="node3" class="node"><title>q7</title>
<ellipse fill="none" stroke="black" cx="27" cy="-296" rx="27" ry="18"/>
<text text-anchor="middle" x="27" y="-291.9" font-family="Times Roman,serif" font-size="14.00">q7</text>
</g>
<!-- q6&#45;&gt;q7 -->
<g id="edge2" class="edge"><title>q6&#45;&gt;q7</title>
<path fill="none" stroke="black" d="M101.733,-370.733C87.2939,-356.294 65.4629,-334.463 49.1189,-318.119"/>
<polygon fill="black" stroke="black" points="51.5878,-315.638 42.0418,-311.042 46.638,-320.588 51.5878,-315.638"/>
<text text-anchor="middle" x="85.5" y="-336.9" font-family="Times Roman,serif" font-size="14.00">b</text>
</g>
<!-- q4 -->
<g id="node5" class="node"><title>q4</title>
<ellipse fill="none" stroke="black" cx="64" cy="-206" rx="27" ry="18"/>
<text text-anchor="middle" x="64" y="-201.9" font-family="Times Roman,serif" font-size="14.00">q4</text>
</g>
<!-- q6&#45;&gt;q4 -->
<g id="edge4" class="edge"><title>q6&#45;&gt;q4</title>
<path fill="none" stroke="black" d="M113.063,-367.884C108.237,-346.304 99.5201,-309.245 90,-278 85.4316,-263.007 79.5542,-246.547 74.5436,-233.154"/>
<polygon fill="black" stroke="black" points="77.7339,-231.695 70.9169,-223.585 71.1883,-234.176 77.7339,-231.695"/>
<text text-anchor="middle" x="103.5" y="-291.9" font-family="Times Roman,serif" font-size="14.00">a</text>
</g>
<!-- q7&#45;&gt;q7 -->
<g id="edge8" class="edge"><title>q7&#45;&gt;q7</title>
<path fill="none" stroke="black" d="M51.5325,-304.121C62.5078,-304.895 72,-302.188 72,-296 72,-291.843 67.7151,-289.257 61.5743,-288.242"/>
<polygon fill="black" stroke="black" points="61.6524,-284.742 51.5325,-287.879 61.3995,-291.738 61.6524,-284.742"/>
<text text-anchor="middle" x="76.5" y="-291.9" font-family="Times Roman,serif" font-size="14.00">a</text>
</g>
<!-- q7&#45;&gt;q4 -->
<g id="edge6" class="edge"><title>q7&#45;&gt;q4</title>
<path fill="none" stroke="black" d="M34.31,-278.219C39.6146,-265.316 46.8853,-247.63 52.9039,-232.99"/>
<polygon fill="black" stroke="black" points="56.2658,-234.018 56.8311,-223.438 49.7916,-231.356 56.2658,-234.018"/>
<text text-anchor="middle" x="53.5" y="-246.9" font-family="Times Roman,serif" font-size="14.00">b</text>
</g>
<!-- q4&#45;&gt;q4 -->
<g id="edge16" class="edge"><title>q4&#45;&gt;q4</title>
<path fill="none" stroke="black" d="M88.5325,-214.121C99.5078,-214.895 109,-212.188 109,-206 109,-201.843 104.715,-199.257 98.5743,-198.242"/>
<polygon fill="black" stroke="black" points="98.6524,-194.742 88.5325,-197.879 98.3995,-201.738 98.6524,-194.742"/>
<text text-anchor="middle" x="113.5" y="-201.9" font-family="Times Roman,serif" font-size="14.00">a</text>
</g>
<!-- q2 -->
<g id="node8" class="node"><title>q2</title>
<ellipse fill="none" stroke="black" cx="98" cy="-112" rx="27" ry="18"/>
<text text-anchor="middle" x="98" y="-107.9" font-family="Times Roman,serif" font-size="14.00">q2</text>
</g>
<!-- q4&#45;&gt;q2 -->
<g id="edge14" class="edge"><title>q4&#45;&gt;q2</title>
<path fill="none" stroke="black" d="M70.3951,-188.319C75.3815,-174.533 82.3947,-155.144 88.1042,-139.359"/>
<polygon fill="black" stroke="black" points="91.5234,-140.196 91.6335,-129.601 84.9408,-137.815 91.5234,-140.196"/>
<text text-anchor="middle" x="88.5" y="-156.9" font-family="Times Roman,serif" font-size="14.00">b</text>
</g>
<!-- q0 -->
<g id="node10" class="node"><title>q0</title>
<ellipse fill="none" stroke="black" cx="154" cy="-18" rx="27" ry="18"/>
<text text-anchor="middle" x="154" y="-13.9" font-family="Times Roman,serif" font-size="14.00">q0</text>
</g>
<!-- q2&#45;&gt;q0 -->
<g id="edge10" class="edge"><title>q2&#45;&gt;q0</title>
<path fill="none" stroke="black" d="M94.1617,-94.1474C92.5194,-82.0717 92.2854,-66.1682 99,-54 104.086,-44.7825 112.649,-37.5333 121.522,-32.0309"/>
<polygon fill="black" stroke="black" points="123.344,-35.0225 130.381,-27.1025 119.941,-28.9054 123.344,-35.0225"/>
<text text-anchor="middle" x="103.5" y="-58.9" font-family="Times Roman,serif" font-size="14.00">b</text>
</g>
<!-- q2&#45;&gt;q0 -->
<g id="edge12" class="edge"><title>q2&#45;&gt;q0</title>
<path fill="none" stroke="black" d="M107.447,-94.8628C113.926,-83.2448 122.8,-67.5896 131,-54 133.095,-50.5272 135.345,-46.8953 137.588,-43.3308"/>
<polygon fill="black" stroke="black" points="140.64,-45.0536 143.055,-34.7378 134.734,-41.2958 140.64,-45.0536"/>
<text text-anchor="middle" x="135.5" y="-58.9" font-family="Times Roman,serif" font-size="14.00">a</text>
</g>
<!-- q0&#45;&gt;q6 -->
<g id="edge24" class="edge"><title>q0&#45;&gt;q6</title>
<path fill="none" stroke="black" d="M154,-36.0204C154,-54.9425 154,-85.5625 154,-112 154,-296 154,-296 154,-296 154,-319.092 143.452,-343.182 133.619,-360.622"/>
<polygon fill="black" stroke="black" points="130.398,-359.192 128.302,-369.578 136.417,-362.766 130.398,-359.192"/>
<text text-anchor="middle" x="158.5" y="-201.9" font-family="Times Roman,serif" font-size="14.00">a</text>
</g>
<!-- q0&#45;&gt;q0 -->
<g id="edge22" class="edge"><title>q0&#45;&gt;q0</title>
<path fill="none" stroke="black" d="M178.532,-26.1211C189.508,-26.8945 199,-24.1875 199,-18 199,-13.8428 194.715,-11.2567 188.574,-10.2417"/>
<polygon fill="black" stroke="black" points="188.652,-6.74237 178.532,-9.87891 188.4,-13.7378 188.652,-6.74237"/>
<text text-anchor="middle" x="203.5" y="-13.9" font-family="Times Roman,serif" font-size="14.00">b</text>
</g>
<!-- q3 -->
<g id="node14" class="node"><title>q3</title>
<ellipse fill="none" stroke="black" cx="216" cy="-112" rx="27" ry="18"/>
<ellipse fill="none" stroke="black" cx="216" cy="-112" rx="31" ry="22"/>
<text text-anchor="middle" x="216" y="-107.9" font-family="Times Roman,serif" font-size="14.00">q3</text>
</g>
<!-- q3&#45;&gt;q0 -->
<g id="edge18" class="edge"><title>q3&#45;&gt;q0</title>
<path fill="none" stroke="black" d="M201.85,-92.1925C197.355,-85.7934 192.409,-78.6373 188,-72 181.84,-62.7257 175.276,-52.4108 169.575,-43.3017"/>
<polygon fill="black" stroke="black" points="172.464,-41.3191 164.209,-34.6777 166.521,-45.0173 172.464,-41.3191"/>
<text text-anchor="middle" x="192.5" y="-58.9" font-family="Times Roman,serif" font-size="14.00">b</text>
</g>
<!-- q3&#45;&gt;q0 -->
<g id="edge20" class="edge"><title>q3&#45;&gt;q0</title>
<path fill="none" stroke="black" d="M211.86,-90.0404C208.979,-78.6029 204.307,-64.792 197,-54 192.797,-47.7922 187.232,-42.0619 181.505,-37.0835"/>
<polygon fill="black" stroke="black" points="183.686,-34.3461 173.707,-30.7865 179.288,-39.7922 183.686,-34.3461"/>
<text text-anchor="middle" x="210.5" y="-58.9" font-family="Times Roman,serif" font-size="14.00">a</text>
</g>
</g>
</svg>
