<?xml version="1.0" encoding="UTF-8" standalone="no"?>
<!DOCTYPE svg PUBLIC "-//W3C//DTD SVG 1.1//EN"
 "http://www.w3.org/Graphics/SVG/1.1/DTD/svg11.dtd">
<!-- Generated by graphviz version 2.26.3 (20100126.1600)
 -->
<!-- Title: G Pages: 1 -->
<svg width="188pt" height="322pt"
 viewBox="0.00 0.00 188.00 322.00" xmlns="http://www.w3.org/2000/svg" xmlns:xlink="http://www.w3.org/1999/xlink">
<g id="graph1" class="graph" transform="scale(1 1) rotate(0) translate(4 318)">
<title>G</title>
<polygon fill="white" stroke="white" points="-4,5 -4,-318 185,-318 185,5 -4,5"/>
<!-- q5 -->
<g id="node1" class="node"><title>q5</title>
<ellipse fill="none" stroke="black" cx="125" cy="-111" rx="27" ry="18.3848"/>
<text text-anchor="middle" x="125" y="-107.4" font-family="Times Roman,serif" font-size="14.00">q5</text>
</g>
<!-- q5&#45;&gt;q5 -->
<g id="edge2" class="edge"><title>q5&#45;&gt;q5</title>
<path fill="none" stroke="black" d="M149.074,-119.454C160.242,-120.377 170,-117.559 170,-111 170,-106.593 165.595,-103.875 159.317,-102.846"/>
<polygon fill="black" stroke="black" points="159.173,-99.3402 149.074,-102.546 158.967,-106.337 159.173,-99.3402"/>
<text text-anchor="middle" x="174.5" y="-107.4" font-family="Times Roman,serif" font-size="14.00">b</text>
</g>
<!-- q1 -->
<g id="node4" class="node"><title>q1</title>
<ellipse fill="none" stroke="black" cx="92" cy="-19" rx="27" ry="18.3848"/>
<text text-anchor="middle" x="92" y="-15.4" font-family="Times Roman,serif" font-size="14.00">q1</text>
</g>
<!-- q5&#45;&gt;q1 -->
<g id="edge4" class="edge"><title>q5&#45;&gt;q1</title>
<path fill="none" stroke="black" d="M108.231,-96.4367C102.258,-90.1959 96.2186,-82.4073 93,-74 89.8443,-65.7569 88.8368,-56.2972 88.8377,-47.5736"/>
<polygon fill="black" stroke="black" points="92.341,-47.5668 89.2624,-37.4292 85.3471,-47.274 92.341,-47.5668"/>
<text text-anchor="middle" x="97.5" y="-61.4" font-family="Times Roman,serif" font-size="14.00">a</text>
</g>
<!-- q1&#45;&gt;q5 -->
<g id="edge10" class="edge"><title>q1&#45;&gt;q5</title>
<path fill="none" stroke="black" d="M98.5062,-37.1385C103.203,-50.2339 109.634,-68.1627 114.984,-83.0767"/>
<polygon fill="black" stroke="black" points="111.809,-84.5927 118.48,-92.8238 118.398,-82.2292 111.809,-84.5927"/>
<text text-anchor="middle" x="115.5" y="-61.4" font-family="Times Roman,serif" font-size="14.00">b</text>
</g>
<!-- q1&#45;&gt;q5 -->
<g id="edge12" class="edge"><title>q1&#45;&gt;q5</title>
<path fill="none" stroke="black" d="M108.769,-33.5633C114.742,-39.8041 120.781,-47.5927 124,-56 127.156,-64.2431 128.163,-73.7028 128.162,-82.4264"/>
<polygon fill="black" stroke="black" points="124.659,-82.4332 127.738,-92.5708 131.653,-82.726 124.659,-82.4332"/>
<text text-anchor="middle" x="131.5" y="-61.4" font-family="Times Roman,serif" font-size="14.00">a</text>
</g>
<!-- q2 -->
<g id="node5" class="node"><title>q2</title>
<ellipse fill="none" stroke="black" cx="28" cy="-111" rx="27" ry="18.3848"/>
<text text-anchor="middle" x="28" y="-107.4" font-family="Times Roman,serif" font-size="14.00">q2</text>
</g>
<!-- q2&#45;&gt;q1 -->
<g id="edge6" class="edge"><title>q2&#45;&gt;q1</title>
<path fill="none" stroke="black" d="M23.9988,-92.4489C22.5712,-81.166 22.6383,-66.8833 29,-56 35.5011,-44.8782 46.7597,-36.7575 57.9776,-31.0072"/>
<polygon fill="black" stroke="black" points="59.6667,-34.0827 67.2858,-26.7206 56.7386,-27.7245 59.6667,-34.0827"/>
<text text-anchor="middle" x="33.5" y="-61.4" font-family="Times Roman,serif" font-size="14.00">b</text>
</g>
<!-- q2&#45;&gt;q1 -->
<g id="edge8" class="edge"><title>q2&#45;&gt;q1</title>
<path fill="none" stroke="black" d="M39.7386,-94.1258C49.4819,-80.1197 63.4825,-59.9939 74.5408,-44.0976"/>
<polygon fill="black" stroke="black" points="77.4983,-45.9751 80.3358,-35.7672 71.752,-41.9776 77.4983,-45.9751"/>
<text text-anchor="middle" x="70.5" y="-61.4" font-family="Times Roman,serif" font-size="14.00">a</text>
</g>
<!-- q4 -->
<g id="node10" class="node"><title>q4</title>
<ellipse fill="none" stroke="black" cx="27" cy="-295" rx="27" ry="18.3848"/>
<text text-anchor="middle" x="27" y="-291.4" font-family="Times Roman,serif" font-size="14.00">q4</text>
</g>
<!-- q4&#45;&gt;q4 -->
<g id="edge14" class="edge"><title>q4&#45;&gt;q4</title>
<path fill="none" stroke="black" d="M51.0743,-303.454C62.2423,-304.377 72,-301.559 72,-295 72,-290.593 67.5952,-287.875 61.3174,-286.846"/>
<polygon fill="black" stroke="black" points="61.1726,-283.34 51.0743,-286.546 60.9674,-290.337 61.1726,-283.34"/>
<text text-anchor="middle" x="76.5" y="-291.4" font-family="Times Roman,serif" font-size="14.00">b</text>
</g>
<!-- q0 -->
<g id="node13" class="node"><title>q0</title>
<ellipse fill="none" stroke="black" cx="27" cy="-203" rx="27" ry="18.3848"/>
<text text-anchor="middle" x="27" y="-199.4" font-family="Times Roman,serif" font-size="14.00">q0</text>
</g>
<!-- q4&#45;&gt;q0 -->
<g id="edge16" class="edge"><title>q4&#45;&gt;q0</title>
<path fill="none" stroke="black" d="M27,-276.382C27,-263.538 27,-246.216 27,-231.627"/>
<polygon fill="black" stroke="black" points="30.5001,-231.59 27,-221.59 23.5001,-231.59 30.5001,-231.59"/>
<text text-anchor="middle" x="31.5" y="-245.4" font-family="Times Roman,serif" font-size="14.00">a</text>
</g>
<!-- q0&#45;&gt;q2 -->
<g id="edge22" class="edge"><title>q0&#45;&gt;q2</title>
<path fill="none" stroke="black" d="M27.2024,-184.382C27.342,-171.538 27.5303,-154.216 27.6888,-139.627"/>
<polygon fill="black" stroke="black" points="31.1889,-139.627 27.7979,-129.59 24.1894,-139.551 31.1889,-139.627"/>
<text text-anchor="middle" x="32.5" y="-153.4" font-family="Times Roman,serif" font-size="14.00">b</text>
</g>
<!-- q0&#45;&gt;q0 -->
<g id="edge24" class="edge"><title>q0&#45;&gt;q0</title>
<path fill="none" stroke="black" d="M51.0743,-211.454C62.2423,-212.377 72,-209.559 72,-203 72,-198.593 67.5952,-195.875 61.3174,-194.846"/>
<polygon fill="black" stroke="black" points="61.1726,-191.34 51.0743,-194.546 60.9674,-198.337 61.1726,-191.34"/>
<text text-anchor="middle" x="76.5" y="-199.4" font-family="Times Roman,serif" font-size="14.00">a</text>
</g>
<!-- q3 -->
<g id="node14" class="node"><title>q3</title>
<ellipse fill="none" stroke="black" cx="126" cy="-203" rx="27" ry="18.3848"/>
<text text-anchor="middle" x="126" y="-199.4" font-family="Times Roman,serif" font-size="14.00">q3</text>
</g>
<!-- q3&#45;&gt;q5 -->
<g id="edge18" class="edge"><title>q3&#45;&gt;q5</title>
<path fill="none" stroke="black" d="M125.798,-184.382C125.658,-171.538 125.47,-154.216 125.311,-139.627"/>
<polygon fill="black" stroke="black" points="128.811,-139.551 125.202,-129.59 121.811,-139.627 128.811,-139.551"/>
<text text-anchor="middle" x="129.5" y="-153.4" font-family="Times Roman,serif" font-size="14.00">b</text>
</g>
<!-- q3&#45;&gt;q3 -->
<g id="edge20" class="edge"><title>q3&#45;&gt;q3</title>
<path fill="none" stroke="black" d="M150.074,-211.454C161.242,-212.377 171,-209.559 171,-203 171,-198.593 166.595,-195.875 160.317,-194.846"/>
<polygon fill="black" stroke="black" points="160.173,-191.34 150.074,-194.546 159.967,-198.337 160.173,-191.34"/>
<text text-anchor="middle" x="175.5" y="-199.4" font-family="Times Roman,serif" font-size="14.00">a</text>
</g>
</g>
</svg>
