<?xml version="1.0" encoding="UTF-8" standalone="no"?>
<!DOCTYPE svg PUBLIC "-//W3C//DTD SVG 1.1//EN"
 "http://www.w3.org/Graphics/SVG/1.1/DTD/svg11.dtd">
<!-- Generated by graphviz version 2.26.3 (20100126.1600)
 -->
<!-- Title: G Pages: 1 -->
<svg width="179pt" height="412pt"
 viewBox="0.00 0.00 179.00 412.00" xmlns="http://www.w3.org/2000/svg" xmlns:xlink="http://www.w3.org/1999/xlink">
<g id="graph1" class="graph" transform="scale(1 1) rotate(0) translate(4 408)">
<title>G</title>
<polygon fill="white" stroke="white" points="-4,5 -4,-408 176,-408 176,5 -4,5"/>
<!-- q6 -->
<g id="node1" class="node"><title>q6</title>
<ellipse fill="none" stroke="black" cx="117" cy="-386" rx="27" ry="18"/>
<text text-anchor="middle" x="117" y="-381.9" font-family="Times Roman,serif" font-size="14.00">q6</text>
</g>
<!-- q6&#45;&gt;q6 -->
<g id="edge2" class="edge"><title>q6&#45;&gt;q6</title>
<path fill="none" stroke="black" d="M141.532,-394.121C152.508,-394.895 162,-392.188 162,-386 162,-381.843 157.715,-379.257 151.574,-378.242"/>
<polygon fill="black" stroke="black" points="151.652,-374.742 141.532,-377.879 151.4,-381.738 151.652,-374.742"/>
<text text-anchor="middle" x="166.5" y="-381.9" font-family="Times Roman,serif" font-size="14.00">b</text>
</g>
<!-- q4 -->
<g id="node4" class="node"><title>q4</title>
<ellipse fill="none" stroke="black" cx="33" cy="-296" rx="27" ry="18"/>
<text text-anchor="middle" x="33" y="-291.9" font-family="Times Roman,serif" font-size="14.00">q4</text>
</g>
<!-- q6&#45;&gt;q4 -->
<g id="edge4" class="edge"><title>q6&#45;&gt;q4</title>
<path fill="none" stroke="black" d="M102.368,-370.323C89.1188,-356.127 69.433,-335.035 54.4137,-318.943"/>
<polygon fill="black" stroke="black" points="56.8459,-316.42 47.464,-311.497 51.7285,-321.196 56.8459,-316.42"/>
<text text-anchor="middle" x="87.5" y="-336.9" font-family="Times Roman,serif" font-size="14.00">a</text>
</g>
<!-- q4&#45;&gt;q4 -->
<g id="edge20" class="edge"><title>q4&#45;&gt;q4</title>
<path fill="none" stroke="black" d="M57.5325,-304.121C68.5078,-304.895 78,-302.188 78,-296 78,-291.843 73.7151,-289.257 67.5743,-288.242"/>
<polygon fill="black" stroke="black" points="67.6524,-284.742 57.5325,-287.879 67.3995,-291.738 67.6524,-284.742"/>
<text text-anchor="middle" x="82.5" y="-291.9" font-family="Times Roman,serif" font-size="14.00">a</text>
</g>
<!-- q2 -->
<g id="node9" class="node"><title>q2</title>
<ellipse fill="none" stroke="black" cx="27" cy="-206" rx="27" ry="18"/>
<text text-anchor="middle" x="27" y="-201.9" font-family="Times Roman,serif" font-size="14.00">q2</text>
</g>
<!-- q4&#45;&gt;q2 -->
<g id="edge18" class="edge"><title>q4&#45;&gt;q2</title>
<path fill="none" stroke="black" d="M31.7858,-277.787C30.9563,-265.344 29.8404,-248.605 28.8947,-234.421"/>
<polygon fill="black" stroke="black" points="32.3699,-233.931 28.2124,-224.186 25.3854,-234.396 32.3699,-233.931"/>
<text text-anchor="middle" x="35.5" y="-246.9" font-family="Times Roman,serif" font-size="14.00">b</text>
</g>
<!-- q5 -->
<g id="node5" class="node"><title>q5</title>
<ellipse fill="none" stroke="black" cx="33" cy="-116" rx="27" ry="18"/>
<text text-anchor="middle" x="33" y="-111.9" font-family="Times Roman,serif" font-size="14.00">q5</text>
</g>
<!-- q5&#45;&gt;q5 -->
<g id="edge8" class="edge"><title>q5&#45;&gt;q5</title>
<path fill="none" stroke="black" d="M57.5325,-124.121C68.5078,-124.895 78,-122.188 78,-116 78,-111.843 73.7151,-109.257 67.5743,-108.242"/>
<polygon fill="black" stroke="black" points="67.6524,-104.742 57.5325,-107.879 67.3995,-111.738 67.6524,-104.742"/>
<text text-anchor="middle" x="82.5" y="-111.9" font-family="Times Roman,serif" font-size="14.00">a</text>
</g>
<!-- q1 -->
<g id="node7" class="node"><title>q1</title>
<ellipse fill="none" stroke="black" cx="117" cy="-22" rx="27" ry="18"/>
<ellipse fill="none" stroke="black" cx="117" cy="-22" rx="31" ry="22"/>
<text text-anchor="middle" x="117" y="-17.9" font-family="Times Roman,serif" font-size="14.00">q1</text>
</g>
<!-- q5&#45;&gt;q1 -->
<g id="edge6" class="edge"><title>q5&#45;&gt;q1</title>
<path fill="none" stroke="black" d="M46.8709,-100.478C59.4452,-86.4066 78.2449,-65.3688 93.2153,-48.6162"/>
<polygon fill="black" stroke="black" points="96.1591,-50.5746 100.213,-40.7858 90.9395,-45.9102 96.1591,-50.5746"/>
<text text-anchor="middle" x="85.5" y="-66.9" font-family="Times Roman,serif" font-size="14.00">b</text>
</g>
<!-- q1&#45;&gt;q6 -->
<g id="edge14" class="edge"><title>q1&#45;&gt;q6</title>
<path fill="none" stroke="black" d="M117,-44.0318C117,-63.0815 117,-91.3576 117,-116 117,-296 117,-296 117,-296 117,-316.574 117,-339.793 117,-357.494"/>
<polygon fill="black" stroke="black" points="113.5,-357.728 117,-367.728 120.5,-357.729 113.5,-357.728"/>
<text text-anchor="middle" x="121.5" y="-201.9" font-family="Times Roman,serif" font-size="14.00">b</text>
</g>
<!-- q1&#45;&gt;q6 -->
<g id="edge16" class="edge"><title>q1&#45;&gt;q6</title>
<path fill="none" stroke="black" d="M132.486,-41.2538C145.503,-59.4116 162,-87.9557 162,-116 162,-296 162,-296 162,-296 162,-320.248 148.771,-344.66 136.658,-361.93"/>
<polygon fill="black" stroke="black" points="133.624,-360.147 130.501,-370.271 139.256,-364.303 133.624,-360.147"/>
<text text-anchor="middle" x="166.5" y="-201.9" font-family="Times Roman,serif" font-size="14.00">a</text>
</g>
<!-- q2&#45;&gt;q5 -->
<g id="edge12" class="edge"><title>q2&#45;&gt;q5</title>
<path fill="none" stroke="black" d="M28.2142,-187.787C29.0437,-175.344 30.1596,-158.605 31.1053,-144.421"/>
<polygon fill="black" stroke="black" points="34.6146,-144.396 31.7876,-134.186 27.6301,-143.931 34.6146,-144.396"/>
<text text-anchor="middle" x="35.5" y="-156.9" font-family="Times Roman,serif" font-size="14.00">a</text>
</g>
<!-- q2&#45;&gt;q2 -->
<g id="edge10" class="edge"><title>q2&#45;&gt;q2</title>
<path fill="none" stroke="black" d="M51.5325,-214.121C62.5078,-214.895 72,-212.188 72,-206 72,-201.843 67.7151,-199.257 61.5743,-198.242"/>
<polygon fill="black" stroke="black" points="61.6524,-194.742 51.5325,-197.879 61.3995,-201.738 61.6524,-194.742"/>
<text text-anchor="middle" x="76.5" y="-201.9" font-family="Times Roman,serif" font-size="14.00">b</text>
</g>
</g>
</svg>
