<?xml version="1.0" encoding="UTF-8" standalone="no"?>
<!DOCTYPE svg PUBLIC "-//W3C//DTD SVG 1.1//EN"
 "http://www.w3.org/Graphics/SVG/1.1/DTD/svg11.dtd">
<!-- Generated by graphviz version 2.26.3 (20100126.1600)
 -->
<!-- Title: G Pages: 1 -->
<svg width="166pt" height="322pt"
 viewBox="0.00 0.00 166.00 322.00" xmlns="http://www.w3.org/2000/svg" xmlns:xlink="http://www.w3.org/1999/xlink">
<g id="graph1" class="graph" transform="scale(1 1) rotate(0) translate(4 318)">
<title>G</title>
<polygon fill="white" stroke="white" points="-4,5 -4,-318 163,-318 163,5 -4,5"/>
<!-- q1 -->
<g id="node1" class="node"><title>q1</title>
<ellipse fill="none" stroke="black" cx="127" cy="-292" rx="27" ry="18"/>
<ellipse fill="none" stroke="black" cx="127" cy="-292" rx="31" ry="22"/>
<text text-anchor="middle" x="127" y="-287.9" font-family="Times Roman,serif" font-size="14.00">q1</text>
</g>
<!-- q0 -->
<g id="node3" class="node"><title>q0</title>
<ellipse fill="none" stroke="darkred" cx="45" cy="-198" rx="27" ry="18"/>
<text text-anchor="middle" x="45" y="-193.9" font-family="Times Roman,serif" font-size="14.00">q0</text>
</g>
<!-- q1&#45;&gt;q0 -->
<g id="edge2" class="edge"><title>q1&#45;&gt;q0</title>
<path fill="none" stroke="black" d="M110.406,-272.978C97.4145,-258.085 79.2826,-237.3 65.4039,-221.39"/>
<polygon fill="black" stroke="black" points="67.795,-218.807 58.5838,-213.572 62.52,-223.408 67.795,-218.807"/>
<text text-anchor="middle" x="94.5" y="-238.9" font-family="Times Roman,serif" font-size="14.00">b</text>
</g>
<!-- q4 -->
<g id="node5" class="node"><title>q4</title>
<ellipse fill="none" stroke="black" cx="108" cy="-18" rx="27" ry="18"/>
<text text-anchor="middle" x="108" y="-13.9" font-family="Times Roman,serif" font-size="14.00">q4</text>
</g>
<!-- q1&#45;&gt;q4 -->
<g id="edge4" class="edge"><title>q1&#45;&gt;q4</title>
<path fill="none" stroke="black" d="M125.445,-269.577C122.005,-219.971 113.756,-101.005 109.965,-46.3421"/>
<polygon fill="black" stroke="black" points="113.453,-46.0405 109.269,-36.3066 106.47,-46.5248 113.453,-46.0405"/>
<text text-anchor="middle" x="121.5" y="-148.9" font-family="Times Roman,serif" font-size="14.00">a</text>
</g>
<!-- q0&#45;&gt;q0 -->
<g id="edge16" class="edge"><title>q0&#45;&gt;q0</title>
<path fill="none" stroke="black" d="M69.5325,-206.121C80.5078,-206.895 90,-204.188 90,-198 90,-193.843 85.7151,-191.257 79.5743,-190.242"/>
<polygon fill="black" stroke="black" points="79.6524,-186.742 69.5325,-189.879 79.3995,-193.738 79.6524,-186.742"/>
<text text-anchor="middle" x="94.5" y="-193.9" font-family="Times Roman,serif" font-size="14.00">a</text>
</g>
<!-- q3 -->
<g id="node8" class="node"><title>q3</title>
<ellipse fill="none" stroke="black" cx="27" cy="-108" rx="27" ry="18"/>
<text text-anchor="middle" x="27" y="-103.9" font-family="Times Roman,serif" font-size="14.00">q3</text>
</g>
<!-- q0&#45;&gt;q3 -->
<g id="edge14" class="edge"><title>q0&#45;&gt;q3</title>
<path fill="none" stroke="black" d="M31.5502,-182.197C27.315,-176.255 23.1767,-169.189 21,-162 18.4737,-153.656 18.5535,-144.299 19.687,-135.747"/>
<polygon fill="black" stroke="black" points="23.1433,-136.303 21.4878,-125.838 16.2561,-135.051 23.1433,-136.303"/>
<text text-anchor="middle" x="25.5" y="-148.9" font-family="Times Roman,serif" font-size="14.00">b</text>
</g>
<!-- q4&#45;&gt;q1 -->
<g id="edge6" class="edge"><title>q4&#45;&gt;q1</title>
<path fill="none" stroke="black" d="M117.606,-35.0993C120.46,-40.9267 123.28,-47.5914 125,-54 145.779,-131.438 134.775,-153.853 137,-234 137.222,-241.997 137.977,-244.06 137,-252 136.667,-254.704 136.212,-257.488 135.679,-260.269"/>
<polygon fill="black" stroke="black" points="132.23,-259.655 133.482,-270.176 139.064,-261.171 132.23,-259.655"/>
<text text-anchor="middle" x="141.5" y="-148.9" font-family="Times Roman,serif" font-size="14.00">b</text>
</g>
<!-- q4&#45;&gt;q0 -->
<g id="edge8" class="edge"><title>q4&#45;&gt;q0</title>
<path fill="none" stroke="black" d="M101.82,-35.6583C90.7922,-67.1652 67.6568,-133.266 54.5637,-170.675"/>
<polygon fill="black" stroke="black" points="51.1555,-169.818 51.1554,-180.413 57.7625,-172.131 51.1555,-169.818"/>
<text text-anchor="middle" x="86.5" y="-103.9" font-family="Times Roman,serif" font-size="14.00">a</text>
</g>
<!-- q3&#45;&gt;q0 -->
<g id="edge10" class="edge"><title>q3&#45;&gt;q0</title>
<path fill="none" stroke="black" d="M30.5757,-125.879C33.0894,-138.447 36.5036,-155.518 39.3792,-169.896"/>
<polygon fill="black" stroke="black" points="35.9642,-170.668 41.3574,-179.787 42.8282,-169.295 35.9642,-170.668"/>
<text text-anchor="middle" x="41.5" y="-148.9" font-family="Times Roman,serif" font-size="14.00">b</text>
</g>
<!-- q3&#45;&gt;q4 -->
<g id="edge12" class="edge"><title>q3&#45;&gt;q4</title>
<path fill="none" stroke="black" d="M38.0449,-91.2242C45.638,-80.186 56.2555,-65.6755 67,-54 71.8269,-48.7549 77.3586,-43.4828 82.7638,-38.6528"/>
<polygon fill="black" stroke="black" points="85.2341,-41.1433 90.4956,-31.9472 80.6478,-35.855 85.2341,-41.1433"/>
<text text-anchor="middle" x="71.5" y="-58.9" font-family="Times Roman,serif" font-size="14.00">a</text>
</g>
</g>
</svg>
