<?xml version="1.0" encoding="UTF-8" standalone="no"?>
<!DOCTYPE svg PUBLIC "-//W3C//DTD SVG 1.1//EN"
 "http://www.w3.org/Graphics/SVG/1.1/DTD/svg11.dtd">
<!-- Generated by graphviz version 2.26.3 (20100126.1600)
 -->
<!-- Title: G Pages: 1 -->
<svg width="221pt" height="412pt"
 viewBox="0.00 0.00 221.00 412.00" xmlns="http://www.w3.org/2000/svg" xmlns:xlink="http://www.w3.org/1999/xlink">
<g id="graph1" class="graph" transform="scale(1 1) rotate(0) translate(4 408)">
<title>G</title>
<polygon fill="white" stroke="white" points="-4,5 -4,-408 218,-408 218,5 -4,5"/>
<!-- q6 -->
<g id="node1" class="node"><title>q6</title>
<ellipse fill="none" stroke="black" cx="100" cy="-386" rx="27" ry="18"/>
<text text-anchor="middle" x="100" y="-381.9" font-family="Times Roman,serif" font-size="14.00">q6</text>
</g>
<!-- q2 -->
<g id="node3" class="node"><title>q2</title>
<ellipse fill="none" stroke="black" cx="100" cy="-296" rx="27" ry="18"/>
<text text-anchor="middle" x="100" y="-291.9" font-family="Times Roman,serif" font-size="14.00">q2</text>
</g>
<!-- q6&#45;&gt;q2 -->
<g id="edge2" class="edge"><title>q6&#45;&gt;q2</title>
<path fill="none" stroke="black" d="M100,-367.787C100,-355.344 100,-338.605 100,-324.421"/>
<polygon fill="black" stroke="black" points="103.5,-324.186 100,-314.186 96.5001,-324.186 103.5,-324.186"/>
<text text-anchor="middle" x="104.5" y="-336.9" font-family="Times Roman,serif" font-size="14.00">b</text>
</g>
<!-- q7 -->
<g id="node5" class="node"><title>q7</title>
<ellipse fill="none" stroke="black" cx="63" cy="-18" rx="27" ry="18"/>
<text text-anchor="middle" x="63" y="-13.9" font-family="Times Roman,serif" font-size="14.00">q7</text>
</g>
<!-- q6&#45;&gt;q7 -->
<g id="edge4" class="edge"><title>q6&#45;&gt;q7</title>
<path fill="none" stroke="black" d="M76.5544,-377.059C46.9975,-364.078 0,-336.992 0,-296 0,-296 0,-296 0,-112 0,-83.1208 20.7728,-56.4132 38.4622,-38.9055"/>
<polygon fill="black" stroke="black" points="40.9204,-41.3981 45.785,-31.986 36.1127,-36.3102 40.9204,-41.3981"/>
<text text-anchor="middle" x="4.5" y="-201.9" font-family="Times Roman,serif" font-size="14.00">a</text>
</g>
<!-- q2&#45;&gt;q7 -->
<g id="edge14" class="edge"><title>q2&#45;&gt;q7</title>
<path fill="none" stroke="black" d="M97.5723,-277.76C91.259,-230.324 74.2928,-102.848 66.7285,-46.0142"/>
<polygon fill="black" stroke="black" points="70.1773,-45.3969 65.3885,-35.9461 63.2385,-46.3205 70.1773,-45.3969"/>
<text text-anchor="middle" x="87.5" y="-156.9" font-family="Times Roman,serif" font-size="14.00">b</text>
</g>
<!-- q5 -->
<g id="node6" class="node"><title>q5</title>
<ellipse fill="none" stroke="black" cx="141" cy="-206" rx="27" ry="18"/>
<text text-anchor="middle" x="141" y="-201.9" font-family="Times Roman,serif" font-size="14.00">q5</text>
</g>
<!-- q2&#45;&gt;q5 -->
<g id="edge16" class="edge"><title>q2&#45;&gt;q5</title>
<path fill="none" stroke="black" d="M107.905,-278.647C113.861,-265.574 122.132,-247.418 128.915,-232.527"/>
<polygon fill="black" stroke="black" points="132.158,-233.851 133.119,-223.3 125.788,-230.949 132.158,-233.851"/>
<text text-anchor="middle" x="128.5" y="-246.9" font-family="Times Roman,serif" font-size="14.00">a</text>
</g>
<!-- q7&#45;&gt;q6 -->
<g id="edge10" class="edge"><title>q7&#45;&gt;q6</title>
<path fill="none" stroke="black" d="M57.5016,-35.8261C52.2081,-54.5898 45,-85.0822 45,-112 45,-296 45,-296 45,-296 45,-321.965 61.8739,-346.778 76.929,-363.75"/>
<polygon fill="black" stroke="black" points="74.7091,-366.501 84.0917,-371.422 79.8258,-361.724 74.7091,-366.501"/>
<text text-anchor="middle" x="49.5" y="-201.9" font-family="Times Roman,serif" font-size="14.00">b</text>
</g>
<!-- q7&#45;&gt;q7 -->
<g id="edge12" class="edge"><title>q7&#45;&gt;q7</title>
<path fill="none" stroke="black" d="M87.5325,-26.1211C98.5078,-26.8945 108,-24.1875 108,-18 108,-13.8428 103.715,-11.2567 97.5743,-10.2417"/>
<polygon fill="black" stroke="black" points="97.6524,-6.74237 87.5325,-9.87891 97.3995,-13.7378 97.6524,-6.74237"/>
<text text-anchor="middle" x="112.5" y="-13.9" font-family="Times Roman,serif" font-size="14.00">a</text>
</g>
<!-- q5&#45;&gt;q6 -->
<g id="edge8" class="edge"><title>q5&#45;&gt;q6</title>
<path fill="none" stroke="black" d="M142.432,-224.306C143.617,-246.069 144,-283.304 136,-314 131.774,-330.215 123.61,-347.034 116.123,-360.336"/>
<polygon fill="black" stroke="black" points="112.884,-358.941 110.858,-369.341 118.927,-362.475 112.884,-358.941"/>
<text text-anchor="middle" x="145.5" y="-291.9" font-family="Times Roman,serif" font-size="14.00">a</text>
</g>
<!-- q3 -->
<g id="node8" class="node"><title>q3</title>
<ellipse fill="none" stroke="black" cx="144" cy="-112" rx="27" ry="18"/>
<ellipse fill="none" stroke="black" cx="144" cy="-112" rx="31" ry="22"/>
<text text-anchor="middle" x="144" y="-107.9" font-family="Times Roman,serif" font-size="14.00">q3</text>
</g>
<!-- q5&#45;&gt;q3 -->
<g id="edge6" class="edge"><title>q5&#45;&gt;q3</title>
<path fill="none" stroke="black" d="M141.578,-187.876C141.973,-175.512 142.507,-158.795 142.972,-144.199"/>
<polygon fill="black" stroke="black" points="146.476,-144.145 143.297,-134.039 139.479,-143.922 146.476,-144.145"/>
<text text-anchor="middle" x="146.5" y="-156.9" font-family="Times Roman,serif" font-size="14.00">b</text>
</g>
<!-- q3&#45;&gt;q7 -->
<g id="edge18" class="edge"><title>q3&#45;&gt;q7</title>
<path fill="none" stroke="black" d="M127.608,-92.9777C114.854,-78.1763 97.0841,-57.5543 83.4079,-41.6832"/>
<polygon fill="black" stroke="black" points="85.8568,-39.1635 76.6776,-33.8727 80.554,-43.733 85.8568,-39.1635"/>
<text text-anchor="middle" x="112.5" y="-58.9" font-family="Times Roman,serif" font-size="14.00">b</text>
</g>
<!-- q0 -->
<g id="node16" class="node"><title>q0</title>
<ellipse fill="none" stroke="black" cx="180" cy="-18" rx="27" ry="18"/>
<text text-anchor="middle" x="180" y="-13.9" font-family="Times Roman,serif" font-size="14.00">q0</text>
</g>
<!-- q3&#45;&gt;q0 -->
<g id="edge20" class="edge"><title>q3&#45;&gt;q0</title>
<path fill="none" stroke="black" d="M152.169,-90.6699C157.36,-77.1144 164.126,-59.4494 169.686,-44.9305"/>
<polygon fill="black" stroke="black" points="173.001,-46.061 173.309,-35.4707 166.464,-43.5575 173.001,-46.061"/>
<text text-anchor="middle" x="169.5" y="-58.9" font-family="Times Roman,serif" font-size="14.00">a</text>
</g>
<!-- q0&#45;&gt;q6 -->
<g id="edge24" class="edge"><title>q0&#45;&gt;q6</title>
<path fill="none" stroke="black" d="M187.331,-35.6774C194.389,-54.3197 204,-84.7144 204,-112 204,-296 204,-296 204,-296 204,-334.028 163.748,-359.574 133.328,-373.449"/>
<polygon fill="black" stroke="black" points="131.648,-370.362 123.86,-377.545 134.427,-376.787 131.648,-370.362"/>
<text text-anchor="middle" x="208.5" y="-201.9" font-family="Times Roman,serif" font-size="14.00">a</text>
</g>
<!-- q0&#45;&gt;q3 -->
<g id="edge22" class="edge"><title>q0&#45;&gt;q3</title>
<path fill="none" stroke="black" d="M163.712,-32.6418C158.068,-38.6704 152.328,-46.0941 149,-54 145.655,-61.9469 143.984,-71.0385 143.243,-79.6292"/>
<polygon fill="black" stroke="black" points="139.74,-79.5906 142.75,-89.749 146.732,-79.9311 139.74,-79.5906"/>
<text text-anchor="middle" x="153.5" y="-58.9" font-family="Times Roman,serif" font-size="14.00">b</text>
</g>
</g>
</svg>
