<?xml version="1.0" encoding="UTF-8" standalone="no"?>
<!DOCTYPE svg PUBLIC "-//W3C//DTD SVG 1.1//EN"
 "http://www.w3.org/Graphics/SVG/1.1/DTD/svg11.dtd">
<!-- Generated by graphviz version 2.26.3 (20100126.1600)
 -->
<!-- Title: G Pages: 1 -->
<svg width="269pt" height="698pt"
 viewBox="0.00 0.00 269.00 698.00" xmlns="http://www.w3.org/2000/svg" xmlns:xlink="http://www.w3.org/1999/xlink">
<g id="graph1" class="graph" transform="scale(1 1) rotate(0) translate(4 694)">
<title>G</title>
<polygon fill="white" stroke="white" points="-4,5 -4,-694 266,-694 266,5 -4,5"/>
<!-- q0 -->
<g id="node1" class="node"><title>q0</title>
<ellipse fill="none" stroke="black" cx="95" cy="-579" rx="27" ry="18.3848"/>
<text text-anchor="middle" x="95" y="-575.4" font-family="Times Roman,serif" font-size="14.00">q0</text>
</g>
<!-- q0&#45;&gt;q0 -->
<g id="edge4" class="edge"><title>q0&#45;&gt;q0</title>
<path fill="none" stroke="black" d="M119.074,-587.454C130.242,-588.377 140,-585.559 140,-579 140,-574.593 135.595,-571.875 129.317,-570.846"/>
<polygon fill="black" stroke="black" points="129.173,-567.34 119.074,-570.546 128.967,-574.337 129.173,-567.34"/>
<text text-anchor="middle" x="144.5" y="-575.4" font-family="Times Roman,serif" font-size="14.00">a</text>
</g>
<!-- q3 -->
<g id="node3" class="node"><title>q3</title>
<ellipse fill="none" stroke="black" cx="95" cy="-487" rx="27" ry="18.3848"/>
<text text-anchor="middle" x="95" y="-483.4" font-family="Times Roman,serif" font-size="14.00">q3</text>
</g>
<!-- q0&#45;&gt;q3 -->
<g id="edge2" class="edge"><title>q0&#45;&gt;q3</title>
<path fill="none" stroke="black" d="M95,-560.382C95,-547.538 95,-530.216 95,-515.627"/>
<polygon fill="black" stroke="black" points="98.5001,-515.59 95,-505.59 91.5001,-515.59 98.5001,-515.59"/>
<text text-anchor="middle" x="99.5" y="-529.4" font-family="Times Roman,serif" font-size="14.00">b</text>
</g>
<!-- q2 -->
<g id="node5" class="node"><title>q2</title>
<ellipse fill="none" stroke="black" cx="171" cy="-395" rx="27" ry="18.3848"/>
<text text-anchor="middle" x="171" y="-391.4" font-family="Times Roman,serif" font-size="14.00">q2</text>
</g>
<!-- q3&#45;&gt;q2 -->
<g id="edge12" class="edge"><title>q3&#45;&gt;q2</title>
<path fill="none" stroke="black" d="M109.687,-470.989C115.488,-464.549 122.151,-457.002 128,-450 136.174,-440.216 144.89,-429.186 152.323,-419.587"/>
<polygon fill="black" stroke="black" points="155.155,-421.646 158.479,-411.586 149.607,-417.377 155.155,-421.646"/>
<text text-anchor="middle" x="146.5" y="-437.4" font-family="Times Roman,serif" font-size="14.00">a</text>
</g>
<!-- q10 -->
<g id="node11" class="node"><title>q10</title>
<ellipse fill="none" stroke="black" cx="76" cy="-19" rx="29.9071" ry="18.3848"/>
<text text-anchor="middle" x="76" y="-15.4" font-family="Times Roman,serif" font-size="14.00">q10</text>
</g>
<!-- q3&#45;&gt;q10 -->
<g id="edge10" class="edge"><title>q3&#45;&gt;q10</title>
<path fill="none" stroke="black" d="M70.3146,-478.943C55.2848,-472.974 36.6137,-463.515 24,-450 5.80243,-430.502 0,-421.67 0,-395 0,-395 0,-395 0,-111 0,-84.3296 7.19023,-76.706 24,-56 29.7722,-48.8899 37.238,-42.5139 44.7019,-37.1392"/>
<polygon fill="black" stroke="black" points="47.0232,-39.7956 53.3615,-31.3058 43.1123,-33.99 47.0232,-39.7956"/>
<text text-anchor="middle" x="4.5" y="-245.4" font-family="Times Roman,serif" font-size="14.00">b</text>
</g>
<!-- q4 -->
<g id="node7" class="node"><title>q4</title>
<ellipse fill="none" stroke="black" cx="173" cy="-299" rx="27" ry="18.3848"/>
<ellipse fill="none" stroke="black" cx="173" cy="-299" rx="31" ry="22.3848"/>
<text text-anchor="middle" x="173" y="-295.4" font-family="Times Roman,serif" font-size="14.00">q4</text>
</g>
<!-- q2&#45;&gt;q4 -->
<g id="edge6" class="edge"><title>q2&#45;&gt;q4</title>
<path fill="none" stroke="black" d="M171.386,-376.49C171.649,-363.863 172.004,-346.791 172.315,-331.885"/>
<polygon fill="black" stroke="black" points="175.822,-331.578 172.531,-321.508 168.823,-331.433 175.822,-331.578"/>
<text text-anchor="middle" x="176.5" y="-345.4" font-family="Times Roman,serif" font-size="14.00">b</text>
</g>
<!-- q9 -->
<g id="node9" class="node"><title>q9</title>
<ellipse fill="none" stroke="black" cx="234" cy="-203" rx="27" ry="18.3848"/>
<text text-anchor="middle" x="234" y="-199.4" font-family="Times Roman,serif" font-size="14.00">q9</text>
</g>
<!-- q2&#45;&gt;q9 -->
<g id="edge8" class="edge"><title>q2&#45;&gt;q9</title>
<path fill="none" stroke="black" d="M182.981,-378.134C192.555,-363.847 205.563,-342.477 213,-322 223.793,-292.284 229.156,-256.317 231.742,-231.755"/>
<polygon fill="black" stroke="black" points="235.24,-231.948 232.716,-221.658 228.272,-231.276 235.24,-231.948"/>
<text text-anchor="middle" x="228.5" y="-295.4" font-family="Times Roman,serif" font-size="14.00">a</text>
</g>
<!-- q4&#45;&gt;q2 -->
<g id="edge16" class="edge"><title>q4&#45;&gt;q2</title>
<path fill="none" stroke="black" d="M164.715,-320.832C162.771,-326.944 160.982,-333.654 160,-340 158.777,-347.906 158.848,-350.083 160,-358 160.425,-360.922 161.03,-363.934 161.74,-366.919"/>
<polygon fill="black" stroke="black" points="158.427,-368.075 164.45,-376.791 165.177,-366.221 158.427,-368.075"/>
<text text-anchor="middle" x="164.5" y="-345.4" font-family="Times Roman,serif" font-size="14.00">a</text>
</g>
<!-- q4&#45;&gt;q9 -->
<g id="edge14" class="edge"><title>q4&#45;&gt;q9</title>
<path fill="none" stroke="black" d="M186.236,-278.169C195.434,-263.695 207.754,-244.305 217.578,-228.844"/>
<polygon fill="black" stroke="black" points="220.623,-230.579 223.032,-220.262 214.714,-226.825 220.623,-230.579"/>
<text text-anchor="middle" x="212.5" y="-245.4" font-family="Times Roman,serif" font-size="14.00">b</text>
</g>
<!-- q9&#45;&gt;q3 -->
<g id="edge26" class="edge"><title>q9&#45;&gt;q3</title>
<path fill="none" stroke="black" d="M239.362,-221.285C240.85,-227.202 242.26,-233.83 243,-240 243.952,-247.943 243.374,-250.009 243,-258 239.676,-329.078 249.507,-356.936 207,-414 186.714,-441.233 153.033,-461.182 127.894,-473.278"/>
<polygon fill="black" stroke="black" points="126.324,-470.147 118.723,-477.528 129.267,-476.498 126.324,-470.147"/>
<text text-anchor="middle" x="243.5" y="-345.4" font-family="Times Roman,serif" font-size="14.00">b</text>
</g>
<!-- q5 -->
<g id="node15" class="node"><title>q5</title>
<ellipse fill="none" stroke="black" cx="173" cy="-111" rx="27" ry="18.3848"/>
<text text-anchor="middle" x="173" y="-107.4" font-family="Times Roman,serif" font-size="14.00">q5</text>
</g>
<!-- q9&#45;&gt;q5 -->
<g id="edge28" class="edge"><title>q9&#45;&gt;q5</title>
<path fill="none" stroke="black" d="M222.812,-186.126C213.669,-172.336 200.592,-152.614 190.131,-136.837"/>
<polygon fill="black" stroke="black" points="192.767,-134.479 184.324,-128.079 186.933,-138.347 192.767,-134.479"/>
<text text-anchor="middle" x="212.5" y="-153.4" font-family="Times Roman,serif" font-size="14.00">a</text>
</g>
<!-- q10&#45;&gt;q3 -->
<g id="edge30" class="edge"><title>q10&#45;&gt;q3</title>
<path fill="none" stroke="black" d="M64.1849,-36.1107C53.0299,-53.9624 38,-83.1775 38,-111 38,-395 38,-395 38,-395 38,-421.885 55.8069,-447.457 71.5151,-464.785"/>
<polygon fill="black" stroke="black" points="69.085,-467.309 78.5132,-472.142 74.1568,-462.484 69.085,-467.309"/>
<text text-anchor="middle" x="42.5" y="-245.4" font-family="Times Roman,serif" font-size="14.00">b</text>
</g>
<!-- q10&#45;&gt;q3 -->
<g id="edge32" class="edge"><title>q10&#45;&gt;q3</title>
<path fill="none" stroke="black" d="M76,-37.6776C76,-56.265 76,-85.6042 76,-111 76,-395 76,-395 76,-395 76,-416.916 81.2349,-441.172 86.2091,-459.274"/>
<polygon fill="black" stroke="black" points="82.8516,-460.263 88.9883,-468.899 89.5769,-458.321 82.8516,-460.263"/>
<text text-anchor="middle" x="80.5" y="-245.4" font-family="Times Roman,serif" font-size="14.00">a</text>
</g>
<!-- q10&#45;&gt;q3 -->
<g id="edge34" class="edge"><title>q10&#45;&gt;q3</title>
<path fill="none" stroke="black" d="M87.8151,-36.1107C98.9701,-53.9624 114,-83.1775 114,-111 114,-395 114,-395 114,-395 114,-416.916 108.765,-441.172 103.791,-459.274"/>
<polygon fill="black" stroke="black" points="100.423,-458.321 101.012,-468.899 107.148,-460.263 100.423,-458.321"/>
<text text-anchor="middle" x="118.5" y="-245.4" font-family="Times Roman,serif" font-size="14.00">b</text>
</g>
<!-- q10&#45;&gt;q10 -->
<g id="edge36" class="edge"><title>q10&#45;&gt;q10</title>
<path fill="none" stroke="black" d="M102.655,-27.5218C114.154,-28.2195 124,-25.3789 124,-19 124,-14.6145 119.346,-11.9014 112.701,-10.8607"/>
<polygon fill="black" stroke="black" points="112.781,-7.3613 102.655,-10.4782 112.514,-14.3562 112.781,-7.3613"/>
<text text-anchor="middle" x="128.5" y="-15.4" font-family="Times Roman,serif" font-size="14.00">a</text>
</g>
<!-- q5&#45;&gt;q4 -->
<g id="edge18" class="edge"><title>q5&#45;&gt;q4</title>
<path fill="none" stroke="black" d="M173,-129.529C173,-161.28 173,-226.486 173,-266.114"/>
<polygon fill="black" stroke="black" points="169.5,-266.323 173,-276.323 176.5,-266.323 169.5,-266.323"/>
<text text-anchor="middle" x="177.5" y="-199.4" font-family="Times Roman,serif" font-size="14.00">b</text>
</g>
<!-- q5&#45;&gt;q10 -->
<g id="edge20" class="edge"><title>q5&#45;&gt;q10</title>
<path fill="none" stroke="black" d="M161.059,-94.1271C152.542,-82.7011 140.437,-67.6271 128,-56 121.252,-49.6913 113.384,-43.5673 105.841,-38.1769"/>
<polygon fill="black" stroke="black" points="107.438,-35.0262 97.2217,-32.2188 103.457,-40.7843 107.438,-35.0262"/>
<text text-anchor="middle" x="148.5" y="-61.4" font-family="Times Roman,serif" font-size="14.00">a</text>
</g>
<!-- q6 -->
<g id="node18" class="node"><title>q6</title>
<ellipse fill="none" stroke="black" cx="95" cy="-671" rx="27" ry="18.3848"/>
<text text-anchor="middle" x="95" y="-667.4" font-family="Times Roman,serif" font-size="14.00">q6</text>
</g>
<!-- q6&#45;&gt;q0 -->
<g id="edge22" class="edge"><title>q6&#45;&gt;q0</title>
<path fill="none" stroke="black" d="M95,-652.382C95,-639.538 95,-622.216 95,-607.627"/>
<polygon fill="black" stroke="black" points="98.5001,-607.59 95,-597.59 91.5001,-607.59 98.5001,-607.59"/>
<text text-anchor="middle" x="99.5" y="-621.4" font-family="Times Roman,serif" font-size="14.00">b</text>
</g>
<!-- q6&#45;&gt;q6 -->
<g id="edge24" class="edge"><title>q6&#45;&gt;q6</title>
<path fill="none" stroke="black" d="M119.074,-679.454C130.242,-680.377 140,-677.559 140,-671 140,-666.593 135.595,-663.875 129.317,-662.846"/>
<polygon fill="black" stroke="black" points="129.173,-659.34 119.074,-662.546 128.967,-666.337 129.173,-659.34"/>
<text text-anchor="middle" x="144.5" y="-667.4" font-family="Times Roman,serif" font-size="14.00">a</text>
</g>
</g>
</svg>
