<?xml version="1.0" encoding="UTF-8" standalone="no"?>
<!DOCTYPE svg PUBLIC "-//W3C//DTD SVG 1.1//EN"
 "http://www.w3.org/Graphics/SVG/1.1/DTD/svg11.dtd">
<!-- Generated by graphviz version 2.26.3 (20100126.1600)
 -->
<!-- Title: G Pages: 1 -->
<svg width="180pt" height="510pt"
 viewBox="0.00 0.00 180.00 510.00" xmlns="http://www.w3.org/2000/svg" xmlns:xlink="http://www.w3.org/1999/xlink">
<g id="graph1" class="graph" transform="scale(1 1) rotate(0) translate(4 506)">
<title>G</title>
<polygon fill="white" stroke="white" points="-4,5 -4,-506 177,-506 177,5 -4,5"/>
<!-- q6 -->
<g id="node1" class="node"><title>q6</title>
<ellipse fill="none" stroke="black" cx="27" cy="-484" rx="27" ry="18"/>
<text text-anchor="middle" x="27" y="-479.9" font-family="Times Roman,serif" font-size="14.00">q6</text>
</g>
<!-- q6&#45;&gt;q6 -->
<g id="edge2" class="edge"><title>q6&#45;&gt;q6</title>
<path fill="none" stroke="black" d="M51.5325,-492.121C62.5078,-492.895 72,-490.188 72,-484 72,-479.843 67.7151,-477.257 61.5743,-476.242"/>
<polygon fill="black" stroke="black" points="61.6524,-472.742 51.5325,-475.879 61.3995,-479.738 61.6524,-472.742"/>
<text text-anchor="middle" x="76.5" y="-479.9" font-family="Times Roman,serif" font-size="14.00">b</text>
</g>
<!-- q4 -->
<g id="node4" class="node"><title>q4</title>
<ellipse fill="none" stroke="black" cx="63" cy="-394" rx="27" ry="18"/>
<text text-anchor="middle" x="63" y="-389.9" font-family="Times Roman,serif" font-size="14.00">q4</text>
</g>
<!-- q6&#45;&gt;q4 -->
<g id="edge4" class="edge"><title>q6&#45;&gt;q4</title>
<path fill="none" stroke="black" d="M34.1124,-466.219C39.2737,-453.316 46.3479,-435.63 52.2038,-420.99"/>
<polygon fill="black" stroke="black" points="55.5605,-422.023 56.0248,-411.438 49.0612,-419.423 55.5605,-422.023"/>
<text text-anchor="middle" x="52.5" y="-434.9" font-family="Times Roman,serif" font-size="14.00">a</text>
</g>
<!-- q4&#45;&gt;q4 -->
<g id="edge20" class="edge"><title>q4&#45;&gt;q4</title>
<path fill="none" stroke="black" d="M87.5325,-402.121C98.5078,-402.895 108,-400.188 108,-394 108,-389.843 103.715,-387.257 97.5743,-386.242"/>
<polygon fill="black" stroke="black" points="97.6524,-382.742 87.5325,-385.879 97.3995,-389.738 97.6524,-382.742"/>
<text text-anchor="middle" x="112.5" y="-389.9" font-family="Times Roman,serif" font-size="14.00">a</text>
</g>
<!-- q2 -->
<g id="node10" class="node"><title>q2</title>
<ellipse fill="none" stroke="black" cx="75" cy="-300" rx="27" ry="18"/>
<ellipse fill="none" stroke="black" cx="75" cy="-300" rx="31" ry="22"/>
<text text-anchor="middle" x="75" y="-295.9" font-family="Times Roman,serif" font-size="14.00">q2</text>
</g>
<!-- q4&#45;&gt;q2 -->
<g id="edge18" class="edge"><title>q4&#45;&gt;q2</title>
<path fill="none" stroke="black" d="M65.3137,-375.876C66.8921,-363.512 69.0261,-346.795 70.8894,-332.199"/>
<polygon fill="black" stroke="black" points="74.392,-332.402 72.1865,-322.039 67.4483,-331.515 74.392,-332.402"/>
<text text-anchor="middle" x="73.5" y="-344.9" font-family="Times Roman,serif" font-size="14.00">b</text>
</g>
<!-- q5 -->
<g id="node5" class="node"><title>q5</title>
<ellipse fill="none" stroke="black" cx="101" cy="-206" rx="27" ry="18"/>
<text text-anchor="middle" x="101" y="-201.9" font-family="Times Roman,serif" font-size="14.00">q5</text>
</g>
<!-- q1 -->
<g id="node7" class="node"><title>q1</title>
<ellipse fill="none" stroke="black" cx="101" cy="-112" rx="27" ry="18"/>
<ellipse fill="none" stroke="black" cx="101" cy="-112" rx="31" ry="22"/>
<text text-anchor="middle" x="101" y="-107.9" font-family="Times Roman,serif" font-size="14.00">q1</text>
</g>
<!-- q5&#45;&gt;q1 -->
<g id="edge6" class="edge"><title>q5&#45;&gt;q1</title>
<path fill="none" stroke="black" d="M101,-187.876C101,-175.512 101,-158.795 101,-144.199"/>
<polygon fill="black" stroke="black" points="104.5,-144.039 101,-134.039 97.5001,-144.039 104.5,-144.039"/>
<text text-anchor="middle" x="105.5" y="-156.9" font-family="Times Roman,serif" font-size="14.00">b</text>
</g>
<!-- q3 -->
<g id="node9" class="node"><title>q3</title>
<ellipse fill="none" stroke="black" cx="145" cy="-18" rx="27" ry="18"/>
<text text-anchor="middle" x="145" y="-13.9" font-family="Times Roman,serif" font-size="14.00">q3</text>
</g>
<!-- q5&#45;&gt;q3 -->
<g id="edge8" class="edge"><title>q5&#45;&gt;q3</title>
<path fill="none" stroke="black" d="M112.944,-189.82C122.516,-175.835 135.263,-154.668 141,-134 149.086,-104.871 149.069,-70.0446 147.668,-46.2028"/>
<polygon fill="black" stroke="black" points="151.149,-45.8091 146.952,-36.0812 144.167,-46.3035 151.149,-45.8091"/>
<text text-anchor="middle" x="151.5" y="-107.9" font-family="Times Roman,serif" font-size="14.00">a</text>
</g>
<!-- q1&#45;&gt;q6 -->
<g id="edge14" class="edge"><title>q1&#45;&gt;q6</title>
<path fill="none" stroke="black" d="M74.4943,-123.72C45.7744,-138.432 4,-166.603 4,-206 4,-394 4,-394 4,-394 4,-415.57 10.2782,-439.168 16.2744,-456.787"/>
<polygon fill="black" stroke="black" points="13.0542,-458.176 19.7227,-466.409 19.6439,-455.815 13.0542,-458.176"/>
<text text-anchor="middle" x="8.5" y="-295.9" font-family="Times Roman,serif" font-size="14.00">b</text>
</g>
<!-- q1&#45;&gt;q3 -->
<g id="edge16" class="edge"><title>q1&#45;&gt;q3</title>
<path fill="none" stroke="black" d="M110.984,-90.6699C117.329,-77.1144 125.598,-59.4494 132.394,-44.9305"/>
<polygon fill="black" stroke="black" points="135.753,-46.0114 136.822,-35.4707 129.413,-43.0438 135.753,-46.0114"/>
<text text-anchor="middle" x="130.5" y="-58.9" font-family="Times Roman,serif" font-size="14.00">a</text>
</g>
<!-- q3&#45;&gt;q2 -->
<g id="edge22" class="edge"><title>q3&#45;&gt;q2</title>
<path fill="none" stroke="black" d="M154.92,-35.022C157.795,-40.8443 160.548,-47.5254 162,-54 163.75,-61.8061 162.129,-64.001 162,-72 160.896,-140.454 167.838,-162.875 137,-224 127.703,-242.428 113.311,-260.443 100.732,-274.305"/>
<polygon fill="black" stroke="black" points="97.8529,-272.26 93.5879,-281.959 102.97,-277.037 97.8529,-272.26"/>
<text text-anchor="middle" x="164.5" y="-156.9" font-family="Times Roman,serif" font-size="14.00">b</text>
</g>
<!-- q3&#45;&gt;q2 -->
<g id="edge24" class="edge"><title>q3&#45;&gt;q2</title>
<path fill="none" stroke="black" d="M123.456,-29.2272C103.074,-41.1994 73.7612,-62.2543 61,-90 34.0591,-148.575 50.9081,-226.171 63.9806,-268.738"/>
<polygon fill="black" stroke="black" points="60.7302,-270.065 67.1105,-278.523 67.3974,-267.932 60.7302,-270.065"/>
<text text-anchor="middle" x="50.5" y="-156.9" font-family="Times Roman,serif" font-size="14.00">a</text>
</g>
<!-- q2&#45;&gt;q5 -->
<g id="edge12" class="edge"><title>q2&#45;&gt;q5</title>
<path fill="none" stroke="black" d="M81.0303,-278.198C84.7,-264.931 89.4216,-247.86 93.3524,-233.649"/>
<polygon fill="black" stroke="black" points="96.7558,-234.473 96.0484,-223.902 90.0091,-232.607 96.7558,-234.473"/>
<text text-anchor="middle" x="94.5" y="-246.9" font-family="Times Roman,serif" font-size="14.00">a</text>
</g>
<!-- q2&#45;&gt;q2 -->
<g id="edge10" class="edge"><title>q2&#45;&gt;q2</title>
<path fill="none" stroke="black" d="M103.689,-308.965C114.781,-309.363 124,-306.375 124,-300 124,-295.717 119.838,-292.962 113.743,-291.737"/>
<polygon fill="black" stroke="black" points="113.908,-288.24 103.689,-291.035 113.421,-295.223 113.908,-288.24"/>
<text text-anchor="middle" x="128.5" y="-295.9" font-family="Times Roman,serif" font-size="14.00">b</text>
</g>
</g>
</svg>
