<?xml version="1.0" encoding="UTF-8" standalone="no"?>
<!DOCTYPE svg PUBLIC "-//W3C//DTD SVG 1.1//EN"
 "http://www.w3.org/Graphics/SVG/1.1/DTD/svg11.dtd">
<!-- Generated by graphviz version 2.26.3 (20100126.1600)
 -->
<!-- Title: G Pages: 1 -->
<svg width="275pt" height="414pt"
 viewBox="0.00 0.00 275.00 414.00" xmlns="http://www.w3.org/2000/svg" xmlns:xlink="http://www.w3.org/1999/xlink">
<g id="graph1" class="graph" transform="scale(1 1) rotate(0) translate(4 410)">
<title>G</title>
<polygon fill="white" stroke="white" points="-4,5 -4,-410 272,-410 272,5 -4,5"/>
<!-- q6 -->
<g id="node1" class="node"><title>q6</title>
<ellipse fill="none" stroke="black" cx="55" cy="-387" rx="27" ry="18.3848"/>
<text text-anchor="middle" x="55" y="-383.4" font-family="Times Roman,serif" font-size="14.00">q6</text>
</g>
<!-- q2 -->
<g id="node3" class="node"><title>q2</title>
<ellipse fill="none" stroke="black" cx="55" cy="-295" rx="27" ry="18.3848"/>
<text text-anchor="middle" x="55" y="-291.4" font-family="Times Roman,serif" font-size="14.00">q2</text>
</g>
<!-- q6&#45;&gt;q2 -->
<g id="edge2" class="edge"><title>q6&#45;&gt;q2</title>
<path fill="none" stroke="black" d="M55,-368.382C55,-355.538 55,-338.216 55,-323.627"/>
<polygon fill="black" stroke="black" points="58.5001,-323.59 55,-313.59 51.5001,-323.59 58.5001,-323.59"/>
<text text-anchor="middle" x="59.5" y="-337.4" font-family="Times Roman,serif" font-size="14.00">b</text>
</g>
<!-- q4 -->
<g id="node5" class="node"><title>q4</title>
<ellipse fill="none" stroke="black" cx="44" cy="-19" rx="27" ry="18.3848"/>
<text text-anchor="middle" x="44" y="-15.4" font-family="Times Roman,serif" font-size="14.00">q4</text>
</g>
<!-- q6&#45;&gt;q4 -->
<g id="edge4" class="edge"><title>q6&#45;&gt;q4</title>
<path fill="none" stroke="black" d="M39.0917,-372.029C22.8481,-355.048 0,-325.705 0,-295 0,-295 0,-295 0,-111 0,-86.4247 12.9354,-61.4524 24.779,-43.7383"/>
<polygon fill="black" stroke="black" points="27.9098,-45.3706 30.7985,-35.1772 22.1836,-41.3443 27.9098,-45.3706"/>
<text text-anchor="middle" x="4.5" y="-199.4" font-family="Times Roman,serif" font-size="14.00">a</text>
</g>
<!-- q2&#45;&gt;q4 -->
<g id="edge14" class="edge"><title>q2&#45;&gt;q4</title>
<path fill="none" stroke="black" d="M54.2612,-276.462C52.3831,-229.34 47.4154,-104.696 45.1524,-47.9145"/>
<polygon fill="black" stroke="black" points="48.6456,-47.6731 44.7501,-37.8205 41.6512,-47.9519 48.6456,-47.6731"/>
<text text-anchor="middle" x="54.5" y="-153.4" font-family="Times Roman,serif" font-size="14.00">b</text>
</g>
<!-- q5 -->
<g id="node6" class="node"><title>q5</title>
<ellipse fill="none" stroke="black" cx="99" cy="-203" rx="27" ry="18.3848"/>
<text text-anchor="middle" x="99" y="-199.4" font-family="Times Roman,serif" font-size="14.00">q5</text>
</g>
<!-- q2&#45;&gt;q5 -->
<g id="edge16" class="edge"><title>q2&#45;&gt;q5</title>
<path fill="none" stroke="black" d="M63.4836,-277.261C69.875,-263.898 78.7513,-245.338 86.0312,-230.117"/>
<polygon fill="black" stroke="black" points="89.3853,-231.216 90.5424,-220.684 83.0703,-228.195 89.3853,-231.216"/>
<text text-anchor="middle" x="85.5" y="-245.4" font-family="Times Roman,serif" font-size="14.00">a</text>
</g>
<!-- q4&#45;&gt;q4 -->
<g id="edge22" class="edge"><title>q4&#45;&gt;q4</title>
<path fill="none" stroke="black" d="M70.3466,-23.2957C80.5332,-23.4866 89,-22.0547 89,-19 89,-17.0431 85.5252,-15.7522 80.3495,-15.1273"/>
<polygon fill="black" stroke="black" points="80.4855,-11.63 70.3466,-14.7043 80.1898,-18.6237 80.4855,-11.63"/>
<text text-anchor="middle" x="93.5" y="-15.4" font-family="Times Roman,serif" font-size="14.00">b</text>
</g>
<!-- q4&#45;&gt;q4 -->
<g id="edge24" class="edge"><title>q4&#45;&gt;q4</title>
<path fill="none" stroke="black" d="M62.7031,-32.3594C83.375,-41.2656 107,-36.8125 107,-19 107,-3.9707 90.181,1.54787 72.508,-2.44429"/>
<polygon fill="black" stroke="black" points="71.1259,0.786507 62.7031,-5.64062 73.2955,-5.86879 71.1259,0.786507"/>
<text text-anchor="middle" x="111.5" y="-15.4" font-family="Times Roman,serif" font-size="14.00">a</text>
</g>
<!-- q5&#45;&gt;q6 -->
<g id="edge6" class="edge"><title>q5&#45;&gt;q6</title>
<path fill="none" stroke="black" d="M99.8198,-221.828C100.3,-244.207 99.5535,-282.488 91,-314 86.5487,-330.399 78.336,-347.499 70.8778,-361.023"/>
<polygon fill="black" stroke="black" points="67.8074,-359.342 65.8904,-369.762 73.8869,-362.811 67.8074,-359.342"/>
<text text-anchor="middle" x="102.5" y="-291.4" font-family="Times Roman,serif" font-size="14.00">b</text>
</g>
<!-- q0 -->
<g id="node9" class="node"><title>q0</title>
<ellipse fill="none" stroke="black" cx="144" cy="-111" rx="27" ry="18.3848"/>
<text text-anchor="middle" x="144" y="-107.4" font-family="Times Roman,serif" font-size="14.00">q0</text>
</g>
<!-- q5&#45;&gt;q0 -->
<g id="edge8" class="edge"><title>q5&#45;&gt;q0</title>
<path fill="none" stroke="black" d="M107.676,-185.261C114.275,-171.77 123.464,-152.984 130.949,-137.683"/>
<polygon fill="black" stroke="black" points="134.1,-139.205 135.35,-128.684 127.812,-136.129 134.1,-139.205"/>
<text text-anchor="middle" x="130.5" y="-153.4" font-family="Times Roman,serif" font-size="14.00">a</text>
</g>
<!-- q0&#45;&gt;q4 -->
<g id="edge32" class="edge"><title>q0&#45;&gt;q4</title>
<path fill="none" stroke="black" d="M127.487,-95.8081C111.178,-80.8034 86.0706,-57.7049 67.6471,-40.7554"/>
<polygon fill="black" stroke="black" points="69.9347,-38.1041 60.2057,-33.9092 65.1953,-43.2556 69.9347,-38.1041"/>
<text text-anchor="middle" x="107.5" y="-61.4" font-family="Times Roman,serif" font-size="14.00">a</text>
</g>
<!-- q0&#45;&gt;q0 -->
<g id="edge30" class="edge"><title>q0&#45;&gt;q0</title>
<path fill="none" stroke="black" d="M168.074,-119.454C179.242,-120.377 189,-117.559 189,-111 189,-106.593 184.595,-103.875 178.317,-102.846"/>
<polygon fill="black" stroke="black" points="178.173,-99.3402 168.074,-102.546 177.967,-106.337 178.173,-99.3402"/>
<text text-anchor="middle" x="193.5" y="-107.4" font-family="Times Roman,serif" font-size="14.00">b</text>
</g>
<!-- q7 -->
<g id="node10" class="node"><title>q7</title>
<ellipse fill="none" stroke="black" cx="213" cy="-387" rx="27" ry="18.3848"/>
<text text-anchor="middle" x="213" y="-383.4" font-family="Times Roman,serif" font-size="14.00">q7</text>
</g>
<!-- q7&#45;&gt;q7 -->
<g id="edge10" class="edge"><title>q7&#45;&gt;q7</title>
<path fill="none" stroke="black" d="M237.074,-395.454C248.242,-396.377 258,-393.559 258,-387 258,-382.593 253.595,-379.875 247.317,-378.846"/>
<polygon fill="black" stroke="black" points="247.173,-375.34 237.074,-378.546 246.967,-382.337 247.173,-375.34"/>
<text text-anchor="middle" x="262.5" y="-383.4" font-family="Times Roman,serif" font-size="14.00">b</text>
</g>
<!-- q3 -->
<g id="node13" class="node"><title>q3</title>
<ellipse fill="none" stroke="black" cx="213" cy="-295" rx="27" ry="18.3848"/>
<text text-anchor="middle" x="213" y="-291.4" font-family="Times Roman,serif" font-size="14.00">q3</text>
</g>
<!-- q7&#45;&gt;q3 -->
<g id="edge12" class="edge"><title>q7&#45;&gt;q3</title>
<path fill="none" stroke="black" d="M213,-368.382C213,-355.538 213,-338.216 213,-323.627"/>
<polygon fill="black" stroke="black" points="216.5,-323.59 213,-313.59 209.5,-323.59 216.5,-323.59"/>
<text text-anchor="middle" x="217.5" y="-337.4" font-family="Times Roman,serif" font-size="14.00">a</text>
</g>
<!-- q3&#45;&gt;q0 -->
<g id="edge26" class="edge"><title>q3&#45;&gt;q0</title>
<path fill="none" stroke="black" d="M222.602,-277.613C233.702,-255.015 248.679,-214.808 234,-184 221.863,-158.528 196.013,-139.056 175.118,-126.655"/>
<polygon fill="black" stroke="black" points="176.653,-123.502 166.227,-121.617 173.202,-129.592 176.653,-123.502"/>
<text text-anchor="middle" x="244.5" y="-199.4" font-family="Times Roman,serif" font-size="14.00">b</text>
</g>
<!-- q1 -->
<g id="node16" class="node"><title>q1</title>
<ellipse fill="none" stroke="black" cx="171" cy="-203" rx="27" ry="18.3848"/>
<text text-anchor="middle" x="171" y="-199.4" font-family="Times Roman,serif" font-size="14.00">q1</text>
</g>
<!-- q3&#45;&gt;q1 -->
<g id="edge28" class="edge"><title>q3&#45;&gt;q1</title>
<path fill="none" stroke="black" d="M204.902,-277.261C198.801,-263.898 190.328,-245.338 183.379,-230.117"/>
<polygon fill="black" stroke="black" points="186.41,-228.327 179.073,-220.684 180.042,-231.235 186.41,-228.327"/>
<text text-anchor="middle" x="199.5" y="-245.4" font-family="Times Roman,serif" font-size="14.00">a</text>
</g>
<!-- q1&#45;&gt;q0 -->
<g id="edge18" class="edge"><title>q1&#45;&gt;q0</title>
<path fill="none" stroke="black" d="M165.666,-184.824C161.82,-171.719 156.558,-153.789 152.182,-138.88"/>
<polygon fill="black" stroke="black" points="155.498,-137.748 149.323,-129.138 148.781,-139.719 155.498,-137.748"/>
<text text-anchor="middle" x="163.5" y="-153.4" font-family="Times Roman,serif" font-size="14.00">b</text>
</g>
<!-- q1&#45;&gt;q1 -->
<g id="edge20" class="edge"><title>q1&#45;&gt;q1</title>
<path fill="none" stroke="black" d="M195.074,-211.454C206.242,-212.377 216,-209.559 216,-203 216,-198.593 211.595,-195.875 205.317,-194.846"/>
<polygon fill="black" stroke="black" points="205.173,-191.34 195.074,-194.546 204.967,-198.337 205.173,-191.34"/>
<text text-anchor="middle" x="220.5" y="-199.4" font-family="Times Roman,serif" font-size="14.00">a</text>
</g>
</g>
</svg>
