<?xml version="1.0" encoding="UTF-8" standalone="no"?>
<!DOCTYPE svg PUBLIC "-//W3C//DTD SVG 1.1//EN"
 "http://www.w3.org/Graphics/SVG/1.1/DTD/svg11.dtd">
<!-- Generated by graphviz version 2.26.3 (20100126.1600)
 -->
<!-- Title: G Pages: 1 -->
<svg width="207pt" height="502pt"
 viewBox="0.00 0.00 207.00 502.00" xmlns="http://www.w3.org/2000/svg" xmlns:xlink="http://www.w3.org/1999/xlink">
<g id="graph1" class="graph" transform="scale(1 1) rotate(0) translate(4 498)">
<title>G</title>
<polygon fill="white" stroke="white" points="-4,5 -4,-498 204,-498 204,5 -4,5"/>
<!-- q6 -->
<g id="node1" class="node"><title>q6</title>
<ellipse fill="none" stroke="black" cx="86" cy="-378" rx="27" ry="18"/>
<text text-anchor="middle" x="86" y="-373.9" font-family="Times Roman,serif" font-size="14.00">q6</text>
</g>
<!-- q6&#45;&gt;q6 -->
<g id="edge2" class="edge"><title>q6&#45;&gt;q6</title>
<path fill="none" stroke="black" d="M110.532,-386.121C121.508,-386.895 131,-384.188 131,-378 131,-373.843 126.715,-371.257 120.574,-370.242"/>
<polygon fill="black" stroke="black" points="120.652,-366.742 110.532,-369.879 120.4,-373.738 120.652,-366.742"/>
<text text-anchor="middle" x="135.5" y="-373.9" font-family="Times Roman,serif" font-size="14.00">b</text>
</g>
<!-- q4 -->
<g id="node4" class="node"><title>q4</title>
<ellipse fill="none" stroke="black" cx="27" cy="-288" rx="27" ry="18"/>
<text text-anchor="middle" x="27" y="-283.9" font-family="Times Roman,serif" font-size="14.00">q4</text>
</g>
<!-- q6&#45;&gt;q4 -->
<g id="edge4" class="edge"><title>q6&#45;&gt;q4</title>
<path fill="none" stroke="black" d="M75.1785,-361.493C66.3351,-348.003 53.6875,-328.71 43.5697,-313.276"/>
<polygon fill="black" stroke="black" points="46.3624,-311.152 37.9527,-304.708 40.5082,-314.99 46.3624,-311.152"/>
<text text-anchor="middle" x="65.5" y="-328.9" font-family="Times Roman,serif" font-size="14.00">a</text>
</g>
<!-- q2 -->
<g id="node9" class="node"><title>q2</title>
<ellipse fill="none" stroke="black" cx="52" cy="-198" rx="27" ry="18"/>
<text text-anchor="middle" x="52" y="-193.9" font-family="Times Roman,serif" font-size="14.00">q2</text>
</g>
<!-- q4&#45;&gt;q2 -->
<g id="edge18" class="edge"><title>q4&#45;&gt;q2</title>
<path fill="none" stroke="black" d="M31.9392,-270.219C35.466,-257.522 40.2791,-240.195 44.3067,-225.696"/>
<polygon fill="black" stroke="black" points="47.7669,-226.316 47.0711,-215.744 41.0222,-224.443 47.7669,-226.316"/>
<text text-anchor="middle" x="45.5" y="-238.9" font-family="Times Roman,serif" font-size="14.00">b</text>
</g>
<!-- q3 -->
<g id="node15" class="node"><title>q3</title>
<ellipse fill="none" stroke="black" cx="54" cy="-18" rx="27" ry="18"/>
<text text-anchor="middle" x="54" y="-13.9" font-family="Times Roman,serif" font-size="14.00">q3</text>
</g>
<!-- q4&#45;&gt;q3 -->
<g id="edge20" class="edge"><title>q4&#45;&gt;q3</title>
<path fill="none" stroke="black" d="M20.5314,-270.283C18.717,-264.53 16.975,-258.065 16,-252 4.57301,-180.913 6.82025,-161.412 16,-90 18.0897,-73.7435 16.772,-68.7105 24,-54 26.2154,-49.4911 29.1076,-45.0628 32.2211,-40.9386"/>
<polygon fill="black" stroke="black" points="35.1254,-42.9174 38.777,-32.9717 29.7202,-38.4695 35.1254,-42.9174"/>
<text text-anchor="middle" x="13.5" y="-148.9" font-family="Times Roman,serif" font-size="14.00">a</text>
</g>
<!-- q5 -->
<g id="node5" class="node"><title>q5</title>
<ellipse fill="none" stroke="black" cx="106" cy="-288" rx="27" ry="18"/>
<text text-anchor="middle" x="106" y="-283.9" font-family="Times Roman,serif" font-size="14.00">q5</text>
</g>
<!-- q0 -->
<g id="node7" class="node"><title>q0</title>
<ellipse fill="none" stroke="black" cx="108" cy="-108" rx="27" ry="18"/>
<text text-anchor="middle" x="108" y="-103.9" font-family="Times Roman,serif" font-size="14.00">q0</text>
</g>
<!-- q5&#45;&gt;q0 -->
<g id="edge6" class="edge"><title>q5&#45;&gt;q0</title>
<path fill="none" stroke="black" d="M106.203,-269.75C106.553,-238.269 107.272,-173.55 107.686,-136.225"/>
<polygon fill="black" stroke="black" points="111.188,-136.069 107.8,-126.031 104.189,-135.991 111.188,-136.069"/>
<text text-anchor="middle" x="111.5" y="-193.9" font-family="Times Roman,serif" font-size="14.00">b</text>
</g>
<!-- q5&#45;&gt;q2 -->
<g id="edge8" class="edge"><title>q5&#45;&gt;q2</title>
<path fill="none" stroke="black" d="M95.843,-271.072C87.848,-257.747 76.5724,-238.954 67.4583,-223.764"/>
<polygon fill="black" stroke="black" points="70.2577,-221.627 62.1114,-214.852 64.2552,-225.228 70.2577,-221.627"/>
<text text-anchor="middle" x="87.5" y="-238.9" font-family="Times Roman,serif" font-size="14.00">a</text>
</g>
<!-- q0&#45;&gt;q0 -->
<g id="edge28" class="edge"><title>q0&#45;&gt;q0</title>
<path fill="none" stroke="black" d="M132.532,-116.121C143.508,-116.895 153,-114.188 153,-108 153,-103.843 148.715,-101.257 142.574,-100.242"/>
<polygon fill="black" stroke="black" points="142.652,-96.7424 132.532,-99.8789 142.4,-103.738 142.652,-96.7424"/>
<text text-anchor="middle" x="157.5" y="-103.9" font-family="Times Roman,serif" font-size="14.00">a</text>
</g>
<!-- q0&#45;&gt;q3 -->
<g id="edge26" class="edge"><title>q0&#45;&gt;q3</title>
<path fill="none" stroke="black" d="M97.843,-91.0717C89.848,-77.7467 78.5724,-58.9541 69.4583,-43.7639"/>
<polygon fill="black" stroke="black" points="72.2577,-41.6266 64.1114,-34.8524 66.2552,-45.2281 72.2577,-41.6266"/>
<text text-anchor="middle" x="89.5" y="-58.9" font-family="Times Roman,serif" font-size="14.00">b</text>
</g>
<!-- q2&#45;&gt;q4 -->
<g id="edge10" class="edge"><title>q2&#45;&gt;q4</title>
<path fill="none" stroke="black" d="M36.0987,-213.028C30.8796,-218.997 25.7227,-226.28 23,-234 20.1103,-242.194 19.8284,-251.509 20.6481,-260.069"/>
<polygon fill="black" stroke="black" points="17.1907,-260.616 22.0929,-270.009 24.1179,-259.609 17.1907,-260.616"/>
<text text-anchor="middle" x="27.5" y="-238.9" font-family="Times Roman,serif" font-size="14.00">b</text>
</g>
<!-- q2&#45;&gt;q0 -->
<g id="edge12" class="edge"><title>q2&#45;&gt;q0</title>
<path fill="none" stroke="black" d="M62.5332,-181.072C70.8243,-167.747 82.5175,-148.954 91.9692,-133.764"/>
<polygon fill="black" stroke="black" points="95.2027,-135.192 97.5141,-124.852 89.2593,-131.494 95.2027,-135.192"/>
<text text-anchor="middle" x="89.5" y="-148.9" font-family="Times Roman,serif" font-size="14.00">a</text>
</g>
<!-- q1 -->
<g id="node12" class="node"><title>q1</title>
<ellipse fill="none" stroke="black" cx="158" cy="-472" rx="27" ry="18"/>
<ellipse fill="none" stroke="black" cx="158" cy="-472" rx="31" ry="22"/>
<text text-anchor="middle" x="158" y="-467.9" font-family="Times Roman,serif" font-size="14.00">q1</text>
</g>
<!-- q1&#45;&gt;q6 -->
<g id="edge14" class="edge"><title>q1&#45;&gt;q6</title>
<path fill="none" stroke="black" d="M143.082,-452.523C131.96,-438.004 116.695,-418.073 104.748,-402.477"/>
<polygon fill="black" stroke="black" points="107.36,-400.13 98.5003,-394.32 101.803,-404.387 107.36,-400.13"/>
<text text-anchor="middle" x="130.5" y="-418.9" font-family="Times Roman,serif" font-size="14.00">b</text>
</g>
<!-- q1&#45;&gt;q3 -->
<g id="edge16" class="edge"><title>q1&#45;&gt;q3</title>
<path fill="none" stroke="black" d="M169.372,-451.404C178.57,-432.801 190,-404.376 190,-378 190,-378 190,-378 190,-108 190,-59.9741 130.291,-36.0787 89.9993,-25.4212"/>
<polygon fill="black" stroke="black" points="90.7712,-22.0067 80.2222,-22.9903 89.0822,-28.7998 90.7712,-22.0067"/>
<text text-anchor="middle" x="194.5" y="-238.9" font-family="Times Roman,serif" font-size="14.00">a</text>
</g>
<!-- q3&#45;&gt;q2 -->
<g id="edge22" class="edge"><title>q3&#45;&gt;q2</title>
<path fill="none" stroke="black" d="M44.2744,-35.0981C36.7921,-49.2908 27.0664,-70.2729 23,-90 19.7698,-105.671 19.9555,-110.292 23,-126 26.0538,-141.756 32.5425,-158.434 38.6093,-171.767"/>
<polygon fill="black" stroke="black" points="35.4544,-173.283 42.8971,-180.823 41.7811,-170.287 35.4544,-173.283"/>
<text text-anchor="middle" x="27.5" y="-103.9" font-family="Times Roman,serif" font-size="14.00">b</text>
</g>
<!-- q3&#45;&gt;q2 -->
<g id="edge24" class="edge"><title>q3&#45;&gt;q2</title>
<path fill="none" stroke="black" d="M53.7997,-36.0306C53.4516,-67.357 52.7327,-132.061 52.3165,-169.514"/>
<polygon fill="black" stroke="black" points="48.8142,-169.712 52.2028,-179.75 55.8138,-169.79 48.8142,-169.712"/>
<text text-anchor="middle" x="57.5" y="-103.9" font-family="Times Roman,serif" font-size="14.00">a</text>
</g>
</g>
</svg>
