<?xml version="1.0" encoding="UTF-8" standalone="no"?>
<!DOCTYPE svg PUBLIC "-//W3C//DTD SVG 1.1//EN"
 "http://www.w3.org/Graphics/SVG/1.1/DTD/svg11.dtd">
<!-- Generated by graphviz version 2.26.3 (20100126.1600)
 -->
<!-- Title: G Pages: 1 -->
<svg width="157pt" height="510pt"
 viewBox="0.00 0.00 157.00 510.00" xmlns="http://www.w3.org/2000/svg" xmlns:xlink="http://www.w3.org/1999/xlink">
<g id="graph1" class="graph" transform="scale(1 1) rotate(0) translate(4 506)">
<title>G</title>
<polygon fill="white" stroke="white" points="-4,5 -4,-506 154,-506 154,5 -4,5"/>
<!-- q6 -->
<g id="node1" class="node"><title>q6</title>
<ellipse fill="none" stroke="black" cx="101" cy="-484" rx="27" ry="18"/>
<text text-anchor="middle" x="101" y="-479.9" font-family="Times Roman,serif" font-size="14.00">q6</text>
</g>
<!-- q7 -->
<g id="node3" class="node"><title>q7</title>
<ellipse fill="none" stroke="black" cx="31" cy="-390" rx="27" ry="18"/>
<ellipse fill="none" stroke="black" cx="31" cy="-390" rx="31" ry="22"/>
<text text-anchor="middle" x="31" y="-385.9" font-family="Times Roman,serif" font-size="14.00">q7</text>
</g>
<!-- q6&#45;&gt;q7 -->
<g id="edge2" class="edge"><title>q6&#45;&gt;q7</title>
<path fill="none" stroke="black" d="M88.8069,-467.626C78.5999,-453.92 63.8092,-434.058 51.7443,-417.857"/>
<polygon fill="black" stroke="black" points="54.5022,-415.7 45.7223,-409.77 48.8878,-419.881 54.5022,-415.7"/>
<text text-anchor="middle" x="77.5" y="-434.9" font-family="Times Roman,serif" font-size="14.00">b</text>
</g>
<!-- q4 -->
<g id="node5" class="node"><title>q4</title>
<ellipse fill="none" stroke="black" cx="95" cy="-296" rx="27" ry="18"/>
<text text-anchor="middle" x="95" y="-291.9" font-family="Times Roman,serif" font-size="14.00">q4</text>
</g>
<!-- q6&#45;&gt;q4 -->
<g id="edge4" class="edge"><title>q6&#45;&gt;q4</title>
<path fill="none" stroke="black" d="M100.621,-465.914C100.122,-443.091 99.1692,-402.631 98,-368 97.5152,-353.64 96.8616,-337.674 96.2882,-324.433"/>
<polygon fill="black" stroke="black" points="99.7675,-323.883 95.831,-314.047 92.7743,-324.191 99.7675,-323.883"/>
<text text-anchor="middle" x="104.5" y="-385.9" font-family="Times Roman,serif" font-size="14.00">a</text>
</g>
<!-- q7&#45;&gt;q7 -->
<g id="edge8" class="edge"><title>q7&#45;&gt;q7</title>
<path fill="none" stroke="black" d="M59.6885,-398.965C70.7806,-399.363 80,-396.375 80,-390 80,-385.717 75.8382,-382.962 69.7429,-381.737"/>
<polygon fill="black" stroke="black" points="69.9079,-378.24 59.6885,-381.035 69.4205,-385.223 69.9079,-378.24"/>
<text text-anchor="middle" x="84.5" y="-385.9" font-family="Times Roman,serif" font-size="14.00">a</text>
</g>
<!-- q7&#45;&gt;q4 -->
<g id="edge6" class="edge"><title>q7&#45;&gt;q4</title>
<path fill="none" stroke="black" d="M44.5728,-370.065C54.3267,-355.739 67.5456,-336.324 78.0022,-320.966"/>
<polygon fill="black" stroke="black" points="81.0577,-322.697 83.7926,-312.461 75.2715,-318.757 81.0577,-322.697"/>
<text text-anchor="middle" x="73.5" y="-336.9" font-family="Times Roman,serif" font-size="14.00">b</text>
</g>
<!-- q4&#45;&gt;q4 -->
<g id="edge16" class="edge"><title>q4&#45;&gt;q4</title>
<path fill="none" stroke="black" d="M119.532,-304.121C130.508,-304.895 140,-302.188 140,-296 140,-291.843 135.715,-289.257 129.574,-288.242"/>
<polygon fill="black" stroke="black" points="129.652,-284.742 119.532,-287.879 129.4,-291.738 129.652,-284.742"/>
<text text-anchor="middle" x="144.5" y="-291.9" font-family="Times Roman,serif" font-size="14.00">a</text>
</g>
<!-- q2 -->
<g id="node8" class="node"><title>q2</title>
<ellipse fill="none" stroke="black" cx="95" cy="-206" rx="27" ry="18"/>
<text text-anchor="middle" x="95" y="-201.9" font-family="Times Roman,serif" font-size="14.00">q2</text>
</g>
<!-- q4&#45;&gt;q2 -->
<g id="edge14" class="edge"><title>q4&#45;&gt;q2</title>
<path fill="none" stroke="black" d="M95,-277.787C95,-265.344 95,-248.605 95,-234.421"/>
<polygon fill="black" stroke="black" points="98.5001,-234.186 95,-224.186 91.5001,-234.186 98.5001,-234.186"/>
<text text-anchor="middle" x="99.5" y="-246.9" font-family="Times Roman,serif" font-size="14.00">b</text>
</g>
<!-- q0 -->
<g id="node10" class="node"><title>q0</title>
<ellipse fill="none" stroke="black" cx="95" cy="-116" rx="27" ry="18"/>
<text text-anchor="middle" x="95" y="-111.9" font-family="Times Roman,serif" font-size="14.00">q0</text>
</g>
<!-- q2&#45;&gt;q0 -->
<g id="edge10" class="edge"><title>q2&#45;&gt;q0</title>
<path fill="none" stroke="black" d="M86.2399,-188.86C83.7028,-183.03 81.2748,-176.374 80,-170 78.4311,-162.155 78.4311,-159.845 80,-152 80.6175,-148.913 81.5055,-145.759 82.5455,-142.665"/>
<polygon fill="black" stroke="black" points="85.8869,-143.729 86.2399,-133.14 79.3606,-141.198 85.8869,-143.729"/>
<text text-anchor="middle" x="84.5" y="-156.9" font-family="Times Roman,serif" font-size="14.00">b</text>
</g>
<!-- q2&#45;&gt;q0 -->
<g id="edge12" class="edge"><title>q2&#45;&gt;q0</title>
<path fill="none" stroke="black" d="M95,-187.787C95,-175.344 95,-158.605 95,-144.421"/>
<polygon fill="black" stroke="black" points="98.5001,-144.186 95,-134.186 91.5001,-144.186 98.5001,-144.186"/>
<text text-anchor="middle" x="99.5" y="-156.9" font-family="Times Roman,serif" font-size="14.00">a</text>
</g>
<!-- q0&#45;&gt;q0 -->
<g id="edge24" class="edge"><title>q0&#45;&gt;q0</title>
<path fill="none" stroke="black" d="M119.532,-124.121C130.508,-124.895 140,-122.188 140,-116 140,-111.843 135.715,-109.257 129.574,-108.242"/>
<polygon fill="black" stroke="black" points="129.652,-104.742 119.532,-107.879 129.4,-111.738 129.652,-104.742"/>
<text text-anchor="middle" x="144.5" y="-111.9" font-family="Times Roman,serif" font-size="14.00">a</text>
</g>
<!-- q3 -->
<g id="node14" class="node"><title>q3</title>
<ellipse fill="none" stroke="black" cx="95" cy="-22" rx="27" ry="18"/>
<ellipse fill="none" stroke="black" cx="95" cy="-22" rx="31" ry="22"/>
<text text-anchor="middle" x="95" y="-17.9" font-family="Times Roman,serif" font-size="14.00">q3</text>
</g>
<!-- q0&#45;&gt;q3 -->
<g id="edge22" class="edge"><title>q0&#45;&gt;q3</title>
<path fill="none" stroke="black" d="M87.2648,-98.3885C85.1157,-92.6409 83.0769,-86.1528 82,-80 80.4528,-71.1598 81.4571,-61.6322 83.458,-52.9045"/>
<polygon fill="black" stroke="black" points="86.873,-53.6871 86.1714,-43.1155 80.1273,-51.8172 86.873,-53.6871"/>
<text text-anchor="middle" x="86.5" y="-66.9" font-family="Times Roman,serif" font-size="14.00">b</text>
</g>
<!-- q3&#45;&gt;q0 -->
<g id="edge18" class="edge"><title>q3&#45;&gt;q0</title>
<path fill="none" stroke="black" d="M95,-44.0388C95,-57.0958 95,-73.7734 95,-87.785"/>
<polygon fill="black" stroke="black" points="91.5001,-87.8758 95,-97.8759 98.5001,-87.8759 91.5001,-87.8758"/>
<text text-anchor="middle" x="99.5" y="-66.9" font-family="Times Roman,serif" font-size="14.00">b</text>
</g>
<!-- q3&#45;&gt;q0 -->
<g id="edge20" class="edge"><title>q3&#45;&gt;q0</title>
<path fill="none" stroke="black" d="M101.937,-43.7022C104.597,-54.5722 106.642,-67.952 105,-80 104.627,-82.7376 104.101,-85.5608 103.484,-88.3653"/>
<polygon fill="black" stroke="black" points="100.041,-87.6996 100.956,-98.2549 106.823,-89.4331 100.041,-87.6996"/>
<text text-anchor="middle" x="109.5" y="-66.9" font-family="Times Roman,serif" font-size="14.00">a</text>
</g>
</g>
</svg>
