<?xml version="1.0" encoding="UTF-8" standalone="no"?>
<!DOCTYPE svg PUBLIC "-//W3C//DTD SVG 1.1//EN"
 "http://www.w3.org/Graphics/SVG/1.1/DTD/svg11.dtd">
<!-- Generated by graphviz version 2.26.3 (20100126.1600)
 -->
<!-- Title: G Pages: 1 -->
<svg width="171pt" height="506pt"
 viewBox="0.00 0.00 171.00 506.00" xmlns="http://www.w3.org/2000/svg" xmlns:xlink="http://www.w3.org/1999/xlink">
<g id="graph1" class="graph" transform="scale(1 1) rotate(0) translate(4 502)">
<title>G</title>
<polygon fill="white" stroke="white" points="-4,5 -4,-502 168,-502 168,5 -4,5"/>
<!-- q5 -->
<g id="node1" class="node"><title>q5</title>
<ellipse fill="none" stroke="black" cx="109" cy="-387" rx="27" ry="18.3848"/>
<text text-anchor="middle" x="109" y="-383.4" font-family="Times Roman,serif" font-size="14.00">q5</text>
</g>
<!-- q5&#45;&gt;q5 -->
<g id="edge2" class="edge"><title>q5&#45;&gt;q5</title>
<path fill="none" stroke="black" d="M133.074,-395.454C144.242,-396.377 154,-393.559 154,-387 154,-382.593 149.595,-379.875 143.317,-378.846"/>
<polygon fill="black" stroke="black" points="143.173,-375.34 133.074,-378.546 142.967,-382.337 143.173,-375.34"/>
<text text-anchor="middle" x="158.5" y="-383.4" font-family="Times Roman,serif" font-size="14.00">b</text>
</g>
<!-- q1 -->
<g id="node4" class="node"><title>q1</title>
<ellipse fill="none" stroke="black" cx="109" cy="-295" rx="27" ry="18.3848"/>
<text text-anchor="middle" x="109" y="-291.4" font-family="Times Roman,serif" font-size="14.00">q1</text>
</g>
<!-- q5&#45;&gt;q1 -->
<g id="edge4" class="edge"><title>q5&#45;&gt;q1</title>
<path fill="none" stroke="black" d="M100.239,-369.361C97.7013,-363.367 95.2735,-356.531 94,-350 92.4689,-342.148 92.4689,-339.852 94,-332 94.6368,-328.734 95.5621,-325.393 96.6454,-322.118"/>
<polygon fill="black" stroke="black" points="99.9666,-323.231 100.239,-312.639 93.4211,-320.749 99.9666,-323.231"/>
<text text-anchor="middle" x="98.5" y="-337.4" font-family="Times Roman,serif" font-size="14.00">a</text>
</g>
<!-- q1&#45;&gt;q5 -->
<g id="edge12" class="edge"><title>q1&#45;&gt;q5</title>
<path fill="none" stroke="black" d="M109,-313.59C109,-326.428 109,-343.748 109,-358.342"/>
<polygon fill="black" stroke="black" points="105.5,-358.382 109,-368.382 112.5,-358.382 105.5,-358.382"/>
<text text-anchor="middle" x="113.5" y="-337.4" font-family="Times Roman,serif" font-size="14.00">a</text>
</g>
<!-- q4 -->
<g id="node9" class="node"><title>q4</title>
<ellipse fill="none" stroke="black" cx="27" cy="-203" rx="27" ry="18.3848"/>
<text text-anchor="middle" x="27" y="-199.4" font-family="Times Roman,serif" font-size="14.00">q4</text>
</g>
<!-- q1&#45;&gt;q4 -->
<g id="edge10" class="edge"><title>q1&#45;&gt;q4</title>
<path fill="none" stroke="black" d="M94.7167,-278.975C81.7826,-264.463 62.5656,-242.903 47.9038,-226.453"/>
<polygon fill="black" stroke="black" points="50.3862,-223.978 41.1196,-218.842 45.1606,-228.636 50.3862,-223.978"/>
<text text-anchor="middle" x="80.5" y="-245.4" font-family="Times Roman,serif" font-size="14.00">b</text>
</g>
<!-- q2 -->
<g id="node5" class="node"><title>q2</title>
<ellipse fill="none" stroke="black" cx="109" cy="-19" rx="27" ry="18.3848"/>
<text text-anchor="middle" x="109" y="-15.4" font-family="Times Roman,serif" font-size="14.00">q2</text>
</g>
<!-- q2&#45;&gt;q1 -->
<g id="edge6" class="edge"><title>q2&#45;&gt;q1</title>
<path fill="none" stroke="black" d="M109,-37.8205C109,-85.2508 109,-209.914 109,-266.424"/>
<polygon fill="black" stroke="black" points="105.5,-266.462 109,-276.462 112.5,-266.462 105.5,-266.462"/>
<text text-anchor="middle" x="113.5" y="-153.4" font-family="Times Roman,serif" font-size="14.00">b</text>
</g>
<!-- q2&#45;&gt;q1 -->
<g id="edge8" class="edge"><title>q2&#45;&gt;q1</title>
<path fill="none" stroke="black" d="M117.18,-36.6924C119.549,-42.6896 121.814,-49.5142 123,-56 139.149,-144.313 139.149,-169.687 123,-258 122.407,-261.243 121.544,-264.57 120.534,-267.837"/>
<polygon fill="black" stroke="black" points="117.219,-266.713 117.18,-277.308 123.817,-269.049 117.219,-266.713"/>
<text text-anchor="middle" x="139.5" y="-153.4" font-family="Times Roman,serif" font-size="14.00">a</text>
</g>
<!-- q4&#45;&gt;q4 -->
<g id="edge14" class="edge"><title>q4&#45;&gt;q4</title>
<path fill="none" stroke="black" d="M51.0743,-211.454C62.2423,-212.377 72,-209.559 72,-203 72,-198.593 67.5952,-195.875 61.3174,-194.846"/>
<polygon fill="black" stroke="black" points="61.1726,-191.34 51.0743,-194.546 60.9674,-198.337 61.1726,-191.34"/>
<text text-anchor="middle" x="76.5" y="-199.4" font-family="Times Roman,serif" font-size="14.00">b</text>
</g>
<!-- q0 -->
<g id="node13" class="node"><title>q0</title>
<ellipse fill="none" stroke="black" cx="27" cy="-111" rx="27" ry="18.3848"/>
<text text-anchor="middle" x="27" y="-107.4" font-family="Times Roman,serif" font-size="14.00">q0</text>
</g>
<!-- q4&#45;&gt;q0 -->
<g id="edge16" class="edge"><title>q4&#45;&gt;q0</title>
<path fill="none" stroke="black" d="M27,-184.382C27,-171.538 27,-154.216 27,-139.627"/>
<polygon fill="black" stroke="black" points="30.5001,-139.59 27,-129.59 23.5001,-139.59 30.5001,-139.59"/>
<text text-anchor="middle" x="31.5" y="-153.4" font-family="Times Roman,serif" font-size="14.00">a</text>
</g>
<!-- q0&#45;&gt;q2 -->
<g id="edge22" class="edge"><title>q0&#45;&gt;q2</title>
<path fill="none" stroke="black" d="M41.2833,-94.9748C54.2174,-80.4634 73.4344,-58.9029 88.0962,-42.4531"/>
<polygon fill="black" stroke="black" points="90.8394,-44.6355 94.8804,-34.8415 85.6138,-39.9779 90.8394,-44.6355"/>
<text text-anchor="middle" x="80.5" y="-61.4" font-family="Times Roman,serif" font-size="14.00">b</text>
</g>
<!-- q0&#45;&gt;q0 -->
<g id="edge24" class="edge"><title>q0&#45;&gt;q0</title>
<path fill="none" stroke="black" d="M51.0743,-119.454C62.2423,-120.377 72,-117.559 72,-111 72,-106.593 67.5952,-103.875 61.3174,-102.846"/>
<polygon fill="black" stroke="black" points="61.1726,-99.3402 51.0743,-102.546 60.9674,-106.337 61.1726,-99.3402"/>
<text text-anchor="middle" x="76.5" y="-107.4" font-family="Times Roman,serif" font-size="14.00">a</text>
</g>
<!-- q3 -->
<g id="node14" class="node"><title>q3</title>
<ellipse fill="none" stroke="black" cx="109" cy="-479" rx="27" ry="18.3848"/>
<text text-anchor="middle" x="109" y="-475.4" font-family="Times Roman,serif" font-size="14.00">q3</text>
</g>
<!-- q3&#45;&gt;q5 -->
<g id="edge18" class="edge"><title>q3&#45;&gt;q5</title>
<path fill="none" stroke="black" d="M109,-460.382C109,-447.538 109,-430.216 109,-415.627"/>
<polygon fill="black" stroke="black" points="112.5,-415.59 109,-405.59 105.5,-415.59 112.5,-415.59"/>
<text text-anchor="middle" x="113.5" y="-429.4" font-family="Times Roman,serif" font-size="14.00">b</text>
</g>
<!-- q3&#45;&gt;q3 -->
<g id="edge20" class="edge"><title>q3&#45;&gt;q3</title>
<path fill="none" stroke="black" d="M133.074,-487.454C144.242,-488.377 154,-485.559 154,-479 154,-474.593 149.595,-471.875 143.317,-470.846"/>
<polygon fill="black" stroke="black" points="143.173,-467.34 133.074,-470.546 142.967,-474.337 143.173,-467.34"/>
<text text-anchor="middle" x="158.5" y="-475.4" font-family="Times Roman,serif" font-size="14.00">a</text>
</g>
</g>
</svg>
