<?xml version="1.0" encoding="UTF-8" standalone="no"?>
<!DOCTYPE svg PUBLIC "-//W3C//DTD SVG 1.1//EN"
 "http://www.w3.org/Graphics/SVG/1.1/DTD/svg11.dtd">
<!-- Generated by graphviz version 2.26.3 (20100126.1600)
 -->
<!-- Title: G Pages: 1 -->
<svg width="212pt" height="322pt"
 viewBox="0.00 0.00 212.00 322.00" xmlns="http://www.w3.org/2000/svg" xmlns:xlink="http://www.w3.org/1999/xlink">
<g id="graph1" class="graph" transform="scale(1 1) rotate(0) translate(4 318)">
<title>G</title>
<polygon fill="white" stroke="white" points="-4,5 -4,-318 209,-318 209,5 -4,5"/>
<!-- q6 -->
<g id="node1" class="node"><title>q6</title>
<ellipse fill="none" stroke="black" cx="43" cy="-292" rx="27" ry="18"/>
<text text-anchor="middle" x="43" y="-287.9" font-family="Times Roman,serif" font-size="14.00">q6</text>
</g>
<!-- q6&#45;&gt;q6 -->
<g id="edge2" class="edge"><title>q6&#45;&gt;q6</title>
<path fill="none" stroke="black" d="M66.6146,-300.78C77.9731,-301.864 88,-298.938 88,-292 88,-287.339 83.4737,-284.488 77.0584,-283.448"/>
<polygon fill="black" stroke="black" points="76.6888,-279.939 66.6146,-283.22 76.5356,-286.938 76.6888,-279.939"/>
<text text-anchor="middle" x="92.5" y="-287.9" font-family="Times Roman,serif" font-size="14.00">b</text>
</g>
<!-- q4 -->
<g id="node4" class="node"><title>q4</title>
<ellipse fill="none" stroke="black" cx="94" cy="-198" rx="27" ry="18"/>
<text text-anchor="middle" x="94" y="-193.9" font-family="Times Roman,serif" font-size="14.00">q4</text>
</g>
<!-- q6&#45;&gt;q4 -->
<g id="edge4" class="edge"><title>q6&#45;&gt;q4</title>
<path fill="none" stroke="black" d="M52.3542,-274.759C60.0465,-260.581 71.0688,-240.265 79.8418,-224.095"/>
<polygon fill="black" stroke="black" points="83.0126,-225.591 84.7051,-215.132 76.8598,-222.252 83.0126,-225.591"/>
<text text-anchor="middle" x="78.5" y="-238.9" font-family="Times Roman,serif" font-size="14.00">a</text>
</g>
<!-- q4&#45;&gt;q4 -->
<g id="edge16" class="edge"><title>q4&#45;&gt;q4</title>
<path fill="none" stroke="black" d="M118.532,-206.121C129.508,-206.895 139,-204.188 139,-198 139,-193.843 134.715,-191.257 128.574,-190.242"/>
<polygon fill="black" stroke="black" points="128.652,-186.742 118.532,-189.879 128.4,-193.738 128.652,-186.742"/>
<text text-anchor="middle" x="143.5" y="-193.9" font-family="Times Roman,serif" font-size="14.00">a</text>
</g>
<!-- q2 -->
<g id="node8" class="node"><title>q2</title>
<ellipse fill="none" stroke="black" cx="27" cy="-108" rx="27" ry="18"/>
<text text-anchor="middle" x="27" y="-103.9" font-family="Times Roman,serif" font-size="14.00">q2</text>
</g>
<!-- q4&#45;&gt;q2 -->
<g id="edge14" class="edge"><title>q4&#45;&gt;q2</title>
<path fill="none" stroke="black" d="M81.7112,-181.493C71.5111,-167.791 56.8542,-148.103 45.2776,-132.552"/>
<polygon fill="black" stroke="black" points="47.9899,-130.334 39.2109,-124.403 42.3749,-134.514 47.9899,-130.334"/>
<text text-anchor="middle" x="71.5" y="-148.9" font-family="Times Roman,serif" font-size="14.00">b</text>
</g>
<!-- q5 -->
<g id="node5" class="node"><title>q5</title>
<ellipse fill="none" stroke="black" cx="59" cy="-18" rx="27" ry="18"/>
<text text-anchor="middle" x="59" y="-13.9" font-family="Times Roman,serif" font-size="14.00">q5</text>
</g>
<!-- q5&#45;&gt;q4 -->
<g id="edge6" class="edge"><title>q5&#45;&gt;q4</title>
<path fill="none" stroke="black" d="M68.531,-35.1401C75.9004,-49.3571 85.5692,-70.3515 90,-90 95.9945,-116.583 96.4748,-147.764 95.7682,-169.77"/>
<polygon fill="black" stroke="black" points="92.2708,-169.636 95.3449,-179.776 99.2645,-169.932 92.2708,-169.636"/>
<text text-anchor="middle" x="100.5" y="-103.9" font-family="Times Roman,serif" font-size="14.00">b</text>
</g>
<!-- q5&#45;&gt;q2 -->
<g id="edge8" class="edge"><title>q5&#45;&gt;q2</title>
<path fill="none" stroke="black" d="M52.691,-35.7442C48.136,-48.5549 41.8999,-66.0939 36.7124,-80.6838"/>
<polygon fill="black" stroke="black" points="33.3746,-79.6242 33.3222,-90.2189 39.9701,-81.9693 33.3746,-79.6242"/>
<text text-anchor="middle" x="50.5" y="-58.9" font-family="Times Roman,serif" font-size="14.00">a</text>
</g>
<!-- q2&#45;&gt;q5 -->
<g id="edge12" class="edge"><title>q2&#45;&gt;q5</title>
<path fill="none" stroke="black" d="M24.3285,-89.9088C23.4623,-79.1351 23.6522,-65.3878 28,-54 29.8644,-49.1167 32.7056,-44.4449 35.9256,-40.1793"/>
<polygon fill="black" stroke="black" points="38.6191,-42.4145 42.4275,-32.5278 33.2849,-37.8817 38.6191,-42.4145"/>
<text text-anchor="middle" x="32.5" y="-58.9" font-family="Times Roman,serif" font-size="14.00">a</text>
</g>
<!-- q2&#45;&gt;q2 -->
<g id="edge10" class="edge"><title>q2&#45;&gt;q2</title>
<path fill="none" stroke="black" d="M51.5325,-116.121C62.5078,-116.895 72,-114.188 72,-108 72,-103.843 67.7151,-101.257 61.5743,-100.242"/>
<polygon fill="black" stroke="black" points="61.6524,-96.7424 51.5325,-99.8789 61.3995,-103.738 61.6524,-96.7424"/>
<text text-anchor="middle" x="76.5" y="-103.9" font-family="Times Roman,serif" font-size="14.00">b</text>
</g>
<!-- q0 -->
<g id="node13" class="node"><title>q0</title>
<ellipse fill="none" stroke="black" cx="146" cy="-292" rx="27" ry="18"/>
<ellipse fill="none" stroke="black" cx="146" cy="-292" rx="31" ry="22"/>
<text text-anchor="middle" x="146" y="-287.9" font-family="Times Roman,serif" font-size="14.00">q0</text>
</g>
<!-- q0&#45;&gt;q4 -->
<g id="edge20" class="edge"><title>q0&#45;&gt;q4</title>
<path fill="none" stroke="black" d="M134.46,-271.138C126.802,-257.295 116.69,-239.016 108.491,-224.195"/>
<polygon fill="black" stroke="black" points="111.328,-222.092 103.424,-215.036 105.202,-225.481 111.328,-222.092"/>
<text text-anchor="middle" x="127.5" y="-238.9" font-family="Times Roman,serif" font-size="14.00">a</text>
</g>
<!-- q0&#45;&gt;q0 -->
<g id="edge18" class="edge"><title>q0&#45;&gt;q0</title>
<path fill="none" stroke="black" d="M174.689,-300.965C185.781,-301.363 195,-298.375 195,-292 195,-287.717 190.838,-284.962 184.743,-283.737"/>
<polygon fill="black" stroke="black" points="184.908,-280.24 174.689,-283.035 184.421,-287.223 184.908,-280.24"/>
<text text-anchor="middle" x="199.5" y="-287.9" font-family="Times Roman,serif" font-size="14.00">b</text>
</g>
</g>
</svg>
