<?xml version="1.0" encoding="UTF-8" standalone="no"?>
<!DOCTYPE svg PUBLIC "-//W3C//DTD SVG 1.1//EN"
 "http://www.w3.org/Graphics/SVG/1.1/DTD/svg11.dtd">
<!-- Generated by graphviz version 2.26.3 (20100126.1600)
 -->
<!-- Title: G Pages: 1 -->
<svg width="209pt" height="412pt"
 viewBox="0.00 0.00 209.00 412.00" xmlns="http://www.w3.org/2000/svg" xmlns:xlink="http://www.w3.org/1999/xlink">
<g id="graph1" class="graph" transform="scale(1 1) rotate(0) translate(4 408)">
<title>G</title>
<polygon fill="white" stroke="white" points="-4,5 -4,-408 206,-408 206,5 -4,5"/>
<!-- q6 -->
<g id="node1" class="node"><title>q6</title>
<ellipse fill="none" stroke="black" cx="75" cy="-386" rx="27" ry="18"/>
<text text-anchor="middle" x="75" y="-381.9" font-family="Times Roman,serif" font-size="14.00">q6</text>
</g>
<!-- q2 -->
<g id="node3" class="node"><title>q2</title>
<ellipse fill="none" stroke="black" cx="75" cy="-296" rx="27" ry="18"/>
<text text-anchor="middle" x="75" y="-291.9" font-family="Times Roman,serif" font-size="14.00">q2</text>
</g>
<!-- q6&#45;&gt;q2 -->
<g id="edge2" class="edge"><title>q6&#45;&gt;q2</title>
<path fill="none" stroke="black" d="M75,-367.787C75,-355.344 75,-338.605 75,-324.421"/>
<polygon fill="black" stroke="black" points="78.5001,-324.186 75,-314.186 71.5001,-324.186 78.5001,-324.186"/>
<text text-anchor="middle" x="79.5" y="-336.9" font-family="Times Roman,serif" font-size="14.00">b</text>
</g>
<!-- q4 -->
<g id="node5" class="node"><title>q4</title>
<ellipse fill="none" stroke="black" cx="147" cy="-296" rx="27" ry="18"/>
<text text-anchor="middle" x="147" y="-291.9" font-family="Times Roman,serif" font-size="14.00">q4</text>
</g>
<!-- q6&#45;&gt;q4 -->
<g id="edge4" class="edge"><title>q6&#45;&gt;q4</title>
<path fill="none" stroke="black" d="M87.8722,-369.91C98.9298,-356.088 115.036,-335.955 127.647,-320.191"/>
<polygon fill="black" stroke="black" points="130.725,-321.946 134.239,-311.951 125.259,-317.573 130.725,-321.946"/>
<text text-anchor="middle" x="121.5" y="-336.9" font-family="Times Roman,serif" font-size="14.00">a</text>
</g>
<!-- q5 -->
<g id="node6" class="node"><title>q5</title>
<ellipse fill="none" stroke="black" cx="31" cy="-206" rx="27" ry="18"/>
<text text-anchor="middle" x="31" y="-201.9" font-family="Times Roman,serif" font-size="14.00">q5</text>
</g>
<!-- q2&#45;&gt;q5 -->
<g id="edge16" class="edge"><title>q2&#45;&gt;q5</title>
<path fill="none" stroke="black" d="M66.5164,-278.647C60.125,-265.574 51.2487,-247.418 43.9688,-232.527"/>
<polygon fill="black" stroke="black" points="46.9941,-230.746 39.4576,-223.3 40.7054,-233.821 46.9941,-230.746"/>
<text text-anchor="middle" x="60.5" y="-246.9" font-family="Times Roman,serif" font-size="14.00">a</text>
</g>
<!-- q0 -->
<g id="node14" class="node"><title>q0</title>
<ellipse fill="none" stroke="black" cx="66" cy="-18" rx="27" ry="18"/>
<text text-anchor="middle" x="66" y="-13.9" font-family="Times Roman,serif" font-size="14.00">q0</text>
</g>
<!-- q2&#45;&gt;q0 -->
<g id="edge14" class="edge"><title>q2&#45;&gt;q0</title>
<path fill="none" stroke="black" d="M74.9515,-277.803C74.7882,-241.882 74.0783,-159.327 71,-90 70.3553,-75.4804 69.2683,-59.3371 68.2722,-46.0222"/>
<polygon fill="black" stroke="black" points="71.7607,-45.7371 67.5031,-36.0354 64.7814,-46.2747 71.7607,-45.7371"/>
<text text-anchor="middle" x="77.5" y="-156.9" font-family="Times Roman,serif" font-size="14.00">b</text>
</g>
<!-- q4&#45;&gt;q4 -->
<g id="edge20" class="edge"><title>q4&#45;&gt;q4</title>
<path fill="none" stroke="black" d="M171.532,-304.121C182.508,-304.895 192,-302.188 192,-296 192,-291.843 187.715,-289.257 181.574,-288.242"/>
<polygon fill="black" stroke="black" points="181.652,-284.742 171.532,-287.879 181.4,-291.738 181.652,-284.742"/>
<text text-anchor="middle" x="196.5" y="-291.9" font-family="Times Roman,serif" font-size="14.00">a</text>
</g>
<!-- q4&#45;&gt;q0 -->
<g id="edge18" class="edge"><title>q4&#45;&gt;q0</title>
<path fill="none" stroke="black" d="M143.429,-278.047C135.097,-237.427 112.792,-135.651 83,-54 81.8628,-50.8833 80.5544,-47.6698 79.179,-44.5052"/>
<polygon fill="black" stroke="black" points="82.3084,-42.9329 74.9558,-35.3046 75.9466,-45.8531 82.3084,-42.9329"/>
<text text-anchor="middle" x="122.5" y="-156.9" font-family="Times Roman,serif" font-size="14.00">b</text>
</g>
<!-- q5&#45;&gt;q6 -->
<g id="edge8" class="edge"><title>q5&#45;&gt;q6</title>
<path fill="none" stroke="black" d="M27.7621,-224.002C24.5367,-245.787 21.2122,-283.359 30,-314 35.0003,-331.435 45.59,-348.744 55.2407,-362.019"/>
<polygon fill="black" stroke="black" points="52.5505,-364.264 61.3789,-370.122 58.1302,-360.037 52.5505,-364.264"/>
<text text-anchor="middle" x="34.5" y="-291.9" font-family="Times Roman,serif" font-size="14.00">a</text>
</g>
<!-- q3 -->
<g id="node8" class="node"><title>q3</title>
<ellipse fill="none" stroke="black" cx="31" cy="-112" rx="27" ry="18"/>
<ellipse fill="none" stroke="black" cx="31" cy="-112" rx="31" ry="22"/>
<text text-anchor="middle" x="31" y="-107.9" font-family="Times Roman,serif" font-size="14.00">q3</text>
</g>
<!-- q5&#45;&gt;q3 -->
<g id="edge6" class="edge"><title>q5&#45;&gt;q3</title>
<path fill="none" stroke="black" d="M31,-187.876C31,-175.512 31,-158.795 31,-144.199"/>
<polygon fill="black" stroke="black" points="34.5001,-144.039 31,-134.039 27.5001,-144.039 34.5001,-144.039"/>
<text text-anchor="middle" x="35.5" y="-156.9" font-family="Times Roman,serif" font-size="14.00">b</text>
</g>
<!-- q3&#45;&gt;q0 -->
<g id="edge22" class="edge"><title>q3&#45;&gt;q0</title>
<path fill="none" stroke="black" d="M29.2895,-89.7702C29.2298,-78.6474 30.3965,-65.2031 35,-54 36.9867,-49.1652 39.8896,-44.5179 43.1333,-40.2616"/>
<polygon fill="black" stroke="black" points="45.8269,-42.4969 49.6398,-32.612 40.4948,-37.9616 45.8269,-42.4969"/>
<text text-anchor="middle" x="39.5" y="-58.9" font-family="Times Roman,serif" font-size="14.00">b</text>
</g>
<!-- q3&#45;&gt;q0 -->
<g id="edge24" class="edge"><title>q3&#45;&gt;q0</title>
<path fill="none" stroke="black" d="M38.942,-90.6699C43.9893,-77.1144 50.5667,-59.4494 55.9727,-44.9305"/>
<polygon fill="black" stroke="black" points="59.2855,-46.0635 59.495,-35.4707 52.7255,-43.6209 59.2855,-46.0635"/>
<text text-anchor="middle" x="55.5" y="-58.9" font-family="Times Roman,serif" font-size="14.00">a</text>
</g>
<!-- q7 -->
<g id="node10" class="node"><title>q7</title>
<ellipse fill="none" stroke="black" cx="147" cy="-386" rx="27" ry="18"/>
<text text-anchor="middle" x="147" y="-381.9" font-family="Times Roman,serif" font-size="14.00">q7</text>
</g>
<!-- q7&#45;&gt;q4 -->
<g id="edge10" class="edge"><title>q7&#45;&gt;q4</title>
<path fill="none" stroke="black" d="M147,-367.787C147,-355.344 147,-338.605 147,-324.421"/>
<polygon fill="black" stroke="black" points="150.5,-324.186 147,-314.186 143.5,-324.186 150.5,-324.186"/>
<text text-anchor="middle" x="151.5" y="-336.9" font-family="Times Roman,serif" font-size="14.00">b</text>
</g>
<!-- q7&#45;&gt;q7 -->
<g id="edge12" class="edge"><title>q7&#45;&gt;q7</title>
<path fill="none" stroke="black" d="M171.532,-394.121C182.508,-394.895 192,-392.188 192,-386 192,-381.843 187.715,-379.257 181.574,-378.242"/>
<polygon fill="black" stroke="black" points="181.652,-374.742 171.532,-377.879 181.4,-381.738 181.652,-374.742"/>
<text text-anchor="middle" x="196.5" y="-381.9" font-family="Times Roman,serif" font-size="14.00">a</text>
</g>
<!-- q0&#45;&gt;q3 -->
<g id="edge26" class="edge"><title>q0&#45;&gt;q3</title>
<path fill="none" stroke="black" d="M43.7945,-28.2659C33.6599,-34.2254 22.6731,-42.7923 17,-54 12.6712,-62.5518 13.3008,-72.499 15.8698,-81.7156"/>
<polygon fill="black" stroke="black" points="12.6372,-83.0721 19.2758,-91.3292 19.2353,-80.7344 12.6372,-83.0721"/>
<text text-anchor="middle" x="21.5" y="-58.9" font-family="Times Roman,serif" font-size="14.00">b</text>
</g>
<!-- q0&#45;&gt;q0 -->
<g id="edge28" class="edge"><title>q0&#45;&gt;q0</title>
<path fill="none" stroke="black" d="M90.5325,-26.1211C101.508,-26.8945 111,-24.1875 111,-18 111,-13.8428 106.715,-11.2567 100.574,-10.2417"/>
<polygon fill="black" stroke="black" points="100.652,-6.74237 90.5325,-9.87891 100.4,-13.7378 100.652,-6.74237"/>
<text text-anchor="middle" x="115.5" y="-13.9" font-family="Times Roman,serif" font-size="14.00">a</text>
</g>
</g>
</svg>
