<?xml version="1.0" encoding="UTF-8" standalone="no"?>
<!DOCTYPE svg PUBLIC "-//W3C//DTD SVG 1.1//EN"
 "http://www.w3.org/Graphics/SVG/1.1/DTD/svg11.dtd">
<!-- Generated by graphviz version 2.26.3 (20100126.1600)
 -->
<!-- Title: G Pages: 1 -->
<svg width="171pt" height="322pt"
 viewBox="0.00 0.00 171.00 322.00" xmlns="http://www.w3.org/2000/svg" xmlns:xlink="http://www.w3.org/1999/xlink">
<g id="graph1" class="graph" transform="scale(1 1) rotate(0) translate(4 318)">
<title>G</title>
<polygon fill="white" stroke="white" points="-4,5 -4,-318 168,-318 168,5 -4,5"/>
<!-- q5 -->
<g id="node1" class="node"><title>q5</title>
<ellipse fill="none" stroke="black" cx="27" cy="-295" rx="27" ry="18.3848"/>
<text text-anchor="middle" x="27" y="-291.4" font-family="Times Roman,serif" font-size="14.00">q5</text>
</g>
<!-- q5&#45;&gt;q5 -->
<g id="edge4" class="edge"><title>q5&#45;&gt;q5</title>
<path fill="none" stroke="black" d="M51.0743,-303.454C62.2423,-304.377 72,-301.559 72,-295 72,-290.593 67.5952,-287.875 61.3174,-286.846"/>
<polygon fill="black" stroke="black" points="61.1726,-283.34 51.0743,-286.546 60.9674,-290.337 61.1726,-283.34"/>
<text text-anchor="middle" x="76.5" y="-291.4" font-family="Times Roman,serif" font-size="14.00">a</text>
</g>
<!-- q0 -->
<g id="node3" class="node"><title>q0</title>
<ellipse fill="none" stroke="black" cx="132" cy="-203" rx="27" ry="18.3848"/>
<text text-anchor="middle" x="132" y="-199.4" font-family="Times Roman,serif" font-size="14.00">q0</text>
</g>
<!-- q5&#45;&gt;q0 -->
<g id="edge2" class="edge"><title>q5&#45;&gt;q0</title>
<path fill="none" stroke="black" d="M43.8701,-280.219C61.0915,-265.129 87.9976,-241.555 107.552,-224.421"/>
<polygon fill="black" stroke="black" points="109.957,-226.967 115.172,-217.745 105.344,-221.702 109.957,-226.967"/>
<text text-anchor="middle" x="92.5" y="-245.4" font-family="Times Roman,serif" font-size="14.00">b</text>
</g>
<!-- q1 -->
<g id="node8" class="node"><title>q1</title>
<ellipse fill="none" stroke="black" cx="104" cy="-111" rx="27" ry="18.3848"/>
<text text-anchor="middle" x="104" y="-107.4" font-family="Times Roman,serif" font-size="14.00">q1</text>
</g>
<!-- q0&#45;&gt;q1 -->
<g id="edge22" class="edge"><title>q0&#45;&gt;q1</title>
<path fill="none" stroke="black" d="M129.388,-184.391C127.6,-173.605 124.85,-159.855 121,-148 119.919,-144.672 118.621,-141.247 117.229,-137.888"/>
<polygon fill="black" stroke="black" points="120.42,-136.45 113.164,-128.729 114.022,-139.289 120.42,-136.45"/>
<text text-anchor="middle" x="129.5" y="-153.4" font-family="Times Roman,serif" font-size="14.00">b</text>
</g>
<!-- q0&#45;&gt;q1 -->
<g id="edge24" class="edge"><title>q0&#45;&gt;q1</title>
<path fill="none" stroke="black" d="M121.121,-185.878C117.709,-179.807 114.251,-172.793 112,-166 109.238,-157.665 107.429,-148.306 106.244,-139.704"/>
<polygon fill="black" stroke="black" points="109.713,-139.238 105.086,-129.707 102.76,-140.043 109.713,-139.238"/>
<text text-anchor="middle" x="116.5" y="-153.4" font-family="Times Roman,serif" font-size="14.00">a</text>
</g>
<!-- q2 -->
<g id="node5" class="node"><title>q2</title>
<ellipse fill="none" stroke="black" cx="29" cy="-19" rx="27" ry="18.3848"/>
<text text-anchor="middle" x="29" y="-15.4" font-family="Times Roman,serif" font-size="14.00">q2</text>
</g>
<!-- q2&#45;&gt;q5 -->
<g id="edge6" class="edge"><title>q2&#45;&gt;q5</title>
<path fill="none" stroke="black" d="M28.8636,-37.8205C28.5199,-85.2508 27.6166,-209.914 27.2071,-266.424"/>
<polygon fill="black" stroke="black" points="23.707,-266.437 27.1343,-276.462 30.7068,-266.488 23.707,-266.437"/>
<text text-anchor="middle" x="33.5" y="-153.4" font-family="Times Roman,serif" font-size="14.00">b</text>
</g>
<!-- q2&#45;&gt;q2 -->
<g id="edge8" class="edge"><title>q2&#45;&gt;q2</title>
<path fill="none" stroke="black" d="M53.0743,-27.4544C64.2423,-28.3767 74,-25.5586 74,-19 74,-14.5934 69.5952,-11.8754 63.3174,-10.8458"/>
<polygon fill="black" stroke="black" points="63.1726,-7.34018 53.0743,-10.5456 62.9674,-14.3372 63.1726,-7.34018"/>
<text text-anchor="middle" x="78.5" y="-15.4" font-family="Times Roman,serif" font-size="14.00">a</text>
</g>
<!-- q1&#45;&gt;q2 -->
<g id="edge12" class="edge"><title>q1&#45;&gt;q2</title>
<path fill="none" stroke="black" d="M90.5915,-94.5522C78.9664,-80.2922 61.9848,-59.4613 48.7954,-43.2824"/>
<polygon fill="black" stroke="black" points="51.3238,-40.8447 42.2924,-35.3054 45.8983,-45.2677 51.3238,-40.8447"/>
<text text-anchor="middle" x="77.5" y="-61.4" font-family="Times Roman,serif" font-size="14.00">a</text>
</g>
<!-- q3 -->
<g id="node10" class="node"><title>q3</title>
<ellipse fill="none" stroke="black" cx="136" cy="-19" rx="27" ry="18.3848"/>
<text text-anchor="middle" x="136" y="-15.4" font-family="Times Roman,serif" font-size="14.00">q3</text>
</g>
<!-- q1&#45;&gt;q3 -->
<g id="edge10" class="edge"><title>q1&#45;&gt;q3</title>
<path fill="none" stroke="black" d="M101.309,-92.3423C100.465,-81.4151 100.686,-67.5396 105,-56 106.86,-51.0254 109.699,-46.2462 112.918,-41.8706"/>
<polygon fill="black" stroke="black" points="115.744,-43.9451 119.42,-34.0083 110.35,-39.4841 115.744,-43.9451"/>
<text text-anchor="middle" x="109.5" y="-61.4" font-family="Times Roman,serif" font-size="14.00">b</text>
</g>
<!-- q3&#45;&gt;q0 -->
<g id="edge20" class="edge"><title>q3&#45;&gt;q0</title>
<path fill="none" stroke="black" d="M137.698,-37.6326C139.921,-65.6052 142.986,-120.073 138,-166 137.701,-168.756 137.335,-171.619 136.933,-174.477"/>
<polygon fill="black" stroke="black" points="133.436,-174.192 135.374,-184.608 140.355,-175.257 133.436,-174.192"/>
<text text-anchor="middle" x="144.5" y="-107.4" font-family="Times Roman,serif" font-size="14.00">a</text>
</g>
<!-- q3&#45;&gt;q1 -->
<g id="edge18" class="edge"><title>q3&#45;&gt;q1</title>
<path fill="none" stroke="black" d="M129.691,-37.1385C125.136,-50.2339 118.9,-68.1627 113.712,-83.0767"/>
<polygon fill="black" stroke="black" points="110.302,-82.2289 110.322,-92.8238 116.913,-84.5286 110.302,-82.2289"/>
<text text-anchor="middle" x="126.5" y="-61.4" font-family="Times Roman,serif" font-size="14.00">b</text>
</g>
<!-- q4 -->
<g id="node12" class="node"><title>q4</title>
<ellipse fill="none" stroke="black" cx="129" cy="-295" rx="27" ry="18.3848"/>
<text text-anchor="middle" x="129" y="-291.4" font-family="Times Roman,serif" font-size="14.00">q4</text>
</g>
<!-- q4&#45;&gt;q0 -->
<g id="edge14" class="edge"><title>q4&#45;&gt;q0</title>
<path fill="none" stroke="black" d="M129.607,-276.382C130.026,-263.538 130.591,-246.216 131.067,-231.627"/>
<polygon fill="black" stroke="black" points="134.566,-231.699 131.394,-221.59 127.57,-231.47 134.566,-231.699"/>
<text text-anchor="middle" x="134.5" y="-245.4" font-family="Times Roman,serif" font-size="14.00">b</text>
</g>
<!-- q4&#45;&gt;q1 -->
<g id="edge16" class="edge"><title>q4&#45;&gt;q1</title>
<path fill="none" stroke="black" d="M116.068,-278.433C105.928,-264.324 92.6228,-243.048 87,-222 79.5387,-194.07 86.4254,-161.252 93.5415,-138.581"/>
<polygon fill="black" stroke="black" points="96.9159,-139.527 96.7764,-128.933 90.279,-137.302 96.9159,-139.527"/>
<text text-anchor="middle" x="91.5" y="-199.4" font-family="Times Roman,serif" font-size="14.00">a</text>
</g>
</g>
</svg>
