<?xml version="1.0" encoding="UTF-8" standalone="no"?>
<!DOCTYPE svg PUBLIC "-//W3C//DTD SVG 1.1//EN"
 "http://www.w3.org/Graphics/SVG/1.1/DTD/svg11.dtd">
<!-- Generated by graphviz version 2.26.3 (20100126.1600)
 -->
<!-- Title: G Pages: 1 -->
<svg width="199pt" height="600pt"
 viewBox="0.00 0.00 199.00 600.00" xmlns="http://www.w3.org/2000/svg" xmlns:xlink="http://www.w3.org/1999/xlink">
<g id="graph1" class="graph" transform="scale(1 1) rotate(0) translate(4 596)">
<title>G</title>
<polygon fill="white" stroke="white" points="-4,5 -4,-596 196,-596 196,5 -4,5"/>
<!-- q6 -->
<g id="node1" class="node"><title>q6</title>
<ellipse fill="none" stroke="black" cx="100" cy="-476" rx="27" ry="18"/>
<text text-anchor="middle" x="100" y="-471.9" font-family="Times Roman,serif" font-size="14.00">q6</text>
</g>
<!-- q6&#45;&gt;q6 -->
<g id="edge2" class="edge"><title>q6&#45;&gt;q6</title>
<path fill="none" stroke="black" d="M124.532,-484.121C135.508,-484.895 145,-482.188 145,-476 145,-471.843 140.715,-469.257 134.574,-468.242"/>
<polygon fill="black" stroke="black" points="134.652,-464.742 124.532,-467.879 134.4,-471.738 134.652,-464.742"/>
<text text-anchor="middle" x="149.5" y="-471.9" font-family="Times Roman,serif" font-size="14.00">b</text>
</g>
<!-- q4 -->
<g id="node4" class="node"><title>q4</title>
<ellipse fill="none" stroke="black" cx="100" cy="-386" rx="27" ry="18"/>
<text text-anchor="middle" x="100" y="-381.9" font-family="Times Roman,serif" font-size="14.00">q4</text>
</g>
<!-- q6&#45;&gt;q4 -->
<g id="edge4" class="edge"><title>q6&#45;&gt;q4</title>
<path fill="none" stroke="black" d="M100,-457.787C100,-445.344 100,-428.605 100,-414.421"/>
<polygon fill="black" stroke="black" points="103.5,-414.186 100,-404.186 96.5001,-414.186 103.5,-414.186"/>
<text text-anchor="middle" x="104.5" y="-426.9" font-family="Times Roman,serif" font-size="14.00">a</text>
</g>
<!-- q2 -->
<g id="node9" class="node"><title>q2</title>
<ellipse fill="none" stroke="black" cx="68" cy="-296" rx="27" ry="18"/>
<text text-anchor="middle" x="68" y="-291.9" font-family="Times Roman,serif" font-size="14.00">q2</text>
</g>
<!-- q4&#45;&gt;q2 -->
<g id="edge18" class="edge"><title>q4&#45;&gt;q2</title>
<path fill="none" stroke="black" d="M83.4275,-371.472C77.7494,-365.458 72.0595,-358.014 69,-350 65.943,-341.993 64.9415,-332.819 64.9174,-324.333"/>
<polygon fill="black" stroke="black" points="68.4246,-324.224 65.3285,-314.091 61.4302,-323.943 68.4246,-324.224"/>
<text text-anchor="middle" x="73.5" y="-336.9" font-family="Times Roman,serif" font-size="14.00">b</text>
</g>
<!-- q3 -->
<g id="node14" class="node"><title>q3</title>
<ellipse fill="none" stroke="black" cx="90" cy="-18" rx="27" ry="18"/>
<text text-anchor="middle" x="90" y="-13.9" font-family="Times Roman,serif" font-size="14.00">q3</text>
</g>
<!-- q4&#45;&gt;q3 -->
<g id="edge20" class="edge"><title>q4&#45;&gt;q3</title>
<path fill="none" stroke="black" d="M110.997,-369.535C121.584,-352.061 136,-323.262 136,-296 136,-296 136,-296 136,-112 136,-86.2373 121.887,-60.1752 109.296,-42.0492"/>
<polygon fill="black" stroke="black" points="112.022,-39.8471 103.305,-33.8247 106.364,-43.9685 112.022,-39.8471"/>
<text text-anchor="middle" x="140.5" y="-201.9" font-family="Times Roman,serif" font-size="14.00">a</text>
</g>
<!-- q5 -->
<g id="node5" class="node"><title>q5</title>
<ellipse fill="none" stroke="black" cx="34" cy="-206" rx="27" ry="18"/>
<text text-anchor="middle" x="34" y="-201.9" font-family="Times Roman,serif" font-size="14.00">q5</text>
</g>
<!-- q1 -->
<g id="node7" class="node"><title>q1</title>
<ellipse fill="none" stroke="black" cx="31" cy="-112" rx="27" ry="18"/>
<ellipse fill="none" stroke="black" cx="31" cy="-112" rx="31" ry="22"/>
<text text-anchor="middle" x="31" y="-107.9" font-family="Times Roman,serif" font-size="14.00">q1</text>
</g>
<!-- q5&#45;&gt;q1 -->
<g id="edge6" class="edge"><title>q5&#45;&gt;q1</title>
<path fill="none" stroke="black" d="M23.1242,-189.47C19.8398,-183.574 16.6652,-176.723 15,-170 12.7556,-160.939 14.028,-151.136 16.6354,-142.213"/>
<polygon fill="black" stroke="black" points="20.0006,-143.195 20.0301,-132.6 13.4,-140.864 20.0006,-143.195"/>
<text text-anchor="middle" x="19.5" y="-156.9" font-family="Times Roman,serif" font-size="14.00">b</text>
</g>
<!-- q5&#45;&gt;q2 -->
<g id="edge8" class="edge"><title>q5&#45;&gt;q2</title>
<path fill="none" stroke="black" d="M40.7034,-223.744C45.543,-236.555 52.1688,-254.094 57.6805,-268.684"/>
<polygon fill="black" stroke="black" points="54.4745,-270.101 61.2827,-278.219 61.0228,-267.627 54.4745,-270.101"/>
<text text-anchor="middle" x="59.5" y="-246.9" font-family="Times Roman,serif" font-size="14.00">a</text>
</g>
<!-- q1&#45;&gt;q5 -->
<g id="edge14" class="edge"><title>q1&#45;&gt;q5</title>
<path fill="none" stroke="black" d="M31.7034,-134.039C32.1201,-147.096 32.6523,-163.773 33.0995,-177.785"/>
<polygon fill="black" stroke="black" points="29.6043,-177.993 33.4216,-187.876 36.6007,-177.769 29.6043,-177.993"/>
<text text-anchor="middle" x="37.5" y="-156.9" font-family="Times Roman,serif" font-size="14.00">b</text>
</g>
<!-- q1&#45;&gt;q3 -->
<g id="edge16" class="edge"><title>q1&#45;&gt;q3</title>
<path fill="none" stroke="black" d="M27.5495,-89.9887C26.8423,-78.5366 27.7779,-64.7282 34,-54 39.3927,-44.7019 48.2578,-37.4084 57.3607,-31.8901"/>
<polygon fill="black" stroke="black" points="59.3146,-34.8114 66.423,-26.9551 55.9668,-28.6639 59.3146,-34.8114"/>
<text text-anchor="middle" x="38.5" y="-58.9" font-family="Times Roman,serif" font-size="14.00">a</text>
</g>
<!-- q2&#45;&gt;q4 -->
<g id="edge10" class="edge"><title>q2&#45;&gt;q4</title>
<path fill="none" stroke="black" d="M74.309,-313.744C78.864,-326.555 85.1001,-344.094 90.2876,-358.684"/>
<polygon fill="black" stroke="black" points="87.0299,-359.969 93.6778,-368.219 93.6254,-357.624 87.0299,-359.969"/>
<text text-anchor="middle" x="90.5" y="-336.9" font-family="Times Roman,serif" font-size="14.00">b</text>
</g>
<!-- q2&#45;&gt;q5 -->
<g id="edge12" class="edge"><title>q2&#45;&gt;q5</title>
<path fill="none" stroke="black" d="M50.7234,-282.001C44.5666,-275.952 38.3355,-268.345 35,-260 31.8191,-252.041 30.7822,-242.882 30.7638,-234.393"/>
<polygon fill="black" stroke="black" points="34.2717,-234.281 31.2005,-224.141 27.278,-233.983 34.2717,-234.281"/>
<text text-anchor="middle" x="39.5" y="-246.9" font-family="Times Roman,serif" font-size="14.00">a</text>
</g>
<!-- q3&#45;&gt;q1 -->
<g id="edge22" class="edge"><title>q3&#45;&gt;q1</title>
<path fill="none" stroke="black" d="M79.1896,-34.8206C75.3263,-40.8581 70.9522,-47.7241 67,-54 61.0176,-63.4997 54.5334,-73.9104 48.7378,-83.2573"/>
<polygon fill="black" stroke="black" points="45.7195,-81.4835 43.4312,-91.8283 51.6711,-85.1684 45.7195,-81.4835"/>
<text text-anchor="middle" x="71.5" y="-58.9" font-family="Times Roman,serif" font-size="14.00">b</text>
</g>
<!-- q3&#45;&gt;q2 -->
<g id="edge24" class="edge"><title>q3&#45;&gt;q2</title>
<path fill="none" stroke="black" d="M88.5512,-36.3075C84.8003,-83.7049 74.7512,-210.689 70.2429,-267.657"/>
<polygon fill="black" stroke="black" points="66.7434,-267.515 69.4435,-277.76 73.7216,-268.067 66.7434,-267.515"/>
<text text-anchor="middle" x="83.5" y="-156.9" font-family="Times Roman,serif" font-size="14.00">a</text>
</g>
<!-- q0 -->
<g id="node19" class="node"><title>q0</title>
<ellipse fill="none" stroke="black" cx="155" cy="-570" rx="27" ry="18"/>
<ellipse fill="none" stroke="black" cx="155" cy="-570" rx="31" ry="22"/>
<text text-anchor="middle" x="155" y="-565.9" font-family="Times Roman,serif" font-size="14.00">q0</text>
</g>
<!-- q0&#45;&gt;q6 -->
<g id="edge28" class="edge"><title>q0&#45;&gt;q6</title>
<path fill="none" stroke="black" d="M143.066,-549.603C134.85,-535.563 123.872,-516.799 115.055,-501.731"/>
<polygon fill="black" stroke="black" points="117.961,-499.766 109.889,-492.902 111.919,-503.301 117.961,-499.766"/>
<text text-anchor="middle" x="134.5" y="-516.9" font-family="Times Roman,serif" font-size="14.00">a</text>
</g>
<!-- q0&#45;&gt;q3 -->
<g id="edge26" class="edge"><title>q0&#45;&gt;q3</title>
<path fill="none" stroke="black" d="M164.748,-548.842C172.481,-530.108 182,-501.809 182,-476 182,-476 182,-476 182,-112 182,-76.4577 147.991,-49.3864 121.328,-33.624"/>
<polygon fill="black" stroke="black" points="122.702,-30.3811 112.271,-28.525 119.267,-36.4808 122.702,-30.3811"/>
<text text-anchor="middle" x="186.5" y="-291.9" font-family="Times Roman,serif" font-size="14.00">b</text>
</g>
</g>
</svg>
