<?xml version="1.0" encoding="UTF-8" standalone="no"?>
<!DOCTYPE svg PUBLIC "-//W3C//DTD SVG 1.1//EN"
 "http://www.w3.org/Graphics/SVG/1.1/DTD/svg11.dtd">
<!-- Generated by graphviz version 2.26.3 (20100126.1600)
 -->
<!-- Title: G Pages: 1 -->
<svg width="171pt" height="412pt"
 viewBox="0.00 0.00 171.00 412.00" xmlns="http://www.w3.org/2000/svg" xmlns:xlink="http://www.w3.org/1999/xlink">
<g id="graph1" class="graph" transform="scale(1 1) rotate(0) translate(4 408)">
<title>G</title>
<polygon fill="white" stroke="white" points="-4,5 -4,-408 168,-408 168,5 -4,5"/>
<!-- q6 -->
<g id="node1" class="node"><title>q6</title>
<ellipse fill="none" stroke="black" cx="117" cy="-386" rx="27" ry="18"/>
<text text-anchor="middle" x="117" y="-381.9" font-family="Times Roman,serif" font-size="14.00">q6</text>
</g>
<!-- q7 -->
<g id="node3" class="node"><title>q7</title>
<ellipse fill="none" stroke="black" cx="27" cy="-296" rx="27" ry="18"/>
<text text-anchor="middle" x="27" y="-291.9" font-family="Times Roman,serif" font-size="14.00">q7</text>
</g>
<!-- q6&#45;&gt;q7 -->
<g id="edge2" class="edge"><title>q6&#45;&gt;q7</title>
<path fill="none" stroke="black" d="M101.733,-370.733C87.2939,-356.294 65.4629,-334.463 49.1189,-318.119"/>
<polygon fill="black" stroke="black" points="51.5878,-315.638 42.0418,-311.042 46.638,-320.588 51.5878,-315.638"/>
<text text-anchor="middle" x="85.5" y="-336.9" font-family="Times Roman,serif" font-size="14.00">b</text>
</g>
<!-- q4 -->
<g id="node5" class="node"><title>q4</title>
<ellipse fill="none" stroke="black" cx="64" cy="-206" rx="27" ry="18"/>
<text text-anchor="middle" x="64" y="-201.9" font-family="Times Roman,serif" font-size="14.00">q4</text>
</g>
<!-- q6&#45;&gt;q4 -->
<g id="edge4" class="edge"><title>q6&#45;&gt;q4</title>
<path fill="none" stroke="black" d="M113.063,-367.884C108.237,-346.304 99.5201,-309.245 90,-278 85.4316,-263.007 79.5542,-246.547 74.5436,-233.154"/>
<polygon fill="black" stroke="black" points="77.7339,-231.695 70.9169,-223.585 71.1883,-234.176 77.7339,-231.695"/>
<text text-anchor="middle" x="103.5" y="-291.9" font-family="Times Roman,serif" font-size="14.00">a</text>
</g>
<!-- q7&#45;&gt;q7 -->
<g id="edge8" class="edge"><title>q7&#45;&gt;q7</title>
<path fill="none" stroke="black" d="M51.5325,-304.121C62.5078,-304.895 72,-302.188 72,-296 72,-291.843 67.7151,-289.257 61.5743,-288.242"/>
<polygon fill="black" stroke="black" points="61.6524,-284.742 51.5325,-287.879 61.3995,-291.738 61.6524,-284.742"/>
<text text-anchor="middle" x="76.5" y="-291.9" font-family="Times Roman,serif" font-size="14.00">a</text>
</g>
<!-- q7&#45;&gt;q4 -->
<g id="edge6" class="edge"><title>q7&#45;&gt;q4</title>
<path fill="none" stroke="black" d="M34.31,-278.219C39.6146,-265.316 46.8853,-247.63 52.9039,-232.99"/>
<polygon fill="black" stroke="black" points="56.2658,-234.018 56.8311,-223.438 49.7916,-231.356 56.2658,-234.018"/>
<text text-anchor="middle" x="53.5" y="-246.9" font-family="Times Roman,serif" font-size="14.00">b</text>
</g>
<!-- q4&#45;&gt;q4 -->
<g id="edge12" class="edge"><title>q4&#45;&gt;q4</title>
<path fill="none" stroke="black" d="M88.5325,-214.121C99.5078,-214.895 109,-212.188 109,-206 109,-201.843 104.715,-199.257 98.5743,-198.242"/>
<polygon fill="black" stroke="black" points="98.6524,-194.742 88.5325,-197.879 98.3995,-201.738 98.6524,-194.742"/>
<text text-anchor="middle" x="113.5" y="-201.9" font-family="Times Roman,serif" font-size="14.00">a</text>
</g>
<!-- q3 -->
<g id="node9" class="node"><title>q3</title>
<ellipse fill="none" stroke="black" cx="73" cy="-112" rx="27" ry="18"/>
<ellipse fill="none" stroke="black" cx="73" cy="-112" rx="31" ry="22"/>
<text text-anchor="middle" x="73" y="-107.9" font-family="Times Roman,serif" font-size="14.00">q3</text>
</g>
<!-- q4&#45;&gt;q3 -->
<g id="edge10" class="edge"><title>q4&#45;&gt;q3</title>
<path fill="none" stroke="black" d="M65.7353,-187.876C66.9191,-175.512 68.5196,-158.795 69.9171,-144.199"/>
<polygon fill="black" stroke="black" points="73.4208,-144.327 70.8899,-134.039 66.4527,-143.66 73.4208,-144.327"/>
<text text-anchor="middle" x="74.5" y="-156.9" font-family="Times Roman,serif" font-size="14.00">b</text>
</g>
<!-- q0 -->
<g id="node12" class="node"><title>q0</title>
<ellipse fill="none" stroke="black" cx="107" cy="-18" rx="27" ry="18"/>
<text text-anchor="middle" x="107" y="-13.9" font-family="Times Roman,serif" font-size="14.00">q0</text>
</g>
<!-- q3&#45;&gt;q0 -->
<g id="edge14" class="edge"><title>q3&#45;&gt;q0</title>
<path fill="none" stroke="black" d="M61.8949,-91.3399C57.3035,-79.8915 54.2442,-65.6589 60,-54 63.7111,-46.4829 69.8283,-40.1015 76.4418,-34.8951"/>
<polygon fill="black" stroke="black" points="78.7649,-37.5406 84.9405,-28.9317 74.7442,-31.8105 78.7649,-37.5406"/>
<text text-anchor="middle" x="64.5" y="-58.9" font-family="Times Roman,serif" font-size="14.00">b</text>
</g>
<!-- q3&#45;&gt;q0 -->
<g id="edge16" class="edge"><title>q3&#45;&gt;q0</title>
<path fill="none" stroke="black" d="M79.6406,-90.3766C83.1207,-79.4084 87.5722,-65.9193 92,-54 93.0964,-51.0486 94.2894,-47.9817 95.5077,-44.9385"/>
<polygon fill="black" stroke="black" points="98.8354,-46.0488 99.3986,-35.4689 92.3606,-43.3884 98.8354,-46.0488"/>
<text text-anchor="middle" x="96.5" y="-58.9" font-family="Times Roman,serif" font-size="14.00">a</text>
</g>
<!-- q0&#45;&gt;q6 -->
<g id="edge20" class="edge"><title>q0&#45;&gt;q6</title>
<path fill="none" stroke="black" d="M120.594,-33.7765C134.475,-51.5474 154,-81.8946 154,-112 154,-296 154,-296 154,-296 154,-319.092 143.452,-343.182 133.619,-360.622"/>
<polygon fill="black" stroke="black" points="130.398,-359.192 128.302,-369.578 136.417,-362.766 130.398,-359.192"/>
<text text-anchor="middle" x="158.5" y="-201.9" font-family="Times Roman,serif" font-size="14.00">a</text>
</g>
<!-- q0&#45;&gt;q3 -->
<g id="edge18" class="edge"><title>q0&#45;&gt;q3</title>
<path fill="none" stroke="black" d="M107.215,-36.029C106.807,-46.7807 105.328,-60.5266 101,-72 99.3742,-76.3102 97.1769,-80.5929 94.724,-84.6657"/>
<polygon fill="black" stroke="black" points="91.6887,-82.9095 89.0686,-93.1753 97.5186,-86.7841 91.6887,-82.9095"/>
<text text-anchor="middle" x="109.5" y="-58.9" font-family="Times Roman,serif" font-size="14.00">b</text>
</g>
</g>
</svg>
