<?xml version="1.0" encoding="UTF-8" standalone="no"?>
<!DOCTYPE svg PUBLIC "-//W3C//DTD SVG 1.1//EN"
 "http://www.w3.org/Graphics/SVG/1.1/DTD/svg11.dtd">
<!-- Generated by graphviz version 2.26.3 (20100126.1600)
 -->
<!-- Title: G Pages: 1 -->
<svg width="215pt" height="146pt"
 viewBox="0.00 0.00 215.00 146.00" xmlns="http://www.w3.org/2000/svg" xmlns:xlink="http://www.w3.org/1999/xlink">
<g id="graph1" class="graph" transform="scale(1 1) rotate(0) translate(4 142)">
<title>G</title>
<polygon fill="white" stroke="white" points="-4,5 -4,-142 212,-142 212,5 -4,5"/>
<!-- q2 -->
<g id="node1" class="node"><title>q2</title>
<ellipse fill="none" stroke="black" cx="27" cy="-19" rx="27" ry="18.3848"/>
<text text-anchor="middle" x="27" y="-15.4" font-family="Times Roman,serif" font-size="14.00">q2</text>
</g>
<!-- q2&#45;&gt;q2 -->
<g id="edge2" class="edge"><title>q2&#45;&gt;q2</title>
<path fill="none" stroke="black" d="M53.3466,-23.2957C63.5332,-23.4866 72,-22.0547 72,-19 72,-17.0431 68.5252,-15.7522 63.3495,-15.1273"/>
<polygon fill="black" stroke="black" points="63.4855,-11.63 53.3466,-14.7043 63.1898,-18.6237 63.4855,-11.63"/>
<text text-anchor="middle" x="76.5" y="-15.4" font-family="Times Roman,serif" font-size="14.00">b</text>
</g>
<!-- q2&#45;&gt;q2 -->
<g id="edge4" class="edge"><title>q2&#45;&gt;q2</title>
<path fill="none" stroke="black" d="M45.7031,-32.3594C66.375,-41.2656 90,-36.8125 90,-19 90,-3.9707 73.181,1.54787 55.508,-2.44429"/>
<polygon fill="black" stroke="black" points="54.1259,0.786507 45.7031,-5.64062 56.2955,-5.86879 54.1259,0.786507"/>
<text text-anchor="middle" x="94.5" y="-15.4" font-family="Times Roman,serif" font-size="14.00">a</text>
</g>
<!-- q1 -->
<g id="node4" class="node"><title>q1</title>
<ellipse fill="none" stroke="black" cx="121" cy="-115" rx="27" ry="18.3848"/>
<ellipse fill="none" stroke="black" cx="121" cy="-115" rx="31" ry="22.3848"/>
<text text-anchor="middle" x="121" y="-111.4" font-family="Times Roman,serif" font-size="14.00">q1</text>
</g>
<!-- q1&#45;&gt;q2 -->
<g id="edge6" class="edge"><title>q1&#45;&gt;q2</title>
<path fill="none" stroke="black" d="M102.876,-96.4902C87.6085,-80.8981 65.7041,-58.5276 49.3515,-41.8271"/>
<polygon fill="black" stroke="black" points="51.7697,-39.294 42.2726,-34.5976 46.7681,-44.1914 51.7697,-39.294"/>
<text text-anchor="middle" x="84.5" y="-61.4" font-family="Times Roman,serif" font-size="14.00">b</text>
</g>
<!-- q0 -->
<g id="node7" class="node"><title>q0</title>
<ellipse fill="none" stroke="black" cx="153" cy="-19" rx="27" ry="18.3848"/>
<text text-anchor="middle" x="153" y="-15.4" font-family="Times Roman,serif" font-size="14.00">q0</text>
</g>
<!-- q1&#45;&gt;q0 -->
<g id="edge8" class="edge"><title>q1&#45;&gt;q0</title>
<path fill="none" stroke="black" d="M117.908,-92.4897C117.214,-81.2013 117.702,-67.5176 122,-56 123.857,-51.0242 126.694,-46.2445 129.913,-41.8686"/>
<polygon fill="black" stroke="black" points="132.739,-43.9432 136.414,-34.0063 127.344,-39.4822 132.739,-43.9432"/>
<text text-anchor="middle" x="126.5" y="-61.4" font-family="Times Roman,serif" font-size="14.00">a</text>
</g>
<!-- q0&#45;&gt;q1 -->
<g id="edge10" class="edge"><title>q0&#45;&gt;q1</title>
<path fill="none" stroke="black" d="M146.906,-37.2828C142.592,-50.2242 136.694,-67.9169 131.616,-83.1522"/>
<polygon fill="black" stroke="black" points="128.264,-82.1407 128.422,-92.7344 134.905,-84.3544 128.264,-82.1407"/>
<text text-anchor="middle" x="143.5" y="-61.4" font-family="Times Roman,serif" font-size="14.00">b</text>
</g>
<!-- q0&#45;&gt;q0 -->
<g id="edge12" class="edge"><title>q0&#45;&gt;q0</title>
<path fill="none" stroke="black" d="M177.074,-27.4544C188.242,-28.3767 198,-25.5586 198,-19 198,-14.5934 193.595,-11.8754 187.317,-10.8458"/>
<polygon fill="black" stroke="black" points="187.173,-7.34018 177.074,-10.5456 186.967,-14.3372 187.173,-7.34018"/>
<text text-anchor="middle" x="202.5" y="-15.4" font-family="Times Roman,serif" font-size="14.00">a</text>
</g>
</g>
</svg>
