<?xml version="1.0" encoding="UTF-8" standalone="no"?>
<!DOCTYPE svg PUBLIC "-//W3C//DTD SVG 1.1//EN"
 "http://www.w3.org/Graphics/SVG/1.1/DTD/svg11.dtd">
<!-- Generated by graphviz version 2.26.3 (20100126.1600)
 -->
<!-- Title: G Pages: 1 -->
<svg width="112pt" height="322pt"
 viewBox="0.00 0.00 111.61 322.00" xmlns="http://www.w3.org/2000/svg" xmlns:xlink="http://www.w3.org/1999/xlink">
<g id="graph1" class="graph" transform="scale(1 1) rotate(0) translate(4 318)">
<title>G</title>
<polygon fill="white" stroke="white" points="-4,5 -4,-318 108.61,-318 108.61,5 -4,5"/>
<!-- q2 -->
<g id="node1" class="node"><title>q2</title>
<ellipse fill="none" stroke="black" cx="49.6096" cy="-296" rx="27" ry="18"/>
<text text-anchor="middle" x="49.6096" y="-291.9" font-family="Times Roman,serif" font-size="14.00">q2</text>
</g>
<!-- q2&#45;&gt;q2 -->
<g id="edge4" class="edge"><title>q2&#45;&gt;q2</title>
<path fill="none" stroke="black" d="M74.1421,-304.121C85.1174,-304.895 94.6096,-302.188 94.6096,-296 94.6096,-291.843 90.3247,-289.257 84.1839,-288.242"/>
<polygon fill="black" stroke="black" points="84.262,-284.742 74.1421,-287.879 84.0091,-291.738 84.262,-284.742"/>
<text text-anchor="middle" x="99.1096" y="-291.9" font-family="Times Roman,serif" font-size="14.00">a</text>
</g>
<!-- q3 -->
<g id="node3" class="node"><title>q3</title>
<ellipse fill="none" stroke="black" cx="49.6096" cy="-206" rx="27" ry="18"/>
<text text-anchor="middle" x="49.6096" y="-201.9" font-family="Times Roman,serif" font-size="14.00">q3</text>
</g>
<!-- q2&#45;&gt;q3 -->
<g id="edge2" class="edge"><title>q2&#45;&gt;q3</title>
<path fill="none" stroke="black" d="M49.6096,-277.787C49.6096,-265.344 49.6096,-248.605 49.6096,-234.421"/>
<polygon fill="black" stroke="black" points="53.1097,-234.186 49.6096,-224.186 46.1097,-234.186 53.1097,-234.186"/>
<text text-anchor="middle" x="54.1096" y="-246.9" font-family="Times Roman,serif" font-size="14.00">b</text>
</g>
<!-- q3&#45;&gt;q3 -->
<g id="edge10" class="edge"><title>q3&#45;&gt;q3</title>
<path fill="none" stroke="black" d="M74.1421,-214.121C85.1174,-214.895 94.6096,-212.188 94.6096,-206 94.6096,-201.843 90.3247,-199.257 84.1839,-198.242"/>
<polygon fill="black" stroke="black" points="84.262,-194.742 74.1421,-197.879 84.0091,-201.738 84.262,-194.742"/>
<text text-anchor="middle" x="99.1096" y="-201.9" font-family="Times Roman,serif" font-size="14.00">b</text>
</g>
<!-- q4 -->
<g id="node5" class="node"><title>q4</title>
<ellipse fill="none" stroke="black" cx="49.6096" cy="-116" rx="27" ry="18"/>
<text text-anchor="middle" x="49.6096" y="-111.9" font-family="Times Roman,serif" font-size="14.00">q4</text>
</g>
<!-- q3&#45;&gt;q4 -->
<g id="edge12" class="edge"><title>q3&#45;&gt;q4</title>
<path fill="none" stroke="black" d="M49.6096,-187.787C49.6096,-175.344 49.6096,-158.605 49.6096,-144.421"/>
<polygon fill="black" stroke="black" points="53.1097,-144.186 49.6096,-134.186 46.1097,-144.186 53.1097,-144.186"/>
<text text-anchor="middle" x="54.1096" y="-156.9" font-family="Times Roman,serif" font-size="14.00">a</text>
</g>
<!-- q0 -->
<g id="node7" class="node"><title>q0</title>
<ellipse fill="none" stroke="black" cx="49.6096" cy="-22" rx="27" ry="18"/>
<ellipse fill="none" stroke="black" cx="49.6096" cy="-22" rx="31" ry="22"/>
<text text-anchor="middle" x="49.6096" y="-17.9" font-family="Times Roman,serif" font-size="14.00">q0</text>
</g>
<!-- q4&#45;&gt;q0 -->
<g id="edge6" class="edge"><title>q4&#45;&gt;q0</title>
<path fill="none" stroke="black" d="M27.5501,-105.068C18.0325,-99.0849 7.88755,-90.691 2.60961,-80 -0.931796,-72.8265 -0.746015,-69.2622 2.60961,-62 6.0225,-54.6138 11.5462,-48.09 17.6281,-42.5668"/>
<polygon fill="black" stroke="black" points="19.9894,-45.1571 25.5135,-36.1164 15.5572,-39.739 19.9894,-45.1571"/>
<text text-anchor="middle" x="7.10961" y="-66.9" font-family="Times Roman,serif" font-size="14.00">b</text>
</g>
<!-- q4&#45;&gt;q0 -->
<g id="edge8" class="edge"><title>q4&#45;&gt;q0</title>
<path fill="none" stroke="black" d="M40.8496,-98.8599C38.3124,-93.0297 35.8844,-86.3738 34.6096,-80 32.8016,-70.9598 34.044,-61.2263 36.4411,-52.3634"/>
<polygon fill="black" stroke="black" points="39.7836,-53.4023 39.5372,-42.8103 33.1246,-51.2441 39.7836,-53.4023"/>
<text text-anchor="middle" x="39.1096" y="-66.9" font-family="Times Roman,serif" font-size="14.00">a</text>
</g>
<!-- q0&#45;&gt;q4 -->
<g id="edge14" class="edge"><title>q0&#45;&gt;q4</title>
<path fill="none" stroke="black" d="M49.6096,-44.0388C49.6096,-57.0958 49.6096,-73.7734 49.6096,-87.785"/>
<polygon fill="black" stroke="black" points="46.1097,-87.8758 49.6096,-97.8759 53.1097,-87.8759 46.1097,-87.8758"/>
<text text-anchor="middle" x="54.1096" y="-66.9" font-family="Times Roman,serif" font-size="14.00">b</text>
</g>
<!-- q0&#45;&gt;q4 -->
<g id="edge16" class="edge"><title>q0&#45;&gt;q4</title>
<path fill="none" stroke="black" d="M58.4382,-43.1155C61.9758,-54.0706 64.7623,-67.7006 62.6096,-80 62.1048,-82.8841 61.3887,-85.8419 60.5489,-88.7626"/>
<polygon fill="black" stroke="black" points="57.1822,-87.7949 57.3448,-98.3885 63.824,-90.0057 57.1822,-87.7949"/>
<text text-anchor="middle" x="67.1096" y="-66.9" font-family="Times Roman,serif" font-size="14.00">a</text>
</g>
</g>
</svg>
