<?xml version="1.0" encoding="UTF-8" standalone="no"?>
<!DOCTYPE svg PUBLIC "-//W3C//DTD SVG 1.1//EN"
 "http://www.w3.org/Graphics/SVG/1.1/DTD/svg11.dtd">
<!-- Generated by graphviz version 2.26.3 (20100126.1600)
 -->
<!-- Title: G Pages: 1 -->
<svg width="240pt" height="690pt"
 viewBox="0.00 0.00 240.00 690.00" xmlns="http://www.w3.org/2000/svg" xmlns:xlink="http://www.w3.org/1999/xlink">
<g id="graph1" class="graph" transform="scale(1 1) rotate(0) translate(4 686)">
<title>G</title>
<polygon fill="white" stroke="white" points="-4,5 -4,-686 237,-686 237,5 -4,5"/>
<!-- q6 -->
<g id="node1" class="node"><title>q6</title>
<ellipse fill="none" stroke="black" cx="55" cy="-479" rx="27" ry="18.3848"/>
<text text-anchor="middle" x="55" y="-475.4" font-family="Times Roman,serif" font-size="14.00">q6</text>
</g>
<!-- q0 -->
<g id="node3" class="node"><title>q0</title>
<ellipse fill="none" stroke="black" cx="116" cy="-19" rx="27" ry="18.3848"/>
<text text-anchor="middle" x="116" y="-15.4" font-family="Times Roman,serif" font-size="14.00">q0</text>
</g>
<!-- q6&#45;&gt;q0 -->
<g id="edge2" class="edge"><title>q6&#45;&gt;q0</title>
<path fill="none" stroke="black" d="M39.0917,-464.029C22.8481,-447.048 0,-417.705 0,-387 0,-387 0,-387 0,-111 0,-69.0069 47.2432,-43.143 81.4306,-29.9243"/>
<polygon fill="black" stroke="black" points="82.9296,-33.1027 91.1151,-26.3761 80.5214,-26.53 82.9296,-33.1027"/>
<text text-anchor="middle" x="4.5" y="-245.4" font-family="Times Roman,serif" font-size="14.00">b</text>
</g>
<!-- q7 -->
<g id="node5" class="node"><title>q7</title>
<ellipse fill="none" stroke="black" cx="93" cy="-387" rx="27" ry="18.3848"/>
<text text-anchor="middle" x="93" y="-383.4" font-family="Times Roman,serif" font-size="14.00">q7</text>
</g>
<!-- q6&#45;&gt;q7 -->
<g id="edge4" class="edge"><title>q6&#45;&gt;q7</title>
<path fill="none" stroke="black" d="M62.5076,-460.824C68.0079,-447.507 75.5665,-429.207 81.782,-414.159"/>
<polygon fill="black" stroke="black" points="85.0546,-415.404 85.6373,-404.825 78.5847,-412.732 85.0546,-415.404"/>
<text text-anchor="middle" x="81.5" y="-429.4" font-family="Times Roman,serif" font-size="14.00">a</text>
</g>
<!-- q0&#45;&gt;q0 -->
<g id="edge30" class="edge"><title>q0&#45;&gt;q0</title>
<path fill="none" stroke="black" d="M142.347,-23.2957C152.533,-23.4866 161,-22.0547 161,-19 161,-17.0431 157.525,-15.7522 152.35,-15.1273"/>
<polygon fill="black" stroke="black" points="152.486,-11.63 142.347,-14.7043 152.19,-18.6237 152.486,-11.63"/>
<text text-anchor="middle" x="165.5" y="-15.4" font-family="Times Roman,serif" font-size="14.00">b</text>
</g>
<!-- q0&#45;&gt;q0 -->
<g id="edge32" class="edge"><title>q0&#45;&gt;q0</title>
<path fill="none" stroke="black" d="M134.703,-32.3594C155.375,-41.2656 179,-36.8125 179,-19 179,-3.9707 162.181,1.54787 144.508,-2.44429"/>
<polygon fill="black" stroke="black" points="143.126,0.786507 134.703,-5.64062 145.296,-5.86879 143.126,0.786507"/>
<text text-anchor="middle" x="183.5" y="-15.4" font-family="Times Roman,serif" font-size="14.00">a</text>
</g>
<!-- q5 -->
<g id="node6" class="node"><title>q5</title>
<ellipse fill="none" stroke="black" cx="205" cy="-295" rx="27" ry="18.3848"/>
<text text-anchor="middle" x="205" y="-291.4" font-family="Times Roman,serif" font-size="14.00">q5</text>
</g>
<!-- q7&#45;&gt;q5 -->
<g id="edge10" class="edge"><title>q7&#45;&gt;q5</title>
<path fill="none" stroke="black" d="M110.5,-372.625C129.075,-357.367 158.604,-333.111 179.709,-315.775"/>
<polygon fill="black" stroke="black" points="182.117,-318.326 187.623,-309.274 177.674,-312.917 182.117,-318.326"/>
<text text-anchor="middle" x="163.5" y="-337.4" font-family="Times Roman,serif" font-size="14.00">b</text>
</g>
<!-- q2 -->
<g id="node8" class="node"><title>q2</title>
<ellipse fill="none" stroke="black" cx="116" cy="-203" rx="27" ry="18.3848"/>
<text text-anchor="middle" x="116" y="-199.4" font-family="Times Roman,serif" font-size="14.00">q2</text>
</g>
<!-- q7&#45;&gt;q2 -->
<g id="edge12" class="edge"><title>q7&#45;&gt;q2</title>
<path fill="none" stroke="black" d="M95.3319,-368.345C99.3614,-336.109 107.652,-269.782 112.418,-231.658"/>
<polygon fill="black" stroke="black" points="115.894,-232.062 113.662,-221.705 108.948,-231.193 115.894,-232.062"/>
<text text-anchor="middle" x="110.5" y="-291.4" font-family="Times Roman,serif" font-size="14.00">a</text>
</g>
<!-- q5&#45;&gt;q0 -->
<g id="edge8" class="edge"><title>q5&#45;&gt;q0</title>
<path fill="none" stroke="black" d="M206.095,-276.409C207.538,-239.503 207.16,-155.11 179,-92 170.194,-72.2644 154.249,-53.8698 140.604,-40.4824"/>
<polygon fill="black" stroke="black" points="142.987,-37.919 133.32,-33.5833 138.174,-43.0011 142.987,-37.919"/>
<text text-anchor="middle" x="203.5" y="-153.4" font-family="Times Roman,serif" font-size="14.00">a</text>
</g>
<!-- q5&#45;&gt;q2 -->
<g id="edge6" class="edge"><title>q5&#45;&gt;q2</title>
<path fill="none" stroke="black" d="M192.753,-278.441C184.1,-267.155 171.958,-252.12 160,-240 154.506,-234.432 148.252,-228.805 142.218,-223.677"/>
<polygon fill="black" stroke="black" points="144.152,-220.734 134.219,-217.047 139.685,-226.123 144.152,-220.734"/>
<text text-anchor="middle" x="179.5" y="-245.4" font-family="Times Roman,serif" font-size="14.00">b</text>
</g>
<!-- q2&#45;&gt;q6 -->
<g id="edge16" class="edge"><title>q2&#45;&gt;q6</title>
<path fill="none" stroke="black" d="M107.46,-220.778C93.7074,-250.457 67.17,-312.336 57,-368 51.9689,-395.537 52.0026,-427.555 52.9736,-450.107"/>
<polygon fill="black" stroke="black" points="49.492,-450.552 53.5075,-460.356 56.4825,-450.188 49.492,-450.552"/>
<text text-anchor="middle" x="70.5" y="-337.4" font-family="Times Roman,serif" font-size="14.00">a</text>
</g>
<!-- q3 -->
<g id="node13" class="node"><title>q3</title>
<ellipse fill="none" stroke="black" cx="116" cy="-111" rx="27" ry="18.3848"/>
<text text-anchor="middle" x="116" y="-107.4" font-family="Times Roman,serif" font-size="14.00">q3</text>
</g>
<!-- q2&#45;&gt;q3 -->
<g id="edge14" class="edge"><title>q2&#45;&gt;q3</title>
<path fill="none" stroke="black" d="M116,-184.382C116,-171.538 116,-154.216 116,-139.627"/>
<polygon fill="black" stroke="black" points="119.5,-139.59 116,-129.59 112.5,-139.59 119.5,-139.59"/>
<text text-anchor="middle" x="120.5" y="-153.4" font-family="Times Roman,serif" font-size="14.00">b</text>
</g>
<!-- q3&#45;&gt;q0 -->
<g id="edge26" class="edge"><title>q3&#45;&gt;q0</title>
<path fill="none" stroke="black" d="M116,-92.3824C116,-79.5383 116,-62.2161 116,-47.6269"/>
<polygon fill="black" stroke="black" points="119.5,-47.5898 116,-37.5899 112.5,-47.5899 119.5,-47.5898"/>
<text text-anchor="middle" x="120.5" y="-61.4" font-family="Times Roman,serif" font-size="14.00">b</text>
</g>
<!-- q3&#45;&gt;q3 -->
<g id="edge28" class="edge"><title>q3&#45;&gt;q3</title>
<path fill="none" stroke="black" d="M140.074,-119.454C151.242,-120.377 161,-117.559 161,-111 161,-106.593 156.595,-103.875 150.317,-102.846"/>
<polygon fill="black" stroke="black" points="150.173,-99.3402 140.074,-102.546 149.967,-106.337 150.173,-99.3402"/>
<text text-anchor="middle" x="165.5" y="-107.4" font-family="Times Roman,serif" font-size="14.00">a</text>
</g>
<!-- q1 -->
<g id="node15" class="node"><title>q1</title>
<ellipse fill="none" stroke="black" cx="186" cy="-663" rx="27" ry="18.3848"/>
<text text-anchor="middle" x="186" y="-659.4" font-family="Times Roman,serif" font-size="14.00">q1</text>
</g>
<!-- q1&#45;&gt;q5 -->
<g id="edge20" class="edge"><title>q1&#45;&gt;q5</title>
<path fill="none" stroke="black" d="M192.328,-644.924C198.188,-626.552 206,-597.152 206,-571 206,-571 206,-571 206,-387 206,-365.869 205.733,-342.009 205.475,-323.883"/>
<polygon fill="black" stroke="black" points="208.971,-323.623 205.322,-313.677 201.972,-323.728 208.971,-323.623"/>
<text text-anchor="middle" x="210.5" y="-475.4" font-family="Times Roman,serif" font-size="14.00">a</text>
</g>
<!-- q4 -->
<g id="node17" class="node"><title>q4</title>
<ellipse fill="none" stroke="black" cx="151" cy="-571" rx="27" ry="18.3848"/>
<text text-anchor="middle" x="151" y="-567.4" font-family="Times Roman,serif" font-size="14.00">q4</text>
</g>
<!-- q1&#45;&gt;q4 -->
<g id="edge18" class="edge"><title>q1&#45;&gt;q4</title>
<path fill="none" stroke="black" d="M179.085,-644.824C174.1,-631.719 167.278,-613.789 161.607,-598.88"/>
<polygon fill="black" stroke="black" points="164.728,-597.24 157.901,-589.138 158.185,-599.729 164.728,-597.24"/>
<text text-anchor="middle" x="175.5" y="-613.4" font-family="Times Roman,serif" font-size="14.00">b</text>
</g>
<!-- q4&#45;&gt;q6 -->
<g id="edge24" class="edge"><title>q4&#45;&gt;q6</title>
<path fill="none" stroke="black" d="M135.148,-555.808C119.723,-541.026 96.1007,-518.388 78.4922,-501.513"/>
<polygon fill="black" stroke="black" points="80.5176,-498.607 70.876,-494.214 75.6742,-503.661 80.5176,-498.607"/>
<text text-anchor="middle" x="115.5" y="-521.4" font-family="Times Roman,serif" font-size="14.00">a</text>
</g>
<!-- q4&#45;&gt;q2 -->
<g id="edge22" class="edge"><title>q4&#45;&gt;q2</title>
<path fill="none" stroke="black" d="M150.335,-552.238C148.353,-501.61 141.5,-358.058 124,-240 123.575,-237.135 123.06,-234.161 122.497,-231.199"/>
<polygon fill="black" stroke="black" points="125.915,-230.443 120.468,-221.356 119.06,-231.857 125.915,-230.443"/>
<text text-anchor="middle" x="145.5" y="-383.4" font-family="Times Roman,serif" font-size="14.00">b</text>
</g>
</g>
</svg>
