<?xml version="1.0" encoding="UTF-8" standalone="no"?>
<!DOCTYPE svg PUBLIC "-//W3C//DTD SVG 1.1//EN"
 "http://www.w3.org/Graphics/SVG/1.1/DTD/svg11.dtd">
<!-- Generated by graphviz version 2.26.3 (20100126.1600)
 -->
<!-- Title: G Pages: 1 -->
<svg width="188pt" height="420pt"
 viewBox="0.00 0.00 188.00 420.00" xmlns="http://www.w3.org/2000/svg" xmlns:xlink="http://www.w3.org/1999/xlink">
<g id="graph1" class="graph" transform="scale(1 1) rotate(0) translate(4 416)">
<title>G</title>
<polygon fill="white" stroke="white" points="-4,5 -4,-416 185,-416 185,5 -4,5"/>
<!-- q6 -->
<g id="node1" class="node"><title>q6</title>
<ellipse fill="none" stroke="black" cx="43" cy="-394" rx="27" ry="18"/>
<text text-anchor="middle" x="43" y="-389.9" font-family="Times Roman,serif" font-size="14.00">q6</text>
</g>
<!-- q6&#45;&gt;q6 -->
<g id="edge2" class="edge"><title>q6&#45;&gt;q6</title>
<path fill="none" stroke="black" d="M67.5325,-402.121C78.5078,-402.895 88,-400.188 88,-394 88,-389.843 83.7151,-387.257 77.5743,-386.242"/>
<polygon fill="black" stroke="black" points="77.6524,-382.742 67.5325,-385.879 77.3995,-389.738 77.6524,-382.742"/>
<text text-anchor="middle" x="92.5" y="-389.9" font-family="Times Roman,serif" font-size="14.00">b</text>
</g>
<!-- q4 -->
<g id="node4" class="node"><title>q4</title>
<ellipse fill="none" stroke="black" cx="43" cy="-304" rx="27" ry="18"/>
<text text-anchor="middle" x="43" y="-299.9" font-family="Times Roman,serif" font-size="14.00">q4</text>
</g>
<!-- q6&#45;&gt;q4 -->
<g id="edge4" class="edge"><title>q6&#45;&gt;q4</title>
<path fill="none" stroke="black" d="M43,-375.787C43,-363.344 43,-346.605 43,-332.421"/>
<polygon fill="black" stroke="black" points="46.5001,-332.186 43,-322.186 39.5001,-332.186 46.5001,-332.186"/>
<text text-anchor="middle" x="47.5" y="-344.9" font-family="Times Roman,serif" font-size="14.00">a</text>
</g>
<!-- q2 -->
<g id="node5" class="node"><title>q2</title>
<ellipse fill="none" stroke="black" cx="27" cy="-18" rx="27" ry="18"/>
<text text-anchor="middle" x="27" y="-13.9" font-family="Times Roman,serif" font-size="14.00">q2</text>
</g>
<!-- q4&#45;&gt;q2 -->
<g id="edge14" class="edge"><title>q4&#45;&gt;q2</title>
<path fill="none" stroke="black" d="M38.7402,-286.11C37.4444,-280.347 36.0791,-273.921 35,-268 27.1109,-224.715 24.119,-213.887 21,-170 19.1708,-144.262 20.6925,-143.398 25,-54 25.1169,-51.5733 25.2444,-49.0549 25.3765,-46.5285"/>
<polygon fill="black" stroke="black" points="28.8838,-46.4863 25.9305,-36.3114 21.8941,-46.1072 28.8838,-46.4863"/>
<text text-anchor="middle" x="25.5" y="-156.9" font-family="Times Roman,serif" font-size="14.00">b</text>
</g>
<!-- q0 -->
<g id="node14" class="node"><title>q0</title>
<ellipse fill="none" stroke="black" cx="92" cy="-210" rx="27" ry="18"/>
<ellipse fill="none" stroke="black" cx="92" cy="-210" rx="31" ry="22"/>
<text text-anchor="middle" x="92" y="-205.9" font-family="Times Roman,serif" font-size="14.00">q0</text>
</g>
<!-- q4&#45;&gt;q0 -->
<g id="edge16" class="edge"><title>q4&#45;&gt;q0</title>
<path fill="none" stroke="black" d="M47.3908,-285.868C50.4008,-275.08 54.948,-261.332 61,-250 63.3592,-245.583 66.2047,-241.149 69.2029,-236.926"/>
<polygon fill="black" stroke="black" points="72.2367,-238.716 75.4649,-228.625 66.6484,-234.501 72.2367,-238.716"/>
<text text-anchor="middle" x="65.5" y="-254.9" font-family="Times Roman,serif" font-size="14.00">a</text>
</g>
<!-- q2&#45;&gt;q4 -->
<g id="edge8" class="edge"><title>q2&#45;&gt;q4</title>
<path fill="none" stroke="black" d="M28.0167,-36.173C30.7274,-84.6276 38.1435,-217.19 41.4144,-275.657"/>
<polygon fill="black" stroke="black" points="37.9216,-275.885 41.9748,-285.674 44.9107,-275.494 37.9216,-275.885"/>
<text text-anchor="middle" x="39.5" y="-156.9" font-family="Times Roman,serif" font-size="14.00">a</text>
</g>
<!-- q2&#45;&gt;q2 -->
<g id="edge6" class="edge"><title>q2&#45;&gt;q2</title>
<path fill="none" stroke="black" d="M51.5325,-26.1211C62.5078,-26.8945 72,-24.1875 72,-18 72,-13.8428 67.7151,-11.2567 61.5743,-10.2417"/>
<polygon fill="black" stroke="black" points="61.6524,-6.74237 51.5325,-9.87891 61.3995,-13.7378 61.6524,-6.74237"/>
<text text-anchor="middle" x="76.5" y="-13.9" font-family="Times Roman,serif" font-size="14.00">b</text>
</g>
<!-- q1 -->
<g id="node8" class="node"><title>q1</title>
<ellipse fill="none" stroke="black" cx="86" cy="-112" rx="27" ry="18"/>
<ellipse fill="none" stroke="black" cx="86" cy="-112" rx="31" ry="22"/>
<text text-anchor="middle" x="86" y="-107.9" font-family="Times Roman,serif" font-size="14.00">q1</text>
</g>
<!-- q1&#45;&gt;q2 -->
<g id="edge10" class="edge"><title>q1&#45;&gt;q2</title>
<path fill="none" stroke="black" d="M73.1979,-91.6034C64.3851,-77.5626 52.6078,-58.7988 43.1503,-43.731"/>
<polygon fill="black" stroke="black" points="45.8894,-41.5112 37.6087,-34.902 39.9605,-45.2325 45.8894,-41.5112"/>
<text text-anchor="middle" x="64.5" y="-58.9" font-family="Times Roman,serif" font-size="14.00">b</text>
</g>
<!-- q3 -->
<g id="node11" class="node"><title>q3</title>
<ellipse fill="none" stroke="black" cx="153" cy="-18" rx="27" ry="18"/>
<text text-anchor="middle" x="153" y="-13.9" font-family="Times Roman,serif" font-size="14.00">q3</text>
</g>
<!-- q1&#45;&gt;q3 -->
<g id="edge12" class="edge"><title>q1&#45;&gt;q3</title>
<path fill="none" stroke="black" d="M100.209,-92.065C110.42,-77.7389 124.259,-58.3237 135.205,-42.9656"/>
<polygon fill="black" stroke="black" points="138.313,-44.6356 141.267,-34.4609 132.613,-40.5727 138.313,-44.6356"/>
<text text-anchor="middle" x="129.5" y="-58.9" font-family="Times Roman,serif" font-size="14.00">a</text>
</g>
<!-- q3&#45;&gt;q0 -->
<g id="edge18" class="edge"><title>q3&#45;&gt;q0</title>
<path fill="none" stroke="black" d="M149.924,-35.9828C145.73,-59.0413 137.411,-100.097 126,-134 120.755,-149.583 113.458,-166.323 106.969,-180.115"/>
<polygon fill="black" stroke="black" points="103.808,-178.612 102.64,-189.142 110.12,-181.638 103.808,-178.612"/>
<text text-anchor="middle" x="142.5" y="-107.9" font-family="Times Roman,serif" font-size="14.00">b</text>
</g>
<!-- q3&#45;&gt;q0 -->
<g id="edge20" class="edge"><title>q3&#45;&gt;q0</title>
<path fill="none" stroke="black" d="M155.981,-35.8944C156.808,-41.6572 157.591,-48.0827 158,-54 160.461,-89.6065 162.582,-100.24 151,-134 144.43,-153.151 130.855,-171.205 118.381,-184.907"/>
<polygon fill="black" stroke="black" points="115.57,-182.784 111.225,-192.447 120.647,-187.603 115.57,-182.784"/>
<text text-anchor="middle" x="163.5" y="-107.9" font-family="Times Roman,serif" font-size="14.00">a</text>
</g>
<!-- q0&#45;&gt;q4 -->
<g id="edge24" class="edge"><title>q0&#45;&gt;q4</title>
<path fill="none" stroke="black" d="M85.4333,-231.576C81.6272,-242.777 76.3339,-256.489 70,-268 67.7791,-272.036 65.1488,-276.123 62.4154,-280.023"/>
<polygon fill="black" stroke="black" points="59.5214,-278.05 56.3862,-288.171 65.1482,-282.214 59.5214,-278.05"/>
<text text-anchor="middle" x="82.5" y="-254.9" font-family="Times Roman,serif" font-size="14.00">a</text>
</g>
<!-- q0&#45;&gt;q1 -->
<g id="edge22" class="edge"><title>q0&#45;&gt;q1</title>
<path fill="none" stroke="black" d="M90.6385,-187.762C89.856,-174.982 88.859,-158.697 87.99,-144.504"/>
<polygon fill="black" stroke="black" points="91.4608,-143.917 87.3561,-134.15 84.4738,-144.345 91.4608,-143.917"/>
<text text-anchor="middle" x="93.5" y="-156.9" font-family="Times Roman,serif" font-size="14.00">b</text>
</g>
</g>
</svg>
