<?xml version="1.0" encoding="UTF-8" standalone="no"?>
<!DOCTYPE svg PUBLIC "-//W3C//DTD SVG 1.1//EN"
 "http://www.w3.org/Graphics/SVG/1.1/DTD/svg11.dtd">
<!-- Generated by graphviz version 2.26.3 (20100126.1600)
 -->
<!-- Title: G Pages: 1 -->
<svg width="316pt" height="598pt"
 viewBox="0.00 0.00 316.00 598.00" xmlns="http://www.w3.org/2000/svg" xmlns:xlink="http://www.w3.org/1999/xlink">
<g id="graph1" class="graph" transform="scale(1 1) rotate(0) translate(4 594)">
<title>G</title>
<polygon fill="white" stroke="white" points="-4,5 -4,-594 313,-594 313,5 -4,5"/>
<!-- q6 -->
<g id="node1" class="node"><title>q6</title>
<ellipse fill="none" stroke="black" cx="103" cy="-387" rx="27" ry="18.3848"/>
<text text-anchor="middle" x="103" y="-383.4" font-family="Times Roman,serif" font-size="14.00">q6</text>
</g>
<!-- q0 -->
<g id="node3" class="node"><title>q0</title>
<ellipse fill="none" stroke="black" cx="30" cy="-203" rx="27" ry="18.3848"/>
<text text-anchor="middle" x="30" y="-199.4" font-family="Times Roman,serif" font-size="14.00">q0</text>
</g>
<!-- q6&#45;&gt;q0 -->
<g id="edge2" class="edge"><title>q6&#45;&gt;q0</title>
<path fill="none" stroke="black" d="M85.5463,-372.674C78.8624,-366.358 71.718,-358.452 67,-350 46.0015,-312.384 36.7288,-262.767 32.772,-231.879"/>
<polygon fill="black" stroke="black" points="36.2289,-231.307 31.5836,-221.784 29.2769,-232.125 36.2289,-231.307"/>
<text text-anchor="middle" x="55.5" y="-291.4" font-family="Times Roman,serif" font-size="14.00">b</text>
</g>
<!-- q7 -->
<g id="node5" class="node"><title>q7</title>
<ellipse fill="none" stroke="black" cx="136" cy="-295" rx="27" ry="18.3848"/>
<text text-anchor="middle" x="136" y="-291.4" font-family="Times Roman,serif" font-size="14.00">q7</text>
</g>
<!-- q6&#45;&gt;q7 -->
<g id="edge4" class="edge"><title>q6&#45;&gt;q7</title>
<path fill="none" stroke="black" d="M109.52,-368.824C114.22,-355.719 120.652,-337.789 125.999,-322.88"/>
<polygon fill="black" stroke="black" points="129.412,-323.733 129.494,-313.138 122.823,-321.37 129.412,-323.733"/>
<text text-anchor="middle" x="126.5" y="-337.4" font-family="Times Roman,serif" font-size="14.00">a</text>
</g>
<!-- q2 -->
<g id="node8" class="node"><title>q2</title>
<ellipse fill="none" stroke="black" cx="86" cy="-111" rx="27" ry="18.3848"/>
<text text-anchor="middle" x="86" y="-107.4" font-family="Times Roman,serif" font-size="14.00">q2</text>
</g>
<!-- q0&#45;&gt;q2 -->
<g id="edge30" class="edge"><title>q0&#45;&gt;q2</title>
<path fill="none" stroke="black" d="M40.3342,-185.618C46.8042,-174.775 55.3385,-160.544 63,-148 65.2176,-144.369 67.5711,-140.548 69.8937,-136.794"/>
<polygon fill="black" stroke="black" points="72.877,-138.625 75.1786,-128.283 66.9301,-134.932 72.877,-138.625"/>
<text text-anchor="middle" x="67.5" y="-153.4" font-family="Times Roman,serif" font-size="14.00">b</text>
</g>
<!-- q0&#45;&gt;q2 -->
<g id="edge32" class="edge"><title>q0&#45;&gt;q2</title>
<path fill="none" stroke="black" d="M30.1752,-184.282C31.0339,-173.073 33.5002,-158.927 40,-148 44.2736,-140.816 50.4935,-134.454 56.9855,-129.119"/>
<polygon fill="black" stroke="black" points="59.3354,-131.731 65.2284,-122.927 55.1309,-126.134 59.3354,-131.731"/>
<text text-anchor="middle" x="44.5" y="-153.4" font-family="Times Roman,serif" font-size="14.00">a</text>
</g>
<!-- q5 -->
<g id="node6" class="node"><title>q5</title>
<ellipse fill="none" stroke="black" cx="254" cy="-203" rx="27" ry="18.3848"/>
<text text-anchor="middle" x="254" y="-199.4" font-family="Times Roman,serif" font-size="14.00">q5</text>
</g>
<!-- q7&#45;&gt;q5 -->
<g id="edge10" class="edge"><title>q7&#45;&gt;q5</title>
<path fill="none" stroke="black" d="M153.922,-281.027C173.588,-265.694 205.343,-240.936 227.802,-223.426"/>
<polygon fill="black" stroke="black" points="230.175,-226.013 235.91,-217.104 225.871,-220.493 230.175,-226.013"/>
<text text-anchor="middle" x="209.5" y="-245.4" font-family="Times Roman,serif" font-size="14.00">b</text>
</g>
<!-- q7&#45;&gt;q2 -->
<g id="edge12" class="edge"><title>q7&#45;&gt;q2</title>
<path fill="none" stroke="black" d="M132.171,-276.237C126.256,-248.098 114.097,-193.42 100,-148 99.0228,-144.851 97.9198,-141.583 96.7726,-138.35"/>
<polygon fill="black" stroke="black" points="100.034,-137.077 93.2799,-128.914 93.4688,-139.507 100.034,-137.077"/>
<text text-anchor="middle" x="123.5" y="-199.4" font-family="Times Roman,serif" font-size="14.00">a</text>
</g>
<!-- q5&#45;&gt;q5 -->
<g id="edge8" class="edge"><title>q5&#45;&gt;q5</title>
<path fill="none" stroke="black" d="M278.074,-211.454C289.242,-212.377 299,-209.559 299,-203 299,-198.593 294.595,-195.875 288.317,-194.846"/>
<polygon fill="black" stroke="black" points="288.173,-191.34 278.074,-194.546 287.967,-198.337 288.173,-191.34"/>
<text text-anchor="middle" x="303.5" y="-199.4" font-family="Times Roman,serif" font-size="14.00">a</text>
</g>
<!-- q5&#45;&gt;q2 -->
<g id="edge6" class="edge"><title>q5&#45;&gt;q2</title>
<path fill="none" stroke="black" d="M244.963,-185.473C237.831,-173.289 226.794,-157.577 213,-148 186.187,-129.385 149.999,-120.035 123.112,-115.4"/>
<polygon fill="black" stroke="black" points="123.363,-111.897 112.94,-113.793 122.271,-118.811 123.363,-111.897"/>
<text text-anchor="middle" x="234.5" y="-153.4" font-family="Times Roman,serif" font-size="14.00">b</text>
</g>
<!-- q2&#45;&gt;q6 -->
<g id="edge16" class="edge"><title>q2&#45;&gt;q6</title>
<path fill="none" stroke="black" d="M87.1592,-129.82C90.0807,-177.251 97.7592,-301.914 101.24,-358.424"/>
<polygon fill="black" stroke="black" points="97.7499,-358.696 101.858,-368.462 104.737,-358.266 97.7499,-358.696"/>
<text text-anchor="middle" x="98.5" y="-245.4" font-family="Times Roman,serif" font-size="14.00">a</text>
</g>
<!-- q3 -->
<g id="node13" class="node"><title>q3</title>
<ellipse fill="none" stroke="black" cx="27" cy="-19" rx="27" ry="18.3848"/>
<text text-anchor="middle" x="27" y="-15.4" font-family="Times Roman,serif" font-size="14.00">q3</text>
</g>
<!-- q2&#45;&gt;q3 -->
<g id="edge14" class="edge"><title>q2&#45;&gt;q3</title>
<path fill="none" stroke="black" d="M74.9026,-93.6955C66.0849,-79.9459 53.6149,-60.5012 43.6084,-44.8979"/>
<polygon fill="black" stroke="black" points="46.3923,-42.7552 38.0477,-36.2269 40.4998,-46.5341 46.3923,-42.7552"/>
<text text-anchor="middle" x="65.5" y="-61.4" font-family="Times Roman,serif" font-size="14.00">b</text>
</g>
<!-- q3&#45;&gt;q0 -->
<g id="edge26" class="edge"><title>q3&#45;&gt;q0</title>
<path fill="none" stroke="black" d="M27.305,-37.7049C27.8289,-69.8374 28.9033,-135.739 29.5257,-173.91"/>
<polygon fill="black" stroke="black" points="26.0332,-174.403 29.6958,-184.345 33.0323,-174.289 26.0332,-174.403"/>
<text text-anchor="middle" x="33.5" y="-107.4" font-family="Times Roman,serif" font-size="14.00">b</text>
</g>
<!-- q3&#45;&gt;q3 -->
<g id="edge28" class="edge"><title>q3&#45;&gt;q3</title>
<path fill="none" stroke="black" d="M51.0743,-27.4544C62.2423,-28.3767 72,-25.5586 72,-19 72,-14.5934 67.5952,-11.8754 61.3174,-10.8458"/>
<polygon fill="black" stroke="black" points="61.1726,-7.34018 51.0743,-10.5456 60.9674,-14.3372 61.1726,-7.34018"/>
<text text-anchor="middle" x="76.5" y="-15.4" font-family="Times Roman,serif" font-size="14.00">a</text>
</g>
<!-- q1 -->
<g id="node15" class="node"><title>q1</title>
<ellipse fill="none" stroke="black" cx="234" cy="-571" rx="27" ry="18.3848"/>
<text text-anchor="middle" x="234" y="-567.4" font-family="Times Roman,serif" font-size="14.00">q1</text>
</g>
<!-- q1&#45;&gt;q5 -->
<g id="edge20" class="edge"><title>q1&#45;&gt;q5</title>
<path fill="none" stroke="black" d="M240.328,-552.924C246.188,-534.552 254,-505.152 254,-479 254,-479 254,-479 254,-295 254,-273.87 254,-250.01 254,-231.884"/>
<polygon fill="black" stroke="black" points="257.5,-231.678 254,-221.678 250.5,-231.678 257.5,-231.678"/>
<text text-anchor="middle" x="258.5" y="-383.4" font-family="Times Roman,serif" font-size="14.00">a</text>
</g>
<!-- q4 -->
<g id="node17" class="node"><title>q4</title>
<ellipse fill="none" stroke="black" cx="199" cy="-479" rx="27" ry="18.3848"/>
<text text-anchor="middle" x="199" y="-475.4" font-family="Times Roman,serif" font-size="14.00">q4</text>
</g>
<!-- q1&#45;&gt;q4 -->
<g id="edge18" class="edge"><title>q1&#45;&gt;q4</title>
<path fill="none" stroke="black" d="M227.085,-552.824C222.1,-539.719 215.278,-521.789 209.607,-506.88"/>
<polygon fill="black" stroke="black" points="212.728,-505.24 205.901,-497.138 206.185,-507.729 212.728,-505.24"/>
<text text-anchor="middle" x="223.5" y="-521.4" font-family="Times Roman,serif" font-size="14.00">b</text>
</g>
<!-- q4&#45;&gt;q6 -->
<g id="edge24" class="edge"><title>q4&#45;&gt;q6</title>
<path fill="none" stroke="black" d="M183.148,-463.808C167.723,-449.026 144.101,-426.388 126.492,-409.513"/>
<polygon fill="black" stroke="black" points="128.518,-406.607 118.876,-402.214 123.674,-411.661 128.518,-406.607"/>
<text text-anchor="middle" x="163.5" y="-429.4" font-family="Times Roman,serif" font-size="14.00">a</text>
</g>
<!-- q4&#45;&gt;q2 -->
<g id="edge22" class="edge"><title>q4&#45;&gt;q2</title>
<path fill="none" stroke="black" d="M199,-460.322C199,-441.735 199,-412.396 199,-387 199,-387 199,-387 199,-203 199,-161.9 153.49,-135.914 120.233,-122.411"/>
<polygon fill="black" stroke="black" points="121.388,-119.105 110.798,-118.774 118.871,-125.636 121.388,-119.105"/>
<text text-anchor="middle" x="203.5" y="-291.4" font-family="Times Roman,serif" font-size="14.00">b</text>
</g>
</g>
</svg>
