<?xml version="1.0" encoding="UTF-8" standalone="no"?>
<!DOCTYPE svg PUBLIC "-//W3C//DTD SVG 1.1//EN"
 "http://www.w3.org/Graphics/SVG/1.1/DTD/svg11.dtd">
<!-- Generated by graphviz version 2.26.3 (20100126.1600)
 -->
<!-- Title: G Pages: 1 -->
<svg width="196pt" height="322pt"
 viewBox="0.00 0.00 196.00 322.00" xmlns="http://www.w3.org/2000/svg" xmlns:xlink="http://www.w3.org/1999/xlink">
<g id="graph1" class="graph" transform="scale(1 1) rotate(0) translate(4 318)">
<title>G</title>
<polygon fill="white" stroke="white" points="-4,5 -4,-318 193,-318 193,5 -4,5"/>
<!-- q2 -->
<g id="node1" class="node"><title>q2</title>
<ellipse fill="none" stroke="black" cx="121" cy="-296" rx="27" ry="18"/>
<text text-anchor="middle" x="121" y="-291.9" font-family="Times Roman,serif" font-size="14.00">q2</text>
</g>
<!-- q3 -->
<g id="node3" class="node"><title>q3</title>
<ellipse fill="none" stroke="black" cx="66" cy="-206" rx="27" ry="18"/>
<text text-anchor="middle" x="66" y="-201.9" font-family="Times Roman,serif" font-size="14.00">q3</text>
</g>
<!-- q2&#45;&gt;q3 -->
<g id="edge2" class="edge"><title>q2&#45;&gt;q3</title>
<path fill="none" stroke="black" d="M110.655,-279.072C102.512,-265.747 91.0275,-246.954 81.7446,-231.764"/>
<polygon fill="black" stroke="black" points="84.4997,-229.56 76.2987,-222.852 78.5267,-233.21 84.4997,-229.56"/>
<text text-anchor="middle" x="102.5" y="-246.9" font-family="Times Roman,serif" font-size="14.00">b</text>
</g>
<!-- q0 -->
<g id="node5" class="node"><title>q0</title>
<ellipse fill="none" stroke="black" cx="130" cy="-22" rx="27" ry="18"/>
<ellipse fill="none" stroke="black" cx="130" cy="-22" rx="31" ry="22"/>
<text text-anchor="middle" x="130" y="-17.9" font-family="Times Roman,serif" font-size="14.00">q0</text>
</g>
<!-- q2&#45;&gt;q0 -->
<g id="edge4" class="edge"><title>q2&#45;&gt;q0</title>
<path fill="none" stroke="black" d="M123.535,-277.995C125.453,-263.458 127.932,-242.457 129,-224 132.461,-164.188 131.748,-94.2478 130.891,-54.3334"/>
<polygon fill="black" stroke="black" points="134.385,-54.0591 130.654,-44.143 127.387,-54.2215 134.385,-54.0591"/>
<text text-anchor="middle" x="135.5" y="-156.9" font-family="Times Roman,serif" font-size="14.00">a</text>
</g>
<!-- q3&#45;&gt;q3 -->
<g id="edge14" class="edge"><title>q3&#45;&gt;q3</title>
<path fill="none" stroke="black" d="M90.5325,-214.121C101.508,-214.895 111,-212.188 111,-206 111,-201.843 106.715,-199.257 100.574,-198.242"/>
<polygon fill="black" stroke="black" points="100.652,-194.742 90.5325,-197.879 100.4,-201.738 100.652,-194.742"/>
<text text-anchor="middle" x="115.5" y="-201.9" font-family="Times Roman,serif" font-size="14.00">b</text>
</g>
<!-- q4 -->
<g id="node9" class="node"><title>q4</title>
<ellipse fill="none" stroke="black" cx="87" cy="-116" rx="27" ry="18"/>
<text text-anchor="middle" x="87" y="-111.9" font-family="Times Roman,serif" font-size="14.00">q4</text>
</g>
<!-- q3&#45;&gt;q4 -->
<g id="edge16" class="edge"><title>q3&#45;&gt;q4</title>
<path fill="none" stroke="black" d="M70.2497,-187.787C73.2008,-175.14 77.1875,-158.053 80.5312,-143.723"/>
<polygon fill="black" stroke="black" points="83.9644,-144.412 82.8283,-133.879 77.1475,-142.822 83.9644,-144.412"/>
<text text-anchor="middle" x="82.5" y="-156.9" font-family="Times Roman,serif" font-size="14.00">a</text>
</g>
<!-- q0&#45;&gt;q0 -->
<g id="edge18" class="edge"><title>q0&#45;&gt;q0</title>
<path fill="none" stroke="black" d="M158.689,-30.9648C169.781,-31.3633 179,-28.375 179,-22 179,-17.7168 174.838,-14.9624 168.743,-13.7368"/>
<polygon fill="black" stroke="black" points="168.908,-10.2399 158.689,-13.0352 168.421,-17.223 168.908,-10.2399"/>
<text text-anchor="middle" x="183.5" y="-17.9" font-family="Times Roman,serif" font-size="14.00">b</text>
</g>
<!-- q0&#45;&gt;q4 -->
<g id="edge20" class="edge"><title>q0&#45;&gt;q4</title>
<path fill="none" stroke="black" d="M120.357,-43.0808C114.058,-56.8505 105.783,-74.9388 99.0516,-89.6547"/>
<polygon fill="black" stroke="black" points="95.864,-88.2093 94.8869,-98.759 102.23,-91.1212 95.864,-88.2093"/>
<text text-anchor="middle" x="115.5" y="-66.9" font-family="Times Roman,serif" font-size="14.00">a</text>
</g>
<!-- q1 -->
<g id="node6" class="node"><title>q1</title>
<ellipse fill="none" stroke="black" cx="27" cy="-22" rx="27" ry="18"/>
<text text-anchor="middle" x="27" y="-17.9" font-family="Times Roman,serif" font-size="14.00">q1</text>
</g>
<!-- q1&#45;&gt;q3 -->
<g id="edge6" class="edge"><title>q1&#45;&gt;q3</title>
<path fill="none" stroke="black" d="M28.3611,-40.0334C30.284,-62.3241 34.4356,-101.317 42,-134 45.504,-149.139 50.8732,-165.611 55.6453,-178.974"/>
<polygon fill="black" stroke="black" points="52.413,-180.325 59.1374,-188.513 58.9864,-177.919 52.413,-180.325"/>
<text text-anchor="middle" x="46.5" y="-111.9" font-family="Times Roman,serif" font-size="14.00">b</text>
</g>
<!-- q1&#45;&gt;q1 -->
<g id="edge8" class="edge"><title>q1&#45;&gt;q1</title>
<path fill="none" stroke="black" d="M50.6146,-30.7803C61.9731,-31.8643 72,-28.9375 72,-22 72,-17.3389 67.4737,-14.4882 61.0584,-13.4481"/>
<polygon fill="black" stroke="black" points="60.6888,-9.93931 50.6146,-13.2197 60.5356,-16.9376 60.6888,-9.93931"/>
<text text-anchor="middle" x="76.5" y="-17.9" font-family="Times Roman,serif" font-size="14.00">a</text>
</g>
<!-- q4&#45;&gt;q0 -->
<g id="edge10" class="edge"><title>q4&#45;&gt;q0</title>
<path fill="none" stroke="black" d="M86.2264,-97.7386C86.4366,-86.9045 87.9042,-73.1536 93,-62 95.5184,-56.4879 99.0933,-51.2296 103.038,-46.4433"/>
<polygon fill="black" stroke="black" points="105.78,-48.6308 109.906,-38.8725 100.595,-43.9278 105.78,-48.6308"/>
<text text-anchor="middle" x="97.5" y="-66.9" font-family="Times Roman,serif" font-size="14.00">b</text>
</g>
<!-- q4&#45;&gt;q1 -->
<g id="edge12" class="edge"><title>q4&#45;&gt;q1</title>
<path fill="none" stroke="black" d="M76.2732,-99.1947C67.0585,-84.7583 53.6367,-63.7309 43.1275,-47.2665"/>
<polygon fill="black" stroke="black" points="45.9646,-45.2059 37.6339,-38.6598 40.0641,-48.9722 45.9646,-45.2059"/>
<text text-anchor="middle" x="66.5" y="-66.9" font-family="Times Roman,serif" font-size="14.00">a</text>
</g>
</g>
</svg>
