<?xml version="1.0" encoding="UTF-8" standalone="no"?>
<!DOCTYPE svg PUBLIC "-//W3C//DTD SVG 1.1//EN"
 "http://www.w3.org/Graphics/SVG/1.1/DTD/svg11.dtd">
<!-- Generated by graphviz version 2.26.3 (20100126.1600)
 -->
<!-- Title: G Pages: 1 -->
<svg width="156pt" height="322pt"
 viewBox="0.00 0.00 156.00 322.00" xmlns="http://www.w3.org/2000/svg" xmlns:xlink="http://www.w3.org/1999/xlink">
<g id="graph1" class="graph" transform="scale(1 1) rotate(0) translate(4 318)">
<title>G</title>
<polygon fill="white" stroke="white" points="-4,5 -4,-318 153,-318 153,5 -4,5"/>
<!-- q1 -->
<g id="node1" class="node"><title>q1</title>
<ellipse fill="none" stroke="black" cx="117" cy="-292" rx="27" ry="18"/>
<ellipse fill="none" stroke="black" cx="117" cy="-292" rx="31" ry="22"/>
<text text-anchor="middle" x="117" y="-287.9" font-family="Times Roman,serif" font-size="14.00">q1</text>
</g>
<!-- q0 -->
<g id="node3" class="node"><title>q0</title>
<ellipse fill="none" stroke="darkred" cx="27" cy="-198" rx="27" ry="18"/>
<text text-anchor="middle" x="27" y="-193.9" font-family="Times Roman,serif" font-size="14.00">q0</text>
</g>
<!-- q1&#45;&gt;q0 -->
<g id="edge2" class="edge"><title>q1&#45;&gt;q0</title>
<path fill="none" stroke="black" d="M99.2189,-273.429C84.779,-258.347 64.3496,-237.01 48.9022,-220.876"/>
<polygon fill="black" stroke="black" points="51.211,-218.226 41.7672,-213.424 46.1548,-223.067 51.211,-218.226"/>
<text text-anchor="middle" x="81.5" y="-238.9" font-family="Times Roman,serif" font-size="14.00">b</text>
</g>
<!-- q3 -->
<g id="node5" class="node"><title>q3</title>
<ellipse fill="none" stroke="black" cx="92" cy="-108" rx="27" ry="18"/>
<text text-anchor="middle" x="92" y="-103.9" font-family="Times Roman,serif" font-size="14.00">q3</text>
</g>
<!-- q1&#45;&gt;q3 -->
<g id="edge4" class="edge"><title>q1&#45;&gt;q3</title>
<path fill="none" stroke="black" d="M113.984,-269.805C109.434,-236.312 100.815,-172.875 95.8273,-136.169"/>
<polygon fill="black" stroke="black" points="99.2785,-135.573 94.464,-126.135 92.3423,-136.515 99.2785,-135.573"/>
<text text-anchor="middle" x="110.5" y="-193.9" font-family="Times Roman,serif" font-size="14.00">a</text>
</g>
<!-- q0&#45;&gt;q0 -->
<g id="edge16" class="edge"><title>q0&#45;&gt;q0</title>
<path fill="none" stroke="black" d="M51.5325,-206.121C62.5078,-206.895 72,-204.188 72,-198 72,-193.843 67.7151,-191.257 61.5743,-190.242"/>
<polygon fill="black" stroke="black" points="61.6524,-186.742 51.5325,-189.879 61.3995,-193.738 61.6524,-186.742"/>
<text text-anchor="middle" x="76.5" y="-193.9" font-family="Times Roman,serif" font-size="14.00">a</text>
</g>
<!-- q0&#45;&gt;q3 -->
<g id="edge14" class="edge"><title>q0&#45;&gt;q3</title>
<path fill="none" stroke="black" d="M36.7943,-181.031C43.2753,-170.175 52.1773,-155.939 61,-144 64.1663,-139.715 67.7084,-135.301 71.235,-131.095"/>
<polygon fill="black" stroke="black" points="74.0269,-133.217 77.8949,-123.353 68.7202,-128.652 74.0269,-133.217"/>
<text text-anchor="middle" x="65.5" y="-148.9" font-family="Times Roman,serif" font-size="14.00">b</text>
</g>
<!-- q3&#45;&gt;q0 -->
<g id="edge10" class="edge"><title>q3&#45;&gt;q0</title>
<path fill="none" stroke="black" d="M87.1401,-125.886C83.5638,-136.973 77.9357,-151.123 70,-162 65.5813,-168.056 59.9305,-173.726 54.1886,-178.694"/>
<polygon fill="black" stroke="black" points="51.9709,-175.986 46.4094,-185.004 56.3806,-181.423 51.9709,-175.986"/>
<text text-anchor="middle" x="84.5" y="-148.9" font-family="Times Roman,serif" font-size="14.00">b</text>
</g>
<!-- q4 -->
<g id="node6" class="node"><title>q4</title>
<ellipse fill="none" stroke="black" cx="92" cy="-18" rx="27" ry="18"/>
<text text-anchor="middle" x="92" y="-13.9" font-family="Times Roman,serif" font-size="14.00">q4</text>
</g>
<!-- q3&#45;&gt;q4 -->
<g id="edge12" class="edge"><title>q3&#45;&gt;q4</title>
<path fill="none" stroke="black" d="M92,-89.7872C92,-77.3443 92,-60.6053 92,-46.4211"/>
<polygon fill="black" stroke="black" points="95.5001,-46.1857 92,-36.1858 88.5001,-46.1858 95.5001,-46.1857"/>
<text text-anchor="middle" x="96.5" y="-58.9" font-family="Times Roman,serif" font-size="14.00">a</text>
</g>
<!-- q4&#45;&gt;q1 -->
<g id="edge6" class="edge"><title>q4&#45;&gt;q1</title>
<path fill="none" stroke="black" d="M103.103,-34.5987C111.805,-48.6679 123.216,-69.7337 128,-90 141.889,-148.834 132.129,-219.867 124.242,-260.1"/>
<polygon fill="black" stroke="black" points="120.768,-259.619 122.191,-270.118 127.626,-261.023 120.768,-259.619"/>
<text text-anchor="middle" x="138.5" y="-148.9" font-family="Times Roman,serif" font-size="14.00">b</text>
</g>
<!-- q4&#45;&gt;q0 -->
<g id="edge8" class="edge"><title>q4&#45;&gt;q0</title>
<path fill="none" stroke="black" d="M79.3652,-34.2107C69.0855,-48.215 55.0133,-69.3923 47,-90 36.9038,-115.964 31.8175,-147.467 29.3111,-169.731"/>
<polygon fill="black" stroke="black" points="25.8115,-169.549 28.2772,-179.853 32.7752,-170.261 25.8115,-169.549"/>
<text text-anchor="middle" x="51.5" y="-103.9" font-family="Times Roman,serif" font-size="14.00">a</text>
</g>
</g>
</svg>
