<?xml version="1.0" encoding="UTF-8" standalone="no"?>
<!DOCTYPE svg PUBLIC "-//W3C//DTD SVG 1.1//EN"
 "http://www.w3.org/Graphics/SVG/1.1/DTD/svg11.dtd">
<!-- Generated by graphviz version 2.26.3 (20100126.1600)
 -->
<!-- Title: G Pages: 1 -->
<svg width="184pt" height="330pt"
 viewBox="0.00 0.00 183.53 330.00" xmlns="http://www.w3.org/2000/svg" xmlns:xlink="http://www.w3.org/1999/xlink">
<g id="graph1" class="graph" transform="scale(1 1) rotate(0) translate(4 326)">
<title>G</title>
<polygon fill="white" stroke="white" points="-4,5 -4,-326 180.526,-326 180.526,5 -4,5"/>
<!-- q2 -->
<g id="node1" class="node"><title>q2</title>
<ellipse fill="none" stroke="black" cx="131.526" cy="-304" rx="27" ry="18"/>
<text text-anchor="middle" x="131.526" y="-299.9" font-family="Times Roman,serif" font-size="14.00">q2</text>
</g>
<!-- q3 -->
<g id="node3" class="node"><title>q3</title>
<ellipse fill="none" stroke="black" cx="76.5259" cy="-214" rx="27" ry="18"/>
<text text-anchor="middle" x="76.5259" y="-209.9" font-family="Times Roman,serif" font-size="14.00">q3</text>
</g>
<!-- q2&#45;&gt;q3 -->
<g id="edge2" class="edge"><title>q2&#45;&gt;q3</title>
<path fill="none" stroke="black" d="M121.181,-287.072C113.038,-273.747 101.553,-254.954 92.2704,-239.764"/>
<polygon fill="black" stroke="black" points="95.0256,-237.56 86.8245,-230.852 89.0526,-241.21 95.0256,-237.56"/>
<text text-anchor="middle" x="113.026" y="-254.9" font-family="Times Roman,serif" font-size="14.00">b</text>
</g>
<!-- q1 -->
<g id="node5" class="node"><title>q1</title>
<ellipse fill="none" stroke="black" cx="121.526" cy="-22" rx="27" ry="18"/>
<text text-anchor="middle" x="121.526" y="-17.9" font-family="Times Roman,serif" font-size="14.00">q1</text>
</g>
<!-- q2&#45;&gt;q1 -->
<g id="edge4" class="edge"><title>q2&#45;&gt;q1</title>
<path fill="none" stroke="black" d="M134.086,-285.996C136.017,-271.46 138.503,-250.46 139.526,-232 143.14,-166.738 132.948,-90.3103 126.456,-50.0712"/>
<polygon fill="black" stroke="black" points="129.867,-49.2447 124.777,-39.9524 122.961,-50.3904 129.867,-49.2447"/>
<text text-anchor="middle" x="144.026" y="-164.9" font-family="Times Roman,serif" font-size="14.00">a</text>
</g>
<!-- q3&#45;&gt;q3 -->
<g id="edge14" class="edge"><title>q3&#45;&gt;q3</title>
<path fill="none" stroke="black" d="M101.058,-222.121C112.034,-222.895 121.526,-220.188 121.526,-214 121.526,-209.843 117.241,-207.257 111.1,-206.242"/>
<polygon fill="black" stroke="black" points="111.178,-202.742 101.058,-205.879 110.925,-209.738 111.178,-202.742"/>
<text text-anchor="middle" x="126.026" y="-209.9" font-family="Times Roman,serif" font-size="14.00">b</text>
</g>
<!-- q4 -->
<g id="node8" class="node"><title>q4</title>
<ellipse fill="none" stroke="black" cx="54.5259" cy="-120" rx="27" ry="18"/>
<ellipse fill="none" stroke="black" cx="54.5259" cy="-120" rx="31" ry="22"/>
<text text-anchor="middle" x="54.5259" y="-115.9" font-family="Times Roman,serif" font-size="14.00">q4</text>
</g>
<!-- q3&#45;&gt;q4 -->
<g id="edge16" class="edge"><title>q3&#45;&gt;q4</title>
<path fill="none" stroke="black" d="M72.284,-195.876C69.3904,-183.512 65.4779,-166.795 62.0619,-152.199"/>
<polygon fill="black" stroke="black" points="65.3707,-150.978 59.6839,-142.039 58.5549,-152.573 65.3707,-150.978"/>
<text text-anchor="middle" x="71.0259" y="-164.9" font-family="Times Roman,serif" font-size="14.00">a</text>
</g>
<!-- q1&#45;&gt;q3 -->
<g id="edge6" class="edge"><title>q1&#45;&gt;q3</title>
<path fill="none" stroke="black" d="M117.632,-39.9214C112.499,-63.4038 103.11,-105.849 94.5259,-142 91.0729,-156.541 87.0537,-172.686 83.6902,-185.997"/>
<polygon fill="black" stroke="black" points="80.2243,-185.425 81.1567,-195.979 87.0092,-187.148 80.2243,-185.425"/>
<text text-anchor="middle" x="109.026" y="-115.9" font-family="Times Roman,serif" font-size="14.00">b</text>
</g>
<!-- q1&#45;&gt;q1 -->
<g id="edge8" class="edge"><title>q1&#45;&gt;q1</title>
<path fill="none" stroke="black" d="M145.14,-30.7803C156.499,-31.8643 166.526,-28.9375 166.526,-22 166.526,-17.3389 162,-14.4882 155.584,-13.4481"/>
<polygon fill="black" stroke="black" points="155.215,-9.93931 145.14,-13.2197 155.061,-16.9376 155.215,-9.93931"/>
<text text-anchor="middle" x="171.026" y="-17.9" font-family="Times Roman,serif" font-size="14.00">a</text>
</g>
<!-- q4&#45;&gt;q1 -->
<g id="edge12" class="edge"><title>q4&#45;&gt;q1</title>
<path fill="none" stroke="black" d="M68.0843,-100.168C78.5375,-84.8785 93.0635,-63.6315 104.333,-47.1477"/>
<polygon fill="black" stroke="black" points="107.458,-48.7787 110.212,-38.5481 101.679,-44.828 107.458,-48.7787"/>
<text text-anchor="middle" x="98.0259" y="-66.9" font-family="Times Roman,serif" font-size="14.00">a</text>
</g>
<!-- q0 -->
<g id="node10" class="node"><title>q0</title>
<ellipse fill="none" stroke="black" cx="33.5259" cy="-22" rx="27" ry="18"/>
<ellipse fill="none" stroke="black" cx="33.5259" cy="-22" rx="31" ry="22"/>
<text text-anchor="middle" x="33.5259" y="-17.9" font-family="Times Roman,serif" font-size="14.00">q0</text>
</g>
<!-- q4&#45;&gt;q0 -->
<g id="edge10" class="edge"><title>q4&#45;&gt;q0</title>
<path fill="none" stroke="black" d="M29.0253,-107.133C18.8186,-100.531 8.16106,-91.4443 2.52585,-80 -2.75426,-69.2768 1.46815,-57.6246 8.30424,-47.5963"/>
<polygon fill="black" stroke="black" points="11.1375,-49.6544 14.5101,-39.6106 5.61024,-45.359 11.1375,-49.6544"/>
<text text-anchor="middle" x="7.02585" y="-66.9" font-family="Times Roman,serif" font-size="14.00">b</text>
</g>
<!-- q0&#45;&gt;q4 -->
<g id="edge18" class="edge"><title>q0&#45;&gt;q4</title>
<path fill="none" stroke="black" d="M31.6265,-44.053C31.2552,-55.0093 31.672,-68.3603 34.5259,-80 35.3648,-83.4216 36.5347,-86.887 37.8918,-90.273"/>
<polygon fill="black" stroke="black" points="34.7649,-91.852 42.0931,-99.5037 41.136,-88.9521 34.7649,-91.852"/>
<text text-anchor="middle" x="39.0259" y="-66.9" font-family="Times Roman,serif" font-size="14.00">b</text>
</g>
<!-- q0&#45;&gt;q4 -->
<g id="edge20" class="edge"><title>q0&#45;&gt;q4</title>
<path fill="none" stroke="black" d="M39.2556,-43.953C40.7159,-49.8017 42.236,-56.1271 43.5259,-62 45.3703,-70.3977 47.1872,-79.52 48.7964,-87.9902"/>
<polygon fill="black" stroke="black" points="45.3714,-88.7164 50.6443,-97.9059 52.253,-87.4339 45.3714,-88.7164"/>
<text text-anchor="middle" x="51.0259" y="-66.9" font-family="Times Roman,serif" font-size="14.00">a</text>
</g>
</g>
</svg>
