<?xml version="1.0" encoding="UTF-8" standalone="no"?>
<!DOCTYPE svg PUBLIC "-//W3C//DTD SVG 1.1//EN"
 "http://www.w3.org/Graphics/SVG/1.1/DTD/svg11.dtd">
<!-- Generated by graphviz version 2.26.3 (20100126.1600)
 -->
<!-- Title: G Pages: 1 -->
<svg width="235pt" height="322pt"
 viewBox="0.00 0.00 235.12 322.00" xmlns="http://www.w3.org/2000/svg" xmlns:xlink="http://www.w3.org/1999/xlink">
<g id="graph1" class="graph" transform="scale(1 1) rotate(0) translate(4 318)">
<title>G</title>
<polygon fill="white" stroke="white" points="-4,5 -4,-318 232.119,-318 232.119,5 -4,5"/>
<!-- q5 -->
<g id="node1" class="node"><title>q5</title>
<ellipse fill="none" stroke="black" cx="63.9672" cy="-295" rx="27" ry="18.3848"/>
<text text-anchor="middle" x="63.9672" y="-291.4" font-family="Times Roman,serif" font-size="14.00">q5</text>
</g>
<!-- q3 -->
<g id="node3" class="node"><title>q3</title>
<ellipse fill="none" stroke="black" cx="30.9672" cy="-19" rx="27" ry="18.3848"/>
<text text-anchor="middle" x="30.9672" y="-15.4" font-family="Times Roman,serif" font-size="14.00">q3</text>
</g>
<!-- q5&#45;&gt;q3 -->
<g id="edge2" class="edge"><title>q5&#45;&gt;q3</title>
<path fill="none" stroke="black" d="M43.2088,-283.066C34.0759,-276.763 24.0599,-268.209 17.9672,-258 -3.34211,-222.294 4.7608,-207.408 0.967204,-166 -2.90161,-123.771 10.2836,-75.8011 20.3963,-46.4711"/>
<polygon fill="black" stroke="black" points="23.7422,-47.5087 23.8121,-36.914 17.1506,-45.1526 23.7422,-47.5087"/>
<text text-anchor="middle" x="5.4672" y="-153.4" font-family="Times Roman,serif" font-size="14.00">b</text>
</g>
<!-- q2 -->
<g id="node5" class="node"><title>q2</title>
<ellipse fill="none" stroke="black" cx="105.967" cy="-203" rx="27" ry="18.3848"/>
<text text-anchor="middle" x="105.967" y="-199.4" font-family="Times Roman,serif" font-size="14.00">q2</text>
</g>
<!-- q5&#45;&gt;q2 -->
<g id="edge4" class="edge"><title>q5&#45;&gt;q2</title>
<path fill="none" stroke="black" d="M72.0652,-277.261C78.1661,-263.898 86.6389,-245.338 93.5879,-230.117"/>
<polygon fill="black" stroke="black" points="96.925,-231.235 97.894,-220.684 90.5572,-228.327 96.925,-231.235"/>
<text text-anchor="middle" x="92.4672" y="-245.4" font-family="Times Roman,serif" font-size="14.00">a</text>
</g>
<!-- q3&#45;&gt;q5 -->
<g id="edge20" class="edge"><title>q3&#45;&gt;q5</title>
<path fill="none" stroke="black" d="M33.174,-37.457C38.8111,-84.6035 53.7719,-209.73 60.5474,-266.398"/>
<polygon fill="black" stroke="black" points="57.0882,-266.949 61.7507,-276.462 64.0387,-266.117 57.0882,-266.949"/>
<text text-anchor="middle" x="52.4672" y="-153.4" font-family="Times Roman,serif" font-size="14.00">a</text>
</g>
<!-- q3&#45;&gt;q3 -->
<g id="edge18" class="edge"><title>q3&#45;&gt;q3</title>
<path fill="none" stroke="black" d="M55.0415,-27.4544C66.2095,-28.3767 75.9672,-25.5586 75.9672,-19 75.9672,-14.5934 71.5624,-11.8754 65.2846,-10.8458"/>
<polygon fill="black" stroke="black" points="65.1398,-7.34018 55.0415,-10.5456 64.9346,-14.3372 65.1398,-7.34018"/>
<text text-anchor="middle" x="80.4672" y="-15.4" font-family="Times Roman,serif" font-size="14.00">b</text>
</g>
<!-- q4 -->
<g id="node7" class="node"><title>q4</title>
<ellipse fill="none" stroke="black" cx="158.967" cy="-111" rx="27" ry="18.3848"/>
<text text-anchor="middle" x="158.967" y="-107.4" font-family="Times Roman,serif" font-size="14.00">q4</text>
</g>
<!-- q2&#45;&gt;q4 -->
<g id="edge6" class="edge"><title>q2&#45;&gt;q4</title>
<path fill="none" stroke="black" d="M119.027,-186.512C123.697,-180.264 128.825,-172.974 132.967,-166 138.156,-157.264 143.117,-147.327 147.288,-138.325"/>
<polygon fill="black" stroke="black" points="150.562,-139.58 151.478,-129.025 144.179,-136.705 150.562,-139.58"/>
<text text-anchor="middle" x="146.467" y="-153.4" font-family="Times Roman,serif" font-size="14.00">b</text>
</g>
<!-- q0 -->
<g id="node9" class="node"><title>q0</title>
<ellipse fill="none" stroke="black" cx="86.9672" cy="-111" rx="27" ry="18.3848"/>
<text text-anchor="middle" x="86.9672" y="-107.4" font-family="Times Roman,serif" font-size="14.00">q0</text>
</g>
<!-- q2&#45;&gt;q0 -->
<g id="edge8" class="edge"><title>q2&#45;&gt;q0</title>
<path fill="none" stroke="black" d="M96.8348,-185.371C94.1426,-179.378 91.5075,-172.54 89.9672,-166 87.994,-157.623 87.0375,-148.338 86.6266,-139.819"/>
<polygon fill="black" stroke="black" points="90.1189,-139.471 86.3625,-129.564 83.1212,-139.651 90.1189,-139.471"/>
<text text-anchor="middle" x="94.4672" y="-153.4" font-family="Times Roman,serif" font-size="14.00">a</text>
</g>
<!-- q4&#45;&gt;q2 -->
<g id="edge16" class="edge"><title>q4&#45;&gt;q2</title>
<path fill="none" stroke="black" d="M141.176,-125.334C134.329,-131.651 126.963,-139.556 121.967,-148 117.199,-156.059 113.774,-165.629 111.349,-174.51"/>
<polygon fill="black" stroke="black" points="107.886,-173.944 108.941,-184.486 114.69,-175.586 107.886,-173.944"/>
<text text-anchor="middle" x="126.467" y="-153.4" font-family="Times Roman,serif" font-size="14.00">a</text>
</g>
<!-- q4&#45;&gt;q4 -->
<g id="edge14" class="edge"><title>q4&#45;&gt;q4</title>
<path fill="none" stroke="black" d="M183.042,-119.454C194.21,-120.377 203.967,-117.559 203.967,-111 203.967,-106.593 199.562,-103.875 193.285,-102.846"/>
<polygon fill="black" stroke="black" points="193.14,-99.3402 183.042,-102.546 192.935,-106.337 193.14,-99.3402"/>
<text text-anchor="middle" x="208.467" y="-107.4" font-family="Times Roman,serif" font-size="14.00">b</text>
</g>
<!-- q0&#45;&gt;q3 -->
<g id="edge24" class="edge"><title>q0&#45;&gt;q3</title>
<path fill="none" stroke="black" d="M76.434,-93.6955C68.0647,-79.9459 56.2288,-60.5012 46.7311,-44.8979"/>
<polygon fill="black" stroke="black" points="49.6424,-42.9491 41.4531,-36.2269 43.663,-46.5887 49.6424,-42.9491"/>
<text text-anchor="middle" x="68.4672" y="-61.4" font-family="Times Roman,serif" font-size="14.00">a</text>
</g>
<!-- q1 -->
<g id="node10" class="node"><title>q1</title>
<ellipse fill="none" stroke="black" cx="129.967" cy="-19" rx="27" ry="18.3848"/>
<text text-anchor="middle" x="129.967" y="-15.4" font-family="Times Roman,serif" font-size="14.00">q1</text>
</g>
<!-- q0&#45;&gt;q1 -->
<g id="edge22" class="edge"><title>q0&#45;&gt;q1</title>
<path fill="none" stroke="black" d="M88.7597,-92.4341C90.3641,-81.4113 93.3712,-67.4064 98.9672,-56 101.306,-51.2319 104.387,-46.5571 107.699,-42.2215"/>
<polygon fill="black" stroke="black" points="110.525,-44.297 114.219,-34.3668 105.139,-39.8262 110.525,-44.297"/>
<text text-anchor="middle" x="103.467" y="-61.4" font-family="Times Roman,serif" font-size="14.00">b</text>
</g>
<!-- q1&#45;&gt;q5 -->
<g id="edge12" class="edge"><title>q1&#45;&gt;q5</title>
<path fill="none" stroke="black" d="M152.673,-29.4858C174.981,-41.1887 207.688,-62.4412 221.967,-92 229.314,-107.207 227.883,-114.181 221.967,-130 197.337,-195.86 131.045,-249.633 92.6078,-276.475"/>
<polygon fill="black" stroke="black" points="90.216,-273.87 83.9362,-282.403 94.1667,-279.649 90.216,-273.87"/>
<text text-anchor="middle" x="217.467" y="-153.4" font-family="Times Roman,serif" font-size="14.00">a</text>
</g>
<!-- q1&#45;&gt;q0 -->
<g id="edge10" class="edge"><title>q1&#45;&gt;q0</title>
<path fill="none" stroke="black" d="M123.437,-37.0997C119.345,-47.9573 113.763,-61.9521 107.967,-74 106.3,-77.4653 104.443,-81.0514 102.541,-84.5659"/>
<polygon fill="black" stroke="black" points="99.3323,-83.1332 97.5052,-93.5693 105.442,-86.5504 99.3323,-83.1332"/>
<text text-anchor="middle" x="119.467" y="-61.4" font-family="Times Roman,serif" font-size="14.00">b</text>
</g>
</g>
</svg>
