<?xml version="1.0" encoding="UTF-8" standalone="no"?>
<!DOCTYPE svg PUBLIC "-//W3C//DTD SVG 1.1//EN"
 "http://www.w3.org/Graphics/SVG/1.1/DTD/svg11.dtd">
<!-- Generated by graphviz version 2.26.3 (20100126.1600)
 -->
<!-- Title: G Pages: 1 -->
<svg width="290pt" height="240pt"
 viewBox="0.00 0.00 290.00 240.00" xmlns="http://www.w3.org/2000/svg" xmlns:xlink="http://www.w3.org/1999/xlink">
<g id="graph1" class="graph" transform="scale(1 1) rotate(0) translate(4 236)">
<title>G</title>
<polygon fill="white" stroke="white" points="-4,5 -4,-236 287,-236 287,5 -4,5"/>
<!-- q6 -->
<g id="node1" class="node"><title>q6</title>
<ellipse fill="none" stroke="black" cx="27" cy="-112" rx="27" ry="18"/>
<text text-anchor="middle" x="27" y="-107.9" font-family="Times Roman,serif" font-size="14.00">q6</text>
</g>
<!-- q6&#45;&gt;q6 -->
<g id="edge2" class="edge"><title>q6&#45;&gt;q6</title>
<path fill="none" stroke="black" d="M50.6146,-120.78C61.9731,-121.864 72,-118.938 72,-112 72,-107.339 67.4737,-104.488 61.0584,-103.448"/>
<polygon fill="black" stroke="black" points="60.6888,-99.9393 50.6146,-103.22 60.5356,-106.938 60.6888,-99.9393"/>
<text text-anchor="middle" x="76.5" y="-107.9" font-family="Times Roman,serif" font-size="14.00">b</text>
</g>
<!-- q4 -->
<g id="node4" class="node"><title>q4</title>
<ellipse fill="none" stroke="black" cx="95" cy="-18" rx="27" ry="18"/>
<text text-anchor="middle" x="95" y="-13.9" font-family="Times Roman,serif" font-size="14.00">q4</text>
</g>
<!-- q6&#45;&gt;q4 -->
<g id="edge4" class="edge"><title>q6&#45;&gt;q4</title>
<path fill="none" stroke="black" d="M38.8447,-95.6264C49.4082,-81.024 65.0255,-59.4354 77.1106,-42.7295"/>
<polygon fill="black" stroke="black" points="80.0374,-44.655 83.0629,-34.5013 74.3658,-40.5521 80.0374,-44.655"/>
<text text-anchor="middle" x="71.5" y="-58.9" font-family="Times Roman,serif" font-size="14.00">a</text>
</g>
<!-- q4&#45;&gt;q4 -->
<g id="edge18" class="edge"><title>q4&#45;&gt;q4</title>
<path fill="none" stroke="black" d="M121.347,-22.1089C131.533,-22.2915 140,-20.9219 140,-18 140,-16.1282 136.525,-14.8934 131.35,-14.2956"/>
<polygon fill="black" stroke="black" points="131.48,-10.7982 121.347,-13.8911 131.197,-17.7924 131.48,-10.7982"/>
<text text-anchor="middle" x="144.5" y="-13.9" font-family="Times Roman,serif" font-size="14.00">b</text>
</g>
<!-- q4&#45;&gt;q4 -->
<g id="edge20" class="edge"><title>q4&#45;&gt;q4</title>
<path fill="none" stroke="black" d="M114.026,-30.7871C134.62,-39.0495 158,-34.7871 158,-18 158,-3.83588 141.356,1.4117 123.784,-2.25728"/>
<polygon fill="black" stroke="black" points="122.582,1.03581 114.026,-5.21294 124.612,-5.66359 122.582,1.03581"/>
<text text-anchor="middle" x="162.5" y="-13.9" font-family="Times Roman,serif" font-size="14.00">a</text>
</g>
<!-- q5 -->
<g id="node5" class="node"><title>q5</title>
<ellipse fill="none" stroke="black" cx="233" cy="-112" rx="27" ry="18"/>
<text text-anchor="middle" x="233" y="-107.9" font-family="Times Roman,serif" font-size="14.00">q5</text>
</g>
<!-- q1 -->
<g id="node7" class="node"><title>q1</title>
<ellipse fill="none" stroke="black" cx="201" cy="-210" rx="27" ry="18"/>
<ellipse fill="none" stroke="black" cx="201" cy="-210" rx="31" ry="22"/>
<text text-anchor="middle" x="201" y="-205.9" font-family="Times Roman,serif" font-size="14.00">q1</text>
</g>
<!-- q5&#45;&gt;q1 -->
<g id="edge6" class="edge"><title>q5&#45;&gt;q1</title>
<path fill="none" stroke="black" d="M217.709,-126.919C211.607,-133.901 205.266,-142.718 202,-152 199.149,-160.105 198.087,-169.249 197.938,-177.84"/>
<polygon fill="black" stroke="black" points="194.441,-178.013 198.151,-187.937 201.439,-177.866 194.441,-178.013"/>
<text text-anchor="middle" x="206.5" y="-156.9" font-family="Times Roman,serif" font-size="14.00">b</text>
</g>
<!-- q2 -->
<g id="node9" class="node"><title>q2</title>
<ellipse fill="none" stroke="black" cx="228" cy="-18" rx="27" ry="18"/>
<text text-anchor="middle" x="228" y="-13.9" font-family="Times Roman,serif" font-size="14.00">q2</text>
</g>
<!-- q5&#45;&gt;q2 -->
<g id="edge8" class="edge"><title>q5&#45;&gt;q2</title>
<path fill="none" stroke="black" d="M218.802,-96.4867C213.367,-89.5289 207.803,-80.8931 205,-72 202.595,-64.3701 202.756,-61.679 205,-54 206.138,-50.1068 207.839,-46.2341 209.811,-42.5508"/>
<polygon fill="black" stroke="black" points="212.88,-44.2401 215.104,-33.8813 206.906,-40.5923 212.88,-44.2401"/>
<text text-anchor="middle" x="209.5" y="-58.9" font-family="Times Roman,serif" font-size="14.00">a</text>
</g>
<!-- q1&#45;&gt;q5 -->
<g id="edge16" class="edge"><title>q1&#45;&gt;q5</title>
<path fill="none" stroke="black" d="M208.102,-188.251C212.814,-173.818 219.037,-154.761 224.083,-139.31"/>
<polygon fill="black" stroke="black" points="227.423,-140.354 227.2,-129.761 220.769,-138.181 227.423,-140.354"/>
<text text-anchor="middle" x="223.5" y="-156.9" font-family="Times Roman,serif" font-size="14.00">a</text>
</g>
<!-- q0 -->
<g id="node13" class="node"><title>q0</title>
<ellipse fill="none" stroke="black" cx="130" cy="-112" rx="27" ry="18"/>
<ellipse fill="none" stroke="black" cx="130" cy="-112" rx="31" ry="22"/>
<text text-anchor="middle" x="130" y="-107.9" font-family="Times Roman,serif" font-size="14.00">q0</text>
</g>
<!-- q1&#45;&gt;q0 -->
<g id="edge14" class="edge"><title>q1&#45;&gt;q0</title>
<path fill="none" stroke="black" d="M186.632,-190.168C176.239,-175.822 162.046,-156.232 150.468,-140.252"/>
<polygon fill="black" stroke="black" points="153.048,-137.847 144.347,-131.802 147.379,-141.954 153.048,-137.847"/>
<text text-anchor="middle" x="175.5" y="-156.9" font-family="Times Roman,serif" font-size="14.00">b</text>
</g>
<!-- q2&#45;&gt;q5 -->
<g id="edge12" class="edge"><title>q2&#45;&gt;q5</title>
<path fill="none" stroke="black" d="M228.961,-36.0685C229.68,-49.5785 230.676,-68.3082 231.499,-83.785"/>
<polygon fill="black" stroke="black" points="228.01,-84.0759 232.036,-93.8759 235,-83.704 228.01,-84.0759"/>
<text text-anchor="middle" x="234.5" y="-58.9" font-family="Times Roman,serif" font-size="14.00">a</text>
</g>
<!-- q2&#45;&gt;q2 -->
<g id="edge10" class="edge"><title>q2&#45;&gt;q2</title>
<path fill="none" stroke="black" d="M252.532,-26.1211C263.508,-26.8945 273,-24.1875 273,-18 273,-13.8428 268.715,-11.2567 262.574,-10.2417"/>
<polygon fill="black" stroke="black" points="262.652,-6.74237 252.532,-9.87891 262.4,-13.7378 262.652,-6.74237"/>
<text text-anchor="middle" x="277.5" y="-13.9" font-family="Times Roman,serif" font-size="14.00">b</text>
</g>
<!-- q0&#45;&gt;q4 -->
<g id="edge24" class="edge"><title>q0&#45;&gt;q4</title>
<path fill="none" stroke="black" d="M122.058,-90.6699C117.011,-77.1144 110.433,-59.4494 105.027,-44.9305"/>
<polygon fill="black" stroke="black" points="108.274,-43.6209 101.505,-35.4707 101.714,-46.0635 108.274,-43.6209"/>
<text text-anchor="middle" x="118.5" y="-58.9" font-family="Times Roman,serif" font-size="14.00">a</text>
</g>
<!-- q0&#45;&gt;q0 -->
<g id="edge22" class="edge"><title>q0&#45;&gt;q0</title>
<path fill="none" stroke="black" d="M158.689,-120.965C169.781,-121.363 179,-118.375 179,-112 179,-107.717 174.838,-104.962 168.743,-103.737"/>
<polygon fill="black" stroke="black" points="168.908,-100.24 158.689,-103.035 168.421,-107.223 168.908,-100.24"/>
<text text-anchor="middle" x="183.5" y="-107.9" font-family="Times Roman,serif" font-size="14.00">b</text>
</g>
</g>
</svg>
