<?xml version="1.0" encoding="UTF-8" standalone="no"?>
<!DOCTYPE svg PUBLIC "-//W3C//DTD SVG 1.1//EN"
 "http://www.w3.org/Graphics/SVG/1.1/DTD/svg11.dtd">
<!-- Generated by graphviz version 2.26.3 (20100126.1600)
 -->
<!-- Title: G Pages: 1 -->
<svg width="241pt" height="322pt"
 viewBox="0.00 0.00 240.97 322.00" xmlns="http://www.w3.org/2000/svg" xmlns:xlink="http://www.w3.org/1999/xlink">
<g id="graph1" class="graph" transform="scale(1 1) rotate(0) translate(4 318)">
<title>G</title>
<polygon fill="white" stroke="white" points="-4,5 -4,-318 237.969,-318 237.969,5 -4,5"/>
<!-- q5 -->
<g id="node1" class="node"><title>q5</title>
<ellipse fill="none" stroke="black" cx="63.9685" cy="-295" rx="27" ry="18.3848"/>
<text text-anchor="middle" x="63.9685" y="-291.4" font-family="Times Roman,serif" font-size="14.00">q5</text>
</g>
<!-- q3 -->
<g id="node3" class="node"><title>q3</title>
<ellipse fill="none" stroke="black" cx="31.9685" cy="-19" rx="27" ry="18.3848"/>
<text text-anchor="middle" x="31.9685" y="-15.4" font-family="Times Roman,serif" font-size="14.00">q3</text>
</g>
<!-- q5&#45;&gt;q3 -->
<g id="edge2" class="edge"><title>q5&#45;&gt;q3</title>
<path fill="none" stroke="black" d="M43.2101,-283.066C34.0772,-276.763 24.0612,-268.209 17.9685,-258 -3.3408,-222.294 4.76211,-207.408 0.968514,-166 -2.90554,-123.714 10.6855,-75.7595 21.0944,-46.4484"/>
<polygon fill="black" stroke="black" points="24.4399,-47.4915 24.6096,-36.898 17.8708,-45.0735 24.4399,-47.4915"/>
<text text-anchor="middle" x="5.46851" y="-153.4" font-family="Times Roman,serif" font-size="14.00">b</text>
</g>
<!-- q2 -->
<g id="node5" class="node"><title>q2</title>
<ellipse fill="none" stroke="black" cx="105.969" cy="-203" rx="27" ry="18.3848"/>
<text text-anchor="middle" x="105.969" y="-199.4" font-family="Times Roman,serif" font-size="14.00">q2</text>
</g>
<!-- q5&#45;&gt;q2 -->
<g id="edge4" class="edge"><title>q5&#45;&gt;q2</title>
<path fill="none" stroke="black" d="M72.0665,-277.261C78.1674,-263.898 86.6402,-245.338 93.5892,-230.117"/>
<polygon fill="black" stroke="black" points="96.9263,-231.235 97.8954,-220.684 90.5585,-228.327 96.9263,-231.235"/>
<text text-anchor="middle" x="92.4685" y="-245.4" font-family="Times Roman,serif" font-size="14.00">a</text>
</g>
<!-- q3&#45;&gt;q5 -->
<g id="edge20" class="edge"><title>q3&#45;&gt;q5</title>
<path fill="none" stroke="black" d="M34.1085,-37.457C39.5747,-84.6035 54.0822,-209.73 60.6523,-266.398"/>
<polygon fill="black" stroke="black" points="57.1907,-266.932 61.8192,-276.462 64.1441,-266.126 57.1907,-266.932"/>
<text text-anchor="middle" x="52.4685" y="-153.4" font-family="Times Roman,serif" font-size="14.00">a</text>
</g>
<!-- q3&#45;&gt;q3 -->
<g id="edge18" class="edge"><title>q3&#45;&gt;q3</title>
<path fill="none" stroke="black" d="M56.0428,-27.4544C67.2108,-28.3767 76.9685,-25.5586 76.9685,-19 76.9685,-14.5934 72.5637,-11.8754 66.2859,-10.8458"/>
<polygon fill="black" stroke="black" points="66.1411,-7.34018 56.0428,-10.5456 65.936,-14.3372 66.1411,-7.34018"/>
<text text-anchor="middle" x="81.4685" y="-15.4" font-family="Times Roman,serif" font-size="14.00">b</text>
</g>
<!-- q4 -->
<g id="node7" class="node"><title>q4</title>
<ellipse fill="none" stroke="black" cx="158.969" cy="-111" rx="27" ry="18.3848"/>
<text text-anchor="middle" x="158.969" y="-107.4" font-family="Times Roman,serif" font-size="14.00">q4</text>
</g>
<!-- q2&#45;&gt;q4 -->
<g id="edge6" class="edge"><title>q2&#45;&gt;q4</title>
<path fill="none" stroke="black" d="M119.028,-186.512C123.698,-180.264 128.826,-172.974 132.969,-166 138.158,-157.264 143.118,-147.327 147.29,-138.325"/>
<polygon fill="black" stroke="black" points="150.563,-139.58 151.479,-129.025 144.181,-136.705 150.563,-139.58"/>
<text text-anchor="middle" x="146.469" y="-153.4" font-family="Times Roman,serif" font-size="14.00">b</text>
</g>
<!-- q0 -->
<g id="node9" class="node"><title>q0</title>
<ellipse fill="none" stroke="black" cx="86.9685" cy="-111" rx="27" ry="18.3848"/>
<text text-anchor="middle" x="86.9685" y="-107.4" font-family="Times Roman,serif" font-size="14.00">q0</text>
</g>
<!-- q2&#45;&gt;q0 -->
<g id="edge8" class="edge"><title>q2&#45;&gt;q0</title>
<path fill="none" stroke="black" d="M96.8361,-185.371C94.1439,-179.378 91.5088,-172.54 89.9685,-166 87.9954,-157.623 87.0388,-148.338 86.6279,-139.819"/>
<polygon fill="black" stroke="black" points="90.1202,-139.471 86.3638,-129.564 83.1225,-139.651 90.1202,-139.471"/>
<text text-anchor="middle" x="94.4685" y="-153.4" font-family="Times Roman,serif" font-size="14.00">a</text>
</g>
<!-- q4&#45;&gt;q2 -->
<g id="edge16" class="edge"><title>q4&#45;&gt;q2</title>
<path fill="none" stroke="black" d="M141.177,-125.334C134.33,-131.651 126.964,-139.556 121.969,-148 117.201,-156.059 113.776,-165.629 111.351,-174.51"/>
<polygon fill="black" stroke="black" points="107.887,-173.944 108.943,-184.486 114.692,-175.586 107.887,-173.944"/>
<text text-anchor="middle" x="126.469" y="-153.4" font-family="Times Roman,serif" font-size="14.00">a</text>
</g>
<!-- q4&#45;&gt;q4 -->
<g id="edge14" class="edge"><title>q4&#45;&gt;q4</title>
<path fill="none" stroke="black" d="M183.043,-119.454C194.211,-120.377 203.969,-117.559 203.969,-111 203.969,-106.593 199.564,-103.875 193.286,-102.846"/>
<polygon fill="black" stroke="black" points="193.141,-99.3402 183.043,-102.546 192.936,-106.337 193.141,-99.3402"/>
<text text-anchor="middle" x="208.469" y="-107.4" font-family="Times Roman,serif" font-size="14.00">b</text>
</g>
<!-- q0&#45;&gt;q3 -->
<g id="edge24" class="edge"><title>q0&#45;&gt;q3</title>
<path fill="none" stroke="black" d="M76.6234,-93.6955C68.4036,-79.9459 56.779,-60.5012 47.451,-44.8979"/>
<polygon fill="black" stroke="black" points="50.4026,-43.0141 42.2672,-36.2269 44.3944,-46.606 50.4026,-43.0141"/>
<text text-anchor="middle" x="68.4685" y="-61.4" font-family="Times Roman,serif" font-size="14.00">a</text>
</g>
<!-- q1 -->
<g id="node10" class="node"><title>q1</title>
<ellipse fill="none" stroke="black" cx="178.969" cy="-19" rx="27" ry="18.3848"/>
<text text-anchor="middle" x="178.969" y="-15.4" font-family="Times Roman,serif" font-size="14.00">q1</text>
</g>
<!-- q0&#45;&gt;q1 -->
<g id="edge22" class="edge"><title>q0&#45;&gt;q1</title>
<path fill="none" stroke="black" d="M102.575,-95.3935C117.335,-80.6338 139.651,-58.3177 156.358,-41.6104"/>
<polygon fill="black" stroke="black" points="158.996,-43.922 163.592,-34.3761 154.046,-38.9723 158.996,-43.922"/>
<text text-anchor="middle" x="145.469" y="-61.4" font-family="Times Roman,serif" font-size="14.00">b</text>
</g>
<!-- q1&#45;&gt;q5 -->
<g id="edge12" class="edge"><title>q1&#45;&gt;q5</title>
<path fill="none" stroke="black" d="M192.964,-35.1316C209.891,-56.6933 234.637,-96.1253 221.969,-130 197.339,-195.86 131.047,-249.633 92.6091,-276.475"/>
<polygon fill="black" stroke="black" points="90.2173,-273.87 83.9375,-282.403 94.168,-279.649 90.2173,-273.87"/>
<text text-anchor="middle" x="217.469" y="-153.4" font-family="Times Roman,serif" font-size="14.00">a</text>
</g>
<!-- q1&#45;&gt;q1 -->
<g id="edge10" class="edge"><title>q1&#45;&gt;q1</title>
<path fill="none" stroke="black" d="M203.043,-27.4544C214.211,-28.3767 223.969,-25.5586 223.969,-19 223.969,-14.5934 219.564,-11.8754 213.286,-10.8458"/>
<polygon fill="black" stroke="black" points="213.141,-7.34018 203.043,-10.5456 212.936,-14.3372 213.141,-7.34018"/>
<text text-anchor="middle" x="228.469" y="-15.4" font-family="Times Roman,serif" font-size="14.00">b</text>
</g>
</g>
</svg>
