<?xml version="1.0" encoding="UTF-8" standalone="no"?>
<!DOCTYPE svg PUBLIC "-//W3C//DTD SVG 1.1//EN"
 "http://www.w3.org/Graphics/SVG/1.1/DTD/svg11.dtd">
<!-- Generated by graphviz version 2.26.3 (20100126.1600)
 -->
<!-- Title: G Pages: 1 -->
<svg width="146pt" height="322pt"
 viewBox="0.00 0.00 146.00 322.00" xmlns="http://www.w3.org/2000/svg" xmlns:xlink="http://www.w3.org/1999/xlink">
<g id="graph1" class="graph" transform="scale(1 1) rotate(0) translate(4 318)">
<title>G</title>
<polygon fill="white" stroke="white" points="-4,5 -4,-318 143,-318 143,5 -4,5"/>
<!-- q2 -->
<g id="node1" class="node"><title>q2</title>
<ellipse fill="none" stroke="black" cx="27" cy="-296" rx="27" ry="18"/>
<text text-anchor="middle" x="27" y="-291.9" font-family="Times Roman,serif" font-size="14.00">q2</text>
</g>
<!-- q2&#45;&gt;q2 -->
<g id="edge2" class="edge"><title>q2&#45;&gt;q2</title>
<path fill="none" stroke="black" d="M51.5325,-304.121C62.5078,-304.895 72,-302.188 72,-296 72,-291.843 67.7151,-289.257 61.5743,-288.242"/>
<polygon fill="black" stroke="black" points="61.6524,-284.742 51.5325,-287.879 61.3995,-291.738 61.6524,-284.742"/>
<text text-anchor="middle" x="76.5" y="-291.9" font-family="Times Roman,serif" font-size="14.00">b</text>
</g>
<!-- q1 -->
<g id="node4" class="node"><title>q1</title>
<ellipse fill="none" stroke="black" cx="27" cy="-206" rx="27" ry="18"/>
<text text-anchor="middle" x="27" y="-201.9" font-family="Times Roman,serif" font-size="14.00">q1</text>
</g>
<!-- q2&#45;&gt;q1 -->
<g id="edge4" class="edge"><title>q2&#45;&gt;q1</title>
<path fill="none" stroke="black" d="M27,-277.787C27,-265.344 27,-248.605 27,-234.421"/>
<polygon fill="black" stroke="black" points="30.5001,-234.186 27,-224.186 23.5001,-234.186 30.5001,-234.186"/>
<text text-anchor="middle" x="31.5" y="-246.9" font-family="Times Roman,serif" font-size="14.00">a</text>
</g>
<!-- q0 -->
<g id="node6" class="node"><title>q0</title>
<ellipse fill="none" stroke="black" cx="92" cy="-112" rx="27" ry="18"/>
<ellipse fill="none" stroke="black" cx="92" cy="-112" rx="31" ry="22"/>
<text text-anchor="middle" x="92" y="-107.9" font-family="Times Roman,serif" font-size="14.00">q0</text>
</g>
<!-- q1&#45;&gt;q0 -->
<g id="edge6" class="edge"><title>q1&#45;&gt;q0</title>
<path fill="none" stroke="black" d="M38.3221,-189.626C47.7132,-176.046 61.2827,-156.422 72.4285,-140.303"/>
<polygon fill="black" stroke="black" points="75.5205,-141.986 78.3293,-131.77 69.7629,-138.004 75.5205,-141.986"/>
<text text-anchor="middle" x="67.5" y="-156.9" font-family="Times Roman,serif" font-size="14.00">b</text>
</g>
<!-- q4 -->
<g id="node8" class="node"><title>q4</title>
<ellipse fill="none" stroke="black" cx="60" cy="-18" rx="27" ry="18"/>
<text text-anchor="middle" x="60" y="-13.9" font-family="Times Roman,serif" font-size="14.00">q4</text>
</g>
<!-- q1&#45;&gt;q4 -->
<g id="edge8" class="edge"><title>q1&#45;&gt;q4</title>
<path fill="none" stroke="black" d="M28.9659,-187.831C31.5684,-164.922 36.5863,-124.374 43,-90 45.7326,-75.3551 49.4789,-59.2 52.7594,-45.9098"/>
<polygon fill="black" stroke="black" points="56.2197,-46.5005 55.2621,-35.9491 49.4307,-44.7947 56.2197,-46.5005"/>
<text text-anchor="middle" x="47.5" y="-107.9" font-family="Times Roman,serif" font-size="14.00">a</text>
</g>
<!-- q0&#45;&gt;q4 -->
<g id="edge18" class="edge"><title>q0&#45;&gt;q4</title>
<path fill="none" stroke="black" d="M84.5781,-90.1982C80.0319,-76.8436 74.1738,-59.6354 69.3171,-45.369"/>
<polygon fill="black" stroke="black" points="72.5268,-43.9365 65.9908,-35.598 65.9002,-46.1924 72.5268,-43.9365"/>
<text text-anchor="middle" x="81.5" y="-58.9" font-family="Times Roman,serif" font-size="14.00">b</text>
</g>
<!-- q0&#45;&gt;q4 -->
<g id="edge20" class="edge"><title>q0&#45;&gt;q4</title>
<path fill="none" stroke="black" d="M94.5566,-89.8487C95.0201,-78.7459 94.3112,-65.2957 90,-54 88.2086,-49.3065 85.536,-44.7826 82.5114,-40.6197"/>
<polygon fill="black" stroke="black" points="85.0224,-38.1617 75.9784,-32.6428 79.6068,-42.597 85.0224,-38.1617"/>
<text text-anchor="middle" x="97.5" y="-58.9" font-family="Times Roman,serif" font-size="14.00">a</text>
</g>
<!-- q4&#45;&gt;q1 -->
<g id="edge12" class="edge"><title>q4&#45;&gt;q1</title>
<path fill="none" stroke="black" d="M48.5923,-34.5531C39.65,-48.5952 27.9236,-69.6467 23,-90 15.8919,-119.383 18.4886,-154.166 21.8567,-177.928"/>
<polygon fill="black" stroke="black" points="18.4298,-178.669 23.4264,-188.011 25.3465,-177.592 18.4298,-178.669"/>
<text text-anchor="middle" x="27.5" y="-107.9" font-family="Times Roman,serif" font-size="14.00">a</text>
</g>
<!-- q4&#45;&gt;q0 -->
<g id="edge10" class="edge"><title>q4&#45;&gt;q0</title>
<path fill="none" stroke="black" d="M57.5431,-36.0124C56.7529,-46.7583 56.9474,-60.5038 61,-72 62.6649,-76.723 65.1253,-81.3259 67.9444,-85.6279"/>
<polygon fill="black" stroke="black" points="65.3461,-88.002 74.0947,-93.9781 70.9822,-83.8507 65.3461,-88.002"/>
<text text-anchor="middle" x="65.5" y="-58.9" font-family="Times Roman,serif" font-size="14.00">b</text>
</g>
<!-- q3 -->
<g id="node11" class="node"><title>q3</title>
<ellipse fill="none" stroke="black" cx="111" cy="-206" rx="27" ry="18"/>
<text text-anchor="middle" x="111" y="-201.9" font-family="Times Roman,serif" font-size="14.00">q3</text>
</g>
<!-- q3&#45;&gt;q0 -->
<g id="edge14" class="edge"><title>q3&#45;&gt;q0</title>
<path fill="none" stroke="black" d="M108.358,-187.933C106.727,-177.411 104.477,-163.911 102,-152 101.445,-149.333 100.834,-146.574 100.196,-143.81"/>
<polygon fill="black" stroke="black" points="103.562,-142.837 97.8184,-133.934 96.7564,-144.475 103.562,-142.837"/>
<text text-anchor="middle" x="109.5" y="-156.9" font-family="Times Roman,serif" font-size="14.00">b</text>
</g>
<!-- q3&#45;&gt;q0 -->
<g id="edge16" class="edge"><title>q3&#45;&gt;q0</title>
<path fill="none" stroke="black" d="M100.567,-189.026C97.5281,-183.207 94.5974,-176.515 93,-170 90.9711,-161.725 90.1739,-152.585 90.016,-144.055"/>
<polygon fill="black" stroke="black" points="93.5158,-144.082 90.1007,-134.053 86.5161,-144.023 93.5158,-144.082"/>
<text text-anchor="middle" x="97.5" y="-156.9" font-family="Times Roman,serif" font-size="14.00">a</text>
</g>
</g>
</svg>
