<?xml version="1.0" encoding="UTF-8" standalone="no"?>
<!DOCTYPE svg PUBLIC "-//W3C//DTD SVG 1.1//EN"
 "http://www.w3.org/Graphics/SVG/1.1/DTD/svg11.dtd">
<!-- Generated by graphviz version 2.26.3 (20100126.1600)
 -->
<!-- Title: G Pages: 1 -->
<svg width="244pt" height="420pt"
 viewBox="0.00 0.00 244.00 420.00" xmlns="http://www.w3.org/2000/svg" xmlns:xlink="http://www.w3.org/1999/xlink">
<g id="graph1" class="graph" transform="scale(1 1) rotate(0) translate(4 416)">
<title>G</title>
<polygon fill="white" stroke="white" points="-4,5 -4,-416 241,-416 241,5 -4,5"/>
<!-- q6 -->
<g id="node1" class="node"><title>q6</title>
<ellipse fill="none" stroke="black" cx="182" cy="-394" rx="27" ry="18"/>
<text text-anchor="middle" x="182" y="-389.9" font-family="Times Roman,serif" font-size="14.00">q6</text>
</g>
<!-- q6&#45;&gt;q6 -->
<g id="edge2" class="edge"><title>q6&#45;&gt;q6</title>
<path fill="none" stroke="black" d="M206.532,-402.121C217.508,-402.895 227,-400.188 227,-394 227,-389.843 222.715,-387.257 216.574,-386.242"/>
<polygon fill="black" stroke="black" points="216.652,-382.742 206.532,-385.879 216.4,-389.738 216.652,-382.742"/>
<text text-anchor="middle" x="231.5" y="-389.9" font-family="Times Roman,serif" font-size="14.00">b</text>
</g>
<!-- q4 -->
<g id="node4" class="node"><title>q4</title>
<ellipse fill="none" stroke="black" cx="104" cy="-300" rx="27" ry="18"/>
<ellipse fill="none" stroke="black" cx="104" cy="-300" rx="31" ry="22"/>
<text text-anchor="middle" x="104" y="-295.9" font-family="Times Roman,serif" font-size="14.00">q4</text>
</g>
<!-- q6&#45;&gt;q4 -->
<g id="edge4" class="edge"><title>q6&#45;&gt;q4</title>
<path fill="none" stroke="black" d="M168.768,-378.054C157.189,-364.1 140.125,-343.535 126.418,-327.017"/>
<polygon fill="black" stroke="black" points="129.077,-324.74 119.998,-319.279 123.69,-329.21 129.077,-324.74"/>
<text text-anchor="middle" x="153.5" y="-344.9" font-family="Times Roman,serif" font-size="14.00">a</text>
</g>
<!-- q4&#45;&gt;q4 -->
<g id="edge20" class="edge"><title>q4&#45;&gt;q4</title>
<path fill="none" stroke="black" d="M132.689,-308.965C143.781,-309.363 153,-306.375 153,-300 153,-295.717 148.838,-292.962 142.743,-291.737"/>
<polygon fill="black" stroke="black" points="142.908,-288.24 132.689,-291.035 142.421,-295.223 142.908,-288.24"/>
<text text-anchor="middle" x="157.5" y="-295.9" font-family="Times Roman,serif" font-size="14.00">a</text>
</g>
<!-- q2 -->
<g id="node9" class="node"><title>q2</title>
<ellipse fill="none" stroke="black" cx="27" cy="-206" rx="27" ry="18"/>
<text text-anchor="middle" x="27" y="-201.9" font-family="Times Roman,serif" font-size="14.00">q2</text>
</g>
<!-- q4&#45;&gt;q2 -->
<g id="edge18" class="edge"><title>q4&#45;&gt;q2</title>
<path fill="none" stroke="black" d="M88.4179,-280.978C76.2933,-266.176 59.4009,-245.554 46.4001,-229.683"/>
<polygon fill="black" stroke="black" points="49.0466,-227.391 40.0021,-221.873 43.6314,-231.827 49.0466,-227.391"/>
<text text-anchor="middle" x="74.5" y="-246.9" font-family="Times Roman,serif" font-size="14.00">b</text>
</g>
<!-- q5 -->
<g id="node5" class="node"><title>q5</title>
<ellipse fill="none" stroke="black" cx="101" cy="-116" rx="27" ry="18"/>
<text text-anchor="middle" x="101" y="-111.9" font-family="Times Roman,serif" font-size="14.00">q5</text>
</g>
<!-- q1 -->
<g id="node7" class="node"><title>q1</title>
<ellipse fill="none" stroke="black" cx="133" cy="-22" rx="27" ry="18"/>
<ellipse fill="none" stroke="black" cx="133" cy="-22" rx="31" ry="22"/>
<text text-anchor="middle" x="133" y="-17.9" font-family="Times Roman,serif" font-size="14.00">q1</text>
</g>
<!-- q5&#45;&gt;q1 -->
<g id="edge6" class="edge"><title>q5&#45;&gt;q1</title>
<path fill="none" stroke="black" d="M107.019,-98.3193C111.314,-85.7017 117.208,-68.3903 122.296,-53.4444"/>
<polygon fill="black" stroke="black" points="125.75,-54.1563 125.66,-43.5618 119.124,-51.9004 125.75,-54.1563"/>
<text text-anchor="middle" x="122.5" y="-66.9" font-family="Times Roman,serif" font-size="14.00">b</text>
</g>
<!-- q5&#45;&gt;q2 -->
<g id="edge8" class="edge"><title>q5&#45;&gt;q2</title>
<path fill="none" stroke="black" d="M76.4374,-123.912C62.7417,-129.586 46.5655,-138.623 37,-152 31.6588,-159.47 28.9211,-168.962 27.584,-177.898"/>
<polygon fill="black" stroke="black" points="24.0884,-177.682 26.5855,-187.978 31.0543,-178.372 24.0884,-177.682"/>
<text text-anchor="middle" x="41.5" y="-156.9" font-family="Times Roman,serif" font-size="14.00">a</text>
</g>
<!-- q1&#45;&gt;q6 -->
<g id="edge14" class="edge"><title>q1&#45;&gt;q6</title>
<path fill="none" stroke="black" d="M157.454,-35.8611C181.937,-51.7601 216,-80.296 216,-116 216,-300 216,-300 216,-300 216,-324.088 206.004,-349.69 196.853,-368.082"/>
<polygon fill="black" stroke="black" points="193.724,-366.512 192.201,-376.996 199.93,-369.75 193.724,-366.512"/>
<text text-anchor="middle" x="220.5" y="-201.9" font-family="Times Roman,serif" font-size="14.00">b</text>
</g>
<!-- q1&#45;&gt;q5 -->
<g id="edge16" class="edge"><title>q1&#45;&gt;q5</title>
<path fill="none" stroke="black" d="M115.095,-40.0219C109.865,-46.4317 104.804,-54.0454 102,-62 99.1505,-70.0833 98.2084,-79.2786 98.1749,-87.7613"/>
<polygon fill="black" stroke="black" points="94.6854,-88.12 98.5431,-97.9876 101.681,-87.8681 94.6854,-88.12"/>
<text text-anchor="middle" x="106.5" y="-66.9" font-family="Times Roman,serif" font-size="14.00">a</text>
</g>
<!-- q2&#45;&gt;q5 -->
<g id="edge12" class="edge"><title>q2&#45;&gt;q5</title>
<path fill="none" stroke="black" d="M40.2297,-189.91C51.6998,-175.96 68.455,-155.582 81.4685,-139.755"/>
<polygon fill="black" stroke="black" points="84.2372,-141.898 87.8848,-131.951 78.8302,-137.452 84.2372,-141.898"/>
<text text-anchor="middle" x="74.5" y="-156.9" font-family="Times Roman,serif" font-size="14.00">a</text>
</g>
<!-- q2&#45;&gt;q2 -->
<g id="edge10" class="edge"><title>q2&#45;&gt;q2</title>
<path fill="none" stroke="black" d="M51.5325,-214.121C62.5078,-214.895 72,-212.188 72,-206 72,-201.843 67.7151,-199.257 61.5743,-198.242"/>
<polygon fill="black" stroke="black" points="61.6524,-194.742 51.5325,-197.879 61.3995,-201.738 61.6524,-194.742"/>
<text text-anchor="middle" x="76.5" y="-201.9" font-family="Times Roman,serif" font-size="14.00">b</text>
</g>
<!-- q0 -->
<g id="node16" class="node"><title>q0</title>
<ellipse fill="none" stroke="black" cx="126" cy="-206" rx="27" ry="18"/>
<text text-anchor="middle" x="126" y="-201.9" font-family="Times Roman,serif" font-size="14.00">q0</text>
</g>
<!-- q0&#45;&gt;q5 -->
<g id="edge22" class="edge"><title>q0&#45;&gt;q5</title>
<path fill="none" stroke="black" d="M121.061,-188.219C117.534,-175.522 112.721,-158.195 108.693,-143.696"/>
<polygon fill="black" stroke="black" points="111.978,-142.443 105.929,-133.744 105.233,-144.316 111.978,-142.443"/>
<text text-anchor="middle" x="119.5" y="-156.9" font-family="Times Roman,serif" font-size="14.00">b</text>
</g>
<!-- q0&#45;&gt;q0 -->
<g id="edge24" class="edge"><title>q0&#45;&gt;q0</title>
<path fill="none" stroke="black" d="M150.532,-214.121C161.508,-214.895 171,-212.188 171,-206 171,-201.843 166.715,-199.257 160.574,-198.242"/>
<polygon fill="black" stroke="black" points="160.652,-194.742 150.532,-197.879 160.4,-201.738 160.652,-194.742"/>
<text text-anchor="middle" x="175.5" y="-201.9" font-family="Times Roman,serif" font-size="14.00">a</text>
</g>
</g>
</svg>
