<?xml version="1.0" encoding="UTF-8" standalone="no"?>
<!DOCTYPE svg PUBLIC "-//W3C//DTD SVG 1.1//EN"
 "http://www.w3.org/Graphics/SVG/1.1/DTD/svg11.dtd">
<!-- Generated by graphviz version 2.26.3 (20100126.1600)
 -->
<!-- Title: G Pages: 1 -->
<svg width="233pt" height="414pt"
 viewBox="0.00 0.00 233.00 414.00" xmlns="http://www.w3.org/2000/svg" xmlns:xlink="http://www.w3.org/1999/xlink">
<g id="graph1" class="graph" transform="scale(1 1) rotate(0) translate(4 410)">
<title>G</title>
<polygon fill="white" stroke="white" points="-4,5 -4,-410 230,-410 230,5 -4,5"/>
<!-- q5 -->
<g id="node1" class="node"><title>q5</title>
<ellipse fill="none" stroke="black" cx="27" cy="-295" rx="27" ry="18.3848"/>
<text text-anchor="middle" x="27" y="-291.4" font-family="Times Roman,serif" font-size="14.00">q5</text>
</g>
<!-- q5&#45;&gt;q5 -->
<g id="edge4" class="edge"><title>q5&#45;&gt;q5</title>
<path fill="none" stroke="black" d="M51.0743,-303.454C62.2423,-304.377 72,-301.559 72,-295 72,-290.593 67.5952,-287.875 61.3174,-286.846"/>
<polygon fill="black" stroke="black" points="61.1726,-283.34 51.0743,-286.546 60.9674,-290.337 61.1726,-283.34"/>
<text text-anchor="middle" x="76.5" y="-291.4" font-family="Times Roman,serif" font-size="14.00">a</text>
</g>
<!-- q0 -->
<g id="node3" class="node"><title>q0</title>
<ellipse fill="none" stroke="black" cx="117" cy="-203" rx="27" ry="18.3848"/>
<text text-anchor="middle" x="117" y="-199.4" font-family="Times Roman,serif" font-size="14.00">q0</text>
</g>
<!-- q5&#45;&gt;q0 -->
<g id="edge2" class="edge"><title>q5&#45;&gt;q0</title>
<path fill="none" stroke="black" d="M42.2673,-279.393C56.7061,-264.634 78.5371,-242.318 94.8811,-225.61"/>
<polygon fill="black" stroke="black" points="97.4672,-227.972 101.958,-218.376 92.4633,-223.077 97.4672,-227.972"/>
<text text-anchor="middle" x="85.5" y="-245.4" font-family="Times Roman,serif" font-size="14.00">b</text>
</g>
<!-- q0&#45;&gt;q0 -->
<g id="edge22" class="edge"><title>q0&#45;&gt;q0</title>
<path fill="none" stroke="black" d="M141.074,-211.454C152.242,-212.377 162,-209.559 162,-203 162,-198.593 157.595,-195.875 151.317,-194.846"/>
<polygon fill="black" stroke="black" points="151.173,-191.34 141.074,-194.546 150.967,-198.337 151.173,-191.34"/>
<text text-anchor="middle" x="166.5" y="-199.4" font-family="Times Roman,serif" font-size="14.00">b</text>
</g>
<!-- q3 -->
<g id="node8" class="node"><title>q3</title>
<ellipse fill="none" stroke="black" cx="70" cy="-111" rx="27" ry="18.3848"/>
<text text-anchor="middle" x="70" y="-107.4" font-family="Times Roman,serif" font-size="14.00">q3</text>
</g>
<!-- q0&#45;&gt;q3 -->
<g id="edge24" class="edge"><title>q0&#45;&gt;q3</title>
<path fill="none" stroke="black" d="M107.938,-185.261C101.046,-171.77 91.4484,-152.984 83.6313,-137.683"/>
<polygon fill="black" stroke="black" points="86.7005,-135.997 79.0343,-128.684 80.4669,-139.182 86.7005,-135.997"/>
<text text-anchor="middle" x="102.5" y="-153.4" font-family="Times Roman,serif" font-size="14.00">a</text>
</g>
<!-- q2 -->
<g id="node5" class="node"><title>q2</title>
<ellipse fill="none" stroke="black" cx="90" cy="-19" rx="27" ry="18.3848"/>
<text text-anchor="middle" x="90" y="-15.4" font-family="Times Roman,serif" font-size="14.00">q2</text>
</g>
<!-- q2&#45;&gt;q0 -->
<g id="edge6" class="edge"><title>q2&#45;&gt;q0</title>
<path fill="none" stroke="black" d="M96.0365,-37.3017C97.8277,-43.2197 99.6653,-49.8436 101,-56 109.768,-96.4438 113.838,-144.241 115.65,-174.095"/>
<polygon fill="black" stroke="black" points="112.164,-174.447 116.22,-184.234 119.153,-174.054 112.164,-174.447"/>
<text text-anchor="middle" x="116.5" y="-107.4" font-family="Times Roman,serif" font-size="14.00">b</text>
</g>
<!-- q2&#45;&gt;q3 -->
<g id="edge8" class="edge"><title>q2&#45;&gt;q3</title>
<path fill="none" stroke="black" d="M81.5838,-36.7148C79.0696,-42.7135 76.5682,-49.5333 75,-56 72.9664,-64.3861 71.7446,-73.6736 71.0153,-82.1921"/>
<polygon fill="black" stroke="black" points="67.5048,-82.2342 70.3308,-92.4452 74.4892,-82.7006 67.5048,-82.2342"/>
<text text-anchor="middle" x="79.5" y="-61.4" font-family="Times Roman,serif" font-size="14.00">a</text>
</g>
<!-- q3&#45;&gt;q2 -->
<g id="edge18" class="edge"><title>q3&#45;&gt;q2</title>
<path fill="none" stroke="black" d="M61.6665,-93.2914C57.67,-82.3255 54.6082,-68.0802 59,-56 60.8146,-51.0087 63.6306,-46.2211 66.841,-41.8422"/>
<polygon fill="black" stroke="black" points="69.6671,-43.9167 73.3411,-33.9793 64.272,-39.4567 69.6671,-43.9167"/>
<text text-anchor="middle" x="63.5" y="-61.4" font-family="Times Roman,serif" font-size="14.00">b</text>
</g>
<!-- q3&#45;&gt;q2 -->
<g id="edge20" class="edge"><title>q3&#45;&gt;q2</title>
<path fill="none" stroke="black" d="M77.7698,-93.2209C80.1107,-87.2179 82.4635,-80.4118 84,-74 86.0369,-65.4999 87.3838,-56.0931 88.2739,-47.4983"/>
<polygon fill="black" stroke="black" points="91.7608,-47.8006 89.1488,-37.5328 84.7876,-47.1884 91.7608,-47.8006"/>
<text text-anchor="middle" x="92.5" y="-61.4" font-family="Times Roman,serif" font-size="14.00">a</text>
</g>
<!-- q1 -->
<g id="node9" class="node"><title>q1</title>
<ellipse fill="none" stroke="black" cx="88" cy="-387" rx="27" ry="18.3848"/>
<text text-anchor="middle" x="88" y="-383.4" font-family="Times Roman,serif" font-size="14.00">q1</text>
</g>
<!-- q1&#45;&gt;q5 -->
<g id="edge10" class="edge"><title>q1&#45;&gt;q5</title>
<path fill="none" stroke="black" d="M76.8117,-370.126C67.6685,-356.336 54.5921,-336.614 44.1314,-320.837"/>
<polygon fill="black" stroke="black" points="46.7672,-318.479 38.324,-312.079 40.9331,-322.347 46.7672,-318.479"/>
<text text-anchor="middle" x="67.5" y="-337.4" font-family="Times Roman,serif" font-size="14.00">b</text>
</g>
<!-- q1&#45;&gt;q0 -->
<g id="edge12" class="edge"><title>q1&#45;&gt;q0</title>
<path fill="none" stroke="black" d="M90.9403,-368.345C96.034,-336.025 106.529,-269.438 112.53,-231.362"/>
<polygon fill="black" stroke="black" points="115.995,-231.854 114.095,-221.431 109.081,-230.764 115.995,-231.854"/>
<text text-anchor="middle" x="109.5" y="-291.4" font-family="Times Roman,serif" font-size="14.00">a</text>
</g>
<!-- q4 -->
<g id="node12" class="node"><title>q4</title>
<ellipse fill="none" stroke="black" cx="171" cy="-295" rx="27" ry="18.3848"/>
<text text-anchor="middle" x="171" y="-291.4" font-family="Times Roman,serif" font-size="14.00">q4</text>
</g>
<!-- q4&#45;&gt;q0 -->
<g id="edge14" class="edge"><title>q4&#45;&gt;q0</title>
<path fill="none" stroke="black" d="M160.843,-277.696C152.773,-263.946 141.359,-244.501 132.201,-228.898"/>
<polygon fill="black" stroke="black" points="135.192,-227.079 127.111,-220.227 129.155,-230.623 135.192,-227.079"/>
<text text-anchor="middle" x="152.5" y="-245.4" font-family="Times Roman,serif" font-size="14.00">b</text>
</g>
<!-- q4&#45;&gt;q4 -->
<g id="edge16" class="edge"><title>q4&#45;&gt;q4</title>
<path fill="none" stroke="black" d="M195.074,-303.454C206.242,-304.377 216,-301.559 216,-295 216,-290.593 211.595,-287.875 205.317,-286.846"/>
<polygon fill="black" stroke="black" points="205.173,-283.34 195.074,-286.546 204.967,-290.337 205.173,-283.34"/>
<text text-anchor="middle" x="220.5" y="-291.4" font-family="Times Roman,serif" font-size="14.00">a</text>
</g>
</g>
</svg>
