<?xml version="1.0" encoding="UTF-8" standalone="no"?>
<!DOCTYPE svg PUBLIC "-//W3C//DTD SVG 1.1//EN"
 "http://www.w3.org/Graphics/SVG/1.1/DTD/svg11.dtd">
<!-- Generated by graphviz version 2.26.3 (20100126.1600)
 -->
<!-- Title: G Pages: 1 -->
<svg width="120pt" height="322pt"
 viewBox="0.00 0.00 120.00 322.00" xmlns="http://www.w3.org/2000/svg" xmlns:xlink="http://www.w3.org/1999/xlink">
<g id="graph1" class="graph" transform="scale(1 1) rotate(0) translate(4 318)">
<title>G</title>
<polygon fill="white" stroke="white" points="-4,5 -4,-318 117,-318 117,5 -4,5"/>
<!-- q2 -->
<g id="node1" class="node"><title>q2</title>
<ellipse fill="none" stroke="black" cx="31" cy="-296" rx="27" ry="18"/>
<text text-anchor="middle" x="31" y="-291.9" font-family="Times Roman,serif" font-size="14.00">q2</text>
</g>
<!-- q2&#45;&gt;q2 -->
<g id="edge2" class="edge"><title>q2&#45;&gt;q2</title>
<path fill="none" stroke="black" d="M55.5325,-304.121C66.5078,-304.895 76,-302.188 76,-296 76,-291.843 71.7151,-289.257 65.5743,-288.242"/>
<polygon fill="black" stroke="black" points="65.6524,-284.742 55.5325,-287.879 65.3995,-291.738 65.6524,-284.742"/>
<text text-anchor="middle" x="80.5" y="-291.9" font-family="Times Roman,serif" font-size="14.00">b</text>
</g>
<!-- q4 -->
<g id="node4" class="node"><title>q4</title>
<ellipse fill="none" stroke="black" cx="31" cy="-206" rx="27" ry="18"/>
<text text-anchor="middle" x="31" y="-201.9" font-family="Times Roman,serif" font-size="14.00">q4</text>
</g>
<!-- q2&#45;&gt;q4 -->
<g id="edge4" class="edge"><title>q2&#45;&gt;q4</title>
<path fill="none" stroke="black" d="M31,-277.787C31,-265.344 31,-248.605 31,-234.421"/>
<polygon fill="black" stroke="black" points="34.5001,-234.186 31,-224.186 27.5001,-234.186 34.5001,-234.186"/>
<text text-anchor="middle" x="35.5" y="-246.9" font-family="Times Roman,serif" font-size="14.00">a</text>
</g>
<!-- q4&#45;&gt;q4 -->
<g id="edge8" class="edge"><title>q4&#45;&gt;q4</title>
<path fill="none" stroke="black" d="M55.5325,-214.121C66.5078,-214.895 76,-212.188 76,-206 76,-201.843 71.7151,-199.257 65.5743,-198.242"/>
<polygon fill="black" stroke="black" points="65.6524,-194.742 55.5325,-197.879 65.3995,-201.738 65.6524,-194.742"/>
<text text-anchor="middle" x="80.5" y="-201.9" font-family="Times Roman,serif" font-size="14.00">a</text>
</g>
<!-- q0 -->
<g id="node6" class="node"><title>q0</title>
<ellipse fill="none" stroke="black" cx="31" cy="-112" rx="27" ry="18"/>
<ellipse fill="none" stroke="black" cx="31" cy="-112" rx="31" ry="22"/>
<text text-anchor="middle" x="31" y="-107.9" font-family="Times Roman,serif" font-size="14.00">q0</text>
</g>
<!-- q4&#45;&gt;q0 -->
<g id="edge6" class="edge"><title>q4&#45;&gt;q0</title>
<path fill="none" stroke="black" d="M22.2399,-188.86C19.7028,-183.03 17.2748,-176.374 16,-170 14.192,-160.96 15.4343,-151.226 17.8315,-142.363"/>
<polygon fill="black" stroke="black" points="21.174,-143.402 20.9276,-132.81 14.515,-141.244 21.174,-143.402"/>
<text text-anchor="middle" x="20.5" y="-156.9" font-family="Times Roman,serif" font-size="14.00">b</text>
</g>
<!-- q0&#45;&gt;q4 -->
<g id="edge16" class="edge"><title>q0&#45;&gt;q4</title>
<path fill="none" stroke="black" d="M31,-134.039C31,-147.096 31,-163.773 31,-177.785"/>
<polygon fill="black" stroke="black" points="27.5001,-177.876 31,-187.876 34.5001,-177.876 27.5001,-177.876"/>
<text text-anchor="middle" x="35.5" y="-156.9" font-family="Times Roman,serif" font-size="14.00">a</text>
</g>
<!-- q3 -->
<g id="node8" class="node"><title>q3</title>
<ellipse fill="none" stroke="black" cx="31" cy="-18" rx="27" ry="18"/>
<text text-anchor="middle" x="31" y="-13.9" font-family="Times Roman,serif" font-size="14.00">q3</text>
</g>
<!-- q0&#45;&gt;q3 -->
<g id="edge14" class="edge"><title>q0&#45;&gt;q3</title>
<path fill="none" stroke="black" d="M31,-89.7233C31,-76.6578 31,-60.0289 31,-46.0729"/>
<polygon fill="black" stroke="black" points="34.5001,-46.025 31,-36.0251 27.5001,-46.0251 34.5001,-46.025"/>
<text text-anchor="middle" x="35.5" y="-58.9" font-family="Times Roman,serif" font-size="14.00">b</text>
</g>
<!-- q3&#45;&gt;q3 -->
<g id="edge10" class="edge"><title>q3&#45;&gt;q3</title>
<path fill="none" stroke="black" d="M57.3466,-22.1089C67.5332,-22.2915 76,-20.9219 76,-18 76,-16.1282 72.5252,-14.8934 67.3495,-14.2956"/>
<polygon fill="black" stroke="black" points="67.4799,-10.7982 57.3466,-13.8911 67.197,-17.7924 67.4799,-10.7982"/>
<text text-anchor="middle" x="80.5" y="-13.9" font-family="Times Roman,serif" font-size="14.00">b</text>
</g>
<!-- q3&#45;&gt;q3 -->
<g id="edge12" class="edge"><title>q3&#45;&gt;q3</title>
<path fill="none" stroke="black" d="M50.0264,-30.7871C70.6205,-39.0495 94,-34.7871 94,-18 94,-3.83588 77.3558,1.4117 59.784,-2.25728"/>
<polygon fill="black" stroke="black" points="58.5823,1.03581 50.0264,-5.21294 60.6116,-5.66359 58.5823,1.03581"/>
<text text-anchor="middle" x="98.5" y="-13.9" font-family="Times Roman,serif" font-size="14.00">a</text>
</g>
</g>
</svg>
