<?xml version="1.0" encoding="UTF-8" standalone="no"?>
<!DOCTYPE svg PUBLIC "-//W3C//DTD SVG 1.1//EN"
 "http://www.w3.org/Graphics/SVG/1.1/DTD/svg11.dtd">
<!-- Generated by graphviz version 2.26.3 (20100126.1600)
 -->
<!-- Title: G Pages: 1 -->
<svg width="187pt" height="420pt"
 viewBox="0.00 0.00 187.00 420.00" xmlns="http://www.w3.org/2000/svg" xmlns:xlink="http://www.w3.org/1999/xlink">
<g id="graph1" class="graph" transform="scale(1 1) rotate(0) translate(4 416)">
<title>G</title>
<polygon fill="white" stroke="white" points="-4,5 -4,-416 184,-416 184,5 -4,5"/>
<!-- q2 -->
<g id="node1" class="node"><title>q2</title>
<ellipse fill="none" stroke="black" cx="125" cy="-394" rx="27" ry="18"/>
<text text-anchor="middle" x="125" y="-389.9" font-family="Times Roman,serif" font-size="14.00">q2</text>
</g>
<!-- q2&#45;&gt;q2 -->
<g id="edge2" class="edge"><title>q2&#45;&gt;q2</title>
<path fill="none" stroke="black" d="M149.532,-402.121C160.508,-402.895 170,-400.188 170,-394 170,-389.843 165.715,-387.257 159.574,-386.242"/>
<polygon fill="black" stroke="black" points="159.652,-382.742 149.532,-385.879 159.4,-389.738 159.652,-382.742"/>
<text text-anchor="middle" x="174.5" y="-389.9" font-family="Times Roman,serif" font-size="14.00">b</text>
</g>
<!-- q1 -->
<g id="node4" class="node"><title>q1</title>
<ellipse fill="none" stroke="black" cx="125" cy="-304" rx="27" ry="18"/>
<text text-anchor="middle" x="125" y="-299.9" font-family="Times Roman,serif" font-size="14.00">q1</text>
</g>
<!-- q2&#45;&gt;q1 -->
<g id="edge4" class="edge"><title>q2&#45;&gt;q1</title>
<path fill="none" stroke="black" d="M125,-375.787C125,-363.344 125,-346.605 125,-332.421"/>
<polygon fill="black" stroke="black" points="128.5,-332.186 125,-322.186 121.5,-332.186 128.5,-332.186"/>
<text text-anchor="middle" x="129.5" y="-344.9" font-family="Times Roman,serif" font-size="14.00">a</text>
</g>
<!-- q3 -->
<g id="node6" class="node"><title>q3</title>
<ellipse fill="none" stroke="black" cx="31" cy="-210" rx="27" ry="18"/>
<ellipse fill="none" stroke="black" cx="31" cy="-210" rx="31" ry="22"/>
<text text-anchor="middle" x="31" y="-205.9" font-family="Times Roman,serif" font-size="14.00">q3</text>
</g>
<!-- q1&#45;&gt;q3 -->
<g id="edge6" class="edge"><title>q1&#45;&gt;q3</title>
<path fill="none" stroke="black" d="M109.897,-288.897C95.4957,-274.496 73.5287,-252.529 56.4276,-235.428"/>
<polygon fill="black" stroke="black" points="58.5034,-232.554 48.9574,-227.957 53.5536,-237.503 58.5034,-232.554"/>
<text text-anchor="middle" x="91.5" y="-254.9" font-family="Times Roman,serif" font-size="14.00">b</text>
</g>
<!-- q4 -->
<g id="node8" class="node"><title>q4</title>
<ellipse fill="none" stroke="black" cx="125" cy="-116" rx="27" ry="18"/>
<text text-anchor="middle" x="125" y="-111.9" font-family="Times Roman,serif" font-size="14.00">q4</text>
</g>
<!-- q1&#45;&gt;q4 -->
<g id="edge8" class="edge"><title>q1&#45;&gt;q4</title>
<path fill="none" stroke="black" d="M125,-285.974C125,-253.211 125,-183.672 125,-144.451"/>
<polygon fill="black" stroke="black" points="128.5,-144.248 125,-134.248 121.5,-144.248 128.5,-144.248"/>
<text text-anchor="middle" x="129.5" y="-205.9" font-family="Times Roman,serif" font-size="14.00">a</text>
</g>
<!-- q3&#45;&gt;q3 -->
<g id="edge14" class="edge"><title>q3&#45;&gt;q3</title>
<path fill="none" stroke="black" d="M59.6885,-218.965C70.7806,-219.363 80,-216.375 80,-210 80,-205.717 75.8382,-202.962 69.7429,-201.737"/>
<polygon fill="black" stroke="black" points="69.9079,-198.24 59.6885,-201.035 69.4205,-205.223 69.9079,-198.24"/>
<text text-anchor="middle" x="84.5" y="-205.9" font-family="Times Roman,serif" font-size="14.00">b</text>
</g>
<!-- q3&#45;&gt;q4 -->
<g id="edge16" class="edge"><title>q3&#45;&gt;q4</title>
<path fill="none" stroke="black" d="M49.1241,-191.876C64.3915,-176.609 86.2959,-154.704 102.648,-138.352"/>
<polygon fill="black" stroke="black" points="105.131,-140.819 109.727,-131.273 100.181,-135.869 105.131,-140.819"/>
<text text-anchor="middle" x="91.5" y="-156.9" font-family="Times Roman,serif" font-size="14.00">a</text>
</g>
<!-- q4&#45;&gt;q1 -->
<g id="edge12" class="edge"><title>q4&#45;&gt;q1</title>
<path fill="none" stroke="black" d="M133.179,-133.195C135.547,-139.028 137.813,-145.673 139,-152 148.506,-202.672 148.506,-217.328 139,-268 138.425,-271.065 137.597,-274.204 136.627,-277.289"/>
<polygon fill="black" stroke="black" points="133.295,-276.211 133.179,-286.805 139.876,-278.596 133.295,-276.211"/>
<text text-anchor="middle" x="150.5" y="-205.9" font-family="Times Roman,serif" font-size="14.00">a</text>
</g>
<!-- q0 -->
<g id="node10" class="node"><title>q0</title>
<ellipse fill="none" stroke="black" cx="125" cy="-22" rx="27" ry="18"/>
<ellipse fill="none" stroke="black" cx="125" cy="-22" rx="31" ry="22"/>
<text text-anchor="middle" x="125" y="-17.9" font-family="Times Roman,serif" font-size="14.00">q0</text>
</g>
<!-- q4&#45;&gt;q0 -->
<g id="edge10" class="edge"><title>q4&#45;&gt;q0</title>
<path fill="none" stroke="black" d="M108.349,-101.502C102.661,-95.4908 96.9852,-88.0416 94,-80 91.2159,-72.5001 91.4103,-69.5692 94,-62 95.6211,-57.2617 98.0572,-52.6505 100.865,-48.3445"/>
<polygon fill="black" stroke="black" points="103.903,-50.1214 107.008,-39.9919 98.2637,-45.9739 103.903,-50.1214"/>
<text text-anchor="middle" x="98.5" y="-66.9" font-family="Times Roman,serif" font-size="14.00">b</text>
</g>
<!-- q0&#45;&gt;q4 -->
<g id="edge18" class="edge"><title>q0&#45;&gt;q4</title>
<path fill="none" stroke="black" d="M125,-44.0388C125,-57.0958 125,-73.7734 125,-87.785"/>
<polygon fill="black" stroke="black" points="121.5,-87.8758 125,-97.8759 128.5,-87.8759 121.5,-87.8758"/>
<text text-anchor="middle" x="129.5" y="-66.9" font-family="Times Roman,serif" font-size="14.00">b</text>
</g>
<!-- q0&#45;&gt;q4 -->
<g id="edge20" class="edge"><title>q0&#45;&gt;q4</title>
<path fill="none" stroke="black" d="M131.937,-43.7022C134.597,-54.5722 136.642,-67.952 135,-80 134.627,-82.7376 134.101,-85.5608 133.484,-88.3653"/>
<polygon fill="black" stroke="black" points="130.041,-87.6996 130.956,-98.2549 136.823,-89.4331 130.041,-87.6996"/>
<text text-anchor="middle" x="139.5" y="-66.9" font-family="Times Roman,serif" font-size="14.00">a</text>
</g>
</g>
</svg>
