<?xml version="1.0" encoding="UTF-8" standalone="no"?>
<!DOCTYPE svg PUBLIC "-//W3C//DTD SVG 1.1//EN"
 "http://www.w3.org/Graphics/SVG/1.1/DTD/svg11.dtd">
<!-- Generated by graphviz version 2.26.3 (20100126.1600)
 -->
<!-- Title: G Pages: 1 -->
<svg width="188pt" height="414pt"
 viewBox="0.00 0.00 188.00 414.00" xmlns="http://www.w3.org/2000/svg" xmlns:xlink="http://www.w3.org/1999/xlink">
<g id="graph1" class="graph" transform="scale(1 1) rotate(0) translate(4 410)">
<title>G</title>
<polygon fill="white" stroke="white" points="-4,5 -4,-410 185,-410 185,5 -4,5"/>
<!-- q5 -->
<g id="node1" class="node"><title>q5</title>
<ellipse fill="none" stroke="black" cx="76" cy="-295" rx="27" ry="18.3848"/>
<text text-anchor="middle" x="76" y="-291.4" font-family="Times Roman,serif" font-size="14.00">q5</text>
</g>
<!-- q5&#45;&gt;q5 -->
<g id="edge4" class="edge"><title>q5&#45;&gt;q5</title>
<path fill="none" stroke="black" d="M100.074,-303.454C111.242,-304.377 121,-301.559 121,-295 121,-290.593 116.595,-287.875 110.317,-286.846"/>
<polygon fill="black" stroke="black" points="110.173,-283.34 100.074,-286.546 109.967,-290.337 110.173,-283.34"/>
<text text-anchor="middle" x="125.5" y="-291.4" font-family="Times Roman,serif" font-size="14.00">a</text>
</g>
<!-- q0 -->
<g id="node3" class="node"><title>q0</title>
<ellipse fill="none" stroke="black" cx="76" cy="-203" rx="27" ry="18.3848"/>
<text text-anchor="middle" x="76" y="-199.4" font-family="Times Roman,serif" font-size="14.00">q0</text>
</g>
<!-- q5&#45;&gt;q0 -->
<g id="edge2" class="edge"><title>q5&#45;&gt;q0</title>
<path fill="none" stroke="black" d="M76,-276.382C76,-263.538 76,-246.216 76,-231.627"/>
<polygon fill="black" stroke="black" points="79.5001,-231.59 76,-221.59 72.5001,-231.59 79.5001,-231.59"/>
<text text-anchor="middle" x="80.5" y="-245.4" font-family="Times Roman,serif" font-size="14.00">b</text>
</g>
<!-- q0&#45;&gt;q0 -->
<g id="edge22" class="edge"><title>q0&#45;&gt;q0</title>
<path fill="none" stroke="black" d="M100.074,-211.454C111.242,-212.377 121,-209.559 121,-203 121,-198.593 116.595,-195.875 110.317,-194.846"/>
<polygon fill="black" stroke="black" points="110.173,-191.34 100.074,-194.546 109.967,-198.337 110.173,-191.34"/>
<text text-anchor="middle" x="125.5" y="-199.4" font-family="Times Roman,serif" font-size="14.00">b</text>
</g>
<!-- q3 -->
<g id="node7" class="node"><title>q3</title>
<ellipse fill="none" stroke="black" cx="76" cy="-111" rx="27" ry="18.3848"/>
<text text-anchor="middle" x="76" y="-107.4" font-family="Times Roman,serif" font-size="14.00">q3</text>
</g>
<!-- q0&#45;&gt;q3 -->
<g id="edge24" class="edge"><title>q0&#45;&gt;q3</title>
<path fill="none" stroke="black" d="M76,-184.382C76,-171.538 76,-154.216 76,-139.627"/>
<polygon fill="black" stroke="black" points="79.5001,-139.59 76,-129.59 72.5001,-139.59 79.5001,-139.59"/>
<text text-anchor="middle" x="80.5" y="-153.4" font-family="Times Roman,serif" font-size="14.00">a</text>
</g>
<!-- q2 -->
<g id="node5" class="node"><title>q2</title>
<ellipse fill="none" stroke="black" cx="76" cy="-19" rx="27" ry="18.3848"/>
<text text-anchor="middle" x="76" y="-15.4" font-family="Times Roman,serif" font-size="14.00">q2</text>
</g>
<!-- q2&#45;&gt;q3 -->
<g id="edge6" class="edge"><title>q2&#45;&gt;q3</title>
<path fill="none" stroke="black" d="M67.2385,-36.6393C64.7013,-42.6329 62.2735,-49.4689 61,-56 59.4689,-63.8521 59.4689,-66.1479 61,-74 61.6368,-77.2656 62.5621,-80.6073 63.6454,-83.8819"/>
<polygon fill="black" stroke="black" points="60.4211,-85.2506 67.2385,-93.3607 66.9666,-82.7694 60.4211,-85.2506"/>
<text text-anchor="middle" x="65.5" y="-61.4" font-family="Times Roman,serif" font-size="14.00">b</text>
</g>
<!-- q2&#45;&gt;q3 -->
<g id="edge8" class="edge"><title>q2&#45;&gt;q3</title>
<path fill="none" stroke="black" d="M76,-37.5899C76,-50.4275 76,-67.7485 76,-82.3416"/>
<polygon fill="black" stroke="black" points="72.5001,-82.3824 76,-92.3824 79.5001,-82.3825 72.5001,-82.3824"/>
<text text-anchor="middle" x="80.5" y="-61.4" font-family="Times Roman,serif" font-size="14.00">a</text>
</g>
<!-- q3&#45;&gt;q2 -->
<g id="edge18" class="edge"><title>q3&#45;&gt;q2</title>
<path fill="none" stroke="black" d="M60.3989,-95.8436C55.0751,-89.6343 49.7696,-82.0234 47,-74 44.3896,-66.4379 44.3896,-63.5621 47,-56 48.6445,-51.2361 51.1829,-46.6176 54.0884,-42.3516"/>
<polygon fill="black" stroke="black" points="57.0709,-44.215 60.3989,-34.1564 51.5247,-39.9443 57.0709,-44.215"/>
<text text-anchor="middle" x="51.5" y="-61.4" font-family="Times Roman,serif" font-size="14.00">b</text>
</g>
<!-- q3&#45;&gt;q2 -->
<g id="edge20" class="edge"><title>q3&#45;&gt;q2</title>
<path fill="none" stroke="black" d="M83.7362,-92.8815C85.8853,-86.9733 87.9239,-80.3089 89,-74 90.3451,-66.1139 90.3451,-63.8861 89,-56 88.4788,-52.9441 87.7317,-49.8048 86.8557,-46.7085"/>
<polygon fill="black" stroke="black" points="90.1579,-45.5453 83.7362,-37.1185 83.5012,-47.7107 90.1579,-45.5453"/>
<text text-anchor="middle" x="94.5" y="-61.4" font-family="Times Roman,serif" font-size="14.00">a</text>
</g>
<!-- q1 -->
<g id="node9" class="node"><title>q1</title>
<ellipse fill="none" stroke="black" cx="27" cy="-387" rx="27" ry="18.3848"/>
<text text-anchor="middle" x="27" y="-383.4" font-family="Times Roman,serif" font-size="14.00">q1</text>
</g>
<!-- q1&#45;&gt;q5 -->
<g id="edge10" class="edge"><title>q1&#45;&gt;q5</title>
<path fill="none" stroke="black" d="M36.4477,-369.261C43.6332,-355.77 53.6389,-336.984 61.7886,-321.683"/>
<polygon fill="black" stroke="black" points="64.9695,-323.156 66.5813,-312.684 58.7912,-319.865 64.9695,-323.156"/>
<text text-anchor="middle" x="60.5" y="-337.4" font-family="Times Roman,serif" font-size="14.00">b</text>
</g>
<!-- q1&#45;&gt;q1 -->
<g id="edge12" class="edge"><title>q1&#45;&gt;q1</title>
<path fill="none" stroke="black" d="M51.0743,-395.454C62.2423,-396.377 72,-393.559 72,-387 72,-382.593 67.5952,-379.875 61.3174,-378.846"/>
<polygon fill="black" stroke="black" points="61.1726,-375.34 51.0743,-378.546 60.9674,-382.337 61.1726,-375.34"/>
<text text-anchor="middle" x="76.5" y="-383.4" font-family="Times Roman,serif" font-size="14.00">a</text>
</g>
<!-- q4 -->
<g id="node12" class="node"><title>q4</title>
<ellipse fill="none" stroke="black" cx="126" cy="-387" rx="27" ry="18.3848"/>
<text text-anchor="middle" x="126" y="-383.4" font-family="Times Roman,serif" font-size="14.00">q4</text>
</g>
<!-- q4&#45;&gt;q5 -->
<g id="edge14" class="edge"><title>q4&#45;&gt;q5</title>
<path fill="none" stroke="black" d="M116.359,-369.261C108.98,-355.684 98.6864,-336.743 90.3417,-321.389"/>
<polygon fill="black" stroke="black" points="93.2917,-319.487 85.4413,-312.372 87.1413,-322.83 93.2917,-319.487"/>
<text text-anchor="middle" x="109.5" y="-337.4" font-family="Times Roman,serif" font-size="14.00">b</text>
</g>
<!-- q4&#45;&gt;q4 -->
<g id="edge16" class="edge"><title>q4&#45;&gt;q4</title>
<path fill="none" stroke="black" d="M150.074,-395.454C161.242,-396.377 171,-393.559 171,-387 171,-382.593 166.595,-379.875 160.317,-378.846"/>
<polygon fill="black" stroke="black" points="160.173,-375.34 150.074,-378.546 159.967,-382.337 160.173,-375.34"/>
<text text-anchor="middle" x="175.5" y="-383.4" font-family="Times Roman,serif" font-size="14.00">a</text>
</g>
</g>
</svg>
