<?xml version="1.0" encoding="UTF-8" standalone="no"?>
<!DOCTYPE svg PUBLIC "-//W3C//DTD SVG 1.1//EN"
 "http://www.w3.org/Graphics/SVG/1.1/DTD/svg11.dtd">
<!-- Generated by graphviz version 2.26.3 (20100126.1600)
 -->
<!-- Title: G Pages: 1 -->
<svg width="127pt" height="238pt"
 viewBox="0.00 0.00 127.00 238.00" xmlns="http://www.w3.org/2000/svg" xmlns:xlink="http://www.w3.org/1999/xlink">
<g id="graph1" class="graph" transform="scale(1 1) rotate(0) translate(4 234)">
<title>G</title>
<polygon fill="white" stroke="white" points="-4,5 -4,-234 124,-234 124,5 -4,5"/>
<!-- q2 -->
<g id="node1" class="node"><title>q2</title>
<ellipse fill="none" stroke="black" cx="27" cy="-111" rx="27" ry="18.3848"/>
<text text-anchor="middle" x="27" y="-107.4" font-family="Times Roman,serif" font-size="14.00">q2</text>
</g>
<!-- q2&#45;&gt;q2 -->
<g id="edge2" class="edge"><title>q2&#45;&gt;q2</title>
<path fill="none" stroke="black" d="M51.0743,-119.454C62.2423,-120.377 72,-117.559 72,-111 72,-106.593 67.5952,-103.875 61.3174,-102.846"/>
<polygon fill="black" stroke="black" points="61.1726,-99.3402 51.0743,-102.546 60.9674,-106.337 61.1726,-99.3402"/>
<text text-anchor="middle" x="76.5" y="-107.4" font-family="Times Roman,serif" font-size="14.00">b</text>
</g>
<!-- q3 -->
<g id="node4" class="node"><title>q3</title>
<ellipse fill="none" stroke="black" cx="59" cy="-19" rx="27" ry="18.3848"/>
<text text-anchor="middle" x="59" y="-15.4" font-family="Times Roman,serif" font-size="14.00">q3</text>
</g>
<!-- q2&#45;&gt;q3 -->
<g id="edge4" class="edge"><title>q2&#45;&gt;q3</title>
<path fill="none" stroke="black" d="M24.3087,-92.3423C23.4654,-81.4151 23.6856,-67.5396 28,-56 29.8599,-51.0254 32.6988,-46.2462 35.9179,-41.8706"/>
<polygon fill="black" stroke="black" points="38.7441,-43.9451 42.4197,-34.0083 33.3497,-39.4841 38.7441,-43.9451"/>
<text text-anchor="middle" x="32.5" y="-61.4" font-family="Times Roman,serif" font-size="14.00">a</text>
</g>
<!-- q3&#45;&gt;q2 -->
<g id="edge8" class="edge"><title>q3&#45;&gt;q2</title>
<path fill="none" stroke="black" d="M52.691,-37.1385C48.136,-50.2339 41.8999,-68.1627 36.7124,-83.0767"/>
<polygon fill="black" stroke="black" points="33.3017,-82.2289 33.3222,-92.8238 39.9132,-84.5286 33.3017,-82.2289"/>
<text text-anchor="middle" x="49.5" y="-61.4" font-family="Times Roman,serif" font-size="14.00">a</text>
</g>
<!-- q3&#45;&gt;q3 -->
<g id="edge6" class="edge"><title>q3&#45;&gt;q3</title>
<path fill="none" stroke="black" d="M83.0743,-27.4544C94.2423,-28.3767 104,-25.5586 104,-19 104,-14.5934 99.5952,-11.8754 93.3174,-10.8458"/>
<polygon fill="black" stroke="black" points="93.1726,-7.34018 83.0743,-10.5456 92.9674,-14.3372 93.1726,-7.34018"/>
<text text-anchor="middle" x="108.5" y="-15.4" font-family="Times Roman,serif" font-size="14.00">b</text>
</g>
<!-- q0 -->
<g id="node7" class="node"><title>q0</title>
<ellipse fill="none" stroke="black" cx="88" cy="-207" rx="27" ry="18.3848"/>
<ellipse fill="none" stroke="black" cx="88" cy="-207" rx="31" ry="22.3848"/>
<text text-anchor="middle" x="88" y="-203.4" font-family="Times Roman,serif" font-size="14.00">q0</text>
</g>
<!-- q0&#45;&gt;q2 -->
<g id="edge10" class="edge"><title>q0&#45;&gt;q2</title>
<path fill="none" stroke="black" d="M74.7639,-186.169C65.5664,-171.695 53.2458,-152.305 43.4217,-136.844"/>
<polygon fill="black" stroke="black" points="46.2855,-134.825 37.9683,-128.262 40.3773,-138.579 46.2855,-134.825"/>
<text text-anchor="middle" x="65.5" y="-153.4" font-family="Times Roman,serif" font-size="14.00">b</text>
</g>
<!-- q0&#45;&gt;q3 -->
<g id="edge12" class="edge"><title>q0&#45;&gt;q3</title>
<path fill="none" stroke="black" d="M91.2708,-184.259C93.9678,-160.866 96.4119,-123.503 90,-92 86.7295,-75.9314 79.7929,-59.0147 73.309,-45.5165"/>
<polygon fill="black" stroke="black" points="76.3297,-43.7316 68.7267,-36.3529 70.0689,-46.8624 76.3297,-43.7316"/>
<text text-anchor="middle" x="97.5" y="-107.4" font-family="Times Roman,serif" font-size="14.00">a</text>
</g>
</g>
</svg>
