<?xml version="1.0" encoding="UTF-8" standalone="no"?>
<!DOCTYPE svg PUBLIC "-//W3C//DTD SVG 1.1//EN"
 "http://www.w3.org/Graphics/SVG/1.1/DTD/svg11.dtd">
<!-- Generated by graphviz version 2.26.3 (20100126.1600)
 -->
<!-- Title: G Pages: 1 -->
<svg width="129pt" height="322pt"
 viewBox="0.00 0.00 129.00 322.00" xmlns="http://www.w3.org/2000/svg" xmlns:xlink="http://www.w3.org/1999/xlink">
<g id="graph1" class="graph" transform="scale(1 1) rotate(0) translate(4 318)">
<title>G</title>
<polygon fill="white" stroke="white" points="-4,5 -4,-318 126,-318 126,5 -4,5"/>
<!-- q1 -->
<g id="node1" class="node"><title>q1</title>
<ellipse fill="none" stroke="black" cx="90" cy="-292" rx="27" ry="18"/>
<ellipse fill="none" stroke="black" cx="90" cy="-292" rx="31" ry="22"/>
<text text-anchor="middle" x="90" y="-287.9" font-family="Times Roman,serif" font-size="14.00">q1</text>
</g>
<!-- q3 -->
<g id="node3" class="node"><title>q3</title>
<ellipse fill="none" stroke="black" cx="27" cy="-198" rx="27" ry="18"/>
<text text-anchor="middle" x="27" y="-193.9" font-family="Times Roman,serif" font-size="14.00">q3</text>
</g>
<!-- q1&#45;&gt;q3 -->
<g id="edge2" class="edge"><title>q1&#45;&gt;q3</title>
<path fill="none" stroke="black" d="M76.6393,-272.065C67.0378,-257.739 54.0254,-238.324 43.7322,-222.966"/>
<polygon fill="black" stroke="black" points="46.5072,-220.819 38.0323,-214.461 40.6923,-224.716 46.5072,-220.819"/>
<text text-anchor="middle" x="67.5" y="-238.9" font-family="Times Roman,serif" font-size="14.00">b</text>
</g>
<!-- q4 -->
<g id="node5" class="node"><title>q4</title>
<ellipse fill="none" stroke="black" cx="88" cy="-108" rx="27" ry="18"/>
<text text-anchor="middle" x="88" y="-103.9" font-family="Times Roman,serif" font-size="14.00">q4</text>
</g>
<!-- q1&#45;&gt;q4 -->
<g id="edge4" class="edge"><title>q1&#45;&gt;q4</title>
<path fill="none" stroke="black" d="M89.7588,-269.805C89.3947,-236.312 88.7052,-172.875 88.3062,-136.169"/>
<polygon fill="black" stroke="black" points="91.8057,-136.096 88.1971,-126.135 84.8061,-136.172 91.8057,-136.096"/>
<text text-anchor="middle" x="93.5" y="-193.9" font-family="Times Roman,serif" font-size="14.00">a</text>
</g>
<!-- q3&#45;&gt;q4 -->
<g id="edge12" class="edge"><title>q3&#45;&gt;q4</title>
<path fill="none" stroke="black" d="M38.1883,-181.493C47.3315,-168.003 60.4079,-148.71 70.8686,-133.276"/>
<polygon fill="black" stroke="black" points="73.9627,-134.949 76.676,-124.708 68.1682,-131.022 73.9627,-134.949"/>
<text text-anchor="middle" x="67.5" y="-148.9" font-family="Times Roman,serif" font-size="14.00">a</text>
</g>
<!-- q0 -->
<g id="node8" class="node"><title>q0</title>
<ellipse fill="none" stroke="darkred" cx="33" cy="-18" rx="27" ry="18"/>
<text text-anchor="middle" x="33" y="-13.9" font-family="Times Roman,serif" font-size="14.00">q0</text>
</g>
<!-- q3&#45;&gt;q0 -->
<g id="edge10" class="edge"><title>q3&#45;&gt;q0</title>
<path fill="none" stroke="black" d="M27.6083,-179.75C28.6577,-148.269 30.815,-83.5502 32.0592,-46.2249"/>
<polygon fill="black" stroke="black" points="35.5638,-46.1417 32.399,-36.0306 28.5677,-45.9084 35.5638,-46.1417"/>
<text text-anchor="middle" x="35.5" y="-103.9" font-family="Times Roman,serif" font-size="14.00">b</text>
</g>
<!-- q4&#45;&gt;q1 -->
<g id="edge6" class="edge"><title>q4&#45;&gt;q1</title>
<path fill="none" stroke="black" d="M96.1381,-125.202C98.5036,-131.037 100.778,-137.679 102,-144 117.94,-226.438 106.472,-230.082 103,-252 102.539,-254.907 101.902,-257.891 101.154,-260.855"/>
<polygon fill="black" stroke="black" points="97.7178,-260.135 98.2845,-270.715 104.439,-262.091 97.7178,-260.135"/>
<text text-anchor="middle" x="114.5" y="-193.9" font-family="Times Roman,serif" font-size="14.00">b</text>
</g>
<!-- q4&#45;&gt;q0 -->
<g id="edge8" class="edge"><title>q4&#45;&gt;q0</title>
<path fill="none" stroke="black" d="M77.6549,-91.0717C69.5119,-77.7467 58.0275,-58.9541 48.7446,-43.7639"/>
<polygon fill="black" stroke="black" points="51.4997,-41.5601 43.2987,-34.8524 45.5267,-45.2103 51.4997,-41.5601"/>
<text text-anchor="middle" x="70.5" y="-58.9" font-family="Times Roman,serif" font-size="14.00">a</text>
</g>
<!-- q0&#45;&gt;q3 -->
<g id="edge14" class="edge"><title>q0&#45;&gt;q3</title>
<path fill="none" stroke="black" d="M27.8852,-35.867C24.0247,-50.3262 19.0539,-71.2892 17,-90 14.0159,-117.185 17.6362,-148.285 21.3278,-170.108"/>
<polygon fill="black" stroke="black" points="17.8959,-170.799 23.1171,-180.018 24.7845,-169.555 17.8959,-170.799"/>
<text text-anchor="middle" x="21.5" y="-103.9" font-family="Times Roman,serif" font-size="14.00">b</text>
</g>
<!-- q0&#45;&gt;q0 -->
<g id="edge16" class="edge"><title>q0&#45;&gt;q0</title>
<path fill="none" stroke="black" d="M57.5325,-26.1211C68.5078,-26.8945 78,-24.1875 78,-18 78,-13.8428 73.7151,-11.2567 67.5743,-10.2417"/>
<polygon fill="black" stroke="black" points="67.6524,-6.74237 57.5325,-9.87891 67.3995,-13.7378 67.6524,-6.74237"/>
<text text-anchor="middle" x="82.5" y="-13.9" font-family="Times Roman,serif" font-size="14.00">a</text>
</g>
</g>
</svg>
