<?xml version="1.0" encoding="UTF-8" standalone="no"?>
<!DOCTYPE svg PUBLIC "-//W3C//DTD SVG 1.1//EN"
 "http://www.w3.org/Graphics/SVG/1.1/DTD/svg11.dtd">
<!-- Generated by graphviz version 2.26.3 (20100126.1600)
 -->
<!-- Title: G Pages: 1 -->
<svg width="174pt" height="510pt"
 viewBox="0.00 0.00 174.00 510.00" xmlns="http://www.w3.org/2000/svg" xmlns:xlink="http://www.w3.org/1999/xlink">
<g id="graph1" class="graph" transform="scale(1 1) rotate(0) translate(4 506)">
<title>G</title>
<polygon fill="white" stroke="white" points="-4,5 -4,-506 171,-506 171,5 -4,5"/>
<!-- q6 -->
<g id="node1" class="node"><title>q6</title>
<ellipse fill="none" stroke="black" cx="59" cy="-484" rx="27" ry="18"/>
<text text-anchor="middle" x="59" y="-479.9" font-family="Times Roman,serif" font-size="14.00">q6</text>
</g>
<!-- q7 -->
<g id="node3" class="node"><title>q7</title>
<ellipse fill="none" stroke="black" cx="59" cy="-390" rx="27" ry="18"/>
<ellipse fill="none" stroke="black" cx="59" cy="-390" rx="31" ry="22"/>
<text text-anchor="middle" x="59" y="-385.9" font-family="Times Roman,serif" font-size="14.00">q7</text>
</g>
<!-- q6&#45;&gt;q7 -->
<g id="edge2" class="edge"><title>q6&#45;&gt;q7</title>
<path fill="none" stroke="black" d="M59,-465.876C59,-453.512 59,-436.795 59,-422.199"/>
<polygon fill="black" stroke="black" points="62.5001,-422.039 59,-412.039 55.5001,-422.039 62.5001,-422.039"/>
<text text-anchor="middle" x="63.5" y="-434.9" font-family="Times Roman,serif" font-size="14.00">b</text>
</g>
<!-- q4 -->
<g id="node5" class="node"><title>q4</title>
<ellipse fill="none" stroke="black" cx="112" cy="-296" rx="27" ry="18"/>
<text text-anchor="middle" x="112" y="-291.9" font-family="Times Roman,serif" font-size="14.00">q4</text>
</g>
<!-- q6&#45;&gt;q4 -->
<g id="edge4" class="edge"><title>q6&#45;&gt;q4</title>
<path fill="none" stroke="black" d="M77.5341,-470.723C93.7947,-457.829 116.313,-436.63 126,-412 137.369,-383.094 130.128,-347.266 122.473,-323.138"/>
<polygon fill="black" stroke="black" points="125.752,-321.91 119.22,-313.569 119.125,-324.163 125.752,-321.91"/>
<text text-anchor="middle" x="135.5" y="-385.9" font-family="Times Roman,serif" font-size="14.00">a</text>
</g>
<!-- q7&#45;&gt;q7 -->
<g id="edge8" class="edge"><title>q7&#45;&gt;q7</title>
<path fill="none" stroke="black" d="M87.6885,-398.965C98.7806,-399.363 108,-396.375 108,-390 108,-385.717 103.838,-382.962 97.7429,-381.737"/>
<polygon fill="black" stroke="black" points="97.9079,-378.24 87.6885,-381.035 97.4205,-385.223 97.9079,-378.24"/>
<text text-anchor="middle" x="112.5" y="-385.9" font-family="Times Roman,serif" font-size="14.00">a</text>
</g>
<!-- q7&#45;&gt;q4 -->
<g id="edge6" class="edge"><title>q7&#45;&gt;q4</title>
<path fill="none" stroke="black" d="M70.7624,-369.138C78.642,-355.163 89.0704,-336.668 97.4686,-321.773"/>
<polygon fill="black" stroke="black" points="100.532,-323.466 102.394,-313.036 94.4342,-320.028 100.532,-323.466"/>
<text text-anchor="middle" x="95.5" y="-336.9" font-family="Times Roman,serif" font-size="14.00">b</text>
</g>
<!-- q4&#45;&gt;q4 -->
<g id="edge16" class="edge"><title>q4&#45;&gt;q4</title>
<path fill="none" stroke="black" d="M136.532,-304.121C147.508,-304.895 157,-302.188 157,-296 157,-291.843 152.715,-289.257 146.574,-288.242"/>
<polygon fill="black" stroke="black" points="146.652,-284.742 136.532,-287.879 146.4,-291.738 146.652,-284.742"/>
<text text-anchor="middle" x="161.5" y="-291.9" font-family="Times Roman,serif" font-size="14.00">a</text>
</g>
<!-- q2 -->
<g id="node8" class="node"><title>q2</title>
<ellipse fill="none" stroke="black" cx="57" cy="-206" rx="27" ry="18"/>
<text text-anchor="middle" x="57" y="-201.9" font-family="Times Roman,serif" font-size="14.00">q2</text>
</g>
<!-- q4&#45;&gt;q2 -->
<g id="edge14" class="edge"><title>q4&#45;&gt;q2</title>
<path fill="none" stroke="black" d="M101.655,-279.072C93.5119,-265.747 82.0275,-246.954 72.7446,-231.764"/>
<polygon fill="black" stroke="black" points="75.4997,-229.56 67.2987,-222.852 69.5267,-233.21 75.4997,-229.56"/>
<text text-anchor="middle" x="94.5" y="-246.9" font-family="Times Roman,serif" font-size="14.00">b</text>
</g>
<!-- q2&#45;&gt;q7 -->
<g id="edge10" class="edge"><title>q2&#45;&gt;q7</title>
<path fill="none" stroke="black" d="M57.1971,-224.135C57.5342,-255.144 58.2256,-318.756 58.6474,-357.565"/>
<polygon fill="black" stroke="black" points="55.1502,-357.844 58.7588,-367.805 62.1498,-357.768 55.1502,-357.844"/>
<text text-anchor="middle" x="63.5" y="-291.9" font-family="Times Roman,serif" font-size="14.00">b</text>
</g>
<!-- q0 -->
<g id="node11" class="node"><title>q0</title>
<ellipse fill="none" stroke="black" cx="57" cy="-116" rx="27" ry="18"/>
<text text-anchor="middle" x="57" y="-111.9" font-family="Times Roman,serif" font-size="14.00">q0</text>
</g>
<!-- q2&#45;&gt;q0 -->
<g id="edge12" class="edge"><title>q2&#45;&gt;q0</title>
<path fill="none" stroke="black" d="M57,-187.787C57,-175.344 57,-158.605 57,-144.421"/>
<polygon fill="black" stroke="black" points="60.5001,-144.186 57,-134.186 53.5001,-144.186 60.5001,-144.186"/>
<text text-anchor="middle" x="61.5" y="-156.9" font-family="Times Roman,serif" font-size="14.00">a</text>
</g>
<!-- q0&#45;&gt;q6 -->
<g id="edge24" class="edge"><title>q0&#45;&gt;q6</title>
<path fill="none" stroke="black" d="M40.5132,-130.464C23.679,-146.917 0,-175.483 0,-206 0,-390 0,-390 0,-390 0,-417.904 18.8813,-444.319 35.2814,-462"/>
<polygon fill="black" stroke="black" points="33.0821,-464.758 42.5652,-469.483 38.0982,-459.876 33.0821,-464.758"/>
<text text-anchor="middle" x="4.5" y="-291.9" font-family="Times Roman,serif" font-size="14.00">a</text>
</g>
<!-- q3 -->
<g id="node14" class="node"><title>q3</title>
<ellipse fill="none" stroke="black" cx="89" cy="-22" rx="27" ry="18"/>
<ellipse fill="none" stroke="black" cx="89" cy="-22" rx="31" ry="22"/>
<text text-anchor="middle" x="89" y="-17.9" font-family="Times Roman,serif" font-size="14.00">q3</text>
</g>
<!-- q0&#45;&gt;q3 -->
<g id="edge22" class="edge"><title>q0&#45;&gt;q3</title>
<path fill="none" stroke="black" d="M63.019,-98.3193C67.3143,-85.7017 73.2076,-68.3903 78.2955,-53.4444"/>
<polygon fill="black" stroke="black" points="81.7504,-54.1563 81.6598,-43.5618 75.1238,-51.9004 81.7504,-54.1563"/>
<text text-anchor="middle" x="79.5" y="-66.9" font-family="Times Roman,serif" font-size="14.00">b</text>
</g>
<!-- q3&#45;&gt;q4 -->
<g id="edge18" class="edge"><title>q3&#45;&gt;q4</title>
<path fill="none" stroke="black" d="M90.8603,-44.1615C95.02,-93.7171 105.068,-213.413 109.651,-268.011"/>
<polygon fill="black" stroke="black" points="106.167,-268.35 110.491,-278.022 113.142,-267.764 106.167,-268.35"/>
<text text-anchor="middle" x="105.5" y="-156.9" font-family="Times Roman,serif" font-size="14.00">b</text>
</g>
<!-- q3&#45;&gt;q0 -->
<g id="edge20" class="edge"><title>q3&#45;&gt;q0</title>
<path fill="none" stroke="black" d="M71.0947,-40.0219C65.8645,-46.4317 60.8041,-54.0454 58,-62 55.1505,-70.0833 54.2084,-79.2786 54.1749,-87.7613"/>
<polygon fill="black" stroke="black" points="50.6854,-88.12 54.5431,-97.9876 57.6809,-87.8681 50.6854,-88.12"/>
<text text-anchor="middle" x="62.5" y="-66.9" font-family="Times Roman,serif" font-size="14.00">a</text>
</g>
</g>
</svg>
