<?xml version="1.0" encoding="UTF-8" standalone="no"?>
<!DOCTYPE svg PUBLIC "-//W3C//DTD SVG 1.1//EN"
 "http://www.w3.org/Graphics/SVG/1.1/DTD/svg11.dtd">
<!-- Generated by graphviz version 2.26.3 (20100126.1600)
 -->
<!-- Title: G Pages: 1 -->
<svg width="162pt" height="518pt"
 viewBox="0.00 0.00 162.00 518.00" xmlns="http://www.w3.org/2000/svg" xmlns:xlink="http://www.w3.org/1999/xlink">
<g id="graph1" class="graph" transform="scale(1 1) rotate(0) translate(4 514)">
<title>G</title>
<polygon fill="white" stroke="white" points="-4,5 -4,-514 159,-514 159,5 -4,5"/>
<!-- q6 -->
<g id="node1" class="node"><title>q6</title>
<ellipse fill="none" stroke="black" cx="89" cy="-492" rx="27" ry="18"/>
<text text-anchor="middle" x="89" y="-487.9" font-family="Times Roman,serif" font-size="14.00">q6</text>
</g>
<!-- q6&#45;&gt;q6 -->
<g id="edge2" class="edge"><title>q6&#45;&gt;q6</title>
<path fill="none" stroke="black" d="M113.532,-500.121C124.508,-500.895 134,-498.188 134,-492 134,-487.843 129.715,-485.257 123.574,-484.242"/>
<polygon fill="black" stroke="black" points="123.652,-480.742 113.532,-483.879 123.4,-487.738 123.652,-480.742"/>
<text text-anchor="middle" x="138.5" y="-487.9" font-family="Times Roman,serif" font-size="14.00">b</text>
</g>
<!-- q4 -->
<g id="node4" class="node"><title>q4</title>
<ellipse fill="none" stroke="black" cx="89" cy="-402" rx="27" ry="18"/>
<text text-anchor="middle" x="89" y="-397.9" font-family="Times Roman,serif" font-size="14.00">q4</text>
</g>
<!-- q6&#45;&gt;q4 -->
<g id="edge4" class="edge"><title>q6&#45;&gt;q4</title>
<path fill="none" stroke="black" d="M89,-473.787C89,-461.344 89,-444.605 89,-430.421"/>
<polygon fill="black" stroke="black" points="92.5001,-430.186 89,-420.186 85.5001,-430.186 92.5001,-430.186"/>
<text text-anchor="middle" x="93.5" y="-442.9" font-family="Times Roman,serif" font-size="14.00">a</text>
</g>
<!-- q4&#45;&gt;q4 -->
<g id="edge20" class="edge"><title>q4&#45;&gt;q4</title>
<path fill="none" stroke="black" d="M113.532,-410.121C124.508,-410.895 134,-408.188 134,-402 134,-397.843 129.715,-395.257 123.574,-394.242"/>
<polygon fill="black" stroke="black" points="123.652,-390.742 113.532,-393.879 123.4,-397.738 123.652,-390.742"/>
<text text-anchor="middle" x="138.5" y="-397.9" font-family="Times Roman,serif" font-size="14.00">a</text>
</g>
<!-- q2 -->
<g id="node9" class="node"><title>q2</title>
<ellipse fill="none" stroke="black" cx="31" cy="-308" rx="27" ry="18"/>
<ellipse fill="none" stroke="black" cx="31" cy="-308" rx="31" ry="22"/>
<text text-anchor="middle" x="31" y="-303.9" font-family="Times Roman,serif" font-size="14.00">q2</text>
</g>
<!-- q4&#45;&gt;q2 -->
<g id="edge18" class="edge"><title>q4&#45;&gt;q2</title>
<path fill="none" stroke="black" d="M78.6308,-385.195C70.4049,-371.863 58.7109,-352.911 48.9688,-337.122"/>
<polygon fill="black" stroke="black" points="51.729,-334.93 43.4992,-328.257 45.7717,-338.606 51.729,-334.93"/>
<text text-anchor="middle" x="69.5" y="-352.9" font-family="Times Roman,serif" font-size="14.00">b</text>
</g>
<!-- q5 -->
<g id="node5" class="node"><title>q5</title>
<ellipse fill="none" stroke="black" cx="43" cy="-214" rx="27" ry="18"/>
<text text-anchor="middle" x="43" y="-209.9" font-family="Times Roman,serif" font-size="14.00">q5</text>
</g>
<!-- q1 -->
<g id="node7" class="node"><title>q1</title>
<ellipse fill="none" stroke="black" cx="58" cy="-120" rx="27" ry="18"/>
<ellipse fill="none" stroke="black" cx="58" cy="-120" rx="31" ry="22"/>
<text text-anchor="middle" x="58" y="-115.9" font-family="Times Roman,serif" font-size="14.00">q1</text>
</g>
<!-- q5&#45;&gt;q1 -->
<g id="edge6" class="edge"><title>q5&#45;&gt;q1</title>
<path fill="none" stroke="black" d="M37.3601,-196.283C34.7955,-185.642 32.9426,-171.903 36,-160 36.9427,-156.33 38.3007,-152.635 39.886,-149.053"/>
<polygon fill="black" stroke="black" points="43.1089,-150.435 44.4839,-139.93 36.8579,-147.285 43.1089,-150.435"/>
<text text-anchor="middle" x="40.5" y="-164.9" font-family="Times Roman,serif" font-size="14.00">b</text>
</g>
<!-- q5&#45;&gt;q2 -->
<g id="edge8" class="edge"><title>q5&#45;&gt;q2</title>
<path fill="none" stroke="black" d="M40.6989,-232.025C39.1278,-244.333 37.0017,-260.987 35.1405,-275.566"/>
<polygon fill="black" stroke="black" points="31.6384,-275.361 33.8438,-285.723 38.5821,-276.247 31.6384,-275.361"/>
<text text-anchor="middle" x="43.5" y="-254.9" font-family="Times Roman,serif" font-size="14.00">a</text>
</g>
<!-- q1&#45;&gt;q5 -->
<g id="edge16" class="edge"><title>q1&#45;&gt;q5</title>
<path fill="none" stroke="black" d="M54.4832,-142.039C52.3996,-155.096 49.7383,-171.773 47.5024,-185.785"/>
<polygon fill="black" stroke="black" points="44.0118,-185.449 45.8922,-195.876 50.9243,-186.552 44.0118,-185.449"/>
<text text-anchor="middle" x="55.5" y="-164.9" font-family="Times Roman,serif" font-size="14.00">a</text>
</g>
<!-- q0 -->
<g id="node13" class="node"><title>q0</title>
<ellipse fill="none" stroke="black" cx="96" cy="-22" rx="27" ry="18"/>
<ellipse fill="none" stroke="black" cx="96" cy="-22" rx="31" ry="22"/>
<text text-anchor="middle" x="96" y="-17.9" font-family="Times Roman,serif" font-size="14.00">q0</text>
</g>
<!-- q1&#45;&gt;q0 -->
<g id="edge14" class="edge"><title>q1&#45;&gt;q0</title>
<path fill="none" stroke="black" d="M66.2454,-98.7355C71.474,-85.2513 78.3227,-67.5888 84.1313,-52.6088"/>
<polygon fill="black" stroke="black" points="87.4186,-53.812 87.7707,-43.223 80.892,-51.2813 87.4186,-53.812"/>
<text text-anchor="middle" x="84.5" y="-66.9" font-family="Times Roman,serif" font-size="14.00">b</text>
</g>
<!-- q2&#45;&gt;q5 -->
<g id="edge12" class="edge"><title>q2&#45;&gt;q5</title>
<path fill="none" stroke="black" d="M24.6947,-286.287C22.4289,-275.297 21.0737,-261.814 24,-250 24.8586,-246.534 26.1185,-243.033 27.5879,-239.647"/>
<polygon fill="black" stroke="black" points="30.803,-241.042 32.1242,-230.53 24.5359,-237.924 30.803,-241.042"/>
<text text-anchor="middle" x="28.5" y="-254.9" font-family="Times Roman,serif" font-size="14.00">a</text>
</g>
<!-- q2&#45;&gt;q2 -->
<g id="edge10" class="edge"><title>q2&#45;&gt;q2</title>
<path fill="none" stroke="black" d="M59.6885,-316.965C70.7806,-317.363 80,-314.375 80,-308 80,-303.717 75.8382,-300.962 69.7429,-299.737"/>
<polygon fill="black" stroke="black" points="69.9079,-296.24 59.6885,-299.035 69.4205,-303.223 69.9079,-296.24"/>
<text text-anchor="middle" x="84.5" y="-303.9" font-family="Times Roman,serif" font-size="14.00">b</text>
</g>
<!-- q0&#45;&gt;q4 -->
<g id="edge24" class="edge"><title>q0&#45;&gt;q4</title>
<path fill="none" stroke="black" d="M103.345,-43.5138C109.401,-63.1828 117,-93.2038 117,-120 117,-308 117,-308 117,-308 117,-331.527 108.844,-357.04 101.335,-375.542"/>
<polygon fill="black" stroke="black" points="98.0968,-374.214 97.4009,-384.786 104.538,-376.955 98.0968,-374.214"/>
<text text-anchor="middle" x="121.5" y="-209.9" font-family="Times Roman,serif" font-size="14.00">a</text>
</g>
<!-- q0&#45;&gt;q0 -->
<g id="edge22" class="edge"><title>q0&#45;&gt;q0</title>
<path fill="none" stroke="black" d="M124.689,-30.9648C135.781,-31.3633 145,-28.375 145,-22 145,-17.7168 140.838,-14.9624 134.743,-13.7368"/>
<polygon fill="black" stroke="black" points="134.908,-10.2399 124.689,-13.0352 134.421,-17.223 134.908,-10.2399"/>
<text text-anchor="middle" x="149.5" y="-17.9" font-family="Times Roman,serif" font-size="14.00">b</text>
</g>
</g>
</svg>
