<?xml version="1.0" encoding="UTF-8" standalone="no"?>
<!DOCTYPE svg PUBLIC "-//W3C//DTD SVG 1.1//EN"
 "http://www.w3.org/Graphics/SVG/1.1/DTD/svg11.dtd">
<!-- Generated by graphviz version 2.26.3 (20100126.1600)
 -->
<!-- Title: G Pages: 1 -->
<svg width="189pt" height="502pt"
 viewBox="0.00 0.00 189.00 502.00" xmlns="http://www.w3.org/2000/svg" xmlns:xlink="http://www.w3.org/1999/xlink">
<g id="graph1" class="graph" transform="scale(1 1) rotate(0) translate(4 498)">
<title>G</title>
<polygon fill="white" stroke="white" points="-4,5 -4,-498 186,-498 186,5 -4,5"/>
<!-- q6 -->
<g id="node1" class="node"><title>q6</title>
<ellipse fill="none" stroke="black" cx="112" cy="-476" rx="27" ry="18"/>
<text text-anchor="middle" x="112" y="-471.9" font-family="Times Roman,serif" font-size="14.00">q6</text>
</g>
<!-- q6&#45;&gt;q6 -->
<g id="edge2" class="edge"><title>q6&#45;&gt;q6</title>
<path fill="none" stroke="black" d="M136.532,-484.121C147.508,-484.895 157,-482.188 157,-476 157,-471.843 152.715,-469.257 146.574,-468.242"/>
<polygon fill="black" stroke="black" points="146.652,-464.742 136.532,-467.879 146.4,-471.738 146.652,-464.742"/>
<text text-anchor="middle" x="161.5" y="-471.9" font-family="Times Roman,serif" font-size="14.00">b</text>
</g>
<!-- q4 -->
<g id="node4" class="node"><title>q4</title>
<ellipse fill="none" stroke="black" cx="112" cy="-386" rx="27" ry="18"/>
<text text-anchor="middle" x="112" y="-381.9" font-family="Times Roman,serif" font-size="14.00">q4</text>
</g>
<!-- q6&#45;&gt;q4 -->
<g id="edge4" class="edge"><title>q6&#45;&gt;q4</title>
<path fill="none" stroke="black" d="M112,-457.787C112,-445.344 112,-428.605 112,-414.421"/>
<polygon fill="black" stroke="black" points="115.5,-414.186 112,-404.186 108.5,-414.186 115.5,-414.186"/>
<text text-anchor="middle" x="116.5" y="-426.9" font-family="Times Roman,serif" font-size="14.00">a</text>
</g>
<!-- q2 -->
<g id="node9" class="node"><title>q2</title>
<ellipse fill="none" stroke="black" cx="90" cy="-206" rx="27" ry="18"/>
<text text-anchor="middle" x="90" y="-201.9" font-family="Times Roman,serif" font-size="14.00">q2</text>
</g>
<!-- q4&#45;&gt;q2 -->
<g id="edge14" class="edge"><title>q4&#45;&gt;q2</title>
<path fill="none" stroke="black" d="M107.167,-368.098C103.466,-353.619 98.5723,-332.647 96,-314 92.2899,-287.105 90.8567,-256.143 90.3119,-234.285"/>
<polygon fill="black" stroke="black" points="93.8065,-233.976 90.1052,-224.049 86.808,-234.118 93.8065,-233.976"/>
<text text-anchor="middle" x="100.5" y="-291.9" font-family="Times Roman,serif" font-size="14.00">b</text>
</g>
<!-- q3 -->
<g id="node14" class="node"><title>q3</title>
<ellipse fill="none" stroke="black" cx="27" cy="-296" rx="27" ry="18"/>
<text text-anchor="middle" x="27" y="-291.9" font-family="Times Roman,serif" font-size="14.00">q3</text>
</g>
<!-- q4&#45;&gt;q3 -->
<g id="edge16" class="edge"><title>q4&#45;&gt;q3</title>
<path fill="none" stroke="black" d="M93.1278,-372.64C84.7028,-366.251 74.9136,-358.214 67,-350 58.5712,-341.252 50.3816,-330.686 43.631,-321.229"/>
<polygon fill="black" stroke="black" points="46.4513,-319.155 37.8705,-312.94 40.703,-323.149 46.4513,-319.155"/>
<text text-anchor="middle" x="71.5" y="-336.9" font-family="Times Roman,serif" font-size="14.00">a</text>
</g>
<!-- q5 -->
<g id="node5" class="node"><title>q5</title>
<ellipse fill="none" stroke="black" cx="109" cy="-116" rx="27" ry="18"/>
<text text-anchor="middle" x="109" y="-111.9" font-family="Times Roman,serif" font-size="14.00">q5</text>
</g>
<!-- q0 -->
<g id="node7" class="node"><title>q0</title>
<ellipse fill="none" stroke="black" cx="129" cy="-22" rx="27" ry="18"/>
<ellipse fill="none" stroke="black" cx="129" cy="-22" rx="31" ry="22"/>
<text text-anchor="middle" x="129" y="-17.9" font-family="Times Roman,serif" font-size="14.00">q0</text>
</g>
<!-- q5&#45;&gt;q0 -->
<g id="edge6" class="edge"><title>q5&#45;&gt;q0</title>
<path fill="none" stroke="black" d="M116.799,-98.724C119.142,-92.8848 121.489,-86.2578 123,-80 125.011,-71.675 126.348,-62.518 127.237,-53.9882"/>
<polygon fill="black" stroke="black" points="130.726,-54.2605 128.114,-43.9927 123.753,-53.6483 130.726,-54.2605"/>
<text text-anchor="middle" x="130.5" y="-66.9" font-family="Times Roman,serif" font-size="14.00">b</text>
</g>
<!-- q5&#45;&gt;q0 -->
<g id="edge8" class="edge"><title>q5&#45;&gt;q0</title>
<path fill="none" stroke="black" d="M93.6015,-100.991C84.4969,-90.222 75.8449,-75.3209 82,-62 85.4129,-54.6138 90.9366,-48.09 97.0185,-42.5668"/>
<polygon fill="black" stroke="black" points="99.3798,-45.1571 104.904,-36.1164 94.9476,-39.739 99.3798,-45.1571"/>
<text text-anchor="middle" x="86.5" y="-66.9" font-family="Times Roman,serif" font-size="14.00">a</text>
</g>
<!-- q0&#45;&gt;q4 -->
<g id="edge24" class="edge"><title>q0&#45;&gt;q4</title>
<path fill="none" stroke="black" d="M143.798,-41.3603C156.237,-59.5917 172,-88.1839 172,-116 172,-296 172,-296 172,-296 172,-323.033 153.028,-348.122 136.421,-364.905"/>
<polygon fill="black" stroke="black" points="133.815,-362.555 129.033,-372.009 138.667,-367.6 133.815,-362.555"/>
<text text-anchor="middle" x="176.5" y="-201.9" font-family="Times Roman,serif" font-size="14.00">a</text>
</g>
<!-- q0&#45;&gt;q5 -->
<g id="edge22" class="edge"><title>q0&#45;&gt;q5</title>
<path fill="none" stroke="black" d="M119.828,-43.2661C117.587,-49.2292 115.426,-55.7832 114,-62 112.105,-70.259 110.924,-79.385 110.19,-87.7478"/>
<polygon fill="black" stroke="black" points="106.693,-87.5876 109.479,-97.8096 113.675,-88.0814 106.693,-87.5876"/>
<text text-anchor="middle" x="118.5" y="-66.9" font-family="Times Roman,serif" font-size="14.00">b</text>
</g>
<!-- q2&#45;&gt;q4 -->
<g id="edge10" class="edge"><title>q2&#45;&gt;q4</title>
<path fill="none" stroke="black" d="M97.9741,-223.236C100.329,-229.073 102.638,-235.708 104,-242 112.503,-281.276 113.488,-327.904 113.041,-357.228"/>
<polygon fill="black" stroke="black" points="109.534,-357.493 112.811,-367.568 116.532,-357.648 109.534,-357.493"/>
<text text-anchor="middle" x="116.5" y="-291.9" font-family="Times Roman,serif" font-size="14.00">b</text>
</g>
<!-- q2&#45;&gt;q5 -->
<g id="edge12" class="edge"><title>q2&#45;&gt;q5</title>
<path fill="none" stroke="black" d="M93.8449,-187.787C96.515,-175.14 100.122,-158.053 103.147,-143.723"/>
<polygon fill="black" stroke="black" points="106.584,-144.386 105.226,-133.879 99.7354,-142.94 106.584,-144.386"/>
<text text-anchor="middle" x="105.5" y="-156.9" font-family="Times Roman,serif" font-size="14.00">a</text>
</g>
<!-- q3&#45;&gt;q2 -->
<g id="edge18" class="edge"><title>q3&#45;&gt;q2</title>
<path fill="none" stroke="black" d="M38.5552,-279.493C48.0575,-265.918 61.6733,-246.467 72.5105,-230.985"/>
<polygon fill="black" stroke="black" points="75.6507,-232.602 78.5181,-222.403 69.9161,-228.588 75.6507,-232.602"/>
<text text-anchor="middle" x="68.5" y="-246.9" font-family="Times Roman,serif" font-size="14.00">b</text>
</g>
<!-- q3&#45;&gt;q2 -->
<g id="edge20" class="edge"><title>q3&#45;&gt;q2</title>
<path fill="none" stroke="black" d="M27.7462,-277.944C28.9588,-266.792 31.9213,-252.632 39,-242 44.1373,-234.284 51.5348,-227.705 59.1087,-222.365"/>
<polygon fill="black" stroke="black" points="61.4409,-225.027 67.956,-216.672 57.6527,-219.14 61.4409,-225.027"/>
<text text-anchor="middle" x="43.5" y="-246.9" font-family="Times Roman,serif" font-size="14.00">a</text>
</g>
</g>
</svg>
