<?xml version="1.0" encoding="UTF-8" standalone="no"?>
<!DOCTYPE svg PUBLIC "-//W3C//DTD SVG 1.1//EN"
 "http://www.w3.org/Graphics/SVG/1.1/DTD/svg11.dtd">
<!-- Generated by graphviz version 2.26.3 (20100126.1600)
 -->
<!-- Title: G Pages: 1 -->
<svg width="266pt" height="430pt"
 viewBox="0.00 0.00 266.00 430.00" xmlns="http://www.w3.org/2000/svg" xmlns:xlink="http://www.w3.org/1999/xlink">
<g id="graph1" class="graph" transform="scale(1 1) rotate(0) translate(4 426)">
<title>G</title>
<polygon fill="white" stroke="white" points="-4,5 -4,-426 263,-426 263,5 -4,5"/>
<!-- q6 -->
<g id="node1" class="node"><title>q6</title>
<ellipse fill="none" stroke="black" cx="134" cy="-399" rx="27" ry="18.3848"/>
<text text-anchor="middle" x="134" y="-395.4" font-family="Times Roman,serif" font-size="14.00">q6</text>
</g>
<!-- q1 -->
<g id="node3" class="node"><title>q1</title>
<ellipse fill="none" stroke="black" cx="61" cy="-299" rx="27" ry="18.3848"/>
<text text-anchor="middle" x="61" y="-295.4" font-family="Times Roman,serif" font-size="14.00">q1</text>
</g>
<!-- q6&#45;&gt;q1 -->
<g id="edge2" class="edge"><title>q6&#45;&gt;q1</title>
<path fill="none" stroke="black" d="M120.521,-382.881C114.415,-375.422 107.193,-366.375 101,-358 93.0096,-347.195 84.6005,-334.94 77.5658,-324.41"/>
<polygon fill="black" stroke="black" points="80.4607,-322.442 72.0192,-316.04 74.6256,-326.309 80.4607,-322.442"/>
<text text-anchor="middle" x="105.5" y="-345.4" font-family="Times Roman,serif" font-size="14.00">b</text>
</g>
<!-- q2 -->
<g id="node5" class="node"><title>q2</title>
<ellipse fill="none" stroke="black" cx="124" cy="-203" rx="27" ry="18.3848"/>
<text text-anchor="middle" x="124" y="-199.4" font-family="Times Roman,serif" font-size="14.00">q2</text>
</g>
<!-- q6&#45;&gt;q2 -->
<g id="edge4" class="edge"><title>q6&#45;&gt;q2</title>
<path fill="none" stroke="black" d="M133.041,-380.207C131.287,-345.816 127.549,-272.557 125.471,-231.826"/>
<polygon fill="black" stroke="black" points="128.961,-231.545 124.956,-221.736 121.97,-231.902 128.961,-231.545"/>
<text text-anchor="middle" x="133.5" y="-295.4" font-family="Times Roman,serif" font-size="14.00">a</text>
</g>
<!-- q1&#45;&gt;q2 -->
<g id="edge16" class="edge"><title>q1&#45;&gt;q2</title>
<path fill="none" stroke="black" d="M72.2631,-281.837C81.9386,-267.094 96.0314,-245.619 107.066,-228.804"/>
<polygon fill="black" stroke="black" points="110.274,-230.295 112.834,-220.014 104.422,-226.454 110.274,-230.295"/>
<text text-anchor="middle" x="102.5" y="-245.4" font-family="Times Roman,serif" font-size="14.00">a</text>
</g>
<!-- q5 -->
<g id="node6" class="node"><title>q5</title>
<ellipse fill="none" stroke="black" cx="94" cy="-111" rx="27" ry="18.3848"/>
<text text-anchor="middle" x="94" y="-107.4" font-family="Times Roman,serif" font-size="14.00">q5</text>
</g>
<!-- q1&#45;&gt;q5 -->
<g id="edge14" class="edge"><title>q1&#45;&gt;q5</title>
<path fill="none" stroke="black" d="M63.6589,-280.23C66.9537,-257.426 72.8847,-217.806 79,-184 81.6533,-169.333 84.9562,-153.083 87.7868,-139.645"/>
<polygon fill="black" stroke="black" points="91.2757,-140.065 89.9341,-129.556 84.4291,-138.608 91.2757,-140.065"/>
<text text-anchor="middle" x="83.5" y="-199.4" font-family="Times Roman,serif" font-size="14.00">b</text>
</g>
<!-- q2&#45;&gt;q6 -->
<g id="edge10" class="edge"><title>q2&#45;&gt;q6</title>
<path fill="none" stroke="black" d="M133.129,-220.63C135.82,-226.623 138.456,-233.461 140,-240 152.06,-291.087 151.86,-305.959 145,-358 144.437,-362.274 143.556,-366.736 142.533,-371.077"/>
<polygon fill="black" stroke="black" points="139.124,-370.278 139.969,-380.839 145.895,-372.056 139.124,-370.278"/>
<text text-anchor="middle" x="153.5" y="-295.4" font-family="Times Roman,serif" font-size="14.00">b</text>
</g>
<!-- q2&#45;&gt;q5 -->
<g id="edge12" class="edge"><title>q2&#45;&gt;q5</title>
<path fill="none" stroke="black" d="M118.073,-184.824C113.8,-171.719 107.953,-153.789 103.091,-138.88"/>
<polygon fill="black" stroke="black" points="106.343,-137.561 99.9147,-129.138 99.6874,-139.731 106.343,-137.561"/>
<text text-anchor="middle" x="115.5" y="-153.4" font-family="Times Roman,serif" font-size="14.00">a</text>
</g>
<!-- q5&#45;&gt;q5 -->
<g id="edge8" class="edge"><title>q5&#45;&gt;q5</title>
<path fill="none" stroke="black" d="M118.074,-119.454C129.242,-120.377 139,-117.559 139,-111 139,-106.593 134.595,-103.875 128.317,-102.846"/>
<polygon fill="black" stroke="black" points="128.173,-99.3402 118.074,-102.546 127.967,-106.337 128.173,-99.3402"/>
<text text-anchor="middle" x="143.5" y="-107.4" font-family="Times Roman,serif" font-size="14.00">a</text>
</g>
<!-- q3 -->
<g id="node8" class="node"><title>q3</title>
<ellipse fill="none" stroke="black" cx="94" cy="-19" rx="27" ry="18.3848"/>
<text text-anchor="middle" x="94" y="-15.4" font-family="Times Roman,serif" font-size="14.00">q3</text>
</g>
<!-- q5&#45;&gt;q3 -->
<g id="edge6" class="edge"><title>q5&#45;&gt;q3</title>
<path fill="none" stroke="black" d="M94,-92.3824C94,-79.5383 94,-62.2161 94,-47.6269"/>
<polygon fill="black" stroke="black" points="97.5001,-47.5898 94,-37.5899 90.5001,-47.5899 97.5001,-47.5898"/>
<text text-anchor="middle" x="98.5" y="-61.4" font-family="Times Roman,serif" font-size="14.00">b</text>
</g>
<!-- q3&#45;&gt;q1 -->
<g id="edge24" class="edge"><title>q3&#45;&gt;q1</title>
<path fill="none" stroke="black" d="M82.7201,-36.14C74.0392,-50.4163 62.7491,-71.6326 58,-92 43.4655,-154.334 50.6046,-230.116 56.2965,-270.47"/>
<polygon fill="black" stroke="black" points="52.8408,-271.028 57.7712,-280.405 59.7649,-270 52.8408,-271.028"/>
<text text-anchor="middle" x="54.5" y="-153.4" font-family="Times Roman,serif" font-size="14.00">a</text>
</g>
<!-- q3&#45;&gt;q3 -->
<g id="edge22" class="edge"><title>q3&#45;&gt;q3</title>
<path fill="none" stroke="black" d="M118.074,-27.4544C129.242,-28.3767 139,-25.5586 139,-19 139,-14.5934 134.595,-11.8754 128.317,-10.8458"/>
<polygon fill="black" stroke="black" points="128.173,-7.34018 118.074,-10.5456 127.967,-14.3372 128.173,-7.34018"/>
<text text-anchor="middle" x="143.5" y="-15.4" font-family="Times Roman,serif" font-size="14.00">b</text>
</g>
<!-- q4 -->
<g id="node14" class="node"><title>q4</title>
<ellipse fill="none" stroke="black" cx="227" cy="-299" rx="27" ry="18.3848"/>
<ellipse fill="none" stroke="black" cx="227" cy="-299" rx="31" ry="22.3848"/>
<text text-anchor="middle" x="227" y="-295.4" font-family="Times Roman,serif" font-size="14.00">q4</text>
</g>
<!-- q4&#45;&gt;q2 -->
<g id="edge18" class="edge"><title>q4&#45;&gt;q2</title>
<path fill="none" stroke="black" d="M213.179,-278.543C204.484,-266.527 192.561,-251.492 180,-240 172.069,-232.744 162.582,-225.913 153.691,-220.142"/>
<polygon fill="black" stroke="black" points="155.41,-217.09 145.077,-214.749 151.695,-223.023 155.41,-217.09"/>
<text text-anchor="middle" x="201.5" y="-245.4" font-family="Times Roman,serif" font-size="14.00">b</text>
</g>
<!-- q4&#45;&gt;q3 -->
<g id="edge20" class="edge"><title>q4&#45;&gt;q3</title>
<path fill="none" stroke="black" d="M222.548,-276.613C214.06,-237.248 193.119,-153.938 157,-92 146.214,-73.5042 130.481,-55.2684 117.435,-41.6495"/>
<polygon fill="black" stroke="black" points="119.625,-38.8837 110.123,-34.1974 114.628,-43.7864 119.625,-38.8837"/>
<text text-anchor="middle" x="194.5" y="-153.4" font-family="Times Roman,serif" font-size="14.00">a</text>
</g>
<!-- q0 -->
<g id="node19" class="node"><title>q0</title>
<ellipse fill="none" stroke="black" cx="31" cy="-399" rx="27" ry="18.3848"/>
<ellipse fill="none" stroke="black" cx="31" cy="-399" rx="31" ry="22.3848"/>
<text text-anchor="middle" x="31" y="-395.4" font-family="Times Roman,serif" font-size="14.00">q0</text>
</g>
<!-- q0&#45;&gt;q1 -->
<g id="edge26" class="edge"><title>q0&#45;&gt;q1</title>
<path fill="none" stroke="black" d="M37.658,-376.807C42.076,-362.08 47.9098,-342.634 52.6399,-326.867"/>
<polygon fill="black" stroke="black" points="56.0417,-327.708 55.5629,-317.124 49.3369,-325.696 56.0417,-327.708"/>
<text text-anchor="middle" x="52.5" y="-345.4" font-family="Times Roman,serif" font-size="14.00">b</text>
</g>
<!-- q0&#45;&gt;q0 -->
<g id="edge28" class="edge"><title>q0&#45;&gt;q0</title>
<path fill="none" stroke="black" d="M59.6885,-408.338C70.7806,-408.753 80,-405.641 80,-399 80,-394.538 75.8382,-391.669 69.7429,-390.393"/>
<polygon fill="black" stroke="black" points="69.916,-386.896 59.6885,-389.662 69.4084,-393.878 69.916,-386.896"/>
<text text-anchor="middle" x="84.5" y="-395.4" font-family="Times Roman,serif" font-size="14.00">a</text>
</g>
</g>
</svg>
