<?xml version="1.0" encoding="UTF-8" standalone="no"?>
<!DOCTYPE svg PUBLIC "-//W3C//DTD SVG 1.1//EN"
 "http://www.w3.org/Graphics/SVG/1.1/DTD/svg11.dtd">
<!-- Generated by graphviz version 2.26.3 (20100126.1600)
 -->
<!-- Title: G Pages: 1 -->
<svg width="302pt" height="606pt"
 viewBox="0.00 0.00 302.00 606.00" xmlns="http://www.w3.org/2000/svg" xmlns:xlink="http://www.w3.org/1999/xlink">
<g id="graph1" class="graph" transform="scale(1 1) rotate(0) translate(4 602)">
<title>G</title>
<polygon fill="white" stroke="white" points="-4,5 -4,-602 299,-602 299,5 -4,5"/>
<!-- q0 -->
<g id="node1" class="node"><title>q0</title>
<ellipse fill="none" stroke="black" cx="121" cy="-487" rx="27" ry="18.3848"/>
<text text-anchor="middle" x="121" y="-483.4" font-family="Times Roman,serif" font-size="14.00">q0</text>
</g>
<!-- q3 -->
<g id="node3" class="node"><title>q3</title>
<ellipse fill="none" stroke="black" cx="194" cy="-395" rx="27" ry="18.3848"/>
<text text-anchor="middle" x="194" y="-391.4" font-family="Times Roman,serif" font-size="14.00">q3</text>
</g>
<!-- q0&#45;&gt;q3 -->
<g id="edge2" class="edge"><title>q0&#45;&gt;q3</title>
<path fill="none" stroke="black" d="M134.051,-470.552C145.366,-456.292 161.895,-435.461 174.732,-419.282"/>
<polygon fill="black" stroke="black" points="177.588,-421.314 181.062,-411.305 172.105,-416.963 177.588,-421.314"/>
<text text-anchor="middle" x="168.5" y="-437.4" font-family="Times Roman,serif" font-size="14.00">b</text>
</g>
<!-- q9 -->
<g id="node5" class="node"><title>q9</title>
<ellipse fill="none" stroke="black" cx="105" cy="-303" rx="27" ry="18.3848"/>
<text text-anchor="middle" x="105" y="-299.4" font-family="Times Roman,serif" font-size="14.00">q9</text>
</g>
<!-- q0&#45;&gt;q9 -->
<g id="edge4" class="edge"><title>q0&#45;&gt;q9</title>
<path fill="none" stroke="black" d="M119.378,-468.345C116.587,-436.247 110.856,-370.349 107.535,-332.148"/>
<polygon fill="black" stroke="black" points="110.98,-331.364 106.627,-321.705 104.006,-331.971 110.98,-331.364"/>
<text text-anchor="middle" x="119.5" y="-391.4" font-family="Times Roman,serif" font-size="14.00">a</text>
</g>
<!-- q3&#45;&gt;q9 -->
<g id="edge12" class="edge"><title>q3&#45;&gt;q9</title>
<path fill="none" stroke="black" d="M172.569,-383.516C161.682,-376.994 148.735,-368.117 139,-358 130.978,-349.663 123.905,-339.125 118.316,-329.508"/>
<polygon fill="black" stroke="black" points="121.333,-327.731 113.43,-320.673 115.207,-331.118 121.333,-327.731"/>
<text text-anchor="middle" x="143.5" y="-345.4" font-family="Times Roman,serif" font-size="14.00">a</text>
</g>
<!-- q10 -->
<g id="node11" class="node"><title>q10</title>
<ellipse fill="none" stroke="black" cx="213" cy="-115" rx="29.9071" ry="18.3848"/>
<text text-anchor="middle" x="213" y="-111.4" font-family="Times Roman,serif" font-size="14.00">q10</text>
</g>
<!-- q3&#45;&gt;q10 -->
<g id="edge10" class="edge"><title>q3&#45;&gt;q10</title>
<path fill="none" stroke="black" d="M217.004,-384.924C227.901,-378.833 239.855,-369.915 246,-358 287.153,-278.21 275.843,-240.673 246,-156 243.807,-149.779 240.227,-143.806 236.217,-138.437"/>
<polygon fill="black" stroke="black" points="238.765,-136.026 229.697,-130.546 233.369,-140.484 238.765,-136.026"/>
<text text-anchor="middle" x="276.5" y="-253.4" font-family="Times Roman,serif" font-size="14.00">b</text>
</g>
<!-- q9&#45;&gt;q3 -->
<g id="edge26" class="edge"><title>q9&#45;&gt;q3</title>
<path fill="none" stroke="black" d="M122.737,-317.144C130.728,-323.794 140.117,-332.006 148,-340 157.423,-349.556 167.068,-360.818 175.076,-370.654"/>
<polygon fill="black" stroke="black" points="172.391,-372.901 181.378,-378.512 177.852,-368.521 172.391,-372.901"/>
<text text-anchor="middle" x="167.5" y="-345.4" font-family="Times Roman,serif" font-size="14.00">b</text>
</g>
<!-- q9&#45;&gt;q9 -->
<g id="edge40" class="edge"><title>q9&#45;&gt;q9</title>
<path fill="none" stroke="black" d="M129.074,-311.454C140.242,-312.377 150,-309.559 150,-303 150,-298.593 145.595,-295.875 139.317,-294.846"/>
<polygon fill="black" stroke="black" points="139.173,-291.34 129.074,-294.546 138.967,-298.337 139.173,-291.34"/>
<text text-anchor="middle" x="154.5" y="-299.4" font-family="Times Roman,serif" font-size="14.00">a</text>
</g>
<!-- q9&#45;&gt;q10 -->
<g id="edge38" class="edge"><title>q9&#45;&gt;q10</title>
<path fill="none" stroke="black" d="M112.66,-285.157C125.135,-256.829 151.342,-200.247 180,-156 183.586,-150.464 187.773,-144.79 191.938,-139.496"/>
<polygon fill="black" stroke="black" points="194.791,-141.535 198.374,-131.564 189.355,-137.124 194.791,-141.535"/>
<text text-anchor="middle" x="162.5" y="-207.4" font-family="Times Roman,serif" font-size="14.00">b</text>
</g>
<!-- q5 -->
<g id="node15" class="node"><title>q5</title>
<ellipse fill="none" stroke="black" cx="94" cy="-211" rx="27" ry="18.3848"/>
<text text-anchor="middle" x="94" y="-207.4" font-family="Times Roman,serif" font-size="14.00">q5</text>
</g>
<!-- q9&#45;&gt;q5 -->
<g id="edge28" class="edge"><title>q9&#45;&gt;q5</title>
<path fill="none" stroke="black" d="M102.774,-284.382C101.238,-271.538 99.1671,-254.216 97.4228,-239.627"/>
<polygon fill="black" stroke="black" points="100.885,-239.104 96.2227,-229.59 93.9347,-239.935 100.885,-239.104"/>
<text text-anchor="middle" x="105.5" y="-253.4" font-family="Times Roman,serif" font-size="14.00">a</text>
</g>
<!-- q2 -->
<g id="node6" class="node"><title>q2</title>
<ellipse fill="none" stroke="black" cx="27" cy="-19" rx="27" ry="18.3848"/>
<text text-anchor="middle" x="27" y="-15.4" font-family="Times Roman,serif" font-size="14.00">q2</text>
</g>
<!-- q2&#45;&gt;q9 -->
<g id="edge8" class="edge"><title>q2&#45;&gt;q9</title>
<path fill="none" stroke="black" d="M23.3671,-37.5115C20.6866,-52.2136 17.2902,-73.3322 16,-92 11.7077,-154.106 20.8289,-170.771 40,-230 45.2867,-246.333 43.5148,-252.407 54,-266 59.7144,-273.408 67.3034,-279.996 74.8764,-285.486"/>
<polygon fill="black" stroke="black" points="73.3998,-288.712 83.6459,-291.408 77.3174,-282.911 73.3998,-288.712"/>
<text text-anchor="middle" x="27.5" y="-161.4" font-family="Times Roman,serif" font-size="14.00">a</text>
</g>
<!-- q4 -->
<g id="node8" class="node"><title>q4</title>
<ellipse fill="none" stroke="black" cx="56" cy="-115" rx="27" ry="18.3848"/>
<ellipse fill="none" stroke="black" cx="56" cy="-115" rx="31" ry="22.3848"/>
<text text-anchor="middle" x="56" y="-111.4" font-family="Times Roman,serif" font-size="14.00">q4</text>
</g>
<!-- q2&#45;&gt;q4 -->
<g id="edge6" class="edge"><title>q2&#45;&gt;q4</title>
<path fill="none" stroke="black" d="M24.7308,-37.5117C24.0326,-48.3886 24.2573,-62.2625 28,-74 29.4231,-78.4628 31.5037,-82.8785 33.8986,-87.0659"/>
<polygon fill="black" stroke="black" points="31.1594,-89.2775 39.5102,-95.7979 37.0483,-85.4931 31.1594,-89.2775"/>
<text text-anchor="middle" x="32.5" y="-61.4" font-family="Times Roman,serif" font-size="14.00">b</text>
</g>
<!-- q4&#45;&gt;q9 -->
<g id="edge14" class="edge"><title>q4&#45;&gt;q9</title>
<path fill="none" stroke="black" d="M49.7513,-137.28C44.2249,-160.946 38.5219,-199.126 49,-230 55.5227,-249.219 69.3661,-267.344 81.6563,-280.725"/>
<polygon fill="black" stroke="black" points="79.2032,-283.224 88.646,-288.029 84.2603,-278.384 79.2032,-283.224"/>
<text text-anchor="middle" x="53.5" y="-207.4" font-family="Times Roman,serif" font-size="14.00">b</text>
</g>
<!-- q4&#45;&gt;q2 -->
<g id="edge16" class="edge"><title>q4&#45;&gt;q2</title>
<path fill="none" stroke="black" d="M49.2739,-92.7344C45.1808,-79.1847 39.9143,-61.7508 35.53,-47.2374"/>
<polygon fill="black" stroke="black" points="38.7652,-45.8434 32.5229,-37.2828 32.0643,-47.8677 38.7652,-45.8434"/>
<text text-anchor="middle" x="48.5" y="-61.4" font-family="Times Roman,serif" font-size="14.00">a</text>
</g>
<!-- q10&#45;&gt;q3 -->
<g id="edge30" class="edge"><title>q10&#45;&gt;q3</title>
<path fill="none" stroke="black" d="M233.602,-128.707C243.225,-135.924 254.242,-145.458 262,-156 291.604,-196.227 286.78,-216.086 285,-266 283.505,-307.914 292.981,-327.683 264,-358 253.933,-368.531 240.204,-376.684 227.57,-382.623"/>
<polygon fill="black" stroke="black" points="225.951,-379.511 218.201,-386.736 228.765,-385.921 225.951,-379.511"/>
<text text-anchor="middle" x="289.5" y="-253.4" font-family="Times Roman,serif" font-size="14.00">b</text>
</g>
<!-- q10&#45;&gt;q3 -->
<g id="edge32" class="edge"><title>q10&#45;&gt;q3</title>
<path fill="none" stroke="black" d="M211.083,-133.484C208.477,-159.153 203.82,-207.061 201,-248 198.169,-289.09 196.128,-336.72 195.004,-366.36"/>
<polygon fill="black" stroke="black" points="191.504,-366.298 194.632,-376.421 198.499,-366.557 191.504,-366.298"/>
<text text-anchor="middle" x="205.5" y="-253.4" font-family="Times Roman,serif" font-size="14.00">a</text>
</g>
<!-- q10&#45;&gt;q3 -->
<g id="edge34" class="edge"><title>q10&#45;&gt;q3</title>
<path fill="none" stroke="black" d="M215.77,-133.734C216.673,-140.707 217.556,-148.699 218,-156 218.485,-163.985 218.071,-166 218,-174 217.269,-255.872 227.17,-278.166 209,-358 208.262,-361.244 207.273,-364.572 206.153,-367.839"/>
<polygon fill="black" stroke="black" points="202.834,-366.72 202.523,-377.31 209.371,-369.225 202.834,-366.72"/>
<text text-anchor="middle" x="224.5" y="-253.4" font-family="Times Roman,serif" font-size="14.00">b</text>
</g>
<!-- q10&#45;&gt;q10 -->
<g id="edge36" class="edge"><title>q10&#45;&gt;q10</title>
<path fill="none" stroke="black" d="M239.168,-124.229C250.875,-125.107 261,-122.031 261,-115 261,-110.166 256.214,-107.201 249.419,-106.106"/>
<polygon fill="black" stroke="black" points="249.277,-102.6 239.168,-105.771 249.048,-109.596 249.277,-102.6"/>
<text text-anchor="middle" x="265.5" y="-111.4" font-family="Times Roman,serif" font-size="14.00">a</text>
</g>
<!-- q5&#45;&gt;q4 -->
<g id="edge18" class="edge"><title>q5&#45;&gt;q4</title>
<path fill="none" stroke="black" d="M86.8525,-192.943C81.6674,-179.844 74.5216,-161.792 68.4127,-146.358"/>
<polygon fill="black" stroke="black" points="71.5139,-144.683 64.579,-136.673 65.0052,-147.26 71.5139,-144.683"/>
<text text-anchor="middle" x="83.5" y="-161.4" font-family="Times Roman,serif" font-size="14.00">b</text>
</g>
<!-- q5&#45;&gt;q10 -->
<g id="edge20" class="edge"><title>q5&#45;&gt;q10</title>
<path fill="none" stroke="black" d="M103.788,-193.488C110.989,-181.777 121.648,-166.625 134,-156 146.973,-144.841 163.506,-135.664 178.09,-128.843"/>
<polygon fill="black" stroke="black" points="179.64,-131.984 187.336,-124.703 176.779,-125.595 179.64,-131.984"/>
<text text-anchor="middle" x="138.5" y="-161.4" font-family="Times Roman,serif" font-size="14.00">a</text>
</g>
<!-- q6 -->
<g id="node18" class="node"><title>q6</title>
<ellipse fill="none" stroke="black" cx="121" cy="-579" rx="27" ry="18.3848"/>
<text text-anchor="middle" x="121" y="-575.4" font-family="Times Roman,serif" font-size="14.00">q6</text>
</g>
<!-- q6&#45;&gt;q0 -->
<g id="edge22" class="edge"><title>q6&#45;&gt;q0</title>
<path fill="none" stroke="black" d="M121,-560.382C121,-547.538 121,-530.216 121,-515.627"/>
<polygon fill="black" stroke="black" points="124.5,-515.59 121,-505.59 117.5,-515.59 124.5,-515.59"/>
<text text-anchor="middle" x="125.5" y="-529.4" font-family="Times Roman,serif" font-size="14.00">b</text>
</g>
<!-- q6&#45;&gt;q6 -->
<g id="edge24" class="edge"><title>q6&#45;&gt;q6</title>
<path fill="none" stroke="black" d="M145.074,-587.454C156.242,-588.377 166,-585.559 166,-579 166,-574.593 161.595,-571.875 155.317,-570.846"/>
<polygon fill="black" stroke="black" points="155.173,-567.34 145.074,-570.546 154.967,-574.337 155.173,-567.34"/>
<text text-anchor="middle" x="170.5" y="-575.4" font-family="Times Roman,serif" font-size="14.00">a</text>
</g>
</g>
</svg>
