<?xml version="1.0" encoding="UTF-8" standalone="no"?>
<!DOCTYPE svg PUBLIC "-//W3C//DTD SVG 1.1//EN"
 "http://www.w3.org/Graphics/SVG/1.1/DTD/svg11.dtd">
<!-- Generated by graphviz version 2.26.3 (20100126.1600)
 -->
<!-- Title: G Pages: 1 -->
<svg width="116pt" height="44pt"
 viewBox="0.00 0.00 116.00 44.00" xmlns="http://www.w3.org/2000/svg" xmlns:xlink="http://www.w3.org/1999/xlink">
<g id="graph1" class="graph" transform="scale(1 1) rotate(0) translate(4 40)">
<title>G</title>
<polygon fill="white" stroke="white" points="-4,5 -4,-40 113,-40 113,5 -4,5"/>
<!-- q0 -->
<g id="node1" class="node"><title>q0</title>
<ellipse fill="none" stroke="darkred" cx="27" cy="-18" rx="27" ry="18"/>
<text text-anchor="middle" x="27" y="-13.9" font-family="Times Roman,serif" font-size="14.00">q0</text>
</g>
<!-- q0&#45;&gt;q0 -->
<g id="edge2" class="edge"><title>q0&#45;&gt;q0</title>
<path fill="none" stroke="black" d="M53.7949,-21.3676C63.7804,-21.478 72,-20.3555 72,-18 72,-16.5278 68.7892,-15.5373 63.9433,-15.0283"/>
<polygon fill="black" stroke="black" points="63.9237,-11.525 53.7949,-14.6324 63.6508,-18.5197 63.9237,-11.525"/>
<text text-anchor="middle" x="76.5" y="-13.9" font-family="Times Roman,serif" font-size="14.00">b</text>
</g>
<!-- q0&#45;&gt;q0 -->
<g id="edge4" class="edge"><title>q0&#45;&gt;q0</title>
<path fill="none" stroke="black" d="M46.6742,-30.4628C67.1075,-38.0273 90,-33.873 90,-18 90,-4.60712 73.7025,0.443007 56.3357,-2.84963"/>
<polygon fill="black" stroke="black" points="55.3704,0.514816 46.6742,-5.53718 57.2464,-6.22913 55.3704,0.514816"/>
<text text-anchor="middle" x="94.5" y="-13.9" font-family="Times Roman,serif" font-size="14.00">a</text>
</g>
</g>
</svg>
