<?xml version="1.0" encoding="UTF-8" standalone="no"?>
<!DOCTYPE svg PUBLIC "-//W3C//DTD SVG 1.1//EN"
 "http://www.w3.org/Graphics/SVG/1.1/DTD/svg11.dtd">
<!-- Generated by graphviz version 2.26.3 (20100126.1600)
 -->
<!-- Title: G Pages: 1 -->
<svg width="230pt" height="706pt"
 viewBox="0.00 0.00 230.00 706.00" xmlns="http://www.w3.org/2000/svg" xmlns:xlink="http://www.w3.org/1999/xlink">
<g id="graph1" class="graph" transform="scale(1 1) rotate(0) translate(4 702)">
<title>G</title>
<polygon fill="white" stroke="white" points="-4,5 -4,-702 227,-702 227,5 -4,5"/>
<!-- q0 -->
<g id="node1" class="node"><title>q0</title>
<ellipse fill="none" stroke="black" cx="168" cy="-679" rx="27" ry="18.3848"/>
<text text-anchor="middle" x="168" y="-675.4" font-family="Times Roman,serif" font-size="14.00">q0</text>
</g>
<!-- q0&#45;&gt;q0 -->
<g id="edge2" class="edge"><title>q0&#45;&gt;q0</title>
<path fill="none" stroke="black" d="M192.074,-687.454C203.242,-688.377 213,-685.559 213,-679 213,-674.593 208.595,-671.875 202.317,-670.846"/>
<polygon fill="black" stroke="black" points="202.173,-667.34 192.074,-670.546 201.967,-674.337 202.173,-667.34"/>
<text text-anchor="middle" x="217.5" y="-675.4" font-family="Times Roman,serif" font-size="14.00">b</text>
</g>
<!-- q5 -->
<g id="node4" class="node"><title>q5</title>
<ellipse fill="none" stroke="black" cx="131" cy="-583" rx="27" ry="18.3848"/>
<text text-anchor="middle" x="131" y="-579.4" font-family="Times Roman,serif" font-size="14.00">q5</text>
</g>
<!-- q0&#45;&gt;q5 -->
<g id="edge4" class="edge"><title>q0&#45;&gt;q5</title>
<path fill="none" stroke="black" d="M161.041,-660.943C155.563,-646.73 147.837,-626.684 141.592,-610.481"/>
<polygon fill="black" stroke="black" points="144.79,-609.048 137.928,-600.976 138.259,-611.566 144.79,-609.048"/>
<text text-anchor="middle" x="156.5" y="-629.4" font-family="Times Roman,serif" font-size="14.00">a</text>
</g>
<!-- q3 -->
<g id="node7" class="node"><title>q3</title>
<ellipse fill="none" stroke="black" cx="89" cy="-487" rx="27" ry="18.3848"/>
<text text-anchor="middle" x="89" y="-483.4" font-family="Times Roman,serif" font-size="14.00">q3</text>
</g>
<!-- q5&#45;&gt;q3 -->
<g id="edge24" class="edge"><title>q5&#45;&gt;q3</title>
<path fill="none" stroke="black" d="M114.823,-567.659C108.242,-560.494 101.208,-551.463 97,-542 93.3768,-533.851 91.327,-524.418 90.1868,-515.689"/>
<polygon fill="black" stroke="black" points="93.6502,-515.142 89.2025,-505.526 86.6828,-515.817 93.6502,-515.142"/>
<text text-anchor="middle" x="101.5" y="-529.4" font-family="Times Roman,serif" font-size="14.00">a</text>
</g>
<!-- q6 -->
<g id="node17" class="node"><title>q6</title>
<ellipse fill="none" stroke="black" cx="107" cy="-395" rx="27" ry="18.3848"/>
<text text-anchor="middle" x="107" y="-391.4" font-family="Times Roman,serif" font-size="14.00">q6</text>
</g>
<!-- q5&#45;&gt;q6 -->
<g id="edge22" class="edge"><title>q5&#45;&gt;q6</title>
<path fill="none" stroke="black" d="M131.108,-564.168C130.989,-541.302 129.976,-501.621 125,-468 122.777,-452.977 118.856,-436.532 115.241,-423.059"/>
<polygon fill="black" stroke="black" points="118.61,-422.113 112.569,-413.409 111.864,-423.981 118.61,-422.113"/>
<text text-anchor="middle" x="132.5" y="-483.4" font-family="Times Roman,serif" font-size="14.00">b</text>
</g>
<!-- q1 -->
<g id="node5" class="node"><title>q1</title>
<ellipse fill="none" stroke="black" cx="45" cy="-583" rx="27" ry="18.3848"/>
<ellipse fill="none" stroke="black" cx="45" cy="-583" rx="31" ry="22.3848"/>
<text text-anchor="middle" x="45" y="-579.4" font-family="Times Roman,serif" font-size="14.00">q1</text>
</g>
<!-- q1&#45;&gt;q3 -->
<g id="edge6" class="edge"><title>q1&#45;&gt;q3</title>
<path fill="none" stroke="black" d="M54.9843,-561.216C61.3904,-547.239 69.7573,-528.984 76.5899,-514.077"/>
<polygon fill="black" stroke="black" points="79.8374,-515.391 80.8222,-504.842 73.4739,-512.475 79.8374,-515.391"/>
<text text-anchor="middle" x="75.5" y="-529.4" font-family="Times Roman,serif" font-size="14.00">b</text>
</g>
<!-- q8 -->
<g id="node9" class="node"><title>q8</title>
<ellipse fill="none" stroke="black" cx="31" cy="-23" rx="27" ry="18.3848"/>
<ellipse fill="none" stroke="black" cx="31" cy="-23" rx="31" ry="22.3848"/>
<text text-anchor="middle" x="31" y="-19.4" font-family="Times Roman,serif" font-size="14.00">q8</text>
</g>
<!-- q1&#45;&gt;q8 -->
<g id="edge8" class="edge"><title>q1&#45;&gt;q8</title>
<path fill="none" stroke="black" d="M39.8664,-560.634C35.8708,-541.263 31,-512.433 31,-487 31,-487 31,-487 31,-119 31,-97.8639 31,-74.1103 31,-55.5192"/>
<polygon fill="black" stroke="black" points="34.5001,-55.5005 31,-45.5005 27.5001,-55.5005 34.5001,-55.5005"/>
<text text-anchor="middle" x="35.5" y="-299.4" font-family="Times Roman,serif" font-size="14.00">a</text>
</g>
<!-- q3&#45;&gt;q5 -->
<g id="edge14" class="edge"><title>q3&#45;&gt;q5</title>
<path fill="none" stroke="black" d="M97.2362,-504.642C100.055,-510.755 103.202,-517.662 106,-524 110.549,-534.304 115.41,-545.687 119.625,-555.683"/>
<polygon fill="black" stroke="black" points="116.491,-557.26 123.589,-565.126 122.946,-554.55 116.491,-557.26"/>
<text text-anchor="middle" x="117.5" y="-529.4" font-family="Times Roman,serif" font-size="14.00">b</text>
</g>
<!-- q3&#45;&gt;q6 -->
<g id="edge16" class="edge"><title>q3&#45;&gt;q6</title>
<path fill="none" stroke="black" d="M92.6426,-468.382C95.1555,-455.538 98.5447,-438.216 101.399,-423.627"/>
<polygon fill="black" stroke="black" points="104.878,-424.076 103.363,-413.59 98.0078,-422.732 104.878,-424.076"/>
<text text-anchor="middle" x="104.5" y="-437.4" font-family="Times Roman,serif" font-size="14.00">a</text>
</g>
<!-- q8&#45;&gt;q8 -->
<g id="edge34" class="edge"><title>q8&#45;&gt;q8</title>
<path fill="none" stroke="black" d="M61.625,-27.6875C71.8333,-27.6875 80,-26.125 80,-23 80,-21.0469 76.8099,-19.7041 71.925,-18.9717"/>
<polygon fill="black" stroke="black" points="71.8282,-15.4584 61.625,-18.3125 71.381,-22.4441 71.8282,-15.4584"/>
<text text-anchor="middle" x="84.5" y="-19.4" font-family="Times Roman,serif" font-size="14.00">b</text>
</g>
<!-- q8&#45;&gt;q8 -->
<g id="edge36" class="edge"><title>q8&#45;&gt;q8</title>
<path fill="none" stroke="black" d="M54.3472,-37.9505C75.424,-45.2237 98,-40.2402 98,-23 98,-8.45355 81.9279,-2.63284 64.245,-5.53787"/>
<polygon fill="black" stroke="black" points="63.1792,-2.19731 54.3472,-8.04948 64.9009,-8.98227 63.1792,-2.19731"/>
<text text-anchor="middle" x="102.5" y="-19.4" font-family="Times Roman,serif" font-size="14.00">a</text>
</g>
<!-- q2 -->
<g id="node10" class="node"><title>q2</title>
<ellipse fill="none" stroke="black" cx="88" cy="-211" rx="27" ry="18.3848"/>
<text text-anchor="middle" x="88" y="-207.4" font-family="Times Roman,serif" font-size="14.00">q2</text>
</g>
<!-- q7 -->
<g id="node12" class="node"><title>q7</title>
<ellipse fill="none" stroke="black" cx="107" cy="-303" rx="27" ry="18.3848"/>
<text text-anchor="middle" x="107" y="-299.4" font-family="Times Roman,serif" font-size="14.00">q7</text>
</g>
<!-- q2&#45;&gt;q7 -->
<g id="edge10" class="edge"><title>q2&#45;&gt;q7</title>
<path fill="none" stroke="black" d="M91.8392,-229.59C94.4905,-242.428 98.0676,-259.748 101.081,-274.342"/>
<polygon fill="black" stroke="black" points="97.7048,-275.297 103.155,-284.382 104.56,-273.881 97.7048,-275.297"/>
<text text-anchor="middle" x="104.5" y="-253.4" font-family="Times Roman,serif" font-size="14.00">b</text>
</g>
<!-- q4 -->
<g id="node14" class="node"><title>q4</title>
<ellipse fill="none" stroke="black" cx="88" cy="-119" rx="27" ry="18.3848"/>
<text text-anchor="middle" x="88" y="-115.4" font-family="Times Roman,serif" font-size="14.00">q4</text>
</g>
<!-- q2&#45;&gt;q4 -->
<g id="edge12" class="edge"><title>q2&#45;&gt;q4</title>
<path fill="none" stroke="black" d="M88,-192.382C88,-179.538 88,-162.216 88,-147.627"/>
<polygon fill="black" stroke="black" points="91.5001,-147.59 88,-137.59 84.5001,-147.59 91.5001,-147.59"/>
<text text-anchor="middle" x="92.5" y="-161.4" font-family="Times Roman,serif" font-size="14.00">a</text>
</g>
<!-- q7&#45;&gt;q2 -->
<g id="edge30" class="edge"><title>q7&#45;&gt;q2</title>
<path fill="none" stroke="black" d="M93.5457,-286.705C89.31,-280.594 85.1726,-273.342 83,-266 80.5048,-257.568 80.4391,-248.119 81.3824,-239.464"/>
<polygon fill="black" stroke="black" points="84.8659,-239.839 82.938,-229.421 77.9484,-238.767 84.8659,-239.839"/>
<text text-anchor="middle" x="87.5" y="-253.4" font-family="Times Roman,serif" font-size="14.00">b</text>
</g>
<!-- q7&#45;&gt;q7 -->
<g id="edge32" class="edge"><title>q7&#45;&gt;q7</title>
<path fill="none" stroke="black" d="M131.074,-311.454C142.242,-312.377 152,-309.559 152,-303 152,-298.593 147.595,-295.875 141.317,-294.846"/>
<polygon fill="black" stroke="black" points="141.173,-291.34 131.074,-294.546 140.967,-298.337 141.173,-291.34"/>
<text text-anchor="middle" x="156.5" y="-299.4" font-family="Times Roman,serif" font-size="14.00">a</text>
</g>
<!-- q4&#45;&gt;q8 -->
<g id="edge18" class="edge"><title>q4&#45;&gt;q8</title>
<path fill="none" stroke="black" d="M77.8095,-101.837C69.65,-88.0947 58.018,-68.5041 48.391,-52.2901"/>
<polygon fill="black" stroke="black" points="51.3987,-50.5001 43.2837,-43.6884 45.3797,-54.0739 51.3987,-50.5001"/>
<text text-anchor="middle" x="69.5" y="-69.4" font-family="Times Roman,serif" font-size="14.00">b</text>
</g>
<!-- q9 -->
<g id="node20" class="node"><title>q9</title>
<ellipse fill="none" stroke="black" cx="161" cy="-23" rx="27" ry="18.3848"/>
<text text-anchor="middle" x="161" y="-19.4" font-family="Times Roman,serif" font-size="14.00">q9</text>
</g>
<!-- q4&#45;&gt;q9 -->
<g id="edge20" class="edge"><title>q4&#45;&gt;q9</title>
<path fill="none" stroke="black" d="M98.373,-101.683C105.236,-90.6118 114.662,-76.1102 124,-64 128.669,-57.9447 134.02,-51.6832 139.175,-45.9317"/>
<polygon fill="black" stroke="black" points="141.832,-48.2126 146,-38.472 136.667,-43.4874 141.832,-48.2126"/>
<text text-anchor="middle" x="128.5" y="-69.4" font-family="Times Roman,serif" font-size="14.00">a</text>
</g>
<!-- q6&#45;&gt;q7 -->
<g id="edge28" class="edge"><title>q6&#45;&gt;q7</title>
<path fill="none" stroke="black" d="M107,-376.382C107,-363.538 107,-346.216 107,-331.627"/>
<polygon fill="black" stroke="black" points="110.5,-331.59 107,-321.59 103.5,-331.59 110.5,-331.59"/>
<text text-anchor="middle" x="111.5" y="-345.4" font-family="Times Roman,serif" font-size="14.00">a</text>
</g>
<!-- q6&#45;&gt;q6 -->
<g id="edge26" class="edge"><title>q6&#45;&gt;q6</title>
<path fill="none" stroke="black" d="M131.074,-403.454C142.242,-404.377 152,-401.559 152,-395 152,-390.593 147.595,-387.875 141.317,-386.846"/>
<polygon fill="black" stroke="black" points="141.173,-383.34 131.074,-386.546 140.967,-390.337 141.173,-383.34"/>
<text text-anchor="middle" x="156.5" y="-391.4" font-family="Times Roman,serif" font-size="14.00">b</text>
</g>
<!-- q9&#45;&gt;q0 -->
<g id="edge38" class="edge"><title>q9&#45;&gt;q0</title>
<path fill="none" stroke="black" d="M169.401,-40.5992C177.648,-59.5199 189,-90.7014 189,-119 189,-583 189,-583 189,-583 189,-606.32 183.013,-632.106 177.433,-651.076"/>
<polygon fill="black" stroke="black" points="174.019,-650.267 174.415,-660.854 180.708,-652.331 174.019,-650.267"/>
<text text-anchor="middle" x="193.5" y="-345.4" font-family="Times Roman,serif" font-size="14.00">b</text>
</g>
<!-- q9&#45;&gt;q7 -->
<g id="edge40" class="edge"><title>q9&#45;&gt;q7</title>
<path fill="none" stroke="black" d="M158.005,-41.6173C152.088,-77.9504 138.231,-160.807 124,-230 120.959,-244.784 117.184,-261.158 113.964,-274.645"/>
<polygon fill="black" stroke="black" points="110.467,-274.216 111.526,-284.757 117.272,-275.857 110.467,-274.216"/>
<text text-anchor="middle" x="141.5" y="-161.4" font-family="Times Roman,serif" font-size="14.00">a</text>
</g>
</g>
</svg>
