<?xml version="1.0" encoding="UTF-8" standalone="no"?>
<!DOCTYPE svg PUBLIC "-//W3C//DTD SVG 1.1//EN"
 "http://www.w3.org/Graphics/SVG/1.1/DTD/svg11.dtd">
<!-- Generated by graphviz version 2.26.3 (20100126.1600)
 -->
<!-- Title: G Pages: 1 -->
<svg width="294pt" height="322pt"
 viewBox="0.00 0.00 294.00 322.00" xmlns="http://www.w3.org/2000/svg" xmlns:xlink="http://www.w3.org/1999/xlink">
<g id="graph1" class="graph" transform="scale(1 1) rotate(0) translate(4 318)">
<title>G</title>
<polygon fill="white" stroke="white" points="-4,5 -4,-318 291,-318 291,5 -4,5"/>
<!-- q2 -->
<g id="node1" class="node"><title>q2</title>
<ellipse fill="none" stroke="black" cx="125" cy="-296" rx="27" ry="18"/>
<text text-anchor="middle" x="125" y="-291.9" font-family="Times Roman,serif" font-size="14.00">q2</text>
</g>
<!-- q2&#45;&gt;q2 -->
<g id="edge2" class="edge"><title>q2&#45;&gt;q2</title>
<path fill="none" stroke="black" d="M149.532,-304.121C160.508,-304.895 170,-302.188 170,-296 170,-291.843 165.715,-289.257 159.574,-288.242"/>
<polygon fill="black" stroke="black" points="159.652,-284.742 149.532,-287.879 159.4,-291.738 159.652,-284.742"/>
<text text-anchor="middle" x="174.5" y="-291.9" font-family="Times Roman,serif" font-size="14.00">b</text>
</g>
<!-- q1 -->
<g id="node4" class="node"><title>q1</title>
<ellipse fill="none" stroke="black" cx="125" cy="-206" rx="27" ry="18"/>
<text text-anchor="middle" x="125" y="-201.9" font-family="Times Roman,serif" font-size="14.00">q1</text>
</g>
<!-- q2&#45;&gt;q1 -->
<g id="edge4" class="edge"><title>q2&#45;&gt;q1</title>
<path fill="none" stroke="black" d="M125,-277.787C125,-265.344 125,-248.605 125,-234.421"/>
<polygon fill="black" stroke="black" points="128.5,-234.186 125,-224.186 121.5,-234.186 128.5,-234.186"/>
<text text-anchor="middle" x="129.5" y="-246.9" font-family="Times Roman,serif" font-size="14.00">a</text>
</g>
<!-- q0 -->
<g id="node6" class="node"><title>q0</title>
<ellipse fill="none" stroke="black" cx="31" cy="-112" rx="27" ry="18"/>
<ellipse fill="none" stroke="black" cx="31" cy="-112" rx="31" ry="22"/>
<text text-anchor="middle" x="31" y="-107.9" font-family="Times Roman,serif" font-size="14.00">q0</text>
</g>
<!-- q1&#45;&gt;q0 -->
<g id="edge6" class="edge"><title>q1&#45;&gt;q0</title>
<path fill="none" stroke="black" d="M109.897,-190.897C95.4957,-176.496 73.5287,-154.529 56.4276,-137.428"/>
<polygon fill="black" stroke="black" points="58.5034,-134.554 48.9574,-129.957 53.5536,-139.503 58.5034,-134.554"/>
<text text-anchor="middle" x="91.5" y="-156.9" font-family="Times Roman,serif" font-size="14.00">b</text>
</g>
<!-- q4 -->
<g id="node8" class="node"><title>q4</title>
<ellipse fill="none" stroke="black" cx="125" cy="-18" rx="27" ry="18"/>
<text text-anchor="middle" x="125" y="-13.9" font-family="Times Roman,serif" font-size="14.00">q4</text>
</g>
<!-- q1&#45;&gt;q4 -->
<g id="edge8" class="edge"><title>q1&#45;&gt;q4</title>
<path fill="none" stroke="black" d="M125,-187.974C125,-155.211 125,-85.672 125,-46.4506"/>
<polygon fill="black" stroke="black" points="128.5,-46.2479 125,-36.2479 121.5,-46.2479 128.5,-46.2479"/>
<text text-anchor="middle" x="129.5" y="-107.9" font-family="Times Roman,serif" font-size="14.00">a</text>
</g>
<!-- q0&#45;&gt;q0 -->
<g id="edge18" class="edge"><title>q0&#45;&gt;q0</title>
<path fill="none" stroke="black" d="M59.6885,-120.965C70.7806,-121.363 80,-118.375 80,-112 80,-107.717 75.8382,-104.962 69.7429,-103.737"/>
<polygon fill="black" stroke="black" points="69.9079,-100.24 59.6885,-103.035 69.4205,-107.223 69.9079,-100.24"/>
<text text-anchor="middle" x="84.5" y="-107.9" font-family="Times Roman,serif" font-size="14.00">b</text>
</g>
<!-- q0&#45;&gt;q4 -->
<g id="edge20" class="edge"><title>q0&#45;&gt;q4</title>
<path fill="none" stroke="black" d="M38.1325,-90.5221C42.8908,-78.6757 50.1053,-64.3207 60,-54 68.9971,-44.6155 80.9841,-37.0406 92.2125,-31.3049"/>
<polygon fill="black" stroke="black" points="93.8715,-34.3912 101.384,-26.9201 90.8521,-28.0759 93.8715,-34.3912"/>
<text text-anchor="middle" x="64.5" y="-58.9" font-family="Times Roman,serif" font-size="14.00">a</text>
</g>
<!-- q4&#45;&gt;q1 -->
<g id="edge12" class="edge"><title>q4&#45;&gt;q1</title>
<path fill="none" stroke="black" d="M133.179,-35.1945C135.547,-41.0283 137.813,-47.6726 139,-54 148.506,-104.672 148.506,-119.328 139,-170 138.425,-173.065 137.597,-176.204 136.627,-179.289"/>
<polygon fill="black" stroke="black" points="133.295,-178.211 133.179,-188.805 139.876,-180.596 133.295,-178.211"/>
<text text-anchor="middle" x="150.5" y="-107.9" font-family="Times Roman,serif" font-size="14.00">a</text>
</g>
<!-- q4&#45;&gt;q0 -->
<g id="edge10" class="edge"><title>q4&#45;&gt;q0</title>
<path fill="none" stroke="black" d="M109.727,-33.2726C95.3612,-47.6388 73.5765,-69.4235 56.5621,-86.4379"/>
<polygon fill="black" stroke="black" points="53.7204,-84.3299 49.1241,-93.8759 58.6701,-89.2796 53.7204,-84.3299"/>
<text text-anchor="middle" x="91.5" y="-58.9" font-family="Times Roman,serif" font-size="14.00">b</text>
</g>
<!-- q3 -->
<g id="node11" class="node"><title>q3</title>
<ellipse fill="none" stroke="black" cx="228" cy="-112" rx="27" ry="18"/>
<ellipse fill="none" stroke="black" cx="228" cy="-112" rx="31" ry="22"/>
<text text-anchor="middle" x="228" y="-107.9" font-family="Times Roman,serif" font-size="14.00">q3</text>
</g>
<!-- q3&#45;&gt;q4 -->
<g id="edge16" class="edge"><title>q3&#45;&gt;q4</title>
<path fill="none" stroke="black" d="M215.375,-91.6856C207.347,-79.8008 196.191,-65.0162 184,-54 175.567,-46.3792 165.296,-39.4691 155.703,-33.7872"/>
<polygon fill="black" stroke="black" points="157.22,-30.6235 146.795,-28.7328 153.765,-36.7118 157.22,-30.6235"/>
<text text-anchor="middle" x="204.5" y="-58.9" font-family="Times Roman,serif" font-size="14.00">a</text>
</g>
<!-- q3&#45;&gt;q3 -->
<g id="edge14" class="edge"><title>q3&#45;&gt;q3</title>
<path fill="none" stroke="black" d="M256.689,-120.965C267.781,-121.363 277,-118.375 277,-112 277,-107.717 272.838,-104.962 266.743,-103.737"/>
<polygon fill="black" stroke="black" points="266.908,-100.24 256.689,-103.035 266.421,-107.223 266.908,-100.24"/>
<text text-anchor="middle" x="281.5" y="-107.9" font-family="Times Roman,serif" font-size="14.00">b</text>
</g>
</g>
</svg>
