<?xml version="1.0" encoding="UTF-8" standalone="no"?>
<!DOCTYPE svg PUBLIC "-//W3C//DTD SVG 1.1//EN"
 "http://www.w3.org/Graphics/SVG/1.1/DTD/svg11.dtd">
<!-- Generated by graphviz version 2.26.3 (20100126.1600)
 -->
<!-- Title: G Pages: 1 -->
<svg width="129pt" height="330pt"
 viewBox="0.00 0.00 129.00 330.00" xmlns="http://www.w3.org/2000/svg" xmlns:xlink="http://www.w3.org/1999/xlink">
<g id="graph1" class="graph" transform="scale(1 1) rotate(0) translate(4 326)">
<title>G</title>
<polygon fill="white" stroke="white" points="-4,5 -4,-326 126,-326 126,5 -4,5"/>
<!-- q1 -->
<g id="node1" class="node"><title>q1</title>
<ellipse fill="none" stroke="black" cx="90" cy="-300" rx="27" ry="18"/>
<ellipse fill="none" stroke="black" cx="90" cy="-300" rx="31" ry="22"/>
<text text-anchor="middle" x="90" y="-295.9" font-family="Times Roman,serif" font-size="14.00">q1</text>
</g>
<!-- q3 -->
<g id="node3" class="node"><title>q3</title>
<ellipse fill="none" stroke="black" cx="27" cy="-206" rx="27" ry="18"/>
<text text-anchor="middle" x="27" y="-201.9" font-family="Times Roman,serif" font-size="14.00">q3</text>
</g>
<!-- q1&#45;&gt;q3 -->
<g id="edge2" class="edge"><title>q1&#45;&gt;q3</title>
<path fill="none" stroke="black" d="M76.6393,-280.065C67.0378,-265.739 54.0254,-246.324 43.7322,-230.966"/>
<polygon fill="black" stroke="black" points="46.5072,-228.819 38.0323,-222.461 40.6923,-232.716 46.5072,-228.819"/>
<text text-anchor="middle" x="67.5" y="-246.9" font-family="Times Roman,serif" font-size="14.00">b</text>
</g>
<!-- q4 -->
<g id="node5" class="node"><title>q4</title>
<ellipse fill="none" stroke="black" cx="90" cy="-112" rx="27" ry="18"/>
<ellipse fill="none" stroke="black" cx="90" cy="-112" rx="31" ry="22"/>
<text text-anchor="middle" x="90" y="-107.9" font-family="Times Roman,serif" font-size="14.00">q4</text>
</g>
<!-- q1&#45;&gt;q4 -->
<g id="edge4" class="edge"><title>q1&#45;&gt;q4</title>
<path fill="none" stroke="black" d="M90,-277.696C90,-244.623 90,-182.397 90,-144.328"/>
<polygon fill="black" stroke="black" points="93.5001,-144.275 90,-134.275 86.5001,-144.275 93.5001,-144.275"/>
<text text-anchor="middle" x="94.5" y="-201.9" font-family="Times Roman,serif" font-size="14.00">a</text>
</g>
<!-- q3&#45;&gt;q4 -->
<g id="edge12" class="edge"><title>q3&#45;&gt;q4</title>
<path fill="none" stroke="black" d="M38.2631,-189.195C47.3414,-175.649 60.3084,-156.302 70.9894,-140.365"/>
<polygon fill="black" stroke="black" points="73.9889,-142.176 76.649,-131.921 68.1741,-138.279 73.9889,-142.176"/>
<text text-anchor="middle" x="67.5" y="-156.9" font-family="Times Roman,serif" font-size="14.00">a</text>
</g>
<!-- q0 -->
<g id="node8" class="node"><title>q0</title>
<ellipse fill="none" stroke="darkred" cx="32" cy="-18" rx="27" ry="18"/>
<text text-anchor="middle" x="32" y="-13.9" font-family="Times Roman,serif" font-size="14.00">q0</text>
</g>
<!-- q3&#45;&gt;q0 -->
<g id="edge10" class="edge"><title>q3&#45;&gt;q0</title>
<path fill="none" stroke="black" d="M27.4794,-187.974C28.3508,-155.211 30.2002,-85.672 31.2433,-46.4506"/>
<polygon fill="black" stroke="black" points="34.7475,-46.3374 31.5147,-36.2479 27.75,-46.1513 34.7475,-46.3374"/>
<text text-anchor="middle" x="35.5" y="-107.9" font-family="Times Roman,serif" font-size="14.00">b</text>
</g>
<!-- q4&#45;&gt;q1 -->
<g id="edge6" class="edge"><title>q4&#45;&gt;q1</title>
<path fill="none" stroke="black" d="M98.9192,-133.238C101.012,-139.201 102.94,-145.762 104,-152 112.042,-199.322 112.042,-212.678 104,-260 103.487,-263.022 102.769,-266.119 101.929,-269.187"/>
<polygon fill="black" stroke="black" points="98.5788,-268.173 98.9192,-278.762 105.257,-270.272 98.5788,-268.173"/>
<text text-anchor="middle" x="114.5" y="-201.9" font-family="Times Roman,serif" font-size="14.00">b</text>
</g>
<!-- q4&#45;&gt;q0 -->
<g id="edge8" class="edge"><title>q4&#45;&gt;q0</title>
<path fill="none" stroke="black" d="M77.4149,-91.6034C68.7514,-77.5626 57.1737,-58.7988 47.8766,-43.731"/>
<polygon fill="black" stroke="black" points="50.6586,-41.5745 42.4289,-34.902 44.7014,-45.2503 50.6586,-41.5745"/>
<text text-anchor="middle" x="69.5" y="-58.9" font-family="Times Roman,serif" font-size="14.00">a</text>
</g>
<!-- q0&#45;&gt;q3 -->
<g id="edge14" class="edge"><title>q0&#45;&gt;q3</title>
<path fill="none" stroke="black" d="M26.8852,-35.867C23.0247,-50.3262 18.0539,-71.2892 16,-90 12.7076,-119.993 16.986,-154.414 21.1307,-177.922"/>
<polygon fill="black" stroke="black" points="17.7181,-178.714 22.9979,-187.9 24.5986,-177.426 17.7181,-178.714"/>
<text text-anchor="middle" x="20.5" y="-107.9" font-family="Times Roman,serif" font-size="14.00">b</text>
</g>
<!-- q0&#45;&gt;q0 -->
<g id="edge16" class="edge"><title>q0&#45;&gt;q0</title>
<path fill="none" stroke="black" d="M56.5325,-26.1211C67.5078,-26.8945 77,-24.1875 77,-18 77,-13.8428 72.7151,-11.2567 66.5743,-10.2417"/>
<polygon fill="black" stroke="black" points="66.6524,-6.74237 56.5325,-9.87891 66.3995,-13.7378 66.6524,-6.74237"/>
<text text-anchor="middle" x="81.5" y="-13.9" font-family="Times Roman,serif" font-size="14.00">a</text>
</g>
</g>
</svg>
