<?xml version="1.0" encoding="UTF-8" standalone="no"?>
<!DOCTYPE svg PUBLIC "-//W3C//DTD SVG 1.1//EN"
 "http://www.w3.org/Graphics/SVG/1.1/DTD/svg11.dtd">
<!-- Generated by graphviz version 2.26.3 (20100126.1600)
 -->
<!-- Title: G Pages: 1 -->
<svg width="228pt" height="506pt"
 viewBox="0.00 0.00 228.00 506.00" xmlns="http://www.w3.org/2000/svg" xmlns:xlink="http://www.w3.org/1999/xlink">
<g id="graph1" class="graph" transform="scale(1 1) rotate(0) translate(4 502)">
<title>G</title>
<polygon fill="white" stroke="white" points="-4,5 -4,-502 225,-502 225,5 -4,5"/>
<!-- q6 -->
<g id="node1" class="node"><title>q6</title>
<ellipse fill="none" stroke="black" cx="106" cy="-479" rx="27" ry="18.3848"/>
<text text-anchor="middle" x="106" y="-475.4" font-family="Times Roman,serif" font-size="14.00">q6</text>
</g>
<!-- q2 -->
<g id="node3" class="node"><title>q2</title>
<ellipse fill="none" stroke="black" cx="148" cy="-387" rx="27" ry="18.3848"/>
<text text-anchor="middle" x="148" y="-383.4" font-family="Times Roman,serif" font-size="14.00">q2</text>
</g>
<!-- q6&#45;&gt;q2 -->
<g id="edge2" class="edge"><title>q6&#45;&gt;q2</title>
<path fill="none" stroke="black" d="M114.098,-461.261C120.199,-447.898 128.672,-429.338 135.621,-414.117"/>
<polygon fill="black" stroke="black" points="138.958,-415.235 139.927,-404.684 132.59,-412.327 138.958,-415.235"/>
<text text-anchor="middle" x="134.5" y="-429.4" font-family="Times Roman,serif" font-size="14.00">b</text>
</g>
<!-- q5 -->
<g id="node5" class="node"><title>q5</title>
<ellipse fill="none" stroke="black" cx="49" cy="-387" rx="27" ry="18.3848"/>
<text text-anchor="middle" x="49" y="-383.4" font-family="Times Roman,serif" font-size="14.00">q5</text>
</g>
<!-- q6&#45;&gt;q5 -->
<g id="edge4" class="edge"><title>q6&#45;&gt;q5</title>
<path fill="none" stroke="black" d="M95.2787,-461.696C86.76,-447.946 74.7127,-428.501 65.0454,-412.898"/>
<polygon fill="black" stroke="black" points="67.9152,-410.884 59.6732,-404.227 61.9647,-414.571 67.9152,-410.884"/>
<text text-anchor="middle" x="86.5" y="-429.4" font-family="Times Roman,serif" font-size="14.00">a</text>
</g>
<!-- q3 -->
<g id="node8" class="node"><title>q3</title>
<ellipse fill="none" stroke="black" cx="127" cy="-295" rx="27" ry="18.3848"/>
<text text-anchor="middle" x="127" y="-291.4" font-family="Times Roman,serif" font-size="14.00">q3</text>
</g>
<!-- q2&#45;&gt;q3 -->
<g id="edge10" class="edge"><title>q2&#45;&gt;q3</title>
<path fill="none" stroke="black" d="M143.75,-368.382C140.819,-355.538 136.865,-338.216 133.534,-323.627"/>
<polygon fill="black" stroke="black" points="136.881,-322.56 131.243,-313.59 130.057,-324.118 136.881,-322.56"/>
<text text-anchor="middle" x="143.5" y="-337.4" font-family="Times Roman,serif" font-size="14.00">b</text>
</g>
<!-- q1 -->
<g id="node11" class="node"><title>q1</title>
<ellipse fill="none" stroke="black" cx="127" cy="-19" rx="27" ry="18.3848"/>
<text text-anchor="middle" x="127" y="-15.4" font-family="Times Roman,serif" font-size="14.00">q1</text>
</g>
<!-- q2&#45;&gt;q1 -->
<g id="edge12" class="edge"><title>q2&#45;&gt;q1</title>
<path fill="none" stroke="black" d="M165.885,-372.798C184.51,-356.278 211,-327.135 211,-295 211,-295 211,-295 211,-111 211,-78.0607 181.271,-51.7528 157.185,-35.8439"/>
<polygon fill="black" stroke="black" points="158.96,-32.8253 148.632,-30.4603 155.231,-38.7494 158.96,-32.8253"/>
<text text-anchor="middle" x="215.5" y="-199.4" font-family="Times Roman,serif" font-size="14.00">a</text>
</g>
<!-- q5&#45;&gt;q5 -->
<g id="edge6" class="edge"><title>q5&#45;&gt;q5</title>
<path fill="none" stroke="black" d="M73.0743,-395.454C84.2423,-396.377 94,-393.559 94,-387 94,-382.593 89.5952,-379.875 83.3174,-378.846"/>
<polygon fill="black" stroke="black" points="83.1726,-375.34 73.0743,-378.546 82.9674,-382.337 83.1726,-375.34"/>
<text text-anchor="middle" x="98.5" y="-383.4" font-family="Times Roman,serif" font-size="14.00">b</text>
</g>
<!-- q5&#45;&gt;q3 -->
<g id="edge8" class="edge"><title>q5&#45;&gt;q3</title>
<path fill="none" stroke="black" d="M62.5866,-370.975C74.7035,-356.683 92.6174,-335.554 106.48,-319.203"/>
<polygon fill="black" stroke="black" points="109.51,-321.041 113.307,-311.15 104.171,-316.514 109.51,-321.041"/>
<text text-anchor="middle" x="98.5" y="-337.4" font-family="Times Roman,serif" font-size="14.00">a</text>
</g>
<!-- q3&#45;&gt;q1 -->
<g id="edge24" class="edge"><title>q3&#45;&gt;q1</title>
<path fill="none" stroke="black" d="M127,-276.462C127,-229.34 127,-104.696 127,-47.9145"/>
<polygon fill="black" stroke="black" points="130.5,-47.8204 127,-37.8205 123.5,-47.8205 130.5,-47.8204"/>
<text text-anchor="middle" x="131.5" y="-153.4" font-family="Times Roman,serif" font-size="14.00">a</text>
</g>
<!-- q0 -->
<g id="node18" class="node"><title>q0</title>
<ellipse fill="none" stroke="black" cx="72" cy="-203" rx="27" ry="18.3848"/>
<text text-anchor="middle" x="72" y="-199.4" font-family="Times Roman,serif" font-size="14.00">q0</text>
</g>
<!-- q3&#45;&gt;q0 -->
<g id="edge22" class="edge"><title>q3&#45;&gt;q0</title>
<path fill="none" stroke="black" d="M116.13,-277.747C112.261,-271.545 107.899,-264.481 104,-258 98.3625,-248.628 92.2996,-238.28 86.9834,-229.111"/>
<polygon fill="black" stroke="black" points="89.9929,-227.324 81.9596,-220.416 83.9319,-230.826 89.9929,-227.324"/>
<text text-anchor="middle" x="108.5" y="-245.4" font-family="Times Roman,serif" font-size="14.00">b</text>
</g>
<!-- q1&#45;&gt;q3 -->
<g id="edge16" class="edge"><title>q1&#45;&gt;q3</title>
<path fill="none" stroke="black" d="M135.18,-36.6924C137.549,-42.6896 139.814,-49.5142 141,-56 157.149,-144.313 157.149,-169.687 141,-258 140.407,-261.243 139.544,-264.57 138.534,-267.837"/>
<polygon fill="black" stroke="black" points="135.219,-266.713 135.18,-277.308 141.817,-269.049 135.219,-266.713"/>
<text text-anchor="middle" x="157.5" y="-153.4" font-family="Times Roman,serif" font-size="14.00">a</text>
</g>
<!-- q1&#45;&gt;q1 -->
<g id="edge14" class="edge"><title>q1&#45;&gt;q1</title>
<path fill="none" stroke="black" d="M151.074,-27.4544C162.242,-28.3767 172,-25.5586 172,-19 172,-14.5934 167.595,-11.8754 161.317,-10.8458"/>
<polygon fill="black" stroke="black" points="161.173,-7.34018 151.074,-10.5456 160.967,-14.3372 161.173,-7.34018"/>
<text text-anchor="middle" x="176.5" y="-15.4" font-family="Times Roman,serif" font-size="14.00">b</text>
</g>
<!-- q4 -->
<g id="node14" class="node"><title>q4</title>
<ellipse fill="none" stroke="black" cx="27" cy="-111" rx="27" ry="18.3848"/>
<text text-anchor="middle" x="27" y="-107.4" font-family="Times Roman,serif" font-size="14.00">q4</text>
</g>
<!-- q4&#45;&gt;q2 -->
<g id="edge18" class="edge"><title>q4&#45;&gt;q2</title>
<path fill="none" stroke="black" d="M25.3468,-129.695C22.5168,-173.631 21.6465,-284.666 77,-350 88.3073,-363.346 96.4871,-359.918 112,-368 113.739,-368.906 115.524,-369.839 117.325,-370.782"/>
<polygon fill="black" stroke="black" points="115.837,-373.954 126.318,-375.509 119.094,-367.758 115.837,-373.954"/>
<text text-anchor="middle" x="39.5" y="-245.4" font-family="Times Roman,serif" font-size="14.00">b</text>
</g>
<!-- q4&#45;&gt;q1 -->
<g id="edge20" class="edge"><title>q4&#45;&gt;q1</title>
<path fill="none" stroke="black" d="M37.0431,-93.7745C44.3584,-82.1911 55.0483,-67.0739 67,-56 75.66,-47.9761 86.3134,-40.7454 96.2281,-34.8496"/>
<polygon fill="black" stroke="black" points="98.0906,-37.8167 105.047,-29.8258 94.6258,-31.7343 98.0906,-37.8167"/>
<text text-anchor="middle" x="71.5" y="-61.4" font-family="Times Roman,serif" font-size="14.00">a</text>
</g>
<!-- q0&#45;&gt;q1 -->
<g id="edge26" class="edge"><title>q0&#45;&gt;q1</title>
<path fill="none" stroke="black" d="M76.5306,-184.738C83.5909,-156.788 97.975,-101.82 113,-56 114.027,-52.8674 115.161,-49.6088 116.326,-46.3815"/>
<polygon fill="black" stroke="black" points="119.628,-47.5438 119.837,-36.951 113.068,-45.1015 119.628,-47.5438"/>
<text text-anchor="middle" x="105.5" y="-107.4" font-family="Times Roman,serif" font-size="14.00">b</text>
</g>
<!-- q0&#45;&gt;q4 -->
<g id="edge28" class="edge"><title>q0&#45;&gt;q4</title>
<path fill="none" stroke="black" d="M63.3235,-185.261C56.7247,-171.77 47.5357,-152.984 40.0513,-137.683"/>
<polygon fill="black" stroke="black" points="43.1878,-136.129 35.6498,-128.684 36.8997,-139.205 43.1878,-136.129"/>
<text text-anchor="middle" x="58.5" y="-153.4" font-family="Times Roman,serif" font-size="14.00">a</text>
</g>
</g>
</svg>
