<?xml version="1.0" encoding="UTF-8" standalone="no"?>
<!DOCTYPE svg PUBLIC "-//W3C//DTD SVG 1.1//EN"
 "http://www.w3.org/Graphics/SVG/1.1/DTD/svg11.dtd">
<!-- Generated by graphviz version 2.26.3 (20100126.1600)
 -->
<!-- Title: G Pages: 1 -->
<svg width="144pt" height="322pt"
 viewBox="0.00 0.00 144.00 322.00" xmlns="http://www.w3.org/2000/svg" xmlns:xlink="http://www.w3.org/1999/xlink">
<g id="graph1" class="graph" transform="scale(1 1) rotate(0) translate(4 318)">
<title>G</title>
<polygon fill="white" stroke="white" points="-4,5 -4,-318 141,-318 141,5 -4,5"/>
<!-- q1 -->
<g id="node1" class="node"><title>q1</title>
<ellipse fill="none" stroke="black" cx="90" cy="-292" rx="27" ry="18"/>
<ellipse fill="none" stroke="black" cx="90" cy="-292" rx="31" ry="22"/>
<text text-anchor="middle" x="90" y="-287.9" font-family="Times Roman,serif" font-size="14.00">q1</text>
</g>
<!-- q3 -->
<g id="node3" class="node"><title>q3</title>
<ellipse fill="none" stroke="black" cx="27" cy="-198" rx="27" ry="18"/>
<text text-anchor="middle" x="27" y="-193.9" font-family="Times Roman,serif" font-size="14.00">q3</text>
</g>
<!-- q1&#45;&gt;q3 -->
<g id="edge2" class="edge"><title>q1&#45;&gt;q3</title>
<path fill="none" stroke="black" d="M76.6393,-272.065C67.0378,-257.739 54.0254,-238.324 43.7322,-222.966"/>
<polygon fill="black" stroke="black" points="46.5072,-220.819 38.0323,-214.461 40.6923,-224.716 46.5072,-220.819"/>
<text text-anchor="middle" x="67.5" y="-238.9" font-family="Times Roman,serif" font-size="14.00">b</text>
</g>
<!-- q0 -->
<g id="node5" class="node"><title>q0</title>
<ellipse fill="none" stroke="darkred" cx="49" cy="-18" rx="27" ry="18"/>
<text text-anchor="middle" x="49" y="-13.9" font-family="Times Roman,serif" font-size="14.00">q0</text>
</g>
<!-- q1&#45;&gt;q0 -->
<g id="edge4" class="edge"><title>q1&#45;&gt;q0</title>
<path fill="none" stroke="black" d="M99.5336,-270.802C115.075,-233.054 141.771,-152.304 117,-90 108.693,-69.1048 91.1262,-50.7681 75.9292,-37.8291"/>
<polygon fill="black" stroke="black" points="77.7688,-34.8135 67.8041,-31.2141 73.3492,-40.2419 77.7688,-34.8135"/>
<text text-anchor="middle" x="131.5" y="-148.9" font-family="Times Roman,serif" font-size="14.00">a</text>
</g>
<!-- q3&#45;&gt;q0 -->
<g id="edge10" class="edge"><title>q3&#45;&gt;q0</title>
<path fill="none" stroke="black" d="M27.974,-179.981C29.2571,-158.494 31.85,-121.525 36,-90 37.9229,-75.3926 40.7721,-59.241 43.3135,-45.9434"/>
<polygon fill="black" stroke="black" points="46.7785,-46.4607 45.262,-35.9749 39.9086,-45.1177 46.7785,-46.4607"/>
<text text-anchor="middle" x="40.5" y="-103.9" font-family="Times Roman,serif" font-size="14.00">b</text>
</g>
<!-- q4 -->
<g id="node6" class="node"><title>q4</title>
<ellipse fill="none" stroke="black" cx="81" cy="-108" rx="27" ry="18"/>
<text text-anchor="middle" x="81" y="-103.9" font-family="Times Roman,serif" font-size="14.00">q4</text>
</g>
<!-- q3&#45;&gt;q4 -->
<g id="edge12" class="edge"><title>q3&#45;&gt;q4</title>
<path fill="none" stroke="black" d="M37.157,-181.072C45.152,-167.747 56.4276,-148.954 65.5417,-133.764"/>
<polygon fill="black" stroke="black" points="68.7448,-135.228 70.8886,-124.852 62.7423,-131.627 68.7448,-135.228"/>
<text text-anchor="middle" x="63.5" y="-148.9" font-family="Times Roman,serif" font-size="14.00">a</text>
</g>
<!-- q0&#45;&gt;q3 -->
<g id="edge14" class="edge"><title>q0&#45;&gt;q3</title>
<path fill="none" stroke="black" d="M39.8971,-35.1768C32.8947,-49.415 23.795,-70.4201 20,-90 14.8075,-116.79 17.7596,-147.943 21.2863,-169.886"/>
<polygon fill="black" stroke="black" points="17.86,-170.612 23.0306,-179.859 24.7553,-169.406 17.86,-170.612"/>
<text text-anchor="middle" x="24.5" y="-103.9" font-family="Times Roman,serif" font-size="14.00">b</text>
</g>
<!-- q0&#45;&gt;q0 -->
<g id="edge16" class="edge"><title>q0&#45;&gt;q0</title>
<path fill="none" stroke="black" d="M73.5325,-26.1211C84.5078,-26.8945 94,-24.1875 94,-18 94,-13.8428 89.7151,-11.2567 83.5743,-10.2417"/>
<polygon fill="black" stroke="black" points="83.6524,-6.74237 73.5325,-9.87891 83.3995,-13.7378 83.6524,-6.74237"/>
<text text-anchor="middle" x="98.5" y="-13.9" font-family="Times Roman,serif" font-size="14.00">a</text>
</g>
<!-- q4&#45;&gt;q1 -->
<g id="edge6" class="edge"><title>q4&#45;&gt;q1</title>
<path fill="none" stroke="black" d="M81.887,-126.135C83.4038,-157.144 86.5153,-220.756 88.4135,-259.565"/>
<polygon fill="black" stroke="black" points="84.9299,-259.988 88.9144,-269.805 91.9216,-259.646 84.9299,-259.988"/>
<text text-anchor="middle" x="90.5" y="-193.9" font-family="Times Roman,serif" font-size="14.00">b</text>
</g>
<!-- q4&#45;&gt;q0 -->
<g id="edge8" class="edge"><title>q4&#45;&gt;q0</title>
<path fill="none" stroke="black" d="M74.6778,-90.2189C70.1197,-77.3991 63.883,-59.8584 58.6975,-45.2742"/>
<polygon fill="black" stroke="black" points="61.957,-43.9938 55.309,-35.7442 55.3614,-46.3389 61.957,-43.9938"/>
<text text-anchor="middle" x="71.5" y="-58.9" font-family="Times Roman,serif" font-size="14.00">a</text>
</g>
</g>
</svg>
