<?xml version="1.0" encoding="UTF-8" standalone="no"?>
<!DOCTYPE svg PUBLIC "-//W3C//DTD SVG 1.1//EN"
 "http://www.w3.org/Graphics/SVG/1.1/DTD/svg11.dtd">
<!-- Generated by graphviz version 2.26.3 (20100126.1600)
 -->
<!-- Title: G Pages: 1 -->
<svg width="163pt" height="330pt"
 viewBox="0.00 0.00 163.00 330.00" xmlns="http://www.w3.org/2000/svg" xmlns:xlink="http://www.w3.org/1999/xlink">
<g id="graph1" class="graph" transform="scale(1 1) rotate(0) translate(4 326)">
<title>G</title>
<polygon fill="white" stroke="white" points="-4,5 -4,-326 160,-326 160,5 -4,5"/>
<!-- q2 -->
<g id="node1" class="node"><title>q2</title>
<ellipse fill="none" stroke="black" cx="101" cy="-304" rx="27" ry="18"/>
<text text-anchor="middle" x="101" y="-299.9" font-family="Times Roman,serif" font-size="14.00">q2</text>
</g>
<!-- q2&#45;&gt;q2 -->
<g id="edge2" class="edge"><title>q2&#45;&gt;q2</title>
<path fill="none" stroke="black" d="M125.532,-312.121C136.508,-312.895 146,-310.188 146,-304 146,-299.843 141.715,-297.257 135.574,-296.242"/>
<polygon fill="black" stroke="black" points="135.652,-292.742 125.532,-295.879 135.4,-299.738 135.652,-292.742"/>
<text text-anchor="middle" x="150.5" y="-299.9" font-family="Times Roman,serif" font-size="14.00">b</text>
</g>
<!-- q3 -->
<g id="node4" class="node"><title>q3</title>
<ellipse fill="none" stroke="black" cx="31" cy="-210" rx="27" ry="18"/>
<ellipse fill="none" stroke="black" cx="31" cy="-210" rx="31" ry="22"/>
<text text-anchor="middle" x="31" y="-205.9" font-family="Times Roman,serif" font-size="14.00">q3</text>
</g>
<!-- q2&#45;&gt;q3 -->
<g id="edge4" class="edge"><title>q2&#45;&gt;q3</title>
<path fill="none" stroke="black" d="M88.8069,-287.626C78.5999,-273.92 63.8092,-254.058 51.7443,-237.857"/>
<polygon fill="black" stroke="black" points="54.5022,-235.7 45.7223,-229.77 48.8878,-239.881 54.5022,-235.7"/>
<text text-anchor="middle" x="77.5" y="-254.9" font-family="Times Roman,serif" font-size="14.00">a</text>
</g>
<!-- q3&#45;&gt;q3 -->
<g id="edge10" class="edge"><title>q3&#45;&gt;q3</title>
<path fill="none" stroke="black" d="M59.6885,-218.965C70.7806,-219.363 80,-216.375 80,-210 80,-205.717 75.8382,-202.962 69.7429,-201.737"/>
<polygon fill="black" stroke="black" points="69.9079,-198.24 59.6885,-201.035 69.4205,-205.223 69.9079,-198.24"/>
<text text-anchor="middle" x="84.5" y="-205.9" font-family="Times Roman,serif" font-size="14.00">b</text>
</g>
<!-- q4 -->
<g id="node5" class="node"><title>q4</title>
<ellipse fill="none" stroke="black" cx="95" cy="-116" rx="27" ry="18"/>
<text text-anchor="middle" x="95" y="-111.9" font-family="Times Roman,serif" font-size="14.00">q4</text>
</g>
<!-- q3&#45;&gt;q4 -->
<g id="edge12" class="edge"><title>q3&#45;&gt;q4</title>
<path fill="none" stroke="black" d="M44.5728,-190.065C54.3267,-175.739 67.5456,-156.324 78.0022,-140.966"/>
<polygon fill="black" stroke="black" points="81.0577,-142.697 83.7926,-132.461 75.2715,-138.757 81.0577,-142.697"/>
<text text-anchor="middle" x="73.5" y="-156.9" font-family="Times Roman,serif" font-size="14.00">a</text>
</g>
<!-- q4&#45;&gt;q2 -->
<g id="edge8" class="edge"><title>q4&#45;&gt;q2</title>
<path fill="none" stroke="black" d="M95.831,-134.047C96.4824,-148.608 97.3794,-169.62 98,-188 99.0094,-217.896 99.8571,-252.136 100.391,-275.624"/>
<polygon fill="black" stroke="black" points="96.8984,-275.995 100.621,-285.914 103.897,-275.838 96.8984,-275.995"/>
<text text-anchor="middle" x="104.5" y="-205.9" font-family="Times Roman,serif" font-size="14.00">a</text>
</g>
<!-- q0 -->
<g id="node7" class="node"><title>q0</title>
<ellipse fill="none" stroke="black" cx="95" cy="-22" rx="27" ry="18"/>
<ellipse fill="none" stroke="black" cx="95" cy="-22" rx="31" ry="22"/>
<text text-anchor="middle" x="95" y="-17.9" font-family="Times Roman,serif" font-size="14.00">q0</text>
</g>
<!-- q4&#45;&gt;q0 -->
<g id="edge6" class="edge"><title>q4&#45;&gt;q0</title>
<path fill="none" stroke="black" d="M78.3489,-101.502C72.6612,-95.4908 66.9852,-88.0416 64,-80 61.2159,-72.5001 61.4103,-69.5692 64,-62 65.6211,-57.2617 68.0572,-52.6505 70.865,-48.3445"/>
<polygon fill="black" stroke="black" points="73.9028,-50.1214 77.0082,-39.9919 68.2637,-45.9739 73.9028,-50.1214"/>
<text text-anchor="middle" x="68.5" y="-66.9" font-family="Times Roman,serif" font-size="14.00">b</text>
</g>
<!-- q0&#45;&gt;q4 -->
<g id="edge14" class="edge"><title>q0&#45;&gt;q4</title>
<path fill="none" stroke="black" d="M95,-44.0388C95,-57.0958 95,-73.7734 95,-87.785"/>
<polygon fill="black" stroke="black" points="91.5001,-87.8758 95,-97.8759 98.5001,-87.8759 91.5001,-87.8758"/>
<text text-anchor="middle" x="99.5" y="-66.9" font-family="Times Roman,serif" font-size="14.00">b</text>
</g>
<!-- q0&#45;&gt;q4 -->
<g id="edge16" class="edge"><title>q0&#45;&gt;q4</title>
<path fill="none" stroke="black" d="M101.937,-43.7022C104.597,-54.5722 106.642,-67.952 105,-80 104.627,-82.7376 104.101,-85.5608 103.484,-88.3653"/>
<polygon fill="black" stroke="black" points="100.041,-87.6996 100.956,-98.2549 106.823,-89.4331 100.041,-87.6996"/>
<text text-anchor="middle" x="109.5" y="-66.9" font-family="Times Roman,serif" font-size="14.00">a</text>
</g>
</g>
</svg>
