<?xml version="1.0" encoding="UTF-8" standalone="no"?>
<!DOCTYPE svg PUBLIC "-//W3C//DTD SVG 1.1//EN"
 "http://www.w3.org/Graphics/SVG/1.1/DTD/svg11.dtd">
<!-- Generated by graphviz version 2.26.3 (20100126.1600)
 -->
<!-- Title: G Pages: 1 -->
<svg width="160pt" height="420pt"
 viewBox="0.00 0.00 160.00 420.00" xmlns="http://www.w3.org/2000/svg" xmlns:xlink="http://www.w3.org/1999/xlink">
<g id="graph1" class="graph" transform="scale(1 1) rotate(0) translate(4 416)">
<title>G</title>
<polygon fill="white" stroke="white" points="-4,5 -4,-416 157,-416 157,5 -4,5"/>
<!-- q2 -->
<g id="node1" class="node"><title>q2</title>
<ellipse fill="none" stroke="black" cx="94" cy="-394" rx="27" ry="18"/>
<text text-anchor="middle" x="94" y="-389.9" font-family="Times Roman,serif" font-size="14.00">q2</text>
</g>
<!-- q2&#45;&gt;q2 -->
<g id="edge2" class="edge"><title>q2&#45;&gt;q2</title>
<path fill="none" stroke="black" d="M118.532,-402.121C129.508,-402.895 139,-400.188 139,-394 139,-389.843 134.715,-387.257 128.574,-386.242"/>
<polygon fill="black" stroke="black" points="128.652,-382.742 118.532,-385.879 128.4,-389.738 128.652,-382.742"/>
<text text-anchor="middle" x="143.5" y="-389.9" font-family="Times Roman,serif" font-size="14.00">b</text>
</g>
<!-- q1 -->
<g id="node4" class="node"><title>q1</title>
<ellipse fill="none" stroke="black" cx="94" cy="-300" rx="27" ry="18"/>
<ellipse fill="none" stroke="black" cx="94" cy="-300" rx="31" ry="22"/>
<text text-anchor="middle" x="94" y="-295.9" font-family="Times Roman,serif" font-size="14.00">q1</text>
</g>
<!-- q2&#45;&gt;q1 -->
<g id="edge4" class="edge"><title>q2&#45;&gt;q1</title>
<path fill="none" stroke="black" d="M94,-375.876C94,-363.512 94,-346.795 94,-332.199"/>
<polygon fill="black" stroke="black" points="97.5001,-332.039 94,-322.039 90.5001,-332.039 97.5001,-332.039"/>
<text text-anchor="middle" x="98.5" y="-344.9" font-family="Times Roman,serif" font-size="14.00">a</text>
</g>
<!-- q1&#45;&gt;q1 -->
<g id="edge8" class="edge"><title>q1&#45;&gt;q1</title>
<path fill="none" stroke="black" d="M122.689,-308.965C133.781,-309.363 143,-306.375 143,-300 143,-295.717 138.838,-292.962 132.743,-291.737"/>
<polygon fill="black" stroke="black" points="132.908,-288.24 122.689,-291.035 132.421,-295.223 132.908,-288.24"/>
<text text-anchor="middle" x="147.5" y="-295.9" font-family="Times Roman,serif" font-size="14.00">a</text>
</g>
<!-- q3 -->
<g id="node6" class="node"><title>q3</title>
<ellipse fill="none" stroke="black" cx="27" cy="-206" rx="27" ry="18"/>
<text text-anchor="middle" x="27" y="-201.9" font-family="Times Roman,serif" font-size="14.00">q3</text>
</g>
<!-- q1&#45;&gt;q3 -->
<g id="edge6" class="edge"><title>q1&#45;&gt;q3</title>
<path fill="none" stroke="black" d="M79.791,-280.065C69.5799,-265.739 55.7413,-246.324 44.7946,-230.966"/>
<polygon fill="black" stroke="black" points="47.3871,-228.573 38.7328,-222.461 41.6869,-232.636 47.3871,-228.573"/>
<text text-anchor="middle" x="69.5" y="-246.9" font-family="Times Roman,serif" font-size="14.00">b</text>
</g>
<!-- q3&#45;&gt;q3 -->
<g id="edge14" class="edge"><title>q3&#45;&gt;q3</title>
<path fill="none" stroke="black" d="M51.5325,-214.121C62.5078,-214.895 72,-212.188 72,-206 72,-201.843 67.7151,-199.257 61.5743,-198.242"/>
<polygon fill="black" stroke="black" points="61.6524,-194.742 51.5325,-197.879 61.3995,-201.738 61.6524,-194.742"/>
<text text-anchor="middle" x="76.5" y="-201.9" font-family="Times Roman,serif" font-size="14.00">b</text>
</g>
<!-- q4 -->
<g id="node8" class="node"><title>q4</title>
<ellipse fill="none" stroke="black" cx="88" cy="-116" rx="27" ry="18"/>
<text text-anchor="middle" x="88" y="-111.9" font-family="Times Roman,serif" font-size="14.00">q4</text>
</g>
<!-- q3&#45;&gt;q4 -->
<g id="edge16" class="edge"><title>q3&#45;&gt;q4</title>
<path fill="none" stroke="black" d="M38.1883,-189.493C47.3315,-176.003 60.4079,-156.71 70.8686,-141.276"/>
<polygon fill="black" stroke="black" points="73.9627,-142.949 76.676,-132.708 68.1682,-139.022 73.9627,-142.949"/>
<text text-anchor="middle" x="67.5" y="-156.9" font-family="Times Roman,serif" font-size="14.00">a</text>
</g>
<!-- q4&#45;&gt;q1 -->
<g id="edge12" class="edge"><title>q4&#45;&gt;q1</title>
<path fill="none" stroke="black" d="M88.5914,-134.135C89.6025,-165.144 91.6768,-228.756 92.9423,-267.565"/>
<polygon fill="black" stroke="black" points="89.4521,-267.925 93.2763,-277.805 96.4484,-267.697 89.4521,-267.925"/>
<text text-anchor="middle" x="96.5" y="-201.9" font-family="Times Roman,serif" font-size="14.00">a</text>
</g>
<!-- q0 -->
<g id="node10" class="node"><title>q0</title>
<ellipse fill="none" stroke="black" cx="88" cy="-22" rx="27" ry="18"/>
<ellipse fill="none" stroke="black" cx="88" cy="-22" rx="31" ry="22"/>
<text text-anchor="middle" x="88" y="-17.9" font-family="Times Roman,serif" font-size="14.00">q0</text>
</g>
<!-- q4&#45;&gt;q0 -->
<g id="edge10" class="edge"><title>q4&#45;&gt;q0</title>
<path fill="none" stroke="black" d="M71.3489,-101.502C65.6612,-95.4908 59.9852,-88.0416 57,-80 54.2159,-72.5001 54.4103,-69.5692 57,-62 58.6211,-57.2617 61.0572,-52.6505 63.865,-48.3445"/>
<polygon fill="black" stroke="black" points="66.9028,-50.1214 70.0082,-39.9919 61.2637,-45.9739 66.9028,-50.1214"/>
<text text-anchor="middle" x="61.5" y="-66.9" font-family="Times Roman,serif" font-size="14.00">b</text>
</g>
<!-- q0&#45;&gt;q4 -->
<g id="edge18" class="edge"><title>q0&#45;&gt;q4</title>
<path fill="none" stroke="black" d="M88,-44.0388C88,-57.0958 88,-73.7734 88,-87.785"/>
<polygon fill="black" stroke="black" points="84.5001,-87.8758 88,-97.8759 91.5001,-87.8759 84.5001,-87.8758"/>
<text text-anchor="middle" x="92.5" y="-66.9" font-family="Times Roman,serif" font-size="14.00">b</text>
</g>
<!-- q0&#45;&gt;q4 -->
<g id="edge20" class="edge"><title>q0&#45;&gt;q4</title>
<path fill="none" stroke="black" d="M94.9375,-43.7022C97.5969,-54.5722 99.6422,-67.952 98,-80 97.6268,-82.7376 97.101,-85.5608 96.4837,-88.3653"/>
<polygon fill="black" stroke="black" points="93.0414,-87.6996 93.956,-98.2549 99.8234,-89.4331 93.0414,-87.6996"/>
<text text-anchor="middle" x="102.5" y="-66.9" font-family="Times Roman,serif" font-size="14.00">a</text>
</g>
</g>
</svg>
