<?xml version="1.0" encoding="UTF-8" standalone="no"?>
<!DOCTYPE svg PUBLIC "-//W3C//DTD SVG 1.1//EN"
 "http://www.w3.org/Graphics/SVG/1.1/DTD/svg11.dtd">
<!-- Generated by graphviz version 2.26.3 (20100126.1600)
 -->
<!-- Title: G Pages: 1 -->
<svg width="178pt" height="330pt"
 viewBox="0.00 0.00 178.00 330.00" xmlns="http://www.w3.org/2000/svg" xmlns:xlink="http://www.w3.org/1999/xlink">
<g id="graph1" class="graph" transform="scale(1 1) rotate(0) translate(4 326)">
<title>G</title>
<polygon fill="white" stroke="white" points="-4,5 -4,-326 175,-326 175,5 -4,5"/>
<!-- q2 -->
<g id="node1" class="node"><title>q2</title>
<ellipse fill="none" stroke="black" cx="27" cy="-203" rx="27" ry="18.3848"/>
<text text-anchor="middle" x="27" y="-199.4" font-family="Times Roman,serif" font-size="14.00">q2</text>
</g>
<!-- q2&#45;&gt;q2 -->
<g id="edge2" class="edge"><title>q2&#45;&gt;q2</title>
<path fill="none" stroke="black" d="M51.0743,-211.454C62.2423,-212.377 72,-209.559 72,-203 72,-198.593 67.5952,-195.875 61.3174,-194.846"/>
<polygon fill="black" stroke="black" points="61.1726,-191.34 51.0743,-194.546 60.9674,-198.337 61.1726,-191.34"/>
<text text-anchor="middle" x="76.5" y="-199.4" font-family="Times Roman,serif" font-size="14.00">b</text>
</g>
<!-- q3 -->
<g id="node4" class="node"><title>q3</title>
<ellipse fill="none" stroke="black" cx="54" cy="-111" rx="27" ry="18.3848"/>
<text text-anchor="middle" x="54" y="-107.4" font-family="Times Roman,serif" font-size="14.00">q3</text>
</g>
<!-- q2&#45;&gt;q3 -->
<g id="edge4" class="edge"><title>q2&#45;&gt;q3</title>
<path fill="none" stroke="black" d="M23.6109,-184.445C22.3635,-173.554 22.079,-159.679 26,-148 27.5527,-143.375 29.9379,-138.868 32.6747,-134.681"/>
<polygon fill="black" stroke="black" points="35.5136,-136.728 38.6321,-126.603 29.8799,-132.573 35.5136,-136.728"/>
<text text-anchor="middle" x="30.5" y="-153.4" font-family="Times Roman,serif" font-size="14.00">a</text>
</g>
<!-- q3&#45;&gt;q2 -->
<g id="edge12" class="edge"><title>q3&#45;&gt;q2</title>
<path fill="none" stroke="black" d="M48.6768,-129.138C44.8335,-142.234 39.5718,-160.163 35.1949,-175.077"/>
<polygon fill="black" stroke="black" points="31.7921,-174.243 32.3343,-184.824 38.5088,-176.214 31.7921,-174.243"/>
<text text-anchor="middle" x="47.5" y="-153.4" font-family="Times Roman,serif" font-size="14.00">a</text>
</g>
<!-- q1 -->
<g id="node5" class="node"><title>q1</title>
<ellipse fill="none" stroke="black" cx="89" cy="-19" rx="27" ry="18.3848"/>
<text text-anchor="middle" x="89" y="-15.4" font-family="Times Roman,serif" font-size="14.00">q1</text>
</g>
<!-- q3&#45;&gt;q1 -->
<g id="edge10" class="edge"><title>q3&#45;&gt;q1</title>
<path fill="none" stroke="black" d="M60.9149,-92.8238C65.9004,-79.7191 72.7218,-61.7885 78.3934,-46.8803"/>
<polygon fill="black" stroke="black" points="81.815,-47.7295 82.0995,-37.1385 75.2724,-45.2404 81.815,-47.7295"/>
<text text-anchor="middle" x="78.5" y="-61.4" font-family="Times Roman,serif" font-size="14.00">b</text>
</g>
<!-- q1&#45;&gt;q1 -->
<g id="edge6" class="edge"><title>q1&#45;&gt;q1</title>
<path fill="none" stroke="black" d="M115.347,-23.2957C125.533,-23.4866 134,-22.0547 134,-19 134,-17.0431 130.525,-15.7522 125.35,-15.1273"/>
<polygon fill="black" stroke="black" points="125.486,-11.63 115.347,-14.7043 125.19,-18.6237 125.486,-11.63"/>
<text text-anchor="middle" x="138.5" y="-15.4" font-family="Times Roman,serif" font-size="14.00">b</text>
</g>
<!-- q1&#45;&gt;q1 -->
<g id="edge8" class="edge"><title>q1&#45;&gt;q1</title>
<path fill="none" stroke="black" d="M107.703,-32.3594C128.375,-41.2656 152,-36.8125 152,-19 152,-3.9707 135.181,1.54787 117.508,-2.44429"/>
<polygon fill="black" stroke="black" points="116.126,0.786507 107.703,-5.64062 118.296,-5.86879 116.126,0.786507"/>
<text text-anchor="middle" x="156.5" y="-15.4" font-family="Times Roman,serif" font-size="14.00">a</text>
</g>
<!-- q0 -->
<g id="node10" class="node"><title>q0</title>
<ellipse fill="none" stroke="black" cx="82" cy="-299" rx="27" ry="18.3848"/>
<ellipse fill="none" stroke="black" cx="82" cy="-299" rx="31" ry="22.3848"/>
<text text-anchor="middle" x="82" y="-295.4" font-family="Times Roman,serif" font-size="14.00">q0</text>
</g>
<!-- q0&#45;&gt;q2 -->
<g id="edge14" class="edge"><title>q0&#45;&gt;q2</title>
<path fill="none" stroke="black" d="M70.0658,-278.169C61.8505,-263.83 50.8716,-244.667 42.0554,-229.278"/>
<polygon fill="black" stroke="black" points="44.8975,-227.199 36.8895,-220.262 38.8237,-230.678 44.8975,-227.199"/>
<text text-anchor="middle" x="61.5" y="-245.4" font-family="Times Roman,serif" font-size="14.00">b</text>
</g>
<!-- q0&#45;&gt;q1 -->
<g id="edge16" class="edge"><title>q0&#45;&gt;q1</title>
<path fill="none" stroke="black" d="M84.9613,-276.474C86.8232,-261.147 89.0473,-240.388 90,-222 92.9894,-164.3 90.3957,-149.776 90,-92 89.9,-77.3986 89.6875,-61.1555 89.484,-47.7052"/>
<polygon fill="black" stroke="black" points="92.982,-47.5455 89.325,-37.6018 85.9829,-47.6557 92.982,-47.5455"/>
<text text-anchor="middle" x="95.5" y="-153.4" font-family="Times Roman,serif" font-size="14.00">a</text>
</g>
</g>
</svg>
