<?xml version="1.0" encoding="UTF-8" standalone="no"?>
<!DOCTYPE svg PUBLIC "-//W3C//DTD SVG 1.1//EN"
 "http://www.w3.org/Graphics/SVG/1.1/DTD/svg11.dtd">
<!-- Generated by graphviz version 2.26.3 (20100126.1600)
 -->
<!-- Title: G Pages: 1 -->
<svg width="132pt" height="330pt"
 viewBox="0.00 0.00 132.00 330.00" xmlns="http://www.w3.org/2000/svg" xmlns:xlink="http://www.w3.org/1999/xlink">
<g id="graph1" class="graph" transform="scale(1 1) rotate(0) translate(4 326)">
<title>G</title>
<polygon fill="white" stroke="white" points="-4,5 -4,-326 129,-326 129,5 -4,5"/>
<!-- q1 -->
<g id="node1" class="node"><title>q1</title>
<ellipse fill="none" stroke="black" cx="80" cy="-300" rx="27" ry="18"/>
<ellipse fill="none" stroke="black" cx="80" cy="-300" rx="31" ry="22"/>
<text text-anchor="middle" x="80" y="-295.9" font-family="Times Roman,serif" font-size="14.00">q1</text>
</g>
<!-- q0 -->
<g id="node3" class="node"><title>q0</title>
<ellipse fill="none" stroke="darkred" cx="48" cy="-206" rx="27" ry="18"/>
<text text-anchor="middle" x="48" y="-201.9" font-family="Times Roman,serif" font-size="14.00">q0</text>
</g>
<!-- q1&#45;&gt;q0 -->
<g id="edge2" class="edge"><title>q1&#45;&gt;q0</title>
<path fill="none" stroke="black" d="M62.0947,-281.978C56.8645,-275.568 51.8041,-267.955 49,-260 46.1505,-251.917 45.2084,-242.721 45.1749,-234.239"/>
<polygon fill="black" stroke="black" points="48.6809,-234.132 45.5431,-224.012 41.6854,-233.88 48.6809,-234.132"/>
<text text-anchor="middle" x="53.5" y="-246.9" font-family="Times Roman,serif" font-size="14.00">b</text>
</g>
<!-- q1&#45;&gt;q0 -->
<g id="edge4" class="edge"><title>q1&#45;&gt;q0</title>
<path fill="none" stroke="black" d="M72.5781,-278.198C68.0319,-264.844 62.1738,-247.635 57.3171,-233.369"/>
<polygon fill="black" stroke="black" points="60.5268,-231.937 53.9908,-223.598 53.9002,-234.192 60.5268,-231.937"/>
<text text-anchor="middle" x="69.5" y="-246.9" font-family="Times Roman,serif" font-size="14.00">a</text>
</g>
<!-- q0&#45;&gt;q0 -->
<g id="edge16" class="edge"><title>q0&#45;&gt;q0</title>
<path fill="none" stroke="black" d="M72.5325,-214.121C83.5078,-214.895 93,-212.188 93,-206 93,-201.843 88.7151,-199.257 82.5743,-198.242"/>
<polygon fill="black" stroke="black" points="82.6524,-194.742 72.5325,-197.879 82.3995,-201.738 82.6524,-194.742"/>
<text text-anchor="middle" x="97.5" y="-201.9" font-family="Times Roman,serif" font-size="14.00">a</text>
</g>
<!-- q3 -->
<g id="node8" class="node"><title>q3</title>
<ellipse fill="none" stroke="black" cx="27" cy="-116" rx="27" ry="18"/>
<text text-anchor="middle" x="27" y="-111.9" font-family="Times Roman,serif" font-size="14.00">q3</text>
</g>
<!-- q0&#45;&gt;q3 -->
<g id="edge14" class="edge"><title>q0&#45;&gt;q3</title>
<path fill="none" stroke="black" d="M33.9972,-190.277C29.5862,-184.343 25.2741,-177.261 23,-170 20.4035,-161.709 20.2031,-152.366 21.0072,-143.812"/>
<polygon fill="black" stroke="black" points="24.4757,-144.28 22.3926,-133.892 17.543,-143.311 24.4757,-144.28"/>
<text text-anchor="middle" x="27.5" y="-156.9" font-family="Times Roman,serif" font-size="14.00">b</text>
</g>
<!-- q4 -->
<g id="node5" class="node"><title>q4</title>
<ellipse fill="none" stroke="black" cx="90" cy="-22" rx="27" ry="18"/>
<ellipse fill="none" stroke="black" cx="90" cy="-22" rx="31" ry="22"/>
<text text-anchor="middle" x="90" y="-17.9" font-family="Times Roman,serif" font-size="14.00">q4</text>
</g>
<!-- q4&#45;&gt;q1 -->
<g id="edge6" class="edge"><title>q4&#45;&gt;q1</title>
<path fill="none" stroke="black" d="M96.4387,-43.714C106.543,-80.9211 123.722,-159.126 111,-224 107.911,-239.753 101.537,-256.36 95.368,-270.017"/>
<polygon fill="black" stroke="black" points="92.0502,-268.848 90.9619,-279.387 98.3847,-271.827 92.0502,-268.848"/>
<text text-anchor="middle" x="119.5" y="-156.9" font-family="Times Roman,serif" font-size="14.00">b</text>
</g>
<!-- q4&#45;&gt;q0 -->
<g id="edge8" class="edge"><title>q4&#45;&gt;q0</title>
<path fill="none" stroke="black" d="M85.0417,-43.7219C77.4171,-77.1251 62.8154,-141.094 54.4017,-177.955"/>
<polygon fill="black" stroke="black" points="50.9168,-177.494 52.1036,-188.022 57.7413,-179.052 50.9168,-177.494"/>
<text text-anchor="middle" x="76.5" y="-111.9" font-family="Times Roman,serif" font-size="14.00">a</text>
</g>
<!-- q3&#45;&gt;q0 -->
<g id="edge10" class="edge"><title>q3&#45;&gt;q0</title>
<path fill="none" stroke="black" d="M31.1717,-133.879C34.1043,-146.447 38.0875,-163.518 41.4424,-177.896"/>
<polygon fill="black" stroke="black" points="38.0695,-178.844 43.7503,-187.787 44.8864,-177.253 38.0695,-178.844"/>
<text text-anchor="middle" x="44.5" y="-156.9" font-family="Times Roman,serif" font-size="14.00">b</text>
</g>
<!-- q3&#45;&gt;q4 -->
<g id="edge12" class="edge"><title>q3&#45;&gt;q4</title>
<path fill="none" stroke="black" d="M38.2631,-99.1947C47.3414,-85.6494 60.3084,-66.3017 70.9894,-50.365"/>
<polygon fill="black" stroke="black" points="73.9889,-52.1761 76.649,-41.9206 68.1741,-48.2789 73.9889,-52.1761"/>
<text text-anchor="middle" x="66.5" y="-66.9" font-family="Times Roman,serif" font-size="14.00">a</text>
</g>
</g>
</svg>
