<?xml version="1.0" encoding="UTF-8" standalone="no"?>
<!DOCTYPE svg PUBLIC "-//W3C//DTD SVG 1.1//EN"
 "http://www.w3.org/Graphics/SVG/1.1/DTD/svg11.dtd">
<!-- Generated by graphviz version 2.26.3 (20100126.1600)
 -->
<!-- Title: G Pages: 1 -->
<svg width="211pt" height="414pt"
 viewBox="0.00 0.00 211.00 414.00" xmlns="http://www.w3.org/2000/svg" xmlns:xlink="http://www.w3.org/1999/xlink">
<g id="graph1" class="graph" transform="scale(1 1) rotate(0) translate(4 410)">
<title>G</title>
<polygon fill="white" stroke="white" points="-4,5 -4,-410 208,-410 208,5 -4,5"/>
<!-- q6 -->
<g id="node1" class="node"><title>q6</title>
<ellipse fill="none" stroke="black" cx="59" cy="-387" rx="27" ry="18.3848"/>
<text text-anchor="middle" x="59" y="-383.4" font-family="Times Roman,serif" font-size="14.00">q6</text>
</g>
<!-- q1 -->
<g id="node3" class="node"><title>q1</title>
<ellipse fill="none" stroke="black" cx="27" cy="-295" rx="27" ry="18.3848"/>
<text text-anchor="middle" x="27" y="-291.4" font-family="Times Roman,serif" font-size="14.00">q1</text>
</g>
<!-- q6&#45;&gt;q1 -->
<g id="edge2" class="edge"><title>q6&#45;&gt;q1</title>
<path fill="none" stroke="black" d="M42.4197,-371.992C36.7406,-365.801 31.0521,-358.164 28,-350 24.9327,-341.796 23.9348,-332.411 23.9172,-323.745"/>
<polygon fill="black" stroke="black" points="27.4182,-323.786 24.3087,-313.658 20.4234,-323.514 27.4182,-323.786"/>
<text text-anchor="middle" x="32.5" y="-337.4" font-family="Times Roman,serif" font-size="14.00">b</text>
</g>
<!-- q6&#45;&gt;q1 -->
<g id="edge4" class="edge"><title>q6&#45;&gt;q1</title>
<path fill="none" stroke="black" d="M52.6778,-368.824C48.1197,-355.719 41.883,-337.789 36.6975,-322.88"/>
<polygon fill="black" stroke="black" points="39.9,-321.434 33.309,-313.138 33.2886,-323.733 39.9,-321.434"/>
<text text-anchor="middle" x="49.5" y="-337.4" font-family="Times Roman,serif" font-size="14.00">a</text>
</g>
<!-- q1&#45;&gt;q1 -->
<g id="edge14" class="edge"><title>q1&#45;&gt;q1</title>
<path fill="none" stroke="black" d="M51.0743,-303.454C62.2423,-304.377 72,-301.559 72,-295 72,-290.593 67.5952,-287.875 61.3174,-286.846"/>
<polygon fill="black" stroke="black" points="61.1726,-283.34 51.0743,-286.546 60.9674,-290.337 61.1726,-283.34"/>
<text text-anchor="middle" x="76.5" y="-291.4" font-family="Times Roman,serif" font-size="14.00">b</text>
</g>
<!-- q4 -->
<g id="node14" class="node"><title>q4</title>
<ellipse fill="none" stroke="black" cx="146" cy="-203" rx="27" ry="18.3848"/>
<text text-anchor="middle" x="146" y="-199.4" font-family="Times Roman,serif" font-size="14.00">q4</text>
</g>
<!-- q1&#45;&gt;q4 -->
<g id="edge16" class="edge"><title>q1&#45;&gt;q4</title>
<path fill="none" stroke="black" d="M45.0735,-281.027C64.9065,-265.694 96.9302,-240.936 119.58,-223.426"/>
<polygon fill="black" stroke="black" points="121.986,-225.99 127.756,-217.104 117.704,-220.452 121.986,-225.99"/>
<text text-anchor="middle" x="101.5" y="-245.4" font-family="Times Roman,serif" font-size="14.00">a</text>
</g>
<!-- q5 -->
<g id="node5" class="node"><title>q5</title>
<ellipse fill="none" stroke="black" cx="74" cy="-203" rx="27" ry="18.3848"/>
<text text-anchor="middle" x="74" y="-199.4" font-family="Times Roman,serif" font-size="14.00">q5</text>
</g>
<!-- q0 -->
<g id="node7" class="node"><title>q0</title>
<ellipse fill="none" stroke="black" cx="134" cy="-111" rx="27" ry="18.3848"/>
<text text-anchor="middle" x="134" y="-107.4" font-family="Times Roman,serif" font-size="14.00">q0</text>
</g>
<!-- q5&#45;&gt;q0 -->
<g id="edge6" class="edge"><title>q5&#45;&gt;q0</title>
<path fill="none" stroke="black" d="M85.2855,-185.696C94.3094,-171.859 107.095,-152.255 117.303,-136.602"/>
<polygon fill="black" stroke="black" points="120.437,-138.204 122.968,-127.916 114.573,-134.38 120.437,-138.204"/>
<text text-anchor="middle" x="113.5" y="-153.4" font-family="Times Roman,serif" font-size="14.00">b</text>
</g>
<!-- q2 -->
<g id="node9" class="node"><title>q2</title>
<ellipse fill="none" stroke="black" cx="85" cy="-19" rx="27" ry="18.3848"/>
<text text-anchor="middle" x="85" y="-15.4" font-family="Times Roman,serif" font-size="14.00">q2</text>
</g>
<!-- q5&#45;&gt;q2 -->
<g id="edge8" class="edge"><title>q5&#45;&gt;q2</title>
<path fill="none" stroke="black" d="M75.1153,-184.345C77.0342,-152.247 80.9737,-86.3485 83.2574,-48.1485"/>
<polygon fill="black" stroke="black" points="86.7787,-47.8959 83.8818,-37.7049 79.7912,-47.4781 86.7787,-47.8959"/>
<text text-anchor="middle" x="84.5" y="-107.4" font-family="Times Roman,serif" font-size="14.00">a</text>
</g>
<!-- q0&#45;&gt;q6 -->
<g id="edge26" class="edge"><title>q0&#45;&gt;q6</title>
<path fill="none" stroke="black" d="M148.095,-127.107C159.437,-141.105 174.653,-162.467 182,-184 195.999,-225.031 199.137,-296.681 189,-314 168.706,-348.671 125.237,-368.134 94.1523,-378.085"/>
<polygon fill="black" stroke="black" points="93.1005,-374.747 84.5402,-380.99 95.1251,-381.448 93.1005,-374.747"/>
<text text-anchor="middle" x="198.5" y="-245.4" font-family="Times Roman,serif" font-size="14.00">b</text>
</g>
<!-- q0&#45;&gt;q2 -->
<g id="edge28" class="edge"><title>q0&#45;&gt;q2</title>
<path fill="none" stroke="black" d="M118.666,-95.4166C113.14,-89.1549 107.231,-81.6198 103,-74 98.3581,-65.6395 94.6797,-55.893 91.89,-46.9469"/>
<polygon fill="black" stroke="black" points="95.2437,-45.9446 89.114,-37.303 88.5169,-47.881 95.2437,-45.9446"/>
<text text-anchor="middle" x="107.5" y="-61.4" font-family="Times Roman,serif" font-size="14.00">a</text>
</g>
<!-- q2&#45;&gt;q1 -->
<g id="edge10" class="edge"><title>q2&#45;&gt;q1</title>
<path fill="none" stroke="black" d="M78.7036,-37.0562C68.4775,-67.135 48.3616,-129.577 38,-184 32.7398,-211.629 29.9076,-243.634 28.4416,-266.158"/>
<polygon fill="black" stroke="black" points="24.9328,-266.201 27.827,-276.393 31.9202,-266.621 24.9328,-266.201"/>
<text text-anchor="middle" x="49.5" y="-153.4" font-family="Times Roman,serif" font-size="14.00">b</text>
</g>
<!-- q2&#45;&gt;q0 -->
<g id="edge12" class="edge"><title>q2&#45;&gt;q0</title>
<path fill="none" stroke="black" d="M98.293,-35.3546C102.988,-41.5878 108.073,-48.9031 112,-56 116.74,-64.5644 120.996,-74.3632 124.473,-83.2946"/>
<polygon fill="black" stroke="black" points="121.28,-84.7498 128.052,-92.8978 127.84,-82.3051 121.28,-84.7498"/>
<text text-anchor="middle" x="124.5" y="-61.4" font-family="Times Roman,serif" font-size="14.00">a</text>
</g>
<!-- q4&#45;&gt;q0 -->
<g id="edge18" class="edge"><title>q4&#45;&gt;q0</title>
<path fill="none" stroke="black" d="M139.518,-184.781C137.703,-178.867 135.964,-172.225 135,-166 133.695,-157.572 133.179,-148.332 133.06,-139.872"/>
<polygon fill="black" stroke="black" points="136.561,-139.703 133.092,-129.692 129.561,-139.681 136.561,-139.703"/>
<text text-anchor="middle" x="139.5" y="-153.4" font-family="Times Roman,serif" font-size="14.00">b</text>
</g>
<!-- q4&#45;&gt;q0 -->
<g id="edge20" class="edge"><title>q4&#45;&gt;q0</title>
<path fill="none" stroke="black" d="M146.371,-184.318C146.322,-173.628 145.815,-159.998 144,-148 143.561,-145.101 142.978,-142.104 142.311,-139.128"/>
<polygon fill="black" stroke="black" points="145.663,-138.107 139.821,-129.268 138.876,-139.821 145.663,-138.107"/>
<text text-anchor="middle" x="149.5" y="-153.4" font-family="Times Roman,serif" font-size="14.00">a</text>
</g>
<!-- q3 -->
<g id="node17" class="node"><title>q3</title>
<ellipse fill="none" stroke="black" cx="126" cy="-295" rx="27" ry="18.3848"/>
<text text-anchor="middle" x="126" y="-291.4" font-family="Times Roman,serif" font-size="14.00">q3</text>
</g>
<!-- q3&#45;&gt;q4 -->
<g id="edge22" class="edge"><title>q3&#45;&gt;q4</title>
<path fill="none" stroke="black" d="M130.047,-276.382C132.839,-263.538 136.605,-246.216 139.777,-231.627"/>
<polygon fill="black" stroke="black" points="143.254,-232.105 141.959,-221.59 136.414,-230.618 143.254,-232.105"/>
<text text-anchor="middle" x="141.5" y="-245.4" font-family="Times Roman,serif" font-size="14.00">b</text>
</g>
<!-- q3&#45;&gt;q3 -->
<g id="edge24" class="edge"><title>q3&#45;&gt;q3</title>
<path fill="none" stroke="black" d="M150.074,-303.454C161.242,-304.377 171,-301.559 171,-295 171,-290.593 166.595,-287.875 160.317,-286.846"/>
<polygon fill="black" stroke="black" points="160.173,-283.34 150.074,-286.546 159.967,-290.337 160.173,-283.34"/>
<text text-anchor="middle" x="175.5" y="-291.4" font-family="Times Roman,serif" font-size="14.00">a</text>
</g>
</g>
</svg>
