<?xml version="1.0" encoding="UTF-8" standalone="no"?>
<!DOCTYPE svg PUBLIC "-//W3C//DTD SVG 1.1//EN"
 "http://www.w3.org/Graphics/SVG/1.1/DTD/svg11.dtd">
<!-- Generated by graphviz version 2.26.3 (20100126.1600)
 -->
<!-- Title: G Pages: 1 -->
<svg width="154pt" height="510pt"
 viewBox="0.00 0.00 154.00 510.00" xmlns="http://www.w3.org/2000/svg" xmlns:xlink="http://www.w3.org/1999/xlink">
<g id="graph1" class="graph" transform="scale(1 1) rotate(0) translate(4 506)">
<title>G</title>
<polygon fill="white" stroke="white" points="-4,5 -4,-506 151,-506 151,5 -4,5"/>
<!-- q6 -->
<g id="node1" class="node"><title>q6</title>
<ellipse fill="none" stroke="black" cx="94" cy="-484" rx="27" ry="18"/>
<text text-anchor="middle" x="94" y="-479.9" font-family="Times Roman,serif" font-size="14.00">q6</text>
</g>
<!-- q7 -->
<g id="node3" class="node"><title>q7</title>
<ellipse fill="none" stroke="black" cx="27" cy="-394" rx="27" ry="18"/>
<text text-anchor="middle" x="27" y="-389.9" font-family="Times Roman,serif" font-size="14.00">q7</text>
</g>
<!-- q6&#45;&gt;q7 -->
<g id="edge2" class="edge"><title>q6&#45;&gt;q7</title>
<path fill="none" stroke="black" d="M81.7112,-467.493C71.5111,-453.791 56.8542,-434.103 45.2776,-418.552"/>
<polygon fill="black" stroke="black" points="47.9899,-416.334 39.2109,-410.403 42.3749,-420.514 47.9899,-416.334"/>
<text text-anchor="middle" x="71.5" y="-434.9" font-family="Times Roman,serif" font-size="14.00">b</text>
</g>
<!-- q4 -->
<g id="node5" class="node"><title>q4</title>
<ellipse fill="none" stroke="black" cx="88" cy="-300" rx="27" ry="18"/>
<ellipse fill="none" stroke="black" cx="88" cy="-300" rx="31" ry="22"/>
<text text-anchor="middle" x="88" y="-295.9" font-family="Times Roman,serif" font-size="14.00">q4</text>
</g>
<!-- q6&#45;&gt;q4 -->
<g id="edge4" class="edge"><title>q6&#45;&gt;q4</title>
<path fill="none" stroke="black" d="M93.4028,-465.685C92.3894,-434.61 90.3207,-371.167 89.0576,-332.434"/>
<polygon fill="black" stroke="black" points="92.5484,-332.092 88.7243,-322.212 85.5522,-332.321 92.5484,-332.092"/>
<text text-anchor="middle" x="96.5" y="-389.9" font-family="Times Roman,serif" font-size="14.00">a</text>
</g>
<!-- q7&#45;&gt;q7 -->
<g id="edge8" class="edge"><title>q7&#45;&gt;q7</title>
<path fill="none" stroke="black" d="M51.5325,-402.121C62.5078,-402.895 72,-400.188 72,-394 72,-389.843 67.7151,-387.257 61.5743,-386.242"/>
<polygon fill="black" stroke="black" points="61.6524,-382.742 51.5325,-385.879 61.3995,-389.738 61.6524,-382.742"/>
<text text-anchor="middle" x="76.5" y="-389.9" font-family="Times Roman,serif" font-size="14.00">a</text>
</g>
<!-- q7&#45;&gt;q4 -->
<g id="edge6" class="edge"><title>q7&#45;&gt;q4</title>
<path fill="none" stroke="black" d="M37.9056,-377.195C46.6378,-363.739 59.086,-344.556 69.3886,-328.68"/>
<polygon fill="black" stroke="black" points="72.3466,-330.551 74.8542,-320.257 66.4746,-326.741 72.3466,-330.551"/>
<text text-anchor="middle" x="66.5" y="-344.9" font-family="Times Roman,serif" font-size="14.00">b</text>
</g>
<!-- q4&#45;&gt;q4 -->
<g id="edge16" class="edge"><title>q4&#45;&gt;q4</title>
<path fill="none" stroke="black" d="M116.689,-308.965C127.781,-309.363 137,-306.375 137,-300 137,-295.717 132.838,-292.962 126.743,-291.737"/>
<polygon fill="black" stroke="black" points="126.908,-288.24 116.689,-291.035 126.421,-295.223 126.908,-288.24"/>
<text text-anchor="middle" x="141.5" y="-295.9" font-family="Times Roman,serif" font-size="14.00">a</text>
</g>
<!-- q2 -->
<g id="node8" class="node"><title>q2</title>
<ellipse fill="none" stroke="black" cx="88" cy="-206" rx="27" ry="18"/>
<text text-anchor="middle" x="88" y="-201.9" font-family="Times Roman,serif" font-size="14.00">q2</text>
</g>
<!-- q4&#45;&gt;q2 -->
<g id="edge14" class="edge"><title>q4&#45;&gt;q2</title>
<path fill="none" stroke="black" d="M88,-277.723C88,-264.658 88,-248.029 88,-234.073"/>
<polygon fill="black" stroke="black" points="91.5001,-234.025 88,-224.025 84.5001,-234.025 91.5001,-234.025"/>
<text text-anchor="middle" x="92.5" y="-246.9" font-family="Times Roman,serif" font-size="14.00">b</text>
</g>
<!-- q0 -->
<g id="node10" class="node"><title>q0</title>
<ellipse fill="none" stroke="black" cx="88" cy="-116" rx="27" ry="18"/>
<text text-anchor="middle" x="88" y="-111.9" font-family="Times Roman,serif" font-size="14.00">q0</text>
</g>
<!-- q2&#45;&gt;q0 -->
<g id="edge10" class="edge"><title>q2&#45;&gt;q0</title>
<path fill="none" stroke="black" d="M79.2399,-188.86C76.7028,-183.03 74.2748,-176.374 73,-170 71.4311,-162.155 71.4311,-159.845 73,-152 73.6175,-148.913 74.5055,-145.759 75.5455,-142.665"/>
<polygon fill="black" stroke="black" points="78.8869,-143.729 79.2399,-133.14 72.3606,-141.198 78.8869,-143.729"/>
<text text-anchor="middle" x="77.5" y="-156.9" font-family="Times Roman,serif" font-size="14.00">b</text>
</g>
<!-- q2&#45;&gt;q0 -->
<g id="edge12" class="edge"><title>q2&#45;&gt;q0</title>
<path fill="none" stroke="black" d="M88,-187.787C88,-175.344 88,-158.605 88,-144.421"/>
<polygon fill="black" stroke="black" points="91.5001,-144.186 88,-134.186 84.5001,-144.186 91.5001,-144.186"/>
<text text-anchor="middle" x="92.5" y="-156.9" font-family="Times Roman,serif" font-size="14.00">a</text>
</g>
<!-- q0&#45;&gt;q0 -->
<g id="edge24" class="edge"><title>q0&#45;&gt;q0</title>
<path fill="none" stroke="black" d="M112.532,-124.121C123.508,-124.895 133,-122.188 133,-116 133,-111.843 128.715,-109.257 122.574,-108.242"/>
<polygon fill="black" stroke="black" points="122.652,-104.742 112.532,-107.879 122.4,-111.738 122.652,-104.742"/>
<text text-anchor="middle" x="137.5" y="-111.9" font-family="Times Roman,serif" font-size="14.00">a</text>
</g>
<!-- q3 -->
<g id="node14" class="node"><title>q3</title>
<ellipse fill="none" stroke="black" cx="88" cy="-22" rx="27" ry="18"/>
<ellipse fill="none" stroke="black" cx="88" cy="-22" rx="31" ry="22"/>
<text text-anchor="middle" x="88" y="-17.9" font-family="Times Roman,serif" font-size="14.00">q3</text>
</g>
<!-- q0&#45;&gt;q3 -->
<g id="edge22" class="edge"><title>q0&#45;&gt;q3</title>
<path fill="none" stroke="black" d="M80.2648,-98.3885C78.1157,-92.6409 76.0769,-86.1528 75,-80 73.4528,-71.1598 74.4571,-61.6322 76.458,-52.9045"/>
<polygon fill="black" stroke="black" points="79.873,-53.6871 79.1714,-43.1155 73.1273,-51.8172 79.873,-53.6871"/>
<text text-anchor="middle" x="79.5" y="-66.9" font-family="Times Roman,serif" font-size="14.00">b</text>
</g>
<!-- q3&#45;&gt;q0 -->
<g id="edge18" class="edge"><title>q3&#45;&gt;q0</title>
<path fill="none" stroke="black" d="M88,-44.0388C88,-57.0958 88,-73.7734 88,-87.785"/>
<polygon fill="black" stroke="black" points="84.5001,-87.8758 88,-97.8759 91.5001,-87.8759 84.5001,-87.8758"/>
<text text-anchor="middle" x="92.5" y="-66.9" font-family="Times Roman,serif" font-size="14.00">b</text>
</g>
<!-- q3&#45;&gt;q0 -->
<g id="edge20" class="edge"><title>q3&#45;&gt;q0</title>
<path fill="none" stroke="black" d="M94.9375,-43.7022C97.5969,-54.5722 99.6422,-67.952 98,-80 97.6268,-82.7376 97.101,-85.5608 96.4837,-88.3653"/>
<polygon fill="black" stroke="black" points="93.0414,-87.6996 93.956,-98.2549 99.8234,-89.4331 93.0414,-87.6996"/>
<text text-anchor="middle" x="102.5" y="-66.9" font-family="Times Roman,serif" font-size="14.00">a</text>
</g>
</g>
</svg>
