<?xml version="1.0" encoding="UTF-8" standalone="no"?>
<!DOCTYPE svg PUBLIC "-//W3C//DTD SVG 1.1//EN"
 "http://www.w3.org/Graphics/SVG/1.1/DTD/svg11.dtd">
<!-- Generated by graphviz version 2.26.3 (20100126.1600)
 -->
<!-- Title: G Pages: 1 -->
<svg width="180pt" height="502pt"
 viewBox="0.00 0.00 180.00 502.00" xmlns="http://www.w3.org/2000/svg" xmlns:xlink="http://www.w3.org/1999/xlink">
<g id="graph1" class="graph" transform="scale(1 1) rotate(0) translate(4 498)">
<title>G</title>
<polygon fill="white" stroke="white" points="-4,5 -4,-498 177,-498 177,5 -4,5"/>
<!-- q6 -->
<g id="node1" class="node"><title>q6</title>
<ellipse fill="none" stroke="black" cx="27" cy="-476" rx="27" ry="18"/>
<text text-anchor="middle" x="27" y="-471.9" font-family="Times Roman,serif" font-size="14.00">q6</text>
</g>
<!-- q6&#45;&gt;q6 -->
<g id="edge2" class="edge"><title>q6&#45;&gt;q6</title>
<path fill="none" stroke="black" d="M51.5325,-484.121C62.5078,-484.895 72,-482.188 72,-476 72,-471.843 67.7151,-469.257 61.5743,-468.242"/>
<polygon fill="black" stroke="black" points="61.6524,-464.742 51.5325,-467.879 61.3995,-471.738 61.6524,-464.742"/>
<text text-anchor="middle" x="76.5" y="-471.9" font-family="Times Roman,serif" font-size="14.00">b</text>
</g>
<!-- q4 -->
<g id="node4" class="node"><title>q4</title>
<ellipse fill="none" stroke="black" cx="63" cy="-386" rx="27" ry="18"/>
<text text-anchor="middle" x="63" y="-381.9" font-family="Times Roman,serif" font-size="14.00">q4</text>
</g>
<!-- q6&#45;&gt;q4 -->
<g id="edge4" class="edge"><title>q6&#45;&gt;q4</title>
<path fill="none" stroke="black" d="M34.1124,-458.219C39.2737,-445.316 46.3479,-427.63 52.2038,-412.99"/>
<polygon fill="black" stroke="black" points="55.5605,-414.023 56.0248,-403.438 49.0612,-411.423 55.5605,-414.023"/>
<text text-anchor="middle" x="52.5" y="-426.9" font-family="Times Roman,serif" font-size="14.00">a</text>
</g>
<!-- q4&#45;&gt;q4 -->
<g id="edge20" class="edge"><title>q4&#45;&gt;q4</title>
<path fill="none" stroke="black" d="M87.5325,-394.121C98.5078,-394.895 108,-392.188 108,-386 108,-381.843 103.715,-379.257 97.5743,-378.242"/>
<polygon fill="black" stroke="black" points="97.6524,-374.742 87.5325,-377.879 97.3995,-381.738 97.6524,-374.742"/>
<text text-anchor="middle" x="112.5" y="-381.9" font-family="Times Roman,serif" font-size="14.00">a</text>
</g>
<!-- q2 -->
<g id="node10" class="node"><title>q2</title>
<ellipse fill="none" stroke="black" cx="84" cy="-296" rx="27" ry="18"/>
<text text-anchor="middle" x="84" y="-291.9" font-family="Times Roman,serif" font-size="14.00">q2</text>
</g>
<!-- q4&#45;&gt;q2 -->
<g id="edge18" class="edge"><title>q4&#45;&gt;q2</title>
<path fill="none" stroke="black" d="M67.2497,-367.787C70.2008,-355.14 74.1875,-338.053 77.5312,-323.723"/>
<polygon fill="black" stroke="black" points="80.9644,-324.412 79.8283,-313.879 74.1475,-322.822 80.9644,-324.412"/>
<text text-anchor="middle" x="79.5" y="-336.9" font-family="Times Roman,serif" font-size="14.00">b</text>
</g>
<!-- q5 -->
<g id="node5" class="node"><title>q5</title>
<ellipse fill="none" stroke="black" cx="101" cy="-206" rx="27" ry="18"/>
<text text-anchor="middle" x="101" y="-201.9" font-family="Times Roman,serif" font-size="14.00">q5</text>
</g>
<!-- q1 -->
<g id="node7" class="node"><title>q1</title>
<ellipse fill="none" stroke="black" cx="101" cy="-112" rx="27" ry="18"/>
<ellipse fill="none" stroke="black" cx="101" cy="-112" rx="31" ry="22"/>
<text text-anchor="middle" x="101" y="-107.9" font-family="Times Roman,serif" font-size="14.00">q1</text>
</g>
<!-- q5&#45;&gt;q1 -->
<g id="edge6" class="edge"><title>q5&#45;&gt;q1</title>
<path fill="none" stroke="black" d="M101,-187.876C101,-175.512 101,-158.795 101,-144.199"/>
<polygon fill="black" stroke="black" points="104.5,-144.039 101,-134.039 97.5001,-144.039 104.5,-144.039"/>
<text text-anchor="middle" x="105.5" y="-156.9" font-family="Times Roman,serif" font-size="14.00">b</text>
</g>
<!-- q3 -->
<g id="node9" class="node"><title>q3</title>
<ellipse fill="none" stroke="black" cx="145" cy="-18" rx="27" ry="18"/>
<text text-anchor="middle" x="145" y="-13.9" font-family="Times Roman,serif" font-size="14.00">q3</text>
</g>
<!-- q5&#45;&gt;q3 -->
<g id="edge8" class="edge"><title>q5&#45;&gt;q3</title>
<path fill="none" stroke="black" d="M112.944,-189.82C122.516,-175.835 135.263,-154.668 141,-134 149.086,-104.871 149.069,-70.0446 147.668,-46.2028"/>
<polygon fill="black" stroke="black" points="151.149,-45.8091 146.952,-36.0812 144.167,-46.3035 151.149,-45.8091"/>
<text text-anchor="middle" x="151.5" y="-107.9" font-family="Times Roman,serif" font-size="14.00">a</text>
</g>
<!-- q1&#45;&gt;q6 -->
<g id="edge14" class="edge"><title>q1&#45;&gt;q6</title>
<path fill="none" stroke="black" d="M74.4943,-123.72C45.7744,-138.432 4,-166.603 4,-206 4,-386 4,-386 4,-386 4,-407.57 10.2782,-431.168 16.2744,-448.787"/>
<polygon fill="black" stroke="black" points="13.0542,-450.176 19.7227,-458.409 19.6439,-447.815 13.0542,-450.176"/>
<text text-anchor="middle" x="8.5" y="-291.9" font-family="Times Roman,serif" font-size="14.00">b</text>
</g>
<!-- q1&#45;&gt;q3 -->
<g id="edge16" class="edge"><title>q1&#45;&gt;q3</title>
<path fill="none" stroke="black" d="M110.984,-90.6699C117.329,-77.1144 125.598,-59.4494 132.394,-44.9305"/>
<polygon fill="black" stroke="black" points="135.753,-46.0114 136.822,-35.4707 129.413,-43.0438 135.753,-46.0114"/>
<text text-anchor="middle" x="130.5" y="-58.9" font-family="Times Roman,serif" font-size="14.00">a</text>
</g>
<!-- q3&#45;&gt;q2 -->
<g id="edge22" class="edge"><title>q3&#45;&gt;q2</title>
<path fill="none" stroke="black" d="M154.92,-35.022C157.795,-40.8443 160.548,-47.5254 162,-54 163.75,-61.8061 162.129,-64.001 162,-72 160.896,-140.454 166.308,-162.127 137,-224 128.636,-241.657 115.684,-259.357 104.677,-272.79"/>
<polygon fill="black" stroke="black" points="101.896,-270.659 98.1337,-280.563 107.251,-275.166 101.896,-270.659"/>
<text text-anchor="middle" x="163.5" y="-156.9" font-family="Times Roman,serif" font-size="14.00">b</text>
</g>
<!-- q3&#45;&gt;q2 -->
<g id="edge24" class="edge"><title>q3&#45;&gt;q2</title>
<path fill="none" stroke="black" d="M123.456,-29.2272C103.074,-41.1994 73.7612,-62.2543 61,-90 33.6913,-149.375 56.7039,-228.18 72.3843,-268.966"/>
<polygon fill="black" stroke="black" points="69.2233,-270.488 76.1778,-278.481 75.7256,-267.896 69.2233,-270.488"/>
<text text-anchor="middle" x="52.5" y="-156.9" font-family="Times Roman,serif" font-size="14.00">a</text>
</g>
<!-- q2&#45;&gt;q5 -->
<g id="edge12" class="edge"><title>q2&#45;&gt;q5</title>
<path fill="none" stroke="black" d="M87.4402,-277.787C89.8292,-265.14 93.0566,-248.053 95.7634,-233.723"/>
<polygon fill="black" stroke="black" points="99.206,-234.355 97.6229,-223.879 92.3276,-233.055 99.206,-234.355"/>
<text text-anchor="middle" x="98.5" y="-246.9" font-family="Times Roman,serif" font-size="14.00">a</text>
</g>
<!-- q2&#45;&gt;q2 -->
<g id="edge10" class="edge"><title>q2&#45;&gt;q2</title>
<path fill="none" stroke="black" d="M108.532,-304.121C119.508,-304.895 129,-302.188 129,-296 129,-291.843 124.715,-289.257 118.574,-288.242"/>
<polygon fill="black" stroke="black" points="118.652,-284.742 108.532,-287.879 118.4,-291.738 118.652,-284.742"/>
<text text-anchor="middle" x="133.5" y="-291.9" font-family="Times Roman,serif" font-size="14.00">b</text>
</g>
</g>
</svg>
