<?xml version="1.0" encoding="UTF-8" standalone="no"?>
<!DOCTYPE svg PUBLIC "-//W3C//DTD SVG 1.1//EN"
 "http://www.w3.org/Graphics/SVG/1.1/DTD/svg11.dtd">
<!-- Generated by graphviz version 2.26.3 (20100126.1600)
 -->
<!-- Title: G Pages: 1 -->
<svg width="154pt" height="510pt"
 viewBox="0.00 0.00 154.00 510.00" xmlns="http://www.w3.org/2000/svg" xmlns:xlink="http://www.w3.org/1999/xlink">
<g id="graph1" class="graph" transform="scale(1 1) rotate(0) translate(4 506)">
<title>G</title>
<polygon fill="white" stroke="white" points="-4,5 -4,-506 151,-506 151,5 -4,5"/>
<!-- q6 -->
<g id="node1" class="node"><title>q6</title>
<ellipse fill="none" stroke="black" cx="94" cy="-484" rx="27" ry="18"/>
<text text-anchor="middle" x="94" y="-479.9" font-family="Times Roman,serif" font-size="14.00">q6</text>
</g>
<!-- q7 -->
<g id="node3" class="node"><title>q7</title>
<ellipse fill="none" stroke="black" cx="27" cy="-394" rx="27" ry="18"/>
<text text-anchor="middle" x="27" y="-389.9" font-family="Times Roman,serif" font-size="14.00">q7</text>
</g>
<!-- q6&#45;&gt;q7 -->
<g id="edge2" class="edge"><title>q6&#45;&gt;q7</title>
<path fill="none" stroke="black" d="M81.7112,-467.493C71.5111,-453.791 56.8542,-434.103 45.2776,-418.552"/>
<polygon fill="black" stroke="black" points="47.9899,-416.334 39.2109,-410.403 42.3749,-420.514 47.9899,-416.334"/>
<text text-anchor="middle" x="71.5" y="-434.9" font-family="Times Roman,serif" font-size="14.00">b</text>
</g>
<!-- q4 -->
<g id="node5" class="node"><title>q4</title>
<ellipse fill="none" stroke="black" cx="88" cy="-304" rx="27" ry="18"/>
<text text-anchor="middle" x="88" y="-299.9" font-family="Times Roman,serif" font-size="14.00">q4</text>
</g>
<!-- q6&#45;&gt;q4 -->
<g id="edge4" class="edge"><title>q6&#45;&gt;q4</title>
<path fill="none" stroke="black" d="M93.3917,-465.75C92.3423,-434.269 90.185,-369.55 88.9408,-332.225"/>
<polygon fill="black" stroke="black" points="92.4323,-331.908 88.601,-322.031 85.4362,-332.142 92.4323,-331.908"/>
<text text-anchor="middle" x="96.5" y="-389.9" font-family="Times Roman,serif" font-size="14.00">a</text>
</g>
<!-- q7&#45;&gt;q7 -->
<g id="edge8" class="edge"><title>q7&#45;&gt;q7</title>
<path fill="none" stroke="black" d="M51.5325,-402.121C62.5078,-402.895 72,-400.188 72,-394 72,-389.843 67.7151,-387.257 61.5743,-386.242"/>
<polygon fill="black" stroke="black" points="61.6524,-382.742 51.5325,-385.879 61.3995,-389.738 61.6524,-382.742"/>
<text text-anchor="middle" x="76.5" y="-389.9" font-family="Times Roman,serif" font-size="14.00">a</text>
</g>
<!-- q7&#45;&gt;q4 -->
<g id="edge6" class="edge"><title>q7&#45;&gt;q4</title>
<path fill="none" stroke="black" d="M38.1883,-377.493C47.3315,-364.003 60.4079,-344.71 70.8686,-329.276"/>
<polygon fill="black" stroke="black" points="73.9627,-330.949 76.676,-320.708 68.1682,-327.022 73.9627,-330.949"/>
<text text-anchor="middle" x="67.5" y="-344.9" font-family="Times Roman,serif" font-size="14.00">b</text>
</g>
<!-- q4&#45;&gt;q4 -->
<g id="edge16" class="edge"><title>q4&#45;&gt;q4</title>
<path fill="none" stroke="black" d="M112.532,-312.121C123.508,-312.895 133,-310.188 133,-304 133,-299.843 128.715,-297.257 122.574,-296.242"/>
<polygon fill="black" stroke="black" points="122.652,-292.742 112.532,-295.879 122.4,-299.738 122.652,-292.742"/>
<text text-anchor="middle" x="137.5" y="-299.9" font-family="Times Roman,serif" font-size="14.00">a</text>
</g>
<!-- q2 -->
<g id="node8" class="node"><title>q2</title>
<ellipse fill="none" stroke="black" cx="88" cy="-214" rx="27" ry="18"/>
<text text-anchor="middle" x="88" y="-209.9" font-family="Times Roman,serif" font-size="14.00">q2</text>
</g>
<!-- q4&#45;&gt;q2 -->
<g id="edge14" class="edge"><title>q4&#45;&gt;q2</title>
<path fill="none" stroke="black" d="M88,-285.787C88,-273.344 88,-256.605 88,-242.421"/>
<polygon fill="black" stroke="black" points="91.5001,-242.186 88,-232.186 84.5001,-242.186 91.5001,-242.186"/>
<text text-anchor="middle" x="92.5" y="-254.9" font-family="Times Roman,serif" font-size="14.00">b</text>
</g>
<!-- q0 -->
<g id="node10" class="node"><title>q0</title>
<ellipse fill="none" stroke="black" cx="88" cy="-120" rx="27" ry="18"/>
<ellipse fill="none" stroke="black" cx="88" cy="-120" rx="31" ry="22"/>
<text text-anchor="middle" x="88" y="-115.9" font-family="Times Roman,serif" font-size="14.00">q0</text>
</g>
<!-- q2&#45;&gt;q0 -->
<g id="edge10" class="edge"><title>q2&#45;&gt;q0</title>
<path fill="none" stroke="black" d="M79.2399,-196.86C76.7028,-191.03 74.2748,-184.374 73,-178 71.192,-168.96 72.4343,-159.226 74.8315,-150.363"/>
<polygon fill="black" stroke="black" points="78.174,-151.402 77.9276,-140.81 71.515,-149.244 78.174,-151.402"/>
<text text-anchor="middle" x="77.5" y="-164.9" font-family="Times Roman,serif" font-size="14.00">b</text>
</g>
<!-- q2&#45;&gt;q0 -->
<g id="edge12" class="edge"><title>q2&#45;&gt;q0</title>
<path fill="none" stroke="black" d="M88,-195.876C88,-183.512 88,-166.795 88,-152.199"/>
<polygon fill="black" stroke="black" points="91.5001,-152.039 88,-142.039 84.5001,-152.039 91.5001,-152.039"/>
<text text-anchor="middle" x="92.5" y="-164.9" font-family="Times Roman,serif" font-size="14.00">a</text>
</g>
<!-- q0&#45;&gt;q0 -->
<g id="edge24" class="edge"><title>q0&#45;&gt;q0</title>
<path fill="none" stroke="black" d="M116.689,-128.965C127.781,-129.363 137,-126.375 137,-120 137,-115.717 132.838,-112.962 126.743,-111.737"/>
<polygon fill="black" stroke="black" points="126.908,-108.24 116.689,-111.035 126.421,-115.223 126.908,-108.24"/>
<text text-anchor="middle" x="141.5" y="-115.9" font-family="Times Roman,serif" font-size="14.00">a</text>
</g>
<!-- q3 -->
<g id="node14" class="node"><title>q3</title>
<ellipse fill="none" stroke="black" cx="88" cy="-22" rx="27" ry="18"/>
<ellipse fill="none" stroke="black" cx="88" cy="-22" rx="31" ry="22"/>
<text text-anchor="middle" x="88" y="-17.9" font-family="Times Roman,serif" font-size="14.00">q3</text>
</g>
<!-- q0&#45;&gt;q3 -->
<g id="edge22" class="edge"><title>q0&#45;&gt;q3</title>
<path fill="none" stroke="black" d="M79.2509,-98.6402C75.7978,-87.7392 73.0624,-74.2306 75,-62 75.4606,-59.0926 76.0985,-56.109 76.8464,-53.1453"/>
<polygon fill="black" stroke="black" points="80.2822,-53.8648 79.7155,-43.2851 73.5609,-51.909 80.2822,-53.8648"/>
<text text-anchor="middle" x="79.5" y="-66.9" font-family="Times Roman,serif" font-size="14.00">b</text>
</g>
<!-- q3&#45;&gt;q0 -->
<g id="edge18" class="edge"><title>q3&#45;&gt;q0</title>
<path fill="none" stroke="black" d="M88,-44.1497C88,-56.9141 88,-73.1953 88,-87.3986"/>
<polygon fill="black" stroke="black" points="84.5001,-87.7622 88,-97.7623 91.5001,-87.7623 84.5001,-87.7622"/>
<text text-anchor="middle" x="92.5" y="-66.9" font-family="Times Roman,serif" font-size="14.00">b</text>
</g>
<!-- q3&#45;&gt;q0 -->
<g id="edge20" class="edge"><title>q3&#45;&gt;q0</title>
<path fill="none" stroke="black" d="M94.8029,-43.6847C97.4293,-54.5505 99.4857,-67.9317 98,-80 97.6671,-82.7042 97.2121,-85.4885 96.6788,-88.2693"/>
<polygon fill="black" stroke="black" points="93.23,-87.6549 94.4817,-98.1756 100.064,-89.1707 93.23,-87.6549"/>
<text text-anchor="middle" x="102.5" y="-66.9" font-family="Times Roman,serif" font-size="14.00">a</text>
</g>
</g>
</svg>
