<?xml version="1.0" encoding="UTF-8" standalone="no"?>
<!DOCTYPE svg PUBLIC "-//W3C//DTD SVG 1.1//EN"
 "http://www.w3.org/Graphics/SVG/1.1/DTD/svg11.dtd">
<!-- Generated by graphviz version 2.26.3 (20100126.1600)
 -->
<!-- Title: G Pages: 1 -->
<svg width="154pt" height="510pt"
 viewBox="0.00 0.00 154.00 510.00" xmlns="http://www.w3.org/2000/svg" xmlns:xlink="http://www.w3.org/1999/xlink">
<g id="graph1" class="graph" transform="scale(1 1) rotate(0) translate(4 506)">
<title>G</title>
<polygon fill="white" stroke="white" points="-4,5 -4,-506 151,-506 151,5 -4,5"/>
<!-- q6 -->
<g id="node1" class="node"><title>q6</title>
<ellipse fill="none" stroke="black" cx="82" cy="-484" rx="27" ry="18"/>
<text text-anchor="middle" x="82" y="-479.9" font-family="Times Roman,serif" font-size="14.00">q6</text>
</g>
<!-- q6&#45;&gt;q6 -->
<g id="edge2" class="edge"><title>q6&#45;&gt;q6</title>
<path fill="none" stroke="black" d="M106.532,-492.121C117.508,-492.895 127,-490.188 127,-484 127,-479.843 122.715,-477.257 116.574,-476.242"/>
<polygon fill="black" stroke="black" points="116.652,-472.742 106.532,-475.879 116.4,-479.738 116.652,-472.742"/>
<text text-anchor="middle" x="131.5" y="-479.9" font-family="Times Roman,serif" font-size="14.00">b</text>
</g>
<!-- q4 -->
<g id="node4" class="node"><title>q4</title>
<ellipse fill="none" stroke="black" cx="82" cy="-394" rx="27" ry="18"/>
<text text-anchor="middle" x="82" y="-389.9" font-family="Times Roman,serif" font-size="14.00">q4</text>
</g>
<!-- q6&#45;&gt;q4 -->
<g id="edge4" class="edge"><title>q6&#45;&gt;q4</title>
<path fill="none" stroke="black" d="M82,-465.787C82,-453.344 82,-436.605 82,-422.421"/>
<polygon fill="black" stroke="black" points="85.5001,-422.186 82,-412.186 78.5001,-422.186 85.5001,-422.186"/>
<text text-anchor="middle" x="86.5" y="-434.9" font-family="Times Roman,serif" font-size="14.00">a</text>
</g>
<!-- q4&#45;&gt;q4 -->
<g id="edge20" class="edge"><title>q4&#45;&gt;q4</title>
<path fill="none" stroke="black" d="M106.532,-402.121C117.508,-402.895 127,-400.188 127,-394 127,-389.843 122.715,-387.257 116.574,-386.242"/>
<polygon fill="black" stroke="black" points="116.652,-382.742 106.532,-385.879 116.4,-389.738 116.652,-382.742"/>
<text text-anchor="middle" x="131.5" y="-389.9" font-family="Times Roman,serif" font-size="14.00">a</text>
</g>
<!-- q2 -->
<g id="node9" class="node"><title>q2</title>
<ellipse fill="none" stroke="black" cx="27" cy="-304" rx="27" ry="18"/>
<text text-anchor="middle" x="27" y="-299.9" font-family="Times Roman,serif" font-size="14.00">q2</text>
</g>
<!-- q4&#45;&gt;q2 -->
<g id="edge18" class="edge"><title>q4&#45;&gt;q2</title>
<path fill="none" stroke="black" d="M71.6549,-377.072C63.5119,-363.747 52.0275,-344.954 42.7446,-329.764"/>
<polygon fill="black" stroke="black" points="45.4997,-327.56 37.2987,-320.852 39.5267,-331.21 45.4997,-327.56"/>
<text text-anchor="middle" x="63.5" y="-344.9" font-family="Times Roman,serif" font-size="14.00">b</text>
</g>
<!-- q5 -->
<g id="node5" class="node"><title>q5</title>
<ellipse fill="none" stroke="black" cx="37" cy="-214" rx="27" ry="18"/>
<text text-anchor="middle" x="37" y="-209.9" font-family="Times Roman,serif" font-size="14.00">q5</text>
</g>
<!-- q1 -->
<g id="node7" class="node"><title>q1</title>
<ellipse fill="none" stroke="black" cx="50" cy="-120" rx="27" ry="18"/>
<ellipse fill="none" stroke="black" cx="50" cy="-120" rx="31" ry="22"/>
<text text-anchor="middle" x="50" y="-115.9" font-family="Times Roman,serif" font-size="14.00">q1</text>
</g>
<!-- q5&#45;&gt;q1 -->
<g id="edge6" class="edge"><title>q5&#45;&gt;q1</title>
<path fill="none" stroke="black" d="M30.9504,-196.326C28.1598,-185.701 26.0508,-171.962 29,-160 29.8519,-156.545 31.0616,-153.057 32.4754,-149.658"/>
<polygon fill="black" stroke="black" points="35.7388,-150.946 36.873,-140.412 29.4173,-147.939 35.7388,-150.946"/>
<text text-anchor="middle" x="33.5" y="-164.9" font-family="Times Roman,serif" font-size="14.00">b</text>
</g>
<!-- q5&#45;&gt;q2 -->
<g id="edge8" class="edge"><title>q5&#45;&gt;q2</title>
<path fill="none" stroke="black" d="M34.9794,-232.186C33.5975,-244.622 31.7378,-261.36 30.1613,-275.548"/>
<polygon fill="black" stroke="black" points="26.6495,-275.462 29.0236,-285.787 33.6066,-276.235 26.6495,-275.462"/>
<text text-anchor="middle" x="37.5" y="-254.9" font-family="Times Roman,serif" font-size="14.00">a</text>
</g>
<!-- q1&#45;&gt;q5 -->
<g id="edge16" class="edge"><title>q1&#45;&gt;q5</title>
<path fill="none" stroke="black" d="M46.9521,-142.039C45.1463,-155.096 42.8398,-171.773 40.9021,-185.785"/>
<polygon fill="black" stroke="black" points="37.4096,-185.491 39.5065,-195.876 44.3436,-186.45 37.4096,-185.491"/>
<text text-anchor="middle" x="48.5" y="-164.9" font-family="Times Roman,serif" font-size="14.00">a</text>
</g>
<!-- q0 -->
<g id="node13" class="node"><title>q0</title>
<ellipse fill="none" stroke="black" cx="88" cy="-22" rx="27" ry="18"/>
<ellipse fill="none" stroke="black" cx="88" cy="-22" rx="31" ry="22"/>
<text text-anchor="middle" x="88" y="-17.9" font-family="Times Roman,serif" font-size="14.00">q0</text>
</g>
<!-- q1&#45;&gt;q0 -->
<g id="edge14" class="edge"><title>q1&#45;&gt;q0</title>
<path fill="none" stroke="black" d="M58.2454,-98.7355C63.474,-85.2513 70.3227,-67.5888 76.1313,-52.6088"/>
<polygon fill="black" stroke="black" points="79.4186,-53.812 79.7707,-43.223 72.892,-51.2813 79.4186,-53.812"/>
<text text-anchor="middle" x="76.5" y="-66.9" font-family="Times Roman,serif" font-size="14.00">b</text>
</g>
<!-- q2&#45;&gt;q5 -->
<g id="edge12" class="edge"><title>q2&#45;&gt;q5</title>
<path fill="none" stroke="black" d="M21.0366,-286.347C18.2765,-275.729 16.1693,-261.991 19,-250 19.7706,-246.736 20.8851,-243.43 22.1873,-240.213"/>
<polygon fill="black" stroke="black" points="25.4484,-241.501 26.5014,-230.958 19.1039,-238.543 25.4484,-241.501"/>
<text text-anchor="middle" x="23.5" y="-254.9" font-family="Times Roman,serif" font-size="14.00">a</text>
</g>
<!-- q2&#45;&gt;q2 -->
<g id="edge10" class="edge"><title>q2&#45;&gt;q2</title>
<path fill="none" stroke="black" d="M51.5325,-312.121C62.5078,-312.895 72,-310.188 72,-304 72,-299.843 67.7151,-297.257 61.5743,-296.242"/>
<polygon fill="black" stroke="black" points="61.6524,-292.742 51.5325,-295.879 61.3995,-299.738 61.6524,-292.742"/>
<text text-anchor="middle" x="76.5" y="-299.9" font-family="Times Roman,serif" font-size="14.00">b</text>
</g>
<!-- q0&#45;&gt;q4 -->
<g id="edge24" class="edge"><title>q0&#45;&gt;q4</title>
<path fill="none" stroke="black" d="M95.3448,-43.5138C101.401,-63.1828 109,-93.2038 109,-120 109,-304 109,-304 109,-304 109,-325.955 101.538,-349.7 94.459,-367.285"/>
<polygon fill="black" stroke="black" points="91.0775,-366.294 90.395,-376.867 97.5219,-369.028 91.0775,-366.294"/>
<text text-anchor="middle" x="113.5" y="-209.9" font-family="Times Roman,serif" font-size="14.00">a</text>
</g>
<!-- q0&#45;&gt;q0 -->
<g id="edge22" class="edge"><title>q0&#45;&gt;q0</title>
<path fill="none" stroke="black" d="M116.689,-30.9648C127.781,-31.3633 137,-28.375 137,-22 137,-17.7168 132.838,-14.9624 126.743,-13.7368"/>
<polygon fill="black" stroke="black" points="126.908,-10.2399 116.689,-13.0352 126.421,-17.223 126.908,-10.2399"/>
<text text-anchor="middle" x="141.5" y="-17.9" font-family="Times Roman,serif" font-size="14.00">b</text>
</g>
</g>
</svg>
