<?xml version="1.0" encoding="UTF-8" standalone="no"?>
<!DOCTYPE svg PUBLIC "-//W3C//DTD SVG 1.1//EN"
 "http://www.w3.org/Graphics/SVG/1.1/DTD/svg11.dtd">
<!-- Generated by graphviz version 2.26.3 (20100126.1600)
 -->
<!-- Title: G Pages: 1 -->
<svg width="225pt" height="506pt"
 viewBox="0.00 0.00 225.00 506.00" xmlns="http://www.w3.org/2000/svg" xmlns:xlink="http://www.w3.org/1999/xlink">
<g id="graph1" class="graph" transform="scale(1 1) rotate(0) translate(4 502)">
<title>G</title>
<polygon fill="white" stroke="white" points="-4,5 -4,-502 222,-502 222,5 -4,5"/>
<!-- q6 -->
<g id="node1" class="node"><title>q6</title>
<ellipse fill="none" stroke="black" cx="59" cy="-479" rx="27" ry="18.3848"/>
<text text-anchor="middle" x="59" y="-475.4" font-family="Times Roman,serif" font-size="14.00">q6</text>
</g>
<!-- q1 -->
<g id="node3" class="node"><title>q1</title>
<ellipse fill="none" stroke="black" cx="27" cy="-387" rx="27" ry="18.3848"/>
<text text-anchor="middle" x="27" y="-383.4" font-family="Times Roman,serif" font-size="14.00">q1</text>
</g>
<!-- q6&#45;&gt;q1 -->
<g id="edge2" class="edge"><title>q6&#45;&gt;q1</title>
<path fill="none" stroke="black" d="M42.4197,-463.992C36.7406,-457.801 31.0521,-450.164 28,-442 24.9327,-433.796 23.9348,-424.411 23.9172,-415.745"/>
<polygon fill="black" stroke="black" points="27.4182,-415.786 24.3087,-405.658 20.4234,-415.514 27.4182,-415.786"/>
<text text-anchor="middle" x="32.5" y="-429.4" font-family="Times Roman,serif" font-size="14.00">b</text>
</g>
<!-- q6&#45;&gt;q1 -->
<g id="edge4" class="edge"><title>q6&#45;&gt;q1</title>
<path fill="none" stroke="black" d="M52.6778,-460.824C48.1197,-447.719 41.883,-429.789 36.6975,-414.88"/>
<polygon fill="black" stroke="black" points="39.9,-413.434 33.309,-405.138 33.2886,-415.733 39.9,-413.434"/>
<text text-anchor="middle" x="49.5" y="-429.4" font-family="Times Roman,serif" font-size="14.00">a</text>
</g>
<!-- q1&#45;&gt;q1 -->
<g id="edge14" class="edge"><title>q1&#45;&gt;q1</title>
<path fill="none" stroke="black" d="M51.0743,-395.454C62.2423,-396.377 72,-393.559 72,-387 72,-382.593 67.5952,-379.875 61.3174,-378.846"/>
<polygon fill="black" stroke="black" points="61.1726,-375.34 51.0743,-378.546 60.9674,-382.337 61.1726,-375.34"/>
<text text-anchor="middle" x="76.5" y="-383.4" font-family="Times Roman,serif" font-size="14.00">b</text>
</g>
<!-- q4 -->
<g id="node7" class="node"><title>q4</title>
<ellipse fill="none" stroke="black" cx="92" cy="-295" rx="27" ry="18.3848"/>
<text text-anchor="middle" x="92" y="-291.4" font-family="Times Roman,serif" font-size="14.00">q4</text>
</g>
<!-- q1&#45;&gt;q4 -->
<g id="edge16" class="edge"><title>q1&#45;&gt;q4</title>
<path fill="none" stroke="black" d="M36.8044,-369.741C43.2894,-358.692 52.1921,-344.194 61,-332 64.1695,-327.612 67.7132,-323.083 71.2405,-318.763"/>
<polygon fill="black" stroke="black" points="74.1659,-320.721 77.9004,-310.806 68.798,-316.228 74.1659,-320.721"/>
<text text-anchor="middle" x="65.5" y="-337.4" font-family="Times Roman,serif" font-size="14.00">a</text>
</g>
<!-- q5 -->
<g id="node5" class="node"><title>q5</title>
<ellipse fill="none" stroke="black" cx="95" cy="-203" rx="27" ry="18.3848"/>
<text text-anchor="middle" x="95" y="-199.4" font-family="Times Roman,serif" font-size="14.00">q5</text>
</g>
<!-- q5&#45;&gt;q4 -->
<g id="edge6" class="edge"><title>q5&#45;&gt;q4</title>
<path fill="none" stroke="black" d="M94.3938,-221.59C93.9752,-234.428 93.4104,-251.748 92.9345,-266.342"/>
<polygon fill="black" stroke="black" points="89.435,-266.274 92.6071,-276.382 96.4312,-266.502 89.435,-266.274"/>
<text text-anchor="middle" x="97.5" y="-245.4" font-family="Times Roman,serif" font-size="14.00">b</text>
</g>
<!-- q2 -->
<g id="node9" class="node"><title>q2</title>
<ellipse fill="none" stroke="black" cx="95" cy="-111" rx="27" ry="18.3848"/>
<text text-anchor="middle" x="95" y="-107.4" font-family="Times Roman,serif" font-size="14.00">q2</text>
</g>
<!-- q5&#45;&gt;q2 -->
<g id="edge8" class="edge"><title>q5&#45;&gt;q2</title>
<path fill="none" stroke="black" d="M95,-184.382C95,-171.538 95,-154.216 95,-139.627"/>
<polygon fill="black" stroke="black" points="98.5001,-139.59 95,-129.59 91.5001,-139.59 98.5001,-139.59"/>
<text text-anchor="middle" x="99.5" y="-153.4" font-family="Times Roman,serif" font-size="14.00">a</text>
</g>
<!-- q4&#45;&gt;q1 -->
<g id="edge18" class="edge"><title>q4&#45;&gt;q1</title>
<path fill="none" stroke="black" d="M87.0702,-313.437C83.4943,-324.677 77.8918,-338.955 70,-350 65.5914,-356.17 59.9447,-361.976 54.2035,-367.078"/>
<polygon fill="black" stroke="black" points="51.8605,-364.475 46.4234,-373.568 56.3445,-369.85 51.8605,-364.475"/>
<text text-anchor="middle" x="83.5" y="-337.4" font-family="Times Roman,serif" font-size="14.00">b</text>
</g>
<!-- q4&#45;&gt;q5 -->
<g id="edge20" class="edge"><title>q4&#45;&gt;q5</title>
<path fill="none" stroke="black" d="M84.3734,-277.207C80.7008,-266.459 77.5683,-252.47 80,-240 80.6368,-236.734 81.5621,-233.393 82.6454,-230.118"/>
<polygon fill="black" stroke="black" points="85.9666,-231.231 86.2385,-220.639 79.4211,-228.749 85.9666,-231.231"/>
<text text-anchor="middle" x="84.5" y="-245.4" font-family="Times Roman,serif" font-size="14.00">a</text>
</g>
<!-- q2&#45;&gt;q1 -->
<g id="edge10" class="edge"><title>q2&#45;&gt;q1</title>
<path fill="none" stroke="black" d="M84.5616,-128.371C76.3691,-142.782 65.3251,-164.066 59,-184 39.8739,-244.278 31.8924,-318.401 28.7917,-358.301"/>
<polygon fill="black" stroke="black" points="25.2937,-358.147 28.0572,-368.376 32.2752,-358.657 25.2937,-358.147"/>
<text text-anchor="middle" x="48.5" y="-245.4" font-family="Times Roman,serif" font-size="14.00">b</text>
</g>
<!-- q0 -->
<g id="node12" class="node"><title>q0</title>
<ellipse fill="none" stroke="black" cx="127" cy="-19" rx="27" ry="18.3848"/>
<text text-anchor="middle" x="127" y="-15.4" font-family="Times Roman,serif" font-size="14.00">q0</text>
</g>
<!-- q2&#45;&gt;q0 -->
<g id="edge12" class="edge"><title>q2&#45;&gt;q0</title>
<path fill="none" stroke="black" d="M101.322,-92.8238C105.88,-79.7191 112.117,-61.7885 117.303,-46.8803"/>
<polygon fill="black" stroke="black" points="120.711,-47.7333 120.691,-37.1385 114.1,-45.4336 120.711,-47.7333"/>
<text text-anchor="middle" x="117.5" y="-61.4" font-family="Times Roman,serif" font-size="14.00">a</text>
</g>
<!-- q0&#45;&gt;q6 -->
<g id="edge26" class="edge"><title>q0&#45;&gt;q6</title>
<path fill="none" stroke="black" d="M148.282,-30.9237C172.281,-46.1234 208,-74.8229 208,-111 208,-387 208,-387 208,-387 208,-439.743 139.572,-463.251 95.4599,-472.926"/>
<polygon fill="black" stroke="black" points="94.73,-469.503 85.6382,-474.942 96.1378,-476.36 94.73,-469.503"/>
<text text-anchor="middle" x="212.5" y="-245.4" font-family="Times Roman,serif" font-size="14.00">b</text>
</g>
<!-- q0&#45;&gt;q2 -->
<g id="edge28" class="edge"><title>q0&#45;&gt;q2</title>
<path fill="none" stroke="black" d="M110.42,-34.0083C104.741,-40.1994 99.0521,-47.8365 96,-56 92.9327,-64.2039 91.9348,-73.5885 91.9172,-82.2549"/>
<polygon fill="black" stroke="black" points="88.4234,-82.4856 92.3087,-92.3423 95.4182,-82.214 88.4234,-82.4856"/>
<text text-anchor="middle" x="100.5" y="-61.4" font-family="Times Roman,serif" font-size="14.00">a</text>
</g>
<!-- q3 -->
<g id="node17" class="node"><title>q3</title>
<ellipse fill="none" stroke="black" cx="126" cy="-387" rx="27" ry="18.3848"/>
<text text-anchor="middle" x="126" y="-383.4" font-family="Times Roman,serif" font-size="14.00">q3</text>
</g>
<!-- q3&#45;&gt;q4 -->
<g id="edge22" class="edge"><title>q3&#45;&gt;q4</title>
<path fill="none" stroke="black" d="M119.283,-368.824C114.44,-355.719 107.813,-337.789 102.304,-322.88"/>
<polygon fill="black" stroke="black" points="105.453,-321.305 98.7034,-313.138 98.8869,-323.732 105.453,-321.305"/>
<text text-anchor="middle" x="116.5" y="-337.4" font-family="Times Roman,serif" font-size="14.00">b</text>
</g>
<!-- q3&#45;&gt;q3 -->
<g id="edge24" class="edge"><title>q3&#45;&gt;q3</title>
<path fill="none" stroke="black" d="M150.074,-395.454C161.242,-396.377 171,-393.559 171,-387 171,-382.593 166.595,-379.875 160.317,-378.846"/>
<polygon fill="black" stroke="black" points="160.173,-375.34 150.074,-378.546 159.967,-382.337 160.173,-375.34"/>
<text text-anchor="middle" x="175.5" y="-383.4" font-family="Times Roman,serif" font-size="14.00">a</text>
</g>
</g>
</svg>
