<?xml version="1.0" encoding="UTF-8" standalone="no"?>
<!DOCTYPE svg PUBLIC "-//W3C//DTD SVG 1.1//EN"
 "http://www.w3.org/Graphics/SVG/1.1/DTD/svg11.dtd">
<!-- Generated by graphviz version 2.26.3 (20100126.1600)
 -->
<!-- Title: G Pages: 1 -->
<svg width="323pt" height="414pt"
 viewBox="0.00 0.00 322.77 414.00" xmlns="http://www.w3.org/2000/svg" xmlns:xlink="http://www.w3.org/1999/xlink">
<g id="graph1" class="graph" transform="scale(1 1) rotate(0) translate(4 410)">
<title>G</title>
<polygon fill="white" stroke="white" points="-4,5 -4,-410 319.768,-410 319.768,5 -4,5"/>
<!-- q5 -->
<g id="node1" class="node"><title>q5</title>
<ellipse fill="none" stroke="black" cx="86.7681" cy="-387" rx="27" ry="18.3848"/>
<text text-anchor="middle" x="86.7681" y="-383.4" font-family="Times Roman,serif" font-size="14.00">q5</text>
</g>
<!-- q3 -->
<g id="node3" class="node"><title>q3</title>
<ellipse fill="none" stroke="black" cx="143.768" cy="-295" rx="27" ry="18.3848"/>
<text text-anchor="middle" x="143.768" y="-291.4" font-family="Times Roman,serif" font-size="14.00">q3</text>
</g>
<!-- q5&#45;&gt;q3 -->
<g id="edge2" class="edge"><title>q5&#45;&gt;q3</title>
<path fill="none" stroke="black" d="M97.4894,-369.696C106.008,-355.946 118.055,-336.501 127.723,-320.898"/>
<polygon fill="black" stroke="black" points="130.803,-322.571 133.095,-312.227 124.853,-318.884 130.803,-322.571"/>
<text text-anchor="middle" x="125.268" y="-337.4" font-family="Times Roman,serif" font-size="14.00">b</text>
</g>
<!-- q2 -->
<g id="node5" class="node"><title>q2</title>
<ellipse fill="none" stroke="black" cx="54.7681" cy="-111" rx="27" ry="18.3848"/>
<text text-anchor="middle" x="54.7681" y="-107.4" font-family="Times Roman,serif" font-size="14.00">q2</text>
</g>
<!-- q5&#45;&gt;q2 -->
<g id="edge4" class="edge"><title>q5&#45;&gt;q2</title>
<path fill="none" stroke="black" d="M62.0561,-379.382C47.516,-373.622 30.0233,-364.23 19.7681,-350 -4.54326,-316.267 6.56174,-299.408 2.76814,-258 -1.74512,-208.737 -2.64351,-192.101 19.7681,-148 22.5397,-142.546 26.3697,-137.338 30.4835,-132.64"/>
<polygon fill="black" stroke="black" points="33.1554,-134.91 37.538,-125.264 28.0967,-130.072 33.1554,-134.91"/>
<text text-anchor="middle" x="7.26814" y="-245.4" font-family="Times Roman,serif" font-size="14.00">a</text>
</g>
<!-- q0 -->
<g id="node8" class="node"><title>q0</title>
<ellipse fill="none" stroke="black" cx="162.768" cy="-19" rx="27" ry="18.3848"/>
<text text-anchor="middle" x="162.768" y="-15.4" font-family="Times Roman,serif" font-size="14.00">q0</text>
</g>
<!-- q3&#45;&gt;q0 -->
<g id="edge18" class="edge"><title>q3&#45;&gt;q0</title>
<path fill="none" stroke="black" d="M151.869,-277.293C154.232,-271.294 156.514,-264.473 157.768,-258 172.24,-183.282 168.545,-92.9723 165.283,-47.748"/>
<polygon fill="black" stroke="black" points="168.753,-47.2169 164.496,-37.515 161.773,-47.7541 168.753,-47.2169"/>
<text text-anchor="middle" x="173.268" y="-153.4" font-family="Times Roman,serif" font-size="14.00">b</text>
</g>
<!-- q4 -->
<g id="node12" class="node"><title>q4</title>
<ellipse fill="none" stroke="black" cx="88.7681" cy="-203" rx="27" ry="18.3848"/>
<text text-anchor="middle" x="88.7681" y="-199.4" font-family="Times Roman,serif" font-size="14.00">q4</text>
</g>
<!-- q3&#45;&gt;q4 -->
<g id="edge20" class="edge"><title>q3&#45;&gt;q4</title>
<path fill="none" stroke="black" d="M132.898,-277.747C129.029,-271.545 124.667,-264.481 120.768,-258 115.131,-248.628 109.068,-238.28 103.752,-229.111"/>
<polygon fill="black" stroke="black" points="106.761,-227.324 98.7277,-220.416 100.7,-230.826 106.761,-227.324"/>
<text text-anchor="middle" x="125.268" y="-245.4" font-family="Times Roman,serif" font-size="14.00">a</text>
</g>
<!-- q2&#45;&gt;q5 -->
<g id="edge6" class="edge"><title>q2&#45;&gt;q5</title>
<path fill="none" stroke="black" d="M54.1181,-129.6C53.6365,-144.35 53.0216,-165.491 52.7681,-184 52.5369,-200.887 51.055,-205.198 52.7681,-222 57.7205,-270.572 70.6715,-325.958 79.0836,-358.618"/>
<polygon fill="black" stroke="black" points="75.722,-359.598 81.6395,-368.386 82.4941,-357.826 75.722,-359.598"/>
<text text-anchor="middle" x="62.2681" y="-245.4" font-family="Times Roman,serif" font-size="14.00">b</text>
</g>
<!-- q2&#45;&gt;q0 -->
<g id="edge8" class="edge"><title>q2&#45;&gt;q0</title>
<path fill="none" stroke="black" d="M72.1202,-96.2186C89.9385,-81.0401 117.836,-57.2752 137.978,-40.1173"/>
<polygon fill="black" stroke="black" points="140.472,-42.5904 145.815,-33.4414 135.933,-37.2617 140.472,-42.5904"/>
<text text-anchor="middle" x="123.268" y="-61.4" font-family="Times Roman,serif" font-size="14.00">a</text>
</g>
<!-- q0&#45;&gt;q5 -->
<g id="edge22" class="edge"><title>q0&#45;&gt;q5</title>
<path fill="none" stroke="black" d="M180.874,-32.785C200.107,-49.1407 227.768,-78.3406 227.768,-111 227.768,-295 227.768,-295 227.768,-295 227.768,-345.09 164.584,-369.345 122.808,-379.907"/>
<polygon fill="black" stroke="black" points="121.879,-376.53 112.959,-382.247 123.497,-383.341 121.879,-376.53"/>
<text text-anchor="middle" x="232.268" y="-199.4" font-family="Times Roman,serif" font-size="14.00">b</text>
</g>
<!-- q0&#45;&gt;q3 -->
<g id="edge24" class="edge"><title>q0&#45;&gt;q3</title>
<path fill="none" stroke="black" d="M161.473,-37.8205C158.207,-85.2508 149.626,-209.914 145.735,-266.424"/>
<polygon fill="black" stroke="black" points="142.239,-266.246 145.044,-276.462 149.223,-266.726 142.239,-266.246"/>
<text text-anchor="middle" x="158.268" y="-153.4" font-family="Times Roman,serif" font-size="14.00">a</text>
</g>
<!-- q1 -->
<g id="node9" class="node"><title>q1</title>
<ellipse fill="none" stroke="black" cx="260.768" cy="-387" rx="27" ry="18.3848"/>
<text text-anchor="middle" x="260.768" y="-383.4" font-family="Times Roman,serif" font-size="14.00">q1</text>
</g>
<!-- q1&#45;&gt;q3 -->
<g id="edge10" class="edge"><title>q1&#45;&gt;q3</title>
<path fill="none" stroke="black" d="M242.998,-373.027C223.499,-357.694 192.013,-332.936 169.744,-315.426"/>
<polygon fill="black" stroke="black" points="171.729,-312.534 161.705,-309.104 167.403,-318.037 171.729,-312.534"/>
<text text-anchor="middle" x="216.268" y="-337.4" font-family="Times Roman,serif" font-size="14.00">b</text>
</g>
<!-- q1&#45;&gt;q1 -->
<g id="edge12" class="edge"><title>q1&#45;&gt;q1</title>
<path fill="none" stroke="black" d="M284.842,-395.454C296.01,-396.377 305.768,-393.559 305.768,-387 305.768,-382.593 301.363,-379.875 295.086,-378.846"/>
<polygon fill="black" stroke="black" points="294.941,-375.34 284.842,-378.546 294.736,-382.337 294.941,-375.34"/>
<text text-anchor="middle" x="310.268" y="-383.4" font-family="Times Roman,serif" font-size="14.00">a</text>
</g>
<!-- q4&#45;&gt;q5 -->
<g id="edge16" class="edge"><title>q4&#45;&gt;q5</title>
<path fill="none" stroke="black" d="M88.5648,-221.705C88.2156,-253.837 87.4992,-319.739 87.0843,-357.91"/>
<polygon fill="black" stroke="black" points="83.5799,-358.307 86.9709,-368.345 90.5795,-358.383 83.5799,-358.307"/>
<text text-anchor="middle" x="93.2681" y="-291.4" font-family="Times Roman,serif" font-size="14.00">a</text>
</g>
<!-- q4&#45;&gt;q2 -->
<g id="edge14" class="edge"><title>q4&#45;&gt;q2</title>
<path fill="none" stroke="black" d="M82.0508,-184.824C77.2078,-171.719 70.5813,-153.789 65.0717,-138.88"/>
<polygon fill="black" stroke="black" points="68.221,-137.305 61.4715,-129.138 61.6551,-139.732 68.221,-137.305"/>
<text text-anchor="middle" x="80.2681" y="-153.4" font-family="Times Roman,serif" font-size="14.00">b</text>
</g>
</g>
</svg>
