<?xml version="1.0" encoding="UTF-8" standalone="no"?>
<!DOCTYPE svg PUBLIC "-//W3C//DTD SVG 1.1//EN"
 "http://www.w3.org/Graphics/SVG/1.1/DTD/svg11.dtd">
<!-- Generated by graphviz version 2.26.3 (20100126.1600)
 -->
<!-- Title: G Pages: 1 -->
<svg width="230pt" height="592pt"
 viewBox="0.00 0.00 230.00 592.00" xmlns="http://www.w3.org/2000/svg" xmlns:xlink="http://www.w3.org/1999/xlink">
<g id="graph1" class="graph" transform="scale(1 1) rotate(0) translate(4 588)">
<title>G</title>
<polygon fill="white" stroke="white" points="-4,5 -4,-588 227,-588 227,5 -4,5"/>
<!-- q6 -->
<g id="node1" class="node"><title>q6</title>
<ellipse fill="none" stroke="black" cx="168" cy="-566" rx="27" ry="18"/>
<text text-anchor="middle" x="168" y="-561.9" font-family="Times Roman,serif" font-size="14.00">q6</text>
</g>
<!-- q6&#45;&gt;q6 -->
<g id="edge2" class="edge"><title>q6&#45;&gt;q6</title>
<path fill="none" stroke="black" d="M192.532,-574.121C203.508,-574.895 213,-572.188 213,-566 213,-561.843 208.715,-559.257 202.574,-558.242"/>
<polygon fill="black" stroke="black" points="202.652,-554.742 192.532,-557.879 202.4,-561.738 202.652,-554.742"/>
<text text-anchor="middle" x="217.5" y="-561.9" font-family="Times Roman,serif" font-size="14.00">b</text>
</g>
<!-- q4 -->
<g id="node4" class="node"><title>q4</title>
<ellipse fill="none" stroke="black" cx="133" cy="-476" rx="27" ry="18"/>
<text text-anchor="middle" x="133" y="-471.9" font-family="Times Roman,serif" font-size="14.00">q4</text>
</g>
<!-- q6&#45;&gt;q4 -->
<g id="edge4" class="edge"><title>q6&#45;&gt;q4</title>
<path fill="none" stroke="black" d="M161.085,-548.219C156.067,-535.316 149.19,-517.63 143.496,-502.99"/>
<polygon fill="black" stroke="black" points="146.668,-501.489 139.781,-493.438 140.144,-504.027 146.668,-501.489"/>
<text text-anchor="middle" x="157.5" y="-516.9" font-family="Times Roman,serif" font-size="14.00">a</text>
</g>
<!-- q3 -->
<g id="node9" class="node"><title>q3</title>
<ellipse fill="none" stroke="black" cx="27" cy="-386" rx="27" ry="18"/>
<text text-anchor="middle" x="27" y="-381.9" font-family="Times Roman,serif" font-size="14.00">q3</text>
</g>
<!-- q4&#45;&gt;q3 -->
<g id="edge20" class="edge"><title>q4&#45;&gt;q3</title>
<path fill="none" stroke="black" d="M115.969,-461.54C98.5838,-446.779 71.4215,-423.716 51.6805,-406.955"/>
<polygon fill="black" stroke="black" points="53.8768,-404.228 43.9885,-400.424 49.3461,-409.565 53.8768,-404.228"/>
<text text-anchor="middle" x="93.5" y="-426.9" font-family="Times Roman,serif" font-size="14.00">a</text>
</g>
<!-- q2 -->
<g id="node10" class="node"><title>q2</title>
<ellipse fill="none" stroke="black" cx="60" cy="-206" rx="27" ry="18"/>
<text text-anchor="middle" x="60" y="-201.9" font-family="Times Roman,serif" font-size="14.00">q2</text>
</g>
<!-- q4&#45;&gt;q2 -->
<g id="edge18" class="edge"><title>q4&#45;&gt;q2</title>
<path fill="none" stroke="black" d="M135.895,-457.953C140.842,-422.109 148.12,-340.053 123,-278 114.902,-257.995 98.7939,-239.749 84.8936,-226.63"/>
<polygon fill="black" stroke="black" points="87.2217,-224.016 77.4632,-219.89 82.5189,-229.201 87.2217,-224.016"/>
<text text-anchor="middle" x="143.5" y="-336.9" font-family="Times Roman,serif" font-size="14.00">b</text>
</g>
<!-- q5 -->
<g id="node5" class="node"><title>q5</title>
<ellipse fill="none" stroke="black" cx="60" cy="-116" rx="27" ry="18"/>
<text text-anchor="middle" x="60" y="-111.9" font-family="Times Roman,serif" font-size="14.00">q5</text>
</g>
<!-- q1 -->
<g id="node7" class="node"><title>q1</title>
<ellipse fill="none" stroke="black" cx="92" cy="-22" rx="27" ry="18"/>
<ellipse fill="none" stroke="black" cx="92" cy="-22" rx="31" ry="22"/>
<text text-anchor="middle" x="92" y="-17.9" font-family="Times Roman,serif" font-size="14.00">q1</text>
</g>
<!-- q5&#45;&gt;q1 -->
<g id="edge6" class="edge"><title>q5&#45;&gt;q1</title>
<path fill="none" stroke="black" d="M57.5431,-97.9876C56.7529,-87.2417 56.9474,-73.4962 61,-62 62.6649,-57.277 65.1253,-52.6741 67.9444,-48.3721"/>
<polygon fill="black" stroke="black" points="70.9822,-50.1493 74.0947,-40.0219 65.3461,-45.998 70.9822,-50.1493"/>
<text text-anchor="middle" x="65.5" y="-66.9" font-family="Times Roman,serif" font-size="14.00">b</text>
</g>
<!-- q5&#45;&gt;q3 -->
<g id="edge8" class="edge"><title>q5&#45;&gt;q3</title>
<path fill="none" stroke="black" d="M50.3089,-133.035C42.4461,-147.363 31.4776,-168.566 24,-188 15.0554,-211.247 13.0476,-217.422 9,-242 1.20005,-289.362 -3.32006,-303.608 9,-350 9.86089,-353.242 11.0318,-356.533 12.3661,-359.742"/>
<polygon fill="black" stroke="black" points="9.2909,-361.428 16.713,-368.988 15.6257,-358.45 9.2909,-361.428"/>
<text text-anchor="middle" x="13.5" y="-246.9" font-family="Times Roman,serif" font-size="14.00">a</text>
</g>
<!-- q1&#45;&gt;q6 -->
<g id="edge14" class="edge"><title>q1&#45;&gt;q6</title>
<path fill="none" stroke="black" d="M118.232,-33.7942C146.656,-48.5761 188,-76.8123 188,-116 188,-476 188,-476 188,-476 188,-497.408 182.541,-521.013 177.327,-538.676"/>
<polygon fill="black" stroke="black" points="173.953,-537.739 174.328,-548.328 180.638,-539.816 173.953,-537.739"/>
<text text-anchor="middle" x="192.5" y="-291.9" font-family="Times Roman,serif" font-size="14.00">b</text>
</g>
<!-- q1&#45;&gt;q5 -->
<g id="edge16" class="edge"><title>q1&#45;&gt;q5</title>
<path fill="none" stroke="black" d="M84.6598,-43.5618C80.1156,-56.9105 74.2375,-74.1772 69.3602,-88.5045"/>
<polygon fill="black" stroke="black" points="65.9284,-87.7249 66.019,-98.3193 72.5549,-89.9808 65.9284,-87.7249"/>
<text text-anchor="middle" x="81.5" y="-66.9" font-family="Times Roman,serif" font-size="14.00">a</text>
</g>
<!-- q3&#45;&gt;q2 -->
<g id="edge24" class="edge"><title>q3&#45;&gt;q2</title>
<path fill="none" stroke="black" d="M20.9683,-368.443C14.4484,-346.78 6.10653,-309.01 15,-278 20.0003,-260.565 30.59,-243.256 40.2407,-229.981"/>
<polygon fill="black" stroke="black" points="43.1302,-231.963 46.3789,-221.878 37.5505,-227.736 43.1302,-231.963"/>
<text text-anchor="middle" x="19.5" y="-291.9" font-family="Times Roman,serif" font-size="14.00">a</text>
</g>
<!-- q0 -->
<g id="node18" class="node"><title>q0</title>
<ellipse fill="none" stroke="black" cx="60" cy="-296" rx="27" ry="18"/>
<text text-anchor="middle" x="60" y="-291.9" font-family="Times Roman,serif" font-size="14.00">q0</text>
</g>
<!-- q3&#45;&gt;q0 -->
<g id="edge22" class="edge"><title>q3&#45;&gt;q0</title>
<path fill="none" stroke="black" d="M33.5197,-368.219C38.2203,-355.399 44.6519,-337.858 49.9995,-323.274"/>
<polygon fill="black" stroke="black" points="53.3373,-324.338 53.4938,-313.744 46.7651,-321.928 53.3373,-324.338"/>
<text text-anchor="middle" x="50.5" y="-336.9" font-family="Times Roman,serif" font-size="14.00">b</text>
</g>
<!-- q2&#45;&gt;q5 -->
<g id="edge12" class="edge"><title>q2&#45;&gt;q5</title>
<path fill="none" stroke="black" d="M60,-187.787C60,-175.344 60,-158.605 60,-144.421"/>
<polygon fill="black" stroke="black" points="63.5001,-144.186 60,-134.186 56.5001,-144.186 63.5001,-144.186"/>
<text text-anchor="middle" x="64.5" y="-156.9" font-family="Times Roman,serif" font-size="14.00">a</text>
</g>
<!-- q2&#45;&gt;q2 -->
<g id="edge10" class="edge"><title>q2&#45;&gt;q2</title>
<path fill="none" stroke="black" d="M84.5325,-214.121C95.5078,-214.895 105,-212.188 105,-206 105,-201.843 100.715,-199.257 94.5743,-198.242"/>
<polygon fill="black" stroke="black" points="94.6524,-194.742 84.5325,-197.879 94.3995,-201.738 94.6524,-194.742"/>
<text text-anchor="middle" x="109.5" y="-201.9" font-family="Times Roman,serif" font-size="14.00">b</text>
</g>
<!-- q0&#45;&gt;q2 -->
<g id="edge28" class="edge"><title>q0&#45;&gt;q2</title>
<path fill="none" stroke="black" d="M60,-277.787C60,-265.344 60,-248.605 60,-234.421"/>
<polygon fill="black" stroke="black" points="63.5001,-234.186 60,-224.186 56.5001,-234.186 63.5001,-234.186"/>
<text text-anchor="middle" x="64.5" y="-246.9" font-family="Times Roman,serif" font-size="14.00">a</text>
</g>
<!-- q0&#45;&gt;q0 -->
<g id="edge26" class="edge"><title>q0&#45;&gt;q0</title>
<path fill="none" stroke="black" d="M84.5325,-304.121C95.5078,-304.895 105,-302.188 105,-296 105,-291.843 100.715,-289.257 94.5743,-288.242"/>
<polygon fill="black" stroke="black" points="94.6524,-284.742 84.5325,-287.879 94.3995,-291.738 94.6524,-284.742"/>
<text text-anchor="middle" x="109.5" y="-291.9" font-family="Times Roman,serif" font-size="14.00">b</text>
</g>
</g>
</svg>
