<?xml version="1.0" encoding="UTF-8" standalone="no"?>
<!DOCTYPE svg PUBLIC "-//W3C//DTD SVG 1.1//EN"
 "http://www.w3.org/Graphics/SVG/1.1/DTD/svg11.dtd">
<!-- Generated by graphviz version 2.26.3 (20100126.1600)
 -->
<!-- Title: G Pages: 1 -->
<svg width="99pt" height="330pt"
 viewBox="0.00 0.00 99.04 330.00" xmlns="http://www.w3.org/2000/svg" xmlns:xlink="http://www.w3.org/1999/xlink">
<g id="graph1" class="graph" transform="scale(1 1) rotate(0) translate(4 326)">
<title>G</title>
<polygon fill="white" stroke="white" points="-4,5 -4,-326 96.0395,-326 96.0395,5 -4,5"/>
<!-- q2 -->
<g id="node1" class="node"><title>q2</title>
<ellipse fill="none" stroke="black" cx="33.0395" cy="-304" rx="27" ry="18"/>
<text text-anchor="middle" x="33.0395" y="-299.9" font-family="Times Roman,serif" font-size="14.00">q2</text>
</g>
<!-- q2&#45;&gt;q2 -->
<g id="edge2" class="edge"><title>q2&#45;&gt;q2</title>
<path fill="none" stroke="black" d="M57.572,-312.121C68.5473,-312.895 78.0395,-310.188 78.0395,-304 78.0395,-299.843 73.7546,-297.257 67.6138,-296.242"/>
<polygon fill="black" stroke="black" points="67.6919,-292.742 57.572,-295.879 67.439,-299.738 67.6919,-292.742"/>
<text text-anchor="middle" x="82.5395" y="-299.9" font-family="Times Roman,serif" font-size="14.00">b</text>
</g>
<!-- q3 -->
<g id="node4" class="node"><title>q3</title>
<ellipse fill="none" stroke="black" cx="33.0395" cy="-210" rx="27" ry="18"/>
<ellipse fill="none" stroke="black" cx="33.0395" cy="-210" rx="31" ry="22"/>
<text text-anchor="middle" x="33.0395" y="-205.9" font-family="Times Roman,serif" font-size="14.00">q3</text>
</g>
<!-- q2&#45;&gt;q3 -->
<g id="edge4" class="edge"><title>q2&#45;&gt;q3</title>
<path fill="none" stroke="black" d="M33.0395,-285.876C33.0395,-273.512 33.0395,-256.795 33.0395,-242.199"/>
<polygon fill="black" stroke="black" points="36.5396,-242.039 33.0395,-232.039 29.5396,-242.039 36.5396,-242.039"/>
<text text-anchor="middle" x="37.5395" y="-254.9" font-family="Times Roman,serif" font-size="14.00">a</text>
</g>
<!-- q3&#45;&gt;q3 -->
<g id="edge10" class="edge"><title>q3&#45;&gt;q3</title>
<path fill="none" stroke="black" d="M61.728,-218.965C72.8201,-219.363 82.0395,-216.375 82.0395,-210 82.0395,-205.717 77.8777,-202.962 71.7824,-201.737"/>
<polygon fill="black" stroke="black" points="71.9474,-198.24 61.728,-201.035 71.46,-205.223 71.9474,-198.24"/>
<text text-anchor="middle" x="86.5395" y="-205.9" font-family="Times Roman,serif" font-size="14.00">b</text>
</g>
<!-- q4 -->
<g id="node5" class="node"><title>q4</title>
<ellipse fill="none" stroke="black" cx="33.0395" cy="-116" rx="27" ry="18"/>
<text text-anchor="middle" x="33.0395" y="-111.9" font-family="Times Roman,serif" font-size="14.00">q4</text>
</g>
<!-- q3&#45;&gt;q4 -->
<g id="edge12" class="edge"><title>q3&#45;&gt;q4</title>
<path fill="none" stroke="black" d="M24.2109,-188.885C20.6733,-177.929 17.8868,-164.299 20.0395,-152 20.5443,-149.116 21.2604,-146.158 22.1002,-143.237"/>
<polygon fill="black" stroke="black" points="25.4669,-144.205 25.3043,-133.612 18.8251,-141.994 25.4669,-144.205"/>
<text text-anchor="middle" x="24.5395" y="-156.9" font-family="Times Roman,serif" font-size="14.00">a</text>
</g>
<!-- q4&#45;&gt;q3 -->
<g id="edge8" class="edge"><title>q4&#45;&gt;q3</title>
<path fill="none" stroke="black" d="M33.0395,-134.025C33.0395,-146.333 33.0395,-162.987 33.0395,-177.566"/>
<polygon fill="black" stroke="black" points="29.5396,-177.723 33.0395,-187.723 36.5396,-177.723 29.5396,-177.723"/>
<text text-anchor="middle" x="37.5395" y="-156.9" font-family="Times Roman,serif" font-size="14.00">a</text>
</g>
<!-- q0 -->
<g id="node7" class="node"><title>q0</title>
<ellipse fill="none" stroke="black" cx="33.0395" cy="-22" rx="27" ry="18"/>
<ellipse fill="none" stroke="black" cx="33.0395" cy="-22" rx="31" ry="22"/>
<text text-anchor="middle" x="33.0395" y="-17.9" font-family="Times Roman,serif" font-size="14.00">q0</text>
</g>
<!-- q4&#45;&gt;q0 -->
<g id="edge6" class="edge"><title>q4&#45;&gt;q0</title>
<path fill="none" stroke="black" d="M16.3884,-101.502C10.7007,-95.4908 5.02472,-88.0416 2.0395,-80 -0.744633,-72.5001 -0.550233,-69.5692 2.0395,-62 3.66065,-57.2617 6.09673,-52.6505 8.90447,-48.3445"/>
<polygon fill="black" stroke="black" points="11.9423,-50.1214 15.0477,-39.9919 6.30323,-45.9739 11.9423,-50.1214"/>
<text text-anchor="middle" x="6.5395" y="-66.9" font-family="Times Roman,serif" font-size="14.00">b</text>
</g>
<!-- q0&#45;&gt;q4 -->
<g id="edge14" class="edge"><title>q0&#45;&gt;q4</title>
<path fill="none" stroke="black" d="M33.0395,-44.0388C33.0395,-57.0958 33.0395,-73.7734 33.0395,-87.785"/>
<polygon fill="black" stroke="black" points="29.5396,-87.8758 33.0395,-97.8759 36.5396,-87.8759 29.5396,-87.8758"/>
<text text-anchor="middle" x="37.5395" y="-66.9" font-family="Times Roman,serif" font-size="14.00">b</text>
</g>
<!-- q0&#45;&gt;q4 -->
<g id="edge16" class="edge"><title>q0&#45;&gt;q4</title>
<path fill="none" stroke="black" d="M39.977,-43.7022C42.6364,-54.5722 44.6817,-67.952 43.0395,-80 42.6663,-82.7376 42.1405,-85.5608 41.5232,-88.3653"/>
<polygon fill="black" stroke="black" points="38.0809,-87.6996 38.9955,-98.2549 44.8629,-89.4331 38.0809,-87.6996"/>
<text text-anchor="middle" x="47.5395" y="-66.9" font-family="Times Roman,serif" font-size="14.00">a</text>
</g>
</g>
</svg>
