<?xml version="1.0" encoding="UTF-8" standalone="no"?>
<!DOCTYPE svg PUBLIC "-//W3C//DTD SVG 1.1//EN"
 "http://www.w3.org/Graphics/SVG/1.1/DTD/svg11.dtd">
<!-- Generated by graphviz version 2.26.3 (20100126.1600)
 -->
<!-- Title: G Pages: 1 -->
<svg width="215pt" height="322pt"
 viewBox="0.00 0.00 215.00 322.00" xmlns="http://www.w3.org/2000/svg" xmlns:xlink="http://www.w3.org/1999/xlink">
<g id="graph1" class="graph" transform="scale(1 1) rotate(0) translate(4 318)">
<title>G</title>
<polygon fill="white" stroke="white" points="-4,5 -4,-318 212,-318 212,5 -4,5"/>
<!-- q5 -->
<g id="node1" class="node"><title>q5</title>
<ellipse fill="none" stroke="black" cx="27" cy="-295" rx="27" ry="18.3848"/>
<text text-anchor="middle" x="27" y="-291.4" font-family="Times Roman,serif" font-size="14.00">q5</text>
</g>
<!-- q5&#45;&gt;q5 -->
<g id="edge4" class="edge"><title>q5&#45;&gt;q5</title>
<path fill="none" stroke="black" d="M51.0743,-303.454C62.2423,-304.377 72,-301.559 72,-295 72,-290.593 67.5952,-287.875 61.3174,-286.846"/>
<polygon fill="black" stroke="black" points="61.1726,-283.34 51.0743,-286.546 60.9674,-290.337 61.1726,-283.34"/>
<text text-anchor="middle" x="76.5" y="-291.4" font-family="Times Roman,serif" font-size="14.00">a</text>
</g>
<!-- q2 -->
<g id="node3" class="node"><title>q2</title>
<ellipse fill="none" stroke="black" cx="81" cy="-203" rx="27" ry="18.3848"/>
<text text-anchor="middle" x="81" y="-199.4" font-family="Times Roman,serif" font-size="14.00">q2</text>
</g>
<!-- q5&#45;&gt;q2 -->
<g id="edge2" class="edge"><title>q5&#45;&gt;q2</title>
<path fill="none" stroke="black" d="M37.157,-277.696C45.2274,-263.946 56.6406,-244.501 65.7991,-228.898"/>
<polygon fill="black" stroke="black" points="68.845,-230.623 70.8886,-220.227 62.808,-227.079 68.845,-230.623"/>
<text text-anchor="middle" x="62.5" y="-245.4" font-family="Times Roman,serif" font-size="14.00">b</text>
</g>
<!-- q2&#45;&gt;q2 -->
<g id="edge6" class="edge"><title>q2&#45;&gt;q2</title>
<path fill="none" stroke="black" d="M105.074,-211.454C116.242,-212.377 126,-209.559 126,-203 126,-198.593 121.595,-195.875 115.317,-194.846"/>
<polygon fill="black" stroke="black" points="115.173,-191.34 105.074,-194.546 114.967,-198.337 115.173,-191.34"/>
<text text-anchor="middle" x="130.5" y="-199.4" font-family="Times Roman,serif" font-size="14.00">b</text>
</g>
<!-- q0 -->
<g id="node7" class="node"><title>q0</title>
<ellipse fill="none" stroke="black" cx="111" cy="-111" rx="27" ry="18.3848"/>
<text text-anchor="middle" x="111" y="-107.4" font-family="Times Roman,serif" font-size="14.00">q0</text>
</g>
<!-- q2&#45;&gt;q0 -->
<g id="edge8" class="edge"><title>q2&#45;&gt;q0</title>
<path fill="none" stroke="black" d="M86.927,-184.824C91.2003,-171.719 97.0472,-153.789 101.909,-138.88"/>
<polygon fill="black" stroke="black" points="105.313,-139.731 105.085,-129.138 98.6574,-137.561 105.313,-139.731"/>
<text text-anchor="middle" x="102.5" y="-153.4" font-family="Times Roman,serif" font-size="14.00">a</text>
</g>
<!-- q0&#45;&gt;q5 -->
<g id="edge24" class="edge"><title>q0&#45;&gt;q5</title>
<path fill="none" stroke="black" d="M91.1342,-123.974C73.281,-136.856 48.0712,-158.353 36,-184 23.8456,-209.824 22.7161,-242.775 23.9381,-266.047"/>
<polygon fill="black" stroke="black" points="20.4668,-266.579 24.6612,-276.308 27.4495,-266.087 20.4668,-266.579"/>
<text text-anchor="middle" x="40.5" y="-199.4" font-family="Times Roman,serif" font-size="14.00">a</text>
</g>
<!-- q4 -->
<g id="node10" class="node"><title>q4</title>
<ellipse fill="none" stroke="black" cx="79" cy="-19" rx="27" ry="18.3848"/>
<text text-anchor="middle" x="79" y="-15.4" font-family="Times Roman,serif" font-size="14.00">q4</text>
</g>
<!-- q0&#45;&gt;q4 -->
<g id="edge22" class="edge"><title>q0&#45;&gt;q4</title>
<path fill="none" stroke="black" d="M104.678,-92.8238C100.12,-79.7191 93.883,-61.7885 88.6975,-46.8803"/>
<polygon fill="black" stroke="black" points="91.9,-45.4336 85.309,-37.1385 85.2886,-47.7333 91.9,-45.4336"/>
<text text-anchor="middle" x="101.5" y="-61.4" font-family="Times Roman,serif" font-size="14.00">b</text>
</g>
<!-- q1 -->
<g id="node8" class="node"><title>q1</title>
<ellipse fill="none" stroke="black" cx="180" cy="-203" rx="27" ry="18.3848"/>
<text text-anchor="middle" x="180" y="-199.4" font-family="Times Roman,serif" font-size="14.00">q1</text>
</g>
<!-- q1&#45;&gt;q0 -->
<g id="edge12" class="edge"><title>q1&#45;&gt;q0</title>
<path fill="none" stroke="black" d="M167.344,-186.126C156.774,-172.032 141.557,-151.742 129.6,-135.8"/>
<polygon fill="black" stroke="black" points="132.143,-133.358 123.343,-127.458 126.543,-137.558 132.143,-133.358"/>
<text text-anchor="middle" x="155.5" y="-153.4" font-family="Times Roman,serif" font-size="14.00">a</text>
</g>
<!-- q1&#45;&gt;q4 -->
<g id="edge10" class="edge"><title>q1&#45;&gt;q4</title>
<path fill="none" stroke="black" d="M177.146,-184.285C173.057,-161.344 164.066,-121.844 147,-92 135.828,-72.4633 118.478,-53.9523 104.101,-40.459"/>
<polygon fill="black" stroke="black" points="106.224,-37.658 96.477,-33.5043 101.506,-42.8295 106.224,-37.658"/>
<text text-anchor="middle" x="167.5" y="-107.4" font-family="Times Roman,serif" font-size="14.00">b</text>
</g>
<!-- q4&#45;&gt;q5 -->
<g id="edge16" class="edge"><title>q4&#45;&gt;q5</title>
<path fill="none" stroke="black" d="M70.8552,-36.9316C68.2289,-42.9448 65.3831,-49.7183 63,-56 41.7625,-111.98 31.5056,-125.056 21,-184 16.6301,-208.518 19.4445,-215.099 19,-240 18.8572,-247.999 18.1499,-250.045 19,-258 19.3077,-260.879 19.7465,-263.864 20.2622,-266.832"/>
<polygon fill="black" stroke="black" points="16.839,-267.563 22.2324,-276.682 23.703,-266.19 16.839,-267.563"/>
<text text-anchor="middle" x="32.5" y="-153.4" font-family="Times Roman,serif" font-size="14.00">a</text>
</g>
<!-- q4&#45;&gt;q2 -->
<g id="edge14" class="edge"><title>q4&#45;&gt;q2</title>
<path fill="none" stroke="black" d="M74.367,-37.443C69.411,-59.4527 62.6831,-97.3779 66,-130 67.5078,-144.829 70.6962,-161.095 73.7473,-174.501"/>
<polygon fill="black" stroke="black" points="70.4187,-175.634 76.13,-184.558 77.2301,-174.02 70.4187,-175.634"/>
<text text-anchor="middle" x="70.5" y="-107.4" font-family="Times Roman,serif" font-size="14.00">b</text>
</g>
<!-- q3 -->
<g id="node14" class="node"><title>q3</title>
<ellipse fill="none" stroke="black" cx="137" cy="-295" rx="27" ry="18.3848"/>
<text text-anchor="middle" x="137" y="-291.4" font-family="Times Roman,serif" font-size="14.00">q3</text>
</g>
<!-- q3&#45;&gt;q2 -->
<g id="edge18" class="edge"><title>q3&#45;&gt;q2</title>
<path fill="none" stroke="black" d="M126.467,-277.696C118.097,-263.946 106.262,-244.501 96.7639,-228.898"/>
<polygon fill="black" stroke="black" points="99.6752,-226.949 91.4859,-220.227 93.6958,-230.589 99.6752,-226.949"/>
<text text-anchor="middle" x="118.5" y="-245.4" font-family="Times Roman,serif" font-size="14.00">b</text>
</g>
<!-- q3&#45;&gt;q1 -->
<g id="edge20" class="edge"><title>q3&#45;&gt;q1</title>
<path fill="none" stroke="black" d="M145.291,-277.261C151.537,-263.898 160.212,-245.338 167.326,-230.117"/>
<polygon fill="black" stroke="black" points="170.671,-231.225 171.735,-220.684 164.33,-228.261 170.671,-231.225"/>
<text text-anchor="middle" x="166.5" y="-245.4" font-family="Times Roman,serif" font-size="14.00">a</text>
</g>
</g>
</svg>
