<?xml version="1.0" encoding="UTF-8" standalone="no"?>
<!DOCTYPE svg PUBLIC "-//W3C//DTD SVG 1.1//EN"
 "http://www.w3.org/Graphics/SVG/1.1/DTD/svg11.dtd">
<!-- Generated by graphviz version 2.26.3 (20100126.1600)
 -->
<!-- Title: G Pages: 1 -->
<svg width="161pt" height="330pt"
 viewBox="0.00 0.00 161.00 330.00" xmlns="http://www.w3.org/2000/svg" xmlns:xlink="http://www.w3.org/1999/xlink">
<g id="graph1" class="graph" transform="scale(1 1) rotate(0) translate(4 326)">
<title>G</title>
<polygon fill="white" stroke="white" points="-4,5 -4,-326 158,-326 158,5 -4,5"/>
<!-- q2 -->
<g id="node1" class="node"><title>q2</title>
<ellipse fill="none" stroke="black" cx="27" cy="-304" rx="27" ry="18"/>
<text text-anchor="middle" x="27" y="-299.9" font-family="Times Roman,serif" font-size="14.00">q2</text>
</g>
<!-- q2&#45;&gt;q2 -->
<g id="edge2" class="edge"><title>q2&#45;&gt;q2</title>
<path fill="none" stroke="black" d="M51.5325,-312.121C62.5078,-312.895 72,-310.188 72,-304 72,-299.843 67.7151,-297.257 61.5743,-296.242"/>
<polygon fill="black" stroke="black" points="61.6524,-292.742 51.5325,-295.879 61.3995,-299.738 61.6524,-292.742"/>
<text text-anchor="middle" x="76.5" y="-299.9" font-family="Times Roman,serif" font-size="14.00">b</text>
</g>
<!-- q1 -->
<g id="node4" class="node"><title>q1</title>
<ellipse fill="none" stroke="black" cx="27" cy="-214" rx="27" ry="18"/>
<text text-anchor="middle" x="27" y="-209.9" font-family="Times Roman,serif" font-size="14.00">q1</text>
</g>
<!-- q2&#45;&gt;q1 -->
<g id="edge4" class="edge"><title>q2&#45;&gt;q1</title>
<path fill="none" stroke="black" d="M27,-285.787C27,-273.344 27,-256.605 27,-242.421"/>
<polygon fill="black" stroke="black" points="30.5001,-242.186 27,-232.186 23.5001,-242.186 30.5001,-242.186"/>
<text text-anchor="middle" x="31.5" y="-254.9" font-family="Times Roman,serif" font-size="14.00">a</text>
</g>
<!-- q1&#45;&gt;q1 -->
<g id="edge6" class="edge"><title>q1&#45;&gt;q1</title>
<path fill="none" stroke="black" d="M51.5325,-222.121C62.5078,-222.895 72,-220.188 72,-214 72,-209.843 67.7151,-207.257 61.5743,-206.242"/>
<polygon fill="black" stroke="black" points="61.6524,-202.742 51.5325,-205.879 61.3995,-209.738 61.6524,-202.742"/>
<text text-anchor="middle" x="76.5" y="-209.9" font-family="Times Roman,serif" font-size="14.00">b</text>
</g>
<!-- q4 -->
<g id="node7" class="node"><title>q4</title>
<ellipse fill="none" stroke="black" cx="59" cy="-120" rx="27" ry="18"/>
<ellipse fill="none" stroke="black" cx="59" cy="-120" rx="31" ry="22"/>
<text text-anchor="middle" x="59" y="-115.9" font-family="Times Roman,serif" font-size="14.00">q4</text>
</g>
<!-- q1&#45;&gt;q4 -->
<g id="edge8" class="edge"><title>q1&#45;&gt;q4</title>
<path fill="none" stroke="black" d="M24.5431,-195.988C23.7529,-185.242 23.9474,-171.496 28,-160 29.6649,-155.277 32.1253,-150.674 34.9444,-146.372"/>
<polygon fill="black" stroke="black" points="37.9822,-148.149 41.0947,-138.022 32.3461,-143.998 37.9822,-148.149"/>
<text text-anchor="middle" x="32.5" y="-164.9" font-family="Times Roman,serif" font-size="14.00">a</text>
</g>
<!-- q4&#45;&gt;q1 -->
<g id="edge12" class="edge"><title>q4&#45;&gt;q1</title>
<path fill="none" stroke="black" d="M51.6598,-141.562C47.1156,-154.91 41.2375,-172.177 36.3602,-186.504"/>
<polygon fill="black" stroke="black" points="32.9284,-185.725 33.019,-196.319 39.5549,-187.981 32.9284,-185.725"/>
<text text-anchor="middle" x="49.5" y="-164.9" font-family="Times Roman,serif" font-size="14.00">a</text>
</g>
<!-- q0 -->
<g id="node9" class="node"><title>q0</title>
<ellipse fill="none" stroke="black" cx="81" cy="-22" rx="27" ry="18"/>
<ellipse fill="none" stroke="black" cx="81" cy="-22" rx="31" ry="22"/>
<text text-anchor="middle" x="81" y="-17.9" font-family="Times Roman,serif" font-size="14.00">q0</text>
</g>
<!-- q4&#45;&gt;q0 -->
<g id="edge10" class="edge"><title>q4&#45;&gt;q0</title>
<path fill="none" stroke="black" d="M42.4477,-101.084C34.5612,-89.6944 28.0209,-74.9399 34,-62 37.4129,-54.6138 42.9366,-48.09 49.0185,-42.5668"/>
<polygon fill="black" stroke="black" points="51.3798,-45.1571 56.9039,-36.1164 46.9476,-39.739 51.3798,-45.1571"/>
<text text-anchor="middle" x="38.5" y="-66.9" font-family="Times Roman,serif" font-size="14.00">b</text>
</g>
<!-- q0&#45;&gt;q4 -->
<g id="edge18" class="edge"><title>q0&#45;&gt;q4</title>
<path fill="none" stroke="black" d="M71.9422,-43.2931C69.7018,-49.2563 67.5127,-55.8036 66,-62 63.965,-70.3359 62.5105,-79.4966 61.4752,-88.0265"/>
<polygon fill="black" stroke="black" points="57.9896,-87.7057 60.4092,-98.0205 64.9501,-88.4481 57.9896,-87.7057"/>
<text text-anchor="middle" x="70.5" y="-66.9" font-family="Times Roman,serif" font-size="14.00">b</text>
</g>
<!-- q0&#45;&gt;q4 -->
<g id="edge20" class="edge"><title>q0&#45;&gt;q4</title>
<path fill="none" stroke="black" d="M80.1624,-44.0045C79.3838,-54.9488 77.8845,-68.3039 75,-80 74.254,-83.025 73.3271,-86.1247 72.298,-89.1946"/>
<polygon fill="black" stroke="black" points="68.9423,-88.1782 68.7586,-98.7715 75.5082,-90.6049 68.9423,-88.1782"/>
<text text-anchor="middle" x="82.5" y="-66.9" font-family="Times Roman,serif" font-size="14.00">a</text>
</g>
<!-- q3 -->
<g id="node11" class="node"><title>q3</title>
<ellipse fill="none" stroke="black" cx="126" cy="-214" rx="27" ry="18"/>
<text text-anchor="middle" x="126" y="-209.9" font-family="Times Roman,serif" font-size="14.00">q3</text>
</g>
<!-- q3&#45;&gt;q4 -->
<g id="edge16" class="edge"><title>q3&#45;&gt;q4</title>
<path fill="none" stroke="black" d="M114.329,-197.626C104.65,-184.046 90.6624,-164.422 79.1737,-148.303"/>
<polygon fill="black" stroke="black" points="81.7457,-145.882 73.0913,-139.77 76.0454,-149.945 81.7457,-145.882"/>
<text text-anchor="middle" x="102.5" y="-164.9" font-family="Times Roman,serif" font-size="14.00">a</text>
</g>
<!-- q3&#45;&gt;q0 -->
<g id="edge14" class="edge"><title>q3&#45;&gt;q0</title>
<path fill="none" stroke="black" d="M122.012,-196.19C115.625,-167.776 102.633,-110.449 91,-62 90.3639,-59.3507 89.6959,-56.605 89.0195,-53.8501"/>
<polygon fill="black" stroke="black" points="92.3783,-52.8528 86.5754,-43.9884 85.5839,-54.5368 92.3783,-52.8528"/>
<text text-anchor="middle" x="113.5" y="-115.9" font-family="Times Roman,serif" font-size="14.00">b</text>
</g>
</g>
</svg>
