<?xml version="1.0" encoding="UTF-8" standalone="no"?>
<!DOCTYPE svg PUBLIC "-//W3C//DTD SVG 1.1//EN"
 "http://www.w3.org/Graphics/SVG/1.1/DTD/svg11.dtd">
<!-- Generated by graphviz version 2.26.3 (20100126.1600)
 -->
<!-- Title: G Pages: 1 -->
<svg width="95pt" height="330pt"
 viewBox="0.00 0.00 94.87 330.00" xmlns="http://www.w3.org/2000/svg" xmlns:xlink="http://www.w3.org/1999/xlink">
<g id="graph1" class="graph" transform="scale(1 1) rotate(0) translate(4 326)">
<title>G</title>
<polygon fill="white" stroke="white" points="-4,5 -4,-326 91.8724,-326 91.8724,5 -4,5"/>
<!-- q2 -->
<g id="node1" class="node"><title>q2</title>
<ellipse fill="none" stroke="black" cx="32.8724" cy="-304" rx="27" ry="18"/>
<text text-anchor="middle" x="32.8724" y="-299.9" font-family="Times Roman,serif" font-size="14.00">q2</text>
</g>
<!-- q2&#45;&gt;q2 -->
<g id="edge2" class="edge"><title>q2&#45;&gt;q2</title>
<path fill="none" stroke="black" d="M57.4049,-312.121C68.3802,-312.895 77.8724,-310.188 77.8724,-304 77.8724,-299.843 73.5875,-297.257 67.4467,-296.242"/>
<polygon fill="black" stroke="black" points="67.5248,-292.742 57.4049,-295.879 67.272,-299.738 67.5248,-292.742"/>
<text text-anchor="middle" x="82.3724" y="-299.9" font-family="Times Roman,serif" font-size="14.00">b</text>
</g>
<!-- q1 -->
<g id="node4" class="node"><title>q1</title>
<ellipse fill="none" stroke="black" cx="32.8724" cy="-214" rx="27" ry="18"/>
<text text-anchor="middle" x="32.8724" y="-209.9" font-family="Times Roman,serif" font-size="14.00">q1</text>
</g>
<!-- q2&#45;&gt;q1 -->
<g id="edge4" class="edge"><title>q2&#45;&gt;q1</title>
<path fill="none" stroke="black" d="M32.8724,-285.787C32.8724,-273.344 32.8724,-256.605 32.8724,-242.421"/>
<polygon fill="black" stroke="black" points="36.3725,-242.186 32.8724,-232.186 29.3725,-242.186 36.3725,-242.186"/>
<text text-anchor="middle" x="37.3724" y="-254.9" font-family="Times Roman,serif" font-size="14.00">a</text>
</g>
<!-- q1&#45;&gt;q1 -->
<g id="edge6" class="edge"><title>q1&#45;&gt;q1</title>
<path fill="none" stroke="black" d="M57.4049,-222.121C68.3802,-222.895 77.8724,-220.188 77.8724,-214 77.8724,-209.843 73.5875,-207.257 67.4467,-206.242"/>
<polygon fill="black" stroke="black" points="67.5248,-202.742 57.4049,-205.879 67.272,-209.738 67.5248,-202.742"/>
<text text-anchor="middle" x="82.3724" y="-209.9" font-family="Times Roman,serif" font-size="14.00">b</text>
</g>
<!-- q4 -->
<g id="node7" class="node"><title>q4</title>
<ellipse fill="none" stroke="black" cx="32.8724" cy="-120" rx="27" ry="18"/>
<ellipse fill="none" stroke="black" cx="32.8724" cy="-120" rx="31" ry="22"/>
<text text-anchor="middle" x="32.8724" y="-115.9" font-family="Times Roman,serif" font-size="14.00">q4</text>
</g>
<!-- q1&#45;&gt;q4 -->
<g id="edge8" class="edge"><title>q1&#45;&gt;q4</title>
<path fill="none" stroke="black" d="M24.1124,-196.86C21.5752,-191.03 19.1472,-184.374 17.8724,-178 16.0644,-168.96 17.3068,-159.226 19.7039,-150.363"/>
<polygon fill="black" stroke="black" points="23.0464,-151.402 22.8,-140.81 16.3874,-149.244 23.0464,-151.402"/>
<text text-anchor="middle" x="22.3724" y="-164.9" font-family="Times Roman,serif" font-size="14.00">a</text>
</g>
<!-- q4&#45;&gt;q1 -->
<g id="edge12" class="edge"><title>q4&#45;&gt;q1</title>
<path fill="none" stroke="black" d="M32.8724,-142.039C32.8724,-155.096 32.8724,-171.773 32.8724,-185.785"/>
<polygon fill="black" stroke="black" points="29.3725,-185.876 32.8724,-195.876 36.3725,-185.876 29.3725,-185.876"/>
<text text-anchor="middle" x="37.3724" y="-164.9" font-family="Times Roman,serif" font-size="14.00">a</text>
</g>
<!-- q0 -->
<g id="node9" class="node"><title>q0</title>
<ellipse fill="none" stroke="black" cx="32.8724" cy="-22" rx="27" ry="18"/>
<ellipse fill="none" stroke="black" cx="32.8724" cy="-22" rx="31" ry="22"/>
<text text-anchor="middle" x="32.8724" y="-17.9" font-family="Times Roman,serif" font-size="14.00">q0</text>
</g>
<!-- q4&#45;&gt;q0 -->
<g id="edge10" class="edge"><title>q4&#45;&gt;q0</title>
<path fill="none" stroke="black" d="M14.8806,-102.008C9.64473,-95.6003 4.60277,-87.9802 1.87242,-80 -1.87242,-69.0547 2.20299,-57.6879 8.49501,-47.9479"/>
<polygon fill="black" stroke="black" points="11.3409,-49.9858 14.4541,-39.8587 5.70503,-45.834 11.3409,-49.9858"/>
<text text-anchor="middle" x="6.37242" y="-66.9" font-family="Times Roman,serif" font-size="14.00">b</text>
</g>
<!-- q0&#45;&gt;q4 -->
<g id="edge14" class="edge"><title>q0&#45;&gt;q4</title>
<path fill="none" stroke="black" d="M32.8724,-44.1497C32.8724,-56.9141 32.8724,-73.1953 32.8724,-87.3986"/>
<polygon fill="black" stroke="black" points="29.3725,-87.7622 32.8724,-97.7623 36.3725,-87.7623 29.3725,-87.7622"/>
<text text-anchor="middle" x="37.3724" y="-66.9" font-family="Times Roman,serif" font-size="14.00">b</text>
</g>
<!-- q0&#45;&gt;q4 -->
<g id="edge16" class="edge"><title>q0&#45;&gt;q4</title>
<path fill="none" stroke="black" d="M39.6754,-43.6847C42.3018,-54.5505 44.3581,-67.9317 42.8724,-80 42.5395,-82.7042 42.0845,-85.4885 41.5512,-88.2693"/>
<polygon fill="black" stroke="black" points="38.1024,-87.6549 39.3541,-98.1756 44.9364,-89.1707 38.1024,-87.6549"/>
<text text-anchor="middle" x="47.3724" y="-66.9" font-family="Times Roman,serif" font-size="14.00">a</text>
</g>
</g>
</svg>
