<?xml version="1.0" encoding="UTF-8" standalone="no"?>
<!DOCTYPE svg PUBLIC "-//W3C//DTD SVG 1.1//EN"
 "http://www.w3.org/Graphics/SVG/1.1/DTD/svg11.dtd">
<!-- Generated by graphviz version 2.26.3 (20100126.1600)
 -->
<!-- Title: G Pages: 1 -->
<svg width="154pt" height="526pt"
 viewBox="0.00 0.00 154.00 526.00" xmlns="http://www.w3.org/2000/svg" xmlns:xlink="http://www.w3.org/1999/xlink">
<g id="graph1" class="graph" transform="scale(1 1) rotate(0) translate(4 522)">
<title>G</title>
<polygon fill="white" stroke="white" points="-4,5 -4,-522 151,-522 151,5 -4,5"/>
<!-- q6 -->
<g id="node1" class="node"><title>q6</title>
<ellipse fill="none" stroke="black" cx="82" cy="-500" rx="27" ry="18"/>
<text text-anchor="middle" x="82" y="-495.9" font-family="Times Roman,serif" font-size="14.00">q6</text>
</g>
<!-- q6&#45;&gt;q6 -->
<g id="edge2" class="edge"><title>q6&#45;&gt;q6</title>
<path fill="none" stroke="black" d="M106.532,-508.121C117.508,-508.895 127,-506.188 127,-500 127,-495.843 122.715,-493.257 116.574,-492.242"/>
<polygon fill="black" stroke="black" points="116.652,-488.742 106.532,-491.879 116.4,-495.738 116.652,-488.742"/>
<text text-anchor="middle" x="131.5" y="-495.9" font-family="Times Roman,serif" font-size="14.00">b</text>
</g>
<!-- q4 -->
<g id="node4" class="node"><title>q4</title>
<ellipse fill="none" stroke="black" cx="82" cy="-406" rx="27" ry="18"/>
<ellipse fill="none" stroke="black" cx="82" cy="-406" rx="31" ry="22"/>
<text text-anchor="middle" x="82" y="-401.9" font-family="Times Roman,serif" font-size="14.00">q4</text>
</g>
<!-- q6&#45;&gt;q4 -->
<g id="edge4" class="edge"><title>q6&#45;&gt;q4</title>
<path fill="none" stroke="black" d="M82,-481.876C82,-469.512 82,-452.795 82,-438.199"/>
<polygon fill="black" stroke="black" points="85.5001,-438.039 82,-428.039 78.5001,-438.039 85.5001,-438.039"/>
<text text-anchor="middle" x="86.5" y="-450.9" font-family="Times Roman,serif" font-size="14.00">a</text>
</g>
<!-- q4&#45;&gt;q4 -->
<g id="edge20" class="edge"><title>q4&#45;&gt;q4</title>
<path fill="none" stroke="black" d="M110.689,-414.965C121.781,-415.363 131,-412.375 131,-406 131,-401.717 126.838,-398.962 120.743,-397.737"/>
<polygon fill="black" stroke="black" points="120.908,-394.24 110.689,-397.035 120.421,-401.223 120.908,-394.24"/>
<text text-anchor="middle" x="135.5" y="-401.9" font-family="Times Roman,serif" font-size="14.00">a</text>
</g>
<!-- q2 -->
<g id="node9" class="node"><title>q2</title>
<ellipse fill="none" stroke="black" cx="27" cy="-312" rx="27" ry="18"/>
<text text-anchor="middle" x="27" y="-307.9" font-family="Times Roman,serif" font-size="14.00">q2</text>
</g>
<!-- q4&#45;&gt;q2 -->
<g id="edge18" class="edge"><title>q4&#45;&gt;q2</title>
<path fill="none" stroke="black" d="M70.0658,-385.603C61.8505,-371.563 50.8716,-352.799 42.0554,-337.731"/>
<polygon fill="black" stroke="black" points="44.9605,-335.766 36.8895,-328.902 38.9187,-339.301 44.9605,-335.766"/>
<text text-anchor="middle" x="61.5" y="-352.9" font-family="Times Roman,serif" font-size="14.00">b</text>
</g>
<!-- q5 -->
<g id="node5" class="node"><title>q5</title>
<ellipse fill="none" stroke="black" cx="35" cy="-218" rx="27" ry="18"/>
<ellipse fill="none" stroke="black" cx="35" cy="-218" rx="31" ry="22"/>
<text text-anchor="middle" x="35" y="-213.9" font-family="Times Roman,serif" font-size="14.00">q5</text>
</g>
<!-- q1 -->
<g id="node7" class="node"><title>q1</title>
<ellipse fill="none" stroke="black" cx="50" cy="-120" rx="27" ry="18"/>
<ellipse fill="none" stroke="black" cx="50" cy="-120" rx="31" ry="22"/>
<text text-anchor="middle" x="50" y="-115.9" font-family="Times Roman,serif" font-size="14.00">q1</text>
</g>
<!-- q5&#45;&gt;q1 -->
<g id="edge6" class="edge"><title>q5&#45;&gt;q1</title>
<path fill="none" stroke="black" d="M28.6086,-196.266C26.3209,-185.269 24.9721,-171.788 28,-160 28.9427,-156.33 30.3007,-152.635 31.886,-149.053"/>
<polygon fill="black" stroke="black" points="35.1089,-150.435 36.4839,-139.93 28.8579,-147.285 35.1089,-150.435"/>
<text text-anchor="middle" x="32.5" y="-164.9" font-family="Times Roman,serif" font-size="14.00">b</text>
</g>
<!-- q5&#45;&gt;q2 -->
<g id="edge8" class="edge"><title>q5&#45;&gt;q2</title>
<path fill="none" stroke="black" d="M33.1244,-240.039C32.0131,-253.096 30.5938,-269.773 29.4013,-283.785"/>
<polygon fill="black" stroke="black" points="25.9032,-283.615 28.5425,-293.876 32.878,-284.209 25.9032,-283.615"/>
<text text-anchor="middle" x="36.5" y="-262.9" font-family="Times Roman,serif" font-size="14.00">a</text>
</g>
<!-- q1&#45;&gt;q5 -->
<g id="edge16" class="edge"><title>q1&#45;&gt;q5</title>
<path fill="none" stroke="black" d="M46.6097,-142.15C44.6369,-155.039 42.1151,-171.515 39.9262,-185.816"/>
<polygon fill="black" stroke="black" points="36.4571,-185.348 38.4037,-195.762 43.3765,-186.407 36.4571,-185.348"/>
<text text-anchor="middle" x="47.5" y="-164.9" font-family="Times Roman,serif" font-size="14.00">a</text>
</g>
<!-- q0 -->
<g id="node13" class="node"><title>q0</title>
<ellipse fill="none" stroke="black" cx="88" cy="-22" rx="27" ry="18"/>
<ellipse fill="none" stroke="black" cx="88" cy="-22" rx="31" ry="22"/>
<text text-anchor="middle" x="88" y="-17.9" font-family="Times Roman,serif" font-size="14.00">q0</text>
</g>
<!-- q1&#45;&gt;q0 -->
<g id="edge14" class="edge"><title>q1&#45;&gt;q0</title>
<path fill="none" stroke="black" d="M58.2454,-98.7355C63.474,-85.2513 70.3227,-67.5888 76.1313,-52.6088"/>
<polygon fill="black" stroke="black" points="79.4186,-53.812 79.7707,-43.223 72.892,-51.2813 79.4186,-53.812"/>
<text text-anchor="middle" x="76.5" y="-66.9" font-family="Times Roman,serif" font-size="14.00">b</text>
</g>
<!-- q2&#45;&gt;q5 -->
<g id="edge12" class="edge"><title>q2&#45;&gt;q5</title>
<path fill="none" stroke="black" d="M20.8133,-294.431C17.8934,-283.843 15.534,-270.107 18,-258 18.6626,-254.747 19.5997,-251.43 20.6973,-248.168"/>
<polygon fill="black" stroke="black" points="24.0299,-249.253 24.3576,-238.663 17.4975,-246.738 24.0299,-249.253"/>
<text text-anchor="middle" x="22.5" y="-262.9" font-family="Times Roman,serif" font-size="14.00">a</text>
</g>
<!-- q2&#45;&gt;q2 -->
<g id="edge10" class="edge"><title>q2&#45;&gt;q2</title>
<path fill="none" stroke="black" d="M51.5325,-320.121C62.5078,-320.895 72,-318.188 72,-312 72,-307.843 67.7151,-305.257 61.5743,-304.242"/>
<polygon fill="black" stroke="black" points="61.6524,-300.742 51.5325,-303.879 61.3995,-307.738 61.6524,-300.742"/>
<text text-anchor="middle" x="76.5" y="-307.9" font-family="Times Roman,serif" font-size="14.00">b</text>
</g>
<!-- q0&#45;&gt;q4 -->
<g id="edge24" class="edge"><title>q0&#45;&gt;q4</title>
<path fill="none" stroke="black" d="M95.3448,-43.5138C101.401,-63.1828 109,-93.2038 109,-120 109,-312 109,-312 109,-312 109,-333.776 102.224,-357.325 95.4604,-375.406"/>
<polygon fill="black" stroke="black" points="92.1522,-374.255 91.7476,-384.842 98.6661,-376.818 92.1522,-374.255"/>
<text text-anchor="middle" x="113.5" y="-213.9" font-family="Times Roman,serif" font-size="14.00">a</text>
</g>
<!-- q0&#45;&gt;q0 -->
<g id="edge22" class="edge"><title>q0&#45;&gt;q0</title>
<path fill="none" stroke="black" d="M116.689,-30.9648C127.781,-31.3633 137,-28.375 137,-22 137,-17.7168 132.838,-14.9624 126.743,-13.7368"/>
<polygon fill="black" stroke="black" points="126.908,-10.2399 116.689,-13.0352 126.421,-17.223 126.908,-10.2399"/>
<text text-anchor="middle" x="141.5" y="-17.9" font-family="Times Roman,serif" font-size="14.00">b</text>
</g>
</g>
</svg>
