<?xml version="1.0" encoding="UTF-8" standalone="no"?>
<!DOCTYPE svg PUBLIC "-//W3C//DTD SVG 1.1//EN"
 "http://www.w3.org/Graphics/SVG/1.1/DTD/svg11.dtd">
<!-- Generated by graphviz version 2.26.3 (20100126.1600)
 -->
<!-- Title: G Pages: 1 -->
<svg width="206pt" height="322pt"
 viewBox="0.00 0.00 206.00 322.00" xmlns="http://www.w3.org/2000/svg" xmlns:xlink="http://www.w3.org/1999/xlink">
<g id="graph1" class="graph" transform="scale(1 1) rotate(0) translate(4 318)">
<title>G</title>
<polygon fill="white" stroke="white" points="-4,5 -4,-318 203,-318 203,5 -4,5"/>
<!-- q5 -->
<g id="node1" class="node"><title>q5</title>
<ellipse fill="none" stroke="black" cx="144" cy="-295" rx="27" ry="18.3848"/>
<text text-anchor="middle" x="144" y="-291.4" font-family="Times Roman,serif" font-size="14.00">q5</text>
</g>
<!-- q5&#45;&gt;q5 -->
<g id="edge4" class="edge"><title>q5&#45;&gt;q5</title>
<path fill="none" stroke="black" d="M168.074,-303.454C179.242,-304.377 189,-301.559 189,-295 189,-290.593 184.595,-287.875 178.317,-286.846"/>
<polygon fill="black" stroke="black" points="178.173,-283.34 168.074,-286.546 177.967,-290.337 178.173,-283.34"/>
<text text-anchor="middle" x="193.5" y="-291.4" font-family="Times Roman,serif" font-size="14.00">a</text>
</g>
<!-- q0 -->
<g id="node3" class="node"><title>q0</title>
<ellipse fill="none" stroke="black" cx="89" cy="-203" rx="27" ry="18.3848"/>
<text text-anchor="middle" x="89" y="-199.4" font-family="Times Roman,serif" font-size="14.00">q0</text>
</g>
<!-- q5&#45;&gt;q0 -->
<g id="edge2" class="edge"><title>q5&#45;&gt;q0</title>
<path fill="none" stroke="black" d="M133.655,-277.696C125.435,-263.946 113.811,-244.501 104.482,-228.898"/>
<polygon fill="black" stroke="black" points="107.434,-227.014 99.2987,-220.227 101.426,-230.606 107.434,-227.014"/>
<text text-anchor="middle" x="125.5" y="-245.4" font-family="Times Roman,serif" font-size="14.00">b</text>
</g>
<!-- q0&#45;&gt;q0 -->
<g id="edge20" class="edge"><title>q0&#45;&gt;q0</title>
<path fill="none" stroke="black" d="M113.074,-211.454C124.242,-212.377 134,-209.559 134,-203 134,-198.593 129.595,-195.875 123.317,-194.846"/>
<polygon fill="black" stroke="black" points="123.173,-191.34 113.074,-194.546 122.967,-198.337 123.173,-191.34"/>
<text text-anchor="middle" x="138.5" y="-199.4" font-family="Times Roman,serif" font-size="14.00">a</text>
</g>
<!-- q2 -->
<g id="node5" class="node"><title>q2</title>
<ellipse fill="none" stroke="black" cx="94" cy="-111" rx="27" ry="18.3848"/>
<text text-anchor="middle" x="94" y="-107.4" font-family="Times Roman,serif" font-size="14.00">q2</text>
</g>
<!-- q0&#45;&gt;q2 -->
<g id="edge18" class="edge"><title>q0&#45;&gt;q2</title>
<path fill="none" stroke="black" d="M90.0118,-184.382C90.7099,-171.538 91.6513,-154.216 92.4442,-139.627"/>
<polygon fill="black" stroke="black" points="95.9418,-139.765 92.9897,-129.59 88.9521,-139.385 95.9418,-139.765"/>
<text text-anchor="middle" x="95.5" y="-153.4" font-family="Times Roman,serif" font-size="14.00">b</text>
</g>
<!-- q1 -->
<g id="node7" class="node"><title>q1</title>
<ellipse fill="none" stroke="black" cx="27" cy="-19" rx="27" ry="18.3848"/>
<text text-anchor="middle" x="27" y="-15.4" font-family="Times Roman,serif" font-size="14.00">q1</text>
</g>
<!-- q2&#45;&gt;q1 -->
<g id="edge6" class="edge"><title>q2&#45;&gt;q1</title>
<path fill="none" stroke="black" d="M81.7112,-94.1258C71.5111,-80.1197 56.8542,-59.9939 45.2776,-44.0976"/>
<polygon fill="black" stroke="black" points="47.9272,-41.7904 39.2109,-35.7672 42.2687,-45.9113 47.9272,-41.7904"/>
<text text-anchor="middle" x="71.5" y="-61.4" font-family="Times Roman,serif" font-size="14.00">b</text>
</g>
<!-- q3 -->
<g id="node9" class="node"><title>q3</title>
<ellipse fill="none" stroke="black" cx="153" cy="-19" rx="27" ry="18.3848"/>
<text text-anchor="middle" x="153" y="-15.4" font-family="Times Roman,serif" font-size="14.00">q3</text>
</g>
<!-- q2&#45;&gt;q3 -->
<g id="edge8" class="edge"><title>q2&#45;&gt;q3</title>
<path fill="none" stroke="black" d="M98.3562,-92.6835C101.56,-81.4889 106.647,-67.2166 114,-56 117.694,-50.3654 122.405,-44.9664 127.267,-40.1183"/>
<polygon fill="black" stroke="black" points="129.977,-42.3771 134.906,-32.9985 125.204,-37.2564 129.977,-42.3771"/>
<text text-anchor="middle" x="118.5" y="-61.4" font-family="Times Roman,serif" font-size="14.00">a</text>
</g>
<!-- q1&#45;&gt;q1 -->
<g id="edge10" class="edge"><title>q1&#45;&gt;q1</title>
<path fill="none" stroke="black" d="M53.3466,-23.2957C63.5332,-23.4866 72,-22.0547 72,-19 72,-17.0431 68.5252,-15.7522 63.3495,-15.1273"/>
<polygon fill="black" stroke="black" points="63.4855,-11.63 53.3466,-14.7043 63.1898,-18.6237 63.4855,-11.63"/>
<text text-anchor="middle" x="76.5" y="-15.4" font-family="Times Roman,serif" font-size="14.00">b</text>
</g>
<!-- q1&#45;&gt;q1 -->
<g id="edge12" class="edge"><title>q1&#45;&gt;q1</title>
<path fill="none" stroke="black" d="M45.7031,-32.3594C66.375,-41.2656 90,-36.8125 90,-19 90,-3.9707 73.181,1.54787 55.508,-2.44429"/>
<polygon fill="black" stroke="black" points="54.1259,0.786507 45.7031,-5.64062 56.2955,-5.86879 54.1259,0.786507"/>
<text text-anchor="middle" x="94.5" y="-15.4" font-family="Times Roman,serif" font-size="14.00">a</text>
</g>
<!-- q3&#45;&gt;q5 -->
<g id="edge16" class="edge"><title>q3&#45;&gt;q5</title>
<path fill="none" stroke="black" d="M153.56,-37.7715C154.484,-73.6149 155.868,-154.267 152,-222 151.163,-236.664 149.459,-252.913 147.838,-266.351"/>
<polygon fill="black" stroke="black" points="144.344,-266.085 146.574,-276.442 151.29,-266.955 144.344,-266.085"/>
<text text-anchor="middle" x="158.5" y="-153.4" font-family="Times Roman,serif" font-size="14.00">a</text>
</g>
<!-- q3&#45;&gt;q2 -->
<g id="edge14" class="edge"><title>q3&#45;&gt;q2</title>
<path fill="none" stroke="black" d="M144.258,-36.7699C138.622,-47.7589 130.893,-62.0069 123,-74 120.229,-78.2099 117.108,-82.5416 113.966,-86.6914"/>
<polygon fill="black" stroke="black" points="110.988,-84.8196 107.595,-94.8567 116.506,-89.1259 110.988,-84.8196"/>
<text text-anchor="middle" x="137.5" y="-61.4" font-family="Times Roman,serif" font-size="14.00">b</text>
</g>
</g>
</svg>
