<?xml version="1.0" encoding="UTF-8" standalone="no"?>
<!DOCTYPE svg PUBLIC "-//W3C//DTD SVG 1.1//EN"
 "http://www.w3.org/Graphics/SVG/1.1/DTD/svg11.dtd">
<!-- Generated by graphviz version 2.26.3 (20100126.1600)
 -->
<!-- Title: G Pages: 1 -->
<svg width="121pt" height="232pt"
 viewBox="0.00 0.00 121.00 232.00" xmlns="http://www.w3.org/2000/svg" xmlns:xlink="http://www.w3.org/1999/xlink">
<g id="graph1" class="graph" transform="scale(1 1) rotate(0) translate(4 228)">
<title>G</title>
<polygon fill="white" stroke="white" points="-4,5 -4,-228 118,-228 118,5 -4,5"/>
<!-- q1 -->
<g id="node1" class="node"><title>q1</title>
<ellipse fill="none" stroke="black" cx="59" cy="-202" rx="27" ry="18"/>
<ellipse fill="none" stroke="black" cx="59" cy="-202" rx="31" ry="22"/>
<text text-anchor="middle" x="59" y="-197.9" font-family="Times Roman,serif" font-size="14.00">q1</text>
</g>
<!-- q3 -->
<g id="node3" class="node"><title>q3</title>
<ellipse fill="none" stroke="black" cx="27" cy="-108" rx="27" ry="18"/>
<text text-anchor="middle" x="27" y="-103.9" font-family="Times Roman,serif" font-size="14.00">q3</text>
</g>
<!-- q1&#45;&gt;q3 -->
<g id="edge2" class="edge"><title>q1&#45;&gt;q3</title>
<path fill="none" stroke="black" d="M41.0947,-183.978C35.8645,-177.568 30.8041,-169.955 28,-162 25.1505,-153.917 24.2084,-144.721 24.1749,-136.239"/>
<polygon fill="black" stroke="black" points="27.6809,-136.132 24.5431,-126.012 20.6854,-135.88 27.6809,-136.132"/>
<text text-anchor="middle" x="32.5" y="-148.9" font-family="Times Roman,serif" font-size="14.00">b</text>
</g>
<!-- q0 -->
<g id="node5" class="node"><title>q0</title>
<ellipse fill="none" stroke="darkred" cx="59" cy="-18" rx="27" ry="18"/>
<text text-anchor="middle" x="59" y="-13.9" font-family="Times Roman,serif" font-size="14.00">q0</text>
</g>
<!-- q1&#45;&gt;q0 -->
<g id="edge4" class="edge"><title>q1&#45;&gt;q0</title>
<path fill="none" stroke="black" d="M60.63,-179.691C62.0853,-157.089 63.8637,-121.119 63,-90 62.5971,-75.4842 61.7381,-59.3413 60.9191,-46.0257"/>
<polygon fill="black" stroke="black" points="64.4115,-45.7943 60.2803,-36.0381 57.4258,-46.2411 64.4115,-45.7943"/>
<text text-anchor="middle" x="67.5" y="-103.9" font-family="Times Roman,serif" font-size="14.00">a</text>
</g>
<!-- q3&#45;&gt;q1 -->
<g id="edge8" class="edge"><title>q3&#45;&gt;q1</title>
<path fill="none" stroke="black" d="M32.9908,-125.598C37.2661,-138.157 43.1349,-155.396 48.2157,-170.321"/>
<polygon fill="black" stroke="black" points="45.0421,-171.86 51.5781,-180.198 51.6687,-169.604 45.0421,-171.86"/>
<text text-anchor="middle" x="48.5" y="-148.9" font-family="Times Roman,serif" font-size="14.00">a</text>
</g>
<!-- q3&#45;&gt;q0 -->
<g id="edge6" class="edge"><title>q3&#45;&gt;q0</title>
<path fill="none" stroke="black" d="M24.3285,-89.9088C23.4623,-79.1351 23.6522,-65.3878 28,-54 29.8644,-49.1167 32.7056,-44.4449 35.9256,-40.1793"/>
<polygon fill="black" stroke="black" points="38.6191,-42.4145 42.4275,-32.5278 33.2849,-37.8817 38.6191,-42.4145"/>
<text text-anchor="middle" x="32.5" y="-58.9" font-family="Times Roman,serif" font-size="14.00">b</text>
</g>
<!-- q0&#45;&gt;q3 -->
<g id="edge10" class="edge"><title>q0&#45;&gt;q3</title>
<path fill="none" stroke="black" d="M52.691,-35.7442C48.136,-48.5549 41.8999,-66.0939 36.7124,-80.6838"/>
<polygon fill="black" stroke="black" points="33.3746,-79.6242 33.3222,-90.2189 39.9701,-81.9693 33.3746,-79.6242"/>
<text text-anchor="middle" x="49.5" y="-58.9" font-family="Times Roman,serif" font-size="14.00">b</text>
</g>
<!-- q0&#45;&gt;q0 -->
<g id="edge12" class="edge"><title>q0&#45;&gt;q0</title>
<path fill="none" stroke="black" d="M83.5325,-26.1211C94.5078,-26.8945 104,-24.1875 104,-18 104,-13.8428 99.7151,-11.2567 93.5743,-10.2417"/>
<polygon fill="black" stroke="black" points="93.6524,-6.74237 83.5325,-9.87891 93.3995,-13.7378 93.6524,-6.74237"/>
<text text-anchor="middle" x="108.5" y="-13.9" font-family="Times Roman,serif" font-size="14.00">a</text>
</g>
</g>
</svg>
