<?xml version="1.0" encoding="UTF-8" standalone="no"?>
<!DOCTYPE svg PUBLIC "-//W3C//DTD SVG 1.1//EN"
 "http://www.w3.org/Graphics/SVG/1.1/DTD/svg11.dtd">
<!-- Generated by graphviz version 2.26.3 (20100126.1600)
 -->
<!-- Title: G Pages: 1 -->
<svg width="188pt" height="232pt"
 viewBox="0.00 0.00 188.00 232.00" xmlns="http://www.w3.org/2000/svg" xmlns:xlink="http://www.w3.org/1999/xlink">
<g id="graph1" class="graph" transform="scale(1 1) rotate(0) translate(4 228)">
<title>G</title>
<polygon fill="white" stroke="white" points="-4,5 -4,-228 185,-228 185,5 -4,5"/>
<!-- q2 -->
<g id="node1" class="node"><title>q2</title>
<ellipse fill="none" stroke="black" cx="27" cy="-206" rx="27" ry="18"/>
<text text-anchor="middle" x="27" y="-201.9" font-family="Times Roman,serif" font-size="14.00">q2</text>
</g>
<!-- q2&#45;&gt;q2 -->
<g id="edge2" class="edge"><title>q2&#45;&gt;q2</title>
<path fill="none" stroke="black" d="M51.5325,-214.121C62.5078,-214.895 72,-212.188 72,-206 72,-201.843 67.7151,-199.257 61.5743,-198.242"/>
<polygon fill="black" stroke="black" points="61.6524,-194.742 51.5325,-197.879 61.3995,-201.738 61.6524,-194.742"/>
<text text-anchor="middle" x="76.5" y="-201.9" font-family="Times Roman,serif" font-size="14.00">b</text>
</g>
<!-- q1 -->
<g id="node4" class="node"><title>q1</title>
<ellipse fill="none" stroke="black" cx="76" cy="-116" rx="27" ry="18"/>
<text text-anchor="middle" x="76" y="-111.9" font-family="Times Roman,serif" font-size="14.00">q1</text>
</g>
<!-- q2&#45;&gt;q1 -->
<g id="edge4" class="edge"><title>q2&#45;&gt;q1</title>
<path fill="none" stroke="black" d="M36.2165,-189.072C43.4253,-175.831 53.5734,-157.192 61.8158,-142.053"/>
<polygon fill="black" stroke="black" points="64.9504,-143.615 66.6582,-133.158 58.8025,-140.267 64.9504,-143.615"/>
<text text-anchor="middle" x="60.5" y="-156.9" font-family="Times Roman,serif" font-size="14.00">a</text>
</g>
<!-- q1&#45;&gt;q1 -->
<g id="edge6" class="edge"><title>q1&#45;&gt;q1</title>
<path fill="none" stroke="black" d="M100.532,-124.121C111.508,-124.895 121,-122.188 121,-116 121,-111.843 116.715,-109.257 110.574,-108.242"/>
<polygon fill="black" stroke="black" points="110.652,-104.742 100.532,-107.879 110.4,-111.738 110.652,-104.742"/>
<text text-anchor="middle" x="125.5" y="-111.9" font-family="Times Roman,serif" font-size="14.00">b</text>
</g>
<!-- q0 -->
<g id="node7" class="node"><title>q0</title>
<ellipse fill="none" stroke="black" cx="76" cy="-22" rx="27" ry="18"/>
<ellipse fill="none" stroke="black" cx="76" cy="-22" rx="31" ry="22"/>
<text text-anchor="middle" x="76" y="-17.9" font-family="Times Roman,serif" font-size="14.00">q0</text>
</g>
<!-- q1&#45;&gt;q0 -->
<g id="edge8" class="edge"><title>q1&#45;&gt;q0</title>
<path fill="none" stroke="black" d="M59.3489,-101.502C53.6612,-95.4908 47.9852,-88.0416 45,-80 42.2159,-72.5001 42.4103,-69.5692 45,-62 46.6211,-57.2617 49.0572,-52.6505 51.865,-48.3445"/>
<polygon fill="black" stroke="black" points="54.9028,-50.1214 58.0082,-39.9919 49.2637,-45.9739 54.9028,-50.1214"/>
<text text-anchor="middle" x="49.5" y="-66.9" font-family="Times Roman,serif" font-size="14.00">a</text>
</g>
<!-- q0&#45;&gt;q1 -->
<g id="edge14" class="edge"><title>q0&#45;&gt;q1</title>
<path fill="none" stroke="black" d="M76,-44.0388C76,-57.0958 76,-73.7734 76,-87.785"/>
<polygon fill="black" stroke="black" points="72.5001,-87.8758 76,-97.8759 79.5001,-87.8759 72.5001,-87.8758"/>
<text text-anchor="middle" x="80.5" y="-66.9" font-family="Times Roman,serif" font-size="14.00">b</text>
</g>
<!-- q0&#45;&gt;q1 -->
<g id="edge16" class="edge"><title>q0&#45;&gt;q1</title>
<path fill="none" stroke="black" d="M82.9375,-43.7022C85.5969,-54.5722 87.6422,-67.952 86,-80 85.6268,-82.7376 85.101,-85.5608 84.4837,-88.3653"/>
<polygon fill="black" stroke="black" points="81.0414,-87.6996 81.956,-98.2549 87.8234,-89.4331 81.0414,-87.6996"/>
<text text-anchor="middle" x="90.5" y="-66.9" font-family="Times Roman,serif" font-size="14.00">a</text>
</g>
<!-- q3 -->
<g id="node8" class="node"><title>q3</title>
<ellipse fill="none" stroke="black" cx="126" cy="-206" rx="27" ry="18"/>
<text text-anchor="middle" x="126" y="-201.9" font-family="Times Roman,serif" font-size="14.00">q3</text>
</g>
<!-- q3&#45;&gt;q1 -->
<g id="edge12" class="edge"><title>q3&#45;&gt;q1</title>
<path fill="none" stroke="black" d="M116.595,-189.072C109.239,-175.831 98.8843,-157.192 90.4737,-142.053"/>
<polygon fill="black" stroke="black" points="93.4485,-140.2 85.5324,-133.158 87.3294,-143.6 93.4485,-140.2"/>
<text text-anchor="middle" x="109.5" y="-156.9" font-family="Times Roman,serif" font-size="14.00">a</text>
</g>
<!-- q3&#45;&gt;q3 -->
<g id="edge10" class="edge"><title>q3&#45;&gt;q3</title>
<path fill="none" stroke="black" d="M150.532,-214.121C161.508,-214.895 171,-212.188 171,-206 171,-201.843 166.715,-199.257 160.574,-198.242"/>
<polygon fill="black" stroke="black" points="160.652,-194.742 150.532,-197.879 160.4,-201.738 160.652,-194.742"/>
<text text-anchor="middle" x="175.5" y="-201.9" font-family="Times Roman,serif" font-size="14.00">b</text>
</g>
</g>
</svg>
