<?xml version="1.0" encoding="UTF-8" standalone="no"?>
<!DOCTYPE svg PUBLIC "-//W3C//DTD SVG 1.1//EN"
 "http://www.w3.org/Graphics/SVG/1.1/DTD/svg11.dtd">
<!-- Generated by graphviz version 2.26.3 (20100126.1600)
 -->
<!-- Title: G Pages: 1 -->
<svg width="219pt" height="414pt"
 viewBox="0.00 0.00 219.45 414.00" xmlns="http://www.w3.org/2000/svg" xmlns:xlink="http://www.w3.org/1999/xlink">
<g id="graph1" class="graph" transform="scale(1 1) rotate(0) translate(4 410)">
<title>G</title>
<polygon fill="white" stroke="white" points="-4,5 -4,-410 216.454,-410 216.454,5 -4,5"/>
<!-- q5 -->
<g id="node1" class="node"><title>q5</title>
<ellipse fill="none" stroke="black" cx="156.454" cy="-387" rx="27" ry="18.3848"/>
<text text-anchor="middle" x="156.454" y="-383.4" font-family="Times Roman,serif" font-size="14.00">q5</text>
</g>
<!-- q3 -->
<g id="node3" class="node"><title>q3</title>
<ellipse fill="none" stroke="black" cx="56.4544" cy="-295" rx="27" ry="18.3848"/>
<text text-anchor="middle" x="56.4544" y="-291.4" font-family="Times Roman,serif" font-size="14.00">q3</text>
</g>
<!-- q5&#45;&gt;q3 -->
<g id="edge2" class="edge"><title>q5&#45;&gt;q3</title>
<path fill="none" stroke="black" d="M134.502,-376.174C122.477,-369.607 107.765,-360.48 96.4544,-350 87.3038,-341.522 78.893,-330.673 72.17,-320.855"/>
<polygon fill="black" stroke="black" points="74.9152,-318.659 66.4975,-312.225 69.0658,-322.504 74.9152,-318.659"/>
<text text-anchor="middle" x="100.954" y="-337.4" font-family="Times Roman,serif" font-size="14.00">b</text>
</g>
<!-- q2 -->
<g id="node5" class="node"><title>q2</title>
<ellipse fill="none" stroke="black" cx="97.4544" cy="-111" rx="27" ry="18.3848"/>
<text text-anchor="middle" x="97.4544" y="-107.4" font-family="Times Roman,serif" font-size="14.00">q2</text>
</g>
<!-- q5&#45;&gt;q2 -->
<g id="edge4" class="edge"><title>q5&#45;&gt;q2</title>
<path fill="none" stroke="black" d="M154.58,-368.37C150.168,-327.684 137.632,-228.118 113.454,-148 112.484,-144.784 111.315,-141.473 110.056,-138.216"/>
<polygon fill="black" stroke="black" points="113.192,-136.642 106.117,-128.755 106.729,-139.333 113.192,-136.642"/>
<text text-anchor="middle" x="142.954" y="-245.4" font-family="Times Roman,serif" font-size="14.00">a</text>
</g>
<!-- q0 -->
<g id="node8" class="node"><title>q0</title>
<ellipse fill="none" stroke="black" cx="33.4544" cy="-19" rx="27" ry="18.3848"/>
<text text-anchor="middle" x="33.4544" y="-15.4" font-family="Times Roman,serif" font-size="14.00">q0</text>
</g>
<!-- q3&#45;&gt;q0 -->
<g id="edge18" class="edge"><title>q3&#45;&gt;q0</title>
<path fill="none" stroke="black" d="M45.1745,-277.86C36.4937,-263.584 25.2035,-242.367 20.4544,-222 6.20992,-160.909 17.9913,-86.8635 26.54,-47.2517"/>
<polygon fill="black" stroke="black" points="29.9556,-48.0152 28.7334,-37.4911 23.126,-46.4804 29.9556,-48.0152"/>
<text text-anchor="middle" x="18.9544" y="-153.4" font-family="Times Roman,serif" font-size="14.00">b</text>
</g>
<!-- q4 -->
<g id="node12" class="node"><title>q4</title>
<ellipse fill="none" stroke="black" cx="56.4544" cy="-203" rx="27" ry="18.3848"/>
<text text-anchor="middle" x="56.4544" y="-199.4" font-family="Times Roman,serif" font-size="14.00">q4</text>
</g>
<!-- q3&#45;&gt;q4 -->
<g id="edge20" class="edge"><title>q3&#45;&gt;q4</title>
<path fill="none" stroke="black" d="M56.4544,-276.382C56.4544,-263.538 56.4544,-246.216 56.4544,-231.627"/>
<polygon fill="black" stroke="black" points="59.9545,-231.59 56.4544,-221.59 52.9545,-231.59 59.9545,-231.59"/>
<text text-anchor="middle" x="60.9544" y="-245.4" font-family="Times Roman,serif" font-size="14.00">a</text>
</g>
<!-- q2&#45;&gt;q3 -->
<g id="edge6" class="edge"><title>q2&#45;&gt;q3</title>
<path fill="none" stroke="black" d="M98.9264,-129.806C100.149,-152.165 100.57,-190.426 92.4544,-222 88.2243,-238.457 80.0251,-255.561 72.5188,-269.072"/>
<polygon fill="black" stroke="black" points="69.4498,-267.388 67.4902,-277.8 75.5151,-270.883 69.4498,-267.388"/>
<text text-anchor="middle" x="101.954" y="-199.4" font-family="Times Roman,serif" font-size="14.00">b</text>
</g>
<!-- q2&#45;&gt;q0 -->
<g id="edge8" class="edge"><title>q2&#45;&gt;q0</title>
<path fill="none" stroke="black" d="M85.7158,-94.1258C75.9725,-80.1197 61.9719,-59.9939 50.9136,-44.0976"/>
<polygon fill="black" stroke="black" points="53.7024,-41.9776 45.1186,-35.7672 47.9561,-45.9751 53.7024,-41.9776"/>
<text text-anchor="middle" x="74.9544" y="-61.4" font-family="Times Roman,serif" font-size="14.00">a</text>
</g>
<!-- q0&#45;&gt;q5 -->
<g id="edge22" class="edge"><title>q0&#45;&gt;q5</title>
<path fill="none" stroke="black" d="M60.233,-21.3947C107.886,-27.283 202.454,-47.0274 202.454,-111 202.454,-295 202.454,-295 202.454,-295 202.454,-320.014 188.682,-345.199 176.209,-362.879"/>
<polygon fill="black" stroke="black" points="173.392,-360.801 170.256,-370.921 179.018,-364.966 173.392,-360.801"/>
<text text-anchor="middle" x="206.954" y="-199.4" font-family="Times Roman,serif" font-size="14.00">b</text>
</g>
<!-- q0&#45;&gt;q3 -->
<g id="edge24" class="edge"><title>q0&#45;&gt;q3</title>
<path fill="none" stroke="black" d="M25.4199,-36.8176C22.9311,-42.8232 20.3483,-49.621 18.4544,-56 4.3748,-103.423 -2.91074,-116.724 1.4544,-166 5.15522,-207.777 1.62014,-221.6 22.4544,-258 25.3254,-263.016 28.9875,-267.914 32.839,-272.419"/>
<polygon fill="black" stroke="black" points="30.5025,-275.049 39.8461,-280.044 35.6567,-270.312 30.5025,-275.049"/>
<text text-anchor="middle" x="5.9544" y="-153.4" font-family="Times Roman,serif" font-size="14.00">a</text>
</g>
<!-- q1 -->
<g id="node9" class="node"><title>q1</title>
<ellipse fill="none" stroke="black" cx="56.4544" cy="-387" rx="27" ry="18.3848"/>
<text text-anchor="middle" x="56.4544" y="-383.4" font-family="Times Roman,serif" font-size="14.00">q1</text>
</g>
<!-- q1&#45;&gt;q3 -->
<g id="edge10" class="edge"><title>q1&#45;&gt;q3</title>
<path fill="none" stroke="black" d="M56.4544,-368.382C56.4544,-355.538 56.4544,-338.216 56.4544,-323.627"/>
<polygon fill="black" stroke="black" points="59.9545,-323.59 56.4544,-313.59 52.9545,-323.59 59.9545,-323.59"/>
<text text-anchor="middle" x="60.9544" y="-337.4" font-family="Times Roman,serif" font-size="14.00">b</text>
</g>
<!-- q1&#45;&gt;q1 -->
<g id="edge12" class="edge"><title>q1&#45;&gt;q1</title>
<path fill="none" stroke="black" d="M80.5287,-395.454C91.6967,-396.377 101.454,-393.559 101.454,-387 101.454,-382.593 97.0496,-379.875 90.7718,-378.846"/>
<polygon fill="black" stroke="black" points="90.627,-375.34 80.5287,-378.546 90.4219,-382.337 90.627,-375.34"/>
<text text-anchor="middle" x="105.954" y="-383.4" font-family="Times Roman,serif" font-size="14.00">a</text>
</g>
<!-- q4&#45;&gt;q5 -->
<g id="edge16" class="edge"><title>q4&#45;&gt;q5</title>
<path fill="none" stroke="black" d="M66.0138,-220.589C83.6126,-252.971 121.232,-322.191 141.978,-360.363"/>
<polygon fill="black" stroke="black" points="139.016,-362.242 146.866,-369.357 145.166,-358.9 139.016,-362.242"/>
<text text-anchor="middle" x="119.954" y="-291.4" font-family="Times Roman,serif" font-size="14.00">a</text>
</g>
<!-- q4&#45;&gt;q2 -->
<g id="edge14" class="edge"><title>q4&#45;&gt;q2</title>
<path fill="none" stroke="black" d="M64.3596,-185.261C70.277,-171.983 78.4804,-153.576 85.2392,-138.41"/>
<polygon fill="black" stroke="black" points="88.5598,-139.557 89.4336,-128.998 82.166,-136.707 88.5598,-139.557"/>
<text text-anchor="middle" x="84.9544" y="-153.4" font-family="Times Roman,serif" font-size="14.00">b</text>
</g>
</g>
</svg>
