<?xml version="1.0" encoding="UTF-8" standalone="no"?>
<!DOCTYPE svg PUBLIC "-//W3C//DTD SVG 1.1//EN"
 "http://www.w3.org/Graphics/SVG/1.1/DTD/svg11.dtd">
<!-- Generated by graphviz version 2.26.3 (20100126.1600)
 -->
<!-- Title: G Pages: 1 -->
<svg width="264pt" height="502pt"
 viewBox="0.00 0.00 264.00 502.00" xmlns="http://www.w3.org/2000/svg" xmlns:xlink="http://www.w3.org/1999/xlink">
<g id="graph1" class="graph" transform="scale(1 1) rotate(0) translate(4 498)">
<title>G</title>
<polygon fill="white" stroke="white" points="-4,5 -4,-498 261,-498 261,5 -4,5"/>
<!-- q6 -->
<g id="node1" class="node"><title>q6</title>
<ellipse fill="none" stroke="black" cx="117" cy="-476" rx="27" ry="18"/>
<text text-anchor="middle" x="117" y="-471.9" font-family="Times Roman,serif" font-size="14.00">q6</text>
</g>
<!-- q6&#45;&gt;q6 -->
<g id="edge2" class="edge"><title>q6&#45;&gt;q6</title>
<path fill="none" stroke="black" d="M141.532,-484.121C152.508,-484.895 162,-482.188 162,-476 162,-471.843 157.715,-469.257 151.574,-468.242"/>
<polygon fill="black" stroke="black" points="151.652,-464.742 141.532,-467.879 151.4,-471.738 151.652,-464.742"/>
<text text-anchor="middle" x="166.5" y="-471.9" font-family="Times Roman,serif" font-size="14.00">b</text>
</g>
<!-- q4 -->
<g id="node4" class="node"><title>q4</title>
<ellipse fill="none" stroke="black" cx="117" cy="-386" rx="27" ry="18"/>
<text text-anchor="middle" x="117" y="-381.9" font-family="Times Roman,serif" font-size="14.00">q4</text>
</g>
<!-- q6&#45;&gt;q4 -->
<g id="edge4" class="edge"><title>q6&#45;&gt;q4</title>
<path fill="none" stroke="black" d="M117,-457.787C117,-445.344 117,-428.605 117,-414.421"/>
<polygon fill="black" stroke="black" points="120.5,-414.186 117,-404.186 113.5,-414.186 120.5,-414.186"/>
<text text-anchor="middle" x="121.5" y="-426.9" font-family="Times Roman,serif" font-size="14.00">a</text>
</g>
<!-- q0 -->
<g id="node7" class="node"><title>q0</title>
<ellipse fill="none" stroke="black" cx="31" cy="-292" rx="27" ry="18"/>
<ellipse fill="none" stroke="black" cx="31" cy="-292" rx="31" ry="22"/>
<text text-anchor="middle" x="31" y="-287.9" font-family="Times Roman,serif" font-size="14.00">q0</text>
</g>
<!-- q4&#45;&gt;q0 -->
<g id="edge18" class="edge"><title>q4&#45;&gt;q0</title>
<path fill="none" stroke="black" d="M102.799,-370.478C89.7254,-356.188 70.0789,-334.714 54.6404,-317.839"/>
<polygon fill="black" stroke="black" points="57.2143,-315.468 47.8818,-310.452 52.0497,-320.193 57.2143,-315.468"/>
<text text-anchor="middle" x="86.5" y="-336.9" font-family="Times Roman,serif" font-size="14.00">b</text>
</g>
<!-- q3 -->
<g id="node15" class="node"><title>q3</title>
<ellipse fill="none" stroke="black" cx="172" cy="-198" rx="27" ry="18"/>
<text text-anchor="middle" x="172" y="-193.9" font-family="Times Roman,serif" font-size="14.00">q3</text>
</g>
<!-- q4&#45;&gt;q3 -->
<g id="edge20" class="edge"><title>q4&#45;&gt;q3</title>
<path fill="none" stroke="black" d="M124.217,-368.559C126.521,-362.708 128.992,-356.117 131,-350 145.031,-307.257 157.968,-256.643 165.418,-225.949"/>
<polygon fill="black" stroke="black" points="168.883,-226.509 167.817,-215.968 162.077,-224.873 168.883,-226.509"/>
<text text-anchor="middle" x="157.5" y="-287.9" font-family="Times Roman,serif" font-size="14.00">a</text>
</g>
<!-- q5 -->
<g id="node5" class="node"><title>q5</title>
<ellipse fill="none" stroke="black" cx="150" cy="-18" rx="27" ry="18"/>
<text text-anchor="middle" x="150" y="-13.9" font-family="Times Roman,serif" font-size="14.00">q5</text>
</g>
<!-- q5&#45;&gt;q0 -->
<g id="edge6" class="edge"><title>q5&#45;&gt;q0</title>
<path fill="none" stroke="black" d="M141.058,-34.9949C133.545,-49.4776 122.677,-70.917 114,-90 86.8013,-149.817 58.3882,-221.225 42.871,-261.113"/>
<polygon fill="black" stroke="black" points="39.5644,-259.96 39.2124,-270.549 46.0909,-262.49 39.5644,-259.96"/>
<text text-anchor="middle" x="94.5" y="-148.9" font-family="Times Roman,serif" font-size="14.00">b</text>
</g>
<!-- q2 -->
<g id="node9" class="node"><title>q2</title>
<ellipse fill="none" stroke="black" cx="150" cy="-108" rx="27" ry="18"/>
<text text-anchor="middle" x="150" y="-103.9" font-family="Times Roman,serif" font-size="14.00">q2</text>
</g>
<!-- q5&#45;&gt;q2 -->
<g id="edge8" class="edge"><title>q5&#45;&gt;q2</title>
<path fill="none" stroke="black" d="M150,-36.1858C150,-48.6224 150,-65.3601 150,-79.5481"/>
<polygon fill="black" stroke="black" points="146.5,-79.7871 150,-89.7872 153.5,-79.7872 146.5,-79.7871"/>
<text text-anchor="middle" x="154.5" y="-58.9" font-family="Times Roman,serif" font-size="14.00">a</text>
</g>
<!-- q0&#45;&gt;q0 -->
<g id="edge28" class="edge"><title>q0&#45;&gt;q0</title>
<path fill="none" stroke="black" d="M59.6885,-300.965C70.7806,-301.363 80,-298.375 80,-292 80,-287.717 75.8382,-284.962 69.7429,-283.737"/>
<polygon fill="black" stroke="black" points="69.9079,-280.24 59.6885,-283.035 69.4205,-287.223 69.9079,-280.24"/>
<text text-anchor="middle" x="84.5" y="-287.9" font-family="Times Roman,serif" font-size="14.00">a</text>
</g>
<!-- q0&#45;&gt;q3 -->
<g id="edge26" class="edge"><title>q0&#45;&gt;q3</title>
<path fill="none" stroke="black" d="M45.9136,-272.509C56.1308,-260.19 70.5827,-244.643 86,-234 101.664,-223.187 121.084,-214.712 137.504,-208.708"/>
<polygon fill="black" stroke="black" points="138.994,-211.895 147.279,-205.291 136.684,-205.287 138.994,-211.895"/>
<text text-anchor="middle" x="90.5" y="-238.9" font-family="Times Roman,serif" font-size="14.00">b</text>
</g>
<!-- q2&#45;&gt;q4 -->
<g id="edge10" class="edge"><title>q2&#45;&gt;q4</title>
<path fill="none" stroke="black" d="M145.988,-125.965C142.872,-140.48 138.649,-161.469 136,-180 126.967,-243.182 121.319,-317.911 118.71,-357.711"/>
<polygon fill="black" stroke="black" points="115.214,-357.538 118.068,-367.741 122.199,-357.985 115.214,-357.538"/>
<text text-anchor="middle" x="134.5" y="-238.9" font-family="Times Roman,serif" font-size="14.00">b</text>
</g>
<!-- q2&#45;&gt;q5 -->
<g id="edge12" class="edge"><title>q2&#45;&gt;q5</title>
<path fill="none" stroke="black" d="M142.265,-90.3885C140.116,-84.6409 138.077,-78.1528 137,-72 135.621,-64.1198 135.621,-61.8802 137,-54 137.505,-51.1159 138.221,-48.1581 139.061,-45.2374"/>
<polygon fill="black" stroke="black" points="142.427,-46.2051 142.265,-35.6115 135.786,-43.9943 142.427,-46.2051"/>
<text text-anchor="middle" x="141.5" y="-58.9" font-family="Times Roman,serif" font-size="14.00">a</text>
</g>
<!-- q1 -->
<g id="node12" class="node"><title>q1</title>
<ellipse fill="none" stroke="black" cx="225" cy="-292" rx="27" ry="18"/>
<ellipse fill="none" stroke="black" cx="225" cy="-292" rx="31" ry="22"/>
<text text-anchor="middle" x="225" y="-287.9" font-family="Times Roman,serif" font-size="14.00">q1</text>
</g>
<!-- q1&#45;&gt;q5 -->
<g id="edge14" class="edge"><title>q1&#45;&gt;q5</title>
<path fill="none" stroke="black" d="M223.073,-269.856C219.267,-232.007 209.07,-152.87 186,-90 180.228,-74.2693 171.965,-57.4801 164.812,-44.0746"/>
<polygon fill="black" stroke="black" points="167.71,-42.0791 159.85,-34.9747 161.565,-45.43 167.71,-42.0791"/>
<text text-anchor="middle" x="210.5" y="-148.9" font-family="Times Roman,serif" font-size="14.00">b</text>
</g>
<!-- q1&#45;&gt;q3 -->
<g id="edge16" class="edge"><title>q1&#45;&gt;q3</title>
<path fill="none" stroke="black" d="M213.238,-271.138C205.358,-257.163 194.93,-238.668 186.531,-223.773"/>
<polygon fill="black" stroke="black" points="189.566,-222.028 181.606,-215.036 183.468,-225.466 189.566,-222.028"/>
<text text-anchor="middle" x="205.5" y="-238.9" font-family="Times Roman,serif" font-size="14.00">a</text>
</g>
<!-- q3&#45;&gt;q2 -->
<g id="edge22" class="edge"><title>q3&#45;&gt;q2</title>
<path fill="none" stroke="black" d="M160.063,-181.59C156.44,-175.704 152.914,-168.828 151,-162 148.722,-153.874 147.922,-144.788 147.843,-136.42"/>
<polygon fill="black" stroke="black" points="151.344,-136.409 148.07,-126.333 144.346,-136.251 151.344,-136.409"/>
<text text-anchor="middle" x="155.5" y="-148.9" font-family="Times Roman,serif" font-size="14.00">b</text>
</g>
<!-- q3&#45;&gt;q2 -->
<g id="edge24" class="edge"><title>q3&#45;&gt;q2</title>
<path fill="none" stroke="black" d="M168.235,-179.945C165.979,-169.426 162.979,-155.926 160,-144 159.33,-141.319 158.607,-138.534 157.866,-135.754"/>
<polygon fill="black" stroke="black" points="161.184,-134.619 155.17,-125.896 154.432,-136.466 161.184,-134.619"/>
<text text-anchor="middle" x="168.5" y="-148.9" font-family="Times Roman,serif" font-size="14.00">a</text>
</g>
</g>
</svg>
