<?xml version="1.0" encoding="UTF-8" standalone="no"?>
<!DOCTYPE svg PUBLIC "-//W3C//DTD SVG 1.1//EN"
 "http://www.w3.org/Graphics/SVG/1.1/DTD/svg11.dtd">
<!-- Generated by graphviz version 2.26.3 (20100126.1600)
 -->
<!-- Title: G Pages: 1 -->
<svg width="245pt" height="506pt"
 viewBox="0.00 0.00 245.00 506.00" xmlns="http://www.w3.org/2000/svg" xmlns:xlink="http://www.w3.org/1999/xlink">
<g id="graph1" class="graph" transform="scale(1 1) rotate(0) translate(4 502)">
<title>G</title>
<polygon fill="white" stroke="white" points="-4,5 -4,-502 242,-502 242,5 -4,5"/>
<!-- q6 -->
<g id="node1" class="node"><title>q6</title>
<ellipse fill="none" stroke="black" cx="117" cy="-479" rx="27" ry="18.3848"/>
<text text-anchor="middle" x="117" y="-475.4" font-family="Times Roman,serif" font-size="14.00">q6</text>
</g>
<!-- q6&#45;&gt;q6 -->
<g id="edge4" class="edge"><title>q6&#45;&gt;q6</title>
<path fill="none" stroke="black" d="M141.074,-487.454C152.242,-488.377 162,-485.559 162,-479 162,-474.593 157.595,-471.875 151.317,-470.846"/>
<polygon fill="black" stroke="black" points="151.173,-467.34 141.074,-470.546 150.967,-474.337 151.173,-467.34"/>
<text text-anchor="middle" x="166.5" y="-475.4" font-family="Times Roman,serif" font-size="14.00">a</text>
</g>
<!-- q1 -->
<g id="node3" class="node"><title>q1</title>
<ellipse fill="none" stroke="black" cx="117" cy="-387" rx="27" ry="18.3848"/>
<text text-anchor="middle" x="117" y="-383.4" font-family="Times Roman,serif" font-size="14.00">q1</text>
</g>
<!-- q6&#45;&gt;q1 -->
<g id="edge2" class="edge"><title>q6&#45;&gt;q1</title>
<path fill="none" stroke="black" d="M117,-460.382C117,-447.538 117,-430.216 117,-415.627"/>
<polygon fill="black" stroke="black" points="120.5,-415.59 117,-405.59 113.5,-415.59 120.5,-415.59"/>
<text text-anchor="middle" x="121.5" y="-429.4" font-family="Times Roman,serif" font-size="14.00">b</text>
</g>
<!-- q5 -->
<g id="node5" class="node"><title>q5</title>
<ellipse fill="none" stroke="black" cx="27" cy="-295" rx="27" ry="18.3848"/>
<text text-anchor="middle" x="27" y="-291.4" font-family="Times Roman,serif" font-size="14.00">q5</text>
</g>
<!-- q1&#45;&gt;q5 -->
<g id="edge16" class="edge"><title>q1&#45;&gt;q5</title>
<path fill="none" stroke="black" d="M101.733,-371.393C87.2939,-356.634 65.4629,-334.318 49.1189,-317.61"/>
<polygon fill="black" stroke="black" points="51.5367,-315.077 42.0418,-310.376 46.5328,-319.972 51.5367,-315.077"/>
<text text-anchor="middle" x="85.5" y="-337.4" font-family="Times Roman,serif" font-size="14.00">a</text>
</g>
<!-- q2 -->
<g id="node8" class="node"><title>q2</title>
<ellipse fill="none" stroke="black" cx="72" cy="-203" rx="27" ry="18.3848"/>
<text text-anchor="middle" x="72" y="-199.4" font-family="Times Roman,serif" font-size="14.00">q2</text>
</g>
<!-- q1&#45;&gt;q2 -->
<g id="edge14" class="edge"><title>q1&#45;&gt;q2</title>
<path fill="none" stroke="black" d="M112.527,-368.534C107.186,-346.502 97.9731,-308.555 90,-276 86.3627,-261.148 82.2853,-244.604 78.9321,-231.025"/>
<polygon fill="black" stroke="black" points="82.3249,-230.165 76.5283,-221.296 75.5293,-231.844 82.3249,-230.165"/>
<text text-anchor="middle" x="103.5" y="-291.4" font-family="Times Roman,serif" font-size="14.00">b</text>
</g>
<!-- q5&#45;&gt;q5 -->
<g id="edge6" class="edge"><title>q5&#45;&gt;q5</title>
<path fill="none" stroke="black" d="M51.0743,-303.454C62.2423,-304.377 72,-301.559 72,-295 72,-290.593 67.5952,-287.875 61.3174,-286.846"/>
<polygon fill="black" stroke="black" points="61.1726,-283.34 51.0743,-286.546 60.9674,-290.337 61.1726,-283.34"/>
<text text-anchor="middle" x="76.5" y="-291.4" font-family="Times Roman,serif" font-size="14.00">b</text>
</g>
<!-- q5&#45;&gt;q2 -->
<g id="edge8" class="edge"><title>q5&#45;&gt;q2</title>
<path fill="none" stroke="black" d="M35.6765,-277.261C42.2753,-263.77 51.4643,-244.984 58.9487,-229.683"/>
<polygon fill="black" stroke="black" points="62.1003,-231.205 63.3502,-220.684 55.8122,-228.129 62.1003,-231.205"/>
<text text-anchor="middle" x="58.5" y="-245.4" font-family="Times Roman,serif" font-size="14.00">a</text>
</g>
<!-- q2&#45;&gt;q2 -->
<g id="edge12" class="edge"><title>q2&#45;&gt;q2</title>
<path fill="none" stroke="black" d="M96.0743,-211.454C107.242,-212.377 117,-209.559 117,-203 117,-198.593 112.595,-195.875 106.317,-194.846"/>
<polygon fill="black" stroke="black" points="106.173,-191.34 96.0743,-194.546 105.967,-198.337 106.173,-191.34"/>
<text text-anchor="middle" x="121.5" y="-199.4" font-family="Times Roman,serif" font-size="14.00">a</text>
</g>
<!-- q0 -->
<g id="node10" class="node"><title>q0</title>
<ellipse fill="none" stroke="black" cx="148" cy="-111" rx="27" ry="18.3848"/>
<text text-anchor="middle" x="148" y="-107.4" font-family="Times Roman,serif" font-size="14.00">q0</text>
</g>
<!-- q2&#45;&gt;q0 -->
<g id="edge10" class="edge"><title>q2&#45;&gt;q0</title>
<path fill="none" stroke="black" d="M85.5873,-186.552C97.3673,-172.292 114.575,-151.461 127.941,-135.282"/>
<polygon fill="black" stroke="black" points="130.86,-137.244 134.53,-127.305 125.463,-132.786 130.86,-137.244"/>
<text text-anchor="middle" x="120.5" y="-153.4" font-family="Times Roman,serif" font-size="14.00">b</text>
</g>
<!-- q0&#45;&gt;q1 -->
<g id="edge28" class="edge"><title>q0&#45;&gt;q1</title>
<path fill="none" stroke="black" d="M145.927,-129.457C140.631,-176.604 126.577,-301.73 120.213,-358.398"/>
<polygon fill="black" stroke="black" points="116.72,-358.134 119.082,-368.462 123.677,-358.915 116.72,-358.134"/>
<text text-anchor="middle" x="137.5" y="-245.4" font-family="Times Roman,serif" font-size="14.00">a</text>
</g>
<!-- q4 -->
<g id="node14" class="node"><title>q4</title>
<ellipse fill="none" stroke="black" cx="148" cy="-19" rx="27" ry="18.3848"/>
<text text-anchor="middle" x="148" y="-15.4" font-family="Times Roman,serif" font-size="14.00">q4</text>
</g>
<!-- q0&#45;&gt;q4 -->
<g id="edge26" class="edge"><title>q0&#45;&gt;q4</title>
<path fill="none" stroke="black" d="M148,-92.3824C148,-79.5383 148,-62.2161 148,-47.6269"/>
<polygon fill="black" stroke="black" points="151.5,-47.5898 148,-37.5899 144.5,-47.5899 151.5,-47.5898"/>
<text text-anchor="middle" x="152.5" y="-61.4" font-family="Times Roman,serif" font-size="14.00">b</text>
</g>
<!-- q4&#45;&gt;q2 -->
<g id="edge18" class="edge"><title>q4&#45;&gt;q2</title>
<path fill="none" stroke="black" d="M135.847,-35.659C125.862,-49.994 111.951,-71.54 103,-92 91.2313,-118.902 82.7681,-151.439 77.6881,-174.309"/>
<polygon fill="black" stroke="black" points="74.2017,-173.875 75.5294,-184.387 81.0464,-175.341 74.2017,-173.875"/>
<text text-anchor="middle" x="107.5" y="-107.4" font-family="Times Roman,serif" font-size="14.00">b</text>
</g>
<!-- q4&#45;&gt;q4 -->
<g id="edge20" class="edge"><title>q4&#45;&gt;q4</title>
<path fill="none" stroke="black" d="M172.074,-27.4544C183.242,-28.3767 193,-25.5586 193,-19 193,-14.5934 188.595,-11.8754 182.317,-10.8458"/>
<polygon fill="black" stroke="black" points="182.173,-7.34018 172.074,-10.5456 181.967,-14.3372 182.173,-7.34018"/>
<text text-anchor="middle" x="197.5" y="-15.4" font-family="Times Roman,serif" font-size="14.00">a</text>
</g>
<!-- q3 -->
<g id="node17" class="node"><title>q3</title>
<ellipse fill="none" stroke="black" cx="210" cy="-203" rx="27" ry="18.3848"/>
<text text-anchor="middle" x="210" y="-199.4" font-family="Times Roman,serif" font-size="14.00">q3</text>
</g>
<!-- q3&#45;&gt;q0 -->
<g id="edge24" class="edge"><title>q3&#45;&gt;q0</title>
<path fill="none" stroke="black" d="M198.628,-186.126C189.248,-172.207 175.796,-152.245 165.115,-136.396"/>
<polygon fill="black" stroke="black" points="168.001,-134.415 159.51,-128.079 162.196,-138.327 168.001,-134.415"/>
<text text-anchor="middle" x="188.5" y="-153.4" font-family="Times Roman,serif" font-size="14.00">a</text>
</g>
<!-- q3&#45;&gt;q4 -->
<g id="edge22" class="edge"><title>q3&#45;&gt;q4</title>
<path fill="none" stroke="black" d="M207.012,-184.56C203.092,-162.23 195.351,-123.674 184,-92 178.267,-76.0038 169.977,-58.9283 162.797,-45.317"/>
<polygon fill="black" stroke="black" points="165.873,-43.6466 158.048,-36.503 159.71,-46.9667 165.873,-43.6466"/>
<text text-anchor="middle" x="199.5" y="-107.4" font-family="Times Roman,serif" font-size="14.00">b</text>
</g>
</g>
</svg>
