<?xml version="1.0" encoding="UTF-8" standalone="no"?>
<!DOCTYPE svg PUBLIC "-//W3C//DTD SVG 1.1//EN"
 "http://www.w3.org/Graphics/SVG/1.1/DTD/svg11.dtd">
<!-- Generated by graphviz version 2.26.3 (20100126.1600)
 -->
<!-- Title: G Pages: 1 -->
<svg width="167pt" height="330pt"
 viewBox="0.00 0.00 167.00 330.00" xmlns="http://www.w3.org/2000/svg" xmlns:xlink="http://www.w3.org/1999/xlink">
<g id="graph1" class="graph" transform="scale(1 1) rotate(0) translate(4 326)">
<title>G</title>
<polygon fill="white" stroke="white" points="-4,5 -4,-326 164,-326 164,5 -4,5"/>
<!-- q2 -->
<g id="node1" class="node"><title>q2</title>
<ellipse fill="none" stroke="black" cx="27" cy="-300" rx="27" ry="18"/>
<text text-anchor="middle" x="27" y="-295.9" font-family="Times Roman,serif" font-size="14.00">q2</text>
</g>
<!-- q0 -->
<g id="node3" class="node"><title>q0</title>
<ellipse fill="none" stroke="black" cx="90" cy="-202" rx="27" ry="18"/>
<ellipse fill="none" stroke="black" cx="90" cy="-202" rx="31" ry="22"/>
<text text-anchor="middle" x="90" y="-197.9" font-family="Times Roman,serif" font-size="14.00">q0</text>
</g>
<!-- q2&#45;&gt;q0 -->
<g id="edge2" class="edge"><title>q2&#45;&gt;q0</title>
<path fill="none" stroke="black" d="M37.6871,-283.376C46.9545,-268.96 60.5722,-247.777 71.5906,-230.637"/>
<polygon fill="black" stroke="black" points="74.6153,-232.404 77.0787,-222.1 68.727,-228.619 74.6153,-232.404"/>
<text text-anchor="middle" x="68.5" y="-246.9" font-family="Times Roman,serif" font-size="14.00">b</text>
</g>
<!-- q1 -->
<g id="node5" class="node"><title>q1</title>
<ellipse fill="none" stroke="black" cx="47" cy="-18" rx="27" ry="18"/>
<text text-anchor="middle" x="47" y="-13.9" font-family="Times Roman,serif" font-size="14.00">q1</text>
</g>
<!-- q2&#45;&gt;q1 -->
<g id="edge4" class="edge"><title>q2&#45;&gt;q1</title>
<path fill="none" stroke="black" d="M28.2815,-281.931C31.6671,-234.194 40.8705,-104.425 44.976,-46.5391"/>
<polygon fill="black" stroke="black" points="48.487,-46.5064 45.7033,-36.2838 41.5045,-46.0111 48.487,-46.5064"/>
<text text-anchor="middle" x="41.5" y="-148.9" font-family="Times Roman,serif" font-size="14.00">a</text>
</g>
<!-- q4 -->
<g id="node8" class="node"><title>q4</title>
<ellipse fill="none" stroke="black" cx="112" cy="-108" rx="27" ry="18"/>
<text text-anchor="middle" x="112" y="-103.9" font-family="Times Roman,serif" font-size="14.00">q4</text>
</g>
<!-- q0&#45;&gt;q4 -->
<g id="edge18" class="edge"><title>q0&#45;&gt;q4</title>
<path fill="none" stroke="black" d="M95.1025,-180.198C98.2077,-166.931 102.203,-149.86 105.529,-135.649"/>
<polygon fill="black" stroke="black" points="108.939,-136.436 107.81,-125.902 102.123,-134.841 108.939,-136.436"/>
<text text-anchor="middle" x="106.5" y="-148.9" font-family="Times Roman,serif" font-size="14.00">b</text>
</g>
<!-- q0&#45;&gt;q4 -->
<g id="edge20" class="edge"><title>q0&#45;&gt;q4</title>
<path fill="none" stroke="black" d="M105.077,-182.701C109.11,-176.445 112.923,-169.242 115,-162 117.366,-153.75 117.66,-144.507 117.06,-136.032"/>
<polygon fill="black" stroke="black" points="120.509,-135.385 115.91,-125.84 113.553,-136.169 120.509,-135.385"/>
<text text-anchor="middle" x="121.5" y="-148.9" font-family="Times Roman,serif" font-size="14.00">a</text>
</g>
<!-- q1&#45;&gt;q0 -->
<g id="edge8" class="edge"><title>q1&#45;&gt;q0</title>
<path fill="none" stroke="black" d="M49.187,-36.0085C52.7959,-63.5439 60.9277,-117.591 74,-162 74.8798,-164.989 75.8969,-168.064 76.9834,-171.119"/>
<polygon fill="black" stroke="black" points="73.7881,-172.564 80.6067,-180.673 80.3333,-170.081 73.7881,-172.564"/>
<text text-anchor="middle" x="68.5" y="-103.9" font-family="Times Roman,serif" font-size="14.00">a</text>
</g>
<!-- q1&#45;&gt;q1 -->
<g id="edge6" class="edge"><title>q1&#45;&gt;q1</title>
<path fill="none" stroke="black" d="M71.5325,-26.1211C82.5078,-26.8945 92,-24.1875 92,-18 92,-13.8428 87.7151,-11.2567 81.5743,-10.2417"/>
<polygon fill="black" stroke="black" points="81.6524,-6.74237 71.5325,-9.87891 81.3995,-13.7378 81.6524,-6.74237"/>
<text text-anchor="middle" x="96.5" y="-13.9" font-family="Times Roman,serif" font-size="14.00">b</text>
</g>
<!-- q4&#45;&gt;q0 -->
<g id="edge10" class="edge"><title>q4&#45;&gt;q0</title>
<path fill="none" stroke="black" d="M95.3489,-122.498C89.6612,-128.509 83.9852,-135.958 81,-144 77.8904,-152.377 77.9669,-161.82 79.4118,-170.616"/>
<polygon fill="black" stroke="black" points="76.033,-171.545 81.6277,-180.542 82.8648,-170.02 76.033,-171.545"/>
<text text-anchor="middle" x="85.5" y="-148.9" font-family="Times Roman,serif" font-size="14.00">b</text>
</g>
<!-- q4&#45;&gt;q1 -->
<g id="edge12" class="edge"><title>q4&#45;&gt;q1</title>
<path fill="none" stroke="black" d="M100.078,-91.4926C90.1824,-77.791 75.963,-58.1027 64.732,-42.552"/>
<polygon fill="black" stroke="black" points="67.5388,-40.4603 58.8464,-34.4027 61.864,-44.5588 67.5388,-40.4603"/>
<text text-anchor="middle" x="89.5" y="-58.9" font-family="Times Roman,serif" font-size="14.00">a</text>
</g>
<!-- q3 -->
<g id="node11" class="node"><title>q3</title>
<ellipse fill="none" stroke="black" cx="128" cy="-300" rx="27" ry="18"/>
<ellipse fill="none" stroke="black" cx="128" cy="-300" rx="31" ry="22"/>
<text text-anchor="middle" x="128" y="-295.9" font-family="Times Roman,serif" font-size="14.00">q3</text>
</g>
<!-- q3&#45;&gt;q0 -->
<g id="edge14" class="edge"><title>q3&#45;&gt;q0</title>
<path fill="none" stroke="black" d="M119.755,-278.735C114.526,-265.251 107.677,-247.589 101.869,-232.609"/>
<polygon fill="black" stroke="black" points="105.108,-231.281 98.2293,-223.223 98.5814,-233.812 105.108,-231.281"/>
<text text-anchor="middle" x="116.5" y="-246.9" font-family="Times Roman,serif" font-size="14.00">b</text>
</g>
<!-- q3&#45;&gt;q4 -->
<g id="edge16" class="edge"><title>q3&#45;&gt;q4</title>
<path fill="none" stroke="black" d="M131.601,-277.931C135.842,-247.372 141.015,-190.659 130,-144 129.229,-140.736 128.115,-137.43 126.813,-134.213"/>
<polygon fill="black" stroke="black" points="129.896,-132.543 122.499,-124.958 123.552,-135.501 129.896,-132.543"/>
<text text-anchor="middle" x="140.5" y="-197.9" font-family="Times Roman,serif" font-size="14.00">a</text>
</g>
</g>
</svg>
