<?xml version="1.0" encoding="UTF-8" standalone="no"?>
<!DOCTYPE svg PUBLIC "-//W3C//DTD SVG 1.1//EN"
 "http://www.w3.org/Graphics/SVG/1.1/DTD/svg11.dtd">
<!-- Generated by graphviz version 2.26.3 (20100126.1600)
 -->
<!-- Title: G Pages: 1 -->
<svg width="162pt" height="330pt"
 viewBox="0.00 0.00 162.00 330.00" xmlns="http://www.w3.org/2000/svg" xmlns:xlink="http://www.w3.org/1999/xlink">
<g id="graph1" class="graph" transform="scale(1 1) rotate(0) translate(4 326)">
<title>G</title>
<polygon fill="white" stroke="white" points="-4,5 -4,-326 159,-326 159,5 -4,5"/>
<!-- q0 -->
<g id="node1" class="node"><title>q0</title>
<ellipse fill="none" stroke="black" cx="123" cy="-299" rx="27" ry="18.3848"/>
<ellipse fill="none" stroke="black" cx="123" cy="-299" rx="31" ry="22.3848"/>
<text text-anchor="middle" x="123" y="-295.4" font-family="Times Roman,serif" font-size="14.00">q0</text>
</g>
<!-- q1 -->
<g id="node3" class="node"><title>q1</title>
<ellipse fill="none" stroke="black" cx="91" cy="-203" rx="27" ry="18.3848"/>
<text text-anchor="middle" x="91" y="-199.4" font-family="Times Roman,serif" font-size="14.00">q1</text>
</g>
<!-- q0&#45;&gt;q1 -->
<g id="edge2" class="edge"><title>q0&#45;&gt;q1</title>
<path fill="none" stroke="black" d="M105.088,-280.461C99.8576,-273.887 94.7986,-266.097 92,-258 89.1388,-249.722 88.1993,-240.316 88.1718,-231.654"/>
<polygon fill="black" stroke="black" points="91.6723,-231.697 88.5227,-221.581 84.6765,-231.453 91.6723,-231.697"/>
<text text-anchor="middle" x="96.5" y="-245.4" font-family="Times Roman,serif" font-size="14.00">b</text>
</g>
<!-- q0&#45;&gt;q1 -->
<g id="edge4" class="edge"><title>q0&#45;&gt;q1</title>
<path fill="none" stroke="black" d="M115.578,-276.734C111.018,-263.053 105.137,-245.412 100.272,-230.816"/>
<polygon fill="black" stroke="black" points="103.577,-229.663 97.0943,-221.283 96.9362,-231.876 103.577,-229.663"/>
<text text-anchor="middle" x="112.5" y="-245.4" font-family="Times Roman,serif" font-size="14.00">a</text>
</g>
<!-- q3 -->
<g id="node6" class="node"><title>q3</title>
<ellipse fill="none" stroke="black" cx="27" cy="-111" rx="27" ry="18.3848"/>
<text text-anchor="middle" x="27" y="-107.4" font-family="Times Roman,serif" font-size="14.00">q3</text>
</g>
<!-- q1&#45;&gt;q3 -->
<g id="edge6" class="edge"><title>q1&#45;&gt;q3</title>
<path fill="none" stroke="black" d="M73.9222,-188.201C67.1846,-181.812 59.7076,-173.98 54,-166 47.8917,-157.46 42.4796,-147.328 38.1351,-138.102"/>
<polygon fill="black" stroke="black" points="41.3006,-136.607 34.0096,-128.92 34.9155,-139.476 41.3006,-136.607"/>
<text text-anchor="middle" x="58.5" y="-153.4" font-family="Times Roman,serif" font-size="14.00">b</text>
</g>
<!-- q1&#45;&gt;q3 -->
<g id="edge8" class="edge"><title>q1&#45;&gt;q3</title>
<path fill="none" stroke="black" d="M83.5647,-185.135C78.5287,-173.98 71.2952,-159.588 63,-148 59.3905,-142.958 55.1025,-137.939 50.7664,-133.298"/>
<polygon fill="black" stroke="black" points="53.0308,-130.608 43.535,-125.909 48.0279,-135.504 53.0308,-130.608"/>
<text text-anchor="middle" x="78.5" y="-153.4" font-family="Times Roman,serif" font-size="14.00">a</text>
</g>
<!-- q3&#45;&gt;q3 -->
<g id="edge14" class="edge"><title>q3&#45;&gt;q3</title>
<path fill="none" stroke="black" d="M51.0743,-119.454C62.2423,-120.377 72,-117.559 72,-111 72,-106.593 67.5952,-103.875 61.3174,-102.846"/>
<polygon fill="black" stroke="black" points="61.1726,-99.3402 51.0743,-102.546 60.9674,-106.337 61.1726,-99.3402"/>
<text text-anchor="middle" x="76.5" y="-107.4" font-family="Times Roman,serif" font-size="14.00">b</text>
</g>
<!-- q2 -->
<g id="node8" class="node"><title>q2</title>
<ellipse fill="none" stroke="black" cx="117" cy="-19" rx="27" ry="18.3848"/>
<text text-anchor="middle" x="117" y="-15.4" font-family="Times Roman,serif" font-size="14.00">q2</text>
</g>
<!-- q3&#45;&gt;q2 -->
<g id="edge16" class="edge"><title>q3&#45;&gt;q2</title>
<path fill="none" stroke="black" d="M42.2673,-95.3935C56.7061,-80.6338 78.5371,-58.3177 94.8811,-41.6104"/>
<polygon fill="black" stroke="black" points="97.4672,-43.972 101.958,-34.3761 92.4633,-39.0769 97.4672,-43.972"/>
<text text-anchor="middle" x="85.5" y="-61.4" font-family="Times Roman,serif" font-size="14.00">a</text>
</g>
<!-- q2&#45;&gt;q0 -->
<g id="edge10" class="edge"><title>q2&#45;&gt;q0</title>
<path fill="none" stroke="black" d="M121.086,-37.3559C122.239,-43.2768 123.355,-49.8887 124,-56 124.116,-57.0939 128.339,-170.417 127,-222 126.625,-236.466 125.853,-252.445 125.087,-266.079"/>
<polygon fill="black" stroke="black" points="121.571,-266.251 124.481,-276.438 128.559,-266.659 121.571,-266.251"/>
<text text-anchor="middle" x="130.5" y="-153.4" font-family="Times Roman,serif" font-size="14.00">b</text>
</g>
<!-- q2&#45;&gt;q1 -->
<g id="edge12" class="edge"><title>q2&#45;&gt;q1</title>
<path fill="none" stroke="black" d="M114.396,-37.4313C109.851,-69.5912 100.444,-136.165 95.0452,-174.372"/>
<polygon fill="black" stroke="black" points="91.5698,-173.953 93.6361,-184.345 98.5009,-174.933 91.5698,-173.953"/>
<text text-anchor="middle" x="110.5" y="-107.4" font-family="Times Roman,serif" font-size="14.00">a</text>
</g>
</g>
</svg>
