<?xml version="1.0" encoding="UTF-8" standalone="no"?>
<!DOCTYPE svg PUBLIC "-//W3C//DTD SVG 1.1//EN"
 "http://www.w3.org/Graphics/SVG/1.1/DTD/svg11.dtd">
<!-- Generated by graphviz version 2.26.3 (20100126.1600)
 -->
<!-- Title: G Pages: 1 -->
<svg width="224pt" height="146pt"
 viewBox="0.00 0.00 224.09 146.00" xmlns="http://www.w3.org/2000/svg" xmlns:xlink="http://www.w3.org/1999/xlink">
<g id="graph1" class="graph" transform="scale(1 1) rotate(0) translate(4 142)">
<title>G</title>
<polygon fill="white" stroke="white" points="-4,5 -4,-142 221.094,-142 221.094,5 -4,5"/>
<!-- q0 -->
<g id="node1" class="node"><title>q0</title>
<ellipse fill="none" stroke="black" cx="66.0944" cy="-119" rx="27" ry="18.3848"/>
<text text-anchor="middle" x="66.0944" y="-115.4" font-family="Times Roman,serif" font-size="14.00">q0</text>
</g>
<!-- q1 -->
<g id="node3" class="node"><title>q1</title>
<ellipse fill="none" stroke="black" cx="34.0944" cy="-23" rx="27" ry="18.3848"/>
<ellipse fill="none" stroke="black" cx="34.0944" cy="-23" rx="31" ry="22.3848"/>
<text text-anchor="middle" x="34.0944" y="-19.4" font-family="Times Roman,serif" font-size="14.00">q1</text>
</g>
<!-- q0&#45;&gt;q1 -->
<g id="edge2" class="edge"><title>q0&#45;&gt;q1</title>
<path fill="none" stroke="black" d="M41.2859,-111.334C27.4042,-105.629 11.2861,-96.3109 3.09445,-82 -3.07406,-71.2236 1.37629,-59.1144 8.62681,-48.6835"/>
<polygon fill="black" stroke="black" points="11.4502,-50.7554 14.8925,-40.7354 5.95296,-46.4218 11.4502,-50.7554"/>
<text text-anchor="middle" x="7.59445" y="-69.4" font-family="Times Roman,serif" font-size="14.00">b</text>
</g>
<!-- q3 -->
<g id="node5" class="node"><title>q3</title>
<ellipse fill="none" stroke="black" cx="130.094" cy="-23" rx="27" ry="18.3848"/>
<text text-anchor="middle" x="130.094" y="-19.4" font-family="Times Roman,serif" font-size="14.00">q3</text>
</g>
<!-- q0&#45;&gt;q3 -->
<g id="edge4" class="edge"><title>q0&#45;&gt;q3</title>
<path fill="none" stroke="black" d="M76.0317,-101.363C82.3523,-90.424 90.8689,-76.1818 99.0944,-64 102.765,-58.5642 106.883,-52.8701 110.889,-47.514"/>
<polygon fill="black" stroke="black" points="113.746,-49.54 117.012,-39.4613 108.173,-45.3031 113.746,-49.54"/>
<text text-anchor="middle" x="103.594" y="-69.4" font-family="Times Roman,serif" font-size="14.00">a</text>
</g>
<!-- q1&#45;&gt;q0 -->
<g id="edge6" class="edge"><title>q1&#45;&gt;q0</title>
<path fill="none" stroke="black" d="M31.0022,-45.5103C30.308,-56.7987 30.7964,-70.4824 35.0944,-82 36.9513,-86.9758 39.7886,-91.7555 43.0072,-96.1314"/>
<polygon fill="black" stroke="black" points="40.4389,-98.5178 49.5088,-103.994 45.8334,-94.0568 40.4389,-98.5178"/>
<text text-anchor="middle" x="39.5944" y="-69.4" font-family="Times Roman,serif" font-size="14.00">b</text>
</g>
<!-- q1&#45;&gt;q0 -->
<g id="edge8" class="edge"><title>q1&#45;&gt;q0</title>
<path fill="none" stroke="black" d="M41.4346,-45.0206C46.023,-58.7856 51.9712,-76.6302 56.876,-91.3448"/>
<polygon fill="black" stroke="black" points="53.5928,-92.5631 60.0755,-100.943 60.2335,-90.3495 53.5928,-92.5631"/>
<text text-anchor="middle" x="57.5944" y="-69.4" font-family="Times Roman,serif" font-size="14.00">a</text>
</g>
<!-- q3&#45;&gt;q0 -->
<g id="edge16" class="edge"><title>q3&#45;&gt;q0</title>
<path fill="none" stroke="black" d="M125.757,-41.3961C122.289,-53.6328 116.585,-69.6625 108.094,-82 103.949,-88.0238 98.6115,-93.7033 93.1411,-98.7203"/>
<polygon fill="black" stroke="black" points="90.4735,-96.3967 85.1546,-105.56 95.0267,-101.714 90.4735,-96.3967"/>
<text text-anchor="middle" x="121.594" y="-69.4" font-family="Times Roman,serif" font-size="14.00">a</text>
</g>
<!-- q3&#45;&gt;q3 -->
<g id="edge14" class="edge"><title>q3&#45;&gt;q3</title>
<path fill="none" stroke="black" d="M153.709,-32.1461C165.068,-33.2753 175.094,-30.2266 175.094,-23 175.094,-18.1447 170.568,-15.1753 164.153,-14.0918"/>
<polygon fill="black" stroke="black" points="163.786,-10.5826 153.709,-13.8539 163.627,-17.5808 163.786,-10.5826"/>
<text text-anchor="middle" x="179.594" y="-19.4" font-family="Times Roman,serif" font-size="14.00">b</text>
</g>
<!-- q2 -->
<g id="node8" class="node"><title>q2</title>
<ellipse fill="none" stroke="black" cx="162.094" cy="-119" rx="27" ry="18.3848"/>
<text text-anchor="middle" x="162.094" y="-115.4" font-family="Times Roman,serif" font-size="14.00">q2</text>
</g>
<!-- q2&#45;&gt;q3 -->
<g id="edge12" class="edge"><title>q2&#45;&gt;q3</title>
<path fill="none" stroke="black" d="M156.075,-100.943C151.368,-86.8198 144.74,-66.9379 139.358,-50.7896"/>
<polygon fill="black" stroke="black" points="142.678,-49.6823 136.195,-41.3023 136.037,-51.896 142.678,-49.6823"/>
<text text-anchor="middle" x="152.594" y="-69.4" font-family="Times Roman,serif" font-size="14.00">a</text>
</g>
<!-- q2&#45;&gt;q2 -->
<g id="edge10" class="edge"><title>q2&#45;&gt;q2</title>
<path fill="none" stroke="black" d="M186.169,-127.454C197.337,-128.377 207.094,-125.559 207.094,-119 207.094,-114.593 202.69,-111.875 196.412,-110.846"/>
<polygon fill="black" stroke="black" points="196.267,-107.34 186.169,-110.546 196.062,-114.337 196.267,-107.34"/>
<text text-anchor="middle" x="211.594" y="-115.4" font-family="Times Roman,serif" font-size="14.00">b</text>
</g>
</g>
</svg>
