<?xml version="1.0" encoding="UTF-8" standalone="no"?>
<!DOCTYPE svg PUBLIC "-//W3C//DTD SVG 1.1//EN"
 "http://www.w3.org/Graphics/SVG/1.1/DTD/svg11.dtd">
<!-- Generated by graphviz version 2.26.3 (20100126.1600)
 -->
<!-- Title: G Pages: 1 -->
<svg width="317pt" height="514pt"
 viewBox="0.00 0.00 317.00 514.00" xmlns="http://www.w3.org/2000/svg" xmlns:xlink="http://www.w3.org/1999/xlink">
<g id="graph1" class="graph" transform="scale(1 1) rotate(0) translate(4 510)">
<title>G</title>
<polygon fill="white" stroke="white" points="-4,5 -4,-510 314,-510 314,5 -4,5"/>
<!-- q0 -->
<g id="node1" class="node"><title>q0</title>
<ellipse fill="none" stroke="black" cx="233" cy="-487" rx="27" ry="18.3848"/>
<text text-anchor="middle" x="233" y="-483.4" font-family="Times Roman,serif" font-size="14.00">q0</text>
</g>
<!-- q0&#45;&gt;q0 -->
<g id="edge2" class="edge"><title>q0&#45;&gt;q0</title>
<path fill="none" stroke="black" d="M257.074,-495.454C268.242,-496.377 278,-493.559 278,-487 278,-482.593 273.595,-479.875 267.317,-478.846"/>
<polygon fill="black" stroke="black" points="267.173,-475.34 257.074,-478.546 266.967,-482.337 267.173,-475.34"/>
<text text-anchor="middle" x="282.5" y="-483.4" font-family="Times Roman,serif" font-size="14.00">b</text>
</g>
<!-- q7 -->
<g id="node4" class="node"><title>q7</title>
<ellipse fill="none" stroke="black" cx="233" cy="-395" rx="27" ry="18.3848"/>
<text text-anchor="middle" x="233" y="-391.4" font-family="Times Roman,serif" font-size="14.00">q7</text>
</g>
<!-- q0&#45;&gt;q7 -->
<g id="edge4" class="edge"><title>q0&#45;&gt;q7</title>
<path fill="none" stroke="black" d="M233,-468.382C233,-455.538 233,-438.216 233,-423.627"/>
<polygon fill="black" stroke="black" points="236.5,-423.59 233,-413.59 229.5,-423.59 236.5,-423.59"/>
<text text-anchor="middle" x="237.5" y="-437.4" font-family="Times Roman,serif" font-size="14.00">a</text>
</g>
<!-- q6 -->
<g id="node7" class="node"><title>q6</title>
<ellipse fill="none" stroke="black" cx="190" cy="-303" rx="27" ry="18.3848"/>
<text text-anchor="middle" x="190" y="-299.4" font-family="Times Roman,serif" font-size="14.00">q6</text>
</g>
<!-- q7&#45;&gt;q6 -->
<g id="edge28" class="edge"><title>q7&#45;&gt;q6</title>
<path fill="none" stroke="black" d="M224.709,-377.261C218.463,-363.898 209.788,-345.338 202.674,-330.117"/>
<polygon fill="black" stroke="black" points="205.67,-328.261 198.265,-320.684 199.329,-331.225 205.67,-328.261"/>
<text text-anchor="middle" x="219.5" y="-345.4" font-family="Times Roman,serif" font-size="14.00">a</text>
</g>
<!-- q8 -->
<g id="node11" class="node"><title>q8</title>
<ellipse fill="none" stroke="black" cx="200" cy="-119" rx="27" ry="18.3848"/>
<text text-anchor="middle" x="200" y="-115.4" font-family="Times Roman,serif" font-size="14.00">q8</text>
</g>
<!-- q7&#45;&gt;q8 -->
<g id="edge26" class="edge"><title>q7&#45;&gt;q8</title>
<path fill="none" stroke="black" d="M252.036,-381.288C259.074,-375.066 266.245,-367.064 270,-358 304.356,-275.056 316.333,-232.898 270,-156 262.293,-143.21 248.522,-134.612 235.222,-128.951"/>
<polygon fill="black" stroke="black" points="236.304,-125.618 225.713,-125.331 233.813,-132.16 236.304,-125.618"/>
<text text-anchor="middle" x="304.5" y="-253.4" font-family="Times Roman,serif" font-size="14.00">b</text>
</g>
<!-- q2 -->
<g id="node5" class="node"><title>q2</title>
<ellipse fill="none" stroke="black" cx="47" cy="-23" rx="27" ry="18.3848"/>
<ellipse fill="none" stroke="black" cx="47" cy="-23" rx="31" ry="22.3848"/>
<text text-anchor="middle" x="47" y="-19.4" font-family="Times Roman,serif" font-size="14.00">q2</text>
</g>
<!-- q2&#45;&gt;q7 -->
<g id="edge8" class="edge"><title>q2&#45;&gt;q7</title>
<path fill="none" stroke="black" d="M30.8253,-42.6064C17.2298,-61.1112 0,-90.2368 0,-119 0,-303 0,-303 0,-303 0,-344.798 131.359,-375.695 196.815,-388.497"/>
<polygon fill="black" stroke="black" points="196.245,-391.951 206.725,-390.395 197.562,-385.076 196.245,-391.951"/>
<text text-anchor="middle" x="4.5" y="-207.4" font-family="Times Roman,serif" font-size="14.00">a</text>
</g>
<!-- q2&#45;&gt;q6 -->
<g id="edge6" class="edge"><title>q2&#45;&gt;q6</title>
<path fill="none" stroke="black" d="M42.8645,-45.3164C36.6392,-85.6645 29.1836,-171.94 66,-230 86.2842,-261.988 126.039,-281.693 155.085,-292.443"/>
<polygon fill="black" stroke="black" points="154.268,-295.865 164.863,-295.877 156.588,-289.261 154.268,-295.865"/>
<text text-anchor="middle" x="47.5" y="-161.4" font-family="Times Roman,serif" font-size="14.00">b</text>
</g>
<!-- q5 -->
<g id="node16" class="node"><title>q5</title>
<ellipse fill="none" stroke="black" cx="201" cy="-211" rx="27" ry="18.3848"/>
<text text-anchor="middle" x="201" y="-207.4" font-family="Times Roman,serif" font-size="14.00">q5</text>
</g>
<!-- q6&#45;&gt;q5 -->
<g id="edge22" class="edge"><title>q6&#45;&gt;q5</title>
<path fill="none" stroke="black" d="M183.364,-285.007C180.284,-274.187 177.915,-260.194 181,-248 181.932,-244.314 183.313,-240.598 184.92,-237.015"/>
<polygon fill="black" stroke="black" points="188.115,-238.454 189.554,-227.957 181.884,-235.265 188.115,-238.454"/>
<text text-anchor="middle" x="185.5" y="-253.4" font-family="Times Roman,serif" font-size="14.00">b</text>
</g>
<!-- q6&#45;&gt;q5 -->
<g id="edge24" class="edge"><title>q6&#45;&gt;q5</title>
<path fill="none" stroke="black" d="M192.226,-284.382C193.762,-271.538 195.833,-254.216 197.577,-239.627"/>
<polygon fill="black" stroke="black" points="201.065,-239.935 198.777,-229.59 194.115,-239.104 201.065,-239.935"/>
<text text-anchor="middle" x="200.5" y="-253.4" font-family="Times Roman,serif" font-size="14.00">a</text>
</g>
<!-- q3 -->
<g id="node9" class="node"><title>q3</title>
<ellipse fill="none" stroke="black" cx="102" cy="-211" rx="27" ry="18.3848"/>
<text text-anchor="middle" x="102" y="-207.4" font-family="Times Roman,serif" font-size="14.00">q3</text>
</g>
<!-- q3&#45;&gt;q3 -->
<g id="edge12" class="edge"><title>q3&#45;&gt;q3</title>
<path fill="none" stroke="black" d="M126.074,-219.454C137.242,-220.377 147,-217.559 147,-211 147,-206.593 142.595,-203.875 136.317,-202.846"/>
<polygon fill="black" stroke="black" points="136.173,-199.34 126.074,-202.546 135.967,-206.337 136.173,-199.34"/>
<text text-anchor="middle" x="151.5" y="-207.4" font-family="Times Roman,serif" font-size="14.00">a</text>
</g>
<!-- q3&#45;&gt;q8 -->
<g id="edge10" class="edge"><title>q3&#45;&gt;q8</title>
<path fill="none" stroke="black" d="M118.183,-195.808C133.929,-181.026 158.043,-158.388 176.018,-141.513"/>
<polygon fill="black" stroke="black" points="178.898,-143.611 183.793,-134.214 174.107,-138.507 178.898,-143.611"/>
<text text-anchor="middle" x="163.5" y="-161.4" font-family="Times Roman,serif" font-size="14.00">b</text>
</g>
<!-- q8&#45;&gt;q7 -->
<g id="edge34" class="edge"><title>q8&#45;&gt;q7</title>
<path fill="none" stroke="black" d="M211.409,-135.807C220.353,-150.058 232.08,-171.409 237,-192 251.521,-252.769 244.016,-326.704 238.025,-366.441"/>
<polygon fill="black" stroke="black" points="234.544,-366.047 236.433,-376.472 241.457,-367.144 234.544,-366.047"/>
<text text-anchor="middle" x="249.5" y="-253.4" font-family="Times Roman,serif" font-size="14.00">b</text>
</g>
<!-- q8&#45;&gt;q2 -->
<g id="edge30" class="edge"><title>q8&#45;&gt;q2</title>
<path fill="none" stroke="black" d="M179.998,-106.45C154.342,-90.3519 109.531,-62.2354 79.0834,-43.1308"/>
<polygon fill="black" stroke="black" points="80.8496,-40.1071 70.5187,-37.7568 77.1291,-46.0365 80.8496,-40.1071"/>
<text text-anchor="middle" x="141.5" y="-69.4" font-family="Times Roman,serif" font-size="14.00">b</text>
</g>
<!-- q8&#45;&gt;q8 -->
<g id="edge32" class="edge"><title>q8&#45;&gt;q8</title>
<path fill="none" stroke="black" d="M226.347,-123.296C236.533,-123.487 245,-122.055 245,-119 245,-117.043 241.525,-115.752 236.35,-115.127"/>
<polygon fill="black" stroke="black" points="236.486,-111.63 226.347,-114.704 236.19,-118.624 236.486,-111.63"/>
<text text-anchor="middle" x="249.5" y="-115.4" font-family="Times Roman,serif" font-size="14.00">a</text>
</g>
<!-- q8&#45;&gt;q8 -->
<g id="edge36" class="edge"><title>q8&#45;&gt;q8</title>
<path fill="none" stroke="black" d="M218.703,-132.359C239.375,-141.266 263,-136.812 263,-119 263,-103.971 246.181,-98.4521 228.508,-102.444"/>
<polygon fill="black" stroke="black" points="227.126,-99.2135 218.703,-105.641 229.296,-105.869 227.126,-99.2135"/>
<text text-anchor="middle" x="267.5" y="-115.4" font-family="Times Roman,serif" font-size="14.00">a</text>
</g>
<!-- q4 -->
<g id="node13" class="node"><title>q4</title>
<ellipse fill="none" stroke="black" cx="55" cy="-303" rx="27" ry="18.3848"/>
<text text-anchor="middle" x="55" y="-299.4" font-family="Times Roman,serif" font-size="14.00">q4</text>
</g>
<!-- q4&#45;&gt;q4 -->
<g id="edge14" class="edge"><title>q4&#45;&gt;q4</title>
<path fill="none" stroke="black" d="M79.0743,-311.454C90.2423,-312.377 100,-309.559 100,-303 100,-298.593 95.5952,-295.875 89.3174,-294.846"/>
<polygon fill="black" stroke="black" points="89.1726,-291.34 79.0743,-294.546 88.9674,-298.337 89.1726,-291.34"/>
<text text-anchor="middle" x="104.5" y="-299.4" font-family="Times Roman,serif" font-size="14.00">b</text>
</g>
<!-- q4&#45;&gt;q5 -->
<g id="edge16" class="edge"><title>q4&#45;&gt;q5</title>
<path fill="none" stroke="black" d="M74.9945,-290.401C100.082,-274.592 143.291,-247.365 172.006,-229.27"/>
<polygon fill="black" stroke="black" points="174.184,-232.035 180.778,-223.742 170.452,-226.112 174.184,-232.035"/>
<text text-anchor="middle" x="145.5" y="-253.4" font-family="Times Roman,serif" font-size="14.00">a</text>
</g>
<!-- q5&#45;&gt;q8 -->
<g id="edge18" class="edge"><title>q5&#45;&gt;q8</title>
<path fill="none" stroke="black" d="M191.658,-193.417C188.952,-187.427 186.362,-180.579 185,-174 183.105,-164.846 184.651,-154.959 187.356,-146.127"/>
<polygon fill="black" stroke="black" points="190.656,-147.293 190.781,-136.699 184.077,-144.903 190.656,-147.293"/>
<text text-anchor="middle" x="189.5" y="-161.4" font-family="Times Roman,serif" font-size="14.00">b</text>
</g>
<!-- q5&#45;&gt;q8 -->
<g id="edge20" class="edge"><title>q5&#45;&gt;q8</title>
<path fill="none" stroke="black" d="M200.798,-192.382C200.658,-179.538 200.47,-162.216 200.311,-147.627"/>
<polygon fill="black" stroke="black" points="203.811,-147.551 200.202,-137.59 196.811,-147.627 203.811,-147.551"/>
<text text-anchor="middle" x="204.5" y="-161.4" font-family="Times Roman,serif" font-size="14.00">a</text>
</g>
</g>
</svg>
