<?xml version="1.0" encoding="UTF-8" standalone="no"?>
<!DOCTYPE svg PUBLIC "-//W3C//DTD SVG 1.1//EN"
 "http://www.w3.org/Graphics/SVG/1.1/DTD/svg11.dtd">
<!-- Generated by graphviz version 2.26.3 (20100126.1600)
 -->
<!-- Title: G Pages: 1 -->
<svg width="226pt" height="502pt"
 viewBox="0.00 0.00 225.97 502.00" xmlns="http://www.w3.org/2000/svg" xmlns:xlink="http://www.w3.org/1999/xlink">
<g id="graph1" class="graph" transform="scale(1 1) rotate(0) translate(4 498)">
<title>G</title>
<polygon fill="white" stroke="white" points="-4,5 -4,-498 222.969,-498 222.969,5 -4,5"/>
<!-- q6 -->
<g id="node1" class="node"><title>q6</title>
<ellipse fill="none" stroke="black" cx="163.969" cy="-476" rx="27" ry="18"/>
<text text-anchor="middle" x="163.969" y="-471.9" font-family="Times Roman,serif" font-size="14.00">q6</text>
</g>
<!-- q6&#45;&gt;q6 -->
<g id="edge2" class="edge"><title>q6&#45;&gt;q6</title>
<path fill="none" stroke="black" d="M188.502,-484.121C199.477,-484.895 208.969,-482.188 208.969,-476 208.969,-471.843 204.684,-469.257 198.543,-468.242"/>
<polygon fill="black" stroke="black" points="198.621,-464.742 188.502,-467.879 198.369,-471.738 198.621,-464.742"/>
<text text-anchor="middle" x="213.469" y="-471.9" font-family="Times Roman,serif" font-size="14.00">b</text>
</g>
<!-- q4 -->
<g id="node4" class="node"><title>q4</title>
<ellipse fill="none" stroke="black" cx="91.9691" cy="-386" rx="27" ry="18"/>
<text text-anchor="middle" x="91.9691" y="-381.9" font-family="Times Roman,serif" font-size="14.00">q4</text>
</g>
<!-- q6&#45;&gt;q4 -->
<g id="edge4" class="edge"><title>q6&#45;&gt;q4</title>
<path fill="none" stroke="black" d="M151.097,-459.91C140.039,-446.088 123.933,-425.955 111.322,-410.191"/>
<polygon fill="black" stroke="black" points="113.71,-407.573 104.73,-401.951 108.244,-411.946 113.71,-407.573"/>
<text text-anchor="middle" x="138.469" y="-426.9" font-family="Times Roman,serif" font-size="14.00">a</text>
</g>
<!-- q3 -->
<g id="node9" class="node"><title>q3</title>
<ellipse fill="none" stroke="black" cx="91.9691" cy="-296" rx="27" ry="18"/>
<text text-anchor="middle" x="91.9691" y="-291.9" font-family="Times Roman,serif" font-size="14.00">q3</text>
</g>
<!-- q4&#45;&gt;q3 -->
<g id="edge20" class="edge"><title>q4&#45;&gt;q3</title>
<path fill="none" stroke="black" d="M91.9691,-367.787C91.9691,-355.344 91.9691,-338.605 91.9691,-324.421"/>
<polygon fill="black" stroke="black" points="95.4692,-324.186 91.9691,-314.186 88.4692,-324.186 95.4692,-324.186"/>
<text text-anchor="middle" x="96.4691" y="-336.9" font-family="Times Roman,serif" font-size="14.00">a</text>
</g>
<!-- q2 -->
<g id="node10" class="node"><title>q2</title>
<ellipse fill="none" stroke="black" cx="50.9691" cy="-206" rx="27" ry="18"/>
<text text-anchor="middle" x="50.9691" y="-201.9" font-family="Times Roman,serif" font-size="14.00">q2</text>
</g>
<!-- q4&#45;&gt;q2 -->
<g id="edge18" class="edge"><title>q4&#45;&gt;q2</title>
<path fill="none" stroke="black" d="M78.348,-370.122C67.4665,-356.32 53.0647,-335.254 46.9691,-314 39.4122,-287.651 41.7831,-256.203 45.2118,-234.057"/>
<polygon fill="black" stroke="black" points="48.6965,-234.444 46.941,-223.995 41.7976,-233.258 48.6965,-234.444"/>
<text text-anchor="middle" x="51.4691" y="-291.9" font-family="Times Roman,serif" font-size="14.00">b</text>
</g>
<!-- q5 -->
<g id="node5" class="node"><title>q5</title>
<ellipse fill="none" stroke="black" cx="27.9691" cy="-116" rx="27" ry="18"/>
<text text-anchor="middle" x="27.9691" y="-111.9" font-family="Times Roman,serif" font-size="14.00">q5</text>
</g>
<!-- q1 -->
<g id="node7" class="node"><title>q1</title>
<ellipse fill="none" stroke="black" cx="59.9691" cy="-22" rx="27" ry="18"/>
<ellipse fill="none" stroke="black" cx="59.9691" cy="-22" rx="31" ry="22"/>
<text text-anchor="middle" x="59.9691" y="-17.9" font-family="Times Roman,serif" font-size="14.00">q1</text>
</g>
<!-- q5&#45;&gt;q1 -->
<g id="edge6" class="edge"><title>q5&#45;&gt;q1</title>
<path fill="none" stroke="black" d="M33.988,-98.3193C38.2834,-85.7017 44.1766,-68.3903 49.2646,-53.4444"/>
<polygon fill="black" stroke="black" points="52.7195,-54.1563 52.6289,-43.5618 46.0929,-51.9004 52.7195,-54.1563"/>
<text text-anchor="middle" x="49.4691" y="-66.9" font-family="Times Roman,serif" font-size="14.00">b</text>
</g>
<!-- q5&#45;&gt;q3 -->
<g id="edge8" class="edge"><title>q5&#45;&gt;q3</title>
<path fill="none" stroke="black" d="M18.3072,-132.858C7.10751,-154.78 -8.11876,-193.832 5.96907,-224 12.2886,-237.533 41.9148,-260.7 64.6465,-277.097"/>
<polygon fill="black" stroke="black" points="62.782,-280.066 72.9581,-283.015 66.8423,-274.364 62.782,-280.066"/>
<text text-anchor="middle" x="10.4691" y="-201.9" font-family="Times Roman,serif" font-size="14.00">a</text>
</g>
<!-- q1&#45;&gt;q6 -->
<g id="edge14" class="edge"><title>q1&#45;&gt;q6</title>
<path fill="none" stroke="black" d="M89.8148,-28.5424C129.849,-39.279 195.969,-64.7668 195.969,-116 195.969,-386 195.969,-386 195.969,-386 195.969,-408.527 186.959,-432.489 178.5,-450.019"/>
<polygon fill="black" stroke="black" points="175.323,-448.546 173.919,-459.047 181.565,-451.714 175.323,-448.546"/>
<text text-anchor="middle" x="200.469" y="-246.9" font-family="Times Roman,serif" font-size="14.00">b</text>
</g>
<!-- q1&#45;&gt;q5 -->
<g id="edge16" class="edge"><title>q1&#45;&gt;q5</title>
<path fill="none" stroke="black" d="M42.0637,-40.0219C36.8336,-46.4317 31.7732,-54.0454 28.9691,-62 26.1196,-70.0833 25.1775,-79.2786 25.1439,-87.7613"/>
<polygon fill="black" stroke="black" points="21.6545,-88.12 25.5122,-97.9876 28.6499,-87.8681 21.6545,-88.12"/>
<text text-anchor="middle" x="33.4691" y="-66.9" font-family="Times Roman,serif" font-size="14.00">a</text>
</g>
<!-- q3&#45;&gt;q2 -->
<g id="edge22" class="edge"><title>q3&#45;&gt;q2</title>
<path fill="none" stroke="black" d="M84.0639,-278.647C78.1082,-265.574 69.8371,-247.418 63.0536,-232.527"/>
<polygon fill="black" stroke="black" points="66.1808,-230.949 58.85,-223.3 59.8106,-233.851 66.1808,-230.949"/>
<text text-anchor="middle" x="79.4691" y="-246.9" font-family="Times Roman,serif" font-size="14.00">b</text>
</g>
<!-- q0 -->
<g id="node12" class="node"><title>q0</title>
<ellipse fill="none" stroke="black" cx="107.969" cy="-116" rx="27" ry="18"/>
<text text-anchor="middle" x="107.969" y="-111.9" font-family="Times Roman,serif" font-size="14.00">q0</text>
</g>
<!-- q3&#45;&gt;q0 -->
<g id="edge24" class="edge"><title>q3&#45;&gt;q0</title>
<path fill="none" stroke="black" d="M110.393,-282.617C117.225,-276.557 124.218,-268.778 127.969,-260 146.833,-215.853 142.972,-198.214 129.969,-152 128.936,-148.329 127.414,-144.662 125.643,-141.15"/>
<polygon fill="black" stroke="black" points="128.574,-139.227 120.544,-132.316 122.512,-142.726 128.574,-139.227"/>
<text text-anchor="middle" x="144.469" y="-201.9" font-family="Times Roman,serif" font-size="14.00">a</text>
</g>
<!-- q2&#45;&gt;q5 -->
<g id="edge12" class="edge"><title>q2&#45;&gt;q5</title>
<path fill="none" stroke="black" d="M38.4675,-189.663C34.6718,-183.782 30.9772,-176.892 28.9691,-170 26.6083,-161.898 25.7838,-152.819 25.7073,-144.45"/>
<polygon fill="black" stroke="black" points="29.2084,-144.439 25.9509,-134.358 22.2105,-144.27 29.2084,-144.439"/>
<text text-anchor="middle" x="33.4691" y="-156.9" font-family="Times Roman,serif" font-size="14.00">a</text>
</g>
<!-- q2&#45;&gt;q0 -->
<g id="edge10" class="edge"><title>q2&#45;&gt;q0</title>
<path fill="none" stroke="black" d="M51.1036,-187.817C51.9363,-176.75 54.3894,-162.728 60.9691,-152 65.3519,-144.854 71.7128,-138.607 78.3465,-133.412"/>
<polygon fill="black" stroke="black" points="80.6584,-136.062 86.7667,-127.405 76.5932,-130.363 80.6584,-136.062"/>
<text text-anchor="middle" x="65.4691" y="-156.9" font-family="Times Roman,serif" font-size="14.00">b</text>
</g>
<!-- q0&#45;&gt;q3 -->
<g id="edge28" class="edge"><title>q0&#45;&gt;q3</title>
<path fill="none" stroke="black" d="M106.366,-134.031C103.582,-165.357 97.8303,-230.061 94.5012,-267.514"/>
<polygon fill="black" stroke="black" points="90.9905,-267.479 93.5913,-277.75 97.963,-268.099 90.9905,-267.479"/>
<text text-anchor="middle" x="105.469" y="-201.9" font-family="Times Roman,serif" font-size="14.00">a</text>
</g>
<!-- q0&#45;&gt;q2 -->
<g id="edge26" class="edge"><title>q0&#45;&gt;q2</title>
<path fill="none" stroke="black" d="M97.2959,-132.852C88.7904,-146.282 76.7453,-165.301 67.0691,-180.579"/>
<polygon fill="black" stroke="black" points="64.084,-178.751 61.6903,-189.072 69.9978,-182.496 64.084,-178.751"/>
<text text-anchor="middle" x="88.4691" y="-156.9" font-family="Times Roman,serif" font-size="14.00">b</text>
</g>
</g>
</svg>
