<?xml version="1.0" encoding="UTF-8" standalone="no"?>
<!DOCTYPE svg PUBLIC "-//W3C//DTD SVG 1.1//EN"
 "http://www.w3.org/Graphics/SVG/1.1/DTD/svg11.dtd">
<!-- Generated by graphviz version 2.26.3 (20100126.1600)
 -->
<!-- Title: G Pages: 1 -->
<svg width="222pt" height="706pt"
 viewBox="0.00 0.00 222.00 706.00" xmlns="http://www.w3.org/2000/svg" xmlns:xlink="http://www.w3.org/1999/xlink">
<g id="graph1" class="graph" transform="scale(1 1) rotate(0) translate(4 702)">
<title>G</title>
<polygon fill="white" stroke="white" points="-4,5 -4,-702 219,-702 219,5 -4,5"/>
<!-- q0 -->
<g id="node1" class="node"><title>q0</title>
<ellipse fill="none" stroke="black" cx="71" cy="-675" rx="27" ry="18.3848"/>
<text text-anchor="middle" x="71" y="-671.4" font-family="Times Roman,serif" font-size="14.00">q0</text>
</g>
<!-- q10 -->
<g id="node3" class="node"><title>q10</title>
<ellipse fill="none" stroke="black" cx="103" cy="-579" rx="29.9071" ry="18.3848"/>
<text text-anchor="middle" x="103" y="-575.4" font-family="Times Roman,serif" font-size="14.00">q10</text>
</g>
<!-- q0&#45;&gt;q10 -->
<g id="edge2" class="edge"><title>q0&#45;&gt;q10</title>
<path fill="none" stroke="black" d="M68.1948,-656.336C67.1515,-644.424 67.2005,-628.861 72,-616 73.8211,-611.12 76.5854,-606.428 79.7275,-602.122"/>
<polygon fill="black" stroke="black" points="82.4532,-604.317 86.0867,-594.365 77.0399,-599.879 82.4532,-604.317"/>
<text text-anchor="middle" x="76.5" y="-621.4" font-family="Times Roman,serif" font-size="14.00">b</text>
</g>
<!-- q0&#45;&gt;q10 -->
<g id="edge4" class="edge"><title>q0&#45;&gt;q10</title>
<path fill="none" stroke="black" d="M77.019,-656.943C81.7267,-642.82 88.354,-622.938 93.7368,-606.79"/>
<polygon fill="black" stroke="black" points="97.0573,-607.896 96.8992,-597.302 90.4165,-605.682 97.0573,-607.896"/>
<text text-anchor="middle" x="94.5" y="-621.4" font-family="Times Roman,serif" font-size="14.00">a</text>
</g>
<!-- q10&#45;&gt;q0 -->
<g id="edge44" class="edge"><title>q10&#45;&gt;q0</title>
<path fill="none" stroke="black" d="M79.9382,-591.019C70.7104,-597.147 61.0794,-605.537 56,-616 51.1031,-626.087 52.8413,-637.947 56.5561,-648.377"/>
<polygon fill="black" stroke="black" points="53.4418,-649.998 60.5713,-657.835 59.8852,-647.263 53.4418,-649.998"/>
<text text-anchor="middle" x="60.5" y="-621.4" font-family="Times Roman,serif" font-size="14.00">a</text>
</g>
<!-- q10&#45;&gt;q10 -->
<g id="edge36" class="edge"><title>q10&#45;&gt;q10</title>
<path fill="none" stroke="black" d="M133,-581.875C143,-581.875 151,-580.917 151,-579 151,-577.802 147.875,-576.979 143.09,-576.529"/>
<polygon fill="black" stroke="black" points="143.132,-573.028 133,-576.125 142.852,-580.023 143.132,-573.028"/>
<text text-anchor="middle" x="155.5" y="-575.4" font-family="Times Roman,serif" font-size="14.00">a</text>
</g>
<!-- q10&#45;&gt;q10 -->
<g id="edge40" class="edge"><title>q10&#45;&gt;q10</title>
<path fill="none" stroke="black" d="M124.632,-592.013C145.773,-599.201 169,-594.863 169,-579 169,-565.615 152.464,-560.436 134.598,-563.462"/>
<polygon fill="black" stroke="black" points="133.466,-560.138 124.632,-565.987 135.186,-566.924 133.466,-560.138"/>
<text text-anchor="middle" x="173.5" y="-575.4" font-family="Times Roman,serif" font-size="14.00">a</text>
</g>
<!-- q10&#45;&gt;q10 -->
<g id="edge42" class="edge"><title>q10&#45;&gt;q10</title>
<path fill="none" stroke="black" d="M124.515,-592.159C152.82,-603.438 187,-599.052 187,-579 187,-561.219 160.126,-555.756 134.302,-562.611"/>
<polygon fill="black" stroke="black" points="132.915,-559.383 124.515,-565.841 135.108,-566.03 132.915,-559.383"/>
<text text-anchor="middle" x="191.5" y="-575.4" font-family="Times Roman,serif" font-size="14.00">b</text>
</g>
<!-- q3 -->
<g id="node10" class="node"><title>q3</title>
<ellipse fill="none" stroke="black" cx="71" cy="-487" rx="27" ry="18.3848"/>
<text text-anchor="middle" x="71" y="-483.4" font-family="Times Roman,serif" font-size="14.00">q3</text>
</g>
<!-- q10&#45;&gt;q3 -->
<g id="edge34" class="edge"><title>q10&#45;&gt;q3</title>
<path fill="none" stroke="black" d="M79.9382,-566.981C70.7104,-560.853 61.0794,-552.463 56,-542 51.6692,-533.079 53.0263,-522.716 56.2822,-513.406"/>
<polygon fill="black" stroke="black" points="59.5087,-514.763 60.2038,-504.19 53.0677,-512.022 59.5087,-514.763"/>
<text text-anchor="middle" x="60.5" y="-529.4" font-family="Times Roman,serif" font-size="14.00">b</text>
</g>
<!-- q10&#45;&gt;q3 -->
<g id="edge38" class="edge"><title>q10&#45;&gt;q3</title>
<path fill="none" stroke="black" d="M95.3647,-561.052C92.9026,-555.038 90.2345,-548.268 88,-542 84.9123,-533.339 81.8483,-523.8 79.1898,-515.132"/>
<polygon fill="black" stroke="black" points="82.5128,-514.029 76.278,-505.463 75.81,-516.047 82.5128,-514.029"/>
<text text-anchor="middle" x="92.5" y="-529.4" font-family="Times Roman,serif" font-size="14.00">b</text>
</g>
<!-- q2 -->
<g id="node5" class="node"><title>q2</title>
<ellipse fill="none" stroke="black" cx="71" cy="-395" rx="27" ry="18.3848"/>
<text text-anchor="middle" x="71" y="-391.4" font-family="Times Roman,serif" font-size="14.00">q2</text>
</g>
<!-- q4 -->
<g id="node7" class="node"><title>q4</title>
<ellipse fill="none" stroke="black" cx="97" cy="-299" rx="27" ry="18.3848"/>
<ellipse fill="none" stroke="black" cx="97" cy="-299" rx="31" ry="22.3848"/>
<text text-anchor="middle" x="97" y="-295.4" font-family="Times Roman,serif" font-size="14.00">q4</text>
</g>
<!-- q2&#45;&gt;q4 -->
<g id="edge6" class="edge"><title>q2&#45;&gt;q4</title>
<path fill="none" stroke="black" d="M76.0131,-376.49C79.49,-363.652 84.2116,-346.219 88.2958,-331.139"/>
<polygon fill="black" stroke="black" points="91.7624,-331.727 90.9983,-321.16 85.0058,-329.897 91.7624,-331.727"/>
<text text-anchor="middle" x="90.5" y="-345.4" font-family="Times Roman,serif" font-size="14.00">b</text>
</g>
<!-- q9 -->
<g id="node9" class="node"><title>q9</title>
<ellipse fill="none" stroke="black" cx="32" cy="-111" rx="27" ry="18.3848"/>
<text text-anchor="middle" x="32" y="-107.4" font-family="Times Roman,serif" font-size="14.00">q9</text>
</g>
<!-- q2&#45;&gt;q9 -->
<g id="edge8" class="edge"><title>q2&#45;&gt;q9</title>
<path fill="none" stroke="black" d="M67.0646,-376.461C64.0325,-361.744 59.8846,-340.619 57,-322 46.9423,-257.082 38.7797,-180.376 34.7427,-139.698"/>
<polygon fill="black" stroke="black" points="38.2206,-139.3 33.7609,-129.69 31.2541,-139.984 38.2206,-139.3"/>
<text text-anchor="middle" x="52.5" y="-245.4" font-family="Times Roman,serif" font-size="14.00">a</text>
</g>
<!-- q4&#45;&gt;q2 -->
<g id="edge16" class="edge"><title>q4&#45;&gt;q2</title>
<path fill="none" stroke="black" d="M82.0014,-318.852C77.9717,-325.268 74.1408,-332.635 72,-340 69.601,-348.254 68.7652,-357.502 68.6899,-366.025"/>
<polygon fill="black" stroke="black" points="65.1978,-366.392 68.941,-376.304 72.1957,-366.221 65.1978,-366.392"/>
<text text-anchor="middle" x="76.5" y="-345.4" font-family="Times Roman,serif" font-size="14.00">a</text>
</g>
<!-- q8 -->
<g id="node14" class="node"><title>q8</title>
<ellipse fill="none" stroke="black" cx="96" cy="-203" rx="27" ry="18.3848"/>
<text text-anchor="middle" x="96" y="-199.4" font-family="Times Roman,serif" font-size="14.00">q8</text>
</g>
<!-- q4&#45;&gt;q8 -->
<g id="edge14" class="edge"><title>q4&#45;&gt;q8</title>
<path fill="none" stroke="black" d="M96.763,-276.249C96.6249,-262.994 96.4495,-246.148 96.3016,-231.954"/>
<polygon fill="black" stroke="black" points="99.7991,-231.683 96.195,-221.72 92.7994,-231.756 99.7991,-231.683"/>
<text text-anchor="middle" x="101.5" y="-245.4" font-family="Times Roman,serif" font-size="14.00">b</text>
</g>
<!-- q9&#45;&gt;q3 -->
<g id="edge30" class="edge"><title>q9&#45;&gt;q3</title>
<path fill="none" stroke="black" d="M22.0504,-128.357C12.6567,-146.405 0,-175.774 0,-203 0,-395 0,-395 0,-395 0,-424.79 23.6201,-450.822 43.613,-467.52"/>
<polygon fill="black" stroke="black" points="41.595,-470.387 51.5989,-473.876 45.9541,-464.91 41.595,-470.387"/>
<text text-anchor="middle" x="4.5" y="-295.4" font-family="Times Roman,serif" font-size="14.00">b</text>
</g>
<!-- q5 -->
<g id="node16" class="node"><title>q5</title>
<ellipse fill="none" stroke="black" cx="117" cy="-19" rx="27" ry="18.3848"/>
<text text-anchor="middle" x="117" y="-15.4" font-family="Times Roman,serif" font-size="14.00">q5</text>
</g>
<!-- q9&#45;&gt;q5 -->
<g id="edge32" class="edge"><title>q9&#45;&gt;q5</title>
<path fill="none" stroke="black" d="M42.8683,-93.778C50.3869,-82.4782 60.9877,-67.6861 72,-56 77.4365,-50.2309 83.762,-44.5263 89.9226,-39.3874"/>
<polygon fill="black" stroke="black" points="92.5335,-41.7783 98.1223,-32.7775 88.1403,-36.3285 92.5335,-41.7783"/>
<text text-anchor="middle" x="76.5" y="-61.4" font-family="Times Roman,serif" font-size="14.00">a</text>
</g>
<!-- q3&#45;&gt;q10 -->
<g id="edge10" class="edge"><title>q3&#45;&gt;q10</title>
<path fill="none" stroke="black" d="M84.839,-502.925C89.473,-509.111 94.1745,-516.507 97,-524 100.108,-532.243 101.759,-541.638 102.599,-550.303"/>
<polygon fill="black" stroke="black" points="99.1128,-550.634 103.263,-560.382 106.098,-550.174 99.1128,-550.634"/>
<text text-anchor="middle" x="106.5" y="-529.4" font-family="Times Roman,serif" font-size="14.00">b</text>
</g>
<!-- q3&#45;&gt;q2 -->
<g id="edge12" class="edge"><title>q3&#45;&gt;q2</title>
<path fill="none" stroke="black" d="M71,-468.382C71,-455.538 71,-438.216 71,-423.627"/>
<polygon fill="black" stroke="black" points="74.5001,-423.59 71,-413.59 67.5001,-423.59 74.5001,-423.59"/>
<text text-anchor="middle" x="75.5" y="-437.4" font-family="Times Roman,serif" font-size="14.00">a</text>
</g>
<!-- q8&#45;&gt;q9 -->
<g id="edge28" class="edge"><title>q8&#45;&gt;q9</title>
<path fill="none" stroke="black" d="M84.2614,-186.126C74.5181,-172.12 60.5175,-151.994 49.4592,-136.098"/>
<polygon fill="black" stroke="black" points="52.248,-133.978 43.6642,-127.767 46.5017,-137.975 52.248,-133.978"/>
<text text-anchor="middle" x="74.5" y="-153.4" font-family="Times Roman,serif" font-size="14.00">a</text>
</g>
<!-- q8&#45;&gt;q5 -->
<g id="edge26" class="edge"><title>q8&#45;&gt;q5</title>
<path fill="none" stroke="black" d="M107.062,-185.936C110.488,-179.87 113.909,-172.844 116,-166 130.333,-119.089 130.213,-104.774 125,-56 124.692,-53.1206 124.253,-50.1363 123.738,-47.1684"/>
<polygon fill="black" stroke="black" points="127.161,-46.4374 121.768,-37.3181 120.297,-47.8104 127.161,-46.4374"/>
<text text-anchor="middle" x="132.5" y="-107.4" font-family="Times Roman,serif" font-size="14.00">b</text>
</g>
<!-- q5&#45;&gt;q10 -->
<g id="edge20" class="edge"><title>q5&#45;&gt;q10</title>
<path fill="none" stroke="black" d="M134.033,-33.3804C151.772,-50.0598 177,-79.3458 177,-111 177,-487 177,-487 177,-487 177,-517.039 152.75,-542.835 132.014,-559.401"/>
<polygon fill="black" stroke="black" points="129.843,-556.656 124.007,-565.499 134.084,-562.225 129.843,-556.656"/>
<text text-anchor="middle" x="181.5" y="-295.4" font-family="Times Roman,serif" font-size="14.00">a</text>
</g>
<!-- q5&#45;&gt;q8 -->
<g id="edge18" class="edge"><title>q5&#45;&gt;q8</title>
<path fill="none" stroke="black" d="M114.865,-37.7049C111.182,-69.9753 103.612,-136.305 99.2641,-174.4"/>
<polygon fill="black" stroke="black" points="95.7858,-174.012 98.1292,-184.345 102.741,-174.806 95.7858,-174.012"/>
<text text-anchor="middle" x="112.5" y="-107.4" font-family="Times Roman,serif" font-size="14.00">b</text>
</g>
<!-- q6 -->
<g id="node19" class="node"><title>q6</title>
<ellipse fill="none" stroke="black" cx="157" cy="-675" rx="27" ry="18.3848"/>
<ellipse fill="none" stroke="black" cx="157" cy="-675" rx="31" ry="22.3848"/>
<text text-anchor="middle" x="157" y="-671.4" font-family="Times Roman,serif" font-size="14.00">q6</text>
</g>
<!-- q6&#45;&gt;q10 -->
<g id="edge22" class="edge"><title>q6&#45;&gt;q10</title>
<path fill="none" stroke="black" d="M155.829,-652.5C154.412,-640.954 151.388,-627.037 145,-616 141.468,-609.897 136.564,-604.281 131.349,-599.367"/>
<polygon fill="black" stroke="black" points="133.47,-596.573 123.611,-592.693 128.898,-601.874 133.47,-596.573"/>
<text text-anchor="middle" x="155.5" y="-621.4" font-family="Times Roman,serif" font-size="14.00">b</text>
</g>
<!-- q6&#45;&gt;q10 -->
<g id="edge24" class="edge"><title>q6&#45;&gt;q10</title>
<path fill="none" stroke="black" d="M145.016,-653.694C137.039,-639.514 126.498,-620.775 117.97,-605.614"/>
<polygon fill="black" stroke="black" points="120.915,-603.709 112.961,-596.709 114.814,-607.141 120.915,-603.709"/>
<text text-anchor="middle" x="137.5" y="-621.4" font-family="Times Roman,serif" font-size="14.00">a</text>
</g>
</g>
</svg>
