<?xml version="1.0" encoding="UTF-8" standalone="no"?>
<!DOCTYPE svg PUBLIC "-//W3C//DTD SVG 1.1//EN"
 "http://www.w3.org/Graphics/SVG/1.1/DTD/svg11.dtd">
<!-- Generated by graphviz version 2.26.3 (20100126.1600)
 -->
<!-- Title: G Pages: 1 -->
<svg width="257pt" height="514pt"
 viewBox="0.00 0.00 257.00 514.00" xmlns="http://www.w3.org/2000/svg" xmlns:xlink="http://www.w3.org/1999/xlink">
<g id="graph1" class="graph" transform="scale(1 1) rotate(0) translate(4 510)">
<title>G</title>
<polygon fill="white" stroke="white" points="-4,5 -4,-510 254,-510 254,5 -4,5"/>
<!-- q0 -->
<g id="node1" class="node"><title>q0</title>
<ellipse fill="none" stroke="black" cx="46" cy="-487" rx="27" ry="18.3848"/>
<text text-anchor="middle" x="46" y="-483.4" font-family="Times Roman,serif" font-size="14.00">q0</text>
</g>
<!-- q0&#45;&gt;q0 -->
<g id="edge2" class="edge"><title>q0&#45;&gt;q0</title>
<path fill="none" stroke="black" d="M70.0743,-495.454C81.2423,-496.377 91,-493.559 91,-487 91,-482.593 86.5952,-479.875 80.3174,-478.846"/>
<polygon fill="black" stroke="black" points="80.1726,-475.34 70.0743,-478.546 79.9674,-482.337 80.1726,-475.34"/>
<text text-anchor="middle" x="95.5" y="-483.4" font-family="Times Roman,serif" font-size="14.00">b</text>
</g>
<!-- q8 -->
<g id="node4" class="node"><title>q8</title>
<ellipse fill="none" stroke="black" cx="150" cy="-391" rx="27" ry="18.3848"/>
<ellipse fill="none" stroke="black" cx="150" cy="-391" rx="31" ry="22.3848"/>
<text text-anchor="middle" x="150" y="-387.4" font-family="Times Roman,serif" font-size="14.00">q8</text>
</g>
<!-- q0&#45;&gt;q8 -->
<g id="edge4" class="edge"><title>q0&#45;&gt;q8</title>
<path fill="none" stroke="black" d="M62.25,-472C78.5183,-456.983 103.835,-433.614 123.102,-415.829"/>
<polygon fill="black" stroke="black" points="125.708,-418.187 130.682,-408.832 120.96,-413.043 125.708,-418.187"/>
<text text-anchor="middle" x="108.5" y="-437.4" font-family="Times Roman,serif" font-size="14.00">a</text>
</g>
<!-- q8&#45;&gt;q8 -->
<g id="edge22" class="edge"><title>q8&#45;&gt;q8</title>
<path fill="none" stroke="black" d="M180.625,-395.688C190.833,-395.688 199,-394.125 199,-391 199,-389.047 195.81,-387.704 190.925,-386.972"/>
<polygon fill="black" stroke="black" points="190.828,-383.458 180.625,-386.312 190.381,-390.444 190.828,-383.458"/>
<text text-anchor="middle" x="203.5" y="-387.4" font-family="Times Roman,serif" font-size="14.00">b</text>
</g>
<!-- q8&#45;&gt;q8 -->
<g id="edge24" class="edge"><title>q8&#45;&gt;q8</title>
<path fill="none" stroke="black" d="M173.347,-405.951C194.424,-413.224 217,-408.24 217,-391 217,-376.454 200.928,-370.633 183.245,-373.538"/>
<polygon fill="black" stroke="black" points="182.179,-370.197 173.347,-376.049 183.901,-376.982 182.179,-370.197"/>
<text text-anchor="middle" x="221.5" y="-387.4" font-family="Times Roman,serif" font-size="14.00">a</text>
</g>
<!-- q2 -->
<g id="node5" class="node"><title>q2</title>
<ellipse fill="none" stroke="black" cx="155" cy="-295" rx="27" ry="18.3848"/>
<text text-anchor="middle" x="155" y="-291.4" font-family="Times Roman,serif" font-size="14.00">q2</text>
</g>
<!-- q8&#45;&gt;q2 -->
<g id="edge30" class="edge"><title>q8&#45;&gt;q2</title>
<path fill="none" stroke="black" d="M151.185,-368.249C151.875,-354.994 152.753,-338.148 153.492,-323.954"/>
<polygon fill="black" stroke="black" points="157,-323.888 154.025,-313.72 150.01,-323.524 157,-323.888"/>
<text text-anchor="middle" x="156.5" y="-337.4" font-family="Times Roman,serif" font-size="14.00">b</text>
</g>
<!-- q7 -->
<g id="node7" class="node"><title>q7</title>
<ellipse fill="none" stroke="black" cx="156" cy="-19" rx="27" ry="18.3848"/>
<text text-anchor="middle" x="156" y="-15.4" font-family="Times Roman,serif" font-size="14.00">q7</text>
</g>
<!-- q8&#45;&gt;q7 -->
<g id="edge32" class="edge"><title>q8&#45;&gt;q7</title>
<path fill="none" stroke="black" d="M175.55,-377.809C202.158,-362.03 240,-332.924 240,-295 240,-295 240,-295 240,-111 240,-78.0607 210.271,-51.7528 186.185,-35.8439"/>
<polygon fill="black" stroke="black" points="187.96,-32.8253 177.632,-30.4603 184.231,-38.7494 187.96,-32.8253"/>
<text text-anchor="middle" x="244.5" y="-199.4" font-family="Times Roman,serif" font-size="14.00">a</text>
</g>
<!-- q2&#45;&gt;q7 -->
<g id="edge6" class="edge"><title>q2&#45;&gt;q7</title>
<path fill="none" stroke="black" d="M163.761,-277.361C166.299,-271.367 168.726,-264.531 170,-258 187.183,-169.882 186.149,-144.313 170,-56 169.407,-52.7571 168.544,-49.4295 167.534,-46.163"/>
<polygon fill="black" stroke="black" points="170.817,-44.9509 164.18,-36.6924 164.219,-47.2872 170.817,-44.9509"/>
<text text-anchor="middle" x="186.5" y="-153.4" font-family="Times Roman,serif" font-size="14.00">b</text>
</g>
<!-- q4 -->
<g id="node9" class="node"><title>q4</title>
<ellipse fill="none" stroke="black" cx="101" cy="-203" rx="27" ry="18.3848"/>
<text text-anchor="middle" x="101" y="-199.4" font-family="Times Roman,serif" font-size="14.00">q4</text>
</g>
<!-- q2&#45;&gt;q4 -->
<g id="edge8" class="edge"><title>q2&#45;&gt;q4</title>
<path fill="none" stroke="black" d="M144.669,-277.703C140.975,-271.497 136.789,-264.442 133,-258 127.455,-248.573 121.413,-238.212 116.088,-229.049"/>
<polygon fill="black" stroke="black" points="119.094,-227.256 111.047,-220.364 113.04,-230.77 119.094,-227.256"/>
<text text-anchor="middle" x="137.5" y="-245.4" font-family="Times Roman,serif" font-size="14.00">a</text>
</g>
<!-- q7&#45;&gt;q0 -->
<g id="edge20" class="edge"><title>q7&#45;&gt;q0</title>
<path fill="none" stroke="black" d="M129.183,-22.4538C84.5799,-29.8645 0,-51.7312 0,-111 0,-391 0,-391 0,-391 0,-417.325 14.2413,-444.076 26.8759,-462.629"/>
<polygon fill="black" stroke="black" points="24.0404,-464.681 32.6949,-470.792 29.7406,-460.618 24.0404,-464.681"/>
<text text-anchor="middle" x="4.5" y="-245.4" font-family="Times Roman,serif" font-size="14.00">a</text>
</g>
<!-- q7&#45;&gt;q2 -->
<g id="edge18" class="edge"><title>q7&#45;&gt;q2</title>
<path fill="none" stroke="black" d="M155.932,-37.8205C155.76,-85.2508 155.308,-209.914 155.104,-266.424"/>
<polygon fill="black" stroke="black" points="151.604,-266.45 155.067,-276.462 158.603,-266.475 151.604,-266.45"/>
<text text-anchor="middle" x="159.5" y="-153.4" font-family="Times Roman,serif" font-size="14.00">b</text>
</g>
<!-- q4&#45;&gt;q8 -->
<g id="edge10" class="edge"><title>q4&#45;&gt;q8</title>
<path fill="none" stroke="black" d="M100.283,-221.866C99.9401,-244.282 100.97,-282.598 110,-314 114.815,-330.745 123.445,-348.077 131.459,-362.048"/>
<polygon fill="black" stroke="black" points="128.48,-363.886 136.59,-370.703 134.501,-360.316 128.48,-363.886"/>
<text text-anchor="middle" x="114.5" y="-291.4" font-family="Times Roman,serif" font-size="14.00">b</text>
</g>
<!-- q9 -->
<g id="node12" class="node"><title>q9</title>
<ellipse fill="none" stroke="black" cx="101" cy="-111" rx="27" ry="18.3848"/>
<text text-anchor="middle" x="101" y="-107.4" font-family="Times Roman,serif" font-size="14.00">q9</text>
</g>
<!-- q4&#45;&gt;q9 -->
<g id="edge12" class="edge"><title>q4&#45;&gt;q9</title>
<path fill="none" stroke="black" d="M101,-184.382C101,-171.538 101,-154.216 101,-139.627"/>
<polygon fill="black" stroke="black" points="104.5,-139.59 101,-129.59 97.5001,-139.59 104.5,-139.59"/>
<text text-anchor="middle" x="105.5" y="-153.4" font-family="Times Roman,serif" font-size="14.00">a</text>
</g>
<!-- q9&#45;&gt;q0 -->
<g id="edge26" class="edge"><title>q9&#45;&gt;q0</title>
<path fill="none" stroke="black" d="M85.0917,-125.971C68.8481,-142.952 46,-172.295 46,-203 46,-391 46,-391 46,-391 46,-413.536 46,-439.047 46,-458.104"/>
<polygon fill="black" stroke="black" points="42.5001,-458.237 46,-468.237 49.5001,-458.237 42.5001,-458.237"/>
<text text-anchor="middle" x="50.5" y="-291.4" font-family="Times Roman,serif" font-size="14.00">b</text>
</g>
<!-- q9&#45;&gt;q7 -->
<g id="edge28" class="edge"><title>q9&#45;&gt;q7</title>
<path fill="none" stroke="black" d="M110.96,-93.5838C117.21,-82.728 125.483,-68.4957 133,-56 135.193,-52.3543 137.533,-48.5243 139.849,-44.7671"/>
<polygon fill="black" stroke="black" points="142.833,-46.5961 145.13,-36.2533 136.884,-42.9062 142.833,-46.5961"/>
<text text-anchor="middle" x="137.5" y="-61.4" font-family="Times Roman,serif" font-size="14.00">a</text>
</g>
<!-- q6 -->
<g id="node13" class="node"><title>q6</title>
<ellipse fill="none" stroke="black" cx="150" cy="-487" rx="27" ry="18.3848"/>
<text text-anchor="middle" x="150" y="-483.4" font-family="Times Roman,serif" font-size="14.00">q6</text>
</g>
<!-- q6&#45;&gt;q8 -->
<g id="edge16" class="edge"><title>q6&#45;&gt;q8</title>
<path fill="none" stroke="black" d="M150,-468.49C150,-455.863 150,-438.791 150,-423.885"/>
<polygon fill="black" stroke="black" points="153.5,-423.508 150,-413.508 146.5,-423.508 153.5,-423.508"/>
<text text-anchor="middle" x="154.5" y="-437.4" font-family="Times Roman,serif" font-size="14.00">a</text>
</g>
<!-- q6&#45;&gt;q6 -->
<g id="edge14" class="edge"><title>q6&#45;&gt;q6</title>
<path fill="none" stroke="black" d="M174.074,-495.454C185.242,-496.377 195,-493.559 195,-487 195,-482.593 190.595,-479.875 184.317,-478.846"/>
<polygon fill="black" stroke="black" points="184.173,-475.34 174.074,-478.546 183.967,-482.337 184.173,-475.34"/>
<text text-anchor="middle" x="199.5" y="-483.4" font-family="Times Roman,serif" font-size="14.00">b</text>
</g>
</g>
</svg>
