<?xml version="1.0" encoding="UTF-8" standalone="no"?>
<!DOCTYPE svg PUBLIC "-//W3C//DTD SVG 1.1//EN"
 "http://www.w3.org/Graphics/SVG/1.1/DTD/svg11.dtd">
<!-- Generated by graphviz version 2.26.3 (20100126.1600)
 -->
<!-- Title: G Pages: 1 -->
<svg width="176pt" height="412pt"
 viewBox="0.00 0.00 176.00 412.00" xmlns="http://www.w3.org/2000/svg" xmlns:xlink="http://www.w3.org/1999/xlink">
<g id="graph1" class="graph" transform="scale(1 1) rotate(0) translate(4 408)">
<title>G</title>
<polygon fill="white" stroke="white" points="-4,5 -4,-408 173,-408 173,5 -4,5"/>
<!-- q6 -->
<g id="node1" class="node"><title>q6</title>
<ellipse fill="none" stroke="black" cx="96" cy="-386" rx="27" ry="18"/>
<text text-anchor="middle" x="96" y="-381.9" font-family="Times Roman,serif" font-size="14.00">q6</text>
</g>
<!-- q1 -->
<g id="node3" class="node"><title>q1</title>
<ellipse fill="none" stroke="black" cx="50" cy="-292" rx="27" ry="18"/>
<ellipse fill="none" stroke="black" cx="50" cy="-292" rx="31" ry="22"/>
<text text-anchor="middle" x="50" y="-287.9" font-family="Times Roman,serif" font-size="14.00">q1</text>
</g>
<!-- q6&#45;&gt;q1 -->
<g id="edge2" class="edge"><title>q6&#45;&gt;q1</title>
<path fill="none" stroke="black" d="M75.56,-374.226C67.0235,-368.157 57.9546,-359.932 53,-350 49.0962,-342.174 47.4933,-332.994 47.0802,-324.274"/>
<polygon fill="black" stroke="black" points="50.5805,-323.994 47.0919,-313.99 43.5805,-323.986 50.5805,-323.994"/>
<text text-anchor="middle" x="57.5" y="-336.9" font-family="Times Roman,serif" font-size="14.00">b</text>
</g>
<!-- q5 -->
<g id="node5" class="node"><title>q5</title>
<ellipse fill="none" stroke="black" cx="77" cy="-108" rx="27" ry="18"/>
<text text-anchor="middle" x="77" y="-103.9" font-family="Times Roman,serif" font-size="14.00">q5</text>
</g>
<!-- q6&#45;&gt;q5 -->
<g id="edge4" class="edge"><title>q6&#45;&gt;q5</title>
<path fill="none" stroke="black" d="M96.3811,-367.752C96.9318,-331.742 97.1971,-249.037 90,-180 88.4723,-165.346 85.6602,-149.19 83.0412,-135.902"/>
<polygon fill="black" stroke="black" points="86.4379,-135.042 81.0104,-125.943 79.5791,-136.441 86.4379,-135.042"/>
<text text-anchor="middle" x="98.5" y="-238.9" font-family="Times Roman,serif" font-size="14.00">a</text>
</g>
<!-- q1&#45;&gt;q6 -->
<g id="edge16" class="edge"><title>q1&#45;&gt;q6</title>
<path fill="none" stroke="black" d="M60.3161,-313.081C67.0545,-326.85 75.9062,-344.939 83.1076,-359.655"/>
<polygon fill="black" stroke="black" points="80.0235,-361.315 87.5629,-368.759 86.3111,-358.238 80.0235,-361.315"/>
<text text-anchor="middle" x="81.5" y="-336.9" font-family="Times Roman,serif" font-size="14.00">a</text>
</g>
<!-- q0 -->
<g id="node10" class="node"><title>q0</title>
<ellipse fill="none" stroke="darkred" cx="27" cy="-198" rx="27" ry="18"/>
<text text-anchor="middle" x="27" y="-193.9" font-family="Times Roman,serif" font-size="14.00">q0</text>
</g>
<!-- q1&#45;&gt;q0 -->
<g id="edge14" class="edge"><title>q1&#45;&gt;q0</title>
<path fill="none" stroke="black" d="M44.6655,-270.198C41.4193,-256.931 37.2424,-239.86 33.7652,-225.649"/>
<polygon fill="black" stroke="black" points="37.1567,-224.784 31.3803,-215.902 30.3573,-226.447 37.1567,-224.784"/>
<text text-anchor="middle" x="44.5" y="-238.9" font-family="Times Roman,serif" font-size="14.00">b</text>
</g>
<!-- q5&#45;&gt;q5 -->
<g id="edge8" class="edge"><title>q5&#45;&gt;q5</title>
<path fill="none" stroke="black" d="M101.532,-116.121C112.508,-116.895 122,-114.188 122,-108 122,-103.843 117.715,-101.257 111.574,-100.242"/>
<polygon fill="black" stroke="black" points="111.652,-96.7424 101.532,-99.8789 111.4,-103.738 111.652,-96.7424"/>
<text text-anchor="middle" x="126.5" y="-103.9" font-family="Times Roman,serif" font-size="14.00">a</text>
</g>
<!-- q8 -->
<g id="node7" class="node"><title>q8</title>
<ellipse fill="none" stroke="black" cx="77" cy="-18" rx="27" ry="18"/>
<text text-anchor="middle" x="77" y="-13.9" font-family="Times Roman,serif" font-size="14.00">q8</text>
</g>
<!-- q5&#45;&gt;q8 -->
<g id="edge6" class="edge"><title>q5&#45;&gt;q8</title>
<path fill="none" stroke="black" d="M77,-89.7872C77,-77.3443 77,-60.6053 77,-46.4211"/>
<polygon fill="black" stroke="black" points="80.5001,-46.1857 77,-36.1858 73.5001,-46.1858 80.5001,-46.1857"/>
<text text-anchor="middle" x="81.5" y="-58.9" font-family="Times Roman,serif" font-size="14.00">b</text>
</g>
<!-- q8&#45;&gt;q6 -->
<g id="edge12" class="edge"><title>q8&#45;&gt;q6</title>
<path fill="none" stroke="black" d="M98.117,-29.2226C122.413,-43.8406 159,-71.8543 159,-108 159,-292 159,-292 159,-292 159,-320.879 138.227,-347.587 120.538,-365.094"/>
<polygon fill="black" stroke="black" points="118.08,-362.602 113.215,-372.014 122.887,-367.69 118.08,-362.602"/>
<text text-anchor="middle" x="163.5" y="-193.9" font-family="Times Roman,serif" font-size="14.00">a</text>
</g>
<!-- q8&#45;&gt;q0 -->
<g id="edge10" class="edge"><title>q8&#45;&gt;q0</title>
<path fill="none" stroke="black" d="M63.6309,-33.9537C52.9032,-47.8012 38.5856,-68.8926 32,-90 23.8326,-116.177 23.3588,-147.65 24.4573,-169.848"/>
<polygon fill="black" stroke="black" points="20.9711,-170.178 25.096,-179.937 27.9571,-169.736 20.9711,-170.178"/>
<text text-anchor="middle" x="36.5" y="-103.9" font-family="Times Roman,serif" font-size="14.00">b</text>
</g>
<!-- q0&#45;&gt;q5 -->
<g id="edge20" class="edge"><title>q0&#45;&gt;q5</title>
<path fill="none" stroke="black" d="M36.4046,-181.072C43.7605,-167.831 54.1157,-149.192 62.5263,-134.053"/>
<polygon fill="black" stroke="black" points="65.6706,-135.6 67.4676,-125.158 59.5515,-132.2 65.6706,-135.6"/>
<text text-anchor="middle" x="60.5" y="-148.9" font-family="Times Roman,serif" font-size="14.00">a</text>
</g>
<!-- q0&#45;&gt;q0 -->
<g id="edge18" class="edge"><title>q0&#45;&gt;q0</title>
<path fill="none" stroke="black" d="M51.5325,-206.121C62.5078,-206.895 72,-204.188 72,-198 72,-193.843 67.7151,-191.257 61.5743,-190.242"/>
<polygon fill="black" stroke="black" points="61.6524,-186.742 51.5325,-189.879 61.3995,-193.738 61.6524,-186.742"/>
<text text-anchor="middle" x="76.5" y="-193.9" font-family="Times Roman,serif" font-size="14.00">b</text>
</g>
</g>
</svg>
