<?xml version="1.0" encoding="UTF-8" standalone="no"?>
<!DOCTYPE svg PUBLIC "-//W3C//DTD SVG 1.1//EN"
 "http://www.w3.org/Graphics/SVG/1.1/DTD/svg11.dtd">
<!-- Generated by graphviz version 2.26.3 (20100126.1600)
 -->
<!-- Title: G Pages: 1 -->
<svg width="198pt" height="142pt"
 viewBox="0.00 0.00 198.00 142.00" xmlns="http://www.w3.org/2000/svg" xmlns:xlink="http://www.w3.org/1999/xlink">
<g id="graph1" class="graph" transform="scale(1 1) rotate(0) translate(4 138)">
<title>G</title>
<polygon fill="white" stroke="white" points="-4,5 -4,-138 195,-138 195,5 -4,5"/>
<!-- q2 -->
<g id="node1" class="node"><title>q2</title>
<ellipse fill="none" stroke="black" cx="82" cy="-116" rx="27" ry="18"/>
<text text-anchor="middle" x="82" y="-111.9" font-family="Times Roman,serif" font-size="14.00">q2</text>
</g>
<!-- q0 -->
<g id="node3" class="node"><title>q0</title>
<ellipse fill="none" stroke="darkred" cx="31" cy="-22" rx="27" ry="18"/>
<ellipse fill="none" stroke="darkred" cx="31" cy="-22" rx="31" ry="22"/>
<text text-anchor="middle" x="31" y="-17.9" font-family="Times Roman,serif" font-size="14.00">q0</text>
</g>
<!-- q2&#45;&gt;q0 -->
<g id="edge2" class="edge"><title>q2&#45;&gt;q0</title>
<path fill="none" stroke="black" d="M59.7051,-105.497C49.6813,-99.5241 38.8162,-91.0149 33,-80 28.8747,-72.1874 27.3408,-62.9219 27.1071,-54.1155"/>
<polygon fill="black" stroke="black" points="30.6063,-54.1859 27.3526,-44.1031 23.6085,-54.0142 30.6063,-54.1859"/>
<text text-anchor="middle" x="38" y="-66.9" font-family="Times Roman,serif" font-size="14.00">1</text>
</g>
<!-- q1 -->
<g id="node5" class="node"><title>q1</title>
<ellipse fill="none" stroke="black" cx="135" cy="-22" rx="27" ry="18"/>
<text text-anchor="middle" x="135" y="-17.9" font-family="Times Roman,serif" font-size="14.00">q1</text>
</g>
<!-- q2&#45;&gt;q1 -->
<g id="edge4" class="edge"><title>q2&#45;&gt;q1</title>
<path fill="none" stroke="black" d="M87.0541,-97.8189C90.4607,-87.0132 95.5169,-73.2641 102,-62 105.301,-56.2651 109.426,-50.526 113.631,-45.2578"/>
<polygon fill="black" stroke="black" points="116.449,-47.3451 120.197,-37.4353 111.087,-42.8449 116.449,-47.3451"/>
<text text-anchor="middle" x="107" y="-66.9" font-family="Times Roman,serif" font-size="14.00">0</text>
</g>
<!-- q0&#45;&gt;q2 -->
<g id="edge10" class="edge"><title>q0&#45;&gt;q2</title>
<path fill="none" stroke="black" d="M42.2533,-42.7414C49.7354,-56.532 59.6272,-74.7639 67.6708,-89.5894"/>
<polygon fill="black" stroke="black" points="64.8005,-91.6384 72.6458,-98.759 70.9533,-88.3002 64.8005,-91.6384"/>
<text text-anchor="middle" x="66" y="-66.9" font-family="Times Roman,serif" font-size="14.00">1</text>
</g>
<!-- q0&#45;&gt;q0 -->
<g id="edge12" class="edge"><title>q0&#45;&gt;q0</title>
<path fill="none" stroke="black" d="M59.6885,-30.9648C70.7806,-31.3633 80,-28.375 80,-22 80,-17.7168 75.8382,-14.9624 69.7429,-13.7368"/>
<polygon fill="black" stroke="black" points="69.9079,-10.2399 59.6885,-13.0352 69.4205,-17.223 69.9079,-10.2399"/>
<text text-anchor="middle" x="85" y="-17.9" font-family="Times Roman,serif" font-size="14.00">0</text>
</g>
<!-- q1&#45;&gt;q2 -->
<g id="edge8" class="edge"><title>q1&#45;&gt;q2</title>
<path fill="none" stroke="black" d="M129.625,-39.6762C125.635,-51.5283 119.581,-67.242 112,-80 109.434,-84.3189 106.36,-88.6488 103.173,-92.7332"/>
<polygon fill="black" stroke="black" points="100.27,-90.7516 96.5982,-100.69 105.666,-95.2106 100.27,-90.7516"/>
<text text-anchor="middle" x="125" y="-66.9" font-family="Times Roman,serif" font-size="14.00">0</text>
</g>
<!-- q1&#45;&gt;q1 -->
<g id="edge6" class="edge"><title>q1&#45;&gt;q1</title>
<path fill="none" stroke="black" d="M158.615,-30.7803C169.973,-31.8643 180,-28.9375 180,-22 180,-17.3389 175.474,-14.4882 169.058,-13.4481"/>
<polygon fill="black" stroke="black" points="168.689,-9.93931 158.615,-13.2197 168.536,-16.9376 168.689,-9.93931"/>
<text text-anchor="middle" x="185" y="-17.9" font-family="Times Roman,serif" font-size="14.00">1</text>
</g>
</g>
</svg>
