<?xml version="1.0" encoding="UTF-8" standalone="no"?>
<!DOCTYPE svg PUBLIC "-//W3C//DTD SVG 1.1//EN"
 "http://www.w3.org/Graphics/SVG/1.1/DTD/svg11.dtd">
<!-- Generated by graphviz version 2.26.3 (20100126.1600)
 -->
<!-- Title: G Pages: 1 -->
<svg width="199pt" height="322pt"
 viewBox="0.00 0.00 199.00 322.00" xmlns="http://www.w3.org/2000/svg" xmlns:xlink="http://www.w3.org/1999/xlink">
<g id="graph1" class="graph" transform="scale(1 1) rotate(0) translate(4 318)">
<title>G</title>
<polygon fill="white" stroke="white" points="-4,5 -4,-318 196,-318 196,5 -4,5"/>
<!-- q6 -->
<g id="node1" class="node"><title>q6</title>
<ellipse fill="none" stroke="black" cx="78" cy="-296" rx="27" ry="18"/>
<text text-anchor="middle" x="78" y="-291.9" font-family="Times Roman,serif" font-size="14.00">q6</text>
</g>
<!-- q2 -->
<g id="node3" class="node"><title>q2</title>
<ellipse fill="none" stroke="black" cx="28" cy="-206" rx="27" ry="18"/>
<text text-anchor="middle" x="28" y="-201.9" font-family="Times Roman,serif" font-size="14.00">q2</text>
</g>
<!-- q6&#45;&gt;q2 -->
<g id="edge2" class="edge"><title>q6&#45;&gt;q2</title>
<path fill="none" stroke="black" d="M56.8168,-284.327C47.9252,-278.278 38.4099,-270.041 33,-260 28.8091,-252.222 27.0189,-242.89 26.4325,-234.188"/>
<polygon fill="black" stroke="black" points="29.9289,-233.963 26.2337,-224.034 22.9302,-234.101 29.9289,-233.963"/>
<text text-anchor="middle" x="38" y="-246.9" font-family="Times Roman,serif" font-size="14.00">1</text>
</g>
<!-- q5 -->
<g id="node5" class="node"><title>q5</title>
<ellipse fill="none" stroke="black" cx="79" cy="-116" rx="27" ry="18"/>
<text text-anchor="middle" x="79" y="-111.9" font-family="Times Roman,serif" font-size="14.00">q5</text>
</g>
<!-- q6&#45;&gt;q5 -->
<g id="edge4" class="edge"><title>q6&#45;&gt;q5</title>
<path fill="none" stroke="black" d="M78.1014,-277.75C78.2763,-246.269 78.6358,-181.55 78.8432,-144.225"/>
<polygon fill="black" stroke="black" points="82.3441,-144.05 78.8998,-134.031 75.3442,-144.011 82.3441,-144.05"/>
<text text-anchor="middle" x="83" y="-201.9" font-family="Times Roman,serif" font-size="14.00">0</text>
</g>
<!-- q2&#45;&gt;q6 -->
<g id="edge12" class="edge"><title>q2&#45;&gt;q6</title>
<path fill="none" stroke="black" d="M37.5324,-223.158C44.9229,-236.461 55.284,-255.111 63.6719,-270.209"/>
<polygon fill="black" stroke="black" points="60.6793,-272.03 68.5954,-279.072 66.7985,-268.63 60.6793,-272.03"/>
<text text-anchor="middle" x="62" y="-246.9" font-family="Times Roman,serif" font-size="14.00">0</text>
</g>
<!-- q2&#45;&gt;q5 -->
<g id="edge10" class="edge"><title>q2&#45;&gt;q5</title>
<path fill="none" stroke="black" d="M37.5927,-189.072C45.1435,-175.747 55.7927,-156.954 64.4005,-141.764"/>
<polygon fill="black" stroke="black" points="67.5652,-143.278 69.4503,-132.852 61.475,-139.827 67.5652,-143.278"/>
<text text-anchor="middle" x="63" y="-156.9" font-family="Times Roman,serif" font-size="14.00">1</text>
</g>
<!-- q0 -->
<g id="node7" class="node"><title>q0</title>
<ellipse fill="none" stroke="darkred" cx="132" cy="-22" rx="27" ry="18"/>
<ellipse fill="none" stroke="darkred" cx="132" cy="-22" rx="31" ry="22"/>
<text text-anchor="middle" x="132" y="-17.9" font-family="Times Roman,serif" font-size="14.00">q0</text>
</g>
<!-- q5&#45;&gt;q0 -->
<g id="edge6" class="edge"><title>q5&#45;&gt;q0</title>
<path fill="none" stroke="black" d="M88.721,-98.759C96.1654,-85.5557 106.611,-67.0297 115.375,-51.4859"/>
<polygon fill="black" stroke="black" points="118.443,-53.1713 120.305,-42.7414 112.345,-49.7332 118.443,-53.1713"/>
<text text-anchor="middle" x="113" y="-66.9" font-family="Times Roman,serif" font-size="14.00">1</text>
</g>
<!-- q3 -->
<g id="node9" class="node"><title>q3</title>
<ellipse fill="none" stroke="black" cx="27" cy="-22" rx="27" ry="18"/>
<text text-anchor="middle" x="27" y="-17.9" font-family="Times Roman,serif" font-size="14.00">q3</text>
</g>
<!-- q5&#45;&gt;q3 -->
<g id="edge8" class="edge"><title>q5&#45;&gt;q3</title>
<path fill="none" stroke="black" d="M69.4624,-98.759C61.6192,-84.5809 50.3808,-64.2653 41.4358,-48.0955"/>
<polygon fill="black" stroke="black" points="44.3804,-46.1879 36.4771,-39.1317 38.2552,-49.5763 44.3804,-46.1879"/>
<text text-anchor="middle" x="62" y="-66.9" font-family="Times Roman,serif" font-size="14.00">0</text>
</g>
<!-- q0&#45;&gt;q6 -->
<g id="edge18" class="edge"><title>q0&#45;&gt;q6</title>
<path fill="none" stroke="black" d="M129.925,-44.0099C125.57,-86.4294 114.015,-182.189 92,-260 91.1511,-263 90.1486,-266.099 89.0765,-269.16"/>
<polygon fill="black" stroke="black" points="85.752,-268.058 85.5165,-278.65 92.306,-270.516 85.752,-268.058"/>
<text text-anchor="middle" x="120" y="-156.9" font-family="Times Roman,serif" font-size="14.00">1</text>
</g>
<!-- q0&#45;&gt;q0 -->
<g id="edge20" class="edge"><title>q0&#45;&gt;q0</title>
<path fill="none" stroke="black" d="M160.689,-30.9648C171.781,-31.3633 181,-28.375 181,-22 181,-17.7168 176.838,-14.9624 170.743,-13.7368"/>
<polygon fill="black" stroke="black" points="170.908,-10.2399 160.689,-13.0352 170.421,-17.223 170.908,-10.2399"/>
<text text-anchor="middle" x="186" y="-17.9" font-family="Times Roman,serif" font-size="14.00">0</text>
</g>
<!-- q3&#45;&gt;q2 -->
<g id="edge16" class="edge"><title>q3&#45;&gt;q2</title>
<path fill="none" stroke="black" d="M27.0991,-40.2412C27.2733,-72.2884 27.6355,-138.923 27.8436,-177.229"/>
<polygon fill="black" stroke="black" points="24.3461,-177.704 27.9005,-187.685 31.346,-177.666 24.3461,-177.704"/>
<text text-anchor="middle" x="33" y="-111.9" font-family="Times Roman,serif" font-size="14.00">0</text>
</g>
<!-- q3&#45;&gt;q3 -->
<g id="edge14" class="edge"><title>q3&#45;&gt;q3</title>
<path fill="none" stroke="black" d="M50.6146,-30.7803C61.9731,-31.8643 72,-28.9375 72,-22 72,-17.3389 67.4737,-14.4882 61.0584,-13.4481"/>
<polygon fill="black" stroke="black" points="60.6888,-9.93931 50.6146,-13.2197 60.5356,-16.9376 60.6888,-9.93931"/>
<text text-anchor="middle" x="77" y="-17.9" font-family="Times Roman,serif" font-size="14.00">1</text>
</g>
</g>
</svg>
