<?xml version="1.0" encoding="utf-8" ?>
<!DOCTYPE svg PUBLIC "-//W3C//DTD SVG 1.1//EN" "http://www.w3.org/Graphics/SVG/1.1/DTD/svg11.dtd">
<svg height="436" version="1.1" width="738" xmlns="http://www.w3.org/2000/svg">
<rect fill="#ffffff" height="104" stroke="#ffffff" stroke-width="1" width="223" x="150" y="302"/>
<rect fill="none" height="104" stroke="#000000" stroke-width="1" width="223" x="150" y="302"/>
<text font-family="Dialog" font-size="12" x="167" y="315">
EvolutionCandidate&lt;T, PS, R&gt;</text>
<rect fill="#000000" height="1" stroke="#000000" stroke-width="1" width="223" x="150" y="325"/>
<text font-family="Dialog" font-size="12" x="154" y="339">
obj : T</text>
<text font-family="Dialog" font-size="12" x="154" y="355">
fitness : Integer</text>
<rect fill="#000000" height="1" stroke="#000000" stroke-width="1" width="223" x="150" y="365"/>
<text font-family="Dialog" font-size="12" x="154" y="379">
fitness(ProblemSet) : Integer</text>
<text font-family="Dialog" font-size="12" x="154" y="395">
checkValidity(reference) : Boolean</text>
<rect fill="#ffffff" height="120" stroke="#ffffff" stroke-width="1" width="274" x="390" y="302"/>
<rect fill="none" height="120" stroke="#000000" stroke-width="1" width="274" x="390" y="302"/>
<text font-family="Dialog" font-size="12" x="469" y="315">
ProblemSet&lt;P, S&gt;</text>
<rect fill="#000000" height="1" stroke="#000000" stroke-width="1" width="274" x="390" y="325"/>
<text font-family="Dialog" font-size="12" x="394" y="339">
solvedCounter : List&lt;Integer&gt;</text>
<text font-family="Dialog" font-size="12" x="394" y="355">
problems : List&lt;P&gt;</text>
<text font-family="Dialog" font-size="12" x="394" y="371">
solutions : List&lt;S&gt;</text>
<rect fill="#000000" height="1" stroke="#000000" stroke-width="1" width="274" x="390" y="381"/>
<text font-family="Dialog" font-size="12" x="394" y="395">
checkSolution(problem,solution) : Boolean</text>
<text font-family="Dialog" font-size="12" x="394" y="411">
clone() : ProblemSet</text>
<rect fill="#ffffff" height="100" stroke="#ffffff" stroke-width="1" width="352" x="174" y="14"/>
<rect fill="none" height="100" stroke="#000000" stroke-width="1" width="352" x="174" y="14"/>
<text font-family="Dialog" font-size="12" x="179" y="46">
EvolutionaryAlgorithm&lt;E extends EvolutionCandidate&gt;</text>
<text font-family="Dialog" font-size="12" x="302" y="28">
&lt;&lt;interface&gt;&gt;</text>
<rect fill="#000000" height="1" stroke="#000000" stroke-width="1" width="352" x="174" y="56"/>
<text font-family="Dialog" font-size="12" x="178" y="70">
startEvolution(cycleLimit)</text>
<text font-family="Dialog" font-size="12" x="178" y="86">
getWinner() : E</text>
<text font-family="Dialog" font-size="12" x="178" y="102">
getCandidates() : List&lt;E&gt;</text>
<rect fill="#ffffff" height="67" stroke="#ffffff" stroke-width="1" width="231" x="14" y="166"/>
<rect fill="none" height="67" stroke="#000000" stroke-width="1" width="231" x="14" y="166"/>
<text font-family="Dialog" font-size="12" x="19" y="179">
EAWithConsistentGlobalProblemSet</text>
<rect fill="#000000" height="1" stroke="#000000" stroke-width="1" width="231" x="14" y="189"/>
<rect fill="#000000" height="1" stroke="#000000" stroke-width="1" width="231" x="14" y="210"/>
<rect fill="#ffffff" height="67" stroke="#ffffff" stroke-width="1" width="214" x="270" y="166"/>
<rect fill="none" height="67" stroke="#000000" stroke-width="1" width="214" x="270" y="166"/>
<text font-family="Dialog" font-size="12" x="275" y="179">
EAWithEvolvingGlobalProblemSet</text>
<rect fill="#000000" height="1" stroke="#000000" stroke-width="1" width="214" x="270" y="189"/>
<rect fill="#000000" height="1" stroke="#000000" stroke-width="1" width="214" x="270" y="210"/>
<rect fill="#ffffff" height="67" stroke="#ffffff" stroke-width="1" width="214" x="510" y="166"/>
<rect fill="none" height="67" stroke="#000000" stroke-width="1" width="214" x="510" y="166"/>
<text font-family="Dialog" font-size="12" x="515" y="179">
EAWithEvolvingLocalProblemSets</text>
<rect fill="#000000" height="1" stroke="#000000" stroke-width="1" width="214" x="510" y="189"/>
<rect fill="#000000" height="1" stroke="#000000" stroke-width="1" width="214" x="510" y="210"/>
<line fill="#333399" stroke="#333399" stroke-width="1" x1="222" x2="222" y1="166" y2="161"/>
<line fill="#333399" stroke="#333399" stroke-width="1" x1="222" x2="222" y1="156" y2="151"/>
<line fill="#333399" stroke="#333399" stroke-width="1" x1="222" x2="222" y1="146" y2="141"/>
<line fill="#333399" stroke="#333399" stroke-width="1" x1="222" x2="222" y1="136" y2="131"/>
<line fill="#333399" stroke="#333399" stroke-width="1" x1="222" x2="222" y1="126" y2="121"/>
<line fill="#333399" stroke="#333399" stroke-width="1" x1="222" x2="222" y1="116" y2="113"/>
<polygon fill="#ffffff" points="222,113 229,125 215,125" stroke="#ffffff" stroke-width="1"/>
<polygon fill="none" points="222,113 229,125 215,125" stroke="#333399" stroke-width="1"/>
<text font-family="Dialog" font-size="12" x="135" y="152">
&lt;&lt;realize&gt;&gt;</text>
<line fill="#333399" stroke="#333399" stroke-width="1" x1="382" x2="382" y1="166" y2="161"/>
<line fill="#333399" stroke="#333399" stroke-width="1" x1="382" x2="382" y1="156" y2="151"/>
<line fill="#333399" stroke="#333399" stroke-width="1" x1="382" x2="382" y1="146" y2="141"/>
<line fill="#333399" stroke="#333399" stroke-width="1" x1="382" x2="382" y1="136" y2="131"/>
<line fill="#333399" stroke="#333399" stroke-width="1" x1="382" x2="382" y1="126" y2="121"/>
<line fill="#333399" stroke="#333399" stroke-width="1" x1="382" x2="382" y1="116" y2="113"/>
<polygon fill="#ffffff" points="382,113 389,125 375,125" stroke="#ffffff" stroke-width="1"/>
<polygon fill="none" points="382,113 389,125 375,125" stroke="#333399" stroke-width="1"/>
<text font-family="Dialog" font-size="12" x="295" y="152">
&lt;&lt;realize&gt;&gt;</text>
<line fill="#333399" stroke="#333399" stroke-width="1" x1="518" x2="518" y1="166" y2="161"/>
<line fill="#333399" stroke="#333399" stroke-width="1" x1="518" x2="518" y1="156" y2="151"/>
<line fill="#333399" stroke="#333399" stroke-width="1" x1="518" x2="518" y1="146" y2="141"/>
<line fill="#333399" stroke="#333399" stroke-width="1" x1="518" x2="518" y1="136" y2="131"/>
<line fill="#333399" stroke="#333399" stroke-width="1" x1="518" x2="518" y1="126" y2="121"/>
<line fill="#333399" stroke="#333399" stroke-width="1" x1="518" x2="518" y1="116" y2="113"/>
<polygon fill="#ffffff" points="518,113 525,125 511,125" stroke="#ffffff" stroke-width="1"/>
<polygon fill="none" points="518,113 525,125 511,125" stroke="#333399" stroke-width="1"/>
<text font-family="Dialog" font-size="12" x="431" y="152">
&lt;&lt;realize&gt;&gt;</text>
<polyline fill="none" points="166,232 166,302" stroke="#000000" stroke-width="1"/>
<polygon fill="#ffffff" points="166,232 171,242 166,252 161,242" stroke="#ffffff" stroke-width="1"/>
<polygon fill="none" points="166,232 171,242 166,252 161,242" stroke="#000000" stroke-width="1"/>
<text font-family="Dialog" font-size="12" x="179" y="259">
1</text>
<text font-family="Dialog" font-size="12" x="179" y="285">
n</text>
<polyline fill="none" points="244,232 390,302" stroke="#000000" stroke-width="1"/>
<polygon fill="#ffffff" points="244,232 255,231 262,240 250,240" stroke="#ffffff" stroke-width="1"/>
<polygon fill="none" points="244,232 255,231 262,240 250,240" stroke="#000000" stroke-width="1"/>
<text font-family="Dialog" font-size="12" x="258" y="227">
1</text>
<text font-family="Dialog" font-size="12" x="392" y="317">
1</text>
<polyline fill="none" points="342,232 342,302" stroke="#000000" stroke-width="1"/>
<polygon fill="#ffffff" points="342,232 347,242 342,252 337,242" stroke="#ffffff" stroke-width="1"/>
<polygon fill="none" points="342,232 347,242 342,252 337,242" stroke="#000000" stroke-width="1"/>
<text font-family="Dialog" font-size="12" x="355" y="259">
1</text>
<text font-family="Dialog" font-size="12" x="355" y="295">
1</text>
<polyline fill="none" points="422,232 422,302" stroke="#000000" stroke-width="1"/>
<polygon fill="#ffffff" points="422,232 427,242 422,252 417,242" stroke="#ffffff" stroke-width="1"/>
<polygon fill="none" points="422,232 427,242 422,252 417,242" stroke="#000000" stroke-width="1"/>
<text font-family="Dialog" font-size="12" x="435" y="259">
1</text>
<text font-family="Dialog" font-size="12" x="436" y="295">
1</text>
<polyline fill="none" points="598,232 598,302" stroke="#000000" stroke-width="1"/>
<polygon fill="#ffffff" points="598,232 603,242 598,252 593,242" stroke="#ffffff" stroke-width="1"/>
<polygon fill="none" points="598,232 603,242 598,252 593,242" stroke="#000000" stroke-width="1"/>
<text font-family="Dialog" font-size="12" x="611" y="259">
1</text>
<text font-family="Dialog" font-size="12" x="611" y="285">
1</text>
<polyline fill="none" points="510,232 372,302" stroke="#000000" stroke-width="1"/>
<polygon fill="#ffffff" points="510,232 503,240 493,241 498,232" stroke="#ffffff" stroke-width="1"/>
<polygon fill="none" points="510,232 503,240 493,241 498,232" stroke="#000000" stroke-width="1"/>
<text font-family="Dialog" font-size="12" x="492" y="261">
1</text>
<text font-family="Dialog" font-size="12" x="366" y="317">
n</text>
</svg>
