<?xml version="1.0" encoding="utf-8" ?>
<!DOCTYPE svg PUBLIC "-//W3C//DTD SVG 1.1//EN" "http://www.w3.org/Graphics/SVG/1.1/DTD/svg11.dtd">
<svg height="260" version="1.1" width="458" xmlns="http://www.w3.org/2000/svg">
<rect fill="#ffffff" height="67" stroke="#ffffff" stroke-width="1" width="173" x="149" y="14"/>
<rect fill="none" height="67" stroke="#000000" stroke-width="1" width="173" x="149" y="14"/>
<text font-family="Dialog" font-size="12" x="156" y="46">
ProblemGenerator&lt;P, S&gt;</text>
<text font-family="Dialog" font-size="12" x="187" y="28">
&lt;&lt;interface&gt;&gt;</text>
<rect fill="#000000" height="1" stroke="#000000" stroke-width="1" width="173" x="149" y="56"/>
<text font-family="Dialog" font-size="12" x="153" y="70">
generateProblem() : Tuple</text>
<rect fill="#ffffff" height="136" stroke="#ffffff" stroke-width="1" width="430" x="14" y="110"/>
<rect fill="none" height="136" stroke="#000000" stroke-width="1" width="430" x="14" y="110"/>
<text font-family="Dialog" font-size="12" x="155" y="123">
WordProblemGenerator</text>
<rect fill="#000000" height="1" stroke="#000000" stroke-width="1" width="430" x="14" y="133"/>
<text font-family="Dialog" font-size="12" x="18" y="147">
alphabet : Array</text>
<text font-family="Dialog" font-size="12" x="18" y="163">
maxWordLength : Integer</text>
<text font-family="Dialog" font-size="12" x="18" y="179">
regexp : String</text>
<rect fill="#000000" height="1" stroke="#000000" stroke-width="1" width="430" x="14" y="189"/>
<text font-family="Dialog" font-size="12" x="18" y="203">
WordProblemGenerator(alphabet,maxWordLength,regexp)</text>
<text font-family="Dialog" font-size="12" x="18" y="219">
generateProblem() : Tuple</text>
<text font-family="Dialog" font-size="12" x="18" y="235">
generateProblemSet(noProblems,includeEmptyString) : ProblemSet</text>
<line fill="#333399" stroke="#333399" stroke-width="1" x1="232" x2="232" y1="110" y2="105"/>
<line fill="#333399" stroke="#333399" stroke-width="1" x1="232" x2="232" y1="100" y2="95"/>
<line fill="#333399" stroke="#333399" stroke-width="1" x1="232" x2="232" y1="90" y2="85"/>
<polygon fill="#ffffff" points="232,80 239,92 225,92" stroke="#ffffff" stroke-width="1"/>
<polygon fill="none" points="232,80 239,92 225,92" stroke="#333399" stroke-width="1"/>
<text font-family="Dialog" font-size="12" x="145" y="107">
&lt;&lt;realize&gt;&gt;</text>
</svg>
