<?xml version="1.0" encoding="utf-8" ?>
<!DOCTYPE svg PUBLIC "-//W3C//DTD SVG 1.1//EN" "http://www.w3.org/Graphics/SVG/1.1/DTD/svg11.dtd">
<svg height="351" version="1.1" width="787" xmlns="http://www.w3.org/2000/svg">
<rect fill="#ffffff" height="100" stroke="#ffffff" stroke-width="1" width="220" x="286" y="14"/>
<rect fill="none" height="100" stroke="#000000" stroke-width="1" width="220" x="286" y="14"/>
<text font-family="Dialog" font-size="12" x="291" y="46">
EvolutionaryAlgorithmInitialisation</text>
<text font-family="Dialog" font-size="12" x="348" y="28">
&lt;&lt;interface&gt;&gt;</text>
<rect fill="#000000" height="1" stroke="#000000" stroke-width="1" width="220" x="286" y="56"/>
<text font-family="Dialog" font-size="12" x="290" y="70">
startEvolution()</text>
<text font-family="Dialog" font-size="12" x="290" y="86">
getWinner()</text>
<text font-family="Dialog" font-size="12" x="290" y="102">
getCandidates()</text>
<rect fill="#ffffff" height="99" stroke="#ffffff" stroke-width="1" width="306" x="246" y="142"/>
<rect fill="none" height="99" stroke="#000000" stroke-width="1" width="306" x="246" y="142"/>
<text font-family="Dialog" font-size="12" x="282" y="174">
DFAEvolutionaryAlgorithmInitialisation</text>
<text font-family="Dialog" font-size="12" x="351" y="156">
&lt;&lt;interface&gt;&gt;</text>
<rect fill="#000000" height="1" stroke="#000000" stroke-width="1" width="306" x="246" y="184"/>
<text font-family="Dialog" font-size="12" x="250" y="198">
initLanguage(alphabet,maxWordLength,regexp)</text>
<text font-family="Dialog" font-size="12" x="250" y="214">
initProblems(noProblems)</text>
<text font-family="Dialog" font-size="12" x="250" y="230">
initCandidates(noCandidates)</text>
<polyline fill="none" points="391,142 391,113" stroke="#333399" stroke-width="1"/>
<polygon fill="#ffffff" points="391,113 398,125 384,125" stroke="#ffffff" stroke-width="1"/>
<polygon fill="none" points="391,113 398,125 384,125" stroke="#333399" stroke-width="1"/>
<rect fill="#ffffff" height="66" stroke="#ffffff" stroke-width="1" width="263" x="14" y="270"/>
<rect fill="none" height="66" stroke="#000000" stroke-width="1" width="263" x="14" y="270"/>
<text font-family="Dialog" font-size="12" x="19" y="283">
ConsistentGlobalProblemSetInitialisation</text>
<rect fill="#000000" height="1" stroke="#000000" stroke-width="1" width="263" x="14" y="293"/>
<rect fill="#000000" height="1" stroke="#000000" stroke-width="1" width="263" x="14" y="314"/>
<rect fill="#ffffff" height="66" stroke="#ffffff" stroke-width="1" width="242" x="286" y="270"/>
<rect fill="none" height="66" stroke="#000000" stroke-width="1" width="242" x="286" y="270"/>
<text font-family="Dialog" font-size="12" x="289" y="283">
EvolvingGlobalProblemSetInitialisation</text>
<rect fill="#000000" height="1" stroke="#000000" stroke-width="1" width="242" x="286" y="293"/>
<rect fill="#000000" height="1" stroke="#000000" stroke-width="1" width="242" x="286" y="314"/>
<rect fill="#ffffff" height="67" stroke="#ffffff" stroke-width="1" width="239" x="534" y="270"/>
<rect fill="none" height="67" stroke="#000000" stroke-width="1" width="239" x="534" y="270"/>
<text font-family="Dialog" font-size="12" x="539" y="283">
EvolvingLocalProblemSetInitialisation</text>
<rect fill="#000000" height="1" stroke="#000000" stroke-width="1" width="239" x="534" y="293"/>
<rect fill="#000000" height="1" stroke="#000000" stroke-width="1" width="239" x="534" y="314"/>
<line fill="#333399" stroke="#333399" stroke-width="1" x1="262" x2="262" y1="270" y2="265"/>
<line fill="#333399" stroke="#333399" stroke-width="1" x1="262" x2="262" y1="260" y2="255"/>
<line fill="#333399" stroke="#333399" stroke-width="1" x1="262" x2="262" y1="250" y2="245"/>
<polygon fill="#ffffff" points="262,240 269,252 255,252" stroke="#ffffff" stroke-width="1"/>
<polygon fill="none" points="262,240 269,252 255,252" stroke="#333399" stroke-width="1"/>
<text font-family="Dialog" font-size="12" x="175" y="267">
&lt;&lt;realize&gt;&gt;</text>
<line fill="#333399" stroke="#333399" stroke-width="1" x1="391" x2="391" y1="270" y2="265"/>
<line fill="#333399" stroke="#333399" stroke-width="1" x1="391" x2="391" y1="260" y2="255"/>
<line fill="#333399" stroke="#333399" stroke-width="1" x1="391" x2="391" y1="250" y2="245"/>
<polygon fill="#ffffff" points="391,240 398,252 384,252" stroke="#ffffff" stroke-width="1"/>
<polygon fill="none" points="391,240 398,252 384,252" stroke="#333399" stroke-width="1"/>
<text font-family="Dialog" font-size="12" x="304" y="267">
&lt;&lt;realize&gt;&gt;</text>
<line fill="#333399" stroke="#333399" stroke-width="1" x1="542" x2="542" y1="270" y2="265"/>
<line fill="#333399" stroke="#333399" stroke-width="1" x1="542" x2="542" y1="260" y2="255"/>
<line fill="#333399" stroke="#333399" stroke-width="1" x1="542" x2="542" y1="250" y2="245"/>
<polygon fill="#ffffff" points="542,240 549,252 535,252" stroke="#ffffff" stroke-width="1"/>
<polygon fill="none" points="542,240 549,252 535,252" stroke="#333399" stroke-width="1"/>
<text font-family="Dialog" font-size="12" x="455" y="267">
&lt;&lt;realize&gt;&gt;</text>
</svg>
