<?xml version="1.0" encoding="utf-8" standalone="no"?>
<!DOCTYPE svg PUBLIC "-//W3C//DTD SVG 1.1//EN"
  "http://www.w3.org/Graphics/SVG/1.1/DTD/svg11.dtd">
<!-- Created with matplotlib (http://matplotlib.org/) -->
<svg height="720pt" version="1.1" viewBox="0 0 864 720" width="864pt" xmlns="http://www.w3.org/2000/svg" xmlns:xlink="http://www.w3.org/1999/xlink">
 <defs>
  <style type="text/css">
*{stroke-linecap:butt;stroke-linejoin:round;}
  </style>
 </defs>
 <g id="figure_1">
  <g id="patch_1">
   <path d="
M0 720
L864 720
L864 0
L0 0
z
" style="fill:#ffffff;"/>
  </g>
  <g id="axes_1">
   <g id="patch_2">
    <path d="
M108 648
L777.6 648
L777.6 72
L108 72
z
" style="fill:#ffffff;"/>
   </g>
   <g id="patch_3">
    <path clip-path="url(#p20bdb09884)" d="
M108 648
L121.665 648
L121.665 626.88
L108 626.88
z
" style="fill:#0000ff;opacity:0.4;stroke:#000000;"/>
   </g>
   <g id="patch_4">
    <path clip-path="url(#p20bdb09884)" d="
M135.331 648
L148.996 648
L148.996 624.96
L135.331 624.96
z
" style="fill:#0000ff;opacity:0.4;stroke:#000000;"/>
   </g>
   <g id="patch_5">
    <path clip-path="url(#p20bdb09884)" d="
M162.661 648
L176.327 648
L176.327 634.56
L162.661 634.56
z
" style="fill:#0000ff;opacity:0.4;stroke:#000000;"/>
   </g>
   <g id="patch_6">
    <path clip-path="url(#p20bdb09884)" d="
M189.992 648
L203.657 648
L203.657 621.12
L189.992 621.12
z
" style="fill:#0000ff;opacity:0.4;stroke:#000000;"/>
   </g>
   <g id="patch_7">
    <path clip-path="url(#p20bdb09884)" d="
M217.322 648
L230.988 648
L230.988 613.44
L217.322 613.44
z
" style="fill:#0000ff;opacity:0.4;stroke:#000000;"/>
   </g>
   <g id="patch_8">
    <path clip-path="url(#p20bdb09884)" d="
M244.653 648
L258.318 648
L258.318 607.68
L244.653 607.68
z
" style="fill:#0000ff;opacity:0.4;stroke:#000000;"/>
   </g>
   <g id="patch_9">
    <path clip-path="url(#p20bdb09884)" d="
M271.984 648
L285.649 648
L285.649 600
L271.984 600
z
" style="fill:#0000ff;opacity:0.4;stroke:#000000;"/>
   </g>
   <g id="patch_10">
    <path clip-path="url(#p20bdb09884)" d="
M299.314 648
L312.98 648
L312.98 598.08
L299.314 598.08
z
" style="fill:#0000ff;opacity:0.4;stroke:#000000;"/>
   </g>
   <g id="patch_11">
    <path clip-path="url(#p20bdb09884)" d="
M326.645 648
L340.31 648
L340.31 600
L326.645 600
z
" style="fill:#0000ff;opacity:0.4;stroke:#000000;"/>
   </g>
   <g id="patch_12">
    <path clip-path="url(#p20bdb09884)" d="
M353.976 648
L367.641 648
L367.641 594.24
L353.976 594.24
z
" style="fill:#0000ff;opacity:0.4;stroke:#000000;"/>
   </g>
   <g id="patch_13">
    <path clip-path="url(#p20bdb09884)" d="
M381.306 648
L394.971 648
L394.971 578.88
L381.306 578.88
z
" style="fill:#0000ff;opacity:0.4;stroke:#000000;"/>
   </g>
   <g id="patch_14">
    <path clip-path="url(#p20bdb09884)" d="
M408.637 648
L422.302 648
L422.302 588.48
L408.637 588.48
z
" style="fill:#0000ff;opacity:0.4;stroke:#000000;"/>
   </g>
   <g id="patch_15">
    <path clip-path="url(#p20bdb09884)" d="
M435.967 648
L449.633 648
L449.633 582.72
L435.967 582.72
z
" style="fill:#0000ff;opacity:0.4;stroke:#000000;"/>
   </g>
   <g id="patch_16">
    <path clip-path="url(#p20bdb09884)" d="
M463.298 648
L476.963 648
L476.963 576.96
L463.298 576.96
z
" style="fill:#0000ff;opacity:0.4;stroke:#000000;"/>
   </g>
   <g id="patch_17">
    <path clip-path="url(#p20bdb09884)" d="
M490.629 648
L504.294 648
L504.294 550.08
L490.629 550.08
z
" style="fill:#0000ff;opacity:0.4;stroke:#000000;"/>
   </g>
   <g id="patch_18">
    <path clip-path="url(#p20bdb09884)" d="
M517.959 648
L531.624 648
L531.624 515.52
L517.959 515.52
z
" style="fill:#0000ff;opacity:0.4;stroke:#000000;"/>
   </g>
   <g id="patch_19">
    <path clip-path="url(#p20bdb09884)" d="
M545.29 648
L558.955 648
L558.955 547.2
L545.29 547.2
z
" style="fill:#0000ff;opacity:0.4;stroke:#000000;"/>
   </g>
   <g id="patch_20">
    <path clip-path="url(#p20bdb09884)" d="
M572.62 648
L586.286 648
L586.286 573.12
L572.62 573.12
z
" style="fill:#0000ff;opacity:0.4;stroke:#000000;"/>
   </g>
   <g id="patch_21">
    <path clip-path="url(#p20bdb09884)" d="
M599.951 648
L613.616 648
L613.616 547.2
L599.951 547.2
z
" style="fill:#0000ff;opacity:0.4;stroke:#000000;"/>
   </g>
   <g id="patch_22">
    <path clip-path="url(#p20bdb09884)" d="
M627.282 648
L640.947 648
L640.947 504
L627.282 504
z
" style="fill:#0000ff;opacity:0.4;stroke:#000000;"/>
   </g>
   <g id="patch_23">
    <path clip-path="url(#p20bdb09884)" d="
M654.612 648
L668.278 648
L668.278 561.6
L654.612 561.6
z
" style="fill:#0000ff;opacity:0.4;stroke:#000000;"/>
   </g>
   <g id="patch_24">
    <path clip-path="url(#p20bdb09884)" d="
M681.943 648
L695.608 648
L695.608 547.2
L681.943 547.2
z
" style="fill:#0000ff;opacity:0.4;stroke:#000000;"/>
   </g>
   <g id="patch_25">
    <path clip-path="url(#p20bdb09884)" d="
M709.273 648
L722.939 648
L722.939 509.76
L709.273 509.76
z
" style="fill:#0000ff;opacity:0.4;stroke:#000000;"/>
   </g>
   <g id="patch_26">
    <path clip-path="url(#p20bdb09884)" d="
M736.604 648
L750.269 648
L750.269 527.04
L736.604 527.04
z
" style="fill:#0000ff;opacity:0.4;stroke:#000000;"/>
   </g>
   <g id="patch_27">
    <path clip-path="url(#p20bdb09884)" d="
M763.935 648
L777.6 648
L777.6 518.4
L763.935 518.4
z
" style="fill:#0000ff;opacity:0.4;stroke:#000000;"/>
   </g>
   <g id="matplotlib.axis_1">
    <g id="xtick_1">
     <g id="line2d_1">
      <defs>
       <path d="
M0 0
L0 -4" id="m93b0483c22" style="stroke:#000000;stroke-width:0.5;"/>
      </defs>
      <g>
       <use style="stroke:#000000;stroke-width:0.5;" x="114.832653061" xlink:href="#m93b0483c22" y="648.0"/>
      </g>
     </g>
     <g id="line2d_2">
      <defs>
       <path d="
M0 0
L0 4" id="m741efc42ff" style="stroke:#000000;stroke-width:0.5;"/>
      </defs>
      <g>
       <use style="stroke:#000000;stroke-width:0.5;" x="114.832653061" xlink:href="#m741efc42ff" y="72.0"/>
      </g>
     </g>
     <g id="text_1">
      <!-- C:50/P:50 -->
      <defs>
       <path d="
M31.7812 66.4062
Q24.1719 66.4062 20.3281 58.9062
Q16.5 51.4219 16.5 36.375
Q16.5 21.3906 20.3281 13.8906
Q24.1719 6.39062 31.7812 6.39062
Q39.4531 6.39062 43.2812 13.8906
Q47.125 21.3906 47.125 36.375
Q47.125 51.4219 43.2812 58.9062
Q39.4531 66.4062 31.7812 66.4062
M31.7812 74.2188
Q44.0469 74.2188 50.5156 64.5156
Q56.9844 54.8281 56.9844 36.375
Q56.9844 17.9688 50.5156 8.26562
Q44.0469 -1.42188 31.7812 -1.42188
Q19.5312 -1.42188 13.0625 8.26562
Q6.59375 17.9688 6.59375 36.375
Q6.59375 54.8281 13.0625 64.5156
Q19.5312 74.2188 31.7812 74.2188" id="BitstreamVeraSans-Roman-30"/>
       <path d="
M10.7969 72.9062
L49.5156 72.9062
L49.5156 64.5938
L19.8281 64.5938
L19.8281 46.7344
Q21.9688 47.4688 24.1094 47.8281
Q26.2656 48.1875 28.4219 48.1875
Q40.625 48.1875 47.75 41.5
Q54.8906 34.8125 54.8906 23.3906
Q54.8906 11.625 47.5625 5.09375
Q40.2344 -1.42188 26.9062 -1.42188
Q22.3125 -1.42188 17.5469 -0.640625
Q12.7969 0.140625 7.71875 1.70312
L7.71875 11.625
Q12.1094 9.23438 16.7969 8.0625
Q21.4844 6.89062 26.7031 6.89062
Q35.1562 6.89062 40.0781 11.3281
Q45.0156 15.7656 45.0156 23.3906
Q45.0156 31 40.0781 35.4375
Q35.1562 39.8906 26.7031 39.8906
Q22.75 39.8906 18.8125 39.0156
Q14.8906 38.1406 10.7969 36.2812
z
" id="BitstreamVeraSans-Roman-35"/>
       <path d="
M19.6719 64.7969
L19.6719 37.4062
L32.0781 37.4062
Q38.9688 37.4062 42.7188 40.9688
Q46.4844 44.5312 46.4844 51.125
Q46.4844 57.6719 42.7188 61.2344
Q38.9688 64.7969 32.0781 64.7969
z

M9.8125 72.9062
L32.0781 72.9062
Q44.3438 72.9062 50.6094 67.3594
Q56.8906 61.8125 56.8906 51.125
Q56.8906 40.3281 50.6094 34.8125
Q44.3438 29.2969 32.0781 29.2969
L19.6719 29.2969
L19.6719 0
L9.8125 0
z
" id="BitstreamVeraSans-Roman-50"/>
       <path d="
M11.7188 12.4062
L22.0156 12.4062
L22.0156 0
L11.7188 0
z

M11.7188 51.7031
L22.0156 51.7031
L22.0156 39.3125
L11.7188 39.3125
z
" id="BitstreamVeraSans-Roman-3a"/>
       <path d="
M64.4062 67.2812
L64.4062 56.8906
Q59.4219 61.5312 53.7812 63.8125
Q48.1406 66.1094 41.7969 66.1094
Q29.2969 66.1094 22.6562 58.4688
Q16.0156 50.8281 16.0156 36.375
Q16.0156 21.9688 22.6562 14.3281
Q29.2969 6.6875 41.7969 6.6875
Q48.1406 6.6875 53.7812 8.98438
Q59.4219 11.2812 64.4062 15.9219
L64.4062 5.60938
Q59.2344 2.09375 53.4375 0.328125
Q47.6562 -1.42188 41.2188 -1.42188
Q24.6562 -1.42188 15.125 8.70312
Q5.60938 18.8438 5.60938 36.375
Q5.60938 53.9531 15.125 64.0781
Q24.6562 74.2188 41.2188 74.2188
Q47.75 74.2188 53.5312 72.4844
Q59.3281 70.75 64.4062 67.2812" id="BitstreamVeraSans-Roman-43"/>
       <path d="
M25.3906 72.9062
L33.6875 72.9062
L8.29688 -9.28125
L0 -9.28125
z
" id="BitstreamVeraSans-Roman-2f"/>
      </defs>
      <g transform="translate(117.590924311 699.3248125)rotate(-90.0)scale(0.09996 -0.09996)">
       <use xlink:href="#BitstreamVeraSans-Roman-43"/>
       <use x="69.82421875" xlink:href="#BitstreamVeraSans-Roman-3a"/>
       <use x="103.515625" xlink:href="#BitstreamVeraSans-Roman-35"/>
       <use x="167.138671875" xlink:href="#BitstreamVeraSans-Roman-30"/>
       <use x="230.76171875" xlink:href="#BitstreamVeraSans-Roman-2f"/>
       <use x="264.453125" xlink:href="#BitstreamVeraSans-Roman-50"/>
       <use x="324.755859375" xlink:href="#BitstreamVeraSans-Roman-3a"/>
       <use x="358.447265625" xlink:href="#BitstreamVeraSans-Roman-35"/>
       <use x="422.0703125" xlink:href="#BitstreamVeraSans-Roman-30"/>
      </g>
     </g>
    </g>
    <g id="xtick_2">
     <g id="line2d_3">
      <g>
       <use style="stroke:#000000;stroke-width:0.5;" x="142.163265306" xlink:href="#m93b0483c22" y="648.0"/>
      </g>
     </g>
     <g id="line2d_4">
      <g>
       <use style="stroke:#000000;stroke-width:0.5;" x="142.163265306" xlink:href="#m741efc42ff" y="72.0"/>
      </g>
     </g>
     <g id="text_2">
      <!-- C:50/P:100 -->
      <defs>
       <path d="
M12.4062 8.29688
L28.5156 8.29688
L28.5156 63.9219
L10.9844 60.4062
L10.9844 69.3906
L28.4219 72.9062
L38.2812 72.9062
L38.2812 8.29688
L54.3906 8.29688
L54.3906 0
L12.4062 0
z
" id="BitstreamVeraSans-Roman-31"/>
      </defs>
      <g transform="translate(144.921536556 705.6847675)rotate(-90.0)scale(0.09996 -0.09996)">
       <use xlink:href="#BitstreamVeraSans-Roman-43"/>
       <use x="69.82421875" xlink:href="#BitstreamVeraSans-Roman-3a"/>
       <use x="103.515625" xlink:href="#BitstreamVeraSans-Roman-35"/>
       <use x="167.138671875" xlink:href="#BitstreamVeraSans-Roman-30"/>
       <use x="230.76171875" xlink:href="#BitstreamVeraSans-Roman-2f"/>
       <use x="264.453125" xlink:href="#BitstreamVeraSans-Roman-50"/>
       <use x="324.755859375" xlink:href="#BitstreamVeraSans-Roman-3a"/>
       <use x="358.447265625" xlink:href="#BitstreamVeraSans-Roman-31"/>
       <use x="422.0703125" xlink:href="#BitstreamVeraSans-Roman-30"/>
       <use x="485.693359375" xlink:href="#BitstreamVeraSans-Roman-30"/>
      </g>
     </g>
    </g>
    <g id="xtick_3">
     <g id="line2d_5">
      <g>
       <use style="stroke:#000000;stroke-width:0.5;" x="169.493877551" xlink:href="#m93b0483c22" y="648.0"/>
      </g>
     </g>
     <g id="line2d_6">
      <g>
       <use style="stroke:#000000;stroke-width:0.5;" x="169.493877551" xlink:href="#m741efc42ff" y="72.0"/>
      </g>
     </g>
     <g id="text_3">
      <!-- C:50/P:150 -->
      <g transform="translate(172.252148801 705.6847675)rotate(-90.0)scale(0.09996 -0.09996)">
       <use xlink:href="#BitstreamVeraSans-Roman-43"/>
       <use x="69.82421875" xlink:href="#BitstreamVeraSans-Roman-3a"/>
       <use x="103.515625" xlink:href="#BitstreamVeraSans-Roman-35"/>
       <use x="167.138671875" xlink:href="#BitstreamVeraSans-Roman-30"/>
       <use x="230.76171875" xlink:href="#BitstreamVeraSans-Roman-2f"/>
       <use x="264.453125" xlink:href="#BitstreamVeraSans-Roman-50"/>
       <use x="324.755859375" xlink:href="#BitstreamVeraSans-Roman-3a"/>
       <use x="358.447265625" xlink:href="#BitstreamVeraSans-Roman-31"/>
       <use x="422.0703125" xlink:href="#BitstreamVeraSans-Roman-35"/>
       <use x="485.693359375" xlink:href="#BitstreamVeraSans-Roman-30"/>
      </g>
     </g>
    </g>
    <g id="xtick_4">
     <g id="line2d_7">
      <g>
       <use style="stroke:#000000;stroke-width:0.5;" x="196.824489796" xlink:href="#m93b0483c22" y="648.0"/>
      </g>
     </g>
     <g id="line2d_8">
      <g>
       <use style="stroke:#000000;stroke-width:0.5;" x="196.824489796" xlink:href="#m741efc42ff" y="72.0"/>
      </g>
     </g>
     <g id="text_4">
      <!-- C:50/P:200 -->
      <defs>
       <path d="
M19.1875 8.29688
L53.6094 8.29688
L53.6094 0
L7.32812 0
L7.32812 8.29688
Q12.9375 14.1094 22.625 23.8906
Q32.3281 33.6875 34.8125 36.5312
Q39.5469 41.8438 41.4219 45.5312
Q43.3125 49.2188 43.3125 52.7812
Q43.3125 58.5938 39.2344 62.25
Q35.1562 65.9219 28.6094 65.9219
Q23.9688 65.9219 18.8125 64.3125
Q13.6719 62.7031 7.8125 59.4219
L7.8125 69.3906
Q13.7656 71.7812 18.9375 73
Q24.125 74.2188 28.4219 74.2188
Q39.75 74.2188 46.4844 68.5469
Q53.2188 62.8906 53.2188 53.4219
Q53.2188 48.9219 51.5312 44.8906
Q49.8594 40.875 45.4062 35.4062
Q44.1875 33.9844 37.6406 27.2188
Q31.1094 20.4531 19.1875 8.29688" id="BitstreamVeraSans-Roman-32"/>
      </defs>
      <g transform="translate(199.582761046 705.6847675)rotate(-90.0)scale(0.09996 -0.09996)">
       <use xlink:href="#BitstreamVeraSans-Roman-43"/>
       <use x="69.82421875" xlink:href="#BitstreamVeraSans-Roman-3a"/>
       <use x="103.515625" xlink:href="#BitstreamVeraSans-Roman-35"/>
       <use x="167.138671875" xlink:href="#BitstreamVeraSans-Roman-30"/>
       <use x="230.76171875" xlink:href="#BitstreamVeraSans-Roman-2f"/>
       <use x="264.453125" xlink:href="#BitstreamVeraSans-Roman-50"/>
       <use x="324.755859375" xlink:href="#BitstreamVeraSans-Roman-3a"/>
       <use x="358.447265625" xlink:href="#BitstreamVeraSans-Roman-32"/>
       <use x="422.0703125" xlink:href="#BitstreamVeraSans-Roman-30"/>
       <use x="485.693359375" xlink:href="#BitstreamVeraSans-Roman-30"/>
      </g>
     </g>
    </g>
    <g id="xtick_5">
     <g id="line2d_9">
      <g>
       <use style="stroke:#000000;stroke-width:0.5;" x="224.155102041" xlink:href="#m93b0483c22" y="648.0"/>
      </g>
     </g>
     <g id="line2d_10">
      <g>
       <use style="stroke:#000000;stroke-width:0.5;" x="224.155102041" xlink:href="#m741efc42ff" y="72.0"/>
      </g>
     </g>
     <g id="text_5">
      <!-- C:50/P:250 -->
      <g transform="translate(226.913373291 705.6847675)rotate(-90.0)scale(0.09996 -0.09996)">
       <use xlink:href="#BitstreamVeraSans-Roman-43"/>
       <use x="69.82421875" xlink:href="#BitstreamVeraSans-Roman-3a"/>
       <use x="103.515625" xlink:href="#BitstreamVeraSans-Roman-35"/>
       <use x="167.138671875" xlink:href="#BitstreamVeraSans-Roman-30"/>
       <use x="230.76171875" xlink:href="#BitstreamVeraSans-Roman-2f"/>
       <use x="264.453125" xlink:href="#BitstreamVeraSans-Roman-50"/>
       <use x="324.755859375" xlink:href="#BitstreamVeraSans-Roman-3a"/>
       <use x="358.447265625" xlink:href="#BitstreamVeraSans-Roman-32"/>
       <use x="422.0703125" xlink:href="#BitstreamVeraSans-Roman-35"/>
       <use x="485.693359375" xlink:href="#BitstreamVeraSans-Roman-30"/>
      </g>
     </g>
    </g>
    <g id="xtick_6">
     <g id="line2d_11">
      <g>
       <use style="stroke:#000000;stroke-width:0.5;" x="251.485714286" xlink:href="#m93b0483c22" y="648.0"/>
      </g>
     </g>
     <g id="line2d_12">
      <g>
       <use style="stroke:#000000;stroke-width:0.5;" x="251.485714286" xlink:href="#m741efc42ff" y="72.0"/>
      </g>
     </g>
     <g id="text_6">
      <!-- C:100/P:50 -->
      <g transform="translate(254.243985536 705.6847675)rotate(-90.0)scale(0.09996 -0.09996)">
       <use xlink:href="#BitstreamVeraSans-Roman-43"/>
       <use x="69.82421875" xlink:href="#BitstreamVeraSans-Roman-3a"/>
       <use x="103.515625" xlink:href="#BitstreamVeraSans-Roman-31"/>
       <use x="167.138671875" xlink:href="#BitstreamVeraSans-Roman-30"/>
       <use x="230.76171875" xlink:href="#BitstreamVeraSans-Roman-30"/>
       <use x="294.384765625" xlink:href="#BitstreamVeraSans-Roman-2f"/>
       <use x="328.076171875" xlink:href="#BitstreamVeraSans-Roman-50"/>
       <use x="388.37890625" xlink:href="#BitstreamVeraSans-Roman-3a"/>
       <use x="422.0703125" xlink:href="#BitstreamVeraSans-Roman-35"/>
       <use x="485.693359375" xlink:href="#BitstreamVeraSans-Roman-30"/>
      </g>
     </g>
    </g>
    <g id="xtick_7">
     <g id="line2d_13">
      <g>
       <use style="stroke:#000000;stroke-width:0.5;" x="278.816326531" xlink:href="#m93b0483c22" y="648.0"/>
      </g>
     </g>
     <g id="line2d_14">
      <g>
       <use style="stroke:#000000;stroke-width:0.5;" x="278.816326531" xlink:href="#m741efc42ff" y="72.0"/>
      </g>
     </g>
     <g id="text_7">
      <!-- C:100/P:100 -->
      <g transform="translate(281.574597781 712.0447225)rotate(-90.0)scale(0.09996 -0.09996)">
       <use xlink:href="#BitstreamVeraSans-Roman-43"/>
       <use x="69.82421875" xlink:href="#BitstreamVeraSans-Roman-3a"/>
       <use x="103.515625" xlink:href="#BitstreamVeraSans-Roman-31"/>
       <use x="167.138671875" xlink:href="#BitstreamVeraSans-Roman-30"/>
       <use x="230.76171875" xlink:href="#BitstreamVeraSans-Roman-30"/>
       <use x="294.384765625" xlink:href="#BitstreamVeraSans-Roman-2f"/>
       <use x="328.076171875" xlink:href="#BitstreamVeraSans-Roman-50"/>
       <use x="388.37890625" xlink:href="#BitstreamVeraSans-Roman-3a"/>
       <use x="422.0703125" xlink:href="#BitstreamVeraSans-Roman-31"/>
       <use x="485.693359375" xlink:href="#BitstreamVeraSans-Roman-30"/>
       <use x="549.31640625" xlink:href="#BitstreamVeraSans-Roman-30"/>
      </g>
     </g>
    </g>
    <g id="xtick_8">
     <g id="line2d_15">
      <g>
       <use style="stroke:#000000;stroke-width:0.5;" x="306.146938776" xlink:href="#m93b0483c22" y="648.0"/>
      </g>
     </g>
     <g id="line2d_16">
      <g>
       <use style="stroke:#000000;stroke-width:0.5;" x="306.146938776" xlink:href="#m741efc42ff" y="72.0"/>
      </g>
     </g>
     <g id="text_8">
      <!-- C:100/P:150 -->
      <g transform="translate(308.905210026 712.0447225)rotate(-90.0)scale(0.09996 -0.09996)">
       <use xlink:href="#BitstreamVeraSans-Roman-43"/>
       <use x="69.82421875" xlink:href="#BitstreamVeraSans-Roman-3a"/>
       <use x="103.515625" xlink:href="#BitstreamVeraSans-Roman-31"/>
       <use x="167.138671875" xlink:href="#BitstreamVeraSans-Roman-30"/>
       <use x="230.76171875" xlink:href="#BitstreamVeraSans-Roman-30"/>
       <use x="294.384765625" xlink:href="#BitstreamVeraSans-Roman-2f"/>
       <use x="328.076171875" xlink:href="#BitstreamVeraSans-Roman-50"/>
       <use x="388.37890625" xlink:href="#BitstreamVeraSans-Roman-3a"/>
       <use x="422.0703125" xlink:href="#BitstreamVeraSans-Roman-31"/>
       <use x="485.693359375" xlink:href="#BitstreamVeraSans-Roman-35"/>
       <use x="549.31640625" xlink:href="#BitstreamVeraSans-Roman-30"/>
      </g>
     </g>
    </g>
    <g id="xtick_9">
     <g id="line2d_17">
      <g>
       <use style="stroke:#000000;stroke-width:0.5;" x="333.47755102" xlink:href="#m93b0483c22" y="648.0"/>
      </g>
     </g>
     <g id="line2d_18">
      <g>
       <use style="stroke:#000000;stroke-width:0.5;" x="333.47755102" xlink:href="#m741efc42ff" y="72.0"/>
      </g>
     </g>
     <g id="text_9">
      <!-- C:100/P:200 -->
      <g transform="translate(336.23582227 712.0447225)rotate(-90.0)scale(0.09996 -0.09996)">
       <use xlink:href="#BitstreamVeraSans-Roman-43"/>
       <use x="69.82421875" xlink:href="#BitstreamVeraSans-Roman-3a"/>
       <use x="103.515625" xlink:href="#BitstreamVeraSans-Roman-31"/>
       <use x="167.138671875" xlink:href="#BitstreamVeraSans-Roman-30"/>
       <use x="230.76171875" xlink:href="#BitstreamVeraSans-Roman-30"/>
       <use x="294.384765625" xlink:href="#BitstreamVeraSans-Roman-2f"/>
       <use x="328.076171875" xlink:href="#BitstreamVeraSans-Roman-50"/>
       <use x="388.37890625" xlink:href="#BitstreamVeraSans-Roman-3a"/>
       <use x="422.0703125" xlink:href="#BitstreamVeraSans-Roman-32"/>
       <use x="485.693359375" xlink:href="#BitstreamVeraSans-Roman-30"/>
       <use x="549.31640625" xlink:href="#BitstreamVeraSans-Roman-30"/>
      </g>
     </g>
    </g>
    <g id="xtick_10">
     <g id="line2d_19">
      <g>
       <use style="stroke:#000000;stroke-width:0.5;" x="360.808163265" xlink:href="#m93b0483c22" y="648.0"/>
      </g>
     </g>
     <g id="line2d_20">
      <g>
       <use style="stroke:#000000;stroke-width:0.5;" x="360.808163265" xlink:href="#m741efc42ff" y="72.0"/>
      </g>
     </g>
     <g id="text_10">
      <!-- C:100/P:250 -->
      <g transform="translate(363.566434515 712.0447225)rotate(-90.0)scale(0.09996 -0.09996)">
       <use xlink:href="#BitstreamVeraSans-Roman-43"/>
       <use x="69.82421875" xlink:href="#BitstreamVeraSans-Roman-3a"/>
       <use x="103.515625" xlink:href="#BitstreamVeraSans-Roman-31"/>
       <use x="167.138671875" xlink:href="#BitstreamVeraSans-Roman-30"/>
       <use x="230.76171875" xlink:href="#BitstreamVeraSans-Roman-30"/>
       <use x="294.384765625" xlink:href="#BitstreamVeraSans-Roman-2f"/>
       <use x="328.076171875" xlink:href="#BitstreamVeraSans-Roman-50"/>
       <use x="388.37890625" xlink:href="#BitstreamVeraSans-Roman-3a"/>
       <use x="422.0703125" xlink:href="#BitstreamVeraSans-Roman-32"/>
       <use x="485.693359375" xlink:href="#BitstreamVeraSans-Roman-35"/>
       <use x="549.31640625" xlink:href="#BitstreamVeraSans-Roman-30"/>
      </g>
     </g>
    </g>
    <g id="xtick_11">
     <g id="line2d_21">
      <g>
       <use style="stroke:#000000;stroke-width:0.5;" x="388.13877551" xlink:href="#m93b0483c22" y="648.0"/>
      </g>
     </g>
     <g id="line2d_22">
      <g>
       <use style="stroke:#000000;stroke-width:0.5;" x="388.13877551" xlink:href="#m741efc42ff" y="72.0"/>
      </g>
     </g>
     <g id="text_11">
      <!-- C:150/P:50 -->
      <g transform="translate(390.89704676 705.6847675)rotate(-90.0)scale(0.09996 -0.09996)">
       <use xlink:href="#BitstreamVeraSans-Roman-43"/>
       <use x="69.82421875" xlink:href="#BitstreamVeraSans-Roman-3a"/>
       <use x="103.515625" xlink:href="#BitstreamVeraSans-Roman-31"/>
       <use x="167.138671875" xlink:href="#BitstreamVeraSans-Roman-35"/>
       <use x="230.76171875" xlink:href="#BitstreamVeraSans-Roman-30"/>
       <use x="294.384765625" xlink:href="#BitstreamVeraSans-Roman-2f"/>
       <use x="328.076171875" xlink:href="#BitstreamVeraSans-Roman-50"/>
       <use x="388.37890625" xlink:href="#BitstreamVeraSans-Roman-3a"/>
       <use x="422.0703125" xlink:href="#BitstreamVeraSans-Roman-35"/>
       <use x="485.693359375" xlink:href="#BitstreamVeraSans-Roman-30"/>
      </g>
     </g>
    </g>
    <g id="xtick_12">
     <g id="line2d_23">
      <g>
       <use style="stroke:#000000;stroke-width:0.5;" x="415.469387755" xlink:href="#m93b0483c22" y="648.0"/>
      </g>
     </g>
     <g id="line2d_24">
      <g>
       <use style="stroke:#000000;stroke-width:0.5;" x="415.469387755" xlink:href="#m741efc42ff" y="72.0"/>
      </g>
     </g>
     <g id="text_12">
      <!-- C:150/P:100 -->
      <g transform="translate(418.227659005 712.0447225)rotate(-90.0)scale(0.09996 -0.09996)">
       <use xlink:href="#BitstreamVeraSans-Roman-43"/>
       <use x="69.82421875" xlink:href="#BitstreamVeraSans-Roman-3a"/>
       <use x="103.515625" xlink:href="#BitstreamVeraSans-Roman-31"/>
       <use x="167.138671875" xlink:href="#BitstreamVeraSans-Roman-35"/>
       <use x="230.76171875" xlink:href="#BitstreamVeraSans-Roman-30"/>
       <use x="294.384765625" xlink:href="#BitstreamVeraSans-Roman-2f"/>
       <use x="328.076171875" xlink:href="#BitstreamVeraSans-Roman-50"/>
       <use x="388.37890625" xlink:href="#BitstreamVeraSans-Roman-3a"/>
       <use x="422.0703125" xlink:href="#BitstreamVeraSans-Roman-31"/>
       <use x="485.693359375" xlink:href="#BitstreamVeraSans-Roman-30"/>
       <use x="549.31640625" xlink:href="#BitstreamVeraSans-Roman-30"/>
      </g>
     </g>
    </g>
    <g id="xtick_13">
     <g id="line2d_25">
      <g>
       <use style="stroke:#000000;stroke-width:0.5;" x="442.8" xlink:href="#m93b0483c22" y="648.0"/>
      </g>
     </g>
     <g id="line2d_26">
      <g>
       <use style="stroke:#000000;stroke-width:0.5;" x="442.8" xlink:href="#m741efc42ff" y="72.0"/>
      </g>
     </g>
     <g id="text_13">
      <!-- C:150/P:150 -->
      <g transform="translate(445.55827125 712.0447225)rotate(-90.0)scale(0.09996 -0.09996)">
       <use xlink:href="#BitstreamVeraSans-Roman-43"/>
       <use x="69.82421875" xlink:href="#BitstreamVeraSans-Roman-3a"/>
       <use x="103.515625" xlink:href="#BitstreamVeraSans-Roman-31"/>
       <use x="167.138671875" xlink:href="#BitstreamVeraSans-Roman-35"/>
       <use x="230.76171875" xlink:href="#BitstreamVeraSans-Roman-30"/>
       <use x="294.384765625" xlink:href="#BitstreamVeraSans-Roman-2f"/>
       <use x="328.076171875" xlink:href="#BitstreamVeraSans-Roman-50"/>
       <use x="388.37890625" xlink:href="#BitstreamVeraSans-Roman-3a"/>
       <use x="422.0703125" xlink:href="#BitstreamVeraSans-Roman-31"/>
       <use x="485.693359375" xlink:href="#BitstreamVeraSans-Roman-35"/>
       <use x="549.31640625" xlink:href="#BitstreamVeraSans-Roman-30"/>
      </g>
     </g>
    </g>
    <g id="xtick_14">
     <g id="line2d_27">
      <g>
       <use style="stroke:#000000;stroke-width:0.5;" x="470.130612245" xlink:href="#m93b0483c22" y="648.0"/>
      </g>
     </g>
     <g id="line2d_28">
      <g>
       <use style="stroke:#000000;stroke-width:0.5;" x="470.130612245" xlink:href="#m741efc42ff" y="72.0"/>
      </g>
     </g>
     <g id="text_14">
      <!-- C:150/P:200 -->
      <g transform="translate(472.888883495 712.0447225)rotate(-90.0)scale(0.09996 -0.09996)">
       <use xlink:href="#BitstreamVeraSans-Roman-43"/>
       <use x="69.82421875" xlink:href="#BitstreamVeraSans-Roman-3a"/>
       <use x="103.515625" xlink:href="#BitstreamVeraSans-Roman-31"/>
       <use x="167.138671875" xlink:href="#BitstreamVeraSans-Roman-35"/>
       <use x="230.76171875" xlink:href="#BitstreamVeraSans-Roman-30"/>
       <use x="294.384765625" xlink:href="#BitstreamVeraSans-Roman-2f"/>
       <use x="328.076171875" xlink:href="#BitstreamVeraSans-Roman-50"/>
       <use x="388.37890625" xlink:href="#BitstreamVeraSans-Roman-3a"/>
       <use x="422.0703125" xlink:href="#BitstreamVeraSans-Roman-32"/>
       <use x="485.693359375" xlink:href="#BitstreamVeraSans-Roman-30"/>
       <use x="549.31640625" xlink:href="#BitstreamVeraSans-Roman-30"/>
      </g>
     </g>
    </g>
    <g id="xtick_15">
     <g id="line2d_29">
      <g>
       <use style="stroke:#000000;stroke-width:0.5;" x="497.46122449" xlink:href="#m93b0483c22" y="648.0"/>
      </g>
     </g>
     <g id="line2d_30">
      <g>
       <use style="stroke:#000000;stroke-width:0.5;" x="497.46122449" xlink:href="#m741efc42ff" y="72.0"/>
      </g>
     </g>
     <g id="text_15">
      <!-- C:150/P:250 -->
      <g transform="translate(500.21949574 712.0447225)rotate(-90.0)scale(0.09996 -0.09996)">
       <use xlink:href="#BitstreamVeraSans-Roman-43"/>
       <use x="69.82421875" xlink:href="#BitstreamVeraSans-Roman-3a"/>
       <use x="103.515625" xlink:href="#BitstreamVeraSans-Roman-31"/>
       <use x="167.138671875" xlink:href="#BitstreamVeraSans-Roman-35"/>
       <use x="230.76171875" xlink:href="#BitstreamVeraSans-Roman-30"/>
       <use x="294.384765625" xlink:href="#BitstreamVeraSans-Roman-2f"/>
       <use x="328.076171875" xlink:href="#BitstreamVeraSans-Roman-50"/>
       <use x="388.37890625" xlink:href="#BitstreamVeraSans-Roman-3a"/>
       <use x="422.0703125" xlink:href="#BitstreamVeraSans-Roman-32"/>
       <use x="485.693359375" xlink:href="#BitstreamVeraSans-Roman-35"/>
       <use x="549.31640625" xlink:href="#BitstreamVeraSans-Roman-30"/>
      </g>
     </g>
    </g>
    <g id="xtick_16">
     <g id="line2d_31">
      <g>
       <use style="stroke:#000000;stroke-width:0.5;" x="524.791836735" xlink:href="#m93b0483c22" y="648.0"/>
      </g>
     </g>
     <g id="line2d_32">
      <g>
       <use style="stroke:#000000;stroke-width:0.5;" x="524.791836735" xlink:href="#m741efc42ff" y="72.0"/>
      </g>
     </g>
     <g id="text_16">
      <!-- C:200/P:50 -->
      <g transform="translate(527.550107985 705.6847675)rotate(-90.0)scale(0.09996 -0.09996)">
       <use xlink:href="#BitstreamVeraSans-Roman-43"/>
       <use x="69.82421875" xlink:href="#BitstreamVeraSans-Roman-3a"/>
       <use x="103.515625" xlink:href="#BitstreamVeraSans-Roman-32"/>
       <use x="167.138671875" xlink:href="#BitstreamVeraSans-Roman-30"/>
       <use x="230.76171875" xlink:href="#BitstreamVeraSans-Roman-30"/>
       <use x="294.384765625" xlink:href="#BitstreamVeraSans-Roman-2f"/>
       <use x="328.076171875" xlink:href="#BitstreamVeraSans-Roman-50"/>
       <use x="388.37890625" xlink:href="#BitstreamVeraSans-Roman-3a"/>
       <use x="422.0703125" xlink:href="#BitstreamVeraSans-Roman-35"/>
       <use x="485.693359375" xlink:href="#BitstreamVeraSans-Roman-30"/>
      </g>
     </g>
    </g>
    <g id="xtick_17">
     <g id="line2d_33">
      <g>
       <use style="stroke:#000000;stroke-width:0.5;" x="552.12244898" xlink:href="#m93b0483c22" y="648.0"/>
      </g>
     </g>
     <g id="line2d_34">
      <g>
       <use style="stroke:#000000;stroke-width:0.5;" x="552.12244898" xlink:href="#m741efc42ff" y="72.0"/>
      </g>
     </g>
     <g id="text_17">
      <!-- C:200/P:100 -->
      <g transform="translate(554.88072023 712.0447225)rotate(-90.0)scale(0.09996 -0.09996)">
       <use xlink:href="#BitstreamVeraSans-Roman-43"/>
       <use x="69.82421875" xlink:href="#BitstreamVeraSans-Roman-3a"/>
       <use x="103.515625" xlink:href="#BitstreamVeraSans-Roman-32"/>
       <use x="167.138671875" xlink:href="#BitstreamVeraSans-Roman-30"/>
       <use x="230.76171875" xlink:href="#BitstreamVeraSans-Roman-30"/>
       <use x="294.384765625" xlink:href="#BitstreamVeraSans-Roman-2f"/>
       <use x="328.076171875" xlink:href="#BitstreamVeraSans-Roman-50"/>
       <use x="388.37890625" xlink:href="#BitstreamVeraSans-Roman-3a"/>
       <use x="422.0703125" xlink:href="#BitstreamVeraSans-Roman-31"/>
       <use x="485.693359375" xlink:href="#BitstreamVeraSans-Roman-30"/>
       <use x="549.31640625" xlink:href="#BitstreamVeraSans-Roman-30"/>
      </g>
     </g>
    </g>
    <g id="xtick_18">
     <g id="line2d_35">
      <g>
       <use style="stroke:#000000;stroke-width:0.5;" x="579.453061224" xlink:href="#m93b0483c22" y="648.0"/>
      </g>
     </g>
     <g id="line2d_36">
      <g>
       <use style="stroke:#000000;stroke-width:0.5;" x="579.453061224" xlink:href="#m741efc42ff" y="72.0"/>
      </g>
     </g>
     <g id="text_18">
      <!-- C:200/P:150 -->
      <g transform="translate(582.211332474 712.0447225)rotate(-90.0)scale(0.09996 -0.09996)">
       <use xlink:href="#BitstreamVeraSans-Roman-43"/>
       <use x="69.82421875" xlink:href="#BitstreamVeraSans-Roman-3a"/>
       <use x="103.515625" xlink:href="#BitstreamVeraSans-Roman-32"/>
       <use x="167.138671875" xlink:href="#BitstreamVeraSans-Roman-30"/>
       <use x="230.76171875" xlink:href="#BitstreamVeraSans-Roman-30"/>
       <use x="294.384765625" xlink:href="#BitstreamVeraSans-Roman-2f"/>
       <use x="328.076171875" xlink:href="#BitstreamVeraSans-Roman-50"/>
       <use x="388.37890625" xlink:href="#BitstreamVeraSans-Roman-3a"/>
       <use x="422.0703125" xlink:href="#BitstreamVeraSans-Roman-31"/>
       <use x="485.693359375" xlink:href="#BitstreamVeraSans-Roman-35"/>
       <use x="549.31640625" xlink:href="#BitstreamVeraSans-Roman-30"/>
      </g>
     </g>
    </g>
    <g id="xtick_19">
     <g id="line2d_37">
      <g>
       <use style="stroke:#000000;stroke-width:0.5;" x="606.783673469" xlink:href="#m93b0483c22" y="648.0"/>
      </g>
     </g>
     <g id="line2d_38">
      <g>
       <use style="stroke:#000000;stroke-width:0.5;" x="606.783673469" xlink:href="#m741efc42ff" y="72.0"/>
      </g>
     </g>
     <g id="text_19">
      <!-- C:200/P:200 -->
      <g transform="translate(609.541944719 712.0447225)rotate(-90.0)scale(0.09996 -0.09996)">
       <use xlink:href="#BitstreamVeraSans-Roman-43"/>
       <use x="69.82421875" xlink:href="#BitstreamVeraSans-Roman-3a"/>
       <use x="103.515625" xlink:href="#BitstreamVeraSans-Roman-32"/>
       <use x="167.138671875" xlink:href="#BitstreamVeraSans-Roman-30"/>
       <use x="230.76171875" xlink:href="#BitstreamVeraSans-Roman-30"/>
       <use x="294.384765625" xlink:href="#BitstreamVeraSans-Roman-2f"/>
       <use x="328.076171875" xlink:href="#BitstreamVeraSans-Roman-50"/>
       <use x="388.37890625" xlink:href="#BitstreamVeraSans-Roman-3a"/>
       <use x="422.0703125" xlink:href="#BitstreamVeraSans-Roman-32"/>
       <use x="485.693359375" xlink:href="#BitstreamVeraSans-Roman-30"/>
       <use x="549.31640625" xlink:href="#BitstreamVeraSans-Roman-30"/>
      </g>
     </g>
    </g>
    <g id="xtick_20">
     <g id="line2d_39">
      <g>
       <use style="stroke:#000000;stroke-width:0.5;" x="634.114285714" xlink:href="#m93b0483c22" y="648.0"/>
      </g>
     </g>
     <g id="line2d_40">
      <g>
       <use style="stroke:#000000;stroke-width:0.5;" x="634.114285714" xlink:href="#m741efc42ff" y="72.0"/>
      </g>
     </g>
     <g id="text_20">
      <!-- C:200/P:250 -->
      <g transform="translate(636.872556964 712.0447225)rotate(-90.0)scale(0.09996 -0.09996)">
       <use xlink:href="#BitstreamVeraSans-Roman-43"/>
       <use x="69.82421875" xlink:href="#BitstreamVeraSans-Roman-3a"/>
       <use x="103.515625" xlink:href="#BitstreamVeraSans-Roman-32"/>
       <use x="167.138671875" xlink:href="#BitstreamVeraSans-Roman-30"/>
       <use x="230.76171875" xlink:href="#BitstreamVeraSans-Roman-30"/>
       <use x="294.384765625" xlink:href="#BitstreamVeraSans-Roman-2f"/>
       <use x="328.076171875" xlink:href="#BitstreamVeraSans-Roman-50"/>
       <use x="388.37890625" xlink:href="#BitstreamVeraSans-Roman-3a"/>
       <use x="422.0703125" xlink:href="#BitstreamVeraSans-Roman-32"/>
       <use x="485.693359375" xlink:href="#BitstreamVeraSans-Roman-35"/>
       <use x="549.31640625" xlink:href="#BitstreamVeraSans-Roman-30"/>
      </g>
     </g>
    </g>
    <g id="xtick_21">
     <g id="line2d_41">
      <g>
       <use style="stroke:#000000;stroke-width:0.5;" x="661.444897959" xlink:href="#m93b0483c22" y="648.0"/>
      </g>
     </g>
     <g id="line2d_42">
      <g>
       <use style="stroke:#000000;stroke-width:0.5;" x="661.444897959" xlink:href="#m741efc42ff" y="72.0"/>
      </g>
     </g>
     <g id="text_21">
      <!-- C:250/P:50 -->
      <g transform="translate(664.203169209 705.6847675)rotate(-90.0)scale(0.09996 -0.09996)">
       <use xlink:href="#BitstreamVeraSans-Roman-43"/>
       <use x="69.82421875" xlink:href="#BitstreamVeraSans-Roman-3a"/>
       <use x="103.515625" xlink:href="#BitstreamVeraSans-Roman-32"/>
       <use x="167.138671875" xlink:href="#BitstreamVeraSans-Roman-35"/>
       <use x="230.76171875" xlink:href="#BitstreamVeraSans-Roman-30"/>
       <use x="294.384765625" xlink:href="#BitstreamVeraSans-Roman-2f"/>
       <use x="328.076171875" xlink:href="#BitstreamVeraSans-Roman-50"/>
       <use x="388.37890625" xlink:href="#BitstreamVeraSans-Roman-3a"/>
       <use x="422.0703125" xlink:href="#BitstreamVeraSans-Roman-35"/>
       <use x="485.693359375" xlink:href="#BitstreamVeraSans-Roman-30"/>
      </g>
     </g>
    </g>
    <g id="xtick_22">
     <g id="line2d_43">
      <g>
       <use style="stroke:#000000;stroke-width:0.5;" x="688.775510204" xlink:href="#m93b0483c22" y="648.0"/>
      </g>
     </g>
     <g id="line2d_44">
      <g>
       <use style="stroke:#000000;stroke-width:0.5;" x="688.775510204" xlink:href="#m741efc42ff" y="72.0"/>
      </g>
     </g>
     <g id="text_22">
      <!-- C:250/P:100 -->
      <g transform="translate(691.533781454 712.0447225)rotate(-90.0)scale(0.09996 -0.09996)">
       <use xlink:href="#BitstreamVeraSans-Roman-43"/>
       <use x="69.82421875" xlink:href="#BitstreamVeraSans-Roman-3a"/>
       <use x="103.515625" xlink:href="#BitstreamVeraSans-Roman-32"/>
       <use x="167.138671875" xlink:href="#BitstreamVeraSans-Roman-35"/>
       <use x="230.76171875" xlink:href="#BitstreamVeraSans-Roman-30"/>
       <use x="294.384765625" xlink:href="#BitstreamVeraSans-Roman-2f"/>
       <use x="328.076171875" xlink:href="#BitstreamVeraSans-Roman-50"/>
       <use x="388.37890625" xlink:href="#BitstreamVeraSans-Roman-3a"/>
       <use x="422.0703125" xlink:href="#BitstreamVeraSans-Roman-31"/>
       <use x="485.693359375" xlink:href="#BitstreamVeraSans-Roman-30"/>
       <use x="549.31640625" xlink:href="#BitstreamVeraSans-Roman-30"/>
      </g>
     </g>
    </g>
    <g id="xtick_23">
     <g id="line2d_45">
      <g>
       <use style="stroke:#000000;stroke-width:0.5;" x="716.106122449" xlink:href="#m93b0483c22" y="648.0"/>
      </g>
     </g>
     <g id="line2d_46">
      <g>
       <use style="stroke:#000000;stroke-width:0.5;" x="716.106122449" xlink:href="#m741efc42ff" y="72.0"/>
      </g>
     </g>
     <g id="text_23">
      <!-- C:250/P:150 -->
      <g transform="translate(718.864393699 712.0447225)rotate(-90.0)scale(0.09996 -0.09996)">
       <use xlink:href="#BitstreamVeraSans-Roman-43"/>
       <use x="69.82421875" xlink:href="#BitstreamVeraSans-Roman-3a"/>
       <use x="103.515625" xlink:href="#BitstreamVeraSans-Roman-32"/>
       <use x="167.138671875" xlink:href="#BitstreamVeraSans-Roman-35"/>
       <use x="230.76171875" xlink:href="#BitstreamVeraSans-Roman-30"/>
       <use x="294.384765625" xlink:href="#BitstreamVeraSans-Roman-2f"/>
       <use x="328.076171875" xlink:href="#BitstreamVeraSans-Roman-50"/>
       <use x="388.37890625" xlink:href="#BitstreamVeraSans-Roman-3a"/>
       <use x="422.0703125" xlink:href="#BitstreamVeraSans-Roman-31"/>
       <use x="485.693359375" xlink:href="#BitstreamVeraSans-Roman-35"/>
       <use x="549.31640625" xlink:href="#BitstreamVeraSans-Roman-30"/>
      </g>
     </g>
    </g>
    <g id="xtick_24">
     <g id="line2d_47">
      <g>
       <use style="stroke:#000000;stroke-width:0.5;" x="743.436734694" xlink:href="#m93b0483c22" y="648.0"/>
      </g>
     </g>
     <g id="line2d_48">
      <g>
       <use style="stroke:#000000;stroke-width:0.5;" x="743.436734694" xlink:href="#m741efc42ff" y="72.0"/>
      </g>
     </g>
     <g id="text_24">
      <!-- C:250/P:200 -->
      <g transform="translate(746.195005944 712.0447225)rotate(-90.0)scale(0.09996 -0.09996)">
       <use xlink:href="#BitstreamVeraSans-Roman-43"/>
       <use x="69.82421875" xlink:href="#BitstreamVeraSans-Roman-3a"/>
       <use x="103.515625" xlink:href="#BitstreamVeraSans-Roman-32"/>
       <use x="167.138671875" xlink:href="#BitstreamVeraSans-Roman-35"/>
       <use x="230.76171875" xlink:href="#BitstreamVeraSans-Roman-30"/>
       <use x="294.384765625" xlink:href="#BitstreamVeraSans-Roman-2f"/>
       <use x="328.076171875" xlink:href="#BitstreamVeraSans-Roman-50"/>
       <use x="388.37890625" xlink:href="#BitstreamVeraSans-Roman-3a"/>
       <use x="422.0703125" xlink:href="#BitstreamVeraSans-Roman-32"/>
       <use x="485.693359375" xlink:href="#BitstreamVeraSans-Roman-30"/>
       <use x="549.31640625" xlink:href="#BitstreamVeraSans-Roman-30"/>
      </g>
     </g>
    </g>
    <g id="xtick_25">
     <g id="line2d_49">
      <g>
       <use style="stroke:#000000;stroke-width:0.5;" x="770.767346939" xlink:href="#m93b0483c22" y="648.0"/>
      </g>
     </g>
     <g id="line2d_50">
      <g>
       <use style="stroke:#000000;stroke-width:0.5;" x="770.767346939" xlink:href="#m741efc42ff" y="72.0"/>
      </g>
     </g>
     <g id="text_25">
      <!-- C:250/P:250 -->
      <g transform="translate(773.525618189 712.0447225)rotate(-90.0)scale(0.09996 -0.09996)">
       <use xlink:href="#BitstreamVeraSans-Roman-43"/>
       <use x="69.82421875" xlink:href="#BitstreamVeraSans-Roman-3a"/>
       <use x="103.515625" xlink:href="#BitstreamVeraSans-Roman-32"/>
       <use x="167.138671875" xlink:href="#BitstreamVeraSans-Roman-35"/>
       <use x="230.76171875" xlink:href="#BitstreamVeraSans-Roman-30"/>
       <use x="294.384765625" xlink:href="#BitstreamVeraSans-Roman-2f"/>
       <use x="328.076171875" xlink:href="#BitstreamVeraSans-Roman-50"/>
       <use x="388.37890625" xlink:href="#BitstreamVeraSans-Roman-3a"/>
       <use x="422.0703125" xlink:href="#BitstreamVeraSans-Roman-32"/>
       <use x="485.693359375" xlink:href="#BitstreamVeraSans-Roman-35"/>
       <use x="549.31640625" xlink:href="#BitstreamVeraSans-Roman-30"/>
      </g>
     </g>
    </g>
   </g>
   <g id="matplotlib.axis_2">
    <g id="ytick_1">
     <g id="line2d_51">
      <defs>
       <path d="
M0 0
L4 0" id="m728421d6d4" style="stroke:#000000;stroke-width:0.5;"/>
      </defs>
      <g>
       <use style="stroke:#000000;stroke-width:0.5;" x="108.0" xlink:href="#m728421d6d4" y="648.0"/>
      </g>
     </g>
     <g id="line2d_52">
      <defs>
       <path d="
M0 0
L-4 0" id="mcb0005524f" style="stroke:#000000;stroke-width:0.5;"/>
      </defs>
      <g>
       <use style="stroke:#000000;stroke-width:0.5;" x="777.6" xlink:href="#mcb0005524f" y="648.0"/>
      </g>
     </g>
     <g id="text_26">
      <!-- 0 -->
      <g transform="translate(97.953125 651.31125)scale(0.12 -0.12)">
       <use xlink:href="#BitstreamVeraSans-Roman-30"/>
      </g>
     </g>
    </g>
    <g id="ytick_2">
     <g id="line2d_53">
      <g>
       <use style="stroke:#000000;stroke-width:0.5;" x="108.0" xlink:href="#m728421d6d4" y="532.8"/>
      </g>
     </g>
     <g id="line2d_54">
      <g>
       <use style="stroke:#000000;stroke-width:0.5;" x="777.6" xlink:href="#mcb0005524f" y="532.8"/>
      </g>
     </g>
     <g id="text_27">
      <!-- 20 -->
      <g transform="translate(90.40625 536.11125)scale(0.12 -0.12)">
       <use xlink:href="#BitstreamVeraSans-Roman-32"/>
       <use x="63.623046875" xlink:href="#BitstreamVeraSans-Roman-30"/>
      </g>
     </g>
    </g>
    <g id="ytick_3">
     <g id="line2d_55">
      <g>
       <use style="stroke:#000000;stroke-width:0.5;" x="108.0" xlink:href="#m728421d6d4" y="417.6"/>
      </g>
     </g>
     <g id="line2d_56">
      <g>
       <use style="stroke:#000000;stroke-width:0.5;" x="777.6" xlink:href="#mcb0005524f" y="417.6"/>
      </g>
     </g>
     <g id="text_28">
      <!-- 40 -->
      <defs>
       <path d="
M37.7969 64.3125
L12.8906 25.3906
L37.7969 25.3906
z

M35.2031 72.9062
L47.6094 72.9062
L47.6094 25.3906
L58.0156 25.3906
L58.0156 17.1875
L47.6094 17.1875
L47.6094 0
L37.7969 0
L37.7969 17.1875
L4.89062 17.1875
L4.89062 26.7031
z
" id="BitstreamVeraSans-Roman-34"/>
      </defs>
      <g transform="translate(90.11375 420.91125)scale(0.12 -0.12)">
       <use xlink:href="#BitstreamVeraSans-Roman-34"/>
       <use x="63.623046875" xlink:href="#BitstreamVeraSans-Roman-30"/>
      </g>
     </g>
    </g>
    <g id="ytick_4">
     <g id="line2d_57">
      <g>
       <use style="stroke:#000000;stroke-width:0.5;" x="108.0" xlink:href="#m728421d6d4" y="302.4"/>
      </g>
     </g>
     <g id="line2d_58">
      <g>
       <use style="stroke:#000000;stroke-width:0.5;" x="777.6" xlink:href="#mcb0005524f" y="302.4"/>
      </g>
     </g>
     <g id="text_29">
      <!-- 60 -->
      <defs>
       <path d="
M33.0156 40.375
Q26.375 40.375 22.4844 35.8281
Q18.6094 31.2969 18.6094 23.3906
Q18.6094 15.5312 22.4844 10.9531
Q26.375 6.39062 33.0156 6.39062
Q39.6562 6.39062 43.5312 10.9531
Q47.4062 15.5312 47.4062 23.3906
Q47.4062 31.2969 43.5312 35.8281
Q39.6562 40.375 33.0156 40.375
M52.5938 71.2969
L52.5938 62.3125
Q48.875 64.0625 45.0938 64.9844
Q41.3125 65.9219 37.5938 65.9219
Q27.8281 65.9219 22.6719 59.3281
Q17.5312 52.7344 16.7969 39.4062
Q19.6719 43.6562 24.0156 45.9219
Q28.375 48.1875 33.5938 48.1875
Q44.5781 48.1875 50.9531 41.5156
Q57.3281 34.8594 57.3281 23.3906
Q57.3281 12.1562 50.6875 5.35938
Q44.0469 -1.42188 33.0156 -1.42188
Q20.3594 -1.42188 13.6719 8.26562
Q6.98438 17.9688 6.98438 36.375
Q6.98438 53.6562 15.1875 63.9375
Q23.3906 74.2188 37.2031 74.2188
Q40.9219 74.2188 44.7031 73.4844
Q48.4844 72.75 52.5938 71.2969" id="BitstreamVeraSans-Roman-36"/>
      </defs>
      <g transform="translate(90.365 305.71125)scale(0.12 -0.12)">
       <use xlink:href="#BitstreamVeraSans-Roman-36"/>
       <use x="63.623046875" xlink:href="#BitstreamVeraSans-Roman-30"/>
      </g>
     </g>
    </g>
    <g id="ytick_5">
     <g id="line2d_59">
      <g>
       <use style="stroke:#000000;stroke-width:0.5;" x="108.0" xlink:href="#m728421d6d4" y="187.2"/>
      </g>
     </g>
     <g id="line2d_60">
      <g>
       <use style="stroke:#000000;stroke-width:0.5;" x="777.6" xlink:href="#mcb0005524f" y="187.2"/>
      </g>
     </g>
     <g id="text_30">
      <!-- 80 -->
      <defs>
       <path d="
M31.7812 34.625
Q24.75 34.625 20.7188 30.8594
Q16.7031 27.0938 16.7031 20.5156
Q16.7031 13.9219 20.7188 10.1562
Q24.75 6.39062 31.7812 6.39062
Q38.8125 6.39062 42.8594 10.1719
Q46.9219 13.9688 46.9219 20.5156
Q46.9219 27.0938 42.8906 30.8594
Q38.875 34.625 31.7812 34.625
M21.9219 38.8125
Q15.5781 40.375 12.0312 44.7188
Q8.5 49.0781 8.5 55.3281
Q8.5 64.0625 14.7188 69.1406
Q20.9531 74.2188 31.7812 74.2188
Q42.6719 74.2188 48.875 69.1406
Q55.0781 64.0625 55.0781 55.3281
Q55.0781 49.0781 51.5312 44.7188
Q48 40.375 41.7031 38.8125
Q48.8281 37.1562 52.7969 32.3125
Q56.7812 27.4844 56.7812 20.5156
Q56.7812 9.90625 50.3125 4.23438
Q43.8438 -1.42188 31.7812 -1.42188
Q19.7344 -1.42188 13.25 4.23438
Q6.78125 9.90625 6.78125 20.5156
Q6.78125 27.4844 10.7812 32.3125
Q14.7969 37.1562 21.9219 38.8125
M18.3125 54.3906
Q18.3125 48.7344 21.8438 45.5625
Q25.3906 42.3906 31.7812 42.3906
Q38.1406 42.3906 41.7188 45.5625
Q45.3125 48.7344 45.3125 54.3906
Q45.3125 60.0625 41.7188 63.2344
Q38.1406 66.4062 31.7812 66.4062
Q25.3906 66.4062 21.8438 63.2344
Q18.3125 60.0625 18.3125 54.3906" id="BitstreamVeraSans-Roman-38"/>
      </defs>
      <g transform="translate(90.340625 190.51125)scale(0.12 -0.12)">
       <use xlink:href="#BitstreamVeraSans-Roman-38"/>
       <use x="63.623046875" xlink:href="#BitstreamVeraSans-Roman-30"/>
      </g>
     </g>
    </g>
    <g id="ytick_6">
     <g id="line2d_61">
      <g>
       <use style="stroke:#000000;stroke-width:0.5;" x="108.0" xlink:href="#m728421d6d4" y="72.0"/>
      </g>
     </g>
     <g id="line2d_62">
      <g>
       <use style="stroke:#000000;stroke-width:0.5;" x="777.6" xlink:href="#mcb0005524f" y="72.0"/>
      </g>
     </g>
     <g id="text_31">
      <!-- 100 -->
      <g transform="translate(83.21 75.31125)scale(0.12 -0.12)">
       <use xlink:href="#BitstreamVeraSans-Roman-31"/>
       <use x="63.623046875" xlink:href="#BitstreamVeraSans-Roman-30"/>
       <use x="127.24609375" xlink:href="#BitstreamVeraSans-Roman-30"/>
      </g>
     </g>
    </g>
   </g>
   <g id="patch_28">
    <path d="
M108 72
L777.6 72" style="fill:none;stroke:#000000;"/>
   </g>
   <g id="patch_29">
    <path d="
M777.6 648
L777.6 72" style="fill:none;stroke:#000000;"/>
   </g>
   <g id="patch_30">
    <path d="
M108 648
L777.6 648" style="fill:none;stroke:#000000;"/>
   </g>
   <g id="patch_31">
    <path d="
M108 648
L108 72" style="fill:none;stroke:#000000;"/>
   </g>
  </g>
 </g>
 <defs>
  <clipPath id="p20bdb09884">
   <rect height="576.0" width="669.6" x="108.0" y="72.0"/>
  </clipPath>
 </defs>
</svg>
